<svg width="400" height="400" viewBox="0 0 400 400" fill="none" xmlns="http://www.w3.org/2000/svg">
<path fill-rule="evenodd" clip-rule="evenodd" d="M218.499 159.405C217.151 161.686 216.887 165.795 218.016 166.924C219.31 168.218 205.81 172.033 187.661 175.501C183.444 176.307 179.493 177.245 178.88 177.585C177.399 178.405 164.521 180.373 158.386 180.717C155.703 180.867 149.89 181.471 145.468 182.058C123.14 185.024 79.6549 185.265 60.7142 182.526C53.7685 181.522 49.9994 181.604 49.9994 182.761C49.9994 183.713 53.3515 184.572 57.1282 184.587C59.3486 184.596 60.7734 186.434 61.722 190.519C62.078 192.053 63.3826 197.071 64.6205 201.671C65.8593 206.272 66.9507 210.714 67.0465 211.545C67.395 214.563 71.785 224.425 72.4735 223.737C73.4249 222.786 79.7206 203.55 81.4065 196.444C84.212 184.619 91.1953 182.995 94.8865 193.307C95.4359 194.84 97.6328 201.019 99.7696 207.037C104.542 220.479 106.654 225.717 107.305 225.718C107.824 225.719 112.732 210.829 112.732 209.254C112.732 207.961 117.653 190.052 118.397 188.632C120.267 185.071 126.303 186.722 128.201 191.314C128.812 192.794 131.519 199.336 134.216 205.854C136.913 212.37 139.646 219.036 140.29 220.665C142.207 225.514 143.632 224.687 145.097 217.877C145.777 214.714 146.473 211.499 146.643 210.732C146.814 209.966 147.077 208.496 147.229 207.466C147.942 202.632 151.261 188.193 152.107 186.25C152.949 184.311 158.692 182.115 159.761 183.322C160.347 183.984 163.841 191.407 166.593 197.837C170.625 207.26 176.962 220.142 177.564 220.142C178.49 220.142 184.283 191.09 183.51 190.318C183.308 190.116 183.489 189.534 183.912 189.024C184.335 188.514 184.51 187.653 184.303 187.111C184.094 186.568 184.129 185.919 184.38 185.669C184.631 185.418 184.908 184.096 184.995 182.731C185.227 179.1 186.888 177.623 190.732 177.627L193.935 177.63L201.764 193.484C212.149 214.516 212.76 215.269 213.458 207.905C213.673 205.626 214.297 200.94 214.844 197.489C215.391 194.039 216.346 187.923 216.967 183.897C218.684 172.763 219.142 171.351 221.037 171.351C224.975 171.351 225.1 172.16 224.554 193.837C223.938 218.244 224.082 218.533 231.445 207.617C233.391 204.729 236.256 200.778 237.809 198.834C239.364 196.89 241.577 194.07 242.726 192.568C248.347 185.226 250.168 183.73 253.015 184.112C257.655 184.734 257.508 184.111 258.026 205.35C258.641 230.514 258.161 229.856 266.552 217.039C277.847 199.79 283.282 193.275 285.843 193.917C289.598 194.859 290.29 196.35 290.781 204.561C291.495 216.503 293.236 234.989 293.687 235.427C294.116 235.842 299.528 229.933 299.532 229.048C299.533 228.77 301.604 225.164 304.135 221.032C315.882 201.855 317.168 200.557 322.171 202.836C324.358 203.832 324.194 203.066 326.336 222.233C328.399 240.678 328.647 242.518 329.136 243.007C329.613 243.483 329.52 243.619 332.611 237.916C335.31 232.938 339.269 226.346 339.938 225.719C340.499 225.193 342.058 222.384 344.584 217.355C345.835 214.862 347.533 211.804 348.357 210.558C349.438 208.924 349.594 208.286 348.916 208.27C348.279 208.255 348.384 207.94 349.245 207.288C350.714 206.174 350.371 205.989 345.188 205.101C343.656 204.839 341.86 204.345 341.199 204.004C339.9 203.334 334.316 202.136 329.868 201.574C324.595 200.907 298.861 195.019 287.685 191.921C284.042 190.911 278.396 189.444 275.138 188.659C271.879 187.875 268.586 186.961 267.819 186.628C263.46 184.734 253.214 180.787 248.999 179.378C244.24 177.786 233.539 173.495 226.845 170.493C224.347 169.374 223.627 168.725 223.978 167.909C227.138 160.569 222.271 153.018 218.499 159.405ZM222.463 160.597C223.953 162.087 223.841 164.605 222.22 166.073C220.003 168.079 218.05 162.5 220.213 160.338C221.253 159.297 221.151 159.285 222.463 160.597ZM229.338 204.186C228.893 204.631 228.623 201.451 228.561 195.037C228.509 189.628 228.277 184.898 228.046 184.526C227.816 184.152 227.882 182.525 228.196 180.909C228.636 178.645 228.909 180.894 229.393 190.738C229.798 198.994 229.78 203.744 229.338 204.186ZM200.828 181.283C201.396 182.53 202.831 185.73 204.017 188.396C205.204 191.062 206.604 193.728 207.13 194.321C207.655 194.913 208.589 196.653 209.204 198.186L210.323 200.974L208.926 199.232C207.184 197.062 199.162 181.218 199.162 179.95C199.162 178.423 199.731 178.878 200.828 181.283ZM167.105 188.792C167.969 191.099 168.94 193.152 169.264 193.352C170.457 194.09 174.701 202.444 175.082 204.807C175.362 206.544 174.346 205.037 171.556 199.581C163.55 183.916 163.85 184.594 164.923 184.594C165.26 184.594 166.242 186.483 167.105 188.792ZM68.4394 197.971C71.3201 204.81 73.3066 212.183 71.9202 210.89C71.6018 210.593 70.6551 208.084 69.8154 205.314C68.9767 202.544 67.1715 197.788 65.8049 194.746C64.4383 191.705 63.515 188.9 63.7526 188.515C63.9912 188.129 64.4364 188.422 64.7435 189.167C65.0507 189.911 66.7131 193.872 68.4394 197.971ZM134.514 192.784C135.499 194.605 137.455 199.546 138.86 203.762C140.266 207.979 141.575 211.822 141.769 212.301C141.964 212.78 141.851 213.172 141.52 213.172C141.187 213.172 139.703 209.487 138.221 204.982C136.739 200.478 134.636 195.145 133.547 193.133C132.459 191.12 131.829 189.473 132.146 189.473C132.463 189.473 133.529 190.963 134.514 192.784ZM261.894 203.182C261.894 210.721 261.781 216.759 261.642 216.6C261.002 215.86 260.585 189.473 261.213 189.473C261.634 189.473 261.894 194.719 261.894 203.182ZM102.588 199.456C104.354 203.59 105.937 208.445 106.107 210.247C106.277 212.047 106.249 212.893 106.047 212.127C105.845 211.36 105.5 210.262 105.28 209.687C105.06 209.112 104.794 208.014 104.688 207.248C104.582 206.481 103.055 202.896 101.295 199.282C99.5347 195.668 98.1043 192.061 98.1156 191.266C98.1447 189.302 98.635 190.201 102.588 199.456ZM295.994 205.651C296.225 208.829 296.247 214.252 296.041 217.703C295.689 223.636 295.646 223.373 295.246 212.824C295.013 206.69 294.586 200.887 294.296 199.929C293.869 198.52 293.941 198.347 294.671 199.029C295.189 199.513 295.753 202.333 295.994 205.651ZM330.528 219.019C330.787 224.429 331.154 229.404 331.345 230.075C331.535 230.745 331.37 231.295 330.978 231.295C330.004 231.295 329.641 228.42 329.174 217.005C328.928 210.981 329.02 207.618 329.416 208.215C329.768 208.748 330.268 213.61 330.528 219.019Z" fill="#0000FF"/>
</svg>
