<svg width="400" height="400" viewBox="0 0 400 400" fill="none" xmlns="http://www.w3.org/2000/svg">
<path style="fill:#0000FF;" d="M187.53,144.526
	c-4.79,0-8.687-3.897-8.687-8.687v-10.481h85.521v10.481c0,4.79-3.897,8.687-8.686,8.687L187.53,144.526z M187.53,114.577h68.148
	c4.066,0,7.478,2.811,8.42,6.59H179.11C180.052,117.388,183.464,114.577,187.53,114.577z M194.774,94.105
	c0-10.055,8.18-18.236,18.236-18.236h17.188c10.055,0,18.236,8.18,18.236,18.236v14.603h-53.66L194.774,94.105z M145.605,153.851
	c1.579,1.284,2.483,3.189,2.483,5.223v40.527c0,3.714-3.022,6.736-6.736,6.736h-27.907c-3.714,0-6.736-3.022-6.736-6.736v-40.575
	c0-2.012,0.89-3.904,2.44-5.188l13.806-11.434c1.206-0.998,2.731-1.547,4.296-1.547c1.545,0,3.055,0.537,4.253,1.512
	L145.605,153.851z M261.862,186.145c-4.947-3.011-8.955-7.018-11.589-11.59c-2.842-4.934-3.666-9.551-2.447-13.723
	c1.726-5.912,7.083-9.506,8.706-10.481c7.628-0.446,13.701-6.775,13.701-14.512v-12.576c0-8.026-6.529-14.555-14.555-14.555h-1.375
	V94.105C254.303,80.814,243.49,70,230.198,70H213.01c-13.292,0-24.105,10.814-24.105,24.105v14.603h-1.375
	c-7.021,0-12.897,4.996-14.258,11.621h-4.113c-6.057,0-10.985-4.928-10.985-10.985V86.854c0-9.294-7.561-16.854-16.855-16.854
	c-9.293,0-16.854,7.561-16.854,16.854v48.458c-1.916,0.436-3.724,1.305-5.253,2.572l-13.806,11.434
	c-2.902,2.403-4.565,5.941-4.565,9.708v40.575c0,6.951,5.655,12.605,12.605,12.605h27.907c6.951,0,12.605-5.654,12.605-12.605
	v-40.527c0-3.806-1.694-7.369-4.646-9.774l-14.101-11.482c-1.432-1.166-3.104-1.993-4.877-2.442V86.854
	c0-6.057,4.928-10.985,10.985-10.985c6.057,0,10.986,4.928,10.986,10.985v22.489c0,9.293,7.561,16.854,16.854,16.854h3.816v9.642
	c0,7.74,6.077,14.07,13.708,14.513c1.627,0.966,6.933,4.501,8.687,10.437c1.236,4.184,0.416,8.815-2.436,13.765
	c-2.634,4.572-6.639,8.579-11.584,11.587c-0.845,0.514-1.674,1.047-2.495,1.589l0.054,0.097l5.763,3.152
	c5.658-3.501,10.273-8.157,13.348-13.495c3.685-6.396,4.687-12.574,2.978-18.358c-1.062-3.595-3.033-6.502-5.083-8.732h7.383v3.563
	c0,0.695,0.563,1.258,1.257,1.258c0.695,0,1.258-0.563,1.258-1.258v-3.563h3.757v6.289c0,0.694,0.563,1.257,1.257,1.257
	c0.695,0,1.258-0.563,1.258-1.257v-6.289h4.224v18.027c0,0.694,0.563,1.257,1.257,1.257c0.695,0,1.258-0.563,1.258-1.257v-18.027
	h21.232c-2.469,3.513-5.168,9.551-4.757,18.92c0.03,0.676,0.586,1.203,1.256,1.203c0.018,0,0.037,0,0.056-0.001
	c0.693-0.031,1.232-0.618,1.201-1.312c-0.451-10.276,3.064-16.098,5.415-18.811h4.065c-2.05,2.229-4.021,5.136-5.083,8.731
	c-1.709,5.785-0.707,11.962,2.978,18.359c3.125,5.424,7.836,10.152,13.624,13.674c21.589,13.136,34.478,36.047,34.478,61.286
	c0,19.149-7.456,37.151-20.996,50.691c-13.78,13.779-32.178,21.25-51.712,20.987c-19.153-0.266-37.088-8.076-50.5-21.99
	c-13.43-13.933-20.584-32.173-20.146-51.36c0.408-17.82,7.317-34.447,19.114-47.115l-1.162-5.171l-1.313-0.718
	c-13.875,13.92-22.045,32.687-22.506,52.87c-0.475,20.764,7.262,40.499,21.787,55.568c14.507,15.05,33.913,23.498,54.644,23.787
	c0.368,0.005,0.737,0.007,1.103,0.007c0.002,0,0.001,0,0.002,0c20.715,0,40.192-8.068,54.839-22.715
	c14.649-14.648,22.716-34.124,22.716-54.84C299.159,225.14,285.217,200.355,261.862,186.145 M207.392,85.416
	c-1.898,0-3.436,1.538-3.436,3.436s1.538,3.436,3.436,3.436c1.898,0,3.436-1.538,3.436-3.436S209.29,85.416,207.392,85.416
	 M221.004,96.735c-1.898,0-3.436,1.539-3.436,3.437c0,1.897,1.538,3.436,3.436,3.436c1.898,0,3.437-1.539,3.437-3.436
	C224.44,98.274,222.902,96.735,221.004,96.735 M235.816,85.416
	c-1.898,0-3.436,1.538-3.436,3.436s1.538,3.436,3.436,3.436c1.898,0,3.436-1.538,3.436-3.436S237.714,85.416,235.816,85.416
	 M214.896,139.635h-25.432c-3.005,0-5.45-2.445-5.45-5.45v-3.376c0-0.695-0.563-1.258-1.258-1.258c-0.695,0-1.257,0.563-1.257,1.258v3.376
	c0,4.392,3.573,7.965,7.965,7.965h25.432c0.695,0,1.258-0.563,1.258-1.257C216.154,140.199,215.591,139.635,214.896,139.635
	 M233.761,139.635h-12.157c-0.695,0-1.257,0.563-1.257,1.258c0,0.694,0.563,1.257,1.257,1.257h12.157c0.695,0,1.257-0.563,1.257-1.257
	C235.019,140.199,234.456,139.635,233.761,139.635 M226.865,262.236
	c1.517,0,2.746,1.229,2.746,2.746c0,1.517-1.229,2.746-2.746,2.746c-1.516,0-2.746-1.229-2.746-2.746
	C224.119,263.465,225.348,262.236,226.865,262.236z M248.741,263.724c4.245,0,7.685,3.441,7.685,7.685s-3.441,7.686-7.685,7.686
	s-7.685-3.441-7.685-7.686S244.497,263.724,248.741,263.724z M256.749,249.513c2.211,0,4.004,1.792,4.004,4.003
	c0,2.212-1.793,4.004-4.004,4.004c-2.211,0-4.004-1.792-4.004-4.004C252.745,251.305,254.538,249.513,256.749,249.513z
	 M173.064,230.778c-0.051,0.112-5.076,11.272-4.287,22.175c0.083,1.155-0.786,2.158-1.94,2.242
	c-0.051,0.004-0.102,0.006-0.153,0.006c-1.089,0-2.009-0.842-2.089-1.945c-0.867-11.996,4.431-23.727,4.657-24.221
	c0.481-1.053,1.725-1.512,2.777-1.034C173.081,228.482,173.545,229.725,173.064,230.778L173.064,230.778z M171.312,273.688
	c-0.33,0.191-0.691,0.281-1.046,0.281c-0.725,0-1.429-0.376-1.817-1.048c-2.034-3.523-2.939-9.984-3.036-10.709
	c-0.152-1.147,0.654-2.201,1.801-2.354c1.152-0.149,2.202,0.653,2.355,1.799c0.233,1.744,1.139,6.791,2.511,9.167
	C172.658,271.828,172.315,273.109,171.312,273.688L171.312,273.688z M166.816,222.281c-5.449,9.682-8.409,20.951-8.001,32.945
	c1.101,32.372,27.082,58.866,59.429,60.551c36.223,1.886,66.185-26.928,66.185-62.739c0-11.387-3.031-22.067-8.329-31.276
	c-1.453-2.526-4.776-3.354-7.139-1.648c-3.662,2.645-8.16,4.204-13.022,4.204c-5.469,0-10.475-1.972-14.352-5.242
	c-1.788-1.508-4.443-1.508-6.231,0c-3.877,3.27-8.883,5.242-14.352,5.242c-5.469,0-10.475-1.972-14.352-5.242
	c-1.787-1.508-4.443-1.508-6.23,0c-3.877,3.27-8.883,5.242-14.352,5.242c-4.515,0-8.714-1.345-12.224-3.654
	C171.46,219.094,168.217,219.792,166.816,222.281 M247.673,190.663
	c0.227,0.173,0.494,0.256,0.76,0.256c0.38,0,0.755-0.171,1.002-0.497c0.42-0.554,0.312-1.342-0.241-1.762
	c-7.147-5.426-10.308-13.879-10.34-13.964c-0.239-0.651-0.958-0.988-1.614-0.748c-0.651,0.239-0.987,0.959-0.749,1.612
	C236.629,175.934,239.922,184.778,247.673,190.663 M187.508,210.735
	c0.087,0.048,0.15,0.131,0.171,0.227l1.296,5.765c0.081,0.36,0.593,0.36,0.674,0l1.296-5.765c0.021-0.097,0.084-0.18,0.171-0.227
	l2.357-1.288c0.24-0.131,0.24-0.475,0-0.607l-2.405-1.315c-0.058-0.032-0.105-0.079-0.137-0.138l-1.316-2.405
	c-0.131-0.239-0.475-0.239-0.606,0l-1.316,2.405c-0.032,0.058-0.079,0.106-0.137,0.138l-2.405,1.315
	c-0.239,0.131-0.239,0.475,0,0.607L187.508,210.735 M195.782,198.451
	c0.06,0.033,0.104,0.09,0.119,0.157l0.897,3.988c0.056,0.249,0.41,0.249,0.466,0l0.897-3.988c0.015-0.067,0.058-0.124,0.119-0.157
	l1.63-0.891c0.166-0.091,0.166-0.329,0-0.42l-1.664-0.91c-0.04-0.022-0.073-0.055-0.095-0.096l-0.91-1.664
	c-0.09-0.166-0.329-0.166-0.419,0l-0.91,1.664c-0.022,0.04-0.055,0.073-0.095,0.096l-1.664,0.91c-0.166,0.09-0.166,0.329,0,0.42
	L195.782,198.451 M132.778,163.846
	c1.817,0,3.291,1.473,3.291,3.29c0,1.817-1.473,3.291-3.291,3.291c-1.817,0-3.29-1.473-3.29-3.291S130.961,163.846,132.778,163.846z
	 M122.447,170.427c-1.817,0-3.291-1.473-3.291-3.291s1.473-3.29,3.291-3.29c1.817,0,3.291,1.473,3.291,3.29
	C125.737,168.954,124.264,170.427,122.447,170.427z M114.782,163.461c-0.26,4.042,1.351,7.713,4.048,10.238v3.927
	c0,1.684,1.138,3.102,2.687,3.529c0.502,0.138,0.998-0.25,1.034-0.769l0.06-0.885c0-0.468,0.379-0.848,0.848-0.848h1.332
	c0.468,0,0.848,0.379,0.848,0.848v0.739c0,0.577,0.468,1.045,1.045,1.045h1.858c0.577,0,1.045-0.468,1.045-1.045v-0.739
	c0-0.468,0.38-0.848,0.848-0.848h1.332c0.468,0,0.848,0.379,0.848,0.848l0.06,0.885c0.036,0.52,0.532,0.908,1.034,0.769
	c1.549-0.426,2.687-1.845,2.687-3.529v-3.927c2.507-2.346,4.076-5.683,4.076-9.388c0-7.372-6.205-13.296-13.678-12.833
	C120.4,151.874,115.193,157.069,114.782,163.461 M133.671,195.17l-3.444-3.444
	l3.215-3.215c0.839,0.839,2.199,0.839,3.039,0c0.839-0.839,0.839-2.199,0-3.038c-0.56-0.56-1.35-0.737-2.064-0.55
	c0.187-0.715,0.01-1.505-0.55-2.065c-0.839-0.839-2.199-0.839-3.039,0c-0.839,0.839-0.839,2.199,0,3.039l-3.215,3.215l-3.215-3.215
	c0.839-0.839,0.839-2.199,0-3.039c-0.839-0.839-2.199-0.839-3.038,0c-0.56,0.56-0.737,1.35-0.55,2.065
	c-0.715-0.188-1.505-0.01-2.065,0.55c-0.839,0.839-0.839,2.199,0,3.038c0.839,0.839,2.199,0.839,3.038,0l3.215,3.215l-3.445,3.444
	c-0.839-0.839-2.199-0.839-3.039,0c-0.839,0.839-0.839,2.199,0,3.039c0.56,0.56,1.35,0.737,2.065,0.55
	c-0.188,0.714-0.01,1.504,0.55,2.064c0.839,0.839,2.199,0.839,3.039,0c0.839-0.839,0.839-2.199,0-3.038l3.445-3.444l3.444,3.444
	c-0.839,0.839-0.839,2.199,0,3.038s2.199,0.839,3.039,0c0.56-0.56,0.737-1.35,0.55-2.064c0.714,0.187,1.504,0.01,2.064-0.55
	c0.839-0.839,0.839-2.199,0-3.039C135.871,194.331,134.511,194.331,133.671,195.17 M182.272,192.921l-4.97-2.718
	c-0.12-0.066-0.219-0.165-0.284-0.284l-2.718-4.97c-0.271-0.495-0.982-0.495-1.253,0l-2.718,4.97
	c-0.066,0.12-0.164,0.219-0.284,0.284l-4.97,2.718c-0.495,0.271-0.495,0.982,0,1.253l4.87,2.663c0.18,0.099,0.309,0.27,0.354,0.47
	l2.678,11.914c0.167,0.744,1.227,0.744,1.394,0l2.678-11.914c0.045-0.2,0.174-0.371,0.354-0.47l4.87-2.663
	C182.767,193.903,182.767,193.192,182.272,192.921"/>
</svg>
