<svg width="400" height="400" viewBox="0 0 400 400" fill="none" xmlns="http://www.w3.org/2000/svg">
<path style="fill:#0000FF;" d="M169.246,258.375c-0.65-1.409-1.452-3.599-1.606-6.342c-0.175-3.127,0.57-5.588,1.606-8.382
	c2.932-7.909,6.111-13.124,6.111-13.124c2.748-4.508,3.734-5.48,11.197-15.619c0,0,6.7-9.101,17.098-19.665
	c0.872-0.886,1.819-1.827,3.367-2.309c4.309-1.343,7.297,2.732,16.031,7.094c1.328,0.663,5.793,2.112,14.724,5.012
	c3.017,0.98,5.746,1.88,8.928,0.992c3.22-0.898,5.216-3.133,5.535-3.498c0.968-1.111,2.029-2.329,2.28-4.139
	c0.312-2.25-0.894-3.494-0.087-5.729c0.356-0.987,0.909-1.623,1.044-1.775c2.286-2.561,5.979-1.331,6.631-2.872
	c0.614-1.45-2.237-3.055-1.658-4.869c0.604-1.891,4.104-1.292,4.895-3.211c0.931-2.26-3.115-4.901-2.245-6.853
	c0.313-0.703,2.197-1.043,5.946-1.723c2.317-0.42,4.985-0.787,6.735-2.408c0.305-0.282,0.606-0.625,0.764-1.116
	c0.357-1.11-0.265-2.217-1.007-3.494c-0.177-0.305-0.578-0.994-1.943-2.641c-1.281-1.545-1.932-2.245-1.932-2.245
	c-7.567-8.141-3.865-4.496-7.727-8.615c-2.384-2.542-3.231-3.329-3.133-4.595c0.096-1.244,1.008-1.676,1.932-3.55
	c0.839-1.7,0.979-3.149,1.149-4.908c0.252-2.612,0.016-5.486-1.241-10.299c-0.804-3.077-1.789-6.672-3.917-11.276
	c-0.999-2.162-4.115-8.539-9.435-14.32c-7.94-8.628-17.258-12.09-23.001-14.151c-28.479-10.22-54.884,0.12-64.191,3.536
	c-12.937,4.749-22.199,13.623-28.971,25.756c-4.583,8.211-5.291,16.211-2.845,26.315c3.744-1.767,6.945-3.318,10.179-4.796
	c13.255-6.058,31.2-2.709,40.484,8.407c8.808,10.546,9.675,18.526-0.178,31.416c-9.95,13.017-24.89,17.861-40.298,16.511
	c-27.991-2.451-44.163-19.743-46.198-44.317c-1.507-18.202,5.34-33.789,17.872-47.049c22.161-23.449,50.141-32.402,81.452-33.435
	c26.217-0.865,50.871,4.723,73.552,18.035c13.524,7.938,24.899,18.091,32.142,32.473c12.762,25.342,6.172,45.063-11.45,63.987
	c-10.072,10.816-22.266,19.129-35.05,26.586c-6.494,3.788-12.803,8.01-18.722,12.642c-11.807,9.239-15.032,16.153-16.708,20.78
	c-1.611,4.448-2.057,8.399-2.179,11.044c-2.343-0.647-5.559-1.426-9.437-2.036c-3.464-0.545-7.103-1.117-11.748-0.94
	c-3.692,0.141-6.289,0.69-10.338,1.566C180.024,255.01,175.062,256.277,169.246,258.375z M196.834,269.418
	c-19.954,0-36.13,13.562-36.13,30.291c0,16.729,16.176,30.291,36.13,30.291s36.13-13.562,36.13-30.291
	C232.964,282.98,216.788,269.418,196.834,269.418z"/>
</svg>
