<svg width="400" height="400" viewBox="0 0 400 400" fill="none" xmlns="http://www.w3.org/2000/svg">
<path style="fill:#FF0000;" d="M339.934,318.262c-0.265-3.025-1.256-6-2.052-8.962c-1.081-4.021-2.433-7.974-3.411-12.018
	c-1.525-6.312-2.838-12.676-4.229-19.02c-0.485-2.211-0.828-4.458-1.42-6.638c-1.681-6.195-3.642-12.318-5.148-18.554
	c-1.86-7.703-3.252-15.518-5.115-23.22c-0.502-2.075-1.726-4.114-3.078-5.802c-1.18-1.473-3.078-2.347-4.536-3.625
	c-20.008-17.536-39.994-35.098-59.987-52.652c-7.998-7.023-16.059-13.976-23.97-21.095c-3.497-3.147-6.781-6.49-8.727-10.996
	c-1.097-2.54-3.108-5.079-6.006-5.278c-3.058-0.21-5.29-1.519-7.359-3.342c-1.224-1.078-2.434-2.172-3.646-3.264v10.776
	c0.506,0.441,1.007,0.888,1.517,1.325c1.018,0.872,1.057,1.483,0.122,2.508c-0.549,0.602-1.091,1.21-1.639,1.812v5.177
	c1.91-2.101,3.837-4.187,5.756-6.28c0.491-0.535,1.168-0.974,1.843-1.252c1.458-0.601,3.144,0.61,3.164,2.591
	c-0.838,1.332-1.662,3.139-2.923,4.558c-2.579,2.902-5.21,5.758-7.841,8.614v18.956c13.773,11.998,27.583,23.954,41.323,35.989
	c13.639,11.947,27.203,23.979,40.805,35.969c0.609,0.537,1.264,1.021,1.983,1.598c-4.781,1.365-9.208,2.241-13.32,3.898
	c-3.477,1.401-9.622,4.74-13.677,11.465c-0.301,0.5-1.836,3.086-2.963,6.78c-0.927,3.041-0.996,4.924-2.339,11.432
	c-0.314,1.521-0.586,2.753-0.757,3.514c-0.572-0.447-1.44-1.13-2.491-1.968c-10.756-8.576-18.092-15.676-21.077-18.243
	c-9.147-7.867-18.379-15.637-27.487-23.548v47.607c0.277,0.24,0.555,0.477,0.831,0.717c11.276,9.769,22.458,19.646,33.708,29.445
	c0.459,0.4,1.275,0.907,2.43,1.349c1.378,0.527,2.397,0.556,6.079,0.832c2.278,0.171,0.479,0.054,2.896,0.227
	c2.793,0.2,4.19,0.299,6.601,0.443c5.456,0.324,14.486,1.098,15.232,1.17c6.989,0.676,13.955,1.6,20.943,2.287
	c6.112,0.601,12.253,0.919,18.361,1.553c4.792,0.497,9.548,1.333,14.332,1.919c2.077,0.255,4.184,0.261,6.278,0.38
	c0.59,0.072,1.446,0.139,2.472,0.084c1.479-0.08,4.928-0.209,6.866-2.359C339.647,323.602,340.203,321.334,339.934,318.262z
	 M282.162,224.859c-1.018-0.395-1.991-1.047-2.817-1.773c-12.884-11.323-25.735-22.684-38.605-34.024
	c-8.597-7.575-17.237-15.103-25.793-22.724c-1.264-1.126-2.282-2.579-3.214-4.011c-1.002-1.539-0.799-3.112,0.434-4.546
	c1.266-1.474,2.865-1.742,4.458-0.934c1.716,0.871,3.419,1.902,4.852,3.174c6.777,6.018,13.36,12.258,20.201,18.202
	c9.879,8.585,19.964,16.932,29.87,25.487c4.419,3.816,8.696,7.808,12.87,11.891c1.494,1.461,2.494,3.426,3.275,4.531
	C287.688,223.387,284.386,225.722,282.162,224.859z M323.54,292.705c-0.961,2.642-2.93,5.047-4.862,7.182
	c-4.826,5.336-9.905,10.443-14.851,15.672c-1.401,1.481-2.76,1.871-4.929,1.372c-3.773-0.867-7.703-1.052-11.568-1.522
	c-7.12-0.867-14.227-1.867-21.365-2.559c-6.262-0.608-12.558-0.87-18.839-1.283c-0.673-0.044-1.348-0.063-2.02-0.109
	c-7.422-0.505-9.041-5.19-9.46-11.558c0.379-5.325,2.462-9.433,7.759-12.408c0.908-0.51,2.47-1.29,4.642-1.538
	c2.217-0.254,3.995,0.195,5.964,0.691c1.569,0.396,2.823,0.865,3.661,1.213c-0.218-0.685-0.521-1.732-0.778-3.028
	c-2.108-10.627,2.633-19.256,3.394-20.595c0.946-1.664,2.27-3.765,4.578-6.067c2.327-2.32,8.205-6.137,16.429-7.347
	c1.917-0.282,4.757-0.539,8.245-0.248c-0.124-0.875-0.341-2.201-0.726-3.796c-0.445-1.843-0.837-2.66-1.002-3.556
	c-0.625-3.397,0.391-6.612,0.453-6.801c2.065-6.36,8.135-8.668,9.021-8.982c4.111-1.454,7.99-1.061,11.55,1.117
	c1.227,0.75,2.109,2.571,2.509,4.073c1.251,4.694,2.092,9.496,3.289,14.206c0.385,1.516,0.122,0.457,4.835,17.871
	c1.588,5.866,2.433,9.074,3.356,13.518C324.573,286.632,324.628,289.715,323.54,292.705z"/>
<path style="fill:#0000FF;" d="M198.75,237.301c-0.068-0.059-0.136-0.117-0.203-0.176c-7.663-6.704-15.067-13.704-22.68-20.466
	c-4.025-3.575-8.253-6.923-12.383-10.38c-0.567-0.475-1.099-0.992-1.607-1.453c5.579-6.438,11.072-12.768,16.556-19.107
	c4.458-5.153,8.906-10.314,13.357-15.473c0.196-0.227,0.373-0.469,0.567-0.697c2.766-3.232,3.858-3.15,6.158,0.341
	c0.071,0.108,0.156,0.208,0.235,0.311v-13.857c-1.55,1.688-3.095,3.379-4.624,5.086c-3.292,3.678-6.401,7.518-9.622,11.26
	c-3.273,3.802-6.561,7.593-9.92,11.318c-0.249,0.276-1.128,0.001-1.711-0.056c-0.113-0.011-0.205-0.206-0.311-0.312
	c-2.298-2.333-2.353-2.381-0.159-4.867c5.106-5.788,10.331-11.472,15.388-17.302c2.72-3.136,5.093-6.572,7.805-9.715
	c1.04-1.205,2.094-2.398,3.155-3.585v-5.187c-4.841,5.354-9.659,10.728-14.508,16.075c-2.812,3.101-5.779,6.063-8.547,9.202
	c-5.932,6.725-11.802,13.505-17.643,20.309c-1.202,1.4-1.981,3.191-3.281,4.472c-2.641,2.601-4.14,2.468-6.867,0.085
	c-9.141-7.986-18.293-15.958-27.498-23.869c-1.304-1.121-1.704-1.734-0.349-3.257c13.048-14.666,26.009-29.409,38.97-44.152
	c3.956-4.5,7.834-9.068,11.929-13.816c7.834,6.854,15.447,13.509,23.053,20.171c1.586,1.389,3.162,2.79,4.741,4.186v-10.845
	c-4.497-4.082-8.974-8.187-13.63-12.077c-4.235-3.538-8.11-7.13-10.348-12.334c-1.137-2.644-3.323-4.354-6.515-4.377
	c-0.921-0.007-1.962-0.36-2.734-0.875c-2.039-1.359-4.045-2.795-5.912-4.38c-2.912-2.473-5.629-5.178-8.559-7.629
	c-2.447-2.047-4.838-4.429-7.687-5.666c-4.87-2.114-10.204-2.702-14.746,0.812c-3.457,2.674-6.585,5.86-9.493,9.144
	c-9.114,10.293-18.02,20.771-27.074,31.118c-7.255,8.291-14.702,16.416-21.873,24.779c-2.91,3.394-5.603,7.05-7.882,10.892
	c-3.565,6.011-2.983,10.791,1.755,15.972c3.229,3.532,6.76,6.796,10.262,10.067c4.495,4.198,8.996,8.316,11.93,13.906
	c1.541,2.935,4.157,4.848,7.716,5.117c0.853,0.065,1.804,0.391,2.487,0.898c3.17,2.352,6.325,4.735,9.362,7.254
	c2.478,2.056,4.779,4.326,7.166,6.492c6.086,5.524,12.627,10.605,16.422,18.238c1.102,2.216,3.362,3.392,5.813,3.865
	c3.188,0.615,5.846,2.134,8.243,4.28c4.354,3.899,8.75,7.752,13.174,11.571c14.034,12.112,28.105,24.18,42.124,36.308V237.301z
	 M128.484,142.401c7.881-8.941,15.768-17.876,23.729-26.746c4.097-4.565,8.333-9.007,12.56-13.454
	c0.583-0.613,1.478-0.931,1.966-1.226c1.655,0.085,2.178,1.49,1.171,2.975c-1.93,2.846-3.898,5.695-6.133,8.3
	c-6.392,7.451-12.905,14.798-19.411,22.15c-3.228,3.648-6.487,7.272-9.865,10.779c-0.706,0.733-2.143,1.447-2.994,1.224
	C127.204,145.797,126.866,144.237,128.484,142.401z"/>
</svg>
