<svg width="400" height="400" viewBox="0 0 400 400" fill="none" xmlns="http://www.w3.org/2000/svg">
<path fill-rule="evenodd" clip-rule="evenodd" d="M238.665 71.7029C238.25 86.3173 233.245 105.849 226.455 119.357C220.834 130.538 190.28 165.558 186.145 165.558C185.377 165.558 174.023 174.645 169.949 178.519C166.775 181.54 165.471 186.517 167.151 189.205C167.748 190.163 168.345 191.696 168.477 192.611C168.609 193.527 169.323 196.336 170.064 198.854C175.58 217.597 167.244 230.134 133.002 254.595C123.867 261.12 117.596 265.877 117.324 266.488C117.172 266.831 116.548 267.113 115.94 267.113C111.234 267.113 92.2314 290.002 85.8804 303.323C81.5698 312.363 78.4258 328.866 80.8374 329.791C82.9226 330.592 100.539 328.914 101.898 327.785C102.427 327.347 103.18 327.061 103.572 327.152C103.963 327.241 105.338 326.88 106.627 326.348C107.916 325.817 109.331 325.382 109.773 325.382C115.587 325.382 137.834 307.014 146.082 295.406C177.741 250.842 184.672 244.429 201.934 243.725C205.408 243.583 207.396 243.928 208.805 244.914C209.894 245.677 211.805 246.302 213.05 246.302C214.294 246.302 215.544 246.677 215.827 247.134C216.11 247.592 217.256 247.967 218.373 247.967C219.49 247.967 220.406 248.341 220.406 248.799C220.406 249.911 225.986 249.871 226.676 248.755C226.973 248.273 227.65 248.028 228.181 248.212C230.63 249.058 234.114 245.675 255.366 221.815C258.801 217.96 261.894 214.775 262.242 214.738C263.374 214.616 278.901 202.586 290.624 192.749C303.358 182.063 308.007 177.626 313.022 171.384C315.781 167.951 318.639 164.431 319.375 163.563C320.66 162.044 320.579 162.001 317.225 162.437C313.046 162.978 312.515 162.607 314.072 160.231C318.015 154.215 317.7 132.896 313.744 138L312.199 139.993L307.299 132.339C291.164 107.137 263.567 75.2687 265.602 84.1894C266.732 89.1372 264.9 89.4075 261.758 84.7559C258.756 80.3118 252.917 73.5952 252.525 74.1336C252.414 74.285 251.864 75.566 251.302 76.9815L250.279 79.5547L245.31 74.6922C239.881 69.3799 238.745 68.8696 238.665 71.7029ZM250.372 89.0856C250.372 89.8864 250.72 90.758 251.146 91.0205C251.806 91.4287 252.388 94.584 253.302 102.711C253.585 105.227 253.663 105.307 254.517 103.959C254.951 103.273 255.556 100.182 255.861 97.0921C256.476 90.8376 257.128 90.1848 258.777 94.1656C261.388 100.471 259.22 116.227 254.426 125.786C251.185 132.247 251.419 133.423 254.955 128.454C257.956 124.237 261.339 116.29 263.303 108.846C265.193 101.68 266.847 102.354 267.166 110.422C267.366 115.489 268.146 117.082 268.995 114.156C269.228 113.355 269.83 111.107 270.333 109.161C271.69 103.91 272.555 104.816 273.731 112.723C274.875 120.414 276.119 121.486 277.253 115.756C278.748 108.193 281.5 114.35 281.432 125.106C281.38 133.035 281.86 132.626 284.024 122.896C285.424 116.603 287.803 121.298 287.82 130.388C287.833 137.66 288.904 138.1 290.857 131.636C293.494 122.91 295.547 125.588 293.74 135.397C292.588 141.65 293.002 142.74 295.088 138.951C302.215 126.012 302.874 132.336 295.994 147.661C290.487 159.93 290.59 159.591 293.04 157.361C294.22 156.286 296.802 151.883 298.778 147.575C302.16 140.2 303.661 138.516 304.112 141.583C304.34 143.136 301.799 154.074 300.402 157.557C299.017 161.011 299.744 161.055 302.324 157.673C305.091 154.044 307.231 153.713 306.508 157.026C304.609 165.706 292.273 182.264 293.948 173.882C294.603 170.609 293.385 170.704 291.275 174.09C289.342 177.197 280.321 186.3 280.375 185.091C280.395 184.649 280.719 182.695 281.096 180.749C282.066 175.732 282.339 175.514 272.134 187.909C268.308 192.555 264.656 196.357 264.017 196.357C262.458 196.357 262.493 196.23 265.315 191.626C270.159 183.72 269.629 182.072 264.024 187.607C259.79 191.789 251.394 198.022 249.995 198.022C248.935 198.022 249.765 196.259 253.559 190.446C259.336 181.595 262.814 171.141 257.559 178.425C250.566 188.116 243.614 192.598 249.132 183.857C257.962 169.871 272.593 137.557 270.875 135.838C270.18 135.144 268.685 136.444 268.685 137.743C268.685 140.071 256.496 162.687 250.44 171.593C243.403 181.939 240.456 183.69 244.83 174.922C249.837 164.887 249.516 163.857 243.395 170.311C236.917 177.143 236.238 176.871 239.647 168.811C242.514 162.031 248.082 143.845 247.476 143.238C247.266 143.028 246.427 144.062 245.612 145.536C240.545 154.692 230.904 167.178 229.774 166.047C229.448 165.722 229.991 163.144 230.982 160.319C233.236 153.884 233.089 153.774 227.825 157.966C221.247 163.204 221.108 162.269 226.771 150.838C234.055 136.137 235.641 130.512 230.172 138.776C227.021 143.537 218.251 153.488 215.774 155.11C212.831 157.039 212.217 156.087 214.455 153.06C228.34 134.279 244.952 102.601 236.465 111.088C234.298 113.255 233.595 111.198 235.296 107.661C236.868 104.386 239.746 95.1572 240.795 90.0166C242.074 83.7553 243.568 88.3654 244.506 101.462C244.822 105.866 246.832 97.7146 247.483 89.3918C247.662 87.1024 247.835 85.0419 247.868 84.8131C248.017 83.7733 250.372 87.7923 250.372 89.0856ZM207.907 157.858C208.883 159.116 212.279 162.956 215.454 166.39C218.631 169.824 225.82 177.737 231.43 183.976C237.041 190.215 243.945 197.892 246.772 201.034C249.599 204.176 251.764 206.895 251.585 207.076C250.395 208.265 244.388 202.468 222.104 178.625C209.09 164.7 204.832 160.884 210.051 167.824C215.982 175.707 229.528 191.165 240.276 202.312C253.913 216.458 252.885 214.543 248.667 217.932L245.299 220.638L240.866 217.219C234.108 212.005 200.884 176.119 195.556 168.277L193.584 165.375L198.436 160.473C203.882 154.97 205.354 154.562 207.907 157.858ZM197.224 175.963C201.722 180.704 211.049 191.34 219.473 201.336C221.588 203.846 227.533 210.234 232.685 215.53L242.051 225.162L239.305 227.824C237.794 229.289 236.193 230.487 235.748 230.487C234.517 230.487 191.271 186.415 191.271 185.161C191.271 184.849 191.643 183.897 192.1 183.044C193.895 179.69 190.817 177.522 187.948 180.119C186.715 181.235 186.327 181.101 184.136 178.814L181.698 176.269L185.683 172.503C190.271 168.168 189.654 167.983 197.224 175.963ZM231.189 221.79C230.438 222.695 230.39 223.322 231.022 223.956C232.09 225.023 233.723 224.189 233.723 222.578C233.723 220.8 232.363 220.376 231.189 221.79ZM156.169 251.505C153.619 253.908 148.964 258.122 145.824 260.869C140.737 265.321 133.875 271.581 124.484 280.34C121.741 282.898 118.69 283.588 121.195 281.083C121.737 280.541 122.18 279.53 122.18 278.836C122.18 274.802 101.806 299.143 92.5185 314.273C90.3189 317.856 90.8371 314.388 93.5067 307.665C98.5206 295.036 105.33 285.286 114.284 277.918C118.187 274.705 129.574 266.279 130.013 266.279C130.228 266.279 133.518 264.15 137.323 261.549C141.126 258.947 147.424 254.64 151.315 251.977C160.115 245.956 162.281 245.745 156.169 251.505Z" fill="#0000FF"/>
</svg>
