<svg width="400" height="400" viewBox="0 0 400 400" fill="none" xmlns="http://www.w3.org/2000/svg">
<path fill-rule="evenodd" clip-rule="evenodd" d="M311.234 88.2963C308.387 89.7997 302.786 97.2749 302.786 99.5712C302.786 103.191 299.763 109.456 296.12 113.386C295.529 114.024 295.044 114.922 295.044 115.379C295.044 116.192 292.94 119.429 289.453 123.981C288.506 125.216 287.256 126.958 286.673 127.852C286.09 128.745 284.168 131.702 282.402 134.423C280.637 137.143 278.77 139.369 278.253 139.369C277.735 139.369 276.026 140.434 274.457 141.735C272.886 143.036 271.359 144.106 271.065 144.113C270.769 144.121 269.986 144.47 269.324 144.89C268.464 145.435 267.48 144.857 265.882 142.875C264.653 141.348 262.582 138.818 261.281 137.255C259.98 135.691 258.915 134.068 258.915 133.65C258.915 131.724 241.179 115.302 238.53 114.774C235.132 114.097 228.291 117.152 227.479 119.706C227.178 120.657 226.703 121.206 226.423 120.928C225.6 120.104 221.066 124.928 221.066 126.628C221.066 127.485 221.453 128.187 221.927 128.187C222.4 128.187 222.787 129.131 222.787 130.286C222.787 131.442 223.174 132.625 223.647 132.918C224.12 133.21 224.507 134.206 224.507 135.131C224.507 136.056 224.849 137.484 225.266 138.306C226.541 140.812 227.657 143.826 229.663 150.193C231.71 156.69 231.234 159.511 227.574 162.548C226.834 163.162 226.227 164.611 226.227 165.768C226.227 168.788 224.732 171.155 222.221 172.109C221.022 172.565 219.842 173.695 219.599 174.62C219.358 175.544 218.525 176.508 217.747 176.76C216.97 177.012 211.822 181.573 206.305 186.896C195.783 197.047 193.833 198.848 182.783 208.617C179.037 211.928 173.63 216.96 170.769 219.799C164.842 225.678 159.794 229.664 156.423 231.127C155.148 231.68 153.676 232.934 153.152 233.914C152.627 234.893 151.146 236.253 149.858 236.933C148.571 237.614 146.237 239.359 144.669 240.813C143.102 242.266 141.518 243.454 141.147 243.454C140.776 243.454 139.772 244.229 138.916 245.176C138.06 246.122 136.96 246.896 136.472 246.896C135.985 246.896 134.787 247.639 133.811 248.547C130.65 251.484 111.217 264.96 110.141 264.96C109.821 264.96 108.448 266.121 107.088 267.541C105.728 268.96 104.24 270.122 103.781 270.122C103.322 270.122 100.975 271.638 98.5661 273.491C96.1563 275.343 93.0243 277.363 91.6043 277.978C90.1856 278.592 87.8256 279.98 86.3616 281.06C84.8976 282.141 83.3455 283.025 82.9131 283.025C82.4796 283.025 81.6671 283.76 81.1049 284.659C80.5439 285.558 77.8744 287.374 75.1748 288.696C72.474 290.017 68.475 292.513 66.2865 294.242C64.0992 295.971 60.9603 298.027 59.312 298.809C55.1414 300.788 49.5776 305.76 50.0262 307.107C50.3716 308.142 58.1088 310.703 61.0669 310.761C61.7763 310.775 62.7442 311.081 63.2171 311.441C66.5102 313.947 89.5121 314.566 98.0561 312.378C104.292 310.782 105.087 310.609 110.96 309.59C117.992 308.371 141.468 300.932 145.416 298.672C147.046 297.74 149.882 296.5 151.722 295.917C153.56 295.334 156.42 293.937 158.077 292.812C159.735 291.687 161.633 290.767 162.296 290.767C164.44 290.767 170.005 287.487 173.541 284.139C175.439 282.343 179.202 279.742 181.907 278.36C184.611 276.977 187.884 274.848 189.183 273.629C190.48 272.41 194.198 269.282 197.445 266.681C200.692 264.079 205.594 259.724 208.336 257.004C211.08 254.283 213.615 252.054 213.97 252.051C214.324 252.047 216.316 250.312 218.394 248.195C220.473 246.079 223.706 243.081 225.578 241.535C228.97 238.734 230.917 236.938 242.216 226.182C245.488 223.069 248.412 220.552 248.718 220.591C249.023 220.629 250.073 219.934 251.051 219.05C254.269 216.138 255.475 217.729 255.475 224.883C255.475 228.418 255.862 231.55 256.335 231.842C256.808 232.134 257.195 233.11 257.195 234.01C257.195 235.895 260.521 239.326 261.664 238.62C262.086 238.359 263.294 238.71 264.349 239.401C271.596 244.15 274.815 242.519 282.51 230.197C284.512 226.992 285.115 210.914 283.747 197.234C282.15 181.268 281.972 177.219 282.873 177.219C283.353 177.219 283.977 176.49 284.259 175.6C284.542 174.711 285.503 173.065 286.395 171.944C291.376 165.685 295.679 160.969 297.195 160.11C298.141 159.575 300.077 158.391 301.496 157.482C304.57 155.51 310.852 152.272 311.605 152.272C311.897 152.272 313.226 151.825 314.558 151.278C318.383 149.706 323.344 149.595 327.45 150.988C335.992 153.888 342.854 151.077 347.517 142.77C352.56 133.786 349.348 104.342 343.032 101.663C342.66 101.506 342.356 100.901 342.356 100.32C342.356 98.4074 326.581 87.5927 324.792 88.2789C324.139 88.5292 323.35 88.3206 323.037 87.8152C322.23 86.51 313.98 86.8462 311.234 88.2963ZM325.944 91.7551C334.542 93.335 346.147 106.303 344.511 112.504C344.17 113.796 343.703 117.176 343.471 120.015C343.241 122.854 342.764 125.564 342.412 126.037C342.061 126.509 341.859 128.445 341.967 130.337C342.085 132.444 341.531 134.881 340.538 136.623C339.645 138.188 338.915 140.026 338.915 140.709C338.915 141.392 338.462 141.95 337.908 141.95C336.28 141.95 333.754 139.237 333.754 137.489C333.754 134.746 331.1 134.525 329.051 137.096C326.765 139.962 326.011 139.311 326.011 134.468C326.011 131.877 325.6 130.556 324.684 130.204C322.801 129.481 322.196 130.406 322.416 133.675C322.589 136.25 322.154 136.822 317.858 139.675C315.245 141.409 313.109 143.145 313.109 143.535C313.109 143.923 311.143 145.515 308.74 147.071C306.337 148.628 304.168 150.435 303.917 151.088C303.667 151.739 302.954 152.272 302.333 152.272C300.892 152.272 287.54 165.42 286.381 167.981C285.554 169.804 284.392 171.857 282.663 174.54C281.668 176.084 278.748 172.533 278.72 169.743C278.709 168.707 278.313 167.618 277.84 167.326C275.88 166.115 278.429 157.071 283.024 148.934C284.194 146.862 285.663 144.236 286.288 143.1C287.799 140.349 295.49 134.335 298.353 133.665C301.194 132.998 306.227 128.349 306.227 126.39C306.227 122.653 300.435 123.14 295.4 127.301C290.942 130.985 290.001 131.181 291.66 128.081C293.185 125.231 299.769 120.46 302.786 120.017C303.022 119.982 304.133 119.446 305.251 118.826C307.764 117.432 313.927 118.882 316.21 121.405C319.055 124.549 321.804 123.069 320.317 119.193C319.688 117.557 314.145 114.796 310.958 114.531C310.248 114.472 309.668 113.866 309.668 113.184C309.668 108.877 317.68 111.487 325.42 118.317C327.937 120.536 328.484 119.441 327.063 115.027C325.747 110.939 316.675 100.329 312.735 98.2718C310.791 97.2564 312.688 93.2492 315.525 92.3799C316.325 92.1342 317.547 91.6369 318.242 91.2741C318.936 90.9113 320.291 90.7501 321.253 90.9147C322.214 91.0793 324.326 91.4584 325.944 91.7551ZM242.642 122.282C243.427 123.548 237.742 129.047 235.65 129.047C233.656 129.047 227.087 125.702 227.087 124.686C227.087 121.475 240.827 119.352 242.642 122.282ZM251.012 128.22C252.047 129.185 252.896 130.249 252.898 130.586C252.9 130.922 253.984 132.358 255.305 133.778C259.85 138.657 264.795 145.99 268.412 153.211C270.403 157.189 272.372 161.117 272.786 161.938C273.2 162.76 273.539 163.959 273.539 164.602C273.539 165.245 274.17 167.037 274.942 168.585C276.701 172.109 277.694 175.89 279.024 184.114C279.599 187.669 280.39 191.096 280.782 191.73C281.174 192.364 281.483 200.307 281.469 209.381C281.428 236.278 274.465 241.633 271.278 217.219C270.97 214.853 270.193 211.877 269.553 210.607C268.914 209.335 268.61 207.722 268.879 207.019C269.149 206.318 268.784 204.843 268.07 203.74C267.356 202.637 266.5 199.307 266.171 196.339C265.841 193.372 265.235 190.736 264.824 190.482C264.413 190.228 264.077 188.904 264.077 187.541C264.077 186.178 263.755 184.864 263.364 184.621C262.971 184.379 262.178 181.937 261.601 179.194C259.999 171.579 253.61 152.921 251.35 149.262C241.271 132.932 240.3 130.241 243.647 127.906C246.319 126.043 248.788 126.148 251.012 128.22ZM233.911 132.759C240.732 136.136 241.954 137.789 239.469 140.273L237.681 142.062L236.238 139.859C234.799 137.663 232.294 137.962 230.41 140.555C229.355 142.006 228.142 140.221 227.564 136.369C227.244 134.234 226.619 132.488 226.175 132.488C225.731 132.488 225.367 131.908 225.367 131.197C225.367 129.274 227.749 129.71 233.911 132.759ZM245.318 158.932C246.119 159.625 247.021 161.314 247.322 162.685C247.684 164.333 248.405 165.176 249.454 165.176C252.202 165.176 256.805 171.536 258.008 176.996C258.609 179.721 259.47 182.959 259.922 184.194C261.45 188.365 261.081 198.831 259.274 202.583C256.429 208.49 255.106 207.584 253.999 198.968C252.435 186.795 241.804 168.193 236.407 168.187C236.092 168.187 235.543 167.896 235.187 167.542C234.833 167.187 233.627 166.896 232.509 166.896C227.828 166.896 230.361 161.82 237.077 157.738C239.018 156.558 243.293 157.177 245.318 158.932ZM235.48 171.842C235.703 172.521 234.992 172.918 233.552 172.918C231.2 172.918 231.459 172.689 207.679 195.713C195.663 207.346 186.476 216.018 184.7 217.399C183.964 217.973 182.846 219.156 182.214 220.027C180.999 221.704 166.287 234.423 163.138 236.517C162.117 237.196 160.086 238.856 158.625 240.207C157.165 241.556 154.699 243.342 153.146 244.175C151.593 245.008 149.111 246.734 147.63 248.01C140.687 253.992 133.436 259.299 130.213 260.757C126.52 262.427 124.106 264.631 124.996 265.52C125.992 266.517 147.676 253.724 149.218 251.23C149.531 250.723 150.148 250.531 150.588 250.803C151.029 251.076 151.389 250.926 151.389 250.472C151.389 250.018 152.647 248.892 154.185 247.969C163.104 242.616 196.12 213.193 196.12 210.595C196.12 210.216 196.544 209.907 197.061 209.907C197.579 209.907 200.346 207.681 203.209 204.961C216.503 192.331 221.846 187.224 226.227 182.952C232.317 177.019 232.872 176.737 234.883 178.557C236.489 180.01 236.581 179.969 237.493 177.351C238.931 173.224 241.806 175.534 246.173 184.329C250.115 192.272 250.847 195.086 251.706 205.605L252.163 211.197L247.392 215.929C243.114 220.171 239.131 223.833 229.692 232.204C228.048 233.661 226.429 234.853 226.094 234.853C225.758 234.853 225.237 235.627 224.937 236.573C224.637 237.52 223.91 238.294 223.324 238.294C222.736 238.294 219.705 240.713 216.588 243.67C211.04 248.931 201.85 256.954 192.956 264.295C190.506 266.316 186.792 269.397 184.704 271.139C182.615 272.883 178.86 275.514 176.361 276.988C173.861 278.461 169.64 281.11 166.979 282.874C164.319 284.639 161.174 286.537 159.991 287.094C158.809 287.65 155.324 289.26 152.249 290.672C149.174 292.082 145.691 293.836 144.507 294.569C138.341 298.388 130.767 301.098 120.072 303.312C116.804 303.989 113.601 304.982 112.954 305.519C112.308 306.056 111.545 306.262 111.26 305.977C110.975 305.692 109.403 306.018 107.768 306.7C106.133 307.383 101.634 308.194 97.7698 308.503C93.9064 308.811 90.3374 309.381 89.839 309.771C88.4561 310.854 72.2155 310.864 68.8146 309.785C67.1617 309.26 63.9683 308.831 61.7184 308.831C58.8159 308.831 57.6266 308.487 57.6266 307.646C57.6266 306.07 59.9032 304.241 61.0113 304.926C61.4958 305.225 62.5773 305.104 63.4153 304.657C64.2522 304.209 69.0024 303.208 73.9704 302.431C82.7949 301.05 88.1374 299.858 91.6043 298.497C96.045 296.754 98.8176 296.01 102.788 295.493C105.152 295.185 107.862 294.46 108.808 293.88C110.497 292.848 112.779 292.093 122.033 289.507C124.575 288.796 129.607 286.326 133.215 284.017C136.824 281.708 141.518 278.937 143.647 277.856C151.607 273.821 175.228 257.145 176.061 254.972C176.313 254.314 177.05 253.778 177.698 253.778C178.346 253.778 180.803 251.939 183.161 249.692C185.517 247.444 188.236 245.037 189.202 244.34C190.168 243.645 190.958 242.581 190.958 241.974C190.958 241.369 191.27 240.874 191.65 240.874C192.032 240.874 196.58 236.809 201.758 231.84C206.937 226.871 212.916 221.134 215.045 219.092C217.173 217.049 219.981 214.684 221.281 213.834C222.582 212.984 223.647 212.016 223.647 211.683C223.647 210.922 231.168 203.025 231.891 203.025C232.183 203.025 234.181 201.29 236.333 199.17C239.335 196.209 240.692 195.426 242.174 195.798C244.929 196.49 245.839 194.479 243.592 192.659C241.411 190.894 235.331 193.207 234.393 196.161C234.116 197.037 233.332 197.875 232.65 198.023C231.969 198.172 225.309 204.151 217.851 211.309C186.694 241.216 184.071 243.645 172.424 253.348C170.152 255.239 166.328 258.257 163.927 260.052C161.526 261.848 159.432 263.687 159.275 264.138C159.117 264.59 158.637 264.96 158.207 264.96C157.778 264.96 155.004 266.613 152.043 268.632C138.241 278.044 119.279 288.645 117.838 287.754C117.393 287.48 116.121 287.849 115.011 288.577C113.9 289.305 111.276 290.259 109.179 290.697C107.083 291.135 103.239 292.14 100.636 292.931C89.6153 296.279 87.1266 296.993 83.8625 297.743C81.9696 298.177 79.6444 298.658 78.6927 298.81C77.7422 298.962 76.1229 299.537 75.0936 300.087C74.0655 300.638 71.4551 301.089 69.2956 301.089C64.054 301.089 64.112 299.298 69.4544 296.247C71.7008 294.964 76.5275 291.851 80.1788 289.33C83.83 286.808 87.0049 284.745 87.2321 284.745C87.4604 284.745 93.7638 280.761 101.239 275.893C108.714 271.025 115.913 266.498 117.236 265.834C118.559 265.17 121.137 263.346 122.964 261.783C124.792 260.219 126.523 258.938 126.813 258.938C127.686 258.938 134.387 254.441 137.995 251.434C139.854 249.884 141.79 248.616 142.297 248.615C142.803 248.615 144.719 247.066 146.554 245.175C148.39 243.283 150.306 241.734 150.814 241.734C151.322 241.734 152.917 240.597 154.359 239.206C155.801 237.816 158.405 235.591 160.146 234.26C167.735 228.462 175.727 221.429 185.05 212.344C190.553 206.982 198.583 199.304 202.896 195.283C207.208 191.262 214.852 183.983 219.88 179.109C229.153 170.118 234.149 167.791 235.48 171.842ZM266.658 225.639C266.658 226.247 267.803 228.086 269.203 229.725C272.728 233.849 272.844 240.164 269.36 238.295C268.132 237.637 263.599 236.431 262.356 236.434C261.065 236.436 258.834 231.153 259.073 228.658C259.316 226.13 259.603 225.847 261.711 226.069C263.012 226.204 264.077 225.914 264.077 225.423C264.077 224.932 264.657 224.53 265.367 224.53C266.077 224.53 266.658 225.029 266.658 225.639Z" fill="#FF0000"/>
</svg>
