<svg width="400" height="400" viewBox="0 0 400 400" fill="none" xmlns="http://www.w3.org/2000/svg">
<path style="fill:#FF0000;" d="M350,127.216c-0.379,7.367-0.671,14.537-6.141,20.127c-4.656,4.759-10.007,4.903-16.089,3.285
	c-13.619-3.625-28.689,6.009-37.436,15.822c-2.318,2.6-4.327,5.435-6.255,8.331c-2.443,3.672-1.766,6.505-1.415,10.812
	c0.684,8.381,1.537,16.784,1.71,25.196c0.149,7.245,0.24,15.766-3.635,22.16c-1.624,2.679-3.865,5.136-6.365,7.03
	c-3.448,2.611-5.886,1.303-9.564-0.136c-3.303-1.293-5.714-1.771-7.393-5.114c-1.791-3.568-1.842-7.35-2.083-11.238
	c-0.164-2.635-0.079-6.385-3.389-5.363c-3.041,0.94-6.657,5.713-9.042,7.848c-12.785,11.443-25.51,22.956-38.503,34.165
	c-6.004,5.18-11.866,10.917-18.401,15.409c-6.272,4.312-12.4,9.58-19.244,12.948c-13.663,6.724-27.488,13.083-42.161,17.335
	c-15.698,4.549-31.372,8.315-47.775,7.583c-8.494-0.379-16.182-2.155-24.21-4.897c-4.502-1.537-2.422-3.338,0.549-5.9
	c3.413-2.944,7.579-5.198,11.37-7.625c26.852-17.197,54.16-34.288,79.338-53.918c2.81-2.191,5.674-4.217,8.241-6.698
	c2.497-2.414,5.2-3.795,8.038-5.781c6.276-4.39,11.66-10.171,17.265-15.359c12.688-11.744,25.721-23.186,38.148-35.205
	c2.429-2.35,4.499-4.571,7.24-6.556c2.725-1.972,2.607-4.151,3.635-7.056c0.94-2.658,3.536-4.075,4.136-6.968
	c0.699-3.368-1.077-7.095-2.115-10.22c-1.206-3.632-2.38-7.265-3.528-10.915c-0.913-2.903-4.561-7.952-3.715-10.982
	c0.762-2.732,3.33-3.394,5.194-4.788c2.427-1.815,3.113-4.156,6.338-5.262c2.68-0.92,5.339-1.325,7.669,0.409
	c3.232,2.406,6.172,5.544,9.136,8.274c5.654,5.207,10.184,10.534,14.708,16.706c1.299,1.772,2.573,4.297,4.969,4.057
	c2.472-0.249,6.407-3.912,8.254-5.428c5.308-4.356,8.494-10.718,12.426-16.25c2.185-3.074,4.153-6.309,6.131-9.518
	c1.971-3.197,4.572-6.585,5.713-10.17c1.861-5.847,4.447-13.662,10.85-16.01c6.623-2.427,13.618,0.665,19.141,4.182
	c6.127,3.902,11.934,8.221,14.86,15.088C349.358,113.095,349.412,120.315,350,127.216z M251.895,209.149
	c-0.383-2.881-2.737-25.917-12.8-34.044c-0.75,1.02-1.721,3.141-3.023,3.546c-1.105,0.345-1.671-0.787-2.678-1.004
	c-2.169-0.469-3.383,1.244-4.894,2.641c-4.934,4.567-9.649,9.351-14.504,14c-9.514,9.11-19.162,18.083-28.687,27.184
	c-9.361,8.944-19.142,17.48-29.699,24.992c-4.995,3.554-9.865,7.369-15.053,10.634c-4.601,2.896-10.531,7.272-15.948,8.095
	c1.197-2.457,3.459-3.197,5.692-4.677c2.424-1.607,4.752-3.378,7.103-5.089c5.12-3.728,10.19-7.523,15.302-11.264
	c9.938-7.271,19.124-15.303,28.197-23.617c9.236-8.463,18.362-17.047,27.425-25.694c4.673-4.459,9.333-8.932,14.012-13.385
	c2.297-2.185,4.502-4.76,7.037-6.66c1.767-1.325,3.974-1.926,5.92-2.962c-3.665-6.381-13.152,5.091-16.166,7.844
	c-5.93,5.414-11.83,10.863-17.646,16.4c-20.675,19.685-41.484,39.495-65.03,55.79c-12.051,8.34-24.212,16.5-36.523,24.45
	c-6.451,4.165-12.921,8.301-19.387,12.443c-5.063,3.244-12.19,6.24-15.616,11.22c4.322,1.867,7.797,0.267,12.162-0.915
	c3.927-1.063,7.87-2.065,11.806-3.096c8.05-2.109,16.238-4.024,24.18-6.508c13.489-4.22,25.564-12.826,37.565-20.064
	c11.915-7.186,22.096-16.978,32.343-26.314c11.392-10.379,22.795-20.75,34.099-31.224c5.27-4.883,11.193-9.512,16.152-14.66
	c1.919-1.993,2.745-4.041,5.611-4.884c2.878-0.847,4.548-0.177,5.669,2.531c-1.545,0.565-3.461,0.687-4.937,1.344
	c-1.642,0.731-2.996,2.349-4.325,3.524c-3.352,2.963-6.663,5.979-9.915,9.052c-6.164,5.826-12.369,11.651-18.445,17.569
	c-9.858,9.601-19.242,19.908-30.457,27.841c-2.837,2.008-5.249,4.778-8.039,6.92c-3.042,2.334-6.156,4.573-9.321,6.737
	c-6.324,4.322-12.859,8.329-19.485,12.17c-6.537,3.789-13.04,7.619-20.166,10.205c-7.236,2.626-14.763,4.151-22.123,6.347
	c-7.212,2.152-14.248,4.047-21.673,5.365c-3.717,0.66-7.435,1.334-11.162,1.938c-3.556,0.577-4.996,1.07-7.374,3.595
	c6.886,3.853,18.182,3.327,25.929,2.87c8.554-0.506,17.37-2.151,25.72-4.053c7.268-1.655,14.852-3.504,21.978-5.678
	c6.702-2.043,12.71-5.733,18.94-8.839c13.298-6.63,25.649-13.803,37.464-22.921c6.022-4.648,11.711-9.658,17.372-14.735
	c5.55-4.978,11.012-10.775,17.247-14.856c2.441-1.599,4.096-4.073,6.373-5.979c2.803-2.347,5.412-4.964,8.091-7.452
	C241.619,220.793,252.278,212.029,251.895,209.149z M322.399,133.063c0-1.922,1.326-4.594,3.018-2.24
	c1,1.39,0.815,5.814,1.304,7.598c1.409-0.981,3.91-4.071,5.831-3.111c1.795,0.897,2.032,4.421,4.001,5.573
	c3.563,2.085,5.307-9.047,5.698-11.593c0.913-5.948,2.458-12.759,2.277-18.766c-0.136-4.507-4.021-9.233-7.063-12.341
	c-5.318-5.433-18.987-12.395-24.848-3.951c-1.873,2.699,0.204,3.676,2.23,5.339c2.066,1.697,3.956,3.602,5.688,5.637
	c3.332,3.916,7.131,8.394,6.798,13.755c-3.355-1.81-12.806-11.125-16.868-7.469c-2.645,2.381,2.167,3.249,3.798,3.958
	c2.1,0.913,6.948,2.283,6.413,5.332c-0.735,4.191-4.534,0.095-6.082-0.928c-3.221-2.129-6.314-2.539-9.885-1.13
	c-4.286,1.693-13.364,5.641-13.787,11.043c2.281-0.45,13.984-10.423,14.934-4.032c0.592,3.985-9.442,8.792-12.274,10.52
	c-4.9,2.989-8.316,7.369-11.04,12.38c-2.485,4.569-5.694,11.108-5.403,16.435c0.123,2.249,1.466,6.984,3.098,8.515
	c1.854,1.74,2.433,0.518,3.52-1.25c3.241-5.271,6.471-9.847,11.024-14.115c4.715-4.42,9.855-8.418,14.926-12.419
	c2.609-2.058,5.248-4.076,7.899-6.079C319.784,138.086,323.035,136.317,322.399,133.063z M281.384,204.646
	c-0.226-5.504-0.566-15.128-3.475-26.725c-0.919-3.665-3.304-12.956-8.855-23.859c-3.363-6.605-7.545-12.751-12.039-18.631
	c-2.657-3.477-9.821-14.375-14.752-6.834c-1.879,2.875,1.273,7.144,2.577,9.677c1.703,3.307,3.759,6.368,5.608,9.586
	c3.967,6.901,5.814,15.418,8.205,22.976c2.497,7.893,5.161,15.81,7.217,23.831c1.957,7.639,3.144,15.495,4.918,23.185
	c0.925,4.004,1.587,8.38,3.382,12.105c0.83,1.723,1.687,2.508,2.497,2.484c0.552-0.017,1.299-0.447,2.522-3.142
	c2.012-4.436,2.357-8.502,2.448-9.876c0.206-3.147,0.042-6.905,0.042-6.905l0,0C281.679,212.519,281.451,206.279,281.384,204.646z
	 M260.784,192.357c0.058-9.171-2.806-22-10.933-27.254c-3.321-2.147-3.15-6.73-7.413-7.869c-3.436-0.919-7.657,0.952-10.112,3.31
	c-0.999,0.96-2.646,2.804-2.411,4.341c0.325,2.12,2.538,1.742,4.271,2.182c5.209,1.321,7.577,4.901,10.27,9.233
	c2.926,4.707,5.528,9.502,7.12,14.836c1.476,4.946,1.804,10.541,4.473,14.988C260.256,202.514,260.454,197.608,260.784,192.357z
	 M262.259,225.973c-5.235-1.253-2.706,4.697-1.816,7.356c0.84,2.506,1.197,2.68,3.558,3.368c1.585,0.463,4.008,1.602,5.661,1.583
	c4.344-0.047,0.565-6.435-0.57-8.688c-0.605-1.201-1.806-4.061-2.947-4.715C264.651,224.02,263.711,225.068,262.259,225.973z
	 M240.734,138.216c-1.796-3.956-6.899-6.199-10.861-7.537c-1.174-0.397-3.744-1.747-4.614-0.259
	c-0.673,1.151,1.47,3.912,1.879,5.037c0.412,1.134,0.704,5.092,2.288,5.254c1.274,0.131,2.474-2.575,4.007-2.626
	c1.882-0.063,2.039,1.974,3.344,2.672c1.076,0.575,0.203,0.645,1.417,0.184C238.935,140.661,240.261,138.733,240.734,138.216z
	 M234.825,129.064c2.324-0.842,6.459-3.132,7.294-5.727c1.042-3.235-4.218-2.9-6.41-2.582c-1.766,0.257-7.981,1.091-8.344,3.135
	C227.005,125.914,233.109,128.127,234.825,129.064z"/>
</svg>
