<svg width="400" height="400" viewBox="0 0 400 400" fill="none" xmlns="http://www.w3.org/2000/svg">
<path style="fill-rule:evenodd;clip-rule:evenodd;fill:#0000FF;" d="
	M199.117,113.817c30.872,0,58,15.933,73.656,40.002c9.819-3.241,16.769-5.233,23.079-6.752c11.912-2.869,21.56-3.95,29.66-3.982
	c8.098-0.068,14.643,0.876,18.794,3.037c4.184,2.128,5.937,5.469,5.668,9.757c-0.305,4.287-2.7,9.519-8.638,15.595
	c-5.972,6.078-15.487,12.997-26.319,19.647c-8.13,4.996-16.97,9.859-28.174,15.395c-2.494,46.315-40.824,83.078-87.726,83.078
	c-25.07,0-47.676-10.5-63.669-27.345c-10.831,2.363-21.089,4.22-29.66,5.536c-14.442,2.161-24.058,2.701-32.628,2.667
	c-8.57,0-16.06-0.607-20.008-3.948c-3.914-3.343-4.285-9.419-0.54-15.664c3.746-6.245,11.608-12.659,21.764-19.039
	c8.231-5.131,17.984-10.229,37.654-18.432c-0.506-3.816-0.776-7.697-0.776-11.647C111.255,153.177,150.597,113.817,199.117,113.817
	L199.117,113.817z M128.969,182.885c4.352-0.473,8.705-0.946,13.396-1.654c5.601-0.845,11.607-2.027,17.107-3.443
	c5.533-1.385,10.559-2.971,15.588-4.558c-3.207,2.296-6.411,4.591-10.124,6.582c-3.711,2.025-7.929,3.747-12.145,5.469
	c5.296-0.843,10.594-1.687,18.456-4.085c7.895-2.396,18.355-6.413,27.972-11.005c9.581-4.625,18.32-9.857,26.452-15.663
	c8.132-5.806,15.655-12.187,23.146-18.568c-1.89,3.545-3.812,7.055-8.739,12.085c-4.959,4.996-12.923,11.478-20.852,16.744
	c-7.962,5.299-15.859,9.418-23.788,13.537c7.694-3.31,15.353-6.584,22.136-9.79c6.782-3.206,12.685-6.38,17.613-9.317
	c4.892-2.936,8.841-5.671,12.753-8.406c-4.758,4.76-9.514,9.521-16.162,14.314c-6.646,4.793-15.15,9.655-24.359,14.009
	c-9.178,4.39-19.065,8.304-28.918,12.221c6.445-1.688,12.891-3.376,19.03-5.3c6.173-1.958,12.047-4.118,17.917-6.313
	c-6.041,4.187-12.112,8.372-18.997,12.018c-6.883,3.68-14.643,6.853-22.236,9.249c-7.59,2.398-15.048,4.052-22.505,5.706
	c7.053-0.372,14.137-0.742,21.155-1.923c7.02-1.217,14.003-3.208,19.336-5.098c5.296-1.925,8.974-3.714,12.653-5.505
	c-5.467,5.436-10.933,10.837-15.016,15.732c-4.117,4.896-6.916,9.25-9.143,13.436c-1.417,2.701-2.634,5.334-3.408,8.236
	c1.518-0.439,3.037-0.911,4.588-1.384c19.807-5.975,40.118-12.862,56.99-19.951c16.836-7.123,30.233-14.449,38.903-19.849
	c1.048-0.675,2.058-1.317,3.004-1.925c-0.406-3.916-1.115-7.764-2.093-11.511c-1.921,1.686-4.015,3.442-6.614,5.333
	c-3.373,2.43-7.625,5.13-12.551,7.528c-4.96,2.397-10.561,4.455-15.083,5.807c-4.487,1.35-7.895,1.992-11.268,2.599
	c4.519-1.891,9.041-3.815,13.834-6.245c4.825-2.465,9.918-5.468,14.34-8.777c4.418-3.275,8.164-6.852,10.626-9.656
	c1.823-2.093,2.938-3.746,3.883-5.299c-0.845-2.16-1.79-4.286-2.835-6.346c-2.296,2.329-4.656,4.693-7.49,7.088
	c-3.272,2.769-7.153,5.57-10.934,7.764c-3.811,2.195-7.488,3.782-11.166,5.369c2.564-1.723,5.162-3.444,7.894-5.369
	c2.734-1.924,5.635-4.05,7.964-6.11c2.36-2.093,4.183-4.118,5.971-6.144c-4.116,3.006-8.266,6.041-13.09,8.811
	c-4.826,2.768-10.325,5.231-15.42,6.852c-5.13,1.587-9.854,2.296-14.579,3.005c2.161-0.709,4.353-1.418,7.189-2.565
	c2.8-1.181,6.274-2.769,10.223-4.862c3.949-2.058,8.367-4.59,12.619-7.495c4.253-2.935,8.367-6.245,11.236-8.844
	c2.261-2.093,3.746-3.713,5.095-5.266c-13.733-20.794-37.284-34.502-64.04-34.502c-0.641,0-1.249,0-1.89,0
	c-1.721,1.621-3.475,3.241-5.432,4.862c-2.633,2.194-5.635,4.422-8.807,6.549c-3.205,2.127-6.612,4.187-10.225,6.076
	c-3.609,1.89-7.422,3.545-11.201,4.929c-3.778,1.384-7.523,2.465-10.629,3.241c-3.104,0.776-5.601,1.215-8.098,1.587
	c-0.876,0.134-1.753,0.236-2.63,0.371c-2.802,3.308-5.299,6.887-7.457,10.634c1.991,0,4.286-0.034,7.086-0.202
	c5.871-0.305,14.035-1.114,23.787-3.545c9.752-2.432,21.122-6.482,31.345-11.41c10.225-4.963,19.333-10.803,28.444-16.61
	c-5.499,5.098-10.966,10.228-19.368,15.766c-8.434,5.537-19.804,11.477-30.468,16.068c-10.627,4.591-20.582,7.798-29.388,9.857
	c-6.242,1.452-11.91,2.33-17.411,3.038C130.757,174.748,129.711,178.732,128.969,182.885L128.969,182.885z M179.31,250.603
	c0.54,0.945,1.181,1.891,1.891,2.803c4.183,5.299,11.572,9.686,19.4,11.375c7.862,1.654,16.163,0.608,22.201-0.978
	c6.04-1.587,9.786-3.715,13.362-6.246c3.577-2.566,6.951-5.536,10.36-8.507c-2.227,3.038-4.454,6.077-7.39,9.081
	c-2.934,3.039-6.579,6.043-10.763,8.642c-3.173,1.992-6.681,3.746-11.372,5.3c25.306-4.187,46.428-20.693,56.955-43.21
	c-3.272,3.139-7.929,6.211-12.888,8.878c-5.67,2.971-11.709,5.436-17.951,7.124c-6.208,1.721-12.618,2.667-17.85,3.106
	c-5.229,0.439-9.311,0.302-13.394,0.202c8.908-2.768,17.781-5.537,26.047-8.676c8.269-3.14,15.893-6.616,21.764-9.587
	c5.871-2.972,9.988-5.436,13.259-7.562c1.823-1.215,3.377-2.295,4.793-3.308c0.944-3.004,1.687-6.076,2.227-9.216
	c-1.722,0.843-3.51,1.688-5.366,2.531c-17.377,8.102-39.949,17.858-60.126,25.723C202.087,242.906,190.613,247.024,179.31,250.603
	L179.31,250.603z M158.255,135.151c3.341-0.506,6.649-1.047,9.92-1.788c5.13-1.15,10.089-2.701,14.308-4.492
	c4.25-1.788,7.793-3.779,10.56-5.739c1.484-1.045,2.732-2.093,3.881-3.138C182.483,121.411,169.221,126.845,158.255,135.151
	L158.255,135.151z M154.241,138.391c2.496-0.371,5.062-0.776,8.029-1.383c3.612-0.742,7.83-1.79,11.71-3.038
	c3.878-1.249,7.389-2.7,10.899-4.152c-2.935,1.855-5.871,3.679-9.146,5.4c-3.306,1.722-6.95,3.31-10.223,4.491
	c-3.272,1.181-6.208,1.925-8.603,2.465c-2.396,0.54-4.253,0.876-5.94,1.147c-0.775,0.135-1.518,0.27-2.261,0.372
	C150.462,141.835,152.317,140.045,154.241,138.391L154.241,138.391z M275.236,157.837c18.928-6.381,42.076-12.221,58.237-9.892
	c3.679,0.54,6.445,1.721,8.234,3.005c1.821,1.283,2.7,2.667,2.732,4.726c0,2.06-0.81,4.827-2.463,7.697
	c-1.62,2.902-4.082,5.907-8.133,9.419c-4.081,3.51-9.819,7.494-15.521,11.206c-5.702,3.747-11.437,7.191-19.636,11.648
	c-8.199,4.49-18.93,9.958-32.427,16.136c-13.53,6.211-29.827,13.098-43.154,18.466c-13.329,5.366-23.685,9.181-33.707,12.558
	c-9.989,3.409-19.639,6.379-30.436,9.283c-10.796,2.937-22.74,5.807-32.762,7.968c-9.988,2.16-18.018,3.645-25.408,4.59
	c-7.389,0.913-14.103,1.284-19.435,1.251c-5.331-0.035-9.245-0.439-12.685-0.945c-3.475-0.506-6.446-1.115-8.167-2.531
	c-1.719-1.452-2.192-3.714-1.821-6.246c0.404-2.532,1.653-5.334,4.15-8.372c2.497-3.005,6.242-6.279,11.608-9.925
	c5.331-3.645,12.316-7.629,19.637-11.241c6.074-3.038,12.384-5.807,18.727-8.508c0.507,2.668,1.114,5.267,1.856,7.866
	c-3.51,1.958-6.817,3.982-9.415,6.144c-3.441,2.869-5.534,6.009-5.938,8.743c-0.405,2.7,0.844,5.028,3.475,6.548
	c2.666,1.519,6.715,2.262,12.248,2.06c5.501-0.203,12.519-1.317,20.987-3.14c8.469-1.823,18.389-4.321,30.907-7.799
	c12.519-3.51,27.6-8.001,42.413-13.064c14.778-5.062,29.288-10.735,41.57-16.271c12.316-5.535,22.402-10.937,29.522-15.326
	c7.086-4.389,11.169-7.764,13.869-10.902c2.666-3.142,3.914-6.078,4.117-8.744c0.169-2.634-0.777-4.996-2.531-6.684
	c-1.789-1.723-4.42-2.802-7.491-3.072c-2.868-0.236-6.106,0.203-9.38,0.709C277.868,162.663,276.62,160.233,275.236,157.837
	L275.236,157.837z M280.467,168.469c2.16,5.367,3.847,10.972,4.959,16.779c3.545-2.701,5.603-4.829,6.919-6.753
	c2.024-3.071,2.192-5.67,1.181-7.46c-1.048-1.789-3.307-2.735-5.804-3.005C285.425,167.795,282.963,168.098,280.467,168.469z
	 M122.761,245.201c-2.835-4.961-5.197-10.195-7.019-15.697c-2.497,1.417-4.792,2.836-6.613,4.22
	c-3.003,2.329-4.69,4.624-4.792,6.683c-0.134,2.093,1.384,3.916,4.825,4.895C111.795,246.045,115.607,246.248,122.761,245.201
	L122.761,245.201 M337.826,157.431c-0.404-2.026-1.618-3.814-4.42-4.929c-2.801-1.08-7.185-1.485-12.585-1.147
	c-5.433,0.302-11.843,1.383-16.802,2.295c-4.927,0.912-8.402,1.688-11.945,2.565c-3.577,0.844-7.188,1.823-10.832,2.769
	c2.465-0.371,4.928-0.743,7.424-1.048c2.497-0.337,5.028-0.641,8.469-0.741c3.475-0.101,7.862,0,11.303,0.573
	c3.409,0.575,5.839,1.588,7.593,3.207c1.754,1.62,2.801,3.815,3.072,5.908c0.267,2.094-0.238,4.084-1.284,6.009
	c-1.046,1.924-2.634,3.78-4.521,5.399c-1.889,1.621-4.084,3.039-6.277,4.423c0.709-0.91,1.385-1.79,2.093-2.971
	c0.675-1.182,1.349-2.666,1.79-4.286c0.439-1.621,0.607-3.376,0.505-5.065c-0.137-1.721-0.607-3.308-1.89-4.928
	c-1.316-1.654-3.476-3.309-6.614-4.153c-3.171-0.877-7.288-0.945-10.83-0.574c-3.509,0.338-6.41,1.114-9.279,1.89
	c2.803-0.303,5.601-0.64,8.536-0.607c2.97,0.034,6.074,0.406,8.739,1.283c2.634,0.877,4.86,2.296,6.007,4.692
	c1.147,2.362,1.214,5.706-0.069,8.945c-1.28,3.275-3.878,6.414-9.851,10.701c-5.937,4.287-15.217,9.724-24.463,14.518
	c-9.21,4.792-18.387,8.944-30.399,13.839c-12.014,4.861-26.893,10.464-40.119,15.09c-13.193,4.625-24.766,8.237-35.293,11.309
	c-10.527,3.071-20.043,5.571-29.356,7.461c-9.311,1.89-18.387,3.174-25.103,3.342c-6.715,0.134-11.1-0.844-13.936-2.7
	c-2.834-1.891-4.149-4.624-3.981-7.697c0.169-3.038,1.822-6.414,4.859-9.689c3.003-3.275,7.389-6.448,11.774-9.587
	c-9.177,4.625-18.387,9.25-25.372,13.637c-6.951,4.356-11.741,8.472-14.104,11.95c-2.396,3.479-2.396,6.347-0.303,8.373
	c2.059,1.991,6.208,3.139,11.202,3.577c4.994,0.405,10.864,0.068,21.527-1.553c10.662-1.654,26.15-4.658,40.018-7.866
	c13.868-3.207,26.114-6.651,38.567-10.667c12.484-4.017,25.17-8.609,38.632-13.841c13.498-5.199,27.77-11.039,40.084-16.508
	c12.35-5.436,22.709-10.533,33.269-16.372c10.56-5.807,21.291-12.322,28.647-17.52c7.354-5.2,11.268-9.048,13.428-12.087
	C337.895,161.617,338.232,159.423,337.826,157.431L337.826,157.431z M91.651,240.408c-0.877,1.992-1.147,3.578-1.013,5.098
	c0.136,1.485,0.641,2.903,1.721,4.085c1.045,1.181,2.665,2.126,4.419,2.869c1.755,0.743,3.678,1.317,5.602,1.857
	c-2.801-0.237-5.602-0.507-7.997-0.946c-2.429-0.438-4.454-1.08-5.87-1.923c-1.452-0.844-2.261-1.925-2.395-3.376
	c-0.101-1.419,0.473-3.274,2.16-5.706c1.687-2.464,4.486-5.569,7.288-8.64C94.047,236.087,92.563,238.45,91.651,240.408
	L91.651,240.408z M99.749,257.321c-4.352,0.404-9.482,0.673-13.666,0.472c-4.184-0.203-7.389-0.879-9.244-2.025
	c-1.855-1.114-2.329-2.701-1.653-4.624c0.675-1.892,2.497-4.12,5.062-6.448c2.598-2.297,5.972-4.66,9.311-7.057
	c-1.719,1.925-3.441,3.883-4.724,5.672c-1.316,1.823-2.159,3.51-2.126,5.164c0,1.655,0.946,3.275,3.172,4.524
	c2.227,1.249,5.804,2.161,10.224,2.566c4.454,0.438,9.819,0.371,15.15,0.304C107.678,256.409,104.136,256.914,99.749,257.321z
	 M327.4,166.747c-0.709,1.553-1.789,2.938-3.07,4.221c-1.283,1.283-2.733,2.465-4.218,3.647c1.045-1.621,2.093-3.208,2.564-5.098
	c0.473-1.925,0.371-4.12-0.169-5.908c-0.54-1.757-1.518-3.107-2.798-4.253c-1.318-1.149-2.936-2.128-4.793-2.769
	c-1.888-0.642-4.013-0.945-6.14-1.283c2.665-0.133,5.364-0.302,8.166-0.101c2.767,0.17,5.635,0.71,7.624,1.857
	c1.958,1.147,3.003,2.937,3.409,4.692C328.346,163.473,328.076,165.195,327.4,166.747L327.4,166.747z M334.554,161.481
	c-0.573,1.352-1.519,2.701-2.329,3.714c-0.809,1.012-1.518,1.722-2.192,2.397c0.641-1.385,1.281-2.802,1.55-4.389
	c0.27-1.621,0.136-3.408-0.404-4.793c-0.575-1.417-1.553-2.396-2.598-3.106c-1.08-0.708-2.261-1.181-3.441-1.485
	c-1.217-0.303-2.43-0.439-3.679-0.574c2.093-0.035,4.183-0.101,6.074,0.134c1.855,0.203,3.507,0.676,4.79,1.384
	c1.249,0.71,2.127,1.688,2.531,2.836C335.229,158.781,335.094,160.131,334.554,161.481
	 M318.324,220.052l2.093,5.266l5.499,1.216l-4.351,3.612l0.504,5.603l-4.756-3.005l-5.162,2.23l1.382-5.47l-3.71-4.253l5.632-0.338
	L318.324,220.052z M318.189,223.765l1.113,2.836l2.97,0.673l-2.328,1.925l0.27,3.005l-2.564-1.621l-2.766,1.216l0.743-2.937
	l-1.992-2.296l3.002-0.169L318.189,223.765
	 M94.148,166.579l2.936,3.579l4.589-0.406l-2.498,3.883l1.787,4.253l-4.453-1.182l-3.508,3.038l-0.238-4.625l-3.98-2.395l4.319-1.654
	L94.148,166.579z M94.958,169.517l1.585,1.924l2.462-0.237l-1.349,2.093l0.978,2.296l-2.396-0.641l-1.889,1.62l-0.135-2.465
	l-2.126-1.281l2.329-0.912L94.958,169.517
	 M312.723,110.407c2.024,0,3.643,1.621,3.643,3.646c0,1.991-1.62,3.646-3.643,3.646c-1.992,0-3.609-1.655-3.609-3.646
	C309.113,112.027,310.731,110.407,312.723,110.407z M312.723,112.297c0.978,0,1.789,0.777,1.789,1.756
	c0,0.978-0.81,1.756-1.789,1.756c-0.944,0-1.753-0.777-1.753-1.756C310.97,113.074,311.779,112.297,312.723,112.297L312.723,112.297
	"/>
</svg>
