<svg width="400" height="400" viewBox="0 0 400 400" fill="none" xmlns="http://www.w3.org/2000/svg">
<path style="fill:#0000FF;" d="M180.876,71.628c-11.252,2.527-20.645,6.055-28.511,10.728c-5.817,3.433-16.258,11.252-19.453,14.589
	c-2.956,3.004-9.25,11.3-12.015,15.686c-4.1,6.484-8.01,16.592-10.537,27.272c-2.336,9.869-2.432,26.175-0.095,33.232
	c0.524,1.716,1.335,4.291,1.764,5.721c1.669,5.721,8.963,20.025,11.824,23.219c1.144,1.287,3.528,4.339,5.388,6.866
	c3.671,4.959,9.202,10.585,15.162,15.305c2.098,1.716,5.197,4.196,6.913,5.531c1.716,1.335,5.912,4.386,9.297,6.723
	c3.48,2.432,7.819,5.912,9.869,8.01c3.576,3.576,3.767,3.91,5.626,9.202c1.097,3.004,2.813,8.677,3.814,12.635
	c1.001,3.91,2.05,7.772,2.336,8.487c0.334,0.811,0.524,5.292,0.524,10.918c0,8.868-0.095,9.679-1.001,11.157
	c-0.858,1.383-0.906,1.859-0.429,3.242c0.572,1.716,0.238,2.908-1.287,4.625c-1.716,2.002-1.43,6.055,0.524,6.77
	c0.62,0.238,0.715,1.144,0.429,7.104c-0.286,7.724,0.191,10.012,2.479,10.871c1.383,0.524,28.225,0.667,30.705,0.191
	c2.813-0.572,3.147-1.764,3.004-10.775c-0.095-7.581-0.048-8.01,0.858-8.487c1.24-0.667,1.24-3.147,0-4.768
	c-0.715-0.954-0.954-1.955-0.954-4.72c0-2.718-0.191-3.767-0.811-4.482c-0.763-0.811-0.858-2.146-1.001-10.585
	c0,0-0.351-7.074,0.331-10.615c0.147-0.761,0.329-1.523,0.329-1.523c0.356-1.487,0.713-2.55,0.803-2.826
	c1.144-3.486,1.844-9.524,4.687-16.646c0.553-1.387,0.829-2.153,1.429-3.157c0.962-1.612,2.435-3.155,6.105-6.855
	c3.29-3.337,6.961-6.675,8.153-7.485c1.192-0.763,3.671-2.622,5.483-4.053c1.859-1.478,4.1-3.194,5.006-3.814
	c1.621-1.144,11.633-9.965,17.307-15.257c1.573-1.43,3.099-3.147,3.433-3.862c0.381-0.667,2.146-2.861,3.957-4.863
	c3.481-3.814,7.152-9.726,11.681-18.69c3.576-7.152,5.626-13.731,7.009-22.885c0.572-3.624,0.572-15.543,0-18.356
	c-0.238-1.192-0.763-3.862-1.144-6.007c-0.763-4.386-2.575-9.774-5.483-16.354c-3.814-8.534-8.344-14.494-19.405-25.317
	c-4.196-4.053-9.011-8.439-10.775-9.726c-3.671-2.765-20.692-11.967-23.505-12.73c-1.049-0.334-3.099-0.954-4.529-1.43
	c-1.43-0.429-4.863-1.287-7.581-1.812c0,0-1.533-0.296-3.085-0.539c-6.858-1.074-14.999-1.09-15.948-1.09
	c-4.541,0.003-9.881,0.033-16.825,1.274C182.732,71.274,181.812,71.418,180.876,71.628z M199.001,82.112
	c-5.844,3.387-6.749,3.852-9.142,5.343c-2.269,1.414-1.87,1.254-10.806,7.398c-6.058,4.165-8.08,5.504-11.285,7.985
	c-0.937,0.726-2.583,1.987-4.2,3.31c-1.573,1.287-4.053,3.337-5.531,4.482c-9.393,7.39-24.077,21.55-29.036,27.892
	c-5.149,6.627-8.773,12.063-10.394,15.495c-1.383,2.861-5.006,8.582-5.483,8.63c-0.572,0-0.906-2.908-0.906-7.342
	c0-9.917,5.197-22.456,13.684-33.184c2.04-2.578,3.951-4.742,5.662-6.553c0,0,2.165-2.292,4.63-4.586
	c13.191-12.272,29.06-20.699,29.06-20.7c6.323-3.358,16.022-8.422,29.84-11.554c5.384-1.22,10.001-1.831,13.382-2.161
	C206.345,77.827,203.058,79.761,199.001,82.112z M239.52,83.453c9.107,4.053,11.872,6.293,14.256,11.538
	c1.716,3.767,1.907,4.625,2.289,9.965c0.62,9.488-2.432,20.263-8.82,31.038c-4.482,7.533-12.253,18.833-16.878,24.507
	c-5.435,6.723-37.332,38.333-44.15,43.816c-5.483,4.434-18.118,16.83-20.835,20.549c-0.763,1.049-2.146,2.813-3.051,3.957
	l-1.621,2.002l-2.193-1.287c-5.912-3.433-17.927-13.779-21.312-18.356c-2.384-3.29-2.861-5.578-2.098-10.775
	c1.478-10.012,7.39-22.313,15.209-31.563c1.24-1.43,3.481-4.291,5.006-6.341c1.526-2.002,4.72-5.674,7.104-8.153
	c9.869-10.108,30.8-30.276,33.708-32.421c1.716-1.287,8.963-8.153,16.163-15.257c11.633-11.538,13.398-13.493,16.592-18.404
	c3.194-4.911,4.815-7.152,5.149-7.152C234.132,81.116,236.563,82.165,239.52,83.453z M284.241,136.661
	c0.524,2.336,1.097,5.674,1.287,7.39c0.143,1.716,0.477,4.815,0.763,6.913c1.144,8.534-1.621,23.505-6.246,33.47
	c-3.242,6.913-10.06,16.783-17.259,24.84c-5.292,5.912-8.582,8.916-14.446,13.207c-6.532,4.768-9.393,6.961-12.158,9.297
	c-1.43,1.192-3.814,3.099-5.245,4.196c-1.43,1.097-3.91,3.051-5.435,4.339c-5.269,4.446-13.799,8.016-17.689,9.726
	c-5.682,2.497-13.272,5.465-22.581,8.123c-0.449,0.194-1.536,0.589-2.439,0.105c-0.259-0.139-0.733-0.473-1.489-2.84
	c-0.573-1.793-0.904-2.701-0.723-3.306c0.304-1.015,1.463-1.803,3.87-3.178c2.098-1.192,5.149-3.004,6.77-4.053
	s4.72-3.004,6.913-4.291c8.153-4.911,23.029-15.209,26.128-18.07c1.192-1.097,4.196-3.624,6.675-5.626
	c5.769-4.625,20.74-19.691,23.696-23.839c1.24-1.764,3.576-5.006,5.149-7.152c4.291-5.96,8.01-11.967,11.014-18.07
	c3.337-6.723,8.058-18.928,9.25-24.03c0.477-2.098,1.144-4.672,1.383-5.721c0.286-1.049,0.524-3.099,0.524-4.529
	c0-2.193,0.095-2.479,0.62-1.907C282.954,132.036,283.669,134.277,284.241,136.661z M210.473,276.775
	c0.028,5.8,0.055,11.6,0.083,17.4c-3.918,0.021-7.836,0.041-11.754,0.062c-3.794-0.002-7.588-0.004-11.381-0.007
	c-0.169-3.184-0.29-6.463-0.353-9.833c-0.047-2.541-0.06-5.031-0.042-7.468c3.67-0.186,7.487-0.303,11.443-0.334
	C202.624,276.565,206.629,276.631,210.473,276.775z"/>
</svg>
