<svg width="400" height="400" viewBox="0 0 400 400" fill="none" xmlns="http://www.w3.org/2000/svg">
<path style="fill:#0000FF;" d="M238.981,268.613c0.276,0.144,0.556,0.305,0.848,0.441c1.381,0.643,2.705,1.383,3.878,2.362
	c0.598,0.499,1.172,1.034,1.706,1.601c0.73,0.774,1.132,1.74,1.418,2.751c0.069,0.245,0.061,0.516,0.061,0.775
	c0.003,5.037,0.001,10.073,0.005,15.109c0,0.332-0.067,0.637-0.177,0.95c-0.467,1.321-1.233,2.424-2.288,3.344
	c-1.317,1.151-2.767,2.088-4.344,2.835c-0.684,0.324-1.36,0.665-2.057,1.006c-0.105,0.362-0.206,0.69-0.295,1.022
	c-0.212,0.796-0.383,1.606-0.636,2.389c-0.273,0.845-0.61,1.669-0.939,2.494c-0.208,0.523-0.466,1.027-0.678,1.55
	c-0.54,1.332-1.233,2.579-1.977,3.807c-1.196,1.971-2.5,3.861-4.027,5.59c-1.786,2.022-3.767,3.836-5.885,5.506
	c-2.8,2.208-5.905,3.886-9.199,5.203c-2.03,0.812-4.103,1.528-6.261,1.944c-0.637,0.123-1.28,0.216-1.92,0.333
	c-0.319,0.058-0.631,0.149-0.95,0.205c-0.383,0.068-0.77,0.162-1.154,0.163c-2.754,0.009-5.509,0.012-8.263-0.02
	c-0.578-0.006-1.153-0.177-1.732-0.252c-3.074-0.402-6.004-1.335-8.869-2.476c-1.773-0.706-3.496-1.529-5.135-2.514
	c-1.153-0.692-2.284-1.414-3.351-2.24c-1.304-1.011-2.553-2.084-3.791-3.174c-1.195-1.052-2.196-2.282-3.228-3.48
	c-1.207-1.399-2.27-2.919-3.196-4.507c-1.321-2.265-2.588-4.576-3.327-7.116c-0.357-1.227-0.908-2.395-1.107-3.67
	c-0.071-0.457-0.333-0.795-0.75-1.004c-0.445-0.224-0.885-0.461-1.34-0.664c-1.255-0.558-2.406-1.293-3.524-2.079
	c-1.171-0.821-2.062-1.915-2.896-3.059c-0.287-0.394-0.443-0.842-0.457-1.336c-0.013-0.456-0.045-0.911-0.046-1.366
	c-0.009-4.493-0.017-8.988-0.017-13.481c0-0.65,0.041-1.301,0.061-1.952c0.016-0.516,0.209-0.964,0.489-1.392
	c0.89-1.365,2.015-2.494,3.356-3.41c0.483-0.33,0.976-0.646,1.472-0.958c0.196-0.123,0.41-0.218,0.674-0.357
	c0.037,0.215,0.079,0.355,0.082,0.497c0.011,0.369,0.005,0.738,0.005,1.107c0.002,1.478,0.156,2.946,0.295,4.414
	c0.111,1.178,0.564,2.218,1.343,3.115c1.521,1.75,3.355,3.048,5.488,3.964c2.282,0.982,4.666,1.611,7.06,2.232
	c2.587,0.671,5.227,1.056,7.86,1.469c1.432,0.225,2.887,0.311,4.333,0.439c0.82,0.073,1.643,0.115,2.465,0.149
	c0.319,0.013,0.648,0.002,1.021-0.181c-0.131-0.078-0.204-0.142-0.288-0.165c-0.145-0.04-0.298-0.058-0.448-0.079
	c-2.788-0.408-5.576-0.813-8.365-1.223c-1.741-0.256-3.427-0.756-5.139-1.14c-2.163-0.485-4.26-1.176-6.324-1.977
	c-1.957-0.759-3.76-1.791-5.315-3.212c-0.542-0.495-1.019-1.064-1.496-1.625c-0.373-0.438-0.578-0.969-0.636-1.543
	c-0.047-0.474-0.09-0.952-0.09-1.427c-0.007-21.426-0.012-42.853-0.013-64.279c-0.002-25.464,0-50.928,0-76.393
	c0-0.714,0-1.427,0-2.15c-0.552-0.277-1.08-0.521-1.59-0.802c-1.065-0.584-2.1-1.216-3.073-1.948
	c-1.037-0.779-1.86-1.749-2.62-2.785c-0.331-0.45-0.53-0.942-0.55-1.503c-0.014-0.39-0.049-0.78-0.049-1.171
	c-0.005-4.45-0.006-8.901-0.004-13.35c0.001-0.694,0.035-1.389,0.048-2.083c0.011-0.558,0.184-1.051,0.486-1.526
	c1.011-1.593,2.399-2.785,3.95-3.813c1.599-1.058,3.332-1.833,5.123-2.518c2.028-0.776,4.1-1.398,6.178-2.007
	c3.417-1.002,6.892-1.736,10.425-2.191c1.074-0.138,2.143-0.313,3.216-0.461c0.3-0.041,0.606-0.034,0.908-0.072
	c3.184-0.411,6.393-0.539,9.585-0.866c0.187-0.019,0.374-0.048,0.573-0.165c-0.069-0.02-0.139-0.058-0.209-0.058
	c-3.275-0.071-6.551-0.105-9.822,0.079c-1.903,0.107-3.805,0.285-5.702,0.477c-1.054,0.106-2.1,0.294-3.146,0.464
	c-1.562,0.253-3.119,0.538-4.682,0.778c-1.439,0.221-2.843,0.592-4.245,0.97c-0.9,0.243-1.786,0.528-2.68,0.791
	c-0.142,0.041-0.288,0.066-0.423,0.096c-0.034-0.065-0.077-0.109-0.068-0.135c0.399-1.17,0.78-2.346,1.216-3.502
	c0.29-0.769,0.63-1.524,1.003-2.258c0.55-1.083,1.11-2.164,1.734-3.206c1.253-2.089,2.699-4.037,4.348-5.834
	c1.205-1.312,2.438-2.594,3.808-3.733c0.716-0.595,1.469-1.149,2.22-1.701c2.633-1.936,5.439-3.575,8.483-4.769
	c2.301-0.903,4.647-1.679,7.109-2.035c1.135-0.164,2.265-0.374,3.4-0.542c0.427-0.063,0.864-0.082,1.297-0.085
	c1.8-0.011,3.6-0.005,5.401-0.012c0.894-0.004,1.77,0.142,2.648,0.284c1.883,0.304,3.77,0.598,5.601,1.142
	c2.477,0.734,4.89,1.646,7.165,2.886c1.886,1.028,3.685,2.19,5.425,3.459c2.136,1.558,4.026,3.368,5.774,5.332
	c1.647,1.849,3.108,3.838,4.372,5.979c0.953,1.614,1.696,3.317,2.463,5.017c0.754,1.67,1.305,3.397,1.678,5.187
	c0.058,0.275,0.133,0.545,0.215,0.871c0.207,0.107,0.428,0.235,0.66,0.339c2.351,1.053,4.526,2.367,6.406,4.157
	c0.932,0.888,1.459,1.978,1.826,3.174c0.049,0.162,0.043,0.343,0.043,0.516c0.006,5.037,0.005,10.073,0.022,15.109
	c0.003,0.766-0.233,1.449-0.556,2.116c-0.324,0.669-0.753,1.267-1.269,1.802c-0.756,0.785-1.596,1.469-2.507,2.064
	c-1.071,0.7-2.162,1.369-3.346,1.868c-0.079,0.033-0.15,0.084-0.245,0.138c-0.014,0.145-0.04,0.293-0.04,0.441
	c-0.012,5.753-0.03,11.505-0.028,17.258c0.003,6.925,0.034,13.85,0.032,20.775c-0.005,16.412-0.026,32.823-0.033,49.235
	c-0.006,15.587-0.003,31.174-0.002,46.76c0,0.782,0.011,1.563,0.021,2.344C238.934,268.36,238.96,268.467,238.981,268.613z
	 M175.722,234.125c0.174,7.006,0.347,13.962,0.522,20.976c-3.907,2.534-7.702,5.271-11.367,8.214c0,0.201,0,0.373,0,0.544
	c0.007,3.429,0.015,6.86,0.023,10.289c0.001,0.195-0.004,0.393,0.023,0.585c0.038,0.282,0.118,0.552,0.447,0.711
	c0.15-0.097,0.317-0.192,0.47-0.307c1.771-1.325,3.52-2.681,5.314-3.974c1.637-1.178,3.32-2.291,4.987-3.425
	c0.184-0.125,0.359-0.32,0.658-0.256c0.019,0.509,0.029,1.006,0.058,1.503c0.029,0.499,0.079,0.995,0.116,1.493
	c0.037,0.498,0.075,0.995,0.096,1.494c0.021,0.499,0.013,0.999,0.036,1.497c0.022,0.479-0.061,0.973,0.143,1.524
	c0.185-0.307,0.2-0.568,0.22-0.814c0.106-1.319,0.205-2.639,0.285-3.96c0.063-1.039,0.094-2.081,0.146-3.122
	c0.009-0.191,0.054-0.379,0.086-0.591c1.358-0.847,2.688-1.704,4.046-2.515c4.265-2.547,8.586-4.997,13.066-7.146
	c3.049-1.463,6.11-2.909,9.212-4.255c3.441-1.493,6.957-2.807,10.523-3.983c0.305-0.1,0.601-0.231,0.928-0.359
	c0.009-0.239,0.02-0.452,0.026-0.665c0.066-2.561,0.126-5.121,0.197-7.682c0.033-1.172,0.09-2.343,0.126-3.513
	c0.007-0.229,0.065-0.472-0.101-0.743c-0.205,0.052-0.412,0.091-0.611,0.157c-1.215,0.401-2.436,0.784-3.638,1.218
	c-1.712,0.62-3.433,1.227-5.109,1.937c-2.775,1.175-5.517,2.429-8.273,3.649c-2.68,1.186-5.276,2.543-7.85,3.94
	c-2.421,1.313-4.811,2.684-7.188,4.075c-1.478,0.864-2.906,1.813-4.358,2.722c-0.102,0.064-0.216,0.111-0.414,0.212
	c0.178-7.303,0.353-14.517,0.53-21.74c0.048-0.043,0.091-0.095,0.146-0.129c1.385-0.853,2.77-1.705,4.158-2.552
	c0.121-0.074,0.269-0.104,0.477-0.183c0,0.3-0.001,0.535,0,0.771c0.006,1.194,0.013,2.387,0.021,3.582
	c0.001,0.174-0.013,0.353,0.026,0.518c0.021,0.087,0.142,0.149,0.241,0.246c0.053-0.123,0.099-0.181,0.101-0.24
	c0.069-1.754,0.133-3.508,0.2-5.292c0.128-0.082,0.269-0.183,0.418-0.267c0.812-0.458,1.63-0.904,2.44-1.367
	c4.051-2.315,8.203-4.436,12.46-6.345c2.948-1.322,5.887-2.669,8.927-3.772c2.262-0.821,4.523-1.647,6.801-2.425
	c1.6-0.547,3.226-1.016,4.838-1.528c0.324-0.103,0.679-0.15,0.985-0.458c0.048-4.019,0.097-8.076,0.142-12.134
	c0.001-0.079-0.04-0.16-0.077-0.3c-0.268,0.062-0.52,0.105-0.763,0.179c-1.907,0.582-3.823,1.14-5.716,1.764
	c-2.018,0.665-4.037,1.339-6.015,2.111c-2.342,0.915-4.679,1.851-6.964,2.907c-1.732,0.801-3.477,1.576-5.196,2.405
	c-1.738,0.837-3.473,1.688-5.172,2.602c-2.062,1.11-4.084,2.294-6.125,3.442c-0.162,0.091-0.341,0.152-0.492,0.217
	c-0.052-0.055-0.068-0.069-0.08-0.086c-0.013-0.017-0.027-0.037-0.03-0.057c-0.008-0.065-0.016-0.13-0.015-0.195
	c0.202-7.094,0.405-14.189,0.608-21.283c0.001-0.02,0.011-0.041,0.021-0.06c0.01-0.019,0.025-0.036,0.037-0.054
	c1.561-0.849,3.115-1.711,4.685-2.543c1.896-1.006,3.789-2.024,5.714-2.973c1.769-0.872,3.576-1.669,5.374-2.483
	c3.102-1.405,6.231-2.746,9.444-3.881c2.33-0.823,4.663-1.641,7.015-2.397c2.621-0.843,5.269-1.596,7.947-2.239
	c0.29-0.069,0.572-0.174,0.877-0.268c0.042-0.53,0.111-1.024,0.115-1.518c0.031-3.473,0.048-6.946,0.068-10.42
	c0.001-0.211-0.026-0.422-0.042-0.659c-0.164,0.026-0.27,0.037-0.373,0.06c-3.911,0.909-7.75,2.068-11.56,3.323
	c-2.204,0.726-4.392,1.501-6.541,2.38c-1.646,0.673-3.296,1.336-4.928,2.041c-1.672,0.722-3.333,1.471-4.983,2.245
	s-3.295,1.558-4.911,2.398c-2.001,1.041-3.974,2.136-5.95,3.225c-2.604,1.434-5.162,2.944-7.653,4.567
	c-0.155,0.101-0.33,0.174-0.538,0.282c-0.058-0.187-0.116-0.304-0.125-0.424c-0.024-0.302-0.033-0.607-0.033-0.911
	c-0.008-5.839-0.194-11.675-0.368-17.512c-0.022-0.734-0.003-1.47-0.003-2.155c0.065-0.084,0.084-0.13,0.119-0.151
	c1.286-0.806,2.573-1.61,3.863-2.408c0.08-0.049,0.192-0.048,0.304-0.074c0.107,1.143,0.221,2.242,0.31,3.343
	c0.171,2.12,0.325,4.24,0.492,6.361c0.034,0.433,0.087,0.864,0.145,1.294c0.016,0.111,0.083,0.216,0.127,0.323
	c0.044-0.004,0.088-0.008,0.132-0.012c0.315-1.388,0.262-2.821,0.416-4.228c0.159-1.445,0.27-2.895,0.399-4.344
	c0.127-1.424,0.248-2.849,0.372-4.26c0.408-0.224,0.766-0.423,1.128-0.617c2.617-1.405,5.212-2.853,7.86-4.198
	c2.242-1.139,4.526-2.199,6.825-3.219c2.417-1.073,4.86-2.092,7.316-3.072c4.333-1.728,8.784-3.115,13.26-4.42
	c3.143-0.916,6.324-1.679,9.525-2.364c0.184-0.039,0.363-0.103,0.543-0.155c0.087-1.708-0.156-3.375,0.146-5.026
	c0.014-2.301,0.028-4.602,0.038-6.903c0.001-0.185-0.033-0.372-0.053-0.577c-0.186,0.016-0.316,0.018-0.442,0.04
	c-2.71,0.488-5.377,1.168-8.035,1.873c-4.023,1.069-8.004,2.288-11.911,3.733c-1.911,0.707-3.828,1.407-5.709,2.192
	c-3.984,1.661-7.925,3.419-11.776,5.377c-3.522,1.79-6.97,3.709-10.373,5.71c-1.607,0.945-3.174,1.961-4.762,2.938
	c-0.252,0.155-0.483,0.364-0.847,0.405c-0.029-0.18-0.071-0.343-0.079-0.509c-0.071-1.496-0.13-2.992-0.205-4.488
	c-0.081-1.604-0.175-3.207-0.269-4.81c-0.014-0.237-0.054-0.474-0.101-0.708c-0.048-0.232-0.07-0.475-0.217-0.686
	c-0.375,4.112-0.571,8.227-0.723,12.355c-1.284,0.887-2.549,1.761-3.818,2.63c-0.064,0.044-0.154,0.05-0.282,0.09
	c-0.058-0.313-0.045-0.592-0.037-0.868c0.087-3.297,0.178-6.594,0.262-9.892c0.051-2.017,0.093-4.036,0.138-6.053
	c0.018-0.847,0.022-1.693,0.051-2.539c0.027-0.8,0.08-1.599,0.121-2.39c0.147-0.107,0.265-0.201,0.391-0.283
	c1.998-1.302,3.984-2.625,5.999-3.901c5.63-3.565,11.45-6.794,17.443-9.708c0.838-0.407,1.689-0.791,2.527-1.2
	c0.201-0.098,0.445-0.162,0.585-0.447c-0.342-0.115-0.663-0.098-0.978-0.101c-3.17-0.034-6.331,0.165-9.484,0.462
	c-2.18,0.205-4.353,0.494-6.527,0.759c-0.667,0.081-1.333,0.182-1.992,0.313c-0.717,0.143-1.423,0.344-2.138,0.501
	c-0.866,0.19-1.747,0.318-2.6,0.551c-1.359,0.371-2.7,0.806-4.049,1.214c-1.587,0.479-3.07,1.197-4.512,1.999
	c-0.818,0.455-1.564,1.014-2.219,1.69c-0.382,0.394-0.565,0.832-0.563,1.398c0.019,4.016,0.013,8.031,0.016,12.048
	c0,0.139,0.016,0.278,0.031,0.51c0.704-0.446,1.263-0.921,1.854-1.348c0.616-0.445,1.216-0.909,1.838-1.344
	c0.595-0.417,1.136-0.922,1.82-1.242c0.174,1.134,0.65,20.26,0.522,21.025c-2.066,1.418-4.058,2.98-6.034,4.507
	c-0.014,0.222-0.032,0.373-0.031,0.523c0.008,3.907,0.017,7.813,0.028,11.72c0,0.021,0.006,0.046,0.018,0.061
	c0.012,0.016,0.036,0.023,0.102,0.06c0.1-0.05,0.238-0.1,0.352-0.182c0.963-0.704,1.921-1.415,2.881-2.122
	c0.856-0.63,1.709-1.264,2.572-1.884c0.145-0.104,0.286-0.282,0.572-0.172c0,0.74-0.01,1.498,0.003,2.255
	c0.014,0.781,0.034,1.562,0.082,2.341c0.046,0.737-0.058,1.482,0.146,2.216c0.14-2.454,0.184-4.91,0.25-7.335
	c0.55-0.531,3.482-2.489,4.027-2.689c0.109,0.295,0.05,0.597,0.042,0.893c-0.089,3.363-0.205,6.724-0.268,10.087
	c-0.061,3.255-0.068,6.512-0.1,9.768c-0.003,0.279-0.029,0.556-0.045,0.843c-3.712,2.388-7.215,5.008-10.667,7.711
	c0,0.232,0,0.426,0,0.62c0.005,3.625,0.009,7.251,0.015,10.875c0,0.174-0.005,0.348,0.011,0.521
	c0.011,0.115,0.056,0.227,0.096,0.382c0.174-0.115,0.301-0.194,0.422-0.281c2.613-1.902,5.221-3.809,7.839-5.704
	c0.544-0.394,1.118-0.747,1.684-1.11c0.136-0.088,0.296-0.139,0.509-0.237c0.028,4.864,0.05,9.652,0.088,14.441
	c0.017,2.276,0.043,4.553,0.041,6.813c-0.548,0.371-1.038,0.728-1.553,1.044c-0.508,0.311-0.962,0.715-1.511,0.951
	c-0.037-0.057-0.058-0.074-0.058-0.091c-0.152-3.491-0.337-6.978-0.694-10.455c-0.008-0.084-0.034-0.167-0.056-0.25
	c-0.005-0.017-0.025-0.036-0.042-0.045c-0.018-0.009-0.042-0.007-0.064-0.011c-0.241,0.7-0.385,2.547-0.499,5.995
	c-0.067,2.036-0.163,4.07-0.246,6.073c-2.021,1.513-4.013,3.006-5.96,4.464c-0.084,1.671-0.026,11.905,0.071,12.396
	c0.308-0.015,0.487-0.258,0.702-0.416c1.451-1.066,2.892-2.143,4.344-3.208c0.238-0.174,0.47-0.375,0.814-0.471
	c0.014,0.184,0.033,0.327,0.035,0.471c0.007,0.5-0.006,0.999,0.015,1.498c0.122,2.884,0.245,5.768,0.384,8.651
	c0.049,1.018,0.145,2.034,0.227,3.05c0.008,0.104-0.029,0.258,0.208,0.312c0.298-2.541,0.514-5.062,0.595-7.596
	c0.081-2.557,0.159-5.114,0.238-7.685C173.176,235.611,175.187,234.312,175.722,234.125z M200.016,99.544
	c0.006-0.025,0.013-0.048,0.019-0.073c0.237,0,0.476-0.007,0.713,0.001c1.951,0.068,3.901,0.156,5.851,0.204
	c2.994,0.072,5.978,0.262,8.959,0.538c2.635,0.244,5.257,0.579,7.858,1.064c2.855,0.532,5.703,1.093,8.486,1.937
	c3.408,1.033,6.743,2.244,9.79,4.133c0.081,0.05,0.175,0.08,0.376,0.171c-0.388-0.665-0.832-1.09-1.355-1.44
	c-1.048-0.7-2.143-1.311-3.289-1.835c-4.043-1.851-8.296-3.028-12.641-3.875c-2.869-0.56-5.746-1.098-8.665-1.353
	c-1.901-0.166-3.8-0.334-5.703-0.474c-1.167-0.086-2.339-0.116-3.508-0.178c-2.686-0.142-5.374-0.233-8.064-0.2
	c-3.97,0.048-7.932,0.264-11.891,0.552c-1.016,0.074-2.038,0.121-3.045,0.269c-1.113,0.163-2.238,0.204-3.345,0.458
	c-1.286,0.296-2.606,0.448-3.912,0.654c-3.438,0.541-6.786,1.438-10.085,2.525c-2.293,0.755-4.488,1.74-6.555,2.991
	c-0.891,0.54-1.726,1.164-2.418,1.96c-0.431,0.496-0.668,1.047-0.665,1.714c0.01,2.518,0.003,5.036,0.005,7.555
	c0,0.14,0.025,0.28,0.037,0.416c0.1,0,0.149,0.015,0.182-0.003c0.115-0.059,0.226-0.128,0.336-0.196
	c2.112-1.301,4.335-2.372,6.685-3.17c2.712-0.921,5.447-1.758,8.258-2.328c1.19-0.241,2.368-0.538,3.562-0.758
	c1.3-0.24,2.608-0.438,3.918-0.622c1.761-0.247,3.522-0.495,5.29-0.682c1.767-0.187,3.544-0.296,5.314-0.447
	c2.682-0.228,5.371-0.281,8.06-0.318c3.363-0.045,6.724,0.025,10.08,0.253c1.709,0.116,3.422,0.213,5.122,0.412
	c2.819,0.33,5.639,0.68,8.443,1.122c3.706,0.583,7.362,1.414,10.946,2.534c2.318,0.725,4.607,1.524,6.755,2.682
	c0.363,0.195,0.725,0.39,1.092,0.575c0.095,0.047,0.209,0.058,0.362,0.096c-0.248-0.503-0.236-0.521-0.525-0.725
	c-0.513-0.361-1.025-0.732-1.571-1.039c-1.931-1.086-3.965-1.947-6.047-2.696c-2.775-0.998-5.616-1.769-8.491-2.421
	c-3.067-0.696-6.158-1.248-9.28-1.627c-1.679-0.205-3.36-0.383-5.042-0.547c-1.726-0.168-3.455-0.318-5.184-0.452
	c-1.837-0.143-3.676-0.259-5.513-0.388c-0.246-0.017-0.491-0.038-0.737-0.058c0.219-0.099,0.433-0.104,0.648-0.098
	c1.106,0.032,2.211,0.066,3.316,0.101c3.273,0.106,6.544,0.22,9.809,0.512c2.484,0.223,4.964,0.469,7.436,0.795
	c3.228,0.424,6.413,1.059,9.568,1.854c2.988,0.753,5.915,1.689,8.727,2.961c0.592,0.268,1.17,0.565,1.758,0.841
	c0.141,0.066,0.298,0.097,0.561,0.18c-0.099-0.188-0.119-0.278-0.175-0.323c-0.168-0.137-0.344-0.263-0.526-0.381
	c-1.719-1.11-3.568-1.962-5.452-2.739c-2.085-0.859-4.229-1.552-6.409-2.119c-1.655-0.43-3.325-0.807-5-1.154
	c-1.633-0.339-3.274-0.648-4.923-0.899c-1.842-0.28-3.699-0.469-5.545-0.721c-2.452-0.335-4.918-0.497-7.388-0.616
	c-1.213-0.058-2.427-0.108-3.638-0.17c-0.178-0.009-0.393,0.039-0.512-0.171c0.046-0.044,0.077-0.098,0.106-0.097
	c0.83,0.012,1.659,0.039,2.49,0.046c3.342,0.025,6.677,0.178,10.007,0.448c2.831,0.23,5.644,0.62,8.451,1.062
	c2.313,0.364,4.614,0.787,6.884,1.366c1.532,0.391,3.07,0.757,4.568,1.274c2.461,0.848,4.881,1.788,7.143,3.095
	c0.035,0.02,0.101-0.015,0.24-0.038c-0.247-0.22-0.421-0.414-0.63-0.556c-0.554-0.379-1.104-0.77-1.69-1.096
	c-2.528-1.407-5.204-2.47-7.959-3.333c-3.936-1.231-7.97-2.044-12.03-2.738c-3.058-0.522-6.14-0.858-9.227-1.143
	c-2.654-0.245-5.318-0.394-7.977-0.593c-0.423-0.032-0.843-0.106-1.264-0.161c0.454-0.079,0.895-0.037,1.337-0.027
	c1.908,0.046,3.818,0.046,5.724,0.132c2.165,0.098,4.332,0.226,6.491,0.423c2.158,0.197,4.312,0.455,6.458,0.762
	c3.951,0.565,7.851,1.379,11.697,2.456c3.058,0.857,6.004,1.983,8.787,3.523c0.119,0.066,0.247,0.111,0.372,0.167
	c-0.798-0.844-1.732-1.459-2.733-1.985c-3.783-1.989-7.807-3.312-11.938-4.334c-2.461-0.608-4.944-1.119-7.447-1.522
	c-1.797-0.29-3.596-0.6-5.405-0.783c-2.804-0.282-5.618-0.463-8.427-0.688C203.514,99.824,201.765,99.683,200.016,99.544z
	 M239.619,287.082c-0.212,0.065-0.374,0.099-0.524,0.163c-0.458,0.196-0.909,0.412-1.368,0.605
	c-3.047,1.281-6.202,2.224-9.419,2.959c-1.162,0.266-2.338,0.467-3.512,0.671c-1.943,0.339-3.884,0.693-5.835,0.974
	c-3.007,0.435-6.04,0.604-9.07,0.79c-2.858,0.176-5.718,0.163-8.578,0.179c-0.13,0.001-0.259-0.012-0.389-0.023
	c-0.123-0.01-0.247-0.027-0.37-0.041c0.564-0.113,1.125-0.087,1.682-0.118c2.165-0.119,4.33-0.247,6.493-0.39
	c1.125-0.075,2.25-0.158,3.369-0.292c1.829-0.219,3.658-0.451,5.477-0.736c1.99-0.312,3.982-0.634,5.951-1.054
	c4.01-0.855,7.98-1.86,11.76-3.499c2.093-0.907,4.153-1.874,5.977-3.27c0.087-0.067,0.156-0.156,0.304-0.308
	c-0.598,0.074-1.016,0.305-1.437,0.52c-1.644,0.839-3.344,1.55-5.086,2.154c-3.157,1.095-6.379,1.965-9.661,2.596
	c-1.978,0.38-3.967,0.704-5.957,1.015c-1.348,0.21-2.705,0.377-4.062,0.521c-1.659,0.175-3.321,0.341-4.986,0.449
	c-2.315,0.151-4.632,0.294-6.951,0.352c-3.317,0.081-6.637,0.082-9.953-0.11c-1.818-0.105-3.638-0.197-5.452-0.353
	c-1.663-0.143-3.32-0.355-4.978-0.552c-2.607-0.309-5.203-0.672-7.783-1.168c-3.221-0.62-6.396-1.415-9.511-2.434
	c-2.933-0.959-5.766-2.151-8.408-3.768c-0.114-0.07-0.25-0.106-0.427-0.179c0,0.222,0,0.374,0,0.523
	c0.005,2.431,0.036,4.863,0.001,7.293c-0.013,0.9,0.3,1.616,0.921,2.206c0.501,0.477,1.032,0.932,1.598,1.33
	c1.084,0.762,2.252,1.386,3.46,1.932c2.259,1.019,4.615,1.769,6.999,2.424c1.108,0.304,2.246,0.493,3.355,0.793
	c1.867,0.504,3.765,0.853,5.672,1.136c2.101,0.311,4.214,0.555,6.324,0.804c3.255,0.384,6.526,0.583,9.8,0.641
	c4.271,0.077,8.546,0.163,12.815-0.1c1.904-0.117,3.811-0.225,5.708-0.423c2.22-0.232,4.432-0.544,6.644-0.848
	c4.63-0.637,9.163-1.699,13.592-3.191c1.955-0.658,3.863-1.438,5.627-2.527c0.498-0.307,0.977-0.645,1.454-0.984
	c0.223-0.158,0.397-0.363,0.369-0.76c-0.259,0.138-0.449,0.233-0.634,0.337c-0.264,0.15-0.517,0.321-0.787,0.458
	c-2.232,1.124-4.532,2.094-6.934,2.781c-2.02,0.578-4.057,1.124-6.116,1.531c-2.614,0.516-5.257,0.889-7.89,1.3
	c-3.002,0.469-6.028,0.741-9.061,0.873c-2.686,0.118-5.376,0.128-8.065,0.172c-0.672,0.011-1.344-0.031-2.017-0.048
	c1.452-0.085,2.904-0.138,4.354-0.217c1.646-0.09,3.294-0.16,4.934-0.316c2.027-0.193,4.048-0.469,6.072-0.702
	c3.384-0.391,6.733-0.981,10.055-1.729c4.503-1.014,8.871-2.408,12.969-4.569c0.593-0.312,1.16-0.675,1.732-1.025
	c0.094-0.058,0.153-0.169,0.309-0.347c-0.204,0.046-0.287,0.054-0.362,0.083c-0.302,0.12-0.609,0.23-0.901,0.371
	c-1.763,0.849-3.605,1.494-5.456,2.109c-3.425,1.137-6.956,1.844-10.5,2.475c-1.706,0.303-3.428,0.527-5.149,0.732
	c-1.851,0.22-3.708,0.398-5.566,0.553c-1.599,0.133-3.203,0.198-4.804,0.309c-2.726,0.188-5.452,0.101-8.178,0.045
	c2.142-0.154,4.284-0.279,6.423-0.444c2.594-0.2,5.187-0.422,7.777-0.66c3.263-0.3,6.49-0.862,9.696-1.516
	c3.06-0.625,6.076-1.427,9.031-2.457c2.403-0.837,4.737-1.814,6.948-3.078c0.332-0.19,0.657-0.393,0.933-0.673
	c-0.1-0.035-0.185-0.039-0.258-0.011c-0.545,0.213-1.096,0.415-1.631,0.651c-2.127,0.942-4.325,1.691-6.563,2.301
	c-2.132,0.581-4.295,1.056-6.461,1.498c-1.698,0.346-3.418,0.578-5.132,0.847c-2.786,0.436-5.585,0.778-8.398,0.958
	c-3.073,0.197-6.15,0.344-9.231,0.278c-0.324-0.007-0.648-0.019-0.973-0.029c0.105-0.092,0.209-0.106,0.313-0.112
	c1.298-0.086,2.597-0.156,3.893-0.261c1.772-0.142,3.544-0.291,5.312-0.475c2.027-0.21,4.057-0.408,6.072-0.704
	c3.819-0.561,7.603-1.307,11.329-2.332c2.364-0.65,4.704-1.381,6.957-2.353c1.173-0.507,2.307-1.103,3.446-1.684
	C239.251,287.642,239.341,287.517,239.619,287.082z M188.006,282.286c0.264,0.288,0.628,0.285,0.961,0.307
	c2.422,0.163,4.844,0.406,7.269,0.44c3.879,0.055,7.763,0.163,11.636-0.198c1.985-0.185,3.973-0.353,5.957-0.546
	c0.291-0.028,0.606-0.037,0.877-0.241c0.013-0.171,0.033-0.342,0.037-0.515c0.042-1.519,0.072-3.038,0.122-4.555
	c0.066-1.995,0.149-3.989,0.219-5.984c0.011-0.298,0.065-0.604-0.107-0.939c-0.161,0.034-0.326,0.054-0.483,0.103
	c-3.167,0.994-6.271,2.159-9.322,3.463c-2.013,0.86-4.008,1.763-6.004,2.662c-3.264,1.47-6.456,3.085-9.582,4.829
	c-0.36,0.201-0.731,0.384-1.08,0.6C188.296,281.844,188.047,281.966,188.006,282.286z M189.888,76.31
	c-0.602,0.07-1.209,0.112-1.806,0.216c-2.939,0.511-5.513,1.764-7.671,3.84c-0.782,0.753-1.317,1.665-1.619,2.705
	c-0.318,1.096,0.089,2.166,1.057,2.765c0.537,0.332,1.128,0.551,1.751,0.672c1.126,0.219,2.254,0.126,3.357-0.093
	c1.902-0.377,3.717-1.019,5.363-2.08c1.139-0.733,2.16-1.596,2.965-2.698c0.4-0.547,0.725-1.13,0.924-1.781
	c0.242-0.788,0.099-1.499-0.416-2.138c-0.421-0.522-0.959-0.87-1.595-1.072C191.449,76.411,190.677,76.32,189.888,76.31z
	 M181.248,319.418c0.198,0.176,0.284,0.265,0.383,0.338c1.382,1.023,2.859,1.88,4.407,2.628c3.99,1.932,8.199,2.891,12.627,2.936
	c2.108,0.021,4.201-0.11,6.292-0.379c2.666-0.343,5.213-1.083,7.675-2.148c2.202-0.953,4.221-2.217,6.165-3.608
	c1.899-1.361,3.562-2.977,5.017-4.799c0.73-0.913,1.39-1.886,2.043-2.858c0.565-0.841,1.044-1.734,1.383-2.706
	c-0.045,0-0.075-0.008-0.082,0.001c-0.26,0.347-0.515,0.697-0.776,1.043c-1.68,2.223-3.532,4.287-5.689,6.061
	c-3.19,2.622-6.804,4.489-10.685,5.82c-2.605,0.894-5.275,1.548-8.04,1.806c-2.672,0.248-5.325,0.195-7.983-0.132
	c-2.228-0.276-4.388-0.846-6.494-1.595c-1.754-0.624-3.465-1.373-5.196-2.064C181.997,319.647,181.713,319.489,181.248,319.418z
	 M231.364,175.99c0.016-0.174,0.029-0.26,0.03-0.346c0.027-2.17,0.045-4.341,0.081-6.511c0.028-1.692,0.082-3.385,0.117-5.077
	c0.005-0.207,0.067-0.431-0.104-0.646c-0.73,0.047-1.431,0.278-2.143,0.441c-0.71,0.163-1.442,0.237-2.183,0.515
	c0,0.365-0.006,0.711,0.001,1.056c0.061,2.839,0.13,5.678,0.185,8.517c0.016,0.803-0.004,1.606,0.001,2.409
	c0.001,0.14,0.042,0.279,0.072,0.462C228.756,176.533,230.043,176.265,231.364,175.99z M226.103,211.187
	c0.074-4.195-0.019-8.323,0.166-12.521c-1.409,0.341-2.745,0.664-4.11,0.995c-0.009,0.333-0.028,0.612-0.023,0.89
	c0.04,2.036,0.084,4.072,0.129,6.108c0.036,1.647,0.073,3.292,0.113,4.939c0.005,0.186,0.028,0.373,0.048,0.62
	C223.67,211.869,224.852,211.537,226.103,211.187z M217.216,235.231c0,0.266-0.007,0.547,0.001,0.827
	c0.081,2.668,0.164,5.334,0.249,8.001c0.034,1.041,0.072,2.081,0.116,3.122c0.005,0.14,0.054,0.277,0.081,0.411
	c0.831-0.096,2.433-0.622,2.86-0.936c0.006-0.093,0.018-0.2,0.02-0.308c0.046-1.973,0.088-3.945,0.134-5.918
	c0.043-1.822,0.093-3.644,0.132-5.465c0.005-0.228,0.06-0.472-0.072-0.682C220.181,234.316,217.591,235.011,217.216,235.231z
	 M231.104,197.665c-0.716-0.01-2.768,0.406-3.368,0.672c-0.005,0.233-0.02,0.489-0.016,0.745c0.038,3.491,0.078,6.983,0.119,10.474
	c0.003,0.238-0.002,0.479,0.03,0.714c0.022,0.158,0.101,0.309,0.164,0.49c1.025-0.216,2.003-0.362,2.975-0.738
	C231.041,205.897,231.072,201.803,231.104,197.665z M225.513,245.459c0.069-4.108,0.138-8.141,0.205-12.175
	c0.002-0.108-0.003-0.216-0.007-0.323c-0.001-0.019-0.016-0.041-0.03-0.057c-0.013-0.015-0.033-0.024-0.091-0.065
	c-0.901,0.228-1.842,0.437-2.76,0.714c-0.018,0.166-0.045,0.273-0.04,0.378c0.026,0.606,0.071,1.212,0.088,1.818
	c0.039,1.472,0.06,2.945,0.099,4.418c0.048,1.865,0.106,3.729,0.164,5.593c0.003,0.077,0.05,0.152,0.092,0.272
	C223.988,245.844,224.719,245.66,225.513,245.459z M234.919,141.229c0.043-0.099,0.075-0.137,0.075-0.175
	c-0.001-4.051-0.005-8.104-0.009-12.155c0-0.019-0.018-0.038-0.03-0.057c-0.011-0.017-0.026-0.032-0.073-0.091
	c-0.819,0.142-1.664,0.288-2.558,0.442c-0.015,0.268-0.044,0.5-0.038,0.732c0.031,1.385,0.085,2.772,0.103,4.157
	c0.028,2.21,0.029,4.42,0.052,6.63c0.003,0.295-0.05,0.604,0.119,0.942C233.358,141.512,234.156,141.367,234.919,141.229z
	 M230.689,231.677c-0.888,0.188-1.661,0.352-2.473,0.524c0,0.312-0.005,0.57,0.001,0.827c0.023,0.976,0.058,1.953,0.073,2.929
	c0.039,2.648,0.068,5.295,0.107,7.943c0.004,0.252-0.045,0.517,0.111,0.809c0.687-0.148,1.391-0.206,2.043-0.466
	C230.597,240.065,230.642,235.927,230.689,231.677z M234.991,175.349c0-0.475,0-0.905,0-1.335c0.002-3.537,0.005-7.074,0.002-10.611
	c0-0.204,0.07-0.428-0.105-0.641c-0.724,0.125-1.443,0.249-2.21,0.382c0.041,4.204,0.081,8.359,0.122,12.582
	C233.564,175.595,234.259,175.475,234.991,175.349z M234.96,209.417c0-4.246,0-8.382,0-12.574c-0.667,0.06-1.267,0.196-1.901,0.369
	c0,0.244-0.003,0.458,0,0.671c0.039,2.646,0.083,5.292,0.118,7.937c0.014,1.041,0.007,2.082,0.014,3.123
	c0.001,0.21,0.017,0.419,0.028,0.672C233.842,209.544,234.393,209.481,234.96,209.417z M232.47,98.283
	c-0.126-0.391-0.187-0.639-0.284-0.872c-0.383-0.92-0.765-1.84-1.168-2.752c-1.289-2.916-3.021-5.555-5.063-7.99
	c-1.241-1.48-2.629-2.821-4.095-4.079c-0.427-0.366-0.881-0.701-1.329-1.044c-0.068-0.053-0.166-0.068-0.384-0.151
	c0.142,0.189,0.186,0.262,0.245,0.321c0.648,0.669,1.29,1.344,1.949,2.004c2.206,2.208,4.028,4.701,5.514,7.442
	c0.974,1.796,1.744,3.678,2.365,5.622c0.098,0.307,0.225,0.605,0.354,0.953C231.155,97.905,231.728,98.071,232.47,98.283z
	 M218.326,268.992c-0.026,4.152,0.192,8.26,0.348,12.423c0.442-0.012,0.825,0.051,1.2-0.211c0-0.216-0.002-0.432,0-0.648
	c0.021-1.954,0.034-3.907,0.065-5.861c0.029-1.823,0.081-3.645,0.114-5.468c0.005-0.228,0.062-0.472-0.081-0.707
	C219.422,268.581,218.923,268.787,218.326,268.992z M233.443,231.207c0,0.242-0.004,0.478,0.001,0.713
	c0.028,1.757,0.06,3.513,0.086,5.271c0.028,1.932,0.05,3.863,0.079,5.794c0.003,0.186,0.034,0.373,0.054,0.579
	c0.483,0.009,0.906,0.028,1.307-0.175c0-4.165,0-8.303,0-12.472C234.44,230.928,233.962,231.007,233.443,231.207z M224.901,280.075
	c0.177-1.511,0.302-12.276,0.145-13.012c-0.494,0.126-0.986,0.252-1.51,0.385c0.174,4.291,0.123,8.535,0.279,12.791
	C224.224,280.275,224.559,280.259,224.901,280.075z M230.196,278.244c0.043-3.864,0.086-7.696,0.127-11.528
	c0.003-0.259-0.005-0.519-0.011-0.778c0-0.02-0.015-0.041-0.027-0.058c-0.011-0.016-0.028-0.026-0.068-0.061
	c-0.485,0.09-0.985,0.187-1.488,0.414c0,0.235-0.004,0.449,0.001,0.663c0.053,2.684,0.107,5.368,0.16,8.051
	c0.019,0.996,0.033,1.992,0.056,2.988c0.005,0.23,0.037,0.46,0.058,0.725C229.459,278.603,229.817,278.483,230.196,278.244z
	 M199.205,78.512c1.204,0.092,2.33-0.97,2.292-2.208c-0.037-1.244-1.043-2.28-2.278-2.282c-1.195-0.003-2.189,1.021-2.2,2.273
	C197.009,77.496,197.857,78.57,199.205,78.512z M233.992,265.058c-0.016,0.213-0.033,0.342-0.033,0.47
	c0.005,3.076,0.01,6.152,0.017,9.228c0.001,0.238,0.008,0.477,0.034,0.713c0.012,0.114,0.072,0.224,0.12,0.361
	c0.368-0.128,0.574-0.37,0.769-0.627c0.018-0.115,0.048-0.222,0.049-0.329c0.014-3.227,0.025-6.454,0.035-9.681
	c0-0.02-0.009-0.043-0.02-0.06c-0.012-0.017-0.031-0.03-0.082-0.076C234.627,265.058,234.336,265.058,233.992,265.058z
	 M179.281,197.601c1.193-0.732,2.335-1.51,3.512-2.135c0.09,0.027,0.116,0.028,0.129,0.042
	c0.014,0.014,0.021,0.039,0.021,0.06c0.19,6.939,0.379,13.877,0.568,20.819c-0.401,0.411-0.923,0.591-1.373,0.883
	c-0.455,0.295-0.915,0.58-1.369,0.876c-0.448,0.293-0.906,0.569-1.428,0.857c-0.026-0.197-0.058-0.319-0.058-0.441
	C179.28,211.578,179.281,204.594,179.281,197.601z"/>
</svg>
