<svg width="400" height="400" viewBox="0 0 400 400" fill="none" xmlns="http://www.w3.org/2000/svg">
<path fill-rule="evenodd" clip-rule="evenodd" d="M208.813 85.7234C206.168 87.8322 205.624 94.3245 207.952 96.0257C208.645 96.5329 209.212 97.2733 209.212 97.6713C209.212 98.0693 210.309 99.7245 211.647 101.35C216.313 107.01 214.963 113.628 207.812 120.153C202.347 125.139 201.777 126.943 206.356 124.76C213.831 121.195 222.184 110.836 221.302 106.225C220.868 103.952 213.494 93.9929 212.246 93.9929C209.122 93.9929 211.875 87.6065 215.564 86.2969C220.607 84.5058 220.555 84.0832 215.29 84.004C212.024 83.9548 210.535 84.3496 208.813 85.7234ZM200.662 113.049C200.662 114.578 200.826 115.203 201.026 114.439C201.225 113.675 201.225 112.424 201.026 111.659C200.826 110.896 200.662 111.521 200.662 113.049ZM200.621 138.156L200.875 143.619L211.714 144.053C217.873 144.299 223.017 144.869 223.625 145.373C224.213 145.861 227.375 146.458 230.651 146.7C243.996 147.684 245.737 148.024 245.737 149.647C245.737 151.408 238.24 151.88 235.295 150.304C234.322 149.783 227.313 149.393 217.481 149.311L201.272 149.176L201.199 151.956C200.586 175.292 200.36 174.155 205.517 173.736C207.769 173.553 213.718 173.189 218.741 172.927C224.159 172.644 228.547 172.023 229.532 171.399C230.445 170.82 234.107 170.14 237.671 169.886C241.234 169.631 247.096 169.215 250.698 168.96C254.301 168.706 257.639 168.172 258.117 167.775C258.595 167.378 261.097 166.72 263.677 166.312C268.81 165.501 270.028 165.21 272.191 164.277C274.838 163.136 275.271 164.862 274.809 174.693C274.172 188.246 273.516 193.37 272.254 194.63C271.644 195.24 271.145 197.278 271.145 199.159C271.145 201.229 270.675 202.968 269.954 203.566C269.299 204.11 268.758 205.315 268.751 206.244C268.738 207.981 267.634 211.263 265.319 216.444C264.592 218.067 263.999 219.9 263.999 220.515C263.999 221.13 263.463 222.079 262.808 222.623C262.153 223.166 261.617 223.924 261.617 224.306C261.617 225.929 252.156 237.735 247.417 242.025C245.939 243.363 244.063 245.084 243.248 245.848C242.433 246.611 241.409 247.237 240.973 247.237C240.536 247.237 240.179 247.507 240.179 247.838C240.179 248.167 239.197 248.859 237.995 249.375C236.795 249.892 233.713 251.229 231.148 252.348C228.582 253.468 225.957 254.383 225.314 254.383C224.672 254.383 223.198 254.88 222.039 255.486C220.03 256.538 209.551 258.588 206.647 258.497C205.892 258.474 205.067 258.788 204.815 259.198C204.561 259.607 203.522 259.941 202.505 259.941C200.73 259.941 200.655 260.185 200.655 266V272.059L210.53 271.679C216.421 271.452 220.775 270.929 221.319 270.383C221.823 269.88 223.299 269.469 224.6 269.469C227.232 269.469 231.537 268.246 234.744 266.589C235.902 265.99 237.528 265.499 238.356 265.499C239.184 265.499 240.2 265.192 240.615 264.816C241.03 264.441 243.245 263.477 245.538 262.674C247.831 261.872 249.706 260.928 249.706 260.578C249.706 260.227 250.119 259.941 250.624 259.941C252.118 259.941 256.853 255.987 256.853 254.74C256.853 252.79 254.314 253.539 248.516 257.198C246.768 258.3 244.089 259.735 242.56 260.386C241.033 261.036 239.161 261.918 238.403 262.344C237.644 262.768 236.198 263.117 235.188 263.117C234.176 263.117 233.01 263.449 232.596 263.853C230.938 265.472 222.313 265.15 222.313 263.469C222.313 262.279 222.951 261.872 225.093 261.69C226.621 261.56 228.943 260.964 230.253 260.366C231.564 259.768 233.963 259.033 235.585 258.733C237.207 258.433 238.948 257.688 239.453 257.079C239.959 256.47 240.728 255.971 241.161 255.971C242.537 255.971 251.214 249.399 256.46 244.384L261.52 239.547L266.531 240.24C269.287 240.622 272.971 241.045 274.718 241.179C276.465 241.314 278.899 241.838 280.13 242.346C281.359 242.852 283.627 243.267 285.17 243.267C286.713 243.267 289.102 243.752 290.478 244.344C291.854 244.937 295.66 245.972 298.935 246.644C304.951 247.877 309.457 249.253 311.639 250.524C312.295 250.905 313.366 251.42 314.022 251.667C314.677 251.914 315.833 252.448 316.591 252.853C317.349 253.258 318.428 253.589 318.987 253.589C320.466 253.589 328.314 260.656 328.314 261.987C328.314 263.478 321.683 269.469 320.033 269.469C319.529 269.469 310.95 273.221 309.069 274.263C308.312 274.683 306.992 275.028 306.139 275.028C305.286 275.028 304.398 275.334 304.166 275.709C303.934 276.085 301.703 276.631 299.209 276.925C296.714 277.218 294.18 277.867 293.577 278.367C292.46 279.294 285.049 280.745 281.478 280.736C280.393 280.732 278.841 281.086 278.029 281.52C277.216 281.954 272.927 282.651 268.497 283.068C264.066 283.484 260.098 284.169 259.679 284.587C259.26 285.007 256.22 285.351 252.923 285.353C249.625 285.357 244.853 285.698 242.318 286.113C239.783 286.528 231.922 286.901 224.85 286.94C217.778 286.98 209.449 287.394 206.342 287.86L200.694 288.709L200.784 293.182L200.875 297.657H213.579C220.567 297.657 232.805 297.339 240.775 296.949C253.571 296.326 255.265 296.385 255.265 297.461C255.265 299.102 253.574 299.641 248.423 299.641C246.041 299.641 243.302 300.136 242.335 300.739C241.129 301.49 236.576 301.987 227.871 302.314C220.885 302.576 211.862 303.231 207.823 303.769L200.478 304.747V310.134V315.521H214.401C224.902 315.521 228.756 315.25 230.083 314.42C231.05 313.814 234.183 313.146 237.046 312.936C239.908 312.725 242.945 312.181 243.795 311.726C244.645 311.27 247.483 310.47 250.103 309.946C254.463 309.075 258.556 307.627 261.617 305.873C262.272 305.497 263.344 304.98 263.999 304.726C267.223 303.469 269.269 302.569 270.351 301.93C271.007 301.543 272.256 300.909 273.13 300.522C275.774 299.349 279.096 295.831 278.652 294.675C278.001 292.977 284.746 290.114 289.398 290.114C291.099 290.114 292.71 289.756 292.981 289.32C293.25 288.883 294.57 288.526 295.912 288.526C298.668 288.526 303.665 287.273 307.393 285.647C308.769 285.046 310.779 284.555 311.861 284.555C312.942 284.555 314.272 284.019 314.816 283.364C315.359 282.71 316.633 282.174 317.645 282.174C318.658 282.174 319.706 281.816 319.976 281.38C320.247 280.942 321.16 280.585 322.009 280.585C322.856 280.585 323.55 280.217 323.55 279.766C323.55 279.316 324.174 278.717 324.939 278.435C325.703 278.154 327.435 277.093 328.786 276.078C330.137 275.063 331.567 274.228 331.961 274.223C333.139 274.207 339.429 263.94 339.429 262.033C339.429 258.416 330.993 247.237 328.264 247.237C327.762 247.237 326.049 246.233 324.458 245.007C322.867 243.779 319.957 242.287 317.991 241.689C316.026 241.092 313.854 240.13 313.165 239.553C312.476 238.975 310.846 238.502 309.545 238.502C308.243 238.502 306.485 237.978 305.638 237.337C304.789 236.695 302.957 236.16 301.563 236.146C300.17 236.133 298.809 235.763 298.538 235.327C298.268 234.89 296.55 234.521 294.72 234.507C292.89 234.493 290.699 233.957 289.851 233.317C289.004 232.676 286.681 232.147 284.69 232.142C282.699 232.137 279.317 231.601 277.173 230.951C275.028 230.3 272.259 229.769 271.018 229.769C269.543 229.769 268.763 229.357 268.763 228.578C268.763 227.923 269.064 227.387 269.432 227.387C269.8 227.387 270.78 226.046 271.609 224.409C272.439 222.771 273.478 220.941 273.918 220.34C274.358 219.739 275.294 217.596 275.997 215.576C276.985 212.737 277.616 211.964 278.776 212.168C283.527 213.006 287.452 212.94 290.259 211.973C292.008 211.37 294.105 211.051 294.921 211.264C295.736 211.478 297.597 211.121 299.059 210.471C300.519 209.822 304.037 208.843 306.876 208.297C309.714 207.751 312.601 206.82 313.29 206.229C313.979 205.639 315.069 205.155 315.711 205.155C316.354 205.155 317.219 204.834 317.634 204.441C318.049 204.05 319.796 202.986 321.517 202.079C340.622 192.002 346.198 167.162 332.158 154.668C325.411 148.665 308.719 145.667 303.982 149.608C303.171 150.282 301.567 151.303 300.416 151.877C296.919 153.621 290.995 160.358 290.995 162.591C290.995 163.292 290.485 163.867 289.86 163.867C288.957 163.867 288.875 164.393 289.463 166.441C289.869 167.857 290.201 170.111 290.201 171.447C290.201 173.457 292.384 177.69 295.871 182.443C297.11 184.13 299.045 182.224 297.992 180.353C297.436 179.364 296.907 178.02 296.817 177.364C296.729 176.709 296.41 174.849 296.109 173.231C295.809 171.612 295.84 169.646 296.178 168.863C296.517 168.08 296.892 166.949 297.014 166.35C297.31 164.896 301.384 160.69 302.498 160.69C302.985 160.69 303.798 160.274 304.307 159.766C305.374 158.698 314.045 157.942 316.929 158.667C324.551 160.58 331.901 175.78 327.123 179.746C326.467 180.29 325.931 181.374 325.931 182.155C325.931 184.163 316.676 192.381 311.134 195.296C308.574 196.643 305.764 198.138 304.89 198.619C301.78 200.333 298.351 201.741 294.601 202.844C292.508 203.46 290.624 204.41 290.414 204.956C290.203 205.502 289.22 205.949 288.228 205.949C287.237 205.949 285.981 206.485 285.437 207.14C284.893 207.795 283.778 208.331 282.958 208.331C282.138 208.331 281.467 208.688 281.467 209.124C281.467 210.182 279.318 210.143 278.658 209.074C278.37 208.61 278.75 207.552 279.501 206.722C280.252 205.892 280.671 204.708 280.435 204.089C280.197 203.472 280.351 202.618 280.776 202.193C283.076 199.892 286.136 183.815 286.19 173.752C286.212 169.363 286.585 165.418 287.018 164.986C288.139 163.864 288.905 157.335 288.297 154.091C287.384 149.228 278.71 143.148 270.901 141.9C269.121 141.615 266.751 140.905 265.633 140.322C264.516 139.739 262.584 139.259 261.34 139.257C260.095 139.254 257.952 138.74 256.575 138.114C254.08 136.981 252.496 136.725 238.988 135.268C235.057 134.845 230.77 134.309 229.459 134.078C228.15 133.845 221.068 133.44 213.723 133.176L200.368 132.694L200.621 138.156ZM266.831 182.724C264.423 190.219 260.556 199.597 259.873 199.597C259.522 199.597 259.235 200.077 259.235 200.666C259.235 202.058 257.075 206.506 254.937 209.521C254.008 210.832 252.734 212.975 252.106 214.286C251.478 215.595 249.865 218.097 248.521 219.844C247.176 221.59 245.426 224.049 244.63 225.306C242.143 229.236 224.714 246.198 221.451 247.864C219.742 248.736 217.629 250.247 216.756 251.222L215.167 252.994L217.947 252.423C219.475 252.109 221.122 251.35 221.607 250.736C222.092 250.122 222.843 249.619 223.275 249.619C226.583 249.619 234.522 243.859 243.61 234.864C253.196 225.377 255.327 222.23 263.329 205.761C263.698 205.002 263.999 203.692 263.999 202.849C263.999 202.006 264.364 201.195 264.812 201.045C265.259 200.897 265.843 199.349 266.111 197.606C266.377 195.862 267.039 193.899 267.582 193.245C268.124 192.59 268.791 190.267 269.063 188.083C269.334 185.9 269.775 182.773 270.04 181.136C270.835 176.249 268.548 177.381 266.831 182.724ZM217.519 264.187C219.552 265.674 218.383 267.087 215.121 267.087C212.144 267.087 211.582 265.889 213.778 264.222C215.534 262.889 215.741 262.887 217.519 264.187ZM263.812 295.008C265.136 296.332 262.709 297.996 259.409 298.028C256.57 298.056 255.012 296.027 256.936 294.809C258.528 293.802 262.726 293.923 263.812 295.008Z" fill="#FF0000"/>
<path fill-rule="evenodd" clip-rule="evenodd" d="M194.383 88.9877C193.432 89.1728 192.227 89.8394 191.705 90.4675C191.183 91.0966 190.302 91.6112 189.747 91.6112C186.045 91.6112 187.571 100.056 192.025 104.217C193.135 105.254 194.268 107.126 194.543 108.376C194.818 109.627 195.372 110.853 195.776 111.102C197.962 112.453 194.7 119.785 189.48 125.252C184.508 130.459 188.189 128.686 193.928 123.109L198.096 119.059V112.63C198.096 106.533 197.973 106.083 195.732 103.936C189.7 98.1559 189.409 93.2707 194.927 90.4161C197.143 89.2713 198.069 88.2955 196.707 88.5437C196.379 88.6026 195.333 88.8026 194.383 88.9877ZM191.552 133.357C191.301 133.608 185.971 133.961 179.709 134.141C153.584 134.893 130.038 137.641 123.063 140.751C122.189 141.14 119.902 141.886 117.98 142.408C113.149 143.721 108.635 146.889 107.675 149.642C105.878 154.794 107.08 191.874 109.125 194.407C109.49 194.859 110.214 197.297 110.732 199.825C111.251 202.352 112.18 205.389 112.798 206.574C113.416 207.758 113.924 209.092 113.926 209.537C113.931 210.267 115.181 212.729 119.797 221.097C120.621 222.592 122.318 225.116 123.569 226.707C126.15 229.993 126.489 232.113 124.452 232.232C119.992 232.489 116.687 232.953 114.465 233.631C113.08 234.054 109.446 234.85 106.389 235.401C103.331 235.951 100.473 236.654 100.037 236.963C99.599 237.271 97.3019 237.932 94.9288 238.433C92.5568 238.933 90.235 239.625 89.7685 239.97C89.302 240.316 87.312 241.057 85.3465 241.617C83.3821 242.178 80.8261 243.135 79.6663 243.745C78.5076 244.356 77.152 244.855 76.6555 244.855C74.7853 244.855 67.1845 251.256 64.2283 255.321C62.5389 257.643 60.8827 259.663 60.5478 259.809C58.026 260.905 64.6927 271.003 70.7217 275.219C77.5371 279.987 91.9908 285.406 104.006 287.699C106.626 288.198 109.485 288.933 110.358 289.331C111.231 289.729 115.877 290.59 120.681 291.243C125.484 291.898 131.38 292.806 133.782 293.26C136.183 293.715 142.079 294.268 146.882 294.491C151.686 294.713 157.591 295.25 160.005 295.684C165.203 296.617 192.772 297.479 195.913 296.807C197.895 296.382 198.096 296.015 198.096 292.829V289.32L191.545 289.294C181.35 289.254 168.829 288.575 163.16 287.752C160.322 287.34 152.282 286.591 145.294 286.087C138.308 285.583 132.233 284.906 131.796 284.583C131.36 284.26 127.251 283.555 122.666 283.016C118.08 282.476 113.971 281.762 113.535 281.427C113.097 281.092 109.882 280.356 106.389 279.791C102.894 279.226 99.6739 278.486 99.232 278.145C98.7891 277.805 96.6556 277.081 94.489 276.535C92.3235 275.989 89.6487 275.073 88.5445 274.496C87.4414 273.92 86.1254 273.446 85.6215 273.444C85.1176 273.441 82.4385 272.162 79.6663 270.602C66.917 263.424 67.0818 259.368 80.3917 252.804C84.2092 250.922 88.2803 248.899 89.4401 248.309C90.5988 247.72 92.0828 247.237 92.7376 247.237C93.3934 247.237 96.5433 246.353 99.7381 245.272C102.933 244.19 107.702 243.072 110.335 242.786C112.968 242.5 115.48 241.996 115.916 241.666C116.77 241.021 128.652 239.296 132.245 239.296C133.533 239.296 135.708 240.353 137.559 241.877C146.397 249.155 146.891 249.486 154.577 253.288C162.944 257.427 166.62 259.012 169.115 259.556C170.425 259.842 172.748 260.54 174.276 261.106C175.805 261.673 180.092 262.385 183.804 262.691C187.516 262.996 192.25 263.391 194.325 263.569C197.87 263.873 198.096 263.777 198.096 261.98C198.096 259.782 198.229 259.822 184.598 257.955C179.576 257.267 174.753 256.409 173.879 256.047C173.006 255.685 169.432 254.208 165.939 252.762C162.445 251.318 158.639 249.484 157.479 248.687C156.32 247.889 155.174 247.237 154.933 247.237C152.71 247.237 141.302 236.815 134.973 229.004C132.789 226.307 130.603 223.664 130.114 223.127C129.627 222.591 128.959 221.275 128.631 220.204C128.304 219.133 127.587 217.719 127.039 217.064C126.491 216.41 125.593 214.444 125.044 212.698C124.495 210.951 123.744 209.137 123.374 208.668C120.345 204.823 117.271 179.369 118.347 167.037C118.889 160.82 121.669 157.944 123.801 161.394C124.04 161.781 125.58 162.347 127.222 162.651C128.865 162.955 131.281 163.689 132.59 164.283C133.901 164.875 136.58 165.774 138.545 166.279C140.511 166.784 142.476 167.473 142.913 167.81C143.349 168.146 145.494 168.671 147.677 168.975C149.86 169.279 153.433 169.82 155.617 170.178C166.947 172.032 173.449 172.668 185.193 173.068L198.096 173.507V161.443V149.38L185.489 149.767C178.555 149.98 172.571 150.337 172.189 150.562C171.808 150.787 167.923 151.194 163.557 151.468C152.495 152.164 147.212 152.749 144.898 153.537C139.912 155.235 134.576 155.277 134.576 153.618C134.576 151.163 136.874 150.525 157.602 147.228C162.624 146.43 167.626 145.545 168.718 145.263C169.81 144.981 176.42 144.4 183.407 143.974C190.394 143.548 196.558 143.036 197.104 142.838C198.658 142.273 198.428 133.991 196.84 133.381C195.25 132.771 192.152 132.757 191.552 133.357ZM140.53 258.016C141.404 258.676 143.012 259.435 144.104 259.701C145.195 259.967 146.267 260.425 146.485 260.718C146.854 261.215 152.522 263.215 164.524 267.083C167.24 267.959 170.32 268.675 171.368 268.675C172.416 268.675 176.405 269.221 180.231 269.889C193.09 272.131 198.096 272.289 198.096 270.45C198.096 267.813 196.499 267.305 186.707 266.824C181.534 266.571 176.889 266.046 176.384 265.658C175.879 265.271 172.251 264.485 168.321 263.911C164.391 263.338 160.763 262.553 160.262 262.167C159.76 261.782 157.105 261.106 154.364 260.664C151.623 260.222 148.998 259.613 148.529 259.31C147.591 258.705 140.998 256.841 139.736 256.825C139.3 256.82 139.657 257.356 140.53 258.016ZM109.15 296.047C109.684 296.69 111.392 297.455 112.945 297.747C114.498 298.039 116.695 298.761 117.827 299.351C118.96 299.942 120.488 300.428 121.224 300.431C121.96 300.433 123.568 300.855 124.797 301.367C126.026 301.88 129.533 302.966 132.59 303.78C135.647 304.594 139.399 305.613 140.928 306.045C142.456 306.476 145.315 307.156 147.279 307.556C149.245 307.955 153.176 308.826 156.014 309.491C158.853 310.158 162.851 310.714 164.9 310.73C166.948 310.745 168.826 311.084 169.074 311.484C169.321 311.884 172.289 312.468 175.671 312.78C179.053 313.093 183.427 313.835 185.392 314.427C187.358 315.019 191.036 315.508 193.567 315.513L198.169 315.521L197.934 310.162L197.7 304.803L186.583 304.252C167.758 303.319 145.697 301.318 144.501 300.435C144.064 300.113 140.506 299.598 136.594 299.294C129.53 298.741 127.812 298.452 117.901 296.138C110.92 294.509 107.846 294.477 109.15 296.047Z" fill="#0000FF"/>
</svg>
