<svg width="400" height="400" viewBox="0 0 400 400" fill="none" xmlns="http://www.w3.org/2000/svg">
<path style="fill:#FF0000;" d="M340,175.438c-0.152,6.852-2.511,12.796-6.932,17.98c-4.554,5.341-10.324,8.944-16.627,11.811
	c-5.495,2.499-11.231,4.287-17.105,5.611c-4.044,0.911-8.123,1.69-12.213,2.368c-1.969,0.327-3.999,0.285-6.002,0.408
	c-0.088,0.005-0.179-0.002-0.267-0.009c-0.745-0.058-1.606-0.262-1.658-1.032c-0.035-0.53,0.486-1.291,0.978-1.624
	c1.288-0.87,2.644-1.678,4.065-2.301c4.472-1.96,8.987-3.821,13.484-5.724c6.169-2.609,12.258-5.378,17.861-9.095
	c3.786-2.511,7.266-5.348,9.839-9.176c1.881-2.797,3.007-5.878,2.982-9.211c-0.04-5.247-1.578-9.954-5.92-13.339
	c-2.257-1.759-4.835-2.789-7.661-3.217c-4.101-0.62-8.061-0.179-11.829,1.607c-4.722,2.238-8.06,6.379-8.058,11.99
	c0.001,3.515,1.115,6.697,2.646,9.776c0.267,0.538,0.404,1.066-0.096,1.44c-0.509,0.381-0.955,0.076-1.379-0.35
	c-2.791-2.798-4.819-6.07-5.704-9.917c-1.21-5.261-0.169-10.165,3.031-14.515c3.371-4.581,7.991-7.325,13.436-8.795
	c2.532-0.683,5.101-1.118,7.71-1.017c5.067,0.197,9.819,1.429,14.105,4.327c2.725,1.841,4.983,4.104,6.78,6.794
	c2.181,3.266,3.563,6.887,4.048,10.813C339.695,172.506,339.84,173.973,340,175.438z
	 M269.825,176.228c-0.257,2.117-0.412,4.21-0.78,6.265c-0.684,3.814-1.405,7.627-2.277,11.402
	c-0.619,2.682-1.453,5.319-2.291,7.944c-1.415,4.434-3.234,8.708-5.35,12.853c-3.349,6.561-7.45,12.605-12.392,18.078
	c-6.024,6.67-13.001,12.123-20.856,16.468c-3.468,1.919-8.923,4.197-11.828,4.956c3.594-2.725,7.382-5.383,10.921-8.341
	c3.604-3.012,7.11-6.172,10.383-9.537c3.248-3.339,6.294-6.902,9.163-10.573c2.872-3.674,5.56-7.512,8.06-11.449
	c2.494-3.927,4.815-7.984,6.92-12.132c2.112-4.163,4.011-8.451,5.731-12.792C266.931,185.073,268.296,180.644,269.825,176.228z
	 M219.44,104.053c-0.922-2.219-2.499-3.923-4.188-5.566c-2.002-1.947-3.898-3.986-4.996-6.625
	c-0.827-1.989-0.325-3.712,1.474-4.857c0.372-0.237,0.768-0.457,1.182-0.606c1.98-0.708,3.971-1.382,5.952-2.086
	c0.356-0.126,0.683-0.335,1.023-0.506c-0.021-0.09-0.041-0.181-0.062-0.271c-0.667-0.029-1.345-0.154-1.997-0.07
	c-1.993,0.257-3.987,0.54-5.96,0.918c-1.644,0.315-3.173,0.991-4.516,2.006c-1.702,1.287-2.695,2.987-2.232,5.147
	c0.299,1.391,0.721,2.873,1.518,4.013c1.483,2.123,3.239,4.064,4.96,6.012c1.955,2.213,3.307,4.628,2.959,7.694
	c-0.279,2.46-1.471,4.529-2.944,6.452c-2.582,3.372-5.784,6.098-9.119,8.682c-0.414,0.32-0.828,0.641-1.242,0.961v1.02
	c2.575-1.352,5.193-2.639,7.665-4.161c3.936-2.425,7.542-5.275,9.878-9.399C220.379,110.011,220.701,107.088,219.44,104.053z
	 M337.734,260.207c-0.983-4.146-3.544-7.218-6.738-9.84c-2.982-2.448-6.365-4.253-9.823-5.908
	c-5.021-2.403-10.286-4.171-15.627-5.691c-7.084-2.016-14.256-3.683-21.502-5.018c-3.007-0.555-6.015-1.1-9.033-1.587
	c-2.21-0.356-4.433-0.626-6.655-0.901c-0.637-0.078-0.372-0.319-0.199-0.62c1.503-2.601,3.116-5.147,4.465-7.826
	c1.562-3.102,3.005-6.276,4.286-9.503c1.443-3.634,2.77-7.325,3.921-11.061c1.062-3.447,1.952-6.962,2.685-10.494
	c0.908-4.372,1.679-8.779,2.319-13.198c0.558-3.855,0.962-7.742,1.233-11.63c0.266-3.815,0.306-7.648,0.389-11.474
	c0.052-2.394-0.957-4.318-2.775-5.868c-3.043-2.595-6.653-4.118-10.333-5.486c-5.1-1.897-10.356-3.266-15.682-4.359
	c-3.195-0.656-6.386-1.341-9.605-1.857c-3.952-0.634-7.926-1.133-11.897-1.637c-3.568-0.451-7.139-0.89-10.719-1.225
	c-3.917-0.367-7.842-0.657-11.769-0.892c-3.994-0.239-7.993-0.443-11.992-0.527c-0.478-0.01-0.956-0.012-1.434-0.018v11.293
	c1.359-0.023,2.719-0.053,4.078-0.07c2.668-0.032,5.343,0.03,8.005,0.197c3.299,0.206,6.592,0.537,9.881,0.866
	c2.577,0.258,5.155,0.532,7.715,0.917c2.841,0.428,5.694,0.858,8.485,1.521c6.619,1.575,13.206,3.282,19.803,4.948
	c2.416,0.61,4.822,1.257,7.233,1.89c0.074,0.02,0.14,0.068,0.211,0.103c-0.008,0.039-0.016,0.079-0.024,0.119
	c-1.045-0.146-2.091-0.292-3.133-0.441c-2.449-0.345-4.899-0.695-7.35-1.034c-2.07-0.287-4.139-0.581-6.213-0.836
	c-1.814-0.223-3.635-0.391-5.452-0.592c-1.964-0.218-3.926-0.464-5.892-0.662c-2.148-0.216-4.3-0.404-6.452-0.581
	c-2.888-0.237-5.777-0.458-8.666-0.674c-1.182-0.088-2.365-0.164-3.549-0.213c-3.2-0.131-6.399-0.282-9.6-0.36
	c-3.027-0.074-6.054-0.147-9.081-0.209v24.98c0.306-0.009,0.612-0.017,0.919-0.027c3.488-0.111,6.973-0.409,10.452-0.702
	c2.645-0.222,5.28-0.565,7.919-0.858c2.699-0.3,5.406-0.547,8.095-0.922c3.701-0.517,7.387-1.145,11.085-1.694
	c1.283-0.191,2.581-0.274,3.869-0.427c2.481-0.296,4.967-0.565,7.44-0.923c2.44-0.353,4.883-0.728,7.297-1.226
	c3.827-0.788,7.644-1.635,11.441-2.558c1.939-0.471,3.831-1.139,5.729-1.765c0.458-0.151,0.585-0.096,0.567,0.374
	c-0.112,2.994-0.177,5.99-0.336,8.981c-0.129,2.416-0.306,4.833-0.576,7.238c-0.293,2.604-0.622,5.211-1.107,7.785
	c-0.733,3.892-1.503,7.784-2.459,11.626c-2.153,8.643-5.237,16.935-9.555,24.76c-2.481,4.495-5.324,8.731-8.645,12.632
	c-4.889,5.741-10.597,10.522-17.194,14.206c-5.374,3-11.091,5.132-17.082,6.487c-3.907,0.884-7.856,1.587-11.879,1.674
	c-1.991,0.044-3.985,0.111-5.978,0.151v6.575c0.193,0,0.386,0.007,0.58,0.006c3.366-0.014,6.754-0.26,10.091-0.706
	c4.048-0.542,8.116-1.164,12.065-2.18c6.462-1.662,12.651-4.108,18.427-7.521c4.654-2.75,8.989-5.925,12.896-9.658
	c1.839-1.757,3.599-3.606,5.314-5.485c0.724-0.793,1.459-0.258,2.129-0.19c2.547,0.26,5.081,0.645,7.615,1.017
	c2.268,0.333,4.538,0.668,6.792,1.08c3.645,0.666,7.298,1.31,10.911,2.119c4.525,1.013,9.036,2.109,13.516,3.306
	c5.4,1.441,10.66,3.314,15.749,5.64c2.959,1.353,5.757,2.995,8.234,5.104c1.101,0.938,2.17,1.972,2.571,3.504
	c0.265,1.015,0.041,1.829-0.504,2.666c-1.483,2.277-3.657,3.756-5.916,5.11c-4.075,2.442-8.462,4.204-12.933,5.776
	c-5.706,2.007-11.553,3.508-17.44,4.841c-4.465,1.011-8.965,1.886-13.474,2.684c-3.704,0.656-7.443,1.12-11.17,1.651
	c-2.972,0.423-5.944,0.856-8.924,1.213c-2.519,0.303-5.049,0.501-7.575,0.749c-2.232,0.219-4.461,0.459-6.695,0.657
	c-1.827,0.162-3.658,0.288-5.489,0.407c-3.665,0.239-7.331,0.481-10.999,0.685c-2.874,0.159-5.749,0.314-8.626,0.378
	c-5.641,0.126-11.283,0.188-16.924,0.276c0-0.032,0-0.063,0-0.095c-0.074,0-0.149,0-0.223,0v9.857
	c5.346-0.059,10.692-0.129,16.039-0.201c2.431-0.033,4.862-0.129,7.291-0.258c3.609-0.19,7.214-0.435,10.82-0.654
	c2.128-0.128,4.261-0.205,6.385-0.386c3.649-0.313,7.294-0.681,10.939-1.041c2.967-0.293,5.94-0.545,8.896-0.93
	c4.498-0.586,8.995-1.21,13.473-1.931c4.783-0.77,9.584-1.503,14.308-2.56c6.065-1.358,12.091-2.914,18.078-4.587
	c6.327-1.767,12.421-4.185,18.177-7.389c3.74-2.081,7.205-4.507,9.779-8.018C337.836,267.799,338.679,264.195,337.734,260.207z
	 M256.08,254.83c-0.528-0.512-1.199-0.374-1.791,0.029c-0.902,0.613-1.782,1.257-2.703,1.838
	c-4.125,2.609-8.432,4.912-13.014,6.571c-5.853,2.119-11.948,3.373-18.145,3.96c-4.096,0.388-8.215,0.599-12.33,0.716
	c-2.28,0.065-4.565,0.025-6.847-0.057v5.949c0.071,0.002,0.137,0.003,0.208,0.005c3.732-0.341,8.706-0.587,13.61-1.303
	c4.318-0.631,8.582-1.697,12.828-2.737c5.349-1.31,10.451-3.368,15.546-5.435c4.484-1.819,8.589-4.277,12.427-7.196
	c0.327-0.249,0.687-0.678,0.709-1.042C256.605,255.698,256.39,255.131,256.08,254.83z
	 M278.321,295.196c-0.465-0.807-1.252-0.939-2.087-0.842c-0.404,0.047-0.798,0.188-1.195,0.292
	c-5.247,1.38-10.472,2.844-15.745,4.113c-3.395,0.816-6.853,1.372-10.292,2.003c-2.172,0.398-4.352,0.76-6.539,1.063
	c-2.541,0.351-5.091,0.625-7.639,0.922c-3.046,0.355-6.088,0.771-9.143,1.031c-3.659,0.311-7.326,0.559-10.995,0.702
	c-4.477,0.176-8.958,0.326-13.438,0.349v11.619c1.226,0.035,2.501,0.072,3.852,0.115c4.108-0.226,9.495-0.477,14.876-0.834
	c3.092-0.206,6.181-0.511,9.255-0.906c2.974-0.383,5.959-0.79,8.879-1.449c5.259-1.188,10.522-2.4,15.693-3.916
	c6.413-1.88,12.608-4.4,18.44-7.693c2.017-1.138,3.844-2.631,5.682-4.06C278.706,297.1,278.783,295.994,278.321,295.196z"/>
<path style="fill:#0000FF;" d="M177.904,131.674c1.983-1.589,4.006-3.13,5.938-4.778c3.053-2.604,5.938-5.373,7.827-8.995
	c1.981-3.795,1.468-7.624-1.394-10.826c-1.636-1.83-3.32-3.63-4.808-5.576c-1.261-1.649-2.147-3.515-2.149-5.706
	c-0.001-1.781,0.746-3.138,2.079-4.22c2.054-1.666,4.543-2.251,7.058-2.705c1.337-0.242,2.701-0.349,4.058-0.453
	c0.536-0.041,1.085,0.092,1.629,0.145c0.019,0.107,0.039,0.214,0.058,0.321c-0.575,0.233-1.141,0.491-1.727,0.693
	c-1.567,0.54-3.157,1.012-4.71,1.589c-4.165,1.547-4.573,4.245-2.18,7.661c1.481,2.115,3.387,3.939,5.134,5.863
	c1.264,1.392,2.394,2.858,3.105,4.62c1.272,3.147,0.681,6.079-0.987,8.894c-1.821,3.074-4.434,5.374-7.286,7.44
	c-3.154,2.286-6.541,4.168-10.075,5.792c-0.48,0.221-1.009,0.337-1.516,0.501C177.94,131.849,177.922,131.762,177.904,131.674z
	 M198.75,289.179c-4.731,0.008-9.463,0.028-14.194-0.019c-3.709-0.038-7.418-0.177-11.124-0.346
	c-4.262-0.196-8.522-0.45-12.78-0.728c-2.805-0.184-5.608-0.421-8.405-0.695c-3.229-0.315-6.451-0.689-9.675-1.052
	c-3.101-0.35-6.205-0.681-9.299-1.091c-2.683-0.356-5.356-0.796-8.028-1.228c-3.22-0.52-6.443-1.018-9.648-1.618
	c-6.206-1.161-12.367-2.523-18.446-4.25c-5.913-1.68-11.736-3.608-17.273-6.293c-3.298-1.599-6.523-3.391-8.876-6.307
	c-1.62-2.006-1.627-3.171-0.011-5.212c1.853-2.341,4.328-3.895,6.919-5.28c7.041-3.766,14.565-6.216,22.282-8.128
	c3.386-0.839,6.767-1.711,10.178-2.435c3.304-0.701,6.639-1.261,9.97-1.828c3.655-0.623,7.32-1.187,10.982-1.769
	c0.57-0.09,1.028,0.026,1.504,0.467c5.179,4.797,10.865,8.896,17.023,12.362c6.098,3.432,12.504,6.142,19.207,8.084
	c3.913,1.133,7.923,1.968,11.927,2.738c2.828,0.545,5.712,0.878,8.587,1.083c3.054,0.219,6.118,0.405,9.18,0.478v-6.521
	c-1.202,0.005-2.403-0.002-3.602-0.044c-3.173-0.11-6.346-0.563-9.494-1.025c-2.84-0.417-5.68-0.932-8.465-1.623
	c-5.86-1.453-11.507-3.55-16.903-6.259c-7.987-4.009-15.127-9.208-21.254-15.723c-4.267-4.536-7.885-9.57-10.893-15.036
	c-2.532-4.601-4.595-9.41-6.103-14.425c-1.071-3.559-1.932-7.197-2.609-10.852c-0.633-3.413-0.974-6.887-1.302-10.347
	c-0.263-2.765-0.312-5.552-0.447-8.166c0.158-3.486,0.293-6.801,0.47-10.114c0.062-1.181,0.27-2.353,0.321-3.534
	c0.028-0.656,0.284-0.656,0.767-0.485c4.34,1.532,8.725,2.922,13.028,4.57c5.684,2.176,11.579,3.691,17.559,4.828
	c3.782,0.719,7.578,1.394,11.388,1.938c3.003,0.428,6.033,0.721,9.062,0.905c5.382,0.326,10.769,0.647,16.158,0.738
	c4.105,0.069,8.214,0,12.32-0.112v-25.092c-2.074-0.037-4.147-0.077-6.221-0.095c-3.65-0.032-7.302,0.069-10.95,0.191
	c-3.485,0.115-6.969,0.302-10.45,0.516c-3.216,0.197-6.432,0.415-9.639,0.726c-3.553,0.345-7.099,0.763-10.638,1.228
	c-4.058,0.533-8.117,1.076-12.153,1.748c-4.709,0.783-9.394,1.711-14.343,2.622c1.656-0.493,3.065-0.958,4.497-1.334
	c5.22-1.37,10.423-2.813,15.679-4.03c4.338-1.004,8.735-1.762,13.118-2.566c3.206-0.588,6.423-1.121,9.648-1.587
	c2.619-0.377,5.257-0.633,7.89-0.915c2.874-0.307,5.75-0.592,8.628-0.866c1.032-0.098,2.069-0.175,3.105-0.198
	c3.943-0.088,7.886-0.174,11.829-0.25v-11.359c-2.994-0.01-5.988,0.021-8.982,0.021c-0.001-0.087-0.001-0.174-0.002-0.261
	c-5.159,0.145-10.319,0.288-15.478,0.435c-1.899,0.054-3.796,0.109-5.694,0.185c-1.214,0.048-2.427,0.11-3.637,0.207
	c-2.654,0.212-5.307,0.449-7.96,0.677c-2.147,0.184-4.301,0.316-6.44,0.565c-3.106,0.361-6.21,0.761-9.303,1.23
	c-3.341,0.505-6.695,0.987-9.995,1.701c-3.95,0.855-7.885,1.823-11.761,2.965c-4.1,1.208-8.073,2.789-11.497,5.46
	c-1.311,1.022-2.433,2.267-2.668,3.952c-0.306,2.192-0.438,4.412-0.555,6.625c-0.177,3.345-0.36,6.694-0.382,10.042
	c-0.025,3.826-0.011,7.663,0.237,11.478c0.212,3.262,0.66,6.521,1.218,9.745c0.665,3.843,1.382,7.694,2.39,11.457
	c1.676,6.26,4.033,12.283,7.019,18.047c2.423,4.679,5.223,9.12,8.452,13.286c0.351,0.453,0.454,0.666-0.247,0.774
	c-2.619,0.405-5.248,0.769-7.846,1.285c-4.833,0.958-9.679,1.885-14.462,3.056c-6.066,1.485-12.063,3.233-17.929,5.417
	c-3.612,1.345-7.184,2.744-10.543,4.647c-3.653,2.069-7.063,4.448-9.56,7.903c-2.681,3.708-3.939,7.752-2.557,12.302
	c0.873,2.872,2.667,5.156,4.785,7.227c3.215,3.142,7.08,5.276,11.093,7.163c7.202,3.388,14.746,5.804,22.469,7.665
	c3.794,0.914,7.619,1.714,11.44,2.513c3.278,0.685,6.562,1.351,9.86,1.924c2.895,0.502,5.813,0.872,8.723,1.287
	c2.534,0.361,5.065,0.738,7.606,1.044c2.43,0.292,4.871,0.497,7.306,0.747c3.379,0.346,6.754,0.734,10.137,1.036
	c3.182,0.284,6.37,0.515,9.558,0.707c4.526,0.273,9.053,0.536,13.583,0.718c4.3,0.174,8.605,0.343,12.907,0.329
	c2.905-0.01,5.81-0.044,8.715-0.072V289.179z
	 M198.75,267.784c-0.059-0.003-0.118-0.005-0.177-0.008c-3.575-0.167-7.149-0.403-10.711-0.748
	c-3.046-0.295-6.078-0.747-9.106-1.202c-3.752-0.563-7.514-1.091-11.232-1.834c-4.687-0.938-9.36-1.971-13.989-3.158
	c-5.023-1.29-9.99-2.801-14.979-4.223c-0.765-0.218-1.474,0.134-1.766,0.912c-0.289,0.773-0.038,1.378,0.756,1.714
	c4.141,1.753,8.262,3.557,12.434,5.231c7.317,2.936,14.899,5.019,22.594,6.674c5.448,1.172,10.975,1.927,16.532,2.323
	c2.985,0.212,5.995,0.238,9.643,0.313V267.784z
	 M198.75,304.831c-5.725-0.027-11.45-0.19-17.175-0.337c-2.311-0.059-4.621-0.232-6.928-0.393
	c-2.833-0.198-5.664-0.44-8.495-0.658c-1.769-0.135-3.545-0.218-5.31-0.399c-2.996-0.308-5.987-0.677-8.98-1.018
	c-3.228-0.367-6.462-0.675-9.68-1.111c-3.406-0.462-6.799-1.024-10.192-1.58c-3.541-0.579-7.086-1.139-10.607-1.822
	c-4.203-0.816-8.385-1.752-12.574-2.641c-1.048-0.223-2.01,0.236-2.276,1.1c-0.351,1.142,0.094,2.083,1.216,2.471
	c2.44,0.846,4.865,1.748,7.339,2.486c6.804,2.031,13.604,4.082,20.455,5.947c4.888,1.331,9.829,2.487,14.79,3.512
	c5.551,1.146,11.139,2.121,16.732,3.049c4.158,0.69,8.339,1.262,12.526,1.741c3.584,0.411,7.186,0.702,10.789,0.891
	c2.692,0.141,5.393,0.224,8.37,0.308V304.831z"/>
</svg>
