<svg width="400" height="400" viewBox="0 0 400 400" fill="none" xmlns="http://www.w3.org/2000/svg">
<path style="fill-rule:evenodd;clip-rule:evenodd;fill:#FF0000;" d="M305.131,276.855c-7.494-5.139-19.856-0.339-27.785,0.972v0
	c-0.66-5.428-1.127-11.046-1.556-16.702c0.314-1.288-1.451-0.501-1.165-1.754c0.296-27.256,2.881-54.78,5.632-81.613v0
	c1.99-19.397,3.962-39.299,7.967-57.519v0c1.228-5.598,4.843-12.522,3.692-17.886v0c-1.165-5.451-11.134-8.274-16.9-10.111v0
	C254.473,85.752,233.047,81.266,207.968,80v0H188.93c-20.613,1.625-40.79,2.694-58.107,8.364c-4.493,1.471-12.537,3.96-13.023,8.94
	c-0.212,2.182,1.727,5.58,2.527,8.16c5.894,19.013,7.679,42.697,8.549,65.882c1.076,28.785,0.296,55.874-2.137,82.196v0
	c0.051,1.088-1.959,0.116-2.137,0.98c-0.916,6.329-1.792,12.709-2.919,18.84v0c-0.985,0.101-2.337-0.769-3.686-1.357
	c-3.506-1.529-9.01-3.086-14.385-2.529v0c-6.752,0.704-13.273,5.466-14.772,11.853v0v4.089c1.235,5.549,4.673,9.618,8.551,12.825v0
	c10.841,8.952,25.56,13.304,43.145,14.962v0c20.914,1.97,44.456,1.707,64.512-0.392v0c2.977-0.312,6.387-1.183,8.755-0.972v0
	c1.197,0.109,2.668,1.068,4.078,1.554c10.072,3.514,21.213,5.812,33.616,6.605v0h13.6c22.193-2.028,40.899-7.545,46.062-26.621v0
	v-5.242C310.002,283.152,308.594,279.242,305.131,276.855z M286.67,108.765c-7.212,47.471-16.883,95.18-16.326,150.414v0
	c-1.618,0.051-2.195-0.397-4.082-0.385c3.871-51.266,9.406-100.849,15.742-149.639C282.996,108.573,285.453,107.882,286.67,108.765z
	 M124.985,98.853L124.985,98.853c-0.748-1.063-1.709-2.017-1.547-3.111v0c0.441-3.013,9.041-4.562,12.818-5.438v0
	c14.968-3.47,31.236-5.223,48.393-6.03c34.973-1.618,65.684,4.16,91.532,12.058v0c-25.425-1.805-46.768-10.106-76.57-8.749
	c-10.77,0.486-22.2,1.21-23.122,11.271c-0.269,2.937,0.327,6.117,0.575,9.33c0.731,9.119,0.397,19.281,0.397,28.767v0
	c0,38.811,0.461,78.533-3.699,112.707c-4.492,0.044-9.195-0.129-13.4,0.192c2.777-36.466,2.15-78.952,1.939-118.73v0
	c-0.051-9.446-0.007-19.59-1.747-28.567v0c-0.461-2.362-2.247-6.354-1.946-8.159c0.635-3.828,6.873-4.109,10.496-5.44
	c-4.468,0.754-16.722,0.863-17.689,6.215c-0.428,2.4,1.337,4.773,1.747,6.795c1.114,5.44,0.941,11.686,1.364,17.886
	c2.764,40.529,4.094,89.036,1.555,130.199c-7.506,0.071-14.316,0.838-21.182,1.549c3.392-36.6,4.972-79.886,0.192-116.791v0
	C133.395,121.692,131.218,107.704,124.985,98.853z M124.795,284.828c1.689-8.927,3.429-17.815,5.054-26.813v0
	c-0.664-0.461-2.674,0.423-3.302,0v0v-2.144c46.115-3.98,101.432-3.167,142.249,5.255c1.458,0.294,4.274,0.274,4.664,2.329
	c-1.221,0.856-3.673-0.321-5.446-0.2v0c-0.896,5.39-0.172,11.949,0.782,16.722v0c-1.683,0.647-3.405,1.255-4.865,2.126
	c-0.722-6.003-0.352-13.113-0.773-19.43c-31.992-3.826-65.96-6.182-101.829-6.213c-2.881,11.557-4.564,24.324-7.584,35.753v0
	c-2.975-0.127-5.413-0.8-8.159-1.165c2.22-11.641,5.146-22.577,7.385-34.198c-1.56-0.59-3.36,0.256-5.246,0
	c-2.139,11.129-4.053,22.514-6.605,33.233v0C134.611,289.392,129.633,287.184,124.795,284.828L124.795,284.828z M220.601,310.676
	c1.44-0.357,3.461-0.16,4.466-0.967c10.605,5.965,26.41,8.179,42.167,7.77C249.814,318.625,232.695,316.154,220.601,310.676z
	 M303.192,301.544c-0.16,0.268-0.377,0.889-0.78,0.775c1.972-4.531,4-15.238-0.967-18.264v0c-1.311-0.8-4.37-1.491-7-1.556
	c-9.446-0.192-17.638,2.463-26.43,4.665v0c-24.689,6.162-47.497,13.886-75.201,17.484c-17.988,2.342-38.031,4.531-57.135,1.562
	c-8.595-1.339-17.355-3.283-25.066-5.838c-7.193-2.367-18.2-6.502-19.243-15.345c-1.038-8.742,6.438-13.727,14.188-13.805v0
	c4.493-0.038,9.279,1.293,12.825,2.911c1.005,0.475,2.355,1.134,2.917,2.144v0c-6.502-3.583-22.104-6.623-25.072,2.139v0
	c-0.756,2.238-0.435,5.732,1.165,7.575v0c2.066,2.374,9.15,3.156,13.605,3.501v0c2.79,0.218,5.631,0.326,8.357,0.2v0
	c2.643-0.129,5.273-0.929,7.577-0.782c4.461,0.314,7.98,3.36,12.433,3.693v0c-6.95,3.084-14.2,5.881-23.312,6.802v0
	c2.041,1.195,4.78,1.696,6.993,2.719c6.777-1.536,13.023-2.803,19.238-5.056c1.805-0.646,3.84-2.253,5.44-2.527
	c1.925-0.321,4.185,0.825,6.021,0.588c0.276,0.551-0.557,1.126-0.967,1.555v0c-3.398,3.468-7.833,7.149-13.023,8.934
	c14.111,2.638,30.354,0.448,44.311-1.747c13.611-2.124,27.19-5.114,40.611-8.165c12.934-2.931,25.995-6.068,38.672-10.106
	c5.792-1.83,12.159-4,19.046-5.433c10.099-2.119,24.676-3.129,24.876,8.742C307.346,293.321,305.042,298.42,303.192,301.544z"/>
</svg>
