<svg width="400" height="400" viewBox="0 0 400 400" fill="none" xmlns="http://www.w3.org/2000/svg">
<path fill-rule="evenodd" clip-rule="evenodd" d="M180.18 80.5514C179.945 80.7852 177.808 81.2003 175.43 81.4716C153.22 84.0113 148.399 84.6954 140.736 86.3909C118.581 91.2926 115.634 93.7119 118.949 104.282C123.438 118.595 126.627 140.369 127.753 164.395C129.479 201.202 128 251.973 125.136 254.235C124.513 254.726 123.328 259.51 122.504 264.865C121.68 270.219 120.929 274.599 120.837 274.599C120.744 274.599 118.546 273.54 115.95 272.244C100.376 264.471 82.6963 275.851 89.497 289.271C95.1365 300.398 109.594 307.788 133.794 311.912C145.29 313.87 197.887 313.951 207.835 312.024C211.897 311.238 213.156 311.381 218.249 313.203C225.328 315.737 233.526 317.654 240.765 318.47C243.758 318.808 246.356 319.325 246.539 319.621C246.913 320.226 265.849 320.064 267.862 319.439C268.579 319.216 272.292 318.459 276.114 317.756C290.803 315.051 302.863 307.743 307.395 298.799C308.577 296.466 309.928 294.558 310.397 294.558C310.867 294.558 311.25 292.801 311.25 290.654C311.25 288.506 310.868 286.748 310.4 286.748C309.933 286.748 308.8 285.284 307.882 283.494C303.821 275.575 297.667 273.859 283.776 276.773C275.705 278.467 275.5 278.411 275.131 274.387C274.988 272.834 274.407 267.886 273.84 263.393C272.268 250.95 273.264 231.359 277.859 184.353C280.892 153.328 284.392 129.261 287.85 115.654C291.029 103.152 291.028 102.654 287.842 99.4672C284.022 95.6482 265.002 89.8555 237.491 84.133C224.825 81.4985 181.914 78.8161 180.18 80.5514ZM225.777 85.9617C242.63 87.7765 270.494 93.7446 272.635 95.999C273.837 97.2654 268.483 96.6269 247.036 92.9472C217.711 87.9156 206.839 87.1369 191.066 88.9388C177.279 90.5138 175.275 92.967 176.226 107.106C176.794 115.543 176.848 199.817 176.29 206.481C176.131 208.39 175.942 213.075 175.872 216.894C175.753 223.383 173.422 249.579 172.921 250.08C172.662 250.339 163.504 250.582 160.355 250.414L158.28 250.302L158.841 239.239C161.638 184.066 161.229 112.291 158.047 100.012C156.712 94.8578 156.722 94.7233 158.625 92.6981C160.994 90.1771 159.932 90.0941 154.596 92.3812C150.704 94.0498 150.546 94.2533 151.058 96.938C153.424 109.323 155.353 139.515 156.338 179.581C156.491 185.785 156.683 191.056 156.765 191.295C157.56 193.619 156.344 246.198 155.419 249.496C155.173 250.369 154.027 250.866 152.225 250.879C150.678 250.889 145.635 251.206 141.018 251.583L132.621 252.267L132.923 249.766C139.958 191.585 134.321 105.909 122.996 98.9094C119.647 96.8398 123.47 93.0161 130.919 90.9862C154.517 84.5551 193.519 82.4901 225.777 85.9617ZM285.093 108.763C285.751 109.181 286.054 110.227 285.778 111.137C285.507 112.031 285.076 113.935 284.818 115.366C282.249 129.684 280.64 139.241 280.435 141.4C280.298 142.831 279.772 146.346 279.265 149.209C277.335 160.118 272.897 195.014 271.818 207.783C271.556 210.885 271.114 215.766 270.837 218.63C269.875 228.551 269.576 235.172 269.571 246.724C269.564 259.865 269.587 259.771 266.497 259.18C264.305 258.761 264.241 258.58 264.753 254.307C265.045 251.866 265.659 244.988 266.117 239.022C267.006 227.422 267.202 225.449 271.75 182.184C271.9 180.752 272.287 177.042 272.61 173.94C272.932 170.838 273.943 162.247 274.856 154.85C276.85 138.688 278.119 128.017 278.675 122.742C279.829 111.788 280.283 109.659 281.632 108.871C283.388 107.845 283.633 107.837 285.093 108.763ZM221.004 254.559C230.365 255.398 243.129 256.744 250.507 257.67C262.036 259.115 272.202 261.646 272.202 263.071C272.202 264.048 271.507 264.281 269.489 263.986L266.776 263.587L267.185 272.092L267.594 280.598L264.996 281.504C263.566 282.002 262.26 282.409 262.093 282.409C261.926 282.409 261.788 278.3 261.788 273.277C261.788 262.67 262.099 263.017 251.767 262.078C248.45 261.777 242.025 261.143 237.491 260.671C221.208 258.972 189.919 257.25 175.287 257.248C158.409 257.245 160.039 256.44 158.585 265.488C154.704 289.64 153.468 292.995 148.71 292.28C143.726 291.53 143.624 291.33 145.017 284.977C151.602 254.942 151.313 257.04 148.826 257.394C147.259 257.618 146.702 258.419 146.213 261.15C140.467 293.275 141.253 291.833 131.295 288.519C122.49 285.588 122.817 286.441 125.186 272.605C126.314 266.019 127.438 260.303 127.685 259.904C127.932 259.505 127.358 258.974 126.408 258.726C124.069 258.115 124.221 255.658 126.635 255.057C134.408 253.124 201.086 252.772 221.004 254.559ZM112.489 272.309C114.612 272.944 116.52 273.974 116.728 274.597C117.001 275.42 116.538 275.566 115.037 275.131C103.46 271.776 96.7092 273.223 95.568 279.305C94.2128 286.532 99.3554 288.907 116.439 288.94C127.666 288.962 138.157 291.013 137.478 293.052C137.337 293.474 136.999 293.694 136.726 293.539C136.454 293.383 135.682 293.694 135.012 294.228C133.664 295.304 126.901 297.646 126.768 297.084C126.723 296.887 126.137 297.165 125.467 297.699C124.797 298.233 122.686 298.961 120.778 299.316C117.511 299.923 117.432 300.008 119.417 300.761C121.694 301.624 129.549 300.102 139.001 296.966C144.821 295.035 153.319 293.977 153.319 295.184C153.319 296.357 149.067 300.131 144.573 302.946C142.389 304.315 140.75 305.878 140.931 306.422C142.041 309.752 110.879 302.501 99.7623 296.842C80.6687 287.124 91.5947 266.062 112.489 272.309ZM301.012 279.947C305.979 281.861 307.761 289.635 304.837 296.635C303.07 300.864 301.417 300.784 302.298 296.511C305.375 281.611 296.472 279.926 262.223 288.93C251.722 291.69 240.202 294.683 236.623 295.581C233.044 296.479 229.334 297.567 228.38 297.999C226.185 298.993 207.033 302.866 198.442 304.053C174.94 307.301 169.661 307.815 158.32 307.957C150.356 308.057 153.692 306.277 162.572 305.688C167.424 305.366 172.89 304.875 174.722 304.597C183.06 303.33 207.591 298.633 216.231 296.649C226.972 294.182 236.413 291.967 238.358 291.458C239.075 291.272 242.198 290.547 245.301 289.851C248.403 289.153 252.601 287.991 254.629 287.27C256.658 286.548 258.317 286.15 258.317 286.384C258.317 286.617 259.138 286.371 260.14 285.834C262.561 284.538 275.346 280.856 282.518 279.388C288.534 278.158 297.036 278.414 301.012 279.947ZM225.82 310.099C226.274 310.533 229.165 311.653 232.247 312.589C237.546 314.197 240.233 316.252 237.038 316.252C232.145 316.252 220.136 312.17 220.136 310.506C220.136 309.151 224.502 308.838 225.82 310.099Z" fill="#FF0000"/>
</svg>
