<svg width="400" height="400" viewBox="0 0 400 400" fill="none" xmlns="http://www.w3.org/2000/svg">
<path fill-rule="evenodd" clip-rule="evenodd" d="M202.654 97.236C201.271 101.603 202.483 111.198 204.279 110.089C204.635 109.868 209.055 110.023 214.1 110.433C219.144 110.843 228.024 111.364 233.833 111.592C241.287 111.883 245.734 112.433 248.951 113.46C251.458 114.261 254.779 115.146 256.332 115.425C257.886 115.705 259.494 116.174 259.905 116.468C260.316 116.763 262.335 117.412 264.391 117.913C271.677 119.689 274.163 120.427 278.79 122.185C281.365 123.163 283.887 123.975 284.397 123.989C284.907 124.003 286.67 124.664 288.315 125.459C289.959 126.252 291.666 126.914 292.109 126.928C292.551 126.943 293.703 127.795 294.669 128.822C295.634 129.851 296.871 130.692 297.416 130.692C297.961 130.692 298.407 131.001 298.407 131.38C298.407 131.758 299.364 132.279 300.534 132.536C306.592 133.865 325.701 151.165 329.349 158.623C334.135 168.404 333.105 181.303 327.338 183.804C326.434 184.196 325.19 184.814 324.573 185.179C323.957 185.543 322.443 186.258 321.21 186.768C316.402 188.75 314.313 190.218 309.83 194.76C307.272 197.351 304.706 199.472 304.128 199.472C303.549 199.472 302.69 199.937 302.219 200.505C301.4 201.491 295.933 202.396 288.688 202.745C285.495 202.899 284.312 203.203 280.838 204.766C278.27 205.921 269.783 207.839 266.127 208.091C264.204 208.224 261.959 208.692 261.137 209.132C260.315 209.572 254.655 210.297 248.559 210.743C242.463 211.188 236.299 211.846 234.86 212.204C233.421 212.561 226.876 213.209 220.315 213.643C213.754 214.077 208.075 214.744 207.693 215.126C206.675 216.144 207.688 218.158 209.231 218.188C209.963 218.202 215.945 218.388 222.524 218.603C229.103 218.817 236.168 219.033 238.224 219.082C240.28 219.132 243.981 218.761 246.448 218.259C248.915 217.756 253.793 217.156 257.288 216.924C260.783 216.693 263.98 216.25 264.391 215.941C265.67 214.98 270.861 214.226 277.244 214.075C280.921 213.989 283.831 213.548 284.523 212.973C285.29 212.337 286.62 212.188 288.491 212.53C290.038 212.812 292.819 213.15 294.669 213.278C297.991 213.51 298.032 213.546 297.955 216.139C297.819 220.654 297.147 221.609 295.519 219.598C294.303 218.097 293.877 217.992 291.974 218.731C290.783 219.191 286.681 219.794 282.855 220.069C276.406 220.534 275.792 220.719 274.379 222.628C272.175 225.611 266.514 226.167 232.617 226.733C211.69 227.084 209.587 227.2 208.195 228.085C207.716 228.391 206.426 228.299 205.329 227.882C202.011 226.62 201.965 226.948 201.965 251.849V275.729H207.946C217.415 275.729 216.163 277.785 205.329 280.026L202.338 280.645V292.103V303.56L209.814 303.55C223.957 303.53 240.72 301.73 243.482 299.934C244.318 299.39 247.414 298.603 250.361 298.185C253.308 297.767 256.829 296.804 258.186 296.044C259.543 295.285 261.493 294.726 262.52 294.803C263.631 294.887 266.66 293.531 269.997 291.455C273.081 289.536 278.801 286.16 282.707 283.952C293.879 277.639 300.607 272.823 306.187 267.149C312.307 260.926 313.359 259.722 313.359 258.945C313.359 258.623 314.61 256.655 316.139 254.573C320.068 249.221 328.573 232.809 329.555 228.685C329.807 227.626 330.258 226.423 330.558 226.012C330.858 225.601 331.678 223.414 332.378 221.153C333.079 218.892 333.95 216.368 334.314 215.546C337.063 209.343 341.427 174.812 339.541 174.183C339.105 174.038 338.777 171.31 338.774 167.823C338.772 164.465 338.396 160.372 337.94 158.727C337.483 157.082 337.093 155.568 337.073 155.363C337.054 155.157 335.827 152.971 334.346 150.504C332.865 148.037 331.176 145.083 330.593 143.94C329.513 141.826 324.671 137.021 318.592 132.03C306.892 122.422 298.756 116.487 297.288 116.487C296.764 116.487 295.395 115.999 294.244 115.403C293.095 114.806 290.361 114.094 288.169 113.82C285.976 113.546 284.018 113.056 283.818 112.732C283.617 112.407 281.687 111.905 279.529 111.615C275.315 111.05 266.265 108.279 261.4 106.064C254.589 102.963 250.707 102.151 239.346 101.447C220.873 100.302 208.202 98.8177 207.523 97.7186C207.168 97.1434 202.819 96.7122 202.654 97.236ZM212.665 125.804C212.803 126.23 214.911 126.916 217.347 127.327C219.784 127.738 222.113 128.286 222.524 128.543C223.735 129.302 232.911 130.072 234.317 129.532C236.378 128.741 235.86 126.96 233.552 126.903C232.421 126.876 227.202 126.443 221.955 125.941C215.481 125.322 212.494 125.277 212.665 125.804ZM202.724 128.062C201.383 129.677 203.878 130.418 209.299 130.016C211.162 129.878 209.344 128.449 207.304 128.449C206.177 128.449 204.903 128.098 204.475 127.67C203.934 127.129 203.398 127.249 202.724 128.062ZM204.39 133.869C204.56 134.383 207.027 135.308 209.873 135.925C212.72 136.542 215.391 137.27 215.81 137.544C216.23 137.82 219.09 138.255 222.165 138.514C225.241 138.773 228.887 139.159 230.266 139.372C232.036 139.646 232.685 139.492 232.471 138.85C232.039 137.554 226.018 136.13 216.918 135.172C212.6 134.718 208.747 134.028 208.357 133.64C207.286 132.576 204.027 132.764 204.39 133.869ZM254.794 133.434C254.129 134.099 256.501 136.673 257.778 136.673C258.331 136.673 258.783 136.971 258.783 137.337C258.783 137.703 260.045 138.232 261.587 138.514C263.129 138.796 265.064 139.454 265.886 139.976C266.708 140.499 268.775 141.11 270.477 141.334C272.181 141.559 274.585 142.489 275.82 143.403C277.066 144.323 279.668 145.243 281.665 145.468C284.413 145.778 285.931 146.491 288.088 148.487C289.642 149.925 292.094 151.904 293.539 152.885C295.347 154.114 296.164 155.242 296.164 156.511C296.164 158.874 297.496 159.228 284.414 153.395C282.859 152.701 281.418 152.099 281.211 152.055C281.006 152.011 280.441 151.723 279.955 151.414C279.036 150.83 277.942 151.844 278.688 152.589C278.922 152.824 280.923 153.901 283.136 154.983C287.634 157.184 290.905 160.921 289.533 162.294C288.918 162.908 288.113 162.695 286.48 161.489C285.261 160.586 283.598 159.849 282.786 159.849C281.974 159.849 280.362 159.457 279.205 158.977C278.047 158.498 276.932 158.047 276.726 157.978C276.521 157.907 275.848 157.659 275.231 157.426C274.614 157.192 271.082 156.1 267.381 155C263.68 153.9 260.147 152.837 259.531 152.637C258.914 152.439 258.241 152.269 258.036 152.261C257.83 152.253 257.291 151.938 256.839 151.563C255.589 150.525 249.065 149.788 249.065 150.683C249.065 151.79 256.053 154.615 258.792 154.615C260.956 154.615 275.434 161.588 278.221 163.974C278.838 164.501 280.605 165.454 282.146 166.09C283.689 166.727 284.95 167.579 284.95 167.983C284.95 170.131 277.266 169.755 271.867 167.344C270.222 166.609 268.036 165.758 267.007 165.454C265.979 165.149 264.732 164.574 264.237 164.178C263.741 163.782 263.006 163.661 262.606 163.908C262.206 164.156 261.666 164.017 261.408 163.599C261.15 163.181 260.181 162.84 259.256 162.84C258.331 162.84 256.921 162.345 256.123 161.741C254.189 160.279 249.065 160.222 249.065 161.664C249.065 163.553 253.521 166.441 260.652 169.173C261.886 169.646 264.409 171.02 266.259 172.226C268.11 173.43 270.766 174.756 272.16 175.171C275.073 176.037 276.439 177.756 275.715 179.644C275.071 181.32 268.398 180.646 263.29 178.39C261.428 177.568 259.232 176.598 258.41 176.235C252.078 173.439 247.99 173.89 248.599 177.316C248.86 178.794 248.61 180.196 247.919 181.112C247.315 181.91 246.817 183.424 246.811 184.476C246.782 189.959 247.3 189.763 233.091 189.665C218.905 189.567 216.335 189.235 215.145 187.344C213.091 184.083 224.315 183.072 234.267 185.622C239.378 186.932 240.261 186.584 241.115 182.923C241.835 179.832 239.766 178.554 237.675 180.798L236.056 182.535L234.524 180.39C230.623 174.93 230.294 174.805 221.131 175.256C216.552 175.481 212.132 175.969 211.31 176.339C210.487 176.71 208.197 177.103 206.222 177.215L202.628 177.418L202.368 193.305L202.107 209.191L205.587 209.193C211.497 209.197 229.17 207.622 230.748 206.951C231.57 206.601 235.894 205.934 240.357 205.469C244.82 205.003 249.026 204.328 249.703 203.968C250.38 203.608 253.552 202.905 256.752 202.406C259.951 201.905 262.732 201.231 262.932 200.907C263.131 200.585 265.224 199.938 267.581 199.471C269.939 199.004 272.934 198.137 274.237 197.545C275.541 196.952 277.65 196.259 278.925 196.004C280.2 195.75 281.424 195.248 281.646 194.89C281.866 194.532 282.585 194.238 283.239 194.238C285.086 194.238 293.907 189.875 297.759 187.056C299.665 185.66 301.947 184.52 302.829 184.52C303.712 184.52 304.643 183.978 304.897 183.315C305.151 182.653 306.265 181.727 307.371 181.259C309.734 180.259 314.855 175.904 314.855 174.894C314.855 174.293 316.089 171.555 318.686 166.401C321.043 161.721 313.733 149.383 308.601 149.382C306.794 149.382 300.722 147.197 294.774 144.41C292.272 143.237 290.109 142.697 289.012 142.973C286.994 143.479 277.649 141.083 273.132 138.899C271.448 138.085 269.745 137.421 269.348 137.421C268.951 137.421 268.515 137.168 268.378 136.858C267.671 135.264 255.925 132.304 254.794 133.434ZM202.266 142.948C201.394 145.218 202.308 149.737 203.69 150C206.331 150.5 207.571 149.538 206.216 148.041C203.612 145.164 205.636 144.842 216.206 146.457C221.737 147.302 227.648 148.177 229.342 148.4C233.337 148.928 234.495 147.392 230.582 146.755C229.029 146.503 226.985 145.982 226.041 145.597C225.096 145.211 222.468 144.897 220.203 144.897C215.057 144.897 205.567 143.488 204.619 142.584C203.601 141.611 202.726 141.747 202.266 142.948ZM253.012 143.656C253.17 144.129 254.953 144.918 256.975 145.41C258.998 145.903 261.989 146.643 263.622 147.055C266.713 147.835 267.777 147.606 266.584 146.421C265.423 145.267 252.685 142.673 253.012 143.656ZM202.712 155.447C202.712 156.146 205.495 156.619 213.086 157.206C216.119 157.442 218.979 157.88 219.441 158.18C222.024 159.86 235.911 161.172 236.749 159.816C237.908 157.94 235.386 157.021 227.552 156.465C223.142 156.151 218.524 155.769 217.291 155.613C212.369 154.997 202.712 154.887 202.712 155.447ZM202.471 163.329C201.838 163.964 201.82 167.157 202.432 170.222L202.899 172.558H208.738C211.949 172.558 215.524 172.182 216.682 171.722C217.839 171.262 221.927 170.931 225.768 170.984C234.134 171.101 234.669 170 227.165 168.111C224.407 167.417 222.15 166.997 222.15 167.178C222.15 167.36 221.73 167.161 221.216 166.738C220.702 166.316 218.599 165.728 216.544 165.432C214.488 165.135 212.418 164.586 211.947 164.212C211.475 163.837 209.96 163.599 208.582 163.684C207.204 163.768 205.38 163.609 204.527 163.33C203.675 163.051 202.75 163.051 202.471 163.329ZM321.583 208.444C321.583 209.218 321.285 210.035 320.92 210.26C320.556 210.486 320.036 211.852 319.764 213.298C319.285 215.847 315.259 224.091 312.639 227.882C311.928 228.909 310.258 231.938 308.926 234.61C307.594 237.283 305.271 240.766 303.764 242.35C301.191 245.055 282.024 262.505 279.832 264.139C278.005 265.501 271.194 271.514 266.511 275.899C261.704 280.401 259.531 281.28 259.531 278.719C259.531 276.7 256.334 276.722 252.519 278.766C249.464 280.404 247.569 280.252 247.569 278.369C247.569 276.867 247.26 276.899 240.539 279.092C237.39 280.121 234.219 280.962 233.491 280.962C232.764 280.962 231.787 281.343 231.322 281.808C230.451 282.679 228.13 282.215 228.133 281.173C228.136 280.018 235.464 275.674 248.495 269.102C255.788 265.424 263.863 260.768 266.438 258.756C269.013 256.743 272.094 254.484 273.287 253.734C277.316 251.201 288.017 240.322 290.404 236.331C293.047 231.912 294.03 231.49 295.281 234.237C297.57 239.261 301.715 235.03 303.276 226.077C304.961 216.414 307.379 213.018 307.379 220.314C307.379 228.248 310.91 225.853 315.403 214.87C318.612 207.029 321.583 203.939 321.583 208.444ZM277.453 254.898C275.673 256.186 273.456 258.144 272.528 259.248C271.6 260.351 269.468 261.707 267.792 262.26C264.542 263.332 262.207 265.262 264.159 265.262C267.384 265.262 281.96 255.445 281.96 253.273C281.96 252.049 280.815 252.461 277.453 254.898Z" fill="#FF0000"/>
<path fill-rule="evenodd" clip-rule="evenodd" d="M182.23 97.6713C182.019 98.0138 178.382 98.7381 174.15 99.2811C169.917 99.8251 166.117 100.506 165.706 100.795C165.295 101.084 162.292 101.74 159.033 102.251C155.774 102.763 152.578 103.442 151.931 103.761C150.851 104.293 141.736 107.155 135.427 108.943C131.709 109.998 125.598 112.024 123.839 112.786C123.017 113.143 120.998 113.777 119.354 114.195C117.709 114.613 115.03 115.636 113.401 116.469C111.772 117.302 109.69 117.983 108.773 117.983C107.857 117.983 106.927 118.273 106.708 118.627C106.488 118.982 104.702 119.684 102.739 120.188C85.5484 124.593 67.1229 143.702 62.0889 162.344C61.6275 164.055 60.9254 166.152 60.5294 167.003C58.9357 170.43 61.2568 205.165 63.2998 208.472C63.5335 208.85 64.2246 211.606 64.8341 214.595C65.4436 217.585 66.0319 220.421 66.1417 220.897C66.2505 221.372 67.5863 223.725 69.1105 226.126C70.6338 228.526 71.8799 230.912 71.8799 231.429C71.8799 231.945 72.2164 232.367 72.6274 232.367C73.0394 232.367 73.3759 232.81 73.3759 233.352C73.3759 235.03 77.7813 243.05 80.0117 245.431C81.1773 246.675 82.3147 248.224 82.5403 248.873C84.5551 254.683 96.9523 267.724 108.427 276.103C111.806 278.57 116.487 282.124 118.83 284C122.833 287.204 127.637 289.933 129.277 289.933C129.987 289.933 133.271 291.292 141.243 294.884C143.414 295.862 145.618 296.662 146.14 296.662C146.663 296.662 147.409 296.979 147.8 297.368C149.048 298.607 172.651 302.523 179.306 302.593C181.851 302.621 184.1 302.912 184.304 303.241C184.771 303.998 199.705 303.961 199.715 303.204C199.719 302.896 199.722 297.597 199.722 291.428V280.215H191.069C183.228 280.215 182.442 280.337 182.68 281.522C182.963 282.938 184.089 283.031 190.377 282.165C194.457 281.603 196.46 282.382 195.743 284.25C194.971 286.261 167.493 286.007 163.462 283.952C161.85 283.13 160.119 282.457 159.616 282.457C159.114 282.457 155.429 280.775 151.428 278.719C147.426 276.664 143.867 274.981 143.52 274.981C143.171 274.981 141.461 274.329 139.718 273.534C137.975 272.738 135.371 271.608 133.932 271.025C132.493 270.442 129.855 268.739 128.07 267.242C125.771 265.313 124.354 264.638 123.205 264.926C121.462 265.365 114.683 261.391 113.96 259.507C113.291 257.765 114.315 257.531 117.01 258.809C118.423 259.48 120.118 260.029 120.775 260.029C121.432 260.029 121.97 260.421 121.97 260.901C121.97 261.38 122.192 261.552 122.462 261.282C122.733 261.011 123.321 261.079 123.771 261.433C124.22 261.787 125.932 262.5 127.578 263.019C129.222 263.538 130.938 264.254 131.391 264.611C131.844 264.968 133.862 265.468 135.877 265.723C137.891 265.978 140.605 266.792 141.909 267.532C143.845 268.633 144.511 268.709 145.552 267.949C148.91 265.492 141.725 259.36 132.15 256.512C130.142 255.915 126.274 254.229 123.553 252.766C120.832 251.302 116.756 249.117 114.494 247.908C107.07 243.943 98.6397 236.751 100.249 235.757C100.977 235.306 103.793 237.135 107.018 240.153C107.635 240.73 109.466 241.451 111.087 241.755C112.708 242.058 115.064 242.892 116.321 243.609C117.577 244.325 119.951 245.135 121.597 245.409C123.242 245.682 126.036 246.445 127.806 247.104C130.575 248.135 131.174 248.155 132.079 247.25C133.804 245.525 133.406 245.233 122.718 240.394C120.456 239.369 116.337 237.478 113.562 236.191C110.789 234.904 108.351 233.851 108.145 233.852C107.939 233.853 105.498 232.621 102.722 231.114C99.9443 229.608 96.5836 227.843 95.2528 227.194C92.9821 226.085 92.8592 225.827 93.2602 222.984C93.7316 219.632 93.1413 219.124 86.3685 217.062C78.3233 214.612 74.8296 210.584 75.0744 204.04C75.2648 198.92 75.5247 198.771 79.7296 201.361C81.3747 202.373 83.6293 203.204 84.7395 203.206C85.8497 203.208 88.2533 204.22 90.0808 205.453C91.9082 206.687 93.6128 207.695 93.8666 207.695C94.2917 207.695 103.281 211.846 112.763 216.422C119.73 219.782 122.867 215.897 115.989 212.424C111.737 210.276 105.79 207.703 105.004 207.67C104.672 207.656 103.055 206.995 101.411 206.2C99.766 205.407 97.8519 204.745 97.1558 204.731C96.4607 204.717 95.6961 204.388 95.4563 204C95.2165 203.612 92.4754 201.846 89.3655 200.075C86.2546 198.304 83.0692 196.489 82.2865 196.042C81.5027 195.593 80.2706 194.709 79.5483 194.074C78.826 193.44 77.3935 192.671 76.3659 192.367C71.2594 190.854 66.7925 180.326 69.2455 175.583C70.1754 173.786 70.2812 172.674 69.716 170.629C69.1206 168.471 69.2536 167.541 70.4494 165.515C71.2523 164.153 71.7238 162.554 71.4971 161.963C71.2704 161.372 72.1882 159.43 73.5381 157.65C77.608 152.281 78.6003 150.576 78.6044 148.951C78.6094 147.304 81.4674 144.149 82.9554 144.149C83.443 144.149 83.8419 143.837 83.8419 143.456C83.8419 143.075 85.7761 141.665 88.1405 140.323C90.5049 138.98 92.5519 137.61 92.689 137.278C92.826 136.945 93.2521 136.673 93.6349 136.673C94.0187 136.673 96.3217 135.243 98.7536 133.496C105.649 128.54 116.364 122.881 122.344 121.034C123.989 120.527 125.839 119.914 126.456 119.672C127.073 119.43 127.746 119.199 127.951 119.157C128.157 119.115 128.662 118.873 129.073 118.619C129.484 118.365 130.987 117.907 132.412 117.602C133.838 117.296 135.52 116.753 136.151 116.396C137.112 115.852 143.975 114.415 151.875 113.105C157.448 112.179 181.95 110.425 190.138 110.365L199.618 110.295L199.857 103.981C199.988 100.507 199.956 97.5272 199.785 97.357C199.181 96.7606 182.61 97.0567 182.23 97.6713ZM164.512 125.78C164.297 125.995 159.094 126.223 152.951 126.288C146.323 126.356 140.171 126.82 137.821 127.426C135.642 127.989 132.913 128.449 131.757 128.449C130.601 128.449 128.465 129.257 127.011 130.243C125.557 131.23 123.69 132.253 122.863 132.515C122.035 132.777 120.95 133.484 120.451 134.085C119.952 134.685 118.958 135.177 118.242 135.177C117.525 135.177 116.136 135.806 115.155 136.573C114.175 137.341 111.522 138.922 109.261 140.086C106.999 141.251 104.98 142.414 104.775 142.671C104.569 142.928 101.206 144.892 97.2989 147.034C93.3931 149.177 89.6969 151.204 89.0875 151.538C88.477 151.873 87.2993 153.336 86.4702 154.789C85.6411 156.243 84.0696 158.761 82.9775 160.384C75.4482 171.574 81.7032 185.314 95.7313 188.401C96.3086 188.527 99.0004 190.066 101.712 191.82C104.425 193.573 108.494 195.554 110.756 196.223C113.017 196.893 116.214 198.02 117.858 198.729C123.457 201.143 126.079 201.638 139.166 202.754C150.359 203.708 157.228 204.503 172.061 206.557C180.344 207.704 186.672 208.344 192.806 208.653L199.722 209.003V193.435V177.866L195.423 177.641C193.059 177.518 190.355 177.729 189.414 178.111C187.444 178.91 185.036 177.134 185.71 175.378C186.147 174.237 195.79 172.452 198.161 173.072C199.444 173.407 199.614 172.938 199.842 168.42C200.148 162.347 200.372 162.48 190.866 163.076C179.711 163.775 176.599 160.788 187.408 159.756C191.32 159.382 193.564 158.761 194.954 157.668C196.043 156.811 197.588 156.111 198.39 156.111C199.24 156.111 199.704 155.721 199.503 155.176C199.315 154.662 198.699 154.368 198.133 154.523C195.664 155.199 167.881 155.112 167.014 154.425C163.323 151.502 169.19 150.13 185.372 150.13H199.578L199.837 146.32C200.16 141.566 199.485 141.117 196.445 144.064C194.022 146.412 191.975 147.02 191.125 145.644C190.859 145.214 186.936 144.897 181.902 144.897C172.254 144.897 169.523 143.982 169.962 140.899C170.184 139.341 170.594 139.277 182.9 138.916C190.621 138.688 195.024 138.3 194.115 137.926C193.293 137.588 192.051 137.009 191.356 136.64C190.66 136.27 187.801 135.603 185.001 135.157C182.201 134.711 179.591 134.029 179.2 133.64C178.809 133.252 176.79 132.932 174.714 132.929C164.374 132.91 160.785 131.408 163.614 128.281C164.762 127.013 165.545 126.898 169.986 127.344C173.483 127.696 175.051 127.598 175.051 127.029C175.051 126.577 174.294 126.182 173.368 126.154C172.443 126.125 170.161 125.94 168.295 125.745C166.43 125.548 164.728 125.564 164.512 125.78ZM187.836 126.16C187.232 126.533 188.531 126.971 191.235 127.307C193.641 127.607 196.225 128.181 196.977 128.582C197.728 128.984 198.878 129.106 199.532 128.856C201.512 128.096 199.389 126.72 195.815 126.448C194.057 126.314 191.763 126.059 190.716 125.881C189.668 125.702 188.373 125.827 187.836 126.16ZM89.8229 212.218C89.8229 213.111 95.9348 216.041 96.5332 215.434C96.7488 215.217 95.9157 214.228 94.6826 213.239C92.3626 211.38 89.8229 210.846 89.8229 212.218ZM124.026 215.467C122.143 216.894 122.413 217.549 124.774 217.278C125.937 217.144 126.83 216.582 126.83 215.982C126.83 214.515 125.585 214.286 124.026 215.467ZM131.286 218.211C129.106 221.738 132.731 225.863 137.908 225.743C140.475 225.685 142.846 226.151 144.651 227.072C147.699 228.625 160.219 230.058 173.182 230.337C180.913 230.503 182.573 231.371 177.785 232.741C176.348 233.152 174.922 233.741 174.613 234.049C173.789 234.874 159.932 234.732 157.407 233.872C147.788 230.597 129.623 231.277 137.67 234.61C139.919 235.541 140.755 237.943 139.031 238.517C137.608 238.992 138.914 241.207 141.57 242.827C143.581 244.053 145.341 244.324 151.314 244.326C157.294 244.329 158.604 244.53 158.604 245.45C158.604 246.373 157.268 246.571 151.072 246.571C139.02 246.571 141.528 250.314 154.598 251.831C158.24 252.254 164.08 252.953 167.575 253.383C171.069 253.815 177.603 254.392 182.093 254.668C187.585 255.005 190.358 255.475 190.567 256.103C190.953 257.272 167.562 257.412 157.879 256.299C149.586 255.346 146.922 258.313 154.865 259.655C156.463 259.925 158.166 260.624 158.652 261.209C159.31 262.002 161.489 262.272 167.231 262.272C175.613 262.272 177.293 262.606 177.293 264.278C177.293 265.213 175.923 265.299 168.052 264.851C155.215 264.119 152.42 266.974 162.778 270.24C166.471 271.404 166.867 271.726 166.487 273.245C166.136 274.642 166.43 275.036 168.126 275.442C169.262 275.713 170.664 276.309 171.244 276.766C172.279 277.584 198.527 277.92 199.322 277.125C199.521 276.927 199.703 265.682 199.727 252.136L199.77 227.508L196.569 227.703C194.808 227.81 191.304 227.554 188.782 227.135C186.259 226.716 178.858 226.046 172.334 225.646C159.923 224.887 158.702 224.755 157.481 224.034C157.07 223.791 155.389 223.35 153.744 223.053C152.099 222.757 150.391 222.215 149.948 221.85C149.505 221.484 146.806 220.853 143.95 220.448C141.094 220.042 137.293 219.195 135.503 218.563C131.631 217.197 131.898 217.219 131.286 218.211ZM102.944 226.325C102.511 227.026 114.013 233.114 115.77 233.114C116.302 233.114 116.737 233.451 116.737 233.862C116.737 234.274 117.109 234.61 117.563 234.61C118.017 234.61 120.089 235.465 122.169 236.508C126.547 238.708 127.91 238.144 126.201 234.841C125.23 232.961 122.753 231.163 120.102 230.411C117.975 229.809 113.105 227.863 111.13 226.825C108.681 225.539 103.62 225.23 102.944 226.325Z" fill="#0000FF"/>
</svg>
