<svg width="400" height="400" viewBox="0 0 400 400" fill="none" xmlns="http://www.w3.org/2000/svg">
<path style="fill:#0000FF;" d="M198.563,176.62c-3.605,2.403-7.931-2.403-10.815,1.683c-1.442-1.202-2.644-3.124-1.202-4.566
	l10.335-1.202c0.599,0.18,1.223,0.303,1.87,0.383V162.03c-4.872-0.155-9.759,0.211-14.608,1.372l-2.883-2.403l1.682-1.682
	c5.768,0.48,11.056-0.24,15.142-4.086c0.22,0.063,0.445,0.115,0.668,0.172v-1.249c-9.703-0.116-19.486,0.167-30.23,0.597
	c-0.721-0.241-2.163-1.202-1.682-2.403c0.961-0.962,1.922-1.923,2.883-2.164l29.029-0.534v-7.924
	c-1.886,0.378-3.243,1.589-3.553,4.372c-6.729-3.125-15.622-1.442-23.072-2.403l-1.682-1.682c-1.683-1.202,0.239-2.644,0.961-3.365
	h24.995c-5.047-3.365-11.776-4.086-16.824-5.288c-4.807-2.403-11.776,0.241-16.823-2.403c0.241-8.171,8.893-0.961,13.459-3.845
	c0-0.962-0.961-1.202-1.202-1.923c-12.498,0-23.072,0.721-35.81,1.202c-3.366,2.403-10.335-0.241-13.218,4.566
	c-13.7,6.249-24.755,14.181-38.214,20.91v2.163c-5.527,5.288-8.651,12.978-8.651,20.188c4.807,6.49,10.815,12.979,19.227,14.42
	c5.046,3.365,9.853,7.21,16.102,8.172c3.846,0.961,6.97,3.365,10.815,4.085c24.585,0.59,48.687,6.971,73.491,7.822v-32.112
	L198.563,176.62z M111.562,225.649c-3.125-1.682-6.971-2.164-9.374,0.48l24.274,11.537l1.202-0.962
	C126.943,228.052,116.608,229.975,111.562,225.649z M127.664,214.593c-1.682-1.442-4.085,0.48-5.287,0.721
	c0.961,1.202,2.163,1.683,3.605,1.683C126.462,216.275,128.385,216.275,127.664,214.593z M198.751,278.825
	c-6.211-0.04-12.449-0.583-17.492,1.139c0,0.721,0.961,1.683,1.682,1.683c4.807,0.721,9.373-1.922,13.459,0.481
	c0,0.961-0.961,1.682-1.922,1.682l-29.803-0.48c-1.922-2.644-5.046-1.923-7.69-2.884c-9.854-7.691-23.072-7.931-31.725-17.305
	c-4.566,1.923-8.412-2.883-11.536-5.287v-0.961c8.652,2.403,15.622,7.21,25.476,8.651c2.883-0.48,5.287,5.047,7.449,0.481
	c-2.403-10.575-15.861-9.373-23.552-14.901c-3.605-1.922-7.931-4.566-11.056-5.768c-3.364-3.365-10.815-6.249-11.536-11.056
	c3.846,1.442,7.451,7.932,13.939,6.971c4.807,4.566,10.335,2.643,15.622,6.248c1.683,0.241,2.885-0.48,3.846-1.682
	c0.241-2.163-2.403-3.125-3.846-3.364c-12.497-6.249-25.715-10.815-37.493-18.506c1.923-1.683,3.125-3.365,0.962-5.768
	c-6.49-2.403-15.142-4.086-18.266-11.055c0.48-3.124,2.644-6.49,0-8.652c2.644,0,6.729,5.768,12.017,4.086
	c9.613,7.21,20.908,10.334,31.244,16.102c1.922-2.163,1.922-3.605,0.961-6.248c-14.18-6.008-28.84-10.815-41.338-20.909
	c-7.449-0.961-7.21-9.133-9.373-14.42c5.528-4.326-1.442-9.373,4.086-13.7c-2.885-6.489,7.451-8.651,6.249-15.141
	c6.008-7.931,16.342-10.334,23.793-17.305c27.805-17.356,61.484-20.873,95.841-20.66v-12.86
	c-36.207-0.949-66.95,12.695-99.446,23.185c-18.986,6.489-32.205,25.956-37.974,43.981c-3.844,19.227,1.442,39.416,5.769,57.681
	c6.729,7.21,7.449,17.545,14.9,24.034c7.932,18.025,27.159,28.12,41.579,40.377c9.613,3.365,18.746,7.931,28.359,11.056
	c15.378,3.177,30.961,4.661,46.813,4.833v-23.759H198.751z M198.751,275.753v-49.436c-4.5,0.352-9.048,1.106-13.407-1.149
	c-13.698-1.202-26.196,0-37.973-5.288c-5.047,0.481-10.095-2.403-15.142-3.364c-3.364,1.682-0.72,5.288,0,7.451
	c3.846,2.884,10.335-1.202,13.218,3.365c11.537,2.403,25.476,2.403,36.532,2.403c-12.737,8.652-30.763,0.721-44.462,0
	c-0.961,0.961-2.403,1.683-1.683,3.364l5.047,2.403c-1.682,1.202-3.124,3.365-1.682,5.047c5.287,5.528,14.66,1.442,21.39,3.605
	c-4.807,1.442-10.574,1.442-15.622,0.481c-0.961,0.961-2.644,2.163-1.202,3.605c10.334,5.287,21.871,2.403,33.406,5.768
	c4.807,0.72,11.536-1.922,14.42,2.163c-14.42,0.24-26.918,0.24-40.376-2.163c-4.327,6.008,6.488,3.364,8.651,7.45
	c4.807,0.241,13.219-0.961,18.506,1.202c-6.008,3.846-14.901-3.125-21.871,1.682c1.202,5.288,7.21,4.567,11.056,6.249l-1.922,2.884
	C175.685,278.42,187.424,276.909,198.751,275.753z M142.084,237.185v-1.202c6.49-1.202,10.095,4.566,16.103,4.086
	C152.419,241.751,147.852,237.185,142.084,237.185z M190.632,269.39v1.202l-1.202,1.202l-19.708-1.202
	C176.212,268.188,183.902,272.514,190.632,269.39z M98.343,214.593c-2.403-1.682-6.73-5.768-9.374-2.884
	C92.336,211.95,94.018,216.275,98.343,214.593z M187.027,127.111c4.143,0,7.936,1.049,11.724,1.941v-2.908
	c-3.561-0.583-7.203-0.957-11.003-0.957L187.027,127.111z"/>
<path style="fill:#FF0000;" d="M240.142,186.474c0.239-2.884,1.922-5.527,0-8.171c-2.885-0.961-2.403,2.403-4.086,3.605
	c-2.885-1.442-3.124-6.97-7.452-7.691l-27.353,2.188v32.38c4.682,0.088,9.391-0.032,14.134-0.44
	c26.198-2.644,51.672-7.21,74.985-17.305c9.855-6.489,26.918-11.295,27.639-24.754c4.086-7.931-4.565-12.498-8.17-17.305
	c-6.49-0.48-13.218-4.326-19.469-6.969c-13.458,2.644-23.552-10.815-37.01-9.133c1.441,5.287,9.372,4.807,13.939,7.931
	c5.288-0.241,8.893,3.125,13.219,5.288c6.008-2.884,8.17,6.729,13.939,6.97c-0.481,1.683,3.124,3.124,0.481,4.566l-14.42-6.489
	c-1.443,0.48-2.645-1.442-3.366,0.721c4.807,2.884,10.094,3.845,12.498,9.854c-2.403,1.442-3.844-3.125-6.729-1.923
	c-10.815-4.326-22.111-7.21-32.926-10.815c-1.202,0-2.164,1.442-1.683,2.885c4.807,0,8.412,4.326,13.218,2.884
	c7.691,4.085,15.383,8.412,23.074,12.738v0.961c-9.374,2.644-17.305-5.287-26.679-6.249c-2.884-1.922-7.449-3.124-10.334-1.682
	c3.844,8.171,16.103,7.21,21.87,14.42c2.164-0.24,3.847,0.24,5.288,1.682c1.443,1.202,0,3.125-1.202,4.086
	c-4.086-1.683-9.613-1.442-12.737-4.566c-4.567-0.481-8.651-3.605-13.218-2.403c0,1.922-0.239,3.846,1.202,5.287
	c-4.086,2.164-1.683,7.21-4.086,10.335c-8.893-1.923-19.708,1.442-28.84-1.682l-2.162-2.403
	C221.394,181.427,231.73,185.032,240.142,186.474z M206.734,144.415c4.086,3.125,8.412,0.481,13.218,2.163
	c4.567,0.962,10.334,3.125,14.901,0.721c-6.49-2.884-14.901-2.884-21.872-3.605c-3.165,0.132-7.922-1.76-11.731-2.066v7.975
	l7.647-0.141C206.973,148.742,204.091,146.578,206.734,144.415z M251.196,143.213c5.288,2.884,14.42,3.846,17.786,4.566
	l-4.567-2.883C259.847,144.415,254.562,141.051,251.196,143.213z M338.678,160.998c-0.962-7.931-6.49-11.776-8.654-18.986
	c-9.613-9.373-18.985-16.343-29.8-24.754c-12.259-5.288-25.958-6.008-38.214-11.055c-13.218-7.451-29.561-4.566-44.462-6.97
	c-5.567-0.928-10.992-1.482-16.298-1.719v12.803c11.444,0.129,22.948,0.643,34.323,1.174c13.7,0.48,24.754,6.969,37.973,8.651
	c5.769,3.605,13.46,4.327,19.708,7.932c2.884,2.884,5.288,4.326,9.132,5.287c12.017,9.133,25.477,17.305,28.84,33.407
	c1.202,7.69-0.96,14.66-7.931,18.025c-12.017,0.721-16.103,16.343-28.359,16.102c-15.864,0.241-28.601,8.171-44.462,8.652
	l-42.54,4.086c-2.164,1.202-1.202,2.163-0.72,3.845l4.565,1.202c14.181-2.403,26.918,2.885,39.897-2.163
	c6.248,0,13.458,0.24,17.783-2.403l28.84-1.682c-1.922,5.046-2.882,12.017-4.565,17.785c-0.721,2.884,0.96,5.047,3.605,5.768
	c8.893-4.086,3.844-13.7,8.651-20.669c1.443,2.403-1.202,7.451,2.164,9.854c7.21-5.047,6.49-14.661,12.256-20.188
	c-1.202,12.497-10.573,23.073-15.622,34.608c-15.38,14.66-28.599,25.235-43.981,39.174h-1.683c-0.721-1.682,1.922-1.441,1.683-2.884
	c-4.086-1.923-8.651,1.922-13.218,2.884l1.202-3.605c-6.729,0.962-14.181,5.288-21.391,5.288
	c10.576-8.893,24.515-12.017,35.811-20.188c13.218-9.854,31.483-21.15,32.206-40.377c0.721-1.922-0.962-3.124-2.164-3.364
	c-6.971,4.326-15.383-0.961-21.391,6.249c-21.149,4.566-43.739,0.481-65.13,4.086c-1.801-0.559-3.634-0.698-5.483-0.663v49.318
	c4.875-0.462,9.644-0.763,14.134-0.349c-4.132,2.823-9.069,3.529-14.134,3.648v23.802c13.316,0.029,26.825-0.856,40.571-2.455
	c4.567-3.846,9.613-2.403,14.42-3.605c2.403-2.403,5.288-3.365,8.654-2.884c14.66-9.854,31.725-16.583,43.981-30.042
	c17.786-23.072,28.84-50.23,30.523-80.753C341.321,176.861,337.955,168.689,338.678,160.998z M262.011,264.824
	c8.172-1.442,15.861-6.97,20.91-13.7c-4.326-0.24-8.654,4.086-11.536,7.451C268.74,261.939,262.732,260.978,262.011,264.824z
	 M203.129,133.841c9.374,3.605,20.189,5.287,30.042,5.287v-1.202c-7.691-2.644-16.103-3.846-24.754-4.086
	C207.936,130.476,204.091,133.12,203.129,133.841z M223.318,129.274c3.844-1.923,11.775,4.085,12.737-2.884
	c-7.931,0-16.824-2.163-24.754-2.163C211.541,129.274,220.192,125.91,223.318,129.274z M201.251,154.194v1.732
	c5.963,0.995,12.521,0.56,18.22,2.189c6.008,0.241,14.42,4.807,18.267,0.721l-1.683-1.922
	C223.565,155.182,212.411,154.409,201.251,154.194z M201.251,129.602c3.082,0.621,6.21,0.969,9.569,0.393v-1.202
	c-3.17-0.818-6.344-1.583-9.569-2.203V129.602z M214.183,172.535c6.25-4.807,13.218,0.48,20.189-2.884
	c-10.422-3.207-21.701-6.719-33.122-7.499v10.884C205.272,172.989,209.851,172.014,214.183,172.535z"/>
</svg>
