<svg width="400" height="400" viewBox="0 0 400 400" fill="none" xmlns="http://www.w3.org/2000/svg">
<path style="fill:#B0FF30;" d="M218.396,198.533c-0.935-1.086-2.18-1.142-3.34-1.241c-8.951-0.766-17.787-0.004-26.579,1.83
	c-7.945,1.657-15.896,3.848-23.935,4.348c-10.179,0.633-19.598-2.162-26.549-10.596c-2.952-3.582-5.076-7.572-6.215-11.944
	c-1.052-4.036-1.179-8.163,1.477-11.987c4.487-6.458,9.588-11.728,17.977-12.831c5.599-0.736,10.154,1.079,14.373,4.384
	c1.026,0.804,0.984,0.858,2.314,1.286c-0.704-1.88-2.161-2.931-3.492-3.999c-11.03-8.845-28.082-5.363-34.676,7.175
	c-1.049,1.995-2.074,2.088-3.861,1.406c-5.375-2.051-8.195-7.442-6.865-12.994c1.202-5.017,3.493-9.571,5.772-14.125
	c2.947-5.888,5.346-11.985,6.311-18.492c0.673-4.543,0.556-9.183-0.145-13.766c-0.071-0.464-0.206-0.819-1.041-0.97
	c-0.432,2.636-0.275,5.363-0.981,7.94c-0.723,2.641-1.624,5.204-3.774,7.311c-4.423-3.061-9.397-4.581-14.507-5.818
	c-3.39-0.821-6.78-1.246-10.258-1c-2.719,0.192-3.898-0.945-3.628-3.687c0.442-4.479,2.439-8.378,4.815-12.095
	c5.204-8.14,12.593-13.62,21.238-17.681c7.751-3.641,15.621-7.06,23.907-9.108c7.965-1.969,16.172-2.2,24.423-1.562
	c19.269,1.49,37.439,6.703,54.296,16.076c7.398,4.113,14.201,9.205,20.5,14.982c8.132,7.457,14.894,16.02,20.833,25.205
	c4.175,6.458,7.458,13.479,8.606,21.221c0.547,3.691,0.925,7.473,0.543,11.185c-0.33,3.211-2.955,4.94-5.572,6.388
	c-1.439,0.796-3.049,1.289-4.189,2.577c-0.706,0.797-1.284,1.623-0.988,2.938c2.695-4.027,7.747-3.166,11.115-5.706
	c0.843-0.636,1.651-0.02,2.398,0.387c3.598,1.959,5.731,5.179,7.327,8.783c1.461,3.3,2.27,6.811,2.936,10.351
	c0.887,4.71-1.166,8.723-3.048,12.766c-2.609,5.606-7.638,7.916-13.025,10.14c-6.206,2.562-11.489,0.377-16.911-1.998
	c-5.51-2.414-10.777-5.44-16.767-6.638c-0.561-0.112-1.117-0.284-1.683-0.337c-0.637-0.059-1.284-0.014-2.013,0.261
	c2.349,1.066,4.639,2.298,7.059,3.167c5.996,2.152,11.116,6.02,16.953,8.48c1.356,0.571,1.666,2.073,1.881,3.462
	c0.686,4.422,0.871,8.875,0.83,13.342c-0.01,1.067-0.001,2.133,0.408,3.234c0.43-3.057,0.938-6.105,1.261-9.173
	c0.221-2.094,0.676-4.109,1.378-6.076c2.162-6.06,11.044-9.459,16.431-5.923c10.128,6.648,16.536,15.64,16.421,28.317
	c-0.027,3.02-0.108,6.033-0.287,9.055c-0.372,6.294-3.291,11.173-7.854,15.449c-0.837-2.72-1.763-5.34-3.358-7.66
	c-1.656-2.409-2.665-2.587-4.795-0.523c-4.862,4.711-8.241,10.278-9.456,17.095c-1.51,0.059-2.136-1.086-2.838-2.024
	c-2.046-2.735-2.573-6.052-3.376-9.247c-0.803-3.197-1.488-6.424-2.299-9.957c-1.042,2.501-0.401,4.733-0.169,6.909
	c0.396,3.717,0.991,7.412,1.96,11.034c0.584,2.183-0.21,3.55-2.149,4.81c-5.593,3.637-11.493,3.496-17.627,2.047
	c-10.869-2.567-19.757-8.36-27.957-15.851c-14.601-13.339-23.065-29.97-27.888-48.793c-0.402-1.569-0.303-3.102-0.108-4.694
	c0.145-1.186,0.718-1.707,1.669-2.23c5.395-2.968,11.395-3.324,17.299-4.078c2.564-0.328,5.143-0.578,7.729-0.058
	C217.146,199.115,217.771,199.308,218.396,198.533z M157.247,161.735c0.049,0.27,0.038,0.428,0.106,0.538
	c0.111,0.179,0.243,0.378,0.417,0.479c4.527,2.617,9.087,5.033,14.636,3.624c1.873-0.476,3.804-0.743,5.721-1.017
	c10.615-1.515,21.265-0.47,31.897-0.319c4.59,0.065,9.194,0.496,13.755,1.058c10.456,1.287,20.544,4.173,30.552,7.369
	c4.844,1.547,9.724,1.919,14.587,0.04c1.019-0.393,2.234-0.592,2.516-1.993c-0.81-0.394-1.488-0.046-2.159,0.124
	c-4.667,1.18-9.378,1.16-13.773-0.7c-6.411-2.713-13.29-3.642-19.86-5.725c-3.874-1.228-7.985-1.72-12.001-2.485
	c-6.331-1.206-12.755-0.889-19.146-1.107c-9.87-0.336-19.733-0.108-29.464,1.583c-5.486,0.954-10.736,1.562-15.847-1.26
	C158.695,161.675,158.028,161.281,157.247,161.735z M253.489,135.604c-1.61-4.163-3.514-8.166-5.69-12.03
	c-3.088-5.483-7.625-9.831-12.331-13.75c-10.136-8.441-21.179-15.584-33.443-20.67c-3.801-1.576-7.752-2.434-12.324-2.945
	C216.223,96.468,238.765,110.996,253.489,135.604z M244.535,153.809c-2.988-14.089-22.07-38.991-31.474-41.267
	c0.043,1.287,1.023,1.852,1.797,2.519c4.317,3.723,8.271,7.8,11.914,12.179c5.217,6.272,9.73,13.012,13.5,20.256
	C241.387,149.639,242.387,151.895,244.535,153.809z M141.509,169.978c-3.748,12.395,3.53,21.564,14.567,24.169
	C148.518,187.416,140.652,181.319,141.509,169.978z M154.422,170.473c-3.519,7.018,4.242,21.453,12.612,23.358
	c-2.988-3.757-6.551-6.534-8.67-10.485C156.199,179.312,155.228,174.943,154.422,170.473z M264.447,201.638
	c11.708-0.686,17.65-10.454,14.317-22.539C278.23,189.275,275.88,198.298,264.447,201.638z M260.56,198.02
	c5.372-1.769,8.383-5.584,9.218-10.874c0.481-3.049,0.381-6.267-1.278-9.221C268.223,185.614,267.239,192.913,260.56,198.02z
	 M262.205,279.007c-1.698-0.04-3.285,0.367-4.801,1.05c-5.53,2.492-10.222,6.156-14.253,10.632
	c-5.493,6.1-8.425,13.054-7.241,21.511c1.436,10.256,9.548,17.529,19.831,17.788c9.374,0.236,17.442-2.913,24.716-8.603
	c7.438-5.819,11.018-13.812,12.981-22.731c0.24-1.09,0.592-2.467-0.446-3.241c-1.276-0.951-2.176-2.232-3.33-3.349
	c-1.26,1.315-2.281,2.715-3.764,3.667c-3.608,2.317-7.493,1.217-9.105-2.681c-0.8-1.934-1.479-3.919-2.313-6.151
	c-0.394,0.81-0.633,1.319-0.887,1.822c-2.599,5.138-5.928,9.657-10.856,12.825c-3.7,2.378-7.475,1.72-10.046-1.804
	c-2.743-3.759-3.195-7.937-1.976-12.309c0.418-1.497,1.045-3.038,3.014-3.866c-0.261,3.039-2.023,5.462-1.566,8.241
	c0.447,2.721,1.045,5.403,3.933,7.491c-0.217-1.255-0.329-1.944-0.456-2.63c-0.787-4.239,0.541-7.803,3.523-10.793
	c2.668-2.675,5.471-2.825,8.526-0.387C268.1,281.458,266.007,279.097,262.205,279.007z M275.122,267.792
	c-0.467,1.056-0.702,2.165-0.863,3.317c-1.016,7.287,0.513,14.115,3.503,20.732c1.478,3.27,4.45,4.257,7.342,2.067
	c2.777-2.103,4.617-4.66,4.524-8.521c-0.178-7.384,0.499-14.805-1.417-22.076c-0.822-3.121-1.688-6.21-4.369-8.811
	C279.942,258.537,277.25,262.977,275.122,267.792z M298.918,291.457c5.903-9.27,5.061-18.955,1.796-28.788
	c-0.581-1.75-1.715-3.139-3.111-4.316c-0.502-0.423-1.082-0.889-1.672-0.188c-1.635,1.939-3.23,3.913-4.939,5.993
	c3.227,0.435,4.134,1.199,4.62,4.165c0.547,3.332,0.759,6.706,0.682,10.086c-0.081,3.532-0.394,7.015-2.842,9.862
	c1.219,1.731,2.199,3.498,3.906,4.85C298.116,292.639,298.524,292.076,298.918,291.457z M293.734,284.602
	c1.655-5.676,1.018-11.384,0.07-17.068c-0.26-1.56-1.438-1.967-3.009-1.522c0.818,6.236,0.808,12.4,0.584,18.571
	c-0.028,0.769,0.184,1.415,1.062,1.778C293.36,286.013,293.544,285.256,293.734,284.602z M291.63,288.167
	c-1.689,3.558,0.36,6.324,4.706,6.246C294.448,292.351,293.077,290.29,291.63,288.167z"/>
</svg>
