<svg width="400" height="400" viewBox="0 0 400 400" fill="none" xmlns="http://www.w3.org/2000/svg">
<path fill-rule="evenodd" clip-rule="evenodd" d="M188.9 73.1296C178.587 81.29 177.453 98.2916 186.834 104.09C189.622 105.813 185.489 109.454 159.812 127.904C143.851 139.372 130.601 155.817 128.424 166.86C128.103 168.489 127.486 170.041 127.052 170.308C126.619 170.576 126.274 174.948 126.287 180.023C126.325 195.128 131.282 206.704 142.342 217.516L149.182 224.203L148.187 228.907C147.639 231.495 146.337 237.075 145.294 241.307C141.472 256.82 141.462 256.913 143.315 259.407C146.348 263.487 170.148 273.9 176.441 273.9C179.299 273.9 180.07 275.165 178.173 276.74C177.355 277.42 176.646 277.844 176.599 277.684C176.55 277.524 175.289 277.895 173.795 278.508C172.045 279.225 162.392 279.86 146.634 280.294C133.19 280.665 121.374 281.137 120.379 281.343C115.417 282.371 108.458 284.059 107.25 284.526C106.504 284.815 105.588 284.987 105.214 284.909C104.841 284.83 104.535 285.173 104.535 285.67C104.535 286.168 103.889 286.575 103.099 286.575C99.1974 286.575 83.6488 295.93 76.2423 302.734C72.2017 306.446 72.8996 307.875 84.3759 319.381C95.0775 330.11 97.5772 331.604 99.9855 328.703C101.237 327.195 116.227 318.685 119.281 317.75C120.382 317.413 121.775 316.743 122.376 316.264C122.977 315.784 123.885 315.649 124.395 315.964C124.904 316.278 126.127 316.105 127.113 315.577C128.099 315.05 136.357 314.214 145.465 313.721C169.813 312.401 181.603 310.427 189.581 306.335C192.288 304.948 194.692 304.002 194.924 304.233C196.112 305.422 197.734 300.889 197.758 296.308C197.79 290.756 196.149 289.207 194.165 292.913C193.554 294.055 192.271 294.724 190.686 294.724C189.305 294.724 187.4 295.29 186.455 295.982C185.51 296.672 184.204 297.034 183.554 296.785C182.905 296.535 181.809 296.799 181.121 297.371C179.496 298.719 170.903 300.1 163.142 300.26C159.77 300.33 156.791 300.742 156.522 301.176C156.253 301.61 152.563 301.967 148.32 301.967C137.963 301.967 123.513 303.726 121.309 305.255C120.327 305.937 118.855 306.493 118.036 306.493C117.219 306.493 112.609 308.53 107.792 311.02C102.976 313.51 98.5239 315.548 97.8993 315.548C96.5805 315.548 89.1411 308.204 89.1496 306.911C89.1631 305.097 104.798 296.416 108.609 296.107C109.107 296.067 109.992 295.735 110.576 295.369C113.31 293.655 122.789 292.824 139.392 292.841C170.621 292.873 187.254 288.158 196.627 276.617C198.416 274.415 198.224 238.271 196.416 236.77C194.889 235.502 187.43 236.138 185.552 237.696C184.947 238.199 183.073 238.56 181.387 238.5C178.301 238.39 171.721 239.848 168.363 241.386C166.297 242.332 157.864 244.905 156.779 244.919C155.919 244.93 156.951 238.48 157.99 237.349C158.389 236.915 158.515 236.039 158.271 235.404C158.027 234.768 158.263 233.979 158.794 233.65C159.326 233.321 159.762 231.925 159.762 230.547C159.762 225.307 175.484 219.538 189.684 219.567C193.105 219.573 196.075 219.119 196.7 218.492C198.406 216.787 198.195 190.588 196.458 188.29C195.549 187.089 195.119 184.205 195.1 179.175C195.064 170.038 194.622 169.588 185.933 169.87C180.087 170.06 179.219 169.865 177.727 168.022C173.816 163.192 177.948 159.825 187.787 159.825H195.072V152.302C195.072 147.089 195.479 144.24 196.4 143.022C197.48 141.595 197.735 137.253 197.758 119.916L197.787 98.5661L195.423 97.301C190.197 94.5036 189.844 86.0589 194.765 81.5498C201.878 75.0339 196.411 67.1858 188.9 73.1296Z" fill="#0000FF"/>
<path fill-rule="evenodd" clip-rule="evenodd" d="M200.202 70.797C197.995 73.0039 199.658 81.0216 202.472 81.7512C209.68 83.6189 209.859 93.0506 202.767 97.2351L199.598 99.1041V120.335V141.567L202.063 143.362C204.403 145.067 204.516 145.489 204.264 151.644C203.917 160.146 204.459 160.73 212.697 160.73C217.882 160.73 219.546 161.073 220.734 162.386C224.576 166.631 220.933 169.783 212.183 169.783C204.459 169.783 203.724 170.594 204.351 178.405C204.79 183.868 204.639 184.512 202.21 187.568L199.598 190.856V204.793C199.598 215.173 199.887 218.809 200.73 219.041C202.054 219.406 213.081 221.221 220.874 222.36C232.064 223.992 233.613 224.408 236.376 226.515C238.639 228.241 239.325 229.568 239.798 233.143C240.125 235.6 240.788 237.856 241.271 238.155C241.754 238.454 242.151 239.738 242.151 241.009C242.151 243.398 236.888 243.554 234.5 241.236C234.027 240.778 232.932 240.402 232.069 240.402C231.205 240.402 229.352 239.935 227.95 239.364C226.548 238.794 224.79 238.278 224.042 238.219C223.296 238.16 220.386 237.589 217.578 236.949C214.769 236.31 209.676 235.91 206.261 236.057L200.05 236.328V256.599C200.05 275.756 200.148 276.927 201.817 277.876C202.788 278.429 205.437 280.204 207.702 281.821C209.968 283.439 213.247 285.476 214.989 286.349C216.732 287.22 218.697 288.443 219.354 289.065C220.013 289.688 221.246 290.196 222.095 290.196C222.944 290.196 224.555 290.838 225.675 291.623C226.89 292.474 229.248 292.973 231.534 292.863C233.639 292.762 235.971 292.904 236.718 293.177C237.465 293.451 248.825 293.875 261.964 294.117C275.102 294.36 286.103 294.921 286.409 295.364C286.715 295.806 287.848 296.223 288.928 296.29C292.794 296.528 309.063 305.148 309.119 306.988C309.135 307.51 307.533 309.512 305.561 311.439L301.975 314.94L294.471 311.257C277.216 302.789 277.393 302.834 259.183 302.258C249.161 301.941 245.623 301.519 244.813 300.544C244.014 299.582 241.437 299.251 234.751 299.251C228.427 299.251 224.965 298.837 223.067 297.855C221.582 297.088 220.009 296.683 219.57 296.954C218.875 297.383 216.54 296.455 211.368 293.694C207.852 291.817 201.746 289 200.73 288.785C199.906 288.612 199.598 290.337 199.598 295.117C199.598 302.499 200.282 303.594 206.421 306.046C208.395 306.836 210.824 307.836 211.821 308.27C215.487 309.87 219.852 311.02 222.256 311.02C223.615 311.02 226.19 311.631 227.977 312.378C230.401 313.391 234.866 313.736 245.541 313.736C257.26 313.736 260.233 314.002 261.945 315.201C263.515 316.3 265.124 316.521 268.409 316.084C271.541 315.67 273.766 315.931 276.253 317.004C285.692 321.084 290.127 323.347 294.951 326.542C303.168 331.984 303.905 331.754 316.007 319.927C330.457 305.808 330.342 304.957 312.33 292.703C310.33 291.343 308.185 290.222 307.562 290.213C306.94 290.205 306.431 289.855 306.431 289.436C306.431 289.018 304.699 288.132 302.583 287.469C300.467 286.804 297.717 285.772 296.471 285.175C292.491 283.267 287.834 282.048 284.523 282.048C282.751 282.048 280.796 281.437 280.175 280.69C279.224 279.546 275.26 279.333 254.887 279.333C235.045 279.333 230.412 279.095 228.969 278.003C228.003 277.272 226.319 276.661 225.228 276.645C224.136 276.629 222.992 276.209 222.685 275.712C222.366 275.196 223.148 274.805 224.501 274.805C225.809 274.805 227.768 274.317 228.855 273.719C229.944 273.123 231.683 272.736 232.721 272.859C233.761 272.984 235.135 272.454 235.775 271.682C236.415 270.911 237.54 270.279 238.274 270.279C239.007 270.279 240.689 269.704 242.01 269.002C243.332 268.299 245.84 267.056 247.582 266.237C257.718 261.479 257.97 261.226 258.268 255.487C258.425 252.459 258.102 249.679 257.511 248.966C256.944 248.283 256.696 247.374 256.961 246.946C257.226 246.518 256.871 244.564 256.173 242.605C255.475 240.647 254.887 237.748 254.865 236.166C254.843 234.584 254.255 232.718 253.557 232.021C250.667 229.13 251.974 224.463 256.967 219.837C263.816 213.494 273.106 199.729 272.257 197.183C272.056 196.579 272.533 195.17 273.317 194.05C275.362 191.131 275.374 171.088 273.333 168.173C272.557 167.065 272.143 165.803 272.411 165.367C272.681 164.932 271.895 162.794 270.665 160.615C269.435 158.438 268.148 156.045 267.805 155.297C267.461 154.551 266.234 152.679 265.078 151.139C263.92 149.598 262.973 147.968 262.972 147.516C262.971 146.564 249.326 133.797 243.85 129.623C238.33 125.415 231.144 120.127 228.57 118.375C227.324 117.527 225.492 116.078 224.495 115.154C223.5 114.229 220.546 112.092 217.932 110.405C212.26 106.744 212.377 107.709 216.779 100.899C223.689 90.208 222.161 80.1823 212.48 72.6831C209.355 70.2626 201.884 69.1146 200.202 70.797Z" fill="#FF0000"/>
</svg>
