<svg width="400" height="400" viewBox="0 0 400 400" fill="none" xmlns="http://www.w3.org/2000/svg">
<path style="fill:#0000FF;" d="M198.75,290.617c-0.808,0.205-1.618,0.571-2.435,1.132c-4.052,2.784-8.422,4.927-13.071,6.56
	c-5.98,2.099-12.139,3.043-18.436,3.39c-9.455,0.52-18.91,1.066-28.357,1.709c-13.377,0.91-25.474,5.553-36.638,12.827
	c-2.176,1.417-1.708,1.696-3.751-0.346c-2.874-2.873-5.739-5.754-8.797-8.823c5.413-3.678,10.7-6.979,16.44-9.559
	c9.752-4.379,19.989-5.697,30.583-5.551c9.577,0.131,19.167-0.03,28.741-0.344c11.533-0.377,21.631-4.548,30.184-12.329
	c1.569-1.427,3.52-2.255,5.536-2.511v-39.254c-14.989,0.215-29.181,3.694-43.259,9.392c0-0.878-0.093-1.359,0.014-1.79
	c1.286-5.175,2.676-10.326,3.879-15.519c0.734-3.167,2.716-4.77,5.686-5.74c11.061-3.61,22.309-5.048,33.68-5.117V189.9
	c-2.012-0.341-3.225-1.513-3.477-3.724c-0.348-3.052-0.381-6.141-0.508-9.216c-0.057-1.375-0.08-2.757,0.01-4.128
	c0.076-1.162-0.359-1.505-1.493-1.533c-4.237-0.103-8.473-0.421-12.709-0.415c-2.443,0.003-4.516-2.66-4.591-4.783
	c-0.086-2.45,1.742-4.845,4.243-5.022c4.114-0.292,8.246-0.411,12.371-0.429c1.612-0.007,2.163-0.375,2.169-2.097
	c0.014-4.18,0.394-8.359,0.417-12.54c0.009-1.745,1.866-3.388,3.568-3.992V99.152c-4.446-0.762-8.133-4.866-8.124-9.4
	c0.008-4.564,3.636-8.551,8.124-9.281V70c-9.724,0.604-18.135,9.056-18.411,19.056c-0.177,6.409,2.328,11.497,6.961,15.751
	c2.334,2.142,2.27,2.278-0.241,4.118c-9.764,7.154-19.578,14.243-29.29,21.47c-7.571,5.633-14.755,11.703-20.369,19.41
	c-8.47,11.628-12.418,24.608-10.349,38.877c1.874,12.919,8.046,23.747,18.3,32.061c1.197,0.971,2.496,1.831,3.591,2.903
	c0.443,0.434,0.741,1.35,0.631,1.961c-0.429,2.378-1.036,4.726-1.599,7.079c-1.776,7.433-3.634,14.848-5.31,22.304
	c-0.83,3.693,0.096,5.714,3.46,7.312c5.797,2.757,11.601,5.563,17.601,7.816c5.683,2.134,11.623,3.583,17.524,5.357
	c0.007-0.014-0.01,0.115-0.081,0.181c-0.21,0.172-0.44,0.32-0.666,0.471c-4.527,3.012-9.633,4.391-14.947,4.673
	c-7.252,0.383-14.523,0.477-21.787,0.494c-8.692,0.02-17.385-0.481-26.01,1.254c-14.695,2.956-27.876,9.024-39.298,18.771
	c-1.316,1.123-2.442,2.531-3.424,3.966c-0.959,1.401-0.859,2.953,0.41,4.222c6.456,6.459,12.902,12.93,19.418,19.329
	c1.516,1.488,2.599,1.479,4.484,0.366c1.18-0.698,2.316-1.485,3.414-2.308c9.917-7.437,20.917-12.048,33.386-12.841
	c7.803-0.497,15.619-0.825,23.404-1.516c6.73-0.598,13.458-1.402,20.127-2.481c6.81-1.102,12.916-4.241,18.929-7.481
	c0.049-0.026,0.093-0.036,0.141-0.06V290.617z"/>
<path style="fill:#FF0000;" d="M322.56,302.021c-16.464-13.996-35.456-21.07-57.124-20.867c-8.919,0.084-17.84,0.137-26.757-0.015
	c-4.957-0.085-9.896-0.751-14.531-2.682c-1.905-0.793-3.673-1.913-5.789-3.034c4.679-1.258,8.844-2.26,12.935-3.503
	c8.069-2.452,15.78-5.778,23.18-9.832c2.465-1.351,3.569-3.355,3.183-6.128c-0.204-1.47-0.454-2.939-0.806-4.38
	c-2.032-8.337-4.062-16.674-6.186-24.988c-0.438-1.714-0.044-2.829,1.417-3.749c0.973-0.614,1.855-1.379,2.75-2.109
	c10.123-8.262,16.293-18.958,18.231-31.756c2.036-13.445-1.314-25.873-8.899-37.174c-5.39-8.029-12.46-14.384-20.098-20.123
	c-9.853-7.402-19.873-14.583-29.789-21.903c-3.675-2.714-3.622-2.76-0.351-6.075c5.558-5.633,7.528-12.325,4.951-19.838
	c-2.704-7.882-8.391-12.694-16.764-13.763c-0.288-0.037-0.576-0.062-0.863-0.085v10.396c4.453,0.583,8.307,4.812,8.299,9.396
	c-0.008,4.499-3.931,8.791-8.299,9.397v42.755c1.843,0.501,3.519,2.038,3.639,3.815c0.29,4.28,0.433,8.574,0.492,12.865
	c0.02,1.483,0.424,1.987,1.95,1.998c4.126,0.029,8.257,0.137,12.374,0.404c2.641,0.171,4.574,2.487,4.498,4.974
	c-0.08,2.586-2.159,4.696-4.863,4.822c-4.235,0.196-8.473,0.325-12.708,0.494c-0.37,0.014-0.736,0.114-1.284,0.202
	c0,3.514,0.046,6.972-0.02,10.427c-0.029,1.476-0.191,2.967-0.474,4.416c-0.424,2.174-1.571,3.268-3.605,3.55v28.827
	c4.356,0.049,8.728,0.285,13.115,0.673c7.495,0.664,14.695,2.665,21.851,4.867c2.046,0.63,3.532,1.918,4.069,3.971
	c1.502,5.741,2.883,11.513,4.297,17.277c0.059,0.241-0.028,0.518-0.08,1.255c-14.027-5.586-28.235-9.128-43.253-9.286v39.234
	c2.107,0.231,4.147,1.088,5.759,2.575c5.466,5.041,11.815,8.427,18.987,10.553c5.876,1.742,11.822,1.863,17.811,1.953
	c9.195,0.139,18.392,0.304,27.588,0.254c12.393-0.067,23.539,3.886,34.009,10.148c2.487,1.487,4.868,3.15,7.4,4.798
	c-0.371,0.47-0.573,0.782-0.83,1.04c-2.837,2.848-5.706,5.666-8.51,8.547c-0.736,0.756-1.277,0.955-2.224,0.296
	c-7.469-5.192-15.605-8.992-24.393-11.333c-6.463-1.722-13.096-2.35-19.751-2.749c-9.233-0.554-18.482-0.924-27.695-1.71
	c-8.451-0.721-16.281-3.588-23.513-8.037c-0.702-0.432-1.404-0.868-2.076-1.346c-0.858-0.609-1.71-0.987-2.562-1.172v11.878
	c0.091,0.041,0.177,0.062,0.271,0.112c2.568,1.369,5.171,2.682,7.817,3.893c8.706,3.982,18.013,5.254,27.437,5.901
	c9.393,0.645,18.796,1.145,28.186,1.815c8.287,0.592,16.156,2.789,23.35,6.985c4.076,2.378,7.921,5.149,11.891,7.711
	c2.38,1.536,3.391,1.611,5.428-0.341c6.395-6.131,12.692-12.366,18.958-18.63c0.585-0.585,0.863-1.633,0.976-2.506
	C325.885,304.908,324.203,303.418,322.56,302.021z"/>
</svg>
