<svg width="400" height="400" viewBox="0 0 400 400" fill="none" xmlns="http://www.w3.org/2000/svg">
<path style="fill:#FF0000;" d="M199.901,330c-28.771,0-57.542,0-86.433,0c-4.675,0-8.631-1.531-12.827-3.266
	c-3.716-1.531-6.593-3.776-9.351-6.226c-4.316-3.776-6.473-8.675-6.953-13.881c-0.24-3.266,0-6.634,0.48-9.9
	c1.199-7.655,5.395-14.493,8.991-21.433c3.237-6.328,6.354-12.656,9.59-18.984c2.398-4.695,5.035-9.39,7.552-14.085
	c2.158-3.98,4.076-8.063,6.114-12.043c2.398-4.593,4.795-9.186,7.313-13.779c2.158-4.185,4.316-8.267,6.473-12.452
	c2.517-4.695,5.035-9.288,7.552-13.983c2.158-4.083,4.076-8.165,6.234-12.248c2.038-3.98,4.076-7.859,6.114-11.839
	c1.678-3.266,3.117-6.532,5.155-9.594c1.558-2.245,1.439-4.593,1.439-6.94c0-14.289,0-28.578,0-42.764
	c0-1.429-0.839-2.041-2.038-2.245c-6.833-1.225-11.269-5.001-13.786-10.104c-2.517-5.103-2.158-10.41,1.319-15.412
	c3.357-4.797,8.272-7.553,14.625-8.573c0.719-0.102,1.319-0.204,2.038-0.204c27.213,0,54.425-0.102,81.637,0
	c7.672,0,15.225,4.593,18.102,10.819c2.038,4.491,2.278,9.084-0.12,13.472c-2.637,5.001-6.953,8.573-13.426,9.9
	c-1.798,0.408-2.997,0.817-2.997,3.062c0.24,15.105,0,30.313,0.24,45.418c0,2.347,1.678,4.797,2.877,7.144
	c1.558,3.266,3.476,6.328,5.155,9.594c2.517,4.695,4.915,9.492,7.432,14.289c2.158,4.083,4.196,8.063,6.354,12.043
	c2.997,5.716,6.114,11.329,9.111,17.045c2.757,5.205,5.395,10.513,8.152,15.82c2.517,4.797,5.035,9.696,7.552,14.493
	c2.038,3.98,4.196,7.859,6.234,11.839c1.798,3.47,3.716,6.94,5.514,10.512c2.038,4.083,3.956,8.267,5.994,12.35
	c1.678,3.47,3.836,6.838,5.155,10.308c2.517,6.328,4.076,12.758,2.877,19.698c-1.319,7.757-5.994,13.574-13.546,17.759
	c-4.675,2.552-9.83,4.389-15.704,4.389C257.323,330,228.672,330,199.901,330z M205.535,320.61
	C205.535,320.712,205.535,320.712,205.535,320.61c8.511,0.102,16.903,0.102,25.414,0.102c17.742,0,35.364-0.102,53.106,0
	c3.716,0,7.073-0.612,10.429-2.041c6.833-3.062,10.31-7.859,10.43-14.289c0-2.041-0.24-4.185-0.719-6.226
	c-0.719-3.062-1.439-6.124-2.757-8.982c-2.757-5.92-5.994-11.635-8.991-17.453c-0.959-1.837-1.678-3.878-2.637-5.716
	c-2.877-5.511-5.874-10.921-8.871-16.432c-1.678-3.164-3.237-6.328-4.915-9.39c-2.877-5.511-5.874-11.125-8.751-16.636
	c-1.678-3.266-3.237-6.532-5.035-9.696c-2.877-5.511-5.754-11.023-8.751-16.534c-1.678-3.266-3.237-6.532-5.035-9.798
	c-2.997-5.716-5.994-11.329-8.991-17.045c-1.678-3.164-3.476-6.43-5.155-9.696c-1.319-2.756-2.637-5.409-2.637-8.675
	c0.24-17.045,0.12-34.089,0.12-51.134c0-1.633-0.599-3.98,0.36-4.797c1.079-0.817,3.716-0.204,5.634-0.306
	c2.038-0.102,4.316,0,6.114-0.612c4.316-1.531,6.114-4.491,5.874-8.573c-0.24-3.47-4.555-7.042-8.272-7.042
	c-27.332,0-54.665,0-81.997,0c-1.199,0-2.398,0.306-3.476,0.714c-3.956,1.735-5.155,4.593-5.035,8.369
	c0.12,2.858,3.716,6.43,7.193,6.736c2.517,0.204,5.035,0.408,7.552,0.306c1.918,0,2.517,0.51,2.517,2.143
	c0,17.657,0,35.314,0,52.869c0,2.756-0.12,5.307-1.678,7.859c-2.398,3.98-4.196,8.165-6.354,12.145
	c-2.877,5.409-5.754,10.717-8.631,16.126c-3.117,5.818-6.114,11.635-9.111,17.453c-3.117,5.92-6.114,11.737-9.231,17.657
	c-2.997,5.818-6.114,11.635-9.111,17.453c-3.117,5.92-6.114,11.839-9.231,17.759c-2.637,5.205-5.395,10.308-8.032,15.514
	c-2.637,5.205-5.514,10.41-8.032,15.718c-2.398,5.205-4.316,10.512-3.836,16.228c0.36,4.899,2.398,9.186,7.313,12.043
	c2.398,1.429,5.035,2.858,7.792,3.266c4.675,0.612,9.59,0.51,14.385,0.51C151.47,320.712,178.563,320.61,205.535,320.61z
	 M200.021,311.425c-22.417,0-44.835,0.102-67.252-0.102c-7.552-0.102-13.307-3.47-17.023-9.084
	c-3.476-5.103-3.117-10.615-1.079-15.922c1.798-4.899,4.316-9.594,6.713-14.289c2.757-5.409,5.514-10.819,8.392-16.228
	c2.517-4.797,5.035-9.594,7.552-14.391c2.517-4.797,4.915-9.492,7.432-14.289c2.038-3.878,3.956-7.757,6.114-11.635
	c0.24-0.408,1.319-0.817,2.038-0.817c5.634-0.102,11.388,0.204,17.023-0.102c6.234-0.306,12.587-0.714,18.701-1.939
	c7.912-1.531,15.584-3.776,23.256-5.92c4.555-1.225,8.871-3.266,13.426-4.287c3.117-0.714,6.593-0.612,9.95-0.714
	c1.798-0.102,3.596,0.306,5.275,0.204c1.439-0.102,2.038,0.612,2.517,1.531c2.517,4.899,5.155,9.798,7.792,14.799
	c3.237,6.226,6.354,12.452,9.59,18.678c2.517,4.797,5.155,9.492,7.672,14.289c2.038,3.98,3.956,7.961,5.994,11.941
	c2.158,4.083,4.555,8.165,6.593,12.35c3.117,6.328,6.713,12.656,5.994,19.902c-0.599,5.613-3.596,10.002-9.351,13.064
	c-4.316,2.245-8.871,2.96-13.786,2.96C242.218,311.425,221.12,311.425,200.021,311.425z
	 M219.167,122.011h-21.653c-0.6,0-1.087-0.486-1.087-1.087v-7.261c0-0.6,0.486-1.087,1.087-1.087
	h21.653c0.6,0,1.087,0.486,1.087,1.087v7.261C220.254,121.525,219.767,122.011,219.167,122.011z
	 M219.167,145.107h-21.653c-0.6,0-1.087-0.486-1.087-1.087v-7.261c0-0.6,0.486-1.087,1.087-1.087
	h21.653c0.6,0,1.087,0.486,1.087,1.087v7.261C220.254,144.62,219.767,145.107,219.167,145.107z
	 M219.167,166.734h-21.653c-0.6,0-1.087-0.486-1.087-1.087v-7.261c0-0.6,0.486-1.087,1.087-1.087
	h21.653c0.6,0,1.087,0.486,1.087,1.087v7.261C220.254,166.247,219.767,166.734,219.167,166.734z"/>
</svg>
