<svg width="400" height="400" viewBox="0 0 400 400" fill="none" xmlns="http://www.w3.org/2000/svg">
<path style="fill:#0000FF;" d="M80.07,273.782c1.495,3.036,1.227,7.156,0.215,9.49l-1.307,3.016l-0.585-3.235
	c-0.21-1.16-0.344-2.184-0.463-3.088c-0.465-3.551-0.622-4.748-3.825-5.668c-3.741-1.074-5.859-2.465-6.666-4.376
	c-0.625-1.481-0.408-3.228,0.647-5.192l1.79,0.867c-0.401,0.923-0.247,1.435-0.097,1.741c0.719,1.459,3.87,2.4,6.177,2.981
	C77.755,270.77,79.178,271.968,80.07,273.782z M198.75,214.011c-1.877,1.274-3.89,2.636-6.034,4.086l-0.114,0.077
	c-21.629,14.631-54.214,36.671-62.176,45.961c-10.075,11.758-11.506,17.04-12.89,22.149l-0.351,1.284
	c-1.814,6.501-4.149,12.667-8.921,13.765c-0.986,0.226-1.358,0.692-1.921,1.397c-0.852,1.065-2.271,2.841-5.609,1.715
	c-1.011-0.342-1.667-0.135-2.66,0.176c-0.695,0.219-1.542,0.485-2.531,0.485c-0.672,0-1.409-0.122-2.208-0.468
	c-0.577-0.252-1.138-0.594-1.718-1.046c-0.84-0.657-1.402-1.238-1.898-1.75c-0.615-0.639-0.973-1.011-1.608-1.286
	c-1.382-0.6-4.23-0.811-9.239-0.689c-1.636,0.037-3.051-0.189-4.203-0.69c-5.962-2.584-3.126-10.46-1.916-13.822
	c0.157-0.434,0.292-0.805,0.387-1.104c0.361-1.13,0.856-2.676-4.473-5.104c-8.373-3.817-7.214-8.393-5.747-14.187
	c0.12-0.473,0.244-0.963,0.369-1.473c-1.164-1.085-2.116-2.794-2.716-4.895c-0.771-2.708-0.969-6.503,0.788-9.036
	c2.057-2.965,4.375-4.322,6.16-4.939c0.064-2.199,0.533-5.455,2.59-7.148c1.225-1.01,2.861-1.31,4.606-0.84
	c3.924,1.058,11.076,2.228,14.88-1.811l0.299-0.32l0.41-0.16c2.462-0.975,3.95-0.875,5.39-0.775
	c1.659,0.117,3.534,0.243,8.356-1.682l0.448-0.121c14.715-2.122,39.306-14.754,71.168-36.55
	c-14.489-11.19-49.219-37.831-60.534-38.932c-2.101,2.234-5.782,3.432-8.986,2.87c-1.458-0.255-2.706-0.856-3.598-1.72
	c-0.667,0.356-1.367,0.694-2.091,1.007c-8.972,3.889-26.871,5.864-37.037-11.41c-3.545-6.025-4.354-12.479-2.339-18.664
	c2.187-6.713,7.692-12.68,14.368-15.573c1.951-0.846,3.971-1.394,5.88-1.596c0.507-1.056,1.442-1.914,2.696-2.457
	c1.78-0.772,3.806-0.735,5.384,0.083c0.825-0.251,2.026-1.373,2.568-2.709c0.109-0.27,0.248-1.072,0.359-1.717
	c0.475-2.744,1.269-7.335,4.994-8.95c1.221-0.53,2.632-0.673,4.19-0.43c4.269,0.667,6.226,2.053,7.52,2.97
	c0.142,0.101,0.438,0.31,0.611,0.412c3.979-1.529,12.079,4.923,13.18,6.115c1.036,1.122,1.62,2.528,2.089,3.658
	c0.084,0.202,0.265,0.639,0.411,0.943c1.56,0.432,2.473,2.658,4.236,6.965c0.587,1.433,1.951,4.761,2.415,5.26l0.1,0.086
	c11.302,11.303,37.633,33.787,66.665,55.46v6.652c-31.605,23.217-65.795,44.958-87.835,50.877l-5.655,5.204
	c-1.831,1.684-4.2,2.286-6.492,2.868c-1.851,0.469-3.766,0.956-5.383,2.012c-1.451,0.948-3.167,1.588-4.827,2.206
	c-2.831,1.055-5.759,2.146-7.524,4.802l-1.343,2.02c0.051-0.005,0.102-0.008,0.153-0.008c0.112,0,0.224,0.014,0.339,0.044
	c0.543,0.142,0.789,0.571,0.937,0.828c0.165,0.288,0.371,0.646,1.152,1.028c0.577,0.282,0.548,0.375,0.66,0.423
	c0.77,0.326,2.087-1.018,2.611-1.593l0.676,0.292c5.44,2.358,22.322-5.33,28.371-8.491c0.905,0.022,1.81,0.043,2.715,0.065
	c0.751-0.447,1.502-0.893,2.253-1.34l0.25-0.116c23.881-7.297,42.358-20.636,61.919-34.759c5.516-3.982,11.189-8.067,17.023-12.04
	V214.011z M186.308,187.768l0.008,0.007c3.422-2.436,6.92-4.969,10.422-7.548c-29.316-21.844-55.994-44.611-67.349-55.962
	c-1.012-0.845-1.927-2.991-3.449-6.707c-0.526-1.284-1.543-3.764-2.085-4.699c-1.398-0.404-2.034-1.935-2.555-3.192
	c-0.367-0.886-0.783-1.889-1.347-2.5c-1.984-2.149-7.705-5.334-8.822-5.146c-1.961,0.855-3.288-0.087-4.356-0.843
	c-1.117-0.79-2.504-1.771-5.858-2.295c-0.811-0.127-1.493-0.075-2.026,0.154c-1.422,0.616-2.045,2.662-2.444,4.679
	c0.827,1.384,1.269,2.68,1.319,3.87c5.289,0.857,6.779,3.603,8.102,6.042c1.714,3.159,3.332,6.142,13.823,5.619
	c0.497,0.027,0.993,0.054,1.49,0.081c3.126-0.141,6.566,4.402,10.944,10.144c3.23,4.238,6.571,8.619,9.733,10.897
	c3.065,2.208,8.573,6.994,14.404,12.06c9.242,8.029,19.716,17.129,24.527,19.633l1.854,0.965l-1.917,0.831
	c-3.685,1.6-14.035-6.995-29.397-20.289c-4.896-4.237-9.124-7.896-11.673-9.73c-4.695-3.377-7.904-8.216-11.007-12.894
	c-2.585-3.898-5.027-7.579-8.023-9.826c-0.24,0.035-0.479,0.069-0.719,0.104c-12.668,2.159-14.672-1.612-16.61-5.26
	c-1.258-2.366-2.351-4.423-6.652-5.076c-0.075,0.085-0.153,0.169-0.234,0.249l-1.28,0.94c-1.633,0.887-3.712,1.089-5.279,0.633
	c-0.377,0.068-0.707,0.089-1.021,0.074c-0.303,0.016-0.644-0.051-0.945-0.104c-0.592-0.106-1.06-0.191-1.934,0.196
	c-0.536,0.237-0.829,1.354-0.881,1.827l-0.052,0.228c-1.07,3.027,0.934,4.745,4.113,7.021c2.04,1.46,4.326,3.097,3.778,5.382
	c0.657,0.3,1.327,0.594,2.004,0.883l0.057-1.589c6.268-0.384,9.956,1.568,11.57,6.14c6.06,2.37,12.893,5.318,18.21,10.126
	c9.934,9.574,21.293,16.973,33.319,24.807C167.556,173.874,177.362,180.262,186.308,187.768z M66.047,250.06l0.18,0.721
	c0.041,0.164,0.082,0.328,0.123,0.492l0.558,2.229c0.354,1.417,2.036,3.622,2.998,4.766c1.633-0.36,3.29-0.446,4.451-0.45
	l3.917-0.013c-1.01-0.236-1.97-0.596-2.639-1.063c-0.633-0.442-1.232-0.86-0.94-1.632c0.286-0.757,1.066-0.669,1.361-0.635
	c0.483,0.053,1.382,0.155,2.219-0.345c0.199-0.12,0.387-0.228,0.565-0.32l0.377-2.986c0.479-3.792,4.376-5.323,7.813-6.673
	c1.56-0.613,3.033-1.191,4.161-1.928c2.178-1.422,4.696-1.945,7.13-2.451c2.085-0.433,4.055-0.842,5.796-1.77l6.675-3.562
	c-1.932,0.515-3.768,0.907-5.503,1.168c-5.498,2.167-7.914,2.001-9.856,1.868c-1.149-0.078-1.917-0.13-3.313,0.367
	c-4.969,4.88-12.745,4.099-18.424,2.573c-0.752-0.202-1,0.001-1.094,0.08c-0.857,0.705-1.181,3.041-1.169,4.781l0.302,0.507
	c0.088,0.148,0.177,0.306,0.27,0.472c0.552,0.988,1.239,2.216,3.351,3.582l-0.909,1.76c-0.096-0.039-2.271-0.928-4.585-3.535
	l-0.069,0.011C68.966,248.198,67.545,248.629,66.047,250.06z M108.178,257.233c-4.888,4.161-9.766,9.424-10.294,14.861
	C101.61,267.797,105.03,262.857,108.178,257.233z M112.079,249.974c-6.559,3.938-20.581,11.391-28.239,8.284l-1.096-0.446
	c-0.012,0.007-0.024,0.014-0.037,0.02c-0.599,0.32-1.856,0.372-3.2,0.195l-4.81,1.721c-3.042,1.088-4.995,2.107-6.279,3.28
	c-0.216,0.594-0.617,1.175-1.007,1.74c-0.279,0.405-0.628,0.909-0.688,1.149c-1.474,5.817-1.823,7.2,3.569,9.657
	c2.544,1.16,8.499,3.877,6.585,9.867c-0.107,0.332-0.253,0.738-0.42,1.204c-0.283,0.783-0.519,1.48-0.715,2.111
	c1.593-0.709,3.172-1.497,4.714-2.353c0.944-1.284,2.176-2.025,3.669-2.208c3.605-2.351,6.982-5.09,10.152-8.239
	c-0.73-0.128-1.429-0.43-1.962-0.817c-0.96-0.696-1.416-1.659-1.251-2.64c0.321-1.9-1.027-2.871-2.688-3.858
	c-0.871-0.518-1.623-0.965-1.527-1.85c0.094-0.879,1.011-1.186,1.403-1.317c3.616-1.208,12.877-7.601,20.319-12.738
	c1.062-0.733,2.087-1.441,3.057-2.107C111.764,250.403,111.915,250.184,112.079,249.974z"/>
<path style="fill:#FF0000;" d="M332.478,244.615c-0.062-2.197-0.531-5.45-2.588-7.144c-0.71-0.588-2.255-1.479-4.607-0.843
	c-3.925,1.058-11.078,2.227-14.88-1.813l-0.301-0.319l-0.405-0.158c-2.469-0.975-3.959-0.871-5.399-0.776
	c-1.654,0.117-3.524,0.245-8.348-1.682l-0.449-0.121c-14.711-2.122-39.302-14.754-71.165-36.552
	c14.488-11.189,49.217-37.83,60.531-38.929c2.101,2.234,5.781,3.433,8.984,2.87c1.459-0.255,2.707-0.855,3.601-1.719
	c0.668,0.357,1.369,0.694,2.091,1.007c8.973,3.891,26.87,5.866,37.036-11.41c3.546-6.028,4.356-12.482,2.34-18.665
	c-2.187-6.712-7.692-12.68-14.366-15.573c-1.949-0.845-3.969-1.393-5.882-1.596c-0.507-1.057-1.443-1.915-2.695-2.457
	c-1.78-0.772-3.806-0.734-5.385,0.083c-0.825-0.25-2.026-1.373-2.568-2.706c-0.109-0.27-0.248-1.073-0.359-1.72
	c-0.475-2.743-1.27-7.335-4.994-8.95c-1.22-0.528-2.63-0.673-4.19-0.431c-4.263,0.667-6.22,2.05-7.521,2.97
	c-0.143,0.101-0.439,0.311-0.612,0.413c-3.877-1.62-12.07,4.914-13.178,6.114c-1.031,1.114-1.613,2.513-2.089,3.659
	c-0.076,0.184-0.263,0.634-0.41,0.942c-1.56,0.431-2.474,2.661-4.248,6.996c-0.581,1.417-1.942,4.733-2.406,5.228l-0.141,0.126
	c-11.261,11.265-37.59,33.749-66.622,55.421v4.809c30.165-22.328,57.596-45.665,69.297-57.364c1.077-0.906,1.99-3.051,3.528-6.808
	c0.556-1.353,1.535-3.738,2.069-4.656c1.399-0.404,2.036-1.936,2.558-3.198c0.367-0.884,0.782-1.886,1.345-2.494
	c1.985-2.15,7.703-5.348,8.776-5.162c2.003,0.869,3.335-0.07,4.402-0.826c1.112-0.789,2.497-1.77,5.859-2.296
	c0.813-0.126,1.493-0.075,2.022,0.154c1.423,0.617,2.047,2.664,2.447,4.681c-0.828,1.384-1.269,2.68-1.318,3.87
	c-5.289,0.857-6.779,3.603-8.101,6.042c-1.714,3.158-3.338,6.138-13.823,5.618c-0.497,0.027-0.994,0.054-1.49,0.081
	c-3.109-0.142-6.567,4.402-10.943,10.144c-3.231,4.238-6.571,8.619-9.734,10.897c-3.065,2.209-8.575,6.995-14.407,12.063
	c-9.24,8.028-19.713,17.126-24.524,19.63l-1.853,0.965l1.917,0.831c3.678,1.596,14.031-6.994,29.392-20.286
	c4.898-4.238,9.127-7.899,11.677-9.733c4.695-3.377,7.903-8.215,11.007-12.893c2.585-3.898,5.027-7.58,8.023-9.827l0.72,0.103
	c12.669,2.16,14.672-1.613,16.61-5.259c1.247-2.345,2.331-4.386,6.539-5.058c0.543,0.391,1.085,0.782,1.627,1.173
	c1.631,0.884,3.707,1.087,5.275,0.63c0.373,0.068,0.689,0.093,0.943,0.075c0.367,0.015,0.721-0.052,1.023-0.106
	c0.593-0.105,1.061-0.19,1.935,0.197c0.537,0.238,0.831,1.354,0.881,1.823l0.052,0.231c1.07,3.027-0.935,4.745-4.115,7.021
	c-2.04,1.46-4.327,3.096-3.778,5.382c-0.658,0.3-1.326,0.594-2.003,0.883l-0.057-1.589c-6.273-0.384-9.956,1.569-11.569,6.14
	c-6.06,2.37-12.893,5.318-18.234,10.147c-9.911,9.553-21.27,16.952-33.296,24.786c-9.483,6.177-19.289,12.565-28.234,20.071
	l-0.102,0.098c-0.978,1.092-2.865,2.193-4.863,3.359c-1.875,1.095-3.813,2.226-5.421,3.565c-0.691,0.455-1.369,0.922-2.055,1.381
	v17.84c1.911,1.297,3.969,2.689,6.178,4.183c21.575,14.593,54.179,36.646,62.145,45.939c10.078,11.759,11.507,17.041,12.89,22.152
	l0.353,1.283c1.812,6.499,4.148,12.665,8.92,13.763c0.988,0.226,1.36,0.693,1.924,1.4c0.847,1.062,2.268,2.842,5.607,1.712
	c1.012-0.341,1.668-0.135,2.659,0.176c1.168,0.368,2.769,0.87,4.742,0.016c0.571-0.25,1.132-0.591,1.716-1.045
	c0.839-0.657,1.402-1.238,1.923-1.775c0.594-0.617,0.952-0.988,1.584-1.262c1.382-0.599,4.236-0.81,9.236-0.688
	c1.641,0.039,3.054-0.189,4.205-0.689c5.967-2.586,3.125-10.466,1.911-13.831c-0.154-0.427-0.288-0.798-0.384-1.097
	c-0.36-1.129-0.854-2.675,4.474-5.104c8.372-3.816,7.213-8.391,5.745-14.19c-0.12-0.47-0.243-0.959-0.368-1.469
	c1.165-1.086,2.117-2.795,2.717-4.895v-0.001c0.771-2.706,0.969-6.501-0.789-9.036C336.581,246.59,334.263,245.233,332.478,244.615z
	 M294.709,235.607c5.498,2.167,7.911,2,9.858,1.868c1.142-0.081,1.912-0.131,3.312,0.367c4.967,4.879,12.742,4.099,18.423,2.573
	c0.746-0.204,0.998,0.002,1.091,0.079c0.858,0.705,1.182,3.04,1.172,4.783l-0.302,0.505c-0.089,0.149-0.178,0.307-0.271,0.474
	c-0.553,0.987-1.241,2.216-3.351,3.581l0.909,1.76c0.096-0.039,2.272-0.928,4.585-3.535l0.071,0.011
	c0.828,0.123,2.248,0.553,3.747,1.987l-0.181,0.721c-0.041,0.164-0.082,0.328-0.123,0.493l-0.557,2.226
	c-0.356,1.418-2.037,3.622-3,4.767c-1.632-0.36-3.289-0.446-4.451-0.45l-3.917-0.013c1.01-0.236,1.97-0.595,2.64-1.062l0.001-0.001
	c0.633-0.442,1.23-0.861,0.939-1.632c-0.286-0.757-1.069-0.669-1.361-0.635c-0.484,0.052-1.383,0.154-2.218-0.345
	c-0.199-0.12-0.387-0.228-0.565-0.32l-0.377-2.986c-0.479-3.792-4.375-5.323-7.813-6.673c-1.56-0.613-3.033-1.191-4.161-1.928
	c-2.179-1.422-4.696-1.945-7.131-2.451c-2.085-0.433-4.055-0.842-5.796-1.77l-6.674-3.561
	C291.128,234.951,292.966,235.345,294.709,235.607z M282.692,246.106c-0.75-0.446-1.501-0.893-2.251-1.339l-0.25-0.116
	c-23.886-7.299-42.37-20.641-61.938-34.768c-2.222-1.603-4.451-3.212-6.695-4.817c1.781-1.347,4.175-3.202,7.071-5.446l2.484-1.925
	c20.902,14.345,48.554,31.503,67.974,36.712l5.653,5.202c1.83,1.685,4.199,2.287,6.491,2.869c1.851,0.47,3.765,0.956,5.383,2.012
	c1.452,0.948,3.167,1.588,4.827,2.206c2.831,1.055,5.759,2.146,7.524,4.802l1.344,2.02c-0.164-0.015-0.326-0.008-0.492,0.036
	c-0.544,0.142-0.79,0.571-0.938,0.828c-0.165,0.288-0.37,0.646-1.151,1.028c-0.299,0.146-1.094,0.533-1.108,1.345v0.027
	l-2.166-2.542l-0.675,0.292c-5.438,2.355-22.32-5.33-28.37-8.491C284.504,246.063,283.598,246.085,282.692,246.106z
	 M291.821,257.233c4.888,4.161,9.766,9.424,10.294,14.861C298.39,267.797,294.969,262.857,291.821,257.233z M329.706,275.575
	c-2.543,1.161-8.499,3.879-6.584,9.87c0.109,0.337,0.257,0.754,0.43,1.231c0.275,0.765,0.507,1.452,0.702,2.081
	c-1.593-0.709-3.17-1.496-4.711-2.351c-0.943-1.284-2.176-2.026-3.67-2.209c-3.605-2.351-6.982-5.09-10.152-8.239
	c0.73-0.128,1.429-0.43,1.962-0.817c0.96-0.696,1.416-1.659,1.25-2.64c-0.321-1.9,1.028-2.871,2.688-3.858
	c0.871-0.518,1.623-0.965,1.527-1.85c-0.094-0.879-1.011-1.186-1.403-1.317c-3.615-1.208-12.877-7.601-20.318-12.738
	c-1.062-0.733-2.088-1.441-3.058-2.107c-0.136-0.227-0.287-0.446-0.452-0.657c6.558,3.937,20.59,11.394,28.241,8.286l1.097-0.446
	c0.012,0.007,0.023,0.014,0.036,0.02c0.6,0.32,1.859,0.372,3.2,0.195l4.81,1.721c3.042,1.088,4.995,2.107,6.279,3.28
	c0.216,0.594,0.617,1.176,1.008,1.741c0.28,0.405,0.628,0.909,0.688,1.148C334.75,271.736,335.1,273.117,329.706,275.575z
	 M331.913,264.728c1.054,1.965,1.273,3.712,0.648,5.192c-0.807,1.911-2.926,3.303-6.665,4.376c-3.203,0.92-3.36,2.117-3.826,5.668
	c-0.119,0.904-0.253,1.928-0.463,3.088l-0.586,3.234l-1.307-3.015c-1.011-2.334-1.28-6.453,0.215-9.49
	c0.893-1.813,2.315-3.012,4.114-3.465c2.308-0.581,5.459-1.522,6.178-2.982c0.151-0.305,0.304-0.817-0.096-1.741L331.913,264.728z"
	/>
</svg>
