<svg width="400" height="400" viewBox="0 0 400 400" fill="none" xmlns="http://www.w3.org/2000/svg">
<path style="fill:#0000FF;" d="M349.857,253.844c-0.362-2.15-1.315-4.035-2.893-5.593c-1.208-1.193-2.598-2.066-4.197-2.599
	c-0.878-0.293-1.795-0.409-2.715-0.546c-0.916-0.136-1.8-0.038-2.669,0.104c-1.054,0.17-2.078,0.528-3.247,0.84
	c-0.55-0.406-1.212-0.896-1.893-1.401c0.267-0.391,0.515-0.754,0.764-1.115c1.796-2.605,3.211-5.406,4.296-8.376
	c0.814-2.225,1.485-4.49,1.881-6.83c0.168-0.988,0.343-1.976,0.467-2.97c0.144-1.154,0.308-2.312,0.335-3.471
	c0.044-1.91,0.105-3.828-0.217-5.727c-0.191-1.121-0.346-2.247-0.559-3.363c-0.344-1.797-0.907-3.533-1.566-5.237
	c-0.859-2.221-1.928-4.34-3.199-6.356c-0.92-1.46-1.88-2.891-3.013-4.199c-0.93-1.074-1.815-2.192-2.788-3.226
	c-1.459-1.551-2.998-3.025-4.677-4.343c-1.298-1.019-2.561-2.087-3.906-3.04c-2.725-1.931-5.58-3.651-8.53-5.225
	c-2.68-1.429-5.432-2.69-8.235-3.846c-3.132-1.292-6.333-2.392-9.581-3.362c-4.19-1.25-8.447-2.213-12.748-2.977
	c-1.901-0.337-3.82-0.578-5.735-0.828c-1.173-0.154-2.353-0.259-3.531-0.356c-1.204-0.099-2.409-0.186-3.616-0.234
	c-1.427-0.058-2.858-0.109-4.286-0.089c-1.72,0.024-3.439,0.105-5.155,0.204c-1.473,0.085-2.945,0.207-4.414,0.353
	c-1.289,0.129-2.582,0.26-3.857,0.486c-1.813,0.319-3.61,0.726-5.431,1.099c0.06-0.049,0.113-0.097,0.168-0.14
	c1.006-0.794,2.047-1.545,3.006-2.389c1.126-0.992,2.088-2.147,2.935-3.39c1.373-2.017,2.202-4.241,2.426-6.672
	c0.108-1.167-0.001-2.342-0.248-3.483c-0.56-2.59-1.823-4.838-3.581-6.793c-1.315-1.464-2.78-2.777-4.422-3.885
	c-1.23-0.829-2.462-1.649-3.81-2.283c-1.273-0.598-2.51-1.276-3.805-1.817c-1.489-0.622-3.015-1.161-4.543-1.684
	c-1.344-0.46-2.699-0.899-4.073-1.255c-2.106-0.546-4.226-1.041-6.352-1.505c-1.355-0.295-2.728-0.511-4.099-0.73
	c-0.954-0.153-1.916-0.255-2.875-0.372c-1.287-0.157-2.574-0.311-3.862-0.459c-0.463-0.053-0.927-0.086-1.391-0.129
	c-0.812-0.076-1.622-0.16-2.435-0.223c-0.699-0.054-1.399-0.083-2.099-0.125c-1.304-0.077-2.606-0.155-3.91-0.231
	c-0.623-0.037-1.247-0.101-1.872-0.103c-3.389-0.01-6.778-0.026-10.167,0.007c-1.482,0.015-2.963,0.139-4.445,0.213
	c-0.857,0.042-1.716,0.075-2.572,0.123c-0.544,0.03-1.088,0.071-1.63,0.127c-1.023,0.105-2.043,0.23-3.065,0.336
	c-0.867,0.09-1.74,0.135-2.604,0.251c-1.262,0.167-2.521,0.372-3.778,0.575c-1.669,0.271-3.344,0.523-5.003,0.845
	c-1.415,0.275-2.816,0.626-4.219,0.966c-2.376,0.575-4.708,1.302-7.012,2.114c-3.208,1.13-6.302,2.513-9.201,4.309
	c-1.581,0.979-3.071,2.085-4.446,3.334c-0.981,0.892-1.859,1.886-2.633,2.969c-1.904,2.662-2.958,5.566-2.696,8.895
	c0.084,1.071,0.272,2.104,0.607,3.114c0.585,1.761,1.493,3.342,2.681,4.769c1.114,1.339,2.346,2.552,3.732,3.609
	c0.431,0.328,0.857,0.661,1.286,0.992c-1.032-0.147-2.021-0.389-3.021-0.57c-1.765-0.319-3.533-0.625-5.307-0.891
	c-1.091-0.164-2.193-0.269-3.293-0.351c-1.439-0.108-2.882-0.225-4.324-0.233c-2.191-0.013-4.383,0.045-6.573,0.11
	c-1.343,0.04-2.686,0.132-4.025,0.233c-1.199,0.091-2.396,0.217-3.591,0.348c-1.326,0.145-2.655,0.275-3.972,0.483
	c-1.771,0.28-3.537,0.594-5.294,0.952c-3.279,0.668-6.523,1.49-9.722,2.471c-4.306,1.319-8.522,2.876-12.614,4.773
	c-3.332,1.545-6.57,3.251-9.686,5.193c-3.699,2.305-7.158,4.931-10.306,7.94c-1.536,1.468-2.957,3.066-4.335,4.686
	c-1.314,1.545-2.445,3.234-3.505,4.971c-1.78,2.914-3.14,6.003-4.056,9.289c-0.436,1.561-0.801,3.138-0.948,4.758
	c-0.113,1.237-0.281,2.471-0.336,3.71c-0.071,1.578,0.008,3.157,0.219,4.728c0.136,1.015,0.187,2.046,0.375,3.05
	c0.388,2.081,0.851,4.145,1.501,6.166c1.14,3.546,2.677,6.896,4.778,9.98c0.555,0.815,1.131,1.615,1.707,2.434
	c1.535,1.885,3.79,4.326,6.892,6.736c0.63,0.489,2.672,2.092,5.668,3.72c3.568,1.939,7.315,3.439,11.237,4.517
	c2.714,0.746,5.448,1.368,8.24,1.725c1.535,0.196,3.067,0.424,4.607,0.573c1.338,0.129,2.686,0.228,4.029,0.232
	c2.484,0.007,4.969-0.066,7.453-0.105c0.058-0.001,0.117-0.011,0.175-0.016c0.773-0.073,1.547-0.149,2.32-0.216
	c0.581-0.049,1.166-0.061,1.744-0.134c1.074-0.134,2.145-0.291,3.214-0.456c1.507-0.231,3.025-0.41,4.513-0.733
	c2.479-0.536,4.962-1.089,7.403-1.779c4.037-1.141,7.976-2.563,11.809-4.286c3.25-1.461,6.388-3.117,9.412-4.998
	c2.037-1.267,4-2.644,5.878-4.132c1.175-0.93,2.32-1.905,3.407-2.935c2.148-2.037,4.198-4.172,6.02-6.605
	c1.756,1.211,3.473,2.396,5.212,3.596c-0.123,0.135-0.212,0.214-0.278,0.309c-1.048,1.506-2.267,2.87-3.52,4.203
	c-0.616,0.654-1.313,1.23-1.956,1.859c-1.226,1.2-2.591,2.221-3.998,3.198c-1.039,0.722-1.47,1.815-1.097,2.998
	c0.474,1.506,2.072,2.356,3.496,1.362c1.476-1.03,2.905-2.141,4.265-3.32c1.476-1.28,2.847-2.682,4.101-4.189
	c1.181-1.418,2.386-2.816,3.542-4.254c1.831-2.277,3.435-4.714,4.92-7.227c1.743-2.948,3.241-6.017,4.484-9.209
	c0.995-2.555,1.845-5.155,2.453-7.829c0.328-1.444,0.639-2.892,0.918-4.345c0.165-0.854,0.276-1.719,0.369-2.583
	c0.105-0.983,0.17-1.972,0.243-2.959c0.084-1.147,0.213-2.294,0.221-3.44c0.012-1.739-0.046-3.48-0.111-5.219
	c-0.038-1.029-0.116-2.058-0.233-3.081c-0.165-1.438-0.37-2.872-0.581-4.305c-0.323-2.194-0.868-4.338-1.533-6.45
	c-0.906-2.878-2.022-5.667-3.634-8.235c-0.686-1.094-1.399-2.171-2.122-3.288c0-0.211-0.005-0.465,0.001-0.72
	c0.036-1.462-0.538-2.638-1.683-3.531c-1.064-0.83-2.233-1.058-3.541-0.632c-1.684,0.549-2.859,2.243-2.873,4.042
	c-0.005,0.645,0.151,1.291,0.233,1.937c-3.984,0.41-11.341-0.015-12.666-0.742c0.351-0.805,0.263-1.34-0.357-1.945
	c-0.419-0.409-0.852-0.807-1.303-1.18c-0.556-0.461-1.316-0.434-1.864,0.042c-0.162,0.14-0.304,0.305-0.446,0.466
	c-0.297,0.335-0.588,0.675-0.904,1.037c-0.251-0.129-0.434-0.236-0.626-0.319c-2.826-1.247-5.469-2.79-7.837-4.792
	c-1.651-1.396-3.091-2.956-4.118-4.875c-1.331-2.487-1.646-5.087-0.935-7.82c0.61-2.343,1.979-4.225,3.613-5.93
	c1.064-1.11,2.281-2.057,3.56-2.916c3.213-2.158,6.68-3.801,10.348-5.017c2.757-0.914,5.548-1.692,8.413-2.218
	c1.348-0.248,2.688-0.517,4.051-0.678c1.458-0.173,2.911-0.386,4.368-0.577c0.423-0.055,0.848-0.096,1.272-0.142
	c0.636-0.071,1.27-0.151,1.907-0.207c0.64-0.056,1.282-0.076,1.922-0.131c1.211-0.104,2.419-0.237,3.632-0.325
	c0.97-0.071,1.944-0.101,2.917-0.132c1.486-0.047,2.972-0.096,4.459-0.117c1.391-0.019,2.782-0.024,4.173,0
	c3.226,0.056,6.452-0.114,9.679,0.102c2.102,0.141,4.211,0.169,6.316,0.248c0.078,0.003,0.157,0.007,0.234,0.014
	c1.258,0.112,2.516,0.227,3.774,0.338c0.967,0.084,1.937,0.138,2.9,0.25c1.094,0.127,2.181,0.301,3.272,0.455
	c1.147,0.162,2.302,0.279,3.439,0.495c1.834,0.349,3.664,0.728,5.48,1.162c1.609,0.385,3.213,0.81,4.787,1.319
	c1.314,0.426,2.592,0.976,3.867,1.513c2.102,0.886,4.133,1.917,6.045,3.165c2.175,1.419,4.196,3.018,5.76,5.129
	c1.774,2.393,2.815,4.997,2.449,8.052c-0.137,1.146-0.423,2.234-0.903,3.275c-0.629,1.364-1.486,2.565-2.487,3.689
	c-0.979,1.1-2.098,2.02-3.26,2.904c-1.931,1.469-4.052,2.607-6.234,3.642c-0.535,0.254-1.077,0.492-1.598,0.728
	c-0.706-0.683-1.176-1.501-1.979-1.901c-0.618-0.077-1.114,0.041-1.533,0.484c-0.375,0.396-0.811,0.733-1.203,1.113
	c-0.566,0.55-0.562,1.187-0.211,1.859c-4.2,0.831-8.402,0.718-12.623,0.503c0.027-0.145,0.035-0.281,0.078-0.403
	c0.305-0.852,0.297-1.723,0.074-2.575c-0.428-1.628-1.684-3.014-3.561-3.213c-1.512-0.161-2.71,0.534-3.598,1.74
	c-0.631,0.856-0.883,1.838-0.821,2.898c0.024,0.406-0.078,0.735-0.351,1.066c-0.428,0.521-0.789,1.099-1.155,1.668
	c-1.827,2.846-3.195,5.905-4.196,9.131c-0.616,1.987-1.14,3.997-1.477,6.053c-0.137,0.837-0.318,1.667-0.449,2.505
	c-0.107,0.688-0.183,1.382-0.246,2.076c-0.059,0.658-0.079,1.319-0.126,1.979c-0.073,1.03-0.191,2.057-0.224,3.088
	c-0.071,2.2,0.038,4.397,0.227,6.59c0.111,1.291,0.201,2.585,0.364,3.869c0.145,1.147,0.336,2.292,0.582,3.421
	c0.418,1.917,0.836,3.837,1.362,5.726c0.766,2.748,1.799,5.404,2.976,8.006c1.649,3.649,3.601,7.126,5.903,10.397
	c1.204,1.71,2.498,3.359,3.81,4.989c1.026,1.274,2.104,2.509,3.229,3.696c1.263,1.332,2.535,2.664,4.001,3.783
	c1.079,0.824,2.152,1.655,3.268,2.426c0.459,0.317,1.005,0.411,1.606,0.238c0.538-0.155,0.946-0.443,1.279-0.849
	c0.885-1.078,0.718-2.748-0.312-3.569c-1.181-0.94-2.473-1.741-3.58-2.781c-0.783-0.736-1.602-1.436-2.348-2.208
	c-0.894-0.924-1.741-1.896-2.584-2.868c-0.479-0.554-0.911-1.148-1.368-1.73c1.884-1.292,3.723-2.554,5.57-3.821
	c0.299,0.349,0.55,0.644,0.801,0.938c0.912,1.064,1.786,2.165,2.746,3.184c1.487,1.577,3.057,3.074,4.759,4.426
	c0.999,0.795,1.965,1.633,2.995,2.382c2.469,1.792,5.048,3.414,7.725,4.881c3.64,1.994,7.417,3.685,11.31,5.118
	c2.908,1.07,5.873,1.967,8.876,2.723c1.995,0.501,4.01,0.927,6.033,1.301c1.668,0.309,3.36,0.503,5.044,0.725
	c1.325,0.175,2.652,0.347,3.982,0.461c1.398,0.119,2.803,0.226,4.205,0.231c2.445,0.009,4.89-0.06,7.335-0.109
	c0.564-0.012,1.128-0.062,1.689-0.123c0.943-0.103,1.883-0.225,2.825-0.343c0.978-0.121,1.966-0.198,2.933-0.378
	c1.666-0.31,3.327-0.65,4.976-1.04c2.721-0.644,5.376-1.506,7.971-2.554c2.187-0.884,4.321-1.88,6.333-3.108
	c1.501-0.916,2.954-1.918,4.381-2.947c1.036-0.747,1.996-1.602,3.03-2.441c0.522,0.401,1.064,0.817,1.586,1.218
	c-0.058,0.172-0.089,0.285-0.134,0.392c-0.734,1.76-0.989,3.589-0.667,5.468c0.441,2.574,1.718,4.695,3.727,6.34
	c2.033,1.665,4.434,2.401,7.033,2.439c0.899,0.013,1.821-0.136,2.699-0.349c2.776-0.672,5.023-2.166,6.622-4.552
	C349.708,258.934,350.299,256.477,349.857,253.844z M109.826,255.249c-1.201,0.27-2.413,0.499-3.627,0.7
	c-0.591,0.098-1.2,0.099-1.801,0.13c-0.897,0.046-1.795,0.129-2.691,0.107c-1.186-0.029-2.375-0.106-3.556-0.231
	c-1.498-0.159-3.003-0.318-4.481-0.601c-2.496-0.477-4.938-1.174-7.333-2.031c-4.378-1.567-8.485-3.667-12.285-6.342
	c-1.716-1.209-3.404-2.467-4.87-3.991c-0.841-0.874-1.757-1.678-2.559-2.586c-1.283-1.456-2.465-2.995-3.496-4.646
	c-1.531-2.452-2.738-5.045-3.506-7.838c-0.363-1.319-0.631-2.653-0.807-4.011c-0.184-1.417-0.269-2.836-0.214-4.258l0,0
	c0-0.001,0-0.002,0-0.003c0.004-0.098,0.011-0.195,0.015-0.294c0.041-0.917,0.108-1.834,0.252-2.742
	c0.053-0.335,0.116-0.669,0.192-1.002c0.311-1.37,0.527-2.773,0.967-4.1c0.833-2.514,1.837-4.969,3.243-7.23
	c0.975-1.568,1.983-3.115,2.982-4.668c0.114-0.177,0.268-0.328,0.468-0.472c0,0.001-0.001,0.003-0.002,0.004
	c0.001,0,0.001-0.001,0.002-0.001c-0.044,0.125-0.08,0.254-0.132,0.375c-1.03,2.47-2.003,4.957-2.598,7.578
	c-0.195,0.862-0.499,1.701-0.673,2.567c-0.209,1.042-0.312,2.106-0.496,3.154c-0.318,1.811-0.374,3.635-0.361,5.46
	c0.003,0.445,0.012,0.889,0.02,1.335c0.003,0.164,0.004,0.327,0.008,0.49c0.019,0.982,0.226,1.961,0.328,2.943
	c0.161,1.559,0.517,3.078,0.946,4.58c0.624,2.18,1.467,4.27,2.531,6.275c0.898,1.693,1.919,3.307,3.111,4.799
	c1.216,1.522,2.497,2.988,3.979,4.28c1.565,1.364,3.16,2.677,4.899,3.808c2.077,1.352,4.254,2.52,6.533,3.5
	c2.783,1.198,5.658,2.125,8.605,2.812c1.311,0.306,2.644,0.532,3.977,0.736c1.3,0.199,2.608,0.347,3.918,0.474
	c1.142,0.11,2.29,0.204,3.436,0.227c1.839,0.037,3.679,0.019,5.517,0.005c0.584-0.005,1.166-0.074,1.749-0.11
	c0.069-0.005,0.138,0.01,0.208,0.015c0.007,0.039,0.015,0.075,0.022,0.11C111.44,254.789,110.643,255.062,109.826,255.249z
	 M158.518,177.333c1.923,0.328,3.841,0.548,5.765,0.701c3.423,0.272,6.861,0.326,10.363,0.353c0.469,0.726,0.989,1.471,1.45,2.252
	c1.81,3.078,3.006,6.397,3.776,9.869c0.275,1.239,0.42,2.507,0.618,3.762c0.237,1.501,0.243,3.022,0.388,4.527
	c0.181,1.869-0.054,3.714-0.056,5.57c-0.001,1.021-0.208,2.041-0.317,3.062c-0.077,0.724-0.128,1.451-0.226,2.172
	c-0.107,0.786-0.225,1.572-0.393,2.346c-0.411,1.901-0.796,3.81-1.296,5.688c-0.974,3.652-2.201,7.223-3.78,10.661
	c-0.912,1.986-1.904,3.934-2.896,5.974l0,0c0,0,0,0.001-0.001,0.001c-1.751-1.208-3.42-2.358-5.095-3.514
	c1.888-3.169,3.445-6.414,4.672-9.816c0.882-2.445,1.567-4.947,2.044-7.499c0.237-1.271,0.368-2.566,0.481-3.855
	c0.121-1.378,0.217-2.763,0.226-4.146c0.008-1.029-0.148-2.058-0.215-3.087c-0.138-2.165-0.585-4.272-1.175-6.352
	c-1.043-3.677-2.746-7.032-5.012-10.095c-1.125-1.518-2.366-2.951-3.758-4.236c-1.585-1.463-3.267-2.81-5.072-3.999
	C158.865,177.577,158.725,177.476,158.518,177.333c0,0.001,0.001,0.001,0.002,0.001
	C158.519,177.334,158.519,177.334,158.518,177.333z M223.211,230.763c-1.805,1.251-3.607,2.502-5.487,3.806
	c-0.93-1.877-1.885-3.744-2.787-5.638c-1.178-2.473-2.142-5.033-2.983-7.639c-0.846-2.622-1.589-5.271-2.084-7.984
	c-0.273-1.496-0.568-2.989-0.803-4.491c-0.135-0.86-0.142-1.74-0.256-2.604c-0.342-2.607-0.224-5.227-0.218-7.843
	c0.002-0.89,0.135-1.781,0.217-2.671c0.076-0.829,0.112-1.667,0.257-2.483c0.227-1.286,0.512-2.565,0.808-3.837
	c0.557-2.4,1.386-4.711,2.505-6.902c0.031-0.061,0.057-0.125,0.089-0.186c0.657-1.264,1.455-2.456,2.192-3.679
	c0.048-0.081,0.128-0.144,0.159-0.178c2.798-0.059,5.555-0.126,8.313-0.176c2.718-0.047,5.409-0.345,8.121-0.743
	c-0.001,0.001-0.002,0.002-0.003,0.002c0.001,0,0.002,0,0.002,0c-0.39,0.27-0.782,0.538-1.169,0.812
	c-1.88,1.33-3.603,2.837-5.21,4.489c-1.659,1.705-3.097,3.568-4.332,5.598c-0.408,0.672-0.793,1.354-1.15,2.047
	c-1.07,2.081-1.902,4.261-2.455,6.554c-0.329,1.365-0.608,2.747-0.817,4.134c-0.277,1.835-0.263,3.692-0.256,5.546
	c0.005,1.541,0.159,3.063,0.345,4.59c0.504,4.137,1.672,8.092,3.23,11.935c0.959,2.367,2.113,4.646,3.403,6.853
	C222.958,230.273,223.061,230.481,223.211,230.763C223.212,230.761,223.211,230.762,223.211,230.763
	C223.211,230.762,223.211,230.763,223.211,230.763z M290.385,255.71c-1.358,0.29-2.73,0.491-4.118,0.624
	c-1.994,0.193-3.985,0.133-5.974,0.074c-1.252-0.038-2.498-0.283-3.745-0.443c-4.242-0.547-8.322-1.723-12.325-3.189
	c-3.088-1.131-6.068-2.509-8.975-4.046c-2.867-1.516-5.631-3.2-8.261-5.095c-1.458-1.051-2.907-2.121-4.3-3.257
	c-1.208-0.984-2.345-2.058-3.486-3.12c-0.773-0.719-1.503-1.485-2.245-2.237c-2.52-2.551-4.713-5.358-6.647-8.377
	c-0.499-0.78-0.974-1.572-1.422-2.375c-1.374-2.464-2.494-5.044-3.283-7.775c-0.391-1.351-0.747-2.718-1.007-4.1
	c-0.185-0.986-0.184-2.007-0.265-3.013c-0.039-0.486-0.11-0.972-0.111-1.457c-0.003-1.519,0.137-3.027,0.332-4.536
	c0.5-3.872,1.822-7.459,3.657-10.877c0.235-0.437,0.498-0.86,0.856-1.251c-0.001,0.003-0.002,0.006-0.003,0.01
	c0.002-0.002,0.003-0.004,0.005-0.006c-0.145,0.568-0.314,1.13-0.431,1.704c-0.235,1.15-0.432,2.307-0.662,3.458
	c-0.339,1.688-0.356,3.406-0.418,5.113c-0.044,1.184,0.103,2.375,0.187,3.561c0.059,0.831,0.11,1.667,0.248,2.486
	c0.207,1.232,0.442,2.462,0.744,3.674c0.588,2.358,1.346,4.667,2.325,6.891c0.35,0.796,0.719,1.583,1.105,2.359
	c1.162,2.331,2.494,4.568,4.028,6.686c0.951,1.314,1.935,2.608,2.949,3.875c0.657,0.821,1.377,1.595,2.106,2.355
	c0.975,1.016,1.958,2.027,2.989,2.985c1.213,1.125,2.469,2.204,3.729,3.275c2.422,2.059,5.043,3.847,7.752,5.5
	c2.339,1.426,4.76,2.703,7.256,3.84c2.864,1.305,5.793,2.43,8.811,3.326c2.008,0.597,4.03,1.135,6.096,1.496
	c1.329,0.232,2.653,0.499,3.987,0.687c0.979,0.137,1.971,0.195,2.959,0.247c1.832,0.096,3.665,0.188,5.499,0.226
	c0.853,0.018,1.708-0.093,2.562-0.146c0,0.001,0,0.003,0.001,0.004h0.001c0.007,0.045,0.015,0.093,0.024,0.141
	C292.073,255.245,291.24,255.527,290.385,255.71z M346.158,257.164c-0.413,1.089-1.047,2.047-1.845,2.866
	c-1.323,1.359-2.922,2.291-4.81,2.621c-2.07,0.361-3.975-0.099-5.628-1.4c-1.169-0.921-1.969-2.085-2.242-3.611
	c-0.241-1.345,0.077-2.56,0.543-3.792c0.131,0.044,0.259,0.087,0.387,0.127c0.382,0.118,0.759,0.199,1.189,0.132
	c0.744-0.115,1.23-0.53,1.659-1.067c0.458-0.574,0.895-1.164,1.328-1.757c0.372-0.51,0.617-1.068,0.572-1.723
	c-0.008-0.105-0.008-0.212-0.007-0.325s0.005-0.234,0.005-0.371c0.49-0.144,0.958-0.322,1.444-0.418
	c1.543-0.303,3.005-0.022,4.371,0.726c1.472,0.806,2.618,1.964,3.171,3.552c0.126,0.361,0.214,0.725,0.268,1.09
	C346.732,254.928,346.578,256.058,346.158,257.164z"/>
</svg>
