<svg width="400" height="400" viewBox="0 0 400 400" fill="none" xmlns="http://www.w3.org/2000/svg">
<path style="fill:#FFEE00;" d="M311.866,181.03c4.749,2.056,6.979,0.647,8.055-5.091c0.874-4.66-6.167-7.324-9.532-3.606
	C307.349,175.693,307.969,179.343,311.866,181.03z
	 M50.588,159.928c-0.914,1.709-0.95,1.628,1.245,2.769c2.414,1.254,3.665-0.605,1.832-2.721
	C51.959,158.01,51.618,158.005,50.588,159.928z
	 M69.033,167.227l-0.672-0.479c-0.389-0.225-0.86-0.362-1.303-0.311
	c-0.044,0.004-0.043,0.004,0.001,0.001c-0.042,0.008-0.084,0.017-0.125,0.027c-0.082,0.02-0.164,0.045-0.243,0.076
	c0.068-0.027-0.127,0.065-0.149,0.077c-0.08,0.044-0.157,0.093-0.232,0.144c-0.059,0.04-0.113,0.087-0.17,0.129l-0.724,1.222
	c-0.262,0.442-0.55,0.902-0.836,1.343c-0.341,0.932-0.386,1.937-0.405,2.94c0.041,0.221,0.087,0.442,0.12,0.664
	c0.001,0.004,0,0.008,0,0.012c0.047,0.082,0.094,0.164,0.144,0.243c0.042,0.065,0.084,0.13,0.127,0.194
	c0.009,0.013,0.069,0.097,0.085,0.121c0.023,0.024,0.08,0.088,0.089,0.098c0.028,0.03,0.056,0.06,0.084,0.089
	c0.202,0.084,0.411,0.171,0.647,0.27l0.642,0.266c0.105,0.029,0.211,0.053,0.313,0.093c0.008,0.003,0.015,0.007,0.022,0.01
	c0.015,0.006,0.031,0.005,0.046,0.011c0.731,0.331,1.542,0.294,2.179-0.159c0.073-0.052,0.182-0.141,0.289-0.228l1.079-1.517
	C72.138,169.619,72.098,169.41,69.033,167.227z
	 M90.893,181.684c-0.581-4.468-5.145-7.171-9.114-5.4c-3.139,1.401-2.925,6.433,0.409,9.627
	l0.958,0.918c0.068,0.04,0.131,0.085,0.202,0.12c0.342,0.167,0.716,0.267,1.096,0.256c0.408-0.011,0.804-0.127,1.196-0.23
	c0.298-0.078,0.587-0.174,0.877-0.266l1.188-0.541C91.21,184.573,91.26,184.503,90.893,181.684z
	 M331.394,210.185c-0.002-0.013-0.004-0.026-0.007-0.039c-0.012-0.065-0.033-0.127-0.052-0.19
	c-0.326-0.208-0.65-0.418-0.985-0.615c-1.472-0.453-4.192-2.126-4.933-3.178c-2.2-3.123-30.604-17.563-34.545-17.563
	c-1.57,0-0.741-2.495,2.423-7.298c3.811-5.786,7.279-12.552,8.532-16.648c0.496-1.62,1.367-3.984,1.936-5.253
	c3.646-8.129,3.182-14.576-1.134-15.737c-3.711-1-19.653,0.195-24.71,1.852c-5.46,1.79-9.189,2.453-9.644,1.717
	c-0.326-0.527,0.41-4.853,1.151-7.634c0.219-0.991,0.509-1.96,0.826-2.924c0.247-1.079,0.598-2.133,0.938-3.188
	c0.009-0.057,0.019-0.113,0.027-0.17c0.163-1.132,0.57-2.527,1.044-3.761c0.057-0.234,0.116-0.466,0.173-0.7
	c0.025-0.207,0.049-0.414,0.074-0.621c0.163-1.36,0.35-2.703,0.393-4.074c0.044-1.409,0.137-2.926-0.154-4.312
	c-0.151-0.717-0.377-1.412-0.589-2.112l-3.348,0.5c-5.973,0.891-15.283,5.356-25.152,12.06c-10.215,6.938-11.481,7.841-13.373,9.536
	c-2.777,2.487-4.474,1.87-5.731-2.079c-7.387-23.216-11.712-33.224-17.037-39.43c-4.975-5.797-4.858-5.8-8.434,0.203
	c-6.95,11.664-13.269,26.267-15.548,35.931c-1.561,6.624-1.023,6.553-7.321,0.963c-13.194-11.714-20.556-16.482-31.654-20.507
	c-2.025-0.735-5.076-2.028-6.779-2.874c-3.8-1.888-3.619-1.894-4.262,0.12c-0.292,0.911-0.699,2.154-0.905,2.763
	c-2.011,5.92,0.929,24.235,5.468,34.067c1.955,4.234,1.923,5.968-0.078,4.306c-0.79-0.654-6.319-0.826-21.201-0.657
	c-21.065,0.238-20.043,0.104-24.804,3.263c-0.138,0.092,0.609,1.429,1.657,2.973c1.049,1.544,1.908,3.051,1.908,3.349
	c0,2.577,10.679,17.08,17.248,23.422c6.558,6.332,7.108,8.747,2.122,9.318c-6.324,0.723-14.093,2.343-15.319,3.193
	c-0.754,0.522-10.391,4.302-15.204,5.963c-1.473,0.51-3.408,1.476-4.301,2.149l-1.621,1.223l1.989,2.364
	c3.974,4.723,10.74,9.353,25.953,17.762c8.002,4.423,8.146,4.9,2.595,8.584c-2.32,1.54-4.724,3.221-5.341,3.735
	c-7.976,6.637-22.36,17.494-24.496,18.487c-3.637,1.692-3.518,2.007,1.454,3.828c2.33,0.854,4.734,1.756,5.341,2.006
	c1.9,0.781,2.396,0.903,9.947,2.44c4.052,0.824,8.031,1.667,8.841,1.872c10.037,2.542,29.892,3.013,44.683,1.061
	c9.426-1.244,9.653-1.135,8.013,3.836c-2.387,7.235-4.66,29.392-3.113,30.348s16.417-7.525,25.457-14.518
	c6.575-5.086,5.857-4.947,20.005-3.888c4.483,0.335,8.421,0.167,12.157-0.519c3.039-0.558,6.087-0.818,6.773-0.577
	c0.091,0.032,0.213,0.107,0.357,0.216c0.211,0.115,0.403,0.268,0.624,0.421c0.442,0.308,0.869,0.565,1.253,0.95
	c0.337,0.339,0.654,0.695,0.959,1.063c0.143,0.136,0.293,0.268,0.428,0.41c0.409,0.432,0.815,0.858,1.145,1.351
	c0.493,0.505,0.955,1.042,1.422,1.569c0.346,0.391,0.692,0.781,1.036,1.173c0.075,0.067,0.146,0.138,0.222,0.204
	c0.333,0.287,0.691,0.548,0.998,0.864c0.287,0.296,0.552,0.611,0.874,0.871c0.068,0.055,0.113,0.124,0.141,0.2
	c0.46,0.39,0.921,0.778,1.371,1.189c0.789,0.72,1.614,1.378,2.389,2.117c0.804,0.767,1.681,1.474,2.556,2.158
	c0.898,0.703,1.85,1.323,2.707,2.078c0.794,0.7,1.612,1.325,2.447,1.973c0.562,0.436,1.148,0.824,1.728,1.224
	c0.092,0.047,0.183,0.097,0.275,0.144c0.913,0.463,1.8,0.939,2.779,1.252c0.003,0.001,0.006,0.002,0.009,0.003
	c0.029,0.005,0.059,0.008,0.085,0.017c0.241,0.009,0.479,0.043,0.717,0.072c0.096-0.025,0.193-0.047,0.291-0.05
	c0.005,0,0.009,0.002,0.014,0.002c0.04-0.015,0.086-0.021,0.132-0.027c0.031-0.016,0.061-0.032,0.092-0.049
	c0.039-0.068,0.092-0.125,0.159-0.171c1.484-4.153,0.792-21.207-1.466-26.856c-4.157-10.404-3.543-10.83,12.428-8.64
	c11.931,1.636,34.624,1.662,43.35,0.05c11.057-2.043,22.224-6.218,22.224-8.31c0-2.925-10.185-14.517-16.853-19.184
	c-9.166-6.415-9.713-7.321-5.599-9.283c4.644-2.215,15.21-9.477,26.121-17.955c2.342-1.82,4.065-3.326,5.082-4.395
	c0.025-0.048,0.059-0.091,0.078-0.141c0.007-0.021,0.014-0.043,0.018-0.055c0.015-0.044,0.028-0.088,0.039-0.133
	c0.008-0.032,0.013-0.064,0.019-0.096c0.003-0.071,0.008-0.141,0.005-0.213C331.403,210.279,331.398,210.232,331.394,210.185z
	 M277.114,190.7c0.206,0.332-0.006,1.84-0.47,3.35c-1.027,3.349-5.63,7.173-17.881,14.857c-2.195,1.377-22.769,11.897-23.784,12.161
	c-0.291,0.076-0.862,0.235-1.267,0.354c-12.401,3.645-19.823,1.252-15.885-5.121c0.935-1.513,1.338-2.999,1.031-3.8
	c-0.412-1.074-0.245-1.213,0.912-0.755c4.362,1.731,6.037,0.833,7.613-4.079c1.224-3.819,6.585-8.286,11.855-9.879
	c0.203-0.061,1.583-0.654,3.067-1.317s4.634-1.376,6.999-1.586c2.366-0.208,7.558-1.317,11.537-2.465
	C267.901,190.385,276.366,189.49,277.114,190.7z M214.556,223.966c0.356-0.577,0.78-0.62,1.271-0.129
	c0.406,0.406,0.497,1.127,0.203,1.602c-0.357,0.577-0.78,0.62-1.272,0.128C214.353,225.162,214.262,224.441,214.556,223.966z
	 M213.369,208.54c-1.231,2.482-2.39,4.358-2.577,4.17c-0.439-0.439,2.567-8.562,3.871-10.459c0.549-0.799,0.998-2.032,0.998-2.74
	c0-0.841,0.383-1.14,1.106-0.863c0.607,0.233,1.105,0.813,1.105,1.287s-0.51,1.59-1.133,2.479S214.6,206.06,213.369,208.54z
	 M215.495,213.779c-0.405-0.405-0.497-1.126-0.203-1.602c0.357-0.577,0.781-0.619,1.272-0.128c0.405,0.405,0.497,1.126,0.203,1.602
	C216.41,214.227,215.986,214.27,215.495,213.779z M125.93,232.173c-0.741-2.223,14.599-7.046,23.42-7.362
	c1.824-0.066,6.393-0.491,10.155-0.944c3.761-0.455,8.111-0.655,9.668-0.446c1.557,0.208,3.287,0.09,3.845-0.263
	c0.782-0.496,0.686-0.646-0.41-0.655c-0.784-0.005-2.94-0.715-4.789-1.576c-10.04-4.669-14.869-7.176-18.961-9.842
	c-2.499-1.628-6.46-4.121-8.802-5.539c-4.314-2.613-11.335-8.549-11.335-9.584c0-3.208,34.659-1.883,39.236,1.502
	c2.025,1.497,2.099,1.499,3.819,0.146l1.755-1.38l-2.465-1.966c-4.734-3.778-19.99-25.512-22.178-31.254
	c-0.013-0.018-0.028-0.034-0.038-0.054c-0.044-0.085-0.08-0.174-0.112-0.263c-0.009-0.026-0.016-0.052-0.021-0.079
	c-0.018-0.094-0.036-0.191-0.037-0.288c0-0.092,0.012-0.186,0.036-0.274c0.001-0.004,0.003-0.005,0.004-0.009
	c0.031-0.303,0.193-0.589,0.524-0.679c0.104-0.053,0.224-0.089,0.368-0.089c0.052,0,0.091,0.02,0.138,0.028c0,0,0.001,0,0.001,0
	c0.019,0,0.034,0.007,0.051,0.01c0.052,0.003,0.106-0.003,0.157,0.009c0.203,0.049,0.41,0.085,0.613,0.134
	c0.051,0.012,0.097,0.037,0.147,0.052c0.008,0.001,0.016,0.002,0.025,0.003c0.01,0.006,0.024,0.012,0.035,0.018
	c0.153,0.048,0.304,0.102,0.454,0.16c0.018,0.004,0.037-0.002,0.055,0.003c0.171,0.047,0.332,0.123,0.493,0.196
	c0.134,0.05,0.271,0.092,0.403,0.148c0.214,0.089,0.424,0.186,0.637,0.276c-0.064-0.027-0.129-0.054-0.193-0.082
	c0.091,0.038,0.178,0.081,0.269,0.119c0.446,0.137,0.923,0.27,1.417,0.39c5.682,1.372,18.511,8.188,22.32,11.859
	c3.408,3.286,4.409,5.41,6.593,13.999c0.464,1.824,1.818,5.697,3.01,8.605c3.434,8.391,2.804,12.355-1.14,7.184
	c-2.684-3.518-8.578-4.811-8.467-1.856c0.064,1.681,2.879,3.973,3.87,3.15c0.894-0.741,1.593-0.213,4.087,3.09
	c3.019,3.999,8.233,8.676,10.618,9.525c0.776,0.276,1.107,0.899,0.843,1.587c-0.24,0.624-0.069,1.133,0.38,1.133
	c0.449,0,0.816,0.332,0.816,0.737c0,0.406-0.497,0.738-1.106,0.738c-0.608,0-1.065-0.25-1.018-0.553
	c0.217-1.371-0.164-1.942-0.714-1.075c-0.461,0.728-1.843,0.251-5.86-2.025c-2.891-1.638-5.571-2.979-5.955-2.979
	c-0.873,0-3.205,5.975-2.893,7.412c0.24,1.105-1.057,1.234-3.268,0.328c-0.709-0.291-1.29-0.217-1.29,0.166
	c0,1.23,7.919,4.619,10.822,4.631c3.689,0.015,4.276,0.465,6.078,4.669c2.03,4.737,1.958,5.17-0.767,4.625
	c-1.522-0.305-2.992-0.041-4.398,0.79c-2.97,1.754-3.328,0.855-1.143-2.873l1.881-3.209l-4.007,0.061
	c-4.912,0.076-5.205,0.339-3.677,3.294c1.748,3.377,1.84,3.332-9.21,4.512C158.05,241.619,127.222,236.047,125.93,232.173z
	 M190.611,201.493c0-2.057,1.784-2.539,2.5-0.676c0.746,1.947,0.514,2.519-1.027,2.519
	C191.003,203.336,190.611,202.845,190.611,201.493z M195.436,233.484c0.425-0.687,3.838-0.363,4.64,0.439
	c0.673,0.671-0.789,1.647-2.466,1.647C195.558,235.57,194.673,234.72,195.436,233.484z M195.107,230.815
	c-0.945,0.945-1.904,0.215-1.204-0.918c0.271-0.439,0.831-0.59,1.243-0.335C195.649,229.874,195.637,230.286,195.107,230.815z
	 M190.449,225.439c-4.518,0-8.537-3.035-5.18-3.912c0.709-0.186,1.386-0.376,1.503-0.423s1.504,0.572,3.081,1.378
	C194.008,224.601,194.178,225.439,190.449,225.439z M201.989,246.622c-0.04,7.393-0.192,8.193-2.283,12.018
	c-3.311,6.057-5.276,9.408-6.453,10.96c-0.018,0.088-0.038,0.174-0.085,0.268c-0.048,0.096-0.112,0.183-0.174,0.271
	c-0.046,0.065-0.091,0.13-0.135,0.196c0,0,0,0.001,0,0.001c-0.172,0.322-0.388,0.616-0.615,0.902
	c-0.099,0.145-0.205,0.286-0.292,0.438c-0.004,0.008-0.01,0.015-0.015,0.022c-0.021,0.033-0.025,0.075-0.053,0.104
	c-0.282,0.695-0.691,1.327-1.169,1.912c-3.986,7.044-25.951,25.101-31.895,25.575l-2.47,0.197l0.207-3.316
	c0.306-4.868,1.72-13.517,2.35-14.367c0.3-0.405,0.946-2.375,1.436-4.379c1.903-7.794,6.919-14.414,13.5-17.817
	c2.437-1.26,11.509-8.15,15.294-11.616c4.076-3.732,11.348-9.289,12.157-9.289C201.742,238.702,202.014,241.806,201.989,246.622z
	 M206.713,205.009c1.868-3.491,1.772-7.873-0.211-9.597c-3.518-3.057-3.958-0.973-1.911,9.029c1.415,6.91-1.05,11.645-2.973,5.71
	c-0.492-1.52-1.856-4.684-3.032-7.032c-1.592-3.184-2.022-4.873-1.691-6.641c0.66-3.517-2.57-6.591-4.803-4.569
	c-0.815,0.736-1.481,2.117-1.481,3.068c0,5.847-3.531-1.605-4.11-8.678c-0.246-2.989-0.88-6.472-1.408-7.739
	c-1.267-3.033-2.365-26.062-1.243-26.062c1.626,0,9.662,10.534,10.903,14.293c0.683,2.067,1.67,4.421,2.193,5.232
	c0.523,0.81,1.844,4.622,2.934,8.472c2.947,10.406,3.525,11.157,5.862,7.59c0.891-1.359,1.035-2.078,0.454-2.272
	c-3.522-1.174,5.8-23.114,13.452-31.658c3.396-3.793,3.917-3.25,4.513,4.716c0.293,3.911,0.365,10.074,0.158,13.697
	c-0.366,6.418-0.343,6.538,0.887,4.664c2.246-3.425,13.792-11.213,26.733-18.033c8.953-4.718,10.222-4.916,8.003-1.247
	c-0.758,1.255-2.471,4.436-3.805,7.071c-6.267,12.373-33.525,44.944-37.614,44.944c-1.341,0-1.599-2.391-0.467-4.319
	c0.629-1.069,1.523-3.436,1.989-5.26c0.466-1.823,1.055-3.812,1.31-4.421c0.256-0.607,0.55-1.602,0.654-2.21
	c0.104-0.607,0.419-2.348,0.701-3.868c0.593-3.204-0.828-3.95-1.609-0.842c-0.445,1.776-0.701,1.885-3.411,1.451
	c-3.941-0.629-4.976,0.378-4.976,4.848c0,3.688-2.43,9.717-4.666,11.571C206.64,208.086,205.748,206.811,206.713,205.009z
	 M210.559,224.168c-0.091,0.881-1.101,0.71-1.418-0.239c-0.163-0.486,0.103-0.751,0.589-0.59
	C210.216,223.501,210.589,223.875,210.559,224.168z M244.049,294.512c0.442,6.831,0.308,8.782-0.904,8.076
	c-0.016-0.002-0.027-0.004-0.027-0.004c-0.003-0.001-0.007-0.001-0.01-0.002c-0.004-0.001-0.008-0.003-0.012-0.004
	c-0.004-0.002-0.009-0.004-0.013-0.005c-0.022-0.008-0.044-0.016-0.064-0.027c-0.027-0.011-0.054-0.022-0.08-0.034
	c-0.012-0.005-0.023-0.013-0.034-0.019c-0.005-0.002-0.011-0.001-0.016-0.002c-0.054-0.015-0.095-0.054-0.141-0.082
	c-0.018-0.008-0.038-0.007-0.055-0.018c-0.022-0.016-0.04-0.034-0.062-0.05c-0.001-0.001-0.002-0.002-0.004-0.003
	c-0.002-0.002-0.005-0.002-0.007-0.004l-0.003-0.003c-0.044-0.033-0.089-0.069-0.109-0.085c-0.01-0.008-0.019-0.016-0.028-0.024
	c-0.004-0.004-0.009-0.008-0.013-0.012c-0.003-0.003-0.006-0.005-0.009-0.007c-0.012-0.005-0.026-0.003-0.038-0.01
	c-0.038-0.029-0.076-0.059-0.114-0.088c-0.21-0.101-0.416-0.21-0.608-0.341c-0.263-0.179-0.521-0.376-0.739-0.609
	c-0.03-0.033-0.046-0.071-0.068-0.107c-0.028-0.02-0.056-0.039-0.083-0.059c-0.178-0.133-0.359-0.262-0.541-0.389
	c-0.044-0.023-0.083-0.052-0.128-0.074c-0.022-0.015-0.045-0.029-0.067-0.043c-0.156-0.133-0.315-0.263-0.473-0.393
	c-0.042-0.012-0.088-0.012-0.127-0.034c-0.041-0.032-0.082-0.063-0.123-0.095c-0.03-0.03-0.04-0.073-0.062-0.107
	c-0.001,0-0.001-0.001-0.002-0.001c-0.016-0.009-0.031-0.017-0.047-0.026c-0.084-0.05-0.157-0.112-0.227-0.176
	c-0.024-0.012-0.05-0.02-0.072-0.035c-0.074-0.046-0.144-0.097-0.216-0.146c-0.072-0.05-0.143-0.101-0.216-0.15
	c-0.067-0.045-0.128-0.098-0.191-0.148c-0.005-0.003-0.009-0.007-0.014-0.01c-0.073-0.043-0.134-0.099-0.197-0.152
	c-0.306-0.234-0.614-0.464-0.931-0.684c-0.207-0.177-0.425-0.362-0.658-0.557c-5.089-4.238-11.658-11.302-13.096-14.083
	c-0.567-1.096-2.461-4.196-4.21-6.887c-5.606-8.634-6.105-9.6-9.009-17.458c-2.641-7.147-2.792-7.962-2.011-10.877
	c0.462-1.734,0.842-4.141,0.842-5.352c0-3.188,1.572-2.769,4.869,1.3c5.578,6.883,10.315,11.478,15.393,14.929
	C239.521,266.294,242.719,273.914,244.049,294.512z M282.28,234.57c-0.355,0.136-1.021,0.255-1.772,0.337
	c-0.133,0.031-0.267,0.06-0.401,0.089c-0.038,0.016-0.073,0.038-0.112,0.049c-0.099,0.029-0.204,0.035-0.307,0.046
	c-0.17,0.04-0.34,0.073-0.514,0.096c-0.063,0.016-0.125,0.036-0.189,0.051c-0.049,0.012-0.101,0.02-0.15,0.032
	c-0.062,0.015-0.123,0.028-0.186,0.039c-0.611,0.131-1.232,0.238-1.828,0.409c-0.325,0.093-0.615,0.218-0.953,0.267
	c-0.128,0.019-0.256,0.035-0.384,0.051c-0.006,0.002-0.012,0.005-0.018,0.007c-0.17,0.067-0.342,0.126-0.518,0.167
	c-0.496,0.169-1.159,0.28-1.832,0.28c-1.175,0-5.017,0.671-8.534,1.491c-1.627,0.38-3.142,0.687-4.333,0.891
	c-0.077,0.035-0.16,0.061-0.248,0.069c-0.928,0.094-1.837,0.316-2.745,0.519c-0.279,0.062-0.559,0.125-0.84,0.182
	c-0.151,0.051-0.304,0.096-0.457,0.143c-7.751,3.66-51.341-5.759-46.683-10.418c0.592-0.592,9.257,1.245,9.767,2.07
	c0.535,0.867,3.251,0.8,3.251-0.08c0-0.391-0.727-1.099-1.615-1.574l-1.613-0.864l1.695-1.372c1.999-1.619,4.316-1.73,6.209-0.295
	c1.875,1.421,3.288,0.683,4.57-2.386l1.087-2.602l9.679,0.49c5.323,0.27,13.028,1.169,17.121,2c4.092,0.83,8.104,1.936,8.916,2.457
	c0.81,0.521,3.251,1.534,5.424,2.252c2.174,0.718,4.825,1.761,5.895,2.319c1.068,0.557,2.357,1.016,2.863,1.019
	C283.835,232.809,283.666,234.038,282.28,234.57z
	 M349.511,155.326c-1.066-1.706-1.428-1.696-3.046,0.091c-1.756,1.942-0.972,3.992,1.261,3.295
	C349.968,158.012,350.527,156.953,349.511,155.326z
	 M335.259,164.629c-2.134-3.818-2.546-4.166-3.596-3.029c-0.428,0.465-1.566,1.367-2.529,2.007
	l-0.701,0.465c-0.008,0.017-0.016,0.035-0.024,0.052c-0.047,0.098-0.097,0.194-0.147,0.291c-0.014,0.028-0.029,0.057-0.043,0.085
	c-0.003,0.005-0.002,0.003-0.004,0.006c0,0.005,0.001,0.002-0.001,0.011c-0.045,0.224-0.107,0.4-0.121,0.596
	c-0.014,0.19-0.012,0.381-0.012,0.571l1.36,1.784c1.728,2.265,2.371,2.625,4.003,2.235
	C337.001,168.856,337.243,168.179,335.259,164.629z"/>
</svg>
