<svg width="400" height="400" viewBox="0 0 400 400" fill="none" xmlns="http://www.w3.org/2000/svg">
<path style="fill:#0000FF;" d="M198.75,299.826H50v-10.791h148.75V299.826z M70.081,222.235
	c17.358,10.969,61.193,34.258,128.669,40.797v-18.03c-31.819-13.425-55.924-36.571-72.715-57.718l-55.058,24.933
	C65.825,214.55,65.299,219.203,70.081,222.235z M198.75,235.068v-11.284c-46.298-22.277-74.57-66.523-86.06-87.851
	c-0.328-0.654-0.673-1.602-0.275-2.506c0.353-0.75,1.203-1.352,2.351-1.628l83.984-20.242v-10.546l-86.388,20.803
	c-4.255,1.025-7.658,3.756-9.312,7.435c-1.603,3.628-1.378,7.839,0.628,11.544C116.086,163.814,147.167,212.238,198.75,235.068z
	 M198.75,273.352c-31.187-2.948-57.376-9.391-78.376-16.641L50,285.08h148.75V273.352z"/>
<path style="fill:#FF0000;" d="M237.397,264.773c-12.711,0.071-24.748-0.492-36.147-1.518v-17.214
	c10.807,4.33,22.48,7.536,35.044,9.164l1.456,0.206l89.154-40.687c9.216,0.275,14.824,0.25,14.824,0.25L237.397,264.773z
	 M201.25,299.826h35.172v-10.791H201.25V299.826z M238.575,275.036l-3.429,0.025c-11.878,0-23.177-0.525-33.896-1.464v11.483h35.5
	l108.133-47.674h-27.466L238.575,275.036z M349.887,191.938c-0.5-2.352-2.551-4.057-4.955-4.076
	c-0.878,0-86.403-1.833-124.36-77.695c-3.467-6.915-11.874-11.132-19.322-9.721v10.509l1.697-0.409
	c0.428-0.103,0.903-0.148,1.376-0.148c2.835,0,5.808,1.853,7.065,4.378c29.439,58.787,85.297,76.137,114.516,81.245l-87.456,39.885
	c-13.466-1.897-25.856-5.762-37.198-10.95v11.189c11.451,4.821,23.882,8.38,37.325,10.126c0.225,0.026,0.422,0.051,0.648,0.051
	c0.731,0,1.456-0.18,2.129-0.481l105.656-48.166C349.187,196.675,350.387,194.29,349.887,191.938z M239.203,299.82L344.882,252
	v-10.812l-105.679,47.847V299.82z"/>
</svg>
