<svg width="400" height="400" viewBox="0 0 400 400" fill="none" xmlns="http://www.w3.org/2000/svg">
<path style="fill:#FF0000;" d="M337.67,293.027c-10.479-23.401-25.865-35.523-36.036-43.516c-2.09-1.628-4.011-3.117-5.669-4.554
	l-6.959-5.984c-11.425-9.705-28.453-24.179-38.514-34.058c-0.27-0.502-0.592-0.983-1.021-1.406c-0.03-0.059-0.088-0.117-0.147-0.147
	c-0.051-0.081-0.11-0.139-0.169-0.198c-4.394-4.394-26.305-28.872-47.906-53.296v17.736c14.891,16.8,28.816,32.352,35.902,39.975
	c-1.914,1.943-4.268,4.297-6.842,6.901c-8.229,8.329-19.67,19.89-29.059,29.266v16.538c7.983-7.863,19.961-19.935,30.348-30.433
	c3.81,0.525,5.458,2.061,7.446,5.25l0.631,1.005c7.766,12.408,22.169,35.494,40.216,48.76c8.683,6.387,16.39,9.511,22,11.77
	c6.732,2.72,9.115,3.923,9.431,6.534c1.203,10.113,8.191,14.667,14.579,14.667c4.781,0,9.167-2.376,11.712-6.336
	C339.445,308.669,341.887,302.538,337.67,293.027z"/>
<path style="fill:#0000FF;" d="M198.75,244.788c-29.409-14.92-109.259-101.217-112.455-117.959
	c11.738-10.416,27.986-23.123,39.14-30.66c5.588-3.755,11.257-3.777,20.768,8.309c4.005,5.101,29.062,33.78,52.547,60.304v-17.742
	c-20.202-22.863-39.528-44.996-43.293-49.807c-12.122-15.385-24.405-18.994-36.586-10.802c-0.601,0.433-60.53,41.624-58.836,56.379
	c2.178,19.045,89.262,114.291,119.938,125.694c2.523,0.946,4.818,1.408,6.879,1.408c2.838,0,5.244-0.894,7.187-2.669
	c1.122-1.032,2.738-2.582,4.712-4.507V244.788z M186.536,258.193c-5.273,0-26.327-13.662-62.561-51.392
	c-31.372-32.714-50.249-58.381-52.141-64.769c0.867-1.882,3.66-5.039,7.625-8.891c12.691,25.969,82.013,100.28,113.862,118.477
	C190.442,254.457,188.083,256.749,186.536,258.193z M122.626,110.894c-4.781,4.781-4.781,12.547,0,17.329
	c2.318,2.325,5.383,3.586,8.654,3.586c3.293,0,6.358-1.261,8.646-3.586c2.325-2.317,3.615-5.383,3.615-8.646
	c0-3.3-1.261-6.365-3.586-8.683C135.342,106.252,127.238,106.282,122.626,110.894z M135.775,124.073
	c-2.376,2.405-6.585,2.405-8.998,0c-2.486-2.493-2.486-6.534,0-9.028c1.21-1.203,2.809-1.863,4.503-1.863
	c1.716,0,3.322,0.66,4.525,1.863c1.203,1.203,1.863,2.809,1.863,4.532C137.667,121.264,137.007,122.87,135.775,124.073z"/>
</svg>
