<svg width="400" height="400" viewBox="0 0 400 400" fill="none" xmlns="http://www.w3.org/2000/svg">
<path style="fill:#0000FF;" d="M197.88,166.74c-36.149,0-72.297,0-108.447,0c-7.393,0-14.786,0.005-22.178,0.002
	c-1.594-0.001-1.626-0.01-1.65-1.593c-0.129-8.507,2.774-15.966,7.932-22.61c5.111-6.582,11.256-12.066,18.107-16.776
	c10.538-7.249,22.205-12.041,34.351-15.81c9.15-2.839,18.537-4.63,27.91-6.497c3.302-0.657,6.6-1.338,9.89-2.052
	c2.728-0.593,4.704-1.962,6.05-4.634c4.274-8.475,11.014-14.006,20.418-16.001c5.137-1.09,10.284-0.718,15.373,0.349
	c2.434,0.51,4.863,1.168,7.195,2.025c6.932,2.545,11.733,7.33,14.208,14.297c0.634,1.782,1.683,2.958,3.402,3.381
	c2.68,0.658,5.401,1.182,8.127,1.623c19.425,3.142,38.114,8.594,55.655,17.661c9.54,4.931,18.275,10.936,25.264,19.214
	c4.275,5.063,7.872,10.519,9.605,17.031c0.776,2.917,1.055,5.873,0.969,8.876c-0.043,1.498-0.046,1.511-1.556,1.512
	c-8.425,0.005-16.851,0.003-25.277,0.003c-34.626,0.001-69.254,0.002-103.88,0.003c-0.49,0-0.978,0-1.468,0
	C197.88,166.742,197.88,166.741,197.88,166.74z M213.769,99.193c-1.981-4.455-4.946-7.622-9.517-8.907
	c-5.205-1.465-10.231-0.7-14.889,2.012c-2.614,1.523-4.276,3.889-5.312,6.896C193.98,99.193,203.722,99.193,213.769,99.193z
	 M257.15,188.202c-8.87,4.215-14.499,10.611-15.432,20.899c3.148-1.557,6.107-2.794,8.837-4.417
	c6.632-3.945,13.134-8.105,19.136-12.98c5.451-4.427,11.462-4.433,17.39-1.474c3.12,1.557,3.574,4.164,1.295,6.782
	c-0.742,0.853-1.643,1.581-2.529,2.295c-11.677,9.41-23.22,18.995-35.102,28.139c-7.533,5.797-12.261,13.201-15.037,22.085
	c-2.153,6.89-4.253,13.797-6.487,20.66c-2.83,8.694-8.478,14.769-17.12,17.961c-10.196,3.766-20.656,6.681-31.111,9.612
	c-1.097,0.307-2.227,0.522-3.296,0.908c-2.67,0.967-5.045,0.284-7.228-1.262c-2.038-1.444-4.017-2.975-5.976-4.526
	c-9.289-7.35-18.537-14.751-27.855-22.063c-2.66-2.088-3.559-4.736-3.452-7.987c0.291-8.903,0.716-17.812,0.677-26.716
	c-0.042-9.805-1.218-19.521-4.121-28.936c-0.907-2.945-2.24-5.758-3.393-8.626c-0.344-0.855-0.811-1.666-1.093-2.539
	c-0.849-2.63-0.19-4.637,2.195-5.993c4.244-2.413,8.787-3.23,13.492-1.618c5.862,2.008,8.932,6.434,9.619,12.398
	c0.833,7.227,1.333,14.493,1.988,21.741c0.23,2.542,0.461,5.085,0.741,7.622c0.385,3.483,2.127,6.237,4.775,8.428
	c4.548,3.763,9.84,5.943,15.602,6.954c6.249,1.096,12.545,1.061,18.844,0.429c0.377-0.038,0.752-0.115,1.121-0.2
	c4.71-1.085,7.246-3.773,7.43-8.606c0.144-3.781-0.086-7.602-0.467-11.374c-0.692-6.859-1.979-13.663-1.786-20.596
	c0.036-1.299,0.161-2.604,0.371-3.886c0.494-3.027,3.304-5.715,6.347-6.215c1.073-0.177,1.921,0.242,2.686,0.889
	c1.608,1.36,2.92,2.962,3.394,5.055c1.007,4.445,1.936,8.906,2.896,13.361c0.103,0.477,0.216,0.955,0.281,1.438
	c0.095,0.722,0.169,1.572,1.105,1.48c0.391-0.039,0.846-0.684,1.052-1.151c3.305-7.502,6.709-14.965,9.81-22.551
	c2.407-5.889,6.753-9.181,12.765-10.456c5.518-1.171,10.696-0.236,15.344,3.085C255.591,186.782,256.243,187.428,257.15,188.202z
	 M340,171.936c-2.078,1.489-4.442,2.052-6.808,2.589c-7.328,1.66-14.781,2.488-22.242,3.211
	c-16.179,1.57-32.409,2.389-48.649,2.967c-29.828,1.061-59.668,1.364-89.508,0.84c-17.279-0.303-34.561-0.781-51.824-1.593
	c-12.749-0.6-25.475-1.762-38.192-2.884c-6.38-0.562-12.733-1.508-18.939-3.197c-1.297-0.353-2.56-0.825-3.839-1.243
	c0.006-0.127,0.012-0.255,0.018-0.382c1.123-0.207,2.253-0.38,3.367-0.626c7.325-1.613,14.754-1.73,22.212-1.728
	c33.919,0.007,67.839-0.076,101.759-0.094c35.985-0.019,71.969-0.01,107.954,0.007c9.077,0.004,18.159-0.074,27.229,0.187
	c4.706,0.135,9.394,0.924,14.088,1.439C337.758,171.552,338.877,171.765,340,171.936z
	 M163.43,319.888c-0.446-0.334-0.844-0.615-1.223-0.918c-8.874-7.08-17.745-14.163-26.617-21.244
	c-5.943-4.743-11.888-9.484-17.832-14.226c-1.328-1.06-1.329-1.062-0.296-2.332c3.564-4.383,7.128-8.765,10.694-13.145
	c0.875-1.073,0.891-1.081,2.009-0.19c13.419,10.701,26.833,21.408,40.25,32.112c1.656,1.321,3.301,2.655,4.982,3.946
	c0.557,0.427,0.611,0.755,0.158,1.306c-3.857,4.704-7.69,9.427-11.535,14.141C163.859,319.534,163.646,319.689,163.43,319.888z
	 M161.313,299.93c-0.258,0.223-0.466,0.385-0.652,0.569c-0.535,0.531-1.072,1.063-1.59,1.612c-1.403,1.483-1.425,2.237-0.129,3.747
	c1.57,1.831,1.575,1.839,3.53,0.46c0.482-0.341,0.944-0.721,1.365-1.134c0.624-0.609,0.723-1.294,0.156-2.018
	c-0.732-0.932-1.452-1.874-2.188-2.803C161.681,300.207,161.504,300.095,161.313,299.93z"/>
</svg>
