<svg width="400" height="400" viewBox="0 0 400 400" fill="none" xmlns="http://www.w3.org/2000/svg">
<path fill-rule="evenodd" clip-rule="evenodd" d="M189.159 81.0455C179.799 83.8344 171.359 90.7114 170.288 96.4189C169.541 100.405 166.314 101.602 151.425 103.412C146.097 104.058 132.452 107.434 130.261 108.646C129.007 109.339 127.195 109.906 126.234 109.906C125.272 109.906 124.257 110.276 123.977 110.727C123.698 111.178 122.889 111.325 122.178 111.052C121.467 110.779 120.199 111.178 119.359 111.938C118.52 112.698 116.506 113.577 114.885 113.892C113.263 114.206 111.014 115.177 109.889 116.048C108.763 116.919 107.314 117.632 106.67 117.632C106.025 117.632 104.725 118.404 103.781 119.348C102.836 120.293 101.443 121.066 100.686 121.066C99.9268 121.066 98.5445 122.035 97.6121 123.22C96.6798 124.405 95.5253 125.132 95.0464 124.836C94.5663 124.54 93.0683 125.116 91.7161 126.115C90.3626 127.115 89.0937 127.934 88.8935 127.934C88.6946 127.934 87.0103 129.382 85.1526 131.153C83.2936 132.923 80.7557 135.144 79.511 136.089C78.2663 137.033 77.2299 138.091 77.2079 138.44C77.1871 138.789 75.4137 141.381 73.2691 144.201C69.4356 149.243 66.3146 157.018 67.2007 159.325C67.4482 159.972 67.3175 160.705 66.9104 160.957C66.5032 161.209 66.3724 162.187 66.6188 163.131C67.0642 164.832 67.8277 164.847 155.603 164.902C204.297 164.933 260.17 165.033 279.764 165.123C299.358 165.214 318.674 165.093 322.687 164.853L329.983 164.418L330.256 161.571C330.407 160.006 330.187 158.268 329.767 157.709C329.348 157.149 328.485 155.044 327.85 153.031C327.215 151.017 326.18 148.942 325.55 148.419C324.919 147.896 324.403 147.112 324.403 146.678C324.403 143.562 312.999 131.738 305.089 126.656C302.256 124.836 298.953 122.686 297.749 121.879C294.289 119.558 286.631 115.827 286.631 116.463C286.631 116.78 285.956 116.478 285.13 115.794C283.45 114.4 275.562 111.164 271.608 110.247C270.192 109.918 268.271 109.128 267.34 108.49C266.409 107.852 264.878 107.331 263.939 107.331C263 107.331 258.354 106.398 253.614 105.259C248.874 104.119 241.906 102.711 238.129 102.128C229.165 100.744 226.759 99.504 226.087 95.9203C224.133 85.5025 202.901 76.9505 189.159 81.0455ZM206.849 90.2603C211.704 92.5738 213.662 94.3113 213.662 96.3032C213.662 98.1968 214.582 98.0916 198.74 98.0094C184.63 97.9366 184.904 98.0013 185.673 94.9336C186.172 92.9497 193.06 88.2429 193.06 89.8866C193.06 90.2267 193.523 90.0416 194.09 89.4748C195.73 87.8357 202.655 88.2614 206.849 90.2603ZM67.7259 170.926C61.1739 172.184 59.9998 172.575 59.9998 173.499C59.9998 173.989 60.3596 174.169 60.7991 173.897C61.2387 173.626 61.8402 173.796 62.1375 174.276C62.4337 174.756 64.6813 175.151 67.1324 175.155C69.5836 175.159 74.0997 175.581 77.1686 176.095C84.5059 177.323 86.447 177.454 113.653 178.564C126.401 179.084 137.466 179.858 138.241 180.283C139.026 180.714 153.138 180.965 170.005 180.848C186.698 180.733 208.856 180.855 219.243 181.119C229.63 181.382 238.472 181.442 238.892 181.254C239.31 181.064 242.69 180.99 246.402 181.088C250.71 181.202 253.152 180.937 253.152 180.354C253.152 179.112 258.569 179.193 259.83 180.453C260.586 181.209 261.339 181.224 262.793 180.511C263.949 179.944 275.72 179.161 291.763 178.583C306.625 178.047 319.191 177.272 319.687 176.86C320.184 176.449 324.505 175.843 329.289 175.513C341.878 174.645 343.489 172.905 333.488 170.977C327.356 169.795 73.8787 169.746 67.7259 170.926ZM238.988 183.976C238.044 184.646 236.233 185.446 234.967 185.753C231.733 186.538 230.131 189.212 223.967 204.121C220.08 213.523 218.155 217.213 217.139 217.213C214.948 217.213 213.662 215.422 213.662 212.37C213.662 210.839 213.277 209.349 212.804 209.058C212.332 208.765 211.946 207.182 211.946 205.539C211.946 197.682 206.568 193.007 202.367 197.209C199.354 200.22 199.093 204.618 201.201 216.784C203.972 232.777 202.54 243.992 197.475 245.983C189.971 248.932 169.883 247.402 162.585 243.326C156.861 240.129 153.035 237.212 152.835 235.891C152.745 235.297 152.117 227.665 151.438 218.93C149.745 197.143 149.662 196.728 146.21 192.801C139.489 185.154 121.244 189.254 126.698 197.184C130.146 202.198 133.769 216.852 133.812 225.961C133.82 227.704 134.173 229.344 134.596 229.606C135.357 230.076 135.215 244.325 134.292 260.135C133.722 269.904 133.751 269.947 147.202 279.451C148.539 280.395 150.615 282.027 151.816 283.078C153.018 284.129 157.091 287.161 160.868 289.815C164.646 292.47 168.625 295.753 169.712 297.111C171.686 299.576 176.224 299.982 181.042 298.123C181.75 297.85 182.522 297.56 182.758 297.478C182.994 297.397 183.767 297.105 184.476 296.832C185.184 296.558 187.477 296.092 189.572 295.797C191.667 295.502 194.564 294.757 196.01 294.14C197.456 293.525 200.185 292.526 202.074 291.921C215.407 287.651 226.292 279.145 227.921 271.725C228.231 270.308 229.207 267.803 230.089 266.157C230.97 264.512 231.691 262.322 231.691 261.293C231.691 260.262 232.463 257.617 233.407 255.414C234.351 253.211 235.124 250.887 235.124 250.248C235.124 249.61 235.573 247.999 236.12 246.67C236.668 245.341 237.044 243.8 236.956 243.246C236.868 242.691 237.192 241.992 237.677 241.693C238.162 241.393 238.558 240.244 238.558 239.14C238.558 237.059 238.953 236.678 256.156 222.163C260.878 218.179 266.427 213.285 268.487 211.287C270.548 209.288 273.058 207.295 274.066 206.857C277.361 205.426 288.771 195.233 289.03 193.49C289.394 191.042 285.589 189.312 279.849 189.315C274.684 189.318 273.819 189.758 263.809 197.468C261.052 199.593 257.741 201.91 256.451 202.619C255.163 203.327 251.921 205.189 249.249 206.755C236.768 214.068 239.802 198.831 252.549 190.179L256.668 187.385L253.651 185.604C249.66 183.25 241.317 182.323 238.988 183.976ZM123.532 275.58L118.211 281.583L120.498 284.301C121.756 285.797 124.207 288.114 125.945 289.451C127.683 290.788 131.423 293.81 134.256 296.164C137.089 298.519 142.883 303.13 147.133 306.41C151.382 309.692 156.65 314.046 158.837 316.087C161.41 318.486 163.079 319.484 163.559 318.91C163.968 318.422 166.258 315.719 168.65 312.901C171.041 310.084 173.312 307.252 173.697 306.609C174.591 305.111 163.534 294.533 157.415 291.03C155.044 289.673 152.155 287.551 150.995 286.317C149.834 285.082 145.344 281.561 141.014 278.492C136.684 275.424 132.947 272.162 132.706 271.246C131.876 268.067 128.979 269.435 123.532 275.58ZM164.681 303.227C167.378 308.047 161.425 311.622 157.973 307.255L155.937 304.68L157.942 302.546C160.422 299.906 162.967 300.163 164.681 303.227Z" fill="#0000FF"/>
</svg>
