<svg width="400" height="400" viewBox="0 0 400 400" fill="none" xmlns="http://www.w3.org/2000/svg">
<path style="fill:#0000FF;" d="M195.504,140.191c1.139-1.056,2.365-2.089,3.246-2.768v5.503c-0.726,0.403-1.928,1.196-3.231,2.165
	c-2.998,2.292-5.082,3.552-6.641,3.934c-0.935,0.23-1.681,0.144-2.32-0.225c-2.929-1.691-1.479-5.156,1.735-5.771
	c0.46-0.089,0.956-0.119,1.481-0.077c0.61,0.041,1.145,0.02,1.671-0.1C192.602,142.586,193.717,141.836,195.504,140.191z
	 M198.75,282.468c-2.651-1.545-5.303-3.09-7.954-4.636c-2.586-1.507-5.173-3.015-7.759-4.522c-0.856,1.528-1.661,3.035-2.386,4.496
	c0.79,2.145-2.162,10.07-4.197,11.345c-1.742,1.191-2.937,3.542-2.817,5.723c0.157,1.696-0.026,2.012-1.865,3.231
	c-2.413,1.648-3.388,3.197-3.694,5.976c-0.184,1.583-0.696,2.47-2.328,3.892c-1.633,1.422-2.279,2.401-2.95,4.97
	c-0.672,2.569-1.111,3.329-2.158,3.738c-0.816,0.289-1.633,1.423-2.279,3.245c-1.269,3.322-4.254,5.4-7.578,5.254
	c-1.23-0.119-6.296,0.926-11.327,2.33l-9.147,2.49c-2.978-0.661-7.127-1.932-11.578-4.521c-4.343-2.526-7.446-5.418-9.481-7.638
	l-2.149-8.927c-1.251-4.861-2.843-9.835-3.61-11.038c-2.019-3.108-1.602-6.922,1.151-9.725c1.657-1.746,2.145-2.732,2.439-5.349
	c0.355-3.005,0.574-3.385,2.317-4.575c2.546-1.739,3.534-3.45,3.573-6.468c0.014-2.273,0.16-2.526,2.341-4.054
	c2.753-1.958,4.119-4.042,3.706-5.716c-0.219-0.886,0.281-1.611,2.024-3.224c1.876-1.704,2.388-2.591,2.914-4.906
	c0.537-2.477,0.903-3.111,2.743-4.329c0.797-0.545,1.799-0.891,2.677-0.997c0.864-1.301,1.757-2.759,2.642-4.36
	c-7.065-4.176-14.173-8.282-21.379-12.461c-0.865,1.174-1.6,2.415-2.583,3.41c-0.562,0.569-1.672,1.18-2.277,0.982
	c-0.822-0.27-1.735-1.18-2.017-2.016c-1.02-3.025-0.598-6.013,0.993-8.773c1.529-2.653,3.278-5.145,6.189-6.49
	c0.671-0.31,1.406-0.715,2.098-0.689c0.966,0.036,2.135,0.173,2.822,0.743c0.913,0.758,0.978,2.005,0.354,3.163
	c-0.705,1.307-1.368,2.636-2.114,4.08c7.007,4.084,13.858,8.076,20.79,12.117c0.032-0.077,0.066-0.15,0.098-0.228
	c0.979-2.354,1.73-4.584,2.325-6.654c-0.083-0.127-0.172-0.25-0.252-0.38c-3.374-5.536-3.244-13.976,0.491-21.289
	c2.055-4.078,3.524-7.4,3.907-8.427c0.406-2.956,0.249-10.26-1.02-20.444c-1.67-13.977-1.742-18.542-0.46-28.721
	c3.709-30.062,21.601-56.929,47.826-71.853c2.742-1.588,6.653-3.255,10.94-4.761v11.013c-21.361,9.128-39.132,28.888-45.963,52.771
	c-3.408,11.806-4.136,23.89-2.174,38.343c1.509,11.02,1.69,16.47,0.881,23.072c-0.607,5.268-1.013,6.392-3.959,11.216
	c-6.739,10.969-6.57,18.407,0.455,22.826c2.024,1.237,2.836,1.57,4.651,1.132c0.605-0.146,1.322-0.377,2.232-0.69l3.943-1.348
	l16.267-29.3c13.015-23.385,16.399-29.95,17.042-32.75c0.416-1.844,1.731-6.794,2.858-10.854c1.791-6.247,3.036-10.783,3.767-13.778
	v13.619c-0.483,1.87-0.943,3.593-1.32,4.921l-1.525,5.734l2.845,1.643v5.44l-3.923-2.265l-13.371,23.72
	c-7.35,13.154-14.68,26.411-16.263,29.575l-2.892,5.851l4.745,2.74l31.703-54.911v7.033l-11.786,20.414l-16.872,29.223l4.137,2.388
	l3.62-5.428c1.948-2.953,9.826-15.894,17.541-28.837l3.359-5.615v6.329c-1.026,1.714-2.118,3.539-3.284,5.488
	c-22.285,37.334-21.573,35.117-13.418,39.826c4.336,2.503,6.22,2.954,9.557,2.115c0.222-0.056,0.451-0.118,0.688-0.185
	c2.531-0.66,4.37-1.726,6.458-4.063v8.989c-3.19,1.112-6.235,1.506-8.516,1.308c0.003,0.001,0.005,0.003,0.008,0.005
	c-1.01,1.353-2.022,2.779-3.025,4.279c-0.272,0.407-0.519,0.807-0.781,1.212c4.084,2.409,8.191,4.801,12.315,7.196V282.468z
	 M168.144,246.902c0.517,0.298,0.94,0.407,1.303,0.323c0.363-0.085,0.665-0.363,0.939-0.838c0.549-0.952,0.359-1.605-0.615-2.167
	c-0.79-0.456-1.698-0.709-2.06-0.647C166.512,243.968,166.745,246.094,168.144,246.902z M150.279,315.935
	c-0.658-0.548-9.738-6.044-20.17-12.152c-15.849-9.235-19.026-10.9-19.465-10.14c-0.293,0.507-0.196,1.323,0.242,1.829
	c0.986,1.245,35.191,20.993,37.918,21.892C151.288,318.123,152.068,317.475,150.279,315.935z M158.08,305.235
	c-0.255-0.401-9.458-5.967-20.474-12.327c-17.249-10.043-19.939-11.428-20.414-10.604c-0.475,0.824,2.129,2.497,20.145,12.898
	C155.96,305.954,160.282,308.027,158.08,305.235z M164.421,292.847c-2.41-2.152-38.246-22.589-39.489-22.546
	c-0.67,0.036-1.17,0.339-1.036,0.669c0.194,0.788,37.102,23.026,39.281,23.608C165.417,295.196,166.088,294.316,164.421,292.847z
	 M151.6,270.495c-17.468-10.085-20.158-11.47-20.634-10.646c-0.475,0.824,2.068,2.461,19.536,12.547
	c17.468,10.085,20.158,11.469,20.634,10.646C171.613,282.217,169.068,280.58,151.6,270.495z"/>
<path style="fill:#FF0000;" d="M256.729,195.78c-6.45,5.971-12.006,9.832-21.466,14.972c-8.441,4.641-13.839,6.961-14.813,6.399
	c-0.304-0.175-0.638-1.003-0.75-1.792c-0.12-1.338,0.555-1.945,4.507-4.013c6.608-3.434,12.518-7.905,19.9-14.789
	c5.675-5.332,6.999-6.923,11.638-14.394c8.352-13.482,12.223-26.652,12.07-41.147c-0.079-6.751-2.295-19.358-4.541-25.729
	c-1.01-3.03-1.019-3.578,0.261-4.108c2.12-0.86,2.711-0.338,5.227,5.283c6.196,13.726,8.373,26.4,6.756,39.602
	c-1.42,11.595-3.022,16.198-8.986,26.528C262.022,190.409,260.897,191.934,256.729,195.78z M267.566,83.701
	c-2.134-1.505-4.766-3.203-6.692-4.315c-0.81-0.467-1.463-0.815-1.999-1.064c-15.711-7.643-24.744-9.393-40.2-7.765
	c-4.888,0.534-11.372,2.11-17.425,4.08v10.844c2.68-1.028,5.409-1.899,8.177-2.579c2.686-0.66,5.407-1.151,8.149-1.462
	c8.215-0.876,13.287-0.665,21.216,0.922c8.899,1.876,21.164,8.323,27.612,14.583c8.591,8.313,12.564,14.503,16.609,25.628
	c6.859,19.183,4.934,42.9-5.083,62.217c-4.832,9.352-9.333,15.181-17.112,22.47c-7.561,7.052-15.054,11.878-26.25,16.651
	c-20.728,9.055-24.969,12.043-31.402,21.921c-0.688,1.062-1.319,1.999-1.918,2.848v11.187c3.797-1.767,7.579-4.589,10.347-8.735
	c4.435-6.63,6.516-8.369,22.661-15.351c18.626-8.061,30.661-16.538,41.544-29.259c5.056-5.828,14.044-21.771,16.847-29.899
	C304.914,140.81,294.598,102.605,267.566,83.701z M211.69,275.176c-0.604-0.198-1.715,0.413-2.277,0.982
	c-0.983,0.996-1.717,2.236-2.583,3.41c-1.872-1.086-3.722-2.16-5.581-3.238v7.595c0.705,0.411,1.41,0.822,2.115,1.233
	c-0.36,0.351-0.839,0.889-1.261,1.635c-0.611,1.081-0.793,2.048-0.853,2.444c0,0.003-0.001,0.006-0.001,0.009v2.682
	c0.085,0.175,0.194,0.338,0.356,0.472c0.687,0.57,1.856,0.708,2.822,0.743c0.691,0.026,1.427-0.379,2.098-0.689
	c2.911-1.345,4.659-3.837,6.189-6.49c1.591-2.76,2.013-5.748,0.993-8.773C213.425,276.356,212.512,275.446,211.69,275.176z
	 M222.917,153.296c-0.252,3.386-0.151,6.161,0.109,6.134c0.268-0.035,2.296-1.305,4.482-2.846c2.14-1.529,3.466-2.349,4.487-2.552
	c1.022-0.205,1.737,0.208,2.657,1.147c0.939,0.905,0.949,2.995,0.303,8.33c-0.707,5.3-0.653,7.597,0.251,8.844
	c1.571,2.307,0.692,5.234-1.265,5.877c-0.451,0.149-0.959,0.176-1.508,0.046c-2.201-0.546-2.645-3.43-1.544-10.678
	c0.578-3.74,0.702-5.35,0.381-5.323c-0.107,0.013-0.263,0.204-0.468,0.558c-0.589,1.02-4.619,6.032-8.949,11.143
	c-6.929,8.156-7.782,9.181-20.602,30.561v-6.335l8.122-13.577l-5.537-3.197l-2.585,4.477v-11.41l1.895,1.094l7.022-12.162
	c3.885-6.728,7.481-12.536,8.017-13.041c1.006-0.883,1.13-1.204,0.672-1.084c-0.593,0.158-2.149,1.045-4.029,2.405
	c-4.832,3.44-7.418,5.051-8.941,5.326c-0.694,0.126-1.167-0.024-1.532-0.405c-0.552-0.59-1.275-3.273-1.476-6.017
	c-0.263-2.362-0.559-3.916-0.718-3.848c-0.022,0.013-0.042,0.056-0.058,0.135c-0.178,0.849-0.48,2.173-0.853,3.751v-14.145
	c1.672,0.35,2.925,2.966,4.309,8.765l1.696,7.321l5.893-4.024c3.159-2.135,5.377-3.472,6.901-3.885
	C222.96,143.89,223.345,146.467,222.917,153.296z M222.753,163.862c-2.592,0.549-3.833-1.678-3.481-6.506
	c0.188-2.137,0.264-3.798,0.227-3.761c-0.062,0.109-3.09,5.492-6.642,11.925l-6.605,11.862l5.293,3.056l6.015-6.764
	c7.598-8.662,10.8-12.522,10.557-12.662c-0.015-0.009-0.044-0.007-0.084,0.004c-0.291,0.081-1.185,0.633-2.246,1.366
	C224.631,163.189,223.617,163.68,222.753,163.862z"/>
</svg>
