<svg width="400" height="400" viewBox="0 0 400 400" fill="none" xmlns="http://www.w3.org/2000/svg">
<path style="fill:#0000FF;" d="M91.508,222.293c0,0,2.446-0.443,3.353-0.642c3.257-0.013,1.473-0.717,9.121,0.575
	c0.643,0.109,2.373,0.756,0.666,1.633c-4.558,2.34-7.449,4.163-8.996,5.281c-0.51,0.882-1.669,1.763-3.366,0.804
	c-2.138-1.208-2.96-1.765-6.042-2.246c-1.283-0.2-0.485-1.003-0.331-1.094C86.515,226.252,91.673,223.94,91.508,222.293
	L91.508,222.293z M232.309,142.921c0.056-3.373,6.993-5.811,9.665-7.201c1.242-0.647,1.08-2.236,1.08-2.236
	c-5.487-2.91-19.286-2.782-25.256,0.924c-1.733,0.538-1.645,2.065,0.388,1.579C223.153,134.799,229.237,138.727,232.309,142.921
	L232.309,142.921z M266.416,152.052l0.978,0.379c2.489-3.982,10.664-5.823,13.84-6.07c1.026-0.08,1.261-0.198,1.08-1.105
	c-0.135-0.681-1.453-3.187-2.061-3.299c-8.893-1.64-16.764-1.83-25.225,1.024c-3.152-0.115-1.712,2.397-0.117,2.14
	c1.544-0.249,11.075,0.186,12.161,3.509C267.05,150.214,266.416,152.052,266.416,152.052L266.416,152.052z M294.181,167.82
	c3.159-1.909,6.36-4.51,11.882-4.935c1.881-0.144,2.986-1.031,3.79-0.989c1.889,0.098,0.692-1.418,0.692-1.418
	s-1.325-3.288-5.368-4.409c-6.17-1.711-14.235,0.567-16.482,1.201c-2.206,0.623-1.493,1.835-0.222,1.519
	c0.875-0.218,6.101,0.595,9.011,1.934c0.732,0.336,1.015,0.802,0.298,1.463C296.342,163.51,294.761,165.277,294.181,167.82
	L294.181,167.82z M313.99,173.652c7.946,1.045,11.856-1.499,14.007,9.271l0.939,0.006c0.485-1.034,7.483-0.758,10.568-0.995
	c1.009-0.078,1.676-0.331,1.245-1.672c-3.024-9.424-8.297-8.133-14.015-8.804C323.656,171.097,316.585,173.083,313.99,173.652
	L313.99,173.652z M349.201,183.223c0.068,0.294,0.448,0.236,0.205,0.883c-19.541,52.174-7.248,39.548-26.437,89.091
	c-5.346,13.802-10.859,20.309-28.911,20.619c-42.017,0.722-196.762-1.811-216.208-2.654c-11.031-0.478-10.81,0.194-15.476,1.1
	l-6.726-10.125l4.617-4.071c-3.737-7.102-5.326-50.616-3.902-60.544c0.288-2.011-2.755-2.046-3.882-3.069L50,204.312
	c23.329-6.815,44.63-15.913,66.9-24.972c1.114-0.611,2.087-0.809,2.782-2.713c1.777-4.865,3.409-9.349,3.409-9.349
	c1.314-2.781,2.68-2.949,6.447-4.394c0.621-1.248,1.231-2.508,2.014-3.722c0.93-1.443,2.108-2.82,3.834-4.04
	c-0.263-1.026-0.438-1.772-0.458-1.863c-0.382-1.685-0.683-3.393-0.956-5.105c-0.191-1.828-0.344-3.658-0.438-5.498
	c0.487-16.967,11.777-31.872,27.484-35.692c19.79-4.812,41.085,10.096,44.157,30.671c0.151,2.192,0.19,4.38,0.146,6.567
	c1.57-0.635,3.222-1.304,4.231-1.801c5.47-2.694-0.7-9.838-0.7-9.838c-0.408-0.971-0.678-1.677,1.252-2.23
	c14.735-4.223,20.759-6.084,41.907-3.108c5.685,0.8,5.071,5.234,5.071,9.448c7.24-1.438,22.696-2.295,30.254,0.559
	c6.466,2.442,8.029,1.335,7.276,12.691c13.86,0.679,30.475,0.042,27.737,15.849c14.543,3.164,23.607,0.634,27.443,14.97
	C350.306,182.669,349.779,182.015,349.201,183.223z M137.994,142.09c0.892,9.563,7.052,19.768,13.195,21.861
	c4.819,1.642,19.856,2.983,26.695,2.38c33.898-2.988,32.862-45.999-1.351-56.157C158.322,104.768,136.218,123.073,137.994,142.09z
	 M134.977,169.956c3.637,7.376,8.411,13.155,11.707,16.344c2.781-0.101,5.574-0.092,8.467-0.646c5.1-0.977,4.559-0.304,7.082,0.731
	c25.456,10.444,48.429,1.909,59.402-3.324c11.08-5.284,13.665-11.39,3.862-24.773c-4.151-5.667-11.141-8.468-20.371-9.98
	c-0.021,0.288-0.033,0.575-0.057,0.863c-0.223,1.481-0.411,2.965-0.463,4.44c-0.01,0.273-0.006,0.544-0.003,0.816
	c-0.081,1.013-0.105,2.265-0.05,3.513c0.526,11.928-8.16,15.495-37.844,15.544c-18.808,0.031-20.13-0.226-25.105-4.88
	c-0.233-0.218-3.304-4.873-4.489-7.813c-0.094-0.234-0.189-0.491-0.284-0.758C133.069,167.438,133.38,166.718,134.977,169.956z
	 M131.846,183.872c-2.77-9.306-5.308-4.698-2.901-17.824C119.793,176.333,123.654,179.819,131.846,183.872z M335.233,193.677
	c-7.836,7.537-10.297,6.608-19.355,7.643c-15.475,1.768-187.415,9.777-262.109,4.621l2.293,5.566c0,0,197.633,2.089,266.981-6.852
	c4.275-0.551,6.519-4.003,7.663,5.743c1.008,8.586-10.371,44.249-16.467,57.837c-8.776,19.562-19.32,17.754-38.859,17.522
	c-44.328-0.524-164.619-1.864-204.153-3.601c-5.246-0.231-7.321-0.169-9.999,1.45c0.131,1.995,0.8,3.18,2.125,3.874
	c5.589-1.272,7.979-1.498,14.329-1.093c8.8,0.562,155.957,3.495,217.541,2.735c10.334-0.128,16.191,0.928,25.338-19.808
	c2.441-5.533,18.166-72.835,19.881-77.189C340.906,190.954,342.426,186.759,335.233,193.677z M83.029,232.68
	c-1.75,0.22-4.161,1.726-4.161,1.726s-2.354-0.099-3.187,0.837c-0.43,0.483-4.442,6.484-4.442,6.484s4.157-0.052,5.468-0.127
	c1.312-0.075,1.557,0.962,0.199,1.206c-1.358,0.244-3.933,3.007-3.933,3.007l16.228,0.049c0,0,0.266-1.923,0.319-3.103
	c0.053-1.179-2.395-0.593,0.813-2.01c8.626-3.81,25.231-6.713,28.56-1.818c5.096,0.381,7.624,0.217,9.956,0.831
	c1.054,0.278,0.771,0.937,1.315,1.701c1.213,1.702,3.003,2.916,0.573,2.539c-0.807-0.125-7.708-0.838-12.658,2.064
	c-0.829-1.473-1.038-2.816-2.635-4.197c1.191-1.028,1.243-1.022,2.571-1.886c-1.485-2.084-10.828,2.081-13.688,4.436l-1.103,6.595
	c6.714,2.438,4.809,0.261,6.824,5.103c0.638,1.534-0.616,1.295-1.418,0.983c-2.297-0.894-3.665-1.846-7.206-1.844
	c-5.319,0.003-12.984,4.79-12.984,4.79l-0.59,4.759c0,0,5.782,0.015,9.404,0.213c1.858,0.102,1.627,0.844,1.174,1.845
	c-0.286,0.633-0.661,1.369-0.653,2.112c7.846-0.435,17.79-2.818,24.593-0.602c1.258-0.448,3.09-1.62,4.447-1.823
	c-2.525-1.46-6.017-0.824-8.426-1.342c-1.6-0.344-0.402-2.037,0.281-1.455c0.235,0.201,6.481-0.677,7.207-2.74
	c5.252-2.38,13.65-2.817,19.302-1.956c3.129,2.89,5.686,3.828,5.517,5.193c-0.027,0.222,1.088,1.214-1.175,1.272
	c-3.711,0.094-13.994,2.997-14.782,3.729c-0.788,0.732-1.236,0.617-1.578,0.117c-0.342-0.499-2.736-1.671-2.736-1.671l-3.554,2.283
	c5.753,1.895,4.385,0.926,4.424,2.135c0.039,1.209,0.053,1.237,0.044,1.632s-0.87,1.517,1.377,1.277
	c2.247-0.24,24.058,0.689,25.135,0.966c1.077,0.276,2.012,0.176,2.32-0.086c0.308-0.262,0.594-0.303-0.911-0.852
	c-1.505-0.549-0.406-1.236,0.4-1.423c0.806-0.187,10.049-1.952,10.049-1.952l5.558-0.011c0,0-5.432-3.095-6.457-3.567
	c-0.702-0.324-0.753-0.906-0.745-1.404c0.019-1.12-0.497-1.608,1.184-1.767c2.516-0.238,10.976-0.736,13.604-0.217
	c2.08,0.411,2.359,0.567,3.707,0.541c3.255-0.062,4.013,3.523,2.333,3.976l-0.021,0.475c0,0,11.965-1.943,17.643-2.75
	c5.471-0.778,12.521,0.888,16.083,1.102c1.663,0.1,0.671,1.322,0.671,1.322l-2.086,2.916c2.692,0.221,16.608,1.212,17.807,0.537
	c0.741-0.379,0.663-0.98,0.663-0.98s-4.3-1.291-6.739-1.701c-2.367-0.398-1.857-1.709-2.012-3.045
	c-0.105-0.901-0.175-1.328-1.458-1.673c-1.198-0.322-4.225-0.556-5.681-0.618c-4.573-0.198-4.301,0.165-4.39-2.087
	c-1.306-0.819-10.684-0.906-15.694-0.193c-2.216,0.315-4.387,1.605-6.046,1.413c-1.981-0.229-0.827-1.323-0.224-1.524l5.878-3.032
	c-1.24-2.005-2.89-5.923-3.11-6.35c-0.552-1.077-0.483-1.166-1.458-1.185c-1.73-0.033-4.843,0.007-6.866-0.024
	c-1.36,1.812-2.748,5.914-3.082,6c-1.001,0.258,0.495,2.304-1.65,1.049c-1.434-0.839-9.269-3.327-11.018-3.78
	c-1.749-0.452-2.253-1.299-0.611-1.715c2.748-0.696,2.838-0.547,4.999-3.122c0.147-0.175,1.126-0.835-0.033-1.059
	c-7.783-1.506-19.643,5.283-21.199,6.34c-1.219,0.828-1.577,0.655-1.86,0.332c-0.354-0.403-0.704-1.657-0.704-1.657l-1.331-0.324
	l-1.957-3.819c0,0-8.849,0.324-11.06,0.362c-2.211,0.039-2.356-0.952-2.356-0.952s-1.073-3.572-1.254-4.347
	c-0.303-1.301-0.631-1.415,0.883-2.173c5.044-2.525,10.258-3.034,14.552-2.327c4.294,0.707,4.521,2.936,4.521,2.936l0.653,0.376
	l10.966-4.722c0,0-3.589-4.78-4.982-6.213c-1.555-1.6-3.791-1.359-7.372-1.738c-1.527-0.162-1.534-0.703-1.239-1.215
	c0.905-1.573,4.816-4.478,4.816-4.478l-13.38-1.71l-0.688,3.748c0,0,2.019,1.344,3.157,2.413c1.139,1.069,1.406,2.602,0.57,3.067
	c-0.836,0.465-5.089,2.444-5.967,2.739c-0.878,0.295-1.207,1.758-2.479-0.378c-2.569-4.315-8.558-2.852-11.83-3.026
	c-0.891-0.047-2.62-0.159-1.015-1.91c3.907-4.261,10.766-9.068,11.518-9.765c-8.048-2.11-18.233-2.881-26.716,3.7
	c-0.523,0.405-0.992,1.599-2.053-0.56c-0.933-1.899-0.598-2.727-0.388-5.319c0.039-0.485,0.238-0.723-0.58-1.02
	c-7.749-2.814-19.388,0.126-25.66,1.414c3.1,1.607,2.996,1.534,4.023,2.115c1.543,0.873,0.347,1.331-0.375,1.394
	c-4.999,0.432-11.86,6.535-11.86,6.535s4.145,1.73,5.009,2.284C83.684,231.861,84.779,232.46,83.029,232.68z M205.781,251.269
	c1.387,1.949,4.056,0.881,11.285,3.708c0.786,0.307,1.044,0.321,1.271,0.157c0.928-0.669,2.839-2.462,3.177-2.658
	c0.479-0.278,0.929-0.379-0.32-1.173c-2.869-1.824-14.111-2.526-15.86-1.558L205.781,251.269z M234.998,222.509
	c2.852-1.624,5.502-3.12,8.043-4.363c-4.319-5.011-6.003-3.841-8.442-3.138c-5.335,1.536-11.925,5.972-11.925,5.972
	C226.796,222.509,230.061,221.218,234.998,222.509z M261.249,218.485c-6.357-0.963-15.754,2.36-17.414,9.046
	c3.794,0.149,4.745,0.08,8.271,1.501c-0.095-1.32-1.026-1.497,0.615-2.34c3.114-1.6,10.081-2.257,12.041-2.359
	c1.284-0.067,1.937,0.576,0.607,1.3c-1.853,1.009-4.258,2.612-4.876,3.594c6.58-0.287,9.269-1.321,16.301,0.649
	c1.669,0.468,1.968,0.719-0.222,2.32c-0.375,0.274,1.194,1.757,1.94,2.531c8.432-3.17,14.498-2.996,18.622-0.98
	c0.39,0.191,0.358,0.594,0.245,0.832c-0.575,1.217-3.052,6.61-3.052,6.61v1.165l11.878,0.519l1.018-0.803
	c0,0-2.296-1.116-3.961-1.704c-1.252-0.442-0.668-1.081,0.002-1.323c2.513-0.91,5.24-1.983,7.982-2.866
	c-1.813-0.869-4.421-1.148-6.464-1.21c-1.731-0.052-1.998-0.508-1.801-1.196c0.223-0.78,1.646-2.317,0.023-2.568
	c-0.086-0.013-0.009,0.027-2.808-0.618c-1.859-0.428-0.392-1.679-0.392-1.679c0,0,0.79-0.543,1.817-1.145
	c3.361-1.97-3.31-2.988-2.913-2.906c-5.03-1.033-6.635-2.151-18.797-0.917c-1.037,0.105-2.211,0.211-2.31-0.524
	c-0.09-0.663-0.74-1.666-1.414-1.949c-0.527-0.221-0.453-1.177,1.081-2.286c3.57-2.58,11.164-3.702,14.192-4.811
	c-1.049-0.367-2.94-0.817-4.024-1.989c-6.051-0.327-12.689,0.818-17.782,3.521c-0.574,0.305-1.284,0.253-1.085-0.571
	c0.199-0.824,1.736-2.608,1.736-2.608c-0.744-1.312-10.909-1.356-12.813-1.005c-3.141,0.579-5.995,4.271-5.995,4.271
	c4.704-1.429,7.507-1.735,9.851-1.333C263.101,214.956,263.348,218.803,261.249,218.485z M310.653,245.936
	c-0.746-0.54-2.063-0.456-2.063-0.456s-0.331,0.986-1.469,0.806c-0.785-0.124-4.246,1.023-6.215,2.44l9.011,1.048
	C309.917,249.774,311.47,246.528,310.653,245.936z M346.215,179.644c-0.251-3.023-1.944-6.013-5.785-7.184
	c-13.355-4.07-20.224-4.424-38.015,3.356c-3.527,1.542-3.3-0.349-1.58-3.086c2.998-4.773,11.371-6.65,17.383-10.376
	c7.933-4.917-11.525-8.356-12.456-8.451c-20.32-2.05-20.455,2.532-33.792,7.143c-5.339,1.846-2.956-3.198-1.02-5.321
	c5.228-5.735,13.426-8.077,16.27-8.754c7.333-1.744-0.27-7.703-2.66-8.149c-20.855-3.884-32.025,2.486-44.49,9.82
	c-1.845,1.086-2.535,0.071-2.535,0.071s-2.118-3.393-0.168-4.648c1.414-0.91,5.403-7.147,8.817-7.317
	c3.414-0.169,6.103-2.05,6.103-2.05c1.942-1.136,0.031-2.296,0.031-2.296c-10.123-5.724-24.935-5.248-39.859-0.419
	c5.192,9.121,1.294,12.874-3.346,14.581c27.161,8.255,26.503,27.3,26.503,27.3c0,10.961-3.9,21.655-27.497,25.107
	c-18.196,2.661-17.883,0.244-29.458,2.491c-20.368,3.953-33.835-4.671-51.514-7.327c-6.303-0.947-7.652-9.196-8.095-12.364
	c-16.892,7.84-35.544,13.565-53.377,20.371c11.214,2.213,22.289,2.823,33.265,2.489c-0.322-0.632,0.036-1.646-0.965-1.896
	c-0.755-0.189-0.455,0.047-2.248-0.676c-1.749-0.706,0.134-1.372,0.76-1.124c3.51-0.226,9.356-0.641,13.95-1.114
	c1.867-0.192,3.278,0.079,3.501,0.814c1.854,0.106,3.675,0.124,5.056,0.326c1.486,0.217,1.35,0.848-0.169,1.131
	c-6.775,1.266-10.171,1.651-10.538,2.657c15.545,1.32,16.37-0.956,20.15-0.395c0,0-3.301-3.637,0.011-2.926
	c1.139,0.245,2.589,0.539,3.744,0.718c2.596,0.403,0.977,1.05,0.5,1.821c2.313-0.323,21.151,0.064,31.4,0.064
	c7.044,0,26.979,0.176,40.272,0.298c6.048,0.055,10.721,0.1,12.179,0.111c3.8,0.03,4.416-2.117,3.663-2.89
	c3.14,0.519,5.442,1.488,8.163,2.232c1.581,0.116,3.366-0.537,3.966-1.511c-0.878-1.058-5.153-1.447-5.676-1.598
	c-0.34-0.098-3.176-1.51,0.514-1.987c3.453-0.446,11.356-0.86,15.119-1.041c1.251-0.06,1.653,0.494,0.73,1.121
	c-0.988,0.671-1.868,0.891-2.348,1.571l5.235,0.107c1.577,0.06,2.887-0.204,1.471,1.139l-1.056,0.962l4.363-0.346
	c0.391-1.829,0.613-2.279,1.181-2.364c0.39-0.059,0.944,0.054,1.829,0.009c2.16-0.112,1.55,1.463,0.774,2.106l5.211-0.225
	c1.923-0.99,3.337-1.79,6.346-2.192c-2.883-2.678-11.112-2.32-15.108-2.272c-1.519,0.019-1.512-1.299,0.976-1.413
	c2.488-0.114,9.518-1.868,9.518-1.868l-3.743-2.196c-1.009-0.572-0.538-1.215,0.825-1.162c4.45,0.174,8.56-0.396,13.158,0.771
	c0,0,6.053-1.604,7.68-1.942c1.563-0.325,1.493-0.157,1.463,0.631c-0.042,1.101,0.682,1.102-1.967,1.729
	c-1.801,0.426-4.483,1.316-7.191,2.917c5.815-1.144,19.698-0.577,26.13-0.716c2.641-0.057,1.978,1.35,0.009,1.449
	c-6.335,0.318-13.654,3.542-13.654,3.542l2.227,0.865c6.662-1.474,24.431-1.455,26.131-1.694l-0.166-0.866
	c0,0,2.138-0.138,0.906-0.788c-1.232-0.65-2.749-2.725-2.749-2.725s6.495-0.069,9.675-0.261c3.179-0.192,1.596,1.625,0.62,1.641
	c-0.574,0.01-1.924,0.795-1.994,0.99l2.536,1.017c9.868-1.629,5.148-1.85,12.726-6.343c0.236-0.14,1.067-1.218-0.053-1.433
	c-3.914-0.752-4.702-0.356-7.671,0.462c-0.543,0.149-1.529-0.006-0.376-1.153c6.096-6.063,10.889-5.061,17.293-5.426
	C344.103,183.243,346.538,183.527,346.215,179.644z M168.917,154.885c-9.681,4.907-22.392-1.166-24.731-11.816
	c-1.153-5.251,5.252-15.811,10.515-17.335C174.854,119.901,187.357,145.542,168.917,154.885z M174.96,140.838
	c0-3.521-4.663-9.165-9.646-11.675c-4.729-2.382-11.369-0.406-15.109,4.498c-5.078,6.657-0.434,18.972,6.573,17.433
	c1.688-0.37,2.353-0.182,2.72,0.773c1.174,3.061,4.799,2.493,8.243,0.182c-0.254-1.108-0.784-2.136-1.558-2.971
	c-0.395-0.426-0.838-0.8-1.331-1.107c-0.481-0.299-1.132-0.691-1.723-0.61c-0.005,0.001-0.009,0-0.014,0
	c-1.013,0.439-2.126,0.689-3.302,0.689c-4.626,0-8.377-3.75-8.377-8.377c0-1.48,0.387-2.869,1.061-4.076
	c1.543,1.986,3.706,2.912,5.284,2.095c1.755-0.909,2.152-3.648,1.032-6.331c0.329-0.039,0.661-0.065,1-0.065
	c4.626,0,8.377,3.75,8.377,8.377c0,1.808-0.579,3.478-1.553,4.847c-0.305,1.111-0.164,2.306,0.446,3.297
	c0.38,0.617,0.944,1.079,1.526,1.5c0.295,0.213,0.593,0.385,0.953,0.455c0.293,0.057,0.596,0.051,0.896,0.04
	C172.999,147.297,174.96,143.981,174.96,140.838z"/>
</svg>
