<svg width="400" height="400" viewBox="0 0 400 400" fill="none" xmlns="http://www.w3.org/2000/svg">
<path style="fill:#FF0000;" d="M162.029,70.71c-8.231,1.73-22.6,13.016-19.089,14.993
	c3.361,1.894,7.028,1.369,7.028-1.005c0-2.175,2.173-5.342,3.667-5.342c0.284,0,0.295,2.132,0.027,4.738
	c-0.46,4.449,0.585,6.576,1.745,3.554c0.765-1.995,8.22-6.609,8.899-5.509c0.331,0.535-0.266,1.578-1.33,2.324
	c-11.417,8.01-16.359,20.935-11.554,30.218c2.717,5.249,17.77,2.507,21.29-3.877c0.523-0.949,1.273-1.96,1.668-2.25
	c0.395-0.289,0.603-2.42,0.46-4.732c-0.293-4.783,1.998-6.696,3.042-2.54c0.593,2.367,2.242,3.032,2.242,0.906
	c0-0.712,0.582-1.293,1.292-1.293c2.077,0,1.522,3.695-1.077,7.162c-2.903,3.872-11.011,10.071-13.175,10.071
	c-0.872,0-1.829,0.393-2.127,0.875c-0.298,0.482-0.876,0.669-1.283,0.417c-0.409-0.252-0.987-0.065-1.284,0.417
	c-0.298,0.482-1.669,0.875-3.046,0.875c-2.938,0-3.827,1.364-4.669,7.171c-0.333,2.284-1.352,4.901-2.264,5.815
	c-2.814,2.813-1.188,8.555,2.421,8.555c2.639,0,5.597-5.497,5.119-9.517c-0.37-3.128-0.202-3.981,0.784-3.981
	c1.172,0,1.612,1.027,2.277,5.312c0.229,1.474,0.809,1.68,4.01,1.424c5.16-0.412,4.39,1.61-1.25,3.287
	c-13.55,4.026-20.311,19.15-15.78,35.297c1.36,4.847,1.703,7.855,1.339,11.752c-0.339,3.626-0.121,5.949,0.706,7.542
	c0.874,1.686,0.919,2.3,0.169,2.291c-1.532-0.02-2.803-1.082-3.479-2.911c-0.877-2.368-1.73-1.01-1.939,3.09
	c-0.396,7.756,7.136,14.141,13.661,11.579c1.905-0.749,3.796-1.155,4.205-0.901c1.37,0.846,0.761,2.116-1.411,2.942
	c-2.471,0.939-2.594,1.501-0.835,3.826c3.079,4.071,0.468,4.103-4.018,0.05c-3.656-3.302-6.554-3.796-10.426-1.776
	c-2.637,1.376-4.046,0.333-2.336-1.728c1.781-2.146,0.06-2.544-3.314-0.766c-8.699,4.587-12.841,14.534-8.415,20.211
	c2.931,3.758,3.503,7.576,0.993,6.612c-3.745-1.436-6.011-13.299-3.63-18.998c1.929-4.616,1.769-5.489-1.126-6.124
	c-2.898-0.638-13.601-14.874-13.181-17.533c0.167-1.06-0.863-2.001-3.427-3.133c-2.017-0.89-5.452-3.288-7.634-5.329l-3.968-3.711
	l-2.243,2.352c-1.921,2.012-4.193,6.161-4.436,8.096c-0.041,0.316-0.363,0.865-0.719,1.221c-2.117,2.117,0.749,9.782,6.175,16.521
	c3.504,4.35,4.634,4.616,4.057,0.953c-0.393-2.489,1.373-6.776,2.791-6.776c0.301,0,0.549,3.393,0.551,7.54
	c0.004,7.152,0.192,7.91,3.662,14.783c2.011,3.985,3.661,7.669,3.666,8.185c0.014,1.77,6.662,14.724,8.314,16.202
	c6.03,5.391,26.143,6.226,26.143,1.084c0-1.52-7.248-5.093-8.981-4.427c-1.806,0.693-3.792-1.9-2.206-2.88
	c1.701-1.052,5.911-0.047,9.661,2.303c1.768,1.107,3.546,2.014,3.952,2.014c1.08,0,6.851,6.629,7.471,8.582
	c0.292,0.92,1.965,2.543,3.717,3.608c1.753,1.064,3.381,2.173,3.618,2.464c3.926,4.816,22.98,5.162,23.343,0.424
	c0.037-0.473,0.456-1.331,0.934-1.906c3.825-4.609,1.403-13.862-4.247-16.223c-1.561-0.651-3.507-2.362-4.325-3.8
	c-1.345-2.362-2.945-3.084-5.982-2.698c-2.993,0.38-15.616-1.853-18.283-3.234c-4.551-2.357-10.203-3.051-12.514-1.536
	c-1.108,0.726-2.372,0.953-3.033,0.546c-1.52-0.941-0.461-3.455,1.462-3.473c3.822-0.032,4.238-1.632,1.104-4.247
	c-2.5-2.086-2.769-2.611-1.577-3.071c0.962-0.37,3.011,0.726,6.165,3.295c2.6,2.117,6.218,4.33,8.039,4.917
	c1.822,0.588,3.73,1.396,4.239,1.797s3.707,0.987,7.108,1.304c7.203,0.669,8.393-0.601,2.09-2.23
	c-2.251-0.582-4.577-1.202-5.17-1.377c-1.588-0.471-1.31-2.96,0.331-2.96c5.662,0,12.296,3.818,18.301,10.529
	c5.859,6.547,10.126,4.021,9.902-5.862c-0.094-4.152-3.394-13.282-4.8-13.282c-1.526,0-4.073,3.771-3.233,4.784
	c0.958,1.153-1.283,2.506-2.7,1.63c-2.218-1.371-0.628-5.087,3.997-9.341c5.392-4.959,6.693-9.494,4.771-16.621
	c-0.946-3.508-5.414-7.255-6.519-5.467c-0.236,0.382-1.728,0.938-3.316,1.236c-3.384,0.635-6.338,3.501-6.749,6.547
	c-0.406,2.999-2.699,2.773-2.832-0.279c-0.059-1.338,0.198-2.621,0.571-2.85c1.54-0.952,0.508-2.803-1.852-3.321
	c-1.711-0.376-3.259-0.078-4.783,0.921c-1.581,1.037-2.525,1.205-3.164,0.568c-0.637-0.639-0.261-1.335,1.263-2.333
	c5.564-3.646,6.055-11.135,1.318-20.081c-2.226-4.203-2.547-5.593-2.171-9.359c0.457-4.571-0.42-6.567-2.532-5.756
	c-0.654,0.25-1.188,0.052-1.188-0.441s-0.776-1.142-1.723-1.443c-0.947-0.3-1.723-1.147-1.723-1.882
	c0-0.994,0.495-1.176,1.939-0.713c8.798,2.819,13.842,1.123,9.76-3.282c-2.559-2.762-3.482-5.406-2.172-6.216
	c0.579-0.357,2.55,1.186,4.792,3.749c8.438,9.646,22.731,9.781,22.731,0.214c0-6.067-5.765-11.727-8.099-7.951
	c-0.726,1.176-4.395,0.533-4.395-0.771c0-0.659,1.163-1.552,2.584-1.983c6.348-1.923,7.231-2.474,7.749-4.832
	c1.882-8.565-8.685-9.822-13.845-1.647c-3.384,5.361-4.606,4.272-2.543-2.266c0.433-1.371-0.001-1.939-2.082-2.725
	c-2.901-1.095-4.227-3.341-2.809-4.759c0.645-0.644,1.602-0.374,3.246,0.92c3.014,2.371,13.002,1.951,15.024-0.632
	c0.236-0.302,1.206-0.983,2.153-1.513c2.457-1.372,2.622-22.73,0.205-26.418c-4.359-6.651-18.795-1.506-28.525,10.169
	c-4.035,4.842-6.603,4.163-2.852-0.755c2.95-3.867,1.482-5.695-3.378-4.203c-2.661,0.816-2.996,0.754-2.747-0.512
	c0.227-1.154,1.329-1.45,5.505-1.48c5.111-0.037,5.562-0.219,11.114-4.483c0.474-0.365,1.928-1.135,3.23-1.714
	c2.917-1.296,2.945-2.06,0.216-6.075c-1.184-1.744-2.153-3.468-2.153-3.831c0-0.365,0.969-0.662,2.153-0.662
	c1.315,0,2.154,0.49,2.154,1.257c0,1.715,4.482,5.753,5.817,5.241c0.592-0.228,1.076-0.037,1.076,0.421
	c0,1.755,5.775,0.839,8.06-1.278c4.757-4.408,0.429-14.332-7.298-16.735C180.924,69.787,166.834,69.7,162.029,70.71z M212.24,71.538
	c-7.242,1.82-11.177,10.656-4.329,9.722c2.293-0.312,2.605-0.176,1.723,0.752c-0.592,0.623-1.076,1.759-1.076,2.523
	c0,0.764-0.68,2.14-1.509,3.058c-0.829,0.92-2.072,2.834-2.76,4.255c-0.69,1.422-2.03,3.47-2.979,4.553
	c-1.575,1.797-1.619,2.207-0.507,4.739c2.335,5.311,1.48,20.589-1.063,19.017c-0.364-0.224-0.661,0.164-0.661,0.864
	c0,0.699-0.484,1.449-1.076,1.666c-0.843,0.309-0.851,0.635-0.037,1.5c0.846,0.899,1.295,0.893,2.405-0.028
	c0.966-0.802,1.635-0.865,2.284-0.216c0.649,0.649,0.387,1.202-0.899,1.889c-2.02,1.081-2.521,3.09-0.586,2.348
	c0.677-0.26,1.693,0.086,2.259,0.768c1.414,1.705,2.853,1.556,4.697-0.481c2.001-2.211,2.828-2.177,3.172,0.127
	c0.38,2.562,3.072,4.179,4.129,2.483c0.814-1.307,2.076-0.684,2.257,1.113c0.285,2.817,1.574,4.893,3.037,4.893
	c2.556,0,1.947,1.392-2.738,6.249c-2.772,2.874-4.847,6.012-5.7,8.614c-0.803,2.454-1.854,4.093-2.625,4.093
	c-0.788,0-1.093,0.499-0.789,1.292c0.273,0.71,0.12,1.292-0.339,1.292s-0.835-0.374-0.835-0.831c0-1.478-3.518-2.888-4.572-1.833
	c-1.636,1.635-2.655,1.017-1.121-0.681c0.807-0.892,1.837-2.956,2.288-4.589c0.743-2.693,1.063-2.933,3.453-2.581
	c5.539,0.812,9.433-7.554,5.269-11.323c-1.735-1.571-6.626-1.93-7.479-0.55c-0.792,1.281-2.145,0.152-2.145-1.788
	c0-0.919-0.43-1.672-0.955-1.672c-0.523,0-0.73-0.582-0.457-1.292c0.273-0.712,0.076-1.293-0.437-1.293
	c-0.642,0-0.701,1.273-0.188,4.092c1.579,8.689,0.134,20.895-2.475,20.895c-0.987,0-4.966,3.652-4.966,4.557
	c0,1.068,4.548-0.114,5.363-1.394c0.779-1.226,0.854-0.879,0.991,4.592c0.06,2.369-0.183,4.307-0.538,4.307
	c-0.356,0-0.647,0.388-0.647,0.862s0.582,0.862,1.292,0.862c0.712,0,1.294,0.388,1.294,0.862c0,0.473-0.388,0.861-0.862,0.861
	c-0.475,0-0.863,1.473-0.863,3.274s-0.464,3.74-1.033,4.308c-0.569,0.569-0.786,1.034-0.482,1.034c0.303,0,0.008,1.049-0.657,2.33
	c-1.215,2.343-0.907,4.172,0.359,2.125c0.548-0.886,1.155-0.881,3.161,0.024l2.485,1.122l-3.787,0.431
	c-2.17,0.246-3.958,0.946-4.186,1.636c-0.313,0.95,0.356,1.105,3.164,0.729c2.041-0.274,3.562-0.123,3.562,0.351
	c0,0.458-0.388,0.591-0.861,0.299c-0.973-0.602-1.183,0.684-0.263,1.604c1.198,1.2,0.964,3.019-0.326,2.524
	c-1.05-0.402-1.073-0.638-0.13-1.314c0.844-0.605,0.731-0.687-0.43-0.311c-0.867,0.282-1.762,0.513-1.988,0.513
	c-0.227,0-0.132,0.453,0.211,1.008c0.432,0.699,0.132,0.82-0.978,0.394c-1.558-0.598-1.558-0.567-0.008,1.145
	c1.744,1.927,3.523,2.407,2.531,0.683c-0.36-0.625-0.29-0.775,0.165-0.359c0.432,0.395,0.791,0.977,0.798,1.293
	c0.007,0.317,0.357,1.119,0.779,1.784c0.862,1.363,0.054,0.986-4.181-1.953c-2.305-1.598-2.475-1.615-1.93-0.194
	c0.448,1.167,0.272,1.434-0.703,1.06c-1.733-0.664-1.658,1.139,0.152,3.725c1.024,1.461,1.154,2.176,0.439,2.415
	c-0.602,0.2,0.422,2.046,2.509,4.52c1.938,2.3,3.286,4.567,2.994,5.041c-0.293,0.472-0.205,1.061,0.195,1.308
	c2.791,1.725-0.944,19.487-4.097,19.487c-1.402,0-1.077,2.235,0.516,3.556c3.7,3.069,8.239,24.878,5.177,24.878
	c-0.43,0-0.304,0.577,0.282,1.281c0.862,1.039,0.8,1.384-0.326,1.816c-0.8,0.307-1.388,1.513-1.388,2.844
	c0,1.271-0.783,3.844-1.738,5.719c-1.044,2.045-1.381,3.527-0.845,3.706c3.652,1.218,4.424,15.652,0.838,15.652
	c-1.267,0-1.373,2.986-0.139,3.93c2.37,1.811,2.246,8.166-0.257,13.132c-2.724,5.402-1.95,7.579,2.389,6.712
	c1.92-0.384,2.872-0.052,4.112,1.433c2.405,2.882,2.008,3.406-1.129,1.493c-3.592-2.19-4.787-2.185-2.801,0.01
	c1.863,2.057,0.728,2.266-1.985,0.366c-1.065-0.747-2.411-1.16-2.992-0.92c-0.618,0.257-0.253,0.682,0.885,1.027
	c2.087,0.635,2.657,2.112,0.815,2.112c-0.618,0-2.44-1.358-4.046-3.016c-2.822-2.91-5.17-3.904-5.17-2.187
	c0,1.301-6.354,2.678-9.577,2.076c-3.751-0.703-7.898-3.165-13.104-7.781c-4.038-3.582-8.64-5.331-11.319-4.303
	c-1.62,0.621-2.769-1.131-1.327-2.021c1.827-1.13,0.065-2.586-3.129-2.586c-2.417,0-2.97-0.303-2.739-1.504
	c0.769-3.989,11.673-0.125,19.244,6.819c15.546,14.258,24.453,10.124,26.762-12.418c1.551-15.134-3.26-23.879-13.263-24.107
	c-2.46-0.056-4.473-0.423-4.473-0.817c0-0.392-0.727-0.714-1.616-0.714c-3.402,0-11.291-4.384-16.4-9.113l-5.324-4.93l-4.64,1.114
	c-13.629,3.269-31.471-2.921-31.471-10.921c0-0.626-0.316-1.136-0.703-1.136s-1.804-3.587-3.15-7.971
	c-1.347-4.384-2.872-8.551-3.39-9.262c-0.518-0.711-1.825-3.038-2.905-5.169c-2.51-4.963-11.687-15.101-12.957-14.316
	c-3.755,2.321-2.924,19.428,1.14,23.492c0.707,0.707,1.286,1.683,1.286,2.167c0,1.268,10.029,14.991,14.856,20.329
	c2.254,2.493,4.099,4.917,4.099,5.385c0,1.512-2.537,0.907-3.647-0.871c-1.481-2.37-2.081-2.165-2.697,0.92
	c-0.309,1.54-0.907,2.408-1.435,2.082c-0.5-0.309-0.693-1.237-0.431-2.063c0.58-1.828-3.732-10.24-10.39-20.266
	c-3.459-5.21-4.262-5.697-5.09-3.088c-0.56,1.762,1.713,12.08,2.842,12.906c0.775,0.566,2.754,4.964,2.754,6.12
	c0,0.464-0.964,0.596-2.155,0.298c-4.523-1.136-0.721,9.727,5.791,16.545c2.612,2.735,3.09,3.659,2.091,4.042
	c-0.711,0.273-1.753-0.058-2.316-0.735c-2.282-2.75-3.564,2.097-1.564,5.914c1.848,3.523,6.048,8.345,7.272,8.345
	c1.909,0,1.434-2.45-0.934-4.819c-2.487-2.487-2.626-2.936-0.905-2.936c1.24,0,5.617,5.048,5.674,6.542
	c0.015,0.43,0.778,2.332,1.694,4.228c0.915,1.896,1.677,4.133,1.694,4.974c0.047,2.523,6.552,8.859,10.222,9.959
	c2.588,0.775,4.035,2.041,6.395,5.596c3.336,5.023,9.725,9.696,14.49,10.599l2.955,0.56l-2.238-2.49
	c-2.676-2.976-5.086-6.492-5.086-7.419c0-1.599,2.611-0.466,3.917,1.7c4.074,6.75,25.378,17.772,25.378,13.129
	c0-2.098-21.132-19.79-23.67-19.816c-1.491-0.015-8.716-7.144-10.252-10.115c-1.699-3.287-2.3-3.418-4.5-0.988
	c-2.502,2.764-6.142,4.443-6.916,3.19c-0.347-0.563-0.161-1.18,0.413-1.372c6.236-2.078,8.915-9.167,6.204-16.417
	c-3.577-9.566-9.314-12.971-16.942-10.058c-2.141,0.819-4.16,1.219-4.486,0.891c-0.596-0.597,2.423-3.465,4.308-4.093
	c1.539-0.512-0.039-2.386-2.009-2.386c-1.011,0-1.596-0.454-1.39-1.077c0.638-1.937,3.806-1.642,6.473,0.601
	c1.436,1.21,3.26,2.199,4.052,2.199c2.139,0,4.775,1.577,8.847,5.292c3.607,3.292,3.711,3.324,10.709,3.324
	c6.663,0,12.559,1.234,13.753,2.881c1.235,1.698,3.784,0.056,4.206-2.709c0.642-4.211,1.9-3.736,2.996,1.133
	c2.084,9.255,11.322,17.421,22.421,19.821c4.365,0.943,4.727,1.166,4.188,2.573c-0.416,1.082-1.296,1.246-4.294,0.796l-3.771-0.565
	v3.38c0,4.358-2.047,7.624-2.965,4.731c-0.329-1.037-0.358-2.64-0.064-3.565c0.737-2.325-1.567-6.419-4.929-8.752
	c-1.546-1.074-5.366-4.304-8.487-7.177c-9.367-8.622-23.675-12.939-27.795-8.386c-1.48,1.636-1.971,7.767-0.74,9.237
	c0.377,0.451,1.211,2.37,1.851,4.265c1.108,3.278,7.82,10.771,9.649,10.771c0.473,0,3.305,1.745,6.294,3.876
	c2.988,2.133,5.675,3.878,5.971,3.878c0.711,0,2.326,1.364,10.014,8.458c3.553,3.28,7.309,6.402,8.344,6.938
	c4.254,2.203,16.643-0.027,16.643-2.996c0-0.796,1.014-1.2,3.015-1.2c1.659,0,3.015-0.387,3.015-0.861
	c0-0.474,0.934-0.862,2.074-0.862c1.599,0,1.977,0.369,1.653,1.606c-0.951,3.638,7.554,7.014,10.059,3.995
	c0.685-0.825,2.592-1.292,5.276-1.292c2.498,0,4.203-0.387,4.203-0.954c0-0.525,0.602-0.722,1.338-0.44
	c0.735,0.282,2.274-0.101,3.42-0.853c1.937-1.267,2.24-1.242,4.277,0.36c2.167,1.705,7.336,1.079,7.336-0.887
	c0-0.37,1.338-0.673,2.974-0.673c3.122,0,7.353-1.505,8.428-2.998c0.348-0.484,0.64-0.528,0.647-0.1
	c0.007,0.43,0.692,0.2,1.521-0.509c1.719-1.47,11.423-7.382,15.294-9.316c11.841-5.922,14.827-10.482,13.046-19.919l-0.588-3.117
	l4.077-0.46c4.883-0.55,10.605-5.802,10.605-9.733c0-1.478,1.336-3.762,3.814-6.518c2.098-2.332,4.081-5.492,4.407-7.02
	c0.328-1.526,0.98-3.256,1.453-3.843c0.472-0.586,0.638-1.64,0.369-2.341c-0.27-0.703-0.119-1.506,0.334-1.786
	c0.922-0.57,1.146-11.861,0.253-12.754c-1.868-1.868-1.739-17.282,0.141-16.658c1.015,0.336,0.626,5.483-0.588,7.753
	c-1.021,1.913-0.21,3.007,1.192,1.606c1.514-1.514,1.832-10.552,0.462-13.095c-0.974-1.809-0.972-2.776,0.017-6.032
	c1.833-6.034-0.771-17.97-3.954-18.121c-2.805-0.134-3.639-2.421-1.967-5.398c0.934-1.665,1.494-3.232,1.242-3.484
	c-0.252-0.251,0.164-1.345,0.923-2.428c0.758-1.084,1.379-1.52,1.379-0.968c0,0.551-0.387,1.242-0.861,1.535
	c-0.474,0.292-0.862,0.958-0.862,1.477s0.776,0.242,1.723-0.616c1.949-1.762,2.22-3.898,0.69-5.428
	c-0.569-0.568-0.694-1.034-0.281-1.034c0.415,0-0.135-0.945-1.221-2.101c-3.56-3.79-6.45-13.764-4.743-16.37
	c1.382-2.108,1.327-2.3-1.889-6.68c-3.051-4.157-3.288-4.889-3.032-9.347c0.292-5.059-3.21-13.521-6.63-16.024
	c-1.101-0.805-1.354-2.163-1.134-6.073c0.411-7.315-5.475-13.444-12.428-12.941c-2.323,0.167-2.441,0.008-2.204-2.978
	c0.501-6.306-4.688-11.924-11.013-11.924c-2.665,0-3.503-0.337-3.503-1.406c0-4.385-9.379-13.319-15.778-15.029
	c-3.979-1.065-5.973-2.343-5.314-3.41c0.631-1.022-5.153-6.864-6.797-6.864c-2.178,0-1.658,1.472,0.733,2.073
	c2.067,0.519,5.396,5.327,4.387,6.336c-0.272,0.272-0.494,0.095-0.494-0.394c0-1.729-4.576-5.431-6.796-5.499
	c-1.238-0.037-1.767-0.264-1.175-0.503c2.234-0.901,0.954-2.05-2.154-1.934c-1.776,0.066-4.588-0.095-6.246-0.36
	C216.376,71.056,213.768,71.155,212.24,71.538z M224.079,75.264c2.973,2.019,6.427,7.606,5.823,9.416
	c-0.192,0.576-1.184-0.678-2.207-2.785c-1.022-2.107-2.741-4.379-3.82-5.049c-2.284-1.419-12.733-2.092-12.733-0.821
	c0,0.467-0.388,0.608-0.861,0.316c-1.332-0.823-1.022-1.985,0.645-2.422C215.304,72.774,221.322,73.39,224.079,75.264z
	 M230.96,78.165c0,0.711-0.388,1.053-0.863,0.76c-0.474-0.294-0.862-1.115-0.862-1.825c0-0.712,0.388-1.053,0.862-0.76
	C230.572,76.632,230.96,77.454,230.96,78.165z M223.012,79.836c2.716,1.902,2.38,3.107-0.454,1.628
	c-1.303-0.679-2.877-1.238-3.497-1.241c-0.621-0.002-0.888-0.392-0.595-0.866C219.227,78.123,220.806,78.29,223.012,79.836z
	 M216.812,81.941c3.066,0,2.598,2.071-1.363,6.032c-5.022,5.023-8.068,4.477-5.677-1.018c0.684-1.572,1.47-3.578,1.745-4.456
	c0.32-1.021,0.99-1.41,1.857-1.077C214.119,81.706,215.667,81.941,216.812,81.941z M240.211,83.912
	c-0.136,0.409-0.529,0.714-0.872,0.678c-0.344-0.036-1.23-0.065-1.968-0.065c-0.74,0-1.119-0.362-0.845-0.807
	C237.146,82.715,240.55,82.894,240.211,83.912z M224.42,84.869c5.793,2.42,3.046,5.947-4.771,6.124
	c-4.943,0.111-4.957,0.089-1.614-2.723c1.421-1.196,2.585-2.723,2.585-3.391C220.62,83.376,220.845,83.374,224.42,84.869z
	 M248.773,87.598c1.51,1.151,3.631,3.354,4.713,4.895l1.968,2.803l-3.077-2.586c-5.632-4.73-6.771-5.587-6.771-5.099
	c0,0.266-0.631-0.147-1.403-0.92c-0.772-0.772-1.915-1.207-2.541-0.967c-0.708,0.272-0.964-0.016-0.677-0.763
	C241.561,83.459,244.772,84.546,248.773,87.598z M236.128,88.078c0,1.528-0.212,1.652-1.292,0.756
	c-0.71-0.59-1.292-1.413-1.292-1.829c0-0.416,0.582-0.756,1.292-0.756C235.579,86.249,236.128,87.026,236.128,88.078z
	 M239.562,89.479c-0.011,1.847-0.198,2.085-0.848,1.077c-1.09-1.686-1.09-3.446,0-3.446
	C239.188,87.111,239.57,88.176,239.562,89.479z M232.036,89.172c2.19,1.661,1.859,2.301-1.076,2.077
	c-1.423-0.108-2.586-0.276-2.586-0.374C228.374,88.331,229.959,87.594,232.036,89.172z M245.179,91.272
	c-0.265,0.265-1.344-0.416-2.397-1.513l-1.914-1.995l2.396,1.513C244.582,90.11,245.443,91.007,245.179,91.272z M135.031,90.456
	c-8.671,5.717-14.868,23.758-7.154,20.825c1.929-0.734,2.273-1.382,2.273-4.282c0-3.251,1.674-5.821,2.391-3.671
	c0.521,1.563,1.913,1.21,3.644-0.924c1.966-2.424,3.201-1.398,1.86,1.545c-0.551,1.209-1.002,5.448-1.002,9.419
	c0,4.609-0.391,7.634-1.08,8.361c-1.773,1.868-5.836,11.658-6.304,15.185c-0.213,1.606,0.096,1.933,1.622,1.723
	c1.517-0.21,1.941,0.229,2.171,2.249c0.623,5.468-5.335,12.361-13.518,15.635c-2.38,0.953-3.867,2.282-4.837,4.324
	c-2.519,5.309-3.837,3.101-1.61-2.7c0.486-1.271,0.222-1.413-1.719-0.926c-1.721,0.432-2.297,0.253-2.297-0.713
	c0-2.29,3.775-3.963,8.56-3.794c4.187,0.148,4.728-0.076,7.96-3.309l3.468-3.468l-0.912-4.642
	c-1.164-5.917-0.859-8.776,1.504-14.105c3.972-8.957,3.618-13.368-1.074-13.368c-2.59,0-7.45,2.458-8.014,4.054
	c-0.301,0.85-1.223,2.322-2.049,3.27c-2.219,2.546-2.976,6.975-1.302,7.618c2.256,0.865,1.52,2.606-2.971,7.029
	c-2.37,2.334-4.308,4.543-4.308,4.909c0,0.367-1.136,2.514-2.525,4.772c-4.608,7.491-5.73,28.148-1.929,35.473
	c2.707,5.216,12.876,8.753,10.982,3.821c-0.243-0.635-0.067-1.154,0.392-1.154s0.834-0.507,0.834-1.124
	c0-0.619,1.163-2.959,2.586-5.2c3.065-4.834,3.217-7.154,0.744-11.346c-2.457-4.162-0.93-6.04,1.796-2.209l1.891,2.655l2.589-2.589
	c2.588-2.589,5.042-3.402,5.042-1.672c0,0.504-1.167,1.898-2.593,3.099c-1.631,1.372-2.95,3.594-3.552,5.986
	c-0.527,2.093-2.171,5.636-3.653,7.873c-5.938,8.964-2.817,19.993,8.159,28.83l3.101,2.497l3.581-1.433
	c6.728-2.693,8.477-26.987,2.118-29.427c-1.503-0.576-1.452-2.833,0.064-2.833c1.403,0,3.668,3.215,4.445,6.309
	c0.995,3.962,3.636,5.566,4.369,2.65c1.098-4.376-1.047-11.316-5.459-17.661c-4.952-7.121-6.177-9.387-6.476-11.976
	c-0.381-3.3,1.575-2.842,2.656,0.621c0.917,2.942,4.514,7.994,5.693,7.994c0.259,0,0.471-1.389,0.471-3.086
	c0-1.698,1.01-6.012,2.243-9.586c2.521-7.302,2.102-9.966-1.802-11.45c-2.785-1.059-2.791-2.589-0.01-2.589
	c1.81,0,2.155-0.405,2.155-2.536c0-1.583,0.665-3.002,1.775-3.779c3.15-2.206,3.37-10.132,0.348-12.51
	c-2.428-1.91-5.301-1.823-6.634,0.201c-0.628,0.953-0.765,0.646-1.004-2.23c-0.048-0.572,0.883-1.266,2.068-1.544
	c2.067-0.486,2.178-0.851,2.743-9.087c0.324-4.718,0.86-9.895,1.192-11.504C149.869,89.46,140.972,86.538,135.031,90.456z
	 M236.288,96.278c3.74,0.355,4.786,0.752,4.43,1.68c-0.347,0.907,0.323,1.214,2.643,1.214h3.108v7.254
	c0,9.226-0.305,9.979-4.034,9.979c-2.378,0-2.927,0.306-2.697,1.503c0.25,1.297,6.184,1.861,7.387,0.703
	c0.546-0.526,2.134-19.521,1.67-19.984c-0.284-0.285-1.796-0.82-3.36-1.19l-2.844-0.673l3.066-0.088
	c4.958-0.143,5.709,1.065,6.306,10.121c0.291,4.429,0.301,9.471,0.023,11.2l-0.506,3.147l-18.772,0.302
	c-13.031,0.21-18.951,0.012-19.359-0.646c-0.393-0.638,0.723-0.948,3.415-0.948c2.827,0,3.888-0.316,3.62-1.078
	c-0.254-0.722-1.909-1.001-5.026-0.846c-8.504,0.421-8.211,0.825-7.301-10.101c1.007-12.098,2.337-12.445,1.793-0.469l-0.411,9.048
	h3.939c2.775,0,3.829-0.318,3.566-1.078c-0.215-0.622-1.461-0.97-2.952-0.824l-2.579,0.252l0.036-9.3l0.036-9.299l0.812,8.016
	c0.806,7.954,0.829,8.014,3.06,7.755c2.372-0.277,3.234-2.846,0.955-2.846c-0.789,0-1.525-1.175-1.889-3.016
	c-0.895-4.525-0.809-9.478,0.165-9.478c0.475,0,0.861,2.142,0.861,4.76c0,4.754,2.536,7.639,5.242,5.966
	c1.438-0.888,0.821-2.069-1.364-2.617c-1.884-0.474-2.153-1.01-2.153-4.286v-3.744l5.815-0.255c3.199-0.139,6.397-0.332,7.108-0.427
	C230.809,95.889,233.594,96.022,236.288,96.278z M206.785,99.389c-0.078,4.337-1.445,10.495-1.578,7.107
	c-0.057-1.421-0.906-3.901-1.887-5.51c-1.89-3.101-1.316-4.356,2.006-4.385C206.465,96.592,206.822,97.272,206.785,99.389z
	 M229.985,98.096c-0.061,0.355-0.022,3.844,0.088,7.755c0.133,4.722-0.119,7.108-0.749,7.108c-0.587,0-0.95-1.988-0.95-5.197
	c0-4.665-1.433-7.518-2.962-5.896c-1.343,1.426,0.772,12.752,2.429,13.007c1.004,0.155,1.742,0.719,1.638,1.254
	c-0.324,1.678,2.113,2.992,5.019,2.706c3.991-0.392,4.335-2.427,0.41-2.427h-3.087v-7.755c0-4.265,0.005-8.046,0.009-8.401
	c0.006-0.355,1.173-0.669,2.593-0.697c4.956-0.096,5.104-2.104,0.154-2.104C232.114,97.45,230.047,97.74,229.985,98.096z
	 M257.583,104.127c0.048,1.54-0.204,2.797-0.56,2.793c-0.356-0.003-0.702-2.234-0.77-4.954c-0.09-3.541,0.07-4.335,0.56-2.793
	C257.189,100.358,257.535,102.587,257.583,104.127z M268.367,102.54c2.633,2.909,0.211,2.065-2.566-0.894
	c-1.807-1.925-2.035-2.441-0.799-1.804C265.955,100.335,267.469,101.548,268.367,102.54z M236.99,101.286
	c0,0.764,0.873,1.74,1.939,2.168c1.844,0.741,1.819,0.782-0.503,0.834c-3.014,0.067-2.675,2.201,0.354,2.226
	c1.183,0.009,2.182,0.593,2.33,1.364c0.161,0.836-0.327,1.32-1.284,1.276c-2.422-0.114-2.283,1.618,0.154,1.924
	c2.255,0.282,2.85,1.365,1.28,2.335c-0.494,0.306-1.48,0.074-2.189-0.516c-0.919-0.762-1.559-0.805-2.215-0.15
	c-2.238,2.24,1.953,3.728,5.361,1.904c1.714-0.917,2.591-12.247,1.02-13.171C240.904,100.106,236.99,99.985,236.99,101.286z
	 M264.093,105.143c0.272,0.438-0.287,1.047-1.241,1.35c-0.956,0.303-1.736,1.106-1.736,1.784c0,1.301-1.036,1.635-2.019,0.653
	c-0.614-0.614,2.712-4.587,3.841-4.587C263.301,104.343,263.821,104.703,264.093,105.143z M270.594,107.84
	c0,0.919-0.388,1.673-0.862,1.673s-0.861-0.993-0.861-2.205c0-1.252,0.372-1.975,0.861-1.673
	C270.206,105.927,270.594,106.92,270.594,107.84z M268.008,109.513c0,1.023-1.497,1.023-3.877,0
	c-1.444-0.621-1.27-0.751,1.078-0.801C266.748,108.678,268.008,109.038,268.008,109.513z M262.839,111.663
	c1.787,0.269,4.262,1.174,7.391,2.699c3.653,1.781,10.027,12.383,7.445,12.383c-0.37,0-1.16-1.066-1.757-2.37
	c-2.234-4.88-3.181-6.246-4.328-6.246c-0.718,0-0.978-0.53-0.663-1.349c0.389-1.016,0.118-1.222-1.099-0.836
	c-1.017,0.322-1.803,0.024-2.121-0.806c-0.278-0.725-0.929-1.318-1.445-1.318c-0.517,0-0.7,0.388-0.408,0.862
	c0.777,1.257-0.011,1.068-3.338-0.8c-1.626-0.915-3.135-1.486-3.349-1.272c-0.215,0.215-0.93-0.264-1.591-1.066
	c-1.095-1.329-0.973-1.395,1.385-0.766C260.383,111.158,262.128,111.556,262.839,111.663z M205.711,115.963
	c-0.358,2.198-0.128,3.206,0.857,3.756c1.083,0.607,0.885,0.869-1.02,1.346c-2.494,0.627-4.047-0.029-2.475-1.045
	c0.51-0.33,1.195-2.053,1.522-3.83C205.344,112.113,206.369,111.904,205.711,115.963z M279.523,115.87
	c5.158,2.155,7.821,7.501,6.042,12.133c-0.491,1.282-0.675,1.276-2.161-0.068c-1.473-1.334-1.5-1.607-0.286-2.947
	c1.209-1.338,1.201-1.529-0.091-2.025c-1.158-0.443-1.226-0.789-0.362-1.83c0.867-1.045,0.805-1.281-0.335-1.281
	c-0.768,0-1.398-0.363-1.398-0.806c0-0.444-1.357-1.297-3.015-1.896c-1.659-0.6-3.016-1.4-3.016-1.78
	C274.901,114.37,276.296,114.521,279.523,115.87z M263.521,120.401c-0.907,0.907-1.972,1.181-2.984,0.768
	c-1.49-0.606-1.482-0.679,0.148-1.349C263.827,118.528,265.127,118.794,263.521,120.401z M280.768,123.842
	c-0.247,1.194-0.61,0.83-1.406-1.405c-0.993-2.787-0.969-2.908,0.332-1.609C280.466,121.6,280.949,122.957,280.768,123.842z
	 M267.146,121.103c0,1.1-2.096,4.78-2.722,4.78c-0.949,0-0.916-0.359,0.276-2.976C265.551,121.041,267.146,119.863,267.146,121.103z
	 M271.787,122.837c1.742,2.657,1.738,3.046-0.022,3.046c-1.744,0-3.716-2.549-3.137-4.056
	C269.266,120.16,270.237,120.472,271.787,122.837z M242.16,123.298c0,0.474-0.582,0.862-1.292,0.862
	c-0.711,0-1.292-0.388-1.292-0.862c0-0.474,0.581-0.862,1.292-0.862C241.578,122.436,242.16,122.824,242.16,123.298z
	 M218.035,124.16c0,0.474-0.582,0.862-1.292,0.862c-0.712,0-1.294-0.388-1.294-0.862c0-0.475,0.582-0.862,1.294-0.862
	C217.453,123.298,218.035,123.685,218.035,124.16z M227.328,124.896c0.281,0.844-0.117,1.007-1.436,0.589
	c-1.058-0.336-1.825-0.204-1.825,0.313c0,0.49-0.646,0.645-1.434,0.342c-0.965-0.369-1.23-0.22-0.812,0.458
	c0.393,0.634,0.019,1.008-1.006,1.008c-2.717,0-2.908-1.066-0.457-2.549C223.151,123.368,226.79,123.285,227.328,124.896z
	 M235.267,125.123c0,0.418-0.969,0.76-2.154,0.76s-2.436,0.029-2.778,0.064c-0.344,0.036-0.737-0.269-0.873-0.679
	c-0.137-0.409,1.113-0.78,2.778-0.825C233.905,124.399,235.267,124.705,235.267,125.123z M241.299,126.871
	c0,0.316-0.776,0.371-1.723,0.123c-0.949-0.248-1.725-0.99-1.725-1.65c0-0.983,0.31-1.005,1.725-0.123
	C240.523,125.813,241.299,126.555,241.299,126.871z M254.425,125.163c-0.764,0.764-0.651,1.293,0.474,2.209
	c1.081,0.881,1.189,1.324,0.4,1.653c-1.629,0.678-1.288,2.138,0.431,1.849c0.83-0.138,1.427,0.187,1.327,0.724
	c-0.1,0.536,0.482,0.924,1.292,0.861c0.811-0.062,1.375,0.379,1.253,0.981c-0.154,0.763,0.437,0.93,1.948,0.551
	c1.83-0.46,2.077-0.305,1.579,0.992c-0.457,1.194-0.266,1.414,0.852,0.985c0.793-0.304,1.442-0.193,1.442,0.247
	s-1.255,0.719-2.787,0.619c-6.354-0.412-14.188-12.674-8.097-12.674C255.086,124.16,255.043,124.546,254.425,125.163z
	 M260.253,128.143c0,1.911-0.198,2.094-1.292,1.186c-0.71-0.59-1.292-1.607-1.292-2.259c0-0.653,0.582-1.187,1.292-1.187
	C259.782,125.883,260.253,126.709,260.253,128.143z M269.184,128.032c-0.272,0.708-0.842,1.073-1.265,0.811
	c-1.217-0.752-0.9-2.098,0.493-2.098C269.181,126.745,269.484,127.25,269.184,128.032z M241.344,130.741
	c1.003,2.639,0.745,3.146-1.215,2.394c-1.526-0.586-1.992-4.667-0.533-4.667C240.082,128.468,240.869,129.49,241.344,130.741z
	 M250.612,132.129c0.302,3.646-0.758,4.173-2.602,1.293c-2.592-4.052-2.599-5.091-0.029-4.795
	C250.032,128.862,250.381,129.327,250.612,132.129z M264.562,131.263c0,0.481-0.571,0.388-1.292-0.211
	c-0.711-0.59-1.292-1.459-1.292-1.933c0-0.481,0.571-0.388,1.292,0.21C263.98,129.919,264.562,130.79,264.562,131.263z
	 M281.764,129.472c1.663,0.19,9.518,8.075,9.473,9.51c-0.019,0.614-1.086-0.085-2.369-1.554c-3.283-3.756-6.73-5.782-10.778-6.332
	c-1.913-0.261-3.656-1.006-3.872-1.658c-0.307-0.925,0.336-1.067,2.946-0.648C278.999,129.085,281.069,129.392,281.764,129.472z
	 M235.931,130.892c0.21,0.629-0.183,0.822-1.023,0.5c-0.75-0.288-1.364-0.902-1.364-1.365
	C233.544,128.895,235.503,129.604,235.931,130.892z M230.184,131.062c1.706,0.474,3.801,1.635,4.657,2.58
	c1.516,1.676,0.72,2.494-0.909,0.935c-1.173-1.122-9.233-3.342-10.512-2.895c-0.592,0.207-1.078-0.044-1.078-0.558
	C222.342,129.958,226.101,129.928,230.184,131.062z M274.039,130.842c0,0.359-1.139,1.156-2.531,1.772s-2.704,1.777-2.915,2.579
	c-0.351,1.331-0.394,1.326-0.484-0.047c-0.121-1.808,2.826-4.955,4.638-4.955C273.458,130.191,274.039,130.484,274.039,130.842z
	 M279.21,133.935c0,0.637-0.749,1.835-1.664,2.664c-1.602,1.449-1.647,1.431-1.217-0.513c0.354-1.607,0.257-1.754-0.478-0.725
	c-1.027,1.437-1.226,0.863-0.426-1.222C276.06,132.481,279.21,132.312,279.21,133.935z M240.868,135.361
	c0.292,0.473,1.237,0.861,2.099,0.861c0.861,0,2.076,0.613,2.697,1.362c1.01,1.217,0.767,1.297-2.264,0.749
	c-4.191-0.758-4.686-1.032-4.686-2.593C238.714,134.319,240.075,134.079,240.868,135.361z M286.296,137.3
	c1.105,3.141-0.629,4.696-2.023,1.813c-1.315-2.717-1.308-2.891,0.123-2.891C285.233,136.222,286.089,136.707,286.296,137.3z
	 M254.223,138.808c-1.009,0.651-0.779,0.837,1.05,0.847c1.833,0.011,2.222,0.326,1.789,1.456c-0.419,1.093-0.205,1.307,0.888,0.888
	c0.798-0.306,1.442-0.139,1.442,0.374c0,0.51,0.55,0.715,1.221,0.458c0.673-0.258,1.435,0.089,1.697,0.769
	c0.665,1.734-2.823,1.62-5.526-0.18c-4.062-2.705-5.475-5.485-2.777-5.461C255.296,137.969,255.327,138.094,254.223,138.808z
	 M208.394,141.127c0.171,1.194-0.375,2.216-1.508,2.822c-1.641,0.877-1.775,0.714-1.775-2.159
	C205.111,138.247,207.902,137.683,208.394,141.127z M231.821,140.55c0.658,0.233-3.671,1.52-5.436,1.618
	c-0.858,0.047-1.329-0.285-1.049-0.739c0.279-0.453,1.078-0.605,1.774-0.338c0.695,0.267,1.264,0.091,1.264-0.392
	C228.374,139.968,229.972,139.899,231.821,140.55z M237.637,140.262c-0.829,0.218-2.187,0.218-3.016,0
	c-0.83-0.215-0.15-0.393,1.507-0.393C237.788,139.869,238.466,140.047,237.637,140.262z M285.419,148.779
	c10.736,13.827,10.696,13.603,3.375,19.535c-2.191,1.774-7.15,5.86-11.018,9.077c-3.869,3.217-8.133,6.402-9.478,7.078
	c-1.344,0.674-4.24,2.503-6.437,4.062c-6.29,4.466-8.98,3.843-11.042-2.558c-1.612-5.003-0.716-5.432,2.324-1.117
	c3.467,4.918,3.954,4.896,10.663-0.472c3.022-2.419,6.851-5.124,8.51-6.012c4.592-2.459,7.142-4.933,6.582-6.39
	c-0.58-1.514-2.273-1.747-2.273-0.313c0,1.154-1.355,2.308-7.757,6.605c-2.607,1.751-6.133,4.25-7.836,5.552
	c-1.702,1.303-3.445,2.368-3.875,2.364c-0.798-0.006-4.658-5.222-4.658-6.294c0-1.324,2.588-0.476,3.447,1.13
	c1.281,2.393,1.401,2.348,9.086-3.419c3.77-2.828,7.629-5.703,8.577-6.387c1.412-1.021,1.522-1.452,0.613-2.387
	c-0.916-0.942-1.491-0.655-3.293,1.649c-1.202,1.535-2.567,2.79-3.035,2.79c-0.468,0-2.852,1.526-5.299,3.392
	c-5.474,4.174-9.044,2.755-5.41-2.15c1.182-1.597,1.292-1.602,2.379-0.137c1.056,1.424,1.527,1.222,6.519-2.801
	c2.959-2.384,5.767-4.336,6.238-4.336c1.131,0,1.09-1.145-0.082-2.319c-0.679-0.678-1.816,0.007-4.093,2.468
	c-3.179,3.434-7.678,6.384-8.493,5.569c-1.023-1.023,1.269-5.302,2.976-5.554c0.994-0.147,2.271-0.826,2.837-1.507
	c0.567-0.683,1.523-1.241,2.125-1.241c1.672,0,2.312-2.573,0.785-3.16c-0.762-0.292-2.052,0.271-3.034,1.325
	c-2.232,2.397-3.364,2.322-3.364-0.22c0-1.259,0.861-2.621,2.225-3.514c2.054-1.345,2.121-1.576,0.863-2.967
	c-0.751-0.83-1.365-2.156-1.365-2.948c0-1.699-1.766-1.888-3.383-0.363c-0.719,0.679-1.021,0.718-0.818,0.107
	c0.445-1.332,11.981-10.062,12.548-9.494c0.252,0.25-1.313,1.705-3.478,3.231c-2.164,1.526-3.735,3.099-3.49,3.496
	c0.824,1.334,2.271,0.737,5.684-2.347c1.867-1.687,3.829-2.923,4.359-2.746c1.121,0.373,2.019,2.514,0.937,2.232
	c-1.305-0.34-7.189,3.72-7.189,4.96c0,1.556,2.497,1.575,3.093,0.023c0.789-2.059,6.198-4.516,7.366-3.348
	c1.167,1.168-0.392,3.67-2.288,3.67c-0.602,0-1.318,0.581-1.591,1.293c-0.273,0.71-1.118,1.292-1.878,1.292
	c-0.828,0-1.27,0.576-1.104,1.436c0.416,2.146,2.207,2.356,2.849,0.335c0.309-0.974,0.995-1.771,1.524-1.771
	c0.531,0,1.803-0.788,2.828-1.752c1.676-1.574,1.979-1.615,2.984-0.404c1.344,1.619-0.642,3.563-4.522,4.428
	c-2.851,0.635-3.388,3.76-0.645,3.76c0.947,0,1.725-0.292,1.728-0.647c0.004-0.355,1.391-1.589,3.083-2.742
	c4.66-3.175,5.675-0.707,1.186,2.882c-1.828,1.463-3.345,3.145-3.369,3.737c-0.065,1.596,0.575,1.353,4.27-1.616
	c1.983-1.593,3.899-2.485,4.69-2.182c1.946,0.748,1.638,1.876-0.819,2.995c-1.184,0.54-2.154,1.336-2.154,1.769
	c0,0.432-0.969,1.029-2.153,1.327c-2.406,0.603-2.941,2.231-0.735,2.231c1.757,0,8.926-5.771,8.901-7.167
	c-0.009-0.559-2.432-3.59-5.384-6.733c-2.952-3.141-6.45-7.116-7.773-8.83c-1.373-1.779-3.162-3.119-4.165-3.119
	c-1.024,0-1.608-0.449-1.399-1.077c0.197-0.592,0.779-1.077,1.292-1.077c0.513,0,1.232-0.299,1.598-0.664
	C277.524,139.057,278.769,140.215,285.419,148.779z M242.16,141.392c0,0.474-0.582,0.862-1.292,0.862
	c-0.711,0-1.292-0.388-1.292-0.862s0.581-0.861,1.292-0.861C241.578,140.531,242.16,140.918,242.16,141.392z M290.383,145.126
	c0.049,2.838-2.119,0.961-2.4-2.077c-0.259-2.809-0.209-2.867,1.05-1.226C289.761,142.77,290.368,144.256,290.383,145.126z
	 M221.317,145.485c-4.275,4.456-6.431,9.272-6.648,14.842c-0.259,6.661-0.943,6.59-0.943-0.097c0-6.718,2.807-13.061,7.093-16.037
	C224.759,141.457,224.879,141.771,221.317,145.485z M249.176,146.439c2.301,2.301,4.186,4.686,4.186,5.299
	c0,0.612-1.175-0.508-2.612-2.49c-1.436-1.983-3.859-4.366-5.384-5.297c-1.527-0.93-2.235-1.693-1.575-1.694
	C244.451,142.255,246.874,144.137,249.176,146.439z M241.555,144.28c4.045,1.69,8.739,7.248,7.442,8.812
	c-0.55,0.663-1.344,0.992-1.764,0.734c-0.421-0.261-0.764,0.132-0.764,0.87c0,1.556,1.151,1.709,3.481,0.462
	c5.031-2.692,3.98,11.078-1.22,15.99c-4.82,4.554-5.264,4.64-6.441,1.262c-0.496-1.421-1.309-2.584-1.808-2.584
	c-1.284,0-1.075,1.857,0.433,3.852c1.219,1.613,1.052,1.776-3.258,3.207c-5.043,1.674-7.559,1.941-7.559,0.802
	c0-0.415-1.131-0.98-2.514-1.256c-11.276-2.255-14.452-20.031-5.128-28.687C227.29,143.257,235.531,141.763,241.555,144.28z
	 M237.565,144.551c-0.316,0.316-0.575,1.318-0.575,2.226c0,2.235,2.082,1.438,2.43-0.929
	C239.686,144.037,238.741,143.375,237.565,144.551z M230.436,146.201c0.288,0.75,0.524,1.72,0.524,2.154
	c0,0.435,0.58,0.792,1.292,0.792c0.71,0,1.292-0.357,1.292-0.792c0-1.815-1.132-3.517-2.338-3.517
	C230.381,144.838,230.103,145.331,230.436,146.201z M257.487,146.186c1.103,0.772,2.655,1.116,3.637,0.803
	c2.547-0.808,2.063,0.697-0.626,1.945c-1.937,0.901-2.442,0.872-3.028-0.172c-0.385-0.689-1.301-1.854-2.036-2.589
	C253.704,144.443,255.01,144.451,257.487,146.186z M292.727,148.931c-0.216,0.83-0.393,0.151-0.393-1.507
	c0-1.659,0.177-2.337,0.393-1.509C292.944,146.744,292.944,148.102,292.727,148.931z M223.42,149.361
	c0.197,0.594,1.089,1.219,1.983,1.392c1.405,0.273,1.469,0.128,0.469-1.076C224.505,148.03,222.908,147.825,223.42,149.361z
	 M243.883,149.577c-0.896,1.08-0.771,1.293,0.757,1.293c1.051,0,1.829-0.55,1.829-1.293c0-0.71-0.341-1.292-0.757-1.292
	S244.473,148.867,243.883,149.577z M220.62,153.051c0,0.726,0.679,1.539,1.508,1.807c8.565,2.768,14.219,8.825,10.425,11.17
	c-1.152,0.712-0.856,3.483,0.491,4.601c1.778,1.477,2.993-1.132,2.44-5.247c-0.262-1.957-0.016-3.808,0.606-4.558
	c1.382-1.664,0.432-3.061-2.079-3.061c-1.11,0-4.034-1.358-6.498-3.016C222.661,151.483,220.62,150.98,220.62,153.051z
	 M254.948,154.101c-0.076,0.355,0.166,1.341,0.537,2.191c0.606,1.389,0.054,3.147-0.71,2.26c-0.887-1.029-1.341-5.098-0.568-5.098
	C254.689,153.454,255.023,153.745,254.948,154.101z M218.897,155.934c0,1.102,2.533,3.029,3.159,2.403
	c0.625-0.625-1.302-3.159-2.404-3.159C219.237,155.178,218.897,155.518,218.897,155.934z M263.15,156.47
	c-0.273,0.711-0.842,1.293-1.265,1.293s-0.769-0.582-0.769-1.293c0-0.71,0.569-1.292,1.264-1.292
	C263.151,155.178,263.452,155.683,263.15,156.47z M170.986,159.351c-3.867,2.43-4.878,10.854-1.622,13.512
	c1.847,1.507,3.867,8.848,3.867,14.052c0,6.132,4.677,9.826,8.103,6.401c0.349-0.35,1.092-0.646,1.651-0.658
	c3.245-0.068,10.27-3.389,11.12-5.256c2.095-4.597-4.326-14.35-9.98-15.16c-1.007-0.144-1.962-0.959-2.125-1.809
	c-0.434-2.278,3.195-1.544,7.102,1.436c5.273,4.022,7.766-0.38,4.325-7.633c-1.314-2.77-8.111-5.922-9.586-4.445
	c-0.299,0.297-1.006,0.158-1.571-0.311C180.078,157.659,173.791,157.587,170.986,159.351z M204.588,160.85
	c0.322,0.839,0.13,1.234-0.5,1.024c-1.288-0.43-1.997-2.388-0.864-2.388C203.686,159.486,204.3,160.1,204.588,160.85z
	 M210.116,164.4c-2.102,2.236-3.283,1.867-3.283-1.027c0-1.46,0.555-2.126,1.939-2.332
	C211.581,160.625,212.202,162.179,210.116,164.4z M249.053,162.071c0,0.474,0.776,0.862,1.723,0.862
	c0.949,0,1.723-0.388,1.723-0.862c0-0.475-0.774-0.861-1.723-0.861C249.829,161.21,249.053,161.596,249.053,162.071z
	 M204.122,164.073c0.644,0.774,0.666,1.422,0.07,2.018c-0.595,0.596-0.468,1.219,0.4,1.939c0.703,0.582,1.071,1.597,0.819,2.254
	c-0.277,0.724,0.676,1.886,2.421,2.949c1.584,0.966,2.298,1.744,1.587,1.73c-2.985-0.059-6.235-4.236-7.181-9.23
	C201.685,162.82,202.494,162.109,204.122,164.073z M219.111,164.412c-0.592,0.213-1.076,0.937-1.076,1.608
	c0,1.35,1.547,1.58,3.272,0.485C222.713,165.613,220.812,163.801,219.111,164.412z M212.379,167.151
	c0.262,0.423-0.158,1.014-0.935,1.312c-1.677,0.644-2.42,0.112-1.63-1.165C210.507,166.178,211.734,166.107,212.379,167.151z
	 M216.312,168.934c0,2.033,4.602,7.489,6.945,8.232c0.919,0.291,1.671,0.925,1.671,1.408c0,1.331-6.956-4.065-8.752-6.79
	c-1.745-2.645-2.048-4.544-0.727-4.544C215.924,167.24,216.312,168.003,216.312,168.934z M246.469,168.859
	c0,1.005,0.364,1.828,0.81,1.828c1.493,0,1.768-1.516,0.472-2.592C246.683,167.208,246.469,167.336,246.469,168.859z
	 M254.223,169.771c0,1.471-6.406,7.081-9.909,8.676c-3.453,1.574-14.312,3.353-13.188,2.161c0.328-0.348,2.271-0.765,4.315-0.926
	c6.556-0.517,15.48-5.378,16.652-9.071C252.625,168.933,254.223,168.304,254.223,169.771z M296.076,172.8
	c-0.433,2.305-1.003,3.056-2.317,3.056c-1.991,0-1.609-2.682,0.769-5.389C296.31,168.437,296.765,169.124,296.076,172.8z
	 M224.266,171.549c-1.229,1.969-0.468,2.199,1.738,0.523c1.774-1.345,1.944-2.246,0.423-2.246
	C225.83,169.826,224.858,170.601,224.266,171.549z M213.726,171.588c0,0.495,0.993,1.894,2.208,3.107
	c3.12,3.121,1.954,3.528-1.716,0.599c-3.207-2.558-4-4.607-1.784-4.607C213.145,170.687,213.726,171.092,213.726,171.588z
	 M202.451,173.918c-0.49,6.276-0.128,7.108,3.09,7.108c1.659,0,3.017,0.354,3.017,0.788c0,0.774-6.572,0.374-7.96-0.484
	c-0.391-0.241-0.483-1.668-0.206-3.172c0.276-1.502,0.564-3.605,0.64-4.67c0.075-1.067,0.468-1.939,0.871-1.939
	C202.305,171.549,202.553,172.614,202.451,173.918z M230.097,174.995c0,1.111,0.436,1.721,1.077,1.508
	c0.592-0.198,1.078-0.876,1.078-1.508c0-0.632-0.486-1.31-1.078-1.507C230.533,173.274,230.097,173.885,230.097,174.995z
	 M284.815,175.851c-0.86,0.951-1.96,1.729-2.443,1.729s0.031-0.968,1.143-2.151C285.885,172.906,287.118,173.306,284.815,175.851z
	 M289.815,176.072c-0.966,1.066-2.488,2.867-3.38,4c-0.894,1.134-2.692,3.318-3.994,4.853c-1.304,1.535-2.37,3.049-2.37,3.364
	c0,0.316-0.969,1.473-2.154,2.57c-1.185,1.098-2.153,2.437-2.153,2.974c0,0.539-0.388,0.979-0.863,0.979
	c-1.423,0-0.982-1.341,1.226-3.723c1.148-1.239,2.337-3.041,2.642-4.004c0.307-0.963,0.849-1.75,1.206-1.75
	c0.356,0,2.668-2.521,5.136-5.601c2.468-3.08,4.932-5.601,5.475-5.601S290.781,175.006,289.815,176.072z M208.304,177.58
	c0.497,0,1.343,0.528,1.878,1.174c0.793,0.955,0.532,1.095-1.401,0.746c-2.956-0.532-4.532-1.733-4.532-3.451
	c0-1.149,0.206-1.135,1.576,0.105C206.692,176.938,207.808,177.58,208.304,177.58z M299.889,178.011c0,0.71-0.582,1.292-1.293,1.292
	s-1.293-0.582-1.293-1.292c0-0.711,0.582-1.292,1.293-1.292S299.889,177.3,299.889,178.011z M293.502,180.807
	c-0.941,0.941-1.586-0.557-0.911-2.113c0.641-1.476,0.688-1.475,1.044,0.03C293.841,179.591,293.782,180.528,293.502,180.807z
	 M279.549,180.666c0.808,2.109,0.632,2.316-0.77,0.914c-1.465-1.464-1.651-2.277-0.524-2.277
	C278.679,179.303,279.261,179.916,279.549,180.666z M218.007,183.991c-0.015,0.502-0.597,0.159-1.292-0.76
	c-0.695-0.92-1.253-2.083-1.238-2.585c0.015-0.501,0.597-0.16,1.293,0.761C217.466,182.326,218.022,183.49,218.007,183.991z
	 M298.525,180.688c3.331,1.278,1.119,5.051-2.439,4.158c-2.064-0.519-2.099-0.633-0.802-2.611
	C296.806,179.911,296.671,179.976,298.525,180.688z M224.067,181.867c0,0.848,6.888,4.329,8.568,4.329
	c1.382,0,1.089,1.293-0.65,2.867c-2.364,2.139-11.895-3.767-10.272-6.365C222.827,180.917,224.067,180.478,224.067,181.867z
	 M304.196,183.18c0,0.656-0.388,1.43-0.862,1.724c-0.49,0.303-0.861-0.439-0.861-1.724c0-1.284,0.371-2.026,0.861-1.723
	C303.808,181.749,304.196,182.525,304.196,183.18z M289.612,184.473c1.125,0,0.995,2.905-0.183,4.083
	c-0.734,0.734-1.404,0.507-2.657-0.905c-1.301-1.465-1.569-1.549-1.2-0.379c0.262,0.831,0.124,1.509-0.308,1.509
	c-1.748,0-1.51-1.531,0.674-4.321c1.81-2.314,2.367-2.628,2.591-1.467C288.686,183.807,289.173,184.473,289.612,184.473z
	 M234.026,184.112c1.53,1.247,1.538,1.32,0.094,0.862c-0.869-0.276-2.151-0.501-2.852-0.501c-0.7,0-1.033-0.388-0.74-0.861
	C231.268,182.413,232.085,182.531,234.026,184.112z M247.668,184.112c0.767,1.998,0.642,2.946-0.389,2.946
	c-0.502,0-0.69-0.361-0.417-0.803c0.273-0.441,0.102-1.045-0.379-1.343c-1.081-0.668-1.155-2.163-0.107-2.163
	C246.799,182.749,247.381,183.363,247.668,184.112z M244.744,188.354c0,2.314-0.38,2.883-2.153,3.222
	c-2.408,0.461-3.429-6.501-1.078-7.347C243.322,183.579,244.744,185.396,244.744,188.354z M276.521,187.058
	c-3.014,3.751-3.373,3.933-4.85,2.455c-0.747-0.745-0.229-1.595,2.1-3.446C278.358,182.422,279.823,182.949,276.521,187.058z
	 M208.869,185.141c0.226,0.368-0.526,1.572-1.673,2.675c-2.156,2.076-2.753,1.237-1.194-1.677
	C206.928,184.41,208.154,183.984,208.869,185.141z M214.936,185.861c0.39,1.017,0.165,1.248-0.839,0.862
	c-0.755-0.29-1.729-0.527-2.164-0.527c-0.435,0-0.791-0.388-0.791-0.861C211.142,183.915,214.362,184.362,214.936,185.861z
	 M223.211,188.273c2.349,1.616,4.764,3.114,5.364,3.329c0.6,0.213,0.816,0.686,0.478,1.049s-2.604-0.618-5.038-2.18
	c-2.433-1.562-4.969-2.839-5.633-2.839c-1.29,0-1.576-0.781-0.635-1.724C218.578,185.078,218.542,185.062,223.211,188.273z
	 M238.226,186.967c0.263,0.425-0.161,1.017-0.942,1.317c-1.277,0.49-1.254,0.67,0.22,1.785c1.176,0.891,1.294,1.25,0.414,1.269
	c-0.853,0.019-0.595,0.702,0.84,2.229c1.838,1.957,1.879,2.14,0.366,1.643c-1.375-0.451-1.291-0.223,0.439,1.186
	c2.744,2.237,1.695,3.414-1.161,1.301c-2.346-1.735-3.105-3.606-3.123-7.695C235.264,186.587,236.931,184.87,238.226,186.967z
	 M299.884,188.997c0.003,2.166-0.272,2.368-3.227,2.355c-4.573-0.018-5.859-0.974-4.416-3.284
	C294.09,185.106,299.878,185.808,299.884,188.997z M210.281,190.504c0,0.474-0.334,0.862-0.74,0.862
	c-0.406,0-1.136,1.648-1.62,3.662l-0.88,3.662l-0.104-4.525c-0.091-3.983,0.102-4.523,1.621-4.523
	C209.505,189.642,210.281,190.03,210.281,190.504z M218.897,190.37c0,0.401-0.816,1.466-1.812,2.367
	c-0.996,0.902-2.357,2.694-3.023,3.981c-1.714,3.316-4.087,2.329-3.294-1.37c1.003-4.674,1.933-5.706,5.144-5.706
	C217.553,189.642,218.897,189.971,218.897,190.37z M248.531,191.006c0.321,0.84,0.13,1.234-0.501,1.024
	c-1.287-0.429-1.997-2.388-0.865-2.388C247.628,189.642,248.243,190.256,248.531,191.006z M285.707,190.562
	c0.312,0.505,0.391,1.096,0.174,1.312c-0.6,0.601-3.226-0.589-3.226-1.462C282.655,189.333,285.019,189.449,285.707,190.562z
	 M271.215,194.001c-0.121,1.591-0.718,1.45-3.341-0.796c-2.044-1.751-1.14-2.851,1.396-1.697
	C270.432,192.038,271.28,193.125,271.215,194.001z M223.858,192.363c0.757,0.757,0.412,1.748-1.426,4.093
	c-1.334,1.702-2.896,3.993-3.47,5.089c-0.842,1.604-1.289,1.794-2.28,0.972c-2.007-1.666-1.428-4.037,1.884-7.703
	C221.956,191.062,222.367,190.873,223.858,192.363z M234.345,195.358c0.077,1.248-3.219,2.144-3.89,1.059
	c-0.278-0.451,0.171-1.853,1-3.119C232.98,190.973,234.123,191.788,234.345,195.358z M292.996,192.658
	c1.184,0.677,3.026,1.245,4.092,1.262c2.225,0.035,2.417,0.77,0.786,3.001c-0.944,1.291-1.839,1.472-4.954,1
	c-5.739-0.867-6.516-1.596-4.56-4.279C290.251,191.048,290.199,191.06,292.996,192.658z M247.358,199.016
	c-0.514,1.91-1.489,4.025-2.164,4.701c-0.676,0.676-1.054,1.403-0.842,1.615c0.75,0.75-3.808,4.306-4.931,3.847
	c-0.784-0.32-0.601-0.632,0.585-1.001c0.948-0.295,2.464-2.066,3.37-3.935c0.905-1.87,1.894-3.399,2.199-3.399
	c0.303,0,0.589-1.331,0.636-2.958c0.045-1.626,0.404-3.468,0.796-4.092C248.199,191.897,248.413,195.097,247.358,199.016z
	 M253.362,195.137c0,0.653-0.534,1.63-1.186,2.17c-0.952,0.791-1.184,0.557-1.184-1.186c0-1.267,0.492-2.17,1.184-2.17
	C252.828,193.951,253.362,194.485,253.362,195.137z M263.27,195.674c0.292,0.473,0.114,0.861-0.397,0.861
	c-0.574,0-0.71,0.871-0.356,2.283c0.403,1.606,0.28,2.102-0.414,1.673c-1.182-0.732-1.336-5.679-0.177-5.679
	C262.372,194.812,262.977,195.2,263.27,195.674z M268.399,195.812c2.305,1.05,2.666,2.091,1.413,4.069
	c-1.075,1.698-3.935-0.525-4.026-3.13C265.706,194.487,265.586,194.53,268.399,195.812z M228.932,197.902
	c0.912,1.392,1.137,2.441,0.598,2.8c-2.874,1.911-5.175,4.322-6.095,6.388c-1.255,2.819-2.031,2.962-3.478,0.643
	c-0.918-1.469-0.756-2.236,1.084-5.152c1.19-1.885,2.164-3.803,2.164-4.263c0-0.824,2.424-2.567,3.641-2.618
	C227.191,195.685,228.13,196.677,228.932,197.902z M280.932,197.059c0,0.908-0.467,1.204-1.363,0.861
	c-0.748-0.288-1.718-0.523-2.153-0.523c-0.436,0-0.791-0.388-0.791-0.862s0.97-0.861,2.154-0.861
	C280.182,195.674,280.932,196.155,280.932,197.059z M257.213,200.245c-0.739,3.939-5.559,9.248-8.276,9.115
	c-1.461-0.072-1.61-0.212-0.531-0.495c0.83-0.216,1.508-0.775,1.508-1.242c0-0.468,0.388-0.611,0.862-0.317
	c0.474,0.292,0.861-0.031,0.861-0.719c0-0.688,0.576-1.472,1.279-1.741c0.731-0.281,1.059-1.062,0.765-1.825
	c-0.387-1.011-0.121-1.197,1.092-0.768c1.273,0.451,1.394,0.339,0.583-0.537c-0.792-0.856-0.716-1.569,0.332-3.17
	C257.426,195.893,257.926,196.448,257.213,200.245z M236.487,198.813c0.3,0.778,0.34,1.618,0.093,1.867
	c-0.248,0.247-0.452-0.028-0.452-0.613c0-0.671-0.635-0.862-1.722-0.516c-1.851,0.587-2.441-0.859-0.647-1.583
	C235.572,197.236,235.924,197.344,236.487,198.813z M289.732,199.057c2.505,0.912,5.303,1.784,6.217,1.938
	c1.454,0.245,1.507,0.447,0.431,1.608c-0.677,0.731-1.671,2.088-2.208,3.016c-1.102,1.902-6.161,2.222-8.187,0.52
	c-0.646-0.543-2.144-1.731-3.33-2.638l-2.153-1.65l2.088-2.226C285.077,196.973,284.202,197.042,289.732,199.057z M276.25,201.496
	c-1.517,1.43-1.567,1.426-1.04-0.077c0.304-0.868,0.554-2.012,0.554-2.542c0-0.668,0.318-0.645,1.039,0.076
	C277.615,199.766,277.495,200.322,276.25,201.496z M207.653,202.187c-1.27,1.53-2.542,0.817-2.542-1.425
	c0-1.453,0.26-1.564,1.778-0.751C208.306,200.769,208.461,201.213,207.653,202.187z M202.626,202.755
	c0.499,0.932,0.657,2.692,0.352,3.911l-0.556,2.217l-1.52-2.512c-2.462-4.068-2.775-6.252-0.825-5.741
	C200.98,200.866,202.127,201.822,202.626,202.755z M273.25,201.489c0.123,2.586,0.542,4.888,1.216,6.678
	c0.529,1.409,0.372,1.354-0.856-0.297c-1.782-2.393-2.732-7.888-1.363-7.888C272.759,199.982,273.21,200.66,273.25,201.489z
	 M261.606,201.801c0.325,0.528,0.212,1.206-0.251,1.509c-0.463,0.301-1.215,1.688-1.672,3.08c-1.332,4.068-2.823,3.772-1.726-0.342
	c0.512-1.915,1.261-3.481,1.664-3.481c0.404,0,0.495-0.388,0.202-0.862s-0.144-0.861,0.329-0.861
	C260.626,200.844,261.28,201.274,261.606,201.801z M214.987,204.793c1.167,1.781,1.182,2.082,0.103,2.082
	c-0.694,0-1.502-0.388-1.794-0.861c-0.293-0.475-1.286-0.863-2.205-0.863c-1.877,0-2.149-0.901-0.706-2.345
	C211.665,201.527,213.314,202.239,214.987,204.793z M241.299,202.433c0,1.86-3.402,3.828-4.724,2.732
	c-1.72-1.428-1.654-2.381,0.2-2.867C239.375,201.619,241.299,201.676,241.299,202.433z M305.356,205.582
	c0.727,2.133,0.995,3.878,0.595,3.878c-0.772,0-2.617-4.646-2.617-6.592C303.334,200.743,304.019,201.662,305.356,205.582z
	 M233.794,205.422l2.178,2.854l-2.507-0.368c-1.995-0.292-2.512-0.04-2.537,1.238c-0.049,2.536-3.719,6.505-5.412,5.855
	c-1.864-0.715-1.845-3.267,0.048-6.701C229.189,201.725,230.599,201.233,233.794,205.422z M268.44,203.428
	c1.578,0.678,1.542,0.744-0.432,0.788c-1.184,0.026-2.735-0.328-3.446-0.788C262.866,202.332,265.889,202.332,268.44,203.428z
	 M282.292,205.216c1.502,1.457,4.18,3.146,5.947,3.754l3.214,1.105l-2.593,1.846c-3.866,2.754-8.789,1.383-8.789-2.447
	c0-0.888-0.969-2.375-2.154-3.307c-2.962-2.329-2.926-2.429,1.252-3.501C279.382,202.612,280.788,203.759,282.292,205.216z
	 M248.551,204.175c0.254,0.411-0.337,1.469-1.314,2.353c-1.765,1.596-1.768,1.592-0.702-0.747
	C247.709,203.203,247.871,203.074,248.551,204.175z M266.828,206.875c2.252,0,0.44,1.509-2.293,1.91
	c-2.013,0.296-2.521,0.1-2.164-0.832c0.257-0.67,0.468-1.797,0.468-2.502c0-1.108,0.186-1.098,1.354,0.069
	C264.937,206.266,266.124,206.875,266.828,206.875z M302.613,208.184c0.367,1.368,0.436,3.407,0.154,4.53
	c-0.806,3.21-2.379,0.805-2.416-3.696C300.316,204.756,301.573,204.292,302.613,208.184z M210.829,207.3
	c1.357,0.708,3.385,1.29,4.506,1.292c1.693,0.005,1.951,0.335,1.519,1.945c-0.285,1.066-0.525,2.423-0.53,3.015
	c-0.021,1.857-7.382,0.655-10.657-1.74C201.724,208.929,206.294,204.935,210.829,207.3z M298.166,209.316
	c0,2.265-0.817,2.771-2.635,1.637c-1.175-0.734-1.347-1.281-0.663-2.104C296.222,207.218,298.166,207.493,298.166,209.316z
	 M271.455,209.757c0,2.289,3.129,4.241,5.106,3.183c1.671-0.894,5.97,0.933,6.068,2.578c0.068,1.153-5.449,2.454-6.965,1.643
	c-2.901-1.553-7.052-8.563-5.07-8.563C271.067,208.598,271.455,209.119,271.455,209.757z M237.851,211.183
	c0,0.473-0.58,0.861-1.292,0.861c-0.71,0-1.292-0.388-1.292-0.861c0-0.474,0.582-0.862,1.292-0.862
	C237.271,210.321,237.851,210.709,237.851,211.183z M268.871,211.552c0,0.678,1.298,2.609,2.885,4.291
	c2.559,2.713,2.705,3.111,1.293,3.509c-0.876,0.246-2.329,0.654-3.226,0.907c-1.268,0.357-2.037-0.376-3.446-3.288
	c-2.207-4.558-2.257-5.546-0.307-6.055C268.656,210.239,268.871,210.287,268.871,211.552z M306.043,214.625
	c-0.354,1.708-0.886,2.584-1.231,2.027c-0.803-1.3,0.285-6.641,1.168-5.739C306.358,211.299,306.386,212.968,306.043,214.625z
	 M218.9,218.488c-0.61,3.564-1.433,6.481-1.827,6.481c-0.395,0-0.552-1.066-0.35-2.37c0.203-1.303,0.596-4.078,0.872-6.164
	c0.535-4.04,1.178-5.662,1.944-4.897C219.796,211.796,219.51,214.923,218.9,218.488z M240.912,215.922
	c-0.604,2.369-1.538,4.269-2.078,4.221c-0.54-0.047-1.563-0.144-2.275-0.214c-2.02-0.202-1.547-1.564,1.845-5.32
	C242.194,210.413,242.299,210.469,240.912,215.922z M246.95,212.703c2.524,1.75,0.93,8.814-1.99,8.816
	c-3.283,0.004-3.743-2.15-1.444-6.757C244.924,211.937,245.418,211.642,246.95,212.703z M254.223,216.18
	c0,2.275,0.464,4.601,1.033,5.17c0.805,0.804,0.524,1.034-1.262,1.034c-5.019,0-5.416-9.746-0.418-10.271
	C253.932,212.075,254.223,213.905,254.223,216.18z M262.839,212.906c0,0.474-0.1,0.862-0.222,0.862c-0.12,0-1.478,0.36-3.015,0.801
	c-2.464,0.706-2.794,0.604-2.794-0.861c0-1.327,0.61-1.664,3.015-1.664C261.482,212.044,262.839,212.432,262.839,212.906z
	 M297.143,216.137c0.3,3.122-1.284,3.916-1.719,0.861c-0.452-3.188-5.067-2.691-6.778,0.73c-1.261,2.522-5.128,2.951-5.128,0.568
	C283.518,213.639,296.7,211.551,297.143,216.137z M208.141,214.964c0.9,0.658,2.137,1.004,2.749,0.77
	c0.613-0.235,1.114-0.043,1.114,0.426c0,0.469,0.871,1.098,1.938,1.399c3.135,0.881-0.529,3.101-5.119,3.101h-3.712v-3.446
	C205.111,213.491,205.614,213.117,208.141,214.964z M234.12,215.127c0.287,0.747-0.034,1.914-0.713,2.593
	c-1.638,1.638-4.737-0.372-3.907-2.535C230.192,213.378,233.433,213.337,234.12,215.127z M222.771,220.667
	c-0.71,1.371-1.29,3.094-1.29,3.828c0,0.735-0.401,1.335-0.891,1.335c-0.489,0-0.75-0.872-0.575-1.939
	c0.477-2.938,2.485-6.68,3.312-6.171C223.73,217.97,223.479,219.296,222.771,220.667z M303.778,222.355
	c-0.862,1.911-1.854,3.475-2.205,3.475c-1.064,0-1.851-2.961-0.873-3.286c0.502-0.167,0.911-0.895,0.911-1.617
	c0-0.765,0.499-1.122,1.195-0.854c0.864,0.332,1.071-0.061,0.744-1.416c-0.362-1.51-0.232-1.67,0.673-0.825
	C305.142,218.69,305.061,219.511,303.778,222.355z M229.577,219.915l2.144,0.977l-2.468,2.47c-4.059,4.057-7.034,2.734-4.615-2.055
	C225.973,218.661,226.499,218.512,229.577,219.915z M281.254,222.168c-0.359,2.679-0.888,5.335-1.587,7.971
	c-0.921,3.464-5.907,12.001-6.735,11.529c-2.932-1.672-3.035-2.139-0.938-4.236c2.575-2.575,8.077-13.836,8.077-16.532
	c0-1.079,0.363-1.963,0.808-1.963C281.323,218.937,281.491,220.392,281.254,222.168z M262.687,221.809
	c0.153,0.79-0.249,1.437-0.893,1.437c-0.644,0-1.17-0.781-1.17-1.734C260.624,219.476,262.281,219.715,262.687,221.809z
	 M276.883,221.737c-0.448,0.593-0.895,2.414-0.994,4.048c-0.213,3.513-0.668,4.156-1.999,2.825
	c-0.736-0.737-0.714-1.308,0.088-2.275c0.59-0.709,0.843-1.66,0.564-2.113c-0.789-1.276,0.397-3.562,1.85-3.562
	C277.296,220.66,277.447,220.991,276.883,221.737z M286.964,222.52c0,0.447,1.331,1.369,2.957,2.049
	c3.42,1.429,4.298,2.521,3.563,4.435c-0.477,1.245-0.664,1.243-2.071-0.031c-0.851-0.77-2.878-1.631-4.506-1.915
	c-5.104-0.889-5.439-1.089-4.242-2.531c0.585-0.704,0.775-1.281,0.422-1.281c-0.354,0-0.178-0.559,0.388-1.242
	C284.539,220.723,286.964,221.081,286.964,222.52z M297.168,223.997c7.626,11.099,10.071,35.618,4.264,42.76
	c-0.386,0.474-1.476,1.896-2.424,3.162c-1.83,2.447-9.024,6.894-9.837,6.081c-1.11-1.11-0.309-1.874,2.524-2.405
	c1.655-0.312,2.795-0.911,2.535-1.332c-0.262-0.422,0.123-0.768,0.852-0.768c0.73,0,1.571-0.969,1.868-2.153
	c0.297-1.184,0.886-2.154,1.308-2.154c0.423,0,0.769-0.582,0.769-1.293s0.413-1.293,0.92-1.293c0.527,0,0.686-0.733,0.372-1.722
	c-0.393-1.242-0.155-1.723,0.855-1.723c0.808,0,1.15-0.406,0.809-0.958c-0.326-0.527-0.058-1.303,0.596-1.723
	c0.827-0.534,0.899-0.962,0.24-1.412c-1.22-0.834-1.225-3.913-0.007-4.703c0.663-0.431,0.625-0.925-0.131-1.68
	c-1.277-1.279-1.432-2.774-0.208-2.018c0.474,0.292,0.861,0.122,0.861-0.38c0-0.501-0.484-0.918-1.076-0.925
	c-0.721-0.01-0.649-0.295,0.215-0.862c1.134-0.745,1.138-0.948,0.026-1.663c-0.698-0.449-0.992-1.092-0.654-1.429
	c0.337-0.337,0.181-1.134-0.346-1.77c-0.706-0.851-0.705-1.156,0.007-1.156c0.532,0,0.967-0.388,0.967-0.862
	s-0.582-0.861-1.292-0.861c-0.711,0-1.292-0.388-1.292-0.862s0.484-0.867,1.076-0.875c0.765-0.01,0.727-0.236-0.134-0.779
	c-0.665-0.422-1.324-1.835-1.463-3.141c-0.139-1.305-0.755-2.683-1.37-3.063c-0.614-0.379-1.198-1.742-1.297-3.029
	c-0.105-1.369-1.179-3.151-2.589-4.296c-2.207-1.791-2.245-1.914-0.455-1.467C294.732,221.511,296.313,222.751,297.168,223.997z
	 M233.438,224.426c-0.567,1.246-1.26,2.267-1.54,2.268c-1.76,0.006-0.595,5.175,1.652,7.327c2.437,2.335,4.656,2.819,17.493,3.818
	c0.383,0.03,0.473,0.415,0.2,0.858c-0.59,0.954-8.746,0.471-14.378-0.854c-4.849-1.14-8.071-4.198-7.346-6.972
	c0.278-1.064,0.097-2.427-0.402-3.03c-0.675-0.813-0.179-1.761,1.926-3.684C234.308,221.174,234.89,221.239,233.438,224.426z
	 M273.178,223.337c0,4.087-7.818,11.845-8.955,8.884c-1.72-4.481,0.397-8.975,4.227-8.975c1.123,0,2.285-0.395,2.582-0.876
	C271.651,221.369,273.178,222.058,273.178,223.337z M214.429,223.891c-0.217,1.144-1.3,1.573-4.478,1.775
	c-7.901,0.503-8.831-1.559-1.125-2.496c2.458-0.299,4.789-0.598,5.179-0.665C214.395,222.439,214.586,223.062,214.429,223.891z
	 M237.165,227.533c-1.215,2.126-1.282,2.865-0.383,4.309c1.597,2.566-0.353,2.141-2.048-0.447c-1.767-2.696-0.491-6.426,2.198-6.426
	C238.574,224.969,238.582,225.058,237.165,227.533z M241.718,228.17c-1.244,3.617-3.004,4.779-3.004,1.984
	c0-2.503,1.522-5.185,2.944-5.185C242.62,224.969,242.63,225.515,241.718,228.17z M247.68,229.277
	c-2.469,4.915-3.797,5.498-3.797,1.666c0-3.76,1.435-5.974,3.872-5.974h2.089L247.68,229.277z M254.741,226.907
	c-0.778,1.066-2.197,3.651-3.151,5.743c-1.355,2.97-1.963,3.576-2.775,2.764c-0.813-0.811-0.77-1.206,0.193-1.802
	c0.678-0.419,1.369-1.772,1.535-3.009c0.353-2.642,2.693-5.634,4.407-5.634C255.922,224.969,255.881,225.346,254.741,226.907z
	 M303.981,228.846c0,1.185-0.298,2.154-0.662,2.154c-0.92,0-1.817-2.572-1.229-3.525
	C303.008,225.991,303.981,226.696,303.981,228.846z M292.996,232.738c0,1.103-1.47,1.093-2.154-0.015
	c-0.776-1.254-2.7-1.055-4.187,0.432c-1.786,1.786-5.723,0.298-5.723-2.162c0-3.027,3.314-3.511,7.971-1.164
	C291.154,230.963,292.996,232.271,292.996,232.738z M274.039,230.597c0,0.726-0.678,1.598-1.507,1.938
	c-0.83,0.34-1.508,1.2-1.508,1.911c0,0.723-0.691,1.235-1.567,1.163c-1.082-0.089-1.41,0.282-1.057,1.2
	c0.423,1.103,0.287,1.142-0.805,0.237c-1.153-0.957-0.97-1.495,1.488-4.358C272.042,229.24,274.039,228.397,274.039,230.597z
	 M256.579,231.605c0.169,0.511-0.698,2.038-1.93,3.393l-2.238,2.464l0.577-3.016C253.827,230.053,255.594,228.654,256.579,231.605z
	 M261.978,231c0,0.474-0.56,0.862-1.243,0.862c-0.682,0-1.48-0.388-1.774-0.862c-0.292-0.474,0.266-0.861,1.243-0.861
	C261.179,230.139,261.978,230.526,261.978,231z M209.185,232.491c-1.788,0.186-4.503,0.183-6.032-0.007
	c-1.53-0.191-0.067-0.344,3.25-0.34S210.971,232.304,209.185,232.491z M242.16,234.121c0,1.145-0.233,1.204-1.292,0.325
	c-0.711-0.59-1.292-1.219-1.292-1.398s0.581-0.325,1.292-0.325C241.578,232.723,242.16,233.352,242.16,234.121z M260.575,233.407
	c0.367,0.594-2.644,6.209-3.329,6.209c-0.14,0-0.485-0.601-0.767-1.337c-0.336-0.874-0.167-1.123,0.485-0.72
	c0.667,0.412,0.815,0.14,0.447-0.818c-0.303-0.789-0.133-1.434,0.378-1.434c0.509,0,0.703-0.581,0.43-1.292
	C257.706,232.678,259.791,232.139,260.575,233.407z M213.726,234.446c0,0.474-1.647,0.81-3.661,0.749l-3.662-0.114l3.016-0.635
	c1.658-0.348,3.307-0.685,3.662-0.748C213.436,233.636,213.726,233.972,213.726,234.446z M297.755,237.127
	c0.686,3.119-0.883,5.514-1.866,2.849c-0.336-0.909-1.152-1.978-1.815-2.377c-1.008-0.606-0.964-0.99,0.266-2.348
	C296.16,233.239,297.002,233.701,297.755,237.127z M282.747,235.555c0.761,0.579,1.342,2.02,1.292,3.202
	c-0.061,1.453,0.536,2.423,1.848,3c1.948,0.857,2.403,2.539,1.396,5.162c-0.458,1.196-0.692,1.111-1.521-0.552
	c-0.538-1.08-2.619-3.066-4.622-4.411c-3.626-2.435-3.637-2.458-2.333-4.978C280.253,234.18,280.72,234.011,282.747,235.555z
	 M272.698,243.925c0.799,0,1.341,0.75,1.341,1.856c0,1.821-0.034,1.825-1.775,0.25c-1.52-1.376-1.891-1.426-2.571-0.35
	c-0.854,1.349-1.242,0.212-0.861-2.52c0.114-0.815-0.324-1.006-1.379-0.601c-0.85,0.327-1.281,0.328-0.957,0.004
	c0.325-0.324,0.174-1.367-0.334-2.316c-0.755-1.412-1.079-1.509-1.774-0.533c-0.662,0.929-0.742,0.859-0.365-0.315
	c0.266-0.829,0.174-1.507-0.206-1.507s-0.691-0.575-0.691-1.277c0-0.708,1.835,0.637,4.116,3.015
	C269.506,241.993,271.961,243.925,272.698,243.925z M231.001,238.375c3.432,4.134,0.697,7.183-3.391,3.779
	c-1.986-1.654-2.003-1.769-0.512-3.417C228.959,236.68,229.549,236.625,231.001,238.375z M293.595,239.685
	c1.54,3.12,2.275,5.412,2.099,6.543c-0.088,0.557,0.239,1.259,0.725,1.559c1.161,0.718,1.149,6.477-0.015,6.477
	c-0.494,0-0.803,0.484-0.687,1.077c1.154,5.838-11.521,13.49-21.678,13.088c-9.916-0.392-10.747-0.498-9.046-1.139
	c0.947-0.356,3.759-0.594,6.246-0.526c2.488,0.068,4.525-0.242,4.525-0.689c0-0.446,0.801-0.602,1.781-0.345
	c2.518,0.658,6.835-1.032,6.835-2.676c0-1.074,0.229-1.151,1.033-0.346c1.582,1.582,2.591,1.23,1.982-0.69
	c-0.314-0.988-0.155-1.723,0.372-1.723c0.507,0,0.92,0.388,0.92,0.862c0,0.473,0.43,0.861,0.954,0.861
	c0.525,0,0.731-0.582,0.458-1.292c-0.273-0.711-0.121-1.292,0.339-1.292c0.458,0,0.835-0.605,0.835-1.344
	c0-0.762,0.412-1.089,0.953-0.754c0.642,0.397,0.764-0.01,0.372-1.242c-0.435-1.373-0.217-1.83,0.876-1.83
	c1.152,0,1.246-0.254,0.453-1.209c-0.771-0.929-0.746-1.305,0.109-1.624c0.801-0.3,0.629-0.799-0.61-1.78
	c-1.668-1.32-1.67-1.364-0.072-1.391c0.908-0.015,1.361-0.318,1.006-0.673c-0.356-0.357-1.067-0.647-1.58-0.647
	c-0.514,0-1.113-0.539-1.332-1.197c-0.243-0.727-0.016-0.96,0.573-0.596c0.537,0.331,0.962,0.288,0.947-0.095
	c-0.048-1.207-2.274-3.713-3.299-3.713c-0.54,0-0.982-0.388-0.982-0.861c0-0.474,0.388-0.862,0.861-0.862
	c0.475,0,0.862-0.614,0.862-1.364C290.41,236.323,292.37,237.206,293.595,239.685z M221.025,240.223
	c2.833,2.062,2.79,3.438-0.049,1.577c-1.226-0.802-2.486-1.204-2.799-0.889c-0.69,0.688,2.318,3.014,3.9,3.014
	c0.62,0,1.128,0.387,1.128,0.861c0,1.065-0.21,1.067-2.961,0.021c-3.124-1.188-2.832,0.474,0.376,2.133
	c1.422,0.735,2.585,1.727,2.585,2.206c0,0.578-0.561,0.571-1.667-0.022c-2.02-1.081-2.641-1.121-2.641-0.169
	c0,0.399,0.969,1.166,2.153,1.705c1.186,0.54,2.155,1.425,2.155,1.968c0,0.728-0.317,0.722-1.217-0.024
	c-0.887-0.737-1.375-0.75-1.809-0.047c-0.344,0.557,0.165,1.16,1.216,1.434c2.704,0.708,2.186,2.11-0.56,1.514l-2.369-0.516
	l2.154,1.772c1.185,0.975,2.445,1.781,2.8,1.791c0.355,0.011,0.647,0.395,0.647,0.854c0,0.46-0.582,0.612-1.294,0.339
	c-0.71-0.273-1.292-0.108-1.292,0.365c0,0.474,0.582,1.085,1.292,1.358c0.712,0.273,1.294,0.944,1.294,1.49
	c0,0.734-0.303,0.744-1.157,0.034c-0.636-0.527-1.429-0.686-1.762-0.353c-0.333,0.333,0.284,1.309,1.371,2.169l1.978,1.563
	l-2.585-0.498l-2.585-0.498l2.37,1.365c1.303,0.75,2.37,1.761,2.37,2.248c0,0.485-0.863,0.278-1.916-0.459
	c-3.323-2.328-3.819-1.407-0.67,1.244c3.456,2.909,2.624,3.39-1.507,0.87c-1.872-1.14-2.798-1.353-2.792-0.643
	c0.004,0.586,1.588,1.729,3.518,2.539c1.942,0.816,3.264,1.871,2.961,2.362c-0.341,0.55-1.483,0.195-3.018-0.939
	c-2.949-2.181-7.231-1.706-6.308,0.7c0.35,0.914,0.207,1.215-0.402,0.838c-0.522-0.322-1.198-0.182-1.502,0.31
	c-0.74,1.196-9.694,0.857-10.742-0.406c-0.557-0.673-0.064-2.071,1.513-4.287c2.849-4.007,3.305-17.775,0.878-26.498
	c-0.75-2.697-1.224-5.046-1.052-5.217C204.28,238.149,219.104,238.825,221.025,240.223z M255.756,240.619
	c-0.565,1.693-3.882,3.524-4.518,2.494c-0.31-0.502,0.041-0.913,0.78-0.913s1.344-0.581,1.344-1.292c0-0.71,0.613-1.292,1.364-1.292
	C255.476,239.616,255.939,240.068,255.756,240.619z M235.953,242.162c-1.189,1.903-2.026,1.666-1.25-0.355
	c0.281-0.732,0.913-1.329,1.406-1.329C236.676,240.478,236.618,241.096,235.953,242.162z M243.883,242.2
	c0.961,0.622,0.466,0.84-1.938,0.849c-1.777,0.007-3.231-0.375-3.231-0.849C238.714,241.103,242.186,241.103,243.883,242.2z
	 M281.758,244.653c3.904,3.714,4.216,5.067,1.838,8.005l-1.645,2.03l-3.061-3.149c-2.607-2.687-2.873-3.306-1.801-4.196
	c1.692-1.405,1.588-3.41-0.249-4.805c-1.404-1.065-1.406-1.146-0.036-1.171C277.613,241.352,279.842,242.83,281.758,244.653z
	 M258.861,250.277c0,3.118-0.416,4.503-1.622,5.384c-2.477,1.813-2.961,1.44-1.875-1.442c0.829-2.194,0.733-3.082-0.576-5.362
	c-1.549-2.702-1.545-2.753,0.38-4.312C257.735,242.466,258.86,244.213,258.861,250.277z M249.484,244.786
	c-2.394,1.029-4.082,1.029-3.446,0c0.292-0.474,1.575-0.835,2.85-0.801C250.958,244.038,251.022,244.124,249.484,244.786z
	 M265.441,245.238c1.665,2.006,0.477,2.383-1.305,0.414c-0.86-0.949-1.163-1.727-0.675-1.727
	C263.95,243.925,264.842,244.516,265.441,245.238z M242.448,245.766c0.875-0.727,1.461-0.776,1.844-0.154
	c0.67,1.083-0.302,1.495-6.003,2.545c-3.099,0.571-4.48,0.512-4.941-0.213c-0.96-1.509-0.794-2.282,0.411-1.911
	c4.429,1.364,5.817,1.328,5.829-0.154c0.011-1.248,0.156-1.3,0.797-0.287C241.012,246.583,241.422,246.618,242.448,245.766z
	 M250.315,248.19c-1.921,0.779-3.721,2.701-5.106,5.451c-1.172,2.328-2.91,2.851-3.589,1.081c-0.993-2.588,4.615-7.242,8.725-7.242
	C252.045,247.48,252.044,247.49,250.315,248.19z M289.901,250.171c-1.111,6.678-1.206,6.895-2.541,5.786
	c-1.648-1.367-1.587-3.023,0.22-6.084C289.528,246.578,290.48,246.699,289.901,250.171z M266.644,250.897
	c-1.933,2.136-4.628,3.693-5.274,3.046c-0.253-0.252,0.122-1.04,0.833-1.752c0.71-0.71,1.477-1.107,1.703-0.881
	c0.225,0.225,0.901-0.181,1.5-0.903c0.6-0.723,1.491-1.313,1.98-1.313C267.876,249.094,267.541,249.905,266.644,250.897z
	 M274.079,250.816c0.709-1.079,1.269-0.831,3.42,1.523c3.202,3.502,3.197,3.947-0.075,6.277l-2.647,1.885l-1.425-2.042
	c-0.784-1.122-2.255-2.817-3.269-3.765c-2.384-2.229-1.088-5.208,1.553-3.572C272.894,251.901,273.41,251.837,274.079,250.816z
	 M233.195,252.658c0.903,1.012,2.805,2.354,4.226,2.981c2.509,1.108,2.521,1.143,0.43,1.171c-5.757,0.077-12.165-3.447-9.421-5.184
	C230.333,250.422,231.409,250.655,233.195,252.658z M239.053,253.043c0.322,0.84,0.129,1.233-0.5,1.023
	c-1.288-0.429-1.997-2.387-0.865-2.387C238.151,251.679,238.765,252.292,239.053,253.043z M270.711,258.14
	c1.522,2.239,1.989,3.566,1.329,3.786c-0.558,0.187-1.985,0.731-3.169,1.209c-4.232,1.708-5.17,1.592-5.17-0.641
	c0-1.154-0.388-2.337-0.862-2.63s-0.861-1.308-0.861-2.256s0.347-1.509,0.77-1.246c0.424,0.262,1.005-0.131,1.289-0.871
	C264.924,253.179,268.227,254.49,270.711,258.14z M285.068,256.16c0.569,0.567,1.01,1.828,0.98,2.799
	c-0.052,1.667-0.099,1.657-0.834-0.172c-0.428-1.066-1.179-1.939-1.669-1.939c-0.489,0-0.89-0.388-0.89-0.861
	C282.655,254.819,283.811,254.901,285.068,256.16z M251.637,257.279c-1.165,1.406-6.031,1.797-6.031,0.485
	c0-0.443,1.261-0.962,2.8-1.154c1.541-0.192,3.14-0.41,3.553-0.485C252.372,256.049,252.227,256.568,251.637,257.279z
	 M231.027,257.747c1.369,0.732,1.506,1.218,0.744,2.64c-1.11,2.075-3.397,0.782-3.397-1.921
	C228.374,256.603,228.718,256.51,231.027,257.747z M260.654,260.8c0.803,1.226,1.333,2.324,1.176,2.441
	c-4.814,3.572-5.884,3.751-5.884,0.982c0-1.157-0.388-2.343-0.861-2.636c-1.332-0.823-1.022-1.986,0.645-2.422
	C258.644,258.404,259.206,258.591,260.654,260.8z M282.655,261.222c0,0.622-5.309,2.502-7.107,2.514
	c-1.505,0.012-0.48-1.825,1.424-2.548c1.138-0.433,2.336-1.217,2.661-1.744C280.267,258.42,282.655,259.824,282.655,261.222z
	 M298.83,259.595c-0.188,0.562-0.803,1.176-1.366,1.364c-0.629,0.21-0.822-0.184-0.5-1.023
	C297.565,258.37,299.346,258.044,298.83,259.595z M239.576,261.013c0,0.868-0.292,1.87-0.647,2.225
	c-0.355,0.356-0.646,1.067-0.646,1.58c0,1.898-1.959,1.503-3.392-0.683c-1.94-2.961-1.173-4.701,2.072-4.701
	C238.922,259.434,239.576,259.828,239.576,261.013z M245.606,264.602v4.309h-3.538c-3.044,0-3.448-0.211-2.888-1.508
	c0.357-0.829,1.075-2.768,1.595-4.308C242.436,258.174,245.606,259.164,245.606,264.602z M252.966,262.665
	c0.274,1.302,0.627,3.022,0.782,3.821c0.314,1.603-1.156,2.425-4.335,2.425c-1.925,0-2.083-0.326-2.083-4.309
	C247.33,259.356,251.935,257.772,252.966,262.665z M296.496,266.226c-1.187,2.215-2.276,2.319-3.391,0.325
	c-1.194-2.132,1.502-4.864,3.205-3.25C297.209,264.153,297.251,264.815,296.496,266.226z M232.356,266.327
	c0.654,0,1.188,0.487,1.188,1.085c0,0.597,0.985,2.148,2.189,3.446c1.651,1.78,1.857,2.36,0.842,2.36
	c-0.739,0-1.786-0.968-2.326-2.153c-0.54-1.184-1.21-2.156-1.49-2.159c-1.619-0.014-5.449-4.141-4.806-5.18
	c0.563-0.91,0.99-0.754,1.967,0.719C230.607,265.479,231.704,266.327,232.356,266.327z M292.12,269.126
	c0.008,0.83-0.4,1.508-0.905,1.508c-0.529,0-0.688-0.735-0.373-1.723c0.325-1.027,0.154-1.723-0.424-1.723
	c-0.534,0-0.706-0.429-0.382-0.954C290.765,265.054,292.102,266.907,292.12,269.126z M259.392,269.342
	c-1.112,1.184-2.441,2.123-2.95,2.086c-0.552-0.04-0.511-0.238,0.102-0.486c0.565-0.231,0.791-1.039,0.499-1.798
	c-0.299-0.782-0.168-1.155,0.306-0.862c0.458,0.283,1.396,0.159,2.085-0.277C261.527,266.681,261.514,267.082,259.392,269.342z
	 M288.203,271.233c0.5,1.659,0.168,1.965-2.704,2.485c-1.801,0.326-4.32,1.122-5.601,1.77c-3.062,1.55-4.907,1.604-3.403,0.1
	c0.593-0.592,1.349-1.109,1.68-1.149c2.176-0.26,5.474-2.343,6.718-4.242C286.435,267.845,287.259,268.104,288.203,271.233z
	 M282.655,269.674c0,0.934-3.19,3.08-5.815,3.91c-3.294,1.042-2.139-0.787,1.723-2.727
	C282.958,268.65,282.655,268.737,282.655,269.674z M230.579,271.9c1.443,1.091,1.475,1.269,0.235,1.292
	c-2.211,0.042-4.207-0.928-3.677-1.787C227.809,270.321,228.651,270.441,230.579,271.9z M268.536,272.816
	c0.786,1.199,1.15,2.459,0.807,2.799c-0.647,0.645-3.92-2.874-3.92-4.215C265.423,269.896,267.131,270.671,268.536,272.816z
	 M249.795,273.145c-1.119,0.907-2.186,1.498-2.372,1.313c-0.63-0.625,1.833-2.963,3.123-2.963
	C251.42,271.495,251.18,272.021,249.795,273.145z M255.208,273.124c-0.73,0.462-0.841,0.944-0.296,1.281
	c1.01,0.624,0.344,3.984-0.79,3.984c-0.882,0-1.04-4.604-0.187-5.457c0.316-0.316,0.995-0.569,1.508-0.561
	C255.956,272.378,255.851,272.717,255.208,273.124z M218.967,274.081c0.435,0,0.791,0.388,0.791,0.862
	c0,1.247-1.151,1.058-3.066-0.502c-1.53-1.247-1.539-1.32-0.094-0.861C217.465,273.855,218.532,274.081,218.967,274.081z
	 M236.719,275.268c-0.25,0.653-0.02,1.623,0.511,2.155c0.532,0.531,0.598,0.965,0.148,0.967c-0.45,0-0.879,1.054-0.955,2.343
	c-0.074,1.287-0.537,2.476-1.028,2.639s-0.679,0.854-0.418,1.535c0.261,0.68,0.045,1.236-0.48,1.236
	c-0.523,0-0.953,0.629-0.953,1.398c0,1.114-0.25,1.191-1.231,0.376c-1.059-0.878-1.007-1.407,0.365-3.767
	c0.878-1.51,1.723-4.102,1.877-5.761c0.155-1.658,0.669-3.301,1.143-3.648C236.969,273.806,237.228,273.941,236.719,275.268z
	 M244.192,277.47c-0.746,0.824-2.179-1.592-1.55-2.611c0.5-0.809,0.835-0.659,1.282,0.571
	C244.257,276.346,244.376,277.265,244.192,277.47z M232.175,277.527c0.833,0,1.359,0.461,1.172,1.023
	c-0.592,1.775-2.218,1.732-4.057-0.107c-2.222-2.222-2.404-4.335-0.202-2.342C229.955,276.885,231.344,277.527,232.175,277.527z
	 M273.93,283.13c3.945,4.153,6.132,7.157,6.113,8.401c-0.025,1.881-0.063,1.889-1.283,0.275c-0.691-0.912-1.52-1.396-1.842-1.073
	c-0.323,0.322,0.236,1.464,1.243,2.535c2.646,2.817,1.247,4.968-1.894,2.911c-2.533-1.659-2.916-1.024-0.796,1.318
	c0.786,0.869,1.18,1.832,0.873,2.138c-0.306,0.307-1.366-0.471-2.354-1.729c-0.99-1.257-2.231-2.286-2.759-2.286
	c-0.528,0,0.151,1.16,1.508,2.577c2.96,3.089,2.211,4.61-0.853,1.732c-2.525-2.372-4.005-1.659-1.743,0.841
	c1.259,1.389,1.348,1.955,0.478,3.003c-0.937,1.129-1.285,1.05-2.759-0.63c-1.178-1.341-1.823-1.594-2.137-0.84
	c-0.247,0.596-0.803,0.864-1.236,0.596c-1.33-0.821-0.873,1.056,0.541,2.23c0.922,0.765,1.053,1.378,0.431,2.001
	c-0.624,0.623-1.216,0.581-1.933-0.136c-1.506-1.506-2.817-1.267-1.533,0.28c0.599,0.722,0.836,1.566,0.527,1.876
	c-0.31,0.309-1.109-0.185-1.775-1.097c-0.668-0.913-1.494-1.378-1.838-1.035c-0.343,0.343-0.134,1.215,0.466,1.937
	c0.6,0.722,0.766,1.313,0.371,1.313c-0.396,0-1.572-1.066-2.613-2.369c-1.042-1.303-2.191-2.074-2.555-1.714
	c-0.363,0.36,0.401,1.763,1.699,3.118c1.933,2.018,2.12,2.556,1.032,2.972c-0.868,0.335-2.14-0.555-3.68-2.575
	c-1.294-1.696-2.497-2.654-2.672-2.128s0.494,1.989,1.485,3.251c0.993,1.261,1.572,2.525,1.288,2.808
	c-0.285,0.283-1.231-0.366-2.104-1.443c-0.873-1.076-1.817-1.585-2.098-1.129c-0.281,0.455,0.172,1.209,1.008,1.676
	c0.834,0.468,1.225,1.145,0.865,1.504c-0.359,0.36-1.113,0.195-1.673-0.366c-0.561-0.561-1.408-1.019-1.881-1.019
	c-0.479,0-0.402,0.459,0.172,1.033c1.674,1.673,1.185,2.554-0.82,1.481c-1.555-0.832-1.772-0.779-1.347,0.329
	c0.294,0.766-0.058,1.539-0.839,1.839c-1.446,0.554-3.714-0.874-3.714-2.337c0-0.489,0.775-0.188,1.722,0.67
	c0.948,0.858,1.723,1.125,1.723,0.594c0-1.13-2.995-2.912-3.703-2.203c-0.546,0.546-3.848-5.458-5.51-10.022
	c-1.66-4.552-1.424-6.631,0.813-7.199c1.066-0.27,4.52-2.639,7.676-5.263c3.156-2.625,6.022-4.772,6.372-4.772
	c0.348,0,1.45-0.812,2.447-1.805C262.75,275.334,266.203,274.995,273.93,283.13z M293.857,278.197c0,4.516-6.044,8.399-11.745,7.543
	c-2.07-0.31-3.764-0.887-3.764-1.281c0-1.089,2.46-1.799,3.031-0.875c0.503,0.814,3.581,0.615,6.957-0.449
	c0.993-0.313,2.325-1.896,2.962-3.519C292.544,276.44,293.857,275.712,293.857,278.197z M219.986,278.133
	c-1.06,0.206-2.999,0.21-4.309,0.013c-1.31-0.199-0.442-0.366,1.927-0.373C219.974,277.767,221.046,277.929,219.986,278.133z
	 M242.535,279.984c-0.333,0.781-0.547,2.487-0.476,3.789c0.071,1.304-0.266,2.37-0.747,2.37c-0.95,0-1.198-5.05-0.354-7.248
	c0.286-0.747,0.894-1.128,1.351-0.846C242.766,278.332,242.867,279.202,242.535,279.984z M250.695,279.778
	c-1.26,1.519-1.872,1.074-1.142-0.83c0.299-0.777,0.908-1.185,1.355-0.909C251.394,278.34,251.307,279.041,250.695,279.778z
	 M279.764,279.307c-1.243,0.977-2.706,1.503-3.249,1.168c-0.619-0.382-0.057-1.022,1.499-1.709
	C281.715,277.131,282.3,277.312,279.764,279.307z M289.704,278.841c0.056,1.758-4.45,4.286-5.95,3.339
	c-1.801-1.135-2.589-3.283-1.013-2.758c0.639,0.213,2.141-0.123,3.338-0.748C288.428,277.449,289.662,277.506,289.704,278.841z
	 M245.292,285.388l-1.269,2.909l-0.069-2.744c-0.039-1.509,0.392-3.836,0.958-5.17l1.027-2.425l0.311,2.26
	C246.421,281.462,245.99,283.788,245.292,285.388z M255.591,280.593c-0.892,0.653-1.953,0.983-2.357,0.733
	c-1.415-0.874-0.713-1.646,1.623-1.782C257.061,279.416,257.108,279.485,255.591,280.593z M263.832,282.649
	c-3.24,2.772-3.185,4.004,0.436,9.741c3.121,4.946,10.887,1.763,9.471-3.881c-0.404-1.609-6.064-8.521-6.849-8.362
	C266.795,280.166,265.418,281.292,263.832,282.649z M250.579,282.858c-0.533,1.598-2.387,1.863-2.387,0.342
	c0-0.751,0.614-1.364,1.364-1.364S250.767,282.295,250.579,282.858z M269.315,285.067c2.472,2.807,2.622,3.912,0.742,5.473
	c-1.219,1.01-1.768,0.72-4.267-2.256l-2.869-3.417l1.898-1.054C267.276,282.446,266.922,282.348,269.315,285.067z M211.37,284.165
	c-1.06,0.204-2.999,0.21-4.309,0.011c-1.31-0.197-0.442-0.364,1.927-0.371C211.357,283.799,212.428,283.96,211.37,284.165z
	 M211.142,286c0,0.395-1.357,0.718-3.016,0.718c-1.658,0-3.015-0.323-3.015-0.718c0-0.396,1.357-0.718,3.015-0.718
	C209.785,285.282,211.142,285.604,211.142,286z M239.544,287.398c0.573,0.69,0.777,1.682,0.453,2.206
	c-0.568,0.92-2.915-1.297-2.979-2.814C236.973,285.712,238.438,286.065,239.544,287.398z M230.755,290.367
	c-0.555,0.19-1.765,1.048-2.688,1.909c-0.923,0.859-2.037,1.339-2.478,1.067c-0.44-0.272,0.491-1.575,2.069-2.895
	c1.955-1.635,3.068-2.085,3.489-1.414C231.487,289.576,231.311,290.176,230.755,290.367z M211.345,293.347
	c-0.255,2.054-0.67,2.913-1.082,2.246c-0.368-0.595-0.275-2.209,0.204-3.587C211.593,288.78,211.862,289.192,211.345,293.347z
	 M223.205,290.452c0,0.473-0.775,0.861-1.724,0.861c-0.947,0-1.723-0.388-1.723-0.861c0-0.474,0.776-0.862,1.723-0.862
	C222.43,289.59,223.205,289.978,223.205,290.452z M250.507,292.006c-3.148,3.286-2.948,4.448,1.641,9.553
	c4.539,5.048,4.637,5.078,7.735,2.415c3.237-2.785,2.987-5.793-0.872-10.503C255.314,288.96,253.692,288.681,250.507,292.006z
	 M205.484,292.215c-0.916,0.332-1.848,0.439-2.072,0.236c-0.7-0.639,2.004-1.912,2.893-1.363
	C206.77,291.375,206.4,291.882,205.484,292.215z M234.836,292.964c0,1.383-0.244,2.757-0.542,3.056
	c-0.727,0.725-1.804-3.699-1.156-4.746C234.098,289.72,234.836,290.455,234.836,292.964z M217.174,293.2
	c0,1.143-2.797,0.497-3.21-0.742c-0.213-0.642,0.309-0.841,1.437-0.546C216.376,292.166,217.174,292.747,217.174,293.2z
	 M259.392,298.283c0,3.076-2.91,2.749-5.768-0.65c-2.565-3.049-2.658-3.379-1.355-4.818
	C253.867,291.049,259.392,295.291,259.392,298.283z M224.067,294.742c0,0.408-1.164,0.998-2.586,1.31
	c-1.421,0.311-2.584,0.925-2.584,1.361c0,0.435-0.582,0.793-1.293,0.793c-0.71,0-1.292,0.435-1.292,0.967
	c0,0.668-0.399,0.635-1.293-0.105c-1.186-0.984-1.375-0.91-1.248,0.487c0.084,0.921-4.194,3.82-5.637,3.82
	c-0.794,0-1.289,0.467-1.099,1.037c0.442,1.321-2.716,4.994-4.293,4.994c-0.892,0-0.756-0.617,0.54-2.437
	C208.612,299.484,224.067,290.392,224.067,294.742z M275.764,293.917c0,0.494,0.598,1.126,1.329,1.406
	c2.02,0.776,2.258-0.061,0.354-1.25C276.381,293.408,275.764,293.351,275.764,293.917z M205.639,297.547
	c-1.497,0.986-2.251,0.774-2.251-0.633c0-0.712-0.486-1.332-1.078-1.379c-0.592-0.047-0.108-0.363,1.078-0.699
	C205.706,294.174,207.492,296.324,205.639,297.547z M230.96,296.914c0,3.931-1.262,3.93-1.396-0.001
	c-0.057-1.658,0.235-3.016,0.646-3.016C230.622,293.897,230.96,295.255,230.96,296.914z M227.35,300.706
	c0.248,3.385-0.842,6.116-2.441,6.116c-1.029,0-1.519-8.04-0.566-9.291C225.815,295.6,227.072,296.928,227.35,300.706z
	 M239.261,299.13c-3.902,3.069-0.321,13.724,4.614,13.724c6.038,0,7.158-4.115,2.9-10.674
	C243.302,296.83,242.565,296.531,239.261,299.13z M221.54,300.576c0.034,0.355,0.207,1.769,0.387,3.141
	c0.238,1.828,0.069,2.241-0.629,1.542c-1.21-1.21-1.689-5.33-0.619-5.33C221.12,299.929,221.508,300.22,221.54,300.576z
	 M245.59,303.544c1.865,3.861,1.337,5.536-1.464,4.647c-2.328-0.739-5.051-6.552-3.524-7.521
	C242.747,299.309,243.85,299.945,245.59,303.544z M268.129,301.578c1.118,0.908,2.186,1.499,2.372,1.313
	c0.63-0.626-1.834-2.962-3.125-2.962C266.503,299.929,266.742,300.455,268.129,301.578z M279.21,301.221
	c0,0.711-0.388,1.292-0.862,1.292s-0.861-0.581-0.861-1.292c0-0.71,0.387-1.292,0.861-1.292S279.21,300.511,279.21,301.221z
	 M230.392,304.065c0.338,1.776,0.223,2.646-0.308,2.318c-0.467-0.288-0.849-1.73-0.849-3.202
	C229.235,299.927,229.666,300.255,230.392,304.065z M220.781,306.877c2.902,0.977,6.477,1.713,7.942,1.635
	c4.05-0.215,4.548-0.008,2.667,1.106c-2.337,1.383-5.358,1.74-5.995,0.709c-0.287-0.464-1.118-0.616-1.845-0.338
	c-1.475,0.566-5.083-1.077-7.427-3.383C214.191,304.708,214.377,304.718,220.781,306.877z M210.281,307.683
	c0,0.474-0.411,0.862-0.913,0.862c-0.502,0-0.647,0.431-0.32,0.958c0.325,0.527,0.07,1.28-0.567,1.674
	c-0.853,0.527-0.511,0.961,1.301,1.651c1.353,0.514,2.246,1.149,1.984,1.412c-0.262,0.262-1.26,0.057-2.217-0.455
	c-2.406-1.288-3.12-1.165-1.885,0.322c0.573,0.691,0.777,1.684,0.454,2.206c-0.898,1.453-2.944-1.805-2.146-3.418
	c0.363-0.733,1.16-2.401,1.768-3.703C208.832,306.859,210.281,305.999,210.281,307.683z M214.949,311.393
	c-1.644,0.921-3.067-0.665-2.329-2.591c0.372-0.968,0.769-0.912,2.107,0.3C216.235,310.466,216.255,310.663,214.949,311.393z
	 M262.408,312.854c-0.293,0.473-0.934,0.861-1.425,0.861c-0.492,0-2.019,0.802-3.396,1.782c-1.376,0.98-2.502,1.377-2.502,0.881
	c0-0.494,1.453-1.667,3.231-2.605C261.939,311.861,263.197,311.578,262.408,312.854z M234.235,317.774
	c-2.352,4.881-7.821,7.572-15.381,7.572c-6.635,0-11.005-1.732-9.121-3.615c0.353-0.353,0.964-0.12,1.359,0.52
	c0.396,0.64,1.15,0.896,1.677,0.57c0.527-0.325,0.957-0.166,0.957,0.353c0,1.116,4.476,0.815,5.32-0.357
	c0.344-0.477,1.136-0.346,1.939,0.321c1.1,0.912,1.357,0.916,1.357,0.016c0-0.611,0.252-0.859,0.56-0.551
	c0.307,0.307,1.298-0.294,2.203-1.337c1.361-1.571,1.774-1.683,2.41-0.656c0.421,0.682,1.077,0.907,1.458,0.501
	c0.382-0.407,0.209-0.912-0.383-1.124c-0.592-0.211-1.077-0.781-1.077-1.267c0-0.484,0.601-0.65,1.337-0.368
	c0.838,0.322,1.119,0.16,0.754-0.432c-0.399-0.644,0.063-0.738,1.455-0.296c1.74,0.552,1.884,0.459,0.978-0.633
	c-0.585-0.704-0.812-1.532-0.504-1.84c0.308-0.307,1.136-0.081,1.84,0.503c1.093,0.907,1.194,0.748,0.685-1.084
	c-0.497-1.79-0.438-1.895,0.351-0.636C235.114,315.057,235.068,316.045,234.235,317.774z M218.035,314.369
	c0,0.36-0.758,1.128-1.683,1.706c-1.757,1.096-3.192,0.116-2.195-1.498C214.777,313.575,218.035,313.4,218.035,314.369z
	 M239.562,316.621c0.008,0.413-0.565,0.272-1.269-0.313c-0.706-0.586-1.045-1.451-0.755-1.921
	C238.072,313.523,239.536,315.138,239.562,316.621z M224.926,317.046c0.001,0.801-0.618,1.011-1.937,0.658
	c-1.066-0.285-2.446-0.524-3.066-0.531c-0.621-0.006-0.923-0.344-0.671-0.75C220.008,315.199,224.923,315.74,224.926,317.046z
	 M222.342,319.846c0,0.42-0.968,0.762-2.153,0.762c-1.243,0-2.154-0.497-2.154-1.173c0-0.787,0.709-1.038,2.154-0.761
	C221.374,318.9,222.342,319.428,222.342,319.846z M237.451,319.953c-1.629,0.912-2.64,0.368-1.811-0.974
	c0.299-0.484,1.156-0.647,1.903-0.36C238.757,319.086,238.747,319.228,237.451,319.953z M245.214,322.269
	c-0.848,1.372-2.212,0.255-1.61-1.316c0.332-0.864,0.801-1.03,1.353-0.478C245.421,320.939,245.536,321.747,245.214,322.269z
	 M239.576,322.29c0.874,0.188-2.729,1.904-4.777,2.276c-2.244,0.406-2.371,0.293-1.676-1.519
	C233.48,322.116,236.895,321.716,239.576,322.29z M208.313,325.706c0.678,1.086,1.636,1.494,2.792,1.192
	c0.996-0.26,1.76-0.042,1.76,0.502c0,0.529-0.882,0.963-1.962,0.963c-2.146,0-5.792-2.201-5.792-3.496
	C205.111,323.437,207.244,323.997,208.313,325.706z"/>
</svg>
