<svg width="400" height="400" viewBox="0 0 400 400" fill="none" xmlns="http://www.w3.org/2000/svg">
<path style="fill:#0000FF;" d="M218.592,148.062c-5.161,23.87-8.32,48.398-9.478,73.586
	c0.012,1.17-0.025,3.073-0.111,5.709c-0.074,2.636-0.339,4.662-0.795,6.078c0.123,1.01-0.332,1.201-1.367,0.573
	c-1.084-1.108-2.081-3.381-2.993-6.817c-0.443-0.123-0.702-0.431-0.776-0.924c-1.983-6.257-3.19-12.717-3.621-19.38
	c-1.429-14.842-1.958-29.782-1.589-44.821c0-1.626,0.062-3.991,0.185-7.094c0.1-2.292,0.392-4.037,0.878-5.238
	c0.325-1.131,0.335,0.35,0.028,4.443c-0.074,1.17-0.117,2.365-0.129,3.584c0.025,5.666,0.253,11.233,0.684,16.701
	c0.185,3.116,0.357,6.257,0.517,9.422c0.099,2.069,0.203,4.145,0.314,6.226c0.155,2.884,0.277,5.153,0.43,7.466
	c0.043,0.632,0.085,1.264,0.132,1.894c0.028,0.383,0.057,0.77,0.088,1.168c0.017,0.214,0.035,0.442,0.053,0.674
	c0.095,1.173,0.197,2.344,0.306,3.513c0.067,0.713,0.14,1.467,0.22,2.26c0.061,0.61,0.126,1.218,0.191,1.826
	c0.001,0.006,0.001,0.011,0.002,0.016c0.909-0.021,1.834-0.14,2.771-0.397c0.984-0.27,1.926-0.691,2.803-1.231
	c0.084-1.243,0.179-2.488,0.284-3.734c0.018-0.222,0.038-0.444,0.057-0.666c0.095-1.09,0.194-2.181,0.305-3.273
	c0.055-0.551,0.117-1.102,0.176-1.654c0.089-0.823,0.175-1.646,0.274-2.471c0.171-1.445,0.354-2.891,0.554-4.339
	c1.773-12.871,4.009-25.2,6.706-36.987c0.246-1.158,0.56-2.605,0.942-4.342c0.678-3.301,1.503-6.602,2.476-9.902
	c0.517-1.72,1.056-3.128,1.617-4.222C221.489,134.456,220.778,138.573,218.592,148.062z M277.508,193.196
	c-5.912,6.959-11.109,14.46-15.593,22.503c-3.276,5.075-6.066,10.352-8.369,15.833c-0.37,1.207-0.32,1.94,0.148,2.199
	c0.443,0.246,0.979-0.043,1.607-0.868c0.517-0.283,1.072-0.745,1.663-1.386c2.685-3.116,5.05-6.719,7.094-10.808
	c2.045-4.089,4.126-7.944,6.244-11.565c2.636-4.447,5.339-8.874,8.111-13.284c1.318-2.032,2.618-4.077,3.898-6.134
	c0.653-0.788,1.318-1.583,1.995-2.383l1.995-2.402c0.295-0.357,0.468-0.585,0.517-0.684c0.086-0.16,0.068-0.295-0.055-0.406
	C283.439,186.607,280.353,189.735,277.508,193.196z M329.488,166.057c-0.813,6.444-2.3,11.479-4.462,15.103
	c-0.003,0.006-0.006,0.012-0.009,0.019c-5.867,10.627-12,19.061-18.401,25.302c-0.009,0.01-0.018,0.019-0.028,0.028
	c-3.676,3.962-7.328,8.162-10.955,12.6c-0.009,0.009-0.018,0.018-0.028,0.028c-3.47,3.77-6.644,9.094-9.524,15.972v-0.009
	c-1.087,2.751-1.666,6.295-1.737,10.632v0.009c-0.195,7.307,0.002,13.896,0.591,19.768c0.601,5.888,1.373,12.009,2.318,18.364
	v-0.018c0.048,0.281,0.242,1.196,0.582,2.743c0.309,1.386,0.469,2.233,0.48,2.54v0.009c0.057,1.1-0.208,2.194-0.794,3.279v0.009
	c-1.104,2.019-3.146,3.863-6.125,5.534c-0.006,0.003-0.013,0.005-0.018,0.009c-10.437,5.393-25.875,9.384-46.317,11.972
	c-12.258,1.643-25.88,2.539-40.866,2.688c-14.999,0.147-28.212-0.931-39.638-3.233h-0.019c-6.497-1.457-11.112-3.179-13.847-5.164
	h0.009c-1.52-1.08-2.576-2.216-3.169-3.408v0.009c-0.248-0.459-0.466-1.149-0.656-2.069c-0.144-0.675-0.236-1.26-0.277-1.755
	c-1.534-16.349-4.401-32.065-8.6-47.148c-0.373-1.326-1.127-2.626-2.263-3.898c-1.004-1.146-2.221-2.174-3.649-3.085
	c-2.535-1.618-5.78-3.847-9.736-6.688c-4.918-3.542-8.096-5.805-9.533-6.79c-6.462-4.425-12.774-10.128-18.937-17.108l-0.009-0.009
	c-3.48-3.737-6.803-9.156-9.967-16.258c-3.193-7.107-4.428-15.713-3.704-25.819c0.003-0.015,0.006-0.031,0.009-0.046
	c2.687-19.315,7.971-33.168,15.851-41.559l0.009-0.009c8.306-9.201,17.001-14.867,26.087-16.997
	c0.012-0.004,0.025-0.007,0.037-0.009c6.324-1.836,12.735-2.766,19.232-2.79c0.423-0.048,1.206-0.073,2.346-0.074
	c0.806,0,1.505,0.009,2.097,0.028c5.333-5.841,12.704-10.709,22.115-14.605c0.007-0.003,0.013-0.006,0.018-0.009
	c6.047-2.345,12.642-3.629,19.787-3.852c0.195-0.024,0.395-0.036,0.6-0.037h0.009c10.851,0.173,20.313,2.267,28.387,6.281
	c0.016-0.009,0.031-0.019,0.046-0.028l0.009-0.009c9.398-5.867,20.265-8.897,32.599-9.09c1.517-0.102,3.078-0.071,4.683,0.092
	c4.586,0.265,9.029,0.983,13.33,2.152h0.009c9.297,2.621,16.819,6.95,22.567,12.988c0.86,0.086,1.703,0.239,2.531,0.462
	c4.529,0.898,9.022,2.314,13.477,4.249c7.673,3.001,15.124,8.919,22.355,17.755c4.562,4.884,8.122,12.973,10.679,24.267
	C330.15,154.103,330.289,159.664,329.488,166.057z M134.734,260.482c0.333-0.209,0.671-0.425,1.016-0.647
	c1.49-0.899,3.165-1.761,5.025-2.586c6.392-2.784,14.725-5.253,24.997-7.408c10.284-2.156,21.203-3.757,32.756-4.804
	c9.052-0.875,18.407-1.367,28.063-1.478c0.123-0.013,0.259-0.019,0.407-0.019c10.186-0.148,19.922,0.228,29.209,1.127
	c9.213,0.899,16.738,2.284,22.576,4.157c0.53,0.172,1.035,0.345,1.515,0.517c0.012-1.527,0.037-2.95,0.074-4.268
	c-0.456-0.222-0.948-0.437-1.478-0.647c-0.751-0.296-1.564-0.585-2.438-0.868c-13.056-3.708-29.067-5.426-48.035-5.155h-0.425
	c-0.32,0.037-0.782,0.061-1.386,0.074c-1.823,0.025-3.381,0.049-4.674,0.074c-6.614,0.185-13.253,0.56-19.916,1.127
	c-1.158,0.099-2.315,0.203-3.473,0.314c-18.155,1.737-33.92,4.508-47.296,8.314c-0.653,0.197-1.299,0.388-1.94,0.573
	c-0.727,0.234-1.447,0.468-2.162,0.702c-0.64,0.209-1.269,0.425-1.884,0.647c-2.599,0.911-4.933,1.86-7.002,2.845
	c-1.416,0.677-2.704,1.367-3.861,2.069c-0.283,0.16-0.56,0.333-0.831,0.517C133.964,257.262,134.352,258.869,134.734,260.482z
	 M139.315,284.518c0.37-0.185,0.751-0.363,1.146-0.536c3.362-1.503,7.174-2.882,11.436-4.138c1.01-0.296,2.038-0.579,3.085-0.85
	c0.505-0.135,1.016-0.265,1.533-0.388c21.197-5.481,46.372-8.363,75.525-8.646c0.345-0.025,0.702-0.037,1.072-0.037
	c10.999,0,21.234,0.604,30.705,1.811c1.626,0.209,3.209,0.437,4.748,0.683c4.52,0.727,8.517,1.613,11.99,2.66
	c0.505,0.148,0.998,0.308,1.478,0.48c-1.059-7.279-1.638-14.786-1.736-22.521c0-0.554,0-1.096,0-1.626
	c-0.481-0.185-0.979-0.363-1.497-0.536c-6.01-1.958-13.302-3.357-21.874-4.194c-8.56-0.838-17.539-1.25-26.937-1.238h-3.233
	c-1.823,0.086-3.787,0.142-5.894,0.166c-17.822,0.579-34.48,2.309-49.975,5.191c-15.507,2.882-27.047,6.552-34.622,11.011
	c-0.37,0.222-0.727,0.45-1.072,0.684C136.858,269.578,138.232,276.919,139.315,284.518z M283.143,283.502
	c-0.271-1.897-0.542-3.818-0.813-5.764c-0.468-0.16-0.949-0.32-1.441-0.481c-4.779-1.527-10.408-2.71-16.886-3.547
	c-1.798-0.246-3.646-0.462-5.543-0.647c-4.816-0.48-9.822-0.819-15.02-1.016c-4.951-0.16-9.977-0.221-15.076-0.185
	c-1.848,0.086-3.843,0.142-5.986,0.166c-22.749,0.764-42.899,3.178-60.45,7.242c-1.798,0.419-3.547,0.856-5.247,1.312
	c-6.183,1.65-11.491,3.461-15.925,5.432c-0.406,0.185-0.801,0.363-1.182,0.536c0.074,0.567,0.148,1.133,0.222,1.7
	c0.172,1.453,0.37,3.196,0.591,5.229c0.357-0.32,0.739-0.64,1.146-0.961c0.566-0.443,1.195-0.881,1.884-1.312
	c1.539-0.961,3.381-1.89,5.524-2.79c5.924-2.488,13.253-4.649,21.985-6.485c2.599-0.542,5.259-1.047,7.981-1.515
	c1.798-0.308,3.615-0.591,5.45-0.85c6.035-0.899,12.237-1.632,18.604-2.198c9.225-0.813,18.758-1.25,28.599-1.312
	c0.209,0,0.412,0,0.61,0c3.498,0.013,6.934,0.074,10.309,0.185c2.907,0.111,5.746,0.259,8.517,0.443
	c8.215,0.554,15.544,1.608,21.985,3.159c2.045,0.505,3.972,1.072,5.783,1.7c1.182,0.419,2.235,0.856,3.159,1.312
	C282.355,283.065,282.761,283.281,283.143,283.502z M325.949,160.902c0.049-2.143-0.031-4.268-0.24-6.374
	c-0.345-3.584-0.979-6.965-1.903-10.143c-0.296-1.022-0.616-2.014-0.961-2.974c-0.431-1.219-0.893-2.383-1.386-3.492
	c-0.32-0.739-0.647-1.453-0.979-2.143c-1.133-2.229-2.315-4.231-3.547-6.004c-1.958-2.734-3.886-5.068-5.782-7.002
	c-2.439-2.426-4.896-4.533-7.372-6.318c-4.077-2.981-8.203-5.222-12.378-6.725c-2.796-1.059-5.604-1.872-8.424-2.439
	c0.924,1.281,1.742,2.58,2.457,3.898c2.365,4.409,3.923,8.96,4.674,13.653c0.665,3.51,0.88,7.187,0.647,11.03
	c-0.074,1.158-0.234,2.254-0.48,3.289c-0.246,1.022-0.462,1.515-0.647,1.478s-0.333-0.222-0.443-0.554
	c-0.012-0.049-0.099-0.425-0.259-1.127c-0.456-3.399-0.881-6.86-1.275-10.383c-0.234-1.33-0.573-2.901-1.016-4.711
	c-1.626-8.917-6.497-16.584-14.614-23.001c-5.001-3.633-10.863-6.263-17.588-7.889c-16.209-3.399-30.958-1.349-44.247,6.152
	c1.835,1.01,3.572,2.075,5.21,3.196c0.874,0.53,1.866,1.269,2.974,2.217c1.096,0.961,1.57,1.49,1.423,1.589
	c-0.419,0.295-0.936,0.357-1.552,0.185c-0.443-0.123-1.078-0.425-1.903-0.905c-2.697-1.576-5.912-3.172-9.644-4.785
	c-0.111-0.049-0.234-0.092-0.369-0.129l-0.056-0.037c-2.833-1.392-5.844-2.519-9.034-3.381c-0.345-0.111-0.69-0.222-1.035-0.333
	c-14.447-4.015-27.953-3.122-40.516,2.679c-7.144,3.547-12.865,7.649-17.163,12.304c-0.049,0.148-0.591,0.794-1.626,1.94
	c-1.207,1.343-1.952,2.198-2.235,2.568c-2.66,3.042-4.785,5.789-6.374,8.24c-1.256,1.848-2.599,4.003-4.027,6.466h-0.019
	c-0.542,0.283-0.856,0.142-0.942-0.425c0.123-0.628,0.45-1.681,0.979-3.159c0.48-1.318,0.801-2.131,0.961-2.439
	c2.069-4.089,4.705-8.11,7.907-12.064c-5.813-0.148-11.571,0.462-17.274,1.829c-5.678,1.318-11.498,3.91-17.459,7.778
	c-5.974,3.867-11.264,10.075-15.87,18.623c-3.227,6.035-5.617,13.197-7.168,21.487c-0.209,1.133-0.4,2.303-0.573,3.51
	c-0.185,1.195-0.351,2.42-0.499,3.676c-0.062,0.542-0.117,1.078-0.166,1.607c-0.246,2.931-0.259,5.727-0.037,8.388
	c0.677,6.811,2.254,12.68,4.729,17.607c0.309,0.612,0.619,1.209,0.929,1.789c0.204,0.383,0.409,0.747,0.614,1.116
	c0.105,0.19,0.211,0.388,0.316,0.575c0.273,0.482,0.547,0.948,0.821,1.405c0.036,0.06,0.072,0.125,0.108,0.185
	c1.552,2.571,3.11,4.739,4.676,6.505c0,0,0.001,0.001,0.001,0.001c0.048,0.011,0.099,0.023,0.148,0.034
	c0.47,0.275,2.777,1.606,5.244,2.417c1.186,0.389,2.684,0.749,3.505,0.891c0.042,0.007,0.152,0.026,0.302,0.055
	c0.849,0.163,1.39,0.266,1.987,0.523c0.779,0.335,1.359,0.805,1.762,1.13c0.136,0.11,0.234,0.195,0.264,0.222
	c0.837,0.727,3.267,2.709,5.376,4.382c1.157,0.917,3.081,2.44,5.665,4.365c2.557,1.904,5.432,4.037,9.353,6.562
	c2.415,1.556,2.235,1.224,4.155,2.596c5.53,3.953,10.937,8.006,16.221,12.156c-1.86-2.205-3.72-4.385-5.579-6.54
	c-6.269-7.033-12.889-13.764-19.861-20.193c-0.665-0.542-1.811-1.386-3.436-2.531l-1.884-1.274c-1.28-0.79-1.557-1.129-0.831-1.016
	c0.658,0.198,1.699,0.678,3.122,1.441c1.49,0.899,2.525,1.583,3.104,2.051c8.043,6.54,15.587,13.696,22.632,21.468
	c-0.961-1.724-1.903-3.418-2.827-5.081c-0.604-0.973-1.589-2.482-2.956-4.526l-1.626-2.605l-0.505-1.057
	c-0.112-0.185-0.223-0.369-0.335-0.554c-0.853-1.132-1.707-2.264-2.56-3.396c-0.181-0.522,0.688,0.093,2.605,1.848
	c1.219,1.084,2.069,1.891,2.549,2.42c5.21,5.653,10.229,11.479,15.057,17.477c0.542,0.702,1.49,1.995,2.845,3.88
	c2.414-0.714,4.957-1.392,7.63-2.032c1.429-0.345,2.857-0.678,4.286-0.998c-0.801-1.613-1.54-3.319-2.217-5.117
	c-1.848-3.831-3.677-7.704-5.487-11.621c-0.443-0.763-1.189-2.076-2.236-3.935l-1.164-2.272c-0.406-0.931-0.511-1.374-0.314-1.33
	c0.382,0,0.801,0.407,1.256,1.219c0.542,0.813,1.176,1.847,1.903,3.104c-0.739-1.86-1.46-3.738-2.162-5.635
	c-4.619-10.58-8.942-21.185-12.969-31.814c-0.333-0.997-0.893-2.58-1.681-4.748c-0.776-2.168-1.423-4.181-1.94-6.041
	c-0.591-1.577-1.213-3.399-1.866-5.469l-0.702-2.605l-0.148-1.607c0.037,0.037,0.074,0.068,0.111,0.092
	c0.283,0.517,0.542,1.053,0.776,1.607c2.291,6.047,4.717,12.076,7.279,18.087c3.215,7.082,6.485,14.127,9.81,21.136
	c3.621,7.427,7.107,14.879,10.457,22.355c2.192,4.372,4.286,8.763,6.281,13.173c0.049,0.123,0.086,0.234,0.111,0.332
	c6.208-1.244,12.994-2.34,20.359-3.288c3.252-0.431,6.713-0.825,10.383-1.182c-0.985-3.904-1.7-6.897-2.143-8.979
	c-2.808-11.91-5.462-23.851-7.963-35.823c-0.406-1.688-0.905-4.249-1.497-7.686c-0.591-3.449-0.677-5.906-0.259-7.371
	c0.217-0.011,0.402,0.34,0.554,1.053v0.056c0.062,0.32,0.129,0.653,0.203,0.997c1.33,6.392,2.82,12.748,4.471,19.066
	c2.845,11.11,5.635,22.269,8.369,33.477c0.394,1.638,0.77,3.283,1.127,4.933c0.222-0.012,0.443-0.031,0.665-0.056l0.351-0.037
	c0.172-0.012,0.339-0.024,0.499-0.037c0.53-0.049,1.066-0.092,1.608-0.129c8.018-0.665,15.864-1.022,23.537-1.072
	c1.515-5.592,3.35-10.758,5.506-15.5c2.18-4.828,4.397-9.62,6.651-14.374c3.683-8.868,8.234-17.274,13.653-25.219
	c1.022-1.527,2.291-3.332,3.806-5.413c1.503-2.094,2.931-3.677,4.286-4.748c0.319-0.097,0.03,0.541-0.868,1.912
	c-0.899,1.373-1.619,2.46-2.161,3.261c-0.394,0.591-0.782,1.176-1.164,1.755c-1.823,2.747-3.584,5.536-5.284,8.369
	c-0.739,1.219-1.472,2.457-2.199,3.714l-0.037,0.074l-0.13,0.185c-2.993,5.801-5.733,11.652-8.221,17.552
	c-0.092,0.185-0.176,0.373-0.268,0.558c0.115,0.426,0.316,0.987,0.683,1.581c0.499,0.809,1.089,1.331,1.527,1.656
	c0.003-0.005,0.006-0.011,0.009-0.016c0.387-0.677,0.784-1.351,1.191-2.021c0.2-0.329,0.408-0.654,0.612-0.98
	c0.242-0.387,0.483-0.775,0.732-1.16c0.214-0.332,0.436-0.661,0.655-0.991c0.252-0.379,0.505-0.757,0.763-1.134
	c0.221-0.322,0.446-0.642,0.672-0.962c0.272-0.386,0.548-0.771,0.827-1.155c0.223-0.306,0.447-0.611,0.674-0.915
	c0.301-0.403,0.607-0.803,0.916-1.203c0.217-0.281,0.432-0.562,0.652-0.841c0.353-0.448,0.715-0.892,1.078-1.336
	c0.186-0.228,0.369-0.457,0.558-0.684c0.558-0.67,1.126-1.337,1.706-1.999c0.296-0.32,0.591-0.641,0.887-0.961
	c0.491-0.502,0.981-0.989,1.469-1.459c0.699-0.673,0.69-0.378-0.028,0.887l-1.127,1.7c-0.16,0.209-0.277,0.37-0.351,0.48
	c-2.352,3.239-4.569,6.571-6.651,9.995c-0.887,1.429-1.731,2.87-2.531,4.323c-2.796,5.308-5.555,10.716-8.277,16.221
	c-0.271,0.566-0.77,1.539-1.496,2.919c-0.665,1.305-1.305,2.63-1.921,3.972c-0.185,0.493-0.456,1.146-0.813,1.958
	c0.604,0,1.201,0.006,1.792,0.019c0.628,0,1.256,0.012,1.884,0.037c2.586,0.049,5.173,0.135,7.759,0.259
	c2.586,0.111,5.155,0.277,7.704,0.499c0.678,0.062,1.355,0.117,2.032,0.166c7.033,0.677,13.321,1.687,18.863,3.03
	c0.603-3.054,1.638-6.398,3.104-10.032c0.665-2.18,1.46-4.378,2.383-6.595c0.493-1.182,0.992-2.346,1.496-3.492
	c1.675-4.434,3.683-8.769,6.023-13.006c0.32-0.641,0.641-1.182,0.961-1.626c0.209-0.357,0.431-0.714,0.665-1.072
	c0.049-0.012,0.092-0.018,0.129-0.018c0.678-1.108,1.373-2.112,2.088-3.012c0.123,0.653-0.086,1.496-0.628,2.531
	c-0.259,0.591-0.517,1.188-0.776,1.792c-0.85,1.884-1.712,3.757-2.586,5.616c-1.059,2.229-2.112,4.471-3.159,6.725
	c-0.037,0.111-0.08,0.222-0.13,0.332c-0.394,1.133-0.788,2.273-1.182,3.418c3.276-5.087,7.014-9.841,11.214-14.263
	c1.544-1.625,2.785-3.113,4.239-4.889c0.746-0.912,2.756-3.408,3.145-4.025c0.023-0.036,0.109-0.176,0.253-0.341
	c0.269-0.308,0.543-0.483,0.696-0.578c0.399-0.249,0.738-0.347,0.816-0.369c0.151-0.042,0.267-0.061,0.302-0.067
	c0.578-0.096,1.475-0.332,2.26-0.494c1.184-0.244,2.388-0.457,3.664-0.596c0.94-0.103,1.869-0.21,2.791-0.331
	c-0.051,0.053-0.102,0.11-0.154,0.162c4.89-4.964,9.311-12.508,13.265-22.632C325.192,169.08,325.851,165.04,325.949,160.902z
	 M123.519,156.32c-0.197-1.207-0.37-2.408-0.517-3.603c-0.382-3.091-0.628-6.251-0.739-9.478c-0.037-0.875-0.062-1.755-0.074-2.642
	c0.16-0.924-0.062-1.515-0.665-1.773l-0.314,1.459l-0.129,2.771c-0.012,2.291-0.006,3.886,0.018,4.785
	c0.382,6.306,1.281,12.551,2.697,18.734c1.663,7.957,4.329,16.043,8,24.258c3.683,8.215,7.95,15.667,12.803,22.355
	c0.748,1.006,1.352,1.711,1.81,2.115c1.691,1.86,1.993,1.568,0.905-0.878c-1.416-2.636-2.617-4.668-3.603-6.097
	c-1.651-2.747-3.221-5.475-4.711-8.184c-0.616-1.133-1.219-2.267-1.811-3.4c-3.449-6.627-6.399-13.641-8.85-21.043
	C126.186,169.234,124.579,162.774,123.519,156.32z"/>
</svg>
