<svg width="400" height="400" viewBox="0 0 400 400" fill="none" xmlns="http://www.w3.org/2000/svg">
<path style="fill:#0000FF;" d="M329.525,189.349c-0.454-6.706-1.186-13.367-2.754-19.949c-3.86-16.203-10.445-31.187-20-44.779
	c-9.4-13.372-20.937-24.64-34.658-33.616c-5.336-3.49-10.942-6.483-16.676-9.232c-9.37-4.492-19.109-7.954-29.363-9.767
	c-3.388-0.598-6.851-0.811-10.289-1.08c-4.89-0.383-9.787-0.863-14.685-0.919c-4.902-0.055-9.822,0.201-14.709,0.614
	c-4.7,0.397-9.405,0.965-14.041,1.82c-8.614,1.587-16.82,4.558-24.836,8.035c-9.647,4.184-18.398,9.873-26.742,16.213
	c-6.158,4.679-12.245,9.45-17.152,15.516c-2.116,2.615-4.221,5.241-6.284,7.898c-5.757,7.415-11.065,15.163-14.927,23.723
	c-5.773,12.794-10.179,26.033-11.213,40.186c-0.384,5.257-0.846,10.508-1.195,14.809c0.235,4.16,0.385,7.339,0.602,10.512
	c0.193,2.812,0.427,5.621,0.703,8.425c0.249,2.529,0.403,5.087,0.912,7.568c0.839,4.086,1.8,8.157,2.945,12.167
	c2.022,7.079,4.327,14.081,7.942,20.535c2.663,4.755,5.472,9.437,8.403,14.033c6.709,10.522,15.159,19.564,24.541,27.69
	c10.671,9.242,22.813,16.183,35.875,21.452c8.862,3.575,17.951,6.426,27.568,7.203c5.703,0.461,11.391,1.145,17.101,1.473
	c7.466,0.429,14.897-0.385,22.313-1.162c3.066-0.322,6.133-0.751,9.156-1.349c6.247-1.237,12.261-3.267,18.237-5.463
	c12.739-4.681,24.534-11.133,34.994-19.7c11.585-9.488,21.83-20.352,29.551-33.316c3.156-5.3,6.075-10.78,8.637-16.391
	c7.13-15.613,10.061-32.191,10.491-49.247C330.087,198.624,329.839,193.974,329.525,189.349z M314.105,154.217
	c4.326,11.084,6.587,22.513,8.266,34.546c-1.559,0.101-2.725,0.138-3.883,0.259c-3.062,0.321-6.113,0.748-9.18,1.001
	c-3.168,0.261-6.35,0.34-9.524,0.547c-5.617,0.366-11.233,0.76-16.848,1.171c-0.697,0.051-1.381,0.269-2.318,0.459
	c-1.244-7.361-2.54-14.582-5.345-21.586c0.493-0.406,0.901-0.928,1.432-1.149c6.953-2.888,13.929-5.724,20.889-8.593
	c4.948-2.04,9.882-4.115,14.828-6.161C312.906,154.513,313.43,154.412,314.105,154.217z M311.539,149.308
	c-0.547,0.305-1.133,0.704-1.773,0.979c-11.411,4.897-22.828,9.779-34.243,14.665c-0.333,0.142-0.648,0.337-0.99,0.447
	c-1.23,0.395-1.422,0.271-2.466-1.681c12.509-6.056,24.889-12.348,37.608-18.141C311.013,146.7,311.65,147.728,311.539,149.308z
	 M264.965,96.389c-0.834,1.584-1.642,3.276-2.585,4.889c-5.593,9.569-11.218,19.119-16.829,28.678
	c-0.318,0.542-0.6,1.105-1.021,1.884c-0.645-0.25-1.34-0.401-1.905-0.757c-5.95-3.75-12.331-6.542-19.043-8.584
	c-1.732-0.527-3.537-0.809-5.301-1.24c-0.869-0.212-1.718-0.504-2.699-0.797c2.087-13.752,4.152-27.359,6.238-41.102
	C231.126,79.588,257.248,89.949,264.965,96.389z M209.008,117.536c0.16-2.627,0.366-5.252,0.543-7.879
	c0.109-1.632,0.2-3.264,0.296-4.897c0.4-6.797,0.828-13.593,1.183-20.393c0.108-2.061,0.017-4.132,0.017-6.116
	c1.974-0.987,3.599-0.498,5.661,0.147c-1.769,13.842-3.954,27.406-6.084,41.028C208.916,119.598,208.947,118.541,209.008,117.536z
	 M203.348,78.333c0.046-0.163,0.202-0.294,0.489-0.695h2.395c-0.644,13.803-1.281,27.464-1.931,41.387
	c-0.485,0.045-1.132,0.105-1.988,0.185c-0.783-3.141-1.607-6.101-2.243-9.1c-0.621-2.931-1-5.908-2.236-8.691
	c-0.308-0.693-0.436-1.637-0.242-2.356C199.46,92.138,201.411,85.238,203.348,78.333z M197.87,118.755
	c-1.803,1.185-3.628,0.789-5.67,0.409c0.63-3.112,1.243-6.139,1.856-9.167c0.158-0.027,0.316-0.055,0.474-0.082
	C195.628,112.822,196.726,115.728,197.87,118.755z M198.016,77.68c0.247,4.035-1.926,7.213-3.17,10.739
	c-1.52-3.384-2.184-6.977-3.826-10.739H198.016z M186.68,77.82c0.459,1.828,0.922,3.734,1.416,5.632
	c1.256,4.826,2.467,9.665,3.827,14.462c0.419,1.479,0.37,2.77-0.079,4.223c-1.632,5.278-3.199,10.579-4.649,15.91
	c-0.416,1.53-1.152,2.408-2.671,2.647c-4.963,0.783-9.704,2.294-14.296,4.309c-0.151,0.066-0.355,0.008-1.024,0.008
	c-6.136-12.373-12.289-24.781-18.567-37.443C162.432,82.932,174.105,79.177,186.68,77.82z M144.891,89.997
	c1.575,0.415,1.814,1.572,2.272,2.531c2.582,5.407,5.01,10.892,7.758,16.212c2.58,4.995,5.491,9.818,8.256,14.718
	c0.606,1.074,1.38,2.079,1.569,3.324c-0.17,0.143-0.339,0.286-0.509,0.429c-0.907-0.844-1.817-1.686-2.72-2.535
	c-0.861-0.809-1.768-1.576-2.559-2.448c-3.115-3.431-6.232-6.861-9.265-10.363c-1.311-1.514-2.124-3.285-2.634-5.298
	c-1.202-4.747-2.677-9.426-4.037-14.133c-0.074-0.258-0.106-0.53-0.223-1.129C143.501,90.866,144.287,90.375,144.891,89.997z
	 M159.26,129.986c-0.893,1.384-2.399,1.736-4.006,2.426c-1.175-3.362-2.294-6.563-3.423-9.795
	C154.264,123.109,156.589,125.419,159.26,129.986z M137.778,94.234c1.262,1.605,2.579,5.716,2.76,8.748
	c-2.167-2.388-4.272-4.262-5.476-7.228C136.029,95.213,136.922,94.713,137.778,94.234z M129.735,99.243
	c7.827,6.456,15.026,12.961,17.184,23.36c0.898,4.327,2.571,8.493,3.989,13.046c-5.573,4.684-10.927,10.061-15.686,16.187
	c-1.683-0.553-3.218-1.041-4.742-1.562c-4.633-1.585-9.251-3.213-13.897-4.761c-1.972-0.657-3.506-1.832-4.838-3.39
	c-3.771-4.408-7.579-8.786-11.596-13.433C108.929,117.634,118.488,107.628,129.735,99.243z M132.278,156.659
	c-1.309,2.033-2.455,3.812-3.776,5.863c-2.849-3.269-5.435-6.236-8.02-9.203c0.117-0.174,0.234-0.347,0.351-0.52
	C124.669,153.623,128.363,154.877,132.278,156.659z M97.466,132.866c2.424,2.945,4.596,5.572,6.752,8.214
	c0.262,0.32,0.438,0.71,0.954,1.566c-3.987-1.533-7.462-2.87-11.232-4.319C95.095,136.537,96.151,134.903,97.466,132.866z
	 M91.392,143.277c4.877,0.965,9.222,2.821,13.722,4.144c4.854,1.427,8.465,4.174,11.4,8.271c2.903,4.052,6.277,7.765,9.623,11.846
	c-0.194,0.695-0.29,1.331-0.542,1.899c-1.952,4.412-3.504,8.943-4.162,13.746c-0.249,1.821-1.2,2.861-3.068,3.317
	c-5.285,1.291-10.54,2.708-15.795,4.117c-2.51,0.672-4.959,0.76-7.511,0.06c-4.984-1.366-10.018-2.55-15.027-3.824
	c-0.513-0.131-0.999-0.362-1.702-0.623C79.968,171.061,84.461,156.855,91.392,143.277z M123.64,226.47
	c-5.868,2.37-12.113,3.717-18.1,5.632c-0.173-0.199-0.259-0.254-0.258-0.307c0.001-0.084,0.038-0.201,0.101-0.245
	c0.588-0.414,1.164-0.849,1.781-1.215c4.881-2.896,9.771-5.779,14.728-8.708C123.495,222.809,123.791,224.396,123.64,226.47z
	 M108.518,194.452c1.581-1.34,8.427-3.231,11.394-3.114c-0.273,1.867-0.516,3.526-0.781,5.329
	C115.506,195.911,112.083,195.196,108.518,194.452z M116.122,201.598c-1.949,0-3.898-0.006-5.846,0.001
	c-6.452,0.022-12.903,0.017-19.354,0.088c-2.995,0.033-5.987,0.236-8.982,0.319c-0.882,0.024-1.768-0.104-2.732-0.692
	c3.129-0.842,6.262-1.671,9.386-2.532c3.136-0.863,6.263-1.759,9.559-2.686c3.118,0.867,6.185,1.667,9.217,2.58
	C110.283,199.552,113.41,199.703,116.122,201.598z M77.958,190.842c3.536,1.05,7.022,2.086,10.507,3.121
	c0.019,0.202,0.038,0.404,0.057,0.605c-3.447,0.595-6.894,1.191-10.564,1.825V190.842z M82.783,235.733
	c-1.658-6.699-3.269-13.404-3.926-20.301c-0.231-2.429-0.685-4.837-1.014-7.257c-0.06-0.434-0.009-0.884-0.009-1.522
	c0.788-0.071,1.479-0.185,2.17-0.187c6.818-0.023,13.638,0.031,20.456-0.058c5.358-0.069,10.715-0.318,16.074-0.463
	c0.886-0.024,1.775,0.078,2.716,0.124c0.684,3.542,1.335,6.914,2.019,10.455c-12.444,7.145-24.788,14.233-36.993,21.243
	C83.105,237.355,82.979,236.526,82.783,235.733z M86.037,244.1c11.03-3.682,21.961-7.331,32.892-10.979
	c0.131,0.203,0.261,0.405,0.392,0.608c-10.009,5.821-20.514,10.716-30.744,16.377C86.982,248.32,86.605,246.213,86.037,244.1z
	 M91.364,256.238c-0.815-1.173-0.302-1.7,0.519-2.133c3.687-1.943,7.376-3.882,11.059-5.834c7.525-3.989,15.043-7.992,22.574-11.97
	c0.774-0.409,1.615-0.69,2.402-1.021c1.004,1,0.83,1.816,0.076,2.507c-0.455,0.417-1.07,0.667-1.631,0.958
	c-10.461,5.435-20.926,10.864-31.387,16.3C93.862,255.624,92.807,256.363,91.364,256.238z M95.626,263.246
	c-0.41,0.039-1.08-0.38-1.252-0.764c-0.159-0.356,0.047-1.075,0.349-1.389c0.417-0.434,1.068-0.65,1.628-0.941
	c9.325-4.843,18.658-9.672,27.974-14.533c2.242-1.17,4.428-2.445,6.773-3.746c1.199,1.578,1.252,2.008,0.432,2.702
	c-0.341,0.288-0.756,0.496-1.156,0.706c-10.909,5.741-21.818,11.481-32.736,17.206C97,262.821,96.315,263.181,95.626,263.246z
	 M98.264,267.939c12.517-6.004,24.537-12.726,36.798-19.354c3.844,4.125,7.668,8.23,11.702,12.559
	c-5.722,12.602-11.541,25.418-17.407,38.338C116.966,290.876,106.888,280.186,98.264,267.939z M147.45,272.703
	c1.05-2.298,1.955-4.661,2.95-6.985c0.203-0.474,0.52-0.899,0.88-1.51c2.193,1.015,3.669,2.668,5.496,4.371
	c-5.878,4.446-9.017,11.012-14.137,16.157c-0.626-1.259,0.061-2.009,0.391-2.729C144.459,278.886,146.023,275.826,147.45,272.703z
	 M133.912,303.021c8.156-9.721,16.095-19.181,24.033-28.642c0.12,0.082,0.241,0.166,0.361,0.249
	c-5.891,10.563-11.783,21.126-17.906,32.103C138.316,305.539,136.227,304.345,133.912,303.021z M150.099,310.381
	c-0.104,0.234-0.329,0.414-0.565,0.702c-1.484-0.139-2.688-0.803-3.894-2.056c0.721-1.438,1.415-2.893,2.17-4.315
	c4.421-8.334,8.855-16.662,13.29-24.988c0.854-1.603,1.711-3.204,2.616-4.779c0.497-0.865,1.084-1.69,2.293-1.735
	c0.737,1.117,0.125,2.064-0.33,3.039c-3.338,7.152-6.701,14.292-9.99,21.466C153.766,301.909,151.967,306.161,150.099,310.381z
	 M193.431,322.185c-13.437-0.884-26.189-3.537-38.637-8.727c5.535-12.615,11.016-25.11,16.57-37.77
	c0.628,0.155,1.22,0.282,1.801,0.447c3.396,0.971,6.773,2.027,10.194,2.901c2.048,0.523,2.864,1.632,3.201,3.755
	c1.181,7.441,2.613,14.842,3.963,22.256c0.959,5.267,1.941,10.531,2.903,15.797C193.472,321.102,193.431,321.376,193.431,322.185z
	 M195.76,305.719c-1.41-7.498-2.812-14.997-4.198-22.499c-0.16-0.868-0.214-1.757-0.349-2.913c3.561-0.142,6.877,0.034,10.41,0.085
	c-1.966,9.423-3.116,18.799-4.364,28.632C196.029,307.825,195.952,306.737,195.76,305.719z M207.584,321.702
	c-2.572,0.647-4.851,0.654-7.28,0.022c0-0.911-0.158-1.905,0.025-2.832c1.775-8.975,3.058-18.025,4.195-27.098
	c0.225-1.792,0.319-3.601,0.575-5.389c0.15-1.046,0.497-2.063,0.756-3.094C207.751,296.112,207.82,308.925,207.584,321.702z
	 M198.794,272.352c-0.973-0.009-1.704-0.019-2.309-0.003c-0.55-0.036-1.101-0.057-1.653-0.066c-0.25-0.023-0.5-0.045-0.751-0.068
	c-1.408-0.127-2.815-0.204-4.216-0.369l-0.936-0.175c-0.269-0.05-0.537-0.1-0.806-0.151c-0.183-0.034-0.377-0.078-0.569-0.11
	c-0.038-0.011-0.076-0.02-0.117-0.027c-0.007-0.002-0.013-0.004-0.02-0.005c-2.736-0.63-5.468-1.288-8.174-2.035
	c-9.696-2.679-18.18-7.603-25.945-13.926c-8.202-6.679-14.193-14.989-18.757-24.457c-2.907-6.029-4.568-12.364-5.976-18.895
	c-1.409-6.541-1.241-13.066-0.818-19.531c0.333-5.095,1.764-10.226,3.398-15.108c3.621-10.822,9.345-20.486,17.347-28.708
	c6.76-6.947,14.801-12.004,23.646-15.827c6.64-2.87,13.576-4.537,20.799-5.167c5.464-0.477,10.9-0.49,16.324,0.22
	c13.906,1.82,26.458,6.867,37.302,15.899c1.671,1.392,3.322,2.806,5.202,4.395c2.281-1.471,4.325-2.788,6.639-4.281
	c-3.227-3.292-6.706-5.891-9.789-8.839c1.762-4.023,20.169-34.006,21.877-35.616c15.321,10.989,27.605,24.706,37.147,41.179
	c-12.641,6.152-25.036,12.184-37.544,18.271c-2.472-2.275-3.507-5.853-6.575-8.097c-1.521,1.732-3.004,3.42-4.621,5.261
	c0.621,1.165,1.126,2.318,1.808,3.354c4.744,7.21,8.114,15.016,9.993,23.429c0.505,2.261,0.994,4.527,1.3,6.823
	c0.85,3.562,0.624,7.353,0.653,11c0.019,2.403-0.046,4.778-0.376,7.159c-0.027,0.194-0.061,0.386-0.095,0.579
	c-0.047,0.844-0.138,1.68-0.324,2.509c-0.009,0.061-0.027,0.124-0.039,0.184c-0.002,0.009-0.004,0.018-0.006,0.027
	c-0.04,0.206-0.082,0.411-0.148,0.627c-0.169,0.55-0.268,1.126-0.372,1.691c-0.11,0.599-0.222,1.197-0.321,1.797
	c-0.048,0.288-0.092,0.579-0.183,0.857c-0.002,0.007-0.006,0.015-0.008,0.022c-0.012,0.062-0.021,0.125-0.035,0.186
	c-2.919,12.857-8.622,24.234-17.925,33.701c-9.038,9.197-19.571,15.905-32.069,19.342c-3.402,0.935-6.79,2.089-10.263,2.543
	C206.638,272.45,202.696,272.387,198.794,272.352z M245.862,272.56c2.543,6.687,5.048,13.389,7.546,20.093
	c0.629,1.686,1.182,3.401,1.467,5.32c-1.093-1.316-2.143-2.669-3.284-3.941c-5.272-5.875-10.575-11.722-15.851-17.593
	c-0.841-0.935-1.607-1.938-2.575-3.112c1.933-0.868,3.688-1.566,5.357-2.432c1.591-0.825,3.092-1.825,4.688-2.781
	C244.717,269.324,245.26,270.979,245.862,272.56z M213.282,321.333c-0.171-3.056-0.408-5.84-0.467-8.627
	c-0.087-4.18,0.024-8.365-0.082-12.545c-0.136-5.351-0.412-10.698-0.605-16.047c-0.048-1.347-0.007-2.697-0.007-4.189
	c3.238-0.778,6.314-1.478,9.367-2.268c1.395-0.361,2.763-0.847,4.107-1.37c2.001-0.777,2.625-0.757,4.073,0.879
	c4.393,4.966,8.683,10.023,13.094,14.973c4.532,5.084,9.16,10.083,13.741,15.124c0.174,0.192,0.293,0.435,0.615,0.922
	C243.218,314.928,229.095,320.48,213.282,321.333z M263.702,304.445c-5.159-13.146-10.248-26.113-15.458-39.392
	c3.469-3.128,7.154-6.45,11.011-9.926c11.445,8.011,22.783,15.947,34.28,23.994C284.88,288.997,274.98,297.353,263.702,304.445z
	 M296.485,274.917c-0.411-0.205-0.842-0.359-1.206-0.612c-9.233-6.448-18.459-12.904-27.686-19.361
	c-1.264-0.885-2.55-1.741-3.77-2.683c-0.454-0.35-0.748-0.906-1.199-1.473c1.213-1.057,1.983-0.633,2.794-0.128
	c3.157,1.966,6.314,3.933,9.501,5.849c7.699,4.628,15.418,9.226,23.123,13.844c0.521,0.313,1.001,0.695,1.616,1.128
	C298.794,272.927,298.04,274.232,296.485,274.917z M302.52,267.126c-6.104-3.556-12.157-6.98-18.106-10.578
	c-5.948-3.597-12.148-6.809-17.928-11.042c0.524-0.639,0.84-1.026,1.16-1.417c12.429,6.641,24.731,13.214,37.348,19.955
	C304.107,265.149,303.38,266.054,302.52,267.126z M307.439,258.971c-12.458-6.672-25.24-12.067-37.247-18.905
	c0.888-2.251,1.052-2.36,2.722-1.591c3.458,1.592,6.881,3.262,10.347,4.838c8.255,3.754,16.526,7.472,24.789,11.207
	c0.489,0.221,0.967,0.468,1.753,0.849C308.977,256.629,308.227,257.77,307.439,258.971z M322.239,212.413
	c-1.683,10.773-3.792,21.446-7.758,31.657c-0.811,2.089-1.475,4.264-2.865,6.15c-12.659-5.58-25.234-11.123-38.074-16.782
	c3.915-8.112,5.655-16.699,7.098-25.473c13.841,1.174,27.618,1.239,41.401,3.209C322.108,211.557,322.303,212.005,322.239,212.413z
	 M321.538,205.872c-3.798-0.164-7.597-0.318-11.391-0.548c-1.984-0.12-3.954-0.466-5.938-0.568
	c-7.236-0.372-14.475-0.683-21.713-1.02c-0.692-0.033-1.489,0.072-1.572-0.844c0.084-0.228,0.098-0.325,0.15-0.391
	c0.054-0.069,0.144-0.149,0.22-0.152c1.984-0.069,3.968-0.149,5.953-0.184c11.688-0.207,23.376-0.315,35.467-0.032
	c0,1.381,0,2.406,0.001,3.509C322.217,205.744,321.875,205.887,321.538,205.872z M280.932,196.596c0.399-0.21,0.79-0.58,1.2-0.604
	c2.444-0.139,4.893-0.178,7.339-0.286c5.529-0.244,11.063-0.425,16.584-0.791c5.147-0.341,10.279-0.893,15.42-1.33
	c0.334-0.028,0.684,0.132,1.276,0.258c0.071,1.143,0.14,2.261,0.231,3.728C308.805,197.809,294.921,198.038,280.932,196.596z
	 M275.489,134.096c-0.713-0.618-1.569-0.434-2.275,0.05c-0.971,0.666-1.934,1.369-2.792,2.173
	c-4.202,3.935-9.023,7.036-13.767,10.225c-5.803,3.902-11.72,7.637-17.608,11.411c-0.903,0.579-1.381,1.356-1.762,2.319
	c-0.664,1.681-1.427,3.325-2.189,4.965c-0.263,0.566-0.645,1.075-0.89,1.473c-1.34-0.461-2.146-0.739-2.989-1.029
	c-0.306,0.569-0.577,0.944-0.721,1.363c-1.036,3.015-3.016,5.334-5.282,7.494c-1.841,1.755-3.674,3.548-5.276,5.515
	c-1.743,2.139-3.661,4.01-5.972,5.51c-3.399,2.208-6.768,4.463-10.316,6.807c-0.05-0.556-0.176-0.861-0.081-1.061
	c0.826-1.732,0.842-3.514,0.229-5.273c-0.739-2.121-0.244-3.467,1.746-4.769c1.804-1.179,3.081-3.138,2.719-5.567
	c-0.323-2.167-2.692-4.44-4.744-4.741c-2.811-0.412-4.822,0.618-6.32,3.24c-1.224,2.14-1.014,3.529,0.893,5.89
	c0.115,0.141,0.23,0.283,0.362,0.408c1.747,1.656,2.152,3.455,0.755,5.573c-0.885,1.342-1.002,2.889-0.83,4.468
	c0.077,0.713,0.076,1.435,0.115,2.253c-2.61,2.014-5.125,4.103-6.393,7.265c0.551,1.047,1.085,2.064,1.57,2.986
	c-0.888,1.773-2.27,2.681-3.776,3.304c-1.922,0.794-3.352,2.097-4.665,3.644c-1.173,1.381-2.481,2.648-3.704,3.989
	c-1.018,1.117-2.133,1.524-3.652,0.987c-1.791-0.633-3.685-0.52-5.264,0.514c-4.726,3.096-5.462,10.223-0.171,13.42
	c2.345,1.416,6.475,1.578,8.193-0.273c2.434-2.621,5.144-5.37,3.151-9.714c2.143-1.749,4.376-3.318,6.296-5.206
	c1.9-1.867,3.483-4.057,5.164-6.056c1.113,0.654,1.229,1.395,1.113,2.283c-0.376,2.872-0.708,5.751-1.063,8.627
	c-0.41,3.326-0.762,6.661-1.278,9.97c-0.16,1.026-0.516,2.276-1.236,2.909c-1.537,1.352-1.726,2.639-0.688,4.289
	c0.231,0.367,0.317,0.827,0.56,1.492c-0.927,1.136-1.88,2.305-2.801,3.434c0,0.94-0.182,1.892,0.033,2.744
	c0.772,3.055,0.528,6.148,0.529,9.232c0.003,5.459-0.036,10.918-0.085,16.377c-0.007,0.746,0.043,1.458,0.322,2.125
	c0.044,0.049,0.082,0.104,0.131,0.148c0.189,0.169,0.478,0.284,0.749,0.336c0.267,0.051,0.55-0.042,0.784-0.174
	c0.135-0.076,0.23-0.183,0.312-0.301c0.157-0.437,0.298-0.861,0.398-1.293c1.272-5.482,2.449-10.986,3.763-16.458
	c0.805-3.351,1.811-6.653,2.697-9.985c0.301-1.135,0.585-2.197-0.508-3.251c-1.57-1.514-1.614-2.202-0.366-3.958
	c1.163-1.635,1.373-3.109-0.057-4.655c-0.235-0.254-0.356-0.612-0.505-0.879c1.091-7.587,1.292-15.225,3.21-22.502
	c2.468-0.409,3.002-0.676,3.637-2.236c1.315-3.228,3.132-6.107,5.456-8.71c4.292-4.807,8.263-9.915,13.584-13.712
	c2.505-1.789,4.932-3.693,7.323-5.632c1.587-1.287,3.28-2.235,5.301-2.624c0.934-0.18,1.834-0.541,2.942-0.879
	c-0.448-1.031-0.758-1.746-1.102-2.537c0.349-0.324,0.621-0.725,0.997-0.9c1.642-0.751,3.332-1.398,4.969-2.159
	c1.053-0.489,2.281-0.894,3.026-1.708c4.156-4.544,8.182-9.205,12.264-13.817c2.044-2.31,4.062-4.646,6.181-6.887
	c2.06-2.179,4.257-4.229,6.347-6.381c1.136-1.169,2.227-2.392,3.232-3.674C275.915,135.671,276.295,134.796,275.489,134.096z"/>
</svg>
