<svg width="400" height="400" viewBox="0 0 400 400" fill="none" xmlns="http://www.w3.org/2000/svg">
<path fill-rule="evenodd" clip-rule="evenodd" d="M180.626 70.9399C178.028 71.3576 175.07 72.1305 174.053 72.6581C173.035 73.1868 171.779 73.3569 171.262 73.0376C170.745 72.7171 169.839 72.7576 169.249 73.1267C168.658 73.4958 167.789 73.8857 167.317 73.9933C162.494 75.0959 155.94 77.1843 155.081 77.8936C154.49 78.3795 154.008 78.516 154.008 78.1955C154.008 77.8751 152.946 78.1782 151.646 78.8701C150.348 79.562 147.16 81.1228 144.563 82.3376C132.026 88.2037 109.054 104.662 105.574 110.273C105.145 110.963 103.31 113.14 101.494 115.108C99.6802 117.076 98.1958 119.079 98.1958 119.559C98.1958 120.039 97.564 120.955 96.7911 121.596C96.0194 122.238 94.4204 124.314 93.2391 126.209C92.0578 128.106 90.5421 130.237 89.8711 130.945C87.9273 132.997 84.2075 140.089 78.8401 151.982C77.7733 154.342 76.2507 158.979 75.4547 162.285C74.6598 165.59 73.6417 168.987 73.1939 169.833C72.7461 170.679 72.6189 171.758 72.9116 172.232C73.2043 172.705 73.0469 173.571 72.561 174.156C68.685 178.827 69.3989 227.139 73.416 231.979C73.9564 232.631 74.1542 233.409 73.8545 233.708C73.556 234.007 73.6393 234.674 74.0408 235.19C74.4423 235.705 74.9907 237.287 75.2591 238.703C75.5276 240.12 76.2218 242.438 76.8014 243.855C77.3823 245.271 77.9168 246.817 77.9897 247.289C78.1875 248.562 80.8232 254.643 82.4569 257.594C83.2414 259.01 85.0452 262.295 86.4648 264.892C95.6723 281.737 117.799 303.964 134.431 313.075C146.548 319.712 159.09 324.997 162.728 324.997C163.599 324.997 164.311 325.425 164.311 325.946C164.311 326.469 164.879 326.68 165.572 326.414C166.265 326.148 167.071 326.318 167.365 326.792C167.658 327.267 168.54 327.549 169.324 327.42C170.109 327.291 171.157 327.441 171.654 327.754C174.226 329.372 189.064 330.325 205.061 329.899C220.991 329.474 223.515 329.166 234.29 326.34C234.762 326.216 235.729 325.893 236.437 325.622C237.145 325.352 239.85 324.469 242.447 323.66C245.045 322.853 247.556 321.959 248.029 321.675C248.501 321.391 249.08 321.125 249.317 321.085C249.777 321.005 251.78 320.122 257.903 317.302C262.119 315.361 268.031 311.926 269.673 310.464C270.243 309.957 271.016 309.533 271.39 309.524C273.467 309.472 299.976 285.87 299.976 284.072C299.976 283.808 301.56 281.698 303.497 279.385C311.136 270.261 321.165 251.438 324.027 240.851C324.602 238.725 325.282 236.406 325.539 235.698C325.797 234.99 325.933 234.08 325.841 233.676C325.75 233.272 326.024 232.499 326.45 231.959C330.761 226.496 330.761 173.634 326.45 168.171C326.024 167.63 325.75 166.857 325.841 166.454C325.933 166.05 325.797 165.14 325.539 164.431C325.282 163.723 324.604 161.427 324.032 159.33C323.46 157.233 322.69 154.721 322.319 153.75C321.95 152.777 321.574 151.705 321.484 151.368C321.072 149.83 310.135 129.073 309.029 127.731C308.345 126.901 305.15 122.938 301.93 118.924C296.29 111.892 286.231 101.382 283.44 99.6049C282.699 99.1317 279.243 96.5643 275.76 93.8974C266.042 86.4555 243.07 75.3354 237.076 75.1711C236.72 75.1607 235.063 74.5822 233.396 73.8857C225.41 70.55 193.985 68.796 180.626 70.9399ZM187.449 80.0711C187.941 81.8413 188.345 83.8892 188.348 84.6216C188.351 85.3528 188.687 86.3189 189.093 86.7678C192.158 90.144 192.806 101.991 190.287 108.62C190.017 109.328 189.88 110.259 189.979 110.688C190.079 111.117 189.795 111.697 189.347 111.976C188.9 112.256 188.193 114.213 187.776 116.328L187.018 120.172L180.172 121.973C176.407 122.965 172.425 124.261 171.321 124.854C168.834 126.191 170.342 128.479 159.323 106.655C148.737 85.6907 148.898 87.0097 156.621 84.5105C158.254 83.9818 160.748 83.0376 162.165 82.4105C163.582 81.7834 168.218 80.6264 172.468 79.8397C176.719 79.0517 181.162 78.0984 182.343 77.7212C186.038 76.5375 186.531 76.7643 187.449 80.0711ZM197.987 79.5666C197.009 87.7073 194.743 89.9462 192.982 84.5128C190.59 77.1369 190.587 77.1485 194.601 77.3648C197.853 77.5407 198.202 77.7675 197.987 79.5666ZM207.133 77.6437C207.309 77.6795 207.022 78.2291 206.494 78.8643C205.887 79.5967 205.583 83.8499 205.664 90.4657C205.734 96.2114 205.54 101.165 205.23 101.475C204.921 101.784 204.667 106.03 204.667 110.91C204.667 121.654 202.513 122.989 200.767 113.327C200.428 111.447 199.869 109.522 199.527 109.05C197.187 105.824 196.651 94.8345 198.768 93.5248C199.195 93.2621 199.31 92.6698 199.026 92.2093C198.741 91.7488 198.884 90.9065 199.341 90.3361C199.799 89.7668 200.607 87.2422 201.137 84.7269C202.653 77.5337 203.239 76.843 207.133 77.6437ZM216.644 78.4964C217.057 79.1651 217.094 80.5177 216.726 81.5011C216.357 82.4857 215.356 89.1825 214.502 96.3849C213.647 103.586 212.675 109.479 212.342 109.479C212.009 109.479 211.832 110.689 211.947 112.169C212.172 115.028 210.738 119.782 209.652 119.782C208.636 119.782 208.911 99.3075 209.935 98.6747C210.442 98.3611 210.711 95.8585 210.559 92.8537C210.413 89.9554 210.58 87.1277 210.929 86.57C211.279 86.0123 211.268 85.3725 210.906 85.1492C210.352 84.8056 210.191 81.4039 210.576 78.1389C210.731 76.821 215.793 77.1195 216.644 78.4964ZM230.855 80.5107C232.745 81.0175 235.032 81.5682 235.94 81.7337C236.847 81.9003 238.087 82.4487 238.693 82.952C239.299 83.4553 240.199 83.6185 240.692 83.3142C241.185 83.0087 241.589 83.1684 241.589 83.6694C241.589 84.1692 242.184 84.5788 242.91 84.5788C243.638 84.5788 245.715 85.3343 247.527 86.2588C249.338 87.1832 251.062 87.6981 251.356 87.4042C251.651 87.1092 251.892 87.3186 251.892 87.8693C251.892 88.4212 252.204 88.7753 252.587 88.6572C252.969 88.5392 255.731 89.8906 258.725 91.662C261.72 93.4334 264.499 94.882 264.9 94.882C266.443 94.882 263.595 101.103 257.886 110.209C256.006 113.208 254.468 115.79 254.468 115.948C254.468 116.104 252.542 119.446 250.19 123.375C247.837 127.301 245.586 131.072 245.191 131.754C244.589 132.787 243.913 132.646 241.097 130.9C239.242 129.75 237.435 128.903 237.081 129.018C236.726 129.133 236.437 128.871 236.437 128.438C236.437 128.004 234.408 126.987 231.929 126.178C229.449 125.369 226.938 124.324 226.348 123.857C225.757 123.39 225.268 123.343 225.261 123.756C225.254 124.168 224.964 124.077 224.618 123.553C224.271 123.029 222.055 122.253 219.694 121.83C215.144 121.014 213.585 118.624 215.833 115.914C216.38 115.256 216.713 113.635 216.574 112.312C216.435 110.99 216.544 109.52 216.816 109.048C217.088 108.578 218.022 102.298 218.892 95.0972C219.762 87.8948 220.744 82.0021 221.076 82.0021C221.408 82.0021 221.47 81.2026 221.214 80.2249C220.707 78.2835 222.786 78.346 230.855 80.5107ZM153.176 104.113C156.993 112.022 161.303 120.344 162.754 122.605C167.272 129.648 164.457 128.3 155.964 119.353C148.381 111.366 145.645 107.318 144.94 103.046C144.783 102.097 143.983 99.0703 143.162 96.319C141.874 92.0091 141.838 91.2085 142.9 90.5362C145.493 88.8956 146.433 90.1371 153.176 104.113ZM139.404 97.0282C139.771 97.5003 140.332 99.2393 140.651 100.893L141.232 103.897L137.746 100.282C133.713 96.0991 133.576 95.5889 136.191 94.4411C137.689 93.784 138.191 93.8835 138.43 94.882C138.599 95.5901 139.037 96.5562 139.404 97.0282ZM137.129 105.167C140.503 108.259 145.965 115.49 144.929 115.49C144.612 115.49 144.82 116.052 145.39 116.739C145.961 117.427 146.178 118.394 145.874 118.886C145.57 119.379 145.676 119.782 146.111 119.782C146.545 119.782 147.621 123.067 148.501 127.08C149.382 131.095 150.401 134.379 150.767 134.379C151.133 134.379 151.432 134.982 151.432 135.718C151.432 136.455 151.091 136.846 150.673 136.588C150.257 136.331 146.384 139.825 142.067 144.353C135.815 150.915 133.98 152.39 133.041 151.61C132.394 151.073 131.534 150.708 131.129 150.799C130.725 150.891 129.816 150.73 129.108 150.441C126.626 149.427 117.514 147.016 117.433 147.35C117.387 147.536 116.711 147.158 115.93 146.51C115.149 145.861 114.511 145.569 114.511 145.86C114.511 146.15 113.545 145.549 112.363 144.522C111.183 143.496 110.217 142.336 110.217 141.945C110.217 141.231 107.889 138.383 102.705 132.757C98.2374 127.909 99.6339 125.063 112.34 113.115C114.217 111.351 116.831 108.799 118.15 107.442C119.467 106.086 122.569 103.513 125.041 101.723L129.537 98.4699L131.683 100.306C132.863 101.317 135.314 103.504 137.129 105.167ZM276.268 103.236C287.406 112.209 299.469 125.619 305.675 135.923C308.228 140.164 308.786 142.877 306.859 141.687C306.459 141.439 306.003 141.53 305.845 141.887C305.686 142.244 302.659 143.957 299.117 145.693C283.928 153.139 270.938 159.28 270.375 159.28C269.496 159.28 266.551 155.587 266.518 154.443C266.468 152.765 262.805 152.37 261.154 153.864C259.101 155.722 259.085 155.659 263.343 162.86C267.239 169.448 270.23 177.073 271.201 182.892C271.516 184.781 271.968 186.906 272.206 187.614C272.768 189.292 272.768 210.838 272.206 212.515C271.968 213.223 271.516 215.349 271.201 217.237C269.955 224.698 265.39 235.091 260.595 241.383C259.823 242.397 258.619 244.141 257.92 245.259C255.965 248.385 244.132 259.74 242.829 259.74C242.194 259.74 241.364 260.233 240.987 260.836C240.61 261.437 238.369 262.886 236.007 264.054C233.646 265.224 231.43 266.566 231.083 267.038C230.663 267.611 230.443 267.611 230.426 267.038C230.41 266.505 230.161 266.522 229.769 267.085C228.283 269.216 215.348 271.989 204.891 272.418C197.494 272.723 194.094 273.198 193.409 274.023C192.124 275.571 190.974 275.502 189.052 273.763C188.181 272.975 183.927 271.435 179.597 270.34C175.268 269.246 171.506 268.011 171.239 267.596C170.971 267.181 169.785 266.549 168.605 266.193C167.424 265.836 164.192 264.045 161.423 262.214C158.653 260.381 156.074 258.881 155.689 258.881C155.305 258.881 154.231 257.915 153.302 256.735C152.374 255.554 151.308 254.588 150.935 254.588C149.77 254.588 146.28 250.914 146.28 249.689C146.28 249.048 145.708 248.304 145.01 248.037C141.165 246.562 130.646 226.502 129.083 217.666C128.541 214.597 127.903 211.506 127.668 210.798C127.111 209.122 127.111 191.009 127.668 189.332C127.903 188.623 128.535 185.533 129.071 182.463C130.459 174.503 141.863 152.411 144.582 152.411C144.992 152.411 145.831 151.359 146.448 150.075C147.063 148.789 148.426 147.311 149.475 146.788C150.523 146.266 152.193 144.805 153.186 143.544C154.179 142.281 155.375 141.248 155.845 141.248C156.314 141.248 157.928 140.327 159.432 139.2C173.915 128.347 199.531 124.291 219.98 129.613C226.287 131.255 239.982 137.521 240.987 139.226C241.364 139.867 242.084 140.39 242.585 140.39C243.086 140.39 245.391 141.976 247.706 143.914C252.1 147.593 255.612 148.034 256.757 145.051C257.279 143.692 250.313 136.097 248.544 136.097C247.024 136.097 247.948 134.321 256.355 121.078C258.15 118.248 259.62 115.479 259.62 114.924C259.62 114.37 259.91 113.786 260.264 113.629C261.138 113.24 269.064 100.201 269.064 99.1525C269.064 97.668 270.056 98.2304 276.268 103.236ZM195.313 109.622C195.284 109.78 195.831 111.804 196.529 114.123C198.234 119.789 198.237 119.782 194.697 119.782H191.597L192.174 116.562C192.798 113.093 194.546 108.516 195.054 109.024C195.225 109.195 195.342 109.465 195.313 109.622ZM158.909 128.697C160.106 130.128 159.02 131.434 156.214 131.936C154.908 132.17 154.228 131.324 152.998 127.939C150.084 119.917 151.742 120.129 158.909 128.697ZM105.046 142.23C105.071 142.928 97.9169 141.181 97.3372 140.348C97.1012 140.008 96.1351 139.574 95.191 139.384C93.1813 138.98 93.2923 136.831 95.4536 134.303C96.7969 132.73 104.949 139.469 105.046 142.23ZM269.44 137.882C268.053 139.337 264.213 142.285 260.907 144.434C245.302 154.583 242.849 156.149 242.474 156.209C241.156 156.422 237.583 160.695 236.795 163.001C236.102 165.026 235.269 165.789 233.53 165.995C231.954 166.182 230.923 166.988 230.357 168.478C227.744 175.35 205.964 193.625 200.388 193.625C196.532 193.625 192.007 198.848 193.042 202.105C194.043 205.257 181.733 215.208 176.52 215.459C168.387 215.85 166.39 227.853 174.213 229.32C179.36 230.286 185.389 224.945 183.807 220.822C183.257 219.389 187.184 214.232 188.824 214.232C189.489 214.232 190.71 213.17 191.541 211.871C193.746 208.425 195.305 207.421 198.498 207.391C202.342 207.354 204.377 206.127 206.066 202.83C206.846 201.31 208.219 199.292 209.117 198.348C210.015 197.404 212.6 194.423 214.862 191.726C217.123 189.029 221.26 185.101 224.055 182.998C226.851 180.893 230.298 178.233 231.714 177.084C233.131 175.935 235.353 174.737 236.652 174.42C238.128 174.06 239.012 173.271 239.012 172.315C239.012 170.136 240.711 168.725 243.33 168.725C245.495 168.725 253.383 161.55 255.777 157.403C256.261 156.565 260.632 151.624 265.492 146.425C273.204 138.17 275.07 135.237 272.609 135.237C272.253 135.237 270.828 136.428 269.44 137.882ZM95.2269 143.883C95.5393 144.387 96.2878 144.61 96.8906 144.379C97.4934 144.148 98.3242 144.268 98.7361 144.646C99.7901 145.616 106.32 147.786 108.855 148.01C110.024 148.114 122.207 161.829 124.89 166.061C126.19 168.112 125.366 173.877 123.773 173.877C123.43 173.877 123.373 174.457 123.645 175.165C123.917 175.874 123.671 176.452 123.097 176.452C122.523 176.452 122.272 177.019 122.538 177.712C122.804 178.407 122.702 179.17 122.314 179.411C121.924 179.652 121.37 181.322 121.081 183.123L120.558 186.396L113.026 187.952C108.884 188.808 104.982 189.927 104.355 190.44C102.876 191.646 92.6641 191.651 91.1796 190.444C90.5525 189.935 87.7213 189.047 84.8878 188.47C78.3518 187.141 76.2102 186.074 77.4968 184.788C78.0198 184.265 78.4479 182.719 78.4479 181.352C78.4479 176.032 82.1087 161.293 84.9237 155.28C86.5481 151.809 87.8741 148.773 87.8683 148.534C87.7826 144.888 93.5827 141.223 95.2269 143.883ZM311.536 147.474C312.809 149.29 312.773 149.455 310.94 150.24C309.869 150.7 308.798 151.323 308.562 151.628C308.326 151.931 307.201 152.47 306.061 152.826C304.921 153.183 302.701 154.012 301.127 154.669C299.554 155.327 298.019 155.828 297.714 155.781C297.411 155.736 296.926 156.046 296.637 156.47C296.348 156.894 293.6 158.159 290.53 159.28C287.461 160.4 284.757 161.554 284.52 161.843C283.292 163.347 273.866 166.141 272.998 165.258C271.679 163.919 297.758 149.33 300.505 149.87C300.816 149.931 301.308 149.602 301.597 149.138C302.171 148.216 307.513 145.723 309.157 145.611C309.721 145.573 310.791 146.411 311.536 147.474ZM129.322 155.095C132.19 156.259 132.295 157.614 129.747 160.575L127.813 162.825L123.9 158.262C118.221 151.64 118.203 151.542 122.884 152.929C125.126 153.593 128.024 154.569 129.322 155.095ZM315.418 156.919C315.425 157.745 315.753 158.422 316.147 158.422C316.54 158.422 317.754 162.189 318.844 166.793C319.934 171.397 321.021 175.744 321.261 176.452C321.5 177.161 321.609 178.63 321.501 179.718C321.395 180.805 321.663 182.158 322.098 182.723C322.533 183.288 322.853 184.91 322.809 186.326L322.73 188.903L316.719 189.137C313.414 189.265 310.129 189.632 309.421 189.951C308.346 190.437 281.028 192.727 280.477 192.379C280.379 192.316 279.856 189.383 279.314 185.861C278.774 182.339 277.988 179.036 277.57 178.52C277.151 178.004 277.082 177.307 277.419 176.971C277.756 176.634 277.608 176.09 277.091 175.762C275.958 175.043 274.623 169.456 275.645 169.719C276.04 169.819 277.859 169.251 279.688 168.455C281.516 167.659 283.352 167.008 283.767 167.008C284.181 167.008 284.52 166.557 284.52 166.006C284.52 165.455 284.774 165.258 285.086 165.568C285.396 165.88 286.072 165.814 286.587 165.423C287.103 165.032 290.038 163.803 293.107 162.693C296.177 161.584 298.881 160.437 299.117 160.144C299.353 159.853 302.058 158.714 305.127 157.615C308.197 156.515 311.462 155.094 312.383 154.455C314.239 153.17 315.393 154.107 315.418 156.919ZM200.244 171.876C197.531 172.596 196.539 176.909 198.357 180.082C199.705 182.435 199.835 183.566 199.155 187.038C198.376 191.023 199.018 192.697 201.347 192.754C202.19 192.773 202.925 189.284 202.938 185.203C202.945 183.168 203.285 181.71 203.693 181.962C204.639 182.546 206.861 180.045 207.624 177.54C208.053 176.132 207.635 175.049 206.048 173.462C203.929 171.343 203.102 171.117 200.244 171.876ZM83.1696 192.397C84.587 192.754 86.2288 192.966 86.8189 192.868C87.4101 192.771 87.8926 193.046 87.8926 193.48C87.8926 194.13 85.6352 194.877 82.0925 195.395C81.7407 195.446 80.9748 195.886 80.3905 196.37C78.7788 197.708 76.7309 196.508 76.7309 194.224C76.7309 191.745 77.4656 190.916 79.2439 191.389C79.9867 191.586 81.7535 192.04 83.1696 192.397ZM119.662 194.155C119.662 197.104 119.544 197.232 117.301 196.704C116.002 196.398 114.167 196.016 113.222 195.854C112.278 195.694 111.312 195.453 111.076 195.321C110.84 195.189 110.099 195.041 109.429 194.994C108.759 194.945 108.035 194.376 107.819 193.729C107.587 193.035 107.892 192.707 108.56 192.929C109.184 193.138 111.068 192.816 112.746 192.216C118.285 190.236 119.662 190.621 119.662 194.155ZM324.018 196.306C324.018 197.841 322.968 197.918 302.072 197.918C277.997 197.918 273.555 196.781 293.736 195.784C300.71 195.439 306.762 194.948 307.186 194.693C307.608 194.436 310.758 194.309 314.186 194.409C318.018 194.522 320.643 194.224 321.005 193.638C321.837 192.291 324.018 194.223 324.018 196.306ZM102.324 197.132C104.54 197.643 107.131 198.432 108.084 198.886C109.525 199.573 112.193 200.124 115.583 200.435C115.937 200.467 116.228 200.88 116.228 201.352C116.228 201.903 109.204 202.18 96.6939 202.122C78.1193 202.037 77.3707 201.971 81.4526 200.782C85.5045 199.602 87.4066 199.016 88.2998 198.675C89.215 198.327 96.9705 196.311 97.601 196.259C97.9829 196.227 100.108 196.619 102.324 197.132ZM323.732 203.566C324.019 204.311 323.62 205.552 322.847 206.325C321.867 207.305 321.441 207.399 321.441 206.634C321.441 205.822 319.691 205.584 314.691 205.716C310.978 205.814 307.597 205.687 307.178 205.433C306.759 205.18 300.71 204.69 293.736 204.346C273.687 203.355 277.94 202.211 301.669 202.211C320.497 202.211 323.278 202.382 323.732 203.566ZM120.386 211.228C121.424 217.806 122.446 216.781 106.354 225.323C103.992 226.577 100.521 228.651 98.6412 229.933C96.7599 231.215 94.7317 232.263 94.1335 232.263C93.5342 232.263 93.0447 232.65 93.0447 233.123C93.0447 233.595 92.4975 233.981 91.8276 233.981C91.1588 233.981 90.4831 234.271 90.3258 234.625C89.7253 235.975 83.5387 238.557 82.7716 237.779C81.7731 236.765 78.4479 220.48 78.4479 216.602C78.4479 214.983 78.1679 213.381 77.8266 213.039C77.4852 212.698 77.1208 211.088 77.0167 209.462L76.8281 206.505L92.4489 206.411C101.041 206.36 110.39 206.056 113.222 205.735C119.532 205.023 119.39 204.913 120.386 211.228ZM299.976 209.21C305.406 209.705 312.651 210.169 316.076 210.239C319.5 210.31 322.352 210.561 322.412 210.798C322.92 212.78 322.739 216.573 322.098 217.407C321.663 217.972 321.395 219.324 321.501 220.412C321.609 221.5 321.5 222.969 321.261 223.677C321.021 224.386 319.934 228.732 318.844 233.337C317.754 237.942 316.625 241.709 316.334 241.709C316.044 241.709 315.297 243.432 314.676 245.538C313.46 249.652 311.412 252.09 310.429 250.591C310.111 250.107 307.242 248.783 304.055 247.649C300.866 246.515 298.258 245.271 298.258 244.885C298.258 244.5 297.872 244.422 297.4 244.714C296.928 245.005 296.541 244.877 296.541 244.428C296.541 243.979 295.56 243.366 294.36 243.065C293.16 242.763 289.393 241.227 285.988 239.648C282.583 238.07 278.323 236.304 276.519 235.723C274.446 235.056 273.397 234.258 273.667 233.554C273.902 232.944 274.586 230.76 275.187 228.704C275.788 226.647 276.608 224.737 277.011 224.457C277.413 224.178 277.66 223.598 277.56 223.169C277.461 222.74 277.608 221.81 277.889 221.102C278.169 220.393 278.833 217.086 279.363 213.752L280.327 207.691L285.214 207.998C287.902 208.168 294.545 208.713 299.976 209.21ZM195.864 210.676C195.635 211.553 195.817 212.934 196.271 213.743C196.723 214.553 196.81 216.25 196.463 217.515C196.116 218.779 195.726 220.393 195.595 221.102C195.465 221.81 194.762 224.708 194.033 227.541C193.304 230.375 192.694 233.774 192.677 235.097C192.66 236.419 191.988 238.738 191.181 240.249C190.376 241.76 189.884 243.383 190.088 243.855C190.808 245.527 191.348 270.047 190.664 270.045C190.281 270.044 190.209 270.433 190.503 270.909C191.241 272.103 193.122 270.073 193.293 267.897C193.484 265.457 193.974 262.954 194.554 261.457C194.828 260.749 195.717 256.886 196.529 252.871C197.34 248.857 198.385 244.847 198.849 243.961C199.445 242.823 199.379 242.156 198.627 241.691C198.04 241.327 197.606 239.928 197.661 238.579C197.715 237.231 197.745 233.557 197.728 230.414C197.708 227.133 198.098 224.452 198.644 224.114C199.166 223.792 199.552 221.726 199.503 219.525C199.454 217.322 199.597 214.072 199.822 212.3C200.28 208.702 196.758 207.257 195.864 210.676ZM123.928 225.541C123.945 226.447 123.007 227.184 121.38 227.541C119.963 227.853 118.803 228.366 118.802 228.682C118.801 228.999 115.613 229.993 111.718 230.892C107.823 231.791 104.153 232.901 103.563 233.359C102.972 233.817 102.494 233.854 102.5 233.442C102.506 233.03 104.727 231.415 107.437 229.853C110.147 228.291 114.489 225.758 117.086 224.224C122.042 221.297 123.854 221.646 123.928 225.541ZM120.511 232.908C120.499 233.605 110.608 239.248 109.684 239.085C109.375 239.031 108.885 239.336 108.596 239.763C108.307 240.19 106.139 241.442 103.777 242.544C101.416 243.647 98.905 245.037 98.1958 245.632C97.4877 246.228 95.1702 247.398 93.0447 248.232C90.9193 249.065 88.9084 250.154 88.5764 250.652C88.2385 251.156 87.3592 250.087 86.5828 248.228C84.7524 243.848 85.2847 243.412 96.0495 240.486C100.772 239.202 105.795 237.654 107.212 237.045C108.629 236.437 111.633 235.445 113.888 234.842C116.143 234.239 118.195 233.412 118.447 233.005C119.009 232.094 120.525 232.024 120.511 232.908ZM127.524 238.813C126.752 239.378 125.826 239.658 125.468 239.436C125.108 239.213 124.814 239.37 124.814 239.783C124.814 240.196 122.592 241.452 119.877 242.573C117.161 243.696 114.429 245.119 113.805 245.737C113.181 246.354 112.208 246.86 111.644 246.86C111.078 246.86 109.221 247.809 107.515 248.968C105.809 250.126 104.174 250.834 103.881 250.542C103.587 250.249 103.348 250.402 103.348 250.882C103.348 251.361 101.029 252.675 98.1958 253.8C95.3634 254.926 93.0447 256.143 93.0447 256.505C93.0447 256.868 92.4651 257.164 91.757 257.164C86.6904 257.164 94.2654 252.256 116.657 241.032C119.018 239.849 122.272 237.987 123.887 236.896C127.238 234.632 130.726 236.471 127.524 238.813ZM274.51 238.553C274.821 238.243 275.075 238.376 275.075 238.85C275.075 239.324 277.2 240.435 279.798 241.318C282.395 242.201 284.52 243.229 284.52 243.604C284.52 243.978 284.81 244.222 285.164 244.146C285.942 243.978 288.085 244.861 296.595 248.852C300.166 250.528 304.03 252.141 305.182 252.437C309.232 253.477 310.455 254.98 309.304 257.506C308.538 259.188 307.85 259.63 306.612 259.237C304.276 258.495 271.381 241.758 270.432 240.827C269.236 239.655 271.614 237.183 272.907 238.257C273.478 238.73 274.199 238.864 274.51 238.553ZM132.542 244.39C132.542 244.804 131.994 245.143 131.326 245.143C130.657 245.143 129.98 245.433 129.823 245.788C129.514 246.484 121.166 250.589 120.616 250.315C120.434 250.224 120.047 250.501 119.758 250.933C119.47 251.364 118.073 252.311 116.657 253.035C115.24 253.76 109.864 256.551 104.71 259.237C96.5308 263.498 95.1806 263.961 94.0953 262.877C93.0112 261.792 93.1107 261.553 94.8809 261.001C95.9963 260.652 97.1012 260.077 97.3372 259.721C97.5733 259.366 104.722 255.519 113.222 251.171C121.722 246.824 129.036 242.926 129.473 242.509C130.313 241.707 132.542 243.072 132.542 244.39ZM280.72 250.816C284.935 253.049 290.123 255.766 292.247 256.856C294.373 257.944 296.682 259.328 297.379 259.932C298.075 260.535 298.756 260.924 298.89 260.796C299.097 260.601 304.188 262.96 304.944 263.602C305.43 264.014 303.12 268.326 302.414 268.326C302.017 268.326 301.687 268.037 301.679 267.683C301.672 267.329 299.74 266.093 297.387 264.937C295.032 263.783 293.107 262.504 293.107 262.097C293.107 261.689 292.721 261.595 292.247 261.886C291.775 262.179 291.389 262.008 291.389 261.508C291.389 261.008 290.962 260.598 290.44 260.598C289.918 260.598 287.762 259.431 285.648 258.004C283.533 256.578 280.205 254.595 278.251 253.597C271.949 250.382 266.308 246.129 266.957 245.081C267.495 244.208 271.006 245.672 280.72 250.816ZM140.935 255.049L147.159 261.522L144.527 267.286C143.079 270.455 140.99 274.981 139.886 277.342C134.475 288.915 131.768 294.804 130.474 297.817L129.057 301.119L124.144 297.027C105.088 281.147 94.2017 266.609 101.366 266.609C101.984 266.609 102.489 266.2 102.489 265.7C102.489 265.2 102.876 265.03 103.348 265.321C103.82 265.613 104.206 265.443 104.206 264.943C104.206 264.442 104.655 264.034 105.205 264.034C105.753 264.034 107.976 262.912 110.142 261.543C112.309 260.173 116.206 258.159 118.803 257.068C121.401 255.977 123.991 254.632 124.559 254.08C125.128 253.527 127.348 252.352 129.493 251.47C131.638 250.588 133.396 249.576 133.397 249.222C133.405 247.672 135.099 248.982 140.935 255.049ZM271.413 254.239C273.884 255.848 276.203 257.173 276.564 257.183C277.232 257.201 288.427 264.164 290.225 265.679C290.764 266.134 291.441 266.271 291.727 265.985C292.014 265.699 292.247 265.915 292.247 266.466C292.247 267.018 292.64 267.468 293.119 267.468C294.552 267.468 299.953 271.258 299.965 272.272C299.995 274.933 296.882 276.141 294.607 274.35C293.396 273.398 292.157 272.62 291.853 272.62C291.549 272.62 287.745 269.979 283.402 266.754C279.059 263.527 274.345 260.153 272.929 259.256C266.394 255.119 262.238 251.781 262.696 251.038C263.426 249.857 266.3 250.913 271.413 254.239ZM265.023 258.694C267.482 260.479 270.653 262.671 272.07 263.563C274.604 265.159 287.395 274.363 289.421 276.05C289.991 276.525 290.768 276.912 291.147 276.912C296.742 276.912 290.059 285.864 276.275 296.833C267.301 303.972 263.055 306.407 263.055 304.411C263.055 303.95 261.951 301.149 260.602 298.185C259.253 295.222 257.657 291.252 257.056 289.363C256.454 287.473 255.578 285.445 255.11 284.855C254.641 284.265 254.507 283.781 254.812 283.781C255.117 283.781 254.824 282.913 254.161 281.85C253.498 280.787 252.705 278.846 252.401 277.534C252.097 276.223 250.892 273.059 249.724 270.505C247.538 265.726 247.051 263.593 248.326 264.382C248.726 264.628 250.175 263.582 251.546 262.056C257.974 254.901 259.334 254.562 265.023 258.694ZM154.008 266.639C154.008 267.095 154.587 267.468 155.295 267.468C157.479 267.468 156.812 268.628 149.814 277.013C142.364 285.939 139.253 289.025 140.987 285.772C141.834 284.182 143.641 280.083 144.136 278.63C144.323 278.077 148.71 268.483 149.908 266.002C150.832 264.091 154.008 264.585 154.008 266.639ZM244.804 269.4C245.27 269.99 246.507 273.077 247.552 276.26C248.596 279.442 249.79 282.255 250.204 282.512C250.619 282.768 250.741 283.545 250.475 284.238C250.209 284.932 250.349 285.5 250.785 285.5C251.221 285.5 252.274 287.721 253.124 290.437C253.975 293.152 255.236 296.479 255.929 297.83C257.797 301.48 256.422 300.411 249.447 292.798C245.987 289.019 241.695 284.383 239.912 282.494C234.068 276.303 232.637 273.71 234.706 273.054C235.658 272.752 236.437 272.121 236.437 271.653C236.437 271.184 236.737 270.987 237.104 271.214C237.472 271.441 238.728 270.892 239.895 269.996C242.389 268.079 243.638 267.927 244.804 269.4ZM156.288 278.844C154.663 281.796 151.013 288.5 148.177 293.741C145.343 298.982 142.5 304.198 141.86 305.332C141.222 306.466 140.652 307.505 140.596 307.641C140.367 308.186 135.977 305.781 135.977 305.11C135.977 304.713 135.397 304.389 134.688 304.389C133.98 304.389 133.4 304.2 133.4 303.969C133.4 303.035 141.443 293.053 142.531 292.634C143.177 292.387 143.704 291.824 143.704 291.382C143.704 290.649 158.348 273.478 158.974 273.478C159.122 273.478 157.914 275.893 156.288 278.844ZM165.636 275.785C165.317 277.055 163.73 280.927 162.108 284.391C160.486 287.854 159.16 290.897 159.16 291.152C159.16 291.406 157.618 294.891 155.733 298.894C153.848 302.899 152.066 307.129 151.773 308.295C151.101 310.976 150.154 311.554 147.519 310.894C144.398 310.109 144.21 310.711 152.345 295.374C154.348 291.596 156.981 286.572 158.195 284.211C159.409 281.85 160.702 279.789 161.069 279.631C161.436 279.474 161.735 278.978 161.735 278.529C161.735 277.225 164.425 273.478 165.361 273.478C165.859 273.478 165.973 274.441 165.636 275.785ZM174.29 276.325C174.941 276.075 175.474 276.248 175.474 276.709C175.474 277.17 177.777 278.001 180.593 278.555C185.581 279.536 185.727 279.644 186.272 282.746C186.58 284.497 187.387 288.633 188.067 291.938C188.746 295.245 189.409 298.722 189.539 299.666C189.669 300.611 190.008 301.964 190.293 302.672C190.861 304.085 193.505 319.751 193.505 321.703C193.505 322.893 188.201 323.194 184.918 322.19C184.21 321.972 179.662 321.169 174.811 320.403C169.959 319.638 164.343 318.262 162.331 317.344C160.318 316.428 157.621 315.413 156.339 315.091C153.562 314.395 153.496 313.859 155.677 309.711C157.737 305.796 162.594 295.206 162.594 294.632C162.594 294.401 163.901 291.382 165.498 287.924C167.096 284.465 169.036 280.118 169.811 278.264C170.835 275.813 171.477 275.149 172.164 275.835C172.682 276.353 173.64 276.574 174.29 276.325ZM236.021 284.211C239.726 288.462 246.22 295.72 250.452 300.339L258.145 308.741L255.448 309.758C253.964 310.318 252.751 311.101 252.751 311.497C252.751 311.893 252.364 311.979 251.892 311.687C251.42 311.396 251.034 311.49 251.034 311.897C251.034 312.303 249.005 313.349 246.526 314.221C244.046 315.093 241.596 316.132 241.08 316.53C240.565 316.928 239.897 317.009 239.599 316.71C239.299 316.41 238.562 316.572 237.96 317.07C236.474 318.299 227.698 320.458 221.411 321.141C218.577 321.45 215.609 321.882 214.814 322.101C212.834 322.647 212.461 319.139 212.188 297.402L211.966 279.682L217.801 278.582C221.009 277.977 223.823 277.177 224.053 276.805C224.282 276.433 224.998 276.331 225.644 276.579C226.29 276.827 227.094 276.584 227.43 276.038C227.768 275.493 228.324 275.369 228.664 275.765C229.005 276.16 232.315 279.961 236.021 284.211ZM202.091 281.155C202.091 281.599 201.695 282.208 201.21 282.508C200.725 282.807 200.347 284.279 200.369 285.778C200.417 288.972 197.298 310.327 196.698 310.927C196.472 311.153 196.01 309.097 195.669 306.361C195.329 303.623 194.826 301.017 194.551 300.569C194.275 300.12 193.951 298.961 193.829 297.993C193.707 297.025 193.397 295.266 193.139 294.086C189.944 279.438 189.721 280.347 196.511 280.347C199.58 280.347 202.091 280.711 202.091 281.155ZM207.898 310.356L207.672 322.762L204.023 322.853C201.404 322.917 200.374 322.599 200.374 321.726C200.374 318.109 203.196 298.577 203.911 297.251C204.371 296.395 204.505 294.928 204.208 293.991C203.91 293.053 204.133 291.724 204.703 291.037C205.301 290.316 205.525 288.714 205.232 287.248C204.952 285.85 205.097 284.476 205.554 284.193C206.011 283.911 206.438 282.834 206.504 281.8C206.894 275.665 208.085 300.07 207.898 310.356Z" fill="#0000FF"/>
</svg>
