<svg width="400" height="400" viewBox="0 0 400 400" fill="none" xmlns="http://www.w3.org/2000/svg">
<path style="fill:#0000FF;" d="M214.273,78.514c0.018-2.437,2.002-4.415,4.446-4.391c2.452,0.02,4.409,2.028,4.395,4.463
	c-0.022,2.467-2.023,4.42-4.457,4.397C216.204,82.963,214.256,80.974,214.273,78.514 M274.83,73.537l-32.267,40.684l29.402,0.244
	l-44.105,54.674l-25.583,33.34l-0.829,100.591l-0.627-0.009c7.429,20.307,35.254,21.181,35.254,21.181l8.206,3.852L244.268,330
	l-46.83-0.39l-1.269-0.011l-46.811-0.389l0.02-1.895l8.244-3.718c0,0,27.84-0.415,35.597-20.592l-0.625-0.005l0.841-101.648
	l-25.663-35.227l-42.603-52.237l72.131-0.032l38.027,0.319L270.38,70L274.83,73.537 M148.719,123.575L148.719,123.575l46.94,63.653
	l-36.171-62.936L148.719,123.575L148.719,123.575z M181.889,89.354c3.318,0.028,6.041-2.63,6.067-5.971
	c0.026-3.303-2.652-6.007-5.965-6.033c-3.328-0.029-6.029,2.634-6.061,5.935C175.896,86.63,178.569,89.322,181.889,89.354
	 M193.833,100.518c-0.041,5.248,4.179,9.521,9.432,9.564c5.237,0.038,9.507-4.167,9.55-9.411c0.05-5.261-4.148-9.535-9.394-9.573
	C198.159,91.054,193.877,95.264,193.833,100.518"/>
</svg>
