<svg width="400" height="400" viewBox="0 0 400 400" fill="none" xmlns="http://www.w3.org/2000/svg">
<path fill-rule="evenodd" clip-rule="evenodd" d="M59.9998 81.4096C59.9998 81.957 61.935 85.6415 64.3008 89.5944C66.6665 93.5484 70.549 100.283 72.9279 104.56C78.3713 114.343 80.148 116.154 89.388 121.34C101.631 128.212 101.672 127.727 90.4922 108.585L82.0499 94.1291L86.2889 93.5425C88.6213 93.2205 99.5879 92.9212 110.661 92.8783C133.723 92.79 133.058 93.1013 126.702 85.3816L122.611 80.4128H91.3054C68.6829 80.4128 59.9998 80.6894 59.9998 81.4096ZM135.253 81.5182C135.272 82.1275 136.988 84.8152 139.064 87.4922L142.839 92.3584L180.033 92.5897L217.228 92.8199L218.859 87.4325C220.259 82.8083 220.31 81.9295 219.223 81.2415C217.117 79.9096 135.209 80.1791 135.253 81.5182ZM233.838 81.0901C232.42 82.081 229.667 90.0296 230.232 91.5022C230.659 92.6136 235.745 92.8008 265.504 92.8008H300.277L306.349 87.3216C311.551 82.6259 312.183 81.7483 310.761 81.189C308.591 80.3365 235.052 80.2411 233.838 81.0901ZM328.446 84.275C320.876 89.9128 319.486 91.7216 309.974 108.287C305.223 116.561 298.87 127.512 295.857 132.623C276.38 165.657 277.004 163.594 286.488 163.594C291.966 163.594 292.833 163.362 293.917 161.603C294.591 160.508 297.339 155.829 300.023 151.205C347.035 70.2165 341.699 80.4128 337.074 80.4128C334.391 80.4128 332.485 81.2654 328.446 84.275ZM109.334 97.8363C108.482 98.0581 107.785 98.5828 107.785 99.0013C107.785 100.398 155.683 142.486 159.562 144.499L161.877 145.701L158.503 148.436C156.646 149.94 153.377 152.59 151.237 154.323C145.544 158.937 144.286 159.484 143.688 157.604C143.026 155.519 120.239 143.706 119.092 144.853C118.281 145.664 124.853 158.379 127.977 162.045C129.661 164.021 135.236 164.087 138.935 162.174C141.455 160.872 141.746 160.872 142.474 162.174C142.912 162.955 144.022 163.594 144.943 163.594C145.863 163.594 146.862 163.993 147.163 164.479C147.463 164.966 146.91 165.364 145.931 165.364C143.93 165.364 134.781 167.637 133.437 168.468C131.954 169.384 132.448 170.911 136.088 176.647C140.008 182.826 140.365 182.958 145.891 180.261C148.051 179.207 152.605 177.267 156.012 175.949C163.125 173.199 163.972 171.635 159.761 169.032C158.121 168.019 156.011 166.324 155.069 165.264L153.357 163.337L155.569 164.482C156.787 165.111 158.94 166.59 160.355 167.768C166.546 172.919 179.539 178.283 191.242 180.518C195.31 181.295 196.275 181.788 195.857 182.875C194.844 185.516 193.758 191.516 193.26 197.221C188.423 252.662 188.312 254.099 188.312 260.835C188.312 266.423 188.63 267.593 191.286 271.757C192.922 274.322 195.094 278.063 196.115 280.072C199.597 286.925 201.492 285.476 209.234 270.045L212.432 263.67L211.373 251.905C210.791 245.433 209.769 235.36 209.104 229.519C208.439 223.679 207.455 213.127 206.917 206.069C205.895 192.67 204.937 185.414 203.855 182.906C203.323 181.673 203.936 181.317 207.488 180.806C217.322 179.39 229.759 174.191 239.377 167.476C242.399 165.366 245.059 163.946 245.289 164.318C245.519 164.691 243.744 166.336 241.345 167.973C234.841 172.41 235.33 173.14 248.102 178.06C260.746 182.932 260.575 182.958 264.536 175.494C267.315 170.253 266.389 168.963 258.123 166.568C253.833 165.327 252.116 164.489 253.13 164.135C253.983 163.838 255.318 163.392 256.098 163.144C256.879 162.897 257.313 162.161 257.064 161.51C256.739 160.665 257.524 160.793 259.814 161.961C267.605 165.933 271.367 163.982 277.494 152.796C283.377 142.052 283.141 141.983 267.306 149.793C258.736 154.021 255.683 155.963 255.299 157.432C254.803 159.332 254.614 159.266 250.086 155.623C247.502 153.544 243.448 150.433 241.075 148.708C236.896 145.669 236.828 145.55 238.863 144.798C241.34 143.885 244.907 140.953 264.427 123.792C272.467 116.724 281.724 108.618 285.002 105.779C291.344 100.283 292.16 98.6388 288.97 97.7839C286.412 97.0982 267.359 97.2604 264.279 97.9937C261.242 98.7175 229.684 134.433 228.891 138.043C228.65 139.139 228.102 139.306 226.597 138.741C224.463 137.94 223.76 139.05 244.213 110.942C253.239 98.5399 253.176 97.9472 242.773 97.4011C226.463 96.545 227.321 95.7687 218.059 119.791C212.768 133.516 213.458 132.675 208.198 131.796C205.777 131.392 204.483 131.014 205.323 130.957C206.873 130.851 209.549 126.675 209.549 124.362C209.549 123.663 210.177 120.955 210.945 118.343C211.713 115.733 212.678 112.203 213.088 110.5C213.498 108.796 214.302 105.634 214.875 103.472C216.388 97.76 215.285 97.2234 202.08 97.2354C183.185 97.2533 183.486 97.0279 186.113 109.173C190.376 128.875 191.065 130.66 194.505 130.929C195.236 130.987 194.44 131.373 192.736 131.789C187.602 133.04 187.233 132.563 180.186 115.583C172.266 96.4985 173.124 97.2568 159.426 97.2389C146.364 97.2211 146.057 97.8924 154.179 108.73C156.186 111.406 159.011 115.362 160.459 117.521C161.907 119.678 165.767 125.047 169.035 129.451C175.08 137.593 175.235 138.157 171.719 139.219C170.128 139.7 169.728 139.473 169.728 138.087C169.728 137.134 168.017 134.418 165.925 132.054C163.834 129.689 159.687 124.768 156.709 121.118C146.238 108.281 138.229 99.4485 136.071 98.3562C133.965 97.2902 112.982 96.8824 109.334 97.8363ZM94.5106 103.512C94.5106 104.916 108.629 129.835 110.817 132.296C112.266 133.924 138.103 149.436 139.367 149.436C139.539 149.436 141.253 150.477 143.177 151.75C147.196 154.409 149.575 154.191 153.205 150.826C156.887 147.413 156.368 146.704 143.057 136.937C124.171 123.079 109.82 112.49 102.819 107.248C96.5651 102.565 94.5106 101.641 94.5106 103.512ZM297.598 107.074C292.247 111.318 278.734 121.509 259.104 136.1C242.92 148.131 242.83 148.242 246.74 151.533C250.891 155.026 252.287 154.612 269.345 144.85C288.066 134.136 289.463 132.809 298.04 117.601C306.996 101.72 306.911 99.6846 297.598 107.074ZM88.3172 129.921C88.3172 130.698 98.541 148.844 109.534 167.576C112.103 171.957 115.584 177.93 117.267 180.85C121.869 188.837 123.546 189.891 127.928 187.551C128.773 187.1 130.171 186.511 131.033 186.244C134.26 185.243 133.597 182.957 126.579 170.884C122.693 164.198 117.028 154.432 113.992 149.184C108.102 139.001 106.337 137.259 96.8716 132.27C90.7736 129.056 88.3172 128.381 88.3172 129.921ZM204.746 140.261C224.039 146.653 220.18 173.408 199.947 173.536C177.182 173.677 176.701 141.133 199.436 138.909C199.958 138.858 202.348 139.467 204.746 140.261ZM194.047 143.589C187.517 146.436 183.607 154.285 185.644 160.462C191.076 176.918 213.974 173.942 213.974 156.78C213.974 146.313 203.583 139.435 194.047 143.589ZM180.348 144.014C180.348 144.438 179.526 146.643 178.521 148.913C175.802 155.061 177.759 169.788 181.296 169.788C181.748 169.788 182.117 170.186 182.117 170.674C182.117 173.032 169.453 167.087 164.64 162.468C161.009 158.982 161.038 158.468 165.096 154.506C171.465 148.285 180.348 142.175 180.348 144.014ZM221.273 144.348C224.79 146.327 232.928 152.724 235.967 155.9L238.935 159L233.755 163.067C228.369 167.296 219.449 172.019 218.549 171.12C218.265 170.835 219.011 168.809 220.207 166.617C223.141 161.237 223.197 152.479 220.331 147.002C218.2 142.93 218.292 142.67 221.273 144.348ZM202.273 153.467C205.931 156.03 204.315 160.939 199.815 160.939C193.855 160.939 193.877 152.915 199.839 152.15C200.097 152.117 201.191 152.71 202.273 153.467ZM272.056 173.549C271.371 174.645 268.512 179.523 265.704 184.389C244.293 221.506 245.188 219.242 249.35 225.806C253.059 231.655 253.697 231.276 260.606 219.122C263.994 213.16 270.16 202.508 274.309 195.451C286.929 173.978 286.697 174.9 279.985 172.949C273.829 171.159 273.54 171.181 272.056 173.549ZM161.764 178.058C142.254 192.033 143.348 188.982 152.265 204.56C157.453 213.623 158.277 213.825 162.053 206.954C167.685 196.708 172.144 188.688 173.997 185.468C177.079 180.113 176.629 178.355 171.719 176.595C166.385 174.684 166.499 174.667 161.764 178.058ZM227.026 176.928C222.836 179.14 222.872 180.04 227.468 188.159C229.537 191.813 232.317 196.735 233.645 199.097C242.469 214.788 242.177 214.774 250.066 199.902C255.639 189.395 256.016 190.394 243.311 181.956C232.002 174.445 231.83 174.392 227.026 176.928ZM180.077 182.745C179.362 184.136 176.703 190.849 174.166 197.663C171.63 204.476 168.316 213.378 166.801 217.441C164.055 224.809 164.052 224.84 165.687 227.618C166.59 229.151 169.85 234.828 172.932 240.234C180.252 253.074 182.941 255.087 182.989 247.762C182.996 246.602 183.404 243.217 183.895 240.24C184.386 237.264 185.622 228.259 186.64 220.228C187.657 212.197 188.863 203.038 189.317 199.875C191.518 184.552 191.468 183.21 188.652 182.136C182.903 179.946 181.463 180.047 180.077 182.745ZM212.383 181.408C208.474 182.535 208.22 183.607 209.508 193.553C210.115 198.247 210.946 205.273 211.356 209.167C211.765 213.061 212.74 220.826 213.522 226.423C214.304 232.02 215.305 239.946 215.746 244.036C217.034 255.976 218.121 255.446 228.035 238.052C236.252 223.635 236.069 224.832 231.635 214.476C231.217 213.503 230.272 210.914 229.532 208.725C227.018 201.269 225.806 198.14 225.199 197.532C224.865 197.199 224.592 196.429 224.592 195.822C224.592 195.214 223.363 191.497 221.86 187.562C218.897 179.802 218.608 179.613 212.383 181.408ZM136.466 196.239C131.802 199.083 129.652 202.448 131.088 204.656C131.751 205.677 134.799 210.893 137.86 216.247C140.921 221.599 145.316 229.165 147.626 233.06C149.936 236.953 156.402 248.103 161.994 257.837C176.168 282.508 176.029 282.284 177.133 281.915C178.678 281.4 180.431 272.52 180.052 267.128C179.755 262.907 178.681 260.502 171.947 248.988C162.204 232.324 152.35 215.367 145.596 203.636C139.801 193.572 140.247 193.933 136.466 196.239ZM236.32 235.493C235.506 236.518 227.36 250.493 218.394 266.243C216.316 269.893 213.475 274.584 212.083 276.667C210.689 278.749 209.549 280.629 209.549 280.843C209.549 281.828 200.552 296.33 199.942 296.33C199.561 296.33 197.073 292.45 194.41 287.708C188.739 277.605 186.911 276.515 186.148 282.782C185.863 285.123 185.307 289.12 184.912 291.663L184.196 296.287L191.342 308.718C196.828 318.261 198.864 321.093 200.107 320.907C201.202 320.744 207.046 311.503 218.168 292.348C246.846 242.957 244.733 247.864 240.975 239.364C238.721 234.27 237.86 233.552 236.32 235.493Z" fill="#0000FF"/>
</svg>
