<svg width="400" height="400" viewBox="0 0 400 400" fill="none" xmlns="http://www.w3.org/2000/svg">
<path style="fill:#0000FF;" d="M200.26,321.085C153.242,239.905,106.708,159.56,60,78.915c93.353,0,186.1,0,280,0
	C293.259,159.918,247.009,240.069,200.26,321.085z M202.725,203.233c0,34.332,0,68.164,0,101.998
	c0.202,0.037,0.404,0.074,0.606,0.111c6.072-10.524,12.144-21.048,18.179-31.506c-5.05-23.684-10.042-47.1-15.053-70.602
	C205.095,203.233,204.034,203.233,202.725,203.233z M246.232,129.55c26.183-15.122,52.34-30.229,78.497-45.337
	c-0.099-0.244-0.197-0.488-0.295-0.732c-12.022,0-24.044,0-36.476,0c-15.598,14.071-31.389,28.314-47.541,42.885
	C242.619,127.572,244.281,128.482,246.232,129.55z M72.659,88.985c-0.222,0.171-0.445,0.341-0.667,0.511
	c0.243,0.583,0.425,1.199,0.737,1.743c5.168,9.005,10.258,18.058,15.62,26.947c0.963,1.596,2.874,3.045,4.657,3.654
	c13.234,4.522,26.541,8.832,39.84,13.164c2.981,0.971,6.019,1.765,8.897,2.601c2.231-1.722,4.157-3.206,6.475-4.995
	C122.711,117.882,97.686,103.433,72.659,88.985z M225.468,185.048c9.646-2.211,32.222-17.821,38.004-25.734
	c-7.626-9.244-29.231-23.772-37.084-24.939C240.279,150.751,238.087,171.74,225.468,185.048z M173.724,185.054
	c-13.414-17.24-13.495-34.032-0.541-51.016c-14.352,5.815-26.538,14.492-37.353,25.279
	C144.963,169.219,162.171,180.947,173.724,185.054z M183.947,201.486c-6.982,15.719-13.831,31.139-20.671,46.538
	c3.567,6.19,6.994,12.134,10.42,18.078c0.279-0.069,0.558-0.138,0.836-0.209c4.477-21.049,8.955-42.098,13.484-63.395
	C186.541,202.132,185.493,201.87,183.947,201.486z M164.258,123.872c1.731-0.815,3.144-1.481,4.887-2.301
	c-9.591-13.158-18.848-25.857-27.7-38.003c-7.561,0-14.266,0-21.881,0C134.813,97.318,149.37,110.445,164.258,123.872z
	 M271.538,149.318c8.135-0.89,15.686-1.716,23.323-2.552c3.529-6.128,6.95-12.067,10.371-18.007
	c-0.171-0.24-0.342-0.481-0.512-0.721c-13.622,4.441-27.244,8.882-41.437,13.509C266.496,144.571,268.995,146.925,271.538,149.318z
	 M247.209,229.124c-7.369-10.128-14.598-20.065-21.892-30.09c-1.53,0.465-2.787,0.848-4.372,1.33
	c6.222,13.955,12.306,27.602,18.745,42.047C242.546,237.364,244.851,233.291,247.209,229.124z M236.527,83.448
	c-5.223,11.723-10.363,23.26-15.662,35.153c1.784,0.462,3.057,0.791,4.505,1.166c8.736-12.033,17.339-23.886,26.365-36.318
	C246.214,83.448,241.679,83.448,236.527,83.448z M188.041,116.409c-2.426-11.312-4.751-22.156-7.021-32.745
	c-4.34,0-7.959,0-12.019,0c5.119,11.488,10.034,22.517,14.977,33.613C185.418,116.969,186.467,116.745,188.041,116.409z
	 M202.665,83.511c0,10.837,0,21.411,0,32.111c1.423,0,2.471,0,3.815,0c2.259-10.743,4.486-21.335,6.753-32.111
	C209.315,83.511,206.037,83.511,202.665,83.511z M164.331,194.969c-7.013,6.324-13.953,12.583-20.902,18.848
	c2.185,3.695,4.054,6.858,6.156,10.412c6.725-9.326,13.063-18.117,19.588-27.165C167.266,196.239,165.899,195.647,164.331,194.969z
	 M240.506,192.49c6.111,5.514,12.06,10.881,18.324,16.534c1.889-3.27,3.523-6.099,5.384-9.321
	c-6.174-3.584-12.193-7.077-18.157-10.539C244.127,190.32,242.481,191.307,240.506,192.49z M141.344,181.178
	c-4.57,1.492-9.099,2.969-14.039,4.582c1.966,3.418,3.585,6.231,5.371,9.338c5.398-3.108,10.375-5.975,15.823-9.111
	C145.818,184.185,143.667,182.739,141.344,181.178z M108.024,152.32c2.851,4.936,5.276,9.135,7.676,13.29
	c2.707-0.344,4.925-0.628,7.586-0.967c-1.651-2.067-2.904-3.637-4.187-5.243c1.386-1.746,2.55-3.213,4.214-5.308
	C118.12,153.49,113.548,152.96,108.024,152.32z M271.334,169.667c-2.715,2.574-5.148,4.881-8.06,7.64
	c4.311,1.372,7.915,2.519,11.802,3.756c1.956-3.488,3.781-6.744,5.882-10.49C277.161,170.216,274.184,169.935,271.334,169.667z"/>
</svg>
