<svg width="400" height="400" viewBox="0 0 400 400" fill="none" xmlns="http://www.w3.org/2000/svg">
<path style="fill:#FFEE00;" d="M345.236,188.517c-4.07-4.885-8.94-8.457-14.9-10.562c-1.106-0.391-1.839-0.838-2.219-2.088
	c-1.318-4.331-3.703-8.051-6.286-11.788c-2.569-3.717-5.934-6.355-9.754-7.866c-5.278-2.087-11.055-0.858-16.629-0.504
	c-0.104,0.007-0.192,0.148-0.301,0.195c-3.521,1.52-3.943,1.52-6.407-1.548c-2.383-2.967-4.994-5.639-8.259-7.607
	c-1.447-0.872-3.021-1.533-4.472-2.399c-4.797-2.862-9.775-1.852-14.657-0.522c-2.056,0.56-3.892,1.926-5.829,2.923
	c-3.874,1.994-7.054,4.847-9.11,8.63c-1.702,3.134-4.204,4.309-7.431,4.1c-7.407-0.479-13.083,3.094-17.963,7.942
	c-1.61,1.6-2.84,2.208-4.921,1.989c-3.746-0.394-7.51-0.622-11.268-0.9c-3.51-0.26-7.035-0.378-10.53-0.77
	c-5.271-0.59-10.523-1.346-15.779-2.065c-6.178-0.846-12.358-1.683-18.525-2.611c-3.319-0.5-6.589-1.426-9.92-1.718
	c-4.106-0.36-8.084-1.094-12.075-2.115c-2.052-0.525-3.132-1.408-3.836-3.255c-1.155-3.034-2.161-6.173-3.727-8.992
	c-3.433-6.183-8.302-11.239-13.335-16.162c-3.803-3.72-7.662-7.492-8.886-13.021c-0.598-2.7-1.126-5.422-1.886-8.077
	c-1.422-4.967-2.192-10.142-4.906-14.704c-2.148-3.61-4.561-4.675-8.487-3.484c-4.472,1.356-6.838,4.738-8.677,8.712
	c-1.663,3.596-1.043,7.4-1.194,11.145c-0.135,3.365,0.707,6.414,2.083,9.485c1.613,3.601,3.881,6.842,4.763,10.879
	c1.691,7.743,1.741,5.645-5.313,6.001c-0.118,0.006-0.239-0.034-0.359-0.052c-5.992-0.889-11.997-1.619-18.072-1.15
	c-3.207,0.248-6.178,1.354-8.823,3.108c-1.374,0.911-2.788,2.142-2.742,4.065c0.048,2.043,0.239,4.09,0.491,6.119
	c0.34,2.736,0.543,5.319-2.386,6.97c-2.994,1.689-3.015,4.557-2.373,7.372c1.368,6.002,2.549,11.998,2.641,18.197
	c0.035,2.381,0.555,4.823,1.258,7.113c2.357,7.669,6.527,14.18,12.232,19.915c4.208,4.23,8.596,6.435,14.752,6.084
	c5.654-0.322,11.012-1.044,16.072-3.64c0.946-0.485,2.041-0.816,3.098-0.926c5.275-0.548,10.552-1.246,15.843-1.399
	c3.859-0.111,7.341-0.962,10.771-2.645c1.444-0.708,3.24-1.154,4.821-1.029c3.102,0.246,6.158,0.998,8.993,2.761
	c-2.528,2.351-5.031,4.284-7.047,6.635c-4.344,5.065-7.985,10.592-9.382,17.289c-0.341,1.636-1.38,1.98-2.914,1.948
	c-4.023-0.084-8.052,0.054-12.074-0.05c-3.997-0.103-7.704,0.856-10.962,3.071c-2.472,1.681-4.721,3.71-6.976,5.69
	c-9.821,8.629-12.266,19.432-9.466,31.866c1.718,7.63,6.26,13.368,12.102,18.075c4.458,3.592,9.72,5.912,15.546,6.283
	c6.729,0.428,13.292-0.29,19.278-3.829c2.238-1.323,4.344-1.351,6.611,0.349c5.16,3.87,10.68,6.716,17.369,7.478
	c6.812,0.777,13.231,0.589,19.302-2.824c1.366-0.768,2.693-1.614,3.994-2.489c3.149-2.117,3.224-2.129,5.807,0.43
	c1.039,1.029,2.031,2.109,3.105,3.101c3.786,3.497,7.934,6.65,13.196,7.038c5.306,0.391,10.708,0.329,15.997-0.218
	c3.012-0.312,6.187-1.512,8.761-3.145c8.025-5.09,13.575-12.19,15.937-21.578c1.081-4.299,1.8-4.716,6.334-4.539
	c3.609,0.141,7.227,0.466,10.51-1.708c5.038-3.336,10.438-6.153,13.942-11.416c2.802-4.209,4.424-8.745,5.338-13.71
	c1.179-6.403,1.451-12.645-0.866-18.854c-0.367-0.984-0.41-2.159-0.329-3.225c0.126-1.646,1.104-2.073,2.467-1.22
	c0.307,0.192,0.549,0.484,0.84,0.705c1.823,1.378,3.579,2.86,5.492,4.1c5.498,3.565,11.427,4.876,17.893,3.172
	c1.625-0.428,3.458-0.344,4.916-1.062c2.261-1.115,4.528-2.456,6.346-4.173c2.674-2.525,5.589-4.199,9.253-4.505
	c1.446-0.12,2.897-0.195,4.347-0.265c4.781-0.232,9.496-1.084,13.311-4.042c3.724-2.888,6.797-6.432,8.865-10.873
	C351.731,203.386,350.214,194.492,345.236,188.517z M97.009,203.308c-1.771,3.697-5.049,5.499-8.808,6.194
	c-3.107,0.574-3.411,0.012-3.074-3.25c0.342-3.315,0.353-3.178,3.656-3.437c2.372-0.187,4.708-0.822,7.068-1.21
	c0.439-0.072,0.916,0.084,1.376,0.135C97.161,202.266,97.227,202.855,97.009,203.308z M101.837,191.917
	c-0.475,1.048-1.33,2.191-2.317,2.691c-3.771,1.908-7.641,3.672-12.526,3.157c2.123-1.958,2.178-2.163,0.799-3.541
	c-1.282-1.282-2.629-2.498-4.095-3.884c5.314-1.237,10.235-2.43,15.181-3.51C100.747,186.422,102.789,189.818,101.837,191.917z
	 M136.322,200.766c-1.045-0.494-2.062-1.239-2.82-2.106c-1.548-1.771-2.274-2.006-4.15-0.712c-2.477,1.709-4.922,3.464-7.436,5.238
	c-0.98-1.981-1.828-3.611-2.58-5.285c-0.138-0.308,0.034-0.821,0.19-1.185c1.081-2.529,1.108-2.552-1.385-3.993
	c-0.909-0.525-0.953-1.024-0.117-1.545c0.612-0.382,1.397-0.506,1.962-0.934c0.436-0.33,1.002-1.044,0.902-1.429
	c-0.414-1.598-0.919-3.21-1.685-4.662c-0.327-0.62-1.334-0.969-2.102-1.248c-1.342-0.487-2.654-0.607-2.86-2.655
	c-0.079-0.792-2.04-1.378-3.118-2.096c-0.466-0.31-0.868-0.716-1.298-1.078c0.456-0.467,0.839-1.064,1.384-1.373
	c0.925-0.523,2.043-0.733,2.911-1.323c0.704-0.478,1.502-1.268,1.616-2.018c0.087-0.568-0.736-1.724-1.33-1.863
	c-1.733-0.403-1.982-1.358-2.315-2.972c-0.595-2.881-2.929-4.94-4.624-7.268c-0.352-0.483-1.586-0.318-2.411-0.462
	c-1.525-0.267-2.153-1.045-1.291-2.156c2.164-2.79,0.612-5.879,0.943-8.789c0.074-0.65-1.535-2.062-2.445-2.132
	c-1.867-0.144-3.933,0.017-5.655,0.708c-4.306,1.726-4.247,1.872-7.187-1.654c-1.38-1.655-1.625-1.659-3.34-0.043
	c-1.94,1.828-3.295,1.847-5.045-0.068c-1.995-2.184-4.049-4.255-7.264-4.28c-0.764-0.006-1.531,0.402-2.297,0.62
	c0.382,0.81,0.571,1.841,1.189,2.381c1.077,0.941,2.462,1.52,3.636,2.363c0.924,0.664,0.785,1.398-0.201,1.954
	c-0.104,0.058-0.232,0.071-0.339,0.125c-1.04,0.522-2.572,0.778-2.03,2.44c0.424,1.301,1.739,1.146,2.828,1.087
	c2.288-0.122,4.623-0.664,6.844-0.355c2.156,0.3,3.916,2.079,6.324,2.168c1.771,0.065,3.556,0.585,5.271,1.112
	c1.755,0.539,3.616,3.232,3.328,5.086c-0.269,1.73-0.882,3.253-2.987,4.064c-3.218,1.239-6.392,2.206-9.856,1.947
	c-0.464-0.035-0.935-0.195-1.364-0.384c-0.165-0.073-0.222-0.39-0.393-0.722c1.227-0.402,2.575-0.588,3.606-1.259
	c0.909-0.593,1.857-1.64,2.082-2.645c0.332-1.478-1.004-2.075-2.29-2.221c-1.242-0.14-1.247-0.533-0.876-1.649
	c0.561-1.69-0.041-2.563-1.697-2.708c-1.689-0.148-3.418-0.219-5.098-0.034c-3.836,0.421-6.057,2.885-6.523,7.01
	c-0.082,0.723,0.026,1.467-0.054,2.19c-0.186,1.678-0.463,1.819-2.052,1.134c-0.333-0.144-0.66-0.552-0.943-0.512
	c-0.878,0.124-1.937,0.181-2.521,0.71c-0.34,0.308-0.189,1.706,0.229,2.207c1.741,2.087,3.873,3.665,6.728,3.883
	c7.167,0.547,14.344,0.499,21.249-1.61c3.121-0.954,4.172,1.131,5.665,2.656c1.335,1.365,1.135,3.496,0.112,5.333
	c-1.472,2.643-3.977,3.754-6.62,4.636c-1.255,0.419-2.603,0.561-3.912,0.812c-0.939,0.18-2.086,0.723-2.761,0.373
	c-0.547-0.283-0.497-1.666-0.767-2.545c-0.694-2.256-2.825-3.212-5.402-2.45c0.736-1.058,1.506-2.096,2.195-3.184
	c0.351-0.555,0.937-1.397,0.747-1.763c-0.34-0.656-1.116-1.246-1.838-1.499c-0.761-0.266-1.673-0.16-2.515-0.119
	c-1.658,0.08-3.277,0.709-3.792,2.261c-0.507,1.523-0.652,3.371,1.169,4.487c-2.394,0.358-3.009,2.086-3.083,4.514
	c-1.041-0.449-1.895-0.743-2.675-1.172c-1.062-0.582-2.069-1.263-3.096-1.909c-1.146-0.72-2.377-0.997-3.212,0.267
	c-0.69,1.044-0.237,2.168,0.734,2.899c2.49,1.874,4.941,3.826,7.58,5.468c1.575,0.98,2.743,1.821,2.429,3.917
	c-0.238,1.589,1.041,3.16-0.009,4.868c-0.495,0.806-0.908,1.136-1.647,0.669c-0.913-0.576-1.729-1.308-2.584-1.977
	c-1.243-0.972-2.494-1.935-3.723-2.925c-0.946-0.762-2.064-0.624-2.579,0.197c-0.416,0.663-0.406,1.929-0.044,2.659
	c0.463,0.933,1.408,1.672,2.254,2.361c1.587,1.293,3.188,2.586,4.899,3.703c2.572,1.68,5.202,3.202,5.699,6.68
	c0.121,0.844,0.763,1.614,1.165,2.418c-1.017-0.142-2.123-0.075-3.037-0.463c-4.095-1.738-7.253-4.722-9.834-8.232
	c-3.962-5.388-7.294-11.152-8.54-17.84c-0.44-2.362-0.671-4.806-0.629-7.206c0.081-4.544-0.637-8.889-2.279-13.122
	c-0.262-0.676-0.207-1.679,0.11-2.333c0.628-1.295,1.479-2.499,2.347-3.658c2.103-2.809,2.878-5.813,1.673-9.219
	c-0.239-0.676-0.281-1.425-0.39-2.144c-0.358-2.36,0.448-3.972,2.565-5.002c3.353-1.631,6.864-1.915,10.571-1.6
	c5.428,0.462,10.89,0.81,16.33,0.732c2.864-0.041,5.283-1.881,6.713-4.424c0.493-0.876,0.441-2.441-0.004-3.389
	c-1.327-2.824-3.43-5.35-4.374-8.27c-1.081-3.342-3.164-6.323-3.938-9.569c-1.431-5.994-1.113-12.128,3.093-17.292
	c0.812-0.996,1.876-1.908,3.012-2.494c2.398-1.239,3.918-0.707,4.73,1.876c1.263,4.02,2.171,8.15,3.298,12.214
	c1.32,4.757,2.559,9.546,4.114,14.227c1.814,5.46,5.888,9.302,9.942,13.16c6.264,5.96,10.748,13.034,12.557,21.594
	c0.575,2.719,2.155,4.309,4.751,4.849c4.348,0.905,8.714,1.733,13.092,2.482c4.83,0.826,9.677,1.555,14.525,2.269
	c3.456,0.509,6.923,0.937,10.388,1.379c5.577,0.712,11.151,1.451,16.737,2.091c3.238,0.371,6.495,0.573,9.744,0.842
	c2.022,0.168,4.043,0.38,6.069,0.464c3.481,0.145,6.966,0.265,10.45,0.274c1.532,0.004,1.886,0.758,1.797,2.046
	c-0.017,0.243,0.053,0.511-0.026,0.728c-1.209,3.31-1.178,6.786-1.461,10.23c-0.183,2.225-1.106,3.223-3.146,3.165
	c-5.294-0.15-9.824,2.232-14.545,4.038c-7.221,2.761-11.288,8.716-15.201,14.859c-2.625,4.121-2.66,4.1-6.419,1.485
	c-3.296-2.293-6.539-4.512-10.974-2.968c-0.818,0.285-2.076-1.014-3.196-1.213c-3.307-0.586-6.656-0.929-9.971-1.474
	C145.728,203.688,140.836,202.901,136.322,200.766z M270.378,254.757c-0.483,1.193-1.141,2.428-2.041,3.319
	c-4.637,4.594-10.536,6.625-16.768,7.837c-3.05,0.593-6.129,1.087-9.216,1.422c-3.116,0.338-5.205,1.733-6.005,5.395
	c-2.329-1.885-4.181-3.407-6.061-4.893c-0.559-0.442-1.172-1.04-1.806-1.103c-0.757-0.075-1.704,0.171-2.287,0.634
	c-0.281,0.223-0.028,1.297,0.176,1.923c0.753,2.302,2.534,3.811,4.298,5.312c0.737,0.627,1.6,1.122,2.271,1.809
	c1.635,1.674,1.792,2.791,0.556,4.784c-4.756,7.666-11.171,13.207-20.09,15.489c-1.855,0.475-3.698,1.353-5.558,1.382
	c-5.4,0.087-10.513-1.309-15.209-4.01c-1.562-0.898-3.027-1.989-4.446-3.107c-2.333-1.839-2.426-2.784-1.464-5.676
	c0.521-1.566,0.752-3.273,0.83-4.93c0.097-2.049-0.778-3.306-1.97-3.359c-1.041-0.047-3.313,1.599-3.615,2.726
	c-0.154,0.574-0.079,1.209-0.104,1.817c-0.064,1.557-0.906,2.236-2.384,2.748c-2.378,0.824-4.781,1.783-6.891,3.127
	c-4.211,2.682-8.798,3.912-13.678,4.108c-2.777,0.112-5.617,0.096-8.347-0.354c-4.895-0.807-9.079-3.231-12.777-6.519
	c-0.899-0.799-1.855-1.555-2.868-2.202c-2.748-1.755-5.074-1.572-7.502,0.762c-1.751,1.683-3.819,2.671-6.117,3.01
	c-3.219,0.475-6.478,0.702-9.727,0.942c-1.941,0.143-3.913-0.045-5.839,0.186c-3.77,0.453-7.296-0.595-10.611-1.99
	c-2.884-1.214-5.392-3.207-6.748-6.33c-1.889-4.352-3.818-8.761-3.145-13.582c0.772-5.524,2.817-10.647,6.38-15.067
	c5.52-6.847,12.702-10.857,21.396-11.541c5.939-0.468,11.434,1.492,16.11,5.366c0.56,0.464,1.064,1.016,1.679,1.386
	c0.988,0.594,1.868,0.078,1.852-0.881c-0.021-1.259-0.215-2.735-0.903-3.722c-2.287-3.283-2.283-6.608-1.321-10.351
	c3.052-11.867,11.311-18.161,22.648-20.245c10.528-1.935,22.344,3.83,26.899,11.51c0.899,1.515,1.5,3.302,1.819,5.04
	c0.308,1.68,1.01,2.426,2.645,2.186c1.609-0.236,1.816-1.517,1.66-2.767c-0.177-1.421-0.459-2.864-0.952-4.202
	c-1.257-3.409-1.863-6.919-0.188-10.214c2.032-3.998,4.663-7.636,8.27-10.473c4.362-3.431,9.356-5.434,14.716-6.506
	c4.035-0.806,7.976,0.341,11.721,1.601c9.063,3.049,15.19,9.125,17.926,18.441c1.317,4.483,0.63,8.836-0.607,13.181
	c-0.396,1.392-0.888,2.763-1.182,4.176c-0.123,0.59-0.072,1.506,0.296,1.845c0.681,0.628,1.693,1.227,2.597,0.322
	c0.657-0.659,1.36-1.44,1.62-2.295c0.838-2.752,1.646-5.532,2.16-8.358c0.879-4.829,2.621-6.082,7.436-4.953
	c4.887,1.146,9.336,3.338,13.203,6.433c4.208,3.368,6.533,8.232,7.568,13.316C271.757,243.928,272.528,249.455,270.378,254.757z
	 M344.491,206.481c-0.942,3.417-2.584,6.313-6.32,7.219c-2.107,0.511-4.29,0.721-6.445,1.025c-0.719,0.101-1.6-0.178-2.16,0.144
	c-2.72,1.565-5.418-0.552-8.137,0.023c-0.321,0.068-1.011-1.098-1.362-1.778c-1.061-2.049-2.435-2.335-3.85-0.615
	c-0.836,1.016-1.532,2.163-2.185,3.312c-4.566,8.035-14.409,10.851-21.824,9.47c-5.898-1.099-10.228-3.934-13.281-8.959
	c-0.188-0.309-0.367-0.625-0.575-0.921c-1.333-1.901-2.4-2.051-4.105-0.543c-1.81,1.6-3.721,3.112-5.354,4.879
	c-1.266,1.37-2.261,1.136-3.766,0.453c-4.37-1.983-8.803-3.843-13.289-5.549c-1.886-0.717-3.947-1.144-5.962-1.31
	c-2.529-0.208-3.831-1.647-4.956-3.666c-1.106-1.986-2.273-3.988-3.73-5.715c-1.938-2.296-4.169-4.346-6.301-6.475
	c-1.196-1.194-2.447-2.334-3.693-3.517c0.369-0.282,0.524-0.452,0.717-0.54c2.391-1.084,2.589-1.938,0.532-3.367
	c-2.398-1.665-5.09-2.156-7.957-1.288c-0.304,0.092-0.646,0.058-0.862,0.074c-0.121-1.128-0.253-2.127-0.332-3.129
	c-0.505-6.4,1.2-12.128,6.173-16.282c2.955-2.468,6.774-3.678,10.572-4.596c5.725-1.384,10.362,0.314,14.045,4.853
	c0.611,0.753,1.313,1.463,2.083,2.047c0.909,0.69,1.819,0.45,2.609-0.347c0.653-0.659,0.999-1.29,0.427-2.241
	c-1.378-2.292-2.737-4.619-5.11-6.013c-1.76-1.034-1.916-2.278-0.932-3.869c2.845-4.604,6.16-8.684,11.699-10.177
	c1.743-0.47,3.524-0.794,5.277-1.227c3.584-0.885,6.866,0.491,10.184,1.41c1.357,0.376,2.627,1.141,3.866,1.852
	c1.57,0.902,2.929,1.953,4.04,3.54c2.795,3.995,3.126,8.587,3.743,13.134c0.15,1.106-0.022,2.209,1.63,2.275
	c1.404,0.056,2.016-0.668,2.228-1.859c0.21-1.182,0.472-2.399,0.391-3.579c-0.139-2.033,0.816-3.228,2.53-3.985
	c7.475-3.301,14.825-2.687,21.376,1.911c3.789,2.659,5.838,7.064,6.934,11.66c1.033,4.332,1.296,8.603-1.523,12.512
	c-0.389,0.54-0.551,1.36-0.54,2.046c0.021,1.303,1.38,2.01,2.269,1.106c1.5-1.527,3.002-3.157,4.043-5.003
	c1.107-1.963,1.763-2.61,3.841-2.019c4.274,1.215,7.807,3.774,10.12,7.379C344.39,195.105,346.129,200.537,344.491,206.481z
	 M142.979,193.214c-0.778,0.455-1.467,0.668-1.495,1.704c-0.056,2.091-1.536,2.146-2.899,2.088
	c-2.939,0.001-2.985-0.129-2.994-3.348c-0.004-1.278-0.383-2.551-0.525-3.834c-0.12-1.088,0.506-1.645,1.518-1.427
	c2.086,0.449,4.188,0.905,6.193,1.616C143.996,190.444,144.145,192.532,142.979,193.214z M99.771,125.271
	c-0.03,2.166-1.468,4.353-2.882,4.383c-1.67,0.035-4.354-2.939-4.232-4.69c0.089-1.271,2.241-2.516,4.323-2.499
	C99.11,122.481,99.8,123.176,99.771,125.271z"/>
</svg>
