<svg width="400" height="400" viewBox="0 0 400 400" fill="none" xmlns="http://www.w3.org/2000/svg">
<path fill-rule="evenodd" clip-rule="evenodd" d="M200.844 92.6938C196.492 94.4344 195.093 102.386 198.838 104.093C201.5 105.305 200.967 109.067 197.722 111.974C197.01 112.612 194.574 116.834 193.368 119.521C192.249 122.013 191.471 122.537 190.431 121.497C189.813 120.879 189.185 120.74 181.811 119.598C176.652 118.799 170.665 118.918 142.068 120.384C136.813 120.654 132.38 120.66 132.218 120.397C132.056 120.134 130.35 119.742 128.427 119.525C119.246 118.49 113.994 109.607 119.575 104.557C125.246 99.425 111.259 90.3273 103.003 93.7763C99.2019 95.3648 96.2848 100.015 96.2848 104.489C96.2848 108.049 102.417 118.118 104.605 118.151C106.481 118.179 105.46 120.559 93.2633 144.599C86.4935 157.944 76.5312 177.658 71.1256 188.409C65.721 199.159 60.9849 208.148 60.6022 208.384C56.5242 210.905 74.0365 221.359 85.8364 223.448C88.8162 223.975 91.6092 224.685 92.0441 225.026C93.1622 225.903 109.804 226.859 111.51 226.144C112.289 225.817 114.406 225.621 116.216 225.709C118.024 225.797 119.505 225.538 119.505 225.134C119.505 224.732 121.333 224.164 123.568 223.873C130.367 222.988 147.983 216.389 151.631 213.363C153.767 211.589 152.85 209.445 131.889 167.172C120.395 143.992 110.99 124.703 110.99 124.306C110.99 123.242 112.22 123.428 113.229 124.644C113.713 125.227 115.758 126.321 117.774 127.075C119.79 127.829 121.929 128.831 122.528 129.304C123.28 129.897 132.271 130.163 151.592 130.163H179.569L184.849 132.871L190.13 135.58L190.433 142.934C190.885 153.868 191.971 158.296 194.864 160.998L197.291 163.266V204.376V245.488L194.822 250.257C191.995 255.717 190.965 260.688 190.276 272.19C189.234 289.566 184.983 293.672 167.111 294.561L157.828 295.023L157.435 297.098L157.043 299.173L143.692 299.197C136.349 299.209 128.077 299.234 125.31 299.25L120.279 299.28V303.174C120.279 308.209 110.836 307.666 204.097 307.994L285.979 308.283L285.753 303.587L285.526 298.893L266.67 298.686C248.306 298.483 247.825 298.438 248.215 296.945C248.797 294.721 247.78 294.413 240.346 294.558C233.465 294.691 225.057 293.067 223.589 291.32C223.153 290.803 222.109 289.999 221.267 289.535C217.537 287.476 216.037 282.705 215.394 270.858C214.741 258.831 213.42 252.817 210.656 249.305L208.901 247.074L208.688 205.316L208.474 163.558L210.902 161.054C213.458 158.417 215.444 152.153 215.467 146.655C215.481 143.433 216.323 142.544 218.351 143.609C219.113 144.009 221.296 144.755 223.202 145.267C227.353 146.381 229.916 148.109 242.569 158.322C247.891 162.617 252.662 166.135 253.173 166.142C253.684 166.148 254.381 166.6 254.721 167.144C256.437 169.89 269.754 177.763 272.684 177.763C273.524 177.763 274.423 178.106 274.683 178.525C274.942 178.944 275.92 179.312 276.857 179.342C282.01 179.509 290.557 180.252 290.557 180.533C290.557 180.712 287.597 186.76 283.978 193.972C280.36 201.185 277.399 207.255 277.399 207.461C277.399 207.667 271.304 220.237 263.854 235.393C256.404 250.549 250.309 263.205 250.309 263.518C250.309 263.83 249.596 265.417 248.723 267.045C247.494 269.338 247.339 270.248 248.034 271.085C249.209 272.501 256.647 276.513 260.245 277.671C261.805 278.173 263.505 278.921 264.024 279.332C265.133 280.211 278.947 283.826 278.947 283.237C278.947 283.016 279.417 283.227 279.993 283.705C280.972 284.517 303.133 284.399 308.359 283.552C313.504 282.719 321.608 280.291 325.935 278.286C328.578 277.062 331.103 276.06 331.546 276.06C331.989 276.06 332.352 275.754 332.352 275.38C332.352 275.006 333.363 274.281 334.598 273.769C335.834 273.258 337.553 272.084 338.421 271.16L339.999 269.48L335.092 259.418C332.393 253.885 327.396 243.61 323.989 236.586C320.581 229.563 312.884 213.843 306.884 201.656C295.438 178.405 295.315 178.118 297.084 178.797C298.438 179.316 305.169 176.158 306.932 174.175C310.117 170.592 310.292 161.755 307.227 159.212C303.323 155.972 296.855 154.06 292.535 154.872C289.565 155.428 289.006 156.471 288.692 162.035C288.294 169.085 280.756 171.02 271.761 166.381C265.521 163.162 244.599 146.823 243.473 144.288C243.331 143.969 242.896 143.708 242.507 143.708C242.118 143.708 239.622 142.103 236.96 140.142C231.09 135.817 225.905 133.026 219.757 130.883L215.133 129.27L214.256 125.072C213.155 119.79 212.039 117.331 208.264 111.878C204.937 107.071 204.907 105.067 208.142 103.594C211.109 102.242 210.796 98.1568 207.455 94.6138C204.721 91.7144 203.894 91.4745 200.844 92.6938ZM110.621 129.582C111.385 131.604 112.236 133.433 112.511 133.645C113.211 134.186 123.374 155.218 123.374 156.125C123.374 156.532 123.636 156.867 123.955 156.868C124.275 156.87 125.2 158.524 126.011 160.544C126.821 162.565 128.767 166.482 130.331 169.249C131.896 172.017 133.614 175.384 134.149 176.733C134.683 178.083 138.562 186.056 142.769 194.454C146.975 202.851 150.233 210.019 150.008 210.383C149.336 211.471 109.149 211.215 108.049 210.116C106.593 208.66 106.718 125.906 108.177 125.906C108.757 125.906 109.858 127.56 110.621 129.582ZM105.4 168.66C105.401 193.398 105.112 209.467 104.658 210.03C103.836 211.047 63.7581 211.542 62.7642 210.548C62.467 210.25 62.8226 209.108 63.5537 208.01C64.2848 206.912 70.4226 195.042 77.1914 181.633C83.9612 168.223 92.4144 151.505 95.9771 144.482C99.5398 137.457 102.799 130.726 103.219 129.524C105.077 124.217 105.398 129.987 105.4 168.66ZM292.878 225.751V269.868H271.723C260.087 269.868 250.355 269.656 250.095 269.396C249.837 269.138 251.364 265.568 253.488 261.464C255.614 257.36 258.536 251.324 259.985 248.052C262.518 242.326 264.886 237.419 281.986 202.454C286.274 193.685 289.783 186.187 289.783 185.792C289.783 184.987 292.002 181.633 292.535 181.633C292.724 181.633 292.878 201.486 292.878 225.751ZM305.626 203.517C310.722 213.83 314.922 222.616 314.96 223.041C314.996 223.468 316.028 225.731 317.25 228.072C319.484 232.349 326.159 245.9 331.358 256.71C332.894 259.903 334.791 263.782 335.573 265.33C337.986 270.101 338.827 269.911 316.292 269.687L295.588 269.481L295.388 227.106C295.277 203.799 295.451 184.738 295.775 184.748C296.098 184.758 300.531 193.204 305.626 203.517Z" fill="#FF0000"/>
</svg>
