<svg width="400" height="400" viewBox="0 0 400 400" fill="none" xmlns="http://www.w3.org/2000/svg">
<path fill-rule="evenodd" clip-rule="evenodd" d="M202.319 78.3625C202.58 79.0429 202.798 134.88 202.806 202.445L202.817 325.291L206.446 319.162C208.441 315.791 210.458 312.931 210.927 312.807C211.398 312.683 214.596 312.162 218.036 311.648C228.949 310.017 231.904 308.112 227.523 305.527C210.231 295.325 224.408 264.059 250.252 255.401C255.39 253.68 268.696 253.056 269.585 254.494C269.831 254.891 271.029 255.435 272.249 255.703C282.401 257.933 284.574 272.721 276.157 282.307C273.171 285.707 273.022 285.555 281.912 288.18C285.9 289.359 289.778 290.578 290.531 290.89C292.476 291.698 292.318 289.494 289.904 282.131C286.852 272.826 287.004 271.563 291.991 264.663C301.897 250.956 309.786 229.67 309.861 216.446C309.88 213.1 311.898 211.408 321.854 206.395C330.199 202.193 331.851 200.357 328.092 199.462C326.885 199.176 322.384 196.925 318.089 194.462L310.278 189.983L309.029 182.601C308.342 178.542 307.51 174.385 307.181 173.364C306.852 172.344 306.498 171.113 306.395 170.629C306.292 170.144 305.802 168.758 305.306 167.548C304.811 166.338 304.404 165.036 304.404 164.655C304.404 162.89 296.992 148.782 293.119 143.173C286.31 133.319 286.517 135.047 290.583 121.979C294.525 109.313 294.54 108.725 290.892 110.331C289.511 110.939 284.278 112.726 279.263 114.302L270.145 117.167L261.934 111.676C248.506 102.696 238.859 98.6868 223.012 95.4965C212.767 93.4332 209.219 91.1951 207.907 85.9679C207.331 83.6719 203.362 77.1829 202.514 77.1513C202.147 77.1376 202.058 77.6832 202.319 78.3625ZM264.182 154.909C315.807 168.033 306.845 245.793 253.69 245.945C244.362 245.971 231.112 241.162 224.605 235.389C194.634 208.798 205.843 163.348 244.61 154.272C248.213 153.43 259.848 153.808 264.182 154.909Z" fill="#FF0000"/>
<path fill-rule="evenodd" clip-rule="evenodd" d="M198.14 75.7589C197.523 76.7258 195.482 80.5943 193.605 84.3543C190.056 91.4616 188.759 92.7423 185.063 92.7834C183.853 92.7971 182.179 93.3247 181.345 93.9556C180.506 94.5907 178.17 95.1037 176.115 95.1037C174.074 95.1037 172.185 95.4554 171.92 95.8852C171.653 96.3149 170.297 96.6667 168.903 96.6667C167.51 96.6667 165.994 97.0427 165.534 97.5029C165.075 97.9621 164.213 98.4319 163.619 98.5456C159.948 99.2492 148.063 105.281 139.976 110.545C131.99 115.744 130.101 116.183 125.512 113.906C124.813 113.559 122.13 112.658 119.551 111.903C116.971 111.148 113.753 110.049 112.398 109.46C107.831 107.478 105.75 109.066 107.778 112.987C108.45 114.285 108.998 116.103 108.998 117.025C108.998 117.947 109.49 119.636 110.092 120.776C110.692 121.918 111.613 124.434 112.136 126.369C112.66 128.303 113.441 130.851 113.873 132.032C114.562 133.916 114.335 134.549 112.023 137.205C105.908 144.23 95.1084 165.779 94.9304 171.311C94.903 172.172 94.3638 173.558 93.7329 174.392C93.101 175.226 92.5838 177.337 92.5817 179.082C92.5775 182.941 90.2657 189.691 88.6679 190.502C88.0286 190.828 84.1632 193.007 80.0788 195.344C75.9954 197.682 72.0384 199.815 71.2853 200.085C68.9514 200.919 69.7571 202.128 74.0216 204.184C88.3235 211.077 91.3052 213.324 90.668 216.726C90.351 218.413 90.6037 220.163 91.381 221.666C92.0435 222.946 92.5975 225.33 92.6123 226.963C92.628 228.597 93.1431 230.813 93.7571 231.887C94.3722 232.963 94.8872 234.648 94.902 235.632C94.9178 236.618 95.9278 239.607 97.1475 242.276C98.3671 244.945 99.8385 248.36 100.416 249.865C100.994 251.369 102.545 254.47 103.865 256.754C105.184 259.039 106.654 261.601 107.131 262.45C107.609 263.298 108.709 264.77 109.575 265.721C113.717 270.272 113.829 279.037 109.838 286.494C107.992 289.944 108.739 292.286 111.539 291.824C117.127 290.9 120.893 289.871 121.724 289.039C122.205 288.558 124.1 288.164 125.932 288.164C131.069 288.164 132.064 285.65 128.224 282.378C121.349 276.522 119.863 265.787 125.217 260.668C129.888 256.202 130.964 255.901 142.027 255.958L152.095 256.008L158.49 259.251C166.53 263.327 173.818 270.251 176.996 276.831C184.639 292.656 183.175 299.875 170.905 306.863C166.963 309.109 172.781 311.421 184.166 312.134L190.16 312.509L192.764 316.808C197.294 324.286 198.469 325.944 199.471 326.273C200.251 326.529 200.449 300.985 200.449 200.296C200.449 130.834 200.181 74 199.855 74C199.528 74 198.756 74.791 198.14 75.7589ZM158.241 155.679C159.316 156.293 160.978 156.808 161.934 156.824C171.303 156.974 191.851 177.656 191.851 186.936C191.851 187.843 192.278 189.013 192.8 189.535C193.945 190.679 193.789 207.059 192.613 209.258C192.193 210.041 191.851 211.426 191.851 212.338C191.851 213.835 189.853 217.938 185.379 225.634C181.047 233.087 172.434 239.204 161.313 242.727C157.68 243.878 140.011 243.871 136.411 242.718C120.414 237.589 110.729 227.576 105.902 211.174C103.009 201.343 107.051 178.583 112.492 174.068C113.207 173.475 114.29 172.027 114.898 170.849C116.233 168.269 124.452 161.879 129.057 159.842C130.886 159.033 132.594 158.029 132.852 157.611C133.11 157.194 134.465 156.852 135.861 156.852C137.259 156.852 139.084 156.336 139.919 155.705C142.005 154.127 155.492 154.108 158.241 155.679Z" fill="#0000FF"/>
</svg>
