<svg width="400" height="400" viewBox="0 0 400 400" fill="none" xmlns="http://www.w3.org/2000/svg">
<path style="fill:#FF0000;" d="M329.999,199.94c-6.447-3.407-12.893-6.813-19.339-10.219c-2.597-22.145-11.038-41.733-25.31-58.889
	c1.111-3.641,2.227-7.28,3.332-10.922c1.097-3.617,2.284-7.209,3.339-11.061c-7.608,2.303-14.974,4.533-22.341,6.763
	c-17.186-13.495-36.603-21.319-58.218-23.471c-3.413-6.333-6.777-12.573-10.211-18.945v253.61
	c2.727-5.079,5.377-10.014,7.998-14.898c8.027-0.662,15.776-1.992,23.605-4.407c-1.215-0.382-2.139-0.623-3.026-0.96
	c-5.073-1.93-8.627-5.346-10.167-10.637c-0.91-3.127-0.854-6.313-0.241-9.487c1.011-5.235,3.321-9.915,6.544-14.09
	c8.336-10.799,19.041-17.834,32.677-20.001c4.365-0.694,8.695-0.444,12.877,1.087c4.677,1.713,8.117,4.775,9.871,9.522
	c1.381,3.737,1.324,7.561,0.435,11.391c-0.114,0.49-0.45,0.983-0.809,1.353c-2.804,2.881-5.639,5.733-8.466,8.593
	c-0.27,0.273-0.548,0.538-0.931,0.913c6.899,2.03,13.57,4.044,20.466,6.041c-2.03-6.571-3.982-12.889-5.926-19.182
	c7.278-8.869,13.022-18.524,17.258-29.069c4.232-10.535,6.73-21.479,7.598-32.795c0.513-0.274,0.949-0.508,1.386-0.74
	c5.605-2.969,11.209-5.938,16.816-8.903c0.252-0.133,0.523-0.231,0.785-0.345C330,200.106,329.999,200.023,329.999,199.94z
	 M252.646,245.206c-25.901-0.049-46.708-20.858-46.771-46.802c-0.065-26.544,21.339-47.016,46.501-47.042
	c25.787-0.027,46.687,20.85,46.775,46.773C299.236,223.62,278.908,244.998,252.646,245.206z"/>
<path style="fill:#0000FF;" d="M198.75,73.56c-3.416,6.366-6.755,12.588-10.085,18.791c-21.188,2.503-40.057,10.402-56.721,23.646
	c-7.887-2.372-15.752-4.738-23.835-7.169c2.48,8.052,4.879,15.84,7.287,23.654c-13.235,16.508-21.189,35.225-23.823,56.108
	c-7.21,3.82-14.289,7.57-21.574,11.429c7.189,3.792,14.146,7.461,21.158,11.159c1.965,21.989,9.758,41.675,23.322,59.075
	c-2.082,6.952-4.272,13.825-6.391,20.976c6.939-2.104,13.618-4.077,20.405-6.236c-0.494-0.458-0.834-0.756-1.156-1.073
	c-2.338-2.293-4.664-4.599-7.015-6.88c-0.625-0.606-0.943-1.323-1.125-2.156c-0.508-2.324-0.747-4.663-0.539-7.041
	c0.473-5.406,2.959-9.592,7.596-12.445c3.379-2.079,7.132-2.881,11.039-2.971c5.733-0.133,11.195,1.191,16.428,3.436
	c8.476,3.636,15.593,9.081,21.207,16.416c3.128,4.088,5.509,8.573,6.656,13.641c0.733,3.238,0.896,6.491,0.048,9.732
	c-1.448,5.532-5.045,9.1-10.3,11.116c-0.585,0.224-1.18,0.421-1.77,0.631c6.924,2.324,13.99,3.607,21.215,4.336
	c2.638,4.891,5.273,9.777,7.973,14.783V73.56z M147.853,245.585c-25.692,0.051-46.672-20.833-46.755-46.54
	c-0.083-25.786,20.822-46.799,46.573-46.814c25.802-0.015,46.642,20.731,46.719,46.508
	C194.468,224.552,173.624,245.534,147.853,245.585z"/>
</svg>
