<svg width="400" height="400" viewBox="0 0 400 400" fill="none" xmlns="http://www.w3.org/2000/svg">
<path style="fill:#FFEE00;" d="M70,75.366c27.672,26.212,55.344,52.423,83.016,78.635
	c9.784-16.063,19.568-32.126,29.351-48.189c20.444,36.507,40.887,73.013,61.331,109.52c10.587-16.939,21.174-33.878,31.761-50.817
	c18.18,53.373,36.361,106.745,54.541,160.118c-20.809-25.117-41.617-50.233-62.426-75.35c-8.324,12.887-16.647,25.774-24.971,38.66
	c-20.59-35.156-41.179-70.312-61.769-105.468c-11.463,18.618-22.926,37.237-34.389,55.855C120.963,184.01,95.482,129.688,70,75.366z
	"/>
</svg>
