<svg width="400" height="400" viewBox="0 0 400 400" fill="none" xmlns="http://www.w3.org/2000/svg">
<path fill-rule="evenodd" clip-rule="evenodd" d="M70.0005 77.7031C70.0005 78.6401 70.7557 80.9526 71.677 82.8423C74.5074 88.6417 80.0008 100.479 80.7392 102.367C81.6389 104.667 83.9164 109.454 86.2675 113.988C87.2876 115.953 88.4162 118.367 88.7751 119.35C89.4496 121.197 94.8297 132.831 97.8059 138.875C98.7357 140.766 99.4969 142.877 99.4969 143.568C99.4969 144.258 99.8992 144.825 100.391 144.825C100.882 144.825 101.284 145.58 101.284 146.502C101.284 147.425 101.884 148.677 102.615 149.285C103.347 149.893 103.755 150.701 103.52 151.08C103.284 151.461 103.691 152.269 104.423 152.876C105.155 153.484 105.754 154.494 105.754 155.121C105.754 155.747 107.211 159.217 108.993 162.832C110.774 166.446 113.289 171.617 114.579 174.32C115.87 177.024 117.228 179.37 117.597 179.534C117.966 179.697 118.267 180.341 118.267 180.961C118.267 181.582 118.827 183.258 119.511 184.685C120.194 186.112 121.449 188.89 122.298 190.856C123.147 192.822 125.202 197.21 126.864 200.605C128.527 204 129.887 207.27 129.887 207.87C129.887 208.47 130.486 209.458 131.218 210.065C131.95 210.673 132.345 211.498 132.097 211.9C131.849 212.303 132.043 212.877 132.529 213.178C133.016 213.478 133.987 215.015 134.687 216.591C143.563 236.591 144.471 237.426 149.069 229.792C151.147 226.342 156.402 219.398 158.634 217.15C159.943 215.833 161.654 213.52 162.433 212.011C163.213 210.503 164.393 208.947 165.053 208.553C165.713 208.16 167.016 206.632 167.95 205.157C168.884 203.682 170.398 201.671 171.316 200.688C172.232 199.704 173.958 197.378 175.152 195.518C176.344 193.658 178.111 191.345 179.078 190.378C180.044 189.412 180.835 188.018 180.835 187.281C180.835 184.675 182.278 185.998 184.738 190.856C186.107 193.559 187.51 195.772 187.857 195.772C188.204 195.772 188.977 196.879 189.576 198.23C191.305 202.138 196.036 210.386 197.434 211.93C198.136 212.707 198.711 213.813 198.711 214.39C198.711 214.965 199.114 215.436 199.605 215.436C200.097 215.436 200.499 216.039 200.499 216.775C200.499 217.51 201.806 220.025 203.404 222.361C207.417 228.229 208.377 229.778 209.915 232.866C211.377 235.798 212.228 237.214 215.918 242.844C217.269 244.908 218.375 247.226 218.375 247.998C218.375 248.77 218.686 249.401 219.066 249.401C219.446 249.401 220.535 250.909 221.486 252.753C222.437 254.597 224.038 257.31 225.041 258.783C227.744 262.749 229.975 266.627 230.571 268.395C230.86 269.255 231.388 269.96 231.742 269.96C232.097 269.96 233.47 272.071 234.794 274.652C241.761 288.236 243.728 289.436 247.603 282.472C248.832 280.261 250.805 277.17 251.984 275.605C253.164 274.04 254.128 272.13 254.128 271.359C254.128 270.59 254.531 269.96 255.022 269.96C255.513 269.96 255.916 269.519 255.916 268.98C255.916 268.441 256.82 266.732 257.926 265.182C259.032 263.63 259.941 262.161 259.948 261.915C259.954 261.67 261.262 259.586 262.854 257.284C264.445 254.984 265.747 252.47 265.747 251.698C265.747 249.73 268.18 249.947 269.286 252.014C269.792 252.958 270.728 254.265 271.367 254.918C273.868 257.473 292.868 280.538 302.534 292.752C306.036 297.176 310.152 302.231 311.681 303.985C314.506 307.223 314.984 307.822 323.211 318.414C328.934 325.785 330.558 326.215 329.842 320.171C329.56 317.799 328.645 314.28 327.806 312.351C325.663 307.421 325.094 305.821 323.856 301.243C323.259 299.031 322.184 296.115 321.47 294.762C320.755 293.411 320.416 292.305 320.719 292.305C321.02 292.305 320.689 291.198 319.982 289.847C319.276 288.494 317.805 284.573 316.714 281.132C315.622 277.691 314.218 273.669 313.593 272.194C312.969 270.72 311.958 267.702 311.347 265.49C310.735 263.277 309.908 260.664 309.507 259.68C308.272 256.653 305.048 247.401 303.588 242.697C302.825 240.239 301.881 237.424 301.492 236.44C301.105 235.458 300.105 232.342 299.273 229.515C298.442 226.689 297.367 224.135 296.888 223.838C296.409 223.542 296.217 222.776 296.463 222.137C296.708 221.496 296.346 220.23 295.658 219.322C294.97 218.414 294.389 216.866 294.366 215.883C294.312 213.607 292.595 208.888 290.068 204.075C288.982 202.006 288.093 199.314 288.093 198.095C288.093 196.875 287.691 195.628 287.199 195.325C286.708 195.021 286.306 193.639 286.306 192.254C286.306 190.867 285.726 189.253 285.018 188.666C284.31 188.078 283.952 187.018 284.225 186.31C284.496 185.603 284.256 184.466 283.691 183.785C283.126 183.105 282.501 181.802 282.302 180.891C281.808 178.622 279.975 173.312 279.036 171.428C278.61 170.574 278.261 169.053 278.261 168.047C278.261 165.142 275.69 164.835 273.264 167.451C272.08 168.728 271.111 170.394 271.111 171.153C271.111 171.912 270.754 172.532 270.319 172.532C269.883 172.532 268.862 173.84 268.048 175.437C267.235 177.036 265.572 179.952 264.353 181.917C263.133 183.884 261.862 186.097 261.528 186.834C261.195 187.571 260.595 188.577 260.194 189.068C258.939 190.61 255.558 196.082 253.285 200.255C252.083 202.46 249.771 206.121 248.145 208.392C246.52 210.663 245.19 212.976 245.19 213.532C245.19 214.087 244.788 214.543 244.297 214.543C243.805 214.543 243.403 213.994 243.403 213.323C243.403 212.651 242.598 211.079 241.614 209.83C240.632 208.58 239.827 207.079 239.827 206.495C239.827 205.911 238.922 204.165 237.816 202.618C235.31 199.108 233.23 195.518 230.907 190.687C229.917 188.627 228.696 186.689 228.195 186.38C227.695 186.07 227.498 185.47 227.761 185.046C228.022 184.622 227.803 184.008 227.273 183.681C226.743 183.353 225.939 182.218 225.486 181.161C225.033 180.102 223.662 177.627 222.44 175.661C221.217 173.695 219.4 170.476 218.401 168.511C217.402 166.544 215.601 163.326 214.399 161.36C213.197 159.393 211.139 155.673 209.826 153.092C208.513 150.511 207.085 148.399 206.651 148.399C206.217 148.399 205.862 147.857 205.862 147.196C205.862 145.404 203.175 140.355 202.221 140.355C201.766 140.355 201.393 139.584 201.393 138.642C201.393 137.699 201.091 136.795 200.723 136.631C199.914 136.272 196.114 129.81 195.421 127.618C195.15 126.758 194.572 126.054 194.138 126.054C193.703 126.054 193.348 125.479 193.348 124.777C193.348 123.376 187.331 112.9 186.082 112.128C185.654 111.863 185.304 110.867 185.304 109.912C185.304 108.958 184.929 108.177 184.473 108.177C184.015 108.177 183.512 107.273 183.355 106.166C183.145 104.693 182.472 104.155 180.835 104.155C179.199 104.155 178.524 104.693 178.315 106.166C178.158 107.273 177.655 108.177 177.197 108.177C176.74 108.177 176.366 108.642 176.366 109.211C176.366 109.778 175.34 111.588 174.086 113.232C172.832 114.876 172.09 116.222 172.437 116.222C172.784 116.222 172.502 116.925 171.812 117.786C170.516 119.4 170.149 120.023 166.116 127.459C164.802 129.881 162.944 133.071 161.986 134.545C161.029 136.02 159.762 138.333 159.171 139.684C158.58 141.037 157.784 142.142 157.4 142.142C157.015 142.142 156.701 142.96 156.701 143.959C156.701 144.957 156.098 146.006 155.361 146.288C154.623 146.571 154.02 147.515 154.02 148.386C154.02 153.112 151.381 152.417 144.809 145.962C141.271 142.487 135.17 136.687 131.247 133.073C127.325 129.458 116.867 119.421 108.007 110.767C99.1488 102.113 87.7766 91.3143 82.7373 86.7712C77.6992 82.2281 73.5764 77.9451 73.5764 77.255C73.5764 76.5649 72.7719 76 71.7878 76C70.6268 76 70.0005 76.5962 70.0005 77.7031Z" fill="#FFEE00"/>
</svg>
