<svg width="400" height="400" viewBox="0 0 400 400" fill="none" xmlns="http://www.w3.org/2000/svg">
<path style="fill:#0000FF;" d="M318.748,171.111c7.193-7.973,11.252-18.084,11.252-28.889c0-11.57-4.507-22.461-12.697-30.637
	c-8.176-8.19-19.067-12.682-30.637-12.682c-11.57,0-22.461,4.507-30.637,12.697c-3.366,3.351-7.887,5.2-12.697,5.2
	c-4.81,0-9.331-1.863-12.697-5.229c-19.731-19.731-46.006-30.593-73.97-30.593s-54.239,10.862-73.97,30.593
	C74.507,119.761,70,130.667,70,142.222c0,10.804,4.059,20.916,11.252,28.889C74.059,179.084,70,189.196,70,200
	s4.059,20.916,11.252,28.889C74.059,236.862,70,246.988,70,257.778c0,11.57,4.507,22.461,12.697,30.637
	c8.176,8.19,19.067,12.697,30.637,12.697s22.461-4.507,30.637-12.697c3.38-3.366,7.872-5.229,12.682-5.229
	c4.81,0,9.331,1.863,12.711,5.243c19.746,19.717,46.006,30.593,73.97,30.593c27.979,0,54.239-10.862,73.97-30.593
	c8.19-8.19,12.697-19.067,12.697-30.651c0-10.804-4.059-20.916-11.252-28.889C325.941,220.916,330,210.804,330,200
	S325.941,179.084,318.748,171.111z M296.879,268.004c-14.748,14.748-34.147,22.129-53.546,22.129
	c-19.384,0-38.783-7.381-53.546-22.129c-9.143-9.129-21.132-13.693-33.121-13.693c-12.003,0-23.992,4.564-33.107,13.693
	c-2.831,2.817-6.529,4.218-10.227,4.218c-3.698,0-7.396-1.416-10.212-4.232c-5.648-5.648-5.648-14.777,0-20.424
	c14.748-14.748,34.147-22.129,53.531-22.129c19.399,0,38.798,7.381,53.56,22.129c9.129,9.129,21.132,13.679,33.121,13.679
	c12.003,0,23.992-4.55,33.121-13.679c2.817-2.817,6.514-4.232,10.212-4.232c3.698,0,7.396,1.416,10.212,4.232
	C302.527,253.213,302.527,262.342,296.879,268.004z M103.121,132.01c14.748-14.748,34.161-22.143,53.546-22.143
	c19.399,0,38.783,7.381,53.546,22.129c9.129,9.143,21.132,13.708,33.121,13.708c12.003,0,23.992-4.55,33.121-13.679
	c2.817-2.846,6.514-4.232,10.212-4.232c3.698,0,7.396,1.416,10.212,4.232c5.648,5.648,5.648,14.777,0,20.424
	c-14.748,14.748-34.147,22.129-53.546,22.129c-19.384,0-38.783-7.381-53.546-22.129c-9.143-9.129-21.132-13.693-33.121-13.693
	c-12.003,0-23.992,4.564-33.107,13.693c-2.831,2.817-6.529,4.218-10.227,4.218c-3.698,0-7.396-1.401-10.212-4.218
	C97.473,146.787,97.473,137.658,103.121,132.01z M296.879,210.227c-14.748,14.748-34.147,22.129-53.546,22.129
	c-19.384,0-38.783-7.381-53.546-22.129c-9.143-9.129-21.132-13.693-33.121-13.693c-12.003,0-23.992,4.564-33.107,13.693
	c-2.831,2.817-6.529,4.218-10.227,4.218c-3.698,0-7.396-1.401-10.212-4.232c-5.648-5.648-5.648-14.777,0-20.424
	c14.748-14.748,34.147-22.129,53.531-22.129c19.399,0,38.798,7.381,53.56,22.129c9.129,9.129,21.132,13.679,33.121,13.679
	c12.003,0,23.992-4.55,33.121-13.679c2.817-2.817,6.514-4.232,10.212-4.232c3.698,0,7.396,1.416,10.212,4.232
	C302.527,195.436,302.527,204.564,296.879,210.227z"/>
</svg>
