<svg width="400" height="400" viewBox="0 0 400 400" fill="none" xmlns="http://www.w3.org/2000/svg">
<path style="fill:#0000FF;" d="M100.002,126.998c50.453-4.432,100.101-4.301,150.026-0.06c0,7.173-0.021,13.926,0.007,20.68
	c0.019,4.519,0.884,5.198,5.319,5.547c9.577,0.756,19.228,0.799,28.72,2.374c11.962,1.984,18.638,8.533,21.092,20.462
	c3.75,18.232,2.727,36.339-2.012,54.247c-1.604,6.063-5.774,10.751-9.725,15.408c-8.735,10.296-19.323,18.172-31.7,23.637
	c-4.993,2.204-5.675,3.335-5.384,8.712c0.274,5.062,0.376,10.165,1.133,15.163c1.448,9.556-2.165,16.511-9.753,22.102
	c-9.116,6.716-19.503,9.865-30.443,11.438c-14.857,2.137-29.803,3.603-44.833,3.235c-17.965-0.439-35.811-2.263-53.349-6.318
	c-8.082-1.869-14.966-6.127-20.897-11.927c-4.189-4.097-6.034-9.012-5.584-14.869c1.322-17.165,2.716-34.325,3.844-51.503
	c1.961-29.848,3.628-59.711,3.541-89.642C99.979,146.293,100.002,136.903,100.002,126.998z M237.438,138.752
	c-41.721-3.425-83.274-3.414-124.896,0.044c-0.111,0.958-0.243,1.574-0.244,2.191c-0.092,34.375-0.969,68.724-3.154,103.035
	c-1.048,16.452-2.595,32.86-4.155,49.267c-0.434,4.565,0.84,8.3,4.165,11.405c3.803,3.549,8.319,5.873,13.319,6.964
	c14.981,3.268,30.107,5.481,45.478,5.871c16.011,0.406,31.891-0.929,47.699-3.285c7.746-1.155,15.293-3.008,22.215-6.934
	c5.3-3.004,8.011-7.344,7.663-13.474c-0.114-2.004-0.255-4.014-0.531-6.001c-3.484-24.97-3.888-50.143-4.912-75.271
	c-0.857-21.025-1.415-42.062-2.126-63.095C237.842,146,237.625,142.536,237.438,138.752z M264.142,171.307
	c-2.96,0-5.92-0.008-8.88,0.002c-4.473,0.016-4.804,0.244-4.617,4.671c1.024,24.277,2.099,48.553,3.184,72.828
	c0.17,3.795,1.914,4.768,5.065,2.666c7.292-4.865,14.458-9.919,20.709-16.124c5.129-5.091,8.609-11.007,10.048-18.245
	c2.385-12.001,1.981-23.924-0.118-35.865c-0.915-5.208-4.978-8.815-10.194-9.244C274.281,171.582,269.222,171.211,264.142,171.307z
	 M113.335,120.494c-3.859,0-7.556,0.004-11.253-0.006c-0.413-0.001-0.826-0.081-1.299-0.131
	c-0.986-1.85,0.128-3.543,0.388-5.214c0.321-2.061,1.063-4.071,1.753-6.057c4.293-12.352,10.012-17.034,25.782-18.022
	c3.656-0.229,6.011-1.22,8.206-4.043c8.33-10.711,19.671-16.746,32.948-17.01c12.664-0.252,24.244,4.316,32.877,14.286
	c1.728,1.995,3.412,2.574,5.777,2.083c13.347-2.767,24.364,1.621,33.364,11.35c4.288,4.636,5.608,10.785,6.796,16.811
	c0.358,1.814,1.173,3.658,0.427,5.797c-4.137,0-8.333,0-12.707,0c-0.876-2.667-1.674-5.489-2.719-8.216
	c-5.147-13.442-16.436-17.523-29.047-10.543c-1.193,0.661-2.336,1.414-3.657,2.221c-2.636-3.596-4.961-7.327-7.777-10.731
	c-13.467-16.28-41.212-12.487-49.923,8.291c-0.893,2.129-1.794,4.254-2.687,6.373C124.732,102.158,117.701,107.549,113.335,120.494z
	 M175.323,311.234c-17.04,0.066-32.966-1.65-48.664-5.349c-3.932-0.926-7.612-2.454-10.925-4.823
	c-2.637-1.886-3.785-4.298-3.45-7.612c3.729-36.84,5.002-73.811,5.897-110.804c0.101-4.193,0.358-4.421,4.426-4.72
	c20.153-1.477,40.33-2.238,60.54-1.951c14.912,0.212,29.802,0.919,44.683,1.874c2.601,0.167,3.744,1.321,3.834,3.949
	c0.579,17.014,1.155,34.027,1.883,51.034c0.696,16.26,1.801,32.495,3.589,48.679c0.476,4.304,0.888,8.617,1.201,12.936
	c0.233,3.215-1.504,5.329-4.177,6.889c-6.775,3.952-14.23,5.818-21.863,6.988C199.747,310.249,187.117,311.329,175.323,311.234z"/>
</svg>
