<svg width="400" height="400" viewBox="0 0 400 400" fill="none" xmlns="http://www.w3.org/2000/svg">
<path fill-rule="evenodd" clip-rule="evenodd" d="M160.65 71.3644C160.326 72.2066 158.943 72.7288 157.04 72.7288C155.342 72.7288 153.953 73.1382 153.953 73.6384C153.953 74.1385 153.137 74.548 152.14 74.548C151.143 74.548 149.224 75.4698 147.873 76.5952C141.268 82.1042 137.578 85.8137 137.578 86.9452C137.578 87.6317 136.964 88.1944 136.213 88.1944C135.462 88.1944 134.848 88.8085 134.848 89.5587C134.848 90.6461 133.508 90.9244 128.253 90.9268C116.863 90.933 101.188 101.294 101.188 108.817C101.188 109.924 100.772 111.087 100.264 111.401C99.7548 111.716 99.5697 112.345 99.8504 112.801C100.132 113.256 99.935 114.427 99.414 115.401C97.623 118.748 99.1149 120.035 104.781 120.035C110.361 120.035 111.934 118.546 113.427 111.848C114.985 104.865 133.024 100.18 137.068 105.707C138.459 107.607 140.307 107.801 140.307 106.045C140.307 105.357 140.921 104.283 141.671 103.66C142.421 103.037 143.035 101.516 143.035 100.28C143.035 97.8174 153.672 86.3752 155.961 86.3752C156.657 86.3752 157.74 85.8628 158.365 85.2376C159.152 84.4506 162.972 84.1 170.783 84.1C178.594 84.1 182.413 84.4506 183.201 85.2376C183.826 85.8628 184.907 86.3752 185.605 86.3752C187.64 86.3752 198.529 97.8015 198.529 99.937C198.529 101.999 204.183 102.823 205.352 100.931C205.663 100.43 206.723 100.02 207.71 100.02C208.697 100.02 209.74 99.4062 210.028 98.6559C210.401 97.6826 211.923 97.2915 215.346 97.2915C218.497 97.2915 220.529 97.7586 221.273 98.6559C221.896 99.4062 223.114 100.02 223.981 100.02C224.847 100.02 226.66 101.044 228.01 102.296C229.36 103.546 230.648 104.57 230.873 104.57C232.022 104.57 234.919 108.438 234.919 109.974C234.919 110.945 235.329 111.993 235.829 112.302C236.329 112.611 236.745 113.966 236.753 115.313C236.774 119.079 237.686 119.758 243.348 120.217C249.312 120.701 251.18 119.583 249.538 116.514C249.003 115.514 248.566 113.491 248.566 112.019C248.566 110.546 247.942 108.823 247.18 108.192C246.379 107.526 246.022 106.327 246.333 105.347C246.674 104.272 246.348 103.45 245.443 103.103C244.659 102.802 244.016 102.074 244.016 101.484C244.016 99.8083 234.593 90.9231 232.816 90.9231C231.939 90.9231 230.988 90.309 230.7 89.5587C230.412 88.8085 229.372 88.1944 228.389 88.1944C227.406 88.1944 225.946 87.5385 225.144 86.7368C223.945 85.5379 221.964 85.3369 213.96 85.6004L204.234 85.9204L200.127 82.2808C192.628 75.6366 191.112 74.548 189.355 74.548C188.397 74.548 187.613 74.1385 187.613 73.6384C187.613 73.1382 186.168 72.7288 184.4 72.7288C182.383 72.7288 180.993 72.22 180.663 71.3644C180.245 70.2721 178.247 70 170.657 70C163.066 70 161.069 70.2721 160.65 71.3644ZM161.231 123.385C161.231 123.834 152.423 124.164 141.444 124.127C126.883 124.079 121.287 124.361 120.259 125.198C119.394 125.901 115.246 126.435 109.405 126.597L99.9497 126.858L99.7842 145.053C99.4164 185.591 99.0708 198.349 98.3279 198.808C97.9 199.073 97.5494 209.681 97.5494 222.381C97.5494 236.793 97.2074 245.683 96.6399 246.034C96.0968 246.37 95.729 252.268 95.729 260.672C95.729 272.345 95.4961 274.837 94.3646 275.271C93.2307 275.706 93.0002 278.243 93.0002 290.281C93.0002 302.319 93.2307 304.857 94.3646 305.292C95.1149 305.58 95.729 306.59 95.729 307.538C95.729 308.486 96.1385 309.26 96.6399 309.26C97.14 309.26 97.5494 309.875 97.5494 310.625C97.5494 311.375 97.8817 311.989 98.2874 311.989C98.6932 311.989 99.9227 312.825 101.02 313.848C105.828 318.327 118.455 323.559 126.66 324.472C128.912 324.722 131.082 325.496 131.482 326.191C132.007 327.103 134.23 327.455 139.471 327.455C144.872 327.455 146.858 327.783 147.223 328.735C147.906 330.512 202.257 330.374 202.852 328.592C203.112 327.809 205.492 327.455 210.497 327.455C215.744 327.455 218.143 327.076 219.129 326.09C219.879 325.34 221.835 324.726 223.477 324.726C227.826 324.726 237.8 321.23 239.004 319.283C239.291 318.817 240.074 318.647 240.745 318.904C241.414 319.162 242.6 318.734 243.379 317.955C244.159 317.176 245.214 316.538 245.725 316.538C247.262 316.538 254.934 308.826 254.934 307.281C254.934 306.49 255.547 305.334 256.298 304.711C257.375 303.818 257.663 301.231 257.663 292.43C257.663 283.63 257.375 281.042 256.298 280.148C252.338 276.862 259.009 267.875 266.032 267.034C266.382 266.991 267.18 266.446 267.806 265.82C268.432 265.195 269.407 264.683 269.972 264.683C270.537 264.683 272.81 263.051 275.021 261.057C277.233 259.062 279.493 257.426 280.043 257.418C280.595 257.411 284.004 254.54 287.621 251.036C291.236 247.534 294.571 244.669 295.032 244.669C295.494 244.669 295.872 244.105 295.872 243.415C295.872 242.726 296.481 241.656 297.226 241.038C297.971 240.42 298.374 239.579 298.121 239.17C297.868 238.761 298.701 237.304 299.972 235.933C301.244 234.561 302.508 232.384 302.782 231.094C303.057 229.804 303.893 227.293 304.639 225.513C305.386 223.734 305.904 221.891 305.793 221.419C305.681 220.947 305.892 219.872 306.264 219.03C306.634 218.188 306.799 207.953 306.631 196.287C306.3 173.216 306.742 175.551 300.794 165.405C298.973 162.298 296.514 160.063 294.918 160.063C294.049 160.063 293.104 159.457 292.819 158.714C292.534 157.972 291.737 157.581 291.048 157.846C290.359 158.111 289.269 157.694 288.628 156.92C287.948 156.101 286.011 155.514 283.987 155.514C282.077 155.514 280.313 155.191 280.068 154.795C279.823 154.399 276.832 153.949 273.419 153.796C270.007 153.642 266.191 153.417 264.941 153.293C263.689 153.17 260.151 153.006 257.078 152.928C250.181 152.752 250.186 152.762 250.344 139.545C250.51 125.702 251.041 126.403 240.391 126.403C234.013 126.403 231.213 126.054 230.478 125.168C229.687 124.214 225.138 123.877 210.58 123.691C200.199 123.557 184.85 123.253 176.468 123.013C167.864 122.766 161.231 122.929 161.231 123.385ZM213.963 136.845C214.543 137.203 219.905 137.722 225.878 137.997L236.738 138.498V154.111C236.738 166.429 237.02 170.095 238.075 171.489C239.183 172.955 239.414 178.231 239.439 202.54C239.455 218.647 239.819 232.042 240.248 232.308C240.677 232.572 241.274 239.248 241.577 247.144C241.878 255.039 242.587 267.23 243.151 274.235C243.715 281.241 244.249 288.069 244.338 289.411C244.426 290.752 244.798 292.151 245.167 292.519C246.994 294.346 243.988 304.634 241.612 304.688C241.04 304.701 240.351 305.287 240.081 305.99C239.812 306.693 238.364 307.539 236.863 307.868C235.363 308.198 233.648 309.056 233.051 309.774C232.455 310.492 231.205 311.08 230.272 311.08C228.143 311.08 221.208 312.624 215.693 314.327C213.373 315.043 208.14 315.629 204.062 315.629C199.369 315.629 195.906 316.086 194.631 316.874C192.237 318.356 158.049 318.489 155.772 317.025C155.022 316.543 150.518 316.001 145.765 315.821C140.94 315.639 135.855 314.921 134.256 314.197C132.679 313.483 130.252 312.899 128.862 312.899C125.944 312.899 121.57 311.581 115.744 308.947C113.492 307.929 111.332 307.178 110.942 307.277C110.553 307.376 109.998 306.839 109.708 306.084C109.418 305.329 108.786 304.711 108.304 304.711C105.41 304.711 104.71 301.989 105.206 292.663C105.942 278.849 107.364 260.128 107.953 256.495C109.245 248.545 111.149 193.042 111.236 160.817C111.301 136.55 110.102 138.649 124.316 137.923C130.281 137.619 135.54 136.991 136.004 136.529C136.986 135.546 212.356 135.853 213.963 136.845ZM285.794 174.689C287.334 176.229 288.594 178.021 288.594 178.672C288.594 179.322 289.208 180.365 289.958 180.988C291.082 181.921 291.323 185.128 291.323 199.196C291.323 213.536 291.104 216.357 289.958 216.795C289.177 217.096 288.594 218.453 288.594 219.966C288.594 221.422 287.985 223.118 287.239 223.736C286.494 224.355 286.08 225.178 286.32 225.564C286.559 225.951 286.145 226.774 285.399 227.392C284.654 228.011 284.045 229.084 284.045 229.777C284.045 231.419 272.389 242.849 270.716 242.849C270.01 242.849 269.197 243.463 268.909 244.214C268.621 244.965 267.814 245.579 267.118 245.579C266.42 245.579 265.85 246.193 265.85 246.943C265.85 247.694 265.103 248.308 264.189 248.308C263.276 248.308 261.567 249.331 260.392 250.582C256.051 255.203 253.296 252.393 253.255 243.305C253.239 239.801 252.797 227.725 252.273 216.467C251.748 205.209 251.313 190.574 251.307 183.943L251.294 171.889H267.145H282.995L285.794 174.689ZM134.848 176.696C131.596 177.087 126.58 177.635 123.703 177.913L118.473 178.42L118.357 182.66C118.294 184.993 117.871 196.726 117.416 208.734C116.962 220.743 116.38 237.522 116.124 246.021C115.777 257.489 115.348 261.649 114.455 262.148C113.558 262.649 113.22 266.107 113.116 275.805C113.036 283.342 112.604 288.918 112.087 289.095C111.597 289.262 111.195 291.176 111.195 293.35C111.195 299.121 118.745 304.711 126.539 304.711C127.607 304.711 128.481 305.121 128.481 305.621C128.481 306.122 130.22 306.544 132.347 306.56C134.473 306.576 137.008 307.19 137.979 307.924C139.251 308.886 142.224 309.26 148.614 309.26C153.546 309.26 157.734 309.664 158.046 310.17C158.387 310.72 164.861 311.08 174.421 311.08C183.982 311.08 190.457 310.72 190.796 310.17C191.112 309.661 195.364 309.26 200.432 309.26C207.656 309.26 209.61 308.982 210.028 307.896C210.41 306.898 211.979 306.53 215.858 306.53C218.777 306.53 221.419 306.122 221.728 305.621C222.038 305.121 223.47 304.711 224.912 304.711C226.354 304.711 227.787 304.302 228.096 303.802C228.405 303.301 229.351 302.886 230.197 302.878C232.903 302.855 239.123 296.942 237.961 295.499C237.37 294.764 236.899 289.71 236.819 283.231C236.745 277.172 236.345 271.03 235.931 269.585C235.516 268.14 235.096 263.299 234.998 258.828C234.898 254.357 234.657 250.438 234.459 250.118C233.997 249.37 231.946 197.106 232.051 188.721C232.16 179.923 231.173 178.258 225.85 178.258C223.533 178.258 221.124 177.747 220.498 177.121C219.186 175.811 145.25 175.443 134.848 176.696Z" fill="#0000FF"/>
</svg>
