<svg width="400" height="400" viewBox="0 0 400 400" fill="none" xmlns="http://www.w3.org/2000/svg">
<path style="fill:#FFEE00;" d="M313.291,96.626c-1.944-3.242-5.294-5.065-8.571-5.135c-3.144-0.103-6.168,1.304-8.597,3.713
	c2.287-2.536,3.545-5.626,3.312-8.77c-0.227-3.257-2.142-6.505-5.358-8.323c-3.211-1.83-6.909-1.824-9.834-0.402
	c-2.76,1.32-4.854,3.838-6,6.968c0.879-3.226,0.616-6.476-0.862-9.151c-1.552-2.863-4.506-5.001-8.073-5.438
	c-3.567-0.449-6.922,0.895-9.139,3.257c-2.146,2.266-3.259,5.438-3.207,8.869c-0.242-3.432-1.623-6.483-3.953-8.561
	c-2.411-2.184-5.851-3.223-9.344-2.509c-3.494,0.71-6.242,3.036-7.599,5.989c-1.334,2.854-1.394,6.237-0.231,9.515
	c-1.294-3.21-3.591-5.74-6.476-6.975c-2.969-1.303-6.579-1.223-9.675,0.584c-3.098,1.801-4.976,4.892-5.301,8.129
	c-0.331,3.11,0.708,6.285,2.845,8.98c-2.274-2.561-5.238-4.157-8.349-4.359c-3.21-0.229-6.576,1.059-8.878,3.787
	c-2.303-2.728-5.669-4.016-8.879-3.787c-3.107,0.201-6.067,1.792-8.339,4.347c2.131-2.693,3.167-5.863,2.836-8.969
	c-0.326-3.237-2.204-6.328-5.302-8.129c-3.095-1.807-6.706-1.887-9.675-0.584c-2.793,1.196-5.034,3.604-6.348,6.668
	c1.051-3.179,0.955-6.437-0.336-9.201c-1.356-2.954-4.104-5.279-7.598-5.992c-3.493-0.715-6.932,0.324-9.344,2.507
	c-2.33,2.077-3.713,5.128-3.955,8.561c0.053-3.432-1.059-6.606-3.204-8.872c-2.217-2.363-5.571-3.707-9.138-3.26
	c-3.567,0.436-6.521,2.573-8.074,5.435c-1.528,2.765-1.76,6.144-0.774,9.476c-1.118-3.278-3.259-5.922-6.112-7.287
	c-2.924-1.421-6.622-1.428-9.833,0.402c-3.217,1.818-5.131,5.066-5.359,8.322c-0.234,3.145,1.026,6.237,3.316,8.774
	c-2.429-2.412-5.455-3.821-8.601-3.718c-3.278,0.07-6.628,1.892-8.571,5.134c-1.959,3.233-2.001,7.04-0.543,9.97
	c1.429,2.967,4.305,5.07,7.767,6.046c1.88-6.525,5.403-12.405,10.304-17.056c4.883-4.663,11.05-8.112,17.745-10.222c0,0,0,0,0,0
	c6.698-2.115,13.891-2.994,21.05-2.67c0,0,0,0,0,0c7.168,0.304,14.31,1.779,21.021,4.319c0,0,0,0,0,0
	c6.695,2.544,12.967,6.154,18.404,10.727c5.462,4.563,10.049,10.101,13.582,16.274c1.562-0.881,2.906-1.999,3.96-3.289
	c1.054,1.29,2.398,2.408,3.96,3.289c3.531-6.17,8.116-11.707,13.576-16.269c0,0,0,0,0,0c5.444-4.582,11.728-8.197,18.436-10.742
	c0,0,0,0,0,0c6.71-2.536,13.85-4.009,21.016-4.31c0,0,0,0,0,0c7.159-0.322,14.352,0.56,21.048,2.677c0,0,0,0,0,0
	c6.689,2.111,12.851,5.559,17.729,10.219c0,0,0,0,0,0c4.899,4.65,8.421,10.53,10.3,17.053c3.462-0.976,6.339-3.078,7.767-6.045
	C315.291,103.665,315.25,99.859,313.291,96.626z M94.692,106.348c-1.405,1.03-3.852,0.834-3.862,0.832
	c-0.004,0.021-0.151-2.258,1.374-3.393c1.544-1.113,3.909-0.51,3.915-0.504C96.114,103.303,96.086,105.325,94.692,106.348z
	 M92.245,101.85c-1.881-1.004-2.475-3.36-2.46-3.371c-0.002-0.021,2.365-0.59,4.129,0.604c1.73,1.173,2.394,3.348,2.412,3.34
	C96.33,102.407,94.088,102.832,92.245,101.85z M99.03,99.149c-0.249,1.713-2.025,2.679-2.044,2.691
	c0.004,0.006-1.65-1.816-1.377-3.694c0.288-1.882,2.373-2.812,2.358-2.798C97.961,95.346,99.296,97.439,99.03,99.149z
	 M108.074,90.509c-1.751,0.195-3.762-1.204-3.765-1.204c-0.02,0.005,0.999-2.039,2.9-2.257c1.871-0.24,3.687,1.499,3.674,1.484
	C110.863,88.535,109.813,90.313,108.074,90.509z M111.49,87.866c0.002-0.023-2.156-0.701-3.285-2.488
	c-1.125-1.78-0.522-4.157-0.501-4.147c0.012-0.007,2.349,0.658,3.313,2.535C111.982,85.642,111.478,87.873,111.49,87.866z
	 M115.527,86.252c-1.071,1.408-3.141,1.416-3.152,1.43c-0.001,0.003-0.559-2.414,0.592-3.927c1.155-1.522,3.436-1.393,3.425-1.377
	C116.398,82.393,116.591,84.814,115.527,86.252z M127.814,82.322c-1.722-0.506-2.981-2.644-2.982-2.641
	c-0.013,0.009,1.766-1.431,3.604-0.88c1.826,0.547,2.834,2.811,2.831,2.803C131.254,81.609,129.534,82.844,127.814,82.322z
	 M130.022,77.661c-0.334-2.093,1.127-4.024,1.14-4.012c0.011,0.001,1.898,1.49,2.089,3.603c0.189,2.089-1.155,3.981-1.144,3.977
	C132.115,81.215,130.353,79.735,130.022,77.661z M136.549,81.235c-1.549,0.923-3.525,0.148-3.536,0.154
	c-0.002-0.006,0.421-2.432,2.058-3.42c1.646-0.977,3.731-0.044,3.718-0.035C138.789,77.948,138.103,80.284,136.549,81.235z
	 M149.645,81.791c-1.479-1.055-1.957-3.482-1.959-3.476c-0.012-0.008,2.146-0.765,3.705,0.354c1.557,1.095,1.782,3.587,1.783,3.575
	C153.164,82.231,151.118,82.851,149.645,81.791z M154.098,82.149c0.01,0.002-1.191-1.968-0.831-4.046
	c0.361-2.079,2.359-3.438,2.369-3.436c0.011-0.002,1.311,2.042,0.822,4.093C155.969,80.812,154.089,82.143,154.098,82.149z
	 M158.331,83.575c-1.772,0.398-3.407-0.981-3.421-0.974c-0.005,0.014,1.187-2.192,3.048-2.581c1.874-0.414,3.559,1.133,3.546,1.135
	C161.504,81.146,160.104,83.198,158.331,83.575z M173.777,89.757c-0.014-0.001-2.136-0.072-3.198-1.535
	c-1.065-1.467-0.763-3.911-0.76-3.917c-0.014-0.001,2.277-0.051,3.402,1.501C174.341,87.353,173.774,89.764,173.777,89.757z
	 M175.175,85.865c1.003-1.864,3.335-2.52,3.337-2.502c0.009,0.005,0.602,2.343-0.517,4.131c-1.119,1.788-3.33,2.468-3.321,2.473
	C174.69,89.96,174.178,87.716,175.175,85.865z M178.21,92.661c-1.792-0.195-2.895-2.016-2.911-2.015
	c0-0.002,1.813-1.689,3.709-1.475c1.902,0.214,2.997,2.217,2.979,2.218C181.985,91.389,180.014,92.851,178.21,92.661z
	 M188.188,101.038c-0.496-1.738,0.6-3.93,0.606-3.938c-0.01-0.009,2.161,0.714,2.695,2.552c0.525,1.836-0.832,3.905-0.828,3.899
	C190.647,103.546,188.689,102.762,188.188,101.038z M191.431,104.052c0.02-0.002,0.306-2.278,1.873-3.681
	c1.577-1.411,3.999-1.231,3.993-1.212c0.007,0.008-0.237,2.412-1.903,3.706C193.728,104.159,191.424,104.044,191.431,104.052z
	 M197.797,107.893c0.007-0.006-2.371,0.696-3.981-0.111c-1.616-0.794-2.014-2.879-2.034-2.881c-0.004,0.001,2.287-0.972,3.985-0.115
	C197.479,105.642,197.814,107.899,197.797,107.893z M206.184,107.782c-1.611,0.807-3.988,0.105-3.981,0.111
	c-0.017,0.006,0.317-2.251,2.03-3.106c1.698-0.857,3.988,0.116,3.984,0.115C208.198,104.904,207.801,106.988,206.184,107.782z
	 M204.606,102.865c-1.666-1.294-1.91-3.698-1.902-3.706c-0.005-0.019,2.415-0.199,3.991,1.213c1.567,1.403,1.855,3.678,1.874,3.68
	C208.577,104.044,206.272,104.159,204.606,102.865z M211.812,101.038c-0.502,1.724-2.46,2.509-2.474,2.513
	c0.004,0.006-1.353-2.063-0.828-3.899c0.534-1.839,2.705-2.561,2.695-2.552C211.211,97.108,212.308,99.301,211.812,101.038z
	 M221.79,92.661c-1.804,0.191-3.776-1.271-3.777-1.272c-0.018-0.001,1.076-2.005,2.98-2.219c1.895-0.213,3.708,1.474,3.708,1.476
	C224.685,90.645,223.582,92.465,221.79,92.661z M225.326,89.967c0.009-0.005-2.201-0.686-3.32-2.473
	c-1.12-1.788-0.527-4.126-0.517-4.131c0.002-0.018,2.333,0.639,3.337,2.502C225.821,87.716,225.309,89.96,225.326,89.967z
	 M229.421,88.222c-1.062,1.463-3.184,1.533-3.197,1.534c0.002,0.007-0.564-2.404,0.556-3.951c1.126-1.552,3.416-1.502,3.403-1.501
	C230.184,84.311,230.486,86.755,229.421,88.222z M241.689,83.569c-1.773-0.377-3.172-2.43-3.171-2.422
	c-0.014-0.001,1.671-1.549,3.546-1.134c1.861,0.391,3.052,2.596,3.047,2.582C245.097,82.59,243.461,83.968,241.689,83.569z
	 M245.923,82.145c0.009-0.007-1.871-1.337-2.359-3.39c-0.488-2.051,0.812-4.096,0.823-4.092c0.009-0.002,2.009,1.357,2.368,3.436
	C247.115,80.177,245.913,82.147,245.923,82.145z M250.376,81.788c-1.473,1.059-3.519,0.439-3.53,0.451
	c0.001,0.012,0.227-2.479,1.784-3.574c1.56-1.118,3.718-0.361,3.706-0.353C252.334,78.307,251.855,80.732,250.376,81.788z
	 M263.472,81.236c-1.553-0.952-2.238-3.287-2.239-3.301c-0.013-0.009,2.073-0.942,3.718,0.036c1.637,0.987,2.059,3.415,2.057,3.421
	C266.996,81.385,265.02,82.16,263.472,81.236z M267.914,81.231c0.01,0.004-1.332-1.887-1.143-3.977
	c0.191-2.111,2.079-3.602,2.09-3.603c0.013-0.012,1.473,1.921,1.139,4.012C269.668,79.738,267.906,81.217,267.914,81.231z
	 M272.206,82.325c-1.719,0.522-3.439-0.714-3.451-0.719c-0.003,0.008,1.005-2.257,2.832-2.802c1.837-0.551,3.616,0.89,3.603,0.882
	C275.189,79.681,273.928,81.821,272.206,82.325z M287.625,87.682c-0.01-0.014-2.081-0.022-3.152-1.43
	c-1.064-1.439-0.87-3.86-0.864-3.874c-0.011-0.015,2.27-0.144,3.425,1.377C288.184,85.268,287.625,87.685,287.625,87.682z
	 M288.982,83.766c0.964-1.877,3.301-2.542,3.313-2.535c0.022-0.01,0.625,2.367-0.499,4.147c-1.129,1.787-3.289,2.465-3.287,2.487
	C288.522,87.873,288.018,85.642,288.982,83.766z M291.926,90.509c-1.74-0.196-2.789-1.975-2.81-1.977
	c-0.012,0.015,1.803-1.724,3.676-1.484c1.899,0.218,2.919,2.261,2.898,2.256C295.687,89.305,293.676,90.705,291.926,90.509z
	 M300.969,99.15c-0.267-1.711,1.069-3.804,1.064-3.802c-0.016-0.015,2.07,0.916,2.357,2.798c0.273,1.878-1.381,3.7-1.377,3.694
	C302.994,101.828,301.218,100.862,300.969,99.15z M309.169,107.18c-0.011,0.003-2.457,0.198-3.863-0.831
	c-1.394-1.024-1.421-3.047-1.427-3.066c0.006-0.006,2.371-0.609,3.915,0.504C309.32,104.922,309.173,107.201,309.169,107.18z
	 M307.755,101.85c-1.843,0.982-4.085,0.557-4.081,0.574c0.019,0.008,0.682-2.169,2.411-3.341c1.765-1.194,4.132-0.624,4.131-0.603
	C310.23,98.491,309.635,100.847,307.755,101.85z M146.555,306.663c-8.256-2.375-16.319-5.352-24.175-8.86c0,0,0,0,0-0.001
	c-7.863-3.505-15.52-7.542-23.015-11.941c-5.027,7.703-3.752,17.169,3.152,20.776c6.716,3.498,15.406-0.293,19.487-8.078
	c-3.588,7.991-1.056,16.832,6.162,19.482c3.669,1.36,7.698,0.721,11.031-1.376c3.239-2.022,5.829-5.411,7.22-9.574
	c-1.224,4.209-1.004,8.41,0.541,11.808c1.58,3.518,4.578,6.174,8.416,6.98c7.53,1.607,14.713-4.413,16.324-12.974
	c-1.062,8.649,4,16.416,11.602,17.05c7.832,0.675,14.345-6.559,14.574-15.642c-8.762-0.31-17.466-1.016-26.043-2.257
	C163.255,310.821,154.809,309.043,146.555,306.663z M100.612,293.468c0.003-0.006,2.296-2.131,4.54-2.139
	c2.231,0.005,3.626,2.144,3.631,2.148c0.002-0.002-2.223,2.22-4.498,2.217C102.005,295.687,100.605,293.469,100.612,293.468z
	 M108.816,299.322c-1.292,2.338-4.048,3.361-4.052,3.358c-0.004-0.002-0.607-2.772,0.74-5.083c1.347-2.31,4.045-3.333,4.041-3.336
	C109.541,294.26,110.108,296.983,108.816,299.322z M115.091,300.998c0.004,0.008-2.698,0.097-3.943-1.73
	c-1.241-1.827-0.501-4.824-0.502-4.82c0.006,0,2.636-0.041,3.849,1.744C115.701,297.994,115.093,300.99,115.091,300.998z
	 M124.5,305.198c0,0.001,2.007-2.387,4.212-2.667c2.194-0.264,3.848,1.669,3.851,1.68c0.001,0.001-1.888,2.471-4.145,2.757
	C126.162,307.231,124.489,305.203,124.5,305.198z M133.393,309.997c-0.95,2.485-3.542,3.838-3.547,3.836
	c-0.009,0.005-0.993-2.665,0.033-5.13c1.021-2.451,3.545-3.812,3.542-3.821C133.416,304.88,134.343,307.512,133.393,309.997z
	 M139.836,310.831c0.011-0.008-2.658,0.467-4.144-1.197c-1.489-1.637-1.163-4.711-1.164-4.706c0.003,0.012,2.589-0.394,4.028,1.226
	C140.006,307.753,139.836,310.83,139.836,310.831z M153.912,314.883c-2.193,0.602-4.149-1.202-4.145-1.19
	c0.001,0,1.622-2.66,3.75-3.229c2.131-0.592,4.057,1.117,4.067,1.108C157.585,311.572,156.096,314.301,153.912,314.883z
	 M159.299,317.184c-0.559,2.602-2.909,4.299-2.915,4.296c-0.006-0.001-1.393-2.498-0.761-5.075c0.632-2.577,2.918-4.286,2.912-4.288
	C158.53,312.117,159.853,314.599,159.299,317.184z M161.517,316.504c-1.721-1.428-1.881-4.487-1.879-4.492
	c0.006,0.005,2.503-0.757,4.18,0.64c1.683,1.387,1.981,4.461,1.984,4.457C165.808,317.11,163.245,317.924,161.517,316.504z
	 M189.911,315.806c1.867,1.185,2.553,4.185,2.553,4.188c0.006-0.002-2.437,1.119-4.338-0.095c-1.902-1.193-2.475-4.235-2.474-4.231
	C185.653,315.677,188.05,314.615,189.911,315.806z M186.011,320.845c-0.207,2.641-2.303,4.621-2.308,4.621
	c-0.005,0-1.714-2.297-1.445-4.941c0.267-2.627,2.31-4.612,2.305-4.613C184.558,315.911,186.218,318.204,186.011,320.845z
	 M179.326,314.902c2.041-0.861,4.206,0.595,4.213,0.589c0,0.005-1.106,2.879-3.192,3.746c-2.089,0.869-4.289-0.651-4.284-0.643
	C176.063,318.594,177.286,315.744,179.326,314.902z M277.604,297.594C277.604,297.594,277.604,297.594,277.604,297.594
	c-7.828,3.488-15.864,6.442-24.095,8.795c0,0,0,0,0,0c-8.224,2.355-16.641,4.108-25.189,5.321
	c-8.55,1.215-17.226,1.895-25.964,2.179c0.257,9.083,6.774,16.336,14.583,15.685c7.579-0.612,12.602-8.364,11.517-17.016
	c1.633,8.566,8.814,14.607,16.319,13.023c3.826-0.795,6.807-3.443,8.371-6.955c1.53-3.393,1.736-7.591,0.504-11.803
	c1.401,4.165,3.994,7.559,7.229,9.59c3.331,2.106,7.351,2.757,11.005,1.409c7.19-2.629,9.688-11.465,6.082-19.469
	c4.092,7.8,12.772,11.619,19.46,8.141c6.875-3.587,8.117-13.048,3.08-20.766C293.049,290.102,285.43,294.113,277.604,297.594z
	 M212.095,319.501c-1.892,1.209-4.332,0.08-4.327,0.082c0-0.003,0.675-3.001,2.533-4.18c1.852-1.186,4.245-0.116,4.249-0.126
	C214.55,315.274,213.988,318.314,212.095,319.501z M216.521,325.081c-0.005,0.001-2.101-1.986-2.315-4.628
	c-0.214-2.641,1.433-4.929,1.428-4.929c-0.004,0.001,2.038,1.992,2.313,4.62C218.224,322.789,216.526,325.081,216.521,325.081z
	 M219.849,318.863c-2.082-0.873-3.193-3.751-3.193-3.755c0.006,0.006,2.16-1.443,4.199-0.576c2.036,0.848,3.265,3.702,3.265,3.702
	C224.125,318.224,221.936,319.738,219.849,318.863z M238.619,316.185c-1.719,1.415-4.277,0.594-4.27,0.592
	c0.002,0.005,0.29-3.069,1.964-4.45c1.668-1.392,4.16-0.624,4.166-0.628C240.481,311.704,240.331,314.763,238.619,316.185z
	 M243.752,321.176c-0.005,0.003-2.355-1.701-2.919-4.305c-0.56-2.585,0.751-5.064,0.746-5.064c-0.006,0.002,2.279,1.717,2.917,4.296
	C245.134,318.683,243.758,321.175,243.752,321.176z M246.198,314.587c-2.18-0.589-3.673-3.322-3.673-3.322
	c0.01,0.009,1.926-1.695,4.052-1.097c2.124,0.575,3.749,3.24,3.75,3.24C250.332,313.397,248.386,315.195,246.198,314.587z
	 M264.351,309.392c-1.477,1.66-4.139,1.176-4.129,1.185c0.001-0.001-0.179-3.078,1.262-4.673c1.429-1.616,4.009-1.202,4.013-1.215
	C265.496,304.685,265.83,307.76,264.351,309.392z M270.195,313.608c-0.006,0.002-2.595-1.358-3.55-3.846
	c-0.955-2.488-0.038-5.118-0.044-5.115c-0.003,0.009,2.518,1.378,3.544,3.831C271.177,310.946,270.203,313.614,270.195,313.608z
	 M271.598,306.747c-2.252-0.292-4.143-2.768-4.142-2.768c0.003-0.012,1.646-1.94,3.836-1.669c2.199,0.286,4.208,2.679,4.208,2.678
	C275.51,304.995,273.847,307.017,271.598,306.747z M288.796,299.098c-1.235,1.824-3.93,1.727-3.927,1.719
	c-0.002-0.007-0.617-3.005,0.581-4.804c1.204-1.78,3.827-1.732,3.833-1.733C289.281,294.275,290.028,297.275,288.796,299.098z
	 M295.172,302.53c-0.004,0.002-2.755-1.029-4.051-3.371c-1.296-2.343-0.739-5.065-0.743-5.062c-0.004,0.002,2.69,1.032,4.04,3.348
	C295.769,299.759,295.176,302.528,295.172,302.53z M295.63,295.544c-2.27-0.002-4.496-2.232-4.493-2.229
	c0.004-0.005,1.388-2.139,3.613-2.138c2.238,0.016,4.531,2.146,4.534,2.152C299.292,293.331,297.902,295.545,295.63,295.544z
	 M182.25,280.628c0.778,1.074,2.474,1.173,3.788,0.221l0.085-0.062c-0.078,2.148-1.849,3.871-4.015,3.871
	c-2.215,0-4.018-1.802-4.018-4.018s1.803-4.019,4.018-4.019c0.451,0,0.884,0.076,1.288,0.213l-0.173,0.125
	C181.909,277.912,181.473,279.554,182.25,280.628z M182.25,254.933c-0.777,1.074-0.341,2.716,0.974,3.668l0.1,0.072
	c-0.384,0.122-0.792,0.188-1.215,0.188c-2.215,0-4.018-1.802-4.018-4.018c0-2.216,1.803-4.019,4.018-4.019
	c2.193,0,3.981,1.767,4.017,3.952l-0.087-0.063C184.723,253.761,183.027,253.86,182.25,254.933z M182.25,197.31
	c-0.777,1.074-0.341,2.716,0.974,3.668l0.1,0.072c-0.383,0.122-0.792,0.188-1.215,0.188c-2.215,0-4.018-1.803-4.018-4.019
	c0-2.216,1.803-4.018,4.018-4.018c2.193,0,3.981,1.767,4.017,3.952l-0.087-0.063C184.723,196.137,183.027,196.236,182.25,197.31z
	 M182.25,165.381c0.778,1.074,2.474,1.172,3.788,0.22l0.085-0.062c-0.078,2.148-1.849,3.872-4.015,3.872
	c-2.215,0-4.018-1.803-4.018-4.019s1.803-4.018,4.018-4.018c0.451,0,0.884,0.076,1.288,0.213l-0.173,0.125
	C181.909,162.665,181.473,164.307,182.25,165.381z M182.25,139.686c-0.777,1.074-0.341,2.716,0.974,3.668l0.1,0.072
	c-0.384,0.122-0.792,0.188-1.215,0.188c-2.215,0-4.018-1.803-4.018-4.018c0-2.216,1.803-4.018,4.018-4.018
	c2.193,0,3.981,1.766,4.017,3.951l-0.087-0.063C184.723,138.513,183.027,138.612,182.25,139.686z M188.927,107.475
	c5.895,6.942,9.456,15.079,9.538,22.556c0,3.173,0,9.686,0,18.429l-9.84-7.122c0.149-0.556,0.229-1.14,0.229-1.742
	c0-3.72-3.026-6.746-6.746-6.746c-3.719,0-6.745,3.026-6.745,6.746c0,3.719,3.025,6.746,6.745,6.746c1.368,0,2.641-0.41,3.706-1.113
	l10.093,7.305l-10.035,7.264c-1.076-0.726-2.371-1.15-3.763-1.15c-3.719,0-6.745,3.026-6.745,6.746c0,3.719,3.025,6.746,6.745,6.746
	c3.719,0,6.746-3.026,6.746-6.746c0-0.579-0.073-1.14-0.211-1.677l9.822-7.109c0,13.804,0,31.285,0,49.477l-9.84-7.122
	c0.149-0.556,0.229-1.14,0.229-1.742c0-3.719-3.026-6.745-6.746-6.745c-3.719,0-6.745,3.025-6.745,6.745
	c0,3.719,3.025,6.746,6.745,6.746c1.368,0,2.641-0.41,3.705-1.113l10.093,7.305l-10.036,7.264c-1.076-0.725-2.37-1.149-3.763-1.149
	c-3.719,0-6.745,3.025-6.745,6.746c0,3.719,3.025,6.745,6.745,6.745c3.719,0,6.746-3.025,6.746-6.745
	c0-0.579-0.073-1.141-0.211-1.677l9.822-7.109c0,17.054,0,34.342,0,49.476l-9.84-7.122c0.149-0.556,0.229-1.139,0.229-1.742
	c0-3.719-3.026-6.746-6.746-6.746c-3.719,0-6.745,3.026-6.745,6.746c0,3.719,3.025,6.745,6.745,6.745
	c1.368,0,2.641-0.41,3.705-1.113l10.093,7.305l-10.036,7.263c-1.076-0.725-2.37-1.149-3.762-1.149c-3.719,0-6.745,3.026-6.745,6.746
	s3.025,6.746,6.745,6.746c3.719,0,6.746-3.026,6.746-6.746c0-0.579-0.073-1.14-0.211-1.677l9.822-7.109c0,22.643,0,38.745,0,38.745
	c-16.823-0.105-33.577-2.508-49.976-7.169c-16.385-4.609-32.416-11.477-47.474-19.309c0-19.867,36.656-27.614,32.274-59.361
	c-4.248-32.336-25.556-75.398-36.991-98.702c-2.664-4.864-1.582-12.323,3.216-20.185c4.822-7.713,13.361-15.828,26.148-18.573
	c2.159-0.267,7.92-1.696,15.358-1.575c7.43,0.032,16.536,1.615,25.184,5.331C174.862,94.709,183.062,100.495,188.927,107.475z
	 M182.25,223.005c0.778,1.074,2.474,1.172,3.788,0.22l0.085-0.062c-0.077,2.147-1.848,3.872-4.015,3.872
	c-2.215,0-4.018-1.803-4.018-4.018c0-2.216,1.803-4.019,4.018-4.019c0.451,0,0.884,0.076,1.288,0.213l-0.173,0.125
	C181.909,220.289,181.473,221.931,182.25,223.005z M217.75,165.381c0.777-1.074,0.341-2.716-0.974-3.668l-0.173-0.125
	c0.405-0.137,0.838-0.213,1.288-0.213c2.216,0,4.018,1.802,4.018,4.018s-1.802,4.019-4.018,4.019c-2.166,0-3.937-1.724-4.015-3.872
	l0.085,0.062C215.276,166.554,216.972,166.455,217.75,165.381z M217.75,197.31c-0.778-1.074-2.474-1.173-3.788-0.22l-0.087,0.063
	c0.036-2.185,1.824-3.952,4.017-3.952c2.216,0,4.018,1.802,4.018,4.018c0,2.216-1.802,4.019-4.018,4.019
	c-0.423,0-0.831-0.066-1.215-0.188l0.1-0.072C218.091,200.026,218.527,198.384,217.75,197.31z M217.75,139.686
	c-0.778-1.074-2.474-1.173-3.788-0.221l-0.087,0.063c0.036-2.185,1.824-3.951,4.017-3.951c2.216,0,4.018,1.803,4.018,4.018
	c0,2.216-1.802,4.018-4.018,4.018c-0.423,0-0.831-0.066-1.215-0.188l0.1-0.072C218.091,142.402,218.527,140.76,217.75,139.686z
	 M217.75,280.628c0.777-1.074,0.341-2.716-0.974-3.668l-0.173-0.125c0.405-0.137,0.838-0.213,1.288-0.213
	c2.216,0,4.018,1.803,4.018,4.019s-1.802,4.018-4.018,4.018c-2.166,0-3.937-1.723-4.015-3.871l0.085,0.062
	C215.276,281.801,216.972,281.702,217.75,280.628z M299.611,105.212c5.303,8.057,7.059,16.061,4.372,20.935
	c-11.425,23.271-32.729,66.313-36.976,98.638c-4.381,31.738,32.271,39.468,32.271,59.347c-15.058,7.826-31.089,14.69-47.473,19.298
	c-16.399,4.66-33.153,7.065-49.977,7.169c0,0,0-15.999,0-38.533l9.529,6.897c-0.138,0.536-0.211,1.098-0.211,1.677
	c0,3.719,3.026,6.746,6.746,6.746c3.719,0,6.745-3.026,6.745-6.746s-3.025-6.746-6.745-6.746c-1.392,0-2.687,0.424-3.762,1.149
	l-10.036-7.263l10.093-7.305c1.064,0.702,2.337,1.113,3.705,1.113c3.719,0,6.745-3.025,6.745-6.745c0-3.719-3.025-6.746-6.745-6.746
	c-3.719,0-6.746,3.026-6.746,6.746c0,0.602,0.08,1.186,0.229,1.742l-9.547,6.91c0-15.018,0-32.142,0-49.052l9.529,6.897
	c-0.138,0.536-0.211,1.098-0.211,1.677c0,3.719,3.026,6.745,6.746,6.745c3.719,0,6.745-3.025,6.745-6.745
	c0-3.72-3.025-6.746-6.745-6.746c-1.392,0-2.687,0.424-3.763,1.149l-10.036-7.264l10.093-7.305c1.064,0.702,2.337,1.113,3.705,1.113
	c3.719,0,6.745-3.026,6.745-6.746c0-3.719-3.025-6.745-6.745-6.745c-3.719,0-6.746,3.025-6.746,6.745
	c0,0.602,0.081,1.186,0.229,1.742l-9.547,6.91c0-18.009,0-35.317,0-49.052l9.529,6.897c-0.138,0.536-0.211,1.098-0.211,1.677
	c0,3.719,3.026,6.746,6.746,6.746c3.719,0,6.745-3.026,6.745-6.746c0-3.719-3.025-6.746-6.745-6.746
	c-1.392,0-2.687,0.424-3.763,1.15l-10.035-7.264l10.093-7.305c1.064,0.703,2.338,1.113,3.706,1.113c3.719,0,6.745-3.026,6.745-6.746
	c0-3.72-3.025-6.746-6.745-6.746c-3.719,0-6.746,3.026-6.746,6.746c0,0.602,0.08,1.186,0.229,1.742l-9.547,6.91
	c0-8.554,0-14.972,0-18.217c0.081-7.463,3.711-15.663,9.685-22.64c5.944-7.02,14.233-12.816,22.913-16.461
	c8.669-3.711,17.73-5.271,24.969-5.326c7.248-0.143,12.675,1.22,14.309,1.319C285.439,89.263,294.299,97.265,299.611,105.212z
	 M217.75,254.933c-0.778-1.074-2.474-1.172-3.788-0.22l-0.087,0.063c0.036-2.185,1.824-3.952,4.017-3.952
	c2.216,0,4.018,1.803,4.018,4.019c0,2.216-1.802,4.018-4.018,4.018c-0.423,0-0.831-0.066-1.215-0.188l0.1-0.072
	C218.091,257.649,218.527,256.007,217.75,254.933z M217.75,223.005c0.777-1.074,0.341-2.716-0.974-3.668l-0.173-0.125
	c0.405-0.137,0.838-0.213,1.288-0.213c2.216,0,4.018,1.803,4.018,4.019c0,2.215-1.802,4.018-4.018,4.018
	c-2.167,0-3.938-1.724-4.015-3.872l0.085,0.062C215.276,224.177,216.972,224.079,217.75,223.005z"/>
</svg>
