<svg width="400" height="400" viewBox="0 0 400 400" fill="none" xmlns="http://www.w3.org/2000/svg">
<path style="fill:#0000FF;" d="M307.871,215.91c-0.829-0.554,1.09-4.786,2.221-7.281c1.306-2.88,5.694-12.047,6.637-15.963
	c0.155-0.644,0.407-2.072-0.279-2.852c-0.218-0.248-0.535-0.438-0.989-0.542c-1.783-0.408-2.083,1.275-2.551,2.524
	c-1.874,5-4.361,9.663-7.044,14.219c-2.078,3.527-3.769,6.73-7.776,12.803c-7.03,10.656-11.809,16.16-18.861,25.404
	c-10.909,14.301-8.253,13.007-15.969,22.328c-6.015,7.267-11.475,12.356-22.395,22.535c-7.645,7.127-15.117,14.051-25.935,22.164
	c-6.952,5.213-10.127,8.464-15.657,10.647c-10.683,4.217-21.205,9.997-33.499,7.499c-5.464-1.11-7.889-5.507-10.749-9.446
	c-7.769-10.701-15.835-21.209-23.128-32.227c-9.362-14.144-19.98-27.532-27.742-42.652c-6.534-12.727-14.069-24.969-19.434-38.277
	c-4.049-10.043-8.093-20.01-10.25-30.814c-1.987-9.951-3.983-19.875-3.686-29.931c0.323-10.945,1.55-22.129,7.13-31.812
	c5.427-9.418,12.771-17.332,21.882-23.705c7.028-4.917,14.415-8.484,22.687-10.419c9.97-2.331,19.563-0.78,29.098,2.475
	c11.607,3.962,19.744,12.497,28.049,20.807c2.336,2.337,3.866,2.377,5.893-0.244c7.508-9.707,16.227-17.935,27.477-23.37
	c7.022-3.392,12.341-5.762,18.128-7.271c17.358-4.525,31.52-1.737,35.854-0.757c2.607,0.59,11.235,2.915,21.487,8.573
	c15.79,8.714,26.739,22.029,34.169,38.066c3.148,6.793,4.611,14.37,5.717,22.02c1.871,12.946,0.336,23.219-0.452,28.71
	c-1.129,7.861-2.867,13.917-4.168,18.45c-1.186,4.134-2.002,6.262-2.649,7.8c-0.614,1.461-0.456,0.916-3.877,8.023
	c0,0-0.956,1.986-2.715,5.361c-1.176,2.257-1.66,3.104-2.468,4.072C310.743,214.363,308.528,216.349,307.871,215.91z
	 M174.147,279.131c-0.447,0.406-3.83-2.757-18.199-16.123c-6.698-6.231-13.5-12.349-20.237-18.538
	c-5.175-4.754-10.258-9.61-16.338-13.249c-1.057-0.633-2.125-1.128-3.228-0.355c-0.351,0.246-0.541,0.506-0.623,0.774
	c-0.244,0.799,0.325,1.726,0.566,2.076c3.236,4.704,5.162,6.42,5.162,6.421c2.192,1.954,3.904,4.39,5.95,6.497
	c5.769,5.938,7.348,10.998,17.483,20.85c9.157,8.901,16.642,19.375,26.147,27.945c1.243,1.121,2.238,3.101,4.82,1.556
	c5.441-3.257,9.476-8.156,14.571-11.825c4.891-3.523,9.354-7.654,13.913-11.623c6.42-5.589,13.187-10.867,19.011-17.029
	c6.658-7.043,13.14-14.286,19.244-21.878c6.223-7.741,12.714-15.25,17.639-23.903c3.813-6.699,7.132-13.606,9.83-20.91
	c5.324-14.413,10.377-23.516,10.358-34.131c-0.003-1.527-0.089-3.319-0.109-3.738c-0.37-7.665-0.669-13.871-3.414-19.991
	c-1.356-3.024-3.235-5.403-6.993-10.16c-3.114-3.942-5.995-6.992-8.103-9.09c1.319-0.059,3.159-0.042,5.313,0.31
	c6.585,1.075,11.098,4.469,12.95,6.025c6.106,5.129,8.161,12.536,9.412,16.746c0.995,3.348,1.704,7.208,2.352,7.138
	c0.451-0.049,0.609-1.973,0.713-3.236c0.064-0.784,0.175-2.644-0.274-5.868c-0.388-2.785-0.95-4.848-1.097-5.375
	c0,0-0.867-3.113-2.331-6.265c-5.577-12.001-16.62-20.247-16.62-20.247c-3.19-2.382-8.845-6.519-17.39-8.715
	c-11.046-2.839-20.303-0.733-25.031,0.4c-1.33,0.319-5.995,1.486-11.624,4.114c-2.81,1.312-4.866,2.524-20.183,13.492
	c0,0-1.096,0.785-3.784,3.126c-2.546,2.218-3.006,2.861-3.291,3.675c-0.561,1.604,0.026,2.538-0.768,3.236
	c-0.751,0.66-1.616,0.123-3.236,0.494c-0.995,0.227-1.776,0.682-3.126,1.755c-2.908,2.31-7.594,6.798-9.871,8.206
	c-0.469,0.29-1.388,0.793-2.166,0.483c-0.922-0.368-0.836-1.271-0.792-2.008c0.244-4.13,0.782-8.134,3.171-11.758
	c1.181-1.791,3.502-4.448,0.101-5.999c-10.12-4.619-19.3-11.412-30.86-12.77c-3.736-0.439-7.291-0.394-11.314,1.254
	c-2.543,1.042-3.753,2.184-7.557,4.549c-3.795,2.36-7.054,3.997-9.22,5.014c3.067-5.58,8.424-8.518,13.65-11.511
	c5.632-3.226,12.074-2.594,19.435-3.057c-3.792-3.131-7.414-4.563-10.747-4.093c-5.963,0.841-11.622,2.865-17.04,6.014
	c-16.711,9.713-23.836,24.706-24.643,43.194c-0.429,9.825,2.58,19.174,5.149,28.606c3.221,11.824,8.628,22.541,14.87,32.891
	c5.28,8.756,10.845,16.176,22.151,30.913c4.853,6.326,7.684,10.016,12.061,15.172c5.799,6.831,8.734,9.666,14.441,16.762
	C166.497,267.978,174.91,278.44,174.147,279.131z"/>
</svg>
