<svg width="400" height="400" viewBox="0 0 400 400" fill="none" xmlns="http://www.w3.org/2000/svg">
<path style="fill:#0000FF;" d="M327.925,177.591c0-2.429,2.263-3.11,4.889-7.944c0.571-1.051,1.668-3.106,2.269-5.896
	c0.972-4.515,0.056-8.219-0.436-10.115c-0.817-3.15-1.571-5.849-3.874-8.094c-1.853-1.806-4.497-2.831-8.714-3.761
	c-9.655-2.2-10.144-3.055-4.767-8.067c2.689-2.567,4.522-5.5,4.522-7.211c0-1.467-2.567-6.233-5.622-10.389
	c-1.523-1.728-3.047-3.457-4.57-5.185c-0.604-0.584-1.394-1.204-2.399-1.706c-3.685-1.841-7.452-0.699-8.552-0.32
	c-7.359,1.1-9.456-0.156-10.301-1.322c-0.919-1.269-0.401-3.548,0.89-7.477c2.078-6.111-0.122-9.411-8.922-14.544
	c-7.944-4.644-10.755-4.644-15.889,0c-5.867,5.011-7.822,4.767-9.411-1.589c-1.589-6.6-2.567-8.189-6.233-10.755
	c-3.178-2.322-17.966-4.156-20.166-2.689c-0.733,0.611-2.933,3.422-4.767,6.478l-3.422,5.378l-5.011-5.744
	c-4.278-4.889-5.622-5.744-9.289-5.622c-8.067,0.122-16.133,3.789-19.189,8.433c-5.867,9.411-6.844,10.144-10.267,8.555
	c-4.4-1.956-6.967-0.489-14.422,8.555c-4.889,5.867-6.111,8.311-6.844,13.689c-0.489,3.544-2.444,9.533-4.4,13.2
	c-6.967,13.567-9.655,22.855-9.655,33c0,7.822-0.367,9.778-2.444,11.611c-1.222,1.1-2.933,3.911-3.667,6.111
	c-1.344,4.033-3.544,5.5-11.855,7.822c-3.3,0.978-4.644,0.611-8.555-1.956c-7.7-5.255-9.9-5.622-15.766-2.689
	c-2.933,1.344-6.722,4.156-8.311,6.111c-2.811,3.3-8.555,19.555-9.533,26.766c-0.244,2.444-1.467,3.422-6.111,4.889
	c-3.178,0.978-6.233,2.322-6.967,3.056c-1.589,1.711-6.111,20.533-7.089,28.966c-0.856,8.555,0.122,10.144,8.433,12.589
	c3.422,0.978,6.967,2.444,7.822,3.178c2.689,2.2,1.956,11.367-1.467,21.022c-1.833,4.767-3.3,10.144-3.178,11.733
	c0,3.422,9.533,13.567,12.711,13.567c1.222,0,5.5-1.589,9.411-3.544l7.089-3.667l8.678,4.156c8.555,4.156,8.678,4.156,9.533,10.022
	c0.978,7.089,2.567,11.611,4.522,12.833c0.856,0.489,5.133,0.978,9.655,0.978c7.822,0,8.311-0.122,11.122-4.033
	c1.589-2.078,4.522-6.6,6.356-9.778c6.111-10.511,11.122-11.978,20.778-5.867c3.3,2.078,6.722,3.789,7.578,3.789
	c2.322,0,13.078-10.267,19.433-18.578c6.111-7.822,6.722-11.978,2.933-18.455l-2.444-4.033l5.622-5.378
	c9.778-9.289,18.578-21.266,19.066-25.789c0.367-3.911,0.489-3.789,1.956,2.322c0.856,3.667,2.078,7.578,2.689,8.8
	c1.589,2.933,8.433,4.889,17.111,4.889c6.6,0,6.722-0.122,13.689-7.578l7.089-7.578l4.033,3.911c2.2,2.2,5.011,3.911,6.356,3.911
	c4.033,0,17.111-9.533,25.789-18.822c14.055-15.033,22.978-26.155,25.3-31.655c1.222-2.811,2.811-6.111,3.422-7.211
	c1.956-3.667,1.222-6.478-2.567-10.144C329.636,180.768,327.925,178.446,327.925,177.591z M218.538,240.168v6.111l-6.478,0.733
	c-6.355,0.856-10.022,2.689-10.022,5.133c0,0.733-1.711,5.011-3.789,9.533l-3.789,8.189l4.4,7.944l4.4,7.944l-3.544,3.789
	c-1.956,2.078-4.156,3.789-4.889,3.789c-0.856,0-4.522-1.956-8.311-4.4c-7.456-4.767-7.578-4.767-19.922-0.122
	c-8.555,3.178-10.633,5.622-13.444,16.378l-1.344,5.255h-5.867c-3.3,0-6.478-0.733-7.211-1.589
	c-0.733-0.733-1.833-4.644-2.567-8.678c-0.733-3.911-1.833-7.822-2.567-8.678c-0.611-0.733-5.867-3.789-11.733-6.6l-10.389-5.255
	l-8.678,4.644l-8.678,4.522l-4.155-4.4c-2.2-2.444-4.033-5.255-4.033-6.111s2.2-4.644,4.889-8.189
	c2.689-3.544,4.889-7.333,4.889-8.189c0-3.789-5.622-20.655-7.333-22c-0.978-0.856-4.522-2.444-7.944-3.544
	c-8.433-2.811-9.289-3.789-7.944-9.533c1.222-5.744,2.078-6.356,11-7.333c8.433-0.978,9.167-1.589,15.278-11.611l4.644-7.822
	l-3.422-6.6c-3.3-6.355-3.3-6.6-1.1-9.044c4.767-5.255,6.355-5.255,14.3-0.367l7.333,4.522l7.822-2.078
	c12.955-3.422,13.322-3.667,15.644-10.389c1.956-6.111,2.2-6.233,6.722-6.233c5.5,0,8.555,3.178,8.555,8.922
	c0,1.956,1.222,4.644,2.933,6.356c0.723,0.723,1.625,1.401,2.593,1.994c0.542,0.415,1.093,0.651,4.796,2.602
	c2.672,1.409,2.576,1.388,3.688,1.943c0,0,1.825,0.917,6.121,2.391c0.224,0.077,0.719,0.242,1.38,0.236
	c0.023,0,0.237-0.003,0.475-0.034c2.176-0.285,3.893-1.051,3.893-1.051c4.458-1.99,6.711-2.996,9.415-3.46
	c0.356-0.061,0.688-0.107,1.001-0.143c0.548,0.985,1.299,2.031,2.205,2.977c1.711,1.833,3.055,3.789,3.055,4.278
	c0,0.611-1.467,3.789-3.3,7.089l-3.3,5.989l4.767,9.533c4.889,9.655,4.889,9.655,12.222,12.1l7.333,2.567V240.168z M329.636,194.702
	c-2.933,8.433-3.789,8.8-13.2,4.4c-5.622-2.567-9.044-3.544-11.244-3.056c-5.867,1.467-5.5,5.867,1.344,17.233l4.4,7.211
	l-4.033,3.422c-2.2,1.833-5.622,4.033-7.578,4.889c-3.544,1.467-3.789,1.344-11.733-7.455c-7.089-7.7-8.678-8.8-11.733-8.433
	c-3.422,0.367-3.544,0.611-4.522,9.533c-1.833,16.378-0.856,15.155-11.489,14.178c-5.133-0.367-9.533-0.978-9.9-1.344
	c-0.733-0.611-3.911-11.978-4.767-16.867c-0.856-4.155-5.744-8.189-10.144-8.189c-2.567,0-4.644,1.711-9.655,7.944
	c-3.544,4.4-6.722,7.944-7.089,7.944c-0.856,0-17.478-10.022-17.966-10.878c-0.367-0.489,0.856-5.011,2.689-10.144
	c2.811-8.433,2.933-9.778,1.467-12.711c-1.467-2.689-6.844-6.6-9.167-6.6c-1.493-0.358-2.756,0.009-3.066,0.096
	c-2.701,0.758-9.033,1.646-19.906,2.735c-0.26-1.143-1.776-4.1-3.795-7.23c-2.322-3.789-4.033-7.455-3.667-8.067
	c0.367-0.489,3.789-3.055,7.578-5.5c8.922-5.622,10.144-7.333,8.433-11.367c-1.956-4.767-5.011-7.455-9.533-8.555
	c-2.322-0.611-6.844-1.711-10.267-2.689l-6.111-1.589l-0.367-7.455c-0.244-5.011,0.122-7.822,1.222-8.678
	c0.856-0.733,6.111-1.589,11.733-1.956c5.5-0.367,10.633-1.1,11.244-1.467c0.733-0.367,1.222-2.322,1.222-4.4
	c0-2.933-1.344-4.522-7.333-9.289c-4.033-3.055-7.333-6.478-7.333-7.455c0-2.444,7.211-11.244,9.167-11.244
	c0.856,0,5.133,1.711,9.533,3.789c13.811,6.478,18.089,3.544,12.589-8.678c-1.833-4.155-2.933-7.944-2.444-8.433
	c1.344-1.1,10.511-3.789,13.078-3.789c0.978,0,4.767,3.055,8.311,6.722c5.744,6.111,6.967,6.844,10.755,6.478
	c3.911-0.367,4.4-0.733,5.255-5.255c2.078-10.633,2.078-10.755,5.011-9.778c1.467,0.489,4.644,1.1,6.967,1.467
	c5.867,0.856,6.967,1.956,9.044,9.411c3.3,11.367,8.189,13.2,15.644,5.989l4.522-4.4l4.767,2.078
	c2.689,1.222,6.233,3.422,7.944,5.133c2.811,2.567,3.056,3.3,1.956,6.844c-0.733,2.2-1.589,5.011-1.956,6.233
	c-0.367,1.344,0.489,3.422,2.078,5.133c3.178,3.422,8.8,4.033,14.055,1.589c4.4-1.956,7.944,0,12.711,7.211l3.911,5.867
	l-4.889,4.278c-8.311,7.211-5.867,13.2,6.478,16.011c3.276,0.746,6.63,1.703,9.533,4.4c1.058,0.983,1.71,1.929,2.136,2.92
	c0.491,1.143,0.594,2.146,0.553,5.146c-0.051,3.755-0.057,5.648-0.479,6.188c-1.167,1.496-3.643,2-7.954,2
	c-11.244,0-12.222,6.356-2.078,13.811C331.47,187.368,331.959,188.102,329.636,194.702z
	 M229.293,106.458c-12.833,2.444-22.489,9.289-28.233,20.044c-2.811,5.133-3.3,7.7-3.3,16.011
	c0,8.922,0.489,10.755,4.522,18.944c15.155,30.677,53.288,45.222,78.832,30.066c5.867-3.422,12.344-12.344,14.666-20.289
	c5.622-19.189-9.411-46.811-31.655-57.933C253.248,107.803,237.971,104.869,229.293,106.458z M242.982,132.002
	c22.855,9.778,36.666,36.177,27.744,53.411c-3.056,5.867-7.089,7.578-16.133,6.844c-25.422-2.2-49.255-23.711-51.088-46.199
	c-1.1-13.322,2.078-16.744,16.744-17.722C230.149,127.725,234.549,128.336,242.982,132.002z
	 M136.65,199.224c-11.855,3.056-18.944,8.678-24.078,19.189c-7.333,15.033-5.011,28.966,6.967,41.8
	c8.189,8.678,15.644,11.733,29.333,11.733c12.833,0,19.066-2.322,27.377-10.511c7.822-7.7,9.9-12.711,9.9-24.077
	c0-8.311-0.489-10.633-3.789-17.233C174.416,204.113,153.761,194.702,136.65,199.224z M151.805,217.679
	c5.5,1.833,15.522,11.244,18.7,17.478c3.422,6.844,3.544,19.066,0.244,23.589c-5.867,7.822-21.266,11.122-33.244,7.211
	c-7.455-2.567-16.5-10.267-20.044-16.989c-2.933-5.989-4.278-17.722-2.322-21.389C120.272,217.924,137.994,213.157,151.805,217.679z
	"/>
</svg>
