<svg width="400" height="400" viewBox="0 0 400 400" fill="none" xmlns="http://www.w3.org/2000/svg">
<path fill-rule="evenodd" clip-rule="evenodd" d="M154.804 115.334C151.652 116.262 150.206 117.939 150.719 120.072C151.028 121.354 150.649 121.181 148.362 118.998C144.78 115.579 141.88 115.754 141.88 119.388C141.88 120.745 137.808 120.618 135.983 119.204C134.261 117.872 114.425 117.859 112.049 119.189C111.858 119.296 111.39 119.444 111.008 119.518C110.627 119.592 109.846 119.831 109.274 120.049C108.702 120.267 106.435 120.983 104.237 121.64C98.7079 123.294 90.4339 128.289 85.8141 132.764C81.3316 137.106 81.8645 136.886 80.0089 135.157C77.6046 132.918 74.587 136.076 74.587 140.831C74.587 141.918 74.1542 141.705 72.2388 139.674C69.0501 136.292 64.1817 137.747 64.1817 142.081C64.1817 143.937 70.8337 151.084 72.5622 151.084C73.999 151.084 73.0539 152.364 70.9824 153.221C63.6834 156.245 48.7573 176.452 50.0819 181.517C51.1186 185.48 67.8928 189.863 70.4112 186.828C70.8786 186.265 72.178 182.285 73.2998 177.983C75.7995 168.396 75.3535 169.867 77.5111 164.092C78.5085 161.422 78.9367 161.673 80.3959 165.783C83.5827 174.753 101.432 185.536 110.942 184.235C113.073 183.943 113.283 186.84 111.285 188.968C110.025 190.309 109.268 190.558 107.477 190.222C104.852 189.73 102.339 191.708 102.333 194.269C102.33 195.504 100.631 196.907 94.1815 200.996C74.6384 213.387 68.3565 220.088 70.4215 226.343C72.7856 233.507 78.6646 232.716 91.7267 223.476C100.282 217.424 105.635 215.713 105.902 218.943C106.098 221.323 106.385 226.041 107.248 241.15L108.134 256.64L110.612 256.138C115.859 255.076 115.653 254.898 117.619 262.171C122.161 278.976 128.875 286.803 136.031 283.638C141.871 281.054 143.096 274.341 140.846 257.277C139.672 248.379 139.642 248.509 143.119 247.543C146.956 246.476 147.18 246.57 148.452 249.768C157.254 271.896 162.735 278.058 170.476 274.531C176.19 271.927 177.135 259.239 172.668 245.085C171.375 240.989 171.907 239.59 175.006 238.927C178.883 238.099 179.189 239.16 169.528 219.973C159.051 199.165 158.38 200.985 176.489 201.075C193.122 201.156 196.685 199.917 196.685 194.055C196.685 191.014 189.919 184.599 188.123 185.936C187.989 186.035 187.441 185.754 186.906 185.311C185.476 184.126 176.316 183.012 163.957 182.521L153.083 182.089L151.623 180.114C149.841 177.703 149.216 177.671 146.374 179.839C143.796 181.804 140.925 181.487 139.31 179.055C138.423 177.719 138.576 177.437 141.329 175.329C149.377 169.165 153.943 163.269 155.806 156.634C156.287 154.917 156.942 153.215 157.259 152.853C158.077 151.919 157.978 143.622 157.142 143.106C156.085 142.453 156.314 141.371 157.51 141.371C158.094 141.371 162.575 145.274 167.467 150.043C178.356 160.66 177.678 160.567 185.679 152.565C193.431 144.812 193.539 144.045 187.493 139.748C178.091 133.069 168.933 129.578 160.812 129.578C155.976 129.578 155.881 129.476 157.798 126.332C162.265 119.008 160.784 113.572 154.804 115.334ZM240.771 115.94C239.095 117.164 239.554 122.695 241.668 126.75C242.492 128.329 243.165 129.74 243.165 129.886C243.165 130.032 241.165 130.167 238.72 130.185C230.827 130.246 220.273 134.276 211.771 140.476C206.148 144.577 206.799 146.933 215.831 155.189C222.038 160.861 221.657 160.971 232.491 150.389C239.419 143.623 242.095 141.412 242.667 141.984C243.239 142.555 243.224 142.978 242.61 143.591C241.669 144.533 241.463 152.529 242.354 153.546C242.671 153.909 243.323 155.61 243.802 157.327C245.629 163.879 251.352 171.269 257.802 175.409C261.614 177.855 261.781 178.254 259.815 180.221C258.179 181.857 254.797 182.045 253.571 180.568C252.298 179.034 248.978 179.264 247.784 180.97C246.86 182.288 245.742 182.467 234.779 183.058C222.537 183.718 214.703 184.667 212.713 185.732C212.101 186.06 211.363 186.352 211.073 186.382C207.924 186.707 202.929 191.839 202.929 194.749C202.929 200.561 206.978 201.92 223.392 201.616C240.677 201.296 240.057 200.46 233.07 214.669C230.096 220.714 226.156 228.438 224.314 231.834C222.473 235.231 220.966 238.109 220.966 238.23C220.966 238.353 222.448 238.883 224.261 239.409C227.679 240.403 228.662 241.985 227.497 244.615C227.214 245.256 226.934 245.935 226.874 246.126C221.064 264.757 224.856 278.265 235.169 275.676C239.844 274.503 244.548 267.086 251.161 250.461C252.424 247.287 253.004 247.075 257.213 248.243C260.208 249.075 260.151 248.705 258.766 258.266C256.16 276.246 258.324 283.892 266.271 284.789C272.138 285.449 277.955 277.383 281.894 263.122C283.99 255.536 283.648 255.837 289.298 256.598L291.379 256.878L291.894 247.86C292.177 242.9 292.573 236.656 292.775 233.985C292.977 231.315 293.272 227.174 293.43 224.786C293.993 216.314 296.64 215.665 304.908 221.977C318.711 232.515 326.181 234.111 328.86 227.093C331.369 220.527 325.251 214.016 303.694 200.308C298.538 197.03 297.276 195.902 297.276 194.575C297.276 192.019 295.014 190.376 292.217 190.901C289.635 191.385 288.215 190.349 286.968 187.068C286.22 185.102 285.891 185.236 294.155 184.115C294.918 184.012 296.01 183.741 296.582 183.514C297.155 183.287 298.872 182.722 300.398 182.26C309.595 179.472 320.17 169.677 320.17 163.946C320.17 161.234 323.849 166.887 323.99 169.815C323.999 170.005 324.199 170.474 324.432 170.855C324.667 171.236 325.552 174.671 326.4 178.486C328.362 187.321 329.112 188.545 332.562 188.545C339.414 188.545 350.001 184.41 349.999 181.734C349.997 176.108 338.552 160.157 330.912 155.134C326.554 152.27 326.499 152.195 328.003 151.198C333.979 147.231 336.826 142.766 334.722 140.662C331.463 137.403 328.429 137.45 326.705 140.784C325.588 142.945 324.237 142.927 324.803 140.758C325.77 137.065 321.025 133.466 318.771 136.182C318.013 137.095 317.375 136.741 314.004 133.531C311.862 131.493 309.174 129.231 308.029 128.504C306.885 127.777 305.792 127.014 305.601 126.81C304.475 125.601 296.351 122.347 291.503 121.163C288.382 120.4 285.361 119.581 284.789 119.342C281.58 118 267.602 118.053 265.492 119.415C264.99 119.74 264.394 119.82 264.168 119.594C263.943 119.369 263.417 119.457 263 119.792C261.188 121.245 257.734 121.421 257.734 120.059C257.734 116.344 254.33 116.228 251.423 119.845C248.962 122.907 248.114 122.973 248.532 120.07C249.09 116.201 244.069 113.528 240.771 115.94ZM135.312 140.699C138.21 143.422 137.926 147.626 134.66 150.337C132.868 151.823 128.726 151.427 126.893 149.592C121.078 143.774 129.319 135.069 135.312 140.699ZM274.353 143.38C276 147.355 272.928 151.8 268.566 151.755C264.922 151.719 261.473 147.805 262.273 144.618C263.688 138.98 272.171 138.111 274.353 143.38ZM107.351 148.468C108.496 149.517 109.274 150.951 109.274 152.012C109.274 158.072 103.003 160.875 98.8144 156.687C93.0616 150.934 101.342 142.962 107.351 148.468ZM301.446 149.516C304.458 153.346 301.477 159.408 296.582 159.408C293.599 159.408 290.339 156.15 290.339 153.165C290.339 147.775 298.076 145.233 301.446 149.516Z" fill="#FF0000"/>
</svg>
