<svg width="400" height="400" viewBox="0 0 400 400" fill="none" xmlns="http://www.w3.org/2000/svg">
<path fill-rule="evenodd" clip-rule="evenodd" d="M231.383 70.7025C218.482 71.9478 202.696 77.2837 183.94 86.7381C176.157 90.6604 165.955 94.21 162.459 94.21C160.909 94.21 158.969 95.1031 157.643 96.4289L155.423 98.649V155.042V211.435L161.538 219.061C167.975 227.088 171.562 232.345 182.944 250.426C186.781 256.52 191.619 263.581 193.697 266.116C202.601 276.986 204.747 281.74 208.801 299.593C214.7 325.568 218.702 331.207 230.242 329.801C258.092 326.409 267.555 293.131 250.903 257.148C248.197 251.301 245.713 245.441 245.383 244.125L244.782 241.733L270.41 241.443L296.038 241.153L300.834 238.497C317.106 229.483 321.914 208.021 311.526 190.771C309.056 186.668 308.707 185.459 309.466 183.651C311.652 178.444 310.646 160.209 307.826 153.891C305.443 148.554 305.223 147.224 305.431 139.423C305.713 128.935 303.858 120.058 299.957 113.228C297.416 108.78 297.155 107.617 297.312 101.477C297.828 81.3194 285.882 72.4571 255.798 70.6793C240.414 69.7703 241.04 69.7691 231.383 70.7025ZM89.6298 87.8749C82.7014 92.0995 83.0889 87.8359 83.0852 159.784C83.0816 241.357 79.9025 233.467 112.772 233.467C146.07 233.467 142.764 241.592 142.764 159.769C142.764 86.8758 143.136 90.8834 136.057 87.524C130.991 85.1199 93.6863 85.4014 89.6298 87.8749ZM117.367 190.475C120.055 191.865 122.87 196.711 122.87 199.95C122.87 209.143 112.671 214.366 106.59 208.284C98.2118 199.906 107.124 185.178 117.367 190.475Z" fill="#FF0000"/>
</svg>
