<svg width="400" height="400" viewBox="0 0 400 400" fill="none" xmlns="http://www.w3.org/2000/svg">
<path style="fill:#FF0000;" d="M83.385,98.438v121.875c0,6.731,4.895,12.188,10.933,12.188h36.442
	c6.038,0,10.933-5.456,10.933-12.188V98.438c0-6.731-4.895-12.188-10.933-12.188H94.317C88.279,86.25,83.385,91.706,83.385,98.438z
	 M101.606,200c0-6.731,4.895-12.188,10.933-12.188c6.038,0,10.933,5.456,10.933,12.188s-4.895,12.188-10.933,12.188
	C106.501,212.188,101.606,206.731,101.606,200z M225.509,330c-9.194,0-13.431-19.953-15.456-29.349
	c-2.371-11.002-4.824-22.379-11.567-29.911c-14.791-16.516-22.55-37.561-40.595-57.439c-1.037-1.143-1.621-2.701-1.621-4.327
	V100.418c0-3.322,2.388-6.032,5.367-6.093c7.211-0.147,16.715-4.61,23.984-8.215c14.465-7.174,32.467-16.102,54.463-16.11h1.296
	c19.486,0,42.529,0.21,51.827,15.101c3.823,6.123,4.758,13.728,2.801,22.665c7.431,8.66,11.417,24.813,7.462,37.963
	c7.992,11.899,8.72,28.505,4.24,40.355l0.05,0.056c5.418,6.068,8.893,15.874,8.855,24.983
	c-0.071,15.413-11.915,29.503-27.128,29.503h-46.338c3.329,14.391,15.159,26.473,15.159,48.013
	C258.307,325.938,236.442,330,225.509,330z"/>
</svg>
