<svg width="400" height="400" viewBox="0 0 400 400" fill="none" xmlns="http://www.w3.org/2000/svg">
<path style="fill:#0000FF;" d="M147.222,128.245c0.426-0.853-0.048-1.821,0.423-2.8c1.884-0.414,3.906,0.035,5.838-0.251
	c0.936-3.193,2.268-4.864,6.794-4.607c1.037-1.15,1.863-2.52,2.819-3.884c-1.716-1.073-2.605-2.489-2.837-4.368
	c-0.298-2.408,1.165-4.066,3.542-5.33c3.785-2.012,7.91-2.902,12.102-3.65c6.134-1.094,12.299-1.633,18.525-1.762
	c1.801-0.037,3.622-0.129,5.433-0.31c2.381-0.239,4.771,0.163,7.159,0.252c1.19,0.044,2.387,0.127,3.578,0.132
	c4.843,0.021,9.634,0.682,14.408,1.351c3.098,0.433,6.209,1.087,9.141,2.221c2.094,0.81,4.34,1.425,5.918,3.27
	c1.768,2.067,1.821,4.94-0.017,6.996c-0.289,0.323-0.604,0.602-0.748,1.181c0.701,1.123,1.45,2.33,2.208,3.533
	c0.162,0.257,0.428,0.341,0.717,0.423c2.879,0.811,3.667,1.597,4.564,4.566c1.854,0.337,3.781-0.075,5.619,0.236
	c0.808,0.823,0.152,1.93,0.71,2.839c0.588,0.247,1.264,0.126,1.916,0.126c25.605,0.007,51.211,0.052,76.816-0.022
	c7.62-0.022,15.18,5.589,17.337,12.956c0.606,2.069,0.794,4.106,0.794,6.21c-0.002,39.083-0.003,78.166-0.006,117.249
	c-0.001,5.501,0.082,11.005-0.044,16.503c-0.126,5.519-2.584,9.966-6.83,13.426c-3.461,2.821-7.448,4.064-11.928,4.063
	c-78.491-0.024-156.981-0.017-235.472-0.017c-9.045,0-18.091,0.032-27.137-0.011c-7.383-0.035-12.857-3.427-16.446-9.798
	c-1.415-2.511-2.119-5.265-2.117-8.217c0.025-44.727-0.015-89.455,0.049-134.183c0.011-7.436,3.717-12.822,10.242-16.278
	c2.53-1.34,5.243-1.9,8.132-1.895c25.605,0.033,51.211,0.021,76.816,0.012C145.895,128.405,146.573,128.538,147.222,128.245z
	 M95.84,291.292c-0.203-1.052-0.08-1.814-0.014-2.572c0.261-3.051-0.297-5.966-1.38-8.811c-1.405-3.693-3.752-6.708-6.676-9.293
	c-4.17-3.686-9.086-5.836-14.503-6.964c-4.537-0.945-9.135-0.776-13.72-0.862c-2.265-0.042-2.267-0.018-2.267-2.325
	c-0.001-23.914-0.001-47.829-0.001-71.743c0-8.035-0.004-16.071,0.004-24.105c0.001-1.604,0.117-1.683,1.711-1.727
	c4.011-0.111,8.023-0.034,12.026-0.531c3.062-0.38,6.002-1.135,8.806-2.341c3.981-1.712,7.474-4.153,10.39-7.408
	c1.867-2.084,3.375-4.42,4.385-6.971c0.685-1.729,1.161-3.61,1.204-5.569c0.031-1.394,0.032-2.838,0.41-4.306
	c3.973-0.305,7.879,0.096,11.738-0.23c0.167-0.963,0.303-1.752,0.439-2.54c-0.583-0.323-1.168-0.186-1.727-0.187
	c-12.441-0.01-24.883,0.023-37.325-0.032c-2.591-0.011-5.026,0.404-7.307,1.61c-4.676,2.472-7.524,6.4-7.535,11.634
	c-0.104,45.007-0.058,90.013-0.065,135.02c0,1.809,0.509,3.496,1.253,5.091c2.65,5.677,7.394,8.282,13.421,8.351
	c12.583,0.144,25.169,0.045,37.754,0.038c0.468,0,0.955,0.112,1.449-0.142c-0.115-0.968-0.23-1.941-0.366-3.086
	C103.877,291.292,99.883,291.292,95.84,291.292z M293.182,294.328c0.44,0.268,0.881,0.193,1.302,0.194
	c12.25,0.004,24.501,0.055,36.75-0.035c2.874-0.021,5.685-0.753,8.103-2.46c3.95-2.79,6.166-6.553,6.186-11.461
	c0.024-5.786,0.003-11.572,0.003-17.359c0.001-38.741-0.001-77.483,0.011-116.224c0-1.441-0.168-2.819-0.563-4.223
	c-1.598-5.69-7.206-9.964-13.198-9.962c-12.346,0.006-24.691,0.001-37.038,0.008c-0.515,0-1.054-0.116-1.569,0.193
	c-0.257,0.981,0.482,1.658,0.722,2.573c3.357-0.096,6.642,0.306,9.943,0.099c1.638-0.103,1.842,0.084,1.816,1.723
	c-0.043,2.803,0.375,5.541,1.403,8.129c2.014,5.067,5.463,8.986,10.019,11.951c3.394,2.209,7.095,3.728,11.058,4.475
	c4.044,0.762,8.152,0.99,12.273,0.9c0.69-0.015,1.441-0.132,2.063,0.334c0.382,0.694,0.23,1.426,0.23,2.13
	c0.008,31.519,0.009,63.039,0.004,94.558c-0.001,3.123,0.353,2.949-2.944,2.937c-5.704-0.019-11.34,0.297-16.761,2.373
	c-4.399,1.685-8.239,4.135-11.387,7.645c-4.396,4.899-6.487,10.576-5.772,17.194c0.039,0.363,0.183,0.759-0.256,1.267
	c-3.897,0-7.942,0-11.99,0C293.203,292.385,292.994,293.334,293.182,294.328z M110.115,224.379
	c-0.311,0.559-0.233,1.192-0.225,1.804c0.032,2.673,0.116,5.347,0.125,8.02c0.019,5.64,0.004,11.281,0.004,16.921
	c0,13.532,0.027,27.064-0.025,40.596c-0.009,2.346,0.821,3.914,3.885,3.878c5.74-0.069,11.482-0.016,17.223-0.018
	c0.382,0,0.764-0.039,1.146-0.052c1.245-0.04,2.026-0.731,2.507-1.813c0.374-0.842,0.494-1.729,0.493-2.655
	c-0.011-21.709-0.008-43.419-0.008-65.128c0-0.239,0-0.478-0.006-0.717c-0.024-0.848-0.391-1.256-1.219-1.008
	c-0.506,0.251-0.123,1.19-0.952,1.086c-0.495-0.199-0.218-0.837-0.685-1.087c-0.091-0.017-0.23-0.063-0.368-0.063
	c-5.932,0.004-11.864,0.006-17.796,0.027c-0.842,0.003-1.735-0.229-2.417,0.44C111.235,224.467,110.831,223.919,110.115,224.379z
	 M266.355,224.369c0,0.6,0,1.216,0,1.831c0,15.974,0,31.949,0,47.923c0,5.978-0.001,11.957,0.004,17.935
	c0.001,0.66,0.005,1.288,0.377,1.926c0.759,1.301,1.894,1.606,3.271,1.6c4.833-0.02,9.666-0.003,14.499-0.009
	c1.387-0.002,2.777,0.014,4.16-0.067c1.283-0.075,2.316-1.021,2.625-2.261c0.232-0.936,0.252-1.889,0.252-2.849
	c0.004-21.283,0.014-42.567,0.021-63.85c0-0.526-0.007-1.052-0.038-1.577c-0.039-0.669-0.392-0.941-1.057-0.768
	c-0.466,0.242-0.22,1.098-0.941,1.109c-0.624-0.114-0.369-0.856-0.904-1.147c-5.881,0-11.858-0.021-17.834,0.023
	c-0.868,0.006-1.834-0.314-2.536,0.413C267.63,224.484,267.193,223.892,266.355,224.369z M237.444,122.048
	c-1.055-1.587-2.139-3.262-3.276-4.899c-0.269-0.388-0.75-0.576-1.246-0.644c-2.367-0.321-4.638-1.036-6.939-1.644
	c-1.195-0.316-2.379-0.717-3.589-0.941c-3.697-0.687-7.352-1.643-11.111-1.943c-2.189-0.175-4.336-0.672-6.546-0.684
	c-4.588-0.025-9.173-0.133-13.738,0.532c-3.017,0.439-6.023,0.924-9.006,1.565c-1.818,0.391-3.611,0.879-5.42,1.296
	c-2.506,0.578-4.935,1.463-7.495,1.82c-0.452,0.063-0.719,0.448-0.967,0.799c-1.233,1.752-2.433,3.528-3.696,5.259
	c-0.587,0.804-0.746,1.608-0.375,2.603c1.905,0.319,3.873-0.099,5.725,0.237c0.632,0.939,0.043,2.014,0.622,2.879
	c19.869,0,39.734,0,59.552,0c0.359-0.941-0.061-1.852,0.43-2.752c1.88-0.546,3.926,0.118,5.979-0.401
	C236.329,124.011,237.121,123.209,237.444,122.048z M135.061,174.141c0.243-0.482,0.172-0.966,0.172-1.434
	c0.004-12.284,0.011-24.568,0.002-36.852c-0.003-2.995-1.306-4.289-4.264-4.294c-4.064-0.007-8.13-0.007-12.194,0.002
	c-1.913,0.004-3.828-0.021-5.737,0.068c-1.823,0.086-2.524,0.768-2.943,2.544c-0.2,0.845-0.319,1.705-0.218,2.56
	c0.339,2.859,0.06,5.726,0.095,8.586c0.111,8.981,0.039,17.964,0.051,26.946c0.001,0.606-0.14,1.238,0.165,1.805
	c0.296,0.17,0.568,0.151,0.83,0.033c0.44-0.33-0.15-1.415,0.927-1.263c0.403,1.054,0.403,1.054,1.216,1.117
	c0.4-0.437-0.317-1.583,0.787-1.534c0.742,0.429,0.19,1.181,0.677,1.651c1.752,0,3.519-0.011,5.287,0.005
	c0.675,0.006,1.194-0.212,1.521-0.818c-1.881-1.895-2.096-3.261-0.744-4.645c0.887-0.908,2.718-0.924,3.634-0.06
	c0.56,0.529,0.747,1.154,0.801,1.915c0.093,1.333-0.754,2.065-1.682,2.769c0.426,0.463,0.793,0.85,1.372,0.825
	c2.822-0.12,5.677,0.342,8.693-0.353C133.792,173.902,134.226,174.435,135.061,174.141z M289.82,173.643
	c0.351,0.161,0.731,0.851,1.496,0.472c0.377-0.543,0.213-1.184,0.213-1.785c0.011-11.958,0.009-23.916,0.006-35.874
	c0-0.478,0.009-0.96-0.046-1.433c-0.286-2.501-1.328-3.452-3.849-3.458c-5.839-0.014-11.677,0.048-17.514-0.03
	c-2.183-0.029-3.83,1.378-3.813,3.771c0.09,12.436,0.04,24.872,0.047,37.309c0,0.513-0.114,1.045,0.125,1.53
	c0.303,0.191,0.568,0.057,0.833-0.032c0.316-0.968,0.316-0.968,0.95-1.242c0.633,0.117,0.144,1.567,1.277,1.046
	c0.423-0.431-0.252-1.501,0.857-1.479c0.497,0.42,0.125,1.069,0.605,1.616c1.847,0,3.799,0.011,5.751-0.008
	c0.516-0.005,0.862-0.332,1.102-0.771c-1.982-1.802-2.228-3.132-0.859-4.585c0.895-0.95,2.708-1.054,3.632-0.209
	c1.417,1.298,1.206,2.841-0.673,4.786c0.184,0.485,0.547,0.802,1.062,0.782C283.85,173.943,286.711,174.445,289.82,173.643z
	 M270.308,216.518c0.453,0.791,1.201,0.672,1.909,0.673c4.401,0.004,8.801,0.004,13.203-0.004c0.467-0.001,0.962,0.099,1.326-0.183
	c0.419-0.451-0.112-1.384,0.805-1.466c0.603,0.367,0.221,1.054,0.674,1.513c1.001,0.197,2.064,0.264,3.174-0.055
	c0-12.645,0-25.23,0-37.929c-3.5,0-6.86,0-10.405,0c0,1.874,0.019,3.631-0.006,5.387c-0.018,1.315-0.891,2.204-2.103,2.215
	c-1.175,0.011-2.14-0.914-2.2-2.186c-0.047-1.002,0.014-2.008-0.025-3.011c-0.031-0.791,0.19-1.618-0.259-2.444
	c-1.811,0-3.614,0-5.328,0c-0.515,0.227-0.231,1.074-1.058,0.968c-0.469-0.082-0.119-1.276-1.089-0.911
	c-0.411,0.238-0.096,0.949-0.68,1.159c-1.014,0.18-0.423-1.01-1.037-1.253c-1.181-0.039-0.841,0.893-0.842,1.513
	c-0.017,11.666-0.015,23.332-0.007,34.998c0,0.51-0.131,1.055,0.318,1.642C267.802,216.879,269.096,217.639,270.308,216.518z
	 M110.927,179.073c-0.529-0.145-0.82,0.088-0.873,0.619c-0.038,0.38-0.035,0.764-0.036,1.146
	c-0.015,10.716-0.028,21.431-0.041,32.147c-0.002,1.366,0,2.733,0,4.296c1.473-0.405,2.796,0.268,3.886-0.625
	c1.147,0.604,14.317,0.827,16.437,0.318c0.403-0.412-0.018-1.332,0.867-1.458c0.709,0.276,0.279,1.076,0.824,1.592
	c0.945,0.062,2.011,0.253,3.029-0.116c0.328-0.564,0.194-1.102,0.217-1.618c0.163-3.632-0.119-7.26-0.049-10.898
	c0.155-8.035,0.055-16.074,0.045-24.112c-0.002-1.262-0.13-1.39-1.423-1.403c-2.632-0.026-5.264-0.014-7.896-0.01
	c-0.375,0.001-0.777-0.041-1.064,0.317c-0.198,0.547-0.124,1.127-0.13,1.697c-0.013,1.148,0.034,2.299-0.023,3.444
	c-0.063,1.285-1.031,2.251-2.152,2.257c-1.206,0.005-2.084-0.844-2.153-2.212c-0.065-1.288-0.009-2.583-0.032-3.874
	c-0.009-0.51,0.125-1.061-0.396-1.604c-1.707-0.04-3.509-0.089-5.233,0.034c-0.391,0.357-0.309,0.966-0.896,1.009
	c-0.674,0.027-0.451-1.452-1.459-0.899c-0.311,0.306-0.005,0.885-0.495,1.126C110.94,180.367,111.431,179.325,110.927,179.073z
	 M136.816,294.418c42.607,0,85.167,0,127.795,0c-0.092-1.045,0.094-2.039-0.253-3.001c-42.448,0-84.824,0-127.296,0
	C136.876,292.431,136.715,293.347,136.816,294.418z M264.533,132.881c-42.568,0-85.123,0-127.843,0
	c0.179,0.919,0.064,1.77,0.365,2.558c1.703,0.385,126.369,0.284,127.478-0.12C264.533,134.552,264.533,133.754,264.533,132.881z
	 M297.404,219.95c-0.395-1.062-1.171-0.997-1.933-0.996c-10.385,0.003-20.77,0-31.155-0.001c-0.91,0-1.818,0.002-2.728-0.003
	c-0.405-0.002-0.752,0.069-0.806,0.559c0.574,0,1.143-0.047,1.701,0.013c0.546,0.06,1.279,0.043,1.253,0.856
	c-0.022,0.697-0.61,0.933-1.222,0.968c-0.696,0.039-1.397,0.009-2.228,0.009c0.259,1.135,1.01,1.208,1.772,1.212
	c2.488,0.013,4.977,0.01,7.466,0.009c8.615-0.004,17.228-0.007,25.843-0.018c0.607-0.001,1.276,0.133,1.812-0.519
	c-0.837-0.054-1.565-0.02-2.251-0.172c-0.499-0.111-1.024-0.447-0.906-1.104c0.095-0.53,0.521-0.793,1.052-0.807
	C295.823,219.935,296.574,219.95,297.404,219.95z M104.295,219.47c0.887,0.054,1.595,0.087,2.302,0.146
	c0.403,0.034,0.766,0.186,0.826,0.648c0.065,0.496-0.248,0.805-0.636,1.029c-0.343,0.198-0.74,0.148-1.12,0.182
	c-0.49,0.044-1.015-0.139-1.579,0.146c0.439,0.868,1.144,0.923,1.864,0.924c11.139,0.007,22.278,0.012,33.416,0.011
	c0.454,0,0.957,0.075,1.291-0.453c-0.722-0.283-1.466,0.045-2.129-0.257c-0.464-0.211-0.834-0.519-0.761-1.084
	c0.072-0.563,0.465-0.807,1.007-0.814c0.731-0.009,1.46-0.003,2.263-0.003c-0.398-0.903-0.998-1.007-1.718-1.002
	c-3.537,0.021-7.075,0.009-10.613,0.008c-7.602-0.002-15.202-0.011-22.804,0.011C105.406,218.964,104.76,218.666,104.295,219.47z
	 M104.387,206.768c-0.054-0.315-0.113-0.5-0.113-0.685c-0.003-7.839-0.002-15.679,0.004-23.517c0-0.578,0.075-1.149,0.394-1.653
	c1.179-1.866,2.81-3.063,5.014-3.465c2.85-0.521,5.725-0.157,8.585-0.275c0.61-0.025,1.244,0.129,1.833-0.189
	c0.215-0.353,0.299-0.694-0.023-1.024c-0.107-0.022-0.2-0.058-0.293-0.058c-2.487-0.006-4.976,0.059-7.46-0.037
	c-1.623-0.062-3.12,0.31-4.601,0.853c-3,1.102-4.781,3.582-4.791,6.776c-0.023,7.695-0.011,15.392-0.003,23.087
	c0.001,0.555-0.12,1.161,0.366,1.612c1.566,0,3.12,0,4.634,0c0.197-0.468,0.225-0.829-0.094-1.215
	C106.765,206.761,105.603,207.058,104.387,206.768z M124.926,176.985c2.274,0.26,4.516,0.246,6.753,0.152
	c1.152-0.048,2.246-0.021,3.391,0.258c4.429,1.081,5.832,3.253,5.815,7.049c-0.03,6.832-0.005,13.664-0.014,20.495
	c-0.001,0.608,0.127,1.251-0.322,1.837c-1.123,0.325-2.338-0.053-3.487,0.228c-0.275,0.516-0.355,1.096,0.279,1.164
	c1.584,0.17,3.191,0.257,4.841-0.093c0-0.66,0-1.134,0-1.609c0-7.548-0.071-15.098,0.03-22.645c0.047-3.514-2.555-6.3-5.258-7.233
	c-1.466-0.506-2.926-0.753-4.477-0.715c-2.522,0.061-5.048,0.017-7.466,0.017C124.727,176.3,124.726,176.571,124.926,176.985z
	 M298.332,208.245c0.059-0.264,0.133-0.444,0.133-0.624c0.003-8.267,0.018-16.535-0.018-24.802
	c-0.008-1.757-0.846-3.234-2.118-4.391c-1.826-1.66-4.013-2.525-6.502-2.536c-2.486-0.011-4.972-0.009-7.459,0.003
	c-0.415,0.002-0.862-0.118-1.271,0.21c-0.064,0.3-0.175,0.62,0.224,0.992c0.895,0,1.89-0.013,2.886,0.003
	c2.612,0.042,5.227-0.189,7.829,0.361c3,0.634,5.105,3.077,5.106,6.151c0.004,7.12,0.005,14.241-0.005,21.361
	c-0.001,0.602,0.161,1.25-0.312,1.808c-1.139,0.319-2.359-0.085-3.488,0.244c-0.373,0.817,0.001,1.182,0.696,1.205
	C295.451,208.278,296.875,208.245,298.332,208.245z M276.328,175.891c-2.402,0-4.935,0.07-7.461-0.025
	c-1.667-0.063-3.228,0.246-4.747,0.841c-2.261,0.886-4.822,3.213-4.765,6.607c0.132,7.795,0.039,15.593,0.051,23.391
	c0.001,0.506-0.157,1.059,0.305,1.562c1.522,0,3.087,0,4.651,0c0.244-0.436,0.239-0.833-0.01-1.274
	c-1.178-0.273-2.446,0.141-3.528-0.227c-0.255-0.382-0.253-0.674-0.253-0.957c-0.004-7.653-0.004-15.308-0.004-22.961
	c0-1.054,0.443-1.947,1.067-2.745c1.703-2.176,4.075-2.87,6.708-2.922c2.716-0.054,5.44,0.12,8.161-0.202
	c0.053-0.179,0.11-0.309,0.125-0.442C276.65,176.341,276.596,176.159,276.328,175.891z M123.697,170.118
	c-0.006-0.995-0.462-1.498-1.324-1.46c-0.931,0.04-1.633,0.798-1.654,1.784c-0.021,1.009,0.478,1.531,1.441,1.51
	C123.136,171.931,123.704,171.253,123.697,170.118z M280.117,170.221c0.018-1.066-0.328-1.515-1.202-1.564
	c-1.022-0.058-1.721,0.67-1.733,1.806c-0.011,1.003,0.413,1.489,1.297,1.486C279.455,171.945,280.1,171.266,280.117,170.221z
	 M131.42,249.583c0.184,0.594,0.255,1.086-0.489,1.401c-0.504-0.492-1.287-0.459-1.944-0.766
	C129.612,249.017,129.884,248.946,131.42,249.583z M113.984,250.952c-0.535-0.533-0.614-1.378-1.292-1.787
	c0.3-0.927,0.785-0.73,1.295-0.324C114.764,249.46,114.773,250.175,113.984,250.952z M129.787,247.146
	c-0.247-1.283,0.778-1.508,1.32-2.111C131.882,246.197,131.69,246.517,129.787,247.146z M132.795,249.284
	c-0.345,0.011-0.765,0.291-0.958-0.252c-0.134-0.378,0.04-0.741,0.361-0.797c0.566-0.098,0.387-0.898,0.964-0.91
	c0.797,0.876,0.746,1.135-0.389,1.976L132.795,249.284z M131.149,224.332c0.745,0.628,0.539,1.223,0.093,1.929
	C130.284,225.385,130.281,225.193,131.149,224.332z M131.444,242.206c0.219,0.587,0.302,1.102-0.14,1.557
	c-0.772,0.065-0.769-0.45-0.76-0.915C130.553,242.376,130.728,242.019,131.444,242.206z M131.076,240.956
	c-0.697-0.748-0.792-1.302,0.009-1.899C131.858,239.67,131.781,240.222,131.076,240.956z M113.846,236.119
	c-0.754-0.532-0.62-1.074-0.332-1.654C114.581,234.722,114.643,234.987,113.846,236.119z M130.88,255.122
	c0.944,0.717,0.945,0.98,0.009,1.61C130.374,255.937,130.374,255.937,130.88,255.122z M114.069,230.04
	c-0.951-0.529-0.965-0.624-0.259-1.665C114.663,228.838,114.453,229.402,114.069,230.04z M120.772,252.27
	c0.768-0.775,1.198-0.097,1.715,0.325C121.78,253.412,121.56,253.367,120.772,252.27z M130.83,285.919
	c-0.595-0.511-0.367-1.062-0.24-1.578c0.543-0.163,0.842-0.035,0.912,0.359C131.596,285.234,131.576,285.761,130.83,285.919z
	 M128.002,250.924c-0.521,0.448-0.972,1.024-1.742,0.36C127.008,250.15,127.172,250.115,128.002,250.924z M130.831,283.022
	c-0.514-0.667-0.517-1.198-0.059-1.748C131.812,281.87,131.826,282.076,130.831,283.022z M130.852,278.287
	c0.977,0.899,0.962,1.148-0.014,1.67C130.441,279.19,130.441,279.19,130.852,278.287z M120.554,249.747
	c-1.023-0.217-1.023-0.217-1.477-0.94C120.106,248.277,120.511,248.506,120.554,249.747z M130.822,277.119
	c-0.451-0.939-0.45-0.94,0.027-1.699C131.815,276.11,131.821,276.329,130.822,277.119z M130.807,269.674
	c1.017,0.691,1.017,0.951,0.078,1.67C130.378,270.63,130.374,270.63,130.807,269.674z M130.844,266.748
	c0.984,0.809,0.981,1.027-0.04,1.687C130.307,267.85,130.293,267.311,130.844,266.748z M130.879,259.783
	c-0.563-0.622-0.56-1.148-0.153-1.714C131.799,258.532,131.826,258.729,130.879,259.783z M113.992,269.683
	c0.924,0.548,0.66,1.095,0.137,1.786C113.428,270.592,113.425,270.59,113.992,269.683z M130.868,274.253
	c-0.581-0.559-0.497-1.044-0.158-1.557C131.82,273.104,131.856,273.364,130.868,274.253z M114.051,278.23
	c0.694,0.715,0.785,1.25,0.044,1.812C113.517,279.259,113.517,279.259,114.051,278.23z M130.77,288.639
	c-0.424-0.526-0.398-1.003-0.09-1.502c0.623-0.225,0.768,0.21,0.837,0.641C131.591,288.243,131.478,288.646,130.77,288.639z
	 M111.79,291.413c0.6,0.131,0.821,0.471,1.007,0.862c-0.089,0.632-0.524,0.817-0.982,0.526
	C111.277,292.46,111.451,291.943,111.79,291.413z M132.362,292.738c-0.124-0.709,0.313-0.981,0.632-1.315
	c0.686,0.224,0.75,0.698,0.522,1.143C133.236,293.112,132.782,292.939,132.362,292.738z M131.363,227.471
	c0.351,0.681,0.367,1.2-0.193,1.664C130.271,228.238,130.297,227.97,131.363,227.471z M131.102,236.138
	c0.715,0.532,0.527,1.065,0.332,1.641C130.324,237.436,130.278,237.2,131.102,236.138z M113.509,244.704
	c-0.265-0.659-0.37-1.176,0.241-1.573C114.674,243.951,114.638,244.278,113.509,244.704z M115.673,246.754
	c-1.174,0.734-1.458,0.013-2.022-0.465C114.703,245.464,115.05,246.163,115.673,246.754z M124.295,249.119
	c0.423-0.503,0.819-0.867,1.473-0.699c0.384,0.651-0.033,0.926-0.515,1.19C124.748,249.888,124.47,249.702,124.295,249.119z
	 M114.085,237.225c0.375,0.831,0.54,1.416-0.544,1.63C113.218,238.115,113.127,237.582,114.085,237.225z M114.031,268.527
	c-0.471-0.946-0.471-0.946-0.011-1.789C114.787,267.276,114.824,267.803,114.031,268.527z M114.041,254.984
	c0.628,0.737,0.841,1.276-0.023,1.837C113.395,256.226,113.48,255.691,114.041,254.984z M114.045,241.824
	c-0.957-0.306-0.796-0.86-0.574-1.466C114.51,240.551,114.51,240.551,114.045,241.824z M114.044,286.979
	c0.651,0.667,0.845,1.207-0.069,1.795C113.402,288.142,113.506,287.611,114.044,286.979z M111.912,228.687
	c0.357,0.691,0.418,1.246,0.037,1.815C110.966,229.999,110.935,229.513,111.912,228.687z M118.171,251.337
	c0.526-0.908,1.045-0.401,1.673,0.011C119.294,252.611,118.712,251.646,118.171,251.337z M114.034,283.024
	c-0.58-0.632-0.593-1.167-0.046-1.8C114.863,281.822,114.724,282.362,114.034,283.024z M113.809,284.102
	c1.095,0.603,0.89,1.151,0.284,1.846C113.469,285.428,113.521,284.898,113.809,284.102z M114.032,257.971
	c0.81,0.586,0.71,1.119,0.038,1.794C113.421,259.15,113.412,258.621,114.032,257.971z M113.776,231.213
	c0.791,0.649,0.69,1.153,0.189,1.807C113.111,232.458,113.183,231.942,113.776,231.213z M131.38,233.337
	c0.279,0.646,0.421,1.153-0.167,1.574C130.253,234.171,130.269,233.866,131.38,233.337z M132.999,244.112
	c0.998,0.71,0.703,1.281,0.31,2.038C132.496,245.503,132.679,244.921,132.999,244.112z M130.938,263.774
	c0.845,1.072,0.829,1.174-0.203,1.612C130.335,264.83,130.302,264.33,130.938,263.774z M113.982,260.975
	c0.903,0.537,0.738,1.047,0.066,1.681C113.373,262.087,113.482,261.579,113.982,260.975z M113.715,225.444
	c0.916,0.623,0.677,1.113,0.312,1.723C113.101,226.695,113.239,226.187,113.715,225.444z M114.023,272.595
	c0.787,0.574,0.817,1.064-0.015,1.626C113.428,273.649,113.428,273.16,114.023,272.595z M130.637,260.93
	c1.139,0.679,1.146,0.788,0.292,1.674C130.212,262.191,130.489,261.653,130.637,260.93z M114.022,292.321
	c0.474-0.496,0.985-0.325,1.478-0.243c0.29,0.342,0.267,0.686-0.148,0.779C114.843,292.971,114.203,293.144,114.022,292.321z
	 M128.009,292.267c-0.939,0.926-1.234,0.908-1.85-0.041C126.743,291.858,127.303,291.89,128.009,292.267z M130.685,252.493
	c0.502-0.154,0.779,0.016,0.837,0.477c0.061,0.493-0.149,0.794-0.703,0.832C130.335,253.38,130.378,252.947,130.685,252.493z
	 M118.179,248.072c-0.901,0.425-1.441,0.31-1.787-0.589C117.193,247.019,117.706,247.221,118.179,248.072z M132.925,255.552
	c0.879,0.739,0.879,0.753,0.139,1.616C132.447,256.656,132.775,256.096,132.925,255.552z M113.985,263.73
	c0.716,0.706,0.924,1.214-0.021,1.733C113.426,264.914,113.531,264.426,113.985,263.73z M132.864,261.434
	c0.981,0.791,0.984,0.952,0.126,1.746C132.53,262.615,132.704,262.086,132.864,261.434z M132.922,231.208
	c-0.305-0.532-0.303-1.039,0.025-1.531c0.693-0.11,0.724,0.331,0.729,0.774C133.682,230.929,133.543,231.284,132.922,231.208z
	 M131.462,231.847c-1.15-0.444-1.174-0.674-0.276-1.458C131.811,230.733,131.594,231.229,131.462,231.847z M132.854,236.977
	c-0.178-0.567-0.263-1.059,0.12-1.51c0.686-0.13,0.689,0.331,0.7,0.772C133.685,236.714,133.599,237.114,132.854,236.977z
	 M111.923,290.337c-0.578-0.66-0.646-1.216,0.015-1.862C112.59,289.129,112.554,289.685,111.923,290.337z M132.88,285.5
	c0.967,0.769,0.966,0.949,0.093,1.727C132.53,286.656,132.708,286.138,132.88,285.5z M132.775,249.302
	c1.081,0.628,1.132,0.936,0.206,1.878c-0.429-0.628-0.265-1.267-0.185-1.894L132.775,249.302z M111.927,243.542
	c0.434,0.484,0.255,0.994,0.156,1.473c-0.61,0.239-0.81-0.026-0.841-0.468C111.208,244.075,111.179,243.573,111.927,243.542z
	 M113.87,275.622c0.929,0.56,0.936,0.645,0.12,1.441C113.464,276.609,113.455,276.149,113.87,275.622z M133.066,290.356
	c-0.489-0.622-0.386-1.156-0.261-1.711C133.832,288.951,133.885,289.223,133.066,290.356z M130.25,291.086
	c-0.18-0.652,0.16-0.945,0.689-1.109c0.531,0.215,0.671,0.552,0.482,1.04C131.053,291.331,130.667,291.336,130.25,291.086z
	 M126.904,248.043c0.296-0.834,0.86-0.889,1.494-0.845C128.417,248.269,128.246,248.373,126.904,248.043z M111.979,246.508
	c0.324,0.51,0.234,1.017,0.055,1.511c-0.739,0.109-0.793-0.319-0.799-0.762C111.228,246.793,111.329,246.4,111.979,246.508z
	 M111.893,251.207c-0.492-0.977-0.49-0.977,0.011-1.774C112.595,249.994,112.562,250.522,111.893,251.207z M117.121,250.688
	c-0.852,0.127-1.528,0.284-1.616-0.777C116.538,249.779,116.538,249.779,117.121,250.688z M121.665,250.082
	c0.566-0.378,1.042-0.367,1.531-0.14c0.192,0.489-0.037,0.738-0.462,0.813C122.252,250.84,121.806,250.79,121.665,250.082z
	 M111.898,254.283c-0.512-0.753-0.561-1.271,0.006-1.851C112.569,253.026,112.51,253.552,111.898,254.283z M113.923,253.785
	c-0.432-0.448-0.425-0.882-0.064-1.367C114.799,252.985,114.803,253.122,113.923,253.785z M132.985,254.205
	c-0.357-0.646-0.377-1.152-0.048-1.677C133.831,253.108,133.845,253.283,132.985,254.205z M111.923,260.267
	c-0.593-0.73-0.499-1.236-0.065-1.862C112.575,259.035,112.509,259.557,111.923,260.267z M132.903,258.537
	c0.925,0.524,0.945,0.691,0.17,1.623C132.521,259.649,132.653,259.115,132.903,258.537z M111.895,261.382
	c0.658,0.698,0.617,1.222,0.082,1.844C111.455,262.37,111.455,262.37,111.895,261.382z M111.919,264.376
	c0.566,0.753,0.664,1.278-0.033,1.859C111.356,265.641,111.378,265.128,111.919,264.376z M132.868,264.378
	c0.975,0.969,0.967,1.15,0.092,1.773C132.567,265.633,132.717,265.117,132.868,264.378z M111.913,267.439
	c0.596,0.574,0.586,1.07,0.262,1.621C111.317,268.66,111.316,268.654,111.913,267.439z M132.878,267.462
	c0.975,0.8,0.976,0.945,0.096,1.703C132.555,268.661,132.675,268.151,132.878,267.462z M132.875,228.239
	c-0.189-0.593-0.288-1.086,0.103-1.534c0.695-0.108,0.683,0.374,0.69,0.803C133.676,227.97,133.611,228.403,132.875,228.239z
	 M111.89,272.293c-0.541-0.738-0.491-1.245,0.001-1.838C112.563,271.104,112.527,271.629,111.89,272.293z M132.94,270.434
	c0.982,0.628,0.689,1.16,0.307,1.873C132.498,271.714,132.675,271.167,132.94,270.434z M111.945,275.327
	c-0.594-0.72-0.603-1.234-0.075-1.847C112.569,274.058,112.514,274.583,111.945,275.327z M132.918,275.266
	c-0.268-0.674-0.339-1.186,0.031-1.705C133.84,274.218,133.845,274.386,132.918,275.266z M132.862,278.193
	c-0.175-0.639-0.283-1.123,0.101-1.574C133.898,277.287,133.882,277.644,132.862,278.193z M111.873,281.318
	c-0.499-0.736-0.585-1.254,0.061-1.794C112.522,280.127,112.581,280.651,111.873,281.318z M132.932,279.55
	c0.92,0.755,0.92,0.91,0.096,1.609C132.715,280.473,132.715,280.473,132.932,279.55z M111.913,231.868
	c0.293,0.753,0.293,0.753,0.027,1.524c-0.623,0.12-0.702-0.296-0.703-0.746C111.235,232.209,111.28,231.773,111.913,231.868z
	 M111.904,225.794c0.35,0.629,0.397,1.131,0.032,1.645C110.964,226.915,110.943,226.573,111.904,225.794z M117.772,290.904
	c-0.564,0.47-1.014,0.465-1.494,0.139C116.722,290.151,116.838,290.134,117.772,290.904z M120.575,290.929
	c-0.489,0.496-0.994,0.395-1.539,0.146C119.493,290.123,119.74,290.097,120.575,290.929z M123.173,291.093
	c-0.564,0.233-1.013,0.287-1.431-0.061c-0.125-0.564,0.232-0.682,0.651-0.687C122.834,290.342,123.301,290.363,123.173,291.093z
	 M127.235,291.112c0.653-1.027,1.134-0.883,1.72-0.347C128.523,291.502,128.009,291.243,127.235,291.112z M111.977,236.495
	c-0.979-0.748-0.952-1.23-0.188-1.816C112.362,235.216,112.196,235.711,111.977,236.495z M112.049,237.788
	c0.189,0.572,0.264,1.06-0.103,1.513c-0.646,0.092-0.705-0.325-0.715-0.781C111.221,238.037,111.334,237.663,112.049,237.788z
	 M118.894,292.305c-0.836,0.848-1.027,0.836-1.582-0.005C118.029,292.009,118.029,292.009,118.894,292.305z M123.319,292.216
	c0.538-0.328,1.044-0.318,1.563,0.044C124.269,293.203,123.838,293.192,123.319,292.216z M132.898,238.6
	c0.565-0.168,0.77,0.082,0.774,0.55c0.003,0.433,0.018,0.907-0.702,0.817C132.611,239.525,132.641,239.063,132.898,238.6z
	 M129.333,292.26c0.574-0.39,1.044-0.291,1.531-0.08C130.439,293.188,130.07,293.216,129.333,292.26z M133.063,243.014
	c-0.499-0.603-0.334-1.11-0.201-1.659C133.904,241.771,133.946,242.106,133.063,243.014z M111.998,284.287
	c-0.743-0.619-0.569-1.133-0.161-1.799C112.633,283.135,112.42,283.649,111.998,284.287z M133.004,284.268
	c-0.429-0.623-0.296-1.119-0.174-1.69C133.826,283.159,133.841,283.328,133.004,284.268z M111.96,255.446
	c0.572,0.627,0.617,1.148-0.051,1.747C111.342,256.561,111.318,256.04,111.96,255.446z M111.881,285.432
	c0.645,0.704,0.617,1.212,0.101,1.824C111.278,286.719,111.399,286.197,111.881,285.432z M111.973,242.121
	c-0.945-0.463-0.972-0.667-0.196-1.547C112.41,241.035,112.239,241.557,111.973,242.121z M111.899,278.326
	c-0.567-0.729-0.464-1.229-0.052-1.848C112.592,277.118,112.46,277.637,111.899,278.326z M124.447,291.041
	c0.844-0.905,0.98-0.896,1.531-0.031C125.525,291.45,125.075,291.271,124.447,291.041z M123.497,252.273
	c0.306-0.656,0.803-0.811,1.466-0.67C124.843,252.729,124.584,252.843,123.497,252.273z M132.94,234.122
	c-0.346-0.508-0.205-0.948-0.111-1.358c0.467-0.203,0.755-0.106,0.809,0.32C133.697,233.548,133.782,234.08,132.94,234.122z
	 M120.235,292.312c0.382-0.462,0.833-0.355,1.3-0.217c0.203,0.372,0.158,0.702-0.259,0.787
	C120.828,292.973,120.282,293.06,120.235,292.312z M113.963,290.03c0.591,0.087,0.817,0.413,0.719,0.98
	c-0.26,0.321-0.609,0.339-0.86,0.096C113.441,290.737,113.601,290.355,113.963,290.03z M285.344,250.205
	c0.603-1.184,1.012-1.278,2.356-0.583c0.081,0.658,0.081,0.658-0.249,1.37C286.873,250.399,285.966,250.732,285.344,250.205z
	 M288.037,248.752c0.398-0.567,1.125-0.824,1.291-1.584c0.965,0.431,0.953,0.983,0.545,1.561
	C289.486,249.275,288.528,249.273,288.037,248.752z M270.055,250.92c-0.268-0.728-0.514-1.395-0.785-2.133
	c1.027-0.271,1.446,0.417,1.703,1.072C271.169,250.356,270.937,250.881,270.055,250.92z M287.489,245.102
	c0.601,1.304,0.426,1.561-1.222,1.972C285.753,245.832,287.147,245.79,287.489,245.102z M270.559,278.346
	c0.5,0.581,0.538,1.116-0.055,1.662C269.559,279.28,269.567,278.981,270.559,278.346z M270.454,269.735
	c0.55,0.758,0.55,0.758,0.061,1.589C269.561,270.737,269.55,270.452,270.454,269.735z M289.305,226.506
	c1.203,0.564,0.768,1.195,0.525,1.963C288.643,227.894,289.09,227.262,289.305,226.506z M268.15,272.198
	c-0.672-0.471-0.552-1.014-0.159-1.581c0.509-0.13,0.791,0.033,0.833,0.503C268.868,271.6,268.842,272.065,268.15,272.198z
	 M269.027,292.741c-0.547,0.262-0.96,0.272-1.186-0.222c-0.196-0.432-0.111-0.834,0.399-1.095
	C268.874,291.597,269.143,292.003,269.027,292.741z M268.284,228.749c0.537,0.638,0.582,1.209-0.089,1.783
	C267.298,229.743,267.309,229.512,268.284,228.749z M289.472,246.103c-0.573-0.692-0.559-1.256-0.104-1.859
	C290.352,244.85,290.375,245.096,289.472,246.103z M289.301,242.997c-0.333-0.681-0.431-1.221,0.119-1.711
	C290.4,241.962,290.387,242.416,289.301,242.997z M289.79,229.645c0.469,0.645,0.537,1.206-0.169,1.738
	C288.782,230.488,288.799,230.306,289.79,229.645z M270.648,256.712c-1.058-0.441-1.088-0.703-0.197-1.628
	C271.124,255.575,271.014,256.111,270.648,256.712z M268.22,225.766c0.603,0.612,0.47,1.124,0.179,1.687
	C267.311,226.994,267.283,226.737,268.22,225.766z M278.973,252.872c-1.027,0.565-1.454,0.111-1.873-0.607
	C277.999,251.617,278.465,252.044,278.973,252.872z M289.179,288.536c1.133,0.479,1.159,0.874,0.222,1.73
	C288.815,289.793,288.962,289.238,289.179,288.536z M276.234,251.524c-0.83,1.059-1.229,0.046-1.911-0.01
	C275.12,250.535,275.12,250.535,276.234,251.524z M270.486,285.992c-0.937-1.022-0.905-1.259,0.149-1.716
	C271.106,284.842,270.964,285.356,270.486,285.992z M270.482,283.116c-0.855-0.746-0.861-1.278-0.103-1.891
	C271.157,281.805,271.024,282.353,270.482,283.116z M268.152,276.618c0.943,0.549,0.953,0.807,0.065,1.584
	C267.682,277.45,267.682,277.45,268.152,276.618z M282.202,248.332c0.364,1.172-0.452,1.214-1.077,1.462
	C280.751,248.775,280.753,248.774,282.202,248.332z M268.278,264.427c0.875,0.754,0.641,1.267-0.027,1.856
	C267.677,265.342,267.677,265.342,268.278,264.427z M267.968,258.473c1.123,0.546,1.144,0.803,0.242,1.673
	C267.544,259.713,267.739,259.165,267.968,258.473z M268.239,233.553c-0.964-0.986-0.936-1.254,0.118-1.715
	C268.774,232.394,268.792,232.914,268.239,233.553z M270.543,258.013c0.507,0.656,0.551,1.17,0.005,1.676
	C269.555,259.024,269.548,258.778,270.543,258.013z M268.093,263.193c-0.467-0.708-0.517-1.234,0.113-1.702
	C269.08,262.245,269.074,262.366,268.093,263.193z M289.464,263.26c-0.542-1.032-0.542-1.032,0.101-1.8
	C290.337,262.048,290.201,262.582,289.464,263.26z M268.264,267.501c0.874,0.475,0.693,1.022,0.179,1.637
	C267.532,268.57,267.524,268.495,268.264,267.501z M289.479,267.41c0.838,0.68,0.76,1.209,0.068,1.777
	C288.915,268.449,288.915,268.449,289.479,267.41z M289.317,270.476c1.118,0.469,0.754,1.052,0.367,1.679
	C288.944,271.645,288.944,271.645,289.317,270.476z M268.161,275.245c-0.589-0.62-0.468-1.131-0.121-1.679
	C269.091,274.063,269.11,274.289,268.161,275.245z M289.401,275.201c-0.616-0.51-0.424-1.046-0.164-1.638
	C290.331,274.074,290.348,274.352,289.401,275.201z M289.325,278.289c-0.41-0.715-0.511-1.246,0.106-1.724
	C290.285,277.298,290.282,277.406,289.325,278.289z M268.118,281.174c-0.503-0.668-0.516-1.16,0.098-1.606
	C269.085,280.334,269.08,280.479,268.118,281.174z M289.526,279.492c0.769,0.634,0.714,1.163-0.028,1.777
	C288.766,280.642,288.828,280.114,289.526,279.492z M268.338,284.299c-0.729-0.531-0.724-1.045-0.334-1.638
	C269.041,283,269.071,283.121,268.338,284.299z M289.252,282.594c1.02,0.509,1.032,0.613,0.286,1.59
	C288.989,283.611,288.989,283.611,289.252,282.594z M268.265,287.428c-0.676-0.796-0.661-1.325-0.037-1.893
	C269.193,286.11,268.888,286.651,268.265,287.428z M289.598,285.47c0.637,0.771,0.683,1.319-0.157,1.794
	C288.916,286.351,288.916,286.351,289.598,285.47z M270.386,286.982c0.683,0.549,0.672,1.055,0.254,1.626
	C269.627,288.187,269.604,288.069,270.386,286.982z M268.141,290.267c-0.544-0.567-0.529-1.106-0.015-1.675
	C269.082,289.214,269.084,289.447,268.141,290.267z M289.433,291.404c0.637,0.293,0.758,0.724,0.48,1.188
	c-0.264,0.441-0.685,0.406-1.089,0.124C288.592,292.103,288.932,291.756,289.433,291.404z M268.166,257.203
	c-0.574-0.649-0.569-1.164-0.039-1.691C269.088,256.185,269.095,256.302,268.166,257.203z M289.492,235.217
	c0.766,0.5,0.765,1.031,0.459,1.566c-0.157,0.275-0.531,0.303-0.727,0.042C288.813,236.276,289.025,235.783,289.492,235.217z
	 M267.746,245.121c-0.278-0.748-0.335-1.295,0.411-1.642C268.899,244.483,268.881,244.578,267.746,245.121z M277.197,249.202
	c-0.874,0.846-0.903,0.838-1.575-0.367C276.258,248.29,276.702,248.586,277.197,249.202z M268.128,254.134
	c-0.543-0.525-0.478-1.047-0.081-1.617C269.112,253.125,269.123,253.398,268.128,254.134z M289.172,258.448
	c1.096,0.566,1.108,0.674,0.311,1.72C288.77,259.736,289.031,259.163,289.172,258.448z M270.404,262.687
	c-0.806-1.015-0.784-1.147,0.226-1.609C271.042,261.638,271.09,262.14,270.404,262.687z M282.85,251.549
	c-0.41-0.864,0.296-0.96,0.687-1.164c0.427-0.224,0.699,0.051,0.81,0.544C283.995,251.389,283.535,251.625,282.85,251.549z
	 M270.549,263.811c0.471,0.581,0.572,1.073,0.035,1.516c-0.186,0.154-0.494,0.075-0.599-0.154
	C269.723,264.61,269.723,264.1,270.549,263.811z M268.226,239.337c-0.669-0.143-0.703-0.61-0.642-1.095
	c0.062-0.5,0.399-0.568,0.878-0.457C268.731,238.363,268.848,238.897,268.226,239.337z M270.527,266.804
	c0.56,0.591,0.503,1.066,0.081,1.561C269.598,267.867,269.582,267.691,270.527,266.804z M289.877,238.437
	c0.318,0.655,0.39,1.157-0.167,1.58C288.761,239.365,288.778,239.055,289.877,238.437z M287.571,238.917
	c0.443,0.73,0.512,1.286,0.069,1.873C286.751,240.224,286.73,239.961,287.571,238.917z M287.46,224.197
	c0.608,0.853,0.702,1.433-0.096,2.063C286.804,225.572,286.827,225.003,287.46,224.197z M268.278,240.594
	c0.41,0.452,0.434,0.894,0.342,1.374c-0.41,0.31-0.812,0.34-0.991-0.192C267.458,241.266,267.51,240.755,268.278,240.594z
	 M289.38,257.191c-0.559-0.667-0.438-1.179-0.047-1.735C290.285,256.204,290.287,256.287,289.38,257.191z M289.383,251.167
	c-0.495-0.602-0.48-1.108-0.165-1.645C290.289,249.961,290.322,250.204,289.383,251.167z M289.345,254.226
	c-0.43-0.69-0.504-1.215,0.026-1.739C290.26,253.248,290.264,253.365,289.345,254.226z M268.305,234.649
	c0.409,0.652,0.574,1.151-0.041,1.559c-0.216,0.143-0.499,0.004-0.587-0.211C267.442,235.422,267.504,234.931,268.305,234.649z
	 M270.094,246.143c1.251-0.403,1.443-0.272,1.452,0.911C270.847,247.17,270.437,246.835,270.094,246.143z M273.856,248.434
	c-0.39-0.242-1.073-0.126-1.065-0.942c0.482-0.389,0.942-0.252,1.32,0.149C274.417,247.966,274.198,248.234,273.856,248.434z
	 M270.475,272.599c0.56,0.55,0.577,1.015,0.135,1.514C269.608,273.662,269.587,273.5,270.475,272.599z M289.433,266.254
	c-0.579-0.555-0.459-1.069-0.27-1.609C290.218,264.909,290.276,265.194,289.433,266.254z M268.131,246.536
	c0.804,0.967,0.719,1.283-0.389,1.481C267.549,247.435,267.671,246.964,268.131,246.536z M270.092,232.975
	c-0.348-0.635-0.67-1.258,0.246-1.711C270.847,231.994,270.869,232.554,270.092,232.975z M270.366,289.969
	c0.553,0.182,0.907,0.428,0.883,1.081c-0.381,0.295-0.842,0.363-1.202,0.004C269.658,290.665,269.915,290.301,270.366,289.969z
	 M289.399,232.658c0.9,0.61,0.892,0.785-0.068,1.477C288.968,233.607,288.999,233.139,289.399,232.658z M283.411,248.161
	c0.238-1.044,0.8-1.131,1.663-0.783C284.814,248.341,284.23,248.382,283.411,248.161z M272.255,292.315
	c-0.912,0.89-1.259,0.851-1.684-0.135C271.114,291.924,271.631,291.871,272.255,292.315z M287.104,274.146
	c-0.364-0.501-0.235-0.98-0.002-1.448c0.744-0.047,0.749,0.403,0.746,0.831C287.844,273.967,287.652,274.234,287.104,274.146z
	 M270.456,277.114c-0.818-0.91-0.81-0.971,0.139-1.488C271.07,276.12,271.045,276.572,270.456,277.114z M278.035,250.052
	c0.637-0.35,1.143-0.364,1.658-0.018C279.149,251.059,278.874,251.074,278.035,250.052z M287.096,282.898
	c-0.272-0.625-0.245-1.097-0.001-1.533c0.592-0.134,0.731,0.18,0.747,0.596C287.861,282.446,287.815,282.904,287.096,282.898z
	 M286.563,290.986c0.228-0.602,0.228-0.602,0.796-0.959c0.505,0.217,0.63,0.633,0.305,1.013
	C287.36,291.396,286.911,291.375,286.563,290.986z M280.222,252.724c-0.221-1.052-0.221-1.052,1.078-1.11
	C281.395,252.408,281.395,252.408,280.222,252.724z M273.523,292.166c0.517-0.275,1.026-0.228,1.513-0.023
	c0.119,0.767-0.33,0.783-0.768,0.785C273.802,292.93,273.413,292.826,273.523,292.166z M278.405,292.429
	c-0.796,0.647-1.344,0.761-1.87-0.167C277.174,291.878,277.693,291.872,278.405,292.429z M279.566,292.307
	c0.611-0.437,1.122-0.411,1.65-0.103C280.76,293.164,280.423,293.201,279.566,292.307z M285.598,292.217
	c0.666-0.282,1.182-0.346,1.701,0.023C286.677,293.189,286.332,293.201,285.598,292.217z M287.231,254.981
	c0.844,1.06,0.819,1.235-0.104,1.709C286.803,256.157,286.848,255.655,287.231,254.981z M287.181,259.727
	c-0.395-0.637-0.334-1.134-0.04-1.672C288.076,258.717,288.082,258.9,287.181,259.727z M270.314,227.191
	c-0.822-0.931-0.795-1.145,0.135-1.581C270.788,226.119,270.826,226.598,270.314,227.191z M287.138,268.4
	c-0.309-0.603-0.335-1.079-0.016-1.554C288.111,267.342,288.132,267.713,287.138,268.4z M287.229,269.597
	c0.829,0.676,0.807,1.19,0.099,1.824C286.739,270.863,286.841,270.339,287.229,269.597z M287.512,229.171
	c-0.775-0.499-0.583-1.043-0.358-1.615C288.102,227.862,288.133,227.985,287.512,229.171z M269.932,229.99
	c-0.215-0.607-0.478-1.191,0.332-1.609C270.895,229.486,270.87,229.608,269.932,229.99z M287.252,277.092
	c-0.458-0.553-0.427-1.017-0.129-1.498C288.061,275.977,288.093,276.212,287.252,277.092z M287.184,279.967
	c-0.393-0.512-0.336-1.015-0.068-1.546C288.105,278.887,288.127,279.27,287.184,279.967z M269.937,234.357
	c1.091,0.317,0.762,0.967,0.542,1.688C269.398,235.726,269.73,235.073,269.937,234.357z M274.132,290.905
	c-0.626,0.493-1.128,0.432-1.659,0.155C272.914,290.144,273.105,290.116,274.132,290.905z M285.301,290.995
	c-0.639,0.346-1.137,0.403-1.642,0.004C284.269,290.118,284.466,290.109,285.301,290.995z M287.597,236.056
	c0.402,0.76,0.516,1.284-0.167,1.798C286.803,237.224,286.785,236.713,287.597,236.056z M270.481,237.362
	c0.286,0.497,0.232,0.897,0.129,1.29c-0.433,0.25-0.795,0.244-0.855-0.281C269.701,237.902,269.564,237.262,270.481,237.362z
	 M287.645,234.939c-0.946-0.774-0.921-1.144,0.029-1.631C288.042,233.816,287.995,234.316,287.645,234.939z M269.898,240.127
	c0.953,0.692,0.953,0.692,0.28,1.551C269.592,241.299,269.833,240.812,269.898,240.127z M287.579,243.857
	c-0.882-0.952-0.834-1.31,0.152-1.673C288.002,242.723,288.057,243.237,287.579,243.857z M282.741,292.154
	c0.553-0.207,1.069-0.289,1.573,0.146C283.529,293.218,283.138,293.179,282.741,292.154z M282.438,291.107
	c-0.749,0.113-0.749,0.113-1.382-0.082c-0.118-0.518,0.188-0.672,0.615-0.672C282.107,290.353,282.54,290.4,282.438,291.107z
	 M287.125,288.609c-0.287-0.537-0.334-1.031,0.084-1.54C288.085,287.854,288.071,288.082,287.125,288.609z M287.287,286.009
	c-0.474-0.669-0.474-1.156-0.017-1.847C288,284.78,288.034,285.277,287.287,286.009z M287.217,263.803
	c0.87,0.874,0.845,1.099-0.098,1.538C286.824,264.854,286.811,264.38,287.217,263.803z M276.732,291.055
	c-0.418,0.323-0.85,0.295-1.291,0.048c-0.199-0.527,0.043-0.738,0.512-0.758C276.42,290.325,276.841,290.388,276.732,291.055z
	 M278.217,291.005c0.54-0.856,0.669-0.863,1.445-0.058C279.177,291.408,278.723,291.391,278.217,291.005z M287.189,262.615
	c-0.382-0.573-0.36-1.039-0.054-1.512C288.068,261.576,288.088,261.799,287.189,262.615z M271.701,250.215
	c0.634-0.496,1.109-0.417,1.706,0.253C272.548,250.787,272.098,250.624,271.701,250.215z M270.515,244.748
	c-1.193-0.211-0.724-0.899-0.656-1.517C270.634,243.65,270.634,243.65,270.515,244.748z M287.16,253.753
	c-0.328-0.426-0.295-0.81-0.096-1.206c0.388-0.18,0.661-0.074,0.736,0.325C287.879,253.294,287.897,253.739,287.16,253.753z
	 M268.084,251.055c-0.388-0.392-0.176-0.747,0.058-1.11C268.895,250.684,268.895,250.684,268.084,251.055z M287.339,231.885
	c-0.374-0.673-0.437-1.073,0.249-1.343C287.772,231.236,287.772,231.236,287.339,231.885z M270.343,252.65
	c0.216,0.002,0.28,0.12,0.305,0.259c0.041,0.226,0.077,0.457-0.105,0.643c-0.093,0-0.216,0.036-0.253-0.005
	C269.994,253.218,270.013,252.91,270.343,252.65z M125.102,156.656c-0.011,1.537-1.223,2.821-2.64,2.798
	c-1.318-0.021-2.614-1.367-2.633-2.736c-0.021-1.48,1.253-2.738,2.736-2.701C124.171,154.058,125.114,155.039,125.102,156.656z
	 M122.477,154.849c-0.976-0.031-1.698,0.659-1.752,1.672c-0.053,0.995,0.337,1.468,1.253,1.523c1.017,0.061,1.703-0.581,1.754-1.638
	C123.778,155.447,123.317,154.875,122.477,154.849z M113.625,153.446c-0.446-0.608-0.422-1.11-0.085-1.608
	c0.504-0.202,0.727,0.031,0.817,0.467C114.465,152.829,114.358,152.999,113.625,153.446z M113.903,169.293
	c0.641,0.772,0.733,1.347-0.128,1.864C113.154,170.212,113.154,170.212,113.903,169.293z M113.804,156.565
	c-0.654-0.72-0.663-1.261-0.059-1.882C114.621,155.245,114.553,155.797,113.804,156.565z M131.334,146.527
	c-1.062-0.553-1.077-1.017-0.143-1.671C131.679,145.554,131.683,145.554,131.334,146.527z M131.139,162.418
	c0.656,0.568,0.553,1.111,0.264,1.687C130.325,163.876,130.244,163.466,131.139,162.418z M131.392,165.526
	c0.29,0.625,0.351,1.14-0.082,1.591c-0.71,0.072-0.771-0.36-0.773-0.81C130.536,165.833,130.689,165.473,131.392,165.526z
	 M129.729,134.639c-0.591,0.663-1.131,0.49-1.717,0.238C128.49,133.743,128.678,133.715,129.729,134.639z M119.89,137.374
	c-0.69,0.354-1.23,0.474-1.701-0.146C119.003,136.29,119.255,136.301,119.89,137.374z M124.128,137.413
	c0.542-1.125,0.972-1.145,1.738-0.154C125.377,137.845,124.82,137.717,124.128,137.413z M131.213,153.625
	c0.566,0.505,0.517,1.042,0.181,1.605c-0.536,0.167-0.79-0.043-0.842-0.51C130.495,154.221,130.54,153.757,131.213,153.625z
	 M113.883,159.447c-0.739-0.509-0.678-1.037-0.374-1.622C114.567,158.052,114.627,158.278,113.883,159.447z M131.149,147.679
	c0.582,0.743,0.646,1.279,0.009,1.875C130.322,148.978,130.349,148.436,131.149,147.679z M126.689,134.679
	c-0.777,0.403-0.777,0.403-1.579,0.19c-0.167-0.356-0.119-0.677,0.277-0.8C125.917,133.904,126.426,133.914,126.689,134.679z
	 M113.869,165.369c-0.801-1.011-0.775-1.175,0.218-1.63C114.482,164.299,114.558,164.805,113.869,165.369z M115.195,137.297
	c0.853-1.049,1.08-1.038,1.734,0.011C116.395,137.813,115.869,137.766,115.195,137.297z M121.012,137.14
	c0.76-0.782,1.308-0.773,1.838,0.061C121.987,137.737,121.987,137.737,121.012,137.14z M127.092,137.273
	c0.729-1.004,1.014-0.993,1.575,0.081C128.11,137.791,127.602,137.828,127.092,137.273z M130.957,137.778
	c-0.381-0.053-0.805-0.084-0.86-0.573c-0.044-0.396,0.211-0.612,0.602-0.633c0.417-0.022,0.784,0.102,0.848,0.567
	C131.604,137.538,131.347,137.741,130.957,137.778z M113.824,166.433c0.831,1.114,0.76,1.392-0.343,1.555
	C113.244,167.44,113.135,166.925,113.824,166.433z M131.348,140.508c-1.016-0.443-1.038-0.568-0.286-1.605
	C131.797,139.35,131.699,139.886,131.348,140.508z M131.191,143.547c-0.921-0.771-0.906-1,0.118-1.659
	C131.739,142.488,131.779,143.021,131.191,143.547z M113.862,144.752c-0.742-0.517-0.641-1.051-0.36-1.63
	C114.574,143.339,114.633,143.576,113.862,144.752z M131.423,171.538c0.26,0.581,0.332,1.095-0.198,1.539
	c-0.704-0.03-0.691-0.529-0.668-1C130.578,171.626,130.808,171.387,131.423,171.538z M131.284,150.755
	c0.437,0.697,0.502,1.216-0.114,1.69C130.305,151.64,130.308,151.49,131.284,150.755z M131.413,161.188
	c-1.111-0.434-1.147-0.694-0.296-1.64C131.795,159.951,131.662,160.499,131.413,161.188z M113.661,162.412
	c-0.462-0.82-0.617-1.391,0.323-1.81C114.532,161.274,114.595,161.817,113.661,162.412z M131.007,134.86
	c0.382-1.12,0.631-1.152,1.583-0.21C132.12,135.28,131.593,135.202,131.007,134.86z M111.476,134.156
	c0.936,0.659,0.696,1.294,0.46,2.037C110.921,135.715,111.214,135.04,111.476,134.156z M131.314,168.443
	c0.47,0.544,0.304,1,0.137,1.428c-0.634,0.169-0.855-0.084-0.895-0.534C130.513,168.864,130.621,168.473,131.314,168.443z
	 M133.018,146.915c0.914,0.863,0.897,1.193-0.018,1.782C132.568,148.143,132.63,147.602,133.018,146.915z M132.854,169.251
	c-0.161-0.59-0.289-1.108,0.153-1.57c0.783,0.011,0.665,0.558,0.66,0.995C133.664,169.095,133.51,169.413,132.854,169.251z
	 M118.92,134.766c1.092-0.973,1.299-0.958,1.788,0.071C120.148,135.222,119.612,135.266,118.92,134.766z M122.01,134.713
	c0.782-0.988,0.963-0.985,1.691,0.031C123.117,135.225,122.577,135.263,122.01,134.713z M113.69,140.013
	c0.854,0.184,0.761,0.737,0.535,1.288c-0.092,0.225-0.412,0.332-0.603,0.155C113.108,140.979,113.192,140.49,113.69,140.013z
	 M113.921,145.927c0.57,0.479,0.602,0.962,0.232,1.424c-0.205,0.256-0.594,0.182-0.722-0.09
	C113.197,146.761,113.207,146.259,113.921,145.927z M113.768,148.733c0.801,0.739,0.723,1.23,0.113,1.818
	C113.099,149.951,113.211,149.452,113.768,148.733z M111.893,152.151c0.397,0.63,0.411,1.141,0.046,1.657
	C110.984,153.333,110.958,152.992,111.893,152.151z M131.395,158.241c-0.843,0.009-0.892-0.46-0.819-0.961
	c0.072-0.497,0.398-0.589,0.855-0.4C131.726,157.316,131.653,157.746,131.395,158.241z M111.818,159.973
	c-0.788-0.752-0.788-1.309-0.007-1.976C112.308,158.653,112.314,159.202,111.818,159.973z M111.898,168.607
	c-0.948-0.815-0.92-1.152,0.059-1.673C112.312,167.46,112.29,167.976,111.898,168.607z M114.794,134.766
	c-0.596,0.325-1.055,0.31-1.569,0.023C114.211,133.766,114.257,133.765,114.794,134.766z M117.885,134.782
	c-0.739,0.504-1.292,0.439-1.914,0.082C116.729,134.003,116.729,134.003,117.885,134.782z M113.443,137.077
	c1.05,0.527,1.053,0.546,0.324,1.522C113.313,138.201,113.265,137.743,113.443,137.077z M133.131,136.995
	c-0.596-0.589-0.375-1.1-0.295-1.667C133.872,135.774,133.905,135.987,133.131,136.995z M132.941,138.289
	c0.775-0.029,0.727,0.443,0.728,0.862c0.001,0.455-0.187,0.718-0.72,0.595C132.606,139.287,132.64,138.819,132.941,138.289z
	 M112,140.532c0.265,0.551,0.282,1.037-0.046,1.504c-0.565,0.144-0.696-0.202-0.717-0.622
	C111.214,140.966,111.249,140.527,112,140.532z M132.951,145.707c-0.273-0.657-0.38-1.164,0.095-1.648
	C133.903,144.778,133.9,144.999,132.951,145.707z M111.855,147.924c-0.875-0.857-0.846-1.099,0.107-1.511
	C112.302,146.896,112.291,147.361,111.855,147.924z M111.933,150.825c-0.956-0.595-0.965-0.943-0.031-1.633
	C112.301,149.744,112.31,150.264,111.933,150.825z M132.982,151.628c-0.373-0.52-0.344-1.023-0.028-1.553
	C133.945,150.601,133.954,151.021,132.982,151.628z M132.911,154.429c-0.28-0.555-0.239-0.99,0.013-1.388
	c0.61-0.132,0.738,0.201,0.746,0.631C133.676,154.131,133.626,154.563,132.911,154.429z M111.933,155.166
	c0.338,0.597,0.348,1.079,0.022,1.558C110.971,156.272,110.947,155.882,111.933,155.166z M133.14,157.678
	c-0.589-0.498-0.423-0.996-0.319-1.475c0.26-0.27,0.582-0.29,0.709,0.005C133.746,156.715,133.875,157.283,133.14,157.678z
	 M111.991,161.192c0.255,0.563,0.326,1.04-0.065,1.481c-0.551,0.1-0.689-0.219-0.692-0.648
	C111.23,161.588,111.256,161.152,111.991,161.192z M132.878,161.819c1.039,0.633,1.042,0.949,0.136,1.554
	C132.564,162.936,132.706,162.463,132.878,161.819z M133.138,164.537c0.735,0.786,0.688,1.31-0.033,1.969
	C132.597,165.766,132.606,165.25,133.138,164.537z M111.863,169.804c0.441,0.603,0.416,1.108,0.102,1.628
	C110.996,171.002,110.96,170.678,111.863,169.804z M132.943,170.684c0.967,0.449,0.998,0.81,0.111,1.609
	C132.573,171.769,132.634,171.248,132.943,170.684z M111.907,143.44c0.371,0.463,0.346,0.897,0.141,1.352
	c-0.372,0.201-0.687,0.131-0.767-0.272C111.195,144.083,111.088,143.551,111.907,143.44z M112.108,165.398
	c-0.501,0.161-0.783,0.061-0.843-0.348c-0.067-0.46-0.103-0.942,0.588-1.102C112.384,164.414,112.148,164.928,112.108,165.398z
	 M133.007,142.71c-0.416-0.407-0.328-0.867-0.151-1.332c0.518-0.178,0.777,0.002,0.801,0.478
	C133.679,142.276,133.702,142.733,133.007,142.71z M132.907,158.99c0.766-0.088,0.763,0.366,0.761,0.803
	c-0.002,0.496-0.267,0.666-0.786,0.547C132.599,159.871,132.676,159.419,132.907,158.99z M111.976,137.46
	c0.24,0.54,0.423,1.032-0.333,1.331C111.11,137.869,111.11,137.869,111.976,137.46z M278.912,159.435
	c-1.319,0.015-2.78-1.434-2.776-2.752c0.004-1.364,1.409-2.714,2.802-2.693c1.502,0.023,2.576,1.111,2.599,2.633
	C281.558,158.128,280.354,159.419,278.912,159.435z M280.112,156.319c0.006-0.985-0.423-1.477-1.293-1.481
	c-0.969-0.005-1.614,0.688-1.637,1.76c-0.022,1.038,0.352,1.454,1.294,1.441C279.524,158.024,280.105,157.413,280.112,156.319z
	 M289.372,151.685c-0.431-0.601-0.526-1.147,0.086-1.698C290.384,150.764,290.371,151.071,289.372,151.685z M289.768,146.848
	c0.401,0.866,0.668,1.491-0.328,1.931C288.89,148.061,288.792,147.471,289.768,146.848z M289.458,157.703
	c-0.61-0.543-0.476-1.106-0.26-1.669c0.516-0.203,0.813-0.063,0.888,0.422C290.171,156.997,290.124,157.493,289.458,157.703z
	 M268.217,136.253c-0.894-0.546-0.751-1.166-0.46-1.851C268.845,134.817,268.875,134.925,268.217,136.253z M289.403,167.564
	c0.98,0.834,0.979,1.051,0.051,1.804C288.814,168.769,288.97,168.21,289.403,167.564z M289.213,170.569
	c1.15,0.598,1.169,0.882,0.263,1.743C288.807,171.856,289.061,171.288,289.213,170.569z M280.197,134.737
	c-0.681,0.475-1.21,0.495-1.756,0.023C279.112,133.727,279.369,133.714,280.197,134.737z M283.154,134.694
	c-0.683,0.537-1.231,0.546-1.803,0.055C281.997,133.741,282.15,133.732,283.154,134.694z M286.062,134.698
	c-0.486,0.576-1.029,0.483-1.587,0.18c-0.176-0.546,0.049-0.801,0.502-0.864C285.487,133.944,285.946,134.014,286.062,134.698z
	 M273.296,137.322c-0.688,0.446-1.218,0.496-1.748-0.021C272.241,136.295,272.518,136.287,273.296,137.322z M287.713,137.707
	c-0.613,0.139-1.076,0.058-1.36-0.489c0.154-0.609,0.594-0.733,1.088-0.596C287.979,136.772,288.001,137.172,287.713,137.707z
	 M268.316,155.138c0.353,0.949,0.353,0.949-0.118,1.646C267.284,156.043,267.289,155.777,268.316,155.138z M289.339,139.858
	c-0.395-0.674-0.449-1.204,0.036-1.722C290.392,138.755,290.396,139.195,289.339,139.858z M268.209,159.944
	c-0.836-0.73-0.869-1.288-0.087-1.933C268.895,158.604,268.787,159.17,268.209,159.944z M289.238,141.303
	c0.63-0.128,0.845,0.126,0.867,0.569c0.025,0.488-0.007,0.963-0.737,0.966C288.904,142.382,288.966,141.879,289.238,141.303z
	 M289.265,166.367c-0.28-0.68-0.41-1.229,0.174-1.702C290.397,165.441,290.374,165.871,289.265,166.367z M277.247,134.77
	c-0.738,0.432-1.302,0.51-1.833-0.101C276.277,133.739,276.458,133.741,277.247,134.77z M268.268,166.859
	c0.559,0.553,0.51,1.1,0.08,1.694C267.281,168.001,267.267,167.614,268.268,166.859z M268.209,169.836
	c0.648,0.453,0.514,0.996,0.237,1.548c-0.423,0.182-0.728,0.105-0.826-0.301C267.491,170.557,267.469,170.035,268.209,169.836z
	 M268.235,149.109c0.542,0.567,0.481,1.083,0.238,1.602c-0.406,0.218-0.724,0.166-0.844-0.238
	C267.474,149.949,267.482,149.437,268.235,149.109z M274.124,134.823c-0.652,0.332-1.165,0.43-1.639-0.089
	C273.247,133.73,273.526,133.733,274.124,134.823z M289.479,136.984c-0.575-0.54-0.495-1.048-0.26-1.565
	c0.382-0.164,0.671-0.136,0.83,0.255C290.212,136.077,290.101,136.344,289.479,136.984z M276.28,137.232
	c-0.546,0.58-1.088,0.566-1.692,0.09C275.295,136.291,275.508,136.281,276.28,137.232z M277.544,137.357
	c0.596-1.045,0.844-1.061,1.674-0.132C278.691,137.86,278.149,137.735,277.544,137.357z M282.12,137.279
	c-0.66,0.5-1.167,0.556-1.664-0.023C281.157,136.33,281.277,136.326,282.12,137.279z M285.248,137.215
	c-0.596,0.629-1.119,0.47-1.689,0.215C283.976,136.337,284.199,136.309,285.248,137.215z M268.414,137.442
	c0.295,0.646,0.431,1.152-0.177,1.561C267.256,138.281,267.273,137.986,268.414,137.442z M268.223,142.265
	c-0.927-1.195-0.889-1.416,0.182-1.744C268.795,141.096,268.73,141.615,268.223,142.265z M289.314,145.703
	c-0.385-0.689-0.349-1.203,0.133-1.712C290.374,144.884,290.355,145.143,289.314,145.703z M268.212,152.081
	c0.582,0.747,0.612,1.276-0.071,1.831C267.295,153.306,267.411,152.774,268.212,152.081z M289.41,154.692
	c-0.514-0.66-0.485-1.181-0.047-1.719C290.36,153.539,290.374,153.771,289.41,154.692z M271.292,134.707
	c-0.475,0.54-0.995,0.503-1.541,0.169c-0.143-0.508,0.029-0.801,0.482-0.856C270.726,133.959,271.164,134.062,271.292,134.707z
	 M270.033,160.612c0.889,0.738,0.894,1.029,0.124,1.785C269.668,161.666,269.668,161.666,270.033,160.612z M289.294,163.38
	c-0.376-0.537-0.287-0.991-0.073-1.416c0.566-0.156,0.838,0.022,0.871,0.489C290.127,162.94,290.088,163.413,289.294,163.38z
	 M287.442,162.41c0.689,0.675,0.684,1.231-0.058,1.898C286.816,163.61,286.761,163.052,287.442,162.41z M268.193,147.957
	c-0.831-0.472-0.784-0.981-0.219-1.648C268.916,146.775,268.824,147.289,268.193,147.957z M287.446,147.853
	c0.656,0.805,0.656,0.819,0.006,1.645C286.8,148.694,286.8,148.67,287.446,147.853z M270.279,154.604
	c0.539,0.702,0.544,1.244,0.099,1.833C269.53,155.8,269.519,155.671,270.279,154.604z M289.444,158.826
	c0.974,0.901,0.93,1.197-0.172,1.553C288.939,159.865,288.911,159.389,289.444,158.826z M270.471,171.209
	c-0.94-0.704-0.953-0.858-0.263-1.846C270.963,169.841,270.71,170.444,270.471,171.209z M287.32,134.838
	c0.07-0.79,0.5-0.889,1.003-0.805c0.465,0.078,0.584,0.394,0.433,0.841C288.289,135.23,287.838,135.147,287.32,134.838z
	 M268.373,161.124c0.34,0.625,0.452,1.117-0.091,1.564C267.288,162.005,267.29,161.697,268.373,161.124z M268.242,143.391
	c0.575,0.46,0.425,0.931,0.282,1.367c-0.453,0.225-0.778,0.168-0.896-0.22C267.48,144.055,267.525,143.592,268.242,143.391z
	 M287.633,153.659c0.498,0.51,0.285,1.052,0.194,1.556c-0.65,0.187-0.86-0.064-0.852-0.52
	C286.983,154.258,286.852,153.708,287.633,153.659z M268.264,163.988c0.556,0.422,0.453,0.917,0.194,1.425
	c-0.482,0.187-0.799,0.071-0.867-0.405C267.522,164.521,267.584,164.062,268.264,163.988z M270.615,143.112
	c0.087,0.572,0.222,1.085-0.227,1.552c-0.807-0.018-0.658-0.624-0.65-1.108C269.748,143.043,270.051,142.922,270.615,143.112z
	 M270.398,150.632c-0.894-1.015-0.88-1.188,0.014-1.823C270.874,149.366,270.727,149.886,270.398,150.632z M287.483,152.567
	c-0.69-1.123-0.688-1.144,0.166-1.714C288.068,151.418,288.059,151.922,287.483,152.567z M269.927,137.046
	c1.117,0.301,0.745,0.972,0.569,1.693C269.4,138.425,269.732,137.766,269.927,137.046z M287.714,140.568
	c-0.916-0.636-0.918-0.661-0.285-1.649C288.155,139.318,287.96,139.866,287.714,140.568z M270.508,141.531
	c-1.176-0.066-0.589-0.845-0.849-1.317C270.739,140.172,270.739,140.172,270.508,141.531z M287.417,143.554
	c-0.66-0.467-0.539-0.97-0.172-1.544C288.109,142.573,288.119,142.677,287.417,143.554z M287.907,146.538
	c-1.43-0.276-0.753-1.038-0.91-1.724C288.413,145.109,287.743,145.869,287.907,146.538z M270.305,145.811
	c0.529,0.5,0.411,0.984,0.274,1.45c-0.33,0.235-0.66,0.218-0.753-0.088C269.684,146.698,269.52,146.133,270.305,145.811z
	 M270.438,151.763c0.347,0.567,0.357,1.081,0.041,1.586c-0.522,0.15-0.742-0.089-0.737-0.548
	C269.748,152.375,269.58,151.816,270.438,151.763z M269.983,157.621c0.961,0.506,0.813,1.068,0.366,1.816
	C269.474,158.976,269.708,158.394,269.983,157.621z M287.733,161.138c-0.959-0.396-0.993-0.602-0.269-1.587
	C288.165,159.996,287.974,160.549,287.733,161.138z M270.537,163.797c0.22,0.552,0.241,1.019-0.057,1.445
	c-0.706,0.118-0.75-0.306-0.751-0.752C269.729,164.032,269.804,163.63,270.537,163.797z M287.553,167.246
	c-0.797-0.985-0.781-1.16,0.101-1.723C288.058,166.073,288.057,166.584,287.553,167.246z M270.279,166.425
	c0.606,0.561,0.368,1.075,0.329,1.619C269.504,167.745,269.447,167.425,270.279,166.425z M287.161,169.92
	c-0.246-0.587-0.426-1.122,0.349-1.489C288.116,169.498,288.102,169.554,287.161,169.92z M287.779,171.553
	c0.199,0.567,0.275,1.05-0.123,1.491c-0.673,0.107-0.67-0.357-0.681-0.785C286.965,171.792,287.047,171.389,287.779,171.553z
	 M287.757,156.907c0.238,0.497,0.207,0.887-0.01,1.246c-0.554,0.171-0.753-0.071-0.764-0.539
	C286.972,157.141,287.053,156.741,287.757,156.907z M281.564,195.928c-0.018,1.492-1.138,2.6-2.632,2.602
	c-1.468,0.003-2.767-1.238-2.793-2.666c-0.023-1.277,1.469-2.753,2.783-2.753C280.305,193.111,281.581,194.472,281.564,195.928z
	 M280.112,195.557c0.008-1.047-0.489-1.634-1.352-1.599c-0.875,0.036-1.56,0.834-1.581,1.843c-0.022,1.049,0.334,1.502,1.212,1.54
	C279.444,197.386,280.104,196.703,280.112,195.557z M289.534,210.748c-0.661-0.574-0.577-1.138-0.325-1.739
	C290.321,209.227,290.41,209.628,289.534,210.748z M268.264,193.409c0.574,0.609,0.56,1.18-0.016,1.776
	C267.282,194.505,267.285,194.111,268.264,193.409z M289.356,192.982c-0.464-0.508-0.402-1.045-0.094-1.598
	c0.653-0.198,0.822,0.17,0.845,0.64C290.129,192.496,290.134,193.007,289.356,192.982z M289.326,205.917
	c1.065,0.643,1.065,1.103,0.063,1.724C288.886,207.13,288.954,206.596,289.326,205.917z M268.252,184.431
	c0.519,0.643,0.538,1.177,0.15,1.746C267.305,185.823,267.252,185.4,268.252,184.431z M289.655,190.252
	c-0.768-0.825-0.751-1.379-0.2-2.015C290.473,188.779,290.154,189.367,289.655,190.252z M289.414,204.788
	c-0.482-0.71-0.541-1.261,0.022-1.811C290.374,203.678,290.382,203.89,289.414,204.788z M268.267,208.136
	c0.553,0.579,0.539,1.119-0.013,1.687C267.268,209.121,267.269,208.852,268.267,208.136z M289.396,182.253
	c0.967,0.955,0.959,1.151,0.014,1.849C288.873,183.537,288.935,182.974,289.396,182.253z M268.217,212.95
	c-0.924-1.13-0.893-1.355,0.144-1.82C268.802,211.729,268.752,212.268,268.217,212.95z M289.195,186.87
	c-0.192-0.593-0.293-1.083,0.228-1.516c0.707,0.094,0.728,0.61,0.653,1.131C290.008,186.959,289.707,187.108,289.195,186.87z
	 M268.347,196.43c0.387,0.685,0.499,1.217-0.115,1.695C267.28,197.355,267.285,197.086,268.347,196.43z M289.547,179.261
	c0.794,0.753,0.717,1.281-0.02,1.884C288.878,180.467,288.917,179.935,289.547,179.261z M268.116,192.253
	c-0.726-0.743-0.787-1.282,0.074-1.786C268.8,191.335,268.798,191.337,268.116,192.253z M289.236,201.614
	c-0.263-0.593-0.345-1.111,0.195-1.553c0.703,0.039,0.695,0.532,0.662,1.01C290.064,201.514,289.848,201.77,289.236,201.614z
	 M268.197,205.197c0.478,0.71,0.478,0.71,0.162,1.555c-0.455,0.153-0.721-0.033-0.774-0.489
	C267.527,205.77,267.63,205.342,268.197,205.197z M289.368,211.857c1.108,0.562,0.759,1.125,0.334,1.88
	C288.882,213.159,288.956,212.623,289.368,211.857z M289.274,216.344c-0.358-0.534-0.375-1.052,0.11-1.551
	c0.695,0.084,0.751,0.549,0.715,1.035C290.065,216.282,289.815,216.498,289.274,216.344z M269.98,210.552
	c1.083,0.591,0.633,1.205,0.557,1.967C269.382,212.003,269.726,211.366,269.98,210.552z M289.366,194.197
	c1.033,0.778,1.02,1.072-0.016,1.587C288.897,195.303,288.948,194.821,289.366,194.197z M268.153,203.983
	c-0.705-0.447-0.751-0.942-0.374-1.478c0.14-0.2,0.468-0.223,0.623-0.023C268.795,202.993,268.798,203.498,268.153,203.983z
	 M268.243,187.574c0.56,0.63,0.543,1.122,0.01,1.616C267.328,188.56,267.322,188.433,268.243,187.574z M289.244,198.697
	c-0.26-0.536-0.275-0.929-0.018-1.364c0.565-0.195,0.865,0.005,0.882,0.622C290.125,198.525,289.902,198.832,289.244,198.697z
	 M270.461,195.949c0.29,0.699,0.403,1.248-0.057,1.786C269.469,197.168,269.46,196.649,270.461,195.949z M268.247,215.727
	c-0.927-0.836-0.923-0.958-0.007-1.616C268.842,214.66,268.773,215.162,268.247,215.727z M268.274,199.381
	c0.503,0.443,0.444,0.881,0.241,1.343c-0.418,0.263-0.783,0.215-0.907-0.26C267.483,199.982,267.532,199.491,268.274,199.381z
	 M270.3,191.866c-0.842-1.014-0.801-1.335,0.18-1.766C270.779,190.678,270.857,191.215,270.3,191.866z M287.274,184.891
	c-0.418-0.596-0.38-1.105-0.149-1.605c0.447-0.196,0.725-0.067,0.774,0.339C287.955,184.1,288.105,184.664,287.274,184.891z
	 M268.216,183.304c-0.908-0.951-0.888-1.102,0.149-1.536C268.766,182.274,268.799,182.744,268.216,183.304z M287.692,205.473
	c-0.963-0.294-0.701-0.924-0.65-1.486C288.048,203.939,288.056,203.955,287.692,205.473z M287.551,200.765
	c0.518,0.597,0.425,1.102,0.203,1.633C286.752,202.092,286.699,201.768,287.551,200.765z M269.999,200.787
	c-0.299-0.808-0.593-1.43,0.458-1.765C270.719,199.688,270.957,200.26,269.999,200.787z M287.661,199.581
	c-1.016-0.336-0.676-0.943-0.484-1.62C288.241,198.292,287.97,198.88,287.661,199.581z M287.349,209.706
	c0.831,0.933,0.789,1.186-0.191,1.499C286.907,210.716,286.846,210.256,287.349,209.706z M270.43,192.942
	c0.268,0.781,0.534,1.367-0.368,1.835C269.667,194.088,269.43,193.535,270.43,192.942z M287.711,193.869
	c-0.971-0.894-0.957-1.142-0.063-1.698C288.095,192.67,287.931,193.163,287.711,193.869z M287.671,190.813
	c-0.985-0.54-0.731-1.093-0.412-1.77C288.223,189.44,287.946,190.033,287.671,190.813z M269.872,215.352
	c-0.139-0.809-0.41-1.451,0.606-1.731C270.673,214.361,271.045,215.016,269.872,215.352z M269.994,186.953
	c0.96,0.555,0.715,1.144,0.47,1.83C269.389,188.43,269.727,187.78,269.994,186.953z M287.8,186.189
	c0.126,0.694,0.334,1.242-0.335,1.611C286.745,186.833,286.777,186.634,287.8,186.189z M270.129,209.334
	c-0.435-0.59-0.633-1.145,0.092-1.646C270.907,208.35,270.828,208.874,270.129,209.334z M287.767,206.874
	c0.221,0.567,0.282,1.053-0.094,1.508c-0.679,0.128-0.689-0.337-0.696-0.773C286.968,207.155,287.01,206.716,287.767,206.874z
	 M270.072,185.924c-0.395-0.778-0.667-1.347,0.318-1.674C270.78,185.176,270.772,185.176,270.072,185.924z M287.508,180.13
	c0.581,0.507,0.429,1.006,0.319,1.489c-0.261,0.269-0.593,0.295-0.714-0.004C286.909,181.109,286.765,180.532,287.508,180.13z
	 M270.023,181.256c0.888,0.379,0.687,0.93,0.545,1.499C269.615,182.569,269.615,182.569,270.023,181.256z M270.465,204.956
	c0.346,0.446,0.296,0.908,0.053,1.372c-0.659,0.207-0.785-0.152-0.788-0.64C269.725,205.225,269.791,204.817,270.465,204.956z
	 M287.551,214.25c-0.82-0.317-0.504-0.877-0.547-1.349C288.078,212.857,288.133,212.989,287.551,214.25z M287.747,195.017
	c0.243,0.546,0.275,0.982-0.011,1.4c-0.498,0.164-0.741-0.023-0.75-0.509C286.977,195.437,286.927,194.912,287.747,195.017z
	 M270.204,201.945c0.668,0.297,0.482,0.805,0.406,1.267c-0.28,0.257-0.599,0.297-0.741,0.011
	C269.638,202.757,269.566,202.247,270.204,201.945z M125.103,195.84c0.014,1.66-1.015,2.703-2.645,2.682
	c-1.449-0.018-2.608-1.184-2.627-2.643c-0.018-1.382,1.369-2.791,2.74-2.78C123.941,193.11,125.091,194.354,125.103,195.84z
	 M123.754,195.518c0.009-0.881-0.547-1.557-1.287-1.566c-0.932-0.011-1.744,0.853-1.753,1.866c-0.01,1.043,0.461,1.541,1.442,1.524
	C123.037,197.327,123.744,196.52,123.754,195.518z M113.706,194.729c-0.58-0.553-0.531-1.087-0.046-1.666
	C114.642,193.7,114.649,193.987,113.706,194.729z M113.785,195.897c0.879,0.701,0.68,1.264,0.166,1.951
	C113.16,196.996,113.16,196.996,113.785,195.897z M113.767,212.538c-0.6-0.762-0.652-1.306,0.017-1.912
	C114.615,211.232,114.563,211.782,113.767,212.538z M131.334,181.908c-1.031-0.659-1.049-0.912-0.196-1.768
	C131.819,180.614,131.671,181.177,131.334,181.908z M131.374,202.502c-1.088-0.544-1.114-0.842-0.225-1.687
	C131.835,201.25,131.665,201.807,131.374,202.502z M131.25,208.537c-0.98-0.911-0.962-1.199,0.052-1.746
	C131.795,207.397,131.7,207.932,131.25,208.537z M113.552,209.414c-0.326-0.695-0.431-1.236,0.225-1.667
	C114.655,208.564,114.629,208.857,113.552,209.414z M131.172,187.959c-0.785-0.742-0.886-1.28-0.033-1.866
	C131.8,186.675,131.715,187.209,131.172,187.959z M113.42,188.595c-0.149-0.624-0.27-1.167,0.416-1.543
	c0.669,0.276,0.604,0.805,0.474,1.31C114.203,188.779,113.885,188.824,113.42,188.595z M131.146,190.931
	c-0.776-0.753-0.833-1.315-0.007-1.923C131.831,189.637,131.781,190.201,131.146,190.931z M113.954,191.949
	c-0.922-0.767-0.696-1.303-0.19-1.98C114.643,190.601,114.431,191.158,113.954,191.949z M131.098,205.547
	c-0.711-0.66-0.801-1.209,0.022-1.844C131.812,204.356,131.811,204.904,131.098,205.547z M131.141,184.998
	c-0.802-0.756-0.794-1.294,0.036-1.854C131.798,183.741,131.734,184.274,131.141,184.998z M131.355,192.13
	c0.339,0.646,0.362,1.141-0.104,1.609C130.253,193.036,130.265,192.692,131.355,192.13z M131.483,196.552
	c-1.151-0.485-1.176-0.631-0.424-1.653C131.843,195.251,131.588,195.838,131.483,196.552z M131.227,197.961
	c0.636,0.498,0.404,1.019,0.155,1.602C130.267,198.986,130.253,198.691,131.227,197.961z M113.85,200.742
	c-0.737-0.547-0.652-1.069-0.298-1.65C114.58,199.476,114.609,199.617,113.85,200.742z M113.504,213.765
	c1.077,0.233,1.135,0.472,0.386,1.559C113.076,214.953,113.242,214.384,113.504,213.765z M131.4,211.322
	c-1.098-0.596-1.109-0.784-0.222-1.583C131.819,210.143,131.629,210.654,131.4,211.322z M133.018,210.69
	c-0.412-0.609-0.361-1.128-0.152-1.633c0.453-0.188,0.739-0.064,0.779,0.347C133.692,209.879,133.853,210.456,133.018,210.69z
	 M133.282,188.144c0.487,0.799,0.599,1.346-0.11,1.917C132.545,189.417,132.515,188.872,133.282,188.144z M131.22,214.243
	c-0.922-0.741-0.919-0.93,0.037-1.545C131.753,213.234,131.786,213.729,131.22,214.243z M113.444,184.171
	c1.325,0.454,0.909,1.03,0.646,1.7C113.055,185.52,113.337,184.938,113.444,184.171z M113.913,181.23
	c0.578,0.529,0.62,1.01,0.229,1.468c-0.214,0.251-0.587,0.18-0.721-0.106C113.178,182.074,113.25,181.595,113.913,181.23z
	 M113.425,206.338c-0.127-0.675-0.337-1.243,0.489-1.438C114.608,205.929,114.56,206.095,113.425,206.338z M111.911,210.034
	c-0.907-1.092-0.891-1.257,0.004-1.878C112.363,208.721,112.219,209.249,111.911,210.034z M112.063,195.299
	c-1.087-0.847-1.088-1.166-0.191-1.849C112.401,193.972,112.155,194.527,112.063,195.299z M113.453,203.29
	c-0.205-0.57-0.199-1.002,0.26-1.309c0.681,0.023,0.693,0.474,0.637,0.913C114.286,203.393,113.969,203.509,113.453,203.29z
	 M111.799,184.438c0.524,0.609,0.421,1.131,0.285,1.649c-0.406,0.205-0.71,0.125-0.8-0.266
	C111.172,185.332,111.127,184.813,111.799,184.438z M111.948,214.165c0.356,0.483,0.328,0.986,0.051,1.501
	c-0.642,0.121-0.757-0.268-0.766-0.722C111.224,214.503,111.27,214.072,111.948,214.165z M132.925,184.115
	c-0.245-0.681-0.339-1.2,0.042-1.723C133.933,183.011,133.945,183.392,132.925,184.115z M132.865,203.111
	c0.709-0.089,0.811,0.299,0.811,0.763c-0.001,0.453-0.07,0.864-0.738,0.754C132.601,204.118,132.675,203.612,132.865,203.111z
	 M132.922,212.03c0.947,0.407,0.979,0.601,0.249,1.575C132.493,213.155,132.681,212.609,132.922,212.03z M111.965,211.083
	c0.28,0.654,0.345,1.17-0.047,1.68C110.972,212.16,110.965,211.788,111.965,211.083z M132.929,201.605
	c-0.301-0.493-0.308-0.993,0.025-1.49c0.674-0.123,0.714,0.312,0.716,0.752C133.671,201.312,133.619,201.739,132.929,201.605z
	 M111.935,196.477c0.334,0.581,0.353,1.062,0.035,1.534c-0.446,0.147-0.677-0.057-0.711-0.448
	C111.219,197.11,111.131,196.584,111.935,196.477z M132.925,195.725c-0.359-0.463-0.218-0.926-0.036-1.375
	c0.767-0.124,0.78,0.333,0.781,0.779C133.673,195.591,133.488,195.861,132.925,195.725z M132.952,191.354
	c0.967,0.489,0.994,0.871,0.077,1.652C132.582,192.454,132.627,191.926,132.952,191.354z M111.96,192.176
	c-0.958-0.73-0.96-0.944-0.085-1.672C112.333,191.001,112.226,191.511,111.96,192.176z M111.894,189.231
	c-0.914-0.781-0.895-1.037,0.039-1.513C112.312,188.185,112.274,188.65,111.894,189.231z M132.967,187.047
	c-0.293-0.655-0.391-1.165,0.065-1.661C133.899,186.067,133.901,186.299,132.967,187.047z M133.095,207.7
	c-0.514-0.601-0.411-1.107-0.203-1.64C133.891,206.372,133.943,206.695,133.095,207.7z M132.925,180.94
	c-0.264-0.536-0.34-1.039,0.102-1.534C133.961,180.104,133.932,180.501,132.925,180.94z M111.956,206.794
	c-0.938-0.52-0.96-0.732-0.15-1.616C112.359,205.692,112.272,206.215,111.956,206.794z M111.919,183.256
	c-0.935-0.742-0.919-0.995,0.025-1.5C112.308,182.217,112.252,182.675,111.919,183.256z M112.011,203.87
	c-0.82-0.012-0.78-0.47-0.767-0.884c0.013-0.464,0.249-0.671,0.753-0.542C112.333,202.906,112.205,203.365,112.011,203.87z
	 M132.892,216.334c-0.233-0.522-0.265-0.959,0.061-1.366c0.539-0.134,0.7,0.167,0.715,0.603
	C133.683,216.027,133.63,216.451,132.892,216.334z M132.901,197.138c1.02,0.785,1,1.084,0.077,1.544
	C132.551,198.231,132.719,197.769,132.901,197.138z M111.941,199.456c0.346,0.406,0.306,0.843,0.118,1.321
	c-0.425,0.152-0.755,0.101-0.803-0.413C111.212,199.89,111.181,199.369,111.941,199.456z"/>
</svg>
