<svg width="400" height="400" viewBox="0 0 400 400" fill="none" xmlns="http://www.w3.org/2000/svg">
<path fill-rule="evenodd" clip-rule="evenodd" d="M177.756 102.619C174.294 103.077 170.365 103.994 169.024 104.659C167.684 105.324 166.112 105.868 165.532 105.868C161.902 105.868 159.41 113.821 162.173 116.585C163.058 117.469 160.823 120.137 159.197 120.137C158.254 120.137 156.35 121.27 154.965 122.655C153.279 124.34 151.609 125.173 149.915 125.173C148.104 125.173 147.26 125.643 146.951 126.823C146.531 128.431 145.461 128.478 104.433 128.711C43.8327 129.055 49.9674 119.081 50.3407 216.662L50.5951 283.39L52.6502 287.413C55.3466 292.69 60.6578 296.989 65.8345 298.083C74.2663 299.864 334.638 298.77 337.998 296.938C350.341 290.211 349.823 293.852 349.823 213.811C349.823 119.397 356.03 129.057 295.147 128.718C254.477 128.491 253.471 128.446 253.049 126.829C252.746 125.671 251.899 125.173 250.228 125.172C247.141 125.172 239.484 118.053 240.378 116.014C243.114 109.784 239.69 105.85 229.518 103.542C223.06 102.075 186.772 101.429 177.756 102.619ZM219.667 114.027C230.977 116.186 231.965 116.528 234.54 119.18C237.851 122.589 237.253 125.173 233.153 125.173C231.553 125.173 230.38 125.759 229.797 126.852C228.413 129.435 171.488 129.488 170.813 126.907C170.537 125.85 169.359 125.091 167.433 124.73L164.477 124.175L166.125 121.383C168.514 117.332 169.463 116.772 176.247 115.415C179.616 114.74 182.939 113.959 183.632 113.681C184.324 113.402 185.663 113.246 186.605 113.335C187.548 113.424 189.248 113.126 190.383 112.673C194.455 111.047 207.127 111.633 219.667 114.027ZM125.141 132.981C124.908 133.358 123.903 133.561 122.909 133.432C121.914 133.304 120.628 133.492 120.051 133.852C119.446 134.228 119.002 134.105 119.002 133.56C119.002 132.996 118.324 132.829 117.323 133.147C116.387 133.445 115.645 133.298 115.645 132.816C115.645 132.3 117.65 132.021 120.604 132.124C123.332 132.219 125.373 132.604 125.141 132.981ZM134.177 133.356C135.03 134.485 135.036 134.603 134.203 133.867C133.574 133.311 131.735 133.093 129.836 133.347C127.696 133.635 126.556 133.458 126.556 132.837C126.556 131.255 132.914 131.688 134.177 133.356ZM287.82 132.954C287.344 133.43 283.782 133.732 279.778 133.636C273.928 133.494 272.496 133.707 272.087 134.774C271.811 135.495 271.259 136.084 270.861 136.084C270.462 136.084 270.376 135.461 270.668 134.7C271.108 133.554 270.815 133.412 268.964 133.877C266.745 134.433 265.763 133.252 267.776 132.448C269.904 131.599 288.701 132.073 287.82 132.954ZM103.474 133.505C110.126 134.148 109.308 135.089 101.795 135.434L96.7601 135.665L96.1697 140.413C95.4786 145.98 90.9839 153.718 87.3364 155.623C86.0561 156.291 83.198 157.876 80.9846 159.144C77.5135 161.133 75.7468 161.512 68.1169 161.901C59.7259 162.33 59.2327 162.457 58.501 164.382C57.6493 166.623 57.6165 239.453 58.4614 253.593L58.9884 262.407L67.3818 262.874C84.1424 263.81 96.3393 273.704 96.3393 286.365C96.3393 290.498 97.5619 291.363 103.432 291.377C107.021 291.386 108.14 291.628 107.251 292.204C106.526 292.672 97.1638 293.023 85.1693 293.03L64.3461 293.043L60.409 289.322L56.4708 285.602L56.2502 214.41C55.9777 126.474 54.0108 134.346 76.4639 133.515C94.1904 132.859 96.794 132.858 103.474 133.505ZM263.789 133.597C264.251 133.595 264.062 133.958 263.37 134.406C261.657 135.512 138.307 135.519 138.307 134.413C138.307 133.365 159.457 133.087 217.206 133.375C242.366 133.5 263.328 133.6 263.789 133.597ZM338.783 136.084C344.238 140.158 343.947 135.814 343.947 213.235C343.947 300.928 346.261 293.043 320.527 293.043H306.252L305.702 290.105C303.182 276.674 317.482 262.827 333.873 262.827C343.058 262.827 342.269 267.506 342.269 213.082C342.269 160.092 342.485 162.083 336.822 162.943C334.707 163.264 332.811 163.261 332.611 162.935C332.41 162.61 330.332 162.117 327.994 161.84C320.428 160.944 305.948 150.15 307.364 146.459C307.605 145.832 307.49 145.317 307.106 145.317C306.724 145.317 306.179 143.363 305.896 140.974C305.295 135.899 304.579 135.276 299.32 135.258C295.163 135.244 292.539 134.584 293.09 133.689C294.232 131.832 336.023 134.023 338.783 136.084ZM124.877 137.434C124.877 138.274 125.341 138.604 126.11 138.309C126.788 138.049 127.569 138.204 127.846 138.653C128.123 139.102 128.702 139.252 129.132 138.987C129.845 138.547 130.321 140.434 129.969 142.303C129.89 142.722 130.317 143.377 130.918 143.758C131.757 144.291 131.767 144.455 130.962 144.465C130.385 144.472 129.914 145.044 129.914 145.738C129.914 146.43 130.385 147.002 130.962 147.009C131.671 147.018 131.718 147.223 131.108 147.639C130.61 147.978 130.181 150.333 130.153 152.872C130.125 155.41 130.055 158.81 129.996 160.426C129.937 162.041 130.02 164.308 130.178 165.462C130.337 166.616 129.934 168.443 129.284 169.522C128.633 170.6 128.32 171.701 128.587 171.97C128.855 172.238 129.074 172.016 129.074 171.478C129.074 170.939 129.924 170.542 130.962 170.595C132.478 170.673 132.548 170.771 131.321 171.088C130.44 171.316 129.979 171.976 130.235 172.642C130.562 173.495 129.945 173.774 127.896 173.697C125.18 173.595 125.141 173.539 126.239 171.423C127.916 168.19 125.396 165.718 121.999 167.267C119.977 168.187 119.736 168.681 120.126 171.09C120.531 173.584 120.375 173.855 118.53 173.855C116.907 173.855 116.484 173.422 116.484 171.757C116.484 170.603 116.862 169.659 117.323 169.659C117.785 169.659 118.162 169.274 118.162 168.804C118.162 168.312 117.182 168.156 115.854 168.436C114.178 168.791 113.891 168.702 114.806 168.109C115.852 167.431 116.045 164.851 115.953 152.851L115.843 138.409L120.008 138.808C123.754 139.169 124.132 139.051 123.764 137.646C123.539 136.788 123.699 136.084 124.117 136.084C124.535 136.084 124.877 136.692 124.877 137.434ZM286.124 139.652C286.175 140.691 286.16 144.563 286.091 148.255C285.89 159.078 286.009 160.828 286.981 161.157C287.585 161.362 287.609 161.649 287.049 161.996C285.572 162.912 285.277 167.726 286.583 169.591C287.294 170.606 287.435 171.337 286.919 171.337C286.431 171.337 286.032 171.904 286.032 172.596C286.032 173.461 285.165 173.855 283.263 173.855C280.616 173.855 280.508 173.732 280.823 171.038C281.059 169.019 280.773 168.074 279.815 167.707C277.405 166.782 275.96 168.019 275.96 171.007C275.96 173.033 275.58 173.855 274.646 173.855C272.268 173.855 270.121 172.221 270.658 170.82C270.939 170.089 270.641 169.156 269.998 168.747C269.353 168.339 269.244 168 269.756 167.993C270.356 167.985 270.684 165.608 270.684 161.266C270.684 157.442 270.33 154.551 269.862 154.551C269.376 154.551 269.416 154.097 269.963 153.439C270.823 152.402 270.956 151.101 271.087 142.38C271.151 138.088 271.693 137.791 279.528 137.776C285.691 137.764 286.038 137.862 286.124 139.652ZM118.644 147.556C118.349 148.326 118.554 149.365 119.098 149.865C119.834 150.539 119.965 150.421 119.611 149.407C119.348 148.655 119.557 147.616 120.075 147.098C120.741 146.432 120.748 146.157 120.099 146.157C119.594 146.157 118.941 146.786 118.644 147.556ZM120.395 154.095C119.021 155.137 118.976 155.527 119.983 157.636C121.367 160.529 124.037 161.068 126.039 158.855C129.072 155.503 124.087 151.298 120.395 154.095ZM276.38 154.55C275.196 156.468 276.749 159.712 278.718 159.431C281.378 159.053 281.421 154.251 278.768 153.873C277.772 153.731 276.698 154.036 276.38 154.55ZM126.62 161.039C125.579 163.325 125.581 163.327 127.325 161.748C129.13 160.115 129.606 158.747 128.37 158.747C127.982 158.747 127.195 159.778 126.62 161.039ZM122.921 163.431C123.305 164.431 123.172 164.705 122.502 164.291C121.962 163.957 121.52 164.112 121.52 164.635C121.52 165.157 122.181 165.458 122.988 165.302C124.675 164.978 124.976 162.837 123.408 162.314C122.71 162.081 122.547 162.455 122.921 163.431ZM124.877 165.372C124.877 166.562 127.589 167.283 128.529 166.343C128.999 165.873 129.103 165.212 128.762 164.871C128.422 164.53 127.792 164.807 127.363 165.487C126.834 166.322 126.577 166.382 126.569 165.672C126.562 165.095 126.178 164.622 125.716 164.622C125.255 164.622 124.877 164.959 124.877 165.372ZM274.282 176.374C275.174 176.951 274.122 177.19 270.665 177.199C267.625 177.208 265.985 176.896 266.308 176.374C266.97 175.303 272.625 175.303 274.282 176.374ZM291.069 176.374C291.069 176.835 289.346 177.213 287.242 177.213C284.904 177.213 283.617 176.886 283.934 176.374C284.219 175.912 285.942 175.535 287.76 175.535C289.58 175.535 291.069 175.912 291.069 176.374ZM119.863 182.569C118.632 188.032 115.31 189.658 115.801 184.557C115.982 182.68 116.457 181.899 117.323 182.051C118.195 182.205 118.081 181.882 116.953 181.002C115.398 179.789 115.443 179.731 117.914 179.731C120.423 179.731 120.484 179.819 119.863 182.569ZM129.997 180.57C130.293 183.52 130.168 185.355 129.612 186.254C129.201 186.918 129.514 187.308 130.494 187.351C131.374 187.39 131.572 187.596 130.962 187.841C130.385 188.074 129.914 188.799 129.914 189.453C129.914 190.108 130.385 190.672 130.962 190.708C131.803 190.761 131.803 190.86 130.962 191.198C130.385 191.431 129.914 192.724 129.914 194.07C129.914 195.462 130.366 196.523 130.962 196.531C131.667 196.539 131.598 196.82 130.753 197.386C129.663 198.115 129.712 198.396 131.123 199.471C132.36 200.416 132.448 200.714 131.49 200.714C130.467 200.714 130.237 201.988 130.28 207.429C130.31 211.122 130.662 214.144 131.065 214.144C131.468 214.144 131.337 214.7 130.773 215.378C129.648 216.735 114.427 217.114 115.261 215.765C115.501 215.376 116.253 215.27 116.931 215.53C117.608 215.79 118.162 215.628 118.162 215.171C118.162 214.714 117.37 214.133 116.399 213.878C115.196 213.564 114.856 213.068 115.329 212.312C116.217 210.896 115.754 208.03 114.509 207.233C113.883 206.831 114.039 206.612 114.955 206.603C116.196 206.591 116.334 205.569 116.123 197.973C115.86 188.465 118.522 182.969 121.803 186.249C124.149 188.594 126.447 186.823 125.942 183.058C125.52 179.912 125.616 179.731 127.705 179.731C128.92 179.731 129.951 180.108 129.997 180.57ZM275.698 182.878C276.31 185.462 276.813 186.026 278.51 186.026C280.292 186.026 280.612 185.593 280.837 182.878C281.074 180.015 281.319 179.731 283.565 179.731C286.237 179.731 286.3 179.9 286.04 186.353C285.947 188.65 286.313 190.303 287.01 190.747C287.85 191.277 287.867 191.459 287.082 191.468C285.707 191.485 285.672 198.34 287.04 199.708C287.755 200.423 287.772 200.714 287.097 200.714C286.483 200.714 286.192 202.491 286.271 205.751C286.339 208.521 286.765 210.786 287.22 210.786C287.674 210.786 287.594 211.24 287.04 211.794C286.486 212.348 286.032 213.67 286.032 214.731C286.032 216.603 285.801 216.662 278.478 216.662C271.593 216.662 270.924 216.519 270.924 215.054C270.924 214.169 270.452 213.253 269.875 213.019C269.076 212.694 269.114 212.392 270.037 211.75C271.011 211.072 271.058 210.49 270.278 208.779C269.636 207.368 269.595 206.473 270.157 206.125C270.726 205.775 270.718 205.254 270.133 204.55C269.653 203.971 269.523 203.236 269.844 202.914C270.962 201.796 271.008 198.197 269.904 198.171C269.18 198.154 269.252 197.896 270.127 197.384C271.589 196.527 271.672 184.596 270.218 184.112C268.709 183.609 271.299 179.744 273.149 179.737C274.545 179.733 275.122 180.444 275.698 182.878ZM142.288 201.344C142.131 204.922 142.002 201.995 142.002 194.839C142.002 187.684 142.131 184.757 142.288 188.334C142.445 191.912 142.445 197.766 142.288 201.344ZM297.566 198.373C297.402 201.277 297.267 199.12 297.264 193.58C297.263 188.04 297.397 185.665 297.563 188.302C297.729 190.938 297.73 195.47 297.566 198.373ZM119.075 187.988C118.498 189.066 118.192 190.112 118.394 190.315C119.054 190.974 120.85 188.211 120.481 187.106C120.255 186.425 119.738 186.75 119.075 187.988ZM124.86 188.564C124.277 189.267 124.032 190.077 124.319 190.363C124.605 190.648 125.067 190.285 125.347 189.557C125.627 188.827 126.391 188.436 127.045 188.687C127.699 188.938 128.235 188.726 128.235 188.214C128.235 186.857 126.093 187.079 124.86 188.564ZM121.05 189.384C120.683 190.307 119.978 191.339 119.483 191.679C118.853 192.11 118.868 192.3 119.529 192.309C120.905 192.327 122.585 190.039 122.116 188.782C121.851 188.069 121.491 188.272 121.05 189.384ZM125.716 191.531C125.716 192.086 125.021 192.335 124.123 192.099C123.108 191.835 121.377 192.677 119.364 194.417L116.2 197.152L118.125 199.562C119.711 201.549 119.952 201.653 119.491 200.156C118.909 198.259 120.174 196.698 121.092 198.183C121.382 198.651 122.374 199.036 123.298 199.036C124.305 199.036 124.748 199.405 124.406 199.959C123.737 201.04 127.256 199.295 128.744 197.807C129.873 196.679 128.343 194 126.57 194C125.754 194 125.737 193.728 126.495 192.815C127.166 192.006 127.198 191.459 126.596 191.087C126.112 190.789 125.716 190.988 125.716 191.531ZM276.52 192.881C275.558 193.842 275.908 197.109 277.078 198.079C278.953 199.635 281.368 197.273 280.685 194.55C280.153 192.434 277.879 191.522 276.52 192.881ZM137.887 220.02C137.574 220.525 131.723 220.859 123.149 220.859C114.229 220.859 108.93 220.546 108.93 220.02C108.93 219.492 114.402 219.181 123.668 219.181C133.28 219.181 138.226 219.472 137.887 220.02ZM293.125 219.923C291.683 221.266 264.366 221.638 263.861 220.321C263.501 219.385 266.166 219.181 278.673 219.181C287.558 219.181 293.59 219.491 293.125 219.923ZM285.786 225.368C286.078 225.661 286.275 227.789 286.223 230.095C286.167 232.563 286.496 234.289 287.022 234.289C287.6 234.289 287.557 234.722 286.901 235.511C285.937 236.674 286.097 241.587 287.153 243.297C287.718 244.212 281.96 247.654 278.951 248.2C276.468 248.651 270.973 245.58 270.802 243.648C270.735 242.886 270.764 241.034 270.867 239.535C271.013 237.414 270.725 236.807 269.57 236.807C268.153 236.807 268.153 236.758 269.564 235.725C270.675 234.912 271.044 233.461 271.044 229.899C271.044 226.185 271.35 225.064 272.453 224.734C274.319 224.175 285.106 224.689 285.786 225.368ZM128.655 225.896C126.961 226.326 126.689 226.569 127.824 226.635C129.367 226.726 132.43 230.091 130.97 230.093C130.619 230.093 130.264 232.359 130.18 235.128C130.079 238.413 130.356 240.163 130.977 240.163C131.654 240.163 131.639 240.453 130.92 241.171C129.537 242.554 129.659 243.348 131.303 243.67C132.301 243.864 132.006 244.258 130.254 245.068C128.913 245.687 126.871 246.648 125.716 247.202C122.974 248.519 115.923 246.136 116.311 244.024C116.458 243.226 115.947 242.643 115.052 242.585C113.95 242.514 113.884 242.395 114.806 242.144C115.826 241.866 116.046 240.213 115.97 233.428L115.878 225.055L123.526 225.155C128.845 225.224 130.406 225.449 128.655 225.896ZM130.17 253.174C129.825 255.299 130.003 256.112 130.811 256.112C131.618 256.112 131.674 256.365 131.011 257.028C129.904 258.135 130.606 264.659 131.928 265.541C132.577 265.976 132.582 266.162 131.943 266.171C131.34 266.179 131.057 269.433 131.104 275.835C131.141 281.144 131.471 285.487 131.835 285.488C132.2 285.488 131.729 286.314 130.789 287.321C128.534 289.743 115.724 290.391 115.533 288.094C115.471 287.353 115.354 285.6 115.271 284.196C115.19 282.793 114.856 281.214 114.531 280.687C114.205 280.161 114.341 279.481 114.833 279.177C115.443 278.799 115.381 278.2 114.636 277.279C113.819 276.27 113.809 276.091 114.595 276.564C115.344 277.013 115.645 276.458 115.645 274.627C115.645 273.214 115.221 272.059 114.703 272.059C114.051 272.059 114.083 271.67 114.806 270.801C115.671 269.758 115.58 269.539 114.278 269.528C112.962 269.518 112.911 269.387 113.966 268.719C114.885 268.139 115.287 266.048 115.456 260.969C115.793 250.822 115.751 250.996 117.713 251.62C121.177 252.721 128.171 252.584 129.157 251.396C130.567 249.696 130.698 249.924 130.17 253.174ZM286.007 252.545C285.924 253.814 285.918 255.041 285.996 255.273C286.074 255.503 286.211 257.58 286.301 259.888C286.391 262.197 286.767 264.557 287.137 265.134C287.524 265.737 287.432 266.184 286.921 266.184C285.721 266.184 285.791 268.964 287.023 270.195C287.783 270.957 287.755 271.669 286.896 273.273C285.99 274.965 285.981 275.603 286.848 276.647C287.634 277.593 287.654 277.935 286.924 277.935C286.379 277.935 286.203 278.37 286.532 278.903C287.494 280.461 287.637 283.81 286.741 283.81C286.289 283.81 286.146 284.525 286.423 285.4C287.416 288.526 284.788 289.761 277.596 289.546L271.016 289.349L271.07 285.531C271.175 278.231 270.694 273.311 269.762 272.133C269.063 271.247 269.092 270.857 269.875 270.594C270.452 270.399 270.924 269.328 270.924 268.212C270.924 267.096 270.452 266.178 269.875 266.171C269.114 266.161 269.091 265.988 269.787 265.541C270.666 264.978 271.632 258.964 271.726 253.481C271.764 251.237 274.803 250.582 277.486 252.24C278.659 252.964 284.192 252.015 284.832 250.98C285.687 249.596 286.16 250.225 286.007 252.545ZM268.196 255.692C268.196 256.846 267.948 257.79 267.645 257.79C267.342 257.79 267.015 256.846 266.92 255.692C266.824 254.538 267.073 253.593 267.471 253.593C267.87 253.593 268.196 254.538 268.196 255.692ZM120.89 292.803C121.698 292.929 122.36 292.751 122.36 292.408C122.36 292.065 123.304 291.784 124.458 291.784C125.612 291.784 126.556 292.067 126.556 292.413C126.556 292.759 127.563 293.043 128.794 293.043C130.026 293.043 130.834 293.241 130.592 293.483C129.868 294.207 113.033 294.409 112.594 293.699C112.37 293.338 112.776 292.996 113.497 292.938C115.897 292.746 116.34 292.627 116.951 292.016C117.285 291.683 117.977 291.672 118.489 291.992C119.003 292.313 120.083 292.678 120.89 292.803ZM157.193 292.204C154.788 293.237 138.307 293.237 138.307 292.204C138.307 291.686 142.254 291.387 148.589 291.424C155.115 291.461 158.258 291.746 157.193 292.204ZM171.041 292.204C169.371 293.283 159.291 293.283 159.291 292.204C159.291 291.715 162.01 291.369 165.795 291.377C170.306 291.386 171.914 291.64 171.041 292.204ZM243.645 292.204C241.276 293.222 175.135 293.222 173.56 292.204C172.736 291.671 184.95 291.405 208.813 291.436C229.959 291.463 244.617 291.786 243.645 292.204ZM263.789 292.204C263.503 292.667 259.74 293.043 255.396 293.043C251.052 293.043 247.289 292.667 247.003 292.204C246.669 291.664 249.669 291.364 255.396 291.364C261.124 291.364 264.123 291.664 263.789 292.204ZM270.298 292.413C270.568 293.213 271.021 293.163 272.208 292.204C273.105 291.478 273.497 291.39 273.134 291.994C272.685 292.741 273.24 293.043 275.071 293.043C276.484 293.043 277.639 292.643 277.639 292.154C277.639 291.666 278.067 291.53 278.592 291.855C279.929 292.68 282.718 292.805 285.206 292.15C286.835 291.721 290.677 293.463 289.213 293.966C286.082 295.041 268.406 294.095 268.406 292.853C268.406 291.152 269.767 290.837 270.298 292.413ZM300.721 292.204C300.436 292.665 298.503 293.043 296.425 293.043C294.121 293.043 292.85 292.715 293.167 292.204C293.452 291.741 295.386 291.364 297.462 291.364C299.767 291.364 301.037 291.692 300.721 292.204Z" fill="#0000FF"/>
</svg>
