<svg width="400" height="400" viewBox="0 0 400 400" fill="none" xmlns="http://www.w3.org/2000/svg">
<path style="fill:#FFEE00;" d="M261.705,84.368c-1.196-1.897-2.531-3.633-3.93-5.293c5.103,3.494,9.477,7.861,12.918,13.315
	c3.935,6.265,6.257,14.347,7.115,24.731c0.83,10.083-0.333,19.589-3.461,28.245c-2.693,7.462-6.342,14.318-10.775,20.49
	c-1.189-0.107-2.367-0.247-3.576-0.287c-4.089-0.136-8.142,0.089-12.135,0.648c1.826-2.074,3.614-4.175,5.284-6.347
	c5.114-6.666,9.225-14.247,12.213-22.529c3.125-8.656,4.292-18.161,3.457-28.245C267.962,98.711,265.64,90.629,261.705,84.368z
	 M200.916,250.589c-1.64,1.628-3.088,3.786-4.296,6.421c-1.239,2.695-1.476,5.792-0.706,9.209c0.786,3.477,3.088,6.117,6.843,7.841
	c3.634,1.669,7.051,2.611,10.152,2.8c3.104,0.185,5.984-0.144,8.563-0.975c2.575-0.834,4.825-2.062,6.69-3.65
	c1.869-1.592,3.425-3.722,4.621-6.325c1.231-2.683,1.087-5.9-0.433-9.558c-1.512-3.638-4.978-6.726-10.308-9.173
	c-5.351-2.459-10.493-2.643-15.278-0.541C204.522,247.633,202.556,248.961,200.916,250.589z M237.957,172.833l-0.441,0.136
	l-0.59,22.951l0.858-0.269c4.135-1.3,8.23-2.378,12.165-3.205c8.736-1.765,14.548-2.026,17.271-0.774
	c1.64,0.754,2.575,1.717,2.86,2.948c0.293,1.275,0.229,2.386-0.189,3.297c-0.281,0.614-1.159,1.576-3.726,2.663
	c-2.186,0.923-4.881,1.885-8.022,2.852c-3.12,0.959-6.546,2.054-10.485,3.349c-14.516,4.978-24.876,14.038-30.8,26.933l-0.297,0.646
	l19.068,6.55l0.281-0.349c4.183-5.182,10.725-9.053,19.453-11.507c3.55-0.999,7.288-1.925,11.114-2.755
	c3.859-0.83,7.617-2.022,11.174-3.538c3.566-1.524,6.947-3.65,10.039-6.317c3.121-2.687,5.675-6.165,7.589-10.332
	c1.917-4.171,2.816-7.837,2.671-10.89c-0.433-8.619-6.165-15.522-17.038-20.516c-6.442-2.96-13.513-4.588-21.025-4.837
	C252.388,169.62,245.008,170.619,237.957,172.833z M134.848,262.052c2.867-1.578,5.569-2.457,8.121-2.784l4.549-3.133l-0.686-2.635
	c-1.171-4.5-0.582-9.911,1.757-16.08c1.031-2.711,2.194-5.515,3.461-8.331c0.638-1.414,1.197-2.858,1.71-4.313
	c0.029,2.35,0.111,4.712,0.308,7.096l0.112,1.376l38.657-7.111l0.148-0.866c2.146-12.799,9.562-25.638,22.036-38.152
	c5.07-5.102,10.537-10.252,16.244-15.318c0.723-0.642,1.413-1.314,2.12-1.971l0.002-0.074l0.118-0.037
	c4.872-4.544,9.372-9.436,13.355-14.619c4.605-6.004,8.311-12.847,11.018-20.339c2.727-7.553,3.738-15.899,3.004-24.812
	c-0.738-8.924-2.719-16.008-5.888-21.057c-8.976-14.227-25.317-20.472-48.568-18.555c-13.778,1.139-27.35,5.142-40.346,11.9
	c-12.979,6.758-24.563,15.514-34.426,26.027l-0.61,0.654l20.949,39.548l1.199-1.275c5.784-6.165,11.708-11.916,17.6-17.087
	c13.16-11.355,22.782-17.355,28.606-17.837c3.502-0.289,6.008,0.453,7.673,2.266c1.721,1.893,2.675,3.838,2.836,5.78
	c0.108,1.32-0.461,3.79-3.782,8.094c-2.824,3.662-6.49,7.873-10.898,12.522c-4.38,4.613-9.157,9.751-14.608,15.719
	c-13.297,14.936-21.671,31.204-25.1,48.583c-0.579-2.528-1.513-5.036-2.864-7.491c-2.078-3.774-4.32-6.43-6.863-8.13
	c-2.221-1.477-4.61-2.386-7.127-2.841c0.809,0.39,1.606,0.82,2.378,1.333c2.543,1.697,4.785,4.356,6.863,8.13
	c2.017,3.666,3.185,7.444,3.469,11.243c0.269,3.63,0,7.184-0.802,10.561c-0.774,3.245-1.873,6.454-3.269,9.546
	c-1.271,2.812-2.435,5.615-3.461,8.331c-2.342,6.165-2.932,11.576-1.761,16.08l0.686,2.635l-15.549,10.706l1.225,2.226
	C130.042,265.396,132.151,263.538,134.848,262.052z M232.668,197.722l0.435-16.908c-4.341,3.945-8.563,7.914-12.49,11.86
	c-11.263,11.303-17.913,22.658-19.778,33.76l-1.087,6.494l-44.912,8.262l0.497,6.045c5.655-3.188,12.176-5.137,19.579-5.748
	c7.98-0.657,14.974-0.021,20.976,1.83l12.848-2.363l1.087-6.494c1.865-11.102,8.519-22.457,19.782-33.76
	C230.59,199.712,231.638,198.717,232.668,197.722z M246.331,202.687c3.955-1.304,7.408-2.403,10.553-3.373
	c3-0.923,5.567-1.833,7.621-2.703c0.798-0.337,1.271-0.61,1.544-0.786c-0.008-0.044-0.016-0.096-0.024-0.16
	c-0.1-0.072-0.281-0.184-0.578-0.321c-0.477-0.221-3.437-1.203-14.688,1.063c-3.802,0.802-7.757,1.845-11.76,3.1l-4.264,1.341
	l-0.168,6.529l3.133-0.983c2.704-1.379,5.527-2.642,8.571-3.686L246.331,202.687z M124.147,213.283
	c0.164-0.678,0.217-1.115,0.233-1.372c-0.032-0.02-0.072-0.044-0.116-0.064c-0.092,0.028-0.253,0.092-0.485,0.217
	c-0.373,0.205-2.427,1.652-6.349,10.031c-1.304,2.848-2.523,5.912-3.626,9.105l-1.178,3.407l4.15,3.239l0.861-2.489
	c0.403-2.418,0.938-4.857,1.722-7.334l0.016-0.048c1.055-3.189,1.993-5.952,2.876-8.455
	C123.088,217.13,123.726,215.032,124.147,213.283z M237.456,259.194c0.504,2.996,0.251,5.798-0.911,8.333
	c-1.452,3.161-3.373,5.772-5.708,7.761c-2.286,1.945-5.018,3.441-8.114,4.444c-3.076,0.991-6.474,1.384-10.096,1.167
	c-3.622-0.217-7.541-1.284-11.648-3.173c-6.225-2.86-8.423-7.404-9.169-10.717c-0.979-4.328-0.65-8.323,0.983-11.868
	c0.592-1.29,1.269-2.433,1.967-3.536c-5.202-1.819-11.558-2.432-19.005-1.818c-10.078,0.83-18.18,4.517-24.153,10.949
	c2.255,1.114,3.993,2.651,5.101,4.662c1.352,2.455,2.126,4.949,2.294,7.416c0.168,2.415-0.172,4.901-1.011,7.388
	c-0.83,2.471-2.202,4.857-4.079,7.103c-1.877,2.242-4.448,4.272-7.637,6.028c-2.908,1.599-5.503,1.954-7.661,1.753
	c0.357,0.186,0.686,0.394,1.067,0.562c0.981,0.432,2.197,0.801,3.597,0.942c1.245,3.664,3.297,7.202,6.314,10.541
	c4.661,5.158,11.094,7.44,19.124,6.774c7.773-0.638,14.479-2.31,19.926-4.962c5.451-2.655,10.031-5.964,13.609-9.847
	c3.582-3.875,6.229-8.114,7.881-12.602c0.05-0.136,0.078-0.286,0.126-0.424c1.494,0.34,2.96,0.592,4.37,0.676
	c1.278,0.078,2.49-0.016,3.709-0.091c-0.24,0.824-0.448,1.664-0.741,2.462c-2.021,5.495-5.23,10.649-9.538,15.318
	c-4.272,4.625-9.666,8.543-16.032,11.64c-6.357,3.096-14.034,5.034-22.818,5.76c-8.131,0.669-14.292-1.179-18.882-3.828
	c0.641,0.817,1.321,1.624,2.041,2.42c4.436,4.909,12.518,10.533,25.83,9.434c8.784-0.726,16.465-2.663,22.822-5.76
	c6.361-3.096,11.756-7.015,16.028-11.64c4.308-4.669,7.516-9.823,9.538-15.318c1.517-4.129,2.317-8.622,2.419-13.396
	c1.385-0.752,2.67-1.619,3.834-2.612c2.334-1.989,4.256-4.601,5.708-7.761c1.737-3.782,1.612-8.126-0.369-12.903
	C237.988,260.026,237.683,259.625,237.456,259.194z M301.664,191.536c0.207,1.092,0.366,2.202,0.423,3.35
	c0.184,3.79-0.814,7.99-3.044,12.843c-2.166,4.717-5.078,8.672-8.656,11.752c-3.421,2.948-7.164,5.302-11.126,6.995
	c-3.806,1.62-7.817,2.888-11.937,3.778c-3.738,0.81-7.392,1.717-10.862,2.695c-7.877,2.214-13.709,5.615-17.335,10.108l-2.122,2.627
	l-22.148-7.614l-1.3,2.829c3.329-0.001,6.734,0.769,10.196,2.358c3.689,1.697,6.557,3.743,8.766,6.047l6.484,2.228l2.122-2.627
	c3.626-4.492,9.458-7.893,17.335-10.108c3.465-0.979,7.119-1.885,10.866-2.695c4.111-0.886,8.126-2.158,11.932-3.778
	c3.963-1.693,7.705-4.043,11.126-6.991c3.578-3.084,6.49-7.039,8.656-11.756c2.23-4.853,3.229-9.053,3.044-12.839
	C303.92,197.434,303.065,194.381,301.664,191.536z M162.874,166.005c3.356-5.111,7.171-10.101,11.489-14.951l0.08-0.092
	c5.479-5.996,10.288-11.17,14.708-15.823c4.211-4.444,7.697-8.447,10.356-11.888c1.031-1.336,1.58-2.25,1.869-2.804
	c-0.056-0.076-0.116-0.16-0.193-0.253c-0.237-0.028-0.654-0.052-1.292,0c-1.023,0.084-6.987,1.247-23.929,15.859
	c-5.692,5.002-11.415,10.561-17.01,16.525l-5.966,6.354l5.962,11.254L162.874,166.005z M144.743,290.425
	c2.824-1.556,5.074-3.317,6.682-5.238c1.604-1.925,2.776-3.947,3.469-6.016c0.698-2.066,0.979-4.115,0.846-6.089
	c-0.136-1.973-0.77-3.999-1.885-6.024c-1.151-2.086-3.305-3.53-6.401-4.3c-3.084-0.766-6.746,0.004-10.886,2.282
	c-4.159,2.29-6.742,5.535-7.677,9.646c-0.429,1.925-0.509,3.838-0.241,5.679c0.269,1.845,0.975,3.818,2.102,5.864
	c1.155,2.094,3.048,3.73,5.631,4.869C139.015,292.258,141.827,292.03,144.743,290.425z M138.927,252.883
	c-1.356-5.194-0.726-11.291,1.865-18.121c1.055-2.784,2.246-5.647,3.542-8.523c1.312-2.9,2.342-5.908,3.064-8.94
	c0.722-3.04,0.967-6.249,0.718-9.534c-0.245-3.309-1.275-6.63-3.056-9.871c-1.789-3.241-3.73-5.579-5.78-6.947
	c-5.792-3.854-13.011-3.449-21.462,1.203c-5.006,2.76-9.45,6.562-13.212,11.307c-3.754,4.745-6.646,10.003-8.591,15.639l-0.12,0.349
	l14.588,11.383l0.237-0.686c1.143-3.301,2.407-6.474,3.754-9.418c3.044-6.51,5.663-10.4,7.781-11.568
	c1.271-0.698,2.342-0.842,3.277-0.437c0.967,0.421,1.657,0.995,2.046,1.701c0.265,0.477,0.465,1.508-0.06,3.694
	c-0.445,1.857-1.119,4.067-1.993,6.566c-0.874,2.479-1.809,5.226-2.856,8.399c-3.73,11.788-2.828,22.85,2.691,32.87l0.277,0.501
	l13.38-9.217L138.927,252.883z"/>
</svg>
