<svg width="400" height="400" viewBox="0 0 400 400" fill="none" xmlns="http://www.w3.org/2000/svg">
<path style="fill:#FF0000;" d="M319.391,184.635c-1.638,2.84-0.662,5.925-0.67,8.867c-0.028,9.546-1.225,18.845-4.868,27.732
	c-1.348,3.287-3.574,5.977-6.159,9.45c-0.26-10.711,3.964-20.465,1.022-30.262c-0.362-0.027-0.723-0.055-1.085-0.083
	c-1.38,7.712-2.748,15.425-4.141,23.135c-1.256,6.946-2.636,13.768-7.29,19.542c-3.671,4.555-6.392,9.864-11.03,13.831
	c5.86-15.622,7.998-31.759,6.937-48.312c-0.109-1.696-0.397-3.599-1.853-5.581c-2.764,4.309-3.734,8.666-3.554,13.437
	c0.21,5.559-1.577,10.416-6.116,13.828c-1.572,1.182-3.029,2.503-4.852,3.968c-0.273-2.643,1.653-4.164,2.146-6.195
	c1.339-5.515,0.528-11.075,0.723-16.606c0.199-5.639-0.433-11.298,1.559-16.827c1.404-3.897,4.663-6.65,5.939-10.558
	c0.078-0.238,0.355-0.406,0.468-0.641c1.135-2.342,3.028-5.123,0.874-7.224c-2.006-1.956-5.173-1.502-7.832-0.257
	c-6.048,2.834-8.922,7.859-9.616,14.284c-0.324,2.996-1.717,5.488-3.425,7.817c-1.192,1.625-2.854,2.655-5,2.047
	c-2.092-0.594-2.65-2.369-2.88-4.256c-0.125-1.032,0.181-2.177-1.252-2.863c-2.074,3.379-4.16,6.805-6.273,10.214
	c-3.032,4.892-5.944,9.888-12.266,11.241c-1.476,0.316-0.904,1.818-0.81,2.705c0.667,6.39,1.247,12.828,5.177,18.387
	c1.513-0.917,3.098-1.823,4.626-2.815c2.063-1.34,4.134-0.885,5.047,1.042c3.101,6.552,7.126,12.791,7.495,20.388
	c0.087,1.792-0.291,3.522-0.936,4.978c-1.725,3.898,0.479,5.808,3.168,7.778c8.782,6.432,18.771,10.834,27.882,16.712
	c7.216,4.655,14.105,9.522,17.551,17.941c3.503,8.558,5.066,17.211,2.457,26.29c-0.169,0.589-0.635,1.091-1.326,2.233
	c-0.603-4.546-0.15-8.521-1.205-12.433c-3.233-11.99-11.665-18.996-22.288-23.871c-9.413-4.319-19.348-6.386-29.78-6.053
	c-2.156,0.069-4.117,0.776-6.228,0.932c-6.564,0.482-11.861-2.396-17.138-5.743c-5.178-3.284-9.828-7.356-15.288-10.243
	c-1.489,1.092-1.665,2.581-1.622,4.181c0.032,1.197,0.187,2.442-0.071,3.584c-1.335,5.9-4.58,5.595-8.538,3.248
	c-4.099-2.432-6.702-6.318-9.538-9.888c-3.05-3.837-6.33-6.723-11.359-7.678c-5.612-1.066-8.395-5.216-7.247-10.111
	c0.378-1.613,0.809-3.304,3.457-2.241c2.258,0.906,4.832,1.021,7.299,1.493c1.672-4.734-1.327-7.715-4.558-10.213
	c-3.804-2.94-7.991-5.385-12.32-8.248c-0.249,2.293-0.656,4.371-2.439,5.615c-5.256,3.669-10.055,3.467-10.871-3.556
	c-0.26-2.238-0.133-5.14-2.773-6.919c-2.01,1.192-1.75,3.21-1.676,5.069c0.14,3.547-0.743,6.698-2.961,9.532
	c-3.369,4.306-9.02,4.277-11.983-0.35c-6.088-9.506-13.966-16.889-24.656-21.556c-0.751,4.495-0.469,8.754,0.574,12.961
	c0.999,4.025,2.15,8.012,2.913,12.175c-4.622-3.091-7.362-7.497-9.266-12.521c-1.834-4.838-2.279-10.125-4.829-15.322
	c-5.27,7.429-7.451,14.744-4.24,23.396c1.298,3.497,1.225,7.498,1.807,11.266c0.402,2.604,2.818,4.697,1.995,8.181
	c-11.23-11.009-13.345-24.839-14.315-39.244c-2.39,9.326-5.166,18.373-8.029,27.477c-1.541-1.188-1.404-2.754-1.395-4.295
	c0.048-7.679-0.433-15.401,0.861-23.006c1.023-6.009,4.254-11.163,9.842-13.401c4.064-1.628,7.054-3.903,9.484-7.198
	c1.132-1.535,2.035-2.099,3.775-0.978c2.18,1.405,3.795-0.552,5.33-1.439c6.111-3.53,9.494-3.749,12.868,1.938
	c4.682,7.89,12.386,7.934,19.611,9.498c3.664,0.794,5.549-2.321,6.836-4.932c3.838-7.784,8.311-15.127,13.577-22.015
	c4.535-5.931,9.173-11.798,13.4-17.944c4.154-6.041,7.37-12.552,9.175-19.805c1.122-4.508,0.647-8.732-1.087-12.635
	c-8.424-18.954-2.899-45.205,12.713-58.517c5.151-4.392,11.052-7.06,17.951-7.978c4.784-0.636,9.372,0.363,14.067,0.259
	c8.206-0.183,9.392,5.206,7.538,11.361c-0.937,3.11-2.242,6.131-3.62,9.079c-1.111,2.377-0.294,3.461,1.815,4.672
	c11.229,6.442,18.594,16.036,22.027,28.475c1.549,5.613,2.072,11.471,0.311,17.167c-0.868,2.811-0.133,5.4,0.011,8.11
	c0.245,4.604,0.12,9.218-1.131,14.331c7.091-3.215,14.01-4.029,20.992-4.778c5.181-0.556,8.787-4.362,12.707-7.366
	c3.324-2.547,6.599-5.061,10.775-6.22c4.861-1.35,7.311-0.45,10.348,3.706c3.897,5.332,5.502,11.333,5.353,17.75
	c-0.127,5.471,0.589,10.636,3.199,15.478C319.391,183.038,319.391,183.837,319.391,184.635z M303.928,302.281
	c-2.793-7.222-8.056-12.247-14.528-15.946c-6.244-3.569-12.841-6.514-19.143-9.99c-7.412-4.089-14.302-8.869-18.392-16.665
	c-0.386-0.736-1.271-1.498-0.609-2.435c0.743-1.05,1.754-0.991,2.792-0.338c0.594,0.374,1.242,0.376,2.166-0.01
	c0.068-6.624-1.236-12.862-6.011-17.958c-0.611-0.653-1.131-2.036-2.537-1.139c-1.362,0.869-0.191,1.801-0.136,2.742
	c0.177,2.991,2.094,5.53,2.312,9.581c-10.482-9.5-15.998-20.726-19.467-33.309c-3.575-12.969-2.995-25.455,3.247-37.629
	c-2.712,1.443-5.001,2.987-6.738,5.453c-4.396,6.242-5.862,13.279-6.444,20.694c-0.55,7.002,1.325,13.721,1.869,20.596
	c-5.202-10.221-4.868-21.111-3.717-32.856c-10.327,8.495-11.304,19.279-9.4,31.008c-5.302-7.727-4.944-15.667,0.02-24.086
	c3.615-6.131,8.318-11.449,12.95-16.815c4.32-5.005,8.58-10.066,10.57-16.639c-1.904,1.514-3.497,3.296-5.159,5.012
	c-1.653,1.706-3.375,3.345-5.067,5.013c-0.237-0.18-0.473-0.361-0.709-0.542c6.222-7.408,8.92-15.874,7.964-25.976
	c-3.165,7.686-6.371,14.817-8.934,22.248c0.202-6.242,1.509-12.341,1.002-18.618c-1.846,0.772-1.837,2.831-3.933,3.753
	c0.639-5.644,0.839-10.85,0.233-16.193c-1.324-11.684-5.542-21.707-13.993-29.908c-1.322-1.283-2.815-2.473-3.414-4.294
	c-0.502-1.528-0.689-3.028,0.599-4.447c1.279-1.409,2.407-0.892,3.884-0.38c7.398,2.566,11.38,8.562,15.047,14.833
	c3.891,6.652,4.885,14.318,7.262,21.532c2.341-9.41-1.092-17.821-4.451-26.286c9.347,7.881,8.3,19.679,11.357,30.356
	c4.738-8.561,4.342-16.996,1.338-25.628c8.117,7.292,7.107,17.931,9.915,28.126c2.572-6.33,1.065-12.187,2.958-17.477
	c2.299,2.699,1.291,6.993,4.813,10.097c1.252-9.67,0.081-17.781-6.171-24.878c-6.335-7.192-14.766-11.236-22.744-15.995
	c-4.517-2.694-9.193-5.156-13.449-9.18c5.979-1.939,9.098,5.774,15,3.432c-3.497-4.138-7.741-6.512-11.777-9.149
	c1.776-2.981,4.887-3.856,9.999-2.462c2.52,0.688,5.003,0.311,7.501,0.351c1.42,0.022,2.13-0.873,2.098-2.33
	c-0.032-1.446-0.724-2.181-2.182-2.265c-1.173-0.067-2.322-0.157-3.508-0.401c-6.746-1.384-13.49-2.755-20.221,0.401
	c-9.817,4.603-17.936,10.401-20.678,21.969c-1.037,4.379,2.021,3.053,3.897,4.042c-1.259,1.998-2.246,3.826-3.476,5.472
	c-4.57,6.115-6.906,12.965-3.573,20.064c4.796,10.216,5.598,20.896,6.084,31.863c0.431,9.72-1.871,18.796-4.987,27.756
	c-3.244,9.326-4.5,18.683-2.499,28.5c0.485,2.38,1.77,4.955,0.365,8.441c-5.183-12.407-5.162-24.423-3.064-36.721
	c-3.662,6.704-4.425,14.22-6.507,21.358c-3.612-11.936,4.668-21.185,7.559-32.295c-8.084,10.719-12.51,22.301-13.991,34.925
	c-0.448,3.821-0.863,7.886,0.742,11.756c3.259,7.856,9.369,13.089,15.864,18.125c4.181,3.241,9.658,5.494,9.842,12.264
	c0.058,2.124,0.069,3.899-1.45,5.287c-1.701,1.554-3.123-0.306-4.6-0.791c-1.985-0.651-4.373-3.187-5.781-0.312
	c-1.307,2.666,1.776,3.813,3.716,5.024c0.103,0.064,0.262,0.033,0.391,0.062c8.531,1.932,13.956,7.554,18.175,14.864
	c1.51,2.615,4.209,4.157,7.35,4.587c1.428-6.182-3.154-8.906-6.817-12.016c-1.429-1.214-2.78-2.347-4.333-4.308
	c2.699,0.352,4.308,1.905,6.597,1.366c-5.122-9.81-12.565-18.34-14.524-29.702c1.741,0.132,1.761,1.278,2.215,2.017
	c3.987,6.49,9.315,11.816,14.699,17.105c4.932,4.844,11.128,7.904,14.912,14.56c4.309,7.579,12.843,11.324,20.976,14.455
	c1.576,0.606,3.732,0.45,5.701,0.387c7.765-0.246,15.57-0.768,23.285,1.06C285.422,289.139,295.331,294.376,303.928,302.281z
	 M290.99,158.808c-1.034,4.573-0.522,8.356,0.606,12.041c0.43,1.406,0.939,2.771,0.668,4.232c-0.99,5.337-2.806,10.39-6.294,14.587
	c-1.253,1.508-1.901,3.127-2.369,4.843c-2.668,9.764-2.887,19.733-2.264,30.196c2.506-2.918,2.392-6.247,2.859-9.371
	c0.926-6.185,1.289-12.505,4.517-18.112c1.863-3.235,4.191-5.794,8.367-5.453c2.026,0.165,3.015-0.931,3.985-2.571
	c1.67-2.822,1.851-6.05,2.713-9.172c0.404,0.299,0.737,0.414,0.812,0.621c1.885,5.238-1.415,13.036-6.532,15.528
	c-0.931,0.453-1.557,0.913-1.84,2.215c-1.425,6.579-0.436,13.198-0.606,19.79c-0.016,0.598,0.292,1.36,0.712,1.789
	c1.805,1.841,0.89,3.949,0.649,5.949c-0.139,1.152-0.691,2.249-1.012,3.383c-1.294,4.584-2.572,9.172-3.951,14.099
	c2.332-0.807,3.042-2.382,3.895-3.859c4.111-7.114,5.041-15,5.929-22.973c0.648-5.811,1.136-11.635,2.912-17.346
	c1.961-6.308,6.877-11.612,6.1-18.837c1.586,3.331,3.414,6.435,2.915,10.137c-1.117,8.282-0.923,16.62-1.65,25.164
	c1.377-0.554,1.548-1.338,1.823-2.075c0.968-2.592,0.934-5.395,1.547-8.001c1.665-7.076-1.595-14.201,0.6-21.203
	c0.204-0.649-0.15-1.563-0.448-2.267c-2.4-5.693-3.076-11.617-2.729-17.751c0.242-4.299-0.964-8.539-3.385-11.879
	c-3.459-4.772-4.492-6.018-9.996-3.013c-5.103,2.786-9.409,6.66-14.185,9.886c-1.149,0.776-2.122,1.273-3.52,1.395
	c-10.451,0.912-18.58,5.827-24.366,14.562c-1.323,1.997-2.189,4.062,1.458,3.815c-5.128,7.37-9.914,15.044-17.732,20.165
	c3.425-7.448,5.512-15.07,5.414-23.465c-2.671,1.88-3.255,4.755-4.674,7.04c-4.133,6.655-7.119,13.726-6.31,21.883
	c0.234,2.357,1.007,4.785,2.813,5.766c2.096,1.139,3.747-1.141,5.246-2.568c0.765-0.729,1.432-1.565,2.104-2.385
	c3.277-3.997,5.027-8.844,7.438-13.327c2.421-4.503,5.296-8.638,11.317-10.134c-1.636,4.368-2.534,8.349-1.087,12.711
	c1.875-1.045,2.527-2.152,2.669-4.12c0.468-6.506,3.648-11.455,9.028-15.267c2.172-1.539,5.08-2.066,6.623-4.238
	c-0.4-1.703-2.559-2.047-2.022-4.205C285.955,168.422,286.346,161.752,290.99,158.808z M147.794,233.879
	c-0.705,0.495-1.09,0.978-1.537,1.044c-1.82,0.269-3.837,0.677-3.072,3.017c0.732,2.241,1.248,5.176,4.23,5.645
	c2.527,0.398,2.991-1.659,3.746-3.655c1.418-3.746-0.478-7.457,0.428-11.221c0.582-2.414,2.076-3.198,3.893-3.943
	c2.035-0.833,3.255,0.433,4.265,1.944c1.627,2.433,2.764,5.03,2.458,8.061c-0.163,1.609,0.27,3.1,0.766,4.615
	c0.268,0.819,0.581,1.582,1.38,1.724c1.076,0.192,1.62-0.83,2.143-1.524c0.678-0.901,0.462-2.054,0.231-3.078
	c-0.751-3.316-1.599-6.604-3.086-9.691c-2.829-5.87-4.688-11.945-3.989-18.59c0.099-0.945,0.337-2.044-0.486-3.192
	c-4.463,4.362-5.038,9.858-5.129,15.535c-6.361-2.384-6.361-2.384-8.308-1.087c1.152,1.46,2.863,2.663,2.634,4.847
	c-1.102,0.437-1.625,0.1-2.444-0.648c-4.484-4.094-9.172-7.823-15.748-7.975c-1.495-0.034-2.728-1.404-3.893-2.523
	c-2.863-2.749-5.522-5.69-8.59-8.259c-2.075-1.737-3.361-1.45-5.007,0.143c-4.329,4.19-6.551,8.843-4.868,15.17
	c1.455,5.471,2.195,11.125,5.341,16.852c1.241-9.063-4.873-17.822,1.393-26.048c1.045,1.351-0.042,2.971,1.167,3.846
	c1.882-0.64,2.439-2.724,4.343-3.079c0.845,1.032,1.61,2.089,1.425,3.48c-0.265,1.991,0.89,3.49,1.56,5.186
	c1.112,2.817,4.258,2.903,6.081,4.822c3.207,3.375,7.209,5.352,11.765,6.684C143.09,232.622,145.8,231.269,147.794,233.879z
	 M100.489,211.773c3.089,2.689,3.442-0.364,4.468-2.307c0.481-0.912,0.69-1.709-0.09-2.514c-0.973-1.005-1.629,0.181-2.369,0.424
	c-3.821,1.256-3.984,5.215-5.661,8.018c-3.174,5.307-4.507,11.267-3.938,17.329c0.496,5.282,1.859,10.509,3.192,15.669
	c0.456,1.765,0.933,4.051,3.429,4.837c-0.296-3.767-0.856-7.213-2.895-10.211c-0.893-1.314-0.975-2.778-0.765-4.189
	C97.194,229.863,96.692,220.594,100.489,211.773z M89.418,218.747c-5.679,4.078-8.609,14.505-6.113,22.154
	C86.738,233.53,85.003,225.273,89.418,218.747z M193.339,122.608c-0.67,3.346,1.292,6.342,0.47,10.639
	c-3.523-6.814-8.522-12.215-6.166-20.003c0.468-1.548,0.669-3.8,2.9-3.615c1.932,0.16,3.099,1.773,3.613,3.701
	c0.568,2.134,1.776,3.279,4.175,3.399c6.492,0.323,7.889,0.953,8.934,7.357c1.334,8.175,5.144,15.631,6.25,23.775
	c1.717,12.633,0.994,25.014-6.166,36.089c-3.078,4.76-4.982,10.036-7.678,14.94c-1.872,3.404-3.236,7.222-7.35,9.273
	c6.543-14.451,12.872-28.934,11.153-45.564c-2.878,3.729-2.893,8.71-6.241,12.942C200.118,156.998,201.854,139.339,193.339,122.608z
	"/>
</svg>
