<svg width="400" height="400" viewBox="0 0 400 400" fill="none" xmlns="http://www.w3.org/2000/svg">
<path fill-rule="evenodd" clip-rule="evenodd" d="M113.461 79.1663C113.461 79.8515 130.128 100.582 137.308 108.828C148.601 121.799 149.767 125.439 144.27 130.561C139.407 135.091 133.954 132.242 124.293 120.123C115.548 109.153 99.2952 91.5107 97.9336 91.5107C97.4105 91.5107 106.444 103.122 119.861 119.692C131.927 134.593 133.081 137.179 129.824 142.011C125.291 148.738 120.207 146.893 109.999 134.819C104.078 127.814 101.462 124.872 93.9598 116.78C90.4814 113.028 86.1001 108.183 84.2242 106.014C76.9442 97.5991 80.0372 103.362 88.2235 113.469C91.13 117.056 96.6109 123.833 100.404 128.527C104.196 133.223 108.043 137.912 108.954 138.947C117.115 148.231 117.979 153.482 112.038 157.711C106.623 161.568 104.414 159.975 87.5116 140.03C74.3731 124.526 65.3028 114.758 66.7344 117.653C67.5318 119.268 81.5654 138.183 82.5317 138.947C82.7938 139.154 85.3493 142.372 88.2102 146.099C105.968 169.235 106.604 169.544 117.529 160.398C121.216 157.312 124.924 154.568 125.768 154.3C127.425 153.774 127.089 153.451 136.281 164.442C139.378 168.146 141.97 170.571 142.831 170.571C143.614 170.571 145.203 171.841 146.362 173.395C148.276 175.961 159.941 190.005 160.903 190.9C161.125 191.108 162.994 193.305 165.056 195.783C167.117 198.261 169.395 200.949 170.117 201.756C170.84 202.563 173.551 205.901 176.141 209.175C180.294 214.423 187.877 223.564 192.913 229.392C198.756 236.154 198.166 236.792 180.474 242.815C176.54 244.154 169.763 246.546 165.415 248.131C161.066 249.716 152.766 252.704 146.967 254.77C141.17 256.837 133.715 259.616 130.402 260.944C127.089 262.274 122.176 264.141 119.485 265.093C116.793 266.046 110.186 268.409 104.802 270.344C99.4185 272.279 94.1664 274.14 93.1313 274.48C86.9075 276.522 78.7089 279.791 76.9875 280.919C74.5497 282.516 73.95 282.051 71.2956 276.521C68.739 271.191 60.0007 270.999 60.0007 276.271C60.0007 278.961 69.7352 302.582 71.6366 304.506L73.4069 306.297L76.3045 304.882C79.4131 303.364 79.8873 300.997 78.4302 294.253C78.0493 292.489 78.187 291.737 78.9289 291.535C81.6843 290.786 86.6098 289.133 92.7548 286.894C96.482 285.536 105.8 282.159 113.461 279.389C127.393 274.353 140.368 269.561 143.203 268.409C145.097 267.637 159.875 262.339 175.58 256.801C182.206 254.463 191.016 251.241 195.156 249.638C206.728 245.162 205.654 245.155 209.985 249.75C213.324 253.29 218.053 258.89 224.13 266.496C228.796 272.336 246.479 293.121 248.218 294.809C250.926 297.438 258.781 306.732 258.781 307.308C258.781 307.652 257.189 309.55 255.244 311.525C247.487 319.4 255.388 325.012 264.052 317.782C283.472 301.577 283.688 301.3 280.174 297.126C277.539 293.995 273.905 294.637 269.536 299.005C267.809 300.732 266.856 300.242 263.87 296.091C262.32 293.936 260.118 291.157 258.976 289.914C257.006 287.772 248.692 277.995 242.969 271.091C241.52 269.343 237.934 265.069 235 261.595C232.066 258.121 228.017 253.245 226.004 250.761C223.989 248.275 221.9 245.796 221.361 245.248C219.769 243.632 220.162 240.657 222.075 239.845C233.401 235.041 244.651 231.405 248.82 231.2C251.415 231.072 253.958 230.645 254.466 230.249C254.976 229.855 258.192 228.552 261.614 227.356C270.009 224.418 269.568 224.044 274.967 238.681C276.867 243.834 279.068 245.867 282.749 245.867C285.428 245.867 314.761 234.676 329.183 228.152C331.668 227.028 335.189 225.462 337.007 224.674C338.826 223.885 340.165 223.091 339.984 222.91C339.482 222.408 326.454 226.724 305.841 234.221C285.342 241.676 283.368 241.857 280.268 236.57C275.9 229.116 278.602 226.122 295.3 219.909C318.068 211.439 335.109 204.482 334.525 203.897C334.067 203.44 318.598 208.196 298.47 214.981C278.365 221.757 278.558 221.723 275.502 219.152C267.282 212.235 271.517 206.738 290.516 199.663C307.461 193.353 334.63 181.951 328.806 183.594C314.9 187.516 285.692 197.323 281.577 199.452C274.245 203.245 266.264 201.078 265.121 194.984C263.941 188.692 265.62 187.443 285.135 180.106C326.249 164.649 330.881 160.988 293.418 173.561C276.071 179.382 265.755 182.618 264.54 182.618C262.826 182.618 258.963 186.854 258.419 189.329C258.079 190.877 258.817 194.151 260.912 200.4C264.684 211.644 264.874 211.294 253.135 214.688C247.726 216.252 244.647 217.683 242.524 219.62C241.659 220.41 238.439 221.873 235.372 222.87C232.303 223.868 225.904 226.062 221.15 227.746C209.618 231.832 209.615 231.831 197.77 217.254C195.918 214.977 193.87 212.605 193.218 211.984C192.566 211.362 190.711 209.16 189.095 207.09C187.478 205.018 185.784 202.986 185.329 202.572C184.874 202.157 182.833 199.787 180.794 197.306C178.755 194.824 176.657 192.339 176.133 191.782C175.61 191.226 174.254 189.532 173.122 188.018C170.179 184.086 162.86 175.426 156.945 168.876C154.149 165.781 151.861 162.599 151.861 161.806C151.861 159.854 150.176 157.539 144.537 151.747C137.477 144.497 137.462 144.617 146.487 135.963C157.6 125.307 157.824 126.304 139.871 106.656C117.907 82.618 113.461 77.9912 113.461 79.1663Z" fill="#0000FF"/>
</svg>
