<svg width="400" height="400" viewBox="0 0 400 400" fill="none" xmlns="http://www.w3.org/2000/svg">
<path style="fill:#FF0000;" d="M235.397,70.747c-1.182,1.555-3.111,5.849-4.729,10.888c-0.933,2.862-1.991,5.351-2.364,5.538
	c-1.244,0.747-1.804-1.369-1.556-5.849c0.187-3.049,0-4.853-0.56-5.6c-1.991-2.675-5.164,3.111-5.164,9.644
	c-0.062,3.609-0.187,3.982-2.115,5.413c-5.226,3.982-10.453,5.102-18.293,3.858c-3.049-0.498-3.298-0.436-3.298,0.684
	c0,0.622,1.058,2.178,2.364,3.422c2.178,2.115,2.551,2.24,7.591,2.551c9.582,0.56,15.617,4.729,11.884,8.151
	c-0.809,0.747-1.742,3.298-2.551,6.969c-1.369,5.973-2.364,7.715-6.533,11.573c-0.996,0.933-2.364,1.742-2.987,1.742
	c-1.555,0-7.902-4.355-7.964-5.538c-0.124-1.867,0.187-3.484,1.058-5.164c0.809-1.618,0.809-1.742-0.622-2.115
	c-2.178-0.498-8.649,1.244-13.999,3.858c-3.484,1.742-5.973,3.671-10.64,8.275c-3.36,3.298-6.533,6.906-7.155,8.026
	c-0.933,1.929-0.933,2.302-0.062,4.418c0.809,2.178,0.809,2.489-0.187,4.169c-1.307,2.178-3.982,4.231-9.084,7.093
	c-2.053,1.12-4.355,2.613-5.164,3.36c-0.809,0.684-2.551,1.68-3.858,2.24c-3.049,1.182-11.822,10.764-14.062,15.306
	c-1.244,2.613-1.68,4.729-2.178,11.2c-0.311,4.418-0.933,9.706-1.369,11.76c-1.12,5.475-0.747,13.44,0.809,18.604
	c0.684,2.427,1.867,6.346,2.613,8.773c2.178,7.404,5.849,15.119,10.08,21.404c3.858,5.6,4.231,6.409,5.662,13.128
	c0.933,3.92,2.613,9.395,3.795,12.133c1.182,2.738,3.049,7.093,4.044,9.706c1.182,2.924,3.111,6.098,4.978,8.337
	c1.742,1.991,3.671,4.667,4.293,5.911c1.431,2.738,3.671,5.102,9.395,9.706c3.858,3.173,6.16,6.284,6.16,8.462
	c0,1.244,1.431,2.427,5.538,4.604c5.164,2.738,6.409,5.662,4.978,11.448c-0.311,1.244,2.178,1.555,5.226,0.622
	c3.858-1.12,18.853-16.364,21.777-22.088c1.742-3.422,2.613-14.062,2.427-28.746c-0.249-15.804,0-17.11,4.604-28.372
	c6.284-15.306,7.093-18.106,7.093-25.51c0-7.777,0.249-8.462,5.289-14.248c5.04-5.724,6.16-8.337,5.786-13.564
	c-0.249-3.235-0.747-4.978-2.364-7.715c-1.991-3.547-2.427-6.222-1.555-9.146c1.182-3.795,3.795-4.48,10.266-2.738
	c4.107,1.12,11.76,1.244,14,0.187c0.871-0.373,1.742-1.369,1.991-2.24c0.56-2.302-0.436-20.408-1.431-25.635
	c-0.684-3.795-1.431-5.413-3.795-8.835c-1.68-2.302-3.733-5.6-4.729-7.404c-0.933-1.742-4.107-5.724-7.031-8.835
	c-5.413-5.849-12.071-15.119-12.071-16.924c0-1.867,1.867-4.666,3.422-5.04c0.871-0.187,3.671,0.124,6.284,0.684
	c5.04,1.12,7.902,0.871,7.591-0.684c-0.124-0.498-3.36-2.364-7.155-4.107c-3.858-1.804-7.031-3.422-7.031-3.733
	c0-0.249,1.991-2.613,4.355-5.289c4.48-4.915,5.662-7.218,4.48-8.4c-0.498-0.498-1.555,0-3.671,1.742
	c-3.111,2.551-8.835,6.16-10.64,6.72c-0.56,0.187-1.493,0.062-1.991-0.249c-0.747-0.498-0.747-1.182,0.311-5.413
	c0.622-2.675,1.68-5.911,2.302-7.155c0.622-1.307,1.12-3.298,1.12-4.542c0-1.867-0.187-2.178-1.493-2.178
	C236.704,70,235.77,70.373,235.397,70.747z M241.681,114.363c1.618,2.8,4.978,7.218,7.466,9.831
	c4.729,4.915,14.746,20.159,14.746,22.399c0,0.684,0.684,2.551,1.556,4.231c1.493,2.987,1.493,3.235,1.12,13.688
	c-0.373,10.204-0.436,10.702-1.68,10.951c-5.413,1.058-5.102,1.182-9.769-3.235c-6.658-6.284-7.093-7.715-4.853-14.497
	c1.182-3.36,1.244-4.355,0.684-6.782c-1.618-6.906-1.618-6.844,1.182-2.862c1.431,2.053,3.547,4.853,4.604,6.222
	c1.12,1.369,3.173,4.418,4.604,6.844c2.364,4.107,2.551,4.231,2.551,2.364c0-2.987-2.115-7.777-6.346-14.311
	c-3.982-6.16-4.107-6.658-3.298-12.817c0.436-3.235,0.373-3.733-0.871-5.04c-0.747-0.809-2.987-1.929-4.978-2.489
	c-4.666-1.307-5.786-2.613-6.346-7.218c-0.373-3.111-0.809-4.169-2.675-6.222c-1.244-1.369-2.24-2.862-2.24-3.36
	c0-1.244,0.684-2.862,1.182-2.862C238.508,109.199,240.001,111.563,241.681,114.363z M221.895,125.251
	c-0.249,0.996-1.244,1.867-3.049,2.613c-1.431,0.684-3.422,1.804-4.293,2.551c-1.618,1.182-1.68,1.618-1.618,6.035
	c0.062,8.649-1.182,32.728-1.867,34.905c-0.933,2.924-2.427,5.04-3.609,5.04c-0.498,0-1.867-0.996-2.987-2.178
	c-2.24-2.302-3.422-6.222-3.422-11.386c-0.062-3.92-1.182-6.906-4.044-10.391c-4.231-5.164-6.471-5.413-10.142-1.307
	c-4.231,4.791-5.973,11.2-4.107,14.808c1.431,2.738,0.809,7.031-1.867,12.568c-3.609,7.466-4.48,6.969-6.595-3.671
	c-1.307-6.72-2.738-9.333-5.04-9.333c-1.12,0-1.555,0.498-2.053,2.053c-0.56,1.991-0.684,2.053-2.987,1.68
	c-1.307-0.249-2.364-0.187-2.364,0.124c0,0.871,4.729,1.991,7.031,1.618c1.804-0.249,2.302-0.124,2.924,0.996
	c0.933,1.742,0.622,3.795-0.747,4.666c-1.12,0.684-2.8,0.062-7.342-2.8c-1.369-0.871-0.249,0.622,3.298,4.044
	c2.987,2.987,6.409,5.849,7.591,6.346c1.493,0.622,2.178,1.307,2.178,2.178c0,1.369-0.871,1.369-4.107,0.124
	c-0.996-0.373-0.933-0.187,0.249,1.307c1.493,1.929,1.742,3.235,0.684,3.609c-0.498,0.187-0.498,0.871,0,2.675
	c0.373,1.369,0.684,3.173,0.684,3.92c0,1.431-0.124,1.493-3.111,1.058c-1.68-0.249-3.111-0.249-3.111-0.062
	c0,0.249,1.556,1.369,3.422,2.551c3.235,2.115,4.169,3.484,2.8,4.355c-0.311,0.187-0.622,0.062-0.622-0.311
	c0-0.498-0.871-0.56-2.738-0.311c-1.68,0.249-3.671,0.124-5.164-0.373c-4.107-1.369-9.831-0.933-16.862,1.244
	c-3.547,1.12-6.533,1.929-6.658,1.804c-0.187-0.124,0.56-1.244,1.555-2.489c2.427-2.924,6.969-5.102,14.311-6.969l5.911-1.431
	l-4.604-0.498c-2.8-0.249-4.729-0.249-4.978,0.124c-0.187,0.373-1.058,0.809-1.929,0.996c-0.871,0.249-3.484,1.742-5.911,3.422
	c-3.111,2.115-4.915,3.92-6.346,6.346c-2.24,3.671-2.675,5.786-1.12,5.226c0.684-0.311,0.933,0.062,0.933,1.431
	c0,1.742-1.493,4.542-2.053,3.92c-3.671-4.169-4.915-7.964-3.547-10.577c0.436-0.809,0.373-1.307-0.311-1.867
	c-1.182-0.933-1.12-2.675,0.249-9.022c0.996-4.978,1.058-4.978,3.92-6.533c4.044-2.178,4.355-2.738,1.369-2.364
	c-3.36,0.436-4.604-0.311-4.604-2.8c0-2.427,1.991-10.142,3.111-12.257c1.555-2.924,11.324-12.444,12.817-12.444
	c1.991,0,3.36-0.622,3.36-1.555c0-2.24,6.969-6.222,10.08-5.786c2.924,0.373,2.178,4.729-1.244,7.093l-2.302,1.618l1.991-0.436
	c2.053-0.373,2.053-0.373,1.68,1.68c-0.436,2.489,0.249,1.742,2.675-2.924c1.182-2.302,1.742-4.604,2.178-9.333
	c0.809-8.089,0.809-8.462,0.249-10.266c-0.373-1.244,0-2.178,1.867-4.542c3.049-3.92,13.004-12.568,16.177-14.062
	c2.675-1.307,9.706-3.298,10.08-2.924c0.124,0.124-0.249,1.12-0.747,2.178c-1.493,2.8-1.307,3.36,1.929,6.346
	c8.026,7.466,9.52,9.644,9.52,13.875c0,1.182,0.311,2.924,0.684,3.92c0.622,1.618,0.684,1.68,1.307,0.56
	c0.436-0.747,0.498-3.422,0.249-7.591l-0.436-6.409l2.8-3.484c3.858-4.667,5.413-7.902,5.849-12.071l0.373-3.484l1.431,5.6
	C221.584,121.269,222.082,124.442,221.895,125.251z M166.208,207.817c5.289,0.933,5.164,1.058-0.684,0.933
	c-4.044-0.062-4.169,0-9.706,3.671c-6.533,4.355-8.897,6.658-4.604,4.48c1.493-0.809,3.858-1.804,5.289-2.24
	c1.369-0.436,4.542-1.68,7.031-2.675c5.662-2.427,9.084-2.924,13.564-1.991c3.858,0.809,3.92,1.182,0.436,2.24l-2.302,0.747
	l2.613,0.062c3.298,0.062,6.595,2.8,9.146,7.529c2.862,5.289,1.804,5.04-5.849-1.555c-7.342-6.284-8.151-6.72-9.831-5.538
	c-2.987,2.053-0.996,7.28,5.351,14.062l2.924,3.173l-2.8-0.436c-1.555-0.249-4.542-0.56-6.658-0.809
	c-2.178-0.187-3.92-0.373-3.92-0.436c0,0,0.56-2.115,1.182-4.604c0.684-2.427,0.933-4.48,0.684-4.48
	c-0.933,0-2.613,4.48-3.173,8.586c-0.373,2.302-1.058,6.658-1.555,9.644c-0.56,3.049-0.809,5.662-0.684,5.849
	c0.187,0.124,0.747-1.929,1.369-4.604c1.555-7.466,1.244-7.093,3.982-4.542c1.307,1.244,3.982,2.862,6.098,3.609
	c1.991,0.747,4.355,2.053,5.164,2.924c1.431,1.555,1.431,1.618,1.058,12.257c-0.498,12.257-0.933,15.928-1.804,14.684
	c-1.058-1.493,0.124,4.48,1.369,6.906c1.307,2.613,5.724,6.906,7.155,6.906c3.858,0,6.409-4.044,7.529-12.133l0.747-5.6l0.062,4.853
	c0.062,5.911-0.871,10.017-2.862,12.693c-1.307,1.742-1.867,2.053-4.169,2.053c-3.235,0-6.409-2.302-9.769-7.031
	c-1.182-1.68-2.613-3.609-3.235-4.355c-0.996-1.12-1.12-1.182-0.809-0.249c1.058,3.36,1.12,4.169,0.187,4.169
	c-1.369,0-7.031-4.729-8.524-7.217c-0.747-1.182-1.867-2.364-2.427-2.738c-1.369-0.684-2.364-4.044-2.924-9.52
	c-0.498-5.226-1.493-5.475-1.493-0.311c0,3.422-0.124,3.733-0.933,2.987c-0.871-0.933-4.667-11.76-4.667-13.502
	c0-0.622-0.373-0.747-1.182-0.498c-0.996,0.311-1.804-0.684-4.853-5.724c-3.547-5.973-3.609-6.098-3.609-10.764
	c0.062-3.298,0.373-5.289,1.182-6.72c0.56-1.182,0.933-2.302,0.684-2.489c-0.684-0.684-3.422,2.924-3.422,4.48
	c0,0.747-0.436,1.929-0.933,2.613c-0.871,1.182-0.933,1.12-2.178-0.373c-0.684-0.871-1.244-2.24-1.244-3.173
	c0-2.115,4.791-11.946,5.6-11.448c0.373,0.187,2.178-0.498,4.107-1.618C154.449,206.822,157.809,206.324,166.208,207.817z
	 M192.776,209.435c0.436,0.933,1.369,4.355,2.053,7.591c1.556,7.778,2.675,10.391,4.293,10.391c0.747,0,1.307-0.124,1.307-0.249
	c0-0.187,0.56-3.671,1.244-7.777c2.427-14.311,3.484-14.186,3.858,0.373c0.311,11.573,1.182,15.742,3.298,15.742
	c0.498,0,3.173-1.12,5.911-2.489c5.351-2.675,6.844-3.049,6.844-1.493c0,1.804-1.244,3.235-3.36,3.982
	c-1.244,0.373-3.858,2.551-6.533,5.289c-2.427,2.551-5.04,4.791-5.849,4.978c-0.871,0.249-3.235-0.249-5.662-1.182
	c-4.978-1.867-4.729-1.867-4.729-0.747c0,0.622-1.431,1.12-4.48,1.68c-4.978,0.871-4.107,1.369-8.773-5.04
	c-1.991-2.738-2.8-3.173-9.084-5.04c-3.111-0.933-5.6-2.675-4.853-3.422c0.249-0.311,2.8-0.062,5.662,0.56
	c5.911,1.182,9.457,1.369,10.017,0.436c0.249-0.373-1.431-2.675-3.733-5.164c-4.293-4.666-8.4-11.76-7.093-12.195
	c0.373-0.124,2.987,1.991,5.786,4.729c11.386,11.2,13.253,11.137,11.324-0.187c-1.058-5.849-1.307-11.573-0.56-12.32
	C190.474,207.071,192.03,207.817,192.776,209.435z M193.336,125.251c-0.622,1.058,0.187,2.302,2.302,3.547l1.991,1.12l-1.307-1.493
	c-0.747-0.809-1.618-1.991-1.929-2.675C194.021,125.065,193.585,124.878,193.336,125.251z
	 M179.71,142.175c-0.871,1.431-1.307,2.302-0.871,2.053c0.436-0.249,1.68-1.058,2.862-1.867
	c1.182-0.809,2.738-1.431,3.547-1.431c0.809,0,1.493-0.311,1.493-0.622c0-0.373-1.182-0.622-2.675-0.622
	C181.577,139.686,181.204,139.935,179.71,142.175z
	M207.958,147.899c-0.124,1.804,1.307,10.702,1.867,11.697c0.933,1.68,0.498-3.858-0.684-8.4
	C208.518,148.771,208.02,147.339,207.958,147.899z
	 M202.98,161.152c-0.062,3.609,1.618,7.777,3.733,9.271c0.809,0.56,1.68,0.996,1.929,0.996
	c0.622,0,1.493-1.742,1.991-4.044l0.373-1.867l-1.182,1.431c-0.996,1.182-1.493,1.307-2.489,0.809
	c-1.058-0.622-3.049-4.853-3.982-8.462C203.229,158.601,203.043,159.41,202.98,161.152z
	 M180.332,167.996c0.249,1.618-0.124,3.173-1.307,5.911c-1.929,4.293-1.867,6.098,0.062,3.36
	c1.742-2.364,2.862-6.72,2.364-9.022C180.892,165.632,179.897,165.383,180.332,167.996z
	 M192.776,235.007c-3.422,1.742-4.791,3.173-3.982,4.044c0.249,0.187,1.244-0.373,2.302-1.307
	c1.058-0.871,2.427-1.618,3.049-1.618c0.622,0,1.742-0.684,2.551-1.556C198.625,232.519,197.381,232.643,192.776,235.007z"/>
</svg>
