<svg width="400" height="400" viewBox="0 0 400 400" fill="none" xmlns="http://www.w3.org/2000/svg">
<path style="fill:#FFEE00;" d="M334.586,87.161c-37.368,13.453-83.006,34.232-130.488,57.14h86.338
	C309.059,125.38,323.161,105.017,334.586,87.161L334.586,87.161z M340,98.413c-17.196,26.431-40.64,57.61-75.865,82.125
	c-39.986,27.847-95.084,46.59-171.855,39.807c1.303,32.964,17.208,57.955,40.414,85.505
	c109.841-37.01,158.753-75.925,182.077-113.769C334.05,160.724,336.132,129.366,340,98.413L340,98.413z M182.141,155.011
	c-5.652,2.796-11.365,5.593-17.017,8.39h104.129c3.451-2.737,6.724-5.534,9.937-8.39H182.141z M143.583,174.112
	c-19.815,9.937-39.385,19.755-58.461,29.394c0.155,0.06,0.31,0.178,0.458,0.238c2.44,1.428,4.683,3.392,6.093,5.89
	c73.212,6.902,124.859-10.115,162.941-35.523L143.583,174.112L143.583,174.112z M71.21,211.003c-3.748,0-7.075,0.952-9.056,2.082
	c-1.981,1.13-2.154,1.964-2.154,2.023s0.173,0.892,2.154,2.023c1.981,1.13,5.308,2.082,9.056,2.082s7.075-0.952,9.056-2.082
	s2.154-1.964,2.154-2.023s-0.173-0.892-2.154-2.023C78.285,211.955,74.959,211.003,71.21,211.003z M82.123,228.08
	c-3.272,1.19-6.974,1.844-10.913,1.844c-2.576,0-5.046-0.298-7.367-0.833c1.458,16.72,7.634,35.761,15.899,51.35
	c5.677,10.77,12.275,19.933,18.357,25.645c6.082,5.772,11.032,7.378,13.65,6.545c3.392-1.071,6.724-2.142,9.996-3.213
	C100.979,284.31,85.372,259.379,82.123,228.08z"/>
</svg>
