<svg width="400" height="400" viewBox="0 0 400 400" fill="none" xmlns="http://www.w3.org/2000/svg">
<path fill-rule="evenodd" clip-rule="evenodd" d="M296.788 122.021C284.777 129.9 281.476 140.174 287.889 149.717C292.634 156.773 297.224 156.754 296.094 149.684C294.643 140.61 303.309 134.201 311.504 138.289C327.57 146.303 322.547 164.592 302.944 169.459C288.734 172.988 279.768 172.746 277.864 168.783C276.681 166.324 274.546 164.731 271.401 163.96C249.604 158.623 246.791 157.384 245.284 152.444C243.59 146.895 242.951 147.081 237.46 154.725C231.585 162.904 222.946 168.048 213.156 169.199C203.976 170.277 203.935 170.707 212.269 178.503C217.907 183.777 219.146 185.861 220.481 192.314C228.382 230.508 247.981 242.033 273.414 223.445C289.742 211.511 298.836 206.025 309.035 201.959C344.391 187.865 355.683 172.141 347.426 148.507C338.851 123.965 313.801 110.863 296.788 122.021ZM305.63 125.4C305.63 127.617 301.902 128.762 298.688 127.529C296.971 126.87 296.906 126.362 298.313 124.665C300.413 122.135 305.63 122.66 305.63 125.4ZM94.4008 148.899C92.8236 151.572 91.5321 154.085 91.5321 154.483C91.5321 157.449 84.4654 163.747 76.3694 167.994C45.7293 184.072 41.3576 207.018 65.5332 224.877C76.7456 233.159 89.1283 245.283 95.6416 254.358C117.227 284.423 140.678 290.703 162.571 272.281C182.68 255.36 180.785 222.806 159.212 214.567C149.296 210.782 135.828 217.684 135.828 226.552C135.828 228.97 139.187 229.6 140.527 227.433C142.427 224.358 150.284 226.006 153.831 230.22C158.884 236.227 158.381 240.951 151.971 247.691C140.553 259.695 126.627 249.809 117.761 223.405C115.12 215.539 115.125 215.501 119.061 214.005L122.429 212.724L121.704 197.594L120.98 182.466L125.385 178.864C129.474 175.52 129.597 175.195 127.103 174.305C113.718 169.521 104.005 161.045 100.945 151.48C98.5012 143.844 97.5932 143.487 94.4008 148.899ZM267.049 165.905C276.248 168.732 276.156 168.506 272.631 179.646C271.954 181.786 271.392 184.806 271.379 186.356C271.336 192.383 269.974 192.864 258.096 191.045C242.521 188.661 242.407 188.532 244.476 175.701C245.409 169.918 246.493 164.355 246.883 163.336C247.73 161.132 254.185 161.953 267.049 165.905ZM251.932 175.117C250.807 181.775 251.554 182.723 258.841 183.887L264.403 184.775L265.356 179.129C266.481 172.469 265.81 171.622 258.447 170.427L252.876 169.522L251.932 175.117ZM118.088 197.567L117.708 211.995L106.97 212.742C92.7657 213.73 92.4474 213.401 92.3117 197.627L92.2032 185.15L99.5865 184.361C103.647 183.929 109.556 183.475 112.72 183.356L118.47 183.137L118.088 197.567ZM99.4472 192.197C97.8917 203.378 98.9751 205.373 106.279 204.778C116.252 203.964 115.478 191.189 105.456 191.189C102.227 191.189 99.5231 191.643 99.4472 192.197ZM169.386 227.518C169.386 231.208 167.031 231.899 165.323 228.706C163.234 224.805 164.66 221.153 167.389 223.419C168.487 224.331 169.386 226.174 169.386 227.518Z" fill="#FFEE00"/>
</svg>
