<svg width="400" height="400" viewBox="0 0 400 400" fill="none" xmlns="http://www.w3.org/2000/svg">
<path style="fill:#FFEE00;" d="M220.648,84.356c-6.033,10.972-16.497,29.58-28.905,51.553L220.648,84.356z M86.415,298.554
	c-3.711,5.504-11.034,23.376-12.346,24.666c-1.312,1.291-1.996,0.065-3.365,1.015c-1.212,0.841-0.8,3.285,0.777,4.062
	c1.577,0.777,3.545-0.711,4.774-2.872c1.229-2.16,13.984-21.596,15.049-23.422C89.957,301.246,86.415,298.554,86.415,298.554z
	 M95.723,307.16l-8.694,17.035l-6.815-3.9l9.084-14.554c0,0,0.354,0.14,0.46,0.712c-0.893,1.343-1.375,3.01-0.298,3.725
	c0.841,0.558,1.902,0.333,2.72-0.741c0.718-0.943,1.652-2.982,1.652-2.982L95.723,307.16z M88.059,315.814
	c-0.308-1.02-1.466-1.572-2.587-1.234c-1.122,0.338-1.782,1.438-1.474,2.458c0.307,1.019,1.466,1.572,2.587,1.234
	C87.707,317.934,88.367,316.833,88.059,315.814z M139.134,121.98l2.665-2.998l-1.981-1.906l-3.138,2.713L139.134,121.98z
	 M132.183,111.155l-1.981-1.747l-3.125,2.998l2.236,1.804L132.183,111.155z M131.701,107.488l-0.981,1.27l2.136,1.829l1.008-1.017
	l0.09,0.069c0.014,0.011,1.395,1.053,2.779,1.053c0.585,0,1.09-0.187,1.504-0.555c1.107-0.985,1.078-2.372,0.8-6.194l-1.389,0.146
	l0.479-1.164l-0.574-0.704l-1.087,0.378l-0.116-1.1c-2.738,0.014-4.75,0.516-5.566,1.384c-1.39,1.479,0.835,4.497,0.858,4.527
	L131.701,107.488z M115.987,134.124c1.539-1.329-0.361-4.561-0.38-4.594l-0.05-0.084l1.108-1.161l-1.934-2.042l-1.109,0.907
	l-0.082-0.078c-0.014-0.013-1.448-1.352-2.926-1.352c-0.472,0-0.903,0.138-1.281,0.409c-1.204,0.864-1.32,2.247-1.442,6.077h1.396
	l-0.598,1.108l0.498,0.761l1.12-0.263v1.107C113.037,135.196,115.08,134.906,115.987,134.124z M122.84,135.975l-1.121,0.892
	l-0.081-0.079c-0.014-0.014-1.451-1.392-2.941-1.392c-0.459,0-0.88,0.132-1.253,0.392c-1.215,0.847-1.351,2.229-1.526,6.056
	l1.396,0.02l-0.612,1.099l0.487,0.767l1.124-0.247l-0.015,1.107c2.722,0.315,4.775,0.049,5.69-0.718
	c1.556-1.307-0.298-4.566-0.317-4.599l-0.049-0.084l1.124-1.145L122.84,135.975z M134.091,132.63l-15.962-17.655l3.357-2.903
	l17.401,16.029l3.045-2.404l-21.128-17.396l-6.688,6.354l16.639,20.885L134.091,132.63z M142.341,118.495l1.102-0.915l0.083,0.077
	c0.014,0.013,1.446,1.329,2.917,1.329c0.48,0,0.916-0.141,1.298-0.42c1.197-0.873,1.302-2.256,1.395-6.088l-1.396,0.011l0.589-1.113
	l-0.504-0.756l-1.118,0.271l-0.008-1.106c-2.707-0.254-4.782,0.058-5.673,0.84c-1.531,1.34,0.394,4.558,0.414,4.59l0.051,0.084
	l-1.099,1.17L142.341,118.495z M120.11,100.935l-3.872-2.442l-1.109,1.063l4.473,3.019L120.11,100.935z M121.192,124.754
	l-1.889-2.404l-3.699,3.253l1.846,2.003L121.192,124.754z M128.792,134.699l-2.065-2.251l-3.032,2.87l1.917,1.979L128.792,134.699z
	 M315.261,302.858c0.204-0.574,0.206-0.996,0.007-1.157c-0.064-0.052-0.151-0.078-0.258-0.078c-0.619,0-1.695,0.792-2.615,1.925
	c-1.205,1.485-1.608,2.874-1.216,3.192c0.064,0.052,0.151,0.079,0.258,0.079c0.619,0,1.694-0.792,2.614-1.926
	C314.61,304.204,315.039,303.481,315.261,302.858z M277.097,266.746c0.322-0.32,0.324-0.843,0.003-1.167
	c-0.155-0.157-0.364-0.243-0.585-0.243c-0.22,0-0.426,0.085-0.582,0.24c-0.323,0.32-0.324,0.843-0.003,1.167
	C276.24,267.055,276.784,267.057,277.097,266.746z M273.015,270.991c0.322-0.32,0.324-0.844,0.003-1.167
	c-0.156-0.157-0.364-0.243-0.585-0.243c-0.22,0-0.426,0.085-0.582,0.24c-0.322,0.32-0.324,0.843-0.003,1.167
	C272.158,271.3,272.702,271.302,273.015,270.991z M280.403,261.952c0.31,0.312,0.853,0.313,1.167,0.003
	c0.322-0.32,0.323-0.843,0.003-1.167c-0.155-0.156-0.364-0.243-0.585-0.243c-0.22,0-0.426,0.085-0.582,0.24
	C280.084,261.105,280.082,261.629,280.403,261.952z M267.763,273.949c-0.22,0-0.426,0.085-0.582,0.24
	c-0.322,0.32-0.324,0.843-0.003,1.167c0.31,0.312,0.854,0.314,1.167,0.003c0.322-0.321,0.324-0.843,0.003-1.167
	C268.192,274.035,267.984,273.949,267.763,273.949z M311.645,302.839c-12.749,14.007-25.945,21.11-39.222,21.11
	c-13.324-0.001-23.187-7.258-26.428-9.643c-4.804-3.535-8.137-10.982-11.078-17.552c-2.591-5.788-4.828-10.787-7.47-11.647
	c-2.529-0.823-4.029-2.177-4.013-3.619c0.014-1.216,1.107-2.297,2.853-2.82c1.496-0.449,2.722-1.742,3.364-3.549
	c0.914-2.575,1.435-8.386-5.351-18.372c-5.521-8.123-11.202-9.336-14.097-9.336c-3.709,0-6.221,1.849-6.702,3.589
	c-0.462,1.675-1.565,2.844-2.683,2.844c-1.359,0-2.328-1.632-2.593-4.365c-0.346-3.568-4.446-6.658-9.637-10.572
	c-6.355-4.79-14.262-10.75-17.496-19.823c-1.514-4.248-5.407-19.192,8.071-33.136l0.083-0.086l-9.567-10.606L95.723,307.161
	c8.092-15.798,42.428-76.496,73.844-132.03l-3.219-3.568c-25.196,45.382-54.721,97.345-74.643,129.693l-4.831-3.556
	c16.263-21.05,48.786-78.023,76.884-129.009l-30.942-34.304l2.216-1.926l-5.442-6.249l-2.753-3.027l39.681,40.493
	c0.108-0.197,0.215-0.392,0.323-0.589l-30.264-30.884l-13.069-13.337l-0.242,0.238l-3.421-4.142l1.529-1.278l4.178,3.473
	l-0.444,0.451l43.313,42.601c0.107-0.194,0.215-0.391,0.321-0.585l-41.274-40.595l-1.825-1.795l2.071,1.721l5.127,4.912l6.139,5.161
	l2.264-1.968l29.834,28.302c21.625-39.501,39.286-72.861,42.533-78.91c2.121-3.951,4.114-4.463,5.815-3.275
	c1.701,1.188,4.017,1.743,5.302-0.524c1.286-2.268,2.437-0.825,1.569,1.048c-0.867,1.873-1.188,4.536-2.678,7.313
	c-1.49,2.777-3.752-0.104-5.768-1.186c-1.389-0.745-1.694-1.038-2.896,1.678c-2.56,5.789-19.55,37.475-41.098,76.493l3.514,3.333
	c4.973-8.792,9.802-17.335,14.371-25.425l-14.295,25.496l13.176,12.499l0.09,0.086l0.089-0.088
	c6.636-6.584,14.449-9.922,23.22-9.922c3.284,0,6.585,0.478,9.814,1.422c12.666,3.703,18.348,12.425,22.497,18.793
	c2.792,4.284,4.997,7.669,8.243,7.94c2.621,0.22,4.262,1.117,4.39,2.4c0.114,1.151-1.064,2.351-2.801,2.855
	c-1.612,0.468-3.005,2.554-3.388,5.074c-0.392,2.578-0.26,9.262,9.405,15.648c7.11,4.699,12.047,5.685,14.937,5.684
	c4.332,0,6.483-2.145,7.007-3.981c0.51-1.783,1.596-2.89,2.834-2.89c1.444,0,2.763,1.445,3.621,3.966
	c0.907,2.665,5.778,4.8,11.419,7.272c6.394,2.801,13.641,5.977,18.026,10.902C335.708,256.678,332.887,278.136,311.645,302.839z
	 M102.393,281.823l-2.196-1.592l-4.136,6.473l2.219,1.419L102.393,281.823z M173.192,159.206c-0.107,0.194-0.214,0.388-0.321,0.582
	l3.496,3.323c0.109-0.192,0.218-0.385,0.326-0.577L173.192,159.206z M170.098,157.152c0.107-0.194,0.213-0.389,0.32-0.583
	l-28.66-27.248l-0.093-0.088l-0.443,0.466L170.098,157.152z M171.152,162.896l3.429,3.372c0.11-0.194,0.218-0.385,0.328-0.579
	l-3.433-3.377C171.367,162.508,171.26,162.701,171.152,162.896z M169.202,166.418l3.357,3.425c0.11-0.195,0.22-0.388,0.33-0.583
	l-3.361-3.43C169.419,166.026,169.31,166.221,169.202,166.418z M164.961,166.507c0.108-0.197,0.217-0.394,0.325-0.59l-29.686-31.44
	l-0.088-0.094l-0.467,0.441L164.961,166.507z M170.892,172.789c0.11-0.195,0.22-0.39,0.331-0.584l-3.294-3.489
	c-0.109,0.196-0.218,0.393-0.327,0.589L170.892,172.789z M246.882,253.27l-0.939,0.944c-0.218,0.22-0.338,0.51-0.337,0.819
	c0.001,0.309,0.122,0.599,0.341,0.817c0.439,0.437,1.202,0.434,1.636-0.004l0.951-0.956l11.268,10.736l0.443-0.466l-11.258-10.726
	l3.308-3.325l11.621,11.038l0.442-0.465l-11.61-11.028l3.769-3.789l11.457,11.303l0.452-0.457l-11.456-11.302l3.349-3.368
	l11.556,11.782l0.459-0.45l-11.561-11.787l1.576-1.584c0.219-0.22,0.338-0.51,0.337-0.819c-0.001-0.309-0.122-0.599-0.341-0.818
	c-0.44-0.436-1.201-0.433-1.636,0.005l-1.555,1.565l-0.029-0.03l-82.354-78.295l-0.325,0.579l82.225,78.173l0.027,0.028
	l-3.376,3.394l-80.327-79.007l-0.326,0.581l79.25,77.946l0.95,0.937l-3.792,3.812l-78.092-79.691l-0.328,0.585l77.966,79.562
	l-3.291,3.307l-76.005-80.497L171,172.903L246.882,253.27z M284.949,239.537c-0.519,0.508-1.167,0.766-1.926,0.766
	c-2.984,0-7.522-3.976-12.326-8.186c-5.613-4.919-11.975-10.493-16.816-10.493c-1.381,0-2.553,0.435-3.584,1.329
	c-0.87,0.755-1.342,1.768-1.402,3.011c-0.083,1.712,0.648,3.296,1.195,3.872c0.656,0.693,1.794,1.432,3.024,1.432
	c0.501,0,0.989-0.122,1.45-0.364c0.728-0.383,1.106-1.091,1.04-1.945c-0.078-1.007-0.769-1.954-1.642-2.252
	c-0.201-0.068-0.434-0.101-0.712-0.101c-0.345,0-0.702,0.052-0.974,0.097c-0.682,0.115-1.299,0.146-1.693-0.167
	c-0.521-0.412-0.776-0.818-0.78-1.241c-0.003-0.433,0.264-0.873,0.793-1.305c0.445-0.363,0.977-0.547,1.584-0.547
	c2.654,0,6.504,3.434,10.963,7.413c5.678,5.067,12.113,10.807,17.679,10.807c1.736,0,3.254-0.547,4.64-1.67
	c2.805-2.273,1.883-6.757,0.887-8.088c-0.698-0.932-1.893-1.534-3.047-1.534c-0.682,0-1.311,0.198-1.87,0.588
	c-0.73,0.509-1.144,1.259-1.165,2.114c-0.022,0.889,0.404,1.759,1.139,2.327c0.578,0.448,1.102,0.665,1.6,0.665
	c0.332,0,0.619-0.094,0.871-0.178c0.324-0.105,0.727-0.193,1.011-0.074c0.356,0.149,0.674,0.664,0.793,1.281
	C285.765,237.531,285.861,238.643,284.949,239.537z M258.261,270.15l-0.169,0.061l0.113,0.141c3.303,4.151,6.822,5.798,10.897,7.704
	c4.885,2.287,10.423,4.878,17.539,12.416c7.976,8.45,13.915,9.712,16.746,9.712c1.688,0,3.128-0.433,3.966-1.203
	c0.035-0.045,0.071-0.084,0.106-0.124c0.106-0.118,0.216-0.239,0.265-0.42c1.451-2.461-2.166-11.17-11.354-19.763
	c-6.832-6.389-10.062-11.765-12.658-16.085l-0.078-0.129c-0.245-0.409-0.487-0.811-0.729-1.206
	c-0.028-0.474-0.223-0.914-0.551-1.244c-0.115-0.116-0.248-0.215-0.418-0.31c-1.284-2.001-2.925-4.296-5.358-6.186l-0.438-0.34
	l-0.044,0.197c-0.097,0.438-0.664,1.286-1.548,2.38l-1.631-1.617l-1.086,1.094l1.721,1.707
	C269.492,261.599,261.683,268.943,258.261,270.15z M261.269,267.941l1.085-1.095l-1.741-1.728l-1.087,1.094L261.269,267.941z
	 M265.404,264.32l1.085-1.095l-1.741-1.728l-1.087,1.094L265.404,264.32z M269.67,260.488l1.085-1.095l-1.741-1.727l-1.087,1.094
	L269.67,260.488z M241.596,277.625c0.193-0.574,0.433-1.289-0.472-2.473c-0.552-0.723-1.401-1.155-2.273-1.155
	c-0.874,0-1.644,0.409-2.169,1.151c-1.203,1.701-0.461,3.879,0.915,4.922c0.658,0.498,2.157,1.003,3.751,1.003
	c1.292,0,3.094-0.319,4.342-1.839c5.169-6.295-2.357-14.839-8.996-22.378c-4.758-5.403-8.868-10.07-6.783-12.588
	c0.864-1.044,1.728-1.045,2.546,0.003c0.369,0.471,0.261,1.092,0.157,1.693c-0.097,0.552-0.196,1.122-0.007,1.687
	c0.317,0.949,1.367,1.666,2.443,1.666c0.771,0,1.392-0.368,1.748-1.037c1.193-2.237-0.806-4.257-1.038-4.481
	c-0.531-0.508-2.01-1.224-3.636-1.224c-0.925,0-2.24,0.241-3.248,1.388c-4.367,4.968,2.754,13.199,9.035,20.461
	c5.378,6.216,10.022,11.584,7.328,14.297c-0.494,0.497-1.163,0.771-1.884,0.771c-0.834,0-1.642-0.376-1.84-0.856
	C241.373,278.291,241.482,277.968,241.596,277.625z M309.268,301.915c31.803-36.982,13.696-57.62,7.389-63.065
	c-3.648-3.149-9.032-5.884-14.252-8.535c-5.982-3.039-11.632-5.909-12.512-8.496c-0.175-0.515-0.303-0.94-0.411-1.298
	c-0.369-1.225-0.573-1.9-1.706-2.547c-0.43-0.245-0.865-0.288-1.241-0.128c-0.813,0.347-1.092,1.453-1.445,2.853
	c-0.087,0.346-0.178,0.707-0.281,1.065c-0.257,0.9-1.515,1.817-3.283,2.393c-1.369,0.446-3.006,0.682-4.734,0.682
	c-3.138,0-9.44-0.808-16.385-6.218c-8.379-6.526-9.728-11.955-9.383-15.359c0.353-3.494,2.593-5.841,3.922-6.5
	c0.416-0.207,0.77-0.345,1.09-0.469c0.789-0.306,1.605-0.624,1.493-1.797c-0.122-1.282-1.62-1.41-3.72-1.589
	c-0.358-0.031-0.739-0.063-1.141-0.103c-2.731-0.273-4.83-3.361-7.487-7.272c-4.006-5.895-9.491-13.968-20.921-17.596
	c-1.657-0.526-5.086-1.408-9.435-1.408c-5.878,0-14.566,1.669-22.579,9.618l-0.091,0.09l0.905,0.913l0.092-0.09
	c7.702-7.641,16.043-9.245,21.684-9.245c4.167,0,7.45,0.844,9.036,1.347c11.005,3.492,16.346,11.353,20.246,17.093
	c2.846,4.188,5.093,7.495,8.423,7.828c0.418,0.042,0.815,0.076,1.187,0.107c0.786,0.067,2.423,0.207,2.522,0.429
	c0.02,0.204,0.02,0.204-0.681,0.477c-0.322,0.125-0.722,0.281-1.192,0.514c-1.638,0.812-4.222,3.484-4.63,7.522
	c-0.376,3.727,1.03,9.616,9.873,16.503c7.242,5.64,13.879,6.483,17.192,6.482c1.862,0,3.631-0.256,5.114-0.738
	c2.235-0.729,3.737-1.918,4.121-3.263c0.104-0.365,0.197-0.731,0.291-1.105c0.142-0.565,0.475-1.887,0.672-1.977
	c0.01,0.001,0.055,0.012,0.13,0.056c0.688,0.392,0.761,0.636,1.113,1.802c0.112,0.369,0.244,0.808,0.425,1.341
	c1.048,3.084,6.656,5.932,13.15,9.23c5.142,2.612,10.459,5.312,13.991,8.361c6.078,5.249,23.503,25.176-7.507,61.236
	c-11.71,12.633-23.823,19.123-36.001,19.29c-0.161,0.003-0.32,0.004-0.48,0.004c-14.283,0-23.61-8.787-25.335-10.548
	c-4.227-4.315-7.08-10.344-9.599-15.665c-2.603-5.5-4.66-9.844-7.501-10.769c-0.237-0.077-0.469-0.15-0.697-0.221l-0.057-0.018
	c-2.188-0.684-2.802-1.006-2.656-1.818c0.02-0.112,0.576-0.313,0.945-0.446c0.599-0.216,1.419-0.513,2.349-1.064
	c1.976-1.172,3.272-3.156,3.748-5.738c1.01-5.482-1.791-12.883-7.686-20.303c-6.344-7.986-11.923-9.701-15.537-9.734h-0.052
	c-3.071,0-5.802,1.262-7.692,3.555c-0.557,0.675-0.966,1.288-1.266,1.739c-0.101-0.549-0.22-1.325-0.343-2.139l-0.088-0.574
	c-0.554-3.625-4.412-6.453-9.297-10.034c-5.379-3.943-12.072-8.85-16.051-16.435c-4.199-8.003-3.288-21.445,6.577-31.65l0.089-0.092
	l-0.924-0.894l-0.089,0.093c-10.289,10.644-11.205,24.728-6.792,33.141c4.117,7.847,10.943,12.852,16.429,16.874
	c4.644,3.405,8.312,6.094,8.786,9.192l0.088,0.578c0.469,3.078,0.554,3.632,1.241,3.785c0.58,0.126,0.92-0.348,1.437-1.125
	c0.3-0.451,0.674-1.012,1.193-1.641c1.642-1.99,4.022-3.086,6.702-3.086v-0.129l0.09,0.129c4.641,0.042,9.787,3.326,14.491,9.247
	c5.664,7.129,8.371,14.154,7.428,19.271c-0.406,2.206-1.491,3.888-3.139,4.865c-0.822,0.487-1.546,0.749-2.131,0.961
	c-0.87,0.314-1.622,0.586-1.773,1.428c-0.369,2.051,1.618,2.671,3.538,3.271l0.068,0.021c0.219,0.069,0.443,0.139,0.671,0.213
	c2.314,0.753,4.364,5.082,6.738,10.1c2.561,5.41,5.463,11.542,9.841,16.011c1.788,1.826,11.46,10.935,26.254,10.935
	c0.165,0,0.332-0.002,0.497-0.004C284.871,321.462,297.298,314.829,309.268,301.915z M260.529,269.935
	c3.541-2.004,13.585-11.44,15.827-15.275c0.047-0.079,0.09-0.156,0.13-0.231c1.577,1.293,2.898,2.813,4.367,5.025
	c-0.465,0.03-0.896,0.223-1.225,0.549c-0.366,0.363-0.567,0.846-0.569,1.362c-0.002,0.515,0.198,1,0.56,1.365
	c0.726,0.731,1.997,0.733,2.726,0.009c0.122-0.121,0.226-0.256,0.311-0.404l0.395,0.656c2.621,4.361,5.883,9.789,12.791,16.25
	c0.322,0.301,0.637,0.602,0.944,0.903l0.286,0.283c0.212,0.209,0.421,0.418,0.626,0.627l0.309,0.317
	c0.197,0.204,0.391,0.407,0.582,0.609l0.276,0.294c0.231,0.248,0.456,0.495,0.677,0.742l0.129,0.142
	c0.266,0.299,0.523,0.595,0.775,0.891l0.157,0.188c0.196,0.232,0.389,0.463,0.576,0.693l0.203,0.251
	c0.173,0.215,0.342,0.428,0.507,0.641l0.179,0.23c0.19,0.247,0.373,0.491,0.553,0.735l0.079,0.104
	c0.409,0.559,0.808,1.131,1.185,1.702l0.074,0.113c0.157,0.24,0.309,0.477,0.455,0.712l0.074,0.118
	c0.156,0.252,0.306,0.502,0.466,0.776c0.455,0.782,0.855,1.548,1.203,2.306c1.159,2.53,1.479,4.524,0.871,5.318
	c-0.678,0.632-1.951,1.01-3.407,1.01c-2.652,0-8.241-1.231-15.88-9.475c-6.969-7.52-12.37-10.12-17.135-12.414
	c-0.551-0.265-1.09-0.525-1.62-0.788c0.048-0.039,0.095-0.08,0.137-0.123c0.366-0.363,0.567-0.847,0.569-1.362s-0.198-1-0.56-1.365
	c-0.727-0.732-1.997-0.734-2.727-0.009c-0.315,0.314-0.508,0.718-0.556,1.155C263.711,273.251,262.059,271.813,260.529,269.935z
	 M274.587,266.155c-0.001,0.515,0.197,1,0.56,1.365c0.365,0.367,0.851,0.57,1.368,0.57c0.513,0,0.995-0.2,1.359-0.56
	c0.366-0.363,0.568-0.847,0.57-1.362c0.001-0.515-0.198-1-0.56-1.365c-0.728-0.732-1.999-0.735-2.728-0.01
	C274.79,265.156,274.588,265.64,274.587,266.155z M270.505,270.4c-0.002,0.515,0.198,1,0.561,1.365
	c0.365,0.367,0.85,0.569,1.368,0.569c0.513,0,0.996-0.199,1.359-0.56c0.364-0.363,0.566-0.847,0.568-1.362
	c0.002-0.515-0.198-1-0.56-1.365c-0.726-0.731-1.998-0.734-2.726-0.009C270.709,269.401,270.507,269.885,270.505,270.4z
	 M104.752,106.908l4.417,6.927l1.884-1.679l1.707,2.378l8.409-7.811l-2.246-1.581l1.513-1.348l-6.701-4.419l-1.371,1.15
	l-6.412-4.514l-0.944,0.726c0.208,0.33,0.76,1.356,0.04,1.996c-0.205,0.182-0.461,0.275-0.762,0.275
	c-0.581,0-1.172-0.348-1.401-0.499l-0.888,1.035l4.337,6.038L104.752,106.908z M106.43,113.631l1.448-0.514l-2.835-4.591
	l-1.138,1.286L106.43,113.631z M313.808,306.595l4.601,2.416l-2.646-4.573L313.808,306.595z"/>
</svg>
