<svg width="400" height="400" viewBox="0 0 400 400" fill="none" xmlns="http://www.w3.org/2000/svg">
<path fill-rule="evenodd" clip-rule="evenodd" d="M266.65 71.0675C264.481 71.6661 258.27 72.6135 252.848 73.1726C226.441 75.8985 213.123 78.2953 198.562 82.9414C180.765 88.6209 172.605 92.7475 155.935 104.499L147.32 110.572L144.809 107.667C134.071 95.2478 133.2 94.9851 131.654 103.704C131.003 107.376 128.6 109.506 125.108 109.506C121.55 109.506 120.198 111.401 120.673 115.72C121.034 119.001 120.776 119.716 118.415 121.96C116.601 123.685 115.749 125.313 115.749 127.06C115.749 128.472 114.755 131.323 113.541 133.396C112.325 135.469 110.966 139.434 110.52 142.208C110.072 144.982 108.912 149.047 107.941 151.243C106.822 153.772 105.994 157.998 105.679 162.779C105.407 166.927 104.591 171.613 103.868 173.19C102.664 175.815 102.684 176.328 104.104 179.229C106.395 183.905 106.864 202.378 105.066 217.084C101.199 248.701 107.721 266.605 129.982 285.484C144.936 298.167 147.619 298.167 147.662 285.484C147.689 277.98 148.595 270.819 149.521 270.819C149.933 270.819 153.554 273.004 157.567 275.674C165.667 281.065 165.466 280.324 160.77 287.446C157.877 291.834 158.741 293.468 166.95 299.142C177.023 306.106 184.172 309.174 190.367 309.191L195.544 309.207L195.22 300.272L194.897 291.338L196.945 291.973C209.117 295.748 218.821 306.192 221.809 318.732C224.709 330.909 228.101 332.899 234.593 326.233C243.869 316.709 250.282 296.617 246.892 287.699C246.43 286.483 245.489 280.65 244.8 274.736C243.496 263.524 239.009 250.969 233.114 242.031C229.672 236.814 228.868 235.212 228.299 232.432C227.649 229.257 218.362 219.924 215.852 219.924C213.772 219.924 210.124 224.695 205.627 233.295C198.946 246.074 186.082 254.31 179.965 249.723C177.851 248.137 178.721 246.448 188.703 232.779C196.707 221.817 196.429 221.96 197.386 228.335C198.389 235.014 199.311 234.711 205.897 225.531C213.113 215.473 213.92 213.687 215.974 203.229C217.986 192.987 219.224 190.597 222.521 190.586C229.294 190.561 236.472 184.53 246.214 170.675C251.403 163.296 255.5 159.752 259.576 159.119C268.81 157.687 272.578 156.78 275.33 155.322C297.41 143.625 297.762 143.311 294.643 138.03C293.875 136.729 291.736 134.731 289.89 133.591C285.455 130.85 285.371 130.394 286.582 115.959C289.778 77.8827 284.558 66.125 266.65 71.0675ZM278.404 78.887C282.009 85.0384 283.092 90.1576 282.964 100.448L282.847 109.937L282.247 102.476C281.811 97.0507 281.111 94.1075 279.684 91.6932C278.381 89.4893 277.745 87.0842 277.794 84.5444C277.924 77.8478 274.543 76.4855 269.733 81.2955C265.652 85.3755 264.995 88.936 264.998 106.918L265.002 122.877L273.405 128.203C278.025 131.132 283.36 134.942 285.258 136.668L288.708 139.806L285.155 139.418C283.065 139.19 279.183 137.571 275.721 135.483C272.485 133.532 269.135 131.934 268.275 131.934C265.113 131.934 266.853 134.656 272.102 137.92C281.293 143.634 281.041 143.16 276.644 146.462C270.458 151.108 268.081 151.008 251.745 145.415C236.782 140.291 233.935 139.77 232.214 141.844C230.326 144.119 231.919 145.472 239.253 147.827C250.158 151.328 255.733 155.682 251.426 157.335C241.882 160.998 233.881 159.557 215.815 150.92C190.505 138.819 168.901 135.303 149.09 140.061C148.214 140.272 147.632 140.336 147.797 140.204C147.963 140.071 154.424 134.372 162.155 127.538C193.895 99.4813 192.06 100.803 187.716 109.137C182.772 118.621 183.691 130.072 189.84 135.627C199.569 144.416 226.167 145.841 226.167 137.573C226.167 134.928 225.485 134.535 217.194 132.398C213.382 131.415 210.114 130.071 209.782 129.347C207.606 124.622 207.562 124.593 202.749 124.848C188.233 125.617 192.39 104.582 208.84 94.0261C215.924 89.48 216.333 90.2727 211.933 100.017C206.402 112.269 209.785 122.255 221.319 127.71C230.412 132.012 230.817 131.172 223.581 123.02C212.759 110.829 213.245 101.975 225.37 90.4634C235.119 81.2071 257.311 74.7395 260.671 80.1749C261.566 81.6233 263.75 80.7701 269.296 76.8063C274.633 72.9936 275 73.0761 278.404 78.887ZM232.242 87.8073C228.387 91.4723 227.983 93.0137 230.32 95.1281C234.939 99.3081 240.083 98.5188 245.275 92.8347C251.759 85.7359 239.422 80.977 232.242 87.8073ZM202.876 88.8034C202.368 89.752 201.517 90.5285 200.986 90.5285C200.455 90.5285 200.723 89.752 201.581 88.8034C202.44 87.8538 203.291 87.0773 203.471 87.0773C203.651 87.0773 203.383 87.8538 202.876 88.8034ZM249.781 93.6704C248.882 97.2553 250.196 115.304 251.603 118.669C253.852 124.052 254.862 121.424 254.253 111.775C253.21 95.2339 251.314 87.5608 249.781 93.6704ZM195.777 97.5912C195.244 99.1883 193.653 99.3697 193.089 97.8969C192.731 96.9647 193.107 96.5671 194.349 96.5671C195.331 96.5671 195.967 97.0216 195.777 97.5912ZM258.628 100.233C257.138 105.792 258.591 119.418 260.825 120.833C263.229 122.357 263.496 121.374 263.022 112.741C262.386 101.189 260.109 94.705 258.628 100.233ZM277.517 103.506C278.115 104.474 276.478 106.918 275.231 106.918C274.815 106.918 274.474 105.948 274.474 104.762C274.474 102.572 276.439 101.761 277.517 103.506ZM142.144 110.834L144.473 113.888L141.972 116.516C136.976 121.767 130.632 120.449 132.868 114.624C135.335 108.197 138.993 106.702 142.144 110.834ZM239.968 120.486C238.034 121.466 236.949 122.634 236.949 123.739C236.949 126.193 241.329 126.426 244.988 124.167C250.662 120.664 246.152 117.356 239.968 120.486ZM131.006 121.733C134.635 125.144 132.997 132.009 128.867 130.698C127.97 130.413 126.353 129.239 125.273 128.089L123.308 125.999L125.207 122.928C127.414 119.356 128.285 119.177 131.006 121.733ZM125.663 133.655L128.138 136.236L126.106 138.399C121.252 143.565 116.369 139.917 120.053 133.876C122.152 130.433 122.562 130.416 125.663 133.655ZM158.881 144.443C156.032 146.072 155.771 146.046 176.134 146.111C198.875 146.184 200.449 146.86 191.61 152.744C185.522 156.797 166.515 167.314 165.371 167.262C164.885 167.24 166.429 166.225 168.801 165.006C179.186 159.67 178.813 156.441 168.338 160.985C163.998 162.866 162.715 163.105 161.391 162.279C159.043 160.812 157.418 161.019 154.533 163.152C151.055 165.723 151.327 166.565 155.426 165.909C157.367 165.599 159.345 165.743 159.954 166.238C160.551 166.722 161.814 167.284 162.763 167.49C163.959 167.748 163.111 168.287 160 169.249C153.565 171.238 150.256 170.112 144.54 163.986C134.676 153.417 135.809 147.957 148.578 144.524C155.188 142.748 161.94 142.695 158.881 144.443ZM120.053 146.158C121.544 147.953 120.488 151.305 118.087 152.398C115.804 153.439 113.011 152.365 113.602 150.675C115.369 145.633 115.86 144.874 117.348 144.874C118.25 144.874 119.468 145.452 120.053 146.158ZM144.432 147.155C142.96 147.771 143.067 150.857 144.58 151.437C146.41 152.139 149.537 150.148 149.219 148.482C148.941 147.019 146.425 146.321 144.432 147.155ZM155.577 150.541C145.055 153.652 141.569 155.746 144.205 157.376C144.672 157.664 146.487 157.506 148.236 157.024L151.415 156.145L148.533 158.552C142.366 163.701 148.872 163.398 157.882 158.117C162.135 155.625 168.37 150.256 168.37 149.087C168.37 147.743 162.965 148.357 155.577 150.541ZM171.426 149.99C171.153 150.432 171.324 151.037 171.806 151.335C172.836 151.972 174.409 151.164 174.409 149.999C174.409 148.95 172.073 148.943 171.426 149.99ZM179.584 149.819C176.705 150.348 174.973 151.822 176.011 152.86C178.034 154.884 187.141 152.913 188.003 150.265C188.36 149.172 184.283 148.955 179.584 149.819ZM166.116 157.41C165.329 158.61 164.931 159.838 165.228 160.135C165.971 160.878 169.233 157.825 169.233 156.387C169.233 154.529 167.667 155.043 166.116 157.41ZM116.279 160.059C116.988 162.883 115.431 164.615 113.354 163.313C111.761 162.316 110.992 159.353 111.787 157.283C112.507 155.404 115.59 157.308 116.279 160.059ZM142.41 169.467L146.569 173.358L143.576 180.895C133.916 205.226 136.254 232.727 149.698 252.895C158.39 265.933 162.043 268.418 157.359 258.106C146.765 234.784 146 215.469 155.002 198.53C160.921 187.395 162.326 187.072 160.751 197.208C159.511 205.175 158.644 204.468 167.939 203.071C177.634 201.613 180.303 200.661 193.006 194.128C199.275 190.903 204.301 188.869 206.001 188.869C215.567 188.869 213.782 193.033 192.87 219.492C178.469 237.713 168.406 254.068 167.13 261.331C166.427 265.327 169.36 270.245 179.22 281.602C189.186 293.082 193.269 301.843 189.35 303.347C187.502 304.056 183.058 299.069 181.398 294.423C179.885 290.186 177.31 286.909 164.209 272.55C134.48 239.966 123.775 209.002 131.25 177.223C134.406 163.806 135.526 163.029 142.41 169.467ZM242.557 168.942C242.557 170.262 233.035 178.499 229.288 180.418C223.403 183.433 196.411 183.329 190.889 180.269C189.529 179.516 198.104 174.361 204.642 172.002C210.639 169.84 242.557 167.263 242.557 168.942ZM114.456 171.676C114.456 172.965 113.884 173.859 112.946 174.04C111.412 174.335 110.707 170.907 112.03 169.586C113.143 168.471 114.456 169.601 114.456 171.676ZM113.162 180.243C115.313 182.394 115.342 183.875 113.272 185.749C111.724 187.15 111.617 187.051 110.685 183.344C109.265 177.71 109.871 176.952 113.162 180.243ZM113.544 192.241C114.168 193.25 113.213 195.77 112.206 195.77C111.783 195.77 111.436 194.799 111.436 193.614C111.436 191.482 112.605 190.721 113.544 192.241ZM117.392 229.667L116.227 235.02L115.603 229.412C115.26 226.328 114.769 222.715 114.512 221.38L114.045 218.954L116.301 221.635C118.529 224.283 118.543 224.379 117.392 229.667ZM218.107 227.3C224.83 232.429 224.527 236.022 216.732 243.605C212.984 247.252 212.458 248.391 214.521 248.391C216.587 248.391 216.027 249.847 213.185 251.871C210 254.139 210.228 255.273 214.142 256.642L217.108 257.68L214.521 258.715C213.098 259.285 209.839 259.973 207.279 260.243L202.626 260.734L204.63 258.024C206.732 255.183 206.446 253.402 204.191 255.275C203.069 256.204 202.876 256.032 202.876 254.103C202.876 251.338 203.441 251.299 196.31 254.549C192.228 256.408 188.537 257.39 184.523 257.685C178.581 258.121 176.896 258.987 178.626 260.717C179.333 261.424 181.69 261.413 187.528 260.676C195.437 259.678 197.493 259.859 195.094 261.341C190.617 264.108 176.364 262.751 173.968 259.33C172.083 256.639 174.247 255.292 180.456 255.292C192.844 255.292 201.834 248.568 210.179 233.061C215.088 223.941 214.378 224.456 218.107 227.3ZM112.046 232.207C111.84 233.28 111.663 232.604 111.653 230.707C111.644 228.809 111.812 227.931 112.028 228.756C112.245 229.581 112.253 231.133 112.046 232.207ZM212.845 233.055C212.107 234.11 211.502 236.352 211.502 238.038C211.502 239.725 210.88 241.993 210.12 243.079C207.931 246.204 209.337 246.226 213.642 243.134C217.439 240.407 220.991 235.915 220.991 233.84C220.991 232.073 218.471 232.82 217.034 235.013C215.253 237.732 213.99 237.03 214.657 233.692C215.266 230.649 214.676 230.441 212.845 233.055ZM112.14 245.222C112.435 247.719 111.087 248.385 110.235 246.164C109.372 243.918 109.64 242.185 110.789 242.563C111.382 242.758 111.99 243.954 112.14 245.222ZM231.463 250.547C235.025 258.024 234.858 258.742 229.56 258.742C224.941 258.742 221.465 257.481 222.311 256.111C222.59 255.66 223.885 255.292 225.189 255.292C226.495 255.292 228.301 254.751 229.204 254.091C231.557 252.371 229.494 250.116 225.567 250.116H222.59L224.296 247.949C225.366 246.588 225.819 245.064 225.516 243.852L225.033 241.921L227.016 243.646C228.106 244.596 230.108 247.7 231.463 250.547ZM133.773 253.889C135.392 257.122 135.952 259.966 136.361 267.019C136.921 276.665 138.212 279.053 139.186 272.244C140.104 265.829 140.775 266.385 140.679 273.479C140.577 281.139 139.864 284.091 138.033 284.444C135.897 284.855 135.363 282.424 134.944 270.388C134.392 254.521 133.326 254.323 131.639 269.77C131.314 272.751 130.942 275.081 130.813 274.946C130.234 274.343 128.597 251.597 129.048 250.424C129.877 248.262 131.584 249.513 133.773 253.889ZM236.666 265.346C237.534 266.131 238.243 267.705 238.243 268.846C238.243 271.303 236.231 270.293 233.037 266.231L231.218 263.918H233.153C234.218 263.918 235.799 264.561 236.666 265.346ZM227.219 273.072C229.664 274.311 233.143 275.378 234.949 275.445C237.743 275.546 238.234 275.854 238.239 277.504C238.246 280.286 236.396 279.963 229.768 276.025C220.028 270.236 218.787 268.799 227.219 273.072ZM144.842 278.783C144.649 280.334 144.489 279.274 144.484 276.427C144.478 273.58 144.636 272.311 144.833 273.607C145.029 274.904 145.034 277.232 144.842 278.783ZM236.333 292.955C241.941 298.24 241.942 298.211 235.835 310.429C231.094 319.911 230.829 320.022 227.583 313.875C226.227 311.307 223.652 306.613 221.862 303.443L218.604 297.681L224.5 303.66C235.028 314.334 235.806 310.718 225.718 297.992C224.214 296.095 222.654 293.959 222.253 293.248C221.412 291.758 221.367 291.728 229.003 297.863C239.48 306.278 238.692 299.667 227.996 289.406C226.042 287.531 224.441 285.662 224.441 285.254C224.441 283.859 231.6 288.495 236.333 292.955ZM175.546 294.051C178.778 295.28 179.926 299.287 177.044 299.287C173.558 299.287 170.765 295.659 170.364 290.609L169.992 285.916L171.729 289.588C172.724 291.691 174.355 293.598 175.546 294.051ZM183.326 292.118C183.954 295.994 186.975 299.535 187.805 297.371C188.425 295.759 185.157 288.934 183.767 288.934C183.144 288.934 182.99 290.049 183.326 292.118Z" fill="#0000FF"/>
</svg>
