<svg width="400" height="400" viewBox="0 0 400 400" fill="none" xmlns="http://www.w3.org/2000/svg">
<path fill-rule="evenodd" clip-rule="evenodd" d="M106.6 79.0437C106.11 79.6091 105.433 80.7936 105.096 81.6765C104.485 83.2756 106.551 97.1902 107.878 100.415C108.262 101.347 109.199 105.872 109.958 110.47C110.719 115.068 111.906 119.635 112.595 120.618C115.235 124.389 114.295 126.269 109.768 126.269C107.523 126.269 101.324 126.878 95.9923 127.621C90.6605 128.366 84.7677 129.075 82.8957 129.196C72.5369 129.87 72.2559 134.403 82.1578 141.071C89.219 145.827 96.2219 151.82 104.311 160.031C111.981 167.816 111.973 167.803 109.779 167.803C108.939 167.803 107.891 168.143 107.448 168.557C106.244 169.683 97.4361 172.042 94.4332 172.042C92.9894 172.042 91.8084 172.393 91.8084 172.822C91.8084 174.47 101.28 181.937 106.955 184.763C114.006 188.274 113.991 188.241 109.397 190.223C107.416 191.077 103.315 192.923 100.285 194.326C97.2545 195.728 92.2002 197.285 89.0534 197.785C80.754 199.105 82.9311 201.869 95.1985 205.59C101.211 207.414 101.846 208.077 98.648 209.192C96.0163 210.109 87.5708 216.845 87.5708 218.028C87.5696 218.377 89.2635 218.663 91.3344 218.663C93.4052 218.663 95.3184 219.018 95.5869 219.453C95.8553 219.887 98.1671 220.711 100.723 221.283C103.28 221.855 105.371 222.576 105.371 222.886C105.371 223.756 91.5468 236.998 90.1133 237.502C89.1539 237.837 89.0785 238.201 89.8061 238.976C91.9729 241.285 113.808 240.921 120.196 238.469C123.175 237.326 121.181 241.256 116.521 245.712C110.284 251.677 110.694 251.376 100.906 257.136C96.3921 259.794 91.4794 263 89.9911 264.261C88.5028 265.524 86.0562 267.319 84.5553 268.251C64.4899 280.713 64.8691 282.945 87.5696 285.989C88.7358 286.144 90.2618 286.479 90.9609 286.731C93.3789 287.604 105.459 289.019 110.492 289.019C116.489 289.019 116.399 288.698 112.152 294.952C110.287 297.699 108.761 300.14 108.761 300.377C108.761 300.615 106.283 304.63 103.251 309.299C97.2636 318.527 96.9735 319.424 99.2922 321.522C101.217 323.264 104.195 323.307 107.396 321.637C108.743 320.935 114.007 319.611 119.095 318.695C124.182 317.779 130.054 316.448 132.145 315.739C134.235 315.03 136.365 314.448 136.878 314.448C141.972 314.448 160.554 302.391 163.984 296.859C166.083 293.475 167.25 293.341 167.25 296.486C167.25 298.638 169.702 303.331 169.766 301.301C169.781 300.83 170.816 299.341 172.066 297.992C175.061 294.763 179.296 288.568 181.612 284.026C183.748 279.839 184.247 280.021 185.619 285.486C186.165 287.662 187.636 293.257 188.887 297.919C190.138 302.582 191.255 306.777 191.369 307.243C192.564 312.124 192.328 312.423 199.505 296.859C200.633 294.411 201.786 292.409 202.066 292.409C202.975 292.409 206.983 301.221 207.564 304.497C208.648 310.608 212.844 306.259 215.659 296.107C216.518 293.008 217.442 290.25 217.712 289.981C218.228 289.465 224.63 296.278 229.326 302.343C233.056 307.16 234.215 306.185 234.215 298.237C234.215 295.127 234.01 295.071 240.431 299.932C243.433 302.204 247.744 304.725 250.013 305.534C252.28 306.344 254.707 307.224 255.406 307.489C256.105 307.754 257.25 308.053 257.949 308.152C258.649 308.252 260.365 308.58 261.764 308.882C266.722 309.953 302.293 309.455 303.023 308.304C304.971 305.236 303.626 303.259 291.768 291.751L279.812 280.149L286.894 278.658C294.451 277.068 294.422 277.076 298.057 275.587C299.369 275.049 300.823 274.609 301.288 274.609C301.754 274.609 304.494 273.508 307.378 272.161C312.828 269.618 314.644 268.915 315.919 268.855C316.333 268.836 316.906 268.461 317.191 268.025C317.476 267.588 319.674 266.582 322.076 265.792C326.467 264.348 330 261.969 330 260.459C330 259.23 326.143 255.862 325.487 256.517C325.172 256.832 324.915 256.691 324.915 256.202C324.915 255.713 323.124 254.863 320.936 254.312C318.748 253.761 315.336 252.571 313.353 251.669C311.372 250.765 309.55 250.026 309.304 250.026C309.06 250.026 306.754 249.063 304.181 247.887C298.423 245.254 289.24 242.342 288.374 242.878C288.022 243.095 287.495 242.885 287.202 242.411C286.91 241.938 285.198 241.55 283.399 241.55C280.577 241.55 279.876 241.144 278.303 238.598C275.916 234.737 276.591 233.921 282.17 233.921C284.712 233.921 287.455 233.587 288.264 233.178C289.074 232.769 292.948 231.83 296.871 231.093C300.795 230.354 304.228 229.42 304.5 229.018C304.772 228.616 305.758 227.985 306.69 227.614C307.978 227.104 306.253 226.342 299.5 224.441C294.613 223.066 290.418 221.637 290.175 221.264C289.934 220.891 288.974 220.331 288.042 220.019C287.109 219.706 285.042 218.334 283.45 216.97L280.554 214.49L283.026 213.587C294.703 209.322 312.185 195.39 303.511 197.26C299.648 198.094 281.981 198.042 281.129 197.196C280.743 196.811 281.143 196.096 282.019 195.606C282.895 195.116 285.002 193.458 286.703 191.921C290.18 188.78 294.696 186.747 300.335 185.784C307.288 184.597 302.748 181.364 291.432 179.444L284.65 178.293L289.313 176.065C291.877 174.839 295.024 173.442 296.306 172.96C298.956 171.964 299.349 170.514 297.153 169.834C296.338 169.582 295.012 169.024 294.207 168.595C293.402 168.165 288.908 167.563 284.218 167.256C279.528 166.949 275.525 166.429 275.322 166.103C274.402 164.614 285.039 157.656 288.298 157.612C289.431 157.598 289.286 157.233 287.617 155.898C285.834 154.471 284.625 154.268 279.988 154.621C276.958 154.852 272.857 155.094 270.876 155.159C268.895 155.224 267.274 155.64 267.274 156.081C267.274 156.523 266.882 156.643 266.405 156.347C265.398 155.725 271.25 148.953 276.72 144.406C278.751 142.719 280.54 140.999 280.695 140.584C281.287 139.006 269.381 140.553 266.85 142.384C266.383 142.721 263.904 143.678 261.34 144.511C258.776 145.344 255.822 146.58 254.777 147.259C249.39 150.759 249.22 145.402 254.381 134.745C256.073 131.249 257.619 128.046 257.815 127.629C259.507 124.036 245.115 130.157 241.564 134.541C239.816 136.7 238.041 136.335 239.274 134.07C239.705 133.275 240.681 129.658 241.439 126.031C242.198 122.404 243.359 118.399 244.022 117.131C245.574 114.153 245.571 112.395 244.013 112.993C242.532 113.562 231.187 121.626 228.41 124.083L226.42 125.845L227.009 119.911C227.334 116.648 227.935 112.451 228.344 110.586C229.683 104.481 229.209 104.592 221.952 112.08C214.202 120.078 213.871 120.314 213.871 117.841C213.871 116.937 213.559 116.004 213.178 115.768C212.797 115.533 212.614 111.61 212.772 107.05C213.162 95.7156 212.693 95.1673 208.96 102.602C205.452 109.59 202.801 113.683 194.139 125.486C192.415 127.836 192.364 127.791 188.721 120.759C187.514 118.427 184.667 114.177 182.398 111.314C180.127 108.451 178.27 105.848 178.27 105.532C178.27 105.215 177.698 104.384 176.999 103.685C176.3 102.986 175.487 100.915 175.195 99.0828C174.729 96.1679 172.336 94.0982 172.336 96.6099C172.336 97.0805 171.579 99.084 170.654 101.06C168.642 105.356 167.25 112.246 167.25 117.908C167.25 123.107 166.952 123.072 160.79 117.156C155.08 111.675 150.689 105.662 149.797 102.106C149.123 99.4221 146.906 101.174 146.906 104.391C146.906 105.235 146.694 105.925 146.436 105.925C146.008 105.925 135.619 97.422 132.425 94.4557C131.687 93.7704 130.812 93.2095 130.481 93.2095C129.98 93.2095 120.574 87.1478 117.661 84.949C117.195 84.5972 115.193 83.2083 113.211 81.8627C111.231 80.5172 109.609 79.0871 109.609 78.6839C109.609 77.6137 107.634 77.8501 106.6 79.0437ZM180.344 115.672C183.434 119.402 186.18 123.312 186.446 124.361C186.712 125.41 187.247 126.269 187.634 126.269C188.315 126.269 189.388 131.705 189.392 135.169C189.41 151.569 189.141 154.241 187.475 154.241C185.451 154.241 183.693 150.411 182.871 144.212C182.226 139.354 179.965 137.892 179.965 142.332C179.965 145.712 181.66 153.625 182.598 154.622C183.581 155.668 183.575 157.632 182.589 157.632C181.808 157.632 177.71 150.949 174.288 144.098C170.078 135.666 169.587 124.661 172.775 110.162C172.928 109.463 173.083 108.529 173.118 108.086C173.2 107.076 173.38 107.266 180.344 115.672ZM209.33 112.917C209.398 113.967 209.905 117.495 210.459 120.759C213.201 136.931 210.267 155.906 204.692 158.045C202.913 158.728 202.575 158.037 203.677 155.977C204.816 153.85 204.5 146.965 203.275 147.197C202.809 147.284 202.103 148.715 201.708 150.375C200.753 154.378 199.332 154.255 199.842 150.214C200.062 148.467 200.467 144.366 200.741 141.103C201.015 137.838 201.465 134.261 201.741 133.151C202.11 131.667 201.933 131.236 201.069 131.525C199.447 132.066 197.894 139.448 197.222 149.828C196.752 157.068 196.432 158.51 195.34 158.3C191.665 157.592 191.581 139.187 195.219 131.498C197.722 126.209 202.671 118.485 203.912 117.933C204.261 117.778 204.547 117.265 204.547 116.793C204.547 113.704 209.143 109.982 209.33 112.917ZM155.685 118.666C158.083 120.546 161.067 122.904 162.316 123.906C164.995 126.054 167.571 131.331 167.04 133.582C166.683 135.09 166.629 135.084 165.961 133.474C164.885 130.877 160.725 126.863 160.122 127.838C159.831 128.309 160.547 130.101 161.715 131.82C165.968 138.09 161.253 137.155 156.059 130.699C153.671 127.731 152.787 125.722 152.359 122.285C152.048 119.802 151.457 117.562 151.045 117.307C150.2 116.784 150.025 115.249 150.811 115.249C151.094 115.249 153.287 116.787 155.685 118.666ZM223.739 120.459C223.44 123.326 222.863 126.092 222.458 126.606C222.052 127.12 221.262 128.964 220.701 130.706C219.437 134.633 218.345 135.375 216.808 133.346C214.295 130.03 216.271 122.204 220.896 117.156C223.718 114.076 224.332 114.791 223.739 120.459ZM239.504 121.394C239.036 121.977 238.072 124.934 237.36 127.964C234.218 141.35 232.321 148.131 230.781 151.476C229.873 153.454 229.129 155.415 229.129 155.835C229.129 157.398 221.285 165.261 219.727 165.261C218.053 165.261 217.401 162.407 218.868 161.502C219.722 160.973 228.281 143.524 228.281 142.31C228.281 140.387 226.706 141.833 225.231 145.109C224.345 147.078 222.045 150.83 220.121 153.446C218.197 156.06 216.181 159.025 215.641 160.035C214.559 162.057 214.036 162.217 212.23 161.075C211.238 160.446 211.211 160.065 212.091 159.005C212.684 158.291 212.913 157.291 212.599 156.784C212.286 156.277 212.378 155.402 212.803 154.839C213.226 154.277 214.065 152.101 214.663 150.003C216.942 142.026 223.313 133.391 232.888 125.301C238.284 120.743 241.602 118.784 239.504 121.394ZM138.783 127.886C139.589 128.776 141.364 129.966 142.729 130.532C144.093 131.097 145.211 131.863 145.211 132.235C145.211 132.606 147.022 133.589 149.237 134.42C151.452 135.25 153.454 136.14 153.687 136.398C153.92 136.656 155.122 137.386 156.355 138.022C162.327 141.095 172.336 152.206 172.336 155.762C172.336 156.417 172.953 158.251 173.707 159.84C178.875 170.733 163.978 161.594 154.894 148.3C152.667 145.041 150.34 142.374 149.723 142.374C148.4 142.374 148.231 143.74 149.46 144.5C149.931 144.791 152.55 148.374 155.28 152.46C160.716 160.6 162.383 162.765 165.528 165.771C167.702 167.848 166.97 170.388 164.552 169.155C159.414 166.533 151.992 160.892 151.992 159.607C151.992 158.987 151.453 158.479 150.793 158.479C147.728 158.479 140.907 146.461 137.992 135.922C135.192 125.802 135.359 124.103 138.783 127.886ZM251.169 132.466C251.169 132.612 250.449 134.233 249.569 136.069C248.69 137.905 247.709 141.505 247.389 144.069C246.632 150.135 246.16 151.698 245.086 151.698C243.559 151.698 235.736 158.382 233.154 161.893C231.792 163.745 230.329 165.261 229.903 165.261C228.676 165.261 229.004 163.03 230.401 161.869C231.1 161.289 231.672 160.301 231.672 159.673C231.672 159.045 232.373 157.28 233.231 155.751C234.089 154.221 235.446 150.993 236.247 148.577C238.595 141.497 251.169 127.922 251.169 132.466ZM129.19 142.383C132.308 143.249 135.743 146.19 134.772 147.162C134.475 147.458 133.651 147.219 132.94 146.629C131.263 145.238 131.295 146.133 133.017 148.761C133.77 149.91 134.152 150.893 133.865 150.944C129.338 151.762 121.476 146.342 121.476 142.404C121.476 141.292 125.227 141.282 129.19 142.383ZM264.57 151.899C261.327 155.285 256.547 161.488 253.948 165.685C245.653 179.072 239.849 185.588 237.929 183.668C234.693 180.432 237.942 173.602 246.868 164.869C253.314 158.563 252.515 156.86 245.86 162.718C243.741 164.582 241.733 166.108 241.396 166.108C241.06 166.108 238.937 168.016 236.678 170.347C232.034 175.14 231.672 175.312 231.672 172.737C231.672 167.455 246.948 151.698 252.07 151.698C252.446 151.698 253.827 151.254 255.139 150.71C256.451 150.166 257.716 149.657 257.949 149.579C258.183 149.5 259.326 149.04 260.493 148.556C261.658 148.071 263.847 147.407 265.356 147.079C266.866 146.75 268.324 146.123 268.594 145.685C268.865 145.248 269.396 145.081 269.776 145.315C270.156 145.551 267.813 148.512 264.57 151.899ZM121.476 157.266C126.372 157.57 130.831 158.186 131.386 158.635C131.94 159.084 133.085 159.365 133.929 159.258C134.773 159.153 136.035 159.297 136.734 159.578C137.433 159.86 139.531 160.481 141.397 160.958C148.546 162.784 160.022 171.879 158.429 174.454C157.9 175.312 149.746 174.173 148.311 173.04C147.771 172.614 145.232 171.593 142.668 170.771C140.104 169.947 137.618 168.972 137.145 168.601C136.672 168.231 134.805 167.803 132.997 167.654C128.86 167.309 127.93 169.112 131.816 169.944C133.355 170.273 135.092 170.926 135.674 171.396C136.258 171.865 136.734 171.966 136.734 171.618C136.734 171.271 137.21 171.365 137.794 171.827C138.377 172.29 140.379 173.148 142.244 173.734C144.108 174.32 146.207 175.273 146.906 175.853C147.606 176.433 149.299 177.267 150.668 177.706C153.61 178.651 154.57 180.519 152.113 180.519C151.168 180.519 150.15 180.918 149.848 181.407C149.505 181.961 148.926 182.001 148.314 181.515C147.773 181.084 145.439 180.458 143.129 180.123C134.452 178.866 126.114 174.372 115.547 165.261C105.685 156.756 104.891 155.594 109.395 156.251C111.145 156.506 116.581 156.963 121.476 157.266ZM278.293 158.11C278.293 158.829 273.219 162.955 270.776 164.222C265.117 167.158 263.048 163.053 268.545 159.799C271.553 158.018 278.293 156.851 278.293 158.11ZM285.922 171.093L289.737 171.714L284.227 174.277C280.195 176.154 276.727 178.812 271.296 184.19C264.041 191.373 260.731 193.134 259.185 190.633C258.877 190.135 258.104 189.927 257.467 190.171C256.829 190.416 256.082 190.251 255.807 189.806C255.532 189.359 254.398 188.995 253.287 188.995C246.689 188.995 260.311 179.397 268.502 178.274C271.074 177.921 272.359 177.333 272.359 176.509C272.359 175.096 264.344 175.754 262.4 177.326C261.816 177.798 261.34 177.87 261.34 177.486C261.34 177.102 260.882 177.246 260.322 177.806C259.764 178.365 258.817 178.823 258.22 178.823C257.623 178.823 255.009 180.183 252.41 181.846C249.812 183.508 247.24 184.718 246.695 184.537C245.015 183.977 254.466 174.745 257.825 173.663C259.525 173.115 261.298 172.441 261.764 172.163C262.23 171.887 263.245 171.765 264.02 171.891C264.794 172.019 265.675 171.723 265.977 171.235C266.601 170.225 280.004 170.13 285.922 171.093ZM120.446 174.353C121.712 175.158 122.938 176.036 123.171 176.305C123.404 176.573 125.121 177.495 126.986 178.354C134.001 181.584 134.23 182.187 128.415 182.105C125.524 182.065 122.949 181.69 122.692 181.275C122.063 180.26 118.085 180.304 118.085 181.326C118.085 182.159 123.335 183.896 125.876 183.904C126.664 183.907 127.546 184.29 127.834 184.757C128.122 185.223 129.098 185.605 130.003 185.605C130.908 185.605 131.648 185.986 131.648 186.452C131.648 186.947 128.823 187.3 124.867 187.3C121.137 187.3 118.085 186.943 118.085 186.509C118.085 186.074 117.227 185.457 116.179 185.139C115.129 184.821 113.057 183.65 111.573 182.539C110.088 181.428 108.604 180.519 108.271 180.519C107.319 180.519 100.288 175.919 100.286 175.295C100.285 174.622 109.407 173.149 114.513 172.997C116.668 172.933 119.081 173.485 120.446 174.353ZM292.621 182.7C293.725 183.079 280.339 191.603 275.992 193.289C273.291 194.336 272.638 192.609 275.279 191.406C276.47 190.862 277.445 189.908 277.445 189.283C277.445 187.925 276.998 187.874 274.898 188.997C271.992 190.553 272.386 188.464 275.573 185.421C279.563 181.612 286.3 180.537 292.621 182.7ZM146.514 193.159C148.713 194.133 151.036 194.929 151.676 194.929C152.316 194.929 152.839 195.431 152.839 196.046C152.839 197.407 142.565 200.877 138.429 200.912C136.798 200.925 133.815 201.254 131.8 201.644C129.785 202.033 124.893 202.1 120.928 201.791C113.629 201.225 112.071 201.58 114.183 203.332C116.863 205.556 142.622 205.003 145.544 202.658C147.124 201.391 151.992 200.624 151.992 201.643C151.992 202.145 151.61 202.558 151.144 202.558C150.678 202.558 149.624 203.225 148.802 204.041C147.358 205.474 142.329 208.102 142.162 207.51C142.117 207.35 141.545 207.647 140.891 208.169C137.181 211.129 119.591 211.483 115.202 208.687C114.69 208.36 114.081 208.054 113.848 208.007C113.615 207.959 112.661 207.617 111.729 207.244C102.181 203.43 97.4178 201.71 96.4058 201.71C92.8581 201.71 95.7685 199.974 102.827 197.879C103.06 197.811 104.326 197.309 105.638 196.764C106.951 196.221 108.356 195.776 108.761 195.776C109.167 195.776 110.573 195.335 111.885 194.796C113.198 194.257 114.653 193.759 115.119 193.688C115.585 193.617 116.539 193.326 117.238 193.041C122.145 191.033 124.503 190.736 133.055 191.047C140.248 191.309 143.473 191.815 146.514 193.159ZM255.83 195.806C260.026 196.32 264.031 196.973 264.73 197.258C265.43 197.542 266.574 197.852 267.274 197.944C267.973 198.038 271.025 198.769 274.055 199.568C277.086 200.369 283.57 201.299 288.465 201.635C294.692 202.061 296.856 202.467 295.671 202.985C294.737 203.393 292.197 204.769 290.023 206.043C287.85 207.316 285.848 208.134 285.573 207.86C285.299 207.586 285.074 207.778 285.074 208.286C285.074 210.429 271.424 213.943 263.035 213.96C249.606 213.988 233.31 202.355 246.077 201.855C247.895 201.784 249.616 202.103 249.902 202.566C250.187 203.027 251.829 203.414 253.549 203.426C256.305 203.444 258.773 203.857 266.214 205.548C267.45 205.828 268.121 205.586 268.121 204.857C268.121 204.116 265.517 203.235 260.463 202.265C256.25 201.459 251.768 200.358 250.503 199.82C249.237 199.282 246.515 198.439 244.456 197.945C238.355 196.484 239.633 193.876 246.082 194.626C247.247 194.762 251.635 195.293 255.83 195.806ZM147.822 212.223C147.246 212.916 144.803 214.111 142.39 214.876C139.979 215.643 136.861 216.762 135.463 217.367C134.064 217.97 131.394 218.948 129.529 219.541C125.473 220.83 119.781 224.284 119.781 225.455C119.781 226.668 120.514 226.502 123.618 224.583C126.926 222.538 135.955 219.453 136.907 220.042C138.121 220.792 137.637 221.626 133.417 226.05C129.523 230.132 122.324 235.455 122.324 234.252C122.324 233.956 121.736 234.202 121.017 234.798C119.965 235.671 99.0478 237.508 97.9204 236.827C97.7845 236.745 101.753 232.649 106.737 227.724C117.159 217.428 122.069 214.431 128.548 214.413C133.832 214.397 143.005 212.335 145.47 210.609C147.646 209.085 149.417 210.301 147.822 212.223ZM114.206 212.806C114.432 213.032 113.28 214.283 111.645 215.586C108.484 218.109 101.908 218.93 100.016 217.039C99.5115 216.534 98.2208 216.12 97.1483 216.12C93.7993 216.12 95.0123 214.694 99.4007 213.473C103.372 212.368 113.32 211.919 114.206 212.806ZM254.135 219.609C262.67 223.961 272.072 234.34 278.213 246.188C281.636 252.795 281.522 253.561 277.658 249.907C272.297 244.839 266.455 241.25 252.864 234.68C244.232 230.509 237.606 225.473 237.606 223.086C237.606 220.911 249.106 225.202 255.538 229.778C258.197 231.669 259.773 231.851 259.136 230.191C258.561 228.693 249.76 223.218 246.684 222.446C245.412 222.127 244.161 221.526 243.905 221.112C243.648 220.697 242.721 220.358 241.844 220.358C239.897 220.358 238.974 219.04 239.664 217.244C240.44 215.221 247.933 216.446 254.135 219.609ZM279.606 220.247C280.05 220.652 282.319 221.686 284.65 222.545C286.982 223.404 289.843 224.597 291.008 225.194C292.173 225.793 293.795 226.284 294.611 226.287C295.426 226.29 296.094 226.623 296.094 227.029C296.094 229.281 273.835 229.594 270.641 227.386C267.425 225.163 266.271 223.838 266.802 222.978C267.301 222.171 272.881 223.34 274.479 224.586C274.945 224.951 276.612 225.523 278.182 225.86C282.451 226.774 281.217 224.695 276.566 223.137C272.105 221.643 272.024 221.586 272.749 220.415C273.419 219.33 278.469 219.207 279.606 220.247ZM153.687 221.767C153.687 224.461 140.835 239.464 136.282 242.086C135.366 242.614 134.852 243.296 135.141 243.601C135.794 244.29 140.124 242.389 140.124 241.414C140.124 241.022 140.609 240.702 141.199 240.702C143.042 240.702 151.048 233.114 153.35 229.188C154.556 227.129 155.889 225.444 156.311 225.444C157.283 225.444 157.3 226.558 156.343 227.605C155.938 228.049 155.002 230.243 154.26 232.481C151.818 239.856 144.1 247.394 135.871 250.443C133.782 251.216 131.354 252.236 130.478 252.71C129.207 253.396 116.348 255.085 112.576 255.061C112.11 255.059 112.681 254.282 113.848 253.335C118.806 249.306 123.41 244.381 127.519 238.708C132.824 231.383 141.418 223.688 145.808 222.331C149.411 221.217 153.687 220.912 153.687 221.767ZM237.439 234.342C243.358 238.34 256.283 257.508 256.258 262.251C256.254 263.165 260.193 273.542 261.318 275.576C262.762 278.189 257.25 276.738 254.559 273.798C254.326 273.543 253.042 272.77 251.705 272.08C244.749 268.49 226.586 248.613 226.586 244.592C226.586 243.572 226.145 242.295 225.605 241.755C224.403 240.554 225.785 238.566 228.274 237.915C230.043 237.452 233.341 241.381 239.745 251.578C244.058 258.446 247.466 262.488 248.267 261.687C248.613 261.34 248.304 260.387 247.577 259.568C246.852 258.749 244.818 255.028 243.058 251.298C241.298 247.568 238 242.121 235.73 239.193C230.385 232.299 231.159 230.101 237.439 234.342ZM163.559 236.056C164.402 238.253 162.344 244.471 158.892 250.152C157.075 253.143 154.368 258.201 152.877 261.39C149.225 269.199 150.753 270.625 154.605 263.004C156.199 259.854 159.451 254.405 161.831 250.896C164.213 247.387 166.432 243.658 166.763 242.61C167.603 239.946 168.945 240.227 168.945 243.068C168.945 252.83 160.491 266.941 150.3 274.185C148.333 275.583 146.071 277.3 145.273 277.999C142.396 280.521 138.43 283.122 138.448 282.475C138.457 282.111 139.417 279.143 140.581 275.88C141.745 272.617 143.472 266.894 144.418 263.165C145.365 259.436 146.693 255.182 147.371 253.713C148.048 252.244 148.602 250.712 148.602 250.31C148.602 245.26 162.139 232.357 163.559 236.056ZM257.092 240.373C259.532 241.35 260.662 242.379 261.048 243.976C261.345 245.206 262.295 247.224 263.158 248.462C266.326 252.996 265.264 253.491 258.927 250.435C248.883 245.59 247.212 236.42 257.092 240.373ZM174.682 243.954C177.219 245.563 178.221 256.722 176.598 265.284C176.2 267.382 175.619 270.625 175.307 272.489L174.74 275.88L176.632 273.055C178.737 269.912 180.779 262.288 180.799 257.494C180.807 255.772 181.23 254.106 181.741 253.791C182.253 253.474 182.506 252.099 182.306 250.733C181.995 248.61 182.198 248.286 183.708 248.502C185.384 248.742 185.474 249.262 185.456 258.594C185.434 269.461 183.599 274.498 175.774 285.173C174.053 287.522 172.386 290.134 172.072 290.979C171.082 293.643 169.792 291.627 169.792 287.414C169.792 285.189 169.54 283.115 169.23 282.805C167.598 281.173 167.17 261.502 168.698 258.362C170.614 254.425 173.089 245.68 172.627 244.476C172.108 243.122 173.011 242.893 174.682 243.954ZM219.27 246.423C219.551 247.24 220.565 249.189 221.523 250.756C223.31 253.677 226.706 265.618 226.901 269.664C226.96 270.907 227.296 272.21 227.646 272.56C228.456 273.371 228.486 294.952 227.678 294.952C227.345 294.952 226.193 293.903 225.117 292.622C211.483 276.382 207.506 266.287 209.696 253.474C210.761 247.241 212.702 246.726 213.56 252.449C214.893 261.34 219.529 273.761 221.514 273.761C222.606 273.761 222.596 271.443 221.503 271.077C221.038 270.922 220.059 266.598 219.327 261.47C218.595 256.341 217.449 250.943 216.781 249.474C216.113 248.005 215.567 246.385 215.567 245.872C215.567 244.347 218.717 244.816 219.27 246.423ZM193.62 259.737C194.221 263.487 194.697 268.761 194.678 271.455C194.656 274.556 194.975 276.246 195.546 276.055C197.816 275.299 198.408 263.857 196.62 255.322C196.009 252.408 195.699 249.833 195.931 249.601C197.056 248.475 198.066 249.63 200.494 254.82C205.539 265.6 204.407 276.158 196.432 292.706C195.791 294.036 195.024 296.42 194.727 298.005C193.972 302.029 193.007 301.595 192.369 296.945C192.072 294.778 191.402 292.489 190.88 291.859C190.357 291.229 190.213 290.714 190.56 290.714C190.907 290.714 190.715 290.14 190.133 289.438C188.143 287.041 187.523 274.915 188.943 266.132C189.702 261.429 190.031 256.139 189.732 253.417L189.22 248.755L190.874 250.837C191.868 252.09 192.962 255.635 193.62 259.737ZM139.277 258.483C139.277 260.617 136.31 262.56 130.854 263.999C125.815 265.328 125.705 265.166 129.242 261.616C133.752 257.091 139.277 255.366 139.277 258.483ZM240.996 268.023C243.365 270.565 243.841 272.893 243.319 279.391C242.89 284.739 241.998 287.132 241.231 284.987C241.022 284.402 239.123 281.575 237.011 278.705C234.532 275.339 233.008 272.292 232.717 270.12C232.118 265.642 234.007 266.127 236.312 271.042C238.748 276.234 240.4 275.697 238.376 270.37C236.549 265.564 237.725 264.51 240.996 268.023ZM158.101 279.147C157.963 279.914 158.249 280.543 158.736 280.543C159.223 280.543 159.621 279.97 159.621 279.27C159.621 278.571 160.193 277.999 160.892 277.999C162.649 277.999 162.507 278.857 159.885 284.066C157.552 288.7 155.532 291.562 154.592 291.562C153.617 291.562 154.319 281.259 155.435 279.174C156.638 276.924 158.5 276.906 158.101 279.147ZM212.274 286.85C212.528 291.419 211.483 297.495 210.442 297.495C209.997 297.495 209.633 296.786 209.633 295.918C209.633 295.051 208.679 292.936 207.514 291.219C206.348 289.501 205.394 286.969 205.394 285.59C205.394 282.842 206.564 282.296 207.784 284.475C208.765 286.229 210.564 285.228 209.95 283.27C209.572 282.063 209.724 282.096 210.835 283.459C211.572 284.365 212.22 285.889 212.274 286.85Z" fill="#0000FF"/>
</svg>
