<svg width="400" height="400" viewBox="0 0 400 400" fill="none" xmlns="http://www.w3.org/2000/svg">
<path fill-rule="evenodd" clip-rule="evenodd" d="M278.474 123.917C274.852 126.764 272.084 130.998 272.084 133.693C272.084 134.811 270.741 135.275 261.237 137.451C255.271 138.816 249.646 140.244 248.737 140.624C247.828 141.004 246.938 141.345 246.759 141.382C236.036 143.61 215.644 160.819 204.543 177.01C200.352 183.122 200.384 183.099 198.912 181.022C184.114 160.148 164.523 146.759 141.892 142.054C135 140.621 131.593 140.376 122.088 140.635C114.192 140.85 110.008 141.276 106.179 142.256C96.6379 144.697 97.3764 144.759 94.8162 141.293C87.3116 131.131 71.5052 135.666 71.444 148C71.4282 151.146 77.2442 151.482 80.0607 148.498C82.5159 145.895 83.5265 145.995 85.1347 149C86.504 151.558 81.7275 154.598 80.2068 152.138C78.9119 150.043 72.7354 152.357 72.7433 154.934C72.7547 158.819 79.8481 164.475 84.7094 164.475C88.8034 164.475 95.2563 159.046 96.7648 154.333C97.8909 150.812 98.0702 150.715 101.905 151.538C124.448 156.372 144.839 171.769 153.929 190.819C158.982 201.41 158.961 203.404 153.825 200.566C152.262 199.702 148.499 198.355 145.464 197.572C142.429 196.788 139.506 195.984 138.971 195.784C134.928 194.274 116.417 194.272 112.348 195.781C111.813 195.98 109.534 196.62 107.285 197.202C103.294 198.237 97.414 200.653 96.7639 201.526C96.5854 201.765 95.2668 202.555 93.8336 203.282C81.045 209.763 69.4272 228.07 66.65 246.114L65.873 251.16L63.6244 251.336C59.6354 251.646 58.469 252.124 55.7934 254.541C48.4235 261.199 48.0814 268.309 54.7933 275.348C57.8417 278.543 58.5618 278.708 59.7526 276.484C60.7868 274.551 61.7003 274.374 61.7003 276.106C61.7003 283.974 74.2448 277.893 76.6816 268.843C77.8024 264.681 74.5746 254.732 72.1037 254.732C67.5661 254.732 77.3098 242.699 87.2092 236.078C104.446 224.549 122.102 224.951 133.249 237.126C137.97 242.282 142.218 252.202 142.218 258.068C142.218 262.229 139.443 262.024 192.349 261.775C233.22 261.583 240.399 261.411 240.891 260.615C241.209 260.1 241.918 257.259 242.467 254.301C243.015 251.343 244.049 247.639 244.764 246.07C245.478 244.501 246.694 241.499 247.465 239.397C251.254 229.077 261.748 219.249 272.364 216.079C277.951 214.41 292.428 214.961 297.082 217.019C297.796 217.334 300.28 218.252 302.602 219.058C310.898 221.939 325.328 230.337 325.328 232.283C325.328 232.732 324.741 234.807 324.024 236.893C323.227 239.208 322.905 241.206 323.199 242.026C323.463 242.765 323.701 243.661 323.728 244.018C323.933 246.696 328.166 251.967 331.71 253.957C335.624 256.155 344.158 253.934 344.158 250.717C344.158 248.887 340.095 244.991 338.185 244.991C335.029 244.991 333.882 241.351 336.467 239.539C338.47 238.137 340.051 239.223 340.582 242.366C341.769 249.386 349.992 248.521 350.001 241.376C350.012 231.824 341.628 224.567 333.104 226.752C331.285 227.218 329.701 227.495 329.586 227.367C329.469 227.239 327.997 224.381 326.313 221.015C318.268 204.927 303.487 190.987 288.698 185.538C286.166 184.606 283.658 183.666 283.121 183.449C282.586 183.232 281.855 183.03 281.498 183.001C281.141 182.971 280.44 182.691 279.941 182.379C277.364 180.768 251.833 181.432 249.038 183.183C248.677 183.408 248.09 183.651 247.733 183.722C247.376 183.792 245.404 184.442 243.35 185.166C241.297 185.89 239.617 186.313 239.617 186.107C239.617 178.956 251.004 159.644 260.827 150.134C270.699 140.578 271.794 140.034 273.869 143.669C279.199 153.002 291.587 152.611 296.48 142.955C298.234 139.494 298.004 138.335 295.401 137.509C293.686 136.965 293.845 136.371 296.054 135.065C300.952 132.172 292.009 120.921 284.875 121C282.657 121.026 281.462 121.569 278.474 123.917ZM289.6 134.738C291.177 136.432 291.063 137.034 288.844 138.69C286.648 140.33 284.421 139.308 284.421 136.66C284.421 133.256 287.242 132.209 289.6 134.738ZM137.023 147.624C160.648 151.207 181.842 165.181 194.699 185.655L196.787 188.978L191.806 197.992C179.899 219.535 176.707 224.997 171.547 232.654C165.866 241.085 159.496 248.236 154.671 251.601C150.849 254.267 150.875 253.904 154.933 247.924C156.867 245.073 158.782 241.713 159.188 240.457C159.595 239.201 160.58 236.859 161.379 235.251C175.715 206.404 152.861 162.684 116.893 150.152C111.963 148.433 110.734 147.592 113.154 147.592C114.097 147.592 115.004 147.373 115.169 147.105C115.577 146.444 131.779 146.829 137.023 147.624ZM275.979 188.126C276.872 188.215 278.04 188.441 278.577 188.63C279.112 188.818 281.742 189.625 284.421 190.423C295.144 193.616 308.012 203.24 315.247 213.479C320.328 220.671 320.322 220.682 313.17 217.221C299.027 210.375 293.947 209.035 282.148 209.041C263.985 209.049 249.542 219.23 242.428 237.037C241.18 240.162 239.586 243.983 238.888 245.527C238.189 247.071 237.333 249.847 236.987 251.695C236.119 256.32 235.308 256.724 228.177 256.094C227.662 256.048 227.723 254.938 228.386 252.297C228.9 250.243 229.858 245.202 230.514 241.095C231.17 236.989 231.768 233.482 231.843 233.304C231.917 233.125 232.06 232.102 232.16 231.031C232.476 227.648 234.344 212.508 235.445 204.409C236.027 200.123 236.903 195.983 237.39 195.21C238.643 193.222 251.41 188.761 257.293 188.256C258.265 188.172 259.19 187.973 259.348 187.815C259.621 187.541 272.512 187.783 275.979 188.126ZM65.3034 266.051C66.5258 267.917 65.9124 269.534 63.3418 271.218C61.7274 272.276 61.6671 272.26 61.0432 270.618C59.1813 265.723 62.6505 262.004 65.3034 266.051Z" fill="#0000FF"/>
</svg>
