<svg width="400" height="400" viewBox="0 0 400 400" fill="none" xmlns="http://www.w3.org/2000/svg">
<path style="fill:#FF0000;" d="M267.93,233.514c-9.364,5.367-34.239,11.058-34.239,11.058c12.086,1.04,48.589-4.894,48.589-4.894
	c-16.564,11.549-73.705,19.637-73.705,19.637c29.808,3.688,73.078-8.421,73.078-8.421c-22.094,11.882-53.714,17.038-80.403,19.199
	v-38.559c19.138-0.124,33.43-1.635,33.43-1.635C255.458,234.461,267.93,233.514,267.93,233.514z M201.25,194.414v31.139
	c26.625,0.06,55.389-2.961,76.183-11.196c0,0,2.421-7.807-6.559-4.603c-8.983,3.203-5.297-5.922-2.335-8.569
	c2.962-2.647,8.838-10.096,2.413-8.238c-6.425,1.858-6.557-4.556-4.448-6.563c2.114-2.006,4.205-5.067-10.287,2.561
	C248.998,192.747,226.017,194.844,201.25,194.414z M201.25,130.719v57.026c18.933-0.486,40.637-3.52,63.323-11.471
	c0,0,0.713-48.275-30.918-56.663c0,0-15.076,0.316-22.198,9.944c0,0,7.879,5.867,13.932,6.819
	C225.389,136.375,213.99,136.92,201.25,130.719z M281.724,212.974c0,0,1.029,8.166-8.006,8.785c0,0,59.16,6.088,68.616,5.029
	c0,0-41.273,46.965-141.084,47.826v6.828C331.817,278.602,350,222.538,350,222.538S302.946,218.134,281.724,212.974z"/>
<path style="fill:#0000FF;" d="M198.75,281.48C69.736,283.458,50,217.816,50,217.816c12.564,3.186,68.913-1.44,68.913-1.44
	c19.411,12.443,53.622,15.166,79.837,15.167v38.745c-27.11,2.032-48.526,1.021-48.526,1.021c17.495,2.331,33.646,3.334,48.526,3.321
	V281.48z M148.301,220.934c12.795,2.603,30.958,4.415,50.449,4.6v-31.172c-24.211-0.585-49.669-3.592-63.488-9.782
	c0,0-9.7-0.182-4.86,4.648c4.842,4.831,8.13,8.21,2.053,10.922c-6.076,2.713-3.464,5.244-2.985,6.957
	c0.479,1.714-3.396,1.794-5.981,1.848C120.906,209.01,117.577,214.68,148.301,220.934z M198.75,187.794v-58.369
	c-4.673-2.582-9.436-6.112-13.809-10.95c0,0-35.426,5.91-50.443,29.493l0.647,31.012C135.145,178.981,161.19,188.326,198.75,187.794
	z"/>
</svg>
