<svg width="400" height="400" viewBox="0 0 400 400" fill="none" xmlns="http://www.w3.org/2000/svg">
<path fill-rule="evenodd" clip-rule="evenodd" d="M198.214 71.2981C196.34 72.8919 174.682 113.123 160.352 141.63C157.978 146.354 155.195 150.478 154.169 150.798C152.629 151.277 87.9065 161.536 73.5198 163.581C57.303 165.887 56.7298 164.808 94.1826 202.486L126.95 235.451L125.753 244.122C125.095 248.892 122.441 267.447 119.856 285.356C113.334 330.546 113.389 330 115.318 330C116.605 330 168.053 305.599 193.846 292.755L199.675 289.853L234.812 306.907C278.686 328.202 283.149 330.281 283.731 329.7C284.178 329.252 278.423 277.74 275.168 253.059C273.061 237.087 272.887 237.875 280.218 230.109C341.5 165.175 337.209 170.004 335.127 168.276C334.298 167.588 315.513 163.771 293.382 159.792C271.251 155.813 251.334 152.185 249.122 151.73L245.102 150.902L227.589 116.67C202.89 68.395 202.44 67.7015 198.214 71.2981ZM222.163 118.908C243.599 161.846 242.601 158.511 236.289 166.14C233.665 169.314 227.9 177.346 223.478 183.99C219.056 190.635 213.177 199.083 210.414 202.766C203.887 211.462 204.374 211.811 217.178 207.619C223.093 205.682 248.495 197.419 273.626 189.257C298.757 181.096 320.69 173.972 322.366 173.427C331.391 170.49 328.85 173.604 296.548 205.075C260.484 240.209 267.828 237.486 236.336 227.404C207.573 218.196 207.45 218.165 207.45 220.226C207.45 222.392 269.36 309.484 276.944 317.987C278.008 319.18 278.879 321.193 278.879 322.46C278.879 325.18 272.716 322.216 227.407 297.703L200.621 283.212L199.772 253.822C198.736 217.961 198.856 218.406 192.416 226.6C182.331 239.431 138.008 299.735 132.436 308.203C120.695 326.051 116.305 327.603 119.291 312.849C120.247 308.127 123.574 289.181 126.686 270.745L132.344 237.227L138.121 234.62C141.299 233.186 155.212 228.155 169.04 223.44C182.868 218.726 194.307 214.42 194.461 213.872C194.616 213.324 179.049 207.701 159.866 201.374C98.6738 181.191 75.0952 172.605 75.0952 170.507C75.0952 168.672 79.8483 167.915 141.737 159.888C161.306 157.35 157.363 154.505 184.317 190.601C194.531 204.28 197.578 207.733 198.126 206.253C198.512 205.207 199.128 179.09 199.493 148.215C200.176 90.643 200.573 81.0491 202.28 81.0491C202.821 81.0491 211.768 98.0855 222.163 118.908Z" fill="#0000FF"/>
</svg>
