<svg width="400" height="400" viewBox="0 0 400 400" fill="none" xmlns="http://www.w3.org/2000/svg">
<path style="fill:#0000FF;" d="M198.75,326.05c-0.263-0.106-0.526-0.216-0.792-0.352c-3.832-1.964-7.678-3.901-11.553-5.777
	c-1.647-0.798-3.385-1.409-5.077-2.118c-2.712-1.136-5.432-2.256-8.127-3.432c-5.197-2.269-10.418-4.498-15.409-7.205
	c-3.071-1.665-6.12-3.376-9.129-5.152c-2.872-1.696-5.805-3.249-8.916-4.459c-1.839-0.715-3.533-1.658-5.134-2.833
	c-2.258-1.658-4.884-2.639-7.529-3.462c-3.699-1.15-7.006-3.12-10.464-4.773c-1.328-0.634-2.292-1.741-3.131-2.958
	c-0.845-1.226-1.745-2.415-2.655-3.596c-0.705-0.915-0.761-1.123-0.257-2.557c2.079-0.145,4.267-0.297,6.43-0.443
	c0.227-0.533,0.372-0.873,0.525-1.233c0.102-0.033,0.218-0.081,0.34-0.11c2.656-0.657,5.053,0.212,7.393,1.3
	c3.944,1.834,7.894,3.657,11.789,5.591c2.505,1.245,5.046,2.245,7.846,2.598c4.891,0.616,9.427,2.379,13.719,4.711
	c3.197,1.737,6.478,3.243,9.865,4.549c4.698,1.811,9.285,3.865,13.746,6.217c4.962,2.617,10.158,4.649,15.722,5.606
	c0.263,0.045,0.53,0.063,0.797,0.083v-8.303c-0.596,0.005-1.195,0.016-1.789,0.01c-2.07-0.022-4.071-0.474-5.976-1.276
	c-5.27-2.217-10.509-4.507-15.799-6.677c-4.59-1.883-9.039-4.042-13.28-6.608c-2.554-1.546-5.01-3.251-7.513-4.88
	c-0.206-0.134-0.433-0.237-0.69-0.377c-0.711,0.704-0.451,1.331,0.021,1.94c0.476,0.615,0.975,1.214,1.336,1.962
	c-9.75-3.92-18.669-9.354-28-14.117c0.124-0.523,0.21-0.934,0.321-1.338c1.189-4.32,3.089-8.299,5.634-11.991
	c1.965-2.85,3.627-5.857,4.278-9.327c0.125-0.664,0.383-1.315,0.664-1.933c1.59-3.493,3.381-6.907,4.775-10.476
	c2.481-6.352,6.102-12.106,9.169-18.148c1.468-2.89,3.144-5.685,4.432-8.651c1.369-3.152,3.251-5.994,4.872-8.99
	c1.824-3.374,3.612-6.768,5.415-10.153c0.06-0.113,0.104-0.237,0.181-0.338c2.846-3.74,4.166-8.181,5.738-12.506
	c0.029-0.08,0.043-0.169,0.083-0.242c1.992-3.676,3.299-7.651,4.983-11.462c0.319-0.722,0.435-1.547,0.563-2.338
	c0.614-3.782,1.341-7.553,1.753-11.358c0.347-3.208,0.318-6.456,0.448-9.53c-3.461-2.805-5.574-6.295-7.451-9.953
	c-1.152-2.245-1.721-4.608-1.378-7.161c0.127-0.948,0.733-1.297,1.499-1.513c1.957-0.553,3.033-2.023,4.027-3.63
	c-1.71,0.679-3.361,1.327-5.004,1.989c-1.134,0.457-2.074,0.238-2.853-0.719c-0.266-0.324-0.591-0.6-0.872-0.88
	c0.514-1.554,1.538-2.206,2.975-1.906c1.042,0.219,2.071,0.492,3.114,0.704c1.553,0.317,2.905-0.25,4.001-1.246
	c1.543-1.403,3.173-2.552,5.244-3.038c1.021-0.239,1.798-0.916,2.427-1.781c0.342-0.47,0.774-0.921,1.261-1.229
	c2.198-1.391,4.459-2.685,6.642-4.099c1.535-0.994,3.001-2.101,4.464-3.202c0.095-0.072,0.189-0.146,0.284-0.218V81.357
	c-0.091-0.101-0.185-0.199-0.273-0.307c-1.022-1.259-2.074-2.495-3.07-3.775c-1.648-2.117-3.685-3.699-6.288-4.401
	c-2.88-0.776-5.774-1.529-8.698-2.109c-4.208-0.834-8.485-0.895-12.752-0.619c-3.703,0.24-7.423,0.444-11.085,1.002
	c-6.687,1.018-12.837,3.787-18.958,6.483c-4.838,2.13-9.433,4.783-13.842,7.732c-7.938,5.311-15.025,11.527-20.61,19.342
	c-5.172,7.239-9.035,15.054-10.518,23.919c-0.395,2.355-0.893,4.693-1.26,7.052c-0.169,1.088-0.273,2.222-0.162,3.309
	c0.27,2.626,0.779,5.228,1.013,7.856c0.249,2.805,1.319,5.352,2.291,7.918c0.934,2.467,2.211,4.802,3.24,7.235
	c2.105,4.976,5.202,9.277,8.838,13.221c0.287,0.312,0.6,0.627,0.962,0.839c2.758,1.614,5.392,3.437,8.377,4.663
	c4.682,1.923,9.696,2.655,14.488,4.174c0.719,0.228,1.403,0.086,2.096-0.266c0.599-0.305,1.274-0.516,1.939-0.615
	c1.348-0.2,2.71-0.404,4.068-0.416c4.061-0.036,7.264-1.946,10.146-4.541c0.974-0.877,1.759-1.96,2.679-2.901
	c1.85-1.891,3.729-3.75,5.602-5.617c0.663-0.661,1.479-1.213,1.984-1.975c1.647-2.486,3.276-4.985,4.449-7.756
	c0.675-1.593,1.11-3.216,1.295-4.925c0.192-1.78,0.236-3.602,0.674-5.323c0.81-3.185-0.137-5.781-2.173-8.153
	c-0.945-1.1-1.819-2.263-2.795-3.334c-0.534-0.588-1.139-1.224-1.845-1.52c-1.33-0.556-2.738-0.967-4.149-1.275
	c-1.34-0.292-2.734-0.284-4.038,0.245c-2.091,0.848-4.177,1.715-6.228,2.657c-1.503,0.691-2.946,1.515-4.564,2.357
	c-0.336,2.203-0.755,4.377-0.963,6.571c-0.094,0.987,0.113,2.057,1.082,2.733c1.55,1.083,3.167,1.988,5.159,1.998
	c0.651-0.403,0.93-1.034,1.065-1.784c0.226-1.257-0.122-2.346-0.796-3.396c-0.54-0.838-1.093-1.699-1.013-2.913
	c1.288,0.279,2.481,0.536,3.828,0.826c0.3,1.463,0.548,2.928,0.91,4.365c0.44,1.742,0.239,3.383-0.527,4.98
	c-0.349,0.731-0.69,1.468-1.076,2.18c-0.697,1.286-1.416,2.564-3.092,2.769c-0.119,0.015-0.23,0.107-0.344,0.164
	c-2.558,1.294-5.232,2.28-8.027,2.898c-0.584,0.13-1.336,0.102-1.851-0.163c-2.641-1.36-5.092-2.987-6.601-5.673
	c-0.71-1.263-1.322-2.582-2.054-3.83c-1.043-1.779-1.512-3.69-1.574-5.734c-0.039-1.28-0.153-2.556-0.223-3.834
	c-0.025-0.467-0.048-0.938-0.017-1.402c0.117-1.787,0.208-3.577,0.405-5.356c0.192-1.731,0.275-3.525,0.813-5.157
	c0.825-2.503,1.964-4.908,3.035-7.324c1.671-3.77,5.022-6.056,7.885-8.767c0.239-0.226,0.582-0.352,0.889-0.5
	c3.008-1.447,6.085-2.38,9.513-1.865c1.147,0.172,1.965,0.501,2.693,1.396c1.891,2.322,4.191,4.115,7.048,5.145
	c0.464,0.168,0.875,0.514,1.273,0.824c2.065,1.607,4.363,2.464,7.011,2.267c0.373-0.027,0.751,0.005,1.02,0.009
	c3.434,5.4,6.794,10.684,10.393,16.341c-0.109,2.272-0.033,4.98-0.412,7.622c-0.667,4.641-1.599,9.243-2.449,13.856
	c-0.216,1.171-0.42,2.37-0.848,3.471c-0.864,2.225-1.837,4.41-2.839,6.577c-2.542,5.5-5.113,10.986-7.7,16.465
	c-0.49,1.037-1.11,2.013-1.661,3.022c-0.816,1.498-1.676,2.975-2.424,4.506c-1.574,3.217-3.021,6.499-4.655,9.685
	c-0.853,1.662-1.856,3.285-3.027,4.735c-3.358,4.16-5.56,8.98-7.966,13.677c-1.406,2.745-2.172,5.754-2.688,8.79
	c-0.539,3.174-1.767,6.028-3.442,8.753c-1.001,1.627-1.921,3.336-2.618,5.11c-0.559,1.425-1.315,2.65-2.269,3.816
	c-0.752,0.918-1.479,1.884-2.046,2.922c-1.74,3.179-3.442,6.38-5.065,9.619c-0.625,1.249-1.013,2.618-1.477,3.943
	c-0.488,1.398-0.938,2.809-1.412,4.239c-0.586-0.014-1.008-0.039-1.428-0.03c-1.619,0.034-3.257-0.061-4.854,0.151
	c-2.765,0.366-4.78,1.812-5.472,4.65c-0.291,1.192-0.432,2.432-0.516,3.659c-0.079,1.168,0.213,2.246,0.982,3.222
	c1.052,1.334,2.075,2.711,2.929,4.176c1.033,1.772,2.395,3.091,4.293,3.848c3.446,1.374,6.878,2.791,10.358,4.077
	c1.501,0.555,2.905,1.217,4.173,2.181c0.815,0.62,1.637,1.23,2.45,1.855c1.367,1.049,2.891,1.769,4.503,2.383
	c1.706,0.649,3.403,1.384,4.983,2.291c2.663,1.529,5.216,3.246,7.843,4.841c1.931,1.174,3.835,2.426,5.875,3.379
	c4.676,2.184,9.444,4.17,14.142,6.309c2.767,1.26,5.571,2.363,8.554,3.005c0.994,0.214,1.949,0.618,2.92,0.94
	c3.548,1.175,6.747,3.079,10.01,4.841c1.8,0.972,3.518,2.092,5.301,3.096c0.405,0.228,0.826,0.427,1.255,0.591V326.05z
	 M151.686,169.842c-0.231-0.57-0.425-1.048-0.619-1.525c0.087-0.069,0.176-0.137,0.263-0.207c0.639,0.296,1.417,0.394,1.753,1.427
	C152.615,169.64,152.207,169.729,151.686,169.842z M152.498,138.902c0.933,0.086,1.891,0.082,2.789,0.307
	c0.761,0.19,1.475,0.613,2.174,0.997c1.458,0.801,2.581,1.935,3.296,3.46c0.343,0.733,0.735,1.443,1.114,2.16
	c0.783,1.484,1.043,3.018,0.734,4.699c-0.207,1.122-0.202,2.29-0.215,3.438c-0.045,4-1.061,7.76-2.857,11.302
	c-0.962,1.895-2.523,3.312-4.223,4.553c-0.259,0.188-0.662,0.18-0.963,0.253c-0.464-0.842,0.08-1.17,0.449-1.551
	c0.887-0.913,1.912-1.723,2.651-2.742c1.948-2.685,2.875-5.789,3.14-9.059c0.203-2.502,0.203-5.02,0.274-7.532
	c0.011-0.42-0.01-0.864-0.13-1.264c-0.898-2.985-2.687-5.294-5.371-6.886c-0.316-0.188-0.721-0.239-1.092-0.315
	c-0.5-0.102-1.035-0.092-1.504-0.266c-0.965-0.357-1.903-0.407-2.873-0.066c-0.187,0.065-0.409,0.036-0.65,0.053
	C149.872,139.652,151.644,138.823,152.498,138.902z M160.639,107.056c-0.359,0.998-0.803,1.966-1.247,3.041
	c-3.661-0.34-7.213-0.905-10.714-2.065c-2.048-8.591-2.871-17.326-3.889-26.159c-0.334,0.106-0.65,0.165-0.931,0.299
	c-4.731,2.258-9.485,4.47-14.169,6.821c-1.7,0.854-3.222,2.061-4.844,3.076c-1.313,0.819-1.416,2.004-1.139,3.354
	c0.144,0.706,0.312,1.425,0.317,2.139c0.023,3.238,0.589,6.355,1.924,9.319c0.048,0.108,0.046,0.239,0.101,0.561
	c-1.51-1.124-2.517-2.42-3.242-3.969c-0.432-0.923-0.926-1.816-1.405-2.716c-0.071-0.132-0.217-0.225-0.497-0.505
	c-0.648,2.52-0.102,4.872-0.079,7.419c-1.039-1.028-1.049-2.502-2.318-3.385c-0.08,0.953-0.23,1.743-0.194,2.523
	c0.047,1.018,0.232,2.031,0.38,3.043c0.049,0.334,0.079,0.722,0.266,0.976c1.426,1.934,1.366,4.523,2.856,6.423
	c0.075,0.095,0.114,0.23,0.137,0.352c0.014,0.073-0.037,0.157-0.096,0.365c-0.254-0.111-0.553-0.155-0.721-0.328
	c-0.861-0.884-1.806-1.721-2.503-2.725c-1.381-1.989-2.937-3.877-3.879-6.147c-0.073-0.175-0.213-0.321-0.487-0.723
	c-0.014,2.13,0.181,3.95,0.768,5.662c0.571,1.665,1.419,3.235,2.23,5.037c-1.422-0.353-2.488-0.977-3.131-1.947
	c-1.412-2.135-3.177-3.87-5.235-5.346c-0.205-0.147-0.363-0.358-0.547-0.535c-0.026-0.026-0.075-0.031-0.251-0.099
	c-1.576,2.254-3.636,4.227-4.643,6.905c-1.078,2.868-2.586,5.576-3.205,8.62c-0.096,0.478-0.371,0.987-0.713,1.334
	c-0.898,0.911-0.972,2.009-1.011,3.301c1.571-0.826,2.613-0.225,3.503,0.959c1.199,1.595,3.059,2.272,4.675,3.285
	c0.824,0.516,1.685,0.976,2.557,1.348c0.921,0.342,1.843,0.682,2.713,1.005c0.045,0.644,0.077,1.099,0.113,1.626
	c-0.949,0.161-1.58-0.514-2.327-0.823c-0.743-0.308-1.462-0.67-2.267-0.909c1.008,1.968,3.047,2.888,4.666,4.515
	c-1.701-0.088-3.047-1.165-4.552-0.808c-0.397,1.152-0.364,1.334,0.521,1.915c1.495,0.982,3.015,1.924,4.52,2.89
	c0.231,0.148,0.44,0.329,0.771,0.579c-1.805,0.844-3.467,0.021-5.156,0.017c-0.387,0.976,0.294,1.291,0.923,1.475
	c1.754,0.515,3.531,0.951,5.301,1.409c0.353,0.091,0.716,0.141,1.064,0.344c-1.505,0.61-3.002,0.327-4.544-0.073
	c-0.403,0.306-0.791,0.603-1.172,0.893c0.402,1.152,1.294,1.415,2.289,1.539c0.003,0.107,0.005,0.214,0.008,0.32
	c-0.618,0.299-1.245,0.579-1.85,0.902c-0.518,0.276-1.02,0.585-1.51,0.907c-1.671,1.099-3.27,2.335-5.499,1.36
	c-0.49-0.215-1.195,0.059-1.838,0.111c0.026,0.374-0.008,0.557,0.056,0.694c1.393,2.988,2.97,5.857,5.37,8.184
	c0.367,0.356,0.75,0.702,1.163,1.001c1.253,0.906,2.4,1.904,3.263,3.214c0.297,0.449,0.746,0.799,1.22,1.293
	c2.862-2.016,5.671-3.993,8.479-5.969c0.056,0.041,0.113,0.083,0.169,0.124c-1.18,1.543-2.362,3.086-3.5,4.573
	c0.551,0.977,0.85,1.139,1.66,0.782c0.661-0.289,1.268-0.7,1.894-1.064c0.436-0.254,0.865-0.522,1.5-0.65
	c-0.363,0.822-0.728,1.642-1.074,2.423c0.55,0.867,1.114,0.678,1.673,0.232c0.867-0.693,1.712-1.412,2.572-2.113
	c0.35-0.286,0.716-0.552,1.164-0.896c0.934,1.759-0.721,2.636-1.075,3.802c0.778,0.959,1.487,0.997,2.264,0.215
	c0.626-0.63,1.27-1.242,1.882-1.841c1.347,0.462,1.681,0.914,1.495,2.151c-0.209,1.391-0.496,2.771-0.727,4.159
	c-0.083,0.498-0.1,1.008-0.152,1.576c1.857,0.413,3.498-1.611,5.343-0.239c1.38-0.379,2.77-0.758,4.257-1.166
	c0.53-2.638,1.527-5.107,1.387-7.909c0.827-1.223,2.521-0.935,3.609-1.816c1.081-0.875,2.222-1.676,3.553-2.67
	c0.458,1.115,0.818,1.995,1.188,2.896c-0.321,0.328-0.579,0.595-0.949,0.975c0.266,1.123,0.543,2.296,0.879,3.716
	c-1.099-1.198-0.987-2.85-2.405-3.672c-1.073,1.405,0.596,2.768-0.165,4.061c-0.861-0.639-0.575-2.192-1.909-2.48
	c-0.556,0.542-0.288,1.072-0.043,1.55c0.716,1.392,0.947,2.897,1.105,4.422c0.022,0.204,0.005,0.413,0.006,0.619
	c-0.076,0.007-0.15,0.016-0.225,0.024c-0.237-0.347-0.474-0.694-0.645-0.942c-1.161,0.081-2.236,0.156-3.541,0.247
	c-0.197,0.518-0.48,1.258-0.788,2.067c-2.49,2.074-5.46,2.915-8.711,2.942c-0.34,0.002-0.696-0.05-1.018,0.031
	c-2.191,0.554-4.211,0.142-6.159-0.943c-0.615-0.341-1.327-0.571-2.024-0.693c-4.726-0.827-8.945-2.744-12.657-5.775
	c-0.915-0.748-1.797-1.535-2.678-2.29c0.145-0.534,0.244-0.896,0.365-1.342c-0.197-0.146-0.404-0.386-0.662-0.475
	c-1.661-0.574-3.044-1.55-4.149-2.892c-1.493-1.813-2.798-3.741-3.521-6.019c-0.839-2.642-1.77-5.254-2.599-7.899
	c-0.87-2.778-1.392-5.633-1.568-8.539c-0.201-3.321-0.43-6.645-0.469-9.97c-0.018-1.599,0.331-3.209,0.59-4.801
	c0.135-0.836,0.659-1.486,1.442-1.851c0.696-0.324,0.947-0.876,1.117-1.59c0.652-2.734,1.281-5.48,2.088-8.17
	c0.41-1.37,1.043-2.719,1.812-3.926c3.092-4.858,6.329-9.624,9.409-14.488c1.98-3.128,4.469-5.673,7.959-6.921
	c1.826-0.653,3.221-1.728,4.703-2.867c1.676-1.288,3.547-2.354,5.424-3.344c4.938-2.605,9.926-5.116,14.896-7.663
	c3.47-1.778,6.991-3.348,11-3.474c1.651-0.052,3.218,0.24,4.798,0.607c1.278,0.295,2.563,0.563,4.164,0.914
	c0.476,0.345,0.648,1.05,0.389,1.932c-0.249,0.85-0.43,1.72-0.682,2.745c0.54,0.104,0.973,0.187,1.519,0.291
	c0.727-1.018,1.432-2.006,2.184-3.063c0.542,0.585,0.253,1.04,0.048,1.487c-0.522,1.133-1.05,2.265-1.422,3.529
	c1.633-0.641,2.751-1.93,4.086-2.904c1.362-0.993,2.62-2.128,4.042-3.12c-0.921,1.884-1.842,3.767-2.814,5.755
	c0.245,0.035,0.432,0.126,0.531,0.068c1.423-0.824,3.062-1.249,4.296-2.43c1.16-1.109,2.393-2.143,3.766-3.085
	c-0.173,1.297-0.647,2.405-1.427,3.405c-1.156,1.479-2.429,2.897-3.367,4.506c-1.053,1.807-2.275,3.372-4.015,4.529
	c-0.211,0.14-0.388,0.334-0.572,0.511c-1.025,0.978-1.658,2.075-0.981,3.649c-0.29,0.412-0.56,0.895-0.925,1.288
	c-0.551,0.592-1.138,1.158-1.764,1.671C164.441,99.44,162.117,102.949,160.639,107.056z
	 M191.848,186.737c-3.431-0.38-6.855-0.884-10.297-1.098c-2.361-0.147-4.746,0.108-7.152,0.418
	c1.416,0.942,2.832,1.885,4.359,2.901c-1.79,1.452-4.026,0.634-5.863,1.601c0.345,0.327,0.665,0.632,0.973,0.924
	c0.926,0.203,1.822,0.399,2.716,0.595c0.02,0.112,0.038,0.224,0.058,0.336c-0.386,0.175-0.757,0.441-1.16,0.507
	c-1.892,0.308-3.793,0.567-5.692,0.831c-0.58,0.081-1.194,0.054-1.724,0.773c0.412,0.163,0.724,0.355,1.056,0.404
	c1.349,0.195,2.706,0.338,4.058,0.519c0.484,0.065,0.961,0.184,1.387,0.266c0.176,0.784-0.24,1.021-0.71,1.142
	c-0.616,0.16-1.247,0.298-1.88,0.352c-1.785,0.155-3.575,0.258-5.362,0.392c-0.498,0.038-1.056-0.007-1.302,0.808
	c0.451,0.168,0.893,0.394,1.363,0.494c1,0.213,2.015,0.35,3.02,0.541c0.438,0.083,0.865,0.224,1.288,0.337
	c0.016,1.108-0.743,1.221-1.385,1.309c-1.393,0.192-2.801,0.286-4.202,0.425c-0.838,0.084-1.673,0.179-2.703,0.289
	c0.702,0.913,1.389,1.333,2.335,1.403c0.891,0.066,1.777,0.219,2.66,0.369c0.259,0.044,0.495,0.213,0.742,0.324
	c0.017,0.101,0.033,0.201,0.05,0.302c-0.508,0.234-0.995,0.557-1.529,0.688c-1.862,0.454-3.743,0.832-5.612,1.257
	c-0.685,0.156-1.359,0.36-2.038,0.542c0.002,0.102,0.003,0.202,0.005,0.304c0.232,0.121,0.455,0.314,0.7,0.348
	c0.928,0.129,1.862,0.274,2.797,0.29c2.903,0.05,5.784,0.172,8.618,0.948c0.954,0.26,2.053,0.242,3.041,0.083
	c4.048-0.654,7.992-0.234,11.895,0.887c0.246,0.071,0.502,0.112,0.741,0.201c2.206,0.83,4.465,0.984,6.802,0.725
	c1.617-0.179,3.232-0.202,4.852-0.098v-23.63C196.466,186.988,194.169,186.994,191.848,186.737z
	 M189.554,132.559c-1.451,0.415-2.81,1.149-4.176,1.88c2.862,1.151,5.858,0.793,8.779,1.005
	c0.011,0.119,0.023,0.238,0.034,0.357c-0.631,0.203-1.251,0.459-1.896,0.599c-1.499,0.326-3.01,0.597-4.516,0.888
	c-0.843,0.164-0.843,0.161-1.247,1.043c0.168,0.765,0.798,0.78,1.396,0.821c1.188,0.081,2.379,0.145,3.622,0.455
	c-1.805,0.407-3.609,0.814-5.555,1.254c0.15,0.615,0.251,1.03,0.39,1.605c2.02-0.025,3.94-0.05,5.86-0.074
	c0.022,0.119,0.045,0.238,0.068,0.357c-0.536,0.17-1.065,0.366-1.609,0.503c-1.488,0.372-2.976,0.755-4.477,1.063
	c-0.837,0.172-1.287,0.587-1.334,1.548c2.32,0.665,4.768,0.14,7.117,0.509c0.009,0.107,0.017,0.215,0.026,0.323
	c-0.684,0.145-1.373,0.266-2.048,0.441c-1.604,0.417-3.201,0.865-4.804,1.293c-0.588,0.158-0.979,0.483-1.095,1.303
	c0.492,0.059,0.971,0.194,1.437,0.157c1.487-0.116,2.969-0.3,4.454-0.45c0.442-0.045,0.886-0.064,1.329-0.095
	c0.017,0.078,0.034,0.157,0.052,0.235c-0.292,0.125-0.579,0.269-0.875,0.373c-2.21,0.78-4.431,1.529-6.627,2.344
	c-0.516,0.191-0.949,0.602-1.372,1.059c1.33,0.786,2.689,0.399,4.002,0.378c1.3-0.021,2.599-0.166,3.899-0.257
	c0.044,0.103,0.087,0.207,0.131,0.31c-0.307,0.198-0.589,0.49-0.925,0.579c-1.809,0.486-3.627,0.951-5.454,1.365
	c-1.044,0.237-1.504,0.454-2.284,1.428c0.32,0.07,0.578,0.167,0.839,0.176c4.352,0.138,8.698,0.02,13.025-0.474
	c1.012-0.116,2.023-0.247,3.034-0.371v-26.521C195.683,130.826,192.616,131.684,189.554,132.559z
	 M189.314,238.141c-3.734-0.148-7.348-1.011-11.014-1.565c-3.288-0.497-6.579-0.97-9.865-1.47
	c-2.698-0.41-5.395-0.828-8.086-1.278c-1.262-0.211-2.484-0.311-3.791-0.184c-1.634,0.159-3.316-0.083-4.968-0.246
	c-1.483-0.147-2.954-0.426-4.431-0.64c-0.241-0.035-0.488-0.032-0.988-0.063c1.118,2.34,3.082,3.51,5.01,4.831
	c-0.685,0.855-1.599,1.153-2.54,1.37c-1.081,0.25-2.169,0.465-3.26,0.67c-0.53,0.1-0.868,0.328-0.833,1.017
	c1.502,0.755,3.226,0.781,4.898,1.257c-0.999,0.824-2.231,1.105-3.384,1.514c-1.197,0.424-2.444,0.706-3.705,1.255
	c2.138,0.416,4.275,0.833,6.413,1.249c0.01,0.092,0.019,0.184,0.029,0.276c-2.354,0.967-4.81,1.61-7.473,2.108
	c1.253,0.769,2.855,0.498,3.886,1.77c-1.149,0.791-2.361,0.897-3.441,1.328c-1.054,0.42-2.073,0.931-3.089,1.545
	c1.505,0.596,3.183,0.004,4.643,1.033c-2.122,0.482-4.245,0.965-6.368,1.446c-0.04-0.096-0.079-0.191-0.118-0.287
	c-0.316,0.307-0.632,0.613-1.057,1.026c0.447,0.249,0.712,0.467,1.016,0.556c1.717,0.507,3.445,0.977,5.165,1.472
	c1.594,0.457,3.239,0.793,4.76,1.426c2.869,1.193,5.772,2.048,8.914,2.048c5.104-0.001,9.95,1.428,14.761,2.91
	c4.212,1.297,8.507,2.159,12.828,2.974c4.188,0.789,8.327,1.833,12.493,2.74c1.008,0.22,2.019,0.435,3.032,0.637v-31.621
	c-0.941-0.122-1.883-0.252-2.828-0.36C193.719,238.634,191.523,238.229,189.314,238.141z"/>
<path style="fill:#FF0000;" d="M308.492,269.93c-0.657-1.802-1.395-3.574-2.093-5.361c-2.008-5.15-6.444-6.777-11.553-7.959
	c-0.272-1.241-0.547-2.614-0.882-3.975c-0.494-2.03-1.009-4.047-0.987-6.166c0.029-2.799-0.9-5.326-2.171-7.8
	c-1.948-3.792-3.959-7.577-5.527-11.53c-1.631-4.117-3.742-7.938-6.001-11.705c-1.074-1.79-2.348-3.478-3.247-5.35
	c-1.734-3.611-3.331-7.29-4.857-10.993c-1.07-2.597-1.902-5.291-2.891-7.924c-0.478-1.276-1.215-2.467-1.584-3.768
	c-0.799-2.816-2.165-5.375-3.361-8.012c-1.691-3.727-3.383-7.453-5.071-11.18c-0.245-0.542-0.535-1.074-0.695-1.642
	c-0.632-2.256-1.196-4.532-1.831-6.788c-1.351-4.801-2.729-9.593-4.106-14.387c-0.093-0.323-0.271-0.623-0.418-0.93
	c-0.312-0.652-0.673-1.284-0.941-1.953c-2.424-6.058-4.837-12.12-7.239-18.187c-0.249-0.63-0.396-1.301-0.607-1.948
	c-0.394-1.207-0.65-2.489-1.238-3.594c-0.98-1.838-2.137-3.588-3.292-5.327c-1.431-2.156-2.937-4.261-4.411-6.389
	c-0.966-1.397-1.792-2.923-2.925-4.169c-2.921-3.216-5.884-6.408-9.012-9.421c-2.39-2.302-5.018-4.365-7.623-6.43
	c-0.808-0.641-1.841-1.096-2.844-1.372c-2.669-0.736-5.368-1.38-8.076-1.956c-0.625-0.133-1.21-0.32-1.76-0.561v16.188
	c1.071-0.829,2.149-1.666,3.25-2.516c1.267,0.547,2.419,1.045,3.752,1.62c-1.32,1.839-3.118,2.907-4.549,4.561
	c0.46,0.168,0.785,0.288,1.101,0.403c2.224-1.136,4.384-2.24,6.658-3.401c0.357,0.195,0.788,0.429,1.4,0.762
	c-0.608,0.52-1.039,0.987-1.558,1.315c-1.513,0.957-3.063,1.855-4.592,2.788c-0.412,0.251-0.802,0.541-1.353,0.916
	c1.532,0.674,2.822,0.378,4.067-0.017c2.192-0.696,4.353-1.489,6.532-2.226c0.404-0.137,0.831-0.206,1.248-0.305
	c0.063,0.109,0.128,0.219,0.191,0.328c-0.308,0.299-0.587,0.636-0.928,0.89c-2.106,1.571-4.484,2.625-6.902,3.605
	c-0.524,0.212-1.014,0.506-1.519,0.763c0.025,0.122,0.049,0.246,0.074,0.368c0.382,0.029,0.766,0.099,1.146,0.083
	c3.329-0.133,6.448-1.118,9.495-2.384c0.434-0.18,0.85-0.416,1.297-0.54c0.214-0.059,0.484,0.083,0.729,0.134
	c0.022,0.098,0.045,0.196,0.068,0.294c-0.358,0.264-0.686,0.588-1.079,0.779c-2.454,1.192-4.926,2.346-7.384,3.532
	c-0.418,0.203-0.793,0.496-1.187,0.749c0.026,0.12,0.05,0.242,0.076,0.362c0.379,0.074,0.759,0.222,1.135,0.211
	c2.667-0.077,5.249-0.526,7.667-1.745c0.964-0.486,1.995-0.839,3.013-1.26c0.402,0.829-0.115,1.042-0.498,1.219
	c-1.894,0.873-3.805,1.705-5.707,2.56c-0.556,0.25-1.1,0.528-1.641,0.79c0.314,0.916,0.854,0.711,1.342,0.652
	c2.443-0.299,4.886-0.598,7.538-0.923c0.098,0.236,0.282,0.682,0.475,1.152c-1.128,1.137-3.017,0.939-3.93,2.5
	c1.355,1.15,2.735,0.063,4.166,0.196c0.364,2.079-1.791,1.882-2.614,2.919c0.711,0.864,1.709-0.012,2.846,0.612
	c-0.287,0.114-0.488,0.176-0.672,0.271c-3.729,1.9-7.544,3.577-11.589,4.699c-3.854,1.069-7.708,2.135-11.561,3.208v26.919
	c2.218-0.284,4.434-0.577,6.649-0.875c0.711-0.096,1.392-0.392,2.092-0.574c1.313-0.34,2.616-0.752,3.95-0.977
	c4.201-0.712,8.41-1.381,12.626-2.004c1.431-0.211,2.889-0.242,4.336-0.346c2.337-0.167,4.674-0.327,7.237-0.505
	c1.318,1.498,1.226,3.817,2.412,5.506c-0.598,1.549-1.365,2.82-2.423,3.895c-1.108,1.125-2.194,2.294-3.43,3.262
	c-1.094,0.857-2.379,1.472-3.586,2.181c-0.457,0.268-1.063,0.381-1.077,1.347c1.968-0.601,3.825-1.244,5.721-1.721
	c1.841-0.464,3.544-1.464,5.426-1.767c0.075,0.155,0.149,0.311,0.223,0.466c-0.313,0.296-0.585,0.662-0.947,0.874
	c-1.282,0.754-2.555,1.544-3.906,2.156c-1.805,0.817-3.6,1.708-5.635,1.886c-0.353,0.031-0.682,0.34-1.021,0.521
	c0.005,0.124,0.012,0.249,0.017,0.373c0.444,0.146,0.878,0.346,1.334,0.428c2.298,0.417,4.602,0.8,6.901,1.207
	c0.156,0.028,0.295,0.156,0.626,0.342c-0.329,0.666-0.651,1.318-1.048,2.121c-2.656,0.021-5.255,0.042-8.049,0.064
	c1.403,2.104,3.274,2.835,5.509,2.823c-0.666,2.85-1.893,4.098-4.536,4.341c-3.546,0.325-6.983,1.121-10.413,2.024
	c-1.562,0.411-3.185,0.586-4.776,0.895c-1.128,0.219-2.239,0.527-3.371,0.715c-1.04,0.173-2.098,0.229-3.146,0.351
	c-1.772,0.207-3.59,0.242-5.305,0.68c-0.796,0.204-1.593,0.372-2.391,0.518v24.243c1.514,0.214,3.101,0.117,4.635-0.04
	c2.966-0.304,5.932-0.675,8.872-1.172c2.308-0.391,4.578-1.014,6.913-1.544c1.582-1.462,3.026-2.223,4.232-2.112
	c-0.001,4.835,0.603,9.621,1.618,14.345c0.167-0.015,0.334-0.029,0.501-0.043c-0.017-0.766,0.02-1.54-0.061-2.299
	c-0.349-3.301,0.388-6.459,1.424-9.525c0.692-2.05,1.737-3.986,2.708-5.93c0.269-0.538,0.769-1.044,1.289-1.355
	c1.276-0.766,2.593-1.484,3.959-2.069c0.573-0.245,1.321-0.196,1.974-0.125c2.328,0.253,4.641,0.69,6.973,0.816
	c1.154,0.062,2.345-0.363,3.502-0.637c1.864-0.44,3.715-0.939,5.603-1.42c0.893,0.658,1.761,1.301,2.699,1.992
	c-0.781,1.091-2.453,0.836-3.211,1.966c1.545,1.367,3.169,1.099,4.944,0.347c-0.303,1.556-0.744,2.699-2.097,3.342
	c-1.153,0.548-2.248,1.222-3.363,1.852c-0.356,0.201-0.693,0.438-1.211,0.767c2.208,0.674,4.05-0.557,5.92-0.41
	c0.569,0.31,1.073,0.586,1.825,0.997c0.159,0.402,0.417,1.056,0.727,1.842c-0.925,0.503-1.735,0.953-2.553,1.386
	c-0.451,0.24-0.966,0.392-1.359,0.702c-0.253,0.2-0.335,0.614-0.554,1.052c1.83,0.258,3.376-0.978,5.096-0.069
	c-0.257,0.664-0.495,1.284-0.695,1.801c-1.192,0.942-2.292,1.809-3.429,2.706c0.13,0.431,0.233,0.774,0.352,1.172
	c1.048-0.216,2.032-0.419,3.016-0.622c0.055,0.078,0.109,0.154,0.164,0.232c-0.758,1.286-1.214,2.833-3.006,3.232
	c-2.495,0.556-5.006,1.051-7.484,1.677c-1.012,0.256-1.962,0.771-2.928,1.198c-1.32,0.584-2.618,1.217-3.943,1.789
	c-0.859,0.371-1.747,0.675-2.625,1.002c-1.159,0.431-2.302,0.919-3.486,1.264c-1.751,0.509-3.314,1.3-4.702,2.499
	c-0.858,0.743-1.842,1.342-2.92,2.113c-0.704-1.23-1.13-2.39-1.237-3.661c-0.061-0.721-0.027-1.453-0.107-2.172
	c-0.054-0.482-0.232-0.949-0.355-1.422c-0.101,0.002-0.202,0.003-0.303,0.005c-0.209,1.06-0.487,2.113-0.606,3.183
	c-0.096,0.852-0.444,1.403-1.19,1.816c-2.717,1.505-5.365,3.141-8.127,4.552c-3.478,1.776-7.253,2.661-11.046,3.56
	c-2.151,0.51-4.255,0.497-6.348,0.312v31.788c3.707,0.537,7.197-0.269,10.519-1.925c0.878-0.437,1.763-0.875,2.587-1.404
	c3.973-2.552,8.292-4.389,12.66-6.11c2.918-1.149,5.661-2.583,8.203-4.415c1.091-0.786,2.271-1.345,3.747-1.32
	c0.609,0.441,1.216,1.004,1.926,1.364c0.857,0.434,1.779,0.879,2.712,0.986c1.169,0.135,2.127,0.505,2.98,1.286
	c0.47,0.43,0.982,0.824,1.519,1.168c0.365,0.234,0.805,0.35,1.271,0.412c-1.109-2.216-2.334-4.266-4.993-5.149
	c0.482-0.594,0.748-0.965,1.056-1.296c1.556-1.669,3.402-2.963,5.32-4.177c2.178-1.377,4.492-2.343,6.992-3.026
	c2.165-0.592,4.213-1.619,6.302-2.479c0.987-0.406,1.942-0.881,2.921-1.307c1.388-0.603,2.729-0.817,4.128,0.111
	c0.763,0.507,1.703,0.745,2.7,1.161c-0.92,1.315-2.606,1.404-3.526,2.575c0.457,0.757,1.152,0.466,1.717,0.386
	c1.011-0.144,2.004-0.41,3.008-0.612c0.238-0.048,0.487-0.038,0.922-0.068c-0.083,0.738-0.155,1.38-0.231,2.052
	c-0.603,0.313-1.133,0.575-1.652,0.858c-1.01,0.551-2.033,1.081-3.011,1.684c-0.657,0.404-0.627,0.453-0.379,1.508
	c0.419-0.047,0.864-0.074,1.298-0.153c1.215-0.217,2.423-0.476,3.642-0.675c0.351-0.058,0.726,0.03,1.123,0.052
	c0.095,0.827-0.43,1.091-0.879,1.375c-1.299,0.82-2.614,1.615-3.917,2.429c-0.466,0.29-1.001,0.544-0.878,1.451
	c1.262,1.07,2.165-0.851,3.484-0.589c-0.312,0.851-0.61,1.665-0.955,2.609c-7.771,2.099-14.509,6.263-20.952,11.064
	c3.814-7.345,8.871-13.598,15.637-18.423c-0.062-0.075-0.124-0.15-0.186-0.225c-0.318,0.152-0.645,0.288-0.954,0.455
	c-3.659,1.975-7.046,4.33-10.121,7.138c-1.784,1.628-3.211,3.522-4.466,5.573c-1.738,2.839-3.381,5.751-5.335,8.437
	c-1.824,2.508-3.969,4.786-6.046,7.099c-0.415,0.462-1.154,0.637-1.753,0.928c-0.188,0.091-0.428,0.089-0.598,0.199
	c-4.309,2.796-8.987,4.897-13.656,6.966c-4.009,1.777-7.842,3.97-12.083,5.237c-1.038,0.31-1.946,1.044-2.93,1.554
	c-1.396,0.723-2.81,1.412-4.208,2.13c-0.909,0.467-1.725,0.406-2.345-0.324c-0.787,0.01-1.551,0.025-2.319,0.039v8.622
	c0.669,0.104,1.338,0.207,2.01,0.28c0.657,0.071,1.353,0.148,1.985,0.009c1.498-0.327,2.959-0.821,4.453-1.173
	c1.896-0.448,3.68-1.16,5.22-2.336c5.237-3.999,11.109-6.822,17.149-9.328c5.552-2.305,11.15-4.498,16.692-6.825
	c3.378-1.418,6.67-3.039,10.035-4.489c2.974-1.282,5.977-2.503,9.006-3.65c1.422-0.539,2.874-0.929,4.263-1.63
	c1.844-0.93,3.866-1.573,5.874-2.096c2.423-0.631,4.684-1.565,6.836-2.814c0.604-0.351,1.253-0.626,1.946-0.837
	c-0.182,0.85-0.822,1.282-1.384,1.746c-2.138,1.765-4.302,3.498-6.457,5.244c-0.962,0.779-1.929,1.55-2.88,2.341
	c-0.314,0.261-0.582,0.575-0.854,0.847c0.797,1.112,1.397,1.25,2.55,0.59c1.702-0.976,3.351-2.05,5.081-2.972
	c2.935-1.565,5.915-3.044,8.88-4.553c0.179-0.092,0.383-0.133,0.734-0.004c-0.375,0.359-0.714,0.769-1.131,1.07
	c-4.114,2.971-8.24,5.926-12.367,8.88c-0.415,0.298-0.858,0.555-1.153,0.969c-0.547,0.625-1.034,1.317-1.653,1.861
	c-1.537,1.352-3.133,2.636-4.706,3.947c-0.164,0.136-0.411,0.235-0.483,0.408c-0.567,1.344-1.877,1.791-2.969,2.493
	c-1.184,0.761-2.398,1.476-3.584,2.233c-4.778,3.047-10.06,5.041-15.243,7.226c-4.21,1.775-8.329,3.717-12.373,5.847
	c-2.9,1.527-5.923,2.834-8.938,4.128c-1.951,0.837-4.015,1.41-5.98,2.222c-2.044,0.846-4.11,1.696-6.022,2.796
	c-3.471,1.996-6.87,4.124-10.234,6.3c-1.431,0.927-2.852,1.359-4.302,1.319v3.389c0.14-0.012,0.281-0.024,0.422-0.049
	c1.625-0.289,3.312-0.632,4.776-1.35c3.749-1.838,7.393-3.891,11.073-5.869c1.427-0.766,2.807-1.626,4.263-2.331
	c4.106-1.987,8.263-3.871,12.353-5.889c1.717-0.846,3.26-2.048,4.986-2.873c3.615-1.73,7.257-3.418,10.964-4.94
	c6.921-2.842,13.727-5.871,19.92-10.149c1.315-0.909,2.896-1.433,4.353-2.138c1.494-0.724,3.028-1.38,4.471-2.195
	c3.192-1.805,6.334-3.702,9.509-5.539c0.662-0.383,1.373-0.688,2.073-1c3.48-1.553,6.776-3.44,9.854-5.669
	c1.756-1.271,3.285-2.849,4.988-4.2c1.2-0.951,2.404-1.829,2.245-3.548c0.456-0.156,0.799-0.274,1.312-0.45
	C308.707,271.144,308.7,270.5,308.492,269.93z M238.326,252.648c-0.771-0.699-1.54-1.4-2.314-2.097
	c-0.85-0.767-1.726-1.505-2.545-2.303c-0.514-0.501-1.054-1.03-1.392-1.65c-1.146-2.103-1.976-4.334-2.421-6.696
	c-0.044-0.231,0.015-0.483,0.026-0.724c0.101-0.036,0.203-0.071,0.304-0.107c1.015,1.405,2.029,2.814,3.046,4.218
	c0.651,0.896,1.228,1.863,1.984,2.66c1.659,1.749,2.493,3.93,3.413,6.077C238.488,252.167,238.488,252.334,238.326,252.648z"/>
</svg>
