<svg width="400" height="400" viewBox="0 0 400 400" fill="none" xmlns="http://www.w3.org/2000/svg">
<path style="fill:#FF0000;" d="M272.66,325.614c-0.22-2.157-0.508-4.322-1.01-6.433c-0.094-0.395-0.219-0.784-0.323-1.178
	c-1.724-5.528-3.511-11.184-5.489-16.701l-0.811-2.268c-1.432-4.018-2.915-8.172-4.581-12.185c-0.732-1.764-1.501-3.514-2.269-5.262
	c-1.329-3.026-2.703-6.156-3.852-9.298c-2.312-6.327-3.701-12.063-4.246-17.534c-0.424-4.269-0.592-8.822,1.041-13.191
	c1.44-3.855,3.842-7.268,6.165-10.568c0.385-0.547,0.77-1.095,1.152-1.644c0.747-1.078,1.542-2.119,2.383-3.221
	c0.394-0.515,0.795-1.042,1.203-1.586l0.671-0.897l-1.117,0.084c-0.139,0.011-0.245,0.013-0.322,0.014
	c-0.188,0.003-0.421,0.007-0.598,0.211c-4.803,5.537-9.441,10.498-14.178,15.165c-2.066,2.036-3.538,4.095-4.502,6.293
	c-2.018,4.605-0.884,9.1,0.329,12.503c0.475,1.332,0.964,2.618,1.471,3.865c-1.68-3.361-3.265-6.797-4.569-10.321
	c-1.53-4.136-2.206-8.105-2.011-11.793c0.435-8.216,3.678-15.533,9.913-22.368c0.59-0.647,1.266-1.244,1.919-1.819
	c0.855-0.755,1.739-1.536,2.489-2.469l1.449-1.805l-2.073,1.029c-1.267,0.63-2.522,1.375-3.73,2.214
	c-2.449,1.703-4.567,3.826-6.631,5.895c-1.786,1.789-4,3.144-6.142,4.454c-0.696,0.427-1.393,0.852-2.077,1.294
	c-3.233,2.083-4.911,4.71-5.13,8.033c-0.276,4.207,1.245,7.972,2.717,11.613c0.209,0.517,0.418,1.034,0.621,1.552
	c-1.672-3.108-3.028-6.105-4.105-9.072c-1.634-4.503-2.404-8.516-2.355-12.268c0.08-6.045,1.916-11.926,5.458-17.48
	c0.832-1.304,1.794-2.556,2.812-3.881c0.499-0.649,1.016-1.32,1.544-2.033l1.393-1.878l-3.265,1.799
	c-3.037,1.655-6.157,2.625-9.536,2.967c-7.306,0.735-11.322,4.67-11.613,11.377c-0.013,0.3-0.011,0.605-0.006,0.915
	c-0.031-0.376-0.056-0.75-0.082-1.122c-0.035-0.503-0.07-1.007-0.114-1.509c-0.079-0.879-0.525-1.496-1.325-1.832
	c-0.314-0.132-0.648-0.134-0.913-0.007c-0.235,0.113-0.404,0.322-0.477,0.587c-0.075,0.269-0.212,0.52-0.358,0.788
	c-0.225,0.413-0.48,0.88-0.557,1.506c-0.51,4.163,1.229,7.793,2.764,10.995c1.618,3.373,3.806,6.788,6.69,10.438
	c3.965,5.014,8.051,9.824,11.526,13.866c0.013,0.015,0.029,0.028,0.042,0.043c0.041,0.051,0.078,0.105,0.12,0.155
	c-0.934-0.922-1.845-1.865-2.729-2.797c-0.731-0.77-1.461-1.54-2.208-2.294c-3.302-3.334-6.809-6.554-10.202-9.668
	c-3.513-3.224-7.144-6.558-10.543-10.015c-4.64-4.718-10.05-10.35-15.001-16.342c-3.716-4.498-7.212-9.233-10.392-14.072
	c-3.137-4.774-6.274-10.087-9.872-16.721c-3.836-7.075-7.189-14.544-10.431-21.767l-0.909-2.023
	c-1.585-3.517-3.224-7.153-3.595-11.119c-0.052-0.554,0.065-1.111,0.19-1.701c0.078-0.372,0.157-0.75,0.199-1.143
	c0.087-0.373,0.176-0.746,0.303-1.105c0.022-0.061,0.045-0.121,0.069-0.181c-0.016,0.037-0.026,0.06-0.037,0.087
	c0.088-0.209,0.18-0.416,0.258-0.628c0.047-0.126,0.088-0.254,0.133-0.381c0.015-0.043,0.15-0.444,0.072-0.202
	c-0.077,0.238,0.071-0.152,0.092-0.197c0.06-0.125,0.122-0.249,0.186-0.372c0.037-0.072,0.078-0.142,0.116-0.213
	c0.171-0.212,0.334-0.43,0.49-0.653c5.02-3.937,8.73-10.797,7.722-17.619c-0.619-4.193-2.263-8.153-3.571-12.184
	c-2.095-6.459-4.329-12.898-5.192-19.677c-0.66-5.187-0.343-10.274,2.073-15.068c0.693-1.376,1.827-2.38,2.689-3.584
	c-8.919,5.924-12.191,14.682-12.315,25.069c0.046-5.242-0.912-10.102-4.128-14.223c-3.311-4.242-8.089-5.711-13.273-6.549
	c0.329,0.503,0.755,0.472,1.111,0.615c1.916,0.765,3.787,1.665,5.198,3.201c2.269,2.47,2.299,5.628,1.963,8.625
	c-0.627,5.6-2.397,10.933-4.677,16.08c-1.974,4.455-4.005,8.862-4.626,13.795c-0.563,4.476-0.438,8.832,1.114,13.106
	c1.902,5.24,5.51,8.957,10.554,11.065c1.162,0.486,2.324,0.791,3.484,0.952c0.462,0.172,0.956,0.225,1.423,0.382
	c0.239,0.113,0.476,0.232,0.712,0.351c0.016,0.008,0.035,0.013,0.051,0.021l1.09,0.61c1.863,1.044,3.237,2.569,4.201,4.662
	c1.073,2.332,2.117,4.728,3.126,7.045c0.816,1.874,1.633,3.749,2.474,5.612l1.293,2.874c1.886,4.2,3.836,8.542,5.908,12.742
	c2.162,4.383,4.748,9.073,8.137,14.759c4.286,7.189,9.248,13.768,13.091,18.696c3.242,4.156,6.936,8.383,11.978,13.704
	c5.173,5.46,10.914,11.062,17.553,17.125l0.296,0.271c1.795,1.639,3.609,3.304,5.424,4.98c-0.285-0.213-0.576-0.419-0.874-0.612
	c-0.139-0.09-0.284-0.169-0.427-0.25c-0.638-0.44-1.275-0.882-1.914-1.322c-0.766-0.527-1.53-1.07-2.304-1.592
	c-1.793-1.411-3.703-2.889-5.767-4.46c-6.231-4.746-12.428-9.209-19.723-11.656c-3.582-1.203-6.454-1.675-9.298-1.523
	c-1.532,0.08-3.065,0.321-4.548,0.554c-2.797,0.441-5.441,0.858-8.18,0.317c-0.153-0.031-0.612-0.121-0.975,0.16
	c-0.156,0.121-0.349,0.356-0.375,0.79l-0.026,0.44l1.11,0.227c0.462,0.092,0.921,0.182,1.375,0.294
	c1.69,0.42,3.43,0.614,5.112,0.802c1.694,0.189,3.444,0.384,5.102,0.811c4.731,1.219,9.164,3.461,13.451,5.631
	c0.777,0.393,1.553,0.786,2.332,1.173c3.653,1.817,7.338,3.73,10.9,5.582c0.234,0.12,0.468,0.242,0.7,0.363
	c-5.721-2.34-11.169-4.176-17.086-4.672c-5.077-0.428-9.489,0.913-13.115,3.981l-0.908,0.771c-3.374,2.868-6.863,5.834-11.325,7.913
	l-2.085,0.971h2.299c0.289,0,0.517,0.009,0.705,0.016c0.351,0.013,0.605,0.022,0.869-0.039c4.093-0.945,8.433-1.317,13.265-1.137
	c2.804,0.101,5.665,0.027,8.503-0.231c5.941-0.536,10.923-0.728,15.919,0.074c1.884,0.3,3.689,0.85,5.537,1.537
	c-3.586-0.733-7.285-1.459-11.093-1.358c-4.502,0.112-8.271,1.107-11.524,3.04c-3.112,1.849-5.552,4.4-7.529,6.651l-0.304,0.347
	c-2.419,2.76-4.704,5.367-8.04,6.839l-0.671,0.294c-1.737,0.763-3.534,1.553-5.231,2.48l-0.2,0.108
	c-1.203,0.654-2.699,1.466-2.835,3.399l-0.112,1.6l1.015-1.242c1.512-1.849,3.729-2.611,5.873-3.348l0.351-0.12
	c4.594-1.589,9.394-1.807,13.49-1.807h0.065c6.318,0,12.417-1.375,18.12-2.782c3.7-0.913,7.609-1.636,11.607-1.665
	c-0.921,0.104-1.847,0.304-2.773,0.635c-1.078,0.385-2.884,1.03-3.036,2.843c-0.117,1.395,1.009,2.018,1.914,2.521
	c0.158,0.088,0.315,0.174,0.465,0.265c1.603,0.971,3.349,1.457,5.039,1.929c1.959,0.546,3.93,1.053,5.9,1.56
	c3.058,0.787,6.22,1.601,9.276,2.555c6.99,2.184,13.453,5.507,19.207,9.879c5.087,3.864,8.977,7.902,11.894,12.344
	c4.766,7.26,8.126,15.329,10.784,22.263c1.236,3.225,2.561,6.704,3.845,10.285C272.904,328.536,272.809,327.073,272.66,325.614z"/>
</svg>
