<svg width="400" height="400" viewBox="0 0 400 400" fill="none" xmlns="http://www.w3.org/2000/svg">
<path style="fill:#0000FF;" d="M179.681,70.542c-4.126,0.5-8.503,1.375-9.628,1.876c-2.126,0.875-4.626,6.127-7.252,16.005
	c-1.876,7.127-1.375,6.877-21.882,11.629c-8.253,1.876-18.631,4.752-23.132,6.502c-4.501,1.626-10.628,3.876-13.629,5.002
	c-8.503,2.876-22.632,11.254-27.884,16.255c-5.002,4.752-7.252,10.253-10.378,25.258c-2.876,13.379-6.502,39.888-7.502,53.767
	c-0.625,9.128-1.5,13.129-3.876,17.381c-2.876,5.252-3.001,6.377-3.001,28.884c-0.02,7.252,0.038,13.161-0.015,17.566
	c-0.018,1.476-0.065,4.198,1.583,6.833c0.867,1.386,1.923,2.302,2.683,2.859c2.459,1.804,4.162,2.959,7.127,4.626
	c1.595,0.897,3.887,2.212,6.662,3.903c1.545,2.887,3.51,4.274,4.556,4.889c2.581,1.517,5.1,1.572,8.444,1.667
	c2.33,0.066,4.141,0.117,6.449-0.546c3.969-1.139,7.274-2.411,7.274-2.411c1.018-0.392,1.756-0.716,2.238-0.348
	c0.535,0.408,0.308,1.898-0.362,5.474c-1.25,7.878-1.25,30.01,0,31.385c0.625,0.5,46.015,1,100.907,1
	c79.025,0,100.282-0.375,101.533-1.626c2.251-2.251,2.501-24.383,0.375-30.51c-1.876-5.627-0.75-6.877,4.376-4.752
	c2.251,0.875,7.377,1.375,12.629,1c7.878-0.375,9.128-0.875,11.379-3.876c1.375-1.876,4.751-4.376,7.627-5.627
	c2.876-1.375,6.627-4.001,8.378-5.752c3.126-3.376,3.126-3.751,3.126-25.508c0-21.382-0.125-22.382-3.251-28.384
	c-2.626-5.127-3.501-9.378-4.877-23.132c-1.751-18.881-4.752-38.512-8.878-56.268c-2.501-10.878-3.126-12.379-8.003-17.13
	c-10.878-10.378-35.261-21.132-64.146-28.009c-8.753-2.126-17.005-4.251-18.381-4.877c-1.751-0.625-3.501-3.751-5.502-10.128
	c-3.251-10.378-4.376-12.129-8.628-13.754C222.945,70.167,189.184,69.416,179.681,70.542z M215.567,73.793
	c2.626,0.5,4.251,2.251,6.627,7.127c3.626,7.752,3.501,8.003-9.003,12.754c-10.378,3.751-11.254,5.627-5.627,11.004
	c3.376,3.126,4.251,3.376,12.254,3.126l8.628-0.375l-0.375,4.501c-0.375,3.626,0.25,5.252,2.751,7.752
	c3.376,3.376,4.126,7.627,2.001,10.878c-1,1.5-1.25,1.125-1.25-1.5c0-3.751-6.627-9.753-14.255-12.879
	c-5.252-2.251-26.383-2.501-33.511-0.625c-6.252,1.751-15.255,8.753-15.755,12.254c-0.25,1.5-1,2.501-1.626,2.126
	c-2.251-1.5-1.125-6.377,2.626-10.878c3.126-3.876,3.626-5.002,2.501-7.752c-1.626-4.251-0.25-4.752,8.753-3.751
	c7.252,0.75,7.878,0.625,11.379-2.751c4.126-3.876,4.752-7.752,1.5-8.753c-4.626-1.626-18.506-7.002-19.006-7.502
	c-0.25-0.25,0.5-2.626,1.751-5.127c1.25-2.626,2.626-5.627,3.126-6.627c0.5-1,2.251-2.126,3.876-2.626
	C187.058,73.168,211.441,72.793,215.567,73.793z M185.933,98.176c0.5,0.75,0.625,1.5,0.25,1.876
	c-0.875,0.875-4.626-0.875-4.626-2.126C181.557,96.3,184.933,96.55,185.933,98.176z M217.818,98.051c0,1.5-3.501,3.126-4.501,2.126
	c-1.125-1.125,0.75-3.376,2.751-3.376C217.068,96.8,217.818,97.425,217.818,98.051z M155.048,104.553
	c2.251,2.251,1.876,5.752-1,10.378c-3.001,4.877-4.626,23.132-3.251,35.136c0.875,6.877,1.375,7.878,7.752,13.879
	c4.001,3.751,11.254,8.753,17.13,11.754l10.253,5.127l15.005-0.5c14.63-0.5,15.255-0.625,24.133-5.377
	c5.127-2.626,12.254-7.627,15.88-11.129c6.627-6.377,6.627-6.377,7.252-15.755c1.25-17.13,0.25-27.509-3.376-33.886
	c-3.001-5.377-3.126-5.752-1.125-8.503c1.751-2.626,2.626-2.876,8.503-2.126c5.752,0.625,37.012,10.378,40.513,12.629
	c0.75,0.375,1.375,1.751,1.375,3.001c0,2.251,3.751,6.502,3.751,4.376c0-0.625,0.5-1.876,1.125-2.751
	c0.875-1.375,2.126-1.25,6.502,1c8.378,4.251,15.88,9.753,17.506,12.754c3.251,6.127,5.127,16.13,5.627,30.385
	c0.25,8.253,1.125,19.256,1.876,24.383c1.626,11.754,1.626,11.504-0.125,21.507c-1.375,7.127-1.25,9.503,0.5,16.505
	c1.125,4.501,2.001,11.004,2.001,14.38c0,5.502-0.375,6.627-3.376,8.503c-2.001,1.125-5.127,3.376-7.002,5.002
	c-4.001,3.251-10.128,3.751-15.255,1.375c-2.626-1.25-3.876-1.125-6.877,0.625c-4.126,2.501-11.629,2.751-13.504,0.5
	c-0.75-0.75-1.626-6.127-2.126-11.879c-1-10.878-3.126-14.13-3.126-4.752c0,3.126-0.5,6.002-1.25,6.377
	c-0.625,0.375-1.25,1.876-1.25,3.251c0,2.626-3.626,3.251-7.627,1.125c-2.126-1.125-2.376-2.751-2.376-13.129
	c0-10.753,0.25-12.004,3.126-15.505c1.751-2.001,4.251-4.126,5.502-4.501c2.126-0.625,2.251-2.001,1.626-20.006
	c-0.375-13.629-0.125-20.382,0.875-22.882c1.25-3.126,1.25-4.376-0.375-7.502c-1.125-2.126-2.501-4.126-3.126-4.626
	c-0.625-0.375-3.626,1.876-6.627,5.127c-7.127,7.502-7.627,7.752-19.881,8.628c-20.632,1.25-23.633,1.876-23.633,4.376
	c0,3.876,7.002,8.753,12.879,8.878c6.377,0.125,13.504,1,15.38,1.626c1.751,0.625,3.126,9.253,2.126,13.004
	c-0.625,2.626-1.25,2.876-4.877,2.126c-4.877-0.875-5.377,0.5-1.751,3.751c2.001,1.876,2.501,3.876,2.501,10.753
	c0,8.503,0,8.628-4.626,11.754l-4.752,3.126h-42.764c-24.258,0-44.139-0.5-45.89-1.25c-6.502-2.376-8.253-5.627-8.253-14.755
	c-0.125-5.377-0.75-9.253-1.876-10.753c-2.001-2.626-2.501-14.004-0.875-16.505c0.5-0.75,5.627-1.751,11.504-2.251
	c9.128-0.75,11.129-1.375,14.004-4.126c5.502-5.252,4.626-7.627-3.001-8.378c-7.752-0.875-21.632-1.876-26.008-2.001
	c-2.001,0-5.127-2.251-9.628-7.002c-3.626-3.751-7.127-6.627-7.878-6.127c-0.75,0.375-2.126,2.501-3.251,4.626
	c-1.626,3.126-1.626,4.376-0.375,7.377c1,2.626,1.25,9.503,0.875,22.757l-0.625,19.006l4.752,3.376
	c5.377,3.876,6.627,8.378,5.877,22.257c-0.375,7.502-0.625,8.128-3.626,9.253c-4.501,1.5-8.253,0.125-6.127-2.376
	c1.125-1.375,1-2.376-0.5-4.626c-1.125-1.5-2.001-4.376-2.001-6.252c0-2.376-0.625-3.501-2.001-3.501
	c-1.5,0-1.876,1.751-1.626,10.253c0.25,8.628-0.125,10.378-2.001,11.879c-3.126,2.251-9.503,2.001-13.004-0.375
	c-2.376-1.751-3.626-1.876-7.502-0.5c-5.877,1.876-12.129,0.875-15.88-2.626c-1.626-1.5-4.251-3.376-5.752-4.126
	c-2.501-1.25-2.876-2.376-2.751-8.878c0-4.126,0.625-12.754,1.375-19.256c0.875-7.377,0.875-13.254,0.125-15.88
	c-0.75-2.876-0.625-5.127,0.25-6.877c0.875-1.5,1.626-11.754,1.876-25.258c0.375-26.634,2.751-36.762,9.753-43.389
	c5.877-5.502,11.504-7.878,14.63-6.252c2.126,1.125,2.501,1,2.501-1.25c0-3.626,5.752-6.752,22.507-12.004
	C145.17,103.052,152.297,101.802,155.048,104.553z M214.692,122.058c1.5,0.625,4.126,3.626,6.127,6.752
	c3.376,5.252,4.501,6.002,8.003,5.627c1.5-0.25-6.502,13.254-9.128,15.13c-0.625,0.5-9.753,1-20.257,1h-18.881l-3.751-4.752
	c-2.001-2.501-4.626-6.127-5.752-8.003c-2.126-3.251-2.126-3.251,0.375-2.626c2.001,0.5,3.376-0.625,6.377-5.377
	c2.126-3.376,5.002-6.752,6.627-7.627C187.684,120.308,210.691,120.183,214.692,122.058z M149.046,283.735
	c2.001,1,4.251,3.001,5.002,4.251c1.5,3.001,1.751,26.008,0.125,26.884c-2.126,1.375-24.508,2.126-26.258,1
	c-1.375-1-1.25-1.876,1-5.002c2.751-4.001,3.501-7.752,1.375-7.752c-1.5,0-4.877,5.002-5.377,8.128
	c-0.125,1.375-0.75,3.251-1.25,4.001c-1.25,1.876-10.628,2.126-15.005,0.5c-3.376-1.25-5.877-6.877-5.877-13.004
	c0-7.377,15.005-17.381,28.884-19.381C143.419,281.609,145.045,281.609,149.046,283.735z M266.209,283.11
	c16.13,2.126,30.385,11.754,30.385,20.507c0,6.002-3.001,11.754-6.627,12.629c-5.502,1.375-42.013,0-43.764-1.751
	c-0.875-0.875-1.626-6.002-2.001-12.754c-0.375-12.129,1.125-16.38,6.502-18.631C254.205,281.735,255.455,281.735,266.209,283.11z
	 M208.565,77.544c-2.626,2.501-2.626,2.376,2.126,8.003c7.127,8.753,11.004,5.252,4.626-4.251
	c-2.126-3.126-4.126-5.752-4.376-5.752S209.566,76.419,208.565,77.544z
	 M88.027,138.939c-2.251,0.875-5.377,7.377-4.501,9.503c1,2.751,5.002,3.376,7.878,1.25
	c3.251-2.251,3.626-9.753,0.625-10.878c-1.125-0.375-2.001-0.75-2.126-0.625C89.777,138.189,88.902,138.564,88.027,138.939z
	 M256.206,138.814c-1.626,1.626-0.875,6.877,1,7.502c2.626,1.125,5.877-1.876,5.377-5.002
	C262.207,138.689,257.956,137.063,256.206,138.814z
	 M75.898,149.442c-0.625,1.626-0.25,3.001,0.75,3.626c2.501,1.626,5.002-0.125,4.626-3.001
	C80.774,146.441,76.898,145.941,75.898,149.442z
	 M318.726,147.692c-1.876,1.751-0.875,5.377,1.5,5.377c3.251,0,4.501-2.126,2.626-4.376
	C321.101,146.691,319.976,146.316,318.726,147.692z
	 M253.08,150.067c-2.376,4.251,0.875,10.503,5.502,10.503c4.752,0,6.127-4.251,3.001-8.753
	C258.581,147.692,254.83,146.941,253.08,150.067z
	 M82.9,157.32c-1.876,2.126,0.125,7.002,2.876,7.002c2.876,0,5.127-3.751,3.626-6.002
	C87.651,155.444,84.776,155.069,82.9,157.32z
	 M104.032,175.45c-1.751,3.501-1.5,7.127,0.75,9.378c4.001,4.126,10.253-3.126,7.627-9.003
	C110.784,172.324,105.907,172.199,104.032,175.45z
	 M109.408,188.955c-2.126,0.75-2.001,6.252,0.125,7.002c1.876,0.75,4.501-1.375,4.501-3.626
	C114.035,190.33,111.284,188.33,109.408,188.955z
	 M190.559,189.58c-3.376,3.376,0,12.254,4.877,12.254c2.626,0,5.002-4.376,3.876-7.502
	c-1-2.751-4.126-6.252-5.877-6.252C192.685,188.08,191.435,188.705,190.559,189.58z
	 M300.47,192.206c-0.75,1-1,2.126-0.625,2.501c1,0.875,6.752-1.751,6.752-3.126
	C306.597,189.955,302.095,190.455,300.47,192.206z
	 M202.813,195.582c-1.876,3.376-0.375,7.502,2.501,7.502c2.001,0,5.002-3.251,5.002-5.502
	c0-1-3.876-4.501-5.002-4.501C204.689,193.081,203.564,194.206,202.813,195.582z
	 M195.811,206.085c-1.125,3.001,0.5,6.002,2.876,5.502c3.001-0.5,3.001-6.502,0-7.002
	C197.562,204.335,196.186,205.085,195.811,206.085z
	 M311.848,219.59c-2.126,2.126-1.876,6.502,0.75,9.753c2.626,3.251,6.252,2.251,7.252-2.126
	C321.476,220.84,315.975,215.463,311.848,219.59z
	 M303.346,228.718c-1,2.626,0.25,5.627,2.376,5.627c1,0,2.501-0.875,3.376-1.876
	c1.25-1.5,1.25-2.251,0-3.751c-0.875-1-2.376-1.876-3.376-1.876C304.846,226.842,303.721,227.717,303.346,228.718z
	 M193.811,131.436c-1.25,0.25-2.251,1.375-2.251,2.376c0,1.375,1.876,1.751,8.128,1.751
	c6.127,0,8.128-0.375,8.128-1.751C207.815,131.061,200.063,129.811,193.811,131.436z
	 M267.334,304.242c-1,1.626,5.002,8.503,6.252,7.252c1.25-1.125-1.876-7.377-4.126-8.003
	C268.71,303.241,267.709,303.492,267.334,304.242z
	 M78.421,237.415c-0.362,0.452-0.507,1.185-0.183,1.716c0.489,0.799,1.897,0.904,2.629,0.183
	c0.523-0.516,0.688-1.442,0.274-2.017C80.572,236.505,79.07,236.605,78.421,237.415z"/>
</svg>
