<svg width="400" height="400" viewBox="0 0 400 400" fill="none" xmlns="http://www.w3.org/2000/svg">
<path style="fill-rule:evenodd;clip-rule:evenodd;fill:#0000FF;" d="M255.798,329.32c30.084-1.778,42.03-10.64,41.514-30.798
	c-0.157-6.14,0.104-7.303,2.645-11.751c3.901-6.83,5.756-15.707,5.474-26.195c-0.208-7.801,0.012-9.131,2.395-14.468
	c2.82-6.318,3.826-24.553,1.64-29.76c-0.759-1.808-0.41-3.017,2.06-7.12c10.388-17.25,5.58-38.712-10.692-47.726l-4.796-2.656
	l-25.628-0.29l-25.628-0.29l0.601-2.392c0.33-1.316,2.814-7.176,5.52-13.023c16.652-35.983,7.189-69.261-20.661-72.653
	c-11.54-1.406-15.542,4.233-21.441,30.208c-4.054,17.853-6.2,22.607-15.104,33.477c-2.078,2.535-6.916,9.596-10.753,15.69
	c-11.382,18.081-14.969,23.338-21.406,31.365l-6.115,7.626v56.393v56.393l2.22,2.22c1.326,1.326,3.266,2.219,4.816,2.219
	c3.496,0,13.698,3.55,21.481,7.472c18.756,9.454,34.542,14.79,47.443,16.036C241.04,330.231,240.414,330.229,255.798,329.32z
	 M136.057,312.476c7.079-3.359,6.707,0.648,6.707-72.245c0-81.823,3.306-73.698-29.992-73.698c-32.87,0-29.69-7.89-29.687,73.683
	c0.004,71.948-0.384,67.685,6.545,71.909C93.686,314.598,130.991,314.88,136.057,312.476z M106.59,191.716
	c6.081-6.082,16.28-0.859,16.28,8.334c0,3.239-2.815,8.085-5.503,9.475C107.124,214.822,98.212,200.094,106.59,191.716z"/>
</svg>
