<svg width="400" height="400" viewBox="0 0 400 400" fill="none" xmlns="http://www.w3.org/2000/svg">
<path style="fill:#0000FF;" d="M130.76,183.75H94.317c-6.038,0-10.933,5.456-10.933,12.188v121.875
	c0,6.731,4.895,12.188,10.933,12.188h36.442c6.038,0,10.933-5.456,10.933-12.188V195.938
	C141.692,189.206,136.798,183.75,130.76,183.75z M112.539,309.688c-6.038,0-10.933-5.456-10.933-12.188s4.895-12.188,10.933-12.188
	c6.038,0,10.933,5.456,10.933,12.188S118.577,309.688,112.539,309.688z M258.308,111.362c0,21.539-11.83,33.621-15.159,48.013
	h46.338c15.213,0,27.057,14.09,27.128,29.503c0.038,9.109-3.437,18.916-8.855,24.983l-0.05,0.056
	c4.481,11.851,3.752,28.456-4.24,40.355c3.954,13.15-0.031,29.303-7.462,37.963c1.958,8.936,1.022,16.542-2.801,22.665
	C283.909,329.79,260.866,330,241.38,330l-1.296-0.001c-21.996-0.009-39.998-8.936-54.463-16.11
	c-7.269-3.605-16.773-8.068-23.984-8.215c-2.979-0.061-5.367-2.771-5.367-6.093V191.026c0-1.625,0.584-3.184,1.621-4.327
	c18.045-19.878,25.805-40.923,40.595-57.439c6.744-7.532,9.196-18.909,11.567-29.911C212.078,89.953,216.316,70,225.51,70
	C236.442,70,258.308,74.062,258.308,111.362z"/>
</svg>
