<svg width="400" height="400" viewBox="0 0 400 400" fill="none" xmlns="http://www.w3.org/2000/svg">
<path style="fill:#0000FF;" d="M71.407,196.867c3.099-0.8,5.798-1.999,6.298-5.498c0.5-3.499-0.2-6.498-3.799-7.997
	c-3.499-1.499-9.697,1.2-11.896,4.898c-5.098,8.297,0.6,19.493,10.396,20.793c6.898,0.9,12.296-1.799,17.294-5.898
	c9.197-7.497,15.295-17.594,22.592-26.491c9.996-12.296,21.692-22.092,37.487-25.791c17.994-4.199,40.886-0.6,48.383,19.893
	c0.4,1.1,0.5,2.899,2.399,2.799c1.4-0.1,1.4-1.599,1.899-2.599c6.498-15.195,18.593-20.993,34.688-21.193
	c18.893-0.2,33.488,7.997,45.984,20.993c6.398,6.598,11.396,14.395,17.094,21.492c4.698,5.798,9.697,11.296,16.494,14.795
	c7.098,3.699,14.295,2.999,20.093-2.299c6.598-5.998,5.398-16.294-2.199-20.293c-4.998-2.599-9.597-1.699-11.496,2.199
	c-1.899,4.099,0.4,8.297,5.598,10.496c-4.199,5.998-13.195,5.298-16.694-1.4c-4.898-9.397-2.299-21.093,10.396-22.892
	c13.295-1.899,22.892,1,26.491,16.894c4.398,19.493-5.098,33.388-17.894,45.784c-10.896,10.596-24.691,14.995-39.786,14.995
	c-20.793-0.1-41.186-2.699-60.679-10.296c-10.896-4.298-20.393-10.296-26.391-20.893c-2.099-3.699-5.598-3.799-7.697-0.3
	c-9.996,16.794-26.491,23.092-44.184,26.791c-12.995,2.699-26.291,4.498-39.786,4.798c-31.289,0.7-54.081-18.893-61.079-43.085
	c-3.099-10.796-0.9-19.793,4.598-28.59c3.199-5.098,8.497-6.898,14.295-7.098c4.298-0.1,8.397,0.9,12.396,2.099
	c6.198,1.899,9.297,8.497,7.997,15.894c-1.3,7.397-5.398,11.396-11.996,11.696C75.506,201.466,73.007,200.466,71.407,196.867z"/>
</svg>
