<svg width="400" height="400" viewBox="0 0 400 400" fill="none" xmlns="http://www.w3.org/2000/svg">
<path fill-rule="evenodd" clip-rule="evenodd" d="M148.589 151.067C132.69 155.941 121.335 164.891 107.052 183.807C98.4511 195.197 90.0737 203.942 85.1465 206.672C71.6959 214.124 55.4627 203.08 60.875 190.158C63.4999 183.894 71.5528 180.896 76.1154 184.485C79.544 187.183 78.2257 196.071 74.3972 196.071C72.1919 196.071 71.9302 197.494 73.7738 199.468C75.2744 201.075 75.9517 201.264 79.2529 200.995C93.5072 199.832 94.8373 176.209 80.8241 173.084C69.4288 170.543 64.431 171.329 58.7167 176.563C56.0762 178.982 54.9853 180.891 51.4019 189.367C43.6018 207.815 69.8385 244.582 93.3073 248.094C95.1078 248.364 98.1629 249.09 100.096 249.707C104.042 250.969 122.122 250.691 128.222 249.273C130.022 248.856 134.769 248.17 138.769 247.75C142.77 247.331 147.679 246.659 149.68 246.258C153.258 245.541 153.686 245.428 155.862 244.62C156.462 244.398 159.788 243.366 163.253 242.326C177.846 237.946 188.936 230.351 194.824 220.705C198.664 214.416 201.835 214.339 205.331 220.45C210.33 229.188 222.579 237.911 235.331 241.814C250.403 246.428 254.903 247.415 265.697 248.474C269.498 248.848 274.408 249.46 276.608 249.836C282.047 250.764 295.949 250.763 299.521 249.833C301.121 249.417 303.842 248.776 305.567 248.41C323.49 244.598 340.407 229.597 346.649 211.98C350.547 200.976 350.788 198.382 348.688 189.978C345.156 175.846 335.323 168.88 323.527 172.155C321.928 172.599 319.892 173.042 319.002 173.14C312.126 173.895 307.822 183.421 310.415 192.149C312.703 199.855 322.268 204.167 326.671 199.48C328.717 197.302 328.677 197.088 326.046 196.172C319.437 193.867 321.386 182.978 328.408 182.978C340.57 182.978 344.842 198.518 334.723 205.947C323.973 213.838 311.343 207.763 296.056 187.346C275.256 159.566 259.753 149.518 237.685 149.518C220.544 149.518 209.867 155.522 203.512 168.734C200.24 175.537 200.173 175.536 196.813 168.612C189.041 152.595 168.263 145.037 148.589 151.067Z" fill="#0000FF"/>
</svg>
