<svg width="400" height="400" viewBox="0 0 400 400" fill="none" xmlns="http://www.w3.org/2000/svg">
<path fill-rule="evenodd" clip-rule="evenodd" d="M116.23 82.9738C98.9466 90.5577 98.3554 90.9997 83.5193 107.417C66.9865 125.711 64.292 131.613 63.8443 150.508C63.3437 171.641 61.4828 205.981 60.7675 207.322C60.3451 208.111 59.9995 217.324 59.9995 227.795V246.833L63.0418 254.049C66.7224 262.778 71.0011 268.638 77.1316 273.342C81.5137 276.705 92.1984 281.747 93.079 280.866C93.3086 280.637 93.9366 280.815 94.4739 281.26C95.0123 281.708 114.155 282.66 137.151 283.384C160.085 284.105 185.56 285.033 193.759 285.445C201.96 285.857 209.628 286.208 210.8 286.224C226.322 286.449 226.528 286.533 243.174 299.276C273.613 322.578 270.63 321.152 276.788 315.328C281.364 310.999 282.617 307.982 282.788 300.881C282.817 299.71 283.166 296.121 283.564 292.906L284.288 287.06L288.95 284.998C321.584 270.566 331.804 258.903 333.542 234.114C334.193 224.816 335.084 213.55 336.512 196.514C341.367 138.637 341.267 131.099 335.495 119.611C331.623 111.905 322.749 103.162 315.677 100.084C313.053 98.9418 310.205 97.625 309.346 97.1566C307.135 95.9523 276.713 92.9881 252.972 91.6633C242.716 91.0916 188.08 87.0999 183.11 86.5591C180.299 86.2538 175.315 85.8347 172.035 85.6292C149.181 84.1988 141.117 83.4893 139.407 82.7591C136.773 81.6364 118.903 81.8017 116.23 82.9738ZM138.808 89.2329C143.494 89.5417 148.861 89.955 150.736 90.1536C152.609 90.3511 168.903 91.4371 186.945 92.5679C204.985 93.6988 222.429 95.0041 225.709 95.4679C228.989 95.9317 232.248 96.2531 232.951 96.1808C233.654 96.1085 236.338 96.3301 238.915 96.6733C241.491 97.0166 257.02 98.0544 273.419 98.9797C304.633 100.742 305.385 100.843 313.224 104.34C332.533 112.957 337.056 126.96 333.416 166.858C332.937 172.103 332.413 178.045 332.25 180.064C332.088 182.084 331.698 186.035 331.384 188.847C331.069 191.658 330.113 205.078 329.26 218.666C327.508 246.545 326.907 249.186 320.275 258.196C312.812 268.333 303.91 272.651 288.755 273.483L278.531 274.045L278.341 278.73C277.876 290.151 277.016 298.326 276.282 298.326C275.495 298.326 271.942 295.497 252.574 279.445C243.103 271.596 239.189 269.454 234.229 269.403C230.146 269.362 165.579 265.176 160.959 264.654C158.147 264.336 154.334 263.959 152.484 263.817C150.635 263.675 146.801 263.326 143.964 263.043C141.128 262.76 132.748 262.14 125.342 261.664C110.773 260.73 103.45 259.528 103.45 258.071C103.45 257.562 103.222 257.376 102.942 257.657C102.662 257.936 100.572 257.021 98.298 255.621C90.0333 250.536 82.881 240.735 80.655 231.446C79.7905 227.841 79.7411 214.991 80.57 209.294C81.3909 203.651 85.6168 142.808 85.6305 136.45C85.6788 112.586 97.2039 94.0271 114.527 89.9194C120.356 88.5372 123.776 88.1101 126.879 88.3776C128.754 88.5383 134.121 88.9241 138.808 89.2329ZM203.99 112.249C196.887 115.329 193.759 120.936 193.759 130.597C193.759 134.23 194.137 137.435 194.599 137.72C195.06 138.006 195.405 139.083 195.363 140.114C195.323 141.145 196.503 149.273 197.986 158.176C201.462 179.036 201.313 177.983 202.264 188.421C203.257 199.32 203.684 201.201 205.173 201.201C207.089 201.201 207.918 199.385 209.06 192.681C209.66 189.167 210.381 185.908 210.665 185.439C210.949 184.971 211.213 184.204 211.252 183.736C211.291 183.266 211.565 182.309 211.863 181.605C212.16 180.902 213.422 176.494 214.667 171.808C215.913 167.121 217.291 162.616 217.729 161.797C218.169 160.977 219.682 155.992 221.093 150.722C222.505 145.45 223.878 140.37 224.147 139.433C229.673 120.093 219.023 105.73 203.99 112.249ZM195.498 215.835C184.14 223.546 185.396 237.712 197.967 243.702C210.749 249.793 224.78 233.146 216.707 221.468C211.554 214.015 201.938 211.462 195.498 215.835Z" fill="#0000FF"/>
</svg>
