<svg width="400" height="400" viewBox="0 0 400 400" fill="none" xmlns="http://www.w3.org/2000/svg">
<path style="fill:#FF0000;" d="M349.867,178.339c-0.067-0.478-0.704-1.327-1.777-1.327h-0.017c-0.593,0.074-1.371,0.183-2.24,0.305
	c-2.482,0.349-5.881,0.826-7.661,0.826h-0.008l-25.678-0.017c-0.318-0.04-1.592-0.038-3.225-0.031
	c-0.458,0.002-0.878,0.004-1.193,0.003c-0.16-0.203-0.402-0.327-0.696-0.304c-0.466,0.022-1.315,0.021-2.238,0.017
	c-1.252-0.005-2.661-0.007-3.418,0.051c-0.181,0.015-0.412,0.09-0.581,0.252l-63.947-0.051c-0.163-0.183-0.402-0.285-0.669-0.269
	c-0.467,0.022-1.314,0.021-2.237,0.017c-1.249-0.005-2.66-0.007-3.417,0.05c-0.156,0.012-0.354,0.071-0.515,0.196l-29.099-0.023
	v1.905c2.139,0.006,4.61-0.028,6.82-0.057l0.483-0.006c0.804-0.01,1.997-0.008,3.275-0.006c2.164,0.002,4.621,0.008,5.718-0.051
	l-0.001-0.19c0.066,0.046,0.158,0.068,0.27,0.078v0.008c0.02-0.001,0.042-0.002,0.065-0.003c0.079,0.004,0.167,0.004,0.261,0.005
	c0.751,0.002,1.462,0.004,2.134,0.008c0.034,0.075,0.125,0.126,0.39,0.166l0.007,0.047c0.042-0.005,0.14-0.01,0.283-0.014
	c0.607,0.055,1.748,0.091,3.897,0.158c0.606,0.019,1.263,0.039,1.911,0.058v0c-1.784,0.01-3.829,0.035-5.584,0.058
	c-3.46,0.047-5.22,0.071-6.117,0.127c-0.259-0.006-0.445-0.012-0.545-0.018l-0.005,0.071c-0.382,0.059-0.386,0.146-0.393,0.286
	l-0.013,0.306c-4.225,0.028-8.41,0.085-8.493,0.087l-0.007,0.437c-1.159,0.002-2.589,0.009-4.358,0.022v10.237
	c7.891-0.002,15.683-0.001,17.929,0.005c1.014,0.002,1.869-0.075,2.637-0.246l8.258,0.015c0.041,0.141,0.11,0.257,0.208,0.348
	c0.099,0.091,0.279,0.2,0.546,0.185c0.581-0.029,1.606-0.029,2.692-0.027c1.305-0.001,2.652,0.002,3.434-0.052
	c0.256-0.038,0.383-0.245,0.447-0.441l63.573,0.108c0.129,0.274,0.409,0.436,0.707,0.412c0.581-0.029,1.607-0.029,2.692-0.027
	c1.304,0.003,2.652,0.002,3.437-0.053c0.174-0.028,0.306-0.135,0.395-0.32l24.484,0.04c0.846,0.062,4.226,0.402,4.988,0.752
	c0.288,0.07,0.543,0.104,0.761,0.104c0.344,0,0.598-0.084,0.753-0.245c0.577-0.475,0.757-1.469,0.637-2.205
	c-0.099-0.609-0.388-1.034-0.811-1.196c-0.677-0.26-1.663,0.018-2.456,0.241c-0.246,0.069-0.471,0.133-0.651,0.169
	c-0.93,0.184-2.11,0.321-3.481,0.409l-23.592-0.04c0.758-0.028,1.519-0.061,2.279-0.098c2.126-0.013,22.385-0.451,23.821-0.515
	c2.19-0.098,4.697-1.3,4.821-4.338l8.748,0.935c0.246,0.018,0.495-0.076,0.707-0.27c0.374-0.34,0.585-0.922,0.603-1.232
	C350.041,182.508,350.061,180.174,349.867,178.339z M210.579,181.945l0.006-0.04c1.525,0.004,3.244-0.004,5.093-0.027
	c0.696-0.009,1.484-0.013,2.292-0.018c0.771-0.004,1.553-0.008,2.287-0.017l0.003,0.15
	C216.993,181.976,213.764,181.96,210.579,181.945z M226.711,181.161c-0.722,0.021-1.171,0.036-1.45,0.066
	c-0.025-0.002-0.046-0.004-0.063-0.006l-0.001,0.014c-0.381,0.048-0.402,0.129-0.417,0.305c-0.718,0.011-1.418,0.023-2.04,0.035
	l0.068-0.432c1.367,0.006,2.72,0.009,3.903,0.009V181.161z M231.013,181.478l5.484,0.042c0.004,0.232,0.007,0.471,0.01,0.714
	l-5.493-0.003L231.013,181.478z M231.021,186.431l-0.005-3.069l5.501-0.031c0.007,1.007,0.009,2.05,0.008,3.01L231.021,186.431z
	 M246.884,179.519l9.393,0.008l-0.002,0.177c-2.526-0.003-5.676-0.006-9.499-0.008c-0.458,0-0.909,0-1.353,0
	c0.638-0.014,1.152-0.033,1.461-0.059L246.884,179.519z M257.938,181.991l0.003,0.231c-3.276-0.022-6.55-0.043-9.815-0.064
	l0.005-0.067c2.34-0.033,3.648-0.057,4.381-0.103c0.256,0.006,0.442,0.012,0.543,0.018l0.005-0.071
	c0.382-0.059,0.386-0.146,0.393-0.286l0.016-0.367l-0.366-0.023c-0.849-0.053-7.706-0.097-12.19-0.097h-0.051v-0.007
	c0.723-0.021,1.172-0.037,1.452-0.067c0.025,0.002,0.046,0.004,0.062,0.006l0.002-0.014c0.283-0.036,0.367-0.089,0.397-0.187
	c2.237-0.034,5.117-0.083,8.632-0.147c0.792-0.014,1.581-0.029,2.356-0.043l-0.008,0.685c3.033,0.102,7.959,0.126,13.865,0.072
	c0.862-0.008,1.828-0.012,2.825-0.016l-0.004,0.374c0.238,0.008,0.486,0.015,0.746,0.022
	C265.727,181.827,261.141,181.885,257.938,181.991z M287.699,181.925c-1.219-0.008-2.478-0.012-3.723-0.017
	c-0.477-0.001-0.952-0.003-1.419-0.005c0.573-0.004,1.156-0.009,1.75-0.014c0.95-0.009,2.026-0.013,3.13-0.017
	c0.088,0,0.175,0,0.263-0.001V181.925z M300.883,180.008c-1.922-0.03-5.91,0.013-8.988,0.055c-3.411,0.047-5.151,0.071-6.039,0.127
	c-0.256-0.006-0.441-0.012-0.541-0.018l-0.004,0.071c-0.384,0.059-0.388,0.147-0.393,0.287l-0.016,0.366l0.366,0.023
	c0.285,0.018,1.185,0.035,2.425,0.049c-3.205,0.001-7.089,0.023-10.359,0.046l0.046-0.384c-0.24-0.068-2.767-0.091-6.087-0.091
	c-3.583,0-8.089,0.027-11.636,0.053c0.229-0.005,0.451-0.009,0.666-0.013c1.862-0.037,2.922-0.057,3.528-0.096
	c0.217,0.003,0.353,0.007,0.396,0.011l0.008-0.047c0.401-0.053,0.409-0.135,0.425-0.284l0.029-0.286
	c1.684-0.001,3.505-0.011,5.431-0.029c0.958-0.009,2.046-0.013,3.16-0.018c2.406-0.009,4.894-0.018,6.515-0.081l0.023-0.2
	l10.826,0.01v0.208c0.514,0.026,3.36,0.031,6.112,0.036c0.235,0,0.468,0.001,0.696,0.001c0.185,0.159,0.847,0.163,3.411,0.145
	V180.008z M301.865,181.524l5.485,0.042c0.003,0.223,0.006,0.452,0.009,0.686l-5.494-0.003V181.524z M301.872,186.431l-0.005-3.051
	l5.502-0.031c0.007,1.001,0.008,2.037,0.007,2.992L301.872,186.431z M317.705,180.606c-0.401-0.031-2.103-0.064-4.014-0.097
	c0.077-0.007,0.145-0.014,0.206-0.021c0.027,0.002,0.049,0.004,0.063,0.006l0.002-0.015c0.413-0.058,0.419-0.147,0.431-0.33
	l0.002-0.022c0.671-0.021,1.38-0.047,2.14-0.077l-0.004,0.226c1.709,0.103,4.485,0.129,7.811,0.073h0.001
	c0.532-0.009,1.137-0.013,1.755-0.017c1.363-0.009,2.771-0.018,3.694-0.082l0.073-0.362c1.219,0,2.597-0.001,4.084-0.014
	l1.746-0.008c1.353-0.004,2.778-0.009,3.695-0.04l0.034-0.318l0.153-0.011l0.034,0.255c0.02,0.152,0.034,0.25,0.452,0.294
	l0.005,0.021c0.011-0.002,0.026-0.005,0.046-0.007l-0.001,0.408c0.82,0.034,1.581,0.061,2.299,0.084v0.016
	c0.006,0.115,0.01,0.203,0.148,0.272c-3.713,0.002-7.457,0.006-7.967,0.046l-0.001,0.37c-4.79-0.018-12.704,0.038-16.885,0.074
	L317.705,180.606z M339.804,182.431l-0.365,0.023l0.009,0.221c-0.133-0.01-0.249-0.019-0.345-0.026l-0.003,0.048
	c-0.135,0.011-0.224,0.029-0.281,0.057c-0.083-0.021-0.168-0.032-0.254-0.032c-0.031,0-0.062,0.001-0.094,0.004
	c-4.836-0.02-9.902-0.046-15.148-0.075l-0.002-0.039c0.018-0.001,0.034-0.002,0.051-0.003c0.25,0.007,0.429,0.014,0.521,0.019
	l0.004-0.071c0.383-0.059,0.387-0.146,0.394-0.286l0.003-0.07c1.414-0.003,2.917-0.013,4.489-0.028
	c0.958-0.009,2.046-0.013,3.16-0.018c2.406-0.009,4.894-0.018,6.515-0.081l0.039-0.329c0.083,0.002,0.168,0.003,0.251,0.005
	l0.002,0.015c0.012,0.131,0.021,0.228,0.415,0.305l0.004,0.03c0.024-0.003,0.066-0.006,0.124-0.008
	c0.653,0.101,2.11,0.166,5.394,0.232C342.612,182.348,340.431,182.391,339.804,182.431z"/>
<path style="fill:#0000FF;" d="M198.75,181.536c-2.661,0.024-4.85,0.052-5.324,0.059l-0.005,0.283
	c-0.98-0.003-1.954-0.006-2.92-0.009c0.268-0.009,0.478-0.018,0.642-0.03c0.075,0.003,0.14,0.005,0.195,0.008l0.001-0.027
	c0.386-0.048,0.388-0.136,0.391-0.341l0.006-0.361l-0.361-0.018c-0.172-0.009-0.444-0.017-0.792-0.026l-0.01-0.129
	c-0.006-0.082-0.011-0.145-0.073-0.194c1.747-0.015,3.097-0.035,3.432-0.057l0.356-0.024l-0.007-0.357
	c0-0.031-0.001-0.06-0.009-0.089c2.322-0.037,4.061-0.068,4.478-0.075v-2.114l-18.727-0.015c-0.005-0.013-0.011-0.025-0.017-0.038
	c-0.207-0.47-0.483-0.904-0.825-1.295c2.823-1.3,5.425-3.911,6.452-5.02c0.391-0.422,0.293-0.729,0.2-0.874
	c-0.103-0.161-0.377-0.397-1.061-0.177l-0.091,0.044c-2.779,1.841-4.92,2.852-7.678,3.976c-0.445,0.182-0.866,0.423-0.702,1.191
	c0.072,0.339,0.254,0.893,0.466,1.536c0.07,0.212,0.143,0.432,0.214,0.655l-1.572-0.001c-0.154-0.369-0.341-0.717-0.526-1.024
	c0.159,0.055,0.321,0.1,0.478,0.13c0.206,0.037,0.404-0.009,0.552-0.138c0.146-0.127,0.224-0.317,0.214-0.521
	c-0.015-0.347-0.321-0.797-0.91-1.338c-0.45-0.413-1.264-1.191-1.722-1.63l0.099,0.014l-0.116-0.128
	c0.053-0.059,0.099-0.115,0.13-0.16l0.068-0.099l-0.003-0.121c-0.003-0.119-0.034-0.223-0.058-0.307
	c-0.035-0.119-0.045-0.162-0.023-0.223c0.066-0.186,0.244-0.367,0.229-0.378c0.041-0.004,0.103,0.009,0.173,0.019
	c0.274,0.038,0.688,0.093,1.018-0.099c0.235-0.139,0.796-0.552,0.933-1.396c0.122-0.757-0.161-1.194-0.692-1.694
	c-0.668-0.627-1.903-0.762-2.494-0.274c-0.014,0.012-0.028,0.024-0.043,0.037c0.004-0.235-0.128-0.457-0.351-0.575
	c-0.281-0.148-0.611-0.098-0.826,0.125c-0.179,0.186-1.432,1.593-1.853,2.202c-0.398,0.577-1.356,1.703-1.608,1.934l-0.239,0.226
	c-0.353,0.338-0.944,0.902-1.318,1.145c-0.563,0.367-1.327,0.928-1.763,1.354c-0.426,0.419-0.821,1.372-0.714,2.315
	c0.025,0.226,0.132,0.49,0.282,0.785c-0.941,0.012-1.916,0.031-2.901,0.057c-5.974,0.167-11.73,1.702-14.629,2.603
	c-2.479,0.77-15.568,5.533-15.706,5.584c-3.92,1.51-8.398,2.815-9.11,2.382c-4.765-2.891-13.103-1.24-13.444-1.169l-22.925,3.965
	c-0.227,0.038-22.781,3.795-25.922,4.135c-3.23,0.35-6.471,0.889-7.496,3.203c-3.413,5.146-2.425,24.308,0.137,30.697
	c0.802,1.554,2.001,2.317,3.693,2.316c0.788,0,1.683-0.166,2.694-0.494c0.686-0.224,3.955-1.968,7.838-4.052
	c1.517-0.814,2.789-1.498,3.283-1.745c12.201-6.102,25.614-11.991,43.489-19.095l1.381-0.549c4.912-1.955,9.992-3.977,14.801-5.633
	c3.608-1.364,6.984-2.624,9.819-3.667c0.544-0.201,1.076-0.406,1.6-0.614c0.122,0.008,0.248-0.008,0.37-0.022
	c0.397-0.048,1.139-0.31,2.078-0.64c1.076-0.379,2.297-0.809,3.043-0.919l0.098-0.015c0.452-0.069,1.293-0.195,1.534,0.085
	c0.472,0.548,0.857,1.157,1.263,1.801c0.457,0.725,0.931,1.475,1.558,2.171c1.114,1.239,2.457,2.593,4.309,2.974
	c2.109,0.434,4.204,0.048,5.751-1.063c1.642-1.18,2.717-2.413,3.596-4.121c0.161-0.314,0.323-0.677,0.491-1.054
	c0.325-0.73,0.661-1.484,1.05-2.002c0.536-0.714,1.205-1.075,2.17-1.17l0.473-0.05c0.922-0.098,2.841-0.301,3.593-0.273
	c0.162-0.011,0.323-0.071,0.453-0.164c5.255-0.021,8.971,0.096,9.02,0.098l16.975-0.005V181.536z M87.233,202.16
	c0.382,0.155,0.878,0.518,1.355,0.949c-0.276-0.094-0.541-0.158-0.777-0.183c-0.208-0.373-0.545-0.689-0.95-0.899
	C86.983,202.065,87.106,202.109,87.233,202.16z M85.616,202.667c0.2,0.001,0.671,0.08,1.045,0.376
	c-0.254,0.067-0.503,0.167-0.771,0.324c-0.119-0.153-0.279-0.291-0.48-0.412c-0.18-0.108-0.393-0.201-0.629-0.277
	C85.047,202.67,85.325,202.666,85.616,202.667z M77.991,200.822c1.065-0.635,2.253-0.945,3.076-0.811
	c-0.146,0.01-0.299,0.031-0.457,0.063c-0.469,0.095-0.93,0.251-1.372,0.462c-0.367,0.175-0.728,0.392-1.075,0.645
	c-0.023,0.017-0.062,0.048-0.114,0.091l-0.22-0.342C77.884,200.892,77.939,200.855,77.991,200.822z M69.838,202.231
	c0.199-0.244,0.526-0.389,0.974-0.431l-0.007-0.527c0.188,0.075,0.364,0.173,0.52,0.295c0.018,0.021,0.053,0.094,0.076,0.142
	c0.051,0.105,0.108,0.225,0.202,0.323l0.68,0.718l-0.008-0.223l0.1,0.32c0.189-0.036,0.284,0.018,0.351,0.08
	c0.431,0.4,0.566,1.891,0.369,3.747l-0.045-0.239c-0.215-1.7-0.396-2.57-0.606-2.909l-0.389,0.155
	c-0.203-0.602-0.487-1.117-0.899-1.413l-0.321,0.351c-0.133-0.185-0.281-0.356-0.449-0.503l-0.573,0.464l0.111,0.183
	c0.027,0.045,0.058,0.094,0.091,0.149l-0.405,0.326l-0.001-0.012C69.577,202.942,69.591,202.535,69.838,202.231z M63.985,205.453
	c0.063-0.031,0.141-0.045,0.229-0.045c0.19,0,0.431,0.065,0.682,0.168l-0.242,0.479c-0.034-0.018-0.069-0.035-0.103-0.053
	c-0.135-0.069-0.281-0.144-0.452-0.241l-0.088-0.035c-0.036-0.012-0.113-0.094-0.119-0.173
	C63.892,205.537,63.89,205.5,63.985,205.453z M57.567,209.274c-0.028-0.066-0.05-0.137-0.064-0.211
	c-0.076-0.393-0.008-0.68,0.099-0.762c0.028-0.021,0.068-0.032,0.117-0.032c0.094,0,0.221,0.037,0.366,0.108
	c0.183,0.091,0.279,0.207,0.279,0.276c0,0.084-0.131,0.29-0.624,0.536L57.567,209.274z M62.875,217.909
	c-0.583,0.717-1.515,1.087-2.675,1.045l-0.119,0.656c-0.706-0.311-1.268-0.913-1.628-1.758c-0.296-0.696-0.641-1.507-0.538-2.605
	c-0.03,0.644,0.116,1.275,0.413,1.8c0.572,1.01,1.886,1.873,3.719,0.975l-0.218-0.706c-0.247,0.035-0.475,0.041-0.684,0.023
	l0.199-0.621c-0.126-0.064-0.24-0.128-0.342-0.19l0.385-0.377c-0.474-0.718-0.558-1.419-0.228-1.922
	c0.247-0.379,0.687-0.572,1.118-0.498c0.55,0.096,0.975,0.608,1.166,1.406C63.677,216.126,63.46,217.188,62.875,217.909z
	 M66.97,213.175c-0.341-0.761-0.827-1.523-1.455-2.262l-0.604,0.438c0.035,0.056,0.069,0.113,0.102,0.169
	c-0.415-0.435-0.91-0.792-1.476-1.058l-0.357,0.593c-0.599-0.448-1.169-0.791-1.506-0.982c0.151-0.404,0.225-0.83,0.198-1.171
	l-0.732-0.077c-0.313,1.043-1.259,1.371-2.03,1.335c-0.326-0.017-0.679-0.107-0.973-0.277c0.742-0.13,1.533-1.014,2.24-1.805
	c0.246-0.275,0.469-0.525,0.651-0.693c0.9-0.828,1.998-0.869,2.262-0.869c0.041,0,0.063,0.004,0.059,0
	c0.611,0.149,1.115,0.402,2.155,1.085l0.372-0.46c0.274,0.268,0.546,0.572,0.809,0.9c-0.05-0.03-0.095-0.055-0.137-0.075
	l-0.395,0.561c-1.485-0.92-3.126-1.416-4.333-1.253l0.078,0.744c1.205-0.098,2.554,0.57,3.687,1.382
	c-0.924-0.438-1.767-0.538-2.21-0.513l-0.001,0.746c2.073,0.151,3.606,2.054,4.127,3.04l0.023,0.044l-0.597,0.187
	C66.943,212.998,66.957,213.088,66.97,213.175z M66.792,206.747l0.476-0.335l-0.193-0.398c0.002,0.001,0.004,0.001,0.006,0.002
	c0.354,0.115,1.779,1.427,1.822,1.801c-0.081,0.615-0.066,1.194,0.039,1.693C68.353,208.389,67.651,207.487,66.792,206.747z
	 M70.283,211.261l-0.468-0.44l0.022,0.796c-0.14-0.407-0.288-0.793-0.444-1.158l0.493-0.237c0.01,0.015,0.02,0.028,0.031,0.043
	l0.649-0.359c-0.059-0.152-0.129-0.402-0.191-0.67l0.58,0.231C70.685,209.996,70.473,210.606,70.283,211.261z M71.068,216.07
	c0.145-0.392,0.265-0.807,0.36-1.244l-0.33-0.1c0.025-0.075,0.051-0.15,0.076-0.225c0.572-1.685,1.113-3.279,2.104-3.363
	c-0.371,1.207-1.109,3.03-2.209,4.929L71.068,216.07z M71.71,217.21c0.571-0.833,1.073-1.688,1.528-2.509
	c0.038,0.096,0.083,0.189,0.134,0.278C72.864,215.688,72.3,216.464,71.71,217.21z M73.354,210.883l0.022-0.495
	c-0.064-0.007-0.126-0.01-0.186-0.01c-0.425,0-0.78,0.165-1.089,0.449c0.285-0.592,0.594-0.994,0.946-1.021l-0.011-0.747
	c-0.497-0.024-0.931,0.211-1.302,0.622c0.055-0.126,0.113-0.25,0.174-0.372l-0.645-0.375c-0.037,0.056-0.074,0.113-0.11,0.172
	l-0.346-0.449c-0.087-0.113-0.154-0.223-0.206-0.325c0.196-0.024,0.385-0.135,0.567-0.333l0.772-0.838l-1.119,0.217
	c-0.048,0.012-0.112,0.013-0.128-0.008c-0.04-0.052-0.052-0.217,0.032-0.394c0.051-0.108,0.209-0.361,0.583-0.372
	c0.165-0.015,0.359,0.023,0.423,0.056c0.592,0.477,0.618,0.545,0.715,1.112l0.034,0.218c0.052,0.361,0.116,0.81,0.722,0.844
	c0.014,0.001,0.063,0.02,0.129,0.099c0.16,0.192,0.257,0.533,0.223,0.869C73.57,209.984,73.502,210.362,73.354,210.883z
	 M74.729,202.833c-0.079-0.494-0.148-0.92-0.06-1.26c0.068-0.249,0.346-0.577,0.606-0.577c0.024,0,0.048,0.003,0.071,0.009
	c0.055,0.024,0.074,0.051,0.084,0.074c0.021,0.046,0.032,0.111,0.034,0.193l0.012,0.747l0.147,0.022
	c-0.297,0.443-0.556,0.983-0.784,1.571C74.81,203.335,74.769,203.076,74.729,202.833z M76.867,203.962
	c1.163-1.639,2.492-2.622,3.949-2.922c0.161-0.032,0.304-0.049,0.43-0.049c0.072,0,0.138,0.005,0.198,0.017
	c0.225,0.041,0.34,0.152,0.396,0.382c0.013,0.053,0.021,0.105,0.026,0.154c-0.254,0.09-0.532,0.212-0.807,0.356
	c-0.144,0.06-0.263,0.126-0.324,0.174c-0.402,0.225-0.848,0.51-1.326,0.847l0,0.001c-1.732,1.226-3.049,2.495-4.344,4.229
	C75.592,206.036,76.239,204.848,76.867,203.962z M78.071,209.203c-0.099-0.031-0.259-0.061-0.309-0.079
	c0.041-0.125,0.492-0.373,0.847-0.284c0.2,0.052,0.366,0.3,0.541,0.562c0.032,0.048,0.065,0.097,0.101,0.15
	c-0.215-0.02-0.425-0.032-0.626-0.032c-0.062,0-0.124,0.002-0.184,0.004l0.058-0.154C78.367,209.292,78.216,209.247,78.071,209.203z
	 M77.017,208.625l-0.069-0.148c0.35-0.344,0.713-0.658,1.078-0.933c0.023,0.138,0.069,0.288,0.137,0.45
	C77.709,208.07,77.24,208.262,77.017,208.625z M79.105,205.909c-0.315,0.065-0.655,0.199-1.006,0.386
	c0.463-0.424,0.926-0.794,1.359-1.078C79.299,205.445,79.182,205.676,79.105,205.909z M81.349,211.212
	c-0.851,0.014-1.466,0.024-1.856,0.124c-0.199,0.052-0.804,0.208-1.363,0.461c-0.374,0.168-0.953,0.429-1.235,0.935
	c-0.662-0.105-1.024,0.291-1.234,0.526c-0.065,0.072-0.138,0.154-0.25,0.191c-0.047-0.038-0.118-0.205-0.036-0.472
	c0.217-0.705,1.316-1.536,3.752-1.75c0.364-0.033,0.768-0.047,1.188-0.047c0.374,0,0.76,0.011,1.142,0.031
	C81.42,211.21,81.384,211.211,81.349,211.212z M80.192,208.088c-0.006-0.029-0.016-0.072,0.066-0.154l-0.029-0.034l0.085,0.051
	l-0.339-1.166c-0.04-0.135-0.045-0.272-0.025-0.403l0.248,0.164c0.437-0.557,0.892-0.537,1.198-0.419
	c0.322,0.122,0.596,0.392,0.746,0.698l-0.477,0.185c0.027,0.104,0.064,0.208,0.108,0.313l-0.208,0.095
	c0.117,0.365,0.356,0.725,0.627,1.045l-0.324,0.284c0.084,0.123,0.186,0.24,0.299,0.35l-0.162,0.172
	c0.069,0.082,0.146,0.16,0.229,0.234C80.92,208.925,80.255,208.383,80.192,208.088z M84.31,204.737
	c-0.188-0.062-0.384-0.074-0.581-0.042c-0.234,0.041-0.458,0.151-0.654,0.316c-0.115-0.127-0.243-0.243-0.378-0.347
	c-0.333-0.252-0.711-0.418-1.096-0.479c-0.109-0.018-0.217-0.026-0.324-0.026c-0.312,0-0.616,0.072-0.896,0.213l-0.092-0.396
	c-0.157,0.02-0.331,0.067-0.519,0.136c1.201-0.638,3.25-1.028,4.5-0.633c0.351,0.112,0.602,0.276,0.748,0.489
	C84.773,204.155,84.525,204.395,84.31,204.737z M85.115,207.084c-0.051-0.101-0.093-0.202-0.128-0.3l0.553,0.144
	c0.023-0.06,0.049-0.124,0.077-0.189l0.559,0.011c0.132-0.697,0.499-1.086,0.968-1.06c0.407,0.019,0.793,0.33,0.826,0.666
	c0.1,1.036-0.635,1.363-0.955,1.455C86.365,208,85.478,207.807,85.115,207.084z M90.363,207.624
	c-0.168,0.559-0.491,1.111-0.953,1.634c-0.473,0.503-1.23,0.921-2.25,1.244c-0.159,0.051-0.32,0.097-0.482,0.14l0.007-0.062
	c0.186-0.038,0.371-0.086,0.552-0.143c1.439-0.451,2.512-1.659,2.672-3.004l-0.169-0.032c0.277-0.844,0.142-1.652-0.397-2.28
	c-0.235-0.276-0.533-0.494-0.871-0.639c0.009-0.001,0.018-0.001,0.027-0.001c0.542,0,1.004,0.197,1.354,0.58
	C90.422,205.682,90.632,206.737,90.363,207.624z M95.191,200.381l-0.631,0.101c0.002,0.2-0.01,0.41-0.038,0.628l-0.598,0.096
	c0.118-0.428,0.419-0.906,0.714-0.939c0.073,0.038,0.296,0.151,0.526,0.043c0.013-0.006,0.024-0.012,0.036-0.019
	C95.198,200.321,95.194,200.351,95.191,200.381z M99.274,197.747c-0.25,0.374-0.55,0.736-0.85,1.089
	c0.115-0.462,0.173-0.915,0.118-1.286l-0.743,0.024c-0.025,0.299-0.084,0.62-0.174,0.957c0-0.002-0.001-0.005-0.001-0.007
	l-0.57,0.018c0.158-0.133,0.268-0.318,0.364-0.48l0.136-0.232c0.057-0.099,0.143-0.25,0.184-0.272
	c0.261-0.007,0.624-0.042,0.874-0.168c0.171-0.087,0.285-0.254,0.405-0.431c0.059-0.087,0.122-0.182,0.276-0.236
	c0.024,0.009,0.08,0.03,0.119,0.15C99.496,197.131,99.408,197.546,99.274,197.747z M99.802,199.262
	c0.511-0.73,0.834-1.18,1.348-1.675l0.35,0.26C100.893,198.279,100.318,198.775,99.802,199.262z M149.955,194.576l-0.514,0.124
	c-0.508-0.708-1.001-1.117-1.699-1.266c0.752-0.223,1.431-0.397,2.103-0.568c0.148-0.038,0.295-0.076,0.442-0.114
	c-0.174,0.284-0.294,0.644-0.338,1.104C149.927,194.094,149.931,194.336,149.955,194.576z M161.335,180.876
	c0.661-0.29,1.218-0.166,1.713,0.085c-0.338-0.048-0.72-0.081-1.094-0.063c-0.395,0.017-0.738,0.086-1.029,0.205
	C161.049,181.024,161.185,180.951,161.335,180.876z M162.966,183.109c0.013,0.222-0.042,0.444-0.153,0.63
	c-0.261-0.272-0.635-0.654-0.977-1.004c-0.151-0.154-0.296-0.302-0.421-0.431c0.384-0.237,0.874-0.205,1.21,0.09
	C162.829,182.575,162.95,182.829,162.966,183.109z M160.795,183c0.43,0.461,0.867,0.91,1.323,1.361
	c-0.082,0.043-0.148,0.066-0.191,0.073c-0.653,0.094-1.066-0.408-1.19-0.953C160.7,183.322,160.719,183.164,160.795,183z
	 M157.695,181.699c-0.193,0.112-0.346,0.294-0.404,0.516l-0.019,0.094c-0.066,0.446,0.258,0.885,0.707,0.959
	c0.311,0.054,0.618-0.083,0.809-0.314c-0.061,0.81,0.124,1.575,0.498,2.117l0.012,0.029l-0.129,0.219c-0.01,0-0.021,0-0.031,0
	c-0.118-0.002-0.237-0.004-0.351-0.006c0.03-0.061,0.053-0.126,0.067-0.194v0c0.089-0.44-0.209-0.896-0.652-0.995
	c-0.325-0.072-0.665,0.064-0.866,0.315c0.049-0.823-0.049-1.652-0.292-2.481C157.262,181.867,157.479,181.781,157.695,181.699z
	 M156.165,182.337c0.244,0.849,0.281,1.913,0.099,2.878c-0.572-0.088-1.14-0.189-1.705-0.3c-1.045-0.205-1.545-0.523-1.59-0.557
	C153.036,184.122,154.041,183.305,156.165,182.337z M160.072,199.4c-2.18,1.341-4.552,0.994-7.051-1.035
	c-1.065-0.865-2.587-3.58-1.77-5.272c0.056-0.09,0.377-0.318,0.67-0.455c0.562-0.263,1.694-0.295,2.244-0.31h0.01
	c0.086,0,0.687,0.022,0.874,0.623c0.138,0.442,0.252,0.869,0.367,1.296c0.331,1.23,0.673,2.502,1.568,4.133l0.046,0.085l0.081,0.051
	c0.363,0.23,0.795,0.226,1.051-0.006c0.152-0.139,0.361-0.464,0.045-1.08c-0.415-0.812-0.558-2.708-0.516-4.127
	c0.03-0.993,0.357-1.186,1.034-1.227c1.578-0.094,2.771-0.153,4.333-0.213c0.048,0.003,0.157,0.066,0.202,0.11
	C164.216,193.991,162.556,197.867,160.072,199.4z M162.125,185.388c0.22-0.059,0.455-0.155,0.705-0.299
	c0.084,0.011,0.16,0.001,0.221-0.005c0.03-0.003,0.06-0.008,0.09-0.016c0.019,0.032,0.04,0.063,0.062,0.094
	c0.108,0.152,0.236,0.279,0.376,0.373C163.12,185.532,162.636,185.491,162.125,185.388z M164.507,184.346
	c-0.138,0.123-0.204,0.083-0.243,0.058c-0.104-0.063-0.189-0.205-0.226-0.35l0.219-0.029c-0.002-0.058-0.008-0.118-0.018-0.178
	l0.1-0.018c-0.018-0.22-0.094-0.45-0.187-0.658l0.043-0.02c0.141,0.149,0.238,0.274,0.301,0.369l0.06,0.874L164.507,184.346z
	 M165.041,185.3c0.116-0.126,0.196-0.254,0.25-0.375c0.159-0.011,0.305-0.079,0.412-0.19l0.114-0.154
	c0.056-0.102,0.084-0.221,0.083-0.365c0.262-0.025,0.465-0.149,0.584-0.366l0.017-0.037c0.049-0.002,0.113-0.002,0.168-0.005
	c0.243-0.014,0.433-0.064,0.573-0.151C166.642,184.465,165.908,185.014,165.041,185.3z M167.264,180.144
	c-0.26,0.009-0.498,0.105-0.691,0.272c0.001-0.167-0.022-0.333-0.074-0.491c-0.108-0.329-0.347-0.625-0.577-0.911
	c-0.128-0.159-0.26-0.32-0.365-0.488c-0.135-0.217-0.244-0.404-0.324-0.58c0.292,0.336,0.656,0.595,0.995,0.814
	c0.419,0.27,0.828,0.624,1.215,1.052c0.122,0.135,0.227,0.274,0.316,0.415C167.6,180.168,167.442,180.139,167.264,180.144z
	 M167.479,177.783c-0.098-0.054-0.18-0.097-0.231-0.132c-0.23-0.159-0.52-0.419-0.592-0.755c-0.069-0.326-0.027-0.508,0.118-0.667
	l0.142,0.215c-0.097,0.217-0.128,0.55,0.232,0.951c0.174,0.191,0.512,0.468,0.587,0.525c0.016,0.013,0.033,0.024,0.049,0.035
	C167.673,177.889,167.569,177.833,167.479,177.783z M173.899,177.696c-0.105-0.148-0.232-0.297-0.373-0.446l0.075-0.083
	c0.08,0.087,0.16,0.179,0.24,0.278c0.411,0.509,0.782,1.405,0.693,1.792c-0.074-0.08-0.166-0.187-0.256-0.293
	c-0.132-0.153-0.293-0.34-0.494-0.563c-0.095-0.105-0.193-0.208-0.292-0.31L173.899,177.696z M174.821,180.989
	c-0.004,0.007-0.008,0.014-0.011,0.021c-0.102,0.186-0.206,0.378-0.443,0.548c-0.333,0.24-0.887,0.312-1.604,0.211
	c-0.053-0.007-0.106-0.018-0.157-0.03l0.113-0.438c0,0,0.001,0,0.001,0C173.617,181.432,174.326,181.2,174.821,180.989z
	 M173.286,169.748c0.133-0.206,0.271-0.245,0.4-0.256c0.023-0.002,0.046-0.003,0.07-0.003c0.333,0,0.682,0.189,0.854,0.328
	c-0.057,0.018-0.117,0.048-0.18,0.088c-0.151-0.103-0.357-0.133-0.562-0.074c-0.288,0.082-0.475,0.303-0.477,0.564
	c0,0.012,0,0.023,0.001,0.035C173.252,170.25,173.19,169.896,173.286,169.748z M173.16,180.156l-0.003-0.224l0.404-0.007
	c0.174,0.138,0.333,0.253,0.482,0.339c-0.238,0.094-0.495,0.169-0.796,0.194c-0.176,0.022-0.527-0.089-0.87-0.265
	C172.684,180.176,172.971,180.161,173.16,180.156z M171.345,170.645c0.241-0.345,0.658-0.869,0.842-1.099
	c-0.025,0.094-0.038,0.188-0.037,0.281c0.001,0.152,0.021,0.292,0.04,0.422c0.015,0.106,0.036,0.25,0.017,0.287
	c-0.047,0.092-0.214,0.296-0.387,0.439c-0.327-0.095-0.514-0.096-0.783,0.133C171.142,170.946,171.251,170.781,171.345,170.645z
	 M168.704,178.01l-0.028-0.138c0.022-0.02,0.042-0.039,0.061-0.06l0.155,0.043l-0.029-0.112l0.14,0.056l-0.052-0.189
	c0.036-0.036,0.072-0.072,0.109-0.109l0.688,0.26l-0.304-0.415c0.188,0.133,0.412,0.297,0.606,0.452l0.263,0.214L168.704,178.01z
	 M169.584,183.096c0.219-0.589,0.304-1.2,0.255-1.821c0.116-0.02,0.242-0.049,0.363-0.091l0.126-0.043
	c0.21,0.735,0.561,1.3,1.043,1.678c-0.053,0-0.107,0-0.164-0.001l-0.086,0.739c0.384,0.087,0.785,0.168,1.203,0.179l0.04,0.265
	c0.26-0.004,0.5-0.024,0.735-0.064l0.057,0.202c-0.943-0.097-1.825-0.109-2.474-0.112l0-0.074c-0.106-0.007-0.252-0.013-0.421-0.017
	l0.041-0.596c-0.045-0.009-0.166-0.034-0.766-0.082C169.554,183.204,169.57,183.149,169.584,183.096z M175.559,184.138
	c-0.595,0.004-1.159,0.011-1.538-0.007l-0.07,0.744c0.06,0.008,0.127,0.017,0.199,0.026l-0.056,0.57c-0.011,0-0.021,0-0.032,0
	l-0.544,0.01l-0.01,0.245c-0.383,0.011-0.708,0.021-0.81,0.022l-0.014,0.168c-0.288,0.003-0.511,0-0.59,0.005l-0.002,0.115
	c-0.147-0.005-0.295-0.011-0.444-0.017l0.001-0.251c-0.346-0.035-1.167-0.078-2.041-0.123l-0.013-0.087
	c0.268,0.004,0.51-0.001,0.695-0.011l-0.018-0.7c1.023,0.054,2.179,0.113,3.108,0.063l0.024-0.745
	c-0.056-0.006-0.113-0.013-0.169-0.019c0.43-0.074,0.794-0.199,1.121-0.331l0.046,0.12c0.333-0.052,0.693-0.152,1.037-0.288
	c0.041,0.181,0.098,0.343,0.169,0.489L175.559,184.138z M178.654,180.113c-0.1-0.591-0.189-1.011-0.351-1.594
	c0.307,0.639,0.579,1.333,0.73,2.003C178.932,180.352,178.804,180.213,178.654,180.113z"/>
</svg>
