<svg width="400" height="400" viewBox="0 0 400 400" fill="none" xmlns="http://www.w3.org/2000/svg">
<path fill-rule="evenodd" clip-rule="evenodd" d="M345.756 177.07C344.32 177.343 310.278 177.571 270.109 177.575C229.94 177.58 196.912 177.744 196.715 177.941C195.666 178.989 198.481 179.278 209.657 179.266C220.875 179.254 221.643 179.324 218.252 180.041C216.204 180.473 211.15 180.875 207.02 180.934C196.153 181.089 196.248 181.043 196.248 186.156V190.362L199.512 190.83C202.792 191.3 227.734 191.673 234.441 191.352C239.269 191.121 243.991 191.121 295.453 191.351C329.144 191.503 339.878 191.365 340.073 190.779C340.424 189.727 338.913 188.008 338.086 188.52C337.719 188.747 338.085 188.03 338.899 186.929C340.551 184.695 342.713 183.905 345.499 184.517C348.964 185.278 350 184.456 350 180.947C350 177.144 349.2 176.413 345.756 177.07ZM290.915 179.716C285.469 180.465 264.246 180.557 264.005 179.834C263.892 179.492 270.355 179.229 279.32 179.21C290.067 179.188 293.629 179.344 290.915 179.716ZM343.138 179.709C343.376 179.946 342.96 180.333 342.215 180.569C341.47 180.806 340.86 181.452 340.86 182.004C340.86 182.711 340.52 182.865 339.718 182.526C339.089 182.26 337.693 182.047 336.616 182.052C335.179 182.059 335.049 181.983 336.126 181.767C339.115 181.169 337.464 180.258 333.39 180.258C329.239 180.258 327.044 181.203 329.914 181.755C330.728 181.911 329.63 182.059 327.476 182.082C324.744 182.112 323.954 181.955 324.865 181.564C325.815 181.155 325.194 180.988 322.579 180.948C318.642 180.888 315.92 180.342 316.324 179.694C316.667 179.142 342.583 179.156 343.138 179.709ZM263.168 180.911C263.168 181.303 260.569 181.564 256.678 181.564C253.055 181.564 250.009 181.276 249.784 180.911C249.525 180.492 251.844 180.258 256.274 180.258C260.434 180.258 263.168 180.517 263.168 180.911ZM236.734 184.898C236.146 186.431 231.176 186.364 231.176 184.823C231.176 183.884 231.742 183.553 233.625 183.393C236.424 183.155 237.25 183.554 236.734 184.898ZM307.563 184.868C307.563 186.676 302.807 186.487 302.461 184.665C302.283 183.728 302.724 183.523 304.904 183.523C307.154 183.523 307.563 183.729 307.563 184.868Z" fill="#FF0000"/>
<path fill-rule="evenodd" clip-rule="evenodd" d="M168.131 171.624C166.312 173.68 164.649 175.833 164.434 176.408C164.154 177.16 162.788 177.582 159.581 177.906C152.878 178.585 147.717 179.932 136.872 183.838C124.641 188.242 122.339 188.768 120.188 187.652C118.229 186.637 116.287 186.565 114.028 187.423C112.94 187.838 112.353 187.838 112.353 187.423C112.353 186.636 108.645 186.574 108.163 187.352C107.972 187.664 107.073 187.776 106.166 187.603C105.187 187.415 104.519 187.589 104.519 188.029C104.519 188.49 103.913 188.619 102.924 188.37C102.047 188.15 100.944 188.209 100.475 188.501C100.006 188.793 98.9894 188.95 98.2152 188.85C97.4419 188.75 96.6247 188.966 96.3994 189.332C96.1733 189.696 95.5584 189.829 95.0306 189.626C94.5036 189.424 93.5587 189.475 92.9297 189.739C92.3016 190.003 91.0532 190.328 90.155 190.462C89.2576 190.596 87.9354 190.79 87.2175 190.895C86.4996 191 85.3243 191.288 84.6055 191.537C83.8876 191.786 76.7282 193.009 68.6952 194.255C52.6705 196.74 52.14 196.954 50.8706 201.417C48.958 208.147 50.4289 228.017 53.0321 230.621C55.0133 232.601 56.7755 232.105 68.0178 226.4C77.8041 221.434 92.0288 214.861 92.9904 214.861C93.2077 214.861 95.4493 213.856 97.9724 212.628C100.496 211.4 102.56 210.553 102.56 210.745C102.56 210.936 103.298 210.61 104.201 210.018C107.415 207.913 142.003 194.821 146.14 194.145C147.306 193.954 148.262 193.542 148.262 193.231C148.262 192.918 148.575 192.663 148.958 192.663C149.363 192.663 149.477 193.223 149.23 194C148.353 196.764 153.165 201.146 157.075 201.146C159.352 201.146 163.528 198.819 162.945 197.876C162.727 197.522 162.829 197.233 163.175 197.233C163.52 197.233 164.372 196.131 165.068 194.784C166.733 191.563 170.531 190.748 183.637 190.797C194.998 190.84 194.616 191.004 194.616 186.079C194.616 181.811 193.361 180.544 189.952 181.369C188.786 181.651 188.587 181.554 189.132 180.967C189.527 180.54 190.556 180.155 191.417 180.109C193.115 180.02 194.616 179.133 194.616 178.219C194.616 177.904 191.401 177.647 187.472 177.647C179.068 177.647 178.471 177.197 182.319 173.769C184.942 171.432 185.592 169.088 183.031 171.203C182.4 171.722 180.783 172.646 179.437 173.255C177.594 174.087 176.988 174.75 176.988 175.928C176.988 176.987 176.528 177.614 175.569 177.866C174.005 178.275 173.071 177.919 173.071 176.917C173.071 176.558 173.35 176.436 173.691 176.647C174.032 176.858 174.632 176.43 175.025 175.696C175.59 174.641 175.529 174.283 174.731 173.976C173.433 173.478 173.437 171.798 174.739 170.846C176.187 169.787 175.31 168.15 173.217 168.008C171.802 167.911 170.763 168.65 168.131 171.624ZM174.283 180.187C174.901 180.578 174.95 180.883 174.446 181.195C173.618 181.706 172.418 181.13 172.418 180.22C172.418 179.461 173.117 179.448 174.283 180.187ZM174.312 183.35C175.84 182.951 176.085 183.512 174.899 184.698C173.352 186.245 168.944 185.696 169.395 184.013C169.611 183.204 169.803 181.956 169.821 181.238C169.849 180.087 170.037 180.157 171.397 181.82C172.505 183.175 173.328 183.607 174.312 183.35ZM162.368 182.597C162.15 183.165 161.972 183.77 161.972 183.941C161.972 184.112 161.691 184.079 161.347 183.867C160.59 183.399 161.198 181.564 162.112 181.564C162.471 181.564 162.586 182.029 162.368 182.597ZM156.096 183.523C156.096 184.968 155.605 185.129 154.138 184.166C153.267 183.594 153.267 183.451 154.138 182.879C155.605 181.916 156.096 182.077 156.096 183.523ZM166.697 184.282C166.06 184.919 163.93 184.35 163.93 183.544C163.93 183.273 164.686 183.195 165.609 183.371C166.606 183.562 167.047 183.931 166.697 184.282ZM163.116 192.11C163.677 192.67 163.682 193.213 163.136 194.232C162.734 194.985 162.417 195.748 162.434 195.927C162.641 198.245 157.701 200.397 154.865 199.223C152.33 198.172 150.347 194.102 151.708 192.742C153.134 191.315 154.671 191.954 155.443 194.295C156.211 196.622 158.232 197.518 158.021 195.438C157.751 192.784 158.102 192.09 159.85 191.825C160.838 191.675 161.807 191.509 162.004 191.455C162.202 191.401 162.702 191.695 163.116 192.11ZM99.2956 197.216C99.2956 197.566 98.4141 198.308 97.3373 198.865C95.0543 200.046 94.6962 199.174 96.8472 197.673C98.5707 196.471 99.2956 196.335 99.2956 197.216ZM73.0139 204.146C72.7808 204.38 72.1139 204.095 71.5324 203.513C70.9518 202.932 70.2119 202.456 69.8899 202.456C69.5679 202.456 69.4835 201.989 69.7016 201.42C70.0368 200.548 70.3623 200.647 71.7682 202.053C72.6866 202.971 73.247 203.913 73.0139 204.146ZM80.9677 200.987C80.8982 201.713 76.4502 205.29 76.079 204.919C75.9039 204.744 76.7045 203.678 77.8587 202.549C79.8883 200.564 81.0654 199.973 80.9677 200.987ZM84.1164 203.598C84.287 204.11 83.7609 204.415 82.7017 204.415C81.0539 204.415 80.5551 203.787 81.4727 202.868C82.1448 202.197 83.8023 202.655 84.1164 203.598ZM65.9988 207.703C65.9988 208.126 65.551 208.3 65.0047 208.09C63.7871 207.622 64.6747 209.574 66.29 210.914C68.0987 212.415 67.365 212.792 64.9897 211.581C63.7167 210.932 62.3056 210.095 61.8543 209.72C61.4038 209.346 60.3886 209.209 59.5995 209.415C58.754 209.635 58.1646 209.49 58.1646 209.061C58.1646 208.66 58.4857 208.332 58.8772 208.332C59.2696 208.332 60.3323 207.748 61.2393 207.035C62.1463 206.321 63.1475 205.898 63.4642 206.094C63.7809 206.29 64.0404 206.118 64.0404 205.713C64.0404 205.271 64.4337 205.368 65.0196 205.954C65.558 206.492 65.9988 207.279 65.9988 207.703ZM87.8245 205.647C88.326 206.459 86.4477 207.886 85.582 207.351C85.0727 207.036 85.0876 206.647 85.6331 205.989C86.5084 204.934 87.3072 204.809 87.8245 205.647ZM90.155 206.62C90.155 207.474 89.7054 208.545 89.1556 209.002C88.2855 209.723 88.231 209.627 88.7351 208.266C89.0544 207.404 89.1855 206.333 89.028 205.883C88.8697 205.435 89.0588 205.068 89.4477 205.068C89.8374 205.068 90.155 205.766 90.155 206.62ZM68.5896 208.249C68.572 209.141 68.4154 209.108 67.6105 208.044C66.363 206.394 66.3762 205.332 67.6307 206.373C68.17 206.82 68.6011 207.664 68.5896 208.249ZM82.0102 207.075C82.2469 207.82 82.2733 208.597 82.0701 208.8C81.5255 209.345 79.7097 207.667 79.7097 206.62C79.7097 205.208 81.5317 205.569 82.0102 207.075ZM72.8221 211.427C72.3057 212.418 71.8808 213.596 71.879 214.045C71.8764 214.493 71.6081 214.861 71.2834 214.861C70.95 214.861 70.9975 213.862 71.3925 212.576C72.1245 210.19 71.5746 208.663 70.5691 210.291C70.2488 210.808 69.7509 210.98 69.4624 210.672C69.1729 210.364 69.304 209.98 69.7527 209.82C70.2013 209.66 70.5779 208.745 70.5893 207.788L70.6104 206.047L72.1861 207.837C73.6456 209.495 73.6922 209.759 72.8221 211.427ZM78.2836 211.247C78.1701 211.342 77.3423 211.796 76.4449 212.256C74.8174 213.09 74.8156 213.088 76.0429 211.706C76.7185 210.944 77.5464 210.49 77.8816 210.698C78.2168 210.905 78.3971 211.152 78.2836 211.247ZM63.0842 214.245C63.7466 215.318 62.8158 218.125 61.7971 218.125C61.2956 218.125 60.7475 218.493 60.5804 218.941C60.3736 219.495 59.7789 219.245 58.7303 218.163C57.8804 217.287 57.686 216.944 58.2992 217.404C59.4649 218.276 61.0642 217.814 60.4299 216.788C59.9804 216.06 61.2481 213.555 62.0663 213.555C62.3909 213.555 62.8493 213.865 63.0842 214.245Z" fill="#0000FF"/>
</svg>
