<svg width="400" height="400" viewBox="0 0 400 400" fill="none" xmlns="http://www.w3.org/2000/svg">
<path fill-rule="evenodd" clip-rule="evenodd" d="M245.787 74.1841C243.828 76.2967 242.853 76.5694 236.247 76.8468C222.341 77.4305 221.509 77.5746 219.134 79.8062C216.69 82.1014 216.245 84.2309 217.866 85.8535C219.788 87.774 217.99 89.9275 214.969 89.3234C212.991 88.9282 211.517 89.2729 209.72 90.5521C208.118 91.6931 205.791 92.3308 203.229 92.3308C198.254 92.3308 195.385 95.5353 197.246 99.0135C198.043 100.5 198.067 101.497 197.339 102.857C196.152 105.074 195.991 128.874 197.163 128.874C197.607 128.874 198.972 127.164 200.197 125.074C203.733 119.04 216.987 107.483 220.37 107.483C220.851 107.483 221.645 108.987 222.133 110.826C226.045 125.532 223.348 147.193 216.335 157.387C211.909 163.82 210.353 174.597 210.479 197.952C210.592 218.766 210.878 220.454 215.265 226.201C221.781 234.739 229.017 253.04 232.65 270.176C233.131 272.45 222.96 281.245 210.643 289.205C201.327 295.225 199.922 295.663 199.922 292.544C199.922 291.38 199.671 289.173 199.365 287.642C198.657 284.11 200.22 283.955 203.629 287.22C205.69 289.195 206.323 289.397 207.466 288.448C209.693 286.599 209.062 285.116 205.112 282.917C200.131 280.145 200.098 279.424 204.812 276.445C207.024 275.047 208.835 273.346 208.835 272.666C208.835 270.087 206.209 270.615 201.496 274.14L196.612 277.791L196.043 284.534C195.729 288.243 195.715 291.67 196.013 292.151C196.309 292.631 196.488 301.178 196.412 311.144C196.315 323.52 196.582 329.457 197.252 329.871C198.707 330.77 204.103 326.733 205.896 323.406C207.774 319.924 208.261 319.868 211.671 322.737C216.946 327.176 222.388 322.009 219.764 315.055C218.545 311.825 221.315 308.729 223.817 310.526C228.738 314.062 232.901 313.313 232.901 308.894C232.901 307.601 233.535 307.429 236.909 307.81C241.763 308.357 244.142 304.575 243.352 297.565C242.822 292.856 245.821 289.713 250.039 290.557C253.5 291.249 255.943 287.677 254.37 284.225C252.465 280.044 255.811 277.76 259.407 280.786C265.062 285.544 269.19 281.793 268.08 272.907C267.223 266.051 271.922 262.27 277.09 265.655C280.018 267.575 283.248 265.796 284.131 261.777C284.449 260.326 285.687 258.498 286.882 257.715C289.778 255.819 289.621 253.663 286.378 250.818C283.011 247.864 283.591 246.126 288.457 244.587C294.432 242.695 293.609 231.394 287.388 229.905C286.098 229.596 283.786 227.996 282.249 226.35C278.913 222.775 276.928 222.598 273.708 225.583C270.417 228.635 270.136 228.52 266.5 222.631C263.408 217.622 258.481 212.534 251.138 206.768L247.608 203.997L247.688 195.181C247.822 180.624 249.11 175.309 255.572 162.685C267.294 139.786 269.706 131.894 270.807 112.83C271.41 102.411 271.413 102.864 270.738 100.145C269.75 96.1622 270.762 94.578 273.201 96.2859C276.816 98.8177 281.032 96.842 281.032 92.6155C281.032 91.6234 282.235 89.5528 283.706 88.0142C287.024 84.542 287.02 84.2093 283.613 80.3287C280.568 76.86 278.869 76.4745 275.873 78.5715C273.21 80.438 270.849 79.5324 268.648 75.8019C266.7 72.499 264.969 71.9333 263.23 74.0291C261.93 75.5953 254.989 75.0032 251.873 73.0599C249.115 71.3424 248.277 71.4973 245.787 74.1841ZM261.667 96.5081C266.132 97.1975 266.242 97.487 266.091 108.193C265.776 130.603 264.078 136.872 251.611 161.683C246.714 171.428 244.995 175.845 244.331 180.401C243.853 183.681 243.034 188.442 242.51 190.981C241.978 193.563 241.858 197.097 242.238 199.003C242.61 200.876 242.884 203.513 242.846 204.863C242.796 206.608 243.475 207.756 245.192 208.837C254.85 214.917 264.098 224.928 264.096 229.299C264.095 231.509 259.037 242.073 257.98 242.073C257.515 242.073 256.123 240.346 254.887 238.235C249.047 228.27 241.511 219.237 234.965 214.353C231.413 211.704 230.329 210.337 230.277 208.441C230.238 207.085 230.183 205.372 230.153 204.637C229.49 188.251 233.061 169.978 239.11 158.789C243.585 150.511 247.924 140.189 248.686 136.005C250.961 123.522 250.852 109.704 248.421 102.327C247.728 100.227 247.162 98.1776 247.162 97.774C247.162 96.7651 254.329 95.0885 256.521 95.5845C257.501 95.8067 259.818 96.2223 261.667 96.5081ZM199.922 137.493C195.016 140.858 194.929 145.112 199.672 149.719C203.564 153.498 205.033 153.749 205.782 150.762C206.498 147.91 205.871 147.044 202.614 146.393C198.961 145.663 198.981 142.778 202.651 140.879C204.36 139.995 205.273 138.908 205.092 137.97C204.69 135.882 202.556 135.685 199.922 137.493ZM199.108 159.697C194.401 163.657 196.972 174.311 202.383 173.269C204.8 172.804 204.812 169.996 202.401 169.08C196.84 166.966 197.521 163.399 203.728 162.129C206.767 161.507 207.542 160.398 206.128 158.695C204.534 156.775 202.181 157.11 199.108 159.697ZM198.411 179.172C195.458 181.732 196.481 184.195 199.767 182.437C200.768 181.901 202.416 181.463 203.428 181.463C205.464 181.463 205.858 179.734 204.2 178.076C202.615 176.491 201.198 176.759 198.411 179.172ZM196.715 186.951C196.415 187.437 197.1 188.824 198.236 190.033C200.489 192.432 203.75 192.579 204.182 190.302C204.503 188.621 197.599 185.521 196.715 186.951ZM199.699 197.365C194.658 202.48 197.094 209.985 203.794 209.985C206.697 209.985 205.627 205.556 202.577 204.946C198.71 204.172 198.641 203.363 202.209 200.641C204.363 198.999 205.284 197.638 205.098 196.378C204.666 193.461 203.3 193.712 199.699 197.365ZM201.962 215.239C201.367 216.197 199.963 217.113 198.841 217.272C192.441 218.18 197.747 232.268 204.49 232.268C208.422 232.268 207.1 228.725 202.33 226.485C198.136 224.514 198.307 222.898 203.046 219.68C205.023 218.336 206.606 216.536 206.606 215.629C206.606 213.352 203.301 213.074 201.962 215.239ZM200.813 234.912C200.077 235.348 198.774 235.922 197.916 236.186C194.565 237.223 195.807 245.138 199.68 247.422C201.791 248.669 203.44 249.107 204.205 248.624C206.225 247.35 205.702 246.165 202.294 244.301C197.646 241.759 198.241 240.216 204.666 238.145C205.612 237.841 206.168 236.967 205.995 236.059C205.662 234.316 202.862 233.697 200.813 234.912ZM201.828 252.798C200.67 253.763 199.21 254.552 198.582 254.552C197.189 254.552 196.356 256.535 196.356 259.851C196.356 264.04 205.168 269.118 206.485 265.688C206.832 264.785 205.785 263.578 203.289 262.003L199.577 259.66L201.631 257.996C202.76 257.082 204.455 256.334 205.397 256.334C207.556 256.334 208.489 254.054 207.043 252.312C205.592 250.564 204.375 250.677 201.828 252.798Z" fill="#FF0000"/>
<path fill-rule="evenodd" clip-rule="evenodd" d="M129.132 71.0962C128.189 71.6426 125.992 72.1315 124.248 72.1831C121.753 72.2564 120.699 72.8533 119.296 74.9924C118.316 76.4865 116.302 78.3265 114.821 79.0796C108.768 82.1579 111.786 92.3308 118.754 92.3308C122.508 92.3308 123.324 93.7829 121.684 97.5494C116.104 110.364 121.832 136.049 135.304 158.626C141.996 169.839 147.223 185.749 147.95 197.114L148.467 205.188L144.001 208.396C139.21 211.838 130.361 222.877 128.148 228.17L126.798 231.404L124.199 229.483C118.905 225.569 111.182 228.461 112.119 234.006C112.572 236.688 112.289 237.571 110.415 239.332C104.792 244.614 106.43 253.661 113.008 253.661C114.54 253.661 115.536 254.554 116.732 257.002C117.742 259.069 119.472 260.832 121.263 261.62C124.469 263.031 124.796 264.064 122.85 266.637C120.243 270.085 122.402 275.891 127.004 277.796C128.38 278.366 129.507 279.305 129.507 279.884C129.507 282.283 131.482 283.019 134.176 281.626C138.57 279.355 141.727 283.524 137.975 286.639C134.608 289.433 139.209 296.108 143.805 295.098C145.69 294.684 146.49 295.047 147.67 296.847C149.295 299.327 150.921 299.675 153.467 298.085C156.538 296.168 158.028 297.73 158.043 302.877C158.059 308.799 159.657 312.12 162.348 311.824C163.566 311.69 164.54 312.205 164.878 313.161C166.559 317.927 169.598 319.422 173.485 317.396C177.543 315.278 179.855 317.042 179.471 321.961C179.186 325.603 183.3 329.137 186.443 327.952C188.764 327.078 189.448 327.177 191.136 328.641C194.741 331.768 195.02 330.637 195.02 312.893V296.066L192.792 295.044C178.529 288.508 170.585 282.855 163.581 274.261C160.586 270.587 159.817 269.018 160.304 267.576C160.654 266.541 161.018 264.489 161.112 263.019C161.717 253.706 171.968 227.403 177.311 221.453C178.756 219.844 178.596 203.682 176.911 181.017C175.661 164.203 174.493 159.134 169.507 148.873C163.161 135.819 161.517 111.022 166.541 104.152C169.102 100.651 181.917 110.713 189.229 121.965C192.683 127.282 193.178 129.04 192.8 134.668C192.56 138.254 192.47 138.286 188.804 136.021C184.889 133.6 182.76 134.177 183.149 137.552C183.339 139.191 184.021 140.092 185.215 140.277C190.964 141.168 192.763 145.119 188.406 147.282C185.46 148.746 184.353 150.918 185.716 152.561C186.671 153.713 187.054 153.707 188.875 152.515C191.725 150.647 191.69 150.613 192.036 155.615C192.207 158.066 192.229 160.072 192.087 160.072C191.944 160.072 190.634 159.189 189.176 158.11C185.338 155.273 181.905 158.113 185.661 161.019C190.424 164.707 190.349 164.577 188.745 166.35C187.926 167.254 186.396 168.116 185.345 168.267C182.898 168.615 182.195 172.301 184.411 173.152C185.277 173.484 187.129 173.077 188.606 172.229C191.773 170.41 191.554 170.211 192.118 175.446C192.608 180.014 191.427 181.091 189.432 177.898C188.092 175.75 186.297 175.611 184.705 177.529C183.695 178.746 184.006 179.341 186.926 181.793C190.585 184.866 190.399 185.618 185.351 188.136C182.973 189.32 182.374 191.979 184.314 192.724C185.54 193.194 187.111 192.702 191.091 190.6C191.382 190.446 191.582 191.938 191.536 193.915C191.442 198.032 191.409 198.058 188.087 196.543C186.279 195.72 185.346 195.682 184.627 196.401C183.123 197.905 184.439 200.158 187.431 201.202C191.099 202.48 190.801 204.253 186.552 206.419C182.8 208.334 182.12 209.94 184.296 211.745C185.351 212.62 186.068 212.468 187.981 210.963C191.527 208.174 192.608 208.599 193.274 213.042C194.099 218.548 193.315 219.319 189.515 216.736C183.772 212.834 181.798 215.815 187.15 220.308C191.039 223.574 190.763 225.478 186.118 227.419C183.011 228.717 181.869 231.472 183.915 232.736C184.424 233.052 184.61 234.038 184.328 234.929C183.94 236.153 184.636 236.949 187.189 238.196C191.349 240.228 191.511 242.159 187.608 243.17C184.409 243.999 184.015 246.029 186.723 247.733C187.873 248.459 188.65 248.303 190.009 247.073C191.893 245.367 193.683 245.779 193.683 247.919C193.683 248.626 194.102 249.203 194.615 249.203C196.408 249.203 195.256 237.234 193.429 236.885C192.554 236.718 190.84 235.583 189.618 234.363L187.4 232.144L189.427 230.452C190.542 229.523 192.113 228.749 192.919 228.733C195.422 228.682 195.464 227.548 195.442 159.397C195.419 87.9062 195.606 90.5473 190.591 90.5473C188.851 90.5473 187.084 89.8459 186.106 88.7649C185.219 87.7848 183.563 86.9825 182.425 86.9825C181.05 86.9825 179.915 86.125 179.031 84.4171C177.374 81.2103 175.86 80.6109 172.125 81.6823C168.046 82.8521 168.047 82.8521 167.377 79.799C166.661 76.5405 163.97 75.2662 159.378 76.0121C156.76 76.4373 155.899 76.1862 154.856 74.6969C153.569 72.8605 153.563 72.8605 148.69 74.572C141.5 77.099 139.591 76.8612 137.411 73.1668C135.445 69.835 132.551 69.1108 129.132 71.0962ZM138.764 95.7322C139.012 96.1322 138.589 100.043 137.824 104.422C134.827 121.587 139.819 144.864 148.874 155.945C154.22 162.487 158.865 180.784 159.565 198.054L160.076 210.663L157.735 212.196C153.829 214.755 143.115 229.966 140.614 236.502C138.731 241.423 138.344 241.309 135.301 234.941C131.825 227.67 136.595 219.184 148.931 210.697L152.932 207.945L152.416 197.6C151.763 184.55 147.016 168.755 140.431 157.734C134.282 147.441 129.863 138.104 128.249 131.995C127.472 129.053 126.206 124.44 125.435 121.744C122.862 112.743 125.315 96.6955 129.432 95.5905C132.012 94.8975 138.308 94.9936 138.764 95.7322ZM185.704 252.271C184.83 253.323 185.292 253.968 188.268 255.846C192.704 258.646 192.772 259.445 188.78 261.8C185.399 263.795 184.897 265.287 187.014 267.044C188.121 267.962 188.68 267.885 190.077 266.62C192.549 264.384 193.683 265.634 193.683 270.595C193.683 276.084 192.649 276.735 189.771 273.058C187.578 270.256 187.446 270.211 185.912 271.783C184.384 273.348 184.473 273.54 188.271 276.843C192.674 280.673 192.429 282.425 187.332 283.544C184.412 284.185 184.13 286.21 186.731 287.849C187.938 288.608 188.94 288.244 191.634 286.065L195.02 283.327L195.277 271.391C195.59 256.777 195.472 256.274 191.043 253.342C186.874 250.583 187.071 250.623 185.704 252.271Z" fill="#0000FF"/>
</svg>
