<svg width="400" height="400" viewBox="0 0 400 400" fill="none" xmlns="http://www.w3.org/2000/svg">
<path style="fill:#0000FF;" d="M198.748,294.578c-0.987,0.332-1.981-0.057-3.039-0.344c-6.479-1.751-11.844-5.547-17.176-9.468
	c-4.989-3.669-8.92-8.455-13.303-12.766c-2.103-2.068-1.774-4.67-1.385-7.014c0.584-3.519,1.033-7.075,1.987-10.545
	c3.155-11.489,7.261-22.534,13.819-32.506c1.105-1.679,1.675-3.557,1.66-5.628c-0.066-9.583,0.444-19.193-1.391-28.687
	c-0.117-0.603-0.1-1.246-0.064-1.865c0.513-8.649-1.181-17.059-2.465-25.533c-0.557-3.676-2.018-6.731-3.856-9.842
	c-3.89-6.585-5.373-13.888-6.43-21.509c-1.204-8.684,0.799-16.741,2.499-24.963c0.098-0.474,0.332-0.925,0.543-1.368
	c0.103-0.217,0.3-0.387,0.812-1.02c5.332,3.306,11.492,5.333,15.584,10.843c2.417,3.255,5.148,6.236,7.226,9.789
	c3.722,6.363,4.155,8.203,2.565,15.734c-2.094-0.697-3.646-2.37-5.624-3.145c-1.072-0.42-2.463-1.257-3.349,0.035
	c-0.776,1.133-0.598,2.676-0.081,3.948c0.508,1.25,1.549,1.216,2.774,0.907c2.876-0.723,3.711,2.191,5.654,3.311
	c-1.229,1.775-2.161,3.56-4.089,4.316c-2.446,0.958-2.859,2.744-2.154,5.129c2.853,0.939,4.02-2.426,6.764-2.739
	c0.355,3.421,0.142,6.68-0.035,10.309c-1.693-0.599-2.414-1.972-3.491-2.841c-1.311-1.056-2.66-1.395-3.861,0.038
	c-1.023,1.222-0.382,2.828,1.554,3.676c1.733,0.757,3.097,1.921,4.444,3.371c-1.5,1.876-3.039,3.49-5.701,3.32
	c-1.11-0.071-1.764,0.781-2.04,1.816c-0.317,1.187,0.035,2.227,0.953,3.018c0.881,0.759,1.822,0.597,2.693-0.016
	c1.767-1.243,3.508-2.526,5.541-3.996c0,4.173,0,7.915,0,11.986c-1.672-0.776-2.488-2.012-3.487-3.031
	c-2.264-2.312-2.836-2.215-5.001,0.892c1.571,2.522,5.142,2.797,6.43,5.766c-1.347,3.081-4.623,3.473-7.146,4.797
	c0.787,4.021,2.146,4.65,5.007,2.443c1.131-0.872,2.139-1.909,3.54-3.175c0,3.561,0,6.615,0,9.848
	c-1.683-0.07-2.778-1.307-4.088-2.056c-1.449-0.828-2.995-1.062-3.673,0.76c-0.641,1.723,0.451,2.89,2.15,3.162
	c1.995,0.32,3.624,1.18,5.133,2.897c-2.09,1.411-3.333,3.783-6.152,3.814c-1.321,0.014-1.84,1.092-1.963,2.29
	c-0.088,0.853-0.139,1.739,0.806,2.283c1.155,0.664,2.074,0.154,3.01-0.475c1.796-1.208,3.266-2.936,5.503-3.757
	c0.394,4.096,1.419,7.951,0.595,12.226c-2.112-1.069-3.661-2.636-5.389-3.93c-0.759-0.568-1.489-1.356-2.595-0.696
	c-0.807,0.48-1.27,1.133-1.217,2.119c0.074,1.37,0.846,1.878,2.112,2.063c2.557,0.374,3.608,2.668,5.379,4.337
	c-1.799,2.055-3.627,3.697-6.017,4.332c-1.241,0.33-2.001,0.79-2.179,2.068c-0.124,0.895-0.024,1.713,0.801,2.318
	c0.76,0.557,1.377,0.214,1.996-0.188c1.739-1.131,3.482-2.255,5.183-3.442c0.696-0.486,1.288-1.133,2.713-1.121
	c0.252,3.384,0.726,6.576-0.679,9.802c-1.513-0.743-2.784-1.793-4.068-2.879c-2.635-2.23-3.795-1.811-5.21,1.92
	c2.437,1.598,5.932,1.582,7.554,4.815c-1.617,1.965-3.897,2.72-6.403,2.669c-0.822,1.609-0.542,2.764,0.709,3.733
	c1.366,1.056,2.437,0.3,3.645-0.414c1.146-0.678,2.059-1.785,3.787-2.088c0.072,3.342,1.567,6.518,0.66,9.99
	c-1.968-0.205-2.951-1.732-4.191-2.881c-1.203-1.116-2.619-1.689-3.73-0.116c-1.253,1.774,0.124,2.559,1.534,3.332
	c1.897,1.038,3.698,2.263,5.719,3.519c-1.811,1.555-3.229,3.014-5.298,3.648c-2.199,0.673-2.875,2.135-1.586,4.184
	c3.008,1.579,4.327-1.359,6.693-2.693c0.601,4.045,0.294,7.829,0.345,11.811c-2.231-0.236-3.479-1.371-4.237-3.219
	c-0.427-1.041-0.826-2.094-2.282-1.964c-1.139,0.102-1.811,0.707-2.073,1.768c-0.348,1.41,0.286,2.408,1.45,3.107
	c2.197,1.321,4.314,2.756,6.426,4.585c-1.601,1.565-2.768,3.365-5.35,3.355c-1.606-0.006-2.332,1.291-1.798,2.922
	c0.623,1.905,1.985,2.038,3.484,1.137c1.768-1.063,3.462-2.254,5.486-3.586c0.156,0.816,0.293,1.616,0.421,2.411V91.389
	c-1.912-1.56-4.128-2.258-6.816-1.758c-0.784,0.146-1.395-0.522-1.815-1.096c-1.616-2.204-3.668-3.03-6.175-2.041
	c-0.393-0.836-0.638-1.4-0.917-1.945c-1.87-3.647-2.673-4.046-6.607-3.345c-1.512,0.269-3.028,0.51-4.329,0.728
	c-0.673-0.426-0.873-0.853-1-1.355c-1.366-5.359-2.27-5.981-7.597-5.154c-0.588,0.091-1.135,0.445-1.722,0.575
	c-1.251,0.276-2.421,0.31-3.061-1.187c-1.163-2.715-3.175-2.308-5.14-1.236c-2.437,1.33-4.959,1.793-7.711,1.872
	c-2.638,0.076-4.513-0.589-5.457-3.233c-0.387-1.087-0.878-2.088-2.234-2.105c-2.169-0.027-4.432-0.548-6.363,0.919
	c-0.975,0.741-1.956,0.795-3.096,0.658c-3.876-0.464-5.394,0.303-6.872,3.815c-0.636,1.512-1.44,2.397-2.999,2.881
	c-3.965,1.233-4.384,2.01-4.345,6.082c0.03,3.177,1.741,4.917,4.368,6.201c2.287,1.119,4.854,1.107,7.405,1.969
	c-0.467,1.621-0.89,3.015-1.273,4.421c-2.131,7.856-3.576,15.901-1.455,23.871c2.79,10.486,5.768,20.916,11.296,30.455
	c4.307,7.432,9.459,14.488,11.72,23.045c2.267,8.581,5.75,16.863,5.381,26.06c-0.112,2.791-0.895,4.631-3.125,6.197
	c-3.101,2.179-5.918,4.683-8.401,7.677c-4.146,4.997-8.433,9.832-10.183,16.148c-1.094,0.062-1.439-0.492-1.887-0.881
	c-3.161-2.748-7.55-3.314-11.133-1.417c-1.925,1.019-3.178,2.398-1.899,4.725c1.317,2.393,0.651,4.218-1.291,5.846
	c-0.844,0.707-1.596,1.541-2.33,2.371c-1.913,2.162-2.114,4.817-1.204,7.304c0.972,2.658,2.849,4.695,6.034,4.494
	c1.373-0.086,2.55,0.272,2.846,1.676c0.965,4.566,3.988,6.788,8.24,7.61c-0.571,1.778-1.141,3.262-2.003,4.627
	c-1.167,1.847-1.062,3.701-0.012,5.592c1.424,2.564,3.098,4.741,6.242,4.666c0.425,1.533,0.682,2.877,1.576,4.058
	c3.07,0.98,5.47-1.486,8.29-1.793c1.884,2.72,2.035,4.559-0.274,6.792c-2.09,2.022-1.47,3.81-0.205,5.577
	c2.128,2.973,4.935,3.767,7.997,1.858c1.236,0.615,1.446,1.679,1.841,2.539c1.033,2.25,2.559,2.797,4.707,1.732
	c0.655-0.325,1.299-0.679,1.97-0.964c2.391-1.018,3.863,0.029,3.39,2.654c-0.554,3.074,0.193,5.931,1.064,8.735
	c1.077,3.467,1.944,3.673,5.508,1.801c0.213,0.561,0.364,0.901,0.472,1.255c0.658,2.151,1.482,4.132,3.324,5.621
	c2.465,1.993,4.302,0.052,6.327-0.786c2.182-0.902,3.726-0.085,5.023,1.724c0.82,1.143,0.404,2.402,0.483,3.608
	c0.333,5.095,3.697,7.275,8.191,5.277c0.431-0.192,0.875-0.354,1.427-0.576c1.816,1.695,3.69,3.245,5.808,3.725L198.748,294.578
	L198.748,294.578z M163.425,206.838c-0.094,2.436-0.957,3.877-2.79,5.57c-4.678,4.321-8.375,9.588-11.756,15.051
	c-2.593,4.189-4.711,8.628-6.845,13.765c-2.054-3.919-3.8-7.383-5.674-10.774c-1.004-1.818,0.045-3.163,0.845-4.463
	c4.126-6.701,9.188-12.547,15.82-16.742c1.981-1.253,2.853-2.669,2.981-5.017c0.52-9.561-1.192-18.759-4.166-27.743
	c-2.288-6.91-4.755-13.692-8.751-19.903c-7.037-10.936-12.246-22.758-14.609-35.744c-1.398-7.682-1.252-15.25,1.052-22.787
	c0.846-2.769,2.526-3.734,5.05-3.772c2.919-0.044,5.84-0.01,9.034-0.01c-1.959,7.607-3.882,14.915-3.308,22.346
	c0.978,12.65,2.856,25.442,10.433,35.865c8.485,11.672,10.654,24.953,12.094,38.682
	C163.381,196.372,163.628,201.588,163.425,206.838z"/>
<path style="fill:#FF0000;" d="M206.601,140.199c2.069-0.709,2.253-2.235,1.573-3.815c-0.806-1.871-2.18-0.893-3.368-0.238
	c-1.199,0.661-2.395,1.333-3.558,2.191v9.292c1.609,1.009,3.029,2.153,4.264,3.599c0.684,0.8,1.552,1.78,2.794,0.87
	c1.452-1.061,1.711-2.625,1.554-4.317c-0.129-1.395-1.175-2.233-2.222-1.833c-2.655,1.015-3.271-1.311-4.73-2.437
	C203.515,141.538,205.035,140.736,206.601,140.199z M208.095,209.332c1.625-0.814,0.803-2.388,1.009-3.649
	c-1.925-1.679-4.855-0.925-6.498-3.118c1.235-1.842,3.24-2.665,4.699-4.142c2.326-2.353,2.391-2.693-0.394-5.646
	c-1.55,2.16-3.14,4.318-5.663,5.471v8.24c1.333,0.046,2.209,1.031,3.238,1.673C205.586,208.844,206.621,210.07,208.095,209.332z
	 M210.104,251.021c-1.392-1.167-2.757-0.152-3.989,0.643c-1.301,0.84-2.555,1.756-4.23,2.916c0.157-2.045-0.336-3.845-0.636-5.657
	v13.635c1.704,0.585,2.822,1.667,4.032,2.647c2.353,1.907,3.189,1.711,5.383-1.161c-1.72-3.029-6.006-2.425-7.674-5.464
	c3.865-2.833,4.393-3.077,7.923-3.628C211.819,253.407,211.268,251.996,210.104,251.021z M207.91,190.391
	c0.53-1.668-0.291-3.048-1.998-3.212c-2.047-0.196-3.328-1.36-4.59-2.88c1.466-1.83,2.925-3.63,5.663-3.221
	c0.953,0.142,1.743-0.33,2.019-1.244c0.324-1.075-0.262-1.942-1.073-2.588c-1.033-0.823-2.179-1.041-3.431-0.512
	c-1.057,0.448-2.102,0.93-3.25,2.004v10.588c1.117,0.821,1.814,2.011,3.13,2.445C206.111,192.341,207.362,192.115,207.91,190.391z
	 M294.829,230.961c-1.427-2.678-3.964-1.851-6.004-2.32c-1.618-2.866-3.224-5.099-6.926-5.281c-3.574-0.175-5.195,2.732-7.95,4.186
	c-4.203-9.062-10.644-15.878-18.591-21.159c-2.575-1.711-3.342-3.908-3.806-6.685c-0.623-3.732-0.244-7.414,0.033-11.12
	c0.526-7.044,1.489-13.967,4.797-20.335c3.622-6.97,7.081-14.03,10.693-21.001c5.66-10.922,7.533-22.633,7.904-34.725
	c0.159-5.197,1.004-10.406,0.061-15.617c-0.099-0.55-0.194-1.228,0.43-1.75c1.186,0.464,2.391,0.998,3.635,1.411
	c3.309,1.097,4.544,0.536,6.026-2.717c0.353-0.775,0.847-1.633,0.799-2.422c-0.114-1.904,0.787-2.904,2.24-3.875
	c1.477-0.985,2.306-2.613,2.173-4.464c-0.307-4.284-6.629-7.844-10.301-5.771c-0.926,0.523-1.788,1.186-2.783,1.623
	c-2.259-0.994-3.486-2.967-4.8-4.938c-2.082-3.122-3.361-3.117-5.937-0.285c-0.319,0.35-0.709,0.632-1.104,0.978
	c-2.201-0.508-4.124-2.475-6.575-0.973c-0.628,0.385-1.429-0.286-1.935-0.788c-1.609-1.598-3.587-1.491-5.508-1.204
	c-2.242,0.335-2.686,2.485-3.373,4.366c-2.148-1.392-3.874-0.37-5.615,0.522c-3.473-1.756-6.911-2.019-10.25,0.316
	c-0.877,0.613-1.607,0.65-2.675,0.269c-3.165-1.129-5.57,0.34-7.731,2.672c-1.954,2.109-1.21,4.058-0.01,6.07
	c0.508,0.851,0.497,1.584-0.151,2.361c-0.731,0.877-1.603,1.17-2.587,0.644c-2.891-1.543-5.062-0.23-7.069,1.783
	c-0.827,0.829-1.645,1.368-2.907,0.862c-2.844-1.139-5.406-0.533-7.785,1.692v36.116c0.477-1.09,1.027-2.167,1.615-3.26
	c4.978-9.245,13.005-14.742,21.624-20.311c1.992,4.979,3.354,9.635,3.495,14.591c0.298,10.476-0.644,20.781-4.37,30.658
	c-1.094,2.9-2.368,5.677-4.581,7.956c-1.987,2.047-2.067,5.015-2.618,7.595c-1.342,6.28-1.921,12.683-2.504,19.109
	c-0.795,8.763,0.386,17.409,0.298,26.111c-0.038,3.814,0.67,7.627,3.317,11.05c7.592,9.82,12.441,21.106,15.575,33.174
	c1.113,4.284,2.085,8.611,3.346,12.849c0.513,1.726,0.19,2.893-1.064,3.943c-9.106,7.623-18.286,15.14-28.857,20.618
	c-0.726,0.376-1.535,0.588-2.308,0.876c-0.941-3.696-1.117-7.399-1.699-11.238c2.029,0.6,3.47,1.757,4.771,2.994
	c1.018,0.968,1.555,2.7,3.399,1.937c1.803-0.745,1.361-2.398,1.271-4.131c-2.95-0.838-5.503-2.596-8.184-4.78
	c2.267-1.93,4.497-3.526,6.872-4.951c1.211-0.727,2.835-1.632,1.62-3.379c-1.11-1.594-2.553-0.81-3.82,0.161
	c-2.146,1.646-4.325,3.262-7.195,5.418V330c0.752-0.149,1.538-0.446,2.363-0.926c3.659-2.128,6.431-5.09,7.333-9.405
	c1.994,0.162,3.025,1.565,4.312,2.416c5.096,3.371,8.477,1.851,9.234-4.27c0.179-1.45-0.215-2.755-0.909-3.903
	c-1.173-1.94-0.007-3.002,1.232-4.073c1.349-1.166,2.632-0.985,3.855,0.277c0.682,0.704,1.364,1.454,2.172,1.979
	c2.278,1.482,3.768,1.03,4.991-1.471c0.579-1.185,1.019-2.441,1.504-3.619c1.743-0.18,3.293-0.211,4.857,0.257
	c1.7,0.509,3.486,0.076,4.018-1.619c0.987-3.151,2.122-6.492,1.459-9.777c-0.426-2.109-0.649-3.624,1.33-4.715
	c1.573-0.867,2.793-2.508,5.146-1.189c2.291,1.285,4.234-0.133,4.74-2.798c0.419-2.208-0.497-4.086-1.468-5.887
	c0.981-1.324,1.893-2.471,3.247-3.154c1.901,0.765,3.073,2.459,4.638,3.627c2.382,1.778,4.421,1.527,5.781-1.086
	c1.363-2.618,2.288-5.348,1.285-8.537c-1.538-4.886-0.252-6.93,4.651-7.886c0.911-0.178,1.712-1.093,2.711-0.579
	c3.405,3.343,6.538,3.044,8.264-0.77c0.249-0.549,0.245-1.214,0.427-1.802c0.529-1.712,0.813-3.275,3.032-4.077
	c2.676-0.967,2.674-4.519,0.311-6.35c-0.571-0.442-1.312-0.657-1.887-1.096c-0.89-0.678-1.787-1.524-1.572-2.756
	c0.207-1.187,1.169-1.941,2.321-2.018c1.239-0.083,2.247-0.874,3.524-0.865c1.571,0.011,2.463-1.173,2.698-2.591
	C297.463,237.648,296.582,234.253,294.829,230.961z M267.291,232.599c-1.757,3.311-2.97,6.986-6.01,9.954
	c-2.981-6.564-6.981-11.988-11.098-17.331c-3.472-4.506-7.013-9.048-12.144-11.608c-3.647-1.82-4.637-4.805-4.721-8.383
	c-0.289-12.451,0.752-24.767,4.462-36.694c1.129-3.629,3.091-6.95,4.967-10.259c5.315-9.374,9.489-19.045,10.493-30.113
	c0.805-8.883,0.611-17.592-0.946-26.31c-0.3-1.679-0.973-3.287-1.59-5.303c4.044-1.342,7.993-1.947,12.102-1.311
	c0.837,0.13,1.656,0.423,2.495,0.494c5.114,0.429,4.97,0.432,5.193,5.798c0.388,9.353-0.308,18.64-1.6,27.866
	c-0.598,4.274-2.274,8.329-3.873,12.349c-3.702,9.314-8.782,17.924-13.134,26.906c-2.514,5.188-3.563,10.625-4.226,16.324
	c-0.709,6.092-0.592,12.154-0.683,18.241c-0.036,2.431,0.72,3.811,2.775,5.061c6.525,3.972,12.089,9.076,16.647,15.355
	C268.527,226.565,268.974,229.426,267.291,232.599z M209.824,158.748c-0.263-2.251-1.452-2.932-3.51-1.893
	c-1.682,0.849-3.314,1.812-5.065,2.825v10.118c1.016,0.813,1.827,2.14,3.255,2.618c1.577,0.529,3.044,0.821,3.731-0.899
	c0.656-1.647-0.595-2.384-2.065-2.803c-2.017-0.576-3.048-2.37-4.482-4.178c2.422-2.074,4.814-3.584,7.736-3.409
	C209.997,160.248,209.908,159.466,209.824,158.748z M210.702,215.326c-0.158-1.067-0.611-1.998-1.708-2.13
	c-1.11-0.134-2.337-0.63-3.107,1.014c-0.833,1.78-2.622,2.401-4.639,3.028v27.91c1.519,0.987,2.897,1.892,4.28,2.782
	c1.14,0.733,2.268,0.735,3.427-0.009c0.721-0.463,1.066-1.143,0.801-1.889c-0.439-1.241-1.369-2.143-2.699-2.167
	c-2.232-0.041-3.518-1.337-4.613-2.986c1.968-3.088,5.847-2.435,8.146-4.644c-0.64-2.618-2.323-3.387-4.444-2.798
	c-1.7,0.471-2.846,2.275-4.873,2.536c0-2.799,0-5.537,0-8.733c1.71,1.239,3.079,2.193,4.407,3.203
	c1.286,0.977,2.654,1.284,4.042,0.404c0.615-0.39,0.847-1.102,0.496-1.967c-0.553-1.364-1.219-2.356-2.882-2.325
	c-2.73,0.051-3.665-2.513-5.493-3.946c2.147-2.127,4.48-3.659,7.026-4.876C209.87,217.255,210.921,216.798,210.702,215.326z"/>
</svg>
