<svg width="400" height="400" viewBox="0 0 400 400" fill="none" xmlns="http://www.w3.org/2000/svg">
<path style="fill:#FF0000;" d="M167.658,70.29c-1.257,0.256-3.806,1.1-4.049,1.196c-0.443,0.174-0.397,0.174-1.388,0.578
	c0,0-1.16,0.504-2.082,0.964c-1.262,0.629-4.565,2.855-7.89,7.279c-0.283,0.377-1.324,1.778-2.484,3.789
	c-2.381,4.13-3.487,7.754-4.512,11.184c-0.774,2.593-1.212,4.593-1.311,5.052c-0.438,2.029-0.865,4.004-1.157,6.633
	c-0.395,3.557-0.267,5.722-1.157,5.978c-0.209,0.06-0.597-0.131-1.364-0.517c-1.084-0.545-1.767-1.031-2.445-1.46
	c0,0-0.829-0.525-2.362-1.301c-2.251-1.139-4.264-1.634-4.786-1.754c-1.916-0.441-3.914-0.587-6.244-0.483
	c-1.836,0.099-2.843,0.177-3.793,0.437c-0.43,0.118-1.334,0.398-3.226,1.414c-1.47,0.789-2.873,1.52-4.319,2.7
	c-1.1,0.897-1.966,1.976-3.654,4.097c-2.605,3.274-3.926,4.963-4.83,7.511c-0.131,0.37-0.079,0.266-0.679,2.1
	c-0.512,1.566-0.766,2.301-1.596,4.804c-0.523,1.576-0.575,1.859-0.694,2.121c-0.193,0.424-0.578,1.813-0.887,3.085
	c-0.27,1.273-0.733,3.394-1.041,4.743c-0.578,2.391-1.311,11.762-1.35,16.66c0,1.388,0.154,5.361,0.386,8.793
	c0.231,3.471,0.347,6.517,0.231,6.749c-0.326,0.653-0.677,0.671-3.047,2.545c0,0-0.388,0.307-3.317,2.738
	c-3.234,2.685-5.777,5.442-6.642,6.386c0,0-2.762,3.014-5.66,7.034c-0.296,0.411-0.515,0.749-0.578,0.848
	c-0.537,0.837-0.913,1.568-1.157,2.083c-0.877,1.446-2.049,3.647-3.005,6.569c-0.007,0.02-0.139,0.426-0.273,0.874
	c-2.513,8.456-2.053,15.618-2.053,15.618c0.124,1.937,0.319,4.959,1.494,8.522c0.471,1.428,1.955,5.534,2.102,5.941
	c0.499,1.382,0.789,2.155,1.157,3.394c0.228,0.767,0.32,1.156,0.578,1.89c0.42,1.193,0.817,1.989,1.08,2.545
	c0.198,0.419,0.185,0.418,1.658,4.269c1.321,3.455,1.694,4.405,2.083,5.372c0.404,1.005,0.743,1.824,0.964,2.352
	c0.271,0.645,0.665,1.565,1.157,2.661c0.703,1.564,1.221,2.628,3.278,6.749c2.485,4.978,2.702,5.375,3.124,6.055
	c0.367,0.59,1.001,1.576,2.198,3.509c0.571,0.923,1.037,1.685,1.35,2.198c0.154,0.309,0.617,1.08,1.041,1.735
	c0.647,0.999,0.925,1.632,1.157,2.044c0.606,1.075,1.569,2.377,3.471,4.936c0.809,1.088,0.918,1.216,1.697,2.275
	c1.039,1.413,1.123,1.566,1.817,2.508c0.623,0.845,1.397,1.831,2.92,3.769c1.174,1.494,1.761,2.241,2.205,2.786
	c0.371,0.457,1.384,1.695,3.008,3.548c4.299,4.907,8.072,8.832,8.072,8.832c0,0,6.278,6.531,14.45,13.845
	c0.808,0.723,1.581,1.388,1.581,1.388c1.422,1.223,2.429,2.023,3.124,2.584c1.559,1.259,4.798,3.951,6.209,5.129
	c1.239,1.034,2.57,2.154,3.633,1.735c0.319-0.126,0.512-0.35,0.599-0.453c0.813-0.964,0.412-2.635-0.105-4.136
	c-0.864-2.506-2.06-4.167-2.7-5.476c-2.182-4.467-2.283-4.599-5.862-10.683c-0.603-1.024-0.89-1.489-1.658-2.815
	c-1.193-2.06-1.65-2.925-2.7-4.628c-0.224-0.363-0.129-0.204-0.964-1.543c-1.492-2.393-1.718-2.778-1.851-3.008
	c-0.495-0.854-0.91-1.574-1.39-2.59c-0.335-0.709-0.314-0.74-0.847-1.922c-0.502-1.113-0.679-1.436-1.157-2.468
	c0,0-0.53-1.144-1.157-2.622c-2.117-4.991-3.471-10.528-3.471-10.528c-0.283-1.159-0.581-2.378-0.819-3.804
	c-0.476-2.86-0.831-7.291,0.24-13.01c0.116-0.794,0.298-1.911,0.578-3.239c0.42-1.994,0.747-2.971,1.046-3.725
	c0.602-1.512,1.098-2.717,1.962-2.831c0.298-0.039,0.739,0.167,1.62,0.578c0.857,0.401,1.469,0.765,1.543,0.81
	c1.055,0.633,2.196,1.318,3.625,2.468c1.394,1.121,2.298,1.849,3.236,3.083c0.345,0.454,0.511,0.735,1.469,2.046
	c0.562,0.77,1.033,1.396,1.35,1.813c3.134,4.149,5.053,7.19,6.248,9.256c1.174,2.03,2.03,3.32,3.741,5.9
	c0.279,0.421,0.894,1.34,1.813,2.468c0.346,0.424,0.727,0.869,1.273,1.465c1.846,2.016,2.769,3.024,4.049,3.895
	c0.676,0.46,3.058,2.09,3.818,1.388c0.501-0.463,0.193-2.815-0.347-3.008c-0.274-0.585-0.674-1.463-1.118-2.545
	c-0.492-1.198-1.021-2.602-2.892-8.793c-0.759-2.509-0.969-3.261-1.196-4.358c-0.36-1.738-0.501-3.083-0.585-3.926
	c-0.612-6.152-1.107-11.438-0.032-16.09c0.228-0.987,0.57-2.133,1.196-3.394c0.913-1.842,1.966-2.99,2.275-3.317
	c0.772-0.817,1.605-1.698,2.98-2.284c1.169-0.498,2.155-0.539,3.152-0.57c2.224-0.07,3.835,0.468,7.057,1.543
	c0.834,0.278,1.231,0.474,1.813,0.771c3.501,1.788,5.511,4.653,6.44,5.978c0.272,0.388,0.782,1.163,1.157,1.735
	c0.587,0.897,0.814,1.269,1.504,2.314c0.242,0.367,0.419,0.63,0.771,1.157c0.63,0.94,0.902,1.342,1.504,2.237
	c1.269,1.886,1.477,2.212,2.005,2.931c0.59,0.804,0.939,1.156,1.311,1.581c0.81,0.926,1.543,1.388,2.005,1.273
	c0.81-0.154,1.196-1.62,0.617-2.352c-0.193-0.27-0.656-1.62-1.041-3.047c-0.771-2.854-0.656-8.677,0.193-11.685
	c2.005-7.057,2.622-7.944,6.942-10.104c0.524-0.262,1.836-0.901,4.551-1.658c3.055-0.852,5.476-1.185,6.132-1.273
	c2.827-0.378,7.116-0.83,15.387-1.157c0,0,5.669-0.224,11.596-0.137c1.629,0.024,3.077,0.07,4.872,0.253
	c1.53,0.155,2.172,0.294,4.319,0.578c3.619,0.48,3.815,0.356,5.091,0.578c2.111,0.369,6.059,1.058,8.195,3.989
	c1.334,1.83,1.41,3.888,1.562,8.005c0.084,2.269-0.168,3.615-0.476,4.64c-0.242,0.803-0.529,1.444-1.105,2.725
	c-0.28,0.624-0.863,1.915-1.697,3.432c-1.34,2.438-1.711,2.517-4.319,6.595c-0.956,1.495-1.205,1.951-1.967,3.008
	c-1.222,1.695-1.578,1.89-2.314,3.008c-1.662,2.527-2.34,4.077-1.832,4.768c0.478,0.651,3.023,0.003,8.118-1.297
	c1.897-0.484,3.191-0.863,4.628-1.388c0.786-0.287,0.819-0.424,2.507-0.964c0.964-0.309,2.622-0.926,3.664-1.35
	c1.08-0.424,2.545-1.003,3.278-1.273c1.965-0.724,3.315-1.438,5.245-2.352c2.801-1.328,4.847-2.389,6.633-3.317
	c4.124-2.143,5.382-2.941,6.016-3.355c0.512-0.334,1.453-0.963,2.545-1.735c1.239-0.876,1.756-1.29,3.162-2.314
	c1.498-1.091,2.456-1.747,2.931-2.083c2.806-1.983,5.308-4.494,6.672-5.862c0,0,4.159-4.172,9.217-11.3
	c0.694-0.978,1.422-2.026,2.314-3.471c0.335-0.543,0.794-1.321,1.697-2.854c0.597-1.013,1.089-1.852,1.427-2.43
	c0.288-0.488,0.67-1.149,1.102-1.944c0.307-0.564,0.855-1.572,1.358-2.648c0.615-1.317,0.965-2.313,1.46-3.735
	c0.791-2.273,1.281-4.043,1.633-5.325c0.111-0.403,0.599-2.19,1.157-4.628c0.109-0.476,0.6-2.635,1.157-5.669
	c0.845-4.603,0.475-3.776,1.107-6.997c0.56-2.855,0.944-3.976,0.463-5.656c-0.256-0.894-0.668-1.507-1.493-2.734
	c-0.303-0.451-2.589-3.791-5.891-5.726c-0.685-0.401-1.513-0.83-1.513-0.83c-1.06-0.549-1.55-0.734-2.738-1.311
	c-1.39-0.675-1.168-0.638-1.967-1.003c-1.135-0.518-1.728-0.658-3.664-1.311c-1.777-0.6-1.723-0.632-2.738-0.964
	c-1.526-0.499-2.863-0.789-5.476-1.35c-2.173-0.466-4.092-0.829-5.746-1.118c-0.943-0.165-2.337-0.4-4.049-0.656
	c-3.777-0.563-4.509-0.54-6.865-0.964c-0.819-0.148-0.991-0.197-4.358-0.964c-4.06-0.925-7.483-1.689-11.454-2.7
	c-0.21-0.053-1.792-0.459-3.818-1.118c-1.336-0.435-2.141-0.744-2.925-1.091c-0.793-0.351-1.366-0.653-1.934-0.953
	c-1.478-0.781-2.321-1.226-3.317-1.928c-1.284-0.905-2.576-1.835-3.577-3.502c-0.443-0.738-0.678-1.369-0.858-1.859
	c-0.649-1.767-0.735-3.18-0.81-3.972c-0.27-2.85-1.111-5.095-2.78-9.55c-0.193-0.514-0.547-1.456-1.077-2.676
	c-0.429-0.987-0.782-1.717-1.465-3.124c-0.68-1.401-1.206-2.446-1.328-2.689c-3.103-6.169-3.487-7.21-4.919-9.459
	c-0.551-0.865-0.266-0.353-1.774-2.584c-3.234-4.785-3.523-5.628-5.393-8.056c-0.96-1.246-1.776-2.181-3.207-3.822
	c-1.482-1.698-2.682-2.895-3.355-3.702c-4.049-4.859-8.137-9.101-11.762-12.264c-1.697-1.504-3.702-3.239-4.435-3.934
	c-1.005-0.952-2.485-1.951-5.322-4.088c-2.555-1.925-3.725-2.761-5.091-3.587c-0.048-0.029-0.022-0.013-1.735-1.041
	c-2.888-1.733-2.863-1.719-2.892-1.735c-0.984-0.562-0.936-0.476-5.184-2.564c-1.107-0.544-1.668-0.799-1.912-0.907
	c-2.071-0.913-4.006-1.495-4.859-1.735C177.291,69.91,170.426,69.727,167.658,70.29z M179.587,74.061
	c0.85,0.476,1.573,0.97,2.954,1.91c1.636,1.113,2.985,2.117,3.723,2.686c4.019,3.101,7.23,6.686,7.425,6.905
	c0,0,4.628,5.299,4.628,8.831c0,1.118-1.003,0.848-2.314-0.578c-1.697-1.89-3.432-2.314-4.589-1.157
	c-0.648,0.647-1.105,1.807-0.799,2.647c0.052,0.142,0.134,0.279,0.298,0.554c0.466,0.78,0.945,1.283,1.101,1.45
	c0.166,0.179,0.669,0.87,1.676,2.252c0.984,1.352,3.198,4.853,4.628,9.718c0.107,0.365,0.352,1.222,0.597,2.34
	c0.481,2.197,0.702,4.213,0.714,10.965c0.012,6.814-0.205,8.843-0.656,10.952c-0.248,1.16-0.525,2.155-0.668,2.647
	c-1.133,3.912-2.582,6.655-2.996,7.419c-2.064,3.808-4.205,6.028-4.743,6.595c-1.465,1.543-3.779,3.124-4.242,2.854
	c-0.27-0.193-0.309-1.581-0.154-4.165c0.527-8.822-0.881-16.993-2.352-22.946c-0.229-0.925-0.432-1.659-0.54-2.044
	c-0.918-3.133-2.538-7.19-5.476-11.222c-3.178-4.362-6.461-6.723-7.355-7.19c-0.139-0.073-1.037-0.527-2.209-1.217
	c-0.588-0.346-0.563-0.436-0.848-0.501c-0.501-0.116-1.658-0.501-2.584-0.848c-1.217-0.428-2.196-0.527-3.062-0.259
	c-0.729,0.226-1.261,0.659-1.72,1.146c-1.908,2.022-2.11,4.334-3.598,7.774c-0.265,0.613-1.928,4.456-2.688,4.258
	c-0.289-0.075-0.467-0.737-0.309-3.972c0.27-5.515,0.848-10.335,1.504-12.919c0.13-0.511,0.184-1.674,0.578-3.162
	c0.389-1.466,0.845-2.526,1.157-3.239c1.522-3.477,3.337-7.194,3.895-8.33c0.145-0.295,3.064-4.799,6.093-6.942
	c0.286-0.202,1.131-0.778,2.3-1.673c0.951-0.729,1.311-1.053,2.369-1.881c0.551-0.431,1.364-1.056,2.381-1.795
	C176.396,72.467,178.333,73.359,179.587,74.061z M168.468,113.638c1.37,1.011,3.035,2.427,4.396,5.013
	c1.316,2.5,1.587,4.768,1.735,6.286c0.613,6.281,0.274,11.572,0.154,13.536c-0.558,9.164-0.875,14.695-0.347,21.134
	c0.308,3.754,0.771,7.52,0.771,7.52c0.187,1.521,0.513,3.837,1.157,8.407c0.369,2.617,0.553,3.925,0.668,4.684
	c0.655,4.329,1.234,7.431,1.414,8.39c0.471,2.495,0.702,3.466,1.003,4.975c0.422,2.119,0.898,4.888,1.658,12.032
	c0.908,8.54,1.757,16.52,0.964,16.66c-0.109,0.019-0.227-0.111-0.656-0.887c-1.649-2.982-2.176-5.145-3.317-7.983
	c-0.505-1.258-0.428-0.897-1.35-3.085c-0.892-2.117-0.968-2.461-1.89-4.744c-1.301-3.22-1.555-3.537-2.584-6.248
	c-0.505-1.33-0.778-2.049-1.118-3.124c-0.399-1.26-0.524-1.849-0.964-3.085c-0.404-1.134-0.759-1.932-0.926-2.314
	c-1.14-2.618-2.759-7.2-3.934-11.647c-0.535-2.027-0.937-3.867-1.118-4.705c-0.406-1.872-0.492-2.482-1.003-4.898
	c-0.538-2.546-0.711-2.873-0.964-4.358c-0.309-1.813-0.771-4.859-1.08-6.749c-1.08-6.325-1.465-15.195-1.003-21.365
	c0,0,0.516-7.969,2.931-18.087c0.469-1.964,0.674-1.981,1.118-4.088c0.373-1.768,0.392-2.537,0.961-2.82
	C165.933,111.698,167.06,112.599,168.468,113.638z M216.712,116.569c2.391,1.851,6.518,5.862,7.597,7.327
	c0.463,0.578,1.62,1.967,2.622,3.085c1.679,1.873,2.737,3.478,3.047,3.895c1.754,2.361,1.717,2.536,3.856,5.438
	c0.632,0.857,1.026,1.371,1.813,2.468c0.596,0.831,1.227,1.731,2.044,2.931c2.694,3.957,2.561,4.061,4.204,6.325
	c0.858,1.182,1.237,1.627,2.314,3.162c0.609,0.869,0.88,1.284,1.62,2.314c0.434,0.603,0.882,1.409,1.658,2.237
	c0.578,0.617,1.504,1.774,2.044,2.507c1.697,2.198,8.677,9.256,9.178,9.256c0.231,0,0.54,0.231,0.656,0.54
	c0.463,1.196-4.319,1.157-6.942,0c-3.278-1.465-4.242-1.928-5.129-2.507c-2.931-1.928-8.523-4.705-10.798-5.361
	c-2.584-0.771-6.286-0.733-7.057,0.077c-0.258,0.247-0.436,0.498-0.529,0.784c-0.295,0.903,0.184,1.887,1.223,3.844
	c0.992,1.867,1.488,2.801,1.581,2.931c1.042,1.456,2.14,2.34,3.162,3.162c0.927,0.746,1.757,1.293,2.352,1.658
	c0.543,0.333,3.03,2.102,7.366,2.97c0.964,0.193,2.7,0.54,3.856,0.771c2.083,0.463,25.761,0.27,30.274-0.193
	c1.08-0.116,4.358-0.309,7.327-0.424c5.746-0.231,13.035,0.463,17.161,1.658c4.165,1.157,9.641,4.204,9.641,5.322
	c0,0.501-0.926,0.386-4.242-0.656c-1.658-0.54-4.011-0.424-5.129,0.193c-1.273,0.733-2.198,1.774-2.198,2.43
	c0,1.433,1.791,2.302,6.517,5.939c0.223,0.172,0.79,0.609,1.581,1.157c1.112,0.77,1.964,1.271,2.132,1.372
	c1.068,0.644,4.702,3.329,6.623,7.382c1.634,3.448,1.981,7.907,0.733,8.947c-0.926,0.771-2.391,0.039-5.129-2.545
	c-1.631-1.538-2.769-2.386-4.018-2.816c-0.987-0.34-1.891-0.35-2.769-0.385c-1.153-0.046-2.27-0.08-3.451,0.434
	c-0.661,0.288-0.992,0.595-1.639,1.108c-1.902,1.509-1.907,1.129-4.56,3.045c-1.433,1.035-2.619,2.003-3.616,2.817
	c-0.555,0.453-0.898,0.749-1.009,0.847c-0.796,0.697-1.146,1.086-2.693,2.354c-1.335,1.095-2.029,1.589-2.237,1.735
	c-1.049,0.74-1.918,1.257-2.661,1.697c-0.711,0.421-1.55,0.894-2.507,1.388c-0.512,0.442-0.806,0.437-0.964,0.386
	c-1.766-0.568-0.322-11.207,2.121-15.619c0.129-0.233,0.845-1.503,1.928-3.471c0.472-0.857,0.94-1.712,1.581-2.892
	c0.84-1.545,1.973-3.931,4.204-8.639c0,0,0.578-0.839,0.578-2.43c0-1.388-0.116-1.658-0.733-1.658c-0.424,0-1.35,0.578-2.082,1.234
	c-2.43,2.314-3.432,3.085-6.209,4.859c-2.615,1.671-4.874,2.706-5.862,3.162c-4.303,1.985-7.791,2.936-13.999,4.628
	c-2.405,0.656-3.709,0.953-4.666,1.157c-1.341,0.285-2.798,0.555-7.135,1.157c-4.415,0.613-6.622,0.919-9.256,1.157
	c-0.828,0.075-3.121,0.273-6.942,0.424c-9.585,0.379-14.252,0.77-23.585,1.553c-1.133,0.095-2.652,0.236-2.832,0.915
	c-0.313,1.185,3.594,3.475,7.096,4.628c1.445,0.475,2.77,0.696,5.361,1.118c3.644,0.594,5.471,0.816,7.597,1.003
	c6.595,0.578,11.377,1.118,12.148,1.388c1.196,0.463,0.54,1.465-2.507,3.702c-2.7,2.044-5.091,2.661-10.181,2.661
	c-1.987,0-3.647-0.008-5.823-0.578c-0.46-0.121-2.218-0.6-4.512-1.851c-1.533-0.835-5.869-3.268-9.178-8.446
	c-1.92-3.004-2.67-5.642-3.124-7.289c-0.911-3.303-2.233-8.1,0.193-11.685c0.479-0.708,0.983-1.19,1.234-1.427
	c1.698-1.605,3.184-1.813,7.096-3.471c1.472-0.624,1.049-0.504,2.584-1.157c2.753-1.171,4.058-1.596,5.631-2.854
	c1.735-1.388,1.813-2.391,0.347-4.821c-0.617-0.964-1.196-2.044-1.35-2.352c-0.78-1.56-1.819-2.977-2.777-4.435
	c0,0-2.063-3.14-4.551-7.212c-1.942-3.179-4.281-7.006-5.823-12.187c-1.866-6.264-1.135-10.023-0.469-11.954
	c0.11-0.318,0.294-0.858,0.546-1.351c0.241-0.472,0.796-1.557,1.247-1.478c0.2,0.035,0.31,0.287,0.373,0.436
	c0.756,1.787,1.102,2.69,1.157,2.815c0.989,2.256,1.484,3.384,2.314,4.628c0.829,1.241,2.317,3.168,4.744,4.281
	c1.851,0.848,3.201,0.578,3.509-0.771c0.347-1.35-0.154-6.672-0.733-7.867c-0.27-0.54-0.578-1.543-0.694-2.237
	c-0.154-0.694-0.926-2.661-1.774-4.435c-2.16-4.589-3.548-8.33-3.779-10.297c-0.077-0.733-0.309-2.352-0.54-3.587
	C213.473,114.602,213.936,114.332,216.712,116.569z M128.048,117.4c1.166,0.364,1.992,0.801,2.471,1.058
	c0.562,0.301,1.806,1.011,3.207,2.278c1.197,1.083,2.537,2.322,3.272,4.317c0.22,0.596,0.753,2.046,0.115,2.737
	c-0.268,0.29-0.616,0.311-1.079,0.387c-0.582,0.096-3.329,0.587-3.818,1.774c-0.338,0.822,0.534,2.098,1.35,2.622
	c0.286,0.183,0.605,0.299,1.281,0.742c0,0,0.456,0.299,0.917,0.662c3.597,2.835,7.791,9.239,7.791,9.24
	c0.761,1.162,1.301,2.053,1.504,2.391c0.778,1.293,2.097,3.58,3.509,6.595c0.441,0.942,0.988,2.111,1.581,3.625
	c0.5,1.277,1.489,4.132,2.314,7.79c0.887,3.934,0.964,10.374,0.154,13.729c-0.327,1.384-0.752,2.675-1.297,3.92
	c-0.224,0.512-1.322,2.977-3.601,5.76c-0.847,1.034-1.634,1.841-2.229,2.411c-0.121-0.326-0.306-0.822-0.535-1.426
	c-0.409-1.08-0.561-1.455-0.789-2.063c-0.252-0.67-0.342-0.942-0.891-2.521c-0.689-1.981-1.034-2.971-1.148-3.266
	c-0.561-1.451-1.087-2.582-1.424-3.304c-0.412-0.882-0.795-1.644-1.095-2.241c0,0-0.474-0.943-0.875-1.706
	c-2.827-5.377-6.17-8.677-6.17-8.677c-1.721-1.698-3.662-2.917-7.546-5.354c0,0-1.651-1.036-5.042-2.368
	c-0.447-0.176-1.604-0.617-3.07-0.57c-0.588,0.019-0.919,0.107-1.001,0.129c-1.11,0.305-1.799,1.095-2.277,1.683
	c-1.618,1.989-2.436,2.994-3.182,4.787c-0.986,2.369-1.186,4.524-1.191,5.964c0.109,1.226,0.133,2.574,0.014,4.02
	c-0.025,0.305-0.056,0.603-0.091,0.895c-0.113-0.163-0.272-0.404-0.449-0.702c-1.651-2.789-1.8-5.627-1.774-6.98
	c0.027-1.39,0.391-2.726,1.118-5.399c0.456-1.674,0.893-2.915,1.388-4.319c0.662-1.877,1.071-3.025,1.813-4.512
	c0.371-0.744,0.334-0.588,1.388-2.507c0.812-1.478,1.409-2.617,2.16-4.049c1.753-3.346,1.725-3.418,2.237-4.165
	c0.355-0.518,0.829-1.154,1.427-2.198c0.216-0.377,0.331-0.603,0.878-1.607c0.378-0.695,0.691-1.261,0.896-1.633
	c0.347-0.386,0.54-1.118,0.463-1.851c-0.055-0.139-0.179-0.415-0.417-0.692c-1.29-1.505-4.304-1.141-4.456-1.12
	c-0.181,0.024-0.745,0.024-1.872,0.024c-0.293,0-0.609-0.004-0.852-0.216c-0.28-0.244-0.316-0.636-0.326-0.852
	c-0.093-2.057,0.75-4.585,0.75-4.586c0.761-2.282,1.147-3.434,1.453-3.962c0.347-0.599,0.95-1.621,2.082-2.628
	c1.563-1.39,3.187-1.908,4.023-2.165c1.096-0.337,1.967-0.432,2.23-0.457C125.526,116.63,127.21,117.139,128.048,117.4z
	 M123.694,169.634c0.387,0.941,1.044,2.866,1.862,6.182c0.727,2.945,1.149,6.845,1.995,14.643c0.072,0.663,0.264,2.448,0.697,4.612
	c0.298,1.486,0.648,2.849,0.709,3.084c0.197,0.763,0.359,1.323,0.483,1.753c0.268,0.924,0.406,1.399,0.637,2.016
	c0.05,0.134,0.253,0.671,0.601,1.421c0.506,1.089,1.094,2.146,1.808,3.196c0.864,1.27,1.376,1.821,1.835,1.795
	c0.392-0.022,0.671-0.43,0.71-0.484c0.343-0.472,0.273-1.063,0.24-1.311c-0.737-5.523-1.46-8.318-1.46-8.318
	c-0.23-0.888-0.527-2.049-0.785-3.599c-0.214-1.283-0.255-2.069-0.27-2.352c-0.044-0.831-0.039-1.799,0.088-3.063
	c0.228-2.272,0.856-5.531,1.301-5.499c0.142,0.01,0.181,0.352,0.54,2.391c0,0,0.429,2.441,0.723,3.905
	c0.135,0.672,0.361,1.591,0.815,3.429c0.425,1.721,0.837,3.314,1.278,5.122c0.018,0.073,0.152,0.622,0.323,1.357
	c0.183,0.783,0.274,1.175,0.368,1.636c0.125,0.611,0.175,0.952,0.306,1.749c0.021,0.129,0.262,1.595,0.43,2.509
	c0.214,1.165,0.411,1.978,0.771,3.471c0.216,0.893,0.167,0.644,0.771,3.047c0.442,1.758,0.665,2.645,0.744,3.043
	c0.124,0.63,0.219,1.209,0.449,2.057c0.058,0.214,0.135,0.515,0.263,0.985c0.077,0.281,0.169,0.65,0.279,1.165
	c0.296,1.384,0.751,3.515,1.157,5.592c0.16,0.818,0.525,2.714,1.003,5.592c1.608,9.682,1.89,14.451,1.89,17.046
	c0,3.592-0.13,5.273-0.551,5.352c-0.298,0.056-0.623-0.623-1.185-1.689c-0.915-1.735-2.03-3.361-2.932-5.102
	c-2.592-5.001-2.179-4.004-3.395-6.451c-1.619-3.258-1.538-3.389-3.599-7.571c-1.208-2.451-1.812-3.677-2.275-4.516
	c-0.275-0.499-0.731-1.309-1.29-2.479c-0.171-0.357-0.541-1.144-0.971-2.188c-0.486-1.181-0.519-1.402-1.157-3.085
	c-0.429-1.131-0.797-2.04-1.157-2.931c-0.58-1.433-0.792-1.906-1.157-2.931c-0.034-0.097-0.216-0.644-0.578-1.735
	c-1.071-3.225-1.038-3.148-1.157-3.471c-0.154-0.419-0.293-0.78-0.461-1.347c-0.219-0.739-0.331-1.302-0.373-1.511
	c-0.331-1.633-0.454-2.106-1.48-6.436c-0.451-1.906-0.736-3.708-1.003-4.821c-0.231-0.964-0.501-5.206-0.617-9.448
	c0,0-0.081-4.976,0.424-11.03c0,0,0.121-1.456,0.542-3.428c0.111-0.519,0.688-3.231,1.058-3.189
	c0.062,0.007,0.109,0.084,0.135,0.176C123.154,168.246,123.424,168.978,123.694,169.634z M95.425,187.798
	c1.072,0.405,1.791,0.947,2.083,1.157c3.276,2.355,5.624,5.342,5.939,5.746c1.048,1.342,1.827,2.555,2.314,3.317
	c0.97,1.517,1.735,2.892,1.735,2.892c0.75,1.348,0.971,1.888,1.735,3.085c0.431,0.675,0.477,0.685,1.003,1.504
	c0.466,0.726,0.599,0.982,1.508,2.536c1.194,2.041,1.485,2.488,2.117,3.673c0.294,0.552,0.441,0.828,0.617,1.196
	c0.702,1.47,1.042,2.626,1.273,3.381c0.686,2.244,0.592,1.561,1.581,4.679c1.397,4.404,1.307,4.897,1.033,5.133
	c-0.753,0.651-2.939-0.595-3.431-0.875c-0.419-0.239-0.821-0.516-1.767-1.327c-1.522-1.306-2.395-2.231-3.239-3.047
	c-0.846-0.817-1.695-1.509-3.394-2.892c-3.049-2.483-4.587-3.794-6.102-4.205c-1.379-0.374-2.839-0.431-4.426-0.191
	c-1.01,0.152-1.646,0.45-1.916,0.951c-0.497,0.922,0.249,2.255,0.759,3.06c2.085,3.295,5.092,5.746,6.787,7.135
	c1.747,1.43,7.114,5.843,8.933,8.238c0.712,0.938,1.595,2.136,1.595,2.136c0.595,0.807,1.069,1.461,1.35,1.851
	c0.272,0.482,0.64,1.204,0.964,2.121c0.217,0.614,0.733,2.259,0.733,6.209c0,4.898-0.463,6.055-1.774,4.743
	c-0.121-0.121-0.202-0.214-0.29-0.328c-0.286-0.369-0.592-0.722-0.885-1.085c-0.359-0.446-0.663-0.726-1.222-1.238
	c-0.454-0.417-0.649-0.549-1.35-1.194c-0.397-0.365-0.309-0.294-0.473-0.439c-1.223-1.084-2.428-1.583-4.689-2.735
	c-0.548-0.279-1.056-0.5-1.87-0.825c-0.333-0.133-0.768-0.287-1.638-0.597c-0.974-0.347-1.461-0.521-1.847-0.645
	c-0.232-0.074-0.954-0.304-1.923-0.565c-0.269-0.073-0.459-0.12-0.563-0.148c-1.123-0.3-1.812-0.512-3.107-0.9
	c-2.048-0.613-3.072-0.92-3.446-1.019c-1.637-0.432-3.193-1.172-4.856-1.491c-0.067-0.013-0.277-0.05-0.456-0.213
	c-0.193-0.175-0.25-0.405-0.273-0.504c-0.895-3.822,0.196-9.523,0.196-9.523c0.037-0.193,0.139-0.713,0.329-1.342
	c0.118-0.391,0.273-0.833,0.481-1.319c0,0,0,0,0,0c0.197-0.582,0.333-0.942,1.118-3.008c0.983-2.585,1.015-2.664,1.118-2.969
	c0.101-0.298,0.759-2.167,0.964-3.509c0.501-3.278,0-6.016-1.465-7.944c-1.535-2.019-2.358-3.723-2.591-5.468
	c-0.02-0.153-0.105-0.906-0.031-1.898c0.132-1.762,0.679-3.073,1.427-4.821c0.483-1.129,0.724-1.694,1.157-2.43
	c0.632-1.075,1.728-2.798,3.702-3.972C92.379,187.027,93.381,187.027,95.425,187.798z M100.323,250.698
	c0.463,1.234,1.118,2.931,1.465,3.779c0.599,1.465,0.626,1.357,1.118,2.622c0.491,1.262,0.58,1.676,1.154,3.281
	c0.515,1.441,0.773,2.161,1.083,2.851c0.264,0.589,0.556,1.146,3.278,4.898c1.504,2.072,2.3,3.124,3.355,3.124
	c0.964,0,1.196-0.54,1.388-3.085c0.154-1.851,0.694-1.697,1.388,0.386c0.425,1.276,0.673,1.773,1.08,2.815
	c0.416,1.067,0.787,1.868,1.118,2.584c0.442,0.954,0.827,1.714,1.118,2.275c1.631,3.145,2.715,4.543,4.319,7.752
	c0.578,1.157,1.234,2.584,1.543,3.124c0.694,1.35,1.196,7.289,0.617,7.289c-0.27,0-1.543-1.465-2.854-3.278
	c-1.54-2.129-1.606-1.861-2.7-3.278c-1.262-1.636-1.515-2.132-2.622-3.471c-0.823-0.995-1.542-1.76-2.005-2.237
	c-0.872-1.237-1.625-2.217-2.16-2.892c-0.532-0.672-1.21-1.485-2.545-3.085c-0.757-0.907-1.272-1.52-1.388-1.658
	c-4.866-5.807-7.52-11.724-7.52-11.724c-0.607-1.354-0.964-2.356-1.157-2.931c-0.135-0.401-0.56-1.691-1.157-4.589
	c-0.665-3.227-0.917-5.364-0.154-6.787C98.665,247.381,99.243,247.96,100.323,250.698z"/>
</svg>
