<svg width="400" height="400" viewBox="0 0 400 400" fill="none" xmlns="http://www.w3.org/2000/svg">
<path style="fill:#0000FF;" d="M342.885,192.87c-9.72-7.467-20.302-14.037-33.45-19.6
	c6.808-9.142,8.281-17.06,4.845-22.719c-6.678-10.998-48.737-3.486-79.481,7.563c0,0-7.385-3.56-12.578-5.329
	c0,0-17.053-25.805-26.608-28.156c0,0-13.599-25.626-23.806-32.618c-10.207-6.991-27.985-4.305-29.048,1.747
	c-0.609,6.253,3.524,9.18,7.76,9.436c4.236,0.255,4.412,1.692,4.964,4.113c0.356,1.559,0.99,12.362,2.868,21.607
	c-22.38-15.764-81.338-47.274-90.551-43.894c-10.705,3.927,5.037,16.276,9.034,21.57l1.319-1.18
	c-1.16-1.148-12.785-12.337-11.179-13.511l0.854-0.625c2.574-0.879,23.522,10.323,27.398,12.115
	c24.773,11.455,48.587,18.938,67.366,38.443c-0.079,0.42-0.174,1.002-0.27,1.771c-11.18-11.834-20.789-16.644-36.537-25.181
	c13.51,8.294,29.373,25.566,36.19,37.706c0.028,0.774,0.064,1.578,0.11,2.42c-0.868-1.698-2.017-3.633-3.493-5.884
	c-10.177-15.534-20.927-23.874-34.577-35.285c-0.711-0.4-1.414-0.773-2.106-1.116l-21.225-9.232
	c-2.001-0.911-8.72-4.233-15.666-7.56c-6.561-3.143-13.324-6.291-16.502-7.414c-0.787-0.278-1.264-0.316-1.503-0.174
	c3.501,4.785,7.701,8.733,12.21,12.601l-1.069,0.925c26.229,8.074,53.059,29.993,68.148,52.622c4.11,6.163,7.242,11.749,8.477,19.03
	c3.715-3.304,6.653-5.457,8.201-7.829c0.055,0.553,0.109,1.095,0.162,1.626c-1.807,2.025-4.717,4.415-8.968,8.039
	c-2.827-26.582-53.455-68.672-77.338-72.308c-7.663,6.741-25.359,21.909-26.665,32.804c-2.812,23.452,30.237,55.458,49.458,62.694
	c22.421,8.441,32.461-2.619,46.225-15.892c5.625,2.323,12.33,4.637,18.667,4.624c-0.115,1.604-0.408,2.65-0.923,3.28
	c0,0-62.305,38.587-55.154,54.276c7.151,15.688,54.486,2.784,122.18-24.706c5.24-2.128,10.204-4.276,14.936-6.433
	c-4.13,11.659-8.661,22.64-13.637,33.176c-0.185,0.593-1.073-0.32-1.337,0.108c-1.726,3.214-3.441,6.464-5.241,9.531
	c-0.548-0.138-1.103-0.868-1.711-1.447c-1.581-1.504-4.228-3.413-7.218-4.163c-3.757-0.94-8.182,0.34-10.232,3.472l-0.798,2.192
	c-0.421,3.216,0.629,6.068,2.082,8.544c4.065,6.915,11.107,12.12,20.211,16.44c10.828,5.137,23.5,9.59,34.662,12.378
	c1.657,0.414,3.655,0.612,4.883,1.187c0.62,0.292,1.222,1.093,1.883,1.629c4.714,3.849,10.238,7.255,16.733,10.1l7.291,2.654
	c12.293,3.243,23.398,3.936,29.888-5.284l1.023-2.81c0.352-2.898,0.361-5.269-1.03-7.225c-3.015-4.217-10.579-4.056-15.085-4.9
	c0.705-3.039,1.551-6.142,2.425-9.258c0.42-0.629-0.68-0.552-0.282-1.168c5.477-14.554,12.234-28.806,18.944-42.654
	c4.852-10.01,9.792-20.295,15.495-29.282c1.751-2.761,5.04-5.768,5.469-8.868C350.411,198.439,345.617,194.98,342.885,192.87z
	 M122.253,198.276c-7.946,16.31-38.433-7.473-45.954-13.217c8.001,4.838,37.196,25.39,41.611,12.227
	c2.512-7.493-29.74-32.089-35.937-35.858c5.907,7.906,0.12,12.9-2.308,13.373C67.431,177.183,50,156.276,53.028,144.791
	C58.939,122.362,127.56,187.383,122.253,198.276z M129.813,243.029c-2.69,2.079-7.88,1.281-5.163-7.088
	c2.718-8.369,17.176-21.593,27.796-28.461C122.503,229.439,132.503,240.949,129.813,243.029z M232.466,199.073
	c7.163-3.878,7.391-3.777,7.013-4.761c-0.378-0.984-4.796-11.514-7.657-12.108c0,0-13.719,6.736-19.584,8.27
	c-1.539,0.402-2.381-2.284-2.217-2.347c0,0,8.499-3.827,12.434-5.338c3.935-1.511,8.601-4.054,9.584-4.432
	c0.984-0.378,6.689,9.094,9.608,17.19c0,0-0.432,5.244-18.842,11.183c-2.194,0.654-3.731-1.389-2.444-2.447
	C221.646,203.227,225.302,202.951,232.466,199.073z M221.717,191.161c0,0,1.413-0.731,8.499-3.827c0,0,3.527,4.289,3.764,8.336
	c0,0-4.143,2.783-9.156,4.079C224.825,199.749,221.437,194.842,221.717,191.161z M237.37,179.51c-0.001,0,4.627-2.152,6.748-4.471
	l6.26,9.447c0,0-4.239,4.637-7.417,5.668C242.961,190.154,240.758,184.416,237.37,179.51z M152.087,93.562
	c-0.022-3.001,15.938-1.604,17.424-0.67c1.487,0.934,9.293,16.37,14.887,22.123c5.593,5.752,6.117,14.956,5.912,20.302
	c-0.205,5.345,3.255-4.259,4.441-5.09c1.186-0.831,6.243,15.284,13.801,25.173c3.756,1.944,1.762,4.59-1.113,4.941
	c-2.875,0.351,4.286,1.364,7.461,2.779c3.176,1.414,10.439-0.245,21.199,9.167c0,0-19.827,14.006-28.853,11.076
	c-4.286-1.364-10.488-0.864-7.031-5.577c3.458-4.713,10.392-6.247,7.823-9.022c-2.57-2.775-3.149-3.305-11.747-4.143
	c-8.598-0.838-11.294-3.941-12.728-8.656c-1.434-4.716,6.918-14.317,4.55-17.546c-2.368-3.229-4.915-3.003-13.202-16.751
	c-8.287-13.748-7.68-15.108-7.174-18.689c0.507-3.58-0.199-4.438-4.359-5.474c-4.16-1.037-4.209-2.146-4.209-2.146
	S154.127,96.917,152.087,93.562z M208.822,206.08c0,0-10.767,0.371-14.019-0.261s-3.855-4.163-3.779-4.944
	c6.279-1.282,13.443-5.16,13.443-5.16S206.153,201.086,208.822,206.08z M146.16,185.916c0.069-0.062,0.137-0.124,0.206-0.186
	c5.228,1.725,12.058,4.049,18.205,3.759c-0.001,0.095-0.002,0.192-0.004,0.284C158.42,189.935,151.535,187.785,146.16,185.916z
	 M171.677,169.195c-1.351-7.375,1.928-15.54-1.768-26.454c-3.697-10.914-6.104-21.107-9.405-29.707
	c0.399-4.1,8.436,20.347,12.45,26.072c2.422,3.454,0.253,10.876-0.711,18.646c-0.482,3.885,1.5,11.154,5.593,16.129
	c2.5,3.038-3.916,3.345-3.064,4.97c4.517,8.624,5.719,14.588,1.124,12.899C171.3,190.059,173.028,176.569,171.677,169.195z
	 M174.995,217.571c32.418-6.216,38.427-9.307,38.427-9.307s0.932,2.207,2.911,1.704c8.934-2.271,15.899-4.241,22.194-8.331
	c7.076-4.597,5.337-6.187,5.337-6.187s11.726-9.184,10.66-11.428c-4.91-10.341-12.519-18.893-12.519-18.893
	c37.377-14.348,61.476-16.124,65.537-8.606c1.758,3.253-0.943,7.969-6.912,13.535l-1.508-0.549
	c-11.368-3.151-22.393-6.515-32.783-6.854c-2.696-0.088-7.494-0.323-8.726,2.252c-0.539,1.128-0.163,3.328-0.237,4.868
	c-0.469,9.675-3.206,20.588-6.518,31.406C203.773,224.377,174.995,217.571,174.995,217.571z M259.565,188.386
	c1.65-7.362,3.212-15.286,1.598-21.247c-0.194-0.716-0.523-1.415-0.222-1.97c0.824-1.529,5.737-0.682,7.933-0.414
	c8.701,1.06,17.765,3.295,27.12,6.21c19.065,5.957,34.402,15.047,46.718,24.325c-13.278-5.929-23.1-14.543-39.342-19.631
	c-5.869-1.841-12.138-3.683-14.595,1.531c-0.717,1.522-1.018,3.343-1.512,5.114c-1.387,5.031-3.549,10.414-5.4,15.5
	c-7.573,20.807-15.077,42.192-23.975,59.701c-2.417-0.853-4.904-1.863-7.221-2.512c8.604-19.008,16.558-41.907,24.207-63.273
	c1.816-5.074,3.819-10.504,4.638-15.656c0.214-1.356,0.035-3.845,0.549-4.754c1.087-1.928,4.486-0.862,6.688-0.868
	c-2.542-0.468-9.133-2.8-10.696-0.12c-0.698,1.203-0.215,2.82-0.389,3.984c-0.464,3.134-1.776,6.448-2.759,9.855
	c-6.426,22.267-15.178,48.531-24.572,70.103c-4.038-1.427-7.838-2.344-11.658-3.303
	C245.633,232.001,254.926,209.104,259.565,188.386z M271.091,299.355c0.842,0.09,1.887,0.59,2.583,0.353
	c4.521,5.267,12.563,9.538,21.09,12.393C285.201,309.317,276.505,304.652,271.091,299.355z M310.172,295.057
	c5.828,0.835,13.839,3.137,11.63,9.541c-0.821,2.38-3.051,4.664-4.652,5.978c-0.138,0.112-0.376,0.403-0.569,0.263
	c1.941-2.044,5.118-7.389,3.045-9.98c-0.547-0.685-2.052-1.652-3.449-2.2c-5.027-1.946-9.936-2.121-15.079-2.656
	c-14.438-1.514-28.173-1.824-43.727-5.3c-10.1-2.254-21.273-4.992-30.935-10.311c-4.347-2.395-8.663-5.146-12.299-8.021
	c-3.394-2.673-8.488-7.037-7.322-11.981c1.149-4.889,6.13-6.103,10.3-4.632c2.416,0.856,4.722,2.504,6.307,4.063
	c0.446,0.451,1.041,1.067,1.145,1.719c-2.787-3.19-10.558-7.864-13.858-3.746c-0.842,1.052-1.352,2.988-0.854,4.288
	c0.644,1.676,4.29,3.477,6.611,4.532c1.453,0.661,2.955,1.273,4.441,1.738c1.442,0.447,3.008,0.531,4.215,1.059
	c2.33,1.039,3.623,3.358,5.945,4.406c-4.328,0.297-8.76,0.382-13.825-0.902c0.861,1.039,2.232,1.842,3.218,2.822
	c3.933,0.499,7.529,1.038,11.3,1.043c1.094,0.006,2.498-0.459,3.41-0.293c1.095,0.203,2.083,1.259,3.113,1.49
	c0.04,0.349-0.518,0.495-0.822,0.645c-2.498,1.196-5.594,2.304-8.725,2.248c7.05,4.168,16.185,6.163,24.096,7.71
	c7.711,1.517,15.574,2.564,23.365,3.547c7.506,0.952,15.12,1.819,22.704,2.128C302.363,294.402,306.2,294.481,310.172,295.057z
	 M305.762,283.184c-1.532,2.715-2.424,6.372-2.844,9.117c-1.029,0.018-2.07,0.008-3.023,0.19c0.784-3.359,2.37-7.099,3.377-10.567
	c-16.404-8.294-34.155-16.185-53.378-23.2c-3.8,5.634-7.193,12.15-11.042,17.687c-1.57-0.649-2.746-1.485-4.147-2.217
	c3.462-5.808,7.164-11.099,10.632-16.893c-0.721-0.621-1.851-0.518-2.812-1.024c-3.318,5.549-6.566,11.279-10.026,16.527
	c-3.355-1.641-5.593-3.796-7.726-6.003c2.647-4.456,5.314-8.882,7.941-13.388c-0.266-0.377-1.516-0.295-1.77-0.644l0.418-1.149
	c25.499,6.864,54.996,18.094,75.235,30.574c0.724,0.442,2.238,0.981,2.046,2.159C307.821,284.575,306.736,283.465,305.762,283.184z
	 M307.806,281.454c-0.877-0.288-1.099-0.641-2.113-1.003c12.079-26.728,24.721-52.23,37.638-77.15
	c0.645-0.118,2.097-0.009,2.578,0.701C332.779,228.044,318.285,251.734,307.806,281.454z"/>
</svg>
