<svg width="400" height="400" viewBox="0 0 400 400" fill="none" xmlns="http://www.w3.org/2000/svg">
<path style="fill:#FFEE00;" d="M350,132.158c0,0,0.014,11.222-3.02,20.152c-0.495,1.457-1.154,3.062-2.313,4.789
	c-1.704,2.539-3.704,4.171-5.096,5.133H83.714v-1.89h110.328c1.462-0.901,3.563-2.429,5.354-4.806
	c1.218-1.617,1.91-3.12,2.431-4.484c3.187-8.363,3.173-18.871,3.173-18.871c-0.001-0.623-0.069-9.857-2.797-17.506
	c-0.499-1.399-1.202-3.067-2.544-4.891c-1.879-2.555-4.107-4.185-5.616-5.125H83.714v-1.89h255.857
	c1.437,1.004,3.557,2.745,5.346,5.473c1.277,1.948,1.946,3.729,2.421,5.223C349.934,121.632,349.999,131.492,350,132.158z
	 M193.981,121.051c-0.301-0.899-0.724-1.97-1.533-3.141c-1.133-1.641-2.476-2.688-3.386-3.292H96.893v35.763h92.168
	c0.882-0.579,2.148-1.56,3.228-3.087c0.734-1.038,1.152-2.004,1.465-2.88c1.921-5.371,1.913-12.12,1.913-12.12
	C195.666,131.894,195.625,125.963,193.981,121.051z M315.233,199.658c0,0,0.014,11.222-3.02,20.152
	c-0.495,1.457-1.154,3.062-2.313,4.789c-1.704,2.539-3.704,4.171-5.096,5.133H48.948v-1.89h110.328
	c1.462-0.901,3.563-2.429,5.354-4.806c1.218-1.617,1.91-3.12,2.431-4.484c3.187-8.363,3.173-18.871,3.173-18.871
	c-0.001-0.623-0.069-9.857-2.797-17.506c-0.499-1.399-1.202-3.067-2.544-4.891c-1.879-2.555-4.107-4.185-5.616-5.125H48.948v-1.89
	h255.857c1.437,1.004,3.557,2.745,5.346,5.473c1.277,1.948,1.946,3.729,2.421,5.223
	C315.167,189.132,315.232,198.992,315.233,199.658z M159.214,188.551c-0.301-0.899-0.724-1.97-1.533-3.141
	c-1.133-1.641-2.476-2.688-3.386-3.292H62.126v35.763h92.168c0.882-0.579,2.148-1.56,3.228-3.087
	c0.734-1.038,1.152-2.004,1.465-2.88c1.921-5.371,1.913-12.12,1.913-12.12C160.9,199.394,160.858,193.463,159.214,188.551z
	 M337.552,267.158c0,0,0.014,11.222-3.02,20.152c-0.495,1.457-1.154,3.062-2.313,4.789c-1.704,2.539-3.704,4.171-5.096,5.133H71.267
	v-1.89h110.328c1.462-0.901,3.563-2.429,5.354-4.806c1.218-1.617,1.91-3.12,2.431-4.484c3.187-8.363,3.173-18.871,3.173-18.871
	c-0.001-0.623-0.069-9.857-2.797-17.506c-0.499-1.399-1.202-3.067-2.544-4.891c-1.879-2.555-4.107-4.185-5.616-5.125H71.267v-1.89
	h255.857c1.437,1.004,3.557,2.745,5.346,5.473c1.277,1.948,1.946,3.729,2.421,5.223
	C337.486,256.632,337.551,266.492,337.552,267.158z M181.533,256.051c-0.301-0.899-0.724-1.97-1.533-3.141
	c-1.133-1.641-2.476-2.688-3.386-3.292H84.446v35.763h92.168c0.882-0.579,2.148-1.56,3.228-3.087
	c0.734-1.038,1.152-2.004,1.465-2.88c1.921-5.371,1.913-12.12,1.913-12.12C183.219,266.894,183.178,260.963,181.533,256.051z"/>
</svg>
