<svg width="400" height="400" viewBox="0 0 400 400" fill="none" xmlns="http://www.w3.org/2000/svg">
<path style="fill:#0000FF;" d="M125.764,326.954c8.194,2.812,16.533,4.068,25.135,2.067c7.293-1.697,13.317-5.442,18.149-11.136
	c1.029-1.213,1.748-2.154,3.369-0.281c12.408,14.339,31.044,4.755,35.328-6.949c0.829-2.267,0.594-3.436-1.837-4.119
	c-1.407-0.395-2.722-1.182-4.018-1.903c-6.514-3.626-8.482-8.752-5.982-15.763c1.339-3.754,3.426-7.121,5.714-10.37
	c5.866-8.33,13.516-15.002,20.552-22.249c1.675-1.725,2.718-1.479,4.333,0.014c6.486,5.999,12.837,12.129,18.451,18.96
	c3.335,4.058,6.313,8.37,8.286,13.313c2.637,6.606,1.131,11.51-4.931,15.277c-1.505,0.936-3.089,1.89-4.77,2.366
	c-2.744,0.778-2.518,2.27-1.771,4.426c3.827,11.04,22.373,20.999,35.078,7.042c1.62-1.779,2.302-1.616,3.701,0.19
	c3.149,4.066,7.34,6.941,12.025,8.956c10.328,4.443,20.724,3.452,31.053-0.053c0.752-0.255,1.399-0.656,1.95-1.163
	c0.507-0.551,0.908-1.199,1.163-1.95c3.506-10.329,4.496-20.725,0.053-31.053c-2.016-4.685-4.891-8.876-8.956-12.025
	c-1.806-1.399-1.969-2.081-0.19-3.701c13.957-12.705,3.999-31.251-7.042-35.078c-2.156-0.747-3.648-0.973-4.426,1.771
	c-0.476,1.681-1.431,3.264-2.366,4.77c-3.768,6.062-8.671,7.568-15.277,4.931c-4.943-1.973-9.255-4.951-13.313-8.286
	c-6.832-5.614-12.961-11.965-18.96-18.451c-1.493-1.614-1.739-2.658-0.014-4.333c7.247-7.036,13.92-14.686,22.249-20.552
	c3.248-2.288,6.616-4.375,10.37-5.714c7.011-2.5,12.137-0.533,15.763,5.982c0.721,1.295,1.508,2.61,1.903,4.018
	c0.683,2.431,1.852,2.667,4.119,1.837c11.704-4.283,21.288-22.92,6.949-35.328c-1.873-1.621-0.932-2.34,0.281-3.369
	c5.694-4.832,9.44-10.856,11.136-18.149c2.001-8.602,0.745-16.941-2.067-25.135c-0.563-1.64-1.827-2.887-3.473-3.444
	c-10.539-3.57-21.09-4.59-31.585,0.172c-4.675,2.121-8.704,5.137-11.914,9.144c-1.197,1.494-1.849,1.466-3.121,0.004
	c-12.532-14.405-31.659-4.515-35.529,7.609c-0.561,1.757-0.323,2.652,1.532,3.325c2.031,0.737,4.007,1.745,5.83,2.911
	c5.139,3.286,6.817,7.711,5.123,13.569c-1.451,5.018-4.264,9.351-7.409,13.448c-5.815,7.575-12.706,14.139-19.592,20.713
	c-1.6,1.528-2.469,1.127-3.823-0.215c-10.148-10.05-20.392-20.004-30.547-30.048c-11.282-11.159-22.604-22.281-33.701-33.622
	c-4.923-5.031-9.107-10.701-11.794-17.342c-3.078-7.61-1.141-13.1,6.092-16.856c1.141-0.593,2.272-1.293,3.494-1.623
	c2.417-0.652,2.708-1.842,1.89-4.126c-5.242-14.628-24.29-18.809-34.981-7.534c-1.441,1.519-2.158,2.028-3.798,0.157
	c-10.114-11.538-22.97-13.867-37.335-10.744c-1.836,0.399-3.637,0.974-5.433,1.537c-1.01,0.316-1.873,0.834-2.56,1.521
	c-0.687,0.687-1.205,1.55-1.521,2.56c-0.563,1.796-1.138,3.597-1.537,5.433c-3.123,14.365-0.793,27.22,10.744,37.335
	c1.871,1.64,1.362,2.358-0.157,3.798c-11.276,10.691-7.095,29.74,7.534,34.981c2.284,0.818,3.474,0.527,4.126-1.89
	c0.33-1.222,1.03-2.353,1.623-3.494c3.756-7.233,9.246-9.171,16.856-6.092c6.641,2.686,12.311,6.871,17.342,11.794
	c11.341,11.097,22.463,22.419,33.622,33.701c10.044,10.155,19.997,20.398,30.048,30.547c1.342,1.355,1.742,2.223,0.215,3.823
	c-6.574,6.887-13.138,13.777-20.713,19.592c-4.096,3.144-8.429,5.958-13.448,7.409c-5.859,1.694-10.284,0.015-13.569-5.123
	c-1.166-1.823-2.174-3.799-2.911-5.83c-0.674-1.855-1.568-2.093-3.325-1.532c-12.124,3.87-22.014,22.998-7.609,35.529
	c1.462,1.272,1.49,1.924-0.004,3.121c-4.007,3.21-7.023,7.238-9.144,11.914c-4.762,10.495-3.742,21.046-0.172,31.585
	C122.877,325.128,124.125,326.392,125.764,326.954z M130.024,317.156c-3.545-12.486-1.121-25.766,12.16-33.379
	c3.156-1.809,6.307-3.629,9.733-5.601c-2.214-1.868-4.68-2.627-6.888-3.818c-2.783-1.5-5.671-2.781-8.003-5.034
	c-5.026-4.854-3.305-10.439-0.724-14.604c0.905-1.461,1.536-0.748,2.344,0.35c2.444,3.319,5.493,5.893,9.438,7.389
	c6.892,2.614,13.295,0.858,19.486-2.139c6.451-3.123,12.215-7.342,17.346-12.321c7.113-6.903,14.005-14.034,21.08-20.976
	c1.506-1.477,1.76-2.343,0.111-4.003c-22.922-23.087-45.702-46.314-68.673-69.351c-6.307-6.325-13.461-11.687-21.787-15.193
	c-11.044-4.65-20.158-2.091-27.188,7.474c-4.447-2.396-5.263-10.134-1.554-14.488c2.253-2.645,5.332-4.048,8.307-5.601
	c2.337-1.22,4.717-2.359,7.421-3.704c-2.608-2.227-5.33-3.365-7.859-4.787c-7.68-4.319-13.337-10.194-14.982-19.194
	c-0.963-5.265-0.5-10.45,0.964-15.578c0.146-0.513,0.368-0.887,0.667-1.176c0.288-0.299,0.663-0.52,1.176-0.667
	c5.127-1.464,10.312-1.927,15.578-0.964c9.001,1.646,14.876,7.303,19.194,14.982c1.422,2.529,2.56,5.251,4.787,7.859
	c1.345-2.703,2.484-5.083,3.704-7.421c1.553-2.976,2.956-6.054,5.601-8.307c4.354-3.709,12.092-2.893,14.488,1.554
	c-9.565,7.03-12.124,16.144-7.474,27.188c3.506,8.326,8.868,15.48,15.193,21.787c23.037,22.971,46.265,45.752,69.351,68.673
	c1.66,1.648,2.525,1.394,4.003-0.111c6.942-7.076,14.073-13.967,20.976-21.08c4.979-5.131,9.198-10.894,12.321-17.346
	c2.997-6.191,4.753-12.594,2.139-19.486c-1.496-3.946-4.07-6.994-7.389-9.438c-1.098-0.809-1.811-1.439-0.35-2.344
	c4.164-2.581,9.75-4.302,14.604,0.724c2.253,2.333,3.534,5.221,5.034,8.003c1.19,2.208,1.949,4.673,3.818,6.888
	c1.972-3.427,3.791-6.577,5.601-9.733c7.612-13.28,20.893-15.705,33.379-12.16c1.032,0.293,1.744,0.725,2.052,1.855
	c2.261,8.315,2.415,16.397-2.166,24.118c-3.331,5.615-8.565,8.886-14.042,11.944c-1.821,1.017-3.917,1.667-5.53,3.556
	c2.868,1.467,5.48,2.849,8.134,4.146c2.774,1.356,5.449,2.827,7.495,5.223c3.605,4.223,2.915,11.271-1.526,14.491
	c-0.235-0.28-0.497-0.552-0.714-0.856c-5.358-7.499-13.247-10.432-22.159-8.15c-3.757,0.962-7.272,2.547-10.586,4.56
	c-13.926,8.459-24.324,20.812-35.562,32.237c-1.239,1.26-0.328,2.058,0.533,2.956c4.118,4.295,8.195,8.63,12.316,12.922
	c7.775,8.098,15.901,15.806,25.947,21.067c7.864,4.119,15.891,5.558,23.912,0.217c2.571-1.712,4.421-4.14,6.32-6.542
	c5.38,6.039,4.647,13.356-1.674,17.444c-1.903,1.23-4.002,2.153-5.976,3.278c-2.197,1.252-4.694,1.985-6.649,3.589
	c0.293,0.863,0.983,0.89,1.461,1.171c4.346,2.549,9.013,4.647,12.824,7.977c9.158,8.005,10.511,19.807,7.315,30.549
	c-0.089,0.298-0.222,0.525-0.378,0.725c-0.2,0.155-0.428,0.289-0.725,0.378c-10.741,3.196-22.544,1.843-30.549-7.315
	c-3.331-3.81-5.428-8.478-7.977-12.824c-0.28-0.478-0.308-1.168-1.171-1.461c-1.604,1.955-2.336,4.452-3.589,6.649
	c-1.125,1.974-2.048,4.073-3.278,5.976c-4.087,6.321-11.405,7.054-17.444,1.674c2.402-1.898,4.83-3.748,6.542-6.32
	c5.34-8.022,3.901-16.048-0.217-23.912c-5.262-10.046-12.97-18.172-21.067-25.947c-4.292-4.121-8.627-8.198-12.922-12.316
	c-0.898-0.861-1.697-1.772-2.956-0.533c-11.425,11.238-23.778,21.636-32.237,35.562c-2.013,3.314-3.598,6.83-4.56,10.586
	c-2.283,8.912,0.651,16.801,8.15,22.159c0.304,0.217,0.576,0.479,0.856,0.714c-3.22,4.441-10.268,5.131-14.491,1.526
	c-2.396-2.046-3.867-4.721-5.223-7.495c-1.297-2.654-2.68-5.265-4.146-8.134c-1.889,1.612-2.539,3.709-3.556,5.53
	c-3.058,5.477-6.329,10.71-11.944,14.042c-7.722,4.581-15.803,4.428-24.118,2.166C130.749,318.9,130.317,318.188,130.024,317.156z"
	/>
</svg>
