<svg width="400" height="400" viewBox="0 0 400 400" fill="none" xmlns="http://www.w3.org/2000/svg">
<path style="fill:#0000FF;" d="M194.507,75.988c-0.016-0.152-0.037-0.306-0.024-0.459c0.039-0.972,0.15-1.955,1.071-3.282
	c0.331-0.478,1.102-1.363,2.54-1.922c1.638-0.637,4.18-0.438,5.89,1.507c1.188,1.351,1.367,2.86,1.368,3.639
	c-0.003,0.15-0.013,0.305-0.024,0.459c-0.01,0.15-0.037,0.299-0.066,0.447c-0.024,0.12-0.056,0.237-0.086,0.355
	c-0.029-0.019-0.061-0.042-0.088-0.059c-0.23-0.124-0.65-0.204-1.094-0.289l-0.084-0.016c-0.436-0.084-0.961-0.151-1.562-0.2
	c-0.595-0.049-1.238-0.078-1.91-0.085c-0.691-0.009-1.381,0.007-2.056,0.045c-0.447,0.026-0.861,0.059-1.238,0.101
	c-0.38,0.041-0.722,0.09-1.022,0.145c-0.304,0.055-0.567,0.117-0.783,0.183c-0.234,0.072-0.411,0.148-0.547,0.236l-0.115,0.076
	c-0.044-0.157-0.08-0.303-0.103-0.433C194.546,76.286,194.522,76.138,194.507,75.988z M191.99,95.252
	c1.168-0.125,2.36-0.208,3.549-0.244c1.912-0.091,3.89-0.127,5.872-0.108c1.912,0.018,3.746,0.087,5.449,0.205
	c0.341,0.024,0.666,0.05,0.988,0.077c-0.232-0.794-0.465-1.588-0.697-2.382c-0.337-1.151-0.674-2.301-1.01-3.451
	c-0.069-0.235-0.164-0.545-0.294-0.874c0.022,0.004,0.038,0.008,0.042,0.012c-0.405-1.387-0.094-3.08,0.236-4.872
	c0.276-1.499,0.561-3.049,0.333-4.261c-0.146-0.777-0.449-1.268-0.774-1.643l-0.082,0.082c-0.17-0.169-0.566-0.467-0.807-0.62
	c-0.134-0.071-0.564-0.154-0.909-0.22l-0.085-0.016c-0.415-0.08-0.92-0.145-1.5-0.192c-0.581-0.048-1.21-0.076-1.869-0.084
	c-0.676-0.008-1.355,0.007-2.017,0.044c-0.436,0.025-0.84,0.058-1.208,0.098c-0.365,0.04-0.693,0.086-0.981,0.139
	c-0.281,0.051-0.522,0.107-0.716,0.167c-0.224,0.069-0.338,0.127-0.395,0.164l-0.153,0.102c-0.502,0.327-1.26,0.821-1.491,2.046
	l-0.086-0.016c-0.001,0.006-0.003,0.011-0.004,0.017c-0.23,1.214,0.045,2.692,0.333,4.256c0.322,1.746,0.378,2.16,0.426,3.162
	c0.034,0.698-0.065,1.143-0.191,1.705C193.295,90.78,192.643,93.016,191.99,95.252z M181.894,123.539
	c-0.009,0.002-0.02,0.004-0.029,0.006v-0.059v-6.571v-5.041v-0.141c0.215-0.056,0.449-0.11,0.701-0.164
	c0.252-0.054,0.522-0.106,0.81-0.158c0.289-0.052,0.595-0.102,0.919-0.151c0.324-0.049,0.665-0.097,1.022-0.143
	c0.358-0.046,0.733-0.091,1.125-0.135c0.391-0.043,0.798-0.085,1.221-0.125c0.39-0.037,0.796-0.072,1.211-0.105
	c0.045-0.004,0.088-0.008,0.133-0.011c0.046-0.004,0.095-0.007,0.141-0.01c0.046-0.004,0.095-0.007,0.141-0.01
	c0.155-0.012,0.315-0.023,0.474-0.035c0.111-0.008,0.22-0.016,0.333-0.024c0.098-0.007,0.189-0.014,0.289-0.021v0.141v4.949v6.819
	v0.059c-0.966,0.055-1.875,0.118-2.722,0.186c-0.845,0.068-1.629,0.143-2.346,0.223c-0.715,0.08-1.364,0.164-1.941,0.253
	c-0.288,0.044-0.558,0.089-0.81,0.136c-0.012,0.002-0.022,0.005-0.033,0.007c-0.046,0.008-0.083,0.017-0.128,0.026
	c-0.044,0.008-0.085,0.017-0.128,0.026c-0.043,0.009-0.086,0.017-0.128,0.026c-0.042,0.009-0.087,0.017-0.128,0.026
	C181.981,123.521,181.934,123.53,181.894,123.539z M182.214,123.116c0.337-0.066,0.708-0.131,1.11-0.192
	c0.584-0.09,1.242-0.175,1.956-0.254c0.721-0.08,1.513-0.155,2.356-0.224c0.757-0.061,1.563-0.118,2.402-0.168v-10.709
	c-0.882,0.06-1.721,0.126-2.503,0.199c-0.856,0.08-1.649,0.167-2.375,0.259c-0.724,0.092-1.381,0.191-1.966,0.294
	c-0.357,0.063-0.678,0.128-0.98,0.195V123.116z M181.485,123.635c0.031-0.008,0.058-0.015,0.077-0.019
	c-0.013,0.003-0.027,0.006-0.04,0.01c-0.036,0.009-0.072,0.018-0.107,0.027c0.006-0.001,0.009-0.002,0.014-0.004
	C181.45,123.644,181.468,123.639,181.485,123.635z M191.593,122.543c-0.029,0.001-0.059,0.003-0.088,0.004v-0.059v-6.845v-4.932
	v-0.141c0.194-0.011,0.389-0.022,0.587-0.033c0.198-0.01,0.397-0.021,0.599-0.03c0.202-0.01,0.405-0.019,0.611-0.028
	c0.205-0.009,0.413-0.018,0.622-0.026c0.883-0.036,1.771-0.064,2.66-0.085c0.889-0.021,1.778-0.035,2.663-0.042
	c0.445-0.003,0.888-0.005,1.329-0.005c0.437,0,0.871,0.002,1.303,0.005c0.869,0.006,1.726,0.02,2.569,0.039v0v0.141v0.769l0,10.199
	v0.897c-0.025-0.001-0.051-0.001-0.076-0.001c-0.113-0.002-0.231-0.003-0.345-0.005c-0.114-0.002-0.231-0.003-0.345-0.005
	c-0.114-0.002-0.23-0.003-0.345-0.005c-0.115-0.002-0.23-0.003-0.345-0.005c-0.115-0.001-0.23-0.003-0.345-0.005
	c-0.116-0.001-0.229-0.004-0.345-0.005c-0.116-0.001-0.229-0.004-0.345-0.005c-0.025,0-0.05-0.001-0.075-0.001
	c-0.09-0.001-0.181,0-0.27-0.001c-0.115-0.001-0.23-0.001-0.345-0.001c-0.115,0-0.23-0.001-0.345-0.001
	c-0.115,0-0.23-0.001-0.345-0.001c-0.001,0-0.002,0-0.004,0c-0.113,0-0.228,0.001-0.342,0.001c-0.115,0-0.23,0.001-0.345,0.001
	c-0.115,0-0.23,0.001-0.345,0.001c-0.097,0-0.193,0-0.289,0.001c-0.019,0-0.037,0.001-0.056,0.001
	c-0.115,0.001-0.23,0.004-0.345,0.005c-0.115,0.001-0.23,0.003-0.345,0.005c-0.115,0.001-0.23,0.003-0.345,0.005
	c-0.115,0.001-0.23,0.003-0.345,0.005c-0.115,0.002-0.23,0.003-0.345,0.005c-0.115,0.002-0.23,0.003-0.345,0.005
	c-0.115,0.002-0.23,0.002-0.345,0.005c-0.063,0.001-0.126,0.001-0.189,0.003c-0.889,0.018-1.777,0.042-2.66,0.073
	c-0.209,0.007-0.417,0.015-0.622,0.023c-0.206,0.008-0.409,0.016-0.611,0.024c-0.021,0.001-0.041,0.002-0.062,0.003
	c-0.116,0.005-0.231,0.01-0.345,0.015c-0.064,0.003-0.128,0.005-0.191,0.008c-0.052,0.002-0.102,0.005-0.154,0.007
	C191.822,122.532,191.707,122.537,191.593,122.543z M191.853,122.181c0.074-0.003,0.148-0.007,0.223-0.01l0.6-0.026l0.612-0.024
	l0.624-0.023c0.884-0.031,1.774-0.055,2.665-0.073c0.891-0.018,1.781-0.03,2.667-0.036c0.443-0.003,0.885-0.004,1.324-0.004
	s0.877,0.001,1.313,0.004c0.748,0.005,1.488,0.014,2.218,0.027l0-10.746c-0.716-0.015-1.437-0.027-2.171-0.033
	c-0.88-0.007-1.77-0.007-2.665,0c-0.895,0.007-1.796,0.021-2.696,0.042c-0.9,0.021-1.799,0.049-2.693,0.085
	c-0.212,0.008-0.422,0.017-0.63,0.026c-0.208,0.009-0.414,0.019-0.619,0.028c-0.204,0.01-0.406,0.02-0.607,0.031
	c-0.056,0.003-0.11,0.006-0.165,0.009V122.181z M205.753,122.402c-0.049-0.001-0.095-0.003-0.144-0.004v-0.059v-6.686v-5.116v-0.141
	v0c1.021,0.031,2.015,0.072,2.97,0.122c0.954,0.05,1.87,0.108,2.739,0.175c0.867,0.067,1.687,0.142,2.45,0.224
	c0.761,0.082,1.466,0.172,2.104,0.269v0v0.141v5.425v6.265v0.059c-0.058-0.008-0.124-0.014-0.183-0.022
	c-0.096-0.012-0.198-0.024-0.297-0.035c-0.099-0.012-0.195-0.024-0.297-0.035c-0.079-0.009-0.15-0.019-0.23-0.027
	c-0.021-0.002-0.045-0.004-0.067-0.007c-0.095-0.01-0.199-0.02-0.297-0.03c-0.098-0.01-0.197-0.02-0.297-0.03
	c-0.1-0.01-0.195-0.02-0.297-0.03c-0.049-0.005-0.092-0.01-0.141-0.014c-0.05-0.005-0.105-0.009-0.155-0.013
	c-0.096-0.009-0.199-0.017-0.297-0.025c-0.098-0.009-0.197-0.017-0.297-0.025c-0.1-0.008-0.195-0.017-0.297-0.025
	c-0.098-0.008-0.197-0.016-0.297-0.023c-0.097-0.007-0.199-0.014-0.297-0.021c-0.098-0.007-0.197-0.014-0.297-0.021
	c-0.099-0.007-0.196-0.014-0.297-0.021c-0.074-0.005-0.143-0.011-0.218-0.016c-0.026-0.002-0.053-0.003-0.079-0.005
	c-0.097-0.006-0.199-0.012-0.297-0.018c-0.098-0.006-0.198-0.012-0.297-0.018c-0.099-0.006-0.197-0.012-0.297-0.018
	c-0.1-0.006-0.196-0.012-0.297-0.018c-0.025-0.001-0.048-0.003-0.072-0.004c-0.073-0.004-0.151-0.007-0.224-0.011
	c-0.097-0.005-0.198-0.01-0.297-0.015c-0.098-0.005-0.197-0.01-0.297-0.015c-0.099-0.005-0.197-0.01-0.297-0.015
	c-0.097-0.005-0.189-0.01-0.287-0.014c-0.003,0-0.006,0-0.009,0c-0.097-0.004-0.199-0.008-0.297-0.012
	c-0.098-0.004-0.198-0.008-0.297-0.012c-0.099-0.004-0.197-0.008-0.297-0.012c-0.099-0.004-0.197-0.008-0.297-0.012
	c-0.1-0.004-0.196-0.008-0.297-0.012c-0.211-0.007-0.428-0.013-0.642-0.02c-0.115-0.004-0.23-0.007-0.345-0.011
	C205.983,122.409,205.87,122.405,205.753,122.402z M205.957,122.059c0.899,0.025,1.784,0.057,2.637,0.096
	c0.95,0.042,1.874,0.093,2.747,0.15c0.876,0.058,1.704,0.123,2.459,0.193c0.612,0.057,1.19,0.118,1.724,0.183v-10.662
	c-0.491-0.067-1.004-0.131-1.558-0.19c-0.772-0.082-1.602-0.157-2.481-0.224c-0.88-0.067-1.807-0.125-2.773-0.175
	c-0.887-0.046-1.81-0.083-2.754-0.113V122.059z M181.766,123.567c0.012-0.003,0.024-0.006,0.033-0.008
	c0.003-0.001,0.005-0.001,0.008-0.002c-0.02,0.005-0.041,0.009-0.061,0.014c-0.039,0.009-0.077,0.018-0.115,0.027
	c0.003-0.001,0.004-0.001,0.007-0.002C181.696,123.583,181.735,123.574,181.766,123.567z M175.707,110.253
	c0.782-0.218,1.854-0.516,3.184-0.74c1.58-0.265,3.484-0.5,5.661-0.696c2.269-0.205,4.793-0.365,7.503-0.477
	c3.436-0.142,6.983-0.2,10.546-0.169c3.437,0.029,6.721,0.136,9.762,0.319c3.027,0.182,5.647,0.429,7.788,0.734
	c2.21,0.315,3.813,0.68,4.764,1.084c0.166,0.07,0.309,0.141,0.432,0.212c0.122,0.07,0.225,0.143,0.311,0.217
	c-0.345-2.571-2.617-5.581-3.102-6.199c-2.75-3.499-5.514-5.726-7.419-7.13l-0.018,0.029c-0.022-0.009-0.344-0.155-0.641-0.288
	c-0.279-0.126-0.536-0.243-0.548-0.25l-0.145-0.075c-0.517-0.243-1.424-0.475-2.624-0.67c-1.199-0.195-2.659-0.353-4.341-0.47
	c-1.692-0.117-3.514-0.186-5.415-0.204c-1.969-0.02-3.937,0.018-5.844,0.108c-1.22,0.036-2.44,0.121-3.632,0.252l-0.123,0.013
	c-1.065,0.117-1.985,0.217-2.793,0.348c-0.668,0.107-1.238,0.241-1.742,0.358l-0.355,0.083c-0.654,0.148-1.635,0.498-1.78,0.633
	l-0.03-0.032c-4.516,3.291-6.966,6.427-7.79,7.484c-0.015,0.019-1.463,1.885-2.31,3.73c-0.493,1.074-0.675,1.815-0.755,2.382
	c0.253-0.191,0.602-0.353,1.075-0.482L175.707,110.253z M247.997,320.675c-0.031,0.818-0.117,1.214-0.356,1.629
	c-0.032,0.056-0.07,0.11-0.111,0.16c-0.646,0.785-0.936,1.048-1.304,1.313c-1.659,1.191-4.564,2.257-8.633,3.169
	c-3.908,0.876-8.742,1.586-14.365,2.11c-5.671,0.529-11.819,0.84-18.273,0.923c-1.129,0.014-2.266,0.022-3.407,0.022
	c-5.547,0-11.058-0.172-16.379-0.51c-5.096-0.325-9.809-0.79-14.01-1.381c-4.036-0.569-7.529-1.244-10.382-2.006
	c-2.84-0.759-5.009-1.597-6.448-2.491c-2.224-1.381-2.463-2.795-2.273-3.738c0.006-0.028,0.012-0.057,0.02-0.084
	c3.662-13.016,7.012-26.717,9.957-40.723c3.125-14.861,5.696-29.61,7.64-43.841c2.094-15.332,3.433-29.869,3.978-43.208
	c0.556-13.606,0.283-25.983-0.808-36.832c-0.465-0.026-0.921-0.053-1.364-0.081c-3.385-0.211-5.987-0.459-7.732-0.737
	c-2.112-0.336-2.604-0.64-2.774-1.083c-0.029-0.075-0.04-0.153-0.043-0.231c0-0.009-0.005-0.017-0.005-0.027
	c0-0.023,0.002-0.052,0.006-0.082h0c0,0,0.001-0.008,0.003-0.016c0-0.001,0-0.003,0.001-0.005c0.001-0.004,0.001-0.008,0.002-0.011
	c0.001-0.004,0.001-0.008,0.002-0.012c0.055-0.382,0.127-0.725,0.488-1.348c0.513-0.884,1.272-1.717,1.279-1.725
	c0.952-1.042,2.175-2.3,4.614-4.004c1.91-1.334,5.003-3.135,9.21-4.466l-0.582-2.835c-1.005-0.408-0.61-0.908-0.238-1.16
	l-0.054-0.262l-1.044-5.087c-0.603-0.289-0.86-0.609-0.914-0.918c-0.733-0.636,0.189-2.002,0.965-2.294
	c0.83-0.311,2.777-0.67,5.617-0.999v-1.599c-0.259-0.118-0.414-0.271-0.482-0.469c-0.033-0.094-0.035-0.185-0.026-0.275
	c0-0.003-0.002-0.006-0.002-0.01v-1.102c0-0.062,0.016-0.122,0.047-0.175c0.167-0.287,0.292-0.392,0.463-0.484v-10.216
	c-0.013-0.006-0.029-0.01-0.041-0.016c-1.972-0.265-3.566-0.578-4.631-0.933c-0.24-0.08-0.448-0.16-0.626-0.241
	c-0.178-0.081-0.326-0.162-0.443-0.243c-0.029-0.02-0.05-0.04-0.075-0.06l0.027-0.017c-0.164-0.258-0.114-0.389-0.097-0.432
	c0.051-0.133,0.261-0.39,1.09-0.616l0.381-0.105c0.77-0.215,1.824-0.508,3.125-0.727c1.565-0.263,3.455-0.496,5.617-0.691
	c2.259-0.204,4.774-0.364,7.474-0.475c3.427-0.142,6.965-0.199,10.517-0.168c3.427,0.028,6.701,0.135,9.732,0.318
	c3.011,0.181,5.616,0.427,7.741,0.73c2.16,0.308,3.714,0.659,4.619,1.044c0.142,0.06,0.265,0.121,0.369,0.181
	c0.095,0.055,0.174,0.109,0.235,0.163c0.032,0.028,0.056,0.053,0.073,0.073c-0.005,0.12-0.03,0.376-0.056,0.62
	c-0.226,0.149-0.544,0.296-0.955,0.44c-0.874,0.305-2.152,0.592-3.775,0.852c-0.325,0.052-0.673,0.102-1.025,0.151v10.232
	c0.08,0.041,0.159,0.082,0.22,0.127c0.018,0.013,0.034,0.027,0.049,0.043c0.162,0.171,0.277,0.306,0.277,0.502v1.104
	c0,0.01-0.004,0.019-0.005,0.029c0.018,0.104,0.017,0.211-0.021,0.321c-0.072,0.207-0.239,0.363-0.519,0.482v1.324
	c7.254,0.814,6.897,2.143,6.682,3.226c-0.005,0.025-0.011,0.049-0.016,0.073c-0.014,0.12-0.047,0.232-0.079,0.33
	c-0.041,0.128-0.143,0.258-0.279,0.385l0.004,0.002c-0.01,0.01-0.022,0.017-0.033,0.027c-0.032,0.028-0.066,0.055-0.101,0.083
	c-0.073,0.058-0.15,0.112-0.233,0.163c-0.007,0.004-0.014,0.009-0.022,0.013c-0.074,0.044-0.149,0.086-0.228,0.125l-1.091,5.321
	c0.367,0.225,0.252,0.417,0.255,0.526c0.006,0.239-0.272,0.568-0.494,0.667l0.011-0.068c0.001-0.004,0.001-0.016,0.002-0.022
	l-0.597,2.908c1.374,0.416,2.562,0.837,4.587,1.76c0.4,0.182,2.503,1.167,4.677,2.672c4.071,2.817,6.277,5.628,6.433,7.051
	c0.014,0.049,0.02,0.1,0.02,0.154c0,0.093-0.026,0.179-0.066,0.257c-0.156,0.397-0.611,0.57-0.775,0.632
	c-0.8,0.303-2.501,0.587-5.056,0.846c-1.706,0.172-3.755,0.329-6.103,0.47c-1.097,10.879-1.371,23.287-0.812,36.924
	c0.547,13.372,1.893,27.947,3.998,43.32c1.955,14.278,4.541,29.086,7.685,44.013c2.965,14.073,6.34,27.858,10.033,40.972
	C247.987,320.432,248.002,320.553,247.997,320.675z M231.217,260.618c0.236,0.399,0.474,1.065,0.687,2.167
	c0.168,0.93,0.337,1.859,0.509,2.787c0.171,0.928,0.345,1.855,0.52,2.781c0.175,0.926,0.352,1.851,0.53,2.774
	c0.179,0.923,0.359,1.845,0.541,2.766c-0.042,0.028-0.087,0.055-0.135,0.083c-0.048,0.027-0.099,0.055-0.153,0.083
	c-0.054,0.028-0.11,0.055-0.17,0.083c-0.06,0.028-0.122,0.055-0.187,0.083c-0.132,0.056-0.275,0.111-0.429,0.165
	c-0.154,0.054-0.318,0.108-0.492,0.162c-0.068,0.021-0.145,0.041-0.216,0.062c0.041,0.226,0.081,0.454,0.122,0.68
	c0.214-0.051,0.419-0.102,0.614-0.154c0.195-0.052,0.379-0.105,0.554-0.158c0.174-0.053,0.338-0.107,0.492-0.162
	c0.153-0.055,0.297-0.11,0.429-0.165c0.065-0.027,0.128-0.055,0.188-0.082c0.059-0.028,0.116-0.055,0.17-0.083
	c0.054-0.027,0.105-0.055,0.153-0.083c0.048-0.027,0.093-0.055,0.135-0.082c-0.182-0.92-0.362-1.842-0.541-2.766
	c-0.178-0.923-0.355-1.848-0.53-2.774c-0.175-0.926-0.348-1.853-0.52-2.781c-0.171-0.928-0.341-1.857-0.509-2.787
	c-0.499-2.582-1.133-2.785-1.567-2.713C231.345,260.529,231.281,260.573,231.217,260.618z M223.665,137.873
	c-0.04-0.017-0.069-0.034-0.116-0.052c-0.029-0.011-0.071-0.021-0.103-0.032l-0.68,3.287c0.078,0.023,0.152,0.045,0.228,0.068
	L223.665,137.873z M176.383,137.087c0.162-0.047,0.344-0.093,0.551-0.139l-0.859-4.437c-0.063-0.014-0.131-0.027-0.192-0.041
	c-0.174-0.047-0.33-0.095-0.485-0.144l0.922,4.46L176.383,137.087z M177.6,136.818c0.369-0.065,0.782-0.129,1.244-0.19l-0.365-3.705
	c-0.609-0.084-1.175-0.174-1.692-0.269l0.806,4.132L177.6,136.818z M178.995,136.608c0.04-0.005,0.083-0.01,0.124-0.015
	l-0.363-3.632c-0.042-0.006-0.081-0.011-0.122-0.017L178.995,136.608z M180.278,131.488v-1.169c-0.356,0.04-0.705,0.08-1.03,0.121
	c-1.144,0.146-2.093,0.303-2.831,0.466C177.39,131.124,178.707,131.318,180.278,131.488z M176.245,132.547l0.845,4.369
	c0.062-0.013,0.12-0.026,0.187-0.039l-0.837-4.29C176.373,132.574,176.31,132.56,176.245,132.547z M176.541,137.849l0.682,3.299
	c0.165-0.049,0.328-0.098,0.496-0.145l-0.636-3.285c-0.036,0.008-0.074,0.016-0.109,0.024
	C176.812,137.781,176.667,137.816,176.541,137.849z M177.874,140.963c0.06-0.016,0.126-0.031,0.191-0.047l-0.638-3.27
	c-0.064,0.013-0.128,0.025-0.188,0.038L177.874,140.963z M178.386,140.845c0.256-0.053,0.539-0.105,0.858-0.156l-0.282-2.861
	l-0.042-0.423c-0.434,0.059-0.824,0.119-1.171,0.181L178.386,140.845z M179.394,140.666c0.042-0.006,0.087-0.013,0.129-0.019
	l-0.328-3.279c-0.043,0.005-0.083,0.011-0.125,0.017L179.394,140.666z M179.767,139.709v-0.757v-1.654
	c-0.082,0.009-0.159,0.019-0.238,0.029l0.022,0.225L179.767,139.709z M180.278,136.458v-3.316c-0.408-0.044-0.8-0.09-1.18-0.138
	l0.354,3.547C179.716,136.52,179.989,136.489,180.278,136.458z M180.116,140.565c0.66-0.087,1.41-0.169,2.251-0.246l-0.49-3.229
	c-0.564,0.049-1.106,0.099-1.597,0.152c-0.056,0.006-0.109,0.012-0.164,0.018v0.015c0,0.483,0,1.103,0,1.619c0,0.02,0,0.039,0,0.059
	v0c0,0.046,0,0.097,0,0.141C180.116,139.536,180.116,140.049,180.116,140.565z M191.505,135.655v-0.059v-6.006
	c-0.376,0.013-0.754,0.025-1.119,0.039v6.015v0.059c-0.547,0.026-1.071,0.054-1.581,0.083l0.01,0.117
	c1.675-0.064,3.482-0.113,5.4-0.146l-0.008-0.193c-0.093,0.003-0.188,0.004-0.281,0.006c-0.209,0.006-0.417,0.012-0.622,0.019
	c-0.206,0.006-0.409,0.013-0.611,0.02c-0.202,0.007-0.401,0.014-0.599,0.021C191.894,135.64,191.699,135.648,191.505,135.655z
	 M205.609,135.533v-0.059v-5.996c-0.385-0.007-0.772-0.012-1.161-0.018l0,6.05c-0.842-0.014-1.7-0.023-2.568-0.028
	c-0.09-0.001-0.181,0-0.27-0.001c-0.115,0-0.23-0.001-0.345-0.001c-0.015,0-0.031,0-0.046,0v0.002l-0.002,0.233
	c1.609,0.007,3.268,0.025,4.974,0.055l0.011-0.223c-0.034-0.001-0.068-0.002-0.102-0.003c-0.116-0.003-0.229-0.006-0.345-0.009
	C205.705,135.536,205.658,135.534,205.609,135.533z M215.872,136.088c0.024,0.003,0.048,0.005,0.072,0.008
	c0.214,0.012,0.417,0.024,0.621,0.037v-0.024v-6.172c-0.228-0.017-0.459-0.033-0.693-0.049v6.141V136.088
	c-0.058-0.006-0.124-0.012-0.183-0.018c-0.096-0.01-0.198-0.019-0.297-0.029c-0.099-0.01-0.195-0.02-0.297-0.029
	c-0.1-0.009-0.195-0.019-0.297-0.028c-0.095-0.008-0.199-0.016-0.297-0.025c-0.098-0.008-0.197-0.016-0.297-0.025
	c-0.1-0.008-0.195-0.017-0.297-0.024c-0.049-0.004-0.092-0.008-0.141-0.012c-0.05-0.004-0.105-0.007-0.155-0.011
	c-0.096-0.007-0.199-0.014-0.297-0.021c-0.098-0.007-0.197-0.014-0.297-0.021c-0.1-0.007-0.195-0.014-0.297-0.021
	c-0.002,0-0.005,0-0.007,0v0l-0.011,0.12c1.197,0.046,2.273,0.096,3.239,0.15c0,0,0,0,0.001,0c-0.009-0.001-0.017-0.002-0.026-0.003
	C215.901,136.091,215.89,136.09,215.872,136.088z M215.524,129.865c-0.72-0.047-1.467-0.091-2.242-0.131l-0.534,5.746
	c0.358,0.023,0.71,0.048,1.046,0.073c0.614,0.047,1.194,0.097,1.729,0.15V129.865z M212.933,129.716
	c-0.078-0.004-0.158-0.008-0.237-0.011l-0.597,6.219c0.084,0.003,0.173,0.006,0.256,0.009L212.933,129.716z M211.974,135.781
	L211.974,135.781c-0.047-0.003-0.094-0.006-0.141-0.008c-0.099-0.006-0.196-0.012-0.297-0.017c-0.074-0.004-0.143-0.009-0.218-0.013
	c-0.026-0.001-0.053-0.002-0.079-0.004c-0.097-0.005-0.199-0.01-0.297-0.015c-0.098-0.005-0.198-0.01-0.297-0.015
	c-0.099-0.005-0.197-0.01-0.297-0.015c-0.1-0.005-0.196-0.01-0.297-0.015c-0.098-0.004-0.198-0.008-0.297-0.013
	c-0.097-0.004-0.198-0.008-0.297-0.012c-0.098-0.004-0.197-0.008-0.297-0.012c-0.099-0.004-0.197-0.008-0.297-0.012
	c-0.097-0.004-0.189-0.008-0.287-0.012c-0.003,0-0.006,0-0.009,0c-0.097-0.004-0.199-0.006-0.297-0.01
	c-0.098-0.003-0.198-0.006-0.297-0.01c-0.099-0.003-0.197-0.007-0.297-0.01c-0.099-0.003-0.197-0.007-0.297-0.01
	c-0.1-0.003-0.196-0.007-0.297-0.009c-0.04-0.001-0.081-0.002-0.121-0.003l-0.011,0.218c0.376,0.007,0.752,0.015,1.133,0.023
	c1.414,0.032,2.693,0.069,3.873,0.111L211.974,135.781z M212.558,129.698c-0.135-0.006-0.267-0.013-0.404-0.02
	c-1.55-0.071-3.191-0.126-4.891-0.166l-0.281,5.708c0.546,0.015,1.085,0.032,1.61,0.051c0.946,0.034,1.87,0.076,2.745,0.123
	c0.229,0.012,0.447,0.026,0.67,0.039L212.558,129.698z M206.917,129.505c-0.087-0.002-0.177-0.003-0.264-0.005l-0.322,6.274
	c0.092,0.002,0.184,0.003,0.277,0.005L206.917,129.505z M206.511,129.497c-0.184-0.004-0.368-0.008-0.554-0.011v5.707
	c0.088,0.002,0.174,0.005,0.261,0.007L206.511,129.497z M204.099,129.457c-0.513-0.006-1.023-0.013-1.543-0.017
	c-0.428-0.003-0.863-0.001-1.294-0.002l-0.043,5.695c0.221,0.001,0.442,0.001,0.661,0.002c0.748,0.004,1.489,0.012,2.218,0.022
	L204.099,129.457z M200.919,129.438c-0.101,0-0.201-0.001-0.303-0.001l-0.047,6.277c0.1,0,0.202,0.001,0.303,0.001L200.919,129.438z
	 M194.976,135.746c1.733-0.025,3.553-0.037,5.449-0.033l0.002-0.23l0-0.003c-0.066,0-0.133,0-0.199,0.001
	c-0.115,0-0.23,0.001-0.345,0.001c-0.115,0-0.23,0-0.345,0.001c-0.097,0-0.193,0-0.289,0.001c-0.019,0-0.037,0.001-0.056,0.001
	c-0.115,0.001-0.23,0.003-0.345,0.004c-0.115,0.001-0.23,0.003-0.345,0.004c-0.115,0.001-0.23,0.003-0.345,0.004
	c-0.115,0.001-0.23,0.002-0.345,0.004s-0.23,0.002-0.345,0.004c-0.115,0.002-0.23,0.002-0.345,0.004
	c-0.115,0.002-0.23,0.002-0.345,0.004c-0.063,0.001-0.126,0.001-0.189,0.002c-0.54,0.009-1.078,0.023-1.617,0.036L194.976,135.746z
	 M200.472,129.437c-1.911,0.002-3.846,0.022-5.777,0.064l0.257,5.7c0.542-0.013,1.083-0.027,1.627-0.036
	c0.89-0.015,1.781-0.024,2.666-0.029c0.396-0.002,0.791-0.003,1.184-0.003L200.472,129.437z M194.355,129.51
	c-0.087,0.002-0.173,0.005-0.26,0.007l0.267,6.24c0.092-0.002,0.182-0.003,0.275-0.005L194.355,129.51z M193.947,129.52
	c-0.587,0.014-1.175,0.028-1.759,0.046c-0.114,0.004-0.222,0.008-0.335,0.012v5.715l0.226-0.009l0.6-0.021l0.612-0.02l0.624-0.019
	c0.092-0.003,0.184-0.004,0.276-0.006L193.947,129.52z M190.037,129.644c-0.594,0.024-1.177,0.049-1.742,0.076l0.48,5.719
	c0.412-0.024,0.832-0.046,1.262-0.067V129.644z M187.959,129.738c-0.077,0.004-0.151,0.008-0.228,0.012l0.495,6.178
	c0.084-0.003,0.167-0.007,0.252-0.01L187.959,129.738z M188.067,135.832c-0.133,0.008-0.273,0.016-0.403,0.025
	c-0.049,0.003-0.092,0.007-0.141,0.01c-0.064,0.004-0.123,0.009-0.187,0.013c-0.063,0.004-0.124,0.009-0.187,0.013
	c-0.063,0.004-0.125,0.009-0.187,0.013c-0.062,0.004-0.126,0.009-0.187,0.013c-0.061,0.005-0.126,0.009-0.187,0.013
	c-0.061,0.005-0.126,0.009-0.187,0.014c-0.065,0.005-0.123,0.011-0.187,0.016c-0.064,0.005-0.124,0.01-0.187,0.016
	c-0.063,0.005-0.125,0.01-0.187,0.016c-0.062,0.005-0.126,0.01-0.187,0.016c-0.061,0.005-0.126,0.01-0.187,0.016
	c-0.049,0.004-0.103,0.008-0.152,0.013c-0.012,0.001-0.023,0.002-0.035,0.003c-0.065,0.006-0.123,0.012-0.187,0.018
	c-0.064,0.006-0.124,0.012-0.187,0.018c-0.063,0.006-0.125,0.012-0.187,0.018c-0.05,0.005-0.103,0.01-0.152,0.015c0,0,0,0,0.001,0
	c1.085-0.067,2.257-0.127,3.503-0.178L188.067,135.832z M187.581,129.758c-0.967,0.05-1.901,0.104-2.775,0.164
	c-0.924,0.063-1.781,0.132-2.592,0.205v4.379l0.235,1.517c0.277-0.042,0.568-0.084,0.885-0.123c0.583-0.073,1.24-0.143,1.953-0.208
	c0.72-0.066,1.512-0.127,2.354-0.183c0.129-0.009,0.267-0.016,0.398-0.025L187.581,129.758z M181.865,130.157
	c-0.11,0.01-0.213,0.021-0.32,0.031l0.32,2.067V130.157z M181.215,130.222c-0.073,0.007-0.146,0.015-0.217,0.022l0.919,6.061
	c0.077-0.007,0.159-0.013,0.238-0.019L181.215,130.222z M181.414,136.349c0.115-0.01,0.228-0.021,0.346-0.031l-0.346-2.279V136.349z
	 M180.841,130.26c-0.032,0.003-0.067,0.007-0.099,0.01v6.101c0.094-0.026,0.198-0.054,0.324-0.084v-4.544L180.841,130.26z
	 M182.523,140.305c0.082-0.007,0.167-0.014,0.25-0.022l-0.5-3.228c-0.081,0.007-0.16,0.014-0.24,0.02L182.523,140.305z
	 M183.104,140.255c0.05-0.004,0.096-0.009,0.146-0.013c1.297-0.106,2.772-0.2,4.381-0.28c0.249-0.012,0.508-0.024,0.764-0.035
	l-0.258-3.228c-0.898,0.04-1.767,0.082-2.579,0.129c-1.064,0.061-2.047,0.129-2.953,0.201L183.104,140.255z M188.545,139.92
	c0.09-0.004,0.176-0.008,0.267-0.012l-0.271-3.227c-0.086,0.004-0.169,0.008-0.255,0.011L188.545,139.92z M189.149,139.893
	c1.22-0.051,2.5-0.095,3.831-0.13c0.463-0.012,0.935-0.021,1.404-0.031l-0.138-3.227c-0.561,0.012-1.122,0.022-1.679,0.037
	c-1.291,0.034-2.522,0.075-3.688,0.122L189.149,139.893z M194.531,139.73c0.095-0.002,0.189-0.004,0.284-0.006l-0.145-3.227
	c-0.092,0.002-0.184,0.004-0.276,0.006L194.531,139.73z M195.155,139.716c1.729-0.032,3.487-0.048,5.24-0.049l0.024-3.227
	c-1.79,0.002-3.601,0.017-5.41,0.049L195.155,139.716z M200.539,139.667c0.101,0,0.202,0,0.303,0l0.024-3.227
	c-0.101,0-0.201-0.001-0.303,0L200.539,139.667z M201.185,139.668c0.366,0.001,0.734,0,1.098,0.002
	c1.26,0.007,2.492,0.023,3.703,0.044l0.166-3.227c-1.224-0.021-2.469-0.038-3.743-0.045c-0.397-0.002-0.8-0.001-1.2-0.002
	L201.185,139.668z M206.128,139.716c0.094,0.002,0.191,0.003,0.285,0.005l0.159-3.227c-0.092-0.002-0.186-0.003-0.279-0.005
	L206.128,139.716z M206.76,139.727c1.424,0.03,2.808,0.07,4.14,0.12c0.231,0.009,0.455,0.018,0.68,0.028l0.31-3.228
	c-0.124-0.005-0.245-0.01-0.37-0.015c-1.459-0.056-3.003-0.1-4.602-0.132L206.76,139.727z M211.719,139.88
	c0.09,0.004,0.179,0.007,0.268,0.011l0.3-3.228c-0.085-0.004-0.172-0.007-0.258-0.011L211.719,139.88z M212.337,139.908
	c1.8,0.082,3.418,0.181,4.829,0.297l0.481-3.231c-1.482-0.116-3.167-0.215-5.011-0.296L212.337,139.908z M219.027,130.145
	c-0.073-0.007-0.149-0.014-0.222-0.021l-0.908,6.096c0.081,0.006,0.162,0.012,0.241,0.018L219.027,130.145z M218.51,136.122
	c0.036,0.008,0.079,0.015,0.114,0.022c0.172,0.038,0.327,0.077,0.466,0.116v-4.111L218.51,136.122z M218.67,130.112
	c-0.558-0.052-1.144-0.102-1.756-0.149v5.897c0.158,0.021,0.31,0.042,0.456,0.063c0.151,0.022,0.285,0.045,0.424,0.068
	L218.67,130.112z M217.301,140.216c0.085,0.007,0.169,0.014,0.252,0.021l0.472-3.234c-0.079-0.006-0.163-0.013-0.243-0.019
	L217.301,140.216z M217.904,140.269c0.681,0.062,1.299,0.128,1.847,0.197v-3.294v-0.007c-0.311-0.033-0.631-0.065-0.971-0.096
	c-0.131-0.012-0.269-0.023-0.404-0.035L217.904,140.269z M219.9,136.391l0.334-3.424c-0.216,0.026-0.443,0.051-0.68,0.077v3.313
	C219.674,136.368,219.786,136.38,219.9,136.391z M222.274,136.698c0.063,0.011,0.129,0.022,0.189,0.033l0.818-4.223
	c-0.065,0.013-0.123,0.025-0.196,0.039L222.274,136.698z M222.943,132.572c-0.5,0.092-1.18,0.201-2.091,0.319l-0.343,3.564
	c0.643,0.072,1.183,0.146,1.633,0.22L222.943,132.572z M222.81,136.798c0.265,0.055,0.484,0.11,0.67,0.165l0.981-4.742
	c-0.296,0.091-0.567,0.153-0.75,0.196c-0.016,0.004-0.038,0.008-0.055,0.012L222.81,136.798z M223.463,130.77
	c-0.928-0.201-2.165-0.384-3.662-0.546c-0.08-0.009-0.165-0.017-0.246-0.025v1.18c0.244-0.027,0.481-0.055,0.71-0.084
	C221.568,131.133,222.642,130.957,223.463,130.77z M220.038,136.405c0.041,0.004,0.085,0.008,0.125,0.013l0.335-3.483
	c-0.04,0.005-0.082,0.01-0.123,0.015L220.038,136.405z M220.119,140.515c0.465,0.063,0.88,0.129,1.236,0.198l0.635-3.255
	c-0.452-0.076-0.974-0.148-1.556-0.217L220.119,140.515z M221.486,140.74c0.065,0.013,0.132,0.026,0.193,0.04l0.632-3.265
	c-0.061-0.011-0.126-0.022-0.19-0.033L221.486,140.74z M222.023,140.861c0.014,0.004,0.03,0.007,0.043,0.01
	c0.199,0.058,0.385,0.112,0.571,0.167l0.68-3.29c-0.051-0.015-0.091-0.031-0.147-0.046c-0.151-0.041-0.326-0.081-0.513-0.12
	L222.023,140.861z M224.96,131.53c0-0.001-0.026-0.056-0.191-0.148l-1.162,5.62c0.08,0.026,0.154,0.051,0.22,0.076l1.117-5.441
	L224.96,131.53z M180.446,125.104c0.109-0.058,0.245-0.115,0.407-0.171c0.162-0.056,0.349-0.112,0.562-0.167v0.141v2.774
	c0.15-0.016,0.297-0.032,0.451-0.047v-2.834v-0.141c0.43-0.094,0.935-0.185,1.511-0.272c0.578-0.087,1.226-0.17,1.941-0.249
	c0.717-0.078,1.5-0.152,2.346-0.219c0.847-0.068,1.756-0.129,2.722-0.184v0.004v0.137v3.148c0.368-0.018,0.742-0.034,1.119-0.051
	v-3.156v-0.141c0.194-0.009,0.389-0.019,0.587-0.028c0.198-0.009,0.397-0.017,0.599-0.026c0.202-0.008,0.405-0.016,0.611-0.024
	c0.205-0.008,0.413-0.015,0.622-0.022c0.883-0.03,1.771-0.054,2.66-0.072c0.889-0.018,1.778-0.029,2.663-0.035
	c0.445-0.003,0.889-0.004,1.331-0.004c0.436,0,0.87,0.001,1.301,0.004c0.869,0.006,1.726,0.017,2.569,0.033l0,3.271
	c0.385,0.004,0.771,0.008,1.161,0.014v-3.117v-0.141v0c1.021,0.027,2.015,0.061,2.97,0.103c0.477,0.021,0.945,0.044,1.402,0.068
	c0.457,0.025,0.903,0.051,1.337,0.079c0.867,0.056,1.687,0.12,2.45,0.189c0.761,0.07,1.466,0.145,2.104,0.227v0v0.141v2.827
	c0.239,0.016,0.465,0.033,0.693,0.05v-2.782v-0.141c0.266,0.039,0.518,0.079,0.754,0.121c0.236,0.041,0.457,0.084,0.663,0.127
	c0.205,0.043,0.394,0.088,0.566,0.133c0.172,0.045,0.328,0.092,0.465,0.139c0.125,0.043,0.234,0.086,0.327,0.129
	c0.093,0.043,0.169,0.086,0.23,0.129c0.03,0.022,0.057,0.043,0.085,0.081c0.028,0.038,0.058,0.091,0.096,0.177v-0.059v-0.904v-0.141
	v0c0-0.011-0.001-0.022-0.005-0.035c-0.012-0.039-0.051-0.096-0.176-0.227c-0.007-0.005-0.018-0.009-0.025-0.014
	c-0.057-0.039-0.123-0.078-0.205-0.117c-0.026-0.012-0.063-0.024-0.091-0.037c-0.073-0.032-0.145-0.063-0.236-0.095
	c-0.138-0.048-0.293-0.095-0.465-0.142c-0.172-0.046-0.361-0.091-0.566-0.135c-0.067-0.014-0.146-0.028-0.216-0.042
	c-0.097-0.019-0.194-0.039-0.297-0.058c-0.052-0.01-0.097-0.02-0.15-0.029c-0.046-0.008-0.099-0.016-0.147-0.024
	c-0.095-0.016-0.197-0.032-0.297-0.048c-0.1-0.016-0.192-0.032-0.297-0.048c-0.005-0.001-0.009-0.002-0.014-0.002v-0.059v-6.26
	v-5.415v-0.141c0.266,0.046,0.518,0.094,0.754,0.143c0.236,0.049,0.457,0.099,0.663,0.15c0.205,0.051,0.394,0.104,0.566,0.158
	c0.172,0.054,0.328,0.109,0.465,0.165c0.125,0.051,0.234,0.102,0.327,0.153c0.093,0.051,0.169,0.102,0.23,0.153
	c0.061,0.051,0.106,0.102,0.181,0.305v-0.956v-0.141c0-0.051-0.015-0.103-0.045-0.154c-0.03-0.052-0.075-0.103-0.136-0.155
	c-0.061-0.052-0.138-0.104-0.23-0.155c-0.093-0.052-0.202-0.104-0.327-0.155c-0.138-0.057-0.293-0.113-0.465-0.167
	c-0.172-0.054-0.361-0.108-0.566-0.16c-0.205-0.052-0.426-0.103-0.663-0.152c-0.236-0.05-0.488-0.098-0.754-0.145
	c-0.014-0.002-0.028-0.005-0.044-0.008c-0.05-0.009-0.124-0.021-0.295-0.05c-0.014-0.002-0.029-0.005-0.046-0.007
	c-0.052-0.008-0.129-0.021-0.308-0.049c-0.638-0.098-1.343-0.189-2.104-0.273c-0.763-0.084-1.583-0.159-2.45-0.227
	c-0.869-0.068-1.785-0.127-2.739-0.177c-0.955-0.05-1.948-0.092-2.97-0.123c-0.096-0.003-0.192-0.006-0.288-0.009
	c-0.096-0.003-0.193-0.005-0.29-0.008c-0.097-0.003-0.194-0.005-0.291-0.008c-0.097-0.003-0.195-0.005-0.292-0.007
	c-0.842-0.02-1.7-0.033-2.569-0.04c-0.721-0.006-1.453-0.004-2.186,0c0.098-0.001,0.198-0.003,0.296-0.003
	c-0.247,0.001-0.494,0.001-0.742,0.003c-0.253,0.002-0.507,0.009-0.76,0.012c0.001,0,0.003,0,0.004,0
	c-0.571,0.007-1.143,0.014-1.715,0.027c0,0,0,0,0,0c-0.064,0.001-0.128,0.001-0.191,0.003c-0.515,0.012-1.027,0.032-1.541,0.05
	c0.004,0,0.007,0,0.011,0c-0.377,0.013-0.755,0.021-1.13,0.036c-0.209,0.009-0.417,0.018-0.622,0.027
	c-0.206,0.009-0.409,0.019-0.611,0.029c-0.202,0.01-0.401,0.02-0.599,0.031c-0.198,0.011-0.393,0.022-0.587,0.033
	c-0.095,0.006-0.19,0.011-0.284,0.017s-0.188,0.012-0.281,0.017c-0.093,0.006-0.186,0.012-0.278,0.018
	c-0.092,0.006-0.184,0.012-0.275,0.018c-0.966,0.065-1.875,0.139-2.722,0.22c-0.845,0.081-1.629,0.169-2.346,0.263
	c-0.715,0.094-1.364,0.194-1.941,0.298c-0.576,0.104-1.081,0.214-1.511,0.326c-0.04,0.011-0.08,0.021-0.234,0.064
	c-0.009,0.003-0.019,0.005-0.03,0.009c-0.022,0.006-0.05,0.015-0.099,0.029c-0.024,0.007-0.053,0.016-0.089,0.027
	c-0.213,0.066-0.4,0.133-0.562,0.2c-0.162,0.068-0.297,0.136-0.407,0.205c-0.109,0.069-0.192,0.138-0.247,0.208
	c-0.055,0.07-0.083,0.14-0.083,0.211v0.141v0.954c0.01-0.042,0.023-0.082,0.042-0.119c0.001-0.001,0.002-0.003,0.003-0.004
	c0.014-0.028,0.032-0.054,0.052-0.08c0.015-0.02,0.033-0.04,0.052-0.059c0.017-0.017,0.032-0.034,0.052-0.051
	c0.015-0.013,0.034-0.026,0.052-0.039c0.016-0.012,0.034-0.024,0.052-0.036c0.015-0.01,0.026-0.019,0.042-0.029
	c0.204-0.123,0.509-0.242,0.954-0.395v0.141v5.007v6.588v0.059c-0.011,0.003-0.02,0.006-0.031,0.009
	c-0.045,0.012-0.085,0.024-0.128,0.036c-0.042,0.012-0.088,0.024-0.128,0.036c-0.004,0.001-0.009,0.003-0.013,0.004
	c-0.094,0.028-0.181,0.057-0.262,0.085c-0.162,0.057-0.297,0.115-0.407,0.174c-0.027,0.015-0.053,0.029-0.078,0.047
	c-0.002,0.002-0.004,0.004-0.007,0.006c-0.041,0.029-0.082,0.07-0.128,0.128c-0.036,0.045-0.073,0.099-0.117,0.175l0,0v0.141v0.903
	v0.059c0-0.059,0.028-0.117,0.083-0.176C180.254,125.22,180.337,125.162,180.446,125.104z M181.066,123.388v-10.569
	c-0.118,0.041-0.227,0.081-0.324,0.118v10.555C180.841,123.457,180.949,123.422,181.066,123.388z M218.806,112.66
	c-0.174-0.054-0.366-0.106-0.573-0.158c-0.208-0.051-0.432-0.101-0.671-0.15c-0.203-0.042-0.423-0.082-0.648-0.121v10.642
	c0.161,0.026,0.317,0.052,0.467,0.078c0.241,0.043,0.466,0.087,0.675,0.132c0.211,0.045,0.406,0.092,0.583,0.14
	c0.167,0.045,0.315,0.091,0.451,0.137v-10.6C218.997,112.726,218.911,112.692,218.806,112.66z M218.806,125.585
	c-0.174-0.046-0.366-0.09-0.573-0.133c-0.208-0.043-0.432-0.086-0.671-0.127c-0.203-0.035-0.423-0.069-0.648-0.102v2.018
	c0.788,0.061,1.513,0.126,2.176,0.195v-1.767C218.997,125.641,218.911,125.612,218.806,125.585z M213.966,124.882
	c-0.772-0.07-1.602-0.133-2.481-0.189c-0.88-0.056-1.807-0.106-2.773-0.148c-0.887-0.039-1.81-0.07-2.754-0.095v2.344
	c0.872,0.014,1.752,0.031,2.647,0.054c2.695,0.069,4.974,0.17,6.919,0.295v-2.101C215.032,124.986,214.52,124.932,213.966,124.882z
	 M201.928,124.382c-0.88-0.006-1.77-0.006-2.665,0c-0.895,0.006-1.796,0.018-2.696,0.035c-0.9,0.018-1.799,0.042-2.693,0.072
	c-0.212,0.007-0.422,0.015-0.63,0.022c-0.208,0.008-0.414,0.016-0.619,0.024c-0.204,0.008-0.406,0.017-0.607,0.026
	c-0.056,0.002-0.11,0.005-0.165,0.008v2.39c3.67-0.151,7.792-0.227,12.246-0.188l0-2.361
	C203.383,124.398,202.662,124.387,201.928,124.382z M187.535,124.831c-0.856,0.067-1.649,0.141-2.375,0.219
	c-0.724,0.078-1.381,0.161-1.966,0.249c-0.357,0.053-0.678,0.109-0.98,0.165v2.137c2.224-0.217,4.855-0.411,7.823-0.559v-2.379
	C189.156,124.714,188.316,124.77,187.535,124.831z M180.742,125.812v1.941c0.107-0.012,0.214-0.024,0.324-0.036v-2.001
	C180.95,125.748,180.842,125.78,180.742,125.812z M174.571,129.741c2.473-1.267,16.133-2.416,33.943-1.957
	c14.553,0.375,17.295,1.658,17.663,2.632c0.269-0.952,0.067-2.756-17.663-3.213c-17.811-0.459-31.47,0.69-33.943,1.957
	c-0.27,0.139-1.105,0.808-0.834,1.505C173.9,130.21,174.378,129.84,174.571,129.741z M175.854,137.278
	c0.027-0.014,0.053-0.027,0.077-0.037c0.041-0.018,0.092-0.035,0.139-0.052l-1.167-5.641c-0.134,0.073-0.176,0.118-0.186,0.118
	c-0.001,0-0.002-0.001-0.003-0.002l0.011,0.115L175.854,137.278z M176.681,141.312c0.076-0.024,0.15-0.048,0.227-0.072l-0.681-3.294
	c-0.09,0.034-0.161,0.069-0.214,0.108L176.681,141.312z M203.83,149.579c13.126,0,22.051,0.68,25.861,0.97l0.836,0.063
	c2.87,0.212,5.016,0.716,6.436,1.049l0.414,0.096c-0.74-1.153-2.377-3.005-5.439-5.124c-2.094-1.449-4.115-2.395-4.499-2.57
	c-2.536-1.157-3.721-1.502-5.684-2.072c-0.776-0.206-2.185-0.407-4.064-0.576c-1.883-0.169-4.183-0.306-6.835-0.407
	c-2.679-0.102-5.565-0.162-8.579-0.177c-0.532-0.003-1.066-0.004-1.604-0.004c-2.59,0-5.169,0.033-7.664,0.098
	c-1.885,0.049-3.675,0.116-5.321,0.197c-1.598,0.079-3.06,0.173-4.345,0.278c-1.256,0.102-2.347,0.216-3.243,0.337
	c-0.871,0.118-1.546,0.242-2.007,0.367c-4.695,1.305-8.091,3.262-10.112,4.675c-2.341,1.636-3.512,2.839-4.425,3.838
	c-0.007,0.007-0.569,0.627-1.005,1.317c0.178-0.046,0.374-0.095,0.588-0.149C168.604,150.418,190.522,149.579,203.83,149.579z
	 M174.541,197.638c-0.015,0.009,0.389,0.019,1.172,0.027c0.788,0.009,1.961,0.018,3.478,0.025c1.526,0.008,3.399,0.015,5.574,0.021
	c2.185,0.006,4.673,0.011,7.414,0.014c3.458,0.004,6.98,0.006,10.381,0.005c3.398-0.001,6.662-0.004,9.609-0.01
	c2.935-0.005,5.545-0.013,7.656-0.022c2.096-0.009,3.695-0.02,4.629-0.032c0.155-0.002,0.29-0.004,0.404-0.006
	c0.114-0.002,0.208-0.004,0.491-0.018c-0.114-2.044-0.212-4.074-0.291-6.089c-0.08-2.015-0.142-4.015-0.186-5.997
	c-0.044-1.983-0.069-3.948-0.076-5.894c-0.007-1.946,0.006-3.874,0.038-5.78c0.002-0.011-0.005-0.022-0.093-0.067
	c-0.009-0.003-0.119-0.023-0.286-0.049c0.01-1.153,0.017-1.997,0.019-2.066c0.005-0.227,0.011-0.453,0.017-0.679
	c0.038-2.362-0.392-2.746-0.719-2.83c-0.173,0.004-0.353,0.107-0.523,0.284c0.2,0.344,0.356,1.047,0.333,2.511
	c-0.006,0.226-0.012,0.452-0.017,0.679c-0.006,0.227-0.075,8.724-0.07,9.331c-0.078-0.005-0.155-0.009-0.24-0.013
	c-0.126-0.007-0.685-0.032-0.838-0.038c-0.003-0.433,0.027-4.73,0.047-7.377c-0.007,0-0.014-0.001-0.021-0.001
	c-1.291-0.08-3.048-0.15-5.152-0.208c-2.115-0.059-4.576-0.105-7.259-0.138c-2.691-0.033-5.599-0.051-8.594-0.054
	c-2.996-0.002-6.072,0.011-9.097,0.043c-0.362,0.004-0.72,0.008-1.073,0.012c-0.353,0.004-0.701,0.008-1.045,0.013
	c-0.344,0.005-0.682,0.009-1.016,0.015c-0.093,0.001-0.471,0.014-1.001,0.03c0.013,2.898,0.03,7.055,0.029,7.467
	c-0.478,0.005-4.805,0.068-5.189,0.075c0.264-0.005,0.542-0.01,0.817-0.014c0.003-0.623-0.057-9.973-0.061-10.202
	c0.036-1.529,0.812-2.54,2.085-2.783c-0.159-0.028-0.322-0.05-0.492-0.055c-1.47,0.12-2.371,1.181-2.41,2.838
	c0.001,0.079,0.01,1.251,0.02,2.775c-7.104,0.211-7.593,0.407-7.95,0.549C175.1,185.075,174.97,187.988,174.541,197.638z
	 M168.927,248.182c-0.043,0.24,0.425,0.477,1.36,0.705c0.943,0.23,2.359,0.449,4.202,0.65c1.856,0.202,4.142,0.385,6.804,0.54
	c2.678,0.156,5.731,0.282,9.101,0.371c4.253,0.112,8.59,0.153,12.777,0.131c4.184-0.022,8.198-0.108,11.818-0.247
	c3.601-0.139,6.797-0.331,9.371-0.567c2.553-0.234,4.487-0.51,5.6-0.82c0.185-0.051,0.344-0.103,0.478-0.154
	c0.134-0.052,0.243-0.103,0.328-0.154c0.085-0.051,0.145-0.102,0.224-0.306c-0.342-2.141-0.672-4.282-0.99-6.424
	c-0.318-2.141-0.624-4.282-0.916-6.421c-0.293-2.139-0.573-4.275-0.839-6.407c-0.266-2.132-0.519-4.26-0.758-6.382
	c0.005,0.023-0.01,0.047-0.046,0.07c-0.036,0.024-0.093,0.047-0.471,0.141c-0.122,0.024-0.266,0.047-0.433,0.071
	c-0.528,0.075-1.255,0.145-2.157,0.211c-0.906,0.066-1.987,0.127-3.217,0.182c-1.234,0.055-2.617,0.106-4.121,0.149
	c-0.548,0.016-2.514,0.047-4.848,0.081c-0.152-3.124-0.337-6.965-0.353-7.328c-0.153-1.667-1.183-2.794-2.722-3.056
	c1.09,0.467,1.797,1.469,1.923,2.828c0.026,0.61,0.533,11.052,0.551,11.388c-0.529,0.011-5.598,0.082-5.912,0.085
	c0.002,0.079,0.004,0.157,0.006,0.236c-0.024-0.958-0.047-1.915-0.069-2.871c-0.009-0.398-0.018-0.795-0.027-1.193
	c-1.752,0.022-3.1,0.037-3.45,0.037c-1.165,0.002-2.342,0.001-3.526-0.002c-1.183-0.004-2.372-0.01-3.559-0.02
	c-1.187-0.01-2.373-0.023-3.551-0.039c-2.573-0.035-4.94-0.083-7.066-0.141c-2.117-0.058-3.993-0.126-5.596-0.202
	c-1.595-0.075-2.918-0.158-3.941-0.245c-0.757-0.065-1.637-0.123-2.139-0.22c0.002-0.017,0.004-0.035,0.006-0.052
	c0.066-0.596,0.131-1.192,0.195-1.787c0.064-0.595,0.126-1.19,0.188-1.784c0.062-0.594,0.122-1.188,0.181-1.781
	c0.059-0.593,0.117-1.185,0.174-1.777c0.196-2.251-0.043-3.126-0.046-3.133c-0.025,0.05-0.032,0.127-0.039,0.182
	c-0.313,3.231-0.747,7.293-1.134,10.913C171.235,232.141,170.5,237.81,168.927,248.182z M176.474,275.76
	c0.129-0.954,0.258-1.909,0.385-2.865c0.127-0.956,0.252-1.913,0.377-2.87c0.124-0.957,0.247-1.916,0.369-2.875
	c0.122-0.959,0.242-1.918,0.361-2.879c0.161-0.927,0.575-1.661,1.186-2.165c-1.141,0.411-1.917,1.349-2.152,2.702
	c-0.119,0.96-0.239,1.92-0.361,2.879c-0.122,0.959-0.245,1.918-0.369,2.875c-0.124,0.958-0.25,1.915-0.377,2.87
	c-0.127,0.956-0.255,1.911-0.385,2.865c0.551,0.059,1.12,0.116,1.706,0.171c0.587,0.055,1.193,0.109,1.815,0.161
	c0.623,0.052,1.264,0.102,1.921,0.149c0.658,0.048,1.333,0.093,2.024,0.137c0.019-0.199,0.037-0.399,0.056-0.598
	c-0.372-0.025-0.751-0.049-1.113-0.075c-0.657-0.047-1.298-0.097-1.921-0.149c-0.622-0.052-1.228-0.105-1.815-0.161
	C177.594,275.876,177.025,275.819,176.474,275.76z M157.301,304.94l-0.037-0.101c-1.046,3.774-2.305,8.707-3.278,12.415
	c-0.022,0.111-0.03,0.222-0.025,0.333c0.006,0.111,0.025,0.222,0.058,0.332c0.033,0.111,0.08,0.222,0.141,0.332
	c0.061,0.111,0.135,0.221,0.223,0.331c0.222-0.818,0.443-1.64,0.663-2.466c0.22-0.826,0.44-1.656,0.658-2.49
	c0.219-0.834,0.436-1.672,0.653-2.513c0.217-0.841,0.433-1.686,0.648-2.535C157.411,306.861,157.347,305.461,157.301,304.94z
	 M221.355,328.024c-0.108-0.891-0.65-4.923-0.757-5.822c-0.107-0.899-0.213-1.801-0.318-2.707c-0.106-0.905-0.211-1.814-0.316-2.727
	c-0.105-0.912-0.209-1.827-0.312-2.745c-0.319-1.614-2.101-2.632-4.713-2.741c1.571,0.417,2.602,1.283,2.836,2.473
	c0.104,0.918,0.208,1.833,0.312,2.745c0.105,0.912,0.21,1.821,0.316,2.727c0.106,0.906,0.212,1.808,0.318,2.707
	c0.107,0.899,0.65,4.931,0.757,5.822c-0.872,0.13-6.644,0.455-9.731,0.614c0.007,0.143,0.013,0.269,0.018,0.356
	C210.75,328.695,220.218,328.194,221.355,328.024z M241.054,298.473c-0.483-1.998-0.959-4.013-1.429-6.042
	c-0.47-2.029-0.932-4.073-1.388-6.129c-0.455-2.056-0.903-4.125-1.343-6.205c-0.44-2.079-0.872-4.17-1.294-6.269
	c0.015,0.086,0.005,0.172-0.227,0.521c-0.092,0.088-0.213,0.175-0.362,0.263c-0.149,0.088-0.327,0.176-0.535,0.263
	c-1.252,0.528-3.454,1.001-6.377,1.401c-2.952,0.404-6.627,0.734-10.777,0.972c-4.174,0.24-8.81,0.387-13.644,0.425
	c-4.838,0.038-9.849-0.032-14.76-0.225c-3.889-0.153-7.408-0.371-10.49-0.637c-3.062-0.265-5.684-0.578-7.807-0.924
	c-2.105-0.343-3.716-0.718-4.779-1.11c-1.053-0.388-1.567-0.792-1.494-1.199c-0.42,2.09-0.849,4.17-1.286,6.24
	c-0.437,2.07-0.882,4.128-1.334,6.173c-0.452,2.046-0.912,4.078-1.378,6.096c-0.466,2.018-0.939,4.021-1.418,6.007
	c-0.117,0.616,0.445,1.228,1.63,1.817c1.199,0.596,3.035,1.166,5.447,1.69c2.436,0.528,5.456,1.007,8.992,1.413
	c3.562,0.409,7.638,0.743,12.148,0.977c5.699,0.296,11.519,0.405,17.139,0.346c5.614-0.059,10.994-0.284,15.831-0.652
	c4.805-0.366,9.049-0.87,12.445-1.488c3.357-0.611,5.871-1.331,7.278-2.135c0.233-0.133,0.432-0.266,0.597-0.4
	c0.165-0.133,0.297-0.266,0.397-0.399C240.933,299.13,241,298.998,241.054,298.473z"/>
</svg>
