<svg width="400" height="400" viewBox="0 0 400 400" fill="none" xmlns="http://www.w3.org/2000/svg">
<path style="fill:#0000FF;" d="M239.704,171.402c-14.366,0.456-19.586,1.551-21.812,4.561c-1.497,1.961-1.7,3.101-0.728,4.196
	l0.85,0.912l0.567-1.596c1.902-5.108,5.665-5.746,38.524-6.202l22.257-0.319l0.121-1.049l0.121-1.003l-15.094,0.091
	C256.214,171.037,245.045,171.22,239.704,171.402z
	 M236.299,176.373c-3.992,0.182-8.266,0.593-9.476,0.867c-2.5,0.593-5.121,2.463-6.008,4.241
	c-0.524,1.049-0.524,1.368,0.121,2.964c0.363,1.003,1.129,2.417,1.653,3.147l0.968,1.323l2.661-3.056
	c3.508-4.013,5.524-5.108,8.709-4.789c2.742,0.274,5.847,1.824,6.21,3.101c0.591,2.079-2.411,4.454-2.823,4.789
	c-0.826,0.672-1.864,1.249-1.864,1.249c-1.578,0.877-1.945,0.667-2.477,1.195c-1.369,1.36-1.006,4.818,0.524,5.594
	c0.285,0.144,0.565,0.173,0.758,0.175c1.315-0.016,2.631-0.033,3.946-0.049l8.024-0.137c4.395-0.091,10.201-0.319,12.822-0.547
	c7.339-0.638,9.879-2.372,12.379-8.437c1.411-3.421,2.379-10.307,1.573-11.402c-0.444-0.593-2.46-0.684-15.483-0.593
	C250.291,176.008,240.291,176.191,236.299,176.373z
	 M289.617,176.601c-0.821,0.821-0.502,1.87,0.638,2.508c1.687,0.912,21.344,3.101,23.351,2.6
	c1.049-0.274,2.645-2.554,3.329-4.789l0.274-1.003h-13.454C292.308,175.917,290.21,176.008,289.617,176.601z
	 M322.226,176.328c-1.961,0.365-2.873,1.687-1.779,2.508c0.821,0.593,14.366,2.417,21.709,2.873
	l4.059,0.274l1.915-2.782c1.003-1.551,1.87-2.873,1.87-3.01C350,175.826,324.187,175.963,322.226,176.328z
	 M288.933,182.485c-1.003,1.186,0.684,1.961,7.616,3.649c10.17,2.417,13.363,3.056,14.32,2.782
	c0.775-0.274,3.421-4.196,3.056-4.561c-0.182-0.137-22.302-2.508-23.715-2.508C289.799,181.846,289.206,182.12,288.933,182.485z
	 M318.988,182.986c-0.41,0.502-0.456,0.867-0.137,1.186c0.638,0.638,15.506,4.88,19.748,5.61
	c2.007,0.365,3.74,0.456,4.196,0.228c1.368-0.73,4.241-4.561,3.649-4.926c-0.319-0.182-5.518-0.775-11.584-1.323
	c-6.111-0.593-12.04-1.14-13.18-1.277C320.128,182.302,319.444,182.439,318.988,182.986z
	 M231.058,184.765c-1.129,0.867-2.742,2.372-3.629,3.42c-1.774,2.098-1.694,1.642-1.21,10.125
	c0.484,7.753-1.089,13.591-5.363,20.112c-1.855,2.873-1.976,3.192-1.129,3.968c1.331,1.231,7.5-9.805,8.911-15.825
	c0.524-2.372,0.605-4.059,0.363-8.984c-0.282-6.066-0.282-6.066,0.726-7.206c0.766-0.867,1.613-1.186,3.589-1.459
	c3.548-0.456,5.605-1.961,5.605-4.105c0-0.775-2.137-1.596-4.193-1.596C233.517,183.214,232.549,183.625,231.058,184.765z
	 M287.337,186.68c-0.365,0.958-0.091,1.323,2.144,2.873c2.736,1.87,13.272,7.343,14.138,7.343
	c0.41,0,1.596-0.867,2.691-1.87l1.961-1.915l-2.417-1.095c-3.649-1.596-16.373-6.066-17.376-6.066
	C288.021,185.951,287.473,186.27,287.337,186.68z
	 M316.388,187.091c-0.775,0.593-0.775,0.684,0.091,1.551c1.505,1.459,19.474,10.079,21.07,10.079
	c0.274,0,1.733-1.095,3.238-2.463l2.736-2.463l-3.922-1.003c-2.189-0.547-7.343-1.961-11.493-3.192
	C316.844,186.316,317.346,186.407,316.388,187.091z
	 M281.909,188.961c-1.186,1.186,0.365,2.782,10.17,10.353c3.147,2.463,3.557,2.691,5.245,2.463
	c1.003-0.091,2.554-0.502,3.421-0.867l1.596-0.684l-3.877-2.508c-5.199-3.42-14.047-8.528-15.278-8.848
	C282.685,188.733,282.092,188.778,281.909,188.961z
	 M276.254,191.743c-1.368,0.502-0.502,2.463,2.964,6.613c4.88,5.792,7.023,7.662,8.802,7.662
	c1.824,0,5.518-0.958,5.336-1.368c-0.182-0.456-12.633-11.356-13.819-12.086C278.352,191.788,276.938,191.469,276.254,191.743z
	 M312.922,191.743c-0.912,0.867-0.046,2.098,3.01,4.378c2.873,2.144,13.272,9.213,14.777,10.079
	c0.912,0.502,6.978-2.873,6.978-3.877c0-0.063-0.014-0.123-0.039-0.176c-0.054-0.115-0.155-0.172-0.195-0.195
	c-0.373-0.212-3.354-1.37-4.559-1.92c0,0-0.052-0.024-0.269-0.126c-4.899-2.313-12.604-8.483-18.881-8.483
	C313.469,191.423,313.059,191.56,312.922,191.743z
	 M270.28,195.619c-0.319,0.319-0.547,0.821-0.547,1.14c0,0.73,3.147,5.929,5.564,9.076
	c1.687,2.28,1.961,2.417,4.287,2.736c1.414,0.137,2.919,0.137,3.421-0.091c0.775-0.365,0.228-1.14-4.697-6.932
	C272.742,195.072,271.648,194.251,270.28,195.619z
	 M309.273,196.303c-0.182,0.137-0.319,0.867-0.319,1.505c0,1.003,0.912,2.144,4.241,5.29
	c7.434,7.115,10.125,9.304,11.402,9.304c1.186,0,4.743-1.186,5.473-1.824c0.228-0.182-3.877-3.557-9.076-7.479
	C312.329,196.531,310.231,195.346,309.273,196.303z
	 M265.035,198.538c-0.684,0.684-0.274,2.417,1.459,5.974c2.417,5.017,3.101,5.61,6.202,5.61
	c1.368,0,2.508-0.137,2.463-0.365c0-0.182-1.824-2.782-4.013-5.792C267.452,198.857,265.993,197.58,265.035,198.538z
	 M258.924,200.408c-0.182,0.41,0.41,2.782,1.231,5.29c1.231,3.603,1.733,4.606,2.6,4.926
	c1.186,0.456,4.697,0.547,4.697,0.182c0-1.049-5.154-9.669-6.294-10.626C260.155,199.405,259.289,199.496,258.924,200.408z
	 M234.661,201.183c-0.319,0.365-0.867,2.6-1.186,4.926c-0.684,4.88-0.547,5.245,2.28,5.701
	l1.733,0.274l-0.274-1.505c-0.182-0.821-0.319-2.964-0.319-4.789c0-2.508-0.182-3.557-0.821-4.333
	C235.345,200.545,235.208,200.545,234.661,201.183z
	 M240.271,201.183c-0.137,0.365-0.274,2.782-0.319,5.336l-0.091,4.652l1.961,0.684
	c1.095,0.365,2.098,0.547,2.189,0.41c0.41-0.41-1.14-10.444-1.687-11.082C241.639,200.362,240.59,200.362,240.271,201.183z
	 M246.792,200.864c-0.41,0.365-0.41,6.157-0.046,8.483c0.319,1.87,0.912,2.372,3.512,2.828
	c1.551,0.319,1.687,0.228,1.687-0.684c0-1.368-2.28-9.669-2.828-10.398C248.617,200.499,247.294,200.362,246.792,200.864z
	 M252.63,201.001c-0.365,0.547,0.547,7.251,1.186,8.984c0.274,0.73,1.003,1.095,2.919,1.505
	c1.414,0.274,2.691,0.41,2.828,0.274c0.137-0.091-0.867-2.645-2.235-5.61c-1.915-4.15-2.691-5.427-3.42-5.518
	C253.36,200.545,252.812,200.727,252.63,201.001z
	 M305.123,201.275c-0.41,0.365-0.73,0.912-0.73,1.186c0,0.502,7.115,9.532,10.307,13.043l1.779,1.915
	l2.964-0.684c1.642-0.41,3.147-0.912,3.329-1.095c0.182-0.182-2.098-2.554-5.154-5.245c-3.01-2.736-5.746-5.154-6.066-5.473
	c-1.915-1.824-5.062-4.378-5.382-4.378C305.99,200.545,305.488,200.864,305.123,201.275z
	 M299.924,204.741c-0.821,0.821-0.684,1.642,0.867,4.196c2.235,3.603,7.662,10.718,8.62,11.219
	c0.958,0.502,3.284,0.547,4.926,0.046c1.003-0.274,0.638-0.821-5.382-7.799C301.338,203.555,301.201,203.464,299.924,204.741z
	 M294.223,207.705c-1.003,0.958-0.046,3.101,3.694,8.62l4.059,5.883l3.01,0.137l3.01,0.137
	l-5.701-7.571c-4.469-5.883-5.929-7.525-6.75-7.525C294.999,207.386,294.36,207.523,294.223,207.705z
	 M288.431,210.806c-0.502,0.593-0.365,1.231,0.638,3.785c0.684,1.687,2.098,4.606,3.147,6.476
	l1.961,3.42l3.101,0.137c1.687,0.091,3.01-0.046,2.919-0.228c-0.274-0.639-2.782-4.606-5.974-9.532
	c-2.463-3.785-3.284-4.743-4.15-4.743C289.48,210.122,288.75,210.441,288.431,210.806z
	 M281.59,212.859c-0.41,0.775-0.274,1.687,0.73,4.697c0.684,2.052,1.687,4.834,2.28,6.111l1.049,2.417
	h3.238h3.238l-3.557-6.978c-3.375-6.567-3.649-6.932-5.017-7.069C282.457,211.946,282.001,212.129,281.59,212.859z
	 M275.023,214.044c-0.41,0.365-0.73,0.821-0.73,1.003c0,0.182,0.775,2.782,1.733,5.792
	c1.915,6.02,2.417,6.613,5.701,6.613c0.912,0,1.687-0.046,1.687-0.137c0-0.41-5.154-12.086-5.701-12.952
	C276.893,213.132,276.026,213.041,275.023,214.044z
	 M267.908,214.683c-0.547,0.319-0.593,0.821-0.091,3.056c1.003,4.926,2.463,9.213,3.238,9.532
	c1.551,0.638,4.606,0.958,4.606,0.456c0-1.003-4.971-12.724-5.564-13.089C269.322,214.136,268.729,214.136,267.908,214.683z
	 M260.657,215.093c-0.593,0.365-0.593,0.912-0.091,3.466c0.958,5.199,2.28,8.711,3.512,9.304
	c1.186,0.502,4.743,1.186,4.743,0.912c0-0.274-5.382-13.226-5.564-13.408C262.755,214.911,261.204,214.774,260.657,215.093z
	 M240.134,215.549c-0.73,0.456-0.502,5.427,0.456,9.486c0.593,2.508,1.095,2.919,4.378,3.557
	l1.459,0.274l-1.596-6.066c-1.095-4.241-1.87-6.294-2.508-6.887C241.228,215.048,241,215.002,240.134,215.549z
	 M253.725,215.869c-0.456,0.593-0.41,1.596,0.274,5.929c0.456,2.873,1.049,5.382,1.323,5.61
	c0.593,0.456,4.971,1.414,5.245,1.14c0.365-0.365-3.42-11.858-4.15-12.587C255.412,214.956,254.5,214.911,253.725,215.869z
	 M233.749,216.005c-0.547,0.365-0.593,1.095-0.137,4.743c0.775,6.157,0.958,6.476,3.831,7.343
	c1.323,0.365,2.417,0.639,2.508,0.593c0.137-0.182-3.42-11.128-3.968-12.177C235.436,215.504,234.752,215.367,233.749,216.005z
	 M246.61,216.37c-0.182,0.41,0.091,3.147,0.593,6.02l0.867,5.29l2.28,0.775
	c1.277,0.41,2.326,0.684,2.372,0.639c0.274-0.274-2.6-12.268-3.056-12.861C248.89,215.367,246.975,215.413,246.61,216.37z
	 M228.23,218.331c-0.274,0.502-0.456,2.463-0.365,4.424c0.137,3.375,0.182,3.557,1.505,4.287
	c0.775,0.41,1.824,0.912,2.417,1.095c1.003,0.274,1.049,0.228,0.73-1.414c-0.547-3.01-2.691-9.03-3.238-9.167
	C229.006,217.419,228.504,217.784,228.23,218.331z
	 M215.734,223.622c-1.642,1.277-5.883,3.238-8.3,3.831c-1.323,0.365-2.28,0.775-2.189,0.958
	c0.638,1.003,13.636,0.73,15.369-0.319c0.365-0.228-3.192-5.199-3.694-5.199C216.783,222.892,216.236,223.257,215.734,223.622z
	 M200,176.573c-13.981,0-25.315,11.334-25.315,25.315c0,13.981,11.334,25.315,25.315,25.315
	s25.315-11.334,25.315-25.315C225.315,187.907,213.981,176.573,200,176.573z M200,222.295c-11.27,0-20.407-9.136-20.407-20.407
	c0-11.27,9.136-20.407,20.407-20.407s20.407,9.136,20.407,20.407C220.407,213.158,211.27,222.295,200,222.295z
	 M223.514,221.884c-0.479,0.069-0.719,0.76-0.932,1.399c-0.345,1.033-0.681,2.04-0.17,2.818
	c0.114,0.173,0.374,0.413,0.986,0.737c0.775,0.41,1.824,0.912,2.417,1.095c0.435,0.119,0.69,0.177,0.813,0.072
	c0.198-0.169,0.213-0.591-0.083-1.486c-0.278-0.839-0.905-2.327-2.477-4.459C223.923,221.954,223.726,221.853,223.514,221.884z
	 M284.395,184.515c-0.164-0.545-1.711-0.253-4.759-0.355c-2.075-0.07-3.186-0.266-3.849,0.485
	c-0.091,0.103-0.216,0.382-0.465,0.941c0,0-0.502,1.126-0.642,2.555c-0.019,0.193-0.036,0.442,0.117,0.583
	c0.216,0.199,0.64,0.062,0.788,0.014c1.2-0.385,2.453-0.612,3.623-1.081c2.564-1.027,3.504-1.165,4.709-2.313
	c0.114-0.108,0.204-0.201,0.262-0.262C284.322,184.913,284.451,184.702,284.395,184.515z
	 M283.741,179.312c-0.799-0.408-1.425-0.266-3.147-0.204c-0.871,0.031-1.384,0.019-2.273,0.146
	c-0.871,0.124-1.264,0.263-1.495,0.59c-0.072,0.101-0.168,0.362-0.36,0.884c-0.147,0.399-0.174,0.525-0.175,0.674
	c-0.001,0.284,0.096,0.569,0.223,0.736c0.256,0.338,0.772,0.38,1.865,0.291c0.886-0.072,1.727-0.145,3.089-0.495
	c1.143-0.294,1.695-0.536,2.205-0.938c0.288-0.227,0.775-0.62,0.709-1.043C284.367,179.856,284.298,179.597,283.741,179.312z
	 M283.654,175.816c-0.482-0.292-0.928-0.265-1.632-0.262c-1.68,0.006-2.521,0.01-3.351-0.058
	c-0.372-0.03-0.887-0.085-1.369,0.204c-0.148,0.088-0.443,0.271-0.532,0.629c-0.008,0.03-0.091,0.389,0.124,0.711
	c0.147,0.221,0.368,0.324,0.641,0.408c0.663,0.204,1.242,0.175,1.615,0.158c1.616-0.072,1.363,0.007,2.273-0.072
	c0.547-0.047,1.146-0.12,1.859-0.323c0.869-0.247,0.986-0.426,1.012-0.55C284.38,176.265,283.684,175.834,283.654,175.816z
	 M160.296,171.402c14.366,0.456,19.586,1.551,21.811,4.561c1.497,1.961,1.7,3.101,0.728,4.196
	l-0.85,0.912l-0.567-1.596c-1.902-5.108-5.665-5.746-38.524-6.202l-22.257-0.319l-0.121-1.049l-0.121-1.003l15.094,0.091
	C143.786,171.037,154.955,171.22,160.296,171.402z
	 M163.701,176.373c3.992,0.182,8.266,0.593,9.476,0.867c2.5,0.593,5.121,2.463,6.008,4.241
	c0.524,1.049,0.524,1.368-0.121,2.964c-0.363,1.003-1.129,2.417-1.653,3.147l-0.968,1.323l-2.661-3.056
	c-3.508-4.013-5.524-5.108-8.709-4.789c-2.742,0.274-5.847,1.824-6.21,3.101c-0.591,2.079,2.411,4.454,2.823,4.789
	c0.826,0.672,1.864,1.249,1.864,1.249c1.578,0.877,1.945,0.667,2.477,1.195c1.369,1.36,1.006,4.818-0.524,5.594
	c-0.285,0.144-0.565,0.173-0.758,0.175c-1.315-0.016-2.631-0.033-3.946-0.049l-8.024-0.137c-4.395-0.091-10.201-0.319-12.822-0.547
	c-7.339-0.638-9.879-2.372-12.379-8.437c-1.411-3.421-2.379-10.307-1.573-11.402c0.444-0.593,2.46-0.684,15.484-0.593
	C149.709,176.008,159.709,176.191,163.701,176.373z
	 M110.383,176.601c0.821,0.821,0.502,1.87-0.638,2.508c-1.687,0.912-21.344,3.101-23.351,2.6
	c-1.049-0.274-2.645-2.554-3.329-4.789l-0.274-1.003h13.454C107.692,175.917,109.79,176.008,110.383,176.601z
	 M77.774,176.328c1.961,0.365,2.873,1.687,1.779,2.508c-0.821,0.593-14.366,2.417-21.709,2.873
	l-4.059,0.274l-1.915-2.782c-1.003-1.551-1.87-2.873-1.87-3.01C50,175.826,75.813,175.963,77.774,176.328z
	 M111.067,182.485c1.003,1.186-0.684,1.961-7.616,3.649c-10.17,2.417-13.363,3.056-14.32,2.782
	c-0.775-0.274-3.42-4.196-3.056-4.561c0.182-0.137,22.302-2.508,23.715-2.508C110.201,181.846,110.794,182.12,111.067,182.485z
	 M81.012,182.986c0.41,0.502,0.456,0.867,0.137,1.186c-0.638,0.638-15.506,4.88-19.748,5.61
	c-2.007,0.365-3.74,0.456-4.196,0.228c-1.368-0.73-4.241-4.561-3.649-4.926c0.319-0.182,5.518-0.775,11.584-1.323
	c6.111-0.593,12.04-1.14,13.18-1.277C79.872,182.302,80.556,182.439,81.012,182.986z
	 M168.942,184.765c1.129,0.867,2.742,2.372,3.629,3.42c1.774,2.098,1.694,1.642,1.21,10.125
	c-0.484,7.753,1.089,13.591,5.363,20.112c1.855,2.873,1.976,3.192,1.129,3.968c-1.331,1.231-7.5-9.805-8.911-15.825
	c-0.524-2.372-0.605-4.059-0.363-8.984c0.282-6.066,0.282-6.066-0.726-7.206c-0.766-0.867-1.613-1.186-3.589-1.459
	c-3.548-0.456-5.605-1.961-5.605-4.105c0-0.775,2.137-1.596,4.193-1.596C166.483,183.214,167.451,183.625,168.942,184.765z
	 M112.663,186.68c0.365,0.958,0.091,1.323-2.144,2.873c-2.736,1.87-13.272,7.343-14.138,7.343
	c-0.41,0-1.596-0.867-2.691-1.87l-1.961-1.915l2.417-1.095c3.649-1.596,16.373-6.066,17.376-6.066
	C111.979,185.951,112.527,186.27,112.663,186.68z
	 M83.612,187.091c0.775,0.593,0.775,0.684-0.091,1.551c-1.505,1.459-19.474,10.079-21.07,10.079
	c-0.274,0-1.733-1.095-3.238-2.463l-2.736-2.463l3.922-1.003c2.189-0.547,7.343-1.961,11.493-3.192
	C83.156,186.316,82.654,186.407,83.612,187.091z
	 M118.091,188.961c1.186,1.186-0.365,2.782-10.17,10.353c-3.147,2.463-3.557,2.691-5.245,2.463
	c-1.003-0.091-2.554-0.502-3.42-0.867l-1.596-0.684l3.877-2.508c5.199-3.42,14.047-8.528,15.278-8.848
	C117.315,188.733,117.908,188.778,118.091,188.961z
	 M123.746,191.743c1.368,0.502,0.502,2.463-2.964,6.613c-4.88,5.792-7.023,7.662-8.802,7.662
	c-1.824,0-5.518-0.958-5.336-1.368c0.182-0.456,12.633-11.356,13.819-12.086C121.648,191.788,123.062,191.469,123.746,191.743z
	 M87.078,191.743c0.912,0.867,0.046,2.098-3.01,4.378c-2.873,2.144-13.272,9.213-14.777,10.079
	c-0.912,0.502-6.978-2.873-6.978-3.877c0-0.063,0.014-0.123,0.039-0.176c0.054-0.115,0.155-0.172,0.195-0.195
	c0.373-0.212,3.354-1.37,4.559-1.92c0,0,0.052-0.024,0.269-0.126c4.899-2.313,12.604-8.483,18.881-8.483
	C86.531,191.423,86.941,191.56,87.078,191.743z
	 M129.72,195.619c0.319,0.319,0.547,0.821,0.547,1.14c0,0.73-3.147,5.929-5.564,9.076
	c-1.687,2.28-1.961,2.417-4.287,2.736c-1.414,0.137-2.919,0.137-3.42-0.091c-0.775-0.365-0.228-1.14,4.697-6.932
	C127.258,195.072,128.352,194.251,129.72,195.619z
	 M90.727,196.303c0.182,0.137,0.319,0.867,0.319,1.505c0,1.003-0.912,2.144-4.241,5.29
	c-7.434,7.115-10.125,9.304-11.402,9.304c-1.186,0-4.743-1.186-5.473-1.824c-0.228-0.182,3.877-3.557,9.076-7.479
	C87.671,196.531,89.769,195.346,90.727,196.303z
	 M134.965,198.538c0.684,0.684,0.274,2.417-1.459,5.974c-2.417,5.017-3.101,5.61-6.202,5.61
	c-1.368,0-2.508-0.137-2.463-0.365c0-0.182,1.824-2.782,4.013-5.792C132.548,198.857,134.007,197.58,134.965,198.538z
	 M141.076,200.408c0.182,0.41-0.41,2.782-1.231,5.29c-1.231,3.603-1.733,4.606-2.6,4.926
	c-1.186,0.456-4.697,0.547-4.697,0.182c0-1.049,5.154-9.669,6.294-10.626C139.845,199.405,140.711,199.496,141.076,200.408z
	 M165.339,201.183c0.319,0.365,0.867,2.6,1.186,4.926c0.684,4.88,0.547,5.245-2.28,5.701l-1.733,0.274
	l0.274-1.505c0.182-0.821,0.319-2.964,0.319-4.789c0-2.508,0.182-3.557,0.821-4.333
	C164.655,200.545,164.792,200.545,165.339,201.183z
	 M159.729,201.183c0.137,0.365,0.274,2.782,0.319,5.336l0.091,4.652l-1.961,0.684
	c-1.095,0.365-2.098,0.547-2.189,0.41c-0.41-0.41,1.14-10.444,1.687-11.082C158.361,200.362,159.41,200.362,159.729,201.183z
	 M153.208,200.864c0.41,0.365,0.41,6.157,0.046,8.483c-0.319,1.87-0.912,2.372-3.512,2.828
	c-1.551,0.319-1.687,0.228-1.687-0.684c0-1.368,2.28-9.669,2.828-10.398C151.383,200.499,152.706,200.362,153.208,200.864z
	 M147.37,201.001c0.365,0.547-0.547,7.251-1.186,8.984c-0.274,0.73-1.003,1.095-2.919,1.505
	c-1.414,0.274-2.691,0.41-2.828,0.274c-0.137-0.091,0.867-2.645,2.235-5.61c1.915-4.15,2.691-5.427,3.42-5.518
	C146.64,200.545,147.188,200.727,147.37,201.001z
	 M94.877,201.275c0.41,0.365,0.73,0.912,0.73,1.186c0,0.502-7.115,9.532-10.307,13.043l-1.779,1.915
	l-2.964-0.684c-1.642-0.41-3.147-0.912-3.329-1.095c-0.182-0.182,2.098-2.554,5.154-5.245c3.01-2.736,5.746-5.154,6.066-5.473
	c1.915-1.824,5.062-4.378,5.382-4.378C94.01,200.545,94.512,200.864,94.877,201.275z
	 M100.076,204.741c0.821,0.821,0.684,1.642-0.867,4.196c-2.235,3.603-7.662,10.718-8.62,11.219
	c-0.958,0.502-3.284,0.547-4.926,0.046c-1.003-0.274-0.638-0.821,5.382-7.799C98.662,203.555,98.799,203.464,100.076,204.741z
	 M105.777,207.705c1.003,0.958,0.046,3.101-3.694,8.62l-4.059,5.883l-3.01,0.137l-3.01,0.137
	l5.701-7.571c4.469-5.883,5.929-7.525,6.75-7.525C105.002,207.386,105.64,207.523,105.777,207.705z
	 M111.569,210.806c0.502,0.593,0.365,1.231-0.638,3.785c-0.684,1.687-2.098,4.606-3.147,6.476
	l-1.961,3.42l-3.101,0.137c-1.687,0.091-3.01-0.046-2.919-0.228c0.274-0.639,2.782-4.606,5.974-9.532
	c2.463-3.785,3.284-4.743,4.15-4.743C110.52,210.122,111.25,210.441,111.569,210.806z
	 M118.41,212.859c0.41,0.775,0.274,1.687-0.73,4.697c-0.684,2.052-1.687,4.834-2.28,6.111
	l-1.049,2.417h-3.238h-3.238l3.557-6.978c3.375-6.567,3.649-6.932,5.017-7.069C117.543,211.946,117.999,212.129,118.41,212.859z
	 M124.977,214.044c0.41,0.365,0.73,0.821,0.73,1.003c0,0.182-0.775,2.782-1.733,5.792
	c-1.915,6.02-2.417,6.613-5.701,6.613c-0.912,0-1.687-0.046-1.687-0.137c0-0.41,5.154-12.086,5.701-12.952
	C123.107,213.132,123.974,213.041,124.977,214.044z
	 M132.092,214.683c0.547,0.319,0.593,0.821,0.091,3.056c-1.003,4.926-2.463,9.213-3.238,9.532
	c-1.551,0.638-4.606,0.958-4.606,0.456c0-1.003,4.971-12.724,5.564-13.089C130.678,214.136,131.271,214.136,132.092,214.683z
	 M139.343,215.093c0.593,0.365,0.593,0.912,0.091,3.466c-0.958,5.199-2.28,8.711-3.512,9.304
	c-1.186,0.502-4.743,1.186-4.743,0.912c0-0.274,5.382-13.226,5.564-13.408C137.245,214.911,138.796,214.774,139.343,215.093z
	 M159.866,215.549c0.73,0.456,0.502,5.427-0.456,9.486c-0.593,2.508-1.095,2.919-4.378,3.557
	l-1.459,0.274l1.596-6.066c1.095-4.241,1.87-6.294,2.508-6.887C158.772,215.048,159,215.002,159.866,215.549z
	 M146.275,215.869c0.456,0.593,0.41,1.596-0.274,5.929c-0.456,2.873-1.049,5.382-1.323,5.61
	c-0.593,0.456-4.971,1.414-5.245,1.14c-0.365-0.365,3.42-11.858,4.15-12.587C144.588,214.956,145.5,214.911,146.275,215.869z
	 M166.251,216.005c0.547,0.365,0.593,1.095,0.137,4.743c-0.775,6.157-0.958,6.476-3.831,7.343
	c-1.323,0.365-2.417,0.639-2.508,0.593c-0.137-0.182,3.421-11.128,3.968-12.177C164.564,215.504,165.248,215.367,166.251,216.005z
	 M153.39,216.37c0.182,0.41-0.091,3.147-0.593,6.02l-0.867,5.29l-2.28,0.775
	c-1.277,0.41-2.326,0.684-2.372,0.639c-0.274-0.274,2.6-12.268,3.056-12.861C151.11,215.367,153.025,215.413,153.39,216.37z
	 M171.77,218.331c0.274,0.502,0.456,2.463,0.365,4.424c-0.137,3.375-0.182,3.557-1.505,4.287
	c-0.775,0.41-1.824,0.912-2.417,1.095c-1.003,0.274-1.049,0.228-0.73-1.414c0.547-3.01,2.691-9.03,3.238-9.167
	C170.994,217.419,171.496,217.784,171.77,218.331z
	 M184.266,223.622c1.642,1.277,5.883,3.238,8.3,3.831c1.323,0.365,2.28,0.775,2.189,0.958
	c-0.638,1.003-13.636,0.73-15.369-0.319c-0.365-0.228,3.192-5.199,3.694-5.199C183.217,222.892,183.764,223.257,184.266,223.622z
	 M176.486,221.884c0.479,0.069,0.719,0.76,0.932,1.399c0.345,1.033,0.681,2.04,0.17,2.818
	c-0.114,0.173-0.375,0.413-0.986,0.737c-0.775,0.41-1.824,0.912-2.417,1.095c-0.435,0.119-0.69,0.177-0.813,0.072
	c-0.198-0.169-0.213-0.591,0.083-1.486c0.278-0.839,0.905-2.327,2.477-4.459C176.077,221.954,176.274,221.853,176.486,221.884z
	 M115.605,184.515c0.164-0.545,1.711-0.253,4.759-0.355c2.075-0.07,3.186-0.266,3.849,0.485
	c0.091,0.103,0.216,0.382,0.465,0.941c0,0,0.502,1.126,0.642,2.555c0.019,0.193,0.036,0.442-0.117,0.583
	c-0.216,0.199-0.64,0.062-0.788,0.014c-1.2-0.385-2.453-0.612-3.623-1.081c-2.564-1.027-3.504-1.165-4.709-2.313
	c-0.114-0.108-0.204-0.201-0.262-0.262C115.678,184.913,115.549,184.702,115.605,184.515z
	 M116.259,179.312c0.799-0.408,1.425-0.266,3.147-0.204c0.871,0.031,1.384,0.019,2.273,0.146
	c0.871,0.124,1.264,0.263,1.495,0.59c0.072,0.101,0.168,0.362,0.36,0.884c0.147,0.399,0.174,0.525,0.175,0.674
	c0.001,0.284-0.096,0.569-0.223,0.736c-0.256,0.338-0.772,0.38-1.865,0.291c-0.886-0.072-1.727-0.145-3.089-0.495
	c-1.143-0.294-1.695-0.536-2.205-0.938c-0.288-0.227-0.775-0.62-0.709-1.043C115.633,179.856,115.702,179.597,116.259,179.312z
	 M116.346,175.816c0.482-0.292,0.928-0.265,1.632-0.262c1.68,0.006,2.521,0.01,3.351-0.058
	c0.372-0.03,0.887-0.085,1.369,0.204c0.148,0.088,0.443,0.271,0.532,0.629c0.008,0.03,0.091,0.389-0.124,0.711
	c-0.147,0.221-0.368,0.324-0.641,0.408c-0.663,0.204-1.242,0.175-1.615,0.158c-1.616-0.072-1.363,0.007-2.273-0.072
	c-0.547-0.047-1.146-0.12-1.859-0.323c-0.869-0.247-0.986-0.426-1.012-0.55C115.62,176.265,116.316,175.834,116.346,175.816z"/>
</svg>
