<svg width="400" height="400" viewBox="0 0 400 400" fill="none" xmlns="http://www.w3.org/2000/svg">
<path style="fill:#B0FF30;" d="M134.886,326.947c-28.599-10.22-49.365-35.65-57.587-70.523c-3.731-15.827-4.787-41.981-1.693-41.981
	c1.028,0,3.773,7.176,6.1,15.947c5.092,19.193,13.778,37.241,22.169,46.063c13.936,14.654,48.454,20.393,68.343,11.363
	c15.493-7.034,21.776-23.752,15.039-40.017c-5.206-12.569-17.017-16.771-39.016-13.883c0,0-13.483-14.513-17.778-40.285l13.82,1.253
	c16.645,1.509,29.212-2.17,35.734-10.462c6.129-7.792,5.997-10.806-0.824-18.735c-9.842-11.442-27.514-8.544-63.296,10.382
	l-18.054-30.264l7.569-5.773c18.968-14.468,51.902-21.7,70.645-15.514c17.073,5.634,29.603,27.992,26.256,46.845
	c-2.263,12.746-12.484,30.598-20.38,35.598l-6.81,4.312l9.406,4.242c15.984,7.208,25.742,1.698,37.4-21.118
	c16.134-31.574,26.598-39.748,50.93-39.783c11.33-0.016,15.362,1.172,23.626,6.963c20.624,14.453,31.854,44.381,29.387,78.319
	c-3.124,42.982-23.483,69.052-53.924,69.052c-16.706,0-27.475-5.859-36.046-19.614c-7.529-12.082-10.922-36.011-6.598-46.537
	c2.074-5.05,2.449-5.221,2.585-1.181c0.249,7.427,8.699,19.499,16.457,23.511c19.034,9.843,46.359-2.524,57.169-25.873
	c8.208-17.728,3.804-51.922-7.462-57.952c-2.357-1.262-8.182-2.294-12.943-2.294c-10.122,0-18.071,7.277-29.215,26.745
	c-3.853,6.731-10.337,15.427-14.409,19.325c-6.616,6.334-8.979,7.088-22.211,7.088h-14.808l4.786,10.632
	c6.851,15.217,6.527,39.942-0.721,54.994c-6.404,13.3-21.212,26.766-33.05,30.054C163.958,331.044,145.192,330.63,134.886,326.947z
	 M190.647,121.273c-6.55-11.177-10.582-32.045-6.191-32.045c5.158,11.19,15.731,21.173,27.052,28.139
	c20.334,9.843,40.952,5.87,63.478-12.232c4.959-3.985,9.351-6.802,9.759-6.26c5.5,8.536,15.015,15.511,18.16,25.43
	c0,4.185-18.016,16.23-32.232,21.548C235.439,156.003,211.459,151.988,190.647,121.273z M208.403,95.436L231.343,70l25.493,23.599
	c-8.72,7.182-15.014,18.327-24.976,23.98C223.989,111.776,212.241,104.935,208.403,95.436z"/>
</svg>
