<svg width="400" height="400" viewBox="0 0 400 400" fill="none" xmlns="http://www.w3.org/2000/svg">
<path fill-rule="evenodd" clip-rule="evenodd" d="M204.201 124.189C203.65 124.843 201.703 127.517 199.876 130.132C198.049 132.747 195.99 135.498 195.3 136.245C193.625 138.06 188.628 144.773 185.101 149.946C183.528 152.253 180.534 156.226 178.448 158.776C176.361 161.326 174.299 164.076 173.867 164.887C173.435 165.699 172.693 166.769 172.219 167.264C170.829 168.718 155.787 189.027 154.448 191.258C150.381 198.032 148.993 197.737 138.565 187.893C129.6 179.43 130.365 179.47 125.811 187.221C123.848 190.562 120.38 196.199 118.104 199.749C113.682 206.641 101.079 227.579 101.079 228.031C101.079 228.428 97.5148 233.828 96.3247 235.233C95.7647 235.895 94.0416 238.803 92.4958 241.694C88.9224 248.379 88.1571 248.535 82.8576 243.662C76.3449 237.675 75.9843 237.62 73.2143 242.198C72.3097 243.691 69.8713 247.207 67.7956 250.008C65.7189 252.81 62.6825 257.241 61.0465 259.856C57.941 264.819 56.0907 267.582 52.2778 272.95L49.9998 276.156L53.6363 276.598C58.1493 277.147 226.939 277.127 297.702 276.569L350 276.156L349.838 274.635C349.75 273.798 348.157 270.742 346.298 267.843C344.439 264.944 341.947 260.933 340.761 258.93L338.604 255.286L335.473 255.622C333.75 255.805 331.829 256.17 331.204 256.43C329.542 257.124 326.347 253.622 320.234 244.405C315.961 237.959 315.621 237.782 311.56 239.853C310.059 240.619 308.314 241.065 307.682 240.843C306.321 240.366 300.759 233.167 300.759 231.882C300.759 231.391 300.486 230.991 300.154 230.991C299.82 230.991 299.081 229.823 298.51 228.397C297.94 226.97 295.527 222.921 293.15 219.398C289.531 214.036 281.904 201.969 279.364 197.588C269.098 179.879 267.043 178.361 259.701 183.058C257.613 184.393 255.743 185.485 255.544 185.485C255.344 185.485 254.057 186.249 252.683 187.183C247.494 190.708 247.255 190.465 234.699 168.845C232.097 164.363 228.261 158.097 226.177 154.922C224.092 151.747 220.888 146.398 219.054 143.036C217.221 139.675 214.836 135.61 213.754 134.003C212.671 132.397 211.785 130.932 211.785 130.75C211.785 129.781 206.426 123 205.66 123C205.41 123 204.753 123.535 204.201 124.189ZM207.823 138.452C209.158 139.853 211.405 143.138 212.817 145.753C214.23 148.369 216.07 151.593 216.906 152.921C217.742 154.248 219.57 157.61 220.97 160.392C222.369 163.173 225.148 167.96 227.146 171.027C229.143 174.096 231.896 178.833 233.263 181.555C234.63 184.277 236.47 187.477 237.351 188.666C238.232 189.855 238.953 191.038 238.953 191.294C238.953 191.55 240.045 193.558 241.379 195.754C244.268 200.51 246.101 200.94 249.845 197.738C251.139 196.633 252.509 195.716 252.892 195.7C253.274 195.685 255.26 194.568 257.307 193.219C264.053 188.766 265.402 188.764 267.369 193.199C268.055 194.747 271.341 200.213 274.67 205.349C290.896 230.374 298.505 242.98 297.806 243.678C297.026 244.458 286.802 237.541 278.801 230.822C276.02 228.487 271.4 224.761 268.533 222.544C265.666 220.327 262.668 217.947 261.872 217.257C258.875 214.657 256.823 218.256 254.53 230.138C252.975 238.191 251.235 238.135 245.367 229.846C243.565 227.3 241.92 225.065 241.711 224.878C240.903 224.158 235.081 216.241 233.22 213.332C232.143 211.651 229.375 207.83 227.068 204.842C224.761 201.853 221.589 197.499 220.021 195.163C216.212 189.495 215.861 189.712 215.861 197.732C215.861 207.967 213.716 208.111 210.065 198.119C205.577 185.834 204.008 183.792 202.511 188.283C202.079 189.578 200.591 193.07 199.206 196.042C192.297 210.858 187.336 222.311 187.336 223.439C187.336 225.608 182.833 230.004 182.556 228.104C182.543 228.011 182.254 222.971 181.916 216.906C181.06 201.594 180.401 201.423 171.242 214.12C169.447 216.609 166.033 220.887 163.655 223.629C161.278 226.37 158.833 229.229 158.221 229.983C145.038 246.237 145.151 246.213 142.504 233.368C140.862 225.396 139.442 220.568 138.663 220.311C137.832 220.036 134.623 223.061 126.209 232.048C123.407 235.041 119.465 239.249 117.449 241.401C113.284 245.847 112.129 246.001 110.406 242.341C108.953 239.256 108.227 239.49 102.438 244.894C94.0767 252.701 91.9458 252.361 97.1431 244.048C98.7139 241.536 100.175 239.327 100.389 239.141C101.378 238.281 105.934 231.437 107.481 228.492C108.426 226.691 110.047 224.061 111.083 222.647C114.083 218.548 118.799 211.576 124.403 202.953C131.473 192.075 130.955 192.109 140.941 201.848C149.882 210.569 150.097 210.603 154.456 204.011C156.881 200.342 167.427 186.235 168.305 185.485C168.524 185.299 169.754 183.464 171.038 181.411C172.324 179.356 175.406 175.077 177.888 171.902C180.37 168.727 184.088 163.646 186.15 160.611C188.213 157.576 191.691 152.804 193.881 150.007C196.071 147.21 198.379 144.191 199.01 143.3C205.148 134.628 204.513 134.978 207.823 138.452Z" fill="#0000FF"/>
</svg>
