<svg width="400" height="400" viewBox="0 0 400 400" fill="none" xmlns="http://www.w3.org/2000/svg">
<path style="fill:#0000FF;" d="M168.385,292.317c0.1,0.603,0.038,2.848,0.038,4.009c0,2.237-7.32,3.821-7.32,3.821
	s-0.912,2.194-2.44,2.541c-2.028,0.461-31.426,1.681-56.692,1.681c-25.266,0-40.195-1.249-42.193-1.681
	c-1.531-0.331-2.44-2.541-2.44-2.541s-7.32-1.583-7.32-3.821c0-1.161-0.062-3.406,0.038-4.009c0.1-0.603,3.754-1.185,3.893-3.726
	c0.063-1.142-1.389-1.806-1.389-3.472c0-1.412,1.461-2.674,1.454-3.262c-0.044-3.862-0.122-6.127,1.096-7.345
	c1.739-1.739,3.481-3.177,3.481-3.177s1.822-4.87,4.871-4.87c3.049,0,88.469,0,91.517,0c3.049,0,4.87,4.87,4.87,4.87
	s1.742,1.438,3.482,3.177c1.218,1.217,1.14,3.483,1.096,7.345c-0.007,0.588,1.454,1.85,1.454,3.262c0,1.666-1.452,2.33-1.39,3.472
	C164.632,291.131,168.286,291.714,168.385,292.317z M198.75,197.173c-8.357-4.292-13.046-6.938-14.973-8.098
	c-4.237-2.552-3.589-8.513-9.306-11.956c-5.717-3.444-9.82,0.773-12.447-0.81c-2.628-1.583-4.684-2.461-6.935-3.818
	c-2.252-1.357-3.235-6.657-5.693-8.138c-0.967-0.583-1.886-0.719-2.649-0.673l4.566-7.58c0,0,5.36-0.299,6.485-3.536
	c1.548-4.454-2.898-8.322-1.841-10.076c1.057-1.755,2.221-1.644,2.221-1.644s0.723,0.612,1.897-0.056
	c0.818-0.466,1.255-1.339,1.255-1.339s3.655,0.085,5.359-2.074c2.65-3.357,1.141-6.877,1.141-6.877s0.921-3.037-1.953-8.562
	c-2.398-4.609-15.503-12.482-20.484-15.388c-4.897-3.045-17.983-10.949-23.179-10.915c-6.227,0.042-8.481,2.276-8.481,2.276
	s-3.817,0.312-5.546,4.224c-1.112,2.516,0.671,5.708,0.671,5.708s-0.568,0.794-0.597,1.735c-0.043,1.35,0.837,1.703,0.837,1.703
	s0.642,0.977-0.416,2.732c-1.056,1.754-6.554-0.368-9.768,3.082c-2.335,2.508-0.094,7.386-0.094,7.386l-17.64,29.283
	c0,0-4.668-0.849-5.793,2.387c-1.548,4.455,2.898,8.322,1.841,10.077c-1.057,1.754-2.22,1.643-2.22,1.643s-0.724-0.611-1.898,0.057
	c-0.817,0.466-1.254,1.339-1.254,1.339s-3.655-0.085-5.36,2.075c-2.65,3.358-1.141,6.878-1.141,6.878s-0.921,3.036,1.953,8.561
	c2.399,4.609,15.504,12.482,20.484,15.388c4.898,3.044,17.984,10.948,23.179,10.914c6.228-0.042,8.481-2.275,8.481-2.275
	s3.817-0.312,5.547-4.224c1.112-2.516-0.672-5.708-0.672-5.708s0.568-0.794,0.597-1.735c0.042-1.35-0.836-1.704-0.836-1.704
	s-0.643-0.976,0.415-2.73c1.057-1.755,6.554,0.367,9.769-3.084c2.335-2.507-0.598-6.237-0.598-6.237l3.387-5.622
	c0.316,0.696,0.866,1.444,1.833,2.027c2.458,1.481,7.603-0.128,9.855,1.228c2.252,1.356,3.989,2.763,6.617,4.346
	c2.628,1.583,0.818,7.181,6.535,10.625c5.717,3.444,10.682,0.085,14.919,2.637c2.503,1.508,9.386,5.955,21.931,14.959V197.173z"/>
<path style="fill:#FF0000;" d="M347.224,280.457c-3.8-3.344-12.755-2.983-12.755-2.983s-47.393-38.708-88.15-57.421
	c-20.45-9.39-35.055-16.512-45.069-21.602v18.934c8.352,6.037,18.971,13.915,32.19,24.046
	c35.595,27.281,91.911,50.673,91.911,50.673s3.925,8.495,8.657,10.291c5.937,2.254,9.547-2.845,9.547-2.845l5.617-9.324
	C349.172,290.226,351.992,284.65,347.224,280.457z"/>
</svg>
