<svg width="400" height="400" viewBox="0 0 400 400" fill="none" xmlns="http://www.w3.org/2000/svg">
<path style="fill:#0000FF;" d="M233.725,304.086c-0.273-0.23-0.563-0.373-0.563-0.373c-0.171-0.084-0.271-0.11-0.586-0.222
	c-0.002-0.001,0,0-0.696-0.263c-0.005-0.002-1.064-0.403-1.089-0.412c-0.001,0-1.518-0.574-1.536-0.581
	c-0.563-0.213-1.126-0.426-1.689-0.639c-0.522-0.197-1.044-0.395-1.565-0.592c-0.386-0.146-0.773-0.292-1.159-0.439
	c-0.34-0.129-0.679-0.257-1.019-0.386c-0.368-0.139-0.736-0.279-1.104-0.418c-0.068-0.026-0.136-0.051-0.204-0.077
	c-0.184,0.021-0.475,0.033-0.724,0.227c-0.159,0.124-0.33,0.301-0.507,0.505c-0.047,0.011-0.092,0.028-0.14,0.038
	c-0.084,0.018-0.168,0.034-0.252,0.048c-0.027,0.004-0.053,0.008-0.079,0.012c-0.042,0.005-0.085,0.01-0.127,0.014
	c-0.288,0.028-0.577,0.023-0.866,0.003l-42.463-16.066c-0.115-0.118-0.243-0.224-0.349-0.351c-0.027-0.032-0.053-0.065-0.08-0.098
	c-0.01-0.013-0.021-0.026-0.031-0.04c0.022,0.028,0.022,0.028,0.001,0.001c-0.055-0.074-0.11-0.15-0.162-0.226
	c-0.1-0.146-0.193-0.297-0.279-0.452c-0.067-0.12-0.136-0.241-0.207-0.36c-0.014-0.095-0.027-0.189-0.051-0.292
	c-0.19-0.793-0.681-1.62-1.135-1.875c-0.053-0.03-0.436-0.233-1.048-0.578h-0.001c-0.492-0.274-22.768-13.042-32.368-18.437
	c-10.33-5.806-28.787-15.893-32.871-18.5c-0.209-0.134-1.14-0.731-2.431-1.469c-1.301-0.744-3.002-1.646-5.044-2.556
	c-3.792-1.689-6.869-2.558-12.257-4.079c-3.576-1.01-5.425-1.398-6.06-1.527c-2.662-0.54-4.733-0.769-7.626-1.098
	c-2.766-0.315-4.689-0.455-6.524-0.586c-2.45-0.175-4.154-0.247-6.217-0.15c-2.997,0.141-3.82,0.507-4.222,0.7
	c-1.448,0.697-2.219,1.715-3.419,3.301c-0.976,1.29-1.625,2.491-2.139,3.579c-0.247,0.522-0.473,1.025-0.67,1.485
	c-0.157,0.365-0.299,0.718-0.43,1.056c-0.126,0.341-0.253,0.701-0.378,1.079c-0.157,0.475-0.32,1.002-0.481,1.557
	c-0.334,1.156-0.643,2.485-0.765,4.099c-0.15,1.984-0.247,3.257,0.377,4.738c0.181,0.429,0.548,1.221,2.701,3.319
	c1.576,1.537,3.018,2.714,4.805,4.081c0.979,0.749,2.691,2.037,5.232,3.801c2.674,1.857,4.244,2.956,6.443,4.225
	c0.56,0.323,2.204,1.256,5.553,2.867c5.046,2.427,7.927,3.812,11.888,5.056c2.133,0.67,4.005,1.119,5.473,1.423
	c1.457,0.301,2.549,0.47,2.795,0.508c4.788,0.75,25.299,5.407,36.885,7.893c10.767,2.31,35.916,7.487,36.466,7.607h0.001
	c0.687,0.146,1.108,0.247,1.168,0.26c0.509,0.109,1.425-0.185,2.092-0.654c0.116-0.082,0.219-0.164,0.311-0.248
	c0.709-0.183,1.445-0.23,2.183-0.189l42.325,16.014c0.001,0.001,0.002,0.001,0.002,0.002c0.084,0.074,0.164,0.153,0.238,0.238
	c0.016,0.019,0.032,0.038,0.049,0.057c0.005,0.006,0.004,0.004,0.007,0.008c0.031,0.043,0.063,0.086,0.092,0.131
	c0.063,0.096,0.12,0.195,0.171,0.298c0.015,0.031,0.03,0.062,0.045,0.093c0.005,0.009,0.003,0.007,0.006,0.012
	c0.021,0.052,0.041,0.104,0.059,0.157c0.029,0.085,0.052,0.172,0.074,0.26c0.03,0.571,0.167,0.955,0.432,1.056
	c0.012,0.005,0.111,0.042,0.307,0.116c0.279,0.105,0.481,0.18,0.572,0.214c0.208,0.077,0.478,0.18,1.02,0.385
	c0.198,0.075,0.43,0.163,0.894,0.34c0.242,0.092,0.483,0.184,0.725,0.276c0.71,0.27,1.257,0.478,1.409,0.535
	c0.054,0.02,0.388,0.147,1.116,0.422c0.048,0.018,1.38,0.522,1.384,0.523s0.818,0.309,0.836,0.316
	c0.037,0.014,1.133,0.428,1.133,0.428c0.125,0.047,0.718,0.272,0.765,0.289c0.271,0.103,0.371,0.164,0.565,0.214
	c0,0,0.306,0.078,0.651,0.071c0.439-0.009,2.469-1.172,3.962-5.17C234.799,306.667,234.09,304.393,233.725,304.086z
	 M140.954,270.165c-0.72,0.879-2.196,0.844-6.974,0.09c-2.15-0.34-3.225-0.513-4.897-0.848c-2.44-0.489-4.198-0.933-6.597-1.539
	c-1.633-0.413-3.572-0.904-6.126-1.648c-2.14-0.623-3.664-1.117-5.779-1.804c-1.9-0.616-3.613-1.202-6.962-2.347
	c-3.3-1.129-4.948-1.7-7.014-2.462c-3.178-1.172-5.543-2.163-6.305-2.481c-2.642-1.102-4.889-2.04-7.808-3.508
	c-3.217-1.618-5.592-3.046-7.525-4.208c-1.942-1.168-1.024-0.608-4.533-2.864c-1.796-1.155-2.906-1.882-4.298-3.062
	c-1.842-1.563-2.089-2.307-2.182-2.836c-0.026-0.148-0.231-1.426,0.552-2.471c0.491-0.655,1.27-1.086,3.399-1.394
	c2.699-0.391,4.837-0.182,5.38-0.134c1.121,0.098,3.325,0.331,7.395,1.202c3.003,0.643,5.545,1.318,7.519,1.887
	c1.134,0.327,3.862,1.134,7.328,2.39c2.89,1.047,4.936,1.915,8.087,3.251c2.231,0.946,3.667,1.557,5.657,2.507
	c2.099,1.002,3.566,1.788,5.928,3.056c1.941,1.042,4.32,2.324,7.428,4.151c3.053,1.795,5.014,2.948,7.437,4.633
	c1.082,0.753,3.484,2.465,3.775,2.673c2.59,1.847,2,1.453,2.823,2.026c0.883,0.613,1.674,1.144,2.74,1.994
	c1.534,1.223,1.925,1.743,1.974,2.374C141.381,268.847,141.427,269.587,140.954,270.165z M220.324,303.471l-0.116,0.307
	c-0.182,0.482-0.726,0.727-1.207,0.544l-0.153-0.058l-0.153-0.058l-37.602-14.227l-0.153-0.058l-0.153-0.058
	c-0.482-0.182-0.727-0.725-0.545-1.207l0.116-0.307c0.182-0.482,0.726-0.727,1.207-0.545l0.153,0.058l0.153,0.058l37.602,14.227
	l0.153,0.058l0.153,0.058C220.261,302.446,220.506,302.989,220.324,303.471z M231.7,308.995l-6.755-2.556
	c-0.021-0.097-0.041-0.195-0.069-0.29c0.59-1.932,0.695-3.489,0.187-3.681l6.237,2.36c0.035,0.028,0.071,0.056,0.105,0.084
	c0.087,0.073,0.172,0.149,0.25,0.232c0.01,0.011,0.071,0.084,0.079,0.09c0.018,0.025,0.036,0.05,0.052,0.076
	c0.031,0.05,0.056,0.102,0.084,0.153c0.008,0.018,0.01,0.021,0.013,0.027c0.007,0.018,0.014,0.037,0.021,0.055
	c0.149,0.415,0.224,0.861,0.313,1.294C232.13,307.458,231.957,308.196,231.7,308.995z M183.987,269.422
	c-0.026-0.198-0.076-0.305-0.147-0.586c-0.012-0.049-0.166-0.665-0.198-0.794c0,0-0.284-1.137-0.293-1.175
	c-0.005-0.018-0.215-0.863-0.216-0.867s-0.346-1.386-0.358-1.435c-0.189-0.755-0.275-1.101-0.289-1.158
	c-0.04-0.158-0.182-0.726-0.367-1.462c-0.063-0.251-0.126-0.501-0.19-0.752c-0.121-0.481-0.182-0.722-0.233-0.927
	c-0.141-0.562-0.211-0.842-0.264-1.058c-0.023-0.095-0.074-0.303-0.146-0.593c-0.051-0.204-0.076-0.305-0.08-0.318
	c-0.074-0.297-0.497-0.483-1.141-0.572c-0.057-0.038-0.115-0.073-0.171-0.112c-0.081-0.057-0.161-0.115-0.241-0.174
	c-0.032-0.024-0.063-0.048-0.095-0.071c-0.015-0.012-0.029-0.023-0.044-0.035c-0.129-0.104-0.253-0.214-0.363-0.337
	c-0.02-0.022-0.039-0.045-0.058-0.068c-0.009-0.013-0.018-0.025-0.026-0.038c-0.01-0.015-0.016-0.031-0.025-0.046l-10.987-43.953
	c0.021-0.669,0.108-1.33,0.308-1.963c0.143-0.109,0.287-0.233,0.433-0.396c0.543-0.608,0.943-1.483,0.893-2.002
	c-0.006-0.061-0.058-0.491-0.122-1.19v-0.001c-0.055-0.561-2.267-26.141-3.307-37.104c-1.12-11.797-3.355-32.711-3.543-37.553
	c-0.01-0.248-0.05-1.353-0.179-2.835c-0.131-1.493-0.359-3.405-0.776-5.602c-0.774-4.078-1.815-7.102-3.637-12.396
	c-1.209-3.513-1.945-5.254-2.2-5.849c-1.004-2.332-1.913-4.019-3.445-6.891c-1.456-2.729-2.536-4.579-3.166-5.639
	c-1.15-1.934-2.151-3.503-3.494-5.248c-1.833-2.383-2.577-2.84-2.982-3.069c-1.398-0.792-2.674-0.845-4.662-0.927
	c-1.617-0.066-2.973,0.085-4.16,0.283c-0.569,0.095-1.112,0.196-1.602,0.296c-0.39,0.08-0.762,0.164-1.116,0.25
	c-0.352,0.09-0.718,0.191-1.099,0.304c-0.48,0.142-1.006,0.308-1.553,0.492c-1.14,0.384-2.408,0.889-3.804,1.708
	c-1.715,1.007-2.817,1.654-3.677,3.011c-0.239,0.377-0.698,1.151-1.187,4.111c-0.337,2.037-0.464,3.738-0.575,6.192
	c-0.083,1.838-0.168,3.764-0.178,6.548c-0.01,2.911-0.024,4.994,0.202,7.702c0.054,0.645,0.224,2.527,0.811,6.196
	c0.883,5.529,1.388,8.686,2.624,12.649c0.666,2.135,1.364,3.928,1.951,5.308c0.583,1.369,1.067,2.362,1.176,2.586
	c2.114,4.361,9.982,23.867,14.545,34.803c4.24,10.163,14.326,33.775,14.541,34.295v0.001c0.272,0.648,0.429,1.052,0.452,1.108
	c0.2,0.481,0.965,1.065,1.73,1.346c0.266,0.098,0.504,0.148,0.726,0.171c0.178,0.161,0.348,0.334,0.506,0.535
	c-0.028-0.035,0.022,0.029,0.024,0.033c0.028,0.038,0.055,0.076,0.082,0.114c0.048,0.069,0.094,0.14,0.139,0.212
	c0.084,0.137,0.157,0.282,0.227,0.427l11.056,44.229c-0.001,0.049,0,0.098-0.003,0.147c-0.002,0.038-0.005,0.076-0.009,0.114
	c0.004-0.029,0.004-0.027-0.002,0.008c-0.045,0.263-0.12,0.412-0.276,0.648c-0.071,0.108-0.149,0.212-0.224,0.317
	c-0.157,0.115-0.301,0.228-0.409,0.338c-0.222,0.225-0.267,0.513-0.309,0.693l0.053,0.211c0.096,0.382,0.191,0.764,0.286,1.146
	c0.088,0.352,0.176,0.705,0.264,1.057c0.1,0.401,0.2,0.802,0.301,1.202c0.135,0.541,0.271,1.083,0.406,1.624
	c0.146,0.584,0.292,1.168,0.438,1.752c0.005,0.019,0.398,1.592,0.398,1.593c0.006,0.025,0.281,1.124,0.282,1.129
	c0.18,0.722,0.18,0.72,0.181,0.722c0.074,0.326,0.089,0.429,0.152,0.608c0,0,0.108,0.304,0.304,0.602
	c0.263,0.398,2.439,1.368,6.535,0.362c4.144-1.017,5.536-2.898,5.596-3.333C184.029,269.734,183.987,269.422,183.987,269.422z
	 M148.967,176.957c-0.63,0.403-1.359,0.271-1.411,0.26c-0.621-0.122-1.092-0.571-2.128-2.237c-0.72-1.158-1.155-2.005-1.661-2.953
	c-0.472-0.885-0.15-0.252-1.683-3.04c-0.172-0.314-1.593-2.898-2.215-4.061c-1.391-2.603-2.308-4.685-3.735-7.926
	c-1.452-3.299-2.448-5.812-3.257-7.861c-0.985-2.493-1.594-4.042-2.345-6.243c-0.712-2.087-1.151-3.585-1.831-5.91
	c-0.96-3.285-1.584-5.419-2.287-8.411c-0.844-3.589-1.327-6.393-1.52-7.557c-0.336-2.026-0.71-4.63-0.999-7.687
	c-0.392-4.144-0.366-6.359-0.333-7.485c0.016-0.545,0.058-2.692,0.76-5.327c0.554-2.079,1.073-2.803,1.781-3.214
	c1.129-0.656,2.375-0.304,2.519-0.26c0.514,0.154,1.225,0.485,2.562,2.497c1.01,1.52,1.603,2.707,2.541,4.625
	c1.832,3.748,1.383,2.77,2.316,4.835c0.929,2.055,2.071,4.58,3.303,7.964c1.118,3.069,1.787,5.411,2.574,8.163
	c0.227,0.794,0.936,3.258,1.73,6.551c0.516,2.14,0.892,3.844,1.629,7.253c0.747,3.46,1.129,5.229,1.52,7.188
	c0.435,2.181,0.749,3.752,1.118,5.95c0.441,2.623,0.703,4.606,0.923,6.276c0.323,2.454,0.559,4.251,0.76,6.732
	c0.138,1.699,0.185,2.787,0.271,4.962C150.062,174.874,149.925,176.345,148.967,176.957z M161.835,219.663l-0.04-0.159l-0.04-0.159
	c-0.125-0.5,0.182-1.011,0.681-1.136l0.318-0.08c0.5-0.125,1.011,0.182,1.136,0.681l0.04,0.159l0.04,0.159l9.75,39.004l0.04,0.159
	l0.04,0.159c0.125,0.5-0.182,1.011-0.681,1.136l-0.318,0.079c-0.5,0.125-1.011-0.182-1.136-0.681l-0.079-0.318L161.835,219.663z
	 M174.282,271.869c-0.002,0-0.004-0.002-0.006-0.003c-0.105-0.016-0.207-0.042-0.307-0.079c-0.009-0.003-0.004,0-0.01-0.002
	c-0.02-0.008-0.04-0.018-0.057-0.026c-0.046-0.022-0.091-0.045-0.135-0.069c-0.194-0.104-0.377-0.225-0.559-0.349
	c-0.018-0.015-0.036-0.03-0.054-0.046c-0.041-0.037-0.08-0.076-0.117-0.118c-0.012-0.013-0.023-0.027-0.034-0.04
	c-0.016-0.025-0.032-0.05-0.049-0.074l-1.702-6.808c0.131,0.523,1.667,0.602,3.633,0.251c0.085,0.055,0.169,0.112,0.253,0.167
	c0.036,0.024,0.072,0.047,0.108,0.071l1.716,6.864C175.918,271.814,174.98,271.9,174.282,271.869z M349.417,139.298
	c-0.391-1.57-0.917-2.829-1.44-3.913c-0.251-0.52-0.501-1.012-0.735-1.454c-0.186-0.352-0.371-0.685-0.553-1
	c-0.186-0.312-0.385-0.636-0.601-0.97c-0.271-0.42-0.578-0.879-0.909-1.352c-0.689-0.986-1.53-2.062-2.708-3.17
	c-1.449-1.363-2.379-2.238-3.923-2.683c-0.429-0.123-1.301-0.346-4.279,0.016c-2.05,0.249-3.718,0.605-6.104,1.188
	c-1.787,0.436-3.66,0.896-6.334,1.669c-2.797,0.809-4.8,1.381-7.334,2.359c-0.604,0.233-2.362,0.926-5.719,2.519
	c-5.058,2.402-7.946,3.773-11.402,6.073c-1.862,1.239-3.387,2.413-4.545,3.364c-1.15,0.944-1.967,1.688-2.151,1.855
	c-3.591,3.254-20.1,16.287-29.313,23.739c-8.562,6.926-28.388,23.24-28.827,23.593h-0.001c-0.545,0.443-0.889,0.707-0.936,0.745
	c-0.405,0.327-0.751,1.225-0.806,2.039c-0.011,0.162-0.007,0.309,0.003,0.449c-0.076,0.203-0.144,0.41-0.243,0.6
	c-0.152,0.292-0.326,0.576-0.528,0.836c-0.032,0.041-0.067,0.079-0.1,0.119l-39.349,23.046c-0.038,0.009-0.076,0.022-0.115,0.031
	c-0.058,0.013-0.116,0.025-0.174,0.035c-0.012,0.002-0.047,0.008-0.069,0.011c-0.085,0.01-0.171,0.018-0.257,0.019
	c-0.051,0.001-0.102,0-0.153-0.003c-0.012-0.001-0.048-0.005-0.07-0.007c-0.084-0.014-0.167-0.033-0.248-0.059
	c-0.04-0.013-0.079-0.028-0.118-0.042c-0.012-0.005-0.049-0.02-0.067-0.028c-0.058-0.027-0.114-0.056-0.171-0.084
	c-0.14-0.105-0.279-0.206-0.404-0.273c-0.278-0.149-0.567-0.112-0.752-0.102c-0.063,0.037-0.125,0.073-0.188,0.11
	c-0.34,0.199-0.679,0.398-1.019,0.597c-0.313,0.184-0.627,0.367-0.94,0.551c-0.356,0.209-0.713,0.418-1.069,0.626
	c-0.481,0.282-0.963,0.564-1.444,0.846c-0.519,0.304-1.039,0.608-1.558,0.913c-0.017,0.01-1.416,0.829-1.417,0.83
	c-0.022,0.013-1,0.586-1.005,0.588c-0.642,0.376-0.641,0.375-0.642,0.376c-0.292,0.163-0.386,0.205-0.541,0.317
	c0,0-0.262,0.189-0.493,0.461c-0.308,0.364-0.627,2.725,1.489,6.374c2.141,3.691,4.337,4.499,4.772,4.434
	c0.342-0.051,0.63-0.179,0.63-0.179c0.183-0.081,0.271-0.159,0.522-0.305c0.044-0.026,0.591-0.346,0.706-0.413
	c0,0,1.012-0.592,1.046-0.612c0.016-0.009,0.768-0.449,0.771-0.451c0.003-0.002,1.233-0.722,1.277-0.747
	c0.671-0.393,0.98-0.573,1.03-0.603c0.14-0.082,0.646-0.379,1.3-0.763c0.223-0.131,0.446-0.262,0.668-0.393
	c0.428-0.252,0.642-0.377,0.824-0.484c0.499-0.293,0.749-0.439,0.941-0.55c0.085-0.049,0.271-0.156,0.528-0.306
	c0.181-0.106,0.272-0.159,0.283-0.166c0.275-0.161,0.33-0.65,0.216-1.338c0.005-0.022,0.009-0.043,0.015-0.065
	c0.027-0.111,0.06-0.22,0.098-0.327c0.009-0.026,0.057-0.183,0.019-0.054c0.012-0.04,0.037-0.081,0.055-0.118
	c0.041-0.084,0.087-0.165,0.136-0.244c0.026-0.042,0.054-0.084,0.082-0.125c0.015-0.022,0.101-0.161,0.033-0.048
	c0.037-0.061,0.091-0.116,0.144-0.171l39.014-22.85c0.061-0.021,0.121-0.043,0.186-0.063c0.254-0.078,0.558-0.147,0.794-0.178
	c0.227-0.03,0.528-0.044,0.784-0.037c0.122,0.003,0.225,0.011,0.328,0.02c0.132,0.093,0.275,0.183,0.449,0.266
	c0.736,0.35,1.688,0.488,2.172,0.295c0.056-0.023,0.455-0.193,1.108-0.452h0.001c0.522-0.211,24.45-9.522,34.679-13.601
	c11.007-4.39,30.45-12.413,35.044-13.953c0.236-0.079,1.285-0.428,2.67-0.969c1.396-0.545,3.167-1.301,5.158-2.319
	c3.696-1.889,6.305-3.737,10.874-6.974c3.032-2.148,4.496-3.343,4.995-3.755c1.956-1.619,3.32-2.965,5.645-5.243
	c2.21-2.164,3.682-3.72,4.522-4.623c1.533-1.647,2.758-3.049,4.055-4.828c1.771-2.429,2.001-3.272,2.107-3.725
	C350.206,142.467,349.897,141.228,349.417,139.298z M180.487,229.18c-0.635-1.223-1.027-2.328-1.099-3.041
	c0.06-0.173,0.128-0.335,0.225-0.507c0.111-0.197,0.26-0.375,0.424-0.541l5.902-3.457c-0.472,0.276-0.101,1.812,0.818,3.634
	c-0.006,0.084-0.013,0.167-0.018,0.251L180.487,229.18z M227.483,201.798l-0.141,0.083l-0.141,0.083l-34.692,20.318l-0.283,0.166
	c-0.444,0.26-1.021,0.11-1.281-0.335l-0.166-0.283c-0.26-0.444-0.11-1.021,0.335-1.281l0.283-0.166l34.692-20.318l0.142-0.083
	l0.141-0.083c0.444-0.26,1.021-0.11,1.281,0.335l0.166,0.283C228.078,200.961,227.927,201.537,227.483,201.798z M332.755,136.891
	c-1.175,1.397-2.148,2.299-3.725,3.738c-3.082,2.811-2.27,2.105-3.99,3.582c-1.711,1.47-3.814,3.275-6.715,5.408
	c-2.632,1.935-4.691,3.236-7.111,4.765c-0.698,0.441-2.864,1.814-5.801,3.501c-1.909,1.097-3.438,1.936-6.503,3.601
	c-3.11,1.69-4.701,2.553-6.471,3.479c-1.97,1.03-3.391,1.773-5.396,2.745c-2.393,1.16-4.223,1.969-5.764,2.649
	c-2.265,0.999-3.923,1.731-6.247,2.621c-1.592,0.61-2.623,0.96-4.686,1.655c-4.584,1.544-6.034,1.825-6.891,1.079
	c-0.564-0.491-0.642-1.228-0.647-1.281c-0.058-0.63,0.241-1.208,1.549-2.671c0.909-1.017,1.6-1.672,2.367-2.424
	c0.716-0.702,0.2-0.215,2.445-2.469c0.253-0.254,2.333-2.344,3.275-3.267c2.107-2.067,3.847-3.531,6.557-5.812
	c2.758-2.321,4.89-3.983,6.629-5.335c2.116-1.646,3.431-2.666,5.333-4.005c1.803-1.27,3.117-2.112,5.157-3.418
	c2.883-1.845,4.755-3.043,7.429-4.559c3.207-1.818,5.762-3.07,6.825-3.582c1.85-0.892,4.244-1.982,7.097-3.119
	c3.867-1.54,6-2.138,7.089-2.423c0.527-0.138,2.6-0.701,5.326-0.768c2.151-0.052,2.992,0.242,3.585,0.806
	c0.947,0.899,0.959,2.194,0.958,2.344C334.428,134.267,334.31,135.042,332.755,136.891z M252.126,242.403
	c-1.923-1.141-4.655-2.602-8.163-3.977c2.222-0.681,4.581-1.05,7.026-1.05c6.352,0,12.122,2.479,16.408,6.516
	c-1.734-0.405-4.11-0.826-6.967-0.921c-2.143-0.071-4.25-0.139-6.719,0.395C253.235,243.067,252.731,242.762,252.126,242.403z
	 M274.928,261.315c0,10.37-6.594,19.197-15.818,22.523c1.087-1.318,2.472-3.262,3.626-5.84c1.356-3.028,1.773-5.542,2.022-7.106
	c0.756-4.757,0.233-8.467,0.104-9.316c-0.776-5.123-2.739-8.722-3.46-9.962c-0.845-1.454-2.504-4.247-5.645-6.795
	c-0.064-0.052-0.122-0.092-0.184-0.142c0.295-0.049,0.578-0.113,0.883-0.149c1.987-0.235,3.615-0.108,5.724,0.056
	c2.837,0.221,5.197,0.682,6.934,1.104C272.734,249.882,274.928,255.341,274.928,261.315z M232.974,277.07
	c-3.685-4.21-5.923-9.719-5.923-15.754c0-9.696,5.768-18.039,14.056-21.802c1.754,0.564,4.188,1.456,6.958,2.848
	c1.198,0.602,2.24,1.129,3.226,1.7c-2.94,1.057-5.016,2.624-6.755,3.941c-1.23,0.931-3.682,2.931-6.098,6.104
	c-1.347,1.77-3.537,4.701-4.823,9.096c-0.806,2.757-0.942,5.013-1.028,6.613C232.429,272.741,232.675,275.22,232.974,277.07z
	 M262.948,261.886c1.003,6.368-0.429,11.432-1.045,13.32c-1.407,4.31-3.57,7.427-5.158,9.347c-1.844,0.455-3.771,0.701-5.756,0.701
	c-6.134,0-11.727-2.31-15.963-6.104c-0.421-2.084-0.816-5.007-0.661-8.501c0.069-1.552,0.187-3.911,1.007-6.87
	c1.313-4.738,3.556-7.884,4.217-8.775c0.479-0.645,2.462-3.255,5.919-5.752c1.624-1.173,4.18-2.966,7.619-4.014
	c0.475,0.339,0.951,0.707,1.439,1.124c0.823,0.702,3.851,3.386,6.086,8.003C261.002,255.086,262.32,257.896,262.948,261.886z
	 M285.473,245.649c0.634,2.144,1.645,5.073,3.283,8.466c-2.093-1.011-4.073-2.344-5.867-4.007
	c-4.659-4.319-7.205-10.059-7.603-15.933c0.996,1.476,2.453,3.4,4.483,5.412c1.524,1.509,3.023,2.991,5.196,4.278
	C285.111,244.409,285.274,244.975,285.473,245.649z M281.608,216.279c7.05-7.605,17.887-9.596,26.912-5.765
	c-1.694,0.228-4.03,0.712-6.629,1.817c-3.053,1.299-5.068,2.859-6.314,3.837c-3.788,2.975-5.927,6.051-6.41,6.762
	c-2.913,4.285-3.921,8.259-4.235,9.658c-0.368,1.641-1.051,4.817-0.479,8.821c0.012,0.081,0.027,0.15,0.039,0.229
	c-0.25-0.164-0.501-0.31-0.749-0.491c-1.617-1.179-2.725-2.378-4.16-3.932c-1.931-2.091-3.348-4.033-4.335-5.523
	C275.444,226.155,277.546,220.66,281.608,216.279z M323.086,233.246c-0.16,5.593-2.264,11.155-6.366,15.58
	c-6.591,7.111-16.493,9.308-25.13,6.433c-0.903-1.606-2.082-3.915-3.167-6.819c-0.469-1.257-0.875-2.351-1.21-3.44
	c2.875,1.224,5.463,1.486,7.633,1.702c1.535,0.153,4.693,0.354,8.622-0.331c2.191-0.382,5.79-1.043,9.721-3.392
	c2.466-1.474,4.099-3.036,5.25-4.151C320.543,236.791,322.048,234.806,323.086,233.246z M290.781,224.004
	c3.593-5.352,8.086-8.092,9.822-9.058c3.962-2.205,7.667-3.02,10.137-3.348c1.662,0.92,3.242,2.049,4.698,3.399
	c4.499,4.17,7.03,9.666,7.557,15.328c-1.108,1.814-2.805,4.226-5.295,6.684c-1.106,1.092-2.796,2.741-5.409,4.354
	c-4.184,2.582-7.968,3.364-9.058,3.568c-0.79,0.148-4.019,0.713-8.251,0.194c-1.988-0.244-5.082-0.666-8.317-2.236
	c-0.118-0.572-0.217-1.165-0.292-1.803c-0.126-1.074-0.522-5.102,0.978-10.006C287.586,230.314,288.53,227.357,290.781,224.004z"/>
</svg>
