<svg width="400" height="400" viewBox="0 0 400 400" fill="none" xmlns="http://www.w3.org/2000/svg">
<path style="fill:#0000FF;" d="M300.661,179.847c-9.865-12.726-26.599-16.822-43.775-13.064
	c-19.091,4.178-36.521,24.218-40.162,57.367c-0.211,1.929-0.432,4.137-0.601,6.541h-7.372c0.204-1.546,0.419-3.054,0.641-4.503
	c2.808-18.303,12.004-32.815,20.306-56.133c5.495-15.439,7.573-32.588,0.165-51.377C222.169,99.168,200,70,200,70
	s-22.171,29.168-29.863,48.677c-7.41,18.789-5.332,35.937,0.165,51.377c8.301,23.318,17.496,37.83,20.304,56.133
	c0.222,1.449,0.438,2.957,0.641,4.503h-7.371c-0.169-2.403-0.39-4.611-0.601-6.541c-3.64-33.148-21.071-53.189-40.162-57.367
	c-17.175-3.758-33.909,0.338-43.774,13.064c-9.233,11.911-8.624,23.965-6.278,32.793c2.912,10.959,9.492,17.322,17.41,20.537
	c3.089,1.254,7.126,1.983,10.388,1.952c14.444-0.135,22.606-10.02,22.606-22.765c0-11.175-7.943-20.49-18.492-22.617
	c2.391-2.459,6.56-4.841,13.677-4.528c15.187,0.67,32.395,18.243,34.009,45.471h-11.412c0,0,3.721,3.998,3.721,8.925
	c0,5.113-3.721,8.924-3.721,8.924h9.246c-2.256,5.935-5.897,9.988-9.674,12.753c-3.255-5.231-9.038-8.724-15.65-8.724
	c-10.183,0-18.438,8.255-18.438,18.437c0,10.184,8.255,18.438,18.438,18.438c3.881,0,7.514-0.409,10.847-1.792
	c19.313-8.017,25.835-24.16,27.594-39.112h8.77c-0.142,7.664-1.234,15.729-4.121,23.683c-3.179,8.759-8.444,14.108-7.506,27.831
	C182.037,318.854,200,330,200,330s17.963-11.146,19.246-29.946c0.938-13.723-4.323-19.072-7.505-27.831
	c-2.887-7.955-3.979-16.019-4.121-23.683h8.77c1.759,14.952,8.281,31.095,27.594,39.112c3.334,1.383,6.967,1.792,10.847,1.792
	c10.185,0,18.437-8.255,18.437-18.438c0-10.182-8.253-18.437-18.437-18.437c-6.612,0-12.395,3.493-15.65,8.724
	c-3.776-2.765-7.419-6.818-9.675-12.753h9.247c0,0-3.72-3.811-3.72-8.924c0-4.927,3.72-8.925,3.72-8.925H227.34
	c1.615-27.227,18.824-44.801,34.011-45.471c7.116-0.314,11.285,2.069,13.676,4.528c-10.55,2.127-18.492,11.443-18.492,22.617
	c0,12.745,8.163,22.63,22.608,22.765c3.261,0.03,7.299-0.699,10.386-1.952c7.918-3.215,14.5-9.578,17.411-20.537
	C309.287,203.812,309.894,191.758,300.661,179.847L300.661,179.847z"/>
</svg>
