<svg width="400" height="400" viewBox="0 0 400 400" fill="none" xmlns="http://www.w3.org/2000/svg">
<path style="fill:#0000FF;" d="M335.865,171.166l0.377,0.192l-0.101,0.412c-0.241,0.982-0.964,1.562-1.545,2.028
	c-0.305,0.245-0.568,0.469-0.833,0.693c-0.946,0.804-1.924,1.635-3.083,2.067c-1.265,0.471-2.357,1.172-3.512,1.914
	c-0.704,0.452-1.432,0.919-2.195,1.324l-0.132,0.075c-0.188,0.112-0.423,0.251-0.744,0.275c-0.049,0.004-0.097,0.006-0.143,0.006
	c-0.419,0-0.725-0.156-0.911-0.466c-0.27-0.451-0.202-0.974,0.171-1.332c0.213-0.204,0.435-0.378,0.66-0.519l2.308-1.432
	c2.533-1.569,5.152-3.19,7.671-4.87l0.12-0.083C334.363,171.181,335.014,170.733,335.865,171.166z M96.906,246.051
	c-0.194-0.024-0.391-0.038-0.588-0.038l-2.566,0.008c-1.587,0.006-3.175,0.011-4.763,0.011l-0.521,0.006
	c-0.555,0.011-1.079,0.021-1.571-0.075c-2.265-0.437-4.023-0.612-5.71-0.595c-0.614,0.001-0.934-0.133-1.032-0.257
	c-0.787-1.012-1.861-1.212-2.808-1.387c-0.189-0.036-0.377-0.07-0.563-0.112c-0.948-0.211-2.044-0.406-3.072-0.056
	c-0.961,0.327-1.842,0.381-2.776,0.173c-0.469-0.104-0.947-0.05-1.265,0.014c-0.124,0.025-0.261,0.034-0.399,0.046
	c-0.543,0.043-1.555,0.123-1.707,1.286c-0.166,1.283,0.942,1.604,1.538,1.776l0.229,0.069c1.976,0.633,4.033,0.838,6.022,1.035
	l0.837,0.085c2.204,0.229,4.416,0.293,6.554,0.354c2.06,0.059,4.006,0.115,5.947,0.311l2.136-0.083
	c1.828-0.07,3.499-0.135,5.17-0.207c0.206-0.009,0.412-0.052,0.616-0.099c0.115-0.025,0.231-0.052,0.348-0.066
	c1.15-0.136,1.206-0.918,1.195-1.154C98.122,246.2,97.207,246.087,96.906,246.051z M322.6,191.717l-0.205,0.08
	c-0.23,0.086-0.454,0.193-0.678,0.302c-0.64,0.312-1.059,0.493-1.581,0.303c-0.331-0.122-0.875,0.025-1.046,0.394
	c-0.191,0.411-0.555,0.669-0.976,0.968c-0.241,0.171-0.482,0.344-0.697,0.543c-0.29,0.272-0.439,0.656-0.417,1.036
	c-0.023,0.65,0.223,1.213,0.675,1.545c0.268,0.196,0.592,0.298,0.937,0.298c0.215,0,0.439-0.04,0.661-0.118
	c1.876-0.664,3.413-1.51,4.7-2.584c0.358-0.301,1.451-1.215,0.753-2.379C324.126,191.103,323.135,191.503,322.6,191.717z
	 M302.038,203.984c-0.466,0.295-1.014,0.332-1.631,0.347c-1.471,0.037-2.549,0.593-3.204,1.653c-0.236,0.381-0.59,0.577-1.049,0.754
	c-3.248,1.253-6.44,2.443-9.801,3.237c-1.47,0.346-2.799,0.632-4.194,0.633c-0.611,0.001-1.534,0.002-2.231,0.652
	c-0.301,0.28-0.654,0.476-1.147,0.635c-0.535,0.171-0.894,0.534-0.986,0.992c-0.094,0.474,0.11,0.965,0.558,1.348
	c0.561,0.479,1.214,0.532,1.845,0.583l0.315,0.027l0.077-0.016c0.783-0.159,1.581-0.258,2.425-0.364
	c1.418-0.178,2.882-0.36,4.313-0.845l1.998-0.67c2.495-0.832,5.074-1.692,7.559-2.722c2.113-0.876,4.161-1.781,5.995-3.213
	l0.096-0.074c0.359-0.278,0.767-0.592,0.991-1.113c0.304-0.71,0.231-1.3-0.217-1.752
	C303.484,203.808,302.905,203.436,302.038,203.984z M318.671,183.147c0.276-0.202,1.115-0.815,0.634-1.712
	c-0.318-0.594-0.872-0.698-1.721-0.266c-2.22,1.093-5.175,2.485-8.342,3.568c-2.41,0.824-4.791,1.838-7.092,2.818
	c-0.736,0.314-1.472,0.627-2.209,0.935c-3.75,1.564-7.642,2.785-11.289,3.87c-0.696,0.208-1.25,0.446-1.748,0.75
	c-0.611,0.374-0.856,0.945-0.672,1.569c0.231,0.785,0.934,0.833,1.413,0.866l0.069,0.006l0.411-0.076
	c0.258-0.048,0.515-0.096,0.775-0.136c2.66-0.412,5.121-1.443,7.502-2.44c0.813-0.341,1.625-0.681,2.444-0.997
	c0.954-0.367,1.898-0.785,2.812-1.189c1.651-0.73,3.359-1.485,5.129-1.944c0.441-0.115,0.853-0.336,1.298-0.697
	c0.293-0.238,0.656-0.415,1.112-0.544c0.998-0.282,1.913-0.738,2.798-1.179c0.865-0.431,1.682-0.839,2.568-1.096
	c0.384-0.112,0.684-0.367,0.95-0.591c0.104-0.089,0.209-0.179,0.319-0.255c0.695-0.487,1.283-0.865,1.997-0.928
	C318.111,183.452,318.417,183.332,318.671,183.147z M263.807,206.719c-0.353-0.097-0.52-0.27-0.688-0.711
	c-0.19-0.499-0.639-1.103-1.701-1.143c-0.793-0.019-1.395,0.35-1.715,1.13l-0.403,0.956c-0.256,0.612-0.351,1.503,0.65,2.273
	c0.73,0.561,1.566,0.744,2.302,0.906c0.219,0.048,0.436,0.095,0.645,0.151l0.125,0.019c0.029,0.001,0.057,0.001,0.087,0.001
	c1.137,0,2.043-0.617,2.221-1.522C265.636,207.227,264.26,206.846,263.807,206.719z M252.931,196.026l-0.114-0.034
	c-0.14-0.044-0.265-0.05-0.469-0.063c-0.654-0.131-1.314-0.181-1.954-0.23c-0.881-0.066-1.713-0.13-2.509-0.39
	c-0.535-0.174-1.066-0.223-1.578-0.27c-0.577-0.052-1.12-0.101-1.634-0.323c-1.046-0.449-1.933-1.096-2.873-1.781
	c-0.351-0.255-0.702-0.511-1.061-0.756c-0.417-0.284-1.39-0.95-2.197-0.022c-0.646,0.74-0.563,1.717,0.206,2.43
	c1.76,1.631,3.416,2.547,5.213,2.885c1.015,0.19,2.166,0.406,3.205,0.845c0.468,0.197,0.894,0.297,1.286,0.297
	c0.211,0,0.413-0.029,0.606-0.086c0.518-0.153,1.051-0.155,1.63-0.15c0.171,0.002,0.341,0,0.499-0.002l0.418,0.001
	c0.317,0,0.633,0.002,0.95-0.002l-0.006-0.535l0.102,0.534c0.393-0.001,1.435-0.005,1.507-1.046
	C254.219,196.412,253.349,196.151,252.931,196.026z M280.189,197.118c0.895-0.4,1.738-0.775,2.704-0.724
	c0.392,0.02,0.79-0.159,1.043-0.473c0.239-0.298,0.315-0.683,0.21-1.056c-0.087-0.308-0.287-0.548-0.564-0.676
	c-0.331-0.151-0.762-0.136-1.154,0.046c-0.849,0.394-1.771,0.436-2.744,0.48c-0.473,0.022-0.945,0.043-1.411,0.103
	c-0.458,0.06-0.912,0.14-1.366,0.22c-0.787,0.139-1.529,0.271-2.3,0.296l-1.188,0.033c-1.638,0.041-3.331,0.084-5.006,0.327
	l-0.599,0.09c-1.349,0.203-2.744,0.413-4.036,0.266c-0.93-0.106-1.862-0.11-2.762-0.115c-1.113-0.005-2.162-0.011-3.214-0.189
	c-0.405-0.068-0.762,0.032-1.079,0.119l-0.168,0.045c-0.276,0.071-1.116,0.286-1.165,1.22c-0.034,0.699,0.385,1.214,1.155,1.414
	l0.35,0.092c0.709,0.189,1.406,0.381,2.247,0.376l0.578-0.009c0.928-0.018,1.805-0.034,2.678,0.104
	c0.43,0.068,0.868,0.101,1.34,0.101c0.523,0,1.087-0.042,1.727-0.125c0.473-0.063,0.908-0.213,1.328-0.358
	c0.494-0.172,0.966-0.329,1.411-0.314c1.009,0.039,2.015-0.053,2.991-0.146c1.292-0.122,2.627-0.247,3.996-0.062l0.071,0.01
	l0.071-0.009c0.275-0.037,0.569-0.064,0.875-0.092c0.751-0.069,1.603-0.147,2.418-0.382
	C279.174,197.571,279.69,197.341,280.189,197.118z M229.558,199.442c-0.076-0.361-0.227-1.2-1.278-1.144
	c-0.853,0.053-1.364,0.738-1.333,1.786c0.016,0.483,0.201,0.923,0.509,1.21c0.251,0.232,0.566,0.354,0.916,0.354
	c0.022,0,0.044-0.001,0.066-0.001c1.044-0.046,1.2-1.112,1.268-1.566l0.026-0.184l-0.092-0.162
	C229.609,199.683,229.581,199.55,229.558,199.442z M131.448,179.721c-0.963-0.278-1.951-0.492-2.948-0.708
	c-0.559-0.121-1.085,0.132-1.305,0.628c-0.243,0.547-0.045,1.024,0.586,1.417c0.951,0.593,1.985,0.852,3.049,1.086l0.086,0.019
	l0.24-0.023c0.376-0.031,1.074-0.089,1.292-0.835c0.095-0.324,0.066-0.639-0.084-0.912
	C132.192,180.08,131.867,179.842,131.448,179.721z M291.203,265.623c0.874,0.265,1.754,0.354,2.574,0.41l0.21,0.013
	c0.654,0.038,1.067,0.085,1.273,0.41c0.797,1.257,2.035,1.584,3.127,1.873c0.253,0.067,0.507,0.134,0.755,0.212
	c0.584,0.185,1.163,0.252,1.734,0.252c0.754,0,1.498-0.117,2.227-0.231l0.169-0.027c0.226-0.023,0.483,0.026,0.754,0.079
	c0.42,0.081,0.895,0.176,1.408,0.026l-0.148-0.514l0.19,0.501c0.261-0.074,0.871-0.248,0.937-0.95
	c0.027-0.299-0.037-0.849-0.767-1.17c-0.181-0.078-0.358-0.117-0.516-0.15l-0.168-0.038c-1.893-0.483-3.835-0.862-5.712-1.229
	c-2.134-0.417-4.341-0.848-6.467-1.43c-0.354-0.096-0.717-0.081-1.038-0.07l-0.254,0.008c-0.952,0.014-1.127,0.671-1.159,0.872
	C290.284,264.786,290.333,265.357,291.203,265.623z M148.722,182.763c-0.581-0.149-1.07-0.231-1.541-0.255
	c-0.46-0.024-0.92-0.061-1.379-0.098c-0.883-0.072-1.802-0.148-2.716-0.125c-0.18,0.022-0.369-0.038-0.577-0.084
	c-0.343-0.075-0.734-0.161-1.165-0.074c-0.803,0.16-0.978,0.68-1.011,0.975c-0.073,0.651,0.483,0.957,0.693,1.072
	c0.202,0.111,0.435,0.198,0.711,0.267c1.419,0.353,3.01,0.75,4.571,0.75c0.163,0,0.327-0.004,0.49-0.014l0.547,0.002
	c0.395,0.002,0.761,0.004,1.127-0.005c1.093-0.027,1.319-0.69,1.357-1.083C149.873,183.627,149.717,183.02,148.722,182.763z
	 M162.602,193.868l-0.353-0.02c-0.787-0.044-1.529-0.086-2.275-0.212c-0.7-0.115-1.286,0.254-1.419,0.906
	c-0.147,0.718,0.24,1.315,0.962,1.488c0.663,0.159,1.331,0.294,1.952,0.42l0.772,0.15c0.055,0.002,0.109,0.003,0.162,0.003
	c1.056,0,1.635-0.401,1.723-1.194c0.041-0.378-0.057-0.721-0.285-0.991C163.568,194.095,163.128,193.899,162.602,193.868z
	 M159.479,188.209c0.136,0.04,0.273,0.058,0.41,0.058c0.525,0,1.045-0.26,1.464-0.507c0.095-0.056,0.204-0.106,0.314-0.156
	c0.493-0.226,1.41-0.647,1.104-1.794c-0.277-1.044-1.187-1.016-1.73-0.996c-0.142,0.006-0.288,0.011-0.507-0.002l-0.242,0.01
	c-0.24,0.008-0.51,0.019-0.775,0.063c-0.662,0.11-1.083,0.359-1.288,0.761c-0.203,0.399-0.158,0.881,0.137,1.472
	C158.56,187.503,158.883,188.033,159.479,188.209z M349.942,169.039c-0.176,1.072-0.477,2.102-0.768,3.098l-0.254,0.88
	c-0.159,0.565-0.389,1.111-0.612,1.64c-0.226,0.535-0.439,1.042-0.584,1.564c-0.219,0.793-0.572,1.519-0.915,2.22
	c-0.399,0.817-0.775,1.588-0.938,2.434c-0.091,0.465-0.308,0.852-0.626,1.12c-0.956,0.803-1.386,1.888-1.71,2.941
	c-0.327,1.067-0.965,1.95-1.583,2.805c-0.731,1.012-1.364,2.034-1.976,3.023l-0.264,0.428c-0.233,0.384-0.474,0.782-0.825,1.107
	c-1.185,1.096-2,2.319-2.496,3.739c-0.176,0.5-0.522,0.912-0.977,1.161c-1.363,0.743-2.479,1.638-3.412,2.738
	c-0.719,0.848-1.537,1.601-2.327,2.33c-0.893,0.822-1.816,1.671-2.568,2.639c-0.745,0.96-1.707,1.74-2.639,2.496
	c-1.493,1.21-3.101,2.446-4.885,3.398c-1.864,0.993-3.797,1.952-5.912,2.93c-1.304,0.604-2.648,1.153-3.949,1.685
	c-1.359,0.556-2.764,1.131-4.11,1.762c-1.848,0.867-3.732,1.183-6.002,1.504c-0.872,0.123-1.585,0.264-2.145,0.84
	c-0.82,0.842-1.798,0.931-2.763,0.921c-1.569-0.039-3.172,0.491-4.694,0.998c-0.655,0.217-1.305,0.448-1.956,0.679
	c-1.725,0.612-3.508,1.245-5.363,1.612c-0.413,0.081-0.74,0.18-0.999,0.397c-1.811,1.513-3.949,1.66-6.016,1.802l-0.439,0.031
	c-1.117,0.08-2.183-0.023-3.213-0.122c-0.552-0.053-1.102-0.107-1.659-0.131c-0.534-0.024-1.068-0.058-1.603-0.092
	c-1.442-0.093-2.929-0.189-4.374-0.052l-0.131,0.005c-2.963,0.588-5.788-0.008-8.523-0.584c-0.542-0.115-1.084-0.23-1.628-0.334
	c-0.388-0.076-0.764-0.101-1.095-0.068c-0.86,0.077-1.668-0.063-2.451-0.2c-0.472-0.083-0.918-0.161-1.368-0.192
	c-0.508-0.037-0.888-0.31-1.194-0.53l-0.097-0.07c-0.318-0.226-0.653-0.343-1.052-0.356c0.842,1.136,1.774,2.087,2.831,2.894
	c3.646,2.78,7.838,5.352,12.815,7.861c3.035,1.53,6.153,2.761,9.345,3.992c1.144,0.441,2.284,0.892,3.424,1.344
	c2.026,0.802,4.12,1.632,6.201,2.382c0.586,0.212,1.264,0.371,2.015,0.474c2.298,0.315,4.541,0.937,6.711,1.538
	c0.886,0.245,1.773,0.492,2.664,0.718c0.705,0.179,1.355,0.469,1.984,0.749c0.557,0.249,1.082,0.483,1.637,0.642
	c0.635,0.183,1.277,0.341,1.919,0.498c1.1,0.271,2.237,0.551,3.338,0.955c0.263,0.097,0.533,0.181,0.802,0.265
	c0.566,0.177,1.152,0.358,1.712,0.662c0.682,0.369,1.455,0.483,2.275,0.603l0.16,0.024c0.913,0.135,1.759,0.455,2.577,0.766
	c0.85,0.322,1.654,0.627,2.501,0.723c1.167,0.133,2.283,0.449,3.362,0.756c0.892,0.253,1.814,0.514,2.734,0.659
	c1.279,0.202,2.601,0.637,4.286,1.411c1.161,0.533,2.339,1.029,3.518,1.525c1.124,0.474,2.249,0.947,3.36,1.453
	c0.848,0.387,1.703,0.758,2.557,1.131c2.143,0.934,4.357,1.899,6.444,3.08c0.272,0.154,0.56,0.276,0.849,0.398
	c0.322,0.137,0.644,0.274,0.946,0.445c0.264,0.148,0.533,0.291,0.801,0.434c1.06,0.565,2.157,1.148,3.059,2.118
	c0.694,0.745,1.54,1.365,2.598,2.067c1.424,0.945,2.229,2.418,2.269,4.146c0.032,1.434-0.556,2.784-1.747,4.013
	c-1.592,1.64-3.568,2.67-5.478,3.667c-0.493,0.257-0.986,0.514-1.472,0.781c-0.452,0.248-0.921,0.465-1.39,0.68
	c-0.389,0.179-0.776,0.357-1.153,0.556c-1.581,0.835-2.996,1.193-4.463,1.128c-0.76-0.031-1.63,0.213-2.247,0.647
	c-1.194,0.839-2.507,1.075-3.776,1.304c-0.453,0.081-0.907,0.162-1.353,0.273c-1.141,0.283-2.283,0.224-3.385,0.165
	c-0.398-0.022-0.797-0.043-1.195-0.047c-1.896-0.021-3.869,0.018-5.611,0.051c-0.764,0.015-1.528,0.044-2.294,0.072
	c-1.089,0.042-2.197,0.084-3.307,0.084c-1.085,0-2.173-0.041-3.248-0.16c-0.788-0.088-1.6-0.126-2.387-0.163
	c-1.23-0.056-2.501-0.116-3.754-0.366c-0.415-0.083-0.812-0.086-1.122-0.009c-1.409,0.346-2.669-0.015-3.891-0.366l-0.373-0.107
	c-0.429-0.121-0.857-0.249-1.283-0.376c-1.88-0.562-3.657-1.105-5.564-1.052c-0.173,0.009-0.323,0.02-0.487-0.032
	c-0.804-0.251-1.634-0.379-2.512-0.515c-1.262-0.196-2.567-0.399-3.813-0.995c-1.475-0.704-3.127-1.103-5.051-1.221
	c-3.573-0.217-6.23-0.739-8.617-1.689c-0.64-0.256-1.253-0.574-1.845-0.881c-0.679-0.352-1.319-0.684-2.006-0.935
	c-0.467-0.171-0.932-0.347-1.397-0.522c-1.797-0.68-3.655-1.382-5.553-1.77c-1.679-0.344-3.137-1.051-4.219-1.629
	c-1.478-0.79-3.261-1.652-5.279-2.058c-1.707-0.344-2.934-0.815-3.981-1.527c-0.158-0.109-0.301-0.209-0.359-0.223
	c-1.526,0.039-2.753-0.767-3.821-1.483c-0.872-0.584-1.745-0.943-2.665-1.099c-0.322-0.054-0.775-0.179-1.117-0.461
	c-0.923-0.769-2.03-1.15-3.2-1.554l-0.575-0.201c-0.938-0.333-1.704-0.923-2.445-1.495c-0.498-0.384-0.968-0.747-1.482-1.032
	c-0.277-0.154-0.541-0.328-0.804-0.503c-0.284-0.189-0.567-0.377-0.868-0.532c-0.931-0.477-1.566-1.034-2.002-1.752
	c-0.209-0.345-0.556-0.593-0.986-0.884c-1.728-1.168-3.684-2.586-5.052-4.637c-0.231-0.345-0.388-0.561-0.626-0.642
	c-1.582-0.544-2.406-1.84-3.004-3.036c-0.618-1.235-1.352-2.511-2.309-4.019c-1.081-1.7-2.078-3.392-2.392-5.39
	c-0.059-0.376-0.193-0.734-0.399-1.064c-1.098-1.768-1.733-3.72-2.346-5.609c-0.223-0.684-0.445-1.368-0.688-2.043
	c-0.045-0.124-0.06-0.24-0.072-0.333c-0.827-1.359-0.816-2.727-0.807-4.049c0.004-0.449,0.007-0.9-0.025-1.347
	c-0.05-0.686-0.048-1.375-0.046-2.041c0.003-0.967,0.006-1.881-0.136-2.797l-0.02-0.132c-0.04-0.27-0.074-0.471-0.148-0.629
	c-0.029,0.018-0.056,0.042-0.081,0.073c-0.449,0.555-0.942,1.07-1.418,1.569c-0.635,0.664-1.234,1.292-1.749,2.01
	c-1.352,1.887-2.86,3.47-4.612,4.843c-1.772,1.389-3.604,2.825-4.931,4.696c-0.397,0.561-0.972,0.832-1.478,1.071
	c-1.204,0.568-2.065,1.214-2.706,2.03c-0.537,0.681-1.269,1.023-1.915,1.324c-0.367,0.17-0.714,0.332-1.015,0.543
	c-1.551,1.083-3.242,1.941-4.878,2.77c-0.522,0.265-1.043,0.53-1.561,0.801c-0.141,0.075-0.301,0.163-0.402,0.259
	c-1.656,1.593-3.689,2.533-5.655,3.442l-0.643,0.299c-1.532,0.716-3.017,1.639-4.453,2.532l-0.464,0.288
	c-1.373,0.85-2.713,1.464-4.099,1.877c-0.88,0.261-1.747,0.561-2.614,0.86c-0.741,0.256-1.481,0.512-2.227,0.744
	c-0.768,0.238-1.565,0.402-2.335,0.559c-0.833,0.17-1.694,0.347-2.494,0.616c-2.717,0.916-5.549,1.383-8.288,1.835
	c-1.616,0.266-3.286,0.541-4.902,0.905c-0.479,0.109-0.948,0.249-1.417,0.389c-0.849,0.253-1.726,0.515-2.676,0.599
	c-0.476,0.042-0.93-0.007-1.37-0.052c-0.602-0.064-1.172-0.123-1.699,0.067c-0.139,0.05-0.266,0.054-0.359,0.059
	c-1.38,0.583-2.811,0.763-4.195,0.935c-0.615,0.077-1.23,0.154-1.838,0.267c-1.05,0.197-2.121,0.281-3.155,0.362
	c-0.88,0.068-1.791,0.139-2.668,0.28c-1.301,0.209-2.625,0.326-3.905,0.438c-1.302,0.115-2.648,0.233-3.952,0.448
	c-1.2,0.197-2.423,0.325-3.606,0.448c-1.048,0.11-2.131,0.221-3.182,0.382c-0.329,0.05-0.662,0.077-0.996,0.104
	c-0.81,0.066-1.575,0.129-2.244,0.539c-0.514,0.315-1.081,0.196-1.535,0.1c-0.092-0.019-0.183-0.039-0.272-0.053
	c-1.039-0.173-1.903-0.261-2.743,0.287c-1.055,0.693-2.148,0.377-2.877,0.08c-2.028-0.826-3.629-1.104-5.189-0.914
	c-0.429,0.053-0.894,0.03-1.419-0.075c-1.655-0.322-3.277-0.422-4.818-0.303c-0.733,0.064-1.381-0.123-2.009-0.3l-0.32-0.088
	c-1.831-0.49-3.256-0.77-4.619-0.909c-1.235-0.124-2.25-0.396-3.102-0.827c-1.12-0.569-2.31-0.888-3.57-1.225
	c-0.896-0.24-1.822-0.489-2.717-0.836c-0.578-0.224-1.166-0.416-1.756-0.608c-1.481-0.485-3.013-0.986-4.369-1.98
	c-0.54-0.395-1.237-0.644-1.912-0.884l-0.525-0.19c-1.13-0.422-2.126-1.047-3.091-1.651c-0.606-0.38-1.234-0.773-1.872-1.099
	c-0.959-0.489-2.057-1.094-2.953-2.081c-1.414-1.554-1.396-3.654,0.047-5.348c2.483-2.914,5.799-4.571,9.005-6.175l0.364-0.182
	c4.092-2.049,7.918-3.6,11.698-4.744l1.13-0.345c2.895-0.887,5.889-1.804,9.005-2.097c0.217-0.021,0.464-0.049,0.642-0.128
	c3.307-1.474,6.844-1.618,10.263-1.757l0.267-0.011c2.725-0.111,5.301-0.74,7.463-1.34c1.233-0.343,2.355-0.499,3.453-0.481
	c0.857,0.018,1.742-0.046,2.598-0.102c1.036-0.07,2.106-0.143,3.169-0.087c1.126,0.054,2.283-0.09,3.399-0.232
	c1.229-0.157,2.499-0.321,3.775-0.218c2.975,0.228,5.786-0.27,8.761-0.801l2.493-0.44c1.54-0.274,3.133-0.556,4.716-0.767
	c0.883-0.117,1.713-0.412,2.487-0.703c1.429-0.538,2.917-0.892,4.357-1.236c1.129-0.27,2.297-0.547,3.409-0.91
	c1.545-0.502,3.13-0.955,4.663-1.393c2.603-0.744,5.294-1.512,7.829-2.54c3.297-1.335,6.471-3.293,9.701-5.985
	c0.157-0.132,0.28-0.237,0.364-0.347c-0.253-0.151-0.581-0.232-0.991-0.245c-1.442-0.049-2.839-0.351-4.191-0.644
	c-0.996-0.215-2.026-0.438-3.043-0.548c-0.323-0.036-0.51-0.055-0.698,0.002c-0.64,0.198-1.19,0.187-1.633-0.032
	c-0.913-0.453-1.908-0.563-2.962-0.679c-0.496-0.055-0.991-0.11-1.478-0.201c-1.737-0.322-3.383-0.91-4.975-1.478l-0.802-0.291
	c-0.47-0.175-0.914-0.343-1.374-0.408c-1.699-0.243-3.259-0.886-4.767-1.507c-0.583-0.24-1.167-0.481-1.759-0.698
	c-1.261-0.464-2.452-0.9-3.754-0.917c-0.659-0.008-1.315-0.203-1.949-0.577c-0.884-0.521-1.738-1.103-2.565-1.665
	c-0.458-0.312-0.917-0.625-1.38-0.927c-1.864-1.215-3.853-2.503-5.88-3.729c-1.044-0.63-1.881-1.289-2.637-2.073
	c-0.644-0.668-1.383-1.226-2.166-1.818c-0.512-0.387-1.024-0.774-1.51-1.194c-1.351-1.165-2.568-2.624-3.832-4.593
	c-0.485-0.756-1.036-1.423-1.619-2.13l-0.375-0.456c-0.699-0.856-2.153-2.636-1.304-4.537c1.615-3.612,4.096-5.264,7.171-4.782
	c3.88,0.611,7.755,1.242,11.629,1.886c0.703,0.117,1.407,0.222,2.111,0.327c1.136,0.17,2.31,0.345,3.465,0.57
	c0.747,0.146,1.463,0.379,2.154,0.605c0.735,0.24,1.429,0.467,2.16,0.598c2.4,0.43,4.828,0.915,7.177,1.383
	c1.84,0.367,3.681,0.734,5.525,1.08c1.996,0.374,4.072,0.443,6.079,0.51c0.795,0.027,1.59,0.053,2.384,0.098
	c0.681,0.038,1.386,0.021,2.067,0.004c1.317-0.031,2.68-0.065,4.048,0.276c0.418,0.104,0.92,0.037,1.451-0.034
	c0.299-0.04,0.599-0.079,0.893-0.093c1.013-0.046,2.038-0.035,3.026-0.027c1.572,0.014,3.197,0.029,4.774-0.181
	c0.547-0.073,1.095-0.139,1.643-0.205c2.182-0.263,4.438-0.535,6.55-1.255c1.781-0.607,3.456-1.501,5-2.376
	c0.96-0.544,1.563-1.472,2.202-2.455c0.151-0.233,0.302-0.464,0.457-0.689c1.792-2.612,3.932-5.604,6.661-8.06
	c0.777-0.699,1.53-1.421,2.284-2.144c1.015-0.973,2.065-1.979,3.161-2.915c2.527-2.155,5.481-4.009,9.298-5.834
	c1.086-0.519,2.218-0.911,3.312-1.291l0.54-0.188c0.449-0.158,0.774-0.409,1.121-0.867c3.345-4.42,5.92-9.371,8.071-13.665
	c1.64-3.272,2.952-6.747,3.899-10.327c0.266-1.01,0.627-2.002,0.976-2.96l0.337-0.939c0.231-0.652,0.709-1.159,1.465-1.549
	l0.618-0.315c1.518-0.769,2.952-1.496,3.971-2.838c0.583-0.768,1.921-0.701,2.827-0.2c0.705,0.391,1.3,0.901,1.874,1.394
	c0.44,0.377,0.856,0.734,1.313,1.036c0.492,0.326,0.98,0.659,1.469,0.991c1.816,1.236,3.693,2.514,5.745,3.402
	c0.957,0.414,1.486,0.919,1.615,1.543c0.176,0.844-0.43,1.611-0.902,2.115c-2.026,2.167-4.004,4.447-5.918,6.652
	c-0.793,0.914-1.586,1.827-2.384,2.735c-0.486,0.552-0.931,1.172-1.361,1.772l-0.438,0.606c-0.582,0.792-1.178,1.573-1.775,2.354
	c-1.486,1.943-3.021,3.952-4.267,6.096l-0.67,1.149c-0.845,1.452-1.691,2.904-2.527,4.362c-0.42,0.735-0.162,1.537,0.111,2.385
	c0.303,0.943,0.736,1.809,1.196,2.726l0.228,0.455c1.644,3.315,3.325,6.869,4.224,10.662c0.103,0.434,0.211,0.868,0.319,1.303
	c0.494,1.988,1.006,4.045,1.044,6.177c0.004,0.272,0.125,0.537,0.415,0.914c1.384,1.801,2.972,3.368,4.719,4.658
	c0.374,0.277,0.844,0.459,1.523,0.592c1.33,0.259,2.88,0.644,4.291,1.537c0.356,0.225,0.799,0.324,1.268,0.43l0.141,0.032
	c0.872,0.198,1.73,0.469,2.559,0.73c1.302,0.41,2.53,0.798,3.836,0.943l0.161,0.018c1.694,0.188,3.446,0.383,5.162,0.719
	c0.267,0.052,0.584-0.01,0.915-0.077c0.372-0.076,0.79-0.161,1.239-0.092c1.801,0.281,3.568,0.114,5.437-0.062
	c0.879-0.083,1.787-0.168,2.689-0.201c3.247-0.118,6.376-0.633,9.301-1.529c0.85-0.26,1.713-0.496,2.577-0.732
	c0.908-0.248,1.817-0.495,2.713-0.774c0.769-0.239,1.54-0.55,2.287-0.851c0.777-0.314,1.581-0.638,2.403-0.892
	c3.01-0.927,6.009-2.059,8.91-3.154c1.697-0.641,3.394-1.282,5.104-1.888c1.707-0.605,3.327-1.367,5.117-2.228
	c2.263-1.087,4.732-2.1,7.773-3.186c1-0.358,1.928-0.815,2.911-1.3l0.739-0.362c0.978-0.473,2.006-0.816,2.999-1.148
	c0.828-0.276,1.685-0.563,2.489-0.918c3.094-1.37,6.381-2.325,9.56-3.25c1.637-0.476,3.275-0.502,4.859-0.529l0.732-0.014
	c0.429-0.009,0.857-0.049,1.285-0.087c0.897-0.081,1.827-0.165,2.78,0.004C348.883,164.65,350.311,166.788,349.942,169.039z
	 M169.207,199.408c1.143,0.277,2.104,0.043,3.026-0.736c1.098-0.928,1.975-2.026,2.904-3.188c0.794-0.996,1.616-2.025,2.583-2.924
	c0.229-0.213,0.257-0.672,0.284-1.116c0.017-0.274-0.013-0.355-0.025-0.368c-0.013-0.01-0.091-0.04-0.266-0.026l-0.863,0.053
	c-0.801,0.046-1.63,0.093-2.423,0.21c-1.774,0.263-3.584,0.212-5.376-0.149l-0.179-0.032c-0.436-0.074-1.593-0.272-1.446-1.447
	c0.144-1.148,1.437-1.061,1.863-1.036c1.462,0.099,2.866-0.221,4.348-0.555c1.204-0.272,2.449-0.553,3.732-0.593
	c0.049-0.001,0.176-0.01,0.287-0.063c-0.047-0.632,0.014-1.13,0.358-1.486c0.402-0.416,1.024-0.46,1.84-0.398
	c0.383,0.03,0.451-0.037,0.453-0.04c0.755-0.793,1.306-1.729,1.848-2.727c-0.691,0.093-1.378,0.096-2.048,0.091
	c-0.801-0.004-1.554-0.003-2.296,0.147c-0.703,0.141-1.75,0.251-2.727-0.434c-0.157-0.11-0.386-0.125-0.811-0.053l-0.671,0.12
	c-1.401,0.253-2.85,0.514-4.372,0.224l-0.343-0.073c-0.387-0.085-0.75-0.167-1.114-0.104c-1.917,0.325-3.921,0.348-5.795,0.067
	c-0.712-0.107-1.43-0.055-2.187,0c-0.846,0.062-1.714,0.126-2.642-0.024c0.015,0.298-0.03,0.596-0.189,0.858
	c-0.202,0.333-0.554,0.548-1.045,0.641c-1.116,0.21-2.147-0.362-2.463-1.361c-0.052-0.163-0.067-0.213-0.362-0.224
	c-1.28-0.05-2.536-0.28-3.751-0.502c-0.589-0.108-1.178-0.216-1.771-0.303c-1.165-0.172-2.297-0.489-3.392-0.796
	c-0.67-0.187-1.339-0.375-2.017-0.53c-1.282-0.293-2.606-0.529-3.886-0.757c-2.302-0.41-4.682-0.834-6.968-1.613
	c-1.013-0.346-2.107-0.474-2.946-0.547l-0.18-0.016c-1.397-0.121-2.842-0.246-4.24-0.557c-0.666-0.149-1.336-0.288-2.005-0.427
	c-2.104-0.438-4.28-0.891-6.364-1.64c-0.316-0.114-0.682-0.114-1.07-0.115h-0.015c-0.544,0-0.612,0.075-0.659,0.179
	c-0.03,0.067-0.002,0.138,0.252,0.408c0.355,0.378,0.685,0.74,1.015,1.102c0.914,1.004,1.859,2.041,2.893,2.912l1.284,1.091
	c1.645,1.404,3.347,2.856,5.153,4.13c1.01,0.712,2.088,1.37,3.13,2.005c1.323,0.806,2.69,1.641,3.96,2.609
	c0.8,0.61,1.742,1.004,2.741,1.422c0.583,0.243,1.186,0.496,1.761,0.796c3.102,1.618,6.454,2.809,9.695,3.962
	c0.812,0.288,1.624,0.577,2.434,0.872c1.199,0.438,2.457,0.563,3.788,0.696c0.89,0.088,1.81,0.18,2.71,0.373
	c0.661,0.142,1.338,0.143,2.054,0.145c0.865,0.001,1.76,0.002,2.658,0.265c0.599,0.174,1.222,0.286,1.972,0.401
	c0.887,0.135,1.778,0.241,2.669,0.347C165.71,198.779,167.479,198.99,169.207,199.408z M244.279,228.15
	c-0.41-0.405-0.792-0.839-1.17-1.268c-0.092-0.104-0.183-0.207-0.274-0.31c-0.032,0.019-0.053,0.034-0.065,0.045
	c0.016,0.013,0.049,0.091,0.154,0.221c0.256,0.325,0.514,0.65,0.779,0.968c0.266,0.308,0.802,0.927,0.229,1.593
	c-0.557,0.644-1.233,0.237-1.486,0.086l-0.114-0.066c-0.294-0.16-0.528-0.384-0.734-0.583c-1.366-1.307-2.355-2.426-3.136-3.548
	c-0.202-0.29-0.397-0.586-0.592-0.882c-0.426-0.647-0.828-1.257-1.302-1.815c-1.987-2.346-3.409-5.204-4.345-8.739
	c-0.353-1.332-0.49-2.694-0.623-4.011c-0.118-1.168-0.24-2.376-0.513-3.525c-0.118-0.496-0.052-1.01,0.176-1.375
	c0.185-0.297,0.467-0.494,0.817-0.574c0.257-0.057,0.261-0.059,0.207-0.518c-0.162-1.341-0.113-2.621-0.037-4.036
	c0.084-1.553,0.085-3.141,0.087-4.678c0.001-1.653,0.003-3.361,0.106-5.05c0.111-1.828,0.037-3.706-0.036-5.524
	c-0.037-0.921-0.073-1.842-0.088-2.763c-0.037-2.264-0.253-4.504-0.645-6.658c-0.682-3.768-1.431-7.15-2.291-10.337
	c-0.239-0.887-0.571-1.772-0.893-2.628c-0.476-1.267-0.968-2.577-1.195-3.974l-0.009-0.066c-0.518,0.149-1.019,0.191-1.41-0.1
	c-0.511-0.379-0.542-1.124-0.499-1.873c0.037-0.646,0.24-1.213,0.435-1.683l0.102-0.25c0.015-0.165,0.032-0.331,0.044-0.497
	c0.029-0.393,0.001-0.788-0.025-1.18c-0.023-0.345-0.059-0.688-0.098-1.031c-0.052-0.214-0.09-0.431-0.155-0.643
	c-0.205-0.659-0.469-1.322-0.865-1.892c-0.197-0.284-0.439-0.542-0.707-0.76c-0.148-0.121-0.342-0.277-0.543-0.374
	c-0.097-0.001-0.196,0.002-0.283,0.019c-0.023,0.008-0.046,0.018-0.068,0.022c-0.097,0.021-0.192,0.046-0.287,0.074
	c-0.009,0.003-0.14,0.046-0.236,0.08c-0.022,0.011-0.038,0.02-0.094,0.049c-0.085,0.044-0.168,0.091-0.249,0.142
	c-0.137,0.192-0.269,0.386-0.409,0.576c-0.459,0.62-0.897,1.255-1.329,1.882l-0.356,0.513c0.006,0.005,0.014,0.009,0.021,0.014
	c0.46,0.295,0.987,0.711,0.974,1.308c-0.013,0.59-0.54,0.972-0.998,1.239l-0.309,0.181c-0.681,0.399-1.385,0.811-2.126,1.144
	c-2.212,0.993-4.376,2.181-6.47,3.33l-1.364,0.747c-3.566,1.939-6.607,4.681-9.548,7.331l-0.497,0.448
	c-0.333,0.3-0.647,0.622-0.965,0.939c0.971-0.831,1.611-0.416,1.908-0.09c0.29,0.32,0.414,0.736,0.341,1.142
	c-0.075,0.411-0.343,0.771-0.718,0.964c-0.88,0.453-1.346,1.26-1.84,2.114c-0.215,0.371-0.43,0.742-0.677,1.089
	c-0.29,0.407-0.503,0.862-0.729,1.344c-0.128,0.275-0.257,0.549-0.4,0.816c-0.486,0.906-1.212,1.003-1.742,0.923
	c-1.03-0.154-0.97-1.115-0.942-1.576l0.01-0.157l0.092-0.126c0.321-0.437,0.476-1.028,0.608-1.674
	c-0.298,0.388-0.594,0.775-0.888,1.161l-0.128,0.168c-2.787,3.657-5.085,7.564-7.371,11.581c1.013,1.066,0.321,2.199,0.078,2.595
	c-0.483,0.79-0.313,0.901-0.213,0.968c1.12,0.737,0.691,1.675,0.507,2.075c-0.013,0.029-0.026,0.057-0.039,0.085
	c0.25-0.172,0.571-0.26,0.983-0.098c0.834,0.326,0.663,1.112,0.599,1.408c-0.013,0.056-0.025,0.112-0.032,0.165
	c-0.025,0.184-0.091,0.343-0.145,0.471c-0.025,0.061-0.052,0.12-0.068,0.183c-0.164,0.622-0.395,1.201-0.651,1.791
	c0.232-0.113,0.527-0.148,0.876,0.049c0.581,0.328,0.708,0.9,0.38,1.7c-0.205,0.5-0.438,0.988-0.672,1.476l-0.274,0.571
	c-0.033,0.066-0.084,0.166-0.088,0.202c0.859,0.857,0.404,1.864,0.232,2.243c-1.404,3.107-3.107,5.525-5.207,7.393
	c-0.067,0.059-0.12,0.133-0.174,0.205c-0.199,0.26-0.5,0.653-1.11,0.676c-0.61-0.007-0.89-0.357-1.013-0.663
	c-0.096,0.079-0.188,0.166-0.285,0.258l-0.156,0.146c-0.062,0.056-0.119,0.118-0.176,0.181c-0.248,0.267-0.587,0.634-1.182,0.645
	c-0.613,0.015-0.857-0.47-0.939-0.739c-0.233,0.133-0.447,0.344-0.684,0.577c-0.466,0.461-1.047,1.033-1.986,1.09l-0.57,0.034
	l0.003-0.57c0.001-0.184,0.022-0.353,0.06-0.51c-0.382,0.308-0.797,0.585-1.285,0.775l-0.437,0.17l-0.226-0.411
	c-0.47-0.856-0.029-1.45,0.207-1.77c0.269-0.368,0.506-0.672,0.744-0.976c0.214-0.274,0.427-0.547,0.633-0.827l0.071-0.094
	c0.054-0.071,0.145-0.19,0.158-0.237c-0.193-0.22-0.298-0.437-0.343-0.645c-1.797,1.942-3.744,3.501-5.337,4.704
	c-0.588,0.444-1.184,0.876-1.781,1.309c-0.965,0.698-1.962,1.421-2.893,2.179c-2.457,2.002-5.177,3.982-8.42,4.915
	c-1.29,0.371-2.567,0.788-3.845,1.203c-3.186,1.038-6.48,2.111-9.941,2.456c-1.128,0.114-2.183,0.53-3.3,0.969
	c-0.541,0.213-1.082,0.426-1.63,0.604c-1.743,0.564-3.539,0.979-5.276,1.381c-1.759,0.406-3.577,0.827-5.312,1.398
	c-1.537,0.506-3.307,0.758-5.412,0.771c-1.294,0.008-2.615,0.088-3.893,0.164c-1.934,0.115-3.931,0.235-5.921,0.117
	c-0.885-0.055-1.77,0.047-2.703,0.153c-0.46,0.052-0.92,0.104-1.379,0.138c-0.514,0.037-1.029,0.053-1.545,0.069
	c-1.015,0.032-1.974,0.063-2.94,0.245c-0.644,0.122-1.3,0.211-1.955,0.301c-0.924,0.125-1.797,0.243-2.637,0.451
	c-1.172,0.289-2.331,0.337-3.451,0.383c-0.794,0.032-1.545,0.064-2.298,0.174c-0.649,0.095-1.303,0.117-1.935,0.139
	c-1.032,0.034-2.006,0.068-2.928,0.397c-1.597,0.57-3.247,0.802-5.038,0.705c-1.135-0.06-2.232,0.144-3.066,0.329
	c-6.378,1.42-12.406,3.564-17.918,6.374c-1.517,0.774-2.971,1.735-4.377,2.664c-0.477,0.315-0.954,0.631-1.435,0.94
	c-0.306,0.197-0.324,0.302-0.324,0.307c-0.001,0.004-0.013,0.114,0.237,0.4c0.526,0.603,0.952,0.936,1.425,1.115
	c0.855,0.325,1.682,0.722,2.482,1.106c1.014,0.487,2.062,0.989,3.142,1.328c1.622,0.509,3.14,1.213,4.41,1.834
	c0.983,0.481,2.142,0.811,3.648,1.039c1.997,0.304,4.053,0.465,6.042,0.621c2.035,0.16,4.14,0.326,6.205,0.644l0.99,0.154
	c2.33,0.365,4.74,0.741,7.127,0.859c0.492,0.024,0.982,0.074,1.473,0.124c0.938,0.097,1.823,0.187,2.719,0.099
	c0.601-0.061,1.203-0.105,1.806-0.149c0.904-0.067,1.839-0.136,2.742-0.26c0.933-0.13,1.859-0.132,2.771-0.126
	c0.883,0.002,1.722,0.003,2.557-0.109c3.136-0.417,6.326-0.524,9.411-0.629c1.223-0.041,2.447-0.083,3.669-0.142
	c1.328-0.066,2.63-0.147,3.952-0.417c1.85-0.377,3.738-0.689,5.565-0.99c2.049-0.338,4.168-0.688,6.227-1.131
	c0.735-0.158,1.463-0.347,2.191-0.535l1.034-0.265c1.997-0.499,4.051-0.786,6.037-1.063c1.607-0.224,3.268-0.455,4.876-0.798
	c0.846-0.181,1.697-0.336,2.545-0.491c2.729-0.5,5.306-0.973,7.757-2.227c1.583-0.811,3.266-1.459,4.893-2.086
	c0.893-0.344,1.786-0.687,2.666-1.059c1.02-0.43,2.224-0.946,3.417-1.513c0.943-0.448,1.867-0.988,2.759-1.512
	c0.91-0.533,1.852-1.083,2.834-1.55c3.863-1.832,7.586-4.148,11.069-6.882c3.321-2.606,6.493-5.318,9.429-8.06
	c4.765-4.45,8.221-8.965,10.568-13.802c0.239-0.493,0.482-0.984,0.725-1.476c0.846-1.711,1.721-3.481,2.414-5.289
	c0.745-1.94,1.308-3.979,1.853-5.952l0.076-0.273c0.185-0.668,0.38-1.335,0.576-2.001c0.574-1.955,1.166-3.975,1.465-6.01
	c0.083-0.559,0.239-1.089,0.392-1.602c0.209-0.709,0.407-1.378,0.405-2.079l-0.001-0.191c-0.005-0.811-0.011-1.65,0.352-2.481
	c0.154-0.352,0.492-1.128,1.277-1.128c0.089,0,0.183,0.01,0.284,0.032c0.369,0.08,0.659,0.278,0.84,0.574
	c0.208,0.342,0.252,0.791,0.123,1.267c-0.148,0.557-0.138,1.137-0.126,1.75c0.006,0.317,0.013,0.633-0.003,0.948l-0.008,0.221
	c-0.016,0.43-0.032,0.875-0.156,1.341c-0.34,1.291-0.657,2.587-0.976,3.883c-0.566,2.312-1.152,4.703-1.861,7.03
	c-0.298,0.982-0.375,1.97-0.228,2.937c0.278,1.829,0.542,4.235,0.11,6.631c-0.57,3.162-0.78,5.799-0.661,8.297
	c0.016,0.322,0.053,0.64,0.091,0.96c0.079,0.688,0.163,1.401,0.047,2.159c-0.286,1.891-0.304,3.842-0.053,5.798
	c0.346,2.704,0.907,5.586,1.82,9.344c1.342,5.529,3.299,9.708,6.16,13.151c2.705,3.254,5.004,5.578,7.456,7.536
	c0.593,0.473,1.243,0.847,1.931,1.242c0.647,0.373,1.316,0.757,1.934,1.233c4.859,3.742,10.59,6.065,16.058,8.019
	c1.602,0.572,3.279,1.048,4.9,1.507c1.737,0.492,3.534,1.002,5.263,1.636c2.614,0.959,5.325,1.778,7.946,2.57
	c1.319,0.399,2.64,0.797,3.954,1.215c3.882,1.233,8.168,2.303,13.492,3.371c0.906,0.182,1.817,0.343,2.728,0.505
	c1.913,0.337,3.889,0.687,5.791,1.233c3.317,0.951,6.786,1.302,10.143,1.641l1.193,0.122c1.141,0.118,2.279,0.252,3.419,0.385
	c1.312,0.155,2.624,0.308,3.938,0.438c3.736,0.368,7.526,0.366,11.587-0.01c3.462-0.32,6.284-0.762,8.879-1.39l0.777-0.187
	c1.825-0.44,3.713-0.894,5.52-1.499c0.866-0.289,1.716-0.687,2.539-1.073c0.64-0.3,1.282-0.6,1.941-0.86
	c0.45-0.177,0.733-0.382,0.777-0.564c0.046-0.188-0.12-0.514-0.454-0.894c-0.578-0.656-1.19-1.14-1.874-1.478
	c-1.132-0.56-2.189-1.259-3.21-1.934c-0.813-0.537-1.652-1.092-2.507-1.56c-2.437-1.334-5.128-2.615-8.725-4.151
	c-0.467-0.2-0.933-0.403-1.399-0.606c-2.279-0.993-4.636-2.021-7.108-2.599c-0.283-0.067-0.568-0.127-0.853-0.189
	c-0.941-0.202-1.915-0.41-2.853-0.809c-1.435-0.61-2.933-1.16-4.382-1.691l-0.567-0.208c-0.077-0.029-0.159-0.063-0.241-0.098
	c-0.437-0.183-0.465-0.153-0.523-0.083c-0.879,1.036-2.005,0.762-2.752,0.578l-0.949-0.234c-1.34-0.333-2.725-0.677-4.1-0.941
	c-1.011-0.195-1.925-0.485-2.794-0.886c-0.624-0.289-1.74-0.805-1.51-2.084c-0.085-0.046-0.186-0.08-0.321-0.122
	c-1.756-0.551-3.57-1.008-5.324-1.451c-1.628-0.411-3.311-0.835-4.95-1.333c-0.811-0.247-1.63-0.459-2.449-0.672
	c-1.246-0.323-2.534-0.657-3.784-1.113c-0.685-0.251-1.36-0.53-2.034-0.809c-0.978-0.404-1.989-0.821-3.009-1.136l-1.061-0.323
	c-1.331-0.402-2.707-0.818-4.037-1.318c-4.548-1.707-10.466-4.117-15.906-7.616l-0.81-0.52
	C249.657,232.454,246.739,230.585,244.279,228.15z M343.219,169.437c0.001-0.179-0.014-0.272-0.026-0.318
	c-0.026,0.012-0.102,0.02-0.229,0.054c-1.325,0.361-2.688,0.544-4.006,0.72l-0.372,0.05c-3.675,0.497-7.558,1.663-12.217,3.67
	c-1.665,0.716-3.311,1.475-4.957,2.233c-1.262,0.581-2.524,1.163-3.794,1.725c-0.983,0.436-2.006,0.799-2.996,1.151
	c-1.234,0.438-2.51,0.892-3.674,1.477c-3.352,1.685-6.965,3.311-11.368,5.117c-0.546,0.225-1.12,0.386-1.674,0.542
	c-0.927,0.261-1.803,0.507-2.477,1.012c-1.454,1.087-2.964,1.537-4.562,2.013l-0.942,0.282c-2.118,0.635-4.308,1.291-6.534,1.756
	c-1.643,0.344-3.322,0.552-4.946,0.754c-1.767,0.219-3.594,0.446-5.348,0.846c-0.719,0.165-1.404,0.127-2.066,0.092
	c-0.519-0.028-1.007-0.055-1.494,0.016c-1.895,0.274-3.607,0.478-5.36,0.218c-0.758-0.113-1.55-0.158-2.413-0.142
	c-2.269,0.061-4.485-0.315-6.64-0.665l-0.705-0.114c-2.314-0.37-4.554-1.067-6.628-1.765c-0.818-0.275-1.644-0.525-2.471-0.776
	c-1.985-0.602-4.039-1.224-5.956-2.192c-0.434-0.218-0.851-0.469-1.264-0.716l-0.188-0.111c-0.024,0.09-0.026,0.221-0.019,0.434
	l0.004,0.221c-0.007,2.712-0.004,5.424,0,8.135c0.001,0.56-0.005,1.12-0.013,1.681c-0.015,1.296-0.03,2.638,0.053,3.94
	c0.071,1.123,0.245,2.265,0.415,3.37c0.228,1.499,0.465,3.048,0.463,4.626c0,0.135-0.004,0.275-0.007,0.418
	c-0.02,0.716-0.041,1.456,0.423,1.867l0.182,0.162c0.979,0.872,1.903,1.697,3.161,1.894c1.722,0.273,3.349,0.861,4.922,1.431
	c0.608,0.22,1.217,0.441,1.831,0.644c2.342,0.772,5.15,1.543,8.09,1.463c0.389-0.011,0.778-0.016,1.168-0.016
	c1.54,0,3.081,0.077,4.582,0.154l0.549,0.028c1.832,0.092,3.701,0.041,5.506-0.01l1.523-0.039c1.461-0.034,2.972-0.069,4.441-0.271
	c0.758-0.103,1.525-0.181,2.292-0.257c1.29-0.128,2.624-0.261,3.873-0.53c0.928-0.201,1.865-0.365,2.803-0.529
	c1.957-0.342,3.979-0.696,5.867-1.396c0.65-0.241,1.324-0.402,1.975-0.557c0.844-0.202,1.641-0.392,2.374-0.74
	c1.697-0.805,3.492-1.32,5.23-1.818c0.688-0.197,1.376-0.395,2.058-0.609c2.96-0.934,5.096-1.923,6.927-3.207l0.265-0.186
	c2.784-1.952,5.662-3.972,8.611-5.795c6.88-4.251,12.719-9.999,17.355-17.085c0.937-1.433,1.851-2.92,2.735-4.358
	c1.397-2.272,2.84-4.621,4.425-6.839C342.551,171.788,343.21,170.703,343.219,169.437z M134.289,226.832
	c-0.486-0.972-1.399-0.732-1.976-0.581c-0.681,0.174-1.334,0.424-1.964,0.664c-0.829,0.317-1.612,0.615-2.447,0.756
	c-0.24,0.041-0.97,0.166-1.161,0.956l-0.032,0.132l0.036,0.132c0.126,0.471,0.485,0.791,0.938,0.835h0.002
	c0.573,0.053,1.156,0.093,1.745,0.093c1.35,0,2.723-0.207,4.042-0.922C134.381,228.402,134.688,227.63,134.289,226.832z
	 M228.702,244.29l-0.001-0.001c-0.793-0.481-1.432-1.168-2.051-1.832c-0.272-0.294-0.51-0.611-0.748-0.927
	c-0.262-0.348-0.525-0.694-0.823-1.013c-0.232-0.249-0.845-0.91-1.657-0.412c-0.604,0.371-0.691,0.949-0.257,1.718
	c1.031,1.823,2.529,3.212,3.995,4.444c0.245,0.205,0.587,0.35,0.938,0.397c0.076,0.01,0.15,0.016,0.223,0.016
	c0.612,0,1.072-0.358,1.2-0.956l0.011-0.117C229.525,244.793,228.927,244.428,228.702,244.29z M196.296,204.959
	c-1.113-0.636-1.923,0.496-2.345,1.087c-0.434,0.605-0.786,1.261-1.126,1.896c-0.137,0.256-0.275,0.513-0.417,0.765
	c-1.585,2.809-3.527,5.204-5.772,7.12c-1.222,1.043-2.562,2.008-3.857,2.941c-0.739,0.533-1.477,1.065-2.201,1.614l-1.274,0.97
	c-1.18,0.898-2.36,1.798-3.563,2.686c-1.381,1.018-2.808,2.069-3.924,3.476l-0.123,0.143c-0.257,0.291-0.686,0.778-0.493,1.577
	l0.109,0.451l0.462-0.044c0.69-0.067,1.077-0.45,1.359-0.73l0.198-0.193c0.435-0.424,0.847-0.825,1.311-1.182
	c1.239-0.952,2.63-1.736,3.974-2.494c0.435-0.244,0.869-0.49,1.301-0.742c4.595-2.675,8.379-5.715,11.567-9.293
	c2.037-2.288,3.48-4.919,4.947-7.73C196.701,206.763,197.337,205.559,196.296,204.959z M204.098,189.984
	c-0.383-0.182-0.699-0.131-0.899-0.056c-0.298,0.113-0.54,0.358-0.682,0.692c-0.325,0.767-0.774,1.461-1.249,2.195
	c-0.416,0.642-0.846,1.307-1.189,2.03c-0.27,0.567-0.52,1.143-0.771,1.72c-0.701,1.609-1.363,3.128-2.414,4.481
	c-0.821,1.056-1.057,2.112-0.704,3.139l0.123,0.356l0.377,0.004c0.006,0,0.012,0,0.018,0c0.589,0,0.929-0.336,1.156-0.559
	l0.105-0.102h0.001c1.476-1.356,2.499-2.683,3.222-4.175c1.141-2.358,2.2-4.949,3.36-8.225
	C204.649,191.213,204.95,190.393,204.098,189.984z M168.177,230.599c-0.571-0.374-1.085-0.14-1.393-0.003
	c-0.057,0.026-0.114,0.052-0.17,0.073c-1.784,0.649-3.466,1.542-5.093,2.405c-1.636,0.869-3.328,1.767-5.095,2.396
	c-0.521,0.185-1.038,0.382-1.555,0.579c-1.362,0.518-2.77,1.055-4.195,1.343l-1.143,0.225c-1.606,0.309-3.266,0.63-4.809,1.195
	c-1.407,0.516-2.867,0.964-4.28,1.397c-1.496,0.459-3.044,0.932-4.544,1.492c-0.802,0.3-1.643,0.56-2.455,0.812
	c-0.634,0.196-1.268,0.394-1.985,0.641c-0.511,0.173-1.283,0.437-1.476,1.34l-0.047,0.22l0.124,0.187
	c0.095,0.143,0.366,0.551,0.825,0.551c0.046,0,0.095-0.004,0.146-0.013c0.583-0.108,1.173-0.14,1.796-0.176
	c0.773-0.043,1.571-0.088,2.371-0.284c1.284-0.313,2.739-0.665,4.135-0.461c1.059,0.159,2.053,0.007,2.954-0.447
	c0.984-0.494,1.922-0.758,2.869-0.808c0.555-0.028,1.046-0.193,1.52-0.352c0.139-0.047,0.279-0.094,0.419-0.137
	c0.852-0.261,1.637-0.65,2.397-1.026c0.652-0.322,1.267-0.627,1.923-0.858c2.649-0.933,5.219-2.139,7.703-3.306
	c0.756-0.355,1.513-0.709,2.272-1.058c2.26-1.036,4.235-2.565,6.145-4.042l-0.327-0.423l0.422,0.35
	c0.318-0.243,0.85-0.651,0.785-1.411l-0.022-0.259L168.177,230.599z M219.95,217.157c-0.399-0.225-0.569-0.481-0.587-0.881
	c-0.014-0.311-0.079-0.637-0.195-0.972c-0.097-0.274-0.392-1.104-1.266-1.104c-0.003,0-0.006,0-0.01,0
	c-0.765,0.004-0.989,0.669-1.13,1.083c-0.581,1.631,0.715,4.541,2.347,5.278c0.144,0.065,0.482,0.217,0.848,0.217
	c0.194,0,0.398-0.043,0.585-0.164c0.519-0.336,0.578-1.044,0.576-1.572C221.076,218.237,220.651,217.549,219.95,217.157z
	 M217.217,175.951c1.048-0.132,1.077-1.145,1.092-1.633c0.004-0.111,0.006-0.219,0.018-0.319c0.061-0.536,0.112-1.073,0.162-1.61
	c0.126-1.33,0.257-2.705,0.539-4.02c0.117-0.551,0.212-1.105,0.306-1.66c0.188-1.104,0.366-2.147,0.717-3.165
	c0.665-1.932,1.489-3.845,2.31-5.753c0.414-0.959,0.251-1.622-0.485-1.969c-0.71-0.337-1.465-0.053-1.922,0.72
	c-0.208,0.35-0.435,0.692-0.66,1.034c-0.67,1.013-1.363,2.061-1.623,3.362c-0.033,0.168-0.135,0.313-0.264,0.498
	c-0.05,0.073-0.101,0.147-0.15,0.224c-1.113,1.753-1.735,3.411-1.904,5.068c-0.07,0.684-0.03,1.362,0.007,2.019
	c0.06,1.011,0.115,1.966-0.22,2.86l-0.054,0.143l0.03,0.15c0.048,0.237,0.09,0.471,0.132,0.701c0.101,0.566,0.197,1.101,0.361,1.639
	c0.026,0.084,0.048,0.175,0.071,0.27c0.117,0.483,0.354,1.456,1.334,1.455C217.077,175.964,217.145,175.96,217.217,175.951z
	 M223.558,237.174c0.29,0.186,0.6,0.284,0.881,0.284c0.126,0,0.247-0.02,0.357-0.061c0.27-0.1,0.465-0.312,0.551-0.601
	c0.072-0.244,0.184-0.482,0.294-0.72c0.248-0.54,0.529-1.152,0.438-1.847c-0.079-0.603-0.066-1.168,0.041-1.779
	c0.207-1.179-0.186-2.002-1.052-2.198c-0.708-0.161-1.25-0.578-1.825-1.019l-0.347-0.264c-0.506-0.377-0.991-0.443-1.444-0.198
	c-0.539,0.291-0.812,0.81-0.77,1.436c0.054,2.311,1.034,4.273,1.881,5.724l0.086,0.149
	C222.86,236.455,223.102,236.878,223.558,237.174z"/>
</svg>
