<svg width="400" height="400" viewBox="0 0 400 400" fill="none" xmlns="http://www.w3.org/2000/svg">
<path style="fill:#FF0000;" d="M266.708,202.753c2.742-0.889,4.041-2.891,5.755-4.348c3.661-3.112,7.284-6.264,11.053-9.254
	c4.438-3.521,7.123-8.272,8.62-13.68c2.318-8.374,4.44-16.805,6.868-25.146c1.841-6.326,4.356-12.35,9.333-17.022
	c7.107-6.672,13.312-5.859,18.336,2.444c2.786,4.605,3.662,9.254,1.57,14.497c-4.529,11.353-9.71,22.28-18.121,31.373
	c-3.188,3.446-5.181,7.491-5.423,12.207c-0.346,6.745-3.952,11.436-9.127,15.247c-0.967,0.712-1.876,1.504-2.794,2.28
	c-2.904,2.456-4.438,5.343-4.203,9.396c0.286,4.918,0.289,9.869-0.196,14.82c-0.385,3.926-1.194,7.65-3.067,11.105
	c-1.382,2.55-2.152,5.129-1.429,8.067c0.456,1.854-0.07,3.718-0.533,5.517c-2.195,8.54-4.369,17.064-5.687,25.817
	c-1.095,7.271-3.295,14.335-6.111,21.146c-3.126,7.559-9.088,12.663-16.15,16.05c-6.699,3.213-13.73,5.918-21.322,6.664
	c-3.408,0.335-6.625-0.644-9.933-0.906c-5.884-0.466-11.774-0.589-17.623-0.311c-11.717,0.556-21.67-3.842-31.047-10.136
	c-5.926-3.978-10.815-9.142-15.546-14.411c-5.633-6.272-11.486-12.281-18.165-17.459c-2.852-2.211-5.65-4.516-7.651-7.588
	c-1.919-2.945-1.895-4.258,0.465-6.768c2.655-2.825,5.119-5.678,6.979-9.183c1.492-2.811,4.329-4.691,7.392-5.923
	c1.626-0.654,3.185-1.377,4.239-2.882c4.327-6.178,10.003-11.112,15.218-16.47c4.201-4.316,4.896-7.529,2.432-13.038
	c-1.582-3.535-3.465-6.934-5.17-10.414c-3.339-6.816-1.848-13.548,0.471-20.23c0.574-1.654,2.164-2.37,3.613-2.996
	c3.558-1.537,7.178-2.913,11.102-3.271c1.592-0.145,3.236-0.281,4.734-0.784c3.419-1.148,6.7-1.456,10.127,0.077
	c1.768,0.791,3.693,0.239,5.458-0.513c2.827-1.205,5.619-2.498,8.477-3.625c4.985-1.965,10.038-2.594,15.196-0.54
	c2.98,1.186,6.022,2.215,9.002,3.399c4.009,1.593,8.118,2.485,12.458,2.683c4.899,0.223,8.204,3.626,11.516,6.711
	C260.649,197.983,263.363,200.714,266.708,202.753z M228.391,228.939c-3.243,1.036-5.12,3.552-7.32,5.649
	c-3.103,2.959-4.691,3.256-8.637,1.523c-3.541-1.555-7.086-3.107-10.584-4.755c-7.366-3.469-7.901-4.54-12.855,4.414
	c-1.769,3.197-1.395,4.72,1.645,6.724c3.362,2.217,6.428,4.746,9.297,7.563c2.113,2.074,4.508,4.062,7.517,4.309
	c3.832,0.315,7.052,1.192,8.778,5.005c0.144,0.317,0.582,0.607,0.94,0.705c3.007,0.826,4.405,3.181,5.797,5.698
	c1.212,2.191,2.722,2.421,4.521,0.585c5.532-5.646,8.509-13.618,5.635-21.664c-1.193-3.341-2.021-6.56-2.001-10.091
	C231.137,232.492,230.943,230.263,228.391,228.939z M103.081,128.503c3.319,4.537,7.207,8.576,11.195,12.52
	c1.711,1.692,3.582,3.331,4.362,5.67c1.947,5.841,5.621,10.557,9.448,15.223c2.199,2.68,4.328,5.452,5.357,8.862
	c1.208,4.006,3.18,7.662,5.496,11.094c2.694,3.991,5.587,7.846,10.275,9.825c4.231,1.786,8.083,0.529,10.013-3.637
	c1.061-2.291,1.588-4.691,1.159-7.378c-0.97-6.068-4.2-10.921-7.851-15.552c-3.379-4.287-7.697-7.947-9.743-13.126
	c-3.372-8.535-8.031-16.269-13.668-23.445c-2.186-2.782-3.786-5.753-4.491-9.264c-0.999-4.977-3.938-8.758-8.099-11.484
	c-3.911-2.561-8.312-3.313-12.54-1.102c-3.603,1.884-4.788,5.548-5.039,8.797C99.018,120.712,100.402,124.841,103.081,128.503z
	 M183.437,114.008c-2.748-2.454-3.774-5.299-3.162-8.945c1.319-7.862-0.288-15.095-4.977-21.617
	c-1.198-1.667-2.628-3.011-4.38-4.043c-3.913-2.304-8.007-1.483-10.444,2.377c-3.663,5.801-5.261,11.954-2.417,18.647
	c0.889,2.091,1.647,4.24,2.595,6.302c1.52,3.305,2.596,6.686,2.903,10.353c0.267,3.183,0.705,6.383,1.44,9.487
	c1.356,5.727,4.501,10.24,9.918,12.886c3.375,1.649,6.494,1.078,9.199-1.502c2.809-2.678,3.809-6.032,3.722-10.336
	C187.218,123.167,187.688,117.805,183.437,114.008z M208.992,127.595c0.713,1.746,1.523,3.401,2.909,4.738
	c3.325,3.209,6.969,3.385,10.236,0.137c4.902-4.874,8.125-10.557,7.735-17.79c-0.15-2.794-0.208-5.586-0.42-8.384
	c-0.33-4.355-1.112-8.781,0.108-13.139c0.725-2.592,0.888-5.269,1.001-7.911c0.195-4.563-1.247-8.717-4.166-12.243
	c-3.163-3.822-7.532-3.982-11.137-0.559c-4.891,4.644-6.867,13.629-3.995,19.609c1.42,2.957,1.311,5.518-0.146,8.362
	c-2.658,5.187-3.809,10.798-4.075,16.953C207.573,120.551,207.604,124.196,208.992,127.595z M272.72,89.743
	c-2.274-3.047-5.477-4.033-8.853-2.294c-5.815,2.996-9.499,7.593-9.879,14.441c-0.421,7.57-0.384,15.21-3.054,22.483
	c-0.366,0.996-0.56,2.063-0.765,3.11c-1.119,5.701,0.573,10.563,4.706,14.501c4.028,3.838,9.301,3.066,12.21-1.648
	c1.628-2.638,2.59-5.547,3.275-8.564c1.415-6.24,2.372-12.575,4.515-18.661c1.328-3.773,1.539-7.836,1.837-11.833
	C276.653,96.993,275.264,93.152,272.72,89.743z M113.754,256.237c-2.889-3.255-4.666-7.15-6.547-10.988
	c-1.294-2.64-2.554-5.298-3.741-7.987c-1.682-3.81-4.443-6.598-7.911-8.804c-7.29-4.637-16.478-4.544-22.134,0.278
	c-3.286,2.802-3.635,5.08-1.381,8.75c2.113,3.44,4.917,6.327,7.562,9.322c4.858,5.5,10.589,9.786,17.799,11.782
	c4.124,1.141,8.289,2.115,12.524,2.733c1.845,0.269,3.751,0.444,5.322-1.258C115.575,258.254,114.611,257.202,113.754,256.237z
	 M184.713,147.137c-3.975-2.696-7.261-1.531-9.545,2.728c-1.284,2.394-1.946,5.001-2.178,7.64c-0.686,7.781,2.197,14.106,8.5,18.689
	c3.146,2.288,6.777,2.504,10.202,0.617c3.082-1.698,4.253-4.609,4.018-8.094c-0.036-0.53-0.005-1.065-0.005-1.104
	C196.168,158.194,191.695,151.873,184.713,147.137z M212.437,169.791c2.886,3.838,6.041,4.042,9.438,0.651
	c2.533-2.528,4.122-5.618,4.728-9.114c0.929-5.356-0.444-10.111-4.422-13.904c-3.295-3.141-6.621-2.958-9.881,0.193
	c-2.902,2.805-3.151,6.325-2.894,10.236C209.04,162.024,209.725,166.185,212.437,169.791z M257.163,162.375
	c-1.918-1.106-3.72-0.469-5.978,1.769c-0.474,0.47-0.972,0.922-1.394,1.436c-3.136,3.813-3.289,9.886-0.354,13.326
	c1.841,2.158,3.417,2.389,5.445,0.517c3.258-3.006,5.068-6.799,5.61-11.171C260.933,165.394,259.348,163.635,257.163,162.375z"/>
</svg>
