<svg width="400" height="400" viewBox="0 0 400 400" fill="none" xmlns="http://www.w3.org/2000/svg">
<path fill-rule="evenodd" clip-rule="evenodd" d="M215.616 72.4792C210.747 76.8779 208.692 86.702 211.504 92.1402C212.894 94.8268 212.69 96.1744 209.584 104.83C203.141 122.78 211.917 141.391 222.303 131.802C228.608 125.981 229.65 122.493 229.423 107.958C229.314 101.005 229.493 92.1001 229.819 88.1689C230.995 73.9971 223.321 65.5186 215.616 72.4792ZM162.821 79.4202C158.352 82.1448 155.428 92.2802 157.362 98.338C157.865 99.9135 159.255 103.466 160.452 106.232C161.842 109.448 163.104 114.377 163.949 119.898C166.809 138.578 180.233 147.354 186.12 134.392C188.554 129.033 187.511 119.353 184.03 114.977C179.85 109.724 179.93 109.987 180.055 101.711C180.294 86.0108 171.233 74.2901 162.821 79.4202ZM264.003 87.4604C257.407 90.3716 254.719 95.493 254.088 106.351C253.826 110.877 252.833 117.583 251.837 121.568C249.189 132.157 249.853 136.551 254.848 141.493C261.999 148.569 268.507 142.713 271.422 126.581C271.897 123.952 273.106 119.151 274.109 115.915C279.589 98.2295 274.17 82.9737 264.003 87.4604ZM101.82 108.516C95.1093 115.631 101.311 130.846 115.776 142.751C116.504 143.35 118.162 146.164 119.46 149.003C120.759 151.844 123.701 156.485 125.999 159.317C128.298 162.149 131.188 166.618 132.423 169.247C137.238 179.505 138.743 182.037 142.48 186.178C147.059 191.248 151.689 193.497 154.528 192.026C163.668 187.291 161.576 176.43 148.539 160.939C146.314 158.294 143.949 155.027 143.283 153.678C142.618 152.329 140.712 148.411 139.047 144.972C137.384 141.533 133.737 135.548 130.944 131.671C127.984 127.563 125.407 123.076 124.765 120.915C120.878 107.827 108.684 101.237 101.82 108.516ZM313.688 130.16C305.792 133.911 301.548 141.497 296.48 160.913C291.147 181.34 289.732 184.362 282.705 190.321C280.39 192.285 276.748 195.444 274.614 197.342C266.719 204.361 267.094 204.372 258.981 196.933C252.062 190.589 250.689 189.864 243.587 188.803C240.006 188.268 236.438 187.496 235.659 187.089C225.352 181.704 216.342 180.784 208.126 184.276C198.868 188.21 198.443 188.311 194.702 187.455C189.373 186.236 173.552 189.241 168.933 192.351C165.604 194.591 164.573 197.238 164.202 204.497L163.88 210.811L167.979 219.252C172.039 227.612 172.748 230.667 171.428 234.119C170.39 236.833 150.935 257.006 147.959 258.453C144.922 259.93 140.448 263.994 140.448 265.277C140.448 265.741 138.792 268.012 136.77 270.324C131.161 276.734 131.84 279.13 141.431 286.773C144.329 289.082 152.162 296.556 158.838 303.382C171.571 316.402 176.683 320.548 184.585 324.263C193.513 328.462 195.556 328.878 207.232 328.877C213.185 328.877 221.654 329.265 226.051 329.742C244.509 331.741 264.935 321.91 271.399 307.913C273.688 302.955 277.625 288.629 278.343 282.646C278.603 280.484 279.956 274.194 281.35 268.67C282.744 263.146 283.887 256.762 283.89 254.485C283.893 251.65 284.468 249.091 285.714 246.37C287.996 241.386 289.01 234.489 289.029 223.842L289.044 215.54L296.337 208.368C302.481 202.327 303.705 200.737 304.109 198.28C305.857 187.627 306.121 187.088 315.69 174.644C320.396 168.524 327.284 154.758 329.181 147.683C331.855 137.711 321.778 126.316 313.688 130.16ZM213.434 146.856C210.664 148.796 209.594 151.823 209.628 157.625C209.723 173.201 219.27 177.869 225.124 165.202C229.939 154.78 221.356 141.307 213.434 146.856ZM176.517 148.513C172.357 152.673 171.888 161.677 175.449 169.03C181.439 181.394 195.619 180.491 195.619 167.746C195.619 154.167 183.283 141.746 176.517 148.513ZM251.369 164.73C246.095 169.649 246.906 180.282 252.556 180.282C258.927 180.282 262.932 165.849 257.36 162.968C254.616 161.549 254.856 161.478 251.369 164.73ZM77.1843 226.713C70.3366 229.429 69.1539 234.12 73.7479 240.338C83.7705 253.903 96.7043 261.176 110.839 261.195C115.604 261.201 115.881 260.019 112.238 255.237C110.883 253.46 107.741 247.789 105.257 242.636C98.4273 228.473 87.859 222.479 77.1843 226.713ZM200.242 230.778C213.903 237.701 217.171 238.144 221.949 233.717C228.858 227.319 230.619 227.922 231.642 237.042C231.975 240.012 232.81 243.932 233.499 245.753C237.398 256.052 227.206 273.732 222.231 265.301C221.413 263.914 219.808 262.178 218.665 261.442C217.521 260.707 215.553 259.027 214.291 257.71C212.453 255.79 211.414 255.315 209.061 255.315C205.939 255.315 202.514 253.43 197.826 249.134C196.41 247.836 193.7 245.545 191.803 244.045C187.478 240.621 187.047 239.279 189.028 235.397C192.48 228.629 194.424 227.83 200.242 230.778Z" fill="#FF0000"/>
</svg>
