<svg width="400" height="400" viewBox="0 0 400 400" fill="none" xmlns="http://www.w3.org/2000/svg">
<path fill-rule="evenodd" clip-rule="evenodd" d="M127.078 110.666C118.557 112.012 104.77 117.705 98.954 122.279C90.4244 128.989 87.7189 131.461 82.5539 137.263C72.064 149.047 71.7609 152.616 81.8138 145.964C103.359 131.707 132.96 131.152 162.38 144.452C174.812 150.073 175.977 151.378 171.565 154.744C166.549 158.57 164.376 158.45 153.217 153.731C124.601 141.628 96.1405 144.617 72.9892 162.154C66.902 166.766 52.6944 181.229 50.897 184.644C48.8277 188.578 50.3789 188.818 55.1638 185.305C72.4791 172.595 100.841 169.56 124.145 177.925C130.249 180.116 131.124 181.209 128.776 183.709C124.617 188.137 122.359 188.368 110.694 185.561C94.6722 181.707 74.5084 182.327 70.0846 186.81C68.7264 188.187 70.7177 190.075 73.5282 190.075C79.1053 190.075 98.4569 197.831 98.1448 199.941C97.8088 202.22 85.6705 207.546 76.0227 209.647C71.1648 210.705 70.4637 213.881 74.7895 215.229C85.7965 218.661 98.3038 218.067 114.894 213.324C122.243 211.224 122.972 211.34 127.518 215.331C130.484 217.934 130.878 219.367 128.909 220.384C127.037 221.351 112.493 225.502 109.424 225.945C107.996 226.152 104.321 226.689 101.259 227.14C88.6361 228.998 70.5497 224.515 58.2334 216.475C46.5282 208.835 50.623 216.865 65.8298 231.375C92.1167 256.456 125.913 260.445 162.229 242.752L165.672 241.074L168.166 242.788C176.256 248.35 176.079 249.298 166.074 253.97C133.439 269.209 105.031 269.273 82.0328 254.16C70.8398 246.805 70.1766 248.056 79.4133 259.104C109.79 295.439 145.277 299.727 189.699 272.432C200.566 265.755 200.021 265.833 206.221 270.07C246.802 297.802 282.667 296.693 313.032 266.766C327.264 252.738 331.742 243.837 320.206 252.506C312.892 258.002 301.2 262.951 292.303 264.315C289.696 264.715 285.338 265.383 282.616 265.799C279.081 266.339 276.482 266.313 273.523 265.706C271.244 265.239 267.208 264.602 264.555 264.289C253.546 262.993 225.215 251.843 225.215 248.806C225.215 247.873 229.938 243.8 232.642 242.402C234.714 241.331 235.073 241.37 238.384 243.041C277.828 262.948 315.982 254.79 344.83 220.283C350.205 213.853 348.981 211.845 342.274 216.092C323.987 227.673 305.985 229.905 281.092 223.677C268.078 220.421 266.689 218.453 274.071 213.733C277.918 211.273 277.489 211.26 288.295 214.182C301.529 217.761 310.586 218.13 322.822 215.591C332.988 213.481 332.21 212.39 317.084 207.548C306.796 204.256 301.297 201.659 301.297 200.095C301.297 198.044 312.143 193.225 321.337 191.192C329.847 189.311 332.392 187.275 328.204 185.698C318.91 182.204 304.395 182.036 291.276 185.272C277.937 188.562 275.84 188.438 271.176 184.081C267.389 180.544 268.663 179.658 283.111 175.773C304.583 170 328.254 173.639 344.345 185.186C352.57 191.089 351.771 187.89 342.294 176.978C315.397 146.006 283.634 138.711 244.457 154.505C235.554 158.095 233.19 158.168 228.454 155.004C222.619 151.104 224.054 149.621 239.689 143.392C271.172 130.851 300.201 132.274 319.914 147.327C330.333 155.282 325.951 145.934 313.581 133.813C282.946 103.797 248.074 102.167 207.772 128.868C200.363 133.777 199.335 133.797 192.185 129.181C180.016 121.322 164.589 114.602 151.362 111.397C146.55 110.232 132.508 109.809 127.078 110.666ZM203.031 170.447C205.924 171.944 205.584 173.688 202.028 175.597C199.417 177.001 199.162 177.013 197.212 175.836C191.817 172.579 197.312 167.491 203.031 170.447ZM162.681 198.011C165.755 199.464 165.711 199.993 162.323 202.295C158.935 204.597 157.581 204.639 153.875 202.556C147.005 198.696 155.191 194.469 162.681 198.011ZM246.083 197.633C249.642 199.634 249.65 199.949 246.197 202.295C242.786 204.613 240.99 204.659 237.815 202.507C231.885 198.49 239.558 193.967 246.083 197.633ZM203.319 225.331L205.546 227.177L203.463 229.037C200.833 231.388 198.721 231.388 195.897 229.039L193.67 227.187L195.897 225.336C198.706 222.999 200.508 222.998 203.319 225.331Z" fill="#FF0000"/>
</svg>
