<svg width="400" height="400" viewBox="0 0 400 400" fill="none" xmlns="http://www.w3.org/2000/svg">
<path style="fill:#0000FF;" d="M209.54,137.656c-1.245-0.104-0.936-0.839-0.101-1.899c1.167,0.292,1.289,1.933,0.171,3.006
	C208.453,138.55,209.569,138.009,209.54,137.656z M211.8,144.739c0.184-0.078,0.365-0.155,0.588-0.25
	c0.081,0.189,0.141,0.33,0.207,0.484c0.42-0.106,0.75-0.189,1.05-0.265c0.155-0.172,0.286-0.317,0.322-0.357
	c0.771-0.111,1.386-0.181,1.993-0.292c0.467-0.085,0.92-0.241,1.387-0.326c0.462-0.085,0.935-0.121,1.399-0.179
	c-0.754-0.532-1.125-1.191-3.134-0.96c0.573-0.176,1.146-0.351,1.819-0.557c-0.71-0.361-1.593-0.111-2.649,0.169
	c0.282-0.209,0.44-0.314,0.562-0.421c0.124-0.109,0.213-0.22,0.303-0.315c-0.92-0.311-1.875-0.191-2.938,0.345
	c0.337,0.277,0.676,0.556,1.017,0.836c-0.056,0.019-0.111,0.038-0.167,0.058c0.239,0.086,0.477,0.171,0.717,0.257
	c-0.055,0.043-0.111,0.086-0.166,0.129c-0.339,0.026-0.678,0.053-1.031,0.08c-0.082-0.122-0.151-0.224-0.236-0.352
	c-0.439,0.128-0.824,0.24-1.357,0.396c0.454-0.243,0.802-0.43,1.073-0.575c-0.118-0.121-0.209-0.215-0.3-0.308
	c-1.596,0.299-2.313,0.555-2.871,1.031c0.485-0.119,0.962-0.236,1.438-0.353c0.027,0.033,0.055,0.067,0.082,0.1
	c-0.494,0.222-0.989,0.444-1.485,0.667c0.038,0.05,0.075,0.1,0.113,0.15c0.342-0.098,0.685-0.196,0.93-0.266
	c-0.262,0.299-0.501,0.572-0.791,0.902C210.501,144.634,211.158,144.687,211.8,144.739z M211.629,140.596
	c0.404,0.253,0.732,0.459,1.06,0.666c1.072-0.628,0.116-1.232-1.86-1.163c-0.136,0.084-0.297,0.173-0.422,0.265
	c-0.146,0.109-0.262,0.221-0.412,0.351c0.243,0.128,0.435,0.228,0.626,0.328C210.96,140.893,211.299,140.742,211.629,140.596z
	 M242.011,137.307c0.979-0.143,2.051-0.3,3.207-0.469c0.095,0.2,0.18,0.38,0.289,0.608c0.53-0.109,1.03-0.213,1.56-0.322
	c0.681,0.055,1.382,0.111,2.378,0.191c-0.927,0.511-1.787,0.985-2.837,1.564c0.033,0.044,0.137,0.179,0.22,0.289
	c-0.683,0.63-1.983,0.39-2.76,0.702c-0.185,0.192-0.343,0.358-0.553,0.576c-0.63-0.135-1.088-0.233-1.577-0.338
	c-0.297,0.156-0.536,0.281-0.896,0.47c-0.83-0.148-1.645-0.294-2.457-0.439c0.062-0.046,0.124-0.093,0.186-0.139
	c0.304,0.013,0.609,0.026,0.913,0.039c0.047-0.032,0.094-0.064,0.142-0.096c-0.546-0.117-1.091-0.234-1.635-0.351
	c0.022-0.048,0.044-0.097,0.067-0.145c0.741-0.168,1.481-0.336,2.312-0.524c0.408,0.264,0.791,0.512,1.175,0.76
	c0.104-0.021,0.209-0.042,0.313-0.063c-0.053-0.223-0.105-0.446-0.158-0.668c-0.098,0.014-0.196,0.029-0.294,0.043
	c0.303-0.372,0.604-0.743,0.905-1.113c-0.07-0.008-0.139-0.016-0.209-0.025c-0.294,0.167-0.588,0.334-0.828,0.47
	c-0.494,0.098-0.922,0.184-1.405,0.28c0.299-0.285,0.601-0.573,0.925-0.883c-0.347,0.02-0.543,0.031-1,0.057
	c0.531-0.329,0.945-0.585,1.482-0.918C241.691,137.041,241.8,137.132,242.011,137.307z M243.721,138.896
	c0.256-0.411,0.479-0.768,0.709-1.138c-0.768,0.344-1.471,0.66-2.174,0.975c0.701,0.149,1.285,0.273,1.871,0.397
	c0.031-0.02,0.062-0.039,0.093-0.059C244.052,139.011,243.884,138.953,243.721,138.896z M218.646,140.048
	c-1.07,0.171-2.14,0.343-3.211,0.514c-0.025,0.054-0.05,0.107-0.075,0.161c0.628,0.054,1.257,0.108,2.152,0.185
	c0.374-0.181,0.861-0.417,1.348-0.652C218.79,140.187,218.718,140.118,218.646,140.048z M216.542,138.175
	c-0.19,0.306-0.098,0.362,0.677,0.267c0.67-0.082,1.342-0.181,2.078-0.281c1.334-0.622,3.069-0.526,4.701-0.987
	c0.122-0.208,0.261-0.446,0.404-0.691c-4.227,0.329-4.775,0.404-6.298,0.85c0.889-0.122,1.745-0.24,2.6-0.357
	c-0.007,0.024-0.014,0.049-0.021,0.073c-0.857,0.175-1.715,0.35-2.574,0.526c-0.002,0.049-0.005,0.098-0.007,0.147
	c0.362-0.002,0.724-0.003,1.086-0.005c-0.015,0.04-0.031,0.081-0.046,0.121C218.287,137.948,217.432,138.059,216.542,138.175z
	 M222.809,141.88c-0.902,0.201-1.62,0.502-1.868,0.992c0.248,0.15,0.529,0.321,0.902,0.548c0.355-0.924,0.802-1.073,3.854-1.35
	c0.349-0.317,0.718-0.652,1.062-0.964c-0.644,0.143-1.16,0.27-1.684,0.37C224.323,141.62,223.549,141.715,222.809,141.88z
	 M234.717,139.452c-0.52,0.32-1.032,0.635-1.546,0.951c-0.093-0.013-0.186-0.027-0.279-0.04c0.236-0.234,0.472-0.467,0.772-0.763
	c-1.147,0.33-1.278,0.992-2.748,1.214c0.3-0.339,0.539-0.609,0.777-0.878c-0.075-0.009-0.15-0.018-0.225-0.027
	c-0.347,0.159-0.695,0.318-1.064,0.486c-0.299,0.059-0.624,0.123-0.95,0.187c-0.107,0.088-0.215,0.178-0.389,0.321
	c1.143,0.103,2.22,0.2,3.358,0.302c0.696-0.429,1.248-0.768,1.798-1.107c0.033,0.007,0.066,0.014,0.099,0.021
	c-0.168,0.155-0.336,0.31-0.545,0.503c0.211,0.092,0.414,0.181,0.714,0.312c0.724-0.559,1.335-1.031,2.031-1.568
	C235.751,139.403,235.285,139.425,234.717,139.452z M229.518,142.288c-0.938-0.05-1.738-0.093-2.748-0.148
	C227.242,142.782,228.251,142.82,229.518,142.288z M230.836,139.654c0.731-0.147,1.461-0.295,2.191-0.442
	c-0.016-0.041-0.031-0.082-0.047-0.123c0.675,0.002,1.351,0.004,2.045,0.005c0.167-0.102,0.291-0.179,0.414-0.255
	c0.318,0.122,0.603,0.23,0.887,0.339c0.116-0.02,0.233-0.039,0.349-0.059c0.198-0.301,0.396-0.601,0.557-0.846
	c-0.441-0.154-0.73-0.255-1.018-0.356c0.069-0.035,0.138-0.07,0.206-0.105c0.446,0.095,0.892,0.19,1.346,0.286
	c0.826-0.592,0.644-0.957-0.445-1.204c-0.371-0.084-0.655-0.22-0.977-0.332c0.071-0.049,0.143-0.098,0.214-0.147
	c0.27-0.023,0.539-0.046,0.809-0.068c-0.14,0.077-0.281,0.155-0.442,0.244c0.648,0.219,1.243,0.419,1.874,0.632
	c0.57-0.581,0.251-0.868-0.898-0.912c0.189-0.06,0.378-0.121,0.74-0.237c-0.596-0.125-1.077-0.225-1.698-0.355
	c0.441-0.084,0.702-0.134,0.801-0.153c0.556,0.194,1.006,0.351,1.457,0.508c0.127-0.045,0.255-0.09,0.382-0.135
	c-0.317-0.358-0.633-0.716-0.909-1.027c0.436-0.377,0.805-0.695,1.19-1.028c0.24,0.036,0.472,0.071,0.516,0.077
	c0.269,0.461,0.495,0.847,0.758,1.299c-0.089,0.161-0.224,0.405-0.352,0.636c0.479-0.016,0.838-0.028,1.197-0.04
	c0.023,0.047,0.047,0.093,0.071,0.14c-0.648,0.191-1.296,0.383-2.015,0.596c-0.026,0.079-0.062,0.184-0.09,0.268
	c0.759-0.08,1.47-0.155,2.305-0.243c0.598-0.353,2.144-0.606,1.785-1.199c-0.593-0.012-1.102-0.022-1.693-0.034
	c0.444-0.465,0.727-0.869-0.572-0.778c-0.434-0.459-0.828-0.876-1.219-1.29c-0.139,0.003-0.278,0.006-0.416,0.009
	c-0.691,0.392-1.385,0.785-2.189,1.24c-0.427,0.014-0.986,0.032-1.68,0.054c-0.579,0.429-1.185,0.878-1.957,1.45
	c0.203,0.245,0.482,0.582,0.859,1.038c-1.124,0.07-1.971,0.122-2.882,0.179c-0.758,0.351-0.103,0.541,0.114,0.881
	c-0.753,0.307-1.562,0.638-2.568,1.049C230.19,139.371,230.513,139.512,230.836,139.654z M231.458,142.73
	c-0.188,0.105-0.268,0.239-0.462,0.418c0.422-0.118,0.663-0.186,0.875-0.245c0.174,0.401,0.332,0.763,0.494,1.136
	c0.989-0.051,1.975-0.391,2.367-0.833c0.37-0.417,0.056-0.792-0.762-0.913C233.117,142.167,232.191,142.321,231.458,142.73z
	 M218.853,134.204c-0.074,0.066-0.148,0.131-0.222,0.197c0.385,0.058,0.737,0.19,1.162,0.16c1.14-0.082,2.309-0.231,3.468-0.359
	c0.37-0.041,0.744-0.102,1.053-0.144c0.106-0.342,0.191-0.613,0.303-0.975c-1.797,0.205-3.548,0.405-5.299,0.605
	c-0.051,0.051-0.102,0.101-0.154,0.152c0.224,0.035,0.428,0.111,0.676,0.094c0.385-0.027,0.804-0.139,1.198-0.177
	c0.724-0.07,1.44-0.112,2.159-0.167c-0.015,0.03-0.029,0.06-0.044,0.09C221.719,133.854,220.286,134.029,218.853,134.204z
	 M228.718,140.769c0.25-0.064,0.48-0.123,0.71-0.182c0.459-0.308,0.917-0.615,1.374-0.922
	C229.324,139.878,228.713,140.191,228.718,140.769z M228.819,138.725c0.07-0.318,1.33-0.596,0.681-0.931
	c-0.725-0.114-1.493-0.097-2.52,0.382c0.145,0.258,0.296,0.526,0.464,0.823C227.962,138.896,228.36,138.817,228.819,138.725z
	 M227.619,136.539c0.151,0.138,0.259,0.237,0.392,0.358c0.995-0.021,1.711-0.239,1.909-0.614c0.242-0.458-0.934-0.887-2.15-0.775
	c-0.174,0.016-0.364,0.088-0.74,0.183c0.439,0.003,0.667,0.005,0.868,0.006C227.794,136.012,227.695,136.31,227.619,136.539z
	 M221.662,138.644c-0.042-0.035-0.085-0.071-0.127-0.106c-1.975,0.386-3.953,0.773-6.042,1.182
	c-0.123,0.121-0.279,0.274-0.546,0.536c0.621-0.114,1.051-0.172,1.453-0.272c1.105-0.276,2.193-0.571,3.289-0.853
	C220.343,138.964,221.005,138.806,221.662,138.644z M224.562,134.744c-1.93,0.242-3.843,0.482-5.772,0.724
	c0.005,0.223,0.009,0.378,0.015,0.64c1.57-0.642,2.75-0.539,3.746-0.276C224.424,135.469,224.798,135.291,224.562,134.744z
	 M212.926,132.662c0.457-0.757,0.875-1.448,1.291-2.138C213.211,130.82,212.259,132.273,212.926,132.662z M213.593,132.692
	c0.688-0.775,1.456-1.641,2.263-2.551C214.493,130.487,213.149,132.203,213.593,132.692z M201.367,136.666
	c-0.471,0.306-0.974,0.632-1.479,0.96c0.054,0.016,0.108,0.031,0.162,0.047c0.3-0.086,0.6-0.171,0.972-0.277
	c-0.107,0.109-0.178,0.182-0.27,0.276c0.735-0.072,1.378-0.135,2.084-0.205C203.103,136.951,202.64,136.697,201.367,136.666z
	 M214.937,132.208c0.114-0.004,0.228-0.008,0.343-0.012c0.33-0.469,0.659-0.937,0.962-1.368c0.651-0.318,1.275-0.622,1.896-0.925
	c-0.044-0.042-0.088-0.085-0.131-0.127c-0.518,0.116-1.252,0.195-1.517,0.356C215.341,130.829,215.193,131.519,214.937,132.208z
	 M209.231,134.935c0.27-0.079,0.525-0.153,0.779-0.227c-0.259,0.031-0.518,0.063-0.778,0.094c0.016-0.663,0.033-1.321,0.049-1.975
	c-0.526,0.207-1.076,0.424-1.753,0.69C208.093,133.967,207.927,134.655,209.231,134.935z M210.794,138.779
	c1.339-0.425,2.525-0.801,3.725-1.182c0.277-0.608,0.464-1.251,0.894-1.898c0.467-0.701,0.201-1.251-0.182-1.791
	c-1.403,0.008-3.787,0.632-5.341,1.417C211.233,136.244,210.78,137.551,210.794,138.779z M211.726,133.246
	c0.437-0.854,0.818-1.596,1.214-2.369c-0.774,0.15-1.238,0.377-1.292,0.696c-0.077,0.448-0.154,0.899-0.192,1.346
	C211.446,133.018,211.597,133.097,211.726,133.246z M222.942,141.388c0.697,0.001,1.394,0.003,2.146,0.004
	c0.385-0.177,0.645-0.296,0.939-0.431c-0.095-0.12-0.176-0.222-0.319-0.402c-0.939,0.208-1.841,0.409-2.743,0.609
	C222.958,141.242,222.95,141.315,222.942,141.388z M222.945,137.746c-2.387,0.345-4.643,0.671-6.962,1.006
	C216.552,139.214,221.469,138.496,222.945,137.746z M216.956,132.188c0.952-0.617,1.828-1.183,2.772-1.795
	C218.307,130.464,216.789,131.507,216.956,132.188z M218.887,136.318c0.003,0.026,0.006,0.051,0.01,0.077
	c1.055-0.107,2.109-0.213,3.164-0.32c0.046-0.05,0.093-0.1,0.139-0.15c-0.515-0.044-1.03-0.088-1.441-0.123
	C220.025,136.004,219.456,136.161,218.887,136.318z M222.549,139.439c-0.671,0.275-0.745,0.542-0.527,0.801
	c0.222,0.264,0.717,0.311,1.458,0.169c1.053-0.202,1.629-0.533,1.824-1.073C224.275,139.105,223.267,139.145,222.549,139.439z
	 M222.952,132.549c-0.442-0.092-0.884-0.184-1.325-0.276c0.087-0.045,0.174-0.089,0.261-0.134c0.618,0.171,1.238,0.342,1.897,0.524
	c0.322-0.03,0.711-0.066,1.194-0.112c-0.135-0.368-3.341-0.712-4.437-0.495c0.061,0.078,0.119,0.153,0.168,0.216
	c-0.388,0.112-0.776,0.224-1.355,0.392C220.42,132.995,221.826,132.546,222.952,132.549z M345.24,138.833
	c-0.715,0.546-1.425,1.111-2.059,1.747c-4.657,4.667-9.293,9.355-13.939,14.034c-0.497,0.501-1.022,0.976-1.503,1.492
	c-0.125,0.134-0.132,0.377-0.233,0.693c0.81-0.141,1.26-0.583,1.714-0.996c1.539-1.4,3.082-2.796,4.594-4.224
	c1.57-1.482,3.147-2.959,4.648-4.51c1.964-2.031,3.84-4.146,5.788-6.192c0.562-0.591,1.24-1.071,1.866-1.602
	c0.237-0.201,0.533-0.37,0.293-1.002C345.977,138.473,345.56,138.589,345.24,138.833z M290.226,202.102
	c-0.018,0.009-0.036,0.018-0.053,0.028l0,0c-0.011,0.013-0.02,0.028-0.031,0.041c0.015-0.008,0.031-0.016,0.047-0.024
	C290.202,202.132,290.214,202.116,290.226,202.102z M224.297,257.789c0.355-0.095,0.511-0.102,0.625-0.174
	c0.828-0.521,1.669-1.026,2.466-1.592c2.911-2.069,5.805-4.163,8.708-6.242c1.179-0.844,2.38-1.657,3.547-2.517
	c1.104-0.814,2.164-1.687,3.263-2.508c2.295-1.714,4.61-3.401,6.728-5.339c1.882-1.724,3.758-3.456,5.682-5.132
	c1.687-1.469,3.502-2.794,5.145-4.309c2.915-2.688,5.735-5.479,8.61-8.211c2.078-1.974,4.169-3.936,6.275-5.879
	c2.655-2.449,5.333-4.875,8.002-7.31c2.058-1.878,3.898-3.992,6.156-5.654c0.257-0.19,0.432-0.492,0.638-0.751
	c-0.223,0.121-0.461,0.223-0.658,0.377c-0.742,0.58-1.473,1.173-2.199,1.773c-1.361,1.126-2.74,2.232-4.068,3.396
	c-2.359,2.068-4.672,4.189-7.029,6.26c-2.682,2.357-5.392,4.683-8.09,7.022c-1.393,1.208-2.774,2.43-4.186,3.616
	c-0.841,0.706-1.744,1.337-2.594,2.032c-1.853,1.516-3.683,3.06-5.535,4.578c-1.786,1.464-3.577,2.922-5.384,4.36
	c-1.718,1.367-3.461,2.705-5.192,4.056c-1.299,1.014-2.644,1.975-3.887,3.055c-2.428,2.11-4.786,4.3-7.196,6.431
	c-2.557,2.261-5.055,4.591-7.819,6.608C225.588,256.26,224.931,256.862,224.297,257.789z M213.425,242.845
	c0.253-0.653,0.275-1.417-0.184-2.2c-0.206,0.266-0.397,0.421-0.468,0.62c-0.486,1.361-0.961,2.726-1.402,4.102
	c-0.075,0.234,0.035,0.526,0.075,0.965c0.26-0.191,0.387-0.237,0.432-0.325C212.409,244.961,213.003,243.936,213.425,242.845z
	 M293.757,199.692c4.897-3.737,9.82-7.44,14.53-11.415c1.199-1.012,2.396-2.028,3.594-3.042c0.272-0.23,0.525-0.468,0.32-0.914
	c-0.662-0.057-0.996,0.368-1.37,0.771c-0.747,0.803-1.498,1.605-2.299,2.353c-0.454,0.425-1.021,0.725-1.514,1.111
	c-2.377,1.861-4.754,3.722-7.115,5.603c-3.037,2.419-6.062,4.855-9.085,7.293c-0.225,0.182-0.4,0.427-0.592,0.649
	c0.36-0.194,0.736-0.364,1.068-0.597C292.128,200.919,292.947,200.311,293.757,199.692z M325.324,176.486
	c-0.685,0.087-1.167,0.339-1.406,1.132C324.955,177.606,324.98,177.585,325.324,176.486z M322.784,182.756
	c0.504,0.256,0.809-0.044,1.109-0.273c3.373-2.573,6.808-5.068,9.812-8.091c0.718-0.723,1.517-1.365,2.267-2.057
	c0.981-0.905,1.956-1.816,2.916-2.742c0.141-0.136,0.186-0.372,0.333-0.684c-0.833,0.043-1.261,0.499-1.689,0.927
	c-1.469,1.471-2.908,2.964-4.59,4.213c-1.511,1.122-2.93,2.368-4.406,3.539c-1.473,1.168-2.988,2.283-4.44,3.475
	C323.552,181.507,322.917,181.949,322.784,182.756z M336.777,167.761c0.349-0.287,0.621-0.565,0.605-1.145
	c-0.903,0.289-1.582,0.807-2.229,1.343c-1.932,1.599-3.841,3.227-5.752,4.851c-0.298,0.254-0.585,0.529-0.835,0.829
	c-0.12,0.145-0.143,0.37-0.307,0.832c1.74-1.091,3.091-2.216,4.458-3.312C334.094,170.056,335.413,168.881,336.777,167.761z
	 M237.09,231.525c0.978-0.785,1.937-1.594,2.906-2.391c1.302-1.071,2.611-2.135,3.907-3.214c2.413-2.009,4.793-4.059,7.236-6.031
	c2.748-2.219,5.555-4.364,8.325-6.555c1.879-1.486,3.723-3.017,5.611-4.492c2.259-1.765,4.558-3.479,6.82-5.24
	c3.408-2.653,6.793-5.336,10.202-7.987c1.705-1.325,3.463-2.582,5.161-3.915c1.359-1.067,2.644-2.228,3.997-3.302
	c2.368-1.881,4.782-3.703,7.141-5.594c3.432-2.752,6.82-5.558,10.253-8.308c1.161-0.93,2.46-1.693,3.594-2.653
	c1.406-1.191,2.716-2.498,4.047-3.775c0.503-0.482,0.887-1.06,1.224-1.939c-0.441,0.203-0.7,0.271-0.896,0.422
	c-1.307,1-2.628,1.986-3.893,3.038c-1.54,1.279-3.013,2.639-4.545,3.927c-2.314,1.945-4.653,3.862-6.987,5.784
	c-3.062,2.521-6.088,5.088-9.208,7.536c-2.531,1.986-5.179,3.823-7.771,5.733c-2.179,1.606-4.358,3.212-6.525,4.834
	c-3.047,2.279-6.095,4.558-9.12,6.865c-2.246,1.713-4.456,3.472-6.683,5.209c-0.155,0.121-0.323,0.224-0.479,0.342
	c-1.687,1.279-3.38,2.549-5.057,3.842c-1.056,0.814-2.076,1.674-3.131,2.49c-1.829,1.416-3.702,2.778-5.503,4.227
	c-2.261,1.819-4.488,3.682-6.695,5.566c-1.939,1.654-3.873,3.317-5.73,5.061c-1.284,1.206-2.44,2.549-3.634,3.848
	c-0.185,0.201-0.268,0.494-0.398,0.745c0.06,0.063,0.12,0.127,0.18,0.19c0.257-0.125,0.547-0.21,0.767-0.382
	C233.84,234.121,235.469,232.827,237.09,231.525z M185.203,240.366c1.402,0.5,2.821,0.964,4.193,1.537
	c2.278,0.953,4.524,1.982,6.787,2.971c0.124,0.054,0.283,0.028,0.576,0.052c-0.141-0.274-0.179-0.485-0.304-0.567
	c-0.524-0.344-1.05-0.699-1.617-0.958c-1.608-0.732-3.236-1.42-4.858-2.12c-1.943-0.839-3.875-1.707-5.838-2.498
	c-1.741-0.702-3.518-1.313-5.276-1.972c-1.247-0.468-2.474-0.995-3.736-1.418c-2.675-0.897-5.381-1.699-8.047-2.62
	c-3.48-1.202-6.935-2.475-10.397-3.729c-3.129-1.133-6.255-2.277-9.378-3.425c-2.134-0.784-4.268-1.567-6.391-2.378
	c-2.194-0.838-4.365-1.736-6.565-2.557c-1.795-0.671-3.621-1.26-5.428-1.9c-3.51-1.244-7.014-2.506-10.527-3.745
	c-2.402-0.847-4.845-1.588-7.214-2.518c-3.07-1.205-6.219-2.166-9.343-3.205c-2.677-0.89-5.357-1.772-8.036-2.656
	c-1.49-0.492-2.97-1.02-4.475-1.461c-2.484-0.729-5.002-1.343-7.472-2.113c-2.544-0.793-5.037-1.72-7.627-2.405
	c-2.637-0.697-5.238-1.624-7.708-2.856c-0.728-0.364-1.555-0.537-2.347-0.761c-0.18-0.051-0.401,0.048-0.733,0.096
	c0.209,0.268,0.295,0.459,0.442,0.551c0.364,0.227,0.778,0.378,1.135,0.615c1.802,1.198,3.704,2.189,5.685,3.068
	c2.572,1.141,5.197,1.973,8.005,2.267c1.322,0.139,2.646,0.392,3.931,0.734c2.502,0.667,4.982,1.419,7.464,2.163
	c1.316,0.394,2.617,0.836,3.92,1.271c1.601,0.534,3.198,1.078,4.794,1.629c1.485,0.513,2.968,1.029,4.445,1.564
	c1.845,0.668,3.675,1.375,5.524,2.032c2.92,1.037,5.864,2.01,8.774,3.076c2.797,1.025,5.561,2.141,8.345,3.205
	c0.989,0.378,1.994,0.714,2.987,1.08c2.393,0.881,4.781,1.772,7.175,2.651c0.809,0.297,1.635,0.549,2.44,0.856
	c2.567,0.978,5.132,1.96,7.689,2.961c2.994,1.172,5.964,2.408,8.974,3.538c4.077,1.531,8.166,3.029,12.278,4.461
	c2.889,1.006,5.816,1.909,8.744,2.801c2.1,0.64,4.234,1.172,6.343,1.782C183.436,239.725,184.319,240.051,185.203,240.366z
	 M345.204,146.835c-0.11,0.536-0.126,1.09-0.207,1.633c-0.249,1.666-0.509,3.331-0.765,4.997c-0.076,0.368-0.321,0.692-0.447,1.056
	c-0.149,0.433-0.367,0.951-0.252,1.343c0.242,0.82,0.039,1.599-0.16,2.314c-0.224,0.805-0.307,1.602-0.409,2.413
	c-0.092,0.732-0.267,1.454-0.449,2.408c0.183,0.747,0.004,1.697-0.203,2.671c-0.235,1.107-1.332,1.466-1.933,2.348
	c0.464,0.134,0.822,0.237,1.151,0.333c0.356,0.826,0.371,1.632,0.004,2.346c-0.706,1.374-0.838,2.837-0.862,4.329
	c-0.021,1.315-0.435,2.405-1.415,3.355c-2.086,2.021-4.112,4.105-6.124,6.2c-3.16,3.292-6.511,6.374-10.179,9.087
	c-3.376,2.497-6.844,4.868-10.241,7.337c-2.635,1.916-5.248,3.865-7.588,6.148c-0.591,0.576-1.153,1.185-1.773,1.728
	c-4.46,3.907-8.964,7.765-13.39,11.71c-3.489,3.109-6.97,6.234-10.303,9.507c-3.95,3.88-7.713,7.95-11.602,11.893
	c-4.659,4.724-9.377,9.389-14.048,14.1c-4.811,4.851-9.769,9.561-14.247,14.734c-0.666,0.769-1.268,1.594-1.933,2.364
	c-0.796,0.921-1.632,1.806-2.443,2.714c-1.701,1.904-3.34,3.868-5.108,5.708c-2.828,2.944-5.751,5.798-8.609,8.714
	c-0.738,0.753-1.603,1.218-2.607,1.561c-0.516-0.387-1.014-0.76-1.465-1.099c-0.853-2.463-1.49-4.88-1.608-7.421
	c-0.04-0.861,0.196-1.506,0.845-2.076c1.12-0.985,2.222-1.994,3.277-3.049c2-1.999,3.926-4.074,5.947-6.052
	c4.492-4.398,9.034-8.744,13.535-13.133c2.447-2.386,4.831-4.836,7.281-7.22c1.971-1.918,3.982-3.795,6.003-5.659
	c1.558-1.436,3.15-2.836,4.746-4.231c0.915-0.8,1.899-1.523,2.796-2.342c3.016-2.754,6.008-5.534,9.008-8.305
	c3.666-3.385,7.344-6.757,10.992-10.162c3.533-3.296,7.034-6.626,10.548-9.942c1.2-1.132,2.4-2.264,3.588-3.409
	c0.203-0.196,0.344-0.456,0.563-0.753c-0.499-0.168-0.722,0.059-0.955,0.258c-0.687,0.586-1.377,1.168-2.063,1.755
	c-2.029,1.737-4.052,3.479-6.085,5.211c-2.241,1.91-4.498,3.801-6.734,5.717c-2.951,2.529-5.879,5.084-8.835,7.605
	c-0.804,0.686-1.728,1.235-2.51,1.942c-2.359,2.135-4.687,4.305-7.005,6.484c-1.744,1.639-3.442,3.327-5.182,4.969
	c-1.426,1.346-2.904,2.637-4.327,3.987c-2.792,2.647-5.54,5.342-8.346,7.974c-4.126,3.87-8.363,7.628-12.216,11.775
	c-3.531,3.801-7.152,7.511-10.827,11.17c-0.692,0.688-1.245,1.514-1.882,2.259c-0.481,0.562-0.992,1.099-1.492,1.644
	c-0.354,0.386-0.783,0.497-1.249,0.351c-0.657-0.343-0.791-0.991-1.025-1.563c-0.46-1.123-0.901-2.254-1.341-3.386
	c-0.141-0.364-0.305-0.729-0.374-1.109c-0.29-1.582-0.489-3.183-0.835-4.752c-0.334-1.509-0.491-3.018-0.436-4.557
	c0.004-0.117-0.02-0.235-0.02-0.353c0.002-3.262-0.058-6.525,0.036-9.784c0.048-1.672,0.592-3.258,1.897-4.425
	c2.991-2.674,5.782-5.542,8.464-8.522c0.37-0.411,0.708-0.836,0.598-1.556c-0.269,0-0.564-0.084-0.766,0.016
	c-0.52,0.258-1.066,0.528-1.482,0.919c-2.031,1.91-4.02,3.862-6.029,5.796c-0.393,0.379-0.758,0.82-1.462,0.775
	c-0.252-0.117-0.567-0.262-0.877-0.405c-0.878,0.362-1.129,1.15-1.26,1.898c-0.262,1.497-0.406,3.016-0.571,4.529
	c-0.154,1.406-0.27,2.816-0.406,4.224c-0.058,0.6-0.189,1.164-0.923,1.584c-0.717-0.238-1.536-0.486-2.339-0.78
	c-2.545-0.929-5.078-1.892-7.628-2.805c-0.885-0.317-1.835-0.456-2.709-0.796c-2.411-0.935-4.796-1.936-7.194-2.903
	c-0.29-0.117-0.599-0.19-0.9-0.281c-1.049-0.316-2.111-0.593-3.144-0.953c-2.075-0.724-4.133-1.496-6.201-2.237
	c-0.139-0.05-0.312-0.007-0.469-0.007c0.366,0.402,0.761,0.645,1.185,0.822c2.427,1.013,4.863,2.007,7.292,3.015
	c0.829,0.344,1.637,0.741,2.476,1.058c0.768,0.291,1.567,0.501,2.348,0.757c1.336,0.438,2.587,1.086,4.015,1.305
	c1.109,0.171,2.173,0.645,3.25,1.006c0.777,0.26,1.539,0.564,2.312,0.835c1.035,0.362,2.124,0.612,3.097,1.096
	c0.761,0.378,1.499,0.613,2.336,0.694c0.874,0.085,1.677,0.405,2.167,1.169c0.295,2.099,0.295,2.099-0.335,2.649
	c-0.35-0.149-0.74-0.317-1.133-0.481c-0.791-0.331-1.574-0.683-2.377-0.983c-0.698-0.26-1.422-0.448-2.127-0.69
	c-1.928-0.662-3.837-1.384-5.782-1.992c-2.732-0.854-5.488-1.633-8.238-2.431c-1.318-0.382-2.659-0.689-3.965-1.106
	c-2.204-0.703-4.381-1.487-6.582-2.198c-2.089-0.675-4.2-1.285-6.291-1.954c-2.056-0.658-4.092-1.376-6.15-2.024
	c-1.234-0.388-2.51-0.642-3.738-1.047c-1.75-0.577-3.467-1.251-5.208-1.855c-0.568-0.197-1.16-0.415-1.914-0.142
	c0.215,0.281,0.328,0.567,0.532,0.666c0.561,0.273,1.149,0.501,1.746,0.686c1.834,0.569,3.686,1.079,5.513,1.67
	c1.789,0.579,3.534,1.305,5.338,1.827c2.106,0.61,4.206,1.164,6.23,2.075c2.137,0.962,4.434,1.571,6.664,2.323
	c1.114,0.376,2.225,0.771,3.357,1.083c2.497,0.689,5.022,1.278,7.508,2.006c2.824,0.827,5.633,1.716,8.42,2.661
	c3.298,1.118,6.566,2.325,9.882,3.506c0.041,0.395,0.123,0.702,0.096,0.999c-0.129,1.421-0.017,2.822,0.249,4.219
	c0.264,1.39,0.475,2.79,0.758,4.175c0.266,1.302,0.467,2.639,0.925,3.876c0.831,2.248,1.383,4.563,1.949,6.879
	c0.27,1.104,0.561,2.203,0.798,3.314c0.076,0.357,0.012,0.744,0.012,1.335c-0.693-0.217-1.194-0.266-1.566-0.511
	c-1.398-0.918-2.983-1.389-4.507-2.01c-2.72-1.108-5.406-2.305-8.153-3.341c-3.187-1.202-6.25-2.688-9.471-3.826
	c-4.394-1.553-8.678-3.418-13.012-5.14c-0.874-0.347-1.773-0.632-2.647-0.98c-2.255-0.899-4.491-1.849-6.756-2.719
	c-3.878-1.491-7.775-2.934-11.66-4.404c-0.88-0.333-1.739-0.72-2.622-1.042c-1.656-0.604-3.335-1.147-4.983-1.773
	c-3.332-1.266-6.636-2.607-9.976-3.852c-4.186-1.56-8.401-3.044-12.596-4.582c-2.171-0.796-4.327-1.63-6.484-2.463
	c-3.512-1.356-7.039-2.673-10.521-4.102c-3.517-1.443-7.013-2.946-10.471-4.525c-3.994-1.824-7.954-3.723-11.894-5.661
	c-3.169-1.558-6.32-3.159-9.416-4.855c-3.752-2.055-7.487-4.137-11.339-6.002c-1.836-0.889-3.659-1.805-5.46-2.761
	c-2.065-1.096-3.42-2.72-3.614-5.151c-0.025-0.308-0.124-0.617-0.235-0.909c-0.912-2.385-1.451-4.873-2.055-7.344
	c-0.456-1.866-0.93-3.728-1.424-5.585c-0.098-0.369-0.276-0.741-0.501-1.049c-0.672-0.918-1.382-1.808-2.086-2.702
	c-0.249-0.316-0.527-0.602-1.015-0.389c-0.05,0.087-0.16,0.189-0.155,0.286c0.079,1.643,0.065,3.3,0.292,4.923
	c0.271,1.937,0.75,3.845,1.143,5.765c0.252,1.23,0.496,2.462,0.768,3.687c0.381,1.723,0.777,3.443,1.18,5.161
	c0.259,1.103,0.47,2.225,0.829,3.296c0.538,1.603,1.45,2.955,3.026,3.744c1.12,0.56,2.21,1.191,3.364,1.668
	c3.299,1.366,6.595,2.733,9.701,4.51c2.247,1.286,4.594,2.4,6.697,3.936c2.065,1.508,4.325,2.682,6.63,3.777
	c2.338,1.111,4.653,2.27,6.986,3.391c1.379,0.663,2.764,1.314,4.163,1.932c2.009,0.887,4.036,1.734,6.05,2.609
	c2.409,1.047,4.797,2.143,7.222,3.151c3.766,1.566,7.561,3.063,11.333,4.615c1.848,0.761,3.65,1.638,5.513,2.36
	c2.116,0.82,4.272,1.538,6.419,2.274c2.002,0.686,3.994,1.418,6.031,1.981c2.618,0.723,5.142,1.689,7.64,2.724
	c2.427,1.005,4.81,2.115,7.222,3.156c1.331,0.575,2.676,1.115,4.023,1.649c1.605,0.636,3.217,1.252,4.829,1.869
	c1.353,0.518,2.732,0.975,4.061,1.548c3.094,1.335,6.161,2.732,9.248,4.083c0.752,0.329,1.548,0.558,2.309,0.871
	c2.647,1.089,5.286,2.196,7.929,3.293c0.506,0.21,1.023,0.391,1.526,0.606c1.658,0.709,3.297,1.468,4.974,2.13
	c1.312,0.518,2.687,0.877,4.005,1.383c1.975,0.759,3.917,1.604,5.887,2.377c2.551,1.001,5.116,1.967,7.673,2.951
	c1.68,0.646,3.363,1.288,5.037,1.949c1.894,0.748,3.734,1.638,5.808,1.853c0.657,0.068,1.266,0.092,1.811-0.272
	c1.075-0.719,2.215-1.378,3.163-2.243c1.798-1.641,3.45-3.429,4.923-5.387c0.989-1.315,2.093-2.555,3.235-3.742
	c4.495-4.673,9.12-9.222,13.312-14.179c1.167-1.379,2.5-2.632,3.552-4.091c1.652-2.29,3.644-4.235,5.799-6
	c2.744-2.247,5.28-4.701,7.702-7.276c1.289-1.371,2.389-2.921,3.686-4.284c4.307-4.526,8.639-9.031,13.014-13.491
	c2.476-2.524,5.054-4.948,7.59-7.413c1.268-1.232,2.5-2.504,3.828-3.668c2.481-2.175,4.997-4.313,7.543-6.412
	c1.909-1.574,3.87-3.086,5.841-4.582c1.785-1.355,3.561-2.709,5.032-4.423c1.46-1.7,2.933-3.397,4.768-4.715
	c1.85-1.328,3.705-2.652,5.604-3.907c2.107-1.393,4.036-2.977,5.823-4.767c3.136-3.141,6.366-6.18,9.806-9
	c2.459-2.016,4.782-4.201,6.895-6.592c0.517-0.584,1.049-1.173,1.089-2.058c-0.147-0.173-0.285-0.362-0.45-0.523
	c-0.167-0.162-0.363-0.296-0.45-0.366c-0.206-1.364-0.118-2.239,0.161-3.281c0.15-0.561,0.238-1.159,0.228-1.739
	c-0.029-1.784,0.131-3.524,0.775-4.894c0-1.019-0.077-1.77,0.02-2.498c0.118-0.886,0.393-1.75,0.581-2.628
	c0.082-0.382,0.157-0.775,0.161-1.163c0.013-1.303,0.239-2.571,0.612-3.811c0.338-1.126,0.704-2.22,0.68-3.438
	c-0.027-1.368,0.134-2.741,0.233-4.11c0.085-1.175,0.205-2.348,0.289-3.524c0.016-0.218-0.068-0.444-0.108-0.679
	C345.615,146.005,345.31,146.317,345.204,146.835z M172.837,247.378c0.651,0.266,1.334,0.456,2.01,0.656
	c0.593,0.176,1.136,0.651,2.078,0.343c-1.872-1.152-3.566-2.097-5.841-2.23C171.529,247.086,172.255,247.14,172.837,247.378z
	 M130.591,246.622c-4.329-1.847-8.67-3.667-13.005-5.5c-1.554-0.657-3.088-1.363-4.661-1.97c-2.416-0.932-4.863-1.787-7.288-2.696
	c-2.719-1.019-5.424-2.077-8.144-3.091c-2.757-1.028-5.523-2.031-8.291-3.029c-0.7-0.252-1.41-0.495-2.135-0.652
	c-2.837-0.615-5.685-1.177-8.523-1.792c-1.221-0.265-2.423-0.615-3.638-0.911c-0.189-0.046-0.398-0.006-0.598-0.006
	c0.902,0.479,1.802,0.873,2.739,1.137c0.936,0.264,1.911,0.388,2.865,0.589c1.602,0.337,3.279,0.398,4.741,1.263
	c0.033,0.019,0.075,0.021,0.114,0.031c2.967,0.758,5.86,1.754,8.744,2.771c1.55,0.547,3.047,1.243,4.583,1.833
	c2.78,1.068,5.58,2.084,8.355,3.163c2.119,0.823,4.213,1.711,6.319,2.567c0.943,0.384,1.888,0.765,2.835,1.141
	c1.203,0.478,2.421,0.919,3.61,1.429c2.342,1.004,4.661,2.062,7.003,3.066c2.919,1.25,5.854,2.462,8.778,3.7
	c0.902,0.382,1.784,0.81,2.685,1.192c1.805,0.765,3.619,1.511,5.428,2.267c1.845,0.772,3.683,1.56,5.534,2.317
	c2.938,1.203,5.887,2.378,8.825,3.581c1.994,0.817,3.971,1.677,5.967,2.489c2.326,0.946,4.664,1.86,6.996,2.79
	c0.705,0.281,1.412,0.449,2.18,0.108c0.138-0.584-0.181-0.741-0.519-0.885c-1.368-0.583-2.699-1.288-4.112-1.726
	c-3.792-1.176-7.435-2.734-11.131-4.156c-2.453-0.944-4.871-1.979-7.3-2.983c-3.697-1.528-7.398-3.047-11.082-4.605
	C135.829,248.937,133.224,247.746,130.591,246.622z M73.12,226.752c0.009-0.062,0.018-0.123,0.026-0.185
	c-0.189-0.037-0.377-0.074-0.566-0.111c-0.005,0.083-0.01,0.165-0.014,0.248C72.75,226.72,72.935,226.736,73.12,226.752z
	 M183.046,262.626c1.854,0.746,3.613,1.713,5.582,2.192c1.406,0.342,2.791,0.801,4.146,1.311c1.832,0.689,3.607,1.541,5.583,1.776
	c0.115,0.014,0.224,0.07,0.335,0.111c1.328,0.48,2.647,0.987,3.986,1.434c1.079,0.36,2.18,0.657,3.279,0.955
	c0.184,0.05,0.406-0.038,0.668-0.069c-0.456-0.591-0.453-0.598-1.028-0.804c-0.85-0.305-1.704-0.598-2.557-0.895
	c-1.074-0.374-2.147-0.752-3.224-1.118c-1.299-0.441-2.603-0.868-3.903-1.305c-0.743-0.25-1.482-0.511-2.223-0.766
	c-1.702-0.585-3.464-0.973-5.092-1.802c-1.253-0.638-2.611-1.074-3.934-1.567c-0.437-0.163-0.914-0.215-1.368-0.338
	c-0.833-0.225-1.683-0.406-2.487-0.71c-1.982-0.75-3.942-1.56-5.912-2.343c-0.546-0.217-1.108-0.336-1.928-0.259
	c0.281,0.251,0.354,0.357,0.453,0.398c1.917,0.8,3.83,1.612,5.761,2.378C180.458,261.71,181.774,262.114,183.046,262.626z
	 M61,210.077c0.154,0.086,0.281,0.169,0.418,0.231c2.497,1.13,4.982,2.285,7.666,2.939c1.485,0.362,2.935,0.866,4.423,1.214
	c2.211,0.517,4.441,0.95,6.662,1.422c0.613,0.13,1.225,0.382,1.837,0.38c1.325-0.003,2.56,0.408,3.806,0.719
	c2.737,0.684,5.457,1.443,8.163,2.24c2.293,0.675,4.567,1.421,6.832,2.186c1.336,0.451,2.614,1.085,3.964,1.487
	c1.995,0.594,3.984,1.191,5.893,2.03c0.718,0.316,1.427,0.657,2.16,0.934c3.376,1.275,6.781,2.477,10.132,3.811
	c3.024,1.204,5.997,2.535,8.983,3.834c1.114,0.485,2.2,1.035,3.299,1.555c0.432,0.204,0.862,0.395,1.276-0.038
	c-0.412-0.677-0.909-1.105-1.737-1.517c-3.544-1.763-7.105-3.493-10.628-5.298c-4.618-2.367-9.384-4.33-14.403-5.681
	c-2.039-0.549-4.116-0.971-6.071-1.834c-0.731-0.323-1.595-0.372-2.408-0.478c-1.873-0.243-3.709-0.625-5.513-1.19
	c-1.76-0.552-3.52-1.114-5.308-1.56c-2.737-0.683-5.495-1.283-8.249-1.894c-2.95-0.654-5.896-1.325-8.861-1.904
	c-2.363-0.461-4.612-1.258-6.877-2.033c-1.738-0.594-3.495-1.132-5.247-1.686C61.172,209.933,61.101,210.012,61,210.077z
	 M252.095,141.386c0.39,0.407,0.777,0.812,1.136,1.187c-0.402,0.345-0.722,0.62-1.043,0.896c1.472-0.445,1.496-1.046,2.01-1.619
	C253.461,141.03,253.127,140.965,252.095,141.386z M264.147,144.853c-0.447-0.709-0.829-1.316-1.209-1.918
	c0.443,0.18,0.801,0.4,1.003,0.659c0.212,0.272,0.274,0.581,0.417,0.908c0.357-0.079,0.561-0.125,0.857-0.19
	c-0.539-0.747-1.052-1.457-1.566-2.169c-0.938,0.248-1.599,0.423-2.38,0.63c0.513,0.655,1.029,1.315,1.613,2.061
	C263.1,144.836,263.515,144.843,264.147,144.853z M259.252,145.558c0.497-0.049,0.945-0.094,1.512-0.15
	c-0.493-0.818-0.967-1.604-1.438-2.386c-1.569,0.19-1.883,0.487-1.603,1.257C259.127,144.451,259.615,144.935,259.252,145.558z
	 M257.916,148.523c3.137-0.337,6.219-0.668,9.57-1.027c-0.033-0.591-0.062-1.116-0.087-1.565c-3.395-0.02-5.823,1.09-8.465,1.725
	C258.593,147.948,258.298,148.198,257.916,148.523z M255.813,142.81c0.935-0.875,1.01-1.503,0.144-1.787
	c-0.41-0.134-0.848-0.377-1.892-0.032C255.624,141.352,256.405,141.903,255.813,142.81z M256.168,146.168
	c0.106-0.025,0.212-0.051,0.318-0.076c-0.507-0.703-1.01-1.402-1.551-2.153c-0.6,0.187-1.113,0.347-1.62,0.505
	c0.144,0.744,0.28,1.444,0.416,2.148c-0.096,0.014-0.192,0.029-0.288,0.043c0.196,0.37,0.392,0.741,0.597,1.128
	c0.301-0.039,0.497-0.051,0.673-0.093c0.135-0.032,0.244-0.102,0.169-0.069c-0.19-0.426-0.352-0.788-0.513-1.148
	c0.099-0.021,0.198-0.041,0.297-0.062c0.182,0.13,0.365,0.261,0.548,0.392c0.115-0.021,0.23-0.042,0.344-0.063
	c-0.017-0.41-0.035-0.819-0.052-1.226c0.059-0.013,0.118-0.026,0.178-0.039C255.844,145.692,256.006,145.93,256.168,146.168z
	 M258.46,145.786c0.079-0.285,0.159-0.569,0.262-0.939c-0.35-0.116-0.784-0.259-1.217-0.402c-0.079,0.037-0.157,0.075-0.236,0.112
	c0.316,0.42,0.633,0.841,0.951,1.264C258.299,145.81,258.38,145.798,258.46,145.786z M267.596,142.75
	c-0.393-0.101-0.839-0.216-1.283-0.331c0.313,0.505,0.163,1.134,1.64,1.38c0.098-0.317,0.154-0.499,0.193-0.624
	c0.361-0.101,0.724-0.164,0.744-0.216c0.037-0.1-0.05-0.227-0.206-0.284c-0.914-0.332-1.844-0.653-2.799-0.957
	c-0.188-0.06-0.531-0.037-1.033-0.066c0.231,0.281,0.368,0.447,0.492,0.598C267.529,142.467,267.529,142.467,267.596,142.75z
	 M256.104,156.126c-0.412-0.344-0.698-0.582-1.011-0.843c0.22-0.121,0.438-0.24,0.735-0.404c-0.82-0.533-2.421-0.794-2.009-1.641
	c-0.426-0.167-0.77-0.301-1.113-0.435c-0.3,0.059-0.599,0.118-0.907,0.178c-0.146-0.163-0.263-0.294-0.447-0.499
	c-0.369,0.191-0.637,0.33-0.888,0.46c0.566,0.328,1.104,0.594,1.533,0.901c0.423,0.303,0.735,0.646,1.182,1.05
	c0.096,0.011,0.404,0.048,0.757,0.091c-0.145,0.132-0.248,0.226-0.269,0.245c-0.949-0.222-1.824-0.427-2.932-0.687
	c-0.136,0.78-0.217,1.499-0.407,2.231c-0.093,0.358-0.393,0.73-0.576,1.055c-0.621,0.008-0.966,0.012-1.58,0.02
	c-0.046,0.282-0.082,0.508-0.137,0.845c0.049-0.02-0.177,0.073-0.423,0.175c-0.146-0.188-0.262-0.337-0.378-0.487
	c-0.095,0.008-0.189,0.015-0.284,0.023c-0.262,0.389-0.525,0.781-0.789,1.173c0.088,0.15,0.176,0.299,0.264,0.448
	c-0.223,0.052-0.447,0.104-0.67,0.156c0.136-0.203,0.271-0.403,0.407-0.605c-0.099-0.168-0.198-0.337-0.297-0.505
	c-0.144-0.008-0.271-0.015-0.387-0.021c0.116-0.016,0.231-0.032,0.347-0.047c0.013,0.023,0.027,0.046,0.04,0.068
	c0.097,0.005,0.196,0.011,0.327,0.018c0.194-0.361,0.368-0.683,0.524-0.973c0.374-0.307,0.745-0.596,1.083-0.891
	c0.361-0.314,0.692-0.632,1.111-1.017c-0.093-0.13-0.233-0.324-0.304-0.424c2.031-1.361,2.209-1.752,1.139-2.211
	c-0.253,0.07-0.515,0.142-1.078,0.297c0.461-0.311,0.701-0.473,0.94-0.634c-0.047-0.015-0.093-0.031-0.14-0.046
	c-0.199,0.081-0.399,0.162-0.668,0.271c0.229-0.223,0.424-0.413,0.623-0.607c-0.341-0.168-0.648-0.319-0.939-0.462
	c-0.043-0.223-0.082-0.431-0.149-0.78c-0.849,0.441-1.444,0.75-2.036,1.057c-0.404-0.134-0.838-0.278-1.316-0.436
	c-0.565,0.201-1.013,0.375-1.488,0.525c-0.481,0.152-0.989,0.281-1.558,0.44c-0.13,0.136-0.284,0.298-0.476,0.499
	c0.257,0.014,0.462,0.026,0.666,0.037c0.002,0,0.004,0,0.006-0.001c0.002,0.001,0.004,0.002,0.006,0.003
	c0.906,0.373,1.868-0.348,2.81-0.34c0.382,0.128,0.764,0.256,1.314,0.44c0.081-0.235,0.125-0.361,0.171-0.493
	c0.495-0.105,1.732,0.44,1.637,0.768c-0.342,0.066-0.697,0.134-1.052,0.202c0.018-0.027,0.036-0.055,0.054-0.082
	c-0.815-0.031-1.63-0.062-2.553-0.098c-0.202,0.075-0.476,0.178-0.659,0.246c-0.542-0.017-1.054-0.034-1.598-0.051
	c0.108-0.081,0.26-0.195,0.45-0.338c-0.193-0.085-0.384-0.169-0.574-0.253c-0.002-0.001-0.003-0.001-0.005-0.001
	c-0.002,0-0.005,0-0.007,0c-0.536,0.06-1.072,0.12-1.608,0.18c-1.927,0.435-1.865,1.153,0.247,1.79
	c1.114-0.304,1.862-0.116,2.436,0.221c1.014-0.338,1.865-0.819,3.046-0.692c0.394,0.409-0.148,0.641-1.017,0.784
	c-0.774,0.127-1.52,0.263-1.824,0.677c-0.399,0.543-0.744,1.091-1.103,1.641c-0.063,0.096-0.066,0.194-0.083,0.247
	c0.596,0.108,1.031,0.187,1.436,0.26c0.062,0.438-1.185,0.941-0.278,1.3c0.328-0.035,0.684-0.072,1.068-0.113
	c0.003,0.453,0.005,0.871,0.008,1.427c1.338-0.524,2.356-0.922,3.522-1.379c0.052-0.101,0.149-0.293,0.291-0.573
	c0.927-0.03,1.801-0.059,2.951-0.096c0.238-0.526,0.464-1.023,0.673-1.486c0.572-0.129,0.994-0.225,1.787-0.404
	c-0.732-0.322-1.277-0.562-2.063-0.908c0.04-0.221,0.108-0.599,0.176-0.976c0.144-0.02,0.288-0.041,0.432-0.061
	c0.395,0.33,0.792,0.663,1.227,1.026c0.027-0.003,0.054-0.007,0.081-0.01c0.441-0.195,0.725-0.32,0.995-0.44
	C254.961,156.143,255.376,156.137,256.104,156.126z M191.276,141.427c1.007,0.253,1.78-0.123,2.516-0.333
	c0.123-0.24,0.232-0.452,0.352-0.685c-0.396,0.017-0.743,0.032-1.133,0.048C192.428,140.784,191.875,141.093,191.276,141.427z
	 M191.234,138.373c-1.052,1.016-0.58,1.703,0.7,2.309c-0.67,0.01-1.339,0.019-2.22,0.032c0.07,0.282,0.126,0.511,0.187,0.754
	c1.071-0.37,1.911-0.66,2.924-1.009C190.734,140.152,191.507,139.125,191.234,138.373z M204.832,135.068
	c-0.838,0.385-1.546,0.709-2.332,1.07c0.45,0.083,0.769,0.142,1.114,0.206c0.158-0.089,0.263-0.148,0.344-0.193
	c0.62,0.114,0.932,0.444,2.22,0.075C205.165,135.961,205.911,135.215,204.832,135.068z M272.021,145.193
	c1.452-0.498,2.946-0.969,4.325-1.499c0.83-0.319,0.7-0.654-0.023-0.941c-0.501,0.425-0.952,0.808-1.418,1.203
	c-1.065,0.355-2.106,0.702-3.15,1.049C271.843,145.067,271.932,145.13,272.021,145.193z M273.846,142.479
	c-1.047,0.645-2.046,1.26-3.211,1.978C273.08,143.897,274.638,142.964,273.846,142.479z M196.147,139.037
	c0.464,0.127,0.836,0.229,1.327,0.363c0.604-0.227,1.24-0.466,1.979-0.743c-0.581-0.132-0.883-0.201-1.282-0.292
	C197.527,138.579,196.843,138.806,196.147,139.037z M263.103,148.09c-2.203,0.216-4.388,0.565-6.45,1.169
	c-0.599,0.175-1.098,0.447-1.644,0.675c0.072,0.044,0.144,0.087,0.215,0.131c0.269-0.062,0.537-0.123,0.758-0.174
	c0.081,0.113,0.146,0.204,0.199,0.277c0.509-0.211,0.945-0.391,1.38-0.571c0.061,0.031,0.121,0.063,0.182,0.095
	c-1.386,0.605-2.779,1.212-4.204,1.834c-0.209-0.094-0.369-0.167-0.701-0.317c-0.199,0.534-0.376,0.969-0.505,1.404
	c-0.019,0.065,0.187,0.118,0.296,0.174c0.017,0.009,0.057,0.007,0.091,0.008c0.355-0.104,0.802-0.18,1.036-0.319
	c2.655-1.575,5.91-2.732,9.716-3.632c-0.115,0.103-0.19,0.169-0.35,0.312c0.832-0.224,1.542-0.416,2.252-0.607
	c0.02,0.019,0.041,0.038,0.061,0.057c-0.932,0.4-1.866,0.8-2.545,1.092c-0.75,0.161-1.272,0.223-1.66,0.369
	c-0.659,0.247-1.242,0.545-1.845,0.827c-0.378,0.177-0.732,0.365-1.098,0.549c0.047,0.02,0.093,0.04,0.14,0.061
	c0.365-0.109,0.729-0.218,1.137-0.339c-1.264,0.62-2.475,1.215-3.692,1.812c1.862-0.655,3.594-1.341,5.308-2.03
	c0.654-0.263,1.3-0.53,1.918-0.808c0.73-0.329,1.346-0.735,2.152-0.992c1.221-0.389,1.616-0.909,2.166-1.364
	C265.951,147.884,264.529,147.951,263.103,148.09z M237.087,145.702c0.179-0.477,0.355-0.948,0.531-1.417
	c-0.564-0.034-1.123-0.067-1.658-0.099C234.751,145.057,235.444,145.817,237.087,145.702z M243.266,147.469
	c-0.335-0.247-0.624-0.461-0.884-0.652c-0.634,0.283-1.276,0.571-1.917,0.858C241.424,148.109,242.627,147.984,243.266,147.469z
	 M216.187,170.791c-0.423,0.152-0.892,0.32-1.554,0.557c0.211,0.321,0.359,0.628,0.606,0.903c0.415,0.461,0.186,0.899-0.886,1.344
	c-0.374,0.155-0.743,0.313-1.108,0.467c-0.361-0.102-0.678-0.191-1.019-0.287c0.095-0.234,0.185-0.453,0.285-0.7
	c0.346,0.115,0.598,0.198,1.136,0.376c-0.011-0.404-0.018-0.629-0.025-0.881c-0.694-0.003-1.346,0.04-1.892-0.019
	c-1.065-0.117-1.724,0.047-2.237,0.695c-0.263,0.401-0.526,0.804-0.865,1.322c0.403,1.428,2.528,1.816,5.895,0.973
	c0.556-0.139,1.137-0.221,1.744-0.336c1.341-0.693,1.341-0.693,2.41-2.021C219.89,171.677,219.064,170.872,216.187,170.791z
	 M243.539,149.013c-0.757-0.059-1.43-0.111-2.089-0.162c-0.481,0.173-0.89,0.32-1.19,0.428c0.246,0.449-0.99,1.205,0.437,1.235
	c2.506-0.175,2.834-1.125,4.141-1.847C244.234,148.828,243.852,148.929,243.539,149.013z M250.097,151.365
	c-1.238,0.74-1.122,1.227,0.248,1.31c0.14-0.167,0.279-0.334,0.449-0.537c-0.386,0.004-0.63,0.007-0.866,0.01
	C249.982,151.896,250.029,151.676,250.097,151.365z M244.793,150.441c-0.9,0.004-1.798-0.182-2.793,0.318
	c0.104,0.163,0.254,0.288,0.267,0.433c0.083,0.958,0.092,0.965,2.288,0.75C245.854,151.338,245.887,151.141,244.793,150.441z
	 M239.221,147.213c0.092,0.295,0.168,0.539,0.27,0.867c-0.244,0.284-0.57,0.666-0.898,1.049c-0.088-0.001-0.175-0.003-0.263-0.004
	c0.143-0.237,0.286-0.474,0.428-0.71c-0.041-0.007-0.083-0.014-0.124-0.021c-0.309,0.231-0.618,0.462-0.985,0.737
	c-0.292-0.056-0.512-0.099-0.689-0.133c-0.723,0.339-1.402,0.657-2.097,0.983c0.451,0.39,1.012,0.434,2.068,0.121
	c0.226,0.143,0.457,0.288,0.703,0.443c-0.131,0.076-0.258,0.149-0.384,0.222c1.455,0.553,1.252,1.496,1.401,2.396
	c-0.154,0.021-0.258,0.045-0.347,0.046c-0.109,0-0.206-0.019-0.346-0.035c-0.367,0.267-0.722,0.526-0.922,0.673
	c0.7,0.76,1.331,1.445,1.888,2.049c-0.571,0.669-1.33,1.072-2.453,1.259c-0.972,0.162-1.957,0.252-3.124,0.397
	c0.292-0.192,0.546-0.359,0.85-0.559c-0.314-0.029-0.593-0.055-0.868-0.08c-0.004-0.293-0.008-0.582-0.013-0.899
	c-0.26-0.018-0.491-0.034-0.773-0.054c0.068-0.104,0.137-0.211,0.241-0.371c0.576,0.029,1.081,0.053,1.615,0.08
	c-0.534-1.125-2.477-1.672-5.07-1.405c-1.359,0.14-2.745,0.399-4.092,0.513c-0.73,0.062-1.402-0.069-2.167-0.117
	c0.203-0.211,0.334-0.347,0.469-0.486c-0.584-0.277-1.164-0.552-1.713-0.812c-0.566-0.034-1.105-0.066-1.841-0.109
	c-0.199,0.309-0.414,0.642-0.677,1.051c-0.374,0.091-0.873,0.212-1.439,0.349c-0.513,0.321-1.079,0.676-1.647,1.032
	c0.061,0.026,0.122,0.053,0.183,0.079c0.407-0.179,0.813-0.359,1.299-0.573c0.126,0.015,0.352,0.041,0.633,0.074
	c-0.079,0.219-0.164,0.454-0.249,0.69c0.075,0.002,0.15,0.004,0.225,0.006c0.127-0.15,0.254-0.299,0.404-0.475
	c0.469,0.01,0.969,0.02,1.572,0.033c0.282,0.286-0.947,0.938,0.329,1.14c0.27-0.329-0.357-0.698,0.686-0.858
	c0.425,0.72,0.831,1.408,1.23,2.083c2.459,0.423,4.926,0.846,7.639,1.313c0.574,0.272,1.339,0.635,2.152,1.021
	c-0.141,0.047-0.416,0.139-0.792,0.265c0.496,0.173,0.97,0.339,1.478,0.516c-0.43,0.358-0.846,0.738-1.337,1.105
	c-0.472,0.352-1.021,0.689-1.538,1.034c-0.107-0.019-0.213-0.038-0.319-0.058c0.37-0.297,0.74-0.593,1.108-0.889
	c-0.055-0.013-0.109-0.025-0.164-0.038c-0.288,0.163-0.577,0.326-0.997,0.564c-0.104-0.165-0.176-0.279-0.261-0.413
	c-0.263,0.063-0.543,0.13-0.824,0.197c0.077,0.013,0.154,0.026,0.231,0.039c-0.626,0.574-1.254,1.151-1.885,1.73
	c-0.195,0.023-0.394,0.046-0.706,0.082c0.371-0.393,0.695-0.736,1.018-1.078c-0.093-0.018-0.186-0.037-0.279-0.055
	c-1.171,1.162-4.318,1.802-4.437,3.274c-0.111-0.014-0.221-0.029-0.332-0.043c-0.05-0.095-0.1-0.19-0.142-0.271
	c-0.661,0.318-1.335,0.641-2.065,0.992c-1.025,1.235-0.795,1.849,0.809,1.86c-0.063-0.176-0.123-0.341-0.189-0.527
	c0.322-0.214,0.647-0.43,1.257-0.835c0.451,0.532,0.802,0.947,1.237,1.462c-0.836,0.255-1.514,0.462-2.173,0.662
	c0.062,0.033,0.267,0.142,0.562,0.299c-1.207,0.417-2.138,0.343-2.729,0.077c-1.435-0.645-2.173-1.686-0.215-3.275
	c-0.279,0.091-0.49,0.16-0.859,0.281c0.124-0.21,0.21-0.356,0.296-0.502c-0.121-0.008-0.243-0.017-0.364-0.025
	c-0.688,0.728-1.379,1.46-1.979,2.094c0.328,0.416,0.566,0.718,0.808,1.024c-0.653,0.649-1.658,0.955-2.833,1.163
	c-0.342-0.554-0.268-1.067,0.562-1.703c0.608-0.466,0.896-0.997,1.27-1.498c0.646-0.866,1.673-1.611,3.285-2.236
	c0.752-0.292,1.398-0.658,2.255-1.069c0.089,0.23,0.131,0.342,0.173,0.45c0.682-0.271,1.385-0.528,2.021-0.819
	c0.132-0.06,0.02-0.247,0.021-0.446c-0.659,0.224-1.109,0.377-1.588,0.54c-0.106-0.08-0.188-0.141-0.287-0.216
	c-0.531,0.279-1.053,0.554-1.577,0.829c-0.075-0.014-0.149-0.028-0.224-0.042c0.054-0.12,0.108-0.241,0.102-0.228
	c-0.526,0.146-1.23,0.341-1.933,0.536c-0.044-0.025-0.088-0.049-0.132-0.074c0.318-0.207,0.635-0.414,1.053-0.686
	c-0.328-0.018-0.55-0.03-0.834-0.045c0.014-0.118,0.03-0.247,0.058-0.477c-0.837,0.023-1.703,0.047-2.615,0.073
	c0.067-0.068,0.228-0.231,0.524-0.529c-0.721,0.1-1.283,0.178-2.208,0.307c0.662-0.285,1.072-0.461,1.551-0.668
	c0.05-0.107,0.123-0.26,0.207-0.437c-0.386-0.047-0.792-0.096-1.479-0.178c0.622-0.143,0.924-0.213,1.263-0.291
	c-0.312-0.063-0.596-0.12-1.047-0.21c0.399-0.255,0.748-0.477,1.121-0.715c-0.414-0.029-0.861-0.06-1.308-0.091
	c0.018-0.035,0.035-0.071,0.052-0.106c0.251-0.049,0.503-0.099,0.871-0.171c-0.224-0.087-0.408-0.158-0.591-0.23
	c0.114-0.023,0.227-0.046,0.341-0.07c0.006-0.522,0.012-1.041,0.019-1.558c-0.167,0.025-0.334,0.05-0.501,0.075
	c0.028,0.213,0.057,0.427,0.095,0.72c-0.652,0.621-0.87,1.424-2.762,1.953c-1.242-0.579-2.663-0.917-4.951-0.159
	c-2.001,0.059-2.899-0.509-3.855-1.091c1.305-0.975,2.346-1.951,4.41-2.691c0.182,0.059,0.336,0.109,0.49,0.159
	c0.061-0.032,0.133-0.061,0.175-0.094c1.165-0.909,2.281-1.818,3.484-2.704c0.445-0.328,1.045-0.664,1.697-0.911
	c0.531-0.201,1.247-0.276,1.914-0.323c0.173-0.094,0.346-0.188,0.601-0.327c-0.315-0.019-0.579-0.035-0.919-0.056
	c-0.095-0.158-0.203-0.338-0.328-0.546c2.034-0.601,2.652,0.186,4.107,0.183c-0.509-0.243-1.017-0.486-1.545-0.739
	c0.686-0.377,1.227-0.675,1.767-0.971c-0.456-0.117-0.433-0.092-2.011,0.372c-0.724,0.213-1.558,0.303-2.121,0.408
	c-0.963-0.294-1.805-0.551-2.639-0.806c-0.334,0.123-0.524,0.193-0.845,0.312c-0.264-0.88-0.515-1.719-0.756-2.525
	c-0.002,0,0.184,0.005,0.376,0.011c-0.383-0.283-0.742-0.549-1.201-0.889c-0.06,0.244-0.089,0.363-0.12,0.488
	c-1.613-0.044-3.146-0.087-4.888-0.135c-0.076-0.085-0.243-0.272-0.409-0.458c0.411-0.171,0.793-0.33,1.378-0.573
	c0.237,0.09,0.541,0.204,0.804,0.304c1.157-0.065,2.309-0.13,3.681-0.208c-0.316-0.174-0.514-0.283-0.665-0.366
	c-0.837,0.01-1.589,0.019-2.339,0.028c0.046-0.067,0.092-0.134,0.138-0.201c0.84-0.024,1.681-0.047,2.494-0.07
	c0.409-0.13,0.805-0.255,1.148-0.364c0.001-0.056,0.001-0.141,0.002-0.225c0.558-0.03,1.117-0.061,1.582-0.086
	c0.127-0.153,0.317-0.38,0.605-0.725c0.946,0.098,1.742,0.18,2.431,0.251c-0.113-0.068-0.316-0.189-0.586-0.352
	c0.407-0.099,0.682-0.166,0.963-0.234c-0.227-0.128-0.473-0.268-0.866-0.49c0.525,0.009,0.805,0.013,1.112,0.018
	c0.206-0.082,0.429-0.171,0.674-0.269c-0.053-0.096-0.105-0.19-0.177-0.322c0.367-0.032,0.652-0.058,0.946-0.084
	c-0.025-0.066-0.045-0.119-0.06-0.16c0.882-0.18,1.698-0.347,2.416-0.494c0.965,0.113,1.918,0.224,2.873,0.336
	c-0.018,0.027-0.036,0.054-0.054,0.08c0.448-0.062,0.896-0.124,1.343-0.187c0.012-0.028,0.024-0.055,0.036-0.083
	c-0.297,0.014-0.595,0.029-1.185,0.057c0.54-0.189,0.836-0.293,1.185-0.415c-0.334-0.197-0.661-0.39-0.988-0.583
	c0.126-0.059,0.253-0.117,0.379-0.175c0.772,0.225,1.546,0.452,2.547,0.744c0.153-0.305,0.233-0.465,0.344-0.687
	c0.645,0.081,1.301,0.163,1.912,0.239c0.11,0.277,0.203,0.512,0.297,0.748c-0.128,0.03-0.256,0.06-0.385,0.091
	c-0.148-0.113-0.295-0.225-0.442-0.338c-0.093,0.03-0.187,0.059-0.28,0.089c0.343,0.296,0.687,0.592,1.07,0.921
	c0.486-0.17,0.773-0.271,1.059-0.371c1.096,0.468,2.537,0.784,6.38-0.629c-1.919,0.981-3.13,1.929-1.72,2.744
	c0.146-0.007,0.293-0.013,0.439-0.02c-0.146-0.299-0.291-0.598-0.436-0.895c0.121-0.044,0.242-0.088,0.364-0.131
	c0.724,0.584,1.55,1.111,3.701,0.858c-1.013,0.442-1.244,0.469-2.817,0.39c0.977,0.296,1.665,0.26,2.896-0.123
	c0.424-0.132,0.887-0.23,1.331-0.343c-0.363-0.011-0.726-0.022-1.197-0.036c-0.152-0.123-0.337-0.272-0.694-0.56
	c0.462-0.077,0.692-0.116,0.922-0.154c0.006,0.04,0.013,0.08,0.019,0.119c0.127-0.139,0.255-0.278,0.392-0.427
	c1.057,0.022,0.598,0.415,0.573,0.697c-0.01,0.121-0.011,0.24-0.015,0.36c0.216,0.011,0.528-0.015,0.631,0.041
	c0.389,0.211,0.71,0.449,1.13,0.726C240.826,147.154,240.358,147.341,239.221,147.213z M225.581,163.958
	c-0.178-0.152-0.324-0.276-0.536-0.457c-0.651,0.606-2.374,0.856-2.624,1.668C223.646,164.699,224.616,164.327,225.581,163.958z
	 M222.228,158.479c0.22,0.188,0.44,0.376,0.66,0.565c0.1-0.055,0.2-0.109,0.299-0.164c1.464,0.305,2.935,0.612,4.412,0.92
	c0.13-0.091,0.261-0.182,0.391-0.274c-0.594-0.118-1.186-0.237-1.899-0.379c-1.066-0.268-2.254-0.566-3.437-0.863
	C222.513,158.35,222.371,158.414,222.228,158.479z M234.644,152.887c-0.098,0.037-0.197,0.075-0.295,0.112
	c-0.068,0.103-0.136,0.206-0.226,0.343c-0.34-0.013-0.625-0.025-0.792-0.031c0.516,0.341,1.051,0.694,1.667,1.101
	c-0.16-0.291-0.289-0.524-0.417-0.756c0.061-0.012,0.122-0.024,0.183-0.037c0.406,0.172,0.813,0.345,1.22,0.518
	c0.091-0.047,0.183-0.093,0.274-0.14C235.718,153.626,235.18,153.256,234.644,152.887z M228.218,167.1
	c-0.511-0.134-0.92-0.242-1.446-0.381c-0.271,0.228-0.49,0.412-0.742,0.624c0.219,0.049,0.359,0.068,0.466,0.107
	c0.128,0.047,0.226,0.11,0.342,0.168c-1.028,0.437-1.606,0.471-1.917,0.142c-0.348-0.368,0.428-1.67,1.179-2.075
	c1.254-0.675,2.468-1.361,3.69-2.037c-0.022-0.081-0.046-0.164-0.09-0.324c-0.431,0.226-0.738,0.389-1.05,0.55
	c-1.333,0.688-2.619,1.407-4.042,2.061c-0.98,0.451-1.427,0.901-1.307,1.385c0.147,0.592,0.485,1.145,1.632,1.453
	c0.132-0.19,0.198-0.284,0.265-0.381c0.394,0.061,0.752,0.116,1.075,0.166c0.574-0.229,1.073-0.428,1.696-0.676
	C228.048,167.636,228.137,167.355,228.218,167.1z M231.005,162.854c-0.403,0.269-0.806,0.538-1.21,0.808
	c0-0.001-0.001-0.003-0.001-0.005c-0.274,0.495-1.525,0.981-0.909,1.552c0.664-0.544,2.395-0.599,2.641-1.455
	c-0.548,0.163-0.885,0.263-1.104,0.328c0.306-0.365,0.645-0.768,0.982-1.17C231.271,162.893,231.138,162.873,231.005,162.854z
	 M207.383,133.913c-0.11,0.01-0.219,0.019-0.329,0.029c-0.178,0.2-0.357,0.401-0.53,0.596c-0.109-0.019-0.309-0.054-0.566-0.099
	c-0.288,0.127-0.54,0.238-0.907,0.399c1.156,0.152,0.676,0.955,2.348,0.823c0.301-0.15,0.624-0.312,0.833-0.416
	C207.931,134.774,207.656,134.342,207.383,133.913z M250.753,146.054c-0.003,0.492,0.055,0.982-0.028,1.486
	c-0.08,0.485-0.309,0.986-0.473,1.483c0.115,0.003,0.231,0.006,0.346,0.009c0.298-0.108,0.596-0.216,0.844-0.306
	c-0.091-0.942-0.177-1.836-0.263-2.724C251.037,146.02,250.895,146.037,250.753,146.054z M237.865,159.683
	c-0.249-0.03-0.425-0.052-0.717-0.088c-0.604,0.317-1.227,0.644-1.852,0.972c0.071,0.055,0.142,0.11,0.213,0.166
	c-0.761,0.153-1.522,0.306-2.388,0.479c-0.28,0.352-1.412,0.689-1.131,1.294c0.677-0.453,1.162-0.777,1.645-1.1
	c0.055,0.012,0.111,0.024,0.166,0.035c-0.179,0.159-0.357,0.319-0.624,0.557c0.367-0.054,0.583-0.086,1.152-0.169
	c-1.531,1.434-2.997,2.807-4.557,4.267c0.414-0.213,0.689-0.356,0.965-0.498c0.125,0.012,0.249,0.024,0.374,0.037
	c-1.689,0.775-1.926,1.604-2.154,2.449c-0.046,0.17-0.399,0.363-0.593,0.549c-0.128,0.123-0.223,0.25-0.412,0.467
	c0.608-0.166,0.998-0.273,1.728-0.472c-0.586,0.289-0.884,0.436-1.349,0.665c1.572-0.162,2.178-0.671,2.683-1.196
	c0.754-0.784,1.392-1.585,3.155-2.122c-0.354,0.045-0.709,0.091-1.052,0.134c-0.241-0.087-0.475-0.172-0.863-0.312
	c0.768-0.167,1.413-0.307,2.057-0.447c0.012,0.033,0.024,0.065,0.036,0.098c-0.188,0.071-0.376,0.143-0.727,0.276
	c2.991-0.054,3.824-1.579,5.879-2.093c0.099-0.183,0.174-0.323,0.192-0.356c2.05-0.91,2.964-1.943,4.196-2.951
	c-0.925-0.056-1.706-0.103-2.558-0.154c0.036,0.132,0.081,0.296,0.133,0.484c-0.298,0.135-0.592,0.267-0.943,0.426
	c-0.259-0.142-0.47-0.258-0.682-0.374c-2.157,1.243-2.553,2.808-5.38,4.057c-0.421-0.108-1.137-0.158-1.237-0.354
	c-0.105-0.206,0.284-0.571,0.631-0.83c0.346-0.258,0.851-0.532,1.38-0.691c1.57-0.472,2.273-1.135,2.754-1.848
	c0.219-0.324,0.281-0.651,0.414-0.976c-0.089,0.001-0.177,0.003-0.266,0.004c0.148-0.155,0.296-0.31,0.439-0.46
	c1.205-0.189,1.473-0.445,0.881-0.822c-0.427,0.144-0.855,0.287-1.281,0.431C238.071,159.369,237.973,159.519,237.865,159.683z
	 M234.381,157.715c-0.032,0.05-0.064,0.1-0.095,0.15c0.359,0.088,0.719,0.177,1.069,0.263c-0.001,0.11-0.003,0.242-0.005,0.421
	c0.719-0.175,1.3-0.317,2.026-0.493c-0.083-0.129-0.156-0.242-0.241-0.374c0.299-0.199,0.595-0.396,0.997-0.663
	C236.749,157.276,235.565,157.495,234.381,157.715z M231.79,158.565c0.239,0.739,1.14,1.11,2.747,1.04
	c0.063,0.146,0.11,0.254,0.163,0.375c1.56-0.265,1.665-0.776,1.777-1.23c-1.352,0.035-2.592,0.067-3.833,0.1
	C232.359,158.755,232.074,158.66,231.79,158.565z M227.38,158.451c0.347-0.1,0.696-0.2,1.044-0.299
	c0.315,0.117,0.733,0.18,1.018,0.094c0.303-0.091,0.48-0.321,0.785-0.544c-0.325,0.007-0.472,0.01-0.734,0.016
	c0.497-0.795-0.866-1.874-2.138-1.807c-0.066-0.201-0.126-0.385-0.219-0.667c-0.503,0.258-0.744,0.382-0.99,0.508
	c0.012-0.11,0.025-0.224,0.038-0.338c-0.099-0.011-0.198-0.022-0.297-0.033c-0.331,0.237-0.663,0.474-1.067,0.763
	c-0.505,0.133-1.122,0.295-1.775,0.466c0.124,0.127,0.214,0.22,0.307,0.316c-0.235,0.058-0.4,0.099-0.644,0.159
	C223.958,157.765,225.117,158.424,227.38,158.451z M276.922,144.563c-1.613,0.494-3.256,0.998-4.883,1.497
	c0.663,0.142,1.313,0.002,3.863-0.846C276.955,144.865,276.955,144.865,276.922,144.563z M273.033,146.389
	c1.34,0.025,2.374-0.24,3.293-0.576c0.345-0.127,0.428-0.41,0.63-0.621c-0.091-0.009-0.182-0.018-0.273-0.027
	C275.543,145.547,274.4,145.93,273.033,146.389z M268.225,148.688c-0.071-0.141-0.141-0.281-0.212-0.422
	c-0.023,0.134-0.046,0.268-0.093,0.541c1.732-0.083,3.412-0.164,4.934-0.237c0.329-0.414,0.578-0.728,0.817-1.03
	C271.859,147.922,270.043,148.305,268.225,148.688z M249.811,141.361c0.832-0.084,1.664-0.168,2.603-0.263
	c0.377-0.661,2.539-0.76,2.71-1.548c-0.543-0.051-1.093-0.102-1.751-0.163c0.387-0.25,0.686-0.478,1.068-0.681
	c0.618-0.329,0.79-0.611,0.226-0.914c-0.768,0.342-1.498,0.668-2.296,1.023c-0.451-0.229-0.776-0.394-1.182-0.6
	c-0.609,0.28-1.142,0.526-1.642,0.755c-0.467,0.003-0.859,0.005-1.431,0.008c-0.263,0.361-0.5,0.686-0.748,1.027
	c0.614-0.135,1.049-0.231,1.479-0.326c0.15,0.212,0.25,0.355,0.427,0.605c0.557-0.449,0.963-0.777,1.368-1.104
	c0.081,0.003,0.163,0.006,0.244,0.009c0.019,0.203,0.038,0.406,0.06,0.641c0.36-0.065,0.639-0.115,0.917-0.165
	c0.04,0.043,0.079,0.086,0.119,0.128c-1.614,0.55-3.159,1.174-5.307,1.267c0.352,0.27,0.632,0.484,0.879,0.674
	c-0.17,0.058-0.306,0.104-0.683,0.232c0.882,0.079,1.557,0.139,2.337,0.209c-0.4,0.151-0.647,0.243-0.851,0.32
	c-0.027,0.374-0.051,0.712-0.065,0.906c-0.66,0.483-1.242,0.841-1.642,1.219c-0.394,0.372-0.602,0.763-0.949,1.222
	c-0.308-0.098-0.475-0.151-0.512-0.163c0.182-0.348,0.324-0.618,0.465-0.887c0.596-0.393,1.462-0.852,1.495-1.222
	c0.055-0.609-0.422-1.158-0.654-1.686c-0.637,0.023-1.11,0.04-1.582,0.057c0.104-0.171,0.213-0.35,0.339-0.559
	c-0.446-0.017-0.818-0.03-1.108-0.041c-0.647,0.381-1.23,0.724-1.841,1.084c-0.192-0.06-0.307-0.096-0.421-0.132
	c-1.333,0.403-4.098,0.25-4.625-0.266c0.518,0.051,1.017,0.101,1.517,0.151c0.077-0.033,0.154-0.067,0.231-0.1
	c-0.128-0.057-0.255-0.114-0.383-0.171c0.872,0.045,1.101,0.451,2.25,0.155c-0.242-0.211-0.456-0.398-0.669-0.584
	c0.068-0.021,0.137-0.042,0.205-0.062c0.263,0.137,0.527,0.274,0.854,0.444c0.441-0.048,0.829-0.09,1.236-0.134
	c0.103-0.314,0.189-0.574,0.29-0.882c-0.202-0.076-0.449-0.168-0.717-0.268c-0.423,0.211-0.729,0.364-1.01,0.504
	c-0.951,0.026-1.839,0.049-2.94,0.079c-0.629,0.333-1.359,0.72-2.302,1.219c0.863,0.155,1.574,0.282,2.242,0.401
	c0.09,0.238,0.176,0.467,0.252,0.668c0.752-0.048,1.282-0.082,1.781-0.114c0.207,0.104,0.373,0.188,0.549,0.276
	c0.905-0.292,1.705-0.778,2.791-0.513c0.74,0.421-0.996,1.3,0.595,1.549c-0.287,0.219-0.471,0.368-0.676,0.513
	c-0.698,0.494-0.802,0.944,0.092,1.148c1,0.229,1.692,0.547,2.142,0.998c0.012,0.012,0.14-0.009,0.119-0.007
	c1.005-0.873,1.981-1.721,3.03-2.632c0.228-0.044,0.644-0.123,1.072-0.205c0.117-0.09,0.315-0.182,0.313-0.249
	c-0.013-0.455-0.069-0.903-0.12-1.452c0.801-0.099,1.569-0.194,2.42-0.298C252.572,141.642,251.41,141.407,249.811,141.361z
	 M267.035,149.712c0.802,0.636,2.615,0.123,3.801,0.457c0.151-0.256,0.258-0.437,0.39-0.659c-0.614,0.037-1.055,0.064-1.774,0.107
	c2.196-0.472,2.196-0.472,2.328-0.804c-1.351,0.126-2.689,0.251-4.148,0.387C267.48,149.331,267.244,149.533,267.035,149.712z
	 M349.733,129.519c-0.533,0.628-1.027,1.3-1.626,1.859c-4.074,3.81-8.166,7.602-12.263,11.387c-1.789,1.653-3.588,3.296-5.415,4.907
	c-2.151,1.895-4.335,3.752-6.509,5.622c-2.948,2.535-5.896,5.07-8.85,7.598c-5.613,4.802-11.274,9.548-17.404,13.69
	c-3.218,2.175-6.545,4.189-9.771,6.353c-2.997,2.011-5.957,4.081-8.875,6.204c-3.047,2.217-6.06,4.484-9.022,6.812
	c-2.316,1.82-4.53,3.769-6.794,5.654c-1.871,1.558-3.765,3.087-5.62,4.663c-2.096,1.78-4.147,3.613-6.241,5.395
	c-1.704,1.451-3.464,2.837-5.162,4.296c-2.89,2.483-5.727,5.029-8.633,7.493c-1.766,1.497-3.648,2.858-5.428,4.341
	c-1.386,1.156-2.681,2.421-4.041,3.608c-1.627,1.419-3.278,2.81-4.924,4.208c-1.161,0.986-2.644,1.357-3.961,2.046
	c-1.416,0.741-2.943,1.145-4.54,1.023c-1.25-0.096-2.455-0.467-3.601-1.008c-0.416-0.197-0.862-0.34-1.304-0.472
	c-1.799-0.537-3.682-0.769-5.396-1.627c-0.686-0.343-1.494-0.583-2.255-0.608c-1.512-0.05-2.798-0.745-4.156-1.226
	c-2.321-0.822-4.616-1.721-6.918-2.596c-1.17-0.445-2.324-0.935-3.5-1.362c-1.362-0.494-2.761-0.89-4.106-1.424
	c-1.85-0.735-3.783-1.249-5.554-2.208c-0.88-0.477-1.916-0.663-2.87-1.011c-1.543-0.562-3.106-1.083-4.608-1.741
	c-1.869-0.818-3.783-1.497-5.726-2.104c-0.224-0.07-0.469-0.094-0.676-0.198c-2.951-1.471-6.094-2.456-9.165-3.621
	c-2.306-0.874-4.59-1.807-6.902-2.663c-2.387-0.884-4.799-1.701-7.195-2.558c-1.291-0.462-2.561-0.986-3.863-1.418
	c-2.753-0.912-5.54-1.726-8.276-2.684c-3.298-1.155-6.691-1.978-10.027-2.995c-1.762-0.537-3.501-1.151-5.267-1.674
	c-1.392-0.412-2.819-0.702-4.212-1.11c-1.465-0.428-2.909-0.929-4.361-1.403c-1.975-0.646-3.951-1.289-5.922-1.948
	c-0.855-0.286-1.704-0.593-2.547-0.914c-3.076-1.172-6.147-2.358-9.224-3.531c-1.464-0.558-2.941-1.085-4.402-1.651
	c-1.572-0.61-3.123-1.276-4.701-1.869c-1.76-0.661-3.541-1.267-5.314-1.894c-0.147-0.052-0.315-0.053-0.456-0.116
	c-1.262-0.564-2.591-0.891-3.949-1.107c-2.015-0.321-4.025-0.741-6.054-0.887c-1.036-0.074-1.952-0.246-2.928-0.61
	c-1.252-0.467-2.582-0.356-3.546,0.817c-0.498,0.606-1.015,1.213-1.402,1.889c-0.281,0.492-0.43,1.089-0.516,1.657
	c-0.105,0.696-0.062,1.412-0.125,2.116c-0.041,0.453-0.158,0.9-0.252,1.405c-1.034-0.068-1.324-0.212-1.475-0.906
	c-0.319-1.458-0.623-2.932-0.463-4.437c0.106-0.996,0.536-1.89,1.157-2.668c0.858-1.075,1.787-2.069,2.93-2.877
	c1.922-1.358,3.727-2.884,5.679-4.194c2.408-1.616,4.846-3.215,7.403-4.572c1.891-1.003,3.992-1.61,6.002-2.388
	c3.034-1.175,6.089-2.297,9.1-3.529c3.265-1.336,6.507-2.735,9.725-4.181c2.002-0.899,3.953-1.915,5.907-2.918
	c3.486-1.789,6.946-3.626,10.435-5.408c3.455-1.765,6.942-3.466,10.396-5.232c4.226-2.16,8.427-4.368,12.648-6.538
	c2.824-1.452,5.678-2.846,8.493-4.315c3.13-1.634,6.218-3.348,9.349-4.982c4.242-2.214,8.515-4.37,12.76-6.579
	c3.238-1.684,6.441-3.436,9.682-5.113c3.272-1.693,6.578-3.32,9.858-4.998c1.255-0.642,2.469-1.363,3.717-2.021
	c3.086-1.626,6.177-3.243,9.272-4.852c2.086-1.084,4.174-2.166,6.278-3.214c1.715-0.854,3.459-1.65,5.185-2.482
	c0.281-0.135,0.579-0.279,0.8-0.49c1.094-1.044,2.387-0.919,3.661-0.576c2.189,0.59,4.358,1.222,6.645,1.354
	c1.483,0.086,2.961,0.284,4.437,0.473c0.58,0.074,1.165,0.209,1.716,0.405c2.047,0.727,4.228,0.814,6.313,1.364
	c1.475,0.389,2.984,0.656,4.485,0.937c1.078,0.202,2.166,0.349,3.253,0.501c1.438,0.202,2.882,0.367,4.318,0.584
	c0.811,0.123,1.612,0.312,2.416,0.481c1.151,0.242,2.297,0.512,3.451,0.734c1.155,0.222,2.317,0.409,3.479,0.594
	c1.782,0.284,3.576,0.508,5.348,0.841c2,0.375,3.976,0.872,5.973,1.263c2.271,0.444,4.553,0.835,6.832,1.236
	c1.195,0.21,2.399,0.373,3.592,0.592c2.275,0.418,4.547,0.852,6.816,1.298c1.616,0.318,3.223,0.68,4.839,1.001
	c1.46,0.29,2.926,0.551,4.389,0.825c2.388,0.448,4.776,0.902,7.165,1.345c1.967,0.364,3.938,0.711,5.905,1.074
	c1.156,0.213,2.308,0.445,3.463,0.665c1.271,0.242,2.544,0.478,3.815,0.72c1.309,0.25,2.617,0.507,3.926,0.755
	c2.04,0.387,4.08,0.769,6.121,1.152c1.002,0.188,2.008,0.359,3.008,0.56c2.23,0.447,4.463,0.878,6.682,1.372
	c1.719,0.383,3.414,0.874,5.13,1.275c0.799,0.187,1.621,0.274,2.433,0.407c1.198,0.196,2.391,0.507,3.595,0.557
	c1.318,0.054,2.559,0.393,3.801,0.728c1.081,0.292,2.149,0.42,3.259,0.35c0.453-0.029,0.91,0.022,1.26,0.033
	C350.162,128.853,350.004,129.2,349.733,129.519z M277.327,141.52c-1.165-0.541-2.838-0.729-4.497-0.873
	c-1.871-0.163-3.743-0.429-5.947-0.027c-2.359,0.431-4.721,0.869-7.08,1.32c-0.774,0.148-1.528,0.343-2.414,0.544
	c0.409-1.123-0.968-1.668-2.463-2.068c0.387-0.401,0.674-0.698,0.967-1.002c-0.524-0.109-0.905-0.189-1.331-0.278
	c0.955-0.578,1.253-1.119,0.936-1.642c-1.591-0.103-1.949,0.795-3.231,0.958c-0.134-0.199-0.243-0.362-0.439-0.653
	c-0.926,0.34-1.725,0.632-2.591,0.95c-0.599,0.059-1.287,0.126-1.976,0.194c-0.051-0.041-0.102-0.082-0.154-0.123
	c0.458-0.243,0.913-0.485,1.37-0.727c0.471-0.249,0.945-0.496,1.457-0.764c-0.896-0.516-2.424-0.338-3.74-0.38
	c-0.662-0.709-2.177-0.001-3.396,0.103c-0.383-0.578,1.015-0.731,1.847-1.095c0.056-0.229,0.124-0.506,0.193-0.784
	c-0.69,0.014-1.173,0.024-1.659,0.034c0.527-0.7,0.474-0.753-0.826-0.883c0.267-0.396-0.733-1.171-1.673-1.323
	c-1.925,0.166-2.333,0.834-2.874,1.344c-1.007,0.127-1.867,0.235-2.742,0.345c-0.165,0.313-0.286,0.542-0.415,0.787
	c-0.3,0.087-0.604,0.175-0.909,0.263c0.004-0.043,0.008-0.085,0.012-0.128c-1.059,0.077-2.117,0.153-3.305,0.24
	c-0.415-0.222-0.923-0.494-1.482-0.792c-0.829,0.128-1.662,0.256-2.719,0.418c0.209-0.235,0.302-0.413,0.527-0.571
	c0.236-0.166,0.598-0.314,1.004-0.52c-0.449,0.008-0.719,0.012-1.048,0.018c0.016-0.184,0.064-0.363,0.042-0.531
	c-0.124-0.949,0.163-1.994-0.499-2.789c-0.915-1.097-3.032-1.794-5.873-2.049c-1.316-0.118-2.864-0.106-4.477,0.449
	c-0.597,0.205-1.27,0.374-1.825,0.597c-1.346,0.54-2.69,1.089-3.967,1.664c-1.598,0.719-3.16,1.461-4.69,2.216
	c-0.59,0.291-0.959,0.646-1.53,0.948c-1.425,0.755-2.899,1.504-4.397,2.253c-1.171,0.585-2.333,1.185-3.622,1.733
	c-0.92,0.391-2.033,0.7-3.086,1.054c-0.956-0.626-1.42-1.254-0.526-2.082c0.799-0.741,2.228-1.288,4.144-1.57
	c-0.437-0.067-0.864-0.087-1.313-0.036c-1.951,0.219-3.43,0.824-4.572,1.577c-1.881,1.24-2.46,2.44-2.386,3.612
	c0.04,0.628,1.244,1.098,3.097,0.637c1.306-0.325,2.667-0.663,3.825-1.097c1.994-0.747,3.98-1.525,5.697-2.365
	c2.056-1.005,4.481-1.695,6.858-2.469c-0.809,0.865-1.602,1.725-2.661,2.568c-1.162,0.925-2.578,1.834-3.896,2.761
	c-0.565,0.398-1.288,0.641-2.262,0.762c-2.217,0.275-3.724,1.1-3.64,1.976c0.014,0.151,0.085,0.292,0.135,0.452
	c-0.322,0.184-0.631,0.374-0.974,0.554c-0.776,0.408-1.617,0.801-2.351,1.222c-0.891,0.511-1.62,1.068-2.564,1.567
	c-1.611,0.853-2.661,1.753-3.374,2.693c-0.215,0.283-0.289,0.59-0.203,0.834c0.131,0.371-0.044,0.68-0.965,1.016
	c-0.466,0.17-0.932,0.359-1.324,0.564c-0.851,0.445-1.728,1.348-1.41,1.755c0.25,0.321,0.257,0.716,0.406,1.19
	c-3.203,0.542-3.886,1.626-4.525,2.64c-3.818,0.823-6.501,2.159-8.249,3.753c-1.91,1.742-1.161,3.05,0.695,3.991
	c-12.643,6.364-18.999,12.68-12.685,18.83c0.22-0.019,0.551-0.048,1.052-0.092c-0.593,0.811,0.371,0.993,1.068,1.185
	c3.374,0.927,6.569,2.028,10.945,2.277c3.181,0.181,6.659,0.098,10.11-0.64c4.045-0.866,8.185-1.814,12.01-3.355
	c3.969-1.599,7.347-3.388,10.148-5.427c0.23-0.168,0.455-0.365,0.757-0.481c1.166-0.449,2.36-0.871,3.683-1.353
	c2.548,0.573,5.452,0.342,8.551-0.944c0.03-0.155,0.06-0.307,0.106-0.545c0.362,0.075,0.567,0.118,1.008,0.21
	c0.945-0.874,2.019-1.675,2.633-2.489c0.626-0.831,0.807-1.673,1.208-2.565c2.155,0.188,3.534-0.778,5.032-1.494
	c0.543,0.196,0.982,0.354,1.4,0.505c0.327-0.033,0.586-0.057,0.846-0.086c2.495-0.281,3.142-0.563,4.135-1.791
	c0.253-0.313,0.45-0.64,0.822-0.93c0.393-0.307,0.883-0.664,1.468-0.849c3.197-1.009,5.794-2.198,7.019-3.895
	c0.202-0.279,0.466-0.562,0.789-0.827c0.25-0.206,0.636-0.387,1.081-0.649c0.189,0.318,0.316,0.531,0.465,0.781
	c1.503-0.541,2.862-1.031,4.382-1.578c0.206-0.163,0.526-0.418,0.844-0.67c0.597,0.051,1.088,0.092,1.589,0.135
	c0.411-0.11,0.805-0.216,1.331-0.357c0.063-0.431,0.126-0.863,0.186-1.27c0.653-0.191,1.198-0.35,2.003-0.585
	c-0.878-0.326-1.556-0.578-2.066-0.767c0.352-0.045,0.706-0.09,1.059-0.135c0.007,0.006,0.013,0.011,0.02,0.017
	c0.022-0.01,0.04-0.018,0.061-0.027c0.84-0.107,1.686-0.215,2.57-0.328c0.094-0.511,0.175-0.952,0.265-1.441
	c-0.458-0.206-0.974-0.438-1.441-0.649c1.404-1.279,7.123-3.342,11.03-4.835c-0.318,0.558-0.588,1.06-0.894,1.564
	c-0.403,0.661-0.713,1.336-1.292,1.991c-0.66,0.748-1.658,1.472-2.366,2.227c-1.234,1.317-2.66,2.644-2.384,4.036
	c0.196,0.989,1.283,1.373,3.512,1.037c3.447-0.52,6.612-1.335,9.013-2.773c1.334-0.799,2.427-2.011,1.304-2.83
	c-0.162-0.118-0.439-0.197-0.662-0.294c-0.09,0.024-0.18,0.048-0.27,0.072c0.529,0.988-0.114,1.902-2.244,2.589
	c-1.787,0.576-3.675,0.724-5.575,0.538c0.11-0.263,0.186-0.453,0.269-0.643c0.644-1.468,2.505-2.766,4.198-4.061
	c1.428-1.092,3.033-2.138,4.432-3.213c0.878-0.675,1.563-1.382,2.306-2.072c1.33-1.234,2.731-2.417,3.352-3.723
	C279.154,142.74,278.598,142.11,277.327,141.52z M276.923,144.136c0.182-0.079,0.124-0.267,0.194-0.449
	c-2.074,0.798-3.992,1.536-5.856,2.254C273.38,145.596,275.191,144.885,276.923,144.136z M267.577,151.346
	c0.3,0.148,0.601,0.295,1.099,0.54c0.607-0.597,1.054-1.036,1.625-1.598c-1.381,0.088-2.725,0.175-4.075,0.261
	C266.179,150.964,266.405,151.062,267.577,151.346z M261.894,157.231c-0.628,0.174-1.11,0.308-1.666,0.462
	c-0.09,0.264-0.188,0.55-0.284,0.832c0.236,0.111,0.433,0.204,0.84,0.396c0.669-0.475,1.192-0.847,1.737-1.234
	C262.27,157.504,262.067,157.357,261.894,157.231z M253.702,148.056c-0.426-1.014-0.822-1.956-1.234-2.936
	C251.339,145.92,252.175,148.046,253.702,148.056z M261.604,159.477c0.764-0.116,1.439-0.218,2.165-0.329
	c-0.497-0.359-0.867-0.627-1.236-0.894c3.311,0.203,5.441-0.041,6.829-0.845c-2.268,0.282-4.631,1.091-6.745,0.338
	C262.251,158.371,261.962,158.865,261.604,159.477z M264.822,152.274c0.239,0.338,0.456,0.644,0.762,1.078
	c0.249-0.267,0.348-0.373,0.447-0.479c0.045,0.005,0.09,0.011,0.135,0.016c-0.077,0.215-0.154,0.43-0.231,0.646
	c0.072,0.016,0.144,0.032,0.216,0.048c0.61-0.368,1.218-0.735,1.915-1.156C267.001,152.176,266.205,151.962,264.822,152.274z
	 M262.761,155.417c0.702,0.118,1.193,0.2,1.797,0.301c0.211-0.373,0.412-0.727,0.626-1.105c-0.544-0.125-0.947-0.217-1.632-0.374
	C263.249,154.689,262.994,155.07,262.761,155.417z M222.558,166.929c1.727-0.925,3.604-1.931,5.718-3.063
	c-0.592,0.192-0.916,0.297-1.232,0.4c0.001,0,0.002,0,0.004,0c-0.384,0.125-0.757,0.267-1.154,0.374
	C224.291,165.069,222.509,166.373,222.558,166.929z M174.708,171.049c0.954-0.596,0.863-1.374-0.207-1.575
	c-2.305,0.519-0.715,1.029-1.339,1.632C173.719,171.086,174.214,171.068,174.708,171.049z M170.411,170.458
	c-1.02,1.176,0.001,1.812,2.408,1.678C170.954,171.902,170.725,171.165,170.411,170.458z M185.733,172.997
	c-0.361,0.118-0.738,0.241-1.159,0.378c-0.744,0.61-1.496,1.228-2.262,1.857C184.477,174.82,186.231,173.646,185.733,172.997z
	 M175.588,170.878c-0.3,0.061-0.568,0.115-0.837,0.17c0,0,0,0,0,0c-1.47,0.493-2.65,0.344-2.723-0.331
	c-0.028-0.256-0.133-0.495-0.24-0.873c-1.145,0.976-0.639,1.788,0.842,1.936C173.529,171.869,174.987,171.434,175.588,170.878z
	 M180.55,169.647c0.004-0.491-0.56-0.578-1.318-0.484c-0.323,0.04-0.698,0.256-1.148,0.43c0.483,0.189,0.787,0.308,1.118,0.438
	C179.677,169.896,180.073,169.783,180.55,169.647z M196.992,175.599c0.767-0.479,1.309-1.028,1.92-1.547
	c0.064-0.054-0.064-0.137-0.163-0.314c-0.802,0.281-1.523,0.535-2.035,0.714c-0.636-0.185-1.158-0.336-1.682-0.488
	c-0.548,0.25-0.986,0.45-1.425,0.651c-0.13,0.053-0.261,0.106-0.391,0.158c0.24,0.352,0.362,0.755,0.749,1.05
	C194.659,176.353,195.927,176.265,196.992,175.599z M195.397,179.647c0.523-0.341,0.939-0.586,1.29-0.845
	c1.142-0.842,2.266-1.682,3.354-2.523c0.142-0.109,0.09-0.257,0.128-0.387c-0.116-0.004-0.232-0.009-0.348-0.013
	c-0.56,0.497-1.22,0.991-1.665,1.499c-0.675,0.772-2.065,1.161-2.871,0.822c0.611-0.495,1.199-0.973,1.915-1.554
	c-1.262,0.018-2.132,0.031-3.097,0.045c-2.668,0.818-3.665,1.718-2.909,2.62C191.893,180.144,193.724,180.256,195.397,179.647z
	 M193.326,155.709c0.347-0.124,0.491-0.175,0.511-0.182c0.363,0.132,0.697,0.254,1.097,0.399c-0.296,0.193-0.661,0.432-1.027,0.671
	c0.044,0.017,0.087,0.035,0.131,0.052c0.296-0.091,0.592-0.181,0.887-0.271c0.043,0.021,0.086,0.042,0.129,0.063
	c-0.569,0.301-1.138,0.602-1.728,0.914c-0.047,0.189-0.093,0.37-0.147,0.584c0.745-0.355,1.354-0.645,1.961-0.934
	c0.061,0.029,0.122,0.059,0.183,0.088c-0.395,0.387-1.862,0.681-1.357,1.192c0.662-0.3,1.253-0.568,1.844-0.835
	c0.072,0.035,0.145,0.07,0.217,0.104c-0.712,0.349-1.425,0.698-2.141,1.049c0.089,0.049,0.179,0.099,0.268,0.148
	c0.954-0.385,1.905-0.768,2.937-1.184c1.702,0.238,3.675,0.068,5.661-0.538c1.888-0.577,4.089-0.992,5.069-2.009
	c0.542-0.065,0.889-0.106,1.236-0.148c0.036-0.071,0.072-0.142,0.107-0.213c-0.464-0.003-0.928-0.006-1.405-0.008
	c0.163-0.072,0.36-0.16,0.757-0.337c-0.553-0.083-0.98-0.147-1.624-0.244c1.033-0.12,1.81-0.209,2.588-0.299
	c0.089-0.082,0.177-0.165,0.266-0.247c-1.456,0.13-0.969-0.424-1.201-0.706c-0.801-0.029-1.553-0.057-2.417-0.089
	c1.25-0.578,2.394,0.046,3.663-0.661c-0.483-0.462-0.921-0.923-1.429-1.356c-0.572-0.487-1.82-0.493-2.868-0.512
	c-0.256,0.248-0.441,0.428-0.626,0.607c-0.089,0.001-0.177,0.001-0.266,0.002c-0.022-0.108-0.043-0.216-0.065-0.324
	c-0.101-0.003-0.202-0.006-0.303-0.009c-0.392,0.295-0.786,0.591-1.171,0.889c-0.007,0.005,0.098,0.025,0.219,0.055
	c0.189-0.135,0.373-0.267,0.618-0.443c0.279,0.128,0.489,0.225,0.699,0.322c-0.049,0.027-0.097,0.053-0.146,0.08
	c-0.232-0.022-0.464-0.044-0.859-0.082c0.141,0.41,0.257,0.749,0.403,1.173c-0.528-0.167-0.946-0.28-1.308-0.419
	c-0.379-0.146-0.705-0.317-1.115-0.505c-0.519,0.699,0.691,1.364,2.174,1.215c0.095,0.186,0.2,0.392,0.33,0.648
	c-1.014-0.175-1.87-0.324-2.8-0.485c0.249-0.502-0.981-0.355-1.632-0.549c-0.141,0.128-0.24,0.217-0.35,0.317
	c-0.382,0.012-0.769,0.023-1.332,0.04c0.344,0.172,0.572,0.286,0.706,0.353c-0.506,0.045-1.082,0.097-1.657,0.148
	c-0.008,0.031-0.017,0.061-0.025,0.092c-0.328-0.026-0.657-0.052-0.813-0.065c-0.687,0.27-1.177,0.463-1.666,0.654
	c0.351,0.324,0.567,0.302,1.505-0.174c0.1,0.075,0.194,0.146,0.304,0.23c-0.679,0.259-1.308,0.499-1.986,0.757
	c0.018-0.199,0.032-0.361,0.057-0.641c-0.553,0.327-0.919,0.544-1.396,0.826C194.282,154.891,193.9,155.265,193.326,155.709z
	 M179.035,178.051c0.26-0.222,0.432-0.369,0.469-0.401c0.856-0.054,1.51-0.095,2.165-0.137c-0.02-0.076-0.039-0.152-0.059-0.228
	c0.595-0.217,1.171-0.47,1.786-0.644c1.888-0.534,2.899-1.414,2.495-2.328c-0.879,0.367-1.669,0.756-2.541,1.051
	c-2.47,0.836-4.484,0.737-6.28,0.346c-0.619-0.135-1.14-0.337-1.705-0.507c-0.096,0.046-0.192,0.091-0.288,0.137
	c0.483,0.477,0.967,0.956,1.505,1.488c0.312,0.051,0.754,0.123,1.196,0.195c-0.098,0.078-0.196,0.156-0.294,0.234
	c-0.768-0.134-1.534-0.268-2.327-0.406c0.355,0.515,0.532,0.555,3.081,0.682c-0.21,0.131-0.396,0.246-0.69,0.429
	C178.117,177.996,178.561,178.022,179.035,178.051z M201.81,146.409c0.208,0.174,0.385,0.322,0.549,0.46
	c1.211-0.381,2.323-0.73,3.451-1.085c0.091,0.045,0.227,0.113,0.426,0.211c0.219-0.199,0.362-0.329,0.524-0.477
	c0.217,0.051,0.404,0.095,0.697,0.165c0.209-0.287,0.368-0.504,0.548-0.75c0.243-0.099,0.528-0.214,0.883-0.359
	c0.041-0.275,0.081-0.551,0.13-0.878c-1.259,0.492-2.385,0.931-3.948,1.541C204.218,145.544,203.029,145.971,201.81,146.409z
	 M201.317,146.83c0.733-1.028,3.313-1.398,4.257-2.248c0.476-0.105,0.946-0.209,1.415-0.312c-0.121,0.001-0.241,0.003-0.362,0.004
	c-0.058-0.157-0.116-0.315-0.174-0.471c1.063-0.211,1.623-0.316,1.955-0.489c0.844-0.441,1.584-0.91,2.474-1.432
	c-0.024-0.019-0.131-0.104-0.246-0.195c-0.419,0.103-0.743,0.182-1.2,0.294c0.024-0.196,0.043-0.355,0.064-0.525
	c-0.703,0.182-1.348,0.35-2.248,0.583c0.472-0.307,0.767-0.499,1.161-0.756c-0.458,0.12-0.762,0.2-1.114,0.292
	c0.07-0.113,0.114-0.185,0.159-0.258c-0.309,0.029-0.583,0.054-0.849,0.079c-0.072-0.152-0.13-0.273-0.183-0.385
	c0.454-0.057,0.902-0.114,1.52-0.192c0.254,0.058,0.627,0.143,1.173,0.267c0.15-0.36,0.267-0.64,0.43-1.031
	c-1.632,0.163-3.174,0.316-4.65,0.464c-0.365,0.252-0.627,0.433-0.821,0.568c0.151,0.195,0.281,0.365,0.452,0.585
	c0.265,0.093,0.636,0.223,0.888,0.311c-0.359,0.297-0.639,0.529-0.91,0.753c0.514,0.12,0.892,0.207,1.33,0.309
	c-0.232,0.203-0.449,0.393-0.674,0.591c-0.761,0.114-1.443,0.216-2.222,0.332c-0.126,0.266-0.248,0.524-0.375,0.792
	c-0.249,0.012-0.528,0.025-0.636,0.03c-0.405,0.235-0.698,0.406-1.061,0.616c0.045,0.234,0.099,0.507,0.174,0.892
	c-0.073,0.103-0.245,0.345-0.448,0.629C200.961,146.878,201.144,146.853,201.317,146.83z M198.898,165.671
	c0.052-0.177,0.106-0.363,0.194-0.662c-0.616,0.288-0.96,0.448-1.48,0.691c0.355-0.303,0.574-0.49,0.793-0.676
	c-0.081-0.02-0.161-0.041-0.242-0.061c-0.365,0.153-0.73,0.306-1.388,0.581c0.431-0.329,0.666-0.508,0.886-0.675
	c-0.358-0.098-0.691-0.189-0.91-0.249c-0.989,0.059-1.88,0.112-2.842,0.169c-0.435,0.268-0.898,0.553-1.445,0.89
	c0.622,0.097,1.161,0.181,1.701,0.264c0.074-0.051,0.149-0.101,0.223-0.152c0.834,0.292,1.672,0.584,2.628,0.919
	c-0.469,0.053-0.703,0.079-1.317,0.148c1.029,0.423,1.876,0.772,2.756,1.134c-0.178,0.175-0.359,0.353-0.586,0.577
	c0.28,0.053,0.522,0.099,0.747,0.141c0.986-0.576,1.88-1.1,2.783-1.628C200.503,166.577,199.691,166.119,198.898,165.671z
	 M184.963,179.312c1.157-0.217,2.524-0.458,3.033-1.173c0.413-0.062,0.784-0.118,0.894-0.134c0.871-0.556,1.602-0.976,2.205-1.421
	c0.588-0.434,1.262-0.898,0.978-1.358c-1.65,0.494-2.659,1.433-4.474,1.809c0.027-0.16-0.014-0.237,0.056-0.282
	c0.85-0.549,1.732-1.086,2.556-1.636c0.241-0.161,0.476-0.381,0.482-0.534c0.018-0.462-0.078-0.902-0.12-1.27
	c0.506-0.251,0.766-0.38,1.37-0.679c-0.667,0.045-0.982,0.067-1.423,0.096c-0.877-0.873-1.727-1.766-4.171-1.839
	c-0.211-0.006-0.319-0.123-0.507-0.166c-0.403-0.093-0.785-0.212-1.248-0.249c-2.345-0.191-4.993,1.083-6.338,2.012
	c-1.096,0.757-0.789,1.69,0.495,2.096c1.023,0.323,2.109,0.175,3.554-0.501c0.239-0.445,0.487-0.906,0.764-1.423
	c-0.727-0.035-1.357-0.066-1.985-0.097c0.811-0.641,2.699-0.895,3.667-0.443c-0.563,0.04-1.011,0.071-1.459,0.103
	c-0.035,0.037-0.07,0.074-0.105,0.111c0.381,0.079,0.763,0.157,1.144,0.236c0.472-0.245,0.869-0.452,1.356-0.704
	c2.214,0.556,2.603,1.65,2.287,2.488c-1.522,2.253-4.408,3.193-7.478,4.054c0.036,0.046,0.071,0.091,0.107,0.137
	c0.622,0,1.244,0,1.866,0.001c-0.02,0.03-0.041,0.061-0.061,0.091c-0.657,0.087-1.314,0.175-1.85,0.246
	c0.318,0.23,0.609,0.44,0.9,0.65c-0.045,0.057-0.09,0.113-0.135,0.17C182.537,179.58,183.751,179.539,184.963,179.312z
	 M214.343,164.526c-1.672-1.306-4.26-2.061-7.714-2.364c-0.969,0.065-2.187,0.169-3.138,0.506c-0.829,0.294-1.36,0.854-2.026,1.298
	c0.066,0.013,0.132,0.027,0.198,0.04c0.777-0.336,1.553-0.671,2.327-1.006c0.055,0.056,0.11,0.113,0.165,0.169
	c-2.149,0.854-2.885,1.425-2.631,2.059c0.48-0.397,0.953-0.789,1.425-1.18c0.045,0.014,0.091,0.027,0.136,0.041
	c-0.387,0.543-0.776,1.088-1.114,1.561c1.393,0.523,2.578,0.968,3.868,1.452c0.042,0.292,0.094,0.659,0.166,1.166
	c1.033-0.698,1.052-1.168,0.666-1.653c0.43,0.041,0.681,0.065,0.949,0.09c0.191-0.159,0.355-0.296,0.687-0.573
	c0.165,0.621,0.296,1.116,0.473,1.781c0.569-0.513,0.972-0.876,1.383-1.246c0.156,0.073,0.312,0.146,0.523,0.243
	c0.269-0.191,0.475-0.338,0.895-0.635c-0.547,0.753-0.968,1.333-1.391,1.916c0.074,0.006,0.149,0.012,0.223,0.018
	c-0.461,0.298-0.923,0.598-1.385,0.897c2.419-0.49,3.287-1.633,4.935-2.461c0.031,1.003-2.865,3.253-4.501,3.543
	c-0.053,0.181-0.105,0.359-0.17,0.584c1.162-0.187,1.947-0.594,2.529-1.062c0.854-0.686,1.551-1.395,2.392-2.075
	c1.044-0.843,0.888-1.476,0.165-1.94c0.148-0.303,0.364-0.542,0.305-0.72c-0.025-0.076-0.625-0.025-1.1-0.035
	c-0.077-0.126-0.193-0.313-0.381-0.621c0.414,0.184,0.623,0.277,0.833,0.37C214.135,164.637,214.239,164.581,214.343,164.526z
	 M207.913,155.187c-0.707,0.433-1.416,0.868-2.127,1.304c0.02,0.019,0.04,0.038,0.059,0.058c0.338-0.119,0.677-0.237,1.015-0.355
	c0.183,0.03,0.367,0.06,0.593,0.098c0.532-0.327,0.954-0.587,1.375-0.846c-0.103-0.025-0.206-0.049-0.309-0.074
	c-0.316,0.174-0.632,0.349-1.166,0.645c0.412-0.36,0.649-0.567,0.886-0.773C208.13,155.224,208.021,155.206,207.913,155.187z
	 M185.436,155.795c0.407-0.097,0.821-0.196,1.419-0.339c-0.464-0.122-0.736-0.193-0.853-0.224c-0.338-0.326-0.604-0.583-0.882-0.851
	C183.806,155.048,183.844,155.229,185.436,155.795z M194.661,159.463c0.018,0.031,0.035,0.061,0.053,0.092
	c-0.656,0.26-1.314,0.521-1.973,0.783c-2.257,0.801-2.314,0.826-2.974,1.502c0.479-0.2,0.77-0.341,1.093-0.451
	c0.321-0.11,0.674-0.188,1.138-0.314c-0.672,0.45-1.184,0.793-1.696,1.136c0.068,0.022,0.136,0.044,0.203,0.066
	c0.614-0.156,1.227-0.311,1.957-0.496c-0.171,0.316-0.29,0.536-0.383,0.708c-1.292,0.64-3.062,1.127-2.96,1.906
	c1.955-0.285,3.753-0.547,5.514-0.803c2.334,0.499,3.826,0.188,5.379-1.058c-0.305-0.208-0.578-0.395-0.823-0.562
	c1.127-1.304,0.259-2.213-1.75-2.707c-0.428-0.105-1.015-0.218-1.539-0.135c-2.038,0.321-4.101,0.635-6.083,1.299
	c-0.943,0.316-1.582,0.661-1.592,1.118c1.095-0.399,2.112-0.804,3.179-1.149C192.464,160.053,193.575,159.771,194.661,159.463z
	 M191.042,150.099c0.075-0.555,0.149-1.107,0.223-1.657c-0.125,0.018-0.251,0.035-0.376,0.053c-0.671,0.63-0.355,1.131-0.349,1.677
	C190.707,150.148,190.874,150.124,191.042,150.099z M186.961,166.317c-0.527,0.438-1.01,0.84-1.378,1.146
	c0.256,0.463,0.464,0.84,0.687,1.244c3.394,0.73,5.47,2.38,9.833,2.512c0.572-0.083,1.143-0.166,1.934-0.28
	c0.149-0.086,0.459-0.264,0.827-0.476c-0.335-0.205-0.624-0.381-0.936-0.571c0.072-0.169,0.157-0.371,0.176-0.415
	c-0.814-0.121-1.646-0.128-2.067-0.334c-0.655-0.321-1.429-0.397-2.404-0.216c-0.793-0.1-1.472-0.186-2.066-0.261
	c-0.111-0.25-0.196-0.443-0.282-0.636c-0.073,0.028-0.145,0.056-0.218,0.084c-0.612-0.404-1.221-0.807-1.834-1.211
	c0.205-0.052,0.425-0.108,0.792-0.201c-0.601-0.168-1.097-0.307-1.772-0.496c0,0,0.057-0.122,0.114-0.244
	c-0.082,0.001-0.164,0.002-0.246,0.002c-0.185,0.135-0.369,0.27-0.548,0.401C187.312,166.345,187.109,166.329,186.961,166.317z
	 M184.429,159.358c-0.435,0.373-0.414,0.676,0.526,0.814c0.972-0.341,2.048-0.719,3.035-1.065c-0.506-0.291-0.845-0.485-1.226-0.704
	C185.698,158.496,184.971,158.893,184.429,159.358z M205.314,157.759c-0.656-0.237-1.076-0.388-1.507-0.544
	c-1.804,0.438-2.575,1.071-2.738,2.001c0.969-0.467,1.755-0.847,2.357-1.137C204.124,157.961,204.654,157.871,205.314,157.759z
	 M173.036,164.81c1.035,0.217,3.622-0.412,4.253-1.092c0.318-0.344,0.352-0.774,0.113-1.029c-0.292-0.312-1.726-0.146-3.061,0.268
	c-0.077,0.217-0.161,0.457-0.246,0.696c-0.054,0.007-0.109,0.015-0.163,0.022c-0.037-0.408-0.074-0.815-0.114-1.263
	c0.238-0.175,0.537-0.395,0.836-0.615c-0.072-0.009-0.144-0.018-0.216-0.028c-0.462,0.315-0.926,0.631-1.39,0.948
	c-0.074-0.01-0.148-0.02-0.222-0.029c0.539-0.458,1.077-0.914,1.407-1.194c1.741-0.267,3.009-0.462,4.367-0.67
	c0.01-0.402,0.017-0.683,0.024-0.961c0.57-0.08,1.24-0.157,0.947-0.627c-1.415,0.273-2.864,0.474-4.237,0.837
	c-1.544,0.409-2.755,1.043-3.319,1.889c0.314-0.094,0.528-0.158,0.697-0.209c0.002,0.184,0.003,0.374,0.006,0.649
	c-0.341,0.118-0.813,0.281-1.328,0.46C171.063,163.767,171.947,164.318,173.036,164.81z M181.589,161.607
	c0.368-0.095,0.753-0.195,0.962-0.25c0.124-0.581,0.233-1.092,0.325-1.521c-0.554-0.151-0.937-0.254-1.379-0.374
	c-0.398,0.219-0.731,0.403-1.081,0.595C180.214,160.778,180.426,161.314,181.589,161.607z M208.41,176.414
	c0.978,0.53,2.427,0.557,4.011,0.376c1.016-0.116,2.05-0.354,2.738-0.955C212.826,176.241,210.536,176.656,208.41,176.414z
	 M184.649,158.247c-1.009-0.217-0.193-0.63,0.288-1.14c0.519-0.025,1.111-0.054,1.578-0.076c0.396-0.363,0.628-0.576,0.921-0.844
	c-0.86,0.094-1.648,0.15-2.444,0.274c-1.132,0.176-2.17,0.733-2.046,1.116c0.126,0.39,0.451,0.735,0.735,1.169
	C184.106,158.527,184.371,158.39,184.649,158.247z M208.423,171.331c-0.326,1.7-1.067,3.439-2.75,5.194
	c-2.184,2.278-5.513,4.338-9.421,6.227c-1.816,0.878-3.653,1.73-5.91,2.247c-0.904,0.207-1.73,0.71-2.646,0.985
	c-1.411,0.423-2.866,0.771-4.312,1.134c-0.173,0.043-0.379-0.029-0.434-0.035c-1.066,0.205-2.017,0.388-2.858,0.55
	c-0.887-0.045-1.69-0.085-2.379-0.12c-0.691,0.237-1.298,0.445-2.166,0.743c0.126-0.359,0.179-0.509,0.26-0.741
	c-1.199,0.043-2.41,0.087-3.621,0.131c-0.525-0.134-0.834-0.552-1.894-0.02c-0.663-0.037-1.193-0.067-1.864-0.105
	c0.025-0.062,0.083-0.204,0.165-0.404c-1.726-0.407-3.726-0.683-5.17-1.27c-1.596-0.648-2.909-1.481-3.915-2.391
	c-1.079-0.977-1.68-2.142-1.616-3.445c0.052-1.06-0.381-2.059,1.047-3.303c0.357-0.31,0.45-0.643,0.764-0.96
	c0.536-0.54,1.148-1.074,1.728-1.608c0.204-0.187,0.419-0.373,0.651-0.579c-0.22-0.081-0.403-0.148-0.695-0.255
	c0.54-0.133,0.894-0.22,1.262-0.31c0.842-0.802,1.654-1.575,2.679-2.551c1.007-0.594,2.384-1.407,3.942-2.326
	c-0.587,0.06-0.872,0.089-1.158,0.118c-0.016-0.05-0.032-0.1-0.048-0.15c1.093-0.319,2.227-0.595,3.262-0.965
	c1.183-0.423,2.276-0.927,3.433-1.406c-0.098-0.078-0.187-0.15-0.272-0.218c0.117-0.055,0.21-0.116,0.25-0.116
	c0.947,0.008,1.586-0.427,2.364-0.662c1.755-0.53,3.657-0.852,5.498-1.227c0.484-0.098,0.981-0.083,1.663-0.133
	c0.129,0.143,0.312,0.346,0.524,0.582c-0.329,0.098-0.548,0.164-0.801,0.239c0.157,0.077,0.308,0.151,0.621,0.304
	c-0.611,0.131-1.028,0.22-1.653,0.354c-0.181,0.12-0.539,0.358-1.088,0.723c0.002-0.242,0.003-0.365,0.005-0.531
	c-0.291,0.186-0.533,0.341-0.854,0.546c-0.054-0.134-0.089-0.22-0.158-0.389c-0.409,0.245-0.716,0.429-1.024,0.613
	c-0.044-0.042-0.088-0.083-0.132-0.125c-1.154,0.368-2.34,0.71-3.466,1.111c-4.59,1.634-8.195,3.724-10.937,6.05
	c-4.481,3.8-6.107,7.346-2.168,10.061c1.558,1.074,3.8,1.785,6.34,2.323c0.371,0.079,0.84,0.084,1.378,0.134
	c-4.704-1.094-8.66-2.479-9.086-5.337c-0.41-2.752,1.557-5.627,6.252-8.68c0.223,1.569,2.41,1.663,5.389,1.299
	c-2.306,2.667-2.602,4.966,0.756,6.46c3.454,1.538,8.331,1.243,13.98-0.155c1.7,0.651,2.674,1.806,5.797,1.628
	c-1.997,1.253-4.467,1.936-7.004,2.743c0.072,0.191,0.143,0.381,0.215,0.572c0.719-0.135,1.57-0.295,2.469-0.464
	c0.085,0.09,0.177,0.187,0.234,0.247c0.858-0.314,1.689-0.618,2.517-0.921c0.007-0.038,0.013-0.075,0.019-0.113
	c-0.472,0.118-0.944,0.237-1.417,0.355c-0.019-0.083-0.039-0.166-0.058-0.249c0.846-0.229,1.691-0.457,2.603-0.703
	c-0.064-0.13-0.125-0.256-0.216-0.441c0.859-0.279,1.634-0.53,2.408-0.781c0,0.134,0,0.267,0,0.401
	c2.959-1.222,5.602-3.149,5.257-3.871c0.342-0.115,0.695-0.232,1.001-0.335c0.788-0.91,1.548-1.788,2.307-2.664
	c-0.203-0.039-0.393-0.076-0.731-0.141c0.435-0.123,0.701-0.198,0.925-0.261c1.097-1.636,0.662-2.992-0.074-4.223
	c0.539-0.191,0.976-0.339,1.401-0.497c0.854-0.318,1.539-0.366,1.898-0.001C208.294,169.836,208.583,170.497,208.423,171.331z
	 M186.305,184.809c-0.621-0.294-0.941-0.445-1.26-0.596c0.286-0.114,0.562-0.225,0.837-0.335c-4.296,0.924-8.455,1.47-12.44,1.422
	c1.005,0.157,1.639,0.598,3.284,0.125c0.913-0.262,2.034-0.172,3-0.159c0.353,0.005,0.527,0.247,0.95,0.468
	C182.241,185.477,184.108,185.17,186.305,184.809z"/>
</svg>
