<svg width="400" height="400" viewBox="0 0 400 400" fill="none" xmlns="http://www.w3.org/2000/svg">
<path style="fill:#FF0000;" d="M157.022,285.313c-0.332-0.119-0.604-0.263-1.021-0.347c-0.893-0.179-1.625-0.144-2.353-0.104
	c-1.121,0.213-2.089,0.631-2.932,1.211c-0.29,0.284-0.609,0.531-0.859,0.867c-0.727,0.733-1.197,2.195-0.923,3.249
	c0.027,0.28,0.177,0.509,0.192,0.793c0.281,0.43,0.451,0.906,0.856,1.286c0.543,0.152,1.084,0.303,1.627,0.455
	c0.633,0.143,1.149,0.131,1.761,0.246c1.156-0.013,2.214-0.157,3.138-0.476c0.562-0.285,1.199-0.47,1.659-0.89
	c0.203-0.09,0.323-0.293,0.504-0.413c0.09-0.163,0.234-0.255,0.341-0.397c0.253-0.205,0.326-0.648,0.549-0.893
	c0.069-0.267,0.139-0.535,0.209-0.803C160.211,287.275,158.861,286.193,157.022,285.313z M157.519,288.591
	c-0.03,0.115-0.06,0.23-0.089,0.344c-0.12,0.484-0.368,0.798-0.667,1.044c-0.214,0.283-0.524,0.437-0.859,0.56
	c-0.005,0.019-0.01,0.038-0.015,0.058c-0.408,0.128-0.795,0.286-1.332,0.243c-0.13,0.058-0.32,0.039-0.548-0.03
	c-1.073-0.087-2.041-0.659-2.469-1.183c-0.232-0.128-0.009-0.711,0.134-0.824c0.492-1.404,1.569-2.036,3.022-2.17
	c0.518,0.054,1.573-0.159,1.731,0.361c0.274,0.245,0.454,0.529,0.842,0.728c-0.005,0.019-0.01,0.038-0.015,0.058
	c0.044,0.016,0.085,0.033,0.059,0.078c0.05,0.014,0.099,0.028,0.148,0.041C157.573,288.09,157.631,288.305,157.519,288.591z
	 M183.598,241.913c-0.109-0.016-0.149,0.06-0.252,0.052c-0.038,0.104-0.098,0.178-0.207,0.188c-0.196,0.229-0.395,0.454-0.637,0.622
	c-0.015,0.084-0.03,0.166-0.119,0.151c-0.082,0.199-0.197,0.355-0.356,0.454c-0.107,0.271-0.245,0.499-0.416,0.684
	c-0.038,0.309-0.217,0.433-0.326,0.647c-0.04,0.153-0.079,0.306-0.119,0.459c-0.084,0.325-0.169,0.65-0.253,0.976
	c-0.132,0.328-0.003,0.547-0.149,0.881c0.039,0.974,0.119,1.932,0.469,2.778c-0.005,0.019-0.01,0.038-0.015,0.058
	c0.163,0.137,0.193,0.33,0.266,0.505c0.085,0.084,0.108,0.194,0.162,0.292c0.154,0.192,0.271,0.401,0.399,0.604
	c0.059,0.044,0.119,0.087,0.118,0.156c0.66,0.667,1.377,1.31,2.468,1.798c0.16,0.021,0.184,0.096,0.28,0.142
	c0.074,0.021,0.148,0.041,0.222,0.062c0.452,0.109,0.984,0.325,1.346,0.315c0.178,0.03,0.301-0.013,0.533,0.087
	c0.131-0.084,0.461,0.095,0.621,0.051c1.412,0.017,2.75-0.064,3.848-0.462c0.378-0.092,0.671-0.294,1.051-0.383
	c0.228-0.161,0.496-0.268,0.74-0.408c0.094-0.056,0.167-0.139,0.281-0.168c0.174-0.155,0.364-0.289,0.578-0.392
	c0.065-0.171,0.227-0.213,0.326-0.34c0.596-0.419,0.958-1.148,1.468-1.682c0.092-0.161,0.034-0.521,0.223-0.553
	c0.055-0.211,0.109-0.421,0.164-0.631c0.055-0.211,0.109-0.421,0.164-0.631c0.025-0.095,0.05-0.191,0.074-0.287
	c0.071-1.31-0.192-2.482-0.838-3.496c-0.312-0.504-0.701-0.974-1.137-1.426c-0.362-0.294-0.793-0.56-1.212-0.832
	c-0.176-0.029-0.282-0.089-0.355-0.161c-0.191-0.109-0.515-0.163-0.636-0.301c-0.099-0.028-0.197-0.055-0.296-0.083
	c-0.122-0.069-0.453-0.052-0.429-0.182c-0.321-0.09-0.641-0.179-0.961-0.269c-0.738-0.101-1.53-0.275-2.219-0.313
	c-0.281-0.012-0.542,0.003-0.858-0.056c-0.189,0.032-0.422,0.007-0.636,0.007c-0.127,0.063-0.293,0.075-0.488,0.048
	c-0.188,0.086-0.473,0.044-0.666,0.121c-0.226,0.035-0.42,0.112-0.666,0.122c-0.046,0.042-0.092,0.084-0.177,0.073
	c-0.032,0.06-0.106,0.067-0.177,0.073c-0.317,0.043-0.52,0.237-0.799,0.33c-0.113,0.081-0.244,0.14-0.37,0.204
	C183.618,241.837,183.608,241.875,183.598,241.913z M185.12,243.692c0.252-0.126,0.457-0.317,0.739-0.407
	c0.182-0.118,0.39-0.204,0.622-0.257c0.088-0.115,0.267-0.109,0.43-0.126c0.013-0.034,0.029-0.065,0.089-0.037
	c0.959-0.299,2.174-0.26,3.684,0.169c0.197,0.055,0.394,0.11,0.592,0.166c0.557,0.111,0.764,0.368,1.301,0.487
	c-0.005,0.019-0.01,0.038-0.015,0.058c0.55,0.114,0.609,0.432,0.768,0.707c0.2,0.242,0.327,0.514,0.427,0.797
	c0.044,0.015,0.086,0.033,0.059,0.078c-0.015,0.074,0.074,0.106,0.03,0.193c0.1,0.044,0.052,0.149,0.103,0.213
	c0.039,0.24,0.135,0.456,0.132,0.714c0.083,0.137,0.071,0.312,0.029,0.5c0.084,0.034,0.056,0.113,0.03,0.193
	c-0.01,0.038-0.02,0.077-0.03,0.114c0.062,0.282,0.007,0.611-0.091,0.959c-0.56,1.906-1.774,2.946-3.365,3.489
	c-0.988,0.39-2.146,0.555-3.7,0.196c-0.249,0.032-0.983-0.173-1.183-0.331c-0.927-0.317-1.796-0.659-2.233-1.178
	c-0.129-0.118-0.099-0.301-0.117-0.464c-0.134-0.252-0.231-0.52-0.177-0.85c-0.088-0.1-0.089-0.237-0.058-0.385
	c-0.11-0.672-0.054-1.412,0.182-2.227c0.127-0.474,0.293-0.896,0.49-1.278C184.184,244.562,184.635,244.106,185.12,243.692z
	 M177.411,233.354c0.001-0.332,0.289-0.286,0.312-0.59c0.283-0.269,0.52-0.596,0.904-0.732c0.209-0.058,0.415-0.119,0.666-0.122
	c0.487,0.106,0.711,0.321,1.064,0.482c0.177,0.16,0.056,0.5-0.09,0.652c-0.229,0.314-0.484,0.593-0.771,0.831
	c-0.127,0.064-0.257,0.123-0.371,0.204c-0.244,0.14-0.513,0.247-0.74,0.409c-0.194-0.107-0.254-0.27-0.546-0.338
	c-0.041-0.153-0.309-0.214-0.561-0.28C177.322,233.698,177.367,233.526,177.411,233.354z M133.243,293.186
	c-0.247-0.069-0.493-0.138-0.74-0.207c-1.291-0.294-2.222-0.11-3.182,0.033c-0.093,0.082-0.211,0.132-0.356,0.147
	c-0.385,0.082-0.655,0.316-0.993,0.461c-0.557,0.419-1.102,0.856-1.261,1.801c0.101,0.334-0.009,0.755,0.205,1.042
	c0.11,0.313,0.384,0.558,0.576,0.838c0.366,0.225,0.704,0.46,1.183,0.638c0.296,0.083,0.591,0.165,0.887,0.248
	c0.725,0.111,1.393,0.146,1.968,0.059c0.379-0.064,0.723-0.175,1.096-0.247c0.154-0.106,0.332-0.179,0.534-0.22
	c0.336-0.146,0.571-0.427,0.874-0.617c0.411-0.485,0.753-1.06,0.892-1.905c-0.079-0.223,0.015-0.518-0.043-0.75
	C134.968,293.805,134.01,293.535,133.243,293.186z M132.277,295.686c-0.028,0.039-0.031,0.112-0.104,0.094
	c-0.222,0.196-0.62,0.155-0.755,0.466c-0.342-0.218-0.553-0.489-1.109-0.618c0.056-0.312,0.211-0.492,0.401-0.626
	c0.119-0.151,0.296-0.225,0.533-0.22c0.175-0.077,0.416-0.068,0.71,0.014c0.172,0.048,0.346,0.097,0.518,0.145
	C132.708,295.074,132.493,295.667,132.277,295.686z M185.889,270.737c-0.545-0.321-1.097-0.64-1.656-0.955
	c-0.572-0.242-1.13-0.489-1.804-0.689c-0.247-0.069-0.493-0.138-0.74-0.207c-0.097-0.028-0.196-0.056-0.294-0.083
	c-0.426-0.101-0.774-0.098-1.213-0.217c-0.005,0.019-0.01,0.038-0.015,0.058c-0.506-0.154-0.835-0.077-1.243-0.101
	c-0.067,0.014-0.136,0.026-0.237-0.004c-0.148-0.015-0.218,0.072-0.4,0.011c-0.151,0.084-0.393,0.045-0.577,0.085
	c-0.186,0.036-0.382,0.06-0.577,0.085c-1.869,0.406-2.816,2.031-3.558,3.928c-0.094,0.363-0.189,0.727-0.283,1.09
	c-0.025,0.096-0.05,0.191-0.074,0.287c-0.121,0.289,0.017,0.471-0.119,0.767c0.167,0.085-0.103,0.35,0.043,0.443
	c-0.082,0.751,0.132,1.38,0.263,2.043c0.362,0.892,0.907,1.709,1.845,2.363c1.117,0.703,2.855,1.373,4.319,1.393
	c1.148,0.053,2.095-0.159,3.034-0.382c0.093-0.082,0.212-0.131,0.356-0.147c0.005-0.019,0.01-0.038,0.015-0.058
	c0.155,0.025,0.185-0.115,0.341-0.089c0.71-0.32,1.378-0.695,1.97-1.172c0.113-0.108,0.233-0.205,0.385-0.261
	c1.386-1.165,2.545-3.776,1.978-5.786C187.471,272.167,186.894,271.364,185.889,270.737z M181.305,278.932
	c-0.032,0.06-0.106,0.066-0.177,0.073c-0.095-0.023-0.122,0.045-0.237-0.004c-0.22,0.095-0.539,0.06-0.815,0.079
	c-1.907,0.158-4.229-1.052-4.732-2.246c-0.407-0.686-0.695-1.42-0.5-2.355c-0.078-0.208,0.07-0.778,0.238-0.918
	c0.268-0.827,0.749-1.374,1.276-1.859c0.308-0.236,0.561-0.543,0.963-0.654c0.844-0.579,1.919-0.854,3.227-0.82
	c0.025,0.007,0.049,0.014,0.074,0.021c0.226-0.035,0.519,0.019,0.844,0.113c0.51,0.131,0.991,0.274,1.39,0.451
	c0.405,0.14,0.731,0.313,0.976,0.519c0.103,0.026,0.155,0.072,0.207,0.12c0.182,0.078,0.319,0.175,0.399,0.296
	c0.359,0.227,0.613,0.498,0.917,0.748C186.817,275.412,184.207,278.784,181.305,278.932z M191.803,264.088
	c0.192,0.296,0.234,0.654,0.205,1.042c-0.783,0.018-1.559,0.045-2.206,0.245c-0.875,0.024-1.635,0.202-2.693-0.015
	c-0.178-0.166-0.064-0.452-0.147-0.657c0.05-0.191,0.099-0.383,0.149-0.574c0.213-0.336,0.512-0.556,0.829-0.753
	c0.565-0.203,1.249-0.25,1.969-0.249c0.025,0.007,0.049,0.014,0.074,0.021c0.535,0.117,0.982,0.116,1.582,0.32
	c0.064,0.11,0.031,0.26,0.147,0.349C191.696,263.926,191.713,264.022,191.803,264.088z M184.867,261.471
	c-0.331-0.238-0.587-0.509-0.383-0.969c0.157-0.382,0.505-0.514,0.637-0.929c0.136-0.051,0.213-0.181,0.252-0.36
	c0.186,0.015,0.518,0.222,0.606,0.108c0.115-0.001,0.365,0.174,0.384,0.046c0.128,0.04,0.233,0.052,0.311,0.025
	c0.599-0.016,1.416,0.241,1.746,0.611c-0.035,0.364-0.216,0.536-0.415,0.684c-0.182,0.118-0.39,0.204-0.622,0.257
	c-0.444,0.171-1.092,0.009-1.643,0.218C185.408,261.286,185.173,261.795,184.867,261.471z M175.504,232.45
	c-0.197-0.055-0.394-0.11-0.591-0.165c0.06-0.23,0.119-0.459,0.179-0.688c0.138-0.409,0.383-0.674,0.637-0.929
	c0.073-0.007,0.145-0.014,0.177-0.073c0.363-0.059,0.741-0.098,1.317,0.122c0.08,0.035,0.099,0.096,0.118,0.156
	c0.122,0.121,0.062,0.316,0.118,0.464c-0.107,0.577-0.447,0.847-0.831,1.06c-0.113,0.03-0.247,0.032-0.341,0.089
	c-0.067,0.067-0.287-0.071-0.326,0.032C175.747,232.412,175.719,232.555,175.504,232.45z M286.431,212.246
	c-0.022-0.108-0.075-0.213-0.065-0.323c-0.087-0.227-0.15-0.456-0.177-0.688c-0.135-0.145-0.123-0.302-0.207-0.451
	c-0.195-0.717-0.745-1.404-1.071-2.11c-0.118-0.162-0.462-0.304-0.433-0.478c-0.174-0.157-0.348-0.314-0.522-0.471
	c-0.174-0.157-0.348-0.314-0.522-0.471c-0.079-0.071-0.158-0.143-0.237-0.214c-1.168-0.753-2.313-1.155-3.434-1.156
	c-0.554-0.008-1.102,0.066-1.647,0.189c-0.38,0.145-0.755,0.362-1.131,0.566c-0.081,0.131-0.168,0.187-0.257,0.21
	c-0.158,0.101-0.308,0.341-0.47,0.369c-0.056,0.068-0.111,0.135-0.167,0.202c-0.101,0.064-0.188,0.348-0.298,0.26
	c-0.181,0.219-0.362,0.437-0.543,0.656c-0.321,0.559-0.725,1.125-0.974,1.677c-0.098,0.227-0.165,0.452-0.317,0.684
	c-0.03,0.174-0.124,0.354-0.191,0.532c0.017,0.139-0.023,0.283-0.108,0.431c0.02,0.202-0.107,0.416-0.097,0.617
	c-0.038,0.207-0.029,0.408-0.096,0.618c0.024,0.061,0.048,0.121,0.011,0.186c0.045,0.059,0.028,0.123,0.011,0.186
	c-0.059,0.286,0.054,0.558,0.051,0.839c0.038,0.137,0.051,0.277,0.07,0.416c0.032,0.029,0.064,0.057,0.095,0.085
	c-0.048,0.082,0.008,0.156-0.031,0.237c0.083,0.086,0.131,0.176,0.107,0.272c0.147,0.284,0.289,0.569,0.367,0.859
	c0.071,0.057,0.141,0.113,0.1,0.179c0.155,0.174,0.261,0.352,0.302,0.536c0.213,0.232,0.377,0.467,0.492,0.707
	c0.269,0.195,0.325,0.41,0.486,0.614c0.126,0.114,0.253,0.228,0.38,0.342c0.269,0.242,0.538,0.484,0.807,0.727
	c0.257,0.284,0.496,0.293,0.754,0.591c0.897,0.484,1.791,0.925,2.667,1.082c0.016,0.014,0.032,0.029,0.048,0.043
	c0.175-0.063,0.359,0.015,0.541,0.047c0.103-0.026,0.21,0.013,0.315,0.02c0.222-0.026,0.448-0.012,0.672-0.012
	c0.058-0.026,0.116-0.052,0.178-0.015c0.811-0.194,1.617-0.45,2.399-1.098c0.069-0.121,0.144-0.102,0.216-0.157
	c0.042-0.051,0.083-0.101,0.125-0.151c0.239-0.317,0.601-0.645,0.704-0.951c0.083-0.132,0.082-0.257,0.245-0.396
	c-0.035-0.153,0.23-0.332,0.239-0.489c0.454-1.164,0.796-2.318,0.776-3.441c0.034-0.362-0.059-0.713-0.021-1.076
	C286.496,212.803,286.482,212.523,286.431,212.246z M283.814,217.11c-0.048,0.224-0.462,0.725-0.668,0.808
	c-0.576,0.602-1.156,1.143-1.763,1.23c-0.147,0.045-0.304-0.077-0.458-0.148c-0.27-0.022-0.544-0.084-0.826-0.303
	c-0.118,0.02-0.243-0.052-0.368-0.156c-0.644-0.265-1.298-0.703-1.965-1.331c-0.391-0.357-0.722-0.718-1.008-1.084
	c-0.466-0.6-0.74-1.217-0.965-1.839c-0.036-0.276-0.146-0.547-0.14-0.829c-0.051-0.214-0.064-0.432-0.04-0.653
	c-0.077-0.134-0.016-0.28,0.019-0.424c-0.027-0.029-0.05-0.058-0.006-0.094c0.026-0.955,0.44-1.944,1.298-2.971
	c0.111-0.135,0.223-0.269,0.334-0.404c0.274-0.404,0.571-0.44,0.846-0.823c0.016,0.014,0.032,0.029,0.048,0.043
	c0.275-0.397,0.581-0.277,0.88-0.264c0.282-0.038,0.568,0.001,0.856,0.067c0.028-0.029,0.057-0.054,0.09-0.008
	c0.063,0.052,0.119-0.005,0.184,0.078c0.071-0.06,0.152,0.036,0.226,0.028c0.23,0.095,0.456,0.13,0.689,0.269
	c0.15,0.004,0.306,0.106,0.463,0.24c0.057-0.051,0.12,0.013,0.184,0.078c0.032,0.029,0.064,0.057,0.095,0.085
	c0.276,0.098,0.557,0.318,0.843,0.584c1.556,1.475,2.123,3.034,2.123,4.643C284.832,214.959,284.622,216.008,283.814,217.11z
	 M264.252,213.608c0.051,0.277,0.065,0.557,0.141,0.831c-0.158,0.105-0.324,0.068-0.477,0.275c-0.152-0.047-0.29,0.143-0.428,0.318
	c-0.142-0.128-0.285-0.257-0.427-0.385c-0.302-0.177-0.17-0.392-0.439-0.571c-0.156-0.377-0.379-0.748-0.384-1.138
	c0.012-0.204,0.021-0.408,0.096-0.618c0.248-0.348,0.512-0.421,0.768-0.629c0.2-0.062,0.471,0.218,0.564,0.42
	c0.214,0.357,0.388,0.716,0.515,1.081C264.2,213.331,264.213,213.471,264.252,213.608z M309.051,305.642
	c-2.378-3.228-2.568-6.457-2.936-12.694c-0.126-2.145-0.442-10.017,3.332-21.025c3.111-9.073,4.656-7.549,6.744-14.757
	c0.875-3.02,3.601-12.898,0.272-24.261c-1.487-5.077-3.706-8.795-5.075-11.078c-2.205-3.678-5.004-7.324-8.647-10.888
	c-0.195-0.234-0.623-0.446-0.67-0.692l-2.421-2.181c-0.24-0.012-0.504-0.423-0.754-0.591c-4.11-3.325-8.185-5.869-12.198-7.705
	c-3.662-2.109-7.69-3.454-11.914-4.06c-2.719-0.39-5.587-0.594-8.144-1.685c-1.06-0.453-2.066-1.071-2.872-1.899
	c-0.318-0.326-0.602-0.678-0.882-1.033c25.423-10.765,45.7-21.375,48.093-27.588c6.279-16.305-24.111-10.522-34.348-11.221
	c0.009,4.695,0.018,9.391,0.027,14.086c-6.754,3.714-12.423,6.476-16.415,8.338c-2.841,1.325-6.752,3.017-14.573,6.4
	c-0.77,0.333-5.357,2.281-14.533,6.178c-4.54,1.928-6.876,2.916-10.116,4.106c0,0-4.154,1.525-8.529,2.856
	c-13.055,3.971-26.903,5.79-29.078,6.07c-10.645,1.367-18.549,1.483-24.159,1.547c-3.407,0.039-8.795,0.021-15.485-0.884
	c-3.934-0.532-6.624-1.141-9.11-1.893c0,0-5.011-1.531-9.283-4.046c-0.908-0.535-2.487-1.477-4.252-3.126
	c-0.259-0.242-0.389-0.363-0.487-0.47c-1.462-1.591-1.525-3.687-1.55-7.254c-0.021-3.152-0.002-5.887,0-6.129
	c0.016-2.214,0.008-4.016,0-5.177c3.034,2.082,8.019,5.085,14.698,7.2c7.251,2.297,13.906,2.37,27.214,2.557
	c3.79,0.053,11.194,0.056,20.577-0.705c1.948-0.158,5.742-0.485,10.445-1.098c14.223-1.853,25.083-4.599,30.308-6.03
	c2.59-0.709,12.659-3.516,25.528-8.708c8.144-3.286,17.975-7.755,28.774-13.818c-0.093-15.618,0.158-51.28-11.235-63.726
	c-24.524-26.791-95.425-20.755-123.376-5.822c-8.693,4.644-19.124,14.213-23.196,20.947c-2.567,4.246-3.684,8.527-3.684,8.527
	c-0.587,2.252-0.839,4.29-0.952,9.838c-0.128,6.27,0.036,11.368,0.258,16.919c0.118,2.947,0.291,6.994,0.536,11.842
	c-3.027,1.442-7.156,3.602-11.782,6.665c-3.635,2.406-8.311,5.452-11.809,9.297c-7.07,7.77-9.949,18.465-9.399,23.622
	c2.867,26.882,45.297,37.776,70.578,36.27c2.687,3.27,4.571,6.91,5.966,10.642c1.993,5.332,3.111,11.123,1.88,17.511
	c0.058,0.488-0.267,1.136-0.358,1.685c-0.179,0.484-0.2,1.175-0.476,1.529c-1.568,4.347-3.782,7.93-7.179,10.239
	c-2.441,1.659-5.31,2.745-7.998,4.224c-0.871,0.479-1.671,1.209-2.533,1.507c-1.169,0.404-2.548,0.575-3.805,0.905
	c-3.655,0.958-7.272,2.087-10.719,3.402c-0.428,0.229-0.945,0.343-1.407,0.529c-0.302,0.167-0.627,0.302-0.978,0.404l-0.015,0.058
	c-0.271,0.155-0.568,0.278-0.889,0.367c-8.036,3.919-16.252,7.597-19.71,17.565l-0.462,1.778c0.148,0.127-0.076,0.407-0.075,0.595
	c-0.812,4.736-0.274,9.312,0.362,13.578c0.641,4.292,1.561,8.373,4.02,12.017c0.235,0.296,0.567,0.551,0.723,0.88
	c1.073,1.42,3.105,2.921,5.114,3.831c0.699,0.317,2.08-0.246,2.754-0.522c2.168-0.888,3.753-2.556,4.448-5.217l0.373-1.436
	c0.384-1.866,0.5-3.622,0.957-5.518c-0.088-0.374,0.208-0.906,0.268-1.341l0.238-0.918c0.143-0.35,0.131-0.906,0.372-1.127
	c3.081-8.202,11.295-10.524,19.702-12.028c4.172-0.747,8.613-1.202,12.951-1.916c12.788-2.104,25.211-4.825,34.07-12.071
	c5.84-4.776,10.953-10.837,13.795-19.834c0.118-0.255,0.082-0.714,0.298-0.84l0.76-2.926c-0.126-0.221,0.127-0.599,0.149-0.881
	c1.135-6.001,1.134-11.556,0.117-16.645c-0.366-1.833-0.867-3.615-1.452-5.365c-0.032-0.167-0.08-0.332-0.114-0.499
	c-0.836-2.745-1.444-4.924-1.846-6.419c-0.357-1.328-0.647-2.468-0.942-3.878c0,0-0.218-1.04-0.417-2.182
	c-0.452-2.598-0.935-6.777-0.935-6.777c-0.402-3.473-0.642-5.592-0.628-6.654c1.406-0.458,2.831-0.929,4.264-1.406
	c0.028,0.088,0.046,0.17,0.076,0.259c1.423,4.201,4.359,6.59,7.458,9.045c4.655,3.687,8.943,5.492,11.981,6.744
	c3.046,1.256,5.862,2.417,9.799,3.055c2.404,0.389,6.006,0.259,13.21,0c5.31-0.191,8.206-0.415,12.218,0.436
	c2.389,0.507,4.314,1.213,4.681,1.349c2.529,0.938,4.38,1.983,6.189,3.015c1.893,1.079,2.839,1.619,3.808,2.38
	c2.558,2.008,3.962,4.194,4.919,5.713c0.867,1.376,2.629,4.221,3.412,7.934c0.929,4.404,0.047,7.97-0.476,10.314
	c0,0-2.454,10.997-2.777,24.278c-0.21,8.615-0.314,12.923,2.222,17.852c4.94,9.602,15.258,12.651,17.078,13.189
	c8.691,2.569,16.081,0.429,18.943-0.574c0.796-0.745,1.813-1.945,1.838-3.443C317.851,311.555,312.44,310.243,309.051,305.642z
	 M126.011,112.943c0.082-1.319,0.506-2.39,0.801-3.004c0.015-0.032,0.104-0.206,0.22-0.428c0.296-0.566,0.539-0.994,0.626-1.147
	c0.334-0.585,0.611-1.07,1.03-1.68c0.267-0.387,0.485-0.672,0.709-0.963c0.182-0.237,0.509-0.661,0.918-1.135
	c0.379-0.439,0.907-1.012,1.595-1.65c-1.628,1.961-2.439,3.815-2.856,4.998c-0.692,1.966-1.55,4.401-0.506,6.635
	c0.513,1.098,1.424,2.015,3.213,2.975c3.275,1.757,6.585,2.098,12.08,2.083c2.191-0.006,7.05-0.076,13.666-0.754
	c3.977-0.407,7.254-0.9,9.481-1.269c3.503-0.581,6.172-1.15,8.212-1.587c3.375-0.723,6.079-1.391,7.775-1.825
	c1.708-0.437,3.838-0.984,6.625-1.825c2.125-0.641,3.579-1.083,5.435-1.787c3.813-1.447,8.073-3.108,8.013-5.056
	c-0.032-1.037-1.286-2.092-2.026-2.714c-0.6-0.505-0.793-0.505-1.981-1.392c-0.973-0.726-1.672-1.344-1.964-1.607
	c-1.309-1.181-1.948-1.78-2.36-2.479c-1.128-1.913-0.828-3.988-0.774-4.364c0.729-5.045,7.586-7.82,9.418-8.561
	c1.697-0.686,3.542-1.162,4.605-1.435c0.634-0.163,2.527-0.637,5.435-1.071c5.264-0.786,9.445-0.784,10.711-0.774
	c3.679,0.031,6.579,0.361,8.371,0.615c3.836,0.543,5.919,1.206,6.677,1.459c2.815,0.94,4.36,1.902,5.006,2.329
	c1.084,0.717,2.256,1.507,3.273,2.975c0.595,0.859,1.343,1.924,1.429,3.418c0.094,1.63-0.652,2.84-1.488,4.199
	c-0.993,1.612-2.1,2.617-3.392,3.773c-1.459,1.306-2.707,2.16-3.262,2.533c-4.596,3.088-9.323,5.208-9.323,5.208
	c-6.016,2.697-11.219,4.399-13.746,5.207c-8.068,2.578-14.382,3.97-19.786,5.147c-5.036,1.097-10.07,2.192-16.959,3.184
	c-10.174,1.465-17.748,1.608-32.892,1.917c-0.751,0.015-3.615,0.066-7.363-0.251c-3.012-0.254-4.518-0.381-6.331-0.945
	c-2.106-0.654-6.101-1.895-7.651-5.35C125.911,114.839,125.998,113.158,126.011,112.943z M253.696,195.049
	c-0.067-0.02-0.135-0.045-0.202-0.065c0.027-0.011,0.053-0.021,0.08-0.032C253.615,194.984,253.655,195.017,253.696,195.049z
	 M181.904,221.256c-0.015,0.058-0.03,0.114-0.045,0.172c-0.135,0.592-0.359,1.066-0.742,1.331c-0.223,0.27-0.504,0.465-0.859,0.56
	c-0.558,0.238-1.229,0.328-1.924,0.385c-0.03,0.063-0.133,0.029-0.237-0.004c-0.069,0.063-0.186,0.062-0.326,0.032
	c-0.128,0.088-0.361,0.036-0.563,0.027c-0.293,0.024-0.583,0.051-0.947-0.019c-0.194,0.001-0.355,0.044-0.621-0.051
	c-0.105-0.01-0.162,0.042-0.311-0.025c-0.049-0.014-0.099-0.028-0.147-0.041c-0.161,0.096-0.57-0.137-0.829-0.17
	c-0.132,0.065-0.739-0.104-0.817-0.228c-0.099-0.061-0.4-0.04-0.355-0.161c-0.13-0.032-0.227-0.077-0.281-0.14
	c-0.044-0.016-0.085-0.033-0.059-0.078c-0.042-0.022-0.066-0.052-0.105-0.076c2.865-0.759,5.925-1.614,9.156-2.56
	C181.95,220.536,181.935,220.893,181.904,221.256z M187.124,219.577c0.097,0.313,0.319,1.004,0.952,2.539
	c0.315,0.763,0.743,1.764,1.289,2.936c0.584,1.15,1.043,2.085,1.349,2.717c0.609,1.256,1.007,2.122,1.709,3.384
	c0.228,0.409,0.421,0.74,0.546,0.953c0.21,0.221,0.367,0.463,0.442,0.739c0.356,0.468,0.624,0.972,0.885,1.479
	c0.086,0.049,0.132,0.116,0.103,0.213l0.074,0.021c-0.004,0.087,0.096,0.131,0.103,0.213c0.267,0.454,0.55,0.9,0.753,1.38
	c0.29,0.444,0.487,0.926,0.753,1.38c0.04,0.12,0.135,0.217,0.147,0.349c0.085,0.085,0.108,0.195,0.162,0.292
	c0.191,0.4,0.384,0.798,0.56,1.203c0.152,0.364,0.382,0.696,0.427,1.104c0.367,0.753,0.666,1.535,0.899,2.344
	c0.197,0.431,0.344,0.883,0.442,1.355c0.331,0.836,0.56,1.716,0.75,2.61c0.153,0.211,0.158,0.481,0.206,0.735
	c0.201,0.702,0.281,1.455,0.47,2.163c0.004,0.084,0.077,0.139,0.015,0.25c0.186,1.307,0.5,2.56,0.482,3.951
	c0.231,0.811,0.137,1.754,0.188,2.637c0.029,0.415,0.055,0.831-0.017,1.287c0.045,0.46,0.021,0.948-0.061,1.46
	c0.07,0.312-0.144,0.742-0.031,1.038c-0.181,1.338-0.261,2.635-0.658,4.062c0.073,0.431-0.237,1.02-0.313,1.513l-0.179,0.688
	c-0.123,0.274-0.092,0.752-0.312,0.897c-0.169,0.701-0.367,1.364-0.654,1.909c-0.42,1.321-1,2.429-1.56,3.564l-0.074-0.021
	c-0.074,0.314-0.177,0.59-0.357,0.762c-0.063,0.224-0.148,0.422-0.297,0.533c-0.012,0.139-0.069,0.216-0.149,0.266
	c-0.203,0.452-0.479,0.806-0.713,1.216c-0.341,0.5-0.655,1.036-1.024,1.498c-0.077,0.257-0.23,0.416-0.386,0.569
	c-0.153,0.132-0.195,0.41-0.371,0.512c-1.055,1.534-2.302,2.813-3.529,4.121l-0.074-0.021c-0.886,0.961-1.854,1.814-2.89,2.577
	c-1.011,0.95-2.216,1.643-3.333,2.453l-0.074-0.021c-0.399,0.396-0.959,0.581-1.422,0.894c-0.955,0.536-1.904,1.08-2.933,1.518
	c-0.085,0.119-0.286,0.085-0.37,0.204c-0.123,0.094-0.27,0.155-0.444,0.183c-0.014,0.034-0.029,0.065-0.089,0.037
	c-0.506,0.23-0.96,0.53-1.525,0.681c-0.452,0.225-0.93,0.415-1.422,0.587c-0.074-0.021-0.1,0.022-0.163,0.016
	c-0.182,0.118-0.39,0.204-0.622,0.257c-0.428,0.23-0.945,0.343-1.407,0.529c-0.885,0.295-1.748,0.618-2.68,0.851
	c-0.343,0.086-0.623,0.254-1.021,0.268c-1.019,0.374-2.117,0.644-3.242,0.878c-0.43,0.151-0.912,0.233-1.362,0.357
	c-0.248,0.005-0.385,0.158-0.666,0.121c-0.295,0.123-0.631,0.193-1.006,0.211c-0.127,0.089-0.293,0.126-0.503,0.106
	c-0.329,0.156-0.768,0.167-1.17,0.227c-0.236,0.048-0.441,0.137-0.74,0.101c-0.358,0.143-0.806,0.167-1.243,0.206
	c-1.118,0.167-2.247,0.318-3.434,0.393c-0.26,0.093-0.609,0.068-0.902,0.117c-0.323-0.016-0.521,0.133-0.888,0.059
	c-0.014,0.034-0.029,0.065-0.089,0.037c-0.257,0.02-0.472,0.096-0.799,0.023c-0.08,0.099-0.237,0.098-0.414,0.069
	c-0.093,0.082-0.286,0.033-0.414,0.069c-0.821,0.046-1.594,0.154-2.428,0.183c-0.29,0.054-0.559,0.135-0.903,0.117
	c-0.04,0.075-0.179,0.02-0.252,0.052c-0.549,0.045-1.077,0.118-1.628,0.16c-1.007,0.159-2.043,0.279-3.049,0.439l-0.074-0.021
	c-0.187,0.087-0.431,0.097-0.666,0.121c-0.148-0.041-0.135,0.13-0.326,0.032c-0.091,0.111-0.296,0.071-0.429,0.126
	c-0.49,0.047-0.909,0.187-1.407,0.222c-0.97,0.208-1.943,0.411-2.931,0.596c-0.506,0.127-1.011,0.256-1.524,0.374
	c-1.858,0.473-3.626,1.063-5.418,1.623c-0.242,0.143-0.508,0.253-0.799,0.33c-0.45,0.228-0.923,0.424-1.422,0.587
	c-0.032,0.06-0.105,0.066-0.177,0.073c-0.562,0.284-1.12,0.574-1.718,0.812c-0.935,0.537-1.859,1.089-2.8,1.617
	c-0.36,0.321-0.755,0.594-1.17,0.842c-0.45,0.408-0.894,0.823-1.408,1.145c-0.846,0.885-1.68,1.786-2.461,2.758
	c-0.091,0.29-0.315,0.405-0.415,0.684c-0.614,0.756-0.971,1.851-1.499,2.719c-0.123-0.41-0.219-0.832-0.22-1.293
	c-0.037-0.377-0.13-0.732-0.101-1.136c-0.085-0.152-0.075-0.344-0.014-0.557c-0.049-0.356-0.038-0.736,0.061-1.152
	c-0.031-0.397,0.054-0.841,0.18-1.303l0.089-0.344c-0.078-0.208,0.07-0.778,0.238-0.918c0.301-1.373,0.875-2.387,1.382-3.49
	l0.074,0.021c0.311-0.949,0.905-1.525,1.321-2.338c0.289-0.234,0.412-0.687,0.712-0.908c0.482-0.828,1.106-1.468,1.676-2.178
	c0.089-0.139,0.192-0.26,0.326-0.34c0.011-0.243,0.255-0.177,0.267-0.418c0.025,0.007,0.05,0.014,0.074,0.021
	c0.716-0.954,1.605-1.679,2.342-2.606l0.074,0.021c0.067-0.09,0.099-0.228,0.222-0.245c0.071-0.137,0.172-0.235,0.311-0.282
	c0.074-0.262,0.308-0.314,0.445-0.491c0.157-0.177,0.295-0.381,0.578-0.392c0.152-0.106,0.33-0.18,0.533-0.22
	c0.245-0.113,0.442-0.289,0.784-0.273c0.123-0.094,0.271-0.156,0.444-0.184c0.888-0.42,1.875-0.708,2.813-1.06
	c0.032-0.06,0.105-0.066,0.177-0.073c1.699-0.606,3.352-1.273,5.079-1.841c0.152-0.106,0.331-0.18,0.533-0.22
	c0.153-0.081,0.268-0.212,0.518-0.163c0.242-0.143,0.508-0.253,0.799-0.33c0.152-0.106,0.331-0.18,0.533-0.22
	c0.18-0.044,0.329-0.13,0.518-0.162c0.685-0.354,1.445-0.608,2.206-0.86c0.271-0.155,0.568-0.278,0.889-0.367
	c0.014-0.034,0.029-0.065,0.089-0.037c0.627-0.301,1.279-0.571,1.955-0.807c0.115-0.129,0.344-0.111,0.459-0.241l0.074,0.021
	l0.015-0.058c0.109,0.016,0.149-0.059,0.252-0.052c0.425-0.234,0.913-0.385,1.347-0.608c0.302-0.167,0.627-0.302,0.978-0.404
	l0.03-0.115c1.091-0.356,1.996-0.959,3.05-1.362c0.024-0.147,0.16-0.148,0.281-0.168c1.202-0.672,2.449-1.284,3.614-2.005
	l0.074,0.021c0.146-0.192,0.383-0.264,0.578-0.392c0.014-0.034,0.029-0.065,0.089-0.037c0.274-0.28,0.668-0.401,0.963-0.654
	c0.602-0.334,1.128-0.77,1.718-1.12c0.717-0.567,1.481-1.073,2.178-1.667c0.72-0.538,1.377-1.16,2.045-1.766
	c0.053-0.058,0.113-0.108,0.192-0.131c1.219-1.266,2.482-2.474,3.499-4.006l0.074,0.021c0.064-0.223,0.223-0.321,0.356-0.454
	c0.573-0.938,1.187-1.822,1.751-2.772c0.029-0.064,0.029-0.167,0.119-0.151c0.298-0.812,0.705-1.483,1.054-2.228
	c0.118-0.331,0.215-0.692,0.401-0.934c0.056-0.415,0.241-0.657,0.342-1.012c0.092-0.161,0.034-0.521,0.223-0.553l0.938-3.614
	c-0.148-0.127,0.076-0.407,0.075-0.595l0.03-0.115c0.055-0.33,0.042-0.632,0.179-0.996c-0.135-0.184,0.107-0.522,0.119-0.767
	c-0.05-0.372,0.03-0.798,0.076-1.21c0.124-0.239-0.01-0.372,0.075-0.595c-0.069-0.228-0.033-0.499,0.046-0.787
	c-0.163-0.035,0.019-0.213,0-0.307c-0.037-0.223-0.054-0.455,0.031-0.73c-0.107-0.041-0.032-0.158-0.015-0.251
	c-0.004-0.084-0.077-0.139-0.015-0.25c0.022-0.845-0.088-1.636-0.07-2.481c-0.107-0.041-0.032-0.158-0.015-0.25
	c-0.051-0.355-0.141-0.694-0.117-1.079c-0.163-0.036,0.019-0.214,0-0.308c-0.074-0.021-0.076-0.072-0.133-0.099
	c0.057-0.348-0.13-0.595-0.073-0.943c-0.16-0.071,0.077-0.305-0.058-0.385c-0.097-0.079-0.059-0.214-0.073-0.328
	c-0.004-0.084-0.077-0.139-0.015-0.25c-0.11-0.399-0.257-0.782-0.235-1.235c-0.097-0.079-0.059-0.214-0.073-0.328
	c-0.2-0.259-0.171-0.612-0.235-0.928c-0.019-0.024-0.018-0.056-0.029-0.084c-0.066-0.723-0.158-1.445-0.278-2.161
	c-0.073-0.432-0.175-0.858-0.274-1.284c-0.019-0.11-0.029-0.222-0.048-0.332c-0.445-2.527-1.269-4.853-2.299-7.197
	c-1.072-2.439-2.162-4.871-3.246-7.305c-0.042-0.094-0.085-0.186-0.128-0.279c1.496-0.347,3.077-0.734,4.735-1.158
	c0.289,0.361,0.677,0.681,1.049,1.008c0.184,0.026,0.133,0.149,0.354,0.161c-0.005,0.019-0.01,0.038-0.015,0.058
	c0.281,0.123,0.549,0.251,0.769,0.4c0.124,0.035,0.247,0.069,0.369,0.103c0.296,0.05,0.336,0.205,0.652,0.244
	c0.383,0.044,0.811,0.147,1.154,0.138c0.997,0.033,1.774-0.225,2.812-0.136c0.159-0.047,0.38-0.012,0.621,0.05
	c0.005-0.019,0.01-0.038,0.015-0.058c0.197,0.055,0.394,0.11,0.591,0.165c0.222-0.093,0.777,0.257,0.932,0.076
	c0.213-0.078,0.442-0.135,0.681-0.179c0.545-0.153,0.989-0.439,1.451-0.701c0.334-0.277,0.599-0.646,0.948-0.904
	c0.106-0.193,0.152-0.468,0.311-0.59c0.019-0.256,0.152-0.365,0.223-0.553c0.221-0.706,0.284-1.347,0.27-1.956
	c0.01-0.038,0.02-0.077,0.03-0.114c0.006-0.303-0.034-0.586-0.082-0.866c1.086-0.322,2.184-0.651,3.304-0.991
	C186.954,218.991,187.027,219.266,187.124,219.577z M299.981,302.752c-1.805-1.053-4.524-3.001-6.322-6.313
	c-0.837-1.542-1.677-3.751-1.822-12.806c-0.105-6.545,0.234-11.588,0.314-12.742c0.553-7.955,1.14-8.352,1.19-14.043
	c0,0,0.069-7.829-1.507-12.139c-0.844-2.307-2.062-4.918-2.062-4.918c0-0.001-0.001-0.001-0.001-0.001
	c-0.79-1.593-1.646-3.295-3.174-5.237c-0.891-1.133-1.732-1.992-2.339-2.569c-0.161,0.056-0.346-0.279-0.517-0.377l-0.095-0.085
	c-0.283-0.221-0.561-0.37-0.849-0.677c-0.209,0.015-0.441-0.366-0.659-0.505c-0.354-0.156-0.715-0.448-1.075-0.704
	c-0.179-0.23-0.341-0.189-0.517-0.377c-0.228-0.064-0.463-0.237-0.7-0.455c-0.082,0.117-0.187-0.128-0.279-0.163
	c-0.214-0.087-0.43-0.196-0.653-0.412c-0.071,0.067-0.153-0.057-0.232-0.121c-0.078-0.042-0.15-0.01-0.232-0.12
	c-0.76-0.466-1.513-0.793-2.274-1.256c-0.071,0.067-0.153-0.057-0.232-0.121c-0.338-0.146-0.674-0.25-1.016-0.474
	c-0.083,0.116-0.188-0.129-0.28-0.163c-0.042,0.051-0.088,0.025-0.131,0.058c-0.298-0.232-0.581-0.208-0.879-0.439
	c-0.114,0.095-0.253-0.226-0.368-0.156c-0.102,0.039-0.213-0.064-0.32-0.113c-0.077-0.042-0.15-0.01-0.232-0.121
	c-0.396-0.12-0.79-0.201-1.194-0.459c-0.102,0.038-0.212-0.065-0.32-0.113c-0.297,0.029-0.609-0.182-0.915-0.296
	c-0.179,0.016-0.369-0.178-0.547-0.14c-0.063-0.051-0.12,0.006-0.184-0.078c-0.24-0.012-0.486-0.126-0.731-0.219
	c-0.133,0.027-0.276-0.112-0.41-0.105c-0.056,0.052-0.12-0.012-0.184-0.078c-0.161,0.052-0.337-0.136-0.499-0.097
	c-0.063-0.052-0.12,0.006-0.184-0.078c-0.087,0.039-0.179,0.002-0.273-0.071c-0.453-0.078-0.907-0.163-1.367-0.351
	c-0.234,0.077-0.485-0.1-0.725-0.125c-0.212-0.043-0.42-0.03-0.636-0.133c-0.133,0.021-0.27-0.018-0.41-0.105
	c-0.193,0.04-0.388,0.024-0.589-0.09c-0.66-0.041-1.328-0.189-1.992-0.297c-0.148,0.028-0.303-0.066-0.452-0.055
	c-0.317-0.051-0.63-0.034-0.951-0.152c-0.176,0.062-0.359-0.015-0.541-0.047c-0.359-0.001-0.719-0.028-1.082-0.094
	c-0.179-0.003-0.357,0.021-0.541-0.047c-0.116,0.05-0.244-0.074-0.357,0.031l-0.095-0.085c-0.416,0.04-0.836,0.015-1.26-0.079
	c-0.13,0.079-0.27-0.023-0.404-0.012c-0.043,0.03-0.088,0.023-0.137-0.035c-0.171,0.123-0.363-0.077-0.535,0.046l-0.095-0.085
	c-0.129,0.083-0.268,0.023-0.405-0.012c-0.205,0.065-0.422-0.041-0.63-0.04c-0.072,0.046-0.147,0.048-0.226-0.028
	c-0.282,0.03-0.568-0.018-0.856-0.067c-0.329,0.006-0.657,0.011-0.993-0.102c-0.151-0.029-0.295,0.066-0.452-0.054
	c-0.398,0.09-0.813-0.099-1.213-0.036l-0.048-0.043c-0.194-0.001-0.391-0.048-0.588-0.09c-0.132,0.047-0.272-0.058-0.404-0.012
	l-0.048-0.043c-0.195-0.01-0.388,0.014-0.589-0.09c-0.043,0.03-0.088,0.023-0.137-0.035c-0.176,0.062-0.359-0.015-0.541-0.047
	c-0.389-0.016-0.781-0.069-1.177-0.179c-0.676-0.049-1.36-0.24-2.039-0.339c-0.303-0.061-0.602-0.068-0.909-0.203
	c-0.043,0.03-0.088,0.023-0.137-0.035c-0.043,0.03-0.089,0.023-0.137-0.035c-0.028,0.028-0.057,0.054-0.09,0.008
	c-0.095-0.085-0.174,0.083-0.273-0.071c-1.438-0.296-2.878-0.628-4.332-1.173c-0.651-0.127-1.311-0.401-1.967-0.627
	c-0.841-0.316-1.681-0.605-2.531-1.046c-0.118,0.019-0.242-0.051-0.368-0.156c-0.317-0.059-0.643-0.253-0.968-0.432l-0.042,0.051
	c-0.207-0.215-0.4-0.184-0.605-0.369c-0.117,0.041-0.247-0.126-0.369-0.155c-1.374-0.719-2.747-1.412-4.138-2.408
	c-0.29-0.1-0.596-0.464-0.89-0.626c-0.177,0.043-0.378-0.308-0.564-0.42c-0.24-0.012-0.504-0.423-0.754-0.591l-0.19-0.171
	c-0.161,0.056-0.346-0.279-0.517-0.377l-0.759-0.684c-0.118-0.162-0.462-0.304-0.433-0.478l-0.285-0.257
	c-0.18-0.219-0.591-0.418-0.623-0.65l-0.285-0.257c-0.229-0.261-0.535-0.516-0.676-0.785c-0.402-0.393-0.734-0.791-1.033-1.193
	c8.712-3.118,17.572-6.443,26.17-9.84c0.312,0.123,0.625,0.25,0.942,0.439c0.405,0.16,0.822,0.317,1.252,0.47
	c0.767,0.274,1.512,0.515,2.231,0.727c0.278,0.15,0.544,0.094,0.826,0.304c0.318,0.066,0.633,0.089,0.957,0.245
	c0.133-0.021,0.27,0.018,0.41,0.105c0.163-0.034,0.334,0.079,0.499,0.097c0.105,0.007,0.212,0.046,0.315,0.02l0.095,0.085
	c0.254,0.016,0.513,0.087,0.772,0.167c0.405,0.02,0.814,0.113,1.225,0.222c0.449,0.006,0.903,0.092,1.356,0.165
	c0.222-0.036,0.448-0.009,0.678,0.082c0.233-0.093,0.48,0.033,0.719,0.031c0.181,0.02,0.359,0.007,0.541,0.047
	c0.735,0.043,1.471,0.094,2.205,0.138c1.211,0.007,2.426,0.062,3.639,0.107c0.344,0.013,0.686-0.031,1.035,0.051
	c0.266-0.058,0.534-0.06,0.808,0.024c0.536-0.048,1.076-0.003,1.617,0.048c0.072-0.046,0.147-0.048,0.226,0.028l0.042-0.051
	c0.077,0.049,0.148-0.01,0.226,0.028c0.495,0.019,0.988,0.02,1.486,0.106c0.493-0.005,0.992,0.086,1.487,0.106
	c0.121,0.03,0.239,0.003,0.362,0.062c0.103-0.026,0.21,0.014,0.315,0.02c0.422,0.053,0.843,0.104,1.266,0.172
	c0.378,0.066,0.75,0.051,1.135,0.23c0.798,0.094,1.6,0.26,2.407,0.495c0.452,0.065,0.908,0.182,1.367,0.351
	c0.862,0.168,1.732,0.444,2.603,0.76c0.239-0.015,0.486,0.124,0.731,0.218c0.7,0.205,1.408,0.538,2.109,0.755
	c0.078,0.041,0.15,0.01,0.232,0.121c1.244,0.538,2.479,0.941,3.736,1.693c0.808,0.238,1.634,0.816,2.453,1.241
	c0.385,0.196,0.771,0.395,1.164,0.696c0.432,0.207,0.867,0.484,1.307,0.825c0.306,0.107,0.629,0.513,0.932,0.576
	c1.159,0.859,2.311,1.613,3.483,2.699c0.414,0.168,0.853,0.738,1.276,1.061l0.569,0.513c0.211,0.248,0.654,0.475,0.717,0.735
	c0.584,0.512,1.124,1.027,1.53,1.555c1.069,1.048,1.895,2.118,2.751,3.184l-0.042,0.051c0.262,0.228,0.481,0.459,0.581,0.7
	c0.184,0.171,0.337,0.346,0.391,0.528c0.123,0.083,0.175,0.172,0.195,0.264c0.347,0.408,0.583,0.825,0.883,1.236
	c0.348,0.548,0.737,1.093,1.042,1.644c0.209,0.2,0.306,0.411,0.397,0.622c0.072,0.197,0.312,0.379,0.349,0.579
	c0.475,0.78,0.953,1.63,1.42,2.549c0.686,1.351,1.239,2.642,1.687,3.836c0.743,2.183,1.591,5.479,1.554,9.505
	c-0.033,3.594-0.758,6.313-1.172,7.771c-3.717,13.094-9.302,18.464-11.742,30.784c-1.2,6.056-1.27,11.919-1.27,13.805
	C299.372,296.986,299.659,300.24,299.981,302.752z M295.621,229.435c-0.055,0.066-0.111,0.133-0.167,0.2
	c-0.224,0.3-0.329,0.591-0.573,0.893c0.016,0.014,0.032,0.029,0.048,0.043c-0.297,0.338-0.329,0.653-0.478,0.979
	c-0.008,0.063-0.018,0.126-0.078,0.194c-0.059,0.115-0.003,0.219-0.114,0.338c0.029,0.169-0.081,0.35-0.102,0.525
	c-0.025,0.174-0.064,0.349-0.102,0.525c-0.212,1.768,0.969,3.415,2.461,5.036c3.253,3.604,6.11,5.032,9.474-0.537
	c0.405-0.925,0.506-1.825,0.595-2.723c-0.046-0.121-0.053-0.246-0.023-0.373c-0.016-0.014-0.032-0.029-0.048-0.043
	c0.071-0.115-0.046-0.214,0.025-0.33c-0.07-0.759-0.203-1.513-0.452-2.257c-0.063-0.151-0.114-0.303-0.118-0.459
	c-0.627-1.768-2.637-4.114-4.638-4.708c-0.935-0.368-1.843-0.314-2.724,0.189c-0.461,0.283-0.922,0.572-1.382,0.87
	c-0.397,0.347-0.795,0.68-1.186,1.133C295.899,229.099,295.76,229.267,295.621,229.435z M296.485,231.093
	c0.014-0.017,0.028-0.034,0.042-0.051c0.039-0.207,0.178-0.421,0.365-0.641c0.277-0.354,0.557-0.678,0.841-0.916
	c0.253-0.262,0.511-0.441,0.775-0.536c0.055-0.071,0.114-0.091,0.173-0.108c0.128-0.11,0.258-0.172,0.393-0.174
	c0.318-0.178,0.643-0.245,0.964-0.365c3.101,0.331,5.352,4.285,4.585,6.774c0.044,0.058,0.028,0.123,0.011,0.186
	c-0.05,0.067,0.003,0.125-0.078,0.194c0.018,0.234-0.113,0.48-0.181,0.719c-0.449,1.668-2.269,2.956-3.509,2.74
	c-0.749-0.025-1.505-0.175-2.293-0.833c-0.213-0.046-0.685-0.471-0.759-0.684c-0.668-0.661-1.015-1.35-1.291-2.044
	c-0.118-0.381-0.319-0.754-0.294-1.146C295.964,233.2,296.048,232.162,296.485,231.093z M294.014,222.894
	c-0.238-0.355-0.346-0.72-0.426-1.088c-0.009-0.577,0.161-1.17,0.385-1.768c0.014-0.017,0.028-0.034,0.042-0.051
	c0.272-0.382,0.41-0.754,0.782-1.145c0.12,0.005,0.246,0.112,0.362,0.062c0.094,0.073,0.186,0.11,0.274,0.07
	c0.328-0.002,0.667,0.152,1.01,0.382c-0.227,0.66-0.443,1.319-0.463,1.962c-0.25,0.74-0.324,1.466-0.85,2.229
	c-0.206,0.06-0.43-0.186-0.642-0.226C294.33,223.179,294.172,223.036,294.014,222.894z M291.204,220.98
	c0.017,0.46-0.331,0.911-0.313,1.48c0.012,0.342,0.401,0.806,0.011,0.889c-0.319,0.149-0.644,0.218-0.999-0.195
	c-0.298-0.333-0.31-0.692-0.645-1.022c-0.004-0.14-0.098-0.273-0.249-0.4c0.071-0.147,0.362-0.312,0.286-0.446
	c0.035-0.096,0.271-0.211,0.161-0.295c0.076-0.085,0.119-0.167,0.12-0.245c0.171-0.506,0.658-1.049,1.097-1.126
	c0.319,0.222,0.42,0.463,0.492,0.707C291.215,220.541,291.228,220.759,291.204,220.98z M261.948,214.79
	c-0.008,0.11-0.048,0.223-0.025,0.33c0.04,0.091-0.154,0.201-0.072,0.287c-0.162,0.124-0.041,0.222-0.203,0.346
	c-0.111,0.134-0.223,0.269-0.334,0.403c-0.19-0.171-0.38-0.342-0.569-0.513c-0.329-0.331-0.493-0.676-0.646-1.022
	c0.016-0.064,0.033-0.128-0.011-0.186c0.059-0.333,0.141-0.668,0.52-1.029c0.057-0.048,0.118-0.032,0.178-0.015
	c0.148-0.037,0.307,0.116,0.458,0.147C261.734,213.933,261.874,214.359,261.948,214.79z M256.061,205.083
	c-0.142-0.19-0.377-0.374-0.439-0.571c-0.227-0.152-0.284-0.319-0.433-0.478c-0.572-0.557-1.135-0.949-1.692-1.26
	c-0.032-0.029-0.064-0.057-0.095-0.085c-0.528-0.32-1.044-0.455-1.568-0.709c-0.359,0.004-0.731-0.216-1.093-0.281
	c-0.092-0.037-0.181-0.033-0.273-0.07c-0.042,0.048-0.091-0.013-0.137-0.035c-0.481-0.044-0.966-0.14-1.445-0.156
	c-0.12-0.005-0.236,0.041-0.363-0.063c-0.069,0.088-0.143,0.099-0.22,0.066c-0.981,0.577-1.963,1.137-2.914,2.22
	c-0.335,0.544-0.79,1.099-0.932,1.627c-0.084,0.258-0.148,0.513-0.222,0.77c-0.067,0.396-0.117,0.791-0.151,1.185
	c0.066,0.119-0.018,0.252,0.023,0.373c0.045,0.059,0.028,0.123,0.011,0.186c0.058,0.495,0.164,0.986,0.269,1.476
	c0.168,0.423,0.329,0.846,0.526,1.267c0.484,0.817,0.941,1.637,1.808,2.422c0.206,0.186,0.411,0.371,0.617,0.556
	c1.027,0.892,2.021,1.271,3.011,1.568c0.073-0.016,0.15,0.002,0.226,0.028c0.408,0.068,0.81,0.042,1.213,0.036
	c0.431-0.043,0.854-0.205,1.279-0.345c0.081-0.139,0.177-0.032,0.256-0.209c0.016,0.014,0.032,0.029,0.048,0.043
	c0.199-0.168,0.399-0.323,0.602-0.427c0.07-0.084,0.139-0.168,0.209-0.252c0.137-0.219,0.29-0.171,0.424-0.412
	c0.159-0.295,0.386-0.596,0.484-0.885c0.34-0.811,0.347-1.592,0.75-2.408c0.006-0.157,0.107-0.322,0.238-0.489
	c-0.016-0.014-0.032-0.029-0.048-0.043c0.111-0.134,0.223-0.269,0.334-0.403c-0.015-0.233,0.475-0.509,0.359-0.734
	c-0.005-0.219,0.015-0.439,0.049-0.66c0.03-0.534-0.092-1.054-0.186-1.577C256.439,205.925,256.186,205.51,256.061,205.083z
	 M254.586,208.768c0.048,0.059-0.015,0.126-0.078,0.194c0.036,0.09-0.001,0.188-0.073,0.287c0.04,0.153-0.079,0.319-0.15,0.482
	c-0.069,0.256-0.135,0.512-0.311,0.777c-0.06,0.161-0.071,0.319-0.239,0.489c-0.042,0.081-0.012,0.157-0.12,0.245
	c-0.028,0.034-0.056,0.068-0.083,0.101c0.037,0.184-0.301,0.401-0.412,0.598c0.018,0.144-0.324,0.558-0.461,0.557
	c-0.086,0.05-0.16,0.311-0.256,0.209c-0.069,0.091-0.14,0.147-0.215,0.159c-0.028,0.028-0.056,0.053-0.09,0.008
	c-0.316,0.219-0.641,0.281-0.97,0.271c-0.205,0.066-0.421-0.041-0.63-0.039c-0.272-0.058-0.549-0.188-0.826-0.304
	c-0.36-0.271-0.712-0.401-1.08-0.797c-0.29-0.319-0.814-0.617-0.955-0.948c-0.723-0.656-1.215-1.332-1.826-1.998
	c-0.181-0.953-0.175-1.922,0.269-2.929c0.121-0.245,0.308-0.495,0.537-0.75c0.07-0.084,0.139-0.168,0.209-0.253
	c0.408-0.414,0.82-0.767,1.245-0.904c1.29-0.653,2.611-0.805,3.967-0.39c0.466,0.035,0.948,0.343,1.432,0.673
	c0.048,0.043,0.095,0.085,0.142,0.128c0.496,0.426,0.856,0.864,0.978,1.321c0.176,0.328,0.265,0.665,0.241,1.01
	C254.877,207.556,254.751,208.161,254.586,208.768z M238.173,208.079c0.254,0.322,0.333,0.658,0.241,1.01
	c-0.042,0.051-0.083,0.101-0.125,0.151c-0.578,0.806-1.2,0.912-1.805,1.281c-0.167-0.047-0.313,0.258-0.493-0.005
	c-0.016-0.061-0.034-0.122-0.1-0.179c0.029-0.158,0.032-0.315,0.061-0.474c-0.012-0.124,0.134-0.261,0.245-0.396
	c0.139-0.168,0.278-0.337,0.418-0.505c0.042-0.051,0.083-0.101,0.125-0.151c0.028-0.034,0.056-0.068,0.083-0.101
	c0.042-0.051,0.083-0.101,0.125-0.151c0.278-0.104,0.531-0.607,0.799-0.865C237.889,207.823,238.031,207.951,238.173,208.079z
	 M236.716,206.237c-0.365,0.399-0.739,0.625-1.103,1.033c-0.413,0.333-0.83,0.593-1.245,0.904c-0.126-0.114-0.253-0.228-0.379-0.342
	c-0.682-0.703-0.172-1.807,0.708-2.357c0.236-0.051,0.468-0.169,0.702-0.248c0.238-0.024,0.483,0.076,0.725,0.124
	C236.487,205.632,236.641,205.931,236.716,206.237z M297.969,282.578c-0.229-0.061-0.42-0.305-0.644-0.388
	c-0.531-0.465-1.295,0.173-2.016,0.609c-0.196,0.165-0.392,0.329-0.588,0.494c-0.971,0.9-1.345,1.772-1.768,2.646
	c0.015,0.123-0.01,0.249-0.079,0.377c-0.15,0.364-0.109,0.719-0.18,1.079c0.032,0.696,0.085,1.393,0.776,2.057
	c0.333,0.105,0.618,0.434,0.976,0.418c0.321,0.086,0.677-0.002,1.017-0.002c0.392-0.176,0.777-0.322,1.195-0.617
	c0.235-0.198,0.47-0.395,0.706-0.593c0.501-0.536,0.906-1.068,1.159-1.592c0.161-0.349,0.264-0.695,0.414-1.044
	c0-0.187,0.039-0.375,0.12-0.565c0.069-0.36-0.03-0.712-0.016-1.07C298.87,283.776,298.588,283.169,297.969,282.578z
	 M296.847,285.147c0.036,0.294-0.222,0.6-0.041,0.886c-0.372,0.159-0.716,0.181-1.136,0.567c-0.227-0.222-0.287-0.452-0.291-0.684
	c-0.058-0.184-0.019-0.372,0.119-0.564c0.035-0.188,0.179-0.381,0.412-0.578c0.137-0.115,0.275-0.231,0.412-0.346
	c0.245-0.12,0.613,0.392,0.507,0.581C296.845,285.053,296.903,285.097,296.847,285.147z M303.358,267.014
	c0.797-0.837,1.432-1.695,1.848-2.58c0.188-0.601,0.5-1.187,0.52-1.809c0.077-0.209,0.015-0.436,0.056-0.649
	c-0.054-0.179-0.019-0.346-0.046-0.521c0.029-0.324-0.236-0.686-0.256-1.016c-0.143-0.236-0.287-0.473-0.43-0.71
	c-0.996-1.589-2.713-1.377-4.626-0.673c-0.317,0.155-0.61,0.249-0.961,0.489c-0.752,0.515-1.237,1.064-1.717,1.613
	c-0.629,0.952-1.006,1.936-1.179,2.945c0.001,0.406-0.044,0.807,0.022,1.221c0.018,1.032,0.737,2.389,1.684,2.929
	c0.219,0.177,0.488,0.228,0.701,0.416c0.505,0.099,0.964,0.309,1.518,0.284c0.487-0.283,0.974-0.565,1.461-0.848
	C302.497,267.75,302.849,267.373,303.358,267.014z M299.687,265.992c-0.253,0.077-0.516-0.49-0.497-0.671
	c-0.662-1.332-0.364-2.544,0.554-3.679c0.4-0.333,0.984-1.238,1.466-0.988c0.367-0.025,0.696,0.044,1.109-0.096
	c0.01,0.017,0.021,0.034,0.031,0.051c0.042-0.02,0.083-0.038,0.097,0.012c0.045-0.026,0.089-0.052,0.133-0.077
	c0.216,0.054,0.411,0.162,0.537,0.442c0.061,0.101,0.123,0.203,0.184,0.304c0.263,0.423,0.314,0.82,0.283,1.207
	c0.053,0.35-0.053,0.68-0.198,1.006c0.01,0.017,0.021,0.034,0.031,0.051c-0.193,0.382-0.35,0.769-0.756,1.124
	c-0.049,0.134-0.195,0.257-0.404,0.371C301.447,265.757,300.362,266.051,299.687,265.992z"/>
</svg>
