<svg width="400" height="400" viewBox="0 0 400 400" fill="none" xmlns="http://www.w3.org/2000/svg">
<path style="fill:#FF0000;" d="M216.807,137.79c-0.071-0.225-0.193-0.398-0.242-0.645c-0.153-0.223-0.221-0.533-0.404-0.726
	c-0.356-0.719-0.956-1.195-1.452-1.775c-0.856-0.757-1.894-1.334-3.066-1.775c-0.653-0.074-1.175-0.278-1.856-0.323
	c-0.592,0-1.183,0-1.775,0c-0.512,0.349-0.81,0.911-1.21,1.372c-0.09,0.367-0.303,0.611-0.404,0.969
	c-0.557,1.282-0.465,3.371,0.081,4.599c0.166,0.532,0.425,0.973,0.645,1.452c0.705,1.07,1.579,1.972,2.663,2.663
	c0.73,0.319,1.465,0.633,2.421,0.726c0.446,0.042,0.761-0.047,1.13-0.081c2.103-0.479,3.762-1.402,3.792-3.954
	c0-0.377,0-0.754,0-1.13C216.968,138.759,217.01,138.152,216.807,137.79z M214.467,141.019c-0.053,0-0.107,0-0.161,0
	c0.014,0.069-0.032,0.076-0.081,0.081c0,0.027,0,0.054,0,0.081c-0.447,0.118-0.705,0.424-1.049,0.645
	c-0.298,0.624-1.315-0.042-1.856-0.161c-1.443-0.709-2.371-1.933-2.501-3.954c-0.116-0.201-0.189-1.048,0.081-1.13
	c0.574-0.53,1.71-0.925,2.824-0.646c0.25-0.008,0.448,0.037,0.565,0.161c0.558,0.141,0.91,0.489,1.291,0.807
	c0,0.027,0,0.054,0,0.081c0.308,0.284,0.583,0.6,0.726,1.049c0.239,0.433,0.409,0.936,0.403,1.614c0,0.161,0,0.323,0,0.484
	C214.748,140.547,214.632,140.808,214.467,141.019z M243.594,204.761c-0.378-0.886-0.553-1.975-1.049-2.743
	c-0.067-0.202-0.221-0.317-0.242-0.565c-0.19-0.213-0.348-0.459-0.484-0.726c-0.109-0.079-0.161-0.215-0.242-0.323
	c-0.211-0.273-0.456-0.512-0.645-0.807c-0.363-0.256-0.608-0.629-0.968-0.888c-1.012-0.924-2.351-1.522-3.792-2.017
	c-0.151-0.117-0.534-0.003-0.645-0.161c-0.262,0.046-0.376-0.055-0.565-0.081c-0.365-0.146-0.964-0.058-1.452-0.081
	c-0.081,0-0.161,0-0.242,0c-0.109,0.026-0.154,0.115-0.322,0.084c-1.238,0.24-2.138,0.819-2.985,1.452
	c-0.017,0.09-0.089,0.125-0.161,0.161c-0.184,0.219-0.358,0.449-0.565,0.645c-0.081,0.108-0.133,0.244-0.242,0.323
	c-0.121,0.203-0.202,0.445-0.404,0.565c0,0.027,0,0.054,0,0.081c-0.579,0.981-0.913,2.207-1.21,3.47
	c0.06,0.491-0.129,0.731-0.081,1.21c0,0.458,0,0.915,0,1.372c0,0.216,0,0.431,0,0.646c0.054,0.321,0.204,0.549,0.161,0.968
	c0.125,0.305,0.205,0.655,0.242,1.049c0.135,0.188,0.211,0.435,0.242,0.726c0.094,0.013,0.088,0.127,0.081,0.242
	c0.202,0.309,0.345,0.677,0.484,1.049c0.108,0.053,0.15,0.173,0.161,0.323c0.106,0.028,0.127,0.142,0.242,0.161
	c0,0.053,0,0.107,0,0.161c0.112,0.13,0.229,0.255,0.323,0.403c0.26,0.224,0.415,0.553,0.726,0.726
	c0.071,0.035,0.144,0.07,0.161,0.161c0.09,0.017,0.125,0.089,0.161,0.161c0.247,0.103,0.424,0.275,0.645,0.404
	c0.176,0.172,0.477,0.221,0.645,0.403c0.206,0.036,0.371,0.113,0.484,0.242c0.218,0.078,0.461,0.131,0.645,0.242
	c0.338,0.039,0.599,0.155,0.888,0.242c0.711,0.203,1.563,0.265,2.34,0.403c0.35,0,0.699,0,1.049,0
	c0.01-0.179,0.342-0.035,0.484-0.081c0.108,0,0.215,0,0.323,0c0.159-0.136,0.503-0.088,0.726-0.161
	c0.094-0.068,0.217-0.107,0.404-0.081c0.497-0.202,1.006-0.393,1.452-0.646c0.563-0.432,1.083-0.906,1.533-1.452
	c0.924-1.093,1.501-2.532,1.775-4.276c0-0.134,0-0.269,0-0.403c0-0.296,0-0.592,0-0.888s0-0.592,0-0.888
	C243.491,205.456,243.645,205.006,243.594,204.761z M241.015,207.748c0,0.053,0,0.107,0,0.161c0.006,0.114,0.013,0.228-0.081,0.242
	c-0.007,0.262-0.042,0.496-0.162,0.645c-0.065,0.339-0.22,0.588-0.323,0.888c-0.069,0.065-0.048,0.221-0.161,0.242
	c0.022,0.13-0.077,0.139-0.081,0.242c0.015,0.069-0.032,0.077-0.081,0.081c-0.177,0.334-0.378,0.644-0.645,0.888
	c-0.235,0.302-0.378,0.697-0.968,0.645c0,0.027,0,0.054,0,0.081c-0.578-0.041-0.856,0.22-1.452,0.161c-0.216,0-0.431,0-0.646,0
	c-1.649,0.008-2.896-0.386-3.792-1.13c-0.069,0.015-0.077-0.032-0.081-0.081c-0.161-0.082-0.345-0.14-0.404-0.323
	c-0.222-0.154-0.411-0.343-0.565-0.565c-0.263-0.221-0.421-0.547-0.644-0.804c-0.384-0.72-0.723-1.483-0.888-2.421
	c-0.099-0.574-0.157-1.188-0.161-1.856c-0.025-1.155,0.114-2.145,0.403-2.986c0.008-0.206,0.045-0.385,0.161-0.484
	c0.032-0.452,0.201-0.768,0.404-1.049c0.062-0.207,0.08-0.458,0.242-0.565c0.581-0.521,1.555-0.65,2.582-0.726
	c0.245-0.134,1.046-0.134,1.291,0c1.676,0.1,2.81,0.741,3.712,1.614c1.474,1.296,2.435,3.105,2.501,5.809
	C241.184,206.949,241.153,207.401,241.015,207.748z M221.003,218.962c-0.082,0.186-0.371,0.167-0.645,0.161c0,0.242,0,0.484,0,0.726
	c-0.087,0.436,0.219,0.481,0.161,0.888c0.217,0.456,0.372,0.972,0.726,1.291c0.197,0.153,0.391,0.308,0.645,0.404
	c0.523,0.039,0.808-0.16,1.21-0.242c0.222-0.145,0.189-0.635,0.081-0.888c-0.15-0.496-0.336-0.955-0.565-1.372
	c-0.112-0.13-0.229-0.256-0.323-0.404c-0.211-0.273-0.457-0.512-0.645-0.807C221.422,218.788,221.318,218.98,221.003,218.962
	L221.003,218.962z M296.768,287.868c-2.098-0.728-4.084-1.672-6.616-1.694h-2.824c-0.112,0.184-0.562,0.03-0.807,0.081
	c-3.55,0.216-6.833,0.698-10.489,0.807c-0.112,0.184-0.562,0.03-0.807,0.081h-1.452c-0.378,0.134-1.316,0.134-1.694,0h-1.21
	c-0.245-0.051-0.695,0.103-0.807-0.081c-9.45-0.179-13.698-5.559-22.269-6.616h-1.937c-3.441,0.297-5.436,2.041-8.795,2.421
	c-0.139,0.134-0.829,0.134-0.968,0c-3.658-0.214-5.7-2.046-8.311-3.308c-1.137-2.897-2.085-5.984-2.259-9.844
	c-0.185-0.191-0.029-0.724-0.081-1.049v-0.484c-0.186-0.244-0.029-0.832-0.081-1.21c0.052-0.378-0.106-0.966,0.081-1.21v-0.565
	c0.052-0.325-0.105-0.858,0.081-1.049c0.729-8.257,2.754-14.683,5.567-20.494c2.795-5.775,7.551-9.929,11.619-14.524
	c4.101-4.632,7.152-10.266,9.521-16.541c2.378-6.299,3.846-13.582,4.276-21.866c0.052-0.378-0.106-0.966,0.081-1.21v-4.115
	c-0.186-0.244-0.028-0.832-0.081-1.21c-0.516-12.838-4.116-22.66-8.795-31.064c-7.098-12.749-19.016-20.872-31.468-28.321
	c-4.224-2.527-8.621-4.753-12.668-7.262c-8.154-5.055-15.896-11.113-16.864-22.996c-0.187-0.378-0.028-1.102-0.081-1.614V91.64
	c0.053-0.592-0.107-1.398,0.081-1.856c0.036-2.653,0.382-4.997,0.484-7.585V80.18c-0.004-3.744-1.176-6.512-3.147-8.472
	c-0.612-0.609-1.868-1.853-2.663-1.694c-2.283,0.456-4.747,1.679-6.213,3.147c-0.246,0.373-0.651,0.586-0.968,0.888
	c-3.463,3.877-5.477,8.889-7.262,14.282c-1.774,5.36-3.53,11.163-3.954,17.67c-0.051,0.245,0.103,0.695-0.081,0.807v2.501
	c0.886,14.337,8.272,22.173,15.411,30.258c0.303,0.235,0.572,0.504,0.807,0.807v0.081c0.33,0.262,0.625,0.558,0.888,0.888
	c0.42,0.414,0.916,0.752,1.291,1.21c3.159,2.987,6.54,5.794,10.005,8.391c1.191,0.893,2.549,1.624,3.631,2.582
	c0.799,0.707,1.42,1.958,2.179,2.905c2.344,2.925,4.975,5.401,7.02,8.472c2.846,4.273,4.152,9.783,4.599,16.057
	c0.188,0.565,0.027,1.479,0.081,2.179c-0.053,0.753,0.107,1.721-0.081,2.34c-0.434,8.826-3.101,16.009-6.536,22.269
	c-3.367,6.136-7.636,11.712-13.555,15.331c-1.283,0.784-2.323,2.402-3.308,3.873c-6.868,10.257-12.068,21.724-13.475,37.116
	c-0.051,0.245,0.103,0.695-0.081,0.807v4.68c0.184,0.112,0.03,0.562,0.081,0.807c0.128,2.292,0.478,4.363,0.807,6.455
	c0.12,0.015,0.074,0.195,0.081,0.323c-0.942-0.053-2.097,0.107-2.905-0.081c-3.355-0.141-6.15-0.843-9.521-0.968
	c-0.298-0.052-0.804,0.104-0.968-0.081h-1.21c-0.164,0.185-0.67,0.029-0.968,0.081c-6.275,0.268-9.573,4.048-13.797,6.536
	c-0.639,0.376-1.706,1.147-2.179,1.049c-1.322-0.276-2.628-0.964-4.196-1.21c-1.563-0.246-3.129-0.429-5.003-0.404
	c-0.112,0.184-0.562,0.03-0.807,0.081c-3.944,0.117-7.357,0.766-11.377,0.807c-0.112,0.184-0.562,0.03-0.807,0.081
	c-0.242,0-0.484,0-0.726,0c-0.271,0.186-0.886,0.028-1.291,0.081h-0.403c-0.112,0.184-0.562,0.03-0.807,0.081
	c-0.962,0.006-1.802,0.135-2.824,0.081c-0.164,0.185-0.67,0.029-0.968,0.081h-0.807c-0.138,0.184-0.616,0.03-0.888,0.081h-0.887
	c-0.112,0.184-0.562,0.03-0.807,0.081h-0.646c-0.112,0.184-0.562,0.03-0.807,0.081c-0.745,0.062-1.55,0.064-2.259,0.161
	c-0.081,0-0.096,0.066-0.161,0.081c-1.07,1.804-1.88,3.409-2.098,5.567c-0.243,2.398,0.696,4.084,2.098,5.487
	c2.462,2.462,6.711,3.998,10.409,5.083c8.001,2.349,16.178,4.655,25.981,4.922c0.245,0.05,0.695-0.103,0.807,0.081h0.807
	c0.245,0.051,0.695-0.103,0.807,0.081h0.888c0.272,0.051,0.749-0.104,0.888,0.081h0.888c0.272,0.051,0.749-0.104,0.888,0.081
	c0.269,0,0.538,0,0.807,0c0.245,0.051,0.695-0.103,0.807,0.081c15.239,0.819,23.003,9.11,38.004,10.166
	c0.272,0.051,0.749-0.104,0.888,0.081h2.743c0.138-0.185,0.616-0.03,0.887-0.081c8.698-0.365,13.955-4.172,22.431-4.76
	c0.861-0.135,2.286-0.135,3.147,0c9.364,0.695,15.789,4.329,25.336,4.841c0.272,0.051,0.75-0.104,0.888,0.081
	c8.255,0.398,13.497-2.39,18.881-4.922c5.392-2.536,10.667-5.112,18.8-5.003c0.112-0.184,0.562-0.03,0.807-0.081
	c0.95-0.045,1.873-0.117,2.905-0.081c0.244-0.186,0.832-0.029,1.21-0.081c1.266,0.056,2.284-0.136,3.55-0.081
	c0.218-0.186,0.778-0.029,1.13-0.081h0.968c0.271-0.186,0.886-0.028,1.291-0.081c6.694-0.689,15.441-0.516,17.106-6.132
	C312.374,289.987,302.457,289.843,296.768,287.868z M224.473,244.459c-0.368,1.219-0.9,2.274-1.291,3.47
	c-0.185,0.972-0.607,1.707-0.807,2.663c-0.232,0.602-0.341,1.327-0.565,1.937c-0.007,0.128,0.039,0.308-0.081,0.323v0.081
	c-0.408,1.502-0.655,3.164-0.968,4.76c0.062,0.385-0.126,0.519-0.081,0.888c-0.26,1.353-0.298,2.929-0.484,4.357v4.68
	c0.059,1.394,0.178,2.727,0.323,4.034c0.178,0.01,0.034,0.342,0.081,0.484c0.864,3.924,2.377,7.198,2.985,11.377
	c0.058,0.399,0.111,0.804,0.081,1.291c0.134,0.352,0.134,1.262,0,1.614c-0.051,0.298,0.105,0.804-0.081,0.968v0.081
	c-0.004,2.578-2.248,2.916-4.357,3.389c-0.112,0.184-0.562,0.03-0.807,0.081h-0.888c-0.193-0.049-0.585,0.102-0.645-0.081h-0.242
	c-0.128-0.007-0.308,0.039-0.323-0.081c-3.951-0.648-6.722-2.476-10.086-3.712c-0.728-0.295-1.536-0.508-2.34-0.726
	c-0.325,0.055-0.461-0.077-0.726-0.081c-0.325-0.052-0.858,0.105-1.049-0.081c0-0.323-0.161-0.484-0.161-0.807
	c-0.186,0.025-0.09-0.233-0.242-0.242v-0.161c-0.554-0.629-1.091-1.276-1.775-1.775c-0.341-0.224-0.665-0.465-0.968-0.726
	c-0.373-0.272-0.779-0.512-1.049-0.888c-0.771-0.547-1.191-1.444-1.694-2.259c-0.108-0.053-0.15-0.173-0.161-0.323
	c-0.534-0.892-0.986-1.865-1.372-2.905c-0.139-0.264-0.27-0.537-0.323-0.888h-0.081c-0.744-2.241-1.472-4.499-1.856-7.1
	c-0.122-0.228-0.142-0.557-0.161-0.887c-0.174-0.741-0.288-1.541-0.323-2.421c-0.13-0.354-0.111-0.857-0.161-1.291v-0.484
	c-0.186-0.218-0.029-0.778-0.081-1.13v-0.484c-0.184-0.112-0.03-0.562-0.081-0.807v-1.291c0.051-0.245-0.103-0.695,0.081-0.807
	v-0.323c0.052-0.378-0.106-0.966,0.081-1.21c0.051-0.272-0.104-0.75,0.081-0.888c0.094-0.417,0.013-1.009,0.161-1.372
	c0.236-2.157,0.735-4.053,1.21-5.971c0.074-0.142,0.028-0.403,0.162-0.484c0-0.349,0.187-0.512,0.161-0.887h0.081
	c0.104-0.461,0.195-0.935,0.403-1.291c0.008-0.207,0.046-0.385,0.161-0.484c0.297-1.183,0.725-2.234,1.13-3.308
	c0.335-0.821,0.628-1.685,1.049-2.421c0.701-1.854,1.585-3.525,2.501-5.164c-0.059-0.22,0.16-0.162,0.161-0.323
	c-0.015-0.069,0.032-0.076,0.081-0.081c-0.013-0.094,0.018-0.144,0.081-0.162c-0.013-0.094,0.018-0.143,0.081-0.161
	c0.13-0.408,0.371-0.705,0.565-1.049c0.469-0.741,0.859-1.561,1.372-2.259c0.225-0.475,0.5-0.899,0.807-1.291
	c0.12-0.203,0.201-0.444,0.403-0.565c-0.013-0.094,0.018-0.144,0.081-0.161c0.07-0.28,0.252-0.448,0.403-0.646v-0.081
	c0.151-0.091,0.171-0.313,0.323-0.403c0.124-0.226,0.244-0.455,0.403-0.645v-0.081c0.388-0.338,0.557-0.895,0.968-1.21
	c0.019-0.25,0.225-0.313,0.323-0.484c0.174-0.418,0.449-0.734,0.726-1.049c0.192-0.319,0.385-0.637,0.645-0.887
	c-0.004-0.138,0.06-0.209,0.161-0.242c0.174-0.202,0.255-0.499,0.484-0.646c0.081-0.161,0.14-0.345,0.323-0.404v-0.161
	c0.255-0.068,0.23-0.416,0.484-0.484c-0.013-0.094,0.018-0.144,0.081-0.161c0.121-0.121,0.144-0.34,0.323-0.403
	c0.264-0.489,0.588-0.918,0.968-1.291v-0.161c0.189-0.026,0.181-0.25,0.323-0.323c0.089-0.234,0.258-0.388,0.403-0.565
	c0.239-0.407,0.512-0.779,0.807-1.13c0.12-0.203,0.201-0.444,0.403-0.565c0.157-0.408,0.431-0.699,0.646-1.049
	c0.133-0.136,0.175-0.363,0.323-0.484c0.449-0.734,0.864-1.503,1.372-2.179c0.062-0.288,0.208-0.491,0.404-0.646
	c0.036-0.206,0.113-0.371,0.242-0.484c0.084-0.293,0.268-0.485,0.403-0.726c0.176-0.254,0.22-0.641,0.484-0.807
	c0.208-0.599,0.504-1.11,0.807-1.614c0.011-0.15,0.053-0.27,0.161-0.323c-0.023-0.13,0.076-0.139,0.081-0.242
	c0.169-0.127,0.142-0.45,0.323-0.565c-0.007-0.115-0.013-0.229,0.081-0.242c0.117-0.125,0.108-0.376,0.242-0.484
	c0.117-0.313,0.216-0.645,0.403-0.888c-0.023-0.13,0.076-0.139,0.081-0.242c0.181-0.142,0.161-0.484,0.323-0.645
	c0.148-0.39,0.212-0.864,0.484-1.13c0.045-0.144,0.042-0.335,0.161-0.403c0.097-0.602,0.348-1.05,0.565-1.533
	c-0.034-0.169,0.055-0.214,0.081-0.323c0.044-0.144,0.041-0.335,0.161-0.403c0.159-0.056-0.02-0.45,0.161-0.484
	c0.034-0.477,0.289-0.733,0.323-1.21c0.065-0.015,0.08-0.081,0.161-0.081c0.044-0.117-0.094-0.417,0.081-0.404
	c0.077-0.514,0.258-0.925,0.404-1.372c0.007-0.128-0.039-0.308,0.081-0.323c0.204-1.114,0.525-2.111,0.726-3.227
	c-0.034-0.169,0.055-0.214,0.081-0.323c0.007-0.128-0.039-0.308,0.081-0.323c-0.014-0.391,0.064-0.689,0.161-0.968
	c0.044-0.117-0.094-0.417,0.081-0.403c-0.004-0.407,0.031-0.775,0.161-1.049c-0.027-0.323,0.144-0.448,0.081-0.807
	c0.062-0.556,0.093-1.144,0.242-1.614c0.052-0.325-0.105-0.858,0.081-1.049c-0.043-0.528,0.05-0.919,0.081-1.372v-0.161
	c0.051-0.245-0.103-0.695,0.081-0.807v-5.083c-0.184-0.112-0.03-0.562-0.081-0.807c-0.009-0.502-0.134-0.888-0.081-1.452
	c-0.125-0.386-0.128-0.894-0.161-1.372c-0.159-1.105-0.395-2.134-0.484-3.308c-0.095-0.013-0.068-0.147-0.081-0.242
	c-0.323-1.452-0.714-2.836-1.049-4.276c-0.1-0.223-0.236-0.41-0.242-0.726h-0.081c-0.63-2.382-1.595-4.429-2.501-6.536
	c-0.075-0.059-0.122-0.147-0.161-0.242c-0.52-1.04-1.024-2.096-1.614-3.066c-0.552-1.035-1.195-1.978-1.775-2.985
	c-0.508-0.675-0.928-1.439-1.452-2.098c-0.233-0.439-0.602-0.743-0.807-1.21c-0.069,0.015-0.076-0.031-0.081-0.081
	c-0.164-0.239-0.386-0.421-0.484-0.726h-0.081c-0.995-1.372-2.102-2.632-3.147-3.954c-0.118-0.07-0.256-0.121-0.242-0.323
	c-0.966-0.916-1.727-2.038-2.743-2.905v-0.161c-0.33-0.262-0.625-0.558-0.888-0.888c-0.383-0.451-0.84-0.828-1.21-1.291
	c-0.106-0.029-0.127-0.142-0.242-0.161v-0.081h-0.081c-0.083-0.212-0.32-0.272-0.403-0.484c-0.625-0.558-1.217-1.15-1.775-1.775
	c-0.069,0.015-0.076-0.032-0.081-0.081c-0.303-0.235-0.572-0.504-0.807-0.807c-0.708-0.61-1.414-1.222-2.017-1.937
	c-0.184-0.112-0.313-0.279-0.484-0.403c-0.195-0.127-0.357-0.289-0.484-0.484c-0.276-0.208-0.518-0.45-0.726-0.726
	c-0.267-0.028-0.35-0.242-0.484-0.404c-0.195-0.127-0.357-0.289-0.484-0.484c-1.607-1.378-3.112-2.859-4.68-4.276
	c-0.072-0.036-0.144-0.071-0.161-0.161c-0.862-0.805-1.79-1.545-2.582-2.421c-0.169-0.1-0.303-0.235-0.403-0.404
	c-0.353-0.104-0.507-0.407-0.726-0.645c-0.196-0.127-0.357-0.289-0.484-0.484c-0.285-0.118-0.371-0.436-0.484-0.726
	c-0.093-0.283-0.317-0.436-0.323-0.807c-0.129-0.113-0.206-0.278-0.242-0.484c-0.12-0.068-0.117-0.26-0.161-0.403h-0.081
	c-0.505-1.486-1.217-2.763-1.694-4.276c-0.027,0-0.054,0-0.081,0c0.052-0.321-0.214-0.324-0.161-0.646
	c-0.115-0.154-0.188-0.35-0.242-0.565c-0.393-1.14-0.858-2.208-1.13-3.47c-0.246-0.4-0.252-1.039-0.484-1.452
	c-0.208-1.218-0.66-2.191-0.726-3.55h-0.081c-0.224-1.632-0.54-3.172-0.484-5.083c-0.134-0.245-0.134-1.046,0-1.291v-0.484
	c-0.006-0.652,0.025-1.266,0.161-1.775c0.009-0.582,0.098-1.085,0.242-1.533c-0.006-0.302,0.034-0.558,0.161-0.726
	c0.078-0.54,0.266-0.971,0.403-1.452c0.123-0.603,0.332-1.121,0.565-1.614c0.308,1.332,0.382,2.899,0.807,4.115
	c0.029,0.402,0.226,0.635,0.242,1.049c0.538,1.56,1.148,3.047,1.775,4.518c0.438,0.61,0.78,1.317,1.13,2.017
	c0.357,0.477,0.687,0.98,0.968,1.533c0.818,1.037,1.612,2.1,2.421,3.147c0.545,0.531,1.036,1.116,1.533,1.694
	c0.072,0.036,0.144,0.071,0.161,0.161c0.464,0.397,0.894,0.827,1.291,1.291c0.276,0.208,0.518,0.45,0.726,0.726
	c1.675,1.391,3.318,2.814,5.083,4.115c0.491,0.343,0.971,0.697,1.452,1.049c0.956,0.604,1.892,1.228,2.824,1.856
	c0.497,0.229,0.886,0.566,1.372,0.807c0.121,0.121,0.34,0.144,0.403,0.323c0.22-0.059,0.162,0.16,0.323,0.161
	c0.233,0.117,0.479,0.221,0.646,0.403h0.081c0.981,0.579,2.003,1.117,2.985,1.694c0.55,0.257,1.067,0.546,1.614,0.807
	c0.065,0.069,0.221,0.048,0.242,0.161c0.355,0.102,0.607,0.307,0.888,0.484c0.84,0.344,1.598,0.768,2.421,1.13
	c0.121,0.094,0.33,0.1,0.403,0.242c0.188,0.027,0.348,0.083,0.403,0.242c0.352,0.024,0.551,0.203,0.807,0.323
	c0.069-0.015,0.076,0.031,0.081,0.081c0.393,0.037,0.555,0.306,0.888,0.403c0.286,0.172,0.647,0.267,0.887,0.484
	c1.187,0.534,2.296,1.146,3.389,1.775c0.434,0.211,0.884,0.407,1.21,0.726c0.313,0.063,0.499,0.254,0.726,0.404
	c0.393,0.225,0.836,0.401,1.13,0.726c0.219,0.05,0.378,0.16,0.484,0.323c0.377,0.161,0.7,0.376,0.968,0.646
	c0.295,0.055,0.394,0.306,0.645,0.403c0.425,0.328,0.894,0.612,1.291,0.968c1.083,0.719,2.128,1.476,3.066,2.34
	c0.401,0.164,0.642,0.487,0.968,0.726c0.886,0.647,1.679,1.387,2.501,2.098c0.42,0.413,0.916,0.752,1.291,1.21
	c0.222,0.154,0.411,0.343,0.565,0.565c0.065,0.015,0.08,0.081,0.161,0.081c0.455,0.406,0.891,0.831,1.291,1.291
	c0.536,0.405,0.918,0.965,1.372,1.452c0.069-0.015,0.076,0.031,0.081,0.081c0.169,0.1,0.303,0.235,0.403,0.403
	c0.055,0.187,0.268,0.216,0.323,0.403c0.93,0.952,1.752,2.013,2.582,3.066c0.388,0.58,0.909,1.028,1.21,1.694h0.081
	c0.923,1.471,1.965,2.822,2.743,4.438c0.852,1.38,1.612,2.853,2.259,4.438h0.081c0.902,2.164,1.833,4.299,2.501,6.697
	c0.152,0.198,0.121,0.578,0.242,0.807c0.118,0.258,0.231,0.522,0.242,0.887c0.253,0.742,0.431,1.559,0.646,2.34
	c0.13,0.623,0.317,1.189,0.404,1.856c0.068,0.094,0.106,0.216,0.081,0.403c0.122,0.2,0.156,0.49,0.161,0.807
	c0.138,0.292,0.17,0.691,0.162,1.13h0.081c0.27,1.693,0.568,3.359,0.646,5.245c0.148,0.82,0.174,1.762,0.161,2.743
	c0.186,0.271,0.028,0.886,0.081,1.291v0.968c-0.053,0.673,0.107,1.559-0.081,2.098c0.027,2.017-0.234,3.746-0.403,5.567
	c-0.192,0.346-0.088,0.988-0.242,1.372c-0.051,0.702-0.156,1.35-0.323,1.937c-0.048,0.625-0.184,1.161-0.323,1.694
	c-0.286,1.14-0.439,2.411-0.888,3.389c-0.349,1.83-0.999,3.358-1.533,5.003c0.034,0.169-0.055,0.214-0.081,0.323
	c-0.379,0.858-0.659,1.816-1.049,2.663c-0.116,0.315-0.193,0.668-0.404,0.888c-0.429,1.103-0.894,2.172-1.452,3.147
	c-0.224,0.583-0.493,1.121-0.807,1.614c-0.45,0.975-0.961,1.89-1.533,2.743c-0.154,0.519-0.475,0.87-0.726,1.291
	c-0.286,0.467-0.587,0.918-0.887,1.372c-0.081,0.107-0.133,0.243-0.242,0.323c-0.047,0.168-0.17,0.261-0.242,0.403
	c-0.39,0.498-0.718,1.057-1.13,1.533c-0.333,0.554-0.739,1.036-1.13,1.533c-0.029,0.106-0.142,0.127-0.161,0.242h-0.081
	c0.004,0.138-0.06,0.209-0.161,0.242c-0.4,0.568-0.805,1.131-1.291,1.614c-0.149,0.335-0.373,0.595-0.645,0.807
	c-0.213,0.406-0.535,0.703-0.807,1.049c-0.96,1.218-1.912,2.445-2.905,3.631c-0.566,0.751-1.127,1.508-1.694,2.259
	c-0.114,0.209-0.273,0.373-0.404,0.565c-0.199,0.232-0.287,0.574-0.565,0.726c-0.106,0.297-0.268,0.539-0.484,0.726
	c-0.307,0.5-0.603,1.011-0.968,1.453c-0.238,0.488-0.491,0.961-0.807,1.372c-0.14,0.317-0.289,0.626-0.484,0.887v0.161
	c-0.109,0.079-0.161,0.215-0.242,0.323c-0.119,0.176-0.157,0.434-0.323,0.565c-0.036,0.206-0.113,0.371-0.242,0.484
	c-0.124,0.441-0.363,0.767-0.565,1.13c-0.04,0.444-0.311,0.657-0.403,1.049C224.761,243.832,224.728,244.256,224.473,244.459z
	 M116.03,305.378c-1.226-2.55-5.411-3.229-8.633-4.034c-4.415-1.103-7.081-2.58-11.215-2.905c-0.377,0-0.754,0-1.13,0
	c-1.732,0.23-2.813,0.409-3.712,1.21c-2.598,2.313-1.341,7.461,0.565,9.44c2.649,2.751,9.963,3.704,14.604,4.115
	c0.834,0,1.667,0,2.501,0.001c2.957-0.26,5.57-0.73,6.697-2.663C116.533,309.126,116.749,306.872,116.03,305.378z M106.025,308.928
	c-0.539,0.134-1.64,0.134-2.181,0c-0.219-0.05-0.64,0.102-0.726-0.081c-0.053,0-0.107,0-0.161,0
	c-0.456-0.027-0.883-0.085-1.21-0.242c-0.33,0.035-0.517-0.074-0.726-0.161c-0.276-0.074-0.578-0.121-0.807-0.242
	c-0.215-0.054-0.411-0.127-0.565-0.242c-0.585-0.168-1.058-0.448-1.533-0.726c-0.287-0.17-0.601-0.313-0.807-0.565
	c-0.069,0.015-0.076-0.032-0.081-0.081c-0.065-0.069-0.221-0.048-0.242-0.161c-0.071-0.035-0.144-0.07-0.161-0.161
	c-0.74-0.685-1.401-1.449-1.533-2.743c0.517-0.155,0.953-0.392,1.533-0.484c0.104-0.112,0.351-0.08,0.565-0.081
	c0.271-0.187,0.886-0.029,1.291-0.081c0.622-0.003,1.143,0.095,1.614,0.242c0.027,0,0.054,0,0.081,0
	c0.319,0.058,0.654,0.1,0.888,0.242c0.582,0.144,1.144,0.309,1.614,0.565c0.91,0.3,1.759,0.662,2.582,1.049
	c0.2-0.013,0.249,0.126,0.403,0.161c0.093-0.013,0.143,0.018,0.161,0.081c0.42,0.091,0.79,0.232,1.13,0.403c0.081,0,0.161,0,0.242,0
	c1.316-0.658,3.771-0.414,3.712,1.291C109.929,308.098,108.288,308.824,106.025,308.928z M274.256,313.285c-0.323,0-0.645,0-0.968,0
	c-2.945,0.147-5.625,0.56-7.342,1.936c0,0.027,0,0.054,0,0.081c0.134,0.192,0.134,0.937-0.001,1.129
	c-0.103,1.279-1.061,1.491-1.21,2.582c-0.159,1.163,0.383,2.27,0.968,2.985c1.564,1.913,5.246,2.781,8.23,2.905
	c0.538,0,1.076,0,1.614,0c4.672-0.438,9.049-1.17,10.247-5.083c0-0.323,0-0.645,0-0.968
	C284.536,314.409,279.53,313.713,274.256,313.285z M279.501,319.013c-0.131,0.166-0.389,0.204-0.565,0.323
	c-0.359-0.01-0.5,0.199-0.807,0.242c-0.053,0-0.107,0-0.161,0c-2.149,0.567-5.246,0.187-7.504,0.645
	c-0.064-1.302,1.196-1.279,0.888-2.824c-0.255-0.286,0.632-0.117,0.887-0.161c0.865,0.004,1.556-0.165,2.421-0.161
	c0.539-0.134,1.639-0.134,2.179-0.001c0.027,0,0.054,0,0.081,0c0.262,0.006,0.496,0.041,0.645,0.161
	c0.114-0.007,0.229-0.013,0.242,0.081c0.411,0.1,0.701,0.321,0.968,0.565C279.067,318.157,279.648,318.569,279.501,319.013z
	 M213.257,319.337c-2.725-1.37-5.645-1.907-8.956-2.179c-0.538,0-1.076,0-1.614,0c-3.417-0.213-4.782,2.068-5.325,4.599
	c0,0.376,0,0.753-0.001,1.129c0.214,1.226,0.636,2.113,1.372,2.986c4.079,4.836,16.204,6.284,18.397-0.403
	C218.145,322.375,215.385,320.407,213.257,319.337z M209.141,325.145c-0.19-0.001-0.237,0.139-0.484,0.081c0,0.027,0,0.054,0,0.081
	c-0.304-0.062-0.385,0.099-0.645,0.081c-0.409-0.005-0.669,0.139-1.13,0.081c-0.087,0.134-0.72,0.134-0.807,0
	c-0.908,0.02-1.603-0.173-2.179-0.484c-0.409-0.155-0.78-0.349-0.968-0.726c-0.352-0.24-0.541-0.642-0.645-1.13
	c-0.152-0.197-0.173-0.527-0.161-0.888c0-0.161,0-0.323,0-0.484c0.792-0.096,1.42-0.355,2.34-0.323
	c1.028-0.178,2.164-0.078,2.985,0.079c0.343,0.033,0.716,0.038,0.968,0.162c0.027,0,0.054,0,0.081,0
	c1.426,0.376,2.646,0.958,3.227,2.179C211.095,324.517,210.111,324.824,209.141,325.145z M193.085,120.282
	c-0.258-0.361-0.423-0.815-0.726-1.13c-0.195-0.127-0.356-0.289-0.485-0.484c-0.36-0.232-0.68-0.503-1.049-0.726
	c-0.562-0.325-1.25-0.524-2.017-0.645c-0.323,0-0.645,0-0.968,0c-0.534,0.058-0.94,0.243-1.372,0.403
	c-0.269,0.297-0.612,0.518-0.807,0.888c-0.294,0.297-0.293,0.89-0.484,1.291c-0.088,1.298,0.351,2.07,0.807,2.824
	c0.305,0.314,0.518,0.72,0.888,0.968c0.143,0.073,0.25,0.181,0.323,0.323c0.939,0.54,1.837,1.122,3.228,1.21
	c0.269,0,0.538,0,0.807,0c0.872-0.177,1.918-0.18,2.017-1.13c0.12-0.283,0.103-0.704,0.242-0.968
	C193.571,121.948,193.375,121.068,193.085,120.282z M190.907,122.621c-0.188,0-0.377,0-0.565,0
	c-0.321-0.001-0.568-0.077-0.726-0.242c-0.242-0.08-0.403-0.242-0.484-0.484c-0.157-0.246-0.268-0.538-0.242-0.968
	c0.599,0.034,0.886-0.244,1.291-0.404c0.055,0.457,0.471,0.55,0.645,0.888c0.079,0.003,0.063,0.099,0.081,0.161
	C191.122,121.675,191.184,122.532,190.907,122.621z M241.497,163.207c-0.14-0.129-0.237-0.301-0.323-0.484
	c-0.476-0.842-1.056-1.579-1.694-2.259c-0.165-0.024-0.159-0.218-0.323-0.242c0-0.027,0-0.054,0-0.081
	c-0.142-0.073-0.25-0.181-0.323-0.323c-0.896-0.637-1.803-1.263-2.985-1.614c-1.494-0.511-3.439-0.27-4.761,0.242
	c-1.127,0.513-1.897,1.384-2.501,2.421c-0.308,0.821-0.692,1.568-0.807,2.582c-0.173,0.068,0.031,0.515-0.161,0.565
	c0.061,0.438-0.128,0.625-0.081,1.049c0,0.134,0,0.268,0,0.403c0,0.511,0,1.022,0,1.533c0.254,2.759,0.788,5.237,2.582,6.455
	c0.192,0.104,0.385,0.207,0.565,0.323c0.177,0.12,0.434,0.158,0.565,0.323c0.201-0.013,0.25,0.126,0.404,0.161
	c0.111-0.003,0.177,0.038,0.242,0.081c0.421,0.117,0.736,0.34,1.291,0.323c0,0.027,0,0.054,0,0.081
	c0.478,0.006,0.831,0.137,1.291,0.161c0.107,0,0.215,0,0.321-0.001c0.269,0,0.538,0,0.807,0c0.738-0.015,1.371-0.135,2.017-0.242
	c0.652-0.208,1.298-0.424,1.937-0.645c1.188-0.453,1.987-1.294,2.421-2.501C243.089,169.091,242.599,165.243,241.497,163.207z
	 M239.482,171.517c-0.375,0.217-0.705,0.479-1.13,0.645c-0.113,0.129-0.278,0.206-0.484,0.242c-0.065,0.043-0.131,0.085-0.242,0.081
	c-0.304,0.181-0.681,0.288-1.13,0.323c-0.453,0.085-0.98,0.096-1.533,0.081c-0.355,0.005-0.667-0.032-0.888-0.161
	c-0.027,0-0.054,0-0.081,0c-1.34-0.435-2.36-1.19-3.066-2.259c-0.38-0.292-0.556-0.788-0.807-1.21
	c-0.408-0.829-0.753-1.722-0.807-2.905c-0.134-0.245-0.134-1.046,0-1.291c0.048-1.298,0.535-2.155,1.13-2.905
	c0.827-1.382,3.508-2.117,5.406-1.21c0.275,0.127,0.609,0.197,0.808,0.403c0.13-0.022,0.139,0.076,0.242,0.081
	c0.071,0.035,0.144,0.071,0.161,0.161C239.974,162.852,241.738,168.23,239.482,171.517z M243.112,184.831
	c0.273-0.318,0.411-0.772,0.484-1.291c-0.792-0.311-1.574-0.631-2.179-1.13c-0.884-0.353-1.61-0.865-2.743-0.968
	c-0.225,0.152-0.184,0.569-0.323,0.807c0,0.269,0,0.538,0,0.807c0.128,0.518,0.374,0.917,0.645,1.291
	c0.521,0.474,1.204,0.786,1.937,1.049c0.027,0,0.054,0,0.081,0c0.575,0.043,1.029,0.208,1.694,0.161
	c0.094-0.121,0.1-0.33,0.242-0.403C242.961,185.004,243.003,184.884,243.112,184.831L243.112,184.831z M235.366,185.719
	c-0.4,0.191-0.731,0.452-0.646,1.13c0.059,0.559,0.378,0.859,0.403,1.452c0.125,0.117,0.169,0.315,0.161,0.565
	c0.193,0.049,0.585-0.101,0.645,0.081c0.117,0.044,0.417-0.094,0.403,0.081c0.141-0.006,0.251,0.018,0.323,0.081
	c0.605,0.241,1.504,0.204,1.937-0.161c0.06-0.49-0.078-0.782-0.242-1.049c-0.154-0.222-0.343-0.41-0.565-0.565
	c-0.407-0.387-1.108-0.412-1.614-0.888C235.868,186.159,235.763,185.406,235.366,185.719L235.366,185.719z M219.874,222.512
	c0.043-0.796-0.231-1.275-0.565-1.694c-0.107-0.081-0.243-0.133-0.323-0.242c-0.05-0.112-0.311-0.012-0.323-0.161
	c-0.247,0.058-0.237-0.139-0.484-0.081c-0.215,0-0.43,0-0.645,0c0,0.323,0,0.646,0,0.968c0.032,0.587,0.212,1.025,0.403,1.452
	c0.072,0.036,0.144,0.071,0.161,0.161c0.354,0.211,0.728,0.401,1.372,0.323c0.091-0.017,0.126-0.089,0.161-0.161
	C219.787,222.963,219.778,222.685,219.874,222.512L219.874,222.512z M223.502,235.261c-0.13-0.219-0.104-0.596-0.161-0.888
	c-0.287-0.466-0.459-1.047-0.726-1.533c-0.401-0.513-0.777-1.051-1.291-1.452c-0.231-0.145-0.449-0.303-0.645-0.484
	c-0.11-0.294-0.767-0.039-0.968-0.242c-0.215,0-0.43,0-0.645,0c0-0.027,0-0.054,0-0.081c-0.262-0.007-0.496-0.042-0.645-0.162
	c-1.079-0.265-1.801-0.888-2.824-1.21c-0.346-0.138-0.809-0.159-1.21-0.242c-0.332-0.064-0.414,0.124-0.728,0.081
	c-0.134,0-0.268,0-0.403,0c-0.263,0.114-0.57,0.184-0.888,0.242c0,0.027,0,0.054,0,0.081c-0.228-0.066-0.209,0.114-0.403,0.081
	c-0.479,0.301-0.977,0.583-1.372,0.968c-0.338,0.388-0.694,0.758-0.968,1.21c-0.039,0.095-0.086,0.183-0.161,0.242
	c-0.545,1.204-1.019,2.477-1.049,4.196c0,0.35,0,0.699,0,1.049c0.003,1.476,0.377,2.582,0.726,3.712
	c0.222,0.531,0.477,1.029,0.726,1.533c0.362,0.498,0.724,0.997,1.13,1.452c0.071,0.035,0.144,0.07,0.161,0.161
	c0.077,0.138,0.268,0.163,0.323,0.323c0.389,0.283,0.792,0.553,1.21,0.807c0.296,0.135,0.583,0.278,0.888,0.404
	c0.6,0.287,1.484,0.291,2.259,0.403c1.776-0.053,3.1-0.558,4.438-1.049c0.033-0.101,0.104-0.165,0.242-0.161
	c0.009-0.207,0.148-0.283,0.242-0.404c0.38-0.48,0.693-1.029,1.049-1.533c0.018-0.062,0.003-0.159,0.081-0.161
	c0.042-0.12,0.119-0.204,0.161-0.323c0.24-0.405,0.345-0.945,0.645-1.291c0.2-0.714,0.503-1.326,0.645-2.098
	c0-0.053,0-0.107,0-0.161c0.175-0.793,0.28-1.657,0.242-2.663C223.56,235.795,223.454,235.604,223.502,235.261z M221.733,237.358
	c-0.097,0.737-0.213,1.455-0.565,1.937c-0.739,1.655-1.968,2.82-3.631,3.55c-0.477,0.303-1.14,0.42-1.856,0.484
	c-0.135,0-0.269,0-0.404,0c-0.422,0.018-0.806-0.002-1.13-0.081c-1.289-0.379-2.182-1.154-2.905-2.098
	c-0.106-1.132-0.319-2.156-0.323-3.389c-0.187-0.404-0.028-1.155-0.081-1.694c-0.059-0.677,0.112-1.125,0.161-1.694
	c0.122-0.362,0.231-0.737,0.403-1.049c0.174-0.202,0.254-0.498,0.484-0.645c0.263-0.328,0.588-0.595,1.049-0.726
	c-0.014-0.069,0.032-0.076,0.081-0.081c0.072-0.063,0.182-0.087,0.323-0.081c-0.014-0.175,0.286-0.037,0.403-0.081
	c0.112-0.134,0.774-0.134,0.891,0c0.272,0.051,0.75-0.104,0.888,0.081c0.053,0,0.107,0,0.161,0c0.169-0.034,0.214,0.056,0.323,0.081
	c0.295-0.027,0.448,0.089,0.645,0.161c0.388,0.042,0.676,0.184,0.968,0.323c0.207,0.062,0.458,0.08,0.565,0.242
	c0.15,0.011,0.27,0.053,0.323,0.161c0.114-0.006,0.228-0.013,0.242,0.081c0.693,0.329,1.351,0.693,1.856,1.21
	c0.336,0.255,0.571,0.613,0.726,1.049c0.319,0.487,0.422,1.191,0.403,2.017C221.733,237.197,221.733,237.277,221.733,237.358z
	 M201.8,249.542c0.043,0.065,0.084,0.131,0.081,0.242c0.169,0.099,0.315,0.223,0.484,0.323c0.104,0.111,0.35,0.08,0.565,0.081
	c0.269,0,0.538,0,0.807,0c0.081,0,0.161,0,0.242,0c0.054,0,0.108,0,0.161,0c0.081,0,0.161,0,0.242,0
	c0.324-0.187,0.994-0.028,1.452-0.081c0-0.242,0-0.484,0-0.726c-0.085-0.507-0.328-0.855-0.726-1.049c-0.081,0-0.161,0-0.242,0
	c-1.215-0.086-1.825,0.434-2.663,0.726C202.108,249.258,201.709,249.155,201.8,249.542L201.8,249.542z M206.641,253.576
	c0.043-0.581-0.104-0.972-0.323-1.291c-0.666,0.034-1.182,0.216-1.856,0.242c-0.646,0.134-1.228,0.331-1.856,0.484
	c0,0.215,0,0.43,0,0.645c0.081,1.231,1.513,1.623,2.743,1.21c0.241-0.189,0.541-0.32,0.807-0.484
	C206.374,254.17,206.485,253.851,206.641,253.576L206.641,253.576z M215.92,269.069c-0.027,0-0.054,0-0.081,0
	c0.022-0.291-0.149-0.389-0.161-0.646c-0.154-0.465-0.42-0.817-0.565-1.291c-0.457-0.753-1.018-1.403-1.533-2.098
	c-1.884-1.64-3.997-3.049-7.262-3.308c-0.332-0.064-0.414,0.124-0.726,0.081c-1.562,0.375-2.465,1.409-3.389,2.421
	c-0.283,0.389-0.54,0.805-0.807,1.21c-0.287,0.521-0.513,1.102-0.807,1.614c-0.32,1.133-0.678,2.226-0.726,3.631
	c0,0.35,0,0.699,0,1.049c-0.004,0.73,0.186,1.266,0.242,1.936c0.027,0,0.054,0,0.081,0c-0.046,0.262,0.055,0.376,0.081,0.565
	c0.179,0.116,0.111,0.48,0.242,0.645c0.21,0.382,0.346,0.837,0.565,1.21c0.494,0.905,1.175,1.623,1.856,2.34
	c0.483,0.27,0.88,0.627,1.372,0.888c0.619,0.35,1.31,0.627,2.098,0.807c0.332-0.063,0.414,0.124,0.726,0.081
	c0.19-0.002,0.237,0.139,0.484,0.081c0.564,0,1.129,0,1.694,0c0.323,0.027,0.448-0.144,0.807-0.081
	c1.013-0.197,1.865-0.556,2.663-0.968c0-0.027,0-0.054,0-0.081c0.344-0.032,0.396-0.357,0.726-0.403
	c0.103-0.138,0.166-0.318,0.403-0.323c0.045-0.116,0.126-0.197,0.242-0.242c0.005-0.05,0.012-0.096,0.081-0.081
	c0.699-0.754,1.228-1.676,1.694-2.663c0.081-0.35,0.116-0.744,0.242-1.049c0.025-0.593,0.122-1.115,0.161-1.694
	C216.362,271.317,216.167,270.167,215.92,269.069z M214.065,273.906c-0.173,0.742,0.009,1.839-0.565,2.179
	c-0.073,0.143-0.181,0.25-0.323,0.323c-0.219,0.05-0.201,0.337-0.484,0.323c0,0.027,0,0.054,0,0.081
	c-0.814,0.505-1.615,1.021-2.824,1.13c-0.298,0.134-1.154,0.134-1.452,0c-0.544-0.047-1.048-0.136-1.372-0.403
	c-0.254,0.039-0.315-0.115-0.484-0.161c-1.238-0.618-2.112-1.6-2.905-2.663c-0.077-0.165-0.165-0.319-0.242-0.484
	c-0.245-0.347-0.446-0.737-0.565-1.21c-0.095-0.013-0.068-0.147-0.081-0.242c-0.288-0.546-0.445-1.222-0.484-2.017
	c-0.134-0.458-0.134-1.477,0-1.936c0.015-0.415,0.029-0.832,0.242-1.049c0.219-1.341,0.953-2.167,1.614-3.066
	c0.241-0.162,0.569-0.237,0.968-0.242c0.353,0.056,0.455-0.137,0.807-0.081c0.298-0.134,1.154-0.134,1.454-0.003
	c0.372,0.005,0.716,0.038,0.968,0.162c0.597,0.075,1.104,0.241,1.533,0.484c1.89,0.879,3.119,2.421,3.792,4.518
	c0.11,0.158,0.077,0.46,0.161,0.645c0.027,0,0.054,0,0.081,0c-0.061,0.492,0.177,0.684,0.161,1.13c0,0.108,0,0.215,0,0.323
	C214.199,272.213,214.199,273.34,214.065,273.906z"/>
</svg>
