<svg width="400" height="400" viewBox="0 0 400 400" fill="none" xmlns="http://www.w3.org/2000/svg">
<path style="fill:#FF0000;" d="M350,133.379c-0.739-0.009-1.48,0.016-2.217-0.032c-8.743-0.569-16.941,1.41-24.743,5.266
	c-5.892,2.913-11.275,6.623-16.552,10.503c-5.089,3.743-10.079,7.621-15.332,11.137c-6.074,4.066-12.421,7.588-19.449,9.76
	c-3.158,0.976-6.378,1.648-9.582,2.044c-0.59,0.484-0.69,1.134-0.929,1.698c-1.179,2.792-2.619,5.431-4.503,7.815
	c-4.096,5.185-9.511,7.995-16.001,8.847c-1.804,0.237-3.616,0.424-5.554,0.298c0.144-0.442,0.511-0.555,0.813-0.72
	c1.946-1.065,3.906-2.104,5.84-3.191c2.543-1.428,4.899-3.108,6.894-5.261c2.333-2.518,4.13-5.946,4.597-8.902
	c-1.474-0.411-3.004-0.265-4.504-0.355c-1.472-0.088-2.928-0.414-4.553-0.312c-1.745,2.947-2.467,6.258-3.032,9.744
	c-4.127-3.852-9.007-5.557-14.64-5.711c0.279,0.674,0.757,0.696,1.147,0.852c1.64,0.655,3.249,1.372,4.724,2.357
	c0.858,0.573,1.643,1.229,2.258,2.063c1.263,1.714,1.39,3.471,0.408,5.62c-0.495,0.007-0.786-0.382-1.125-0.641
	c-2.628-2.009-5.584-2.406-8.742-1.795c-2.601,0.503-4.98,1.598-7.263,2.887c-2.378,1.342-4.708,2.765-7.048,4.174
	c-2.485,1.496-5.016,2.896-7.869,3.858c-0.408,5.06-0.127,10.136-0.861,15.152c-0.72,4.92-1.365,9.852-2.338,14.775
	c-0.695-4.975-1.398-9.949-2.082-14.926c-0.683-4.962-0.481-9.98-0.828-15.001c-3.883-1.303-7.228-3.465-10.623-5.534
	c-2.623-1.598-5.255-3.184-8.117-4.337c-1.749-0.704-3.534-1.221-5.443-1.306c-2.56-0.114-4.823,0.614-6.853,2.146
	c-0.271,0.204-0.558,0.386-0.843,0.571c-0.034,0.022-0.099-0.003-0.15-0.008c-1.14-2.273-0.843-4.398,0.902-6.236
	c1.442-1.52,3.267-2.446,5.156-3.263c0.817-0.353,1.637-0.698,2.388-1.208c-5.55-0.095-10.402,1.664-14.544,5.503
	c-0.603-3.406-1.265-6.733-3.143-9.818c-2.973,0.337-5.955,0.45-9.089,0.617c0.59,2.708,1.651,4.935,3.087,6.999
	c1.548,2.225,3.52,4.013,5.736,5.552c2.203,1.529,4.588,2.742,6.939,4.014c0.842,0.455,1.673,0.928,2.662,1.478
	c-11.118,0.738-21.761-4.161-26.951-18.383c-1.852-0.348-3.751-0.66-5.629-1.068c-6.343-1.378-12.199-3.968-17.791-7.212
	c-5.526-3.205-10.661-6.978-15.773-10.788c-4.928-3.673-9.823-7.39-15.049-10.643c-5.977-3.722-12.254-6.725-19.193-8.209
	c-3.811-0.815-7.654-1.088-11.538-0.949c-1.024,0.037-2.048,0.049-3.073,0.073l0.038,0.042c1.802-0.796,3.757-0.779,5.655-1.002
	c11.831-1.39,23.089,0.953,34.034,5.304c7.251,2.883,14.171,6.464,21.141,9.943c6.769,3.379,13.58,6.66,20.747,9.142
	c7.748,2.683,15.689,4.255,23.91,4.254c8.981-0.001,17.617-1.849,26.024-4.906c0.636-0.232,1.273-0.462,1.948-0.707
	c1.228,1.049,2.578,1.905,3.652,3.188c3.158,0.533,5.596,2.595,8.297,4.188c3.01,0,6.023,0,9.06,0
	c2.653-1.492,5.005-3.603,8.208-4.141c1.098-1.188,2.441-2.141,3.753-3.233c2.577,0.901,5.139,1.818,7.76,2.558
	c12.936,3.653,25.851,3.389,38.76-0.139c8.148-2.228,15.896-5.491,23.555-8.997c7.496-3.432,14.889-7.09,22.554-10.148
	c6.513-2.598,13.16-4.719,20.109-5.818c6.812-1.078,13.604-0.962,20.386,0.22c0.139,0.024,0.253,0.19,0.379,0.29
	C349.967,133.418,350,133.379,350,133.379z M220.258,211.932c2.927,0,5.768,0.001,8.608-0.001c0.569,0,1.141,0.026,1.708-0.016
	c2.061-0.151,2.823-0.937,2.933-3.004c0.033-0.625,0.033-1.252,0.059-1.878c0.017-0.403,0.086-0.793,0.481-1.186
	c1.299,1.804,2.013,3.809,2.363,5.948c0.122,0.751-0.228,1.447-0.613,2.092c-0.835,1.398-1.967,2.488-3.377,3.308
	c-1.228,0.714-2.43,1.474-3.702,2.249c-0.886,2.803-2.034,5.52-3.422,8.138c-2.157,4.069-4.665,7.953-6.472,12.208
	c-0.088,0.206-0.216,0.403-0.361,0.575c-2.739,3.231-3.627,7.143-4.133,11.197c-0.38,3.046-0.608,6.117-1.398,9.099
	c-0.707,2.666-1.779,5.148-3.728,7.315c-6.107-0.115-12.249-0.137-18.435,0.008c-1.65-1.75-2.648-3.834-3.381-6.063
	c-0.768-2.336-1.098-4.76-1.383-7.192c-0.323-2.767-0.574-5.545-1.338-8.243c-0.532-1.879-1.293-3.657-2.476-5.21
	c-0.699-0.917-1.209-1.91-1.709-2.934c-0.873-1.788-1.812-3.545-2.758-5.297c-1.189-2.203-2.44-4.372-3.616-6.581
	c-1.178-2.213-2.068-4.551-2.843-7.007c-1.193-0.728-2.389-1.491-3.616-2.202c-1.409-0.817-2.558-1.89-3.422-3.268
	c-0.598-0.954-0.845-1.943-0.518-3.086c0.503-1.753,1.053-3.468,2.199-5.035c0.481,0.403,0.491,0.893,0.512,1.372
	c0.023,0.512,0.018,1.025,0.042,1.537c0.108,2.262,0.874,3.085,3.147,3.137c2.788,0.063,5.579,0.012,8.369,0.025
	c0.562,0.003,1.138-0.093,1.677,0.114c0.471,0.412,0.547,1.005,0.737,1.526c3.551,9.719,7.077,19.448,10.636,29.164
	c0.387,1.056,0.432,2.088,0.301,3.178c-0.428,3.558-0.831,7.12-1.223,10.683c-0.061,0.555-0.171,1.122,0.052,1.913
	c2.056,0.098,4.169,0.074,6.41,0.004c-0.482-2.789-1.36-5.204-3.025-7.433c1.414,0,2.642,0,3.963,0
	c0.649,2.413,0.307,4.896,0.842,7.375c1.06,0.17,2.114,0.141,3.256,0.019c0.522-2.408,0.284-4.88,0.774-7.299
	c1.3-0.31,2.542-0.098,4.036-0.178c-1.584,2.293-2.518,4.668-2.983,7.221c1.154,0.424,4.362,0.497,6.477,0.135
	c0.137-1.793-0.305-3.568-0.46-5.357c-0.22-2.55-0.567-5.088-0.855-7.632c-0.091-0.798-0.026-1.558,0.261-2.34
	c3.656-9.983,7.283-19.978,10.919-29.969C219.892,212.746,220.041,212.44,220.258,211.932z
	 M240.656,192.276c-0.148,0.165-0.207,0.296-0.295,0.319c-2.862,0.764-5.033,2.569-7.015,4.653
	c-1.608,1.69-3.153,3.443-4.803,5.092c-2.246,2.246-4.796,4.005-8.005,4.62c-2.698,0.517-5.322,0.148-7.923-0.579
	c-0.592-0.165-1.176-0.355-1.755-0.531c-0.686,0.896-0.805,1.965-1.493,3.048c-0.858-2.083-1.713-4.001-2.83-5.862
	c0.287-0.724,0.573-1.448,0.867-2.191c1.849,0.258,3.588,0.493,5.323,0.747c1.361,0.199,2.729,0.213,4.089,0.098
	c2.403-0.203,3.428-1.115,4.047-3.447c0.247-0.932,0.415-1.883,0.952-2.721c0.958-1.499,2.453-2.18,4.061-2.623
	c1.146-0.316,2.335-0.542,3.519-0.642C233.123,191.94,236.853,192.104,240.656,192.276z
	 M159.23,192.262c4.473-0.122,8.775-0.441,13.061,0.246c0.837,0.134,1.664,0.362,2.478,0.608
	c2.252,0.682,3.635,2.147,4.223,4.47c0.868,3.432,1.833,4.105,5.372,4.158c2.52,0.038,4.978-0.443,7.45-0.815
	c0.221-0.033,0.436-0.133,0.723,0.03c0.425,0.541,0.558,1.28,0.889,2.074c-1.056,1.79-1.965,3.741-2.84,5.928
	c-0.508-1.142-0.94-2.11-1.38-3.099c-1.473,0.304-2.799,0.805-4.195,1.063c-4.416,0.818-8.342-0.16-11.818-2.997
	c-1.549-1.264-2.902-2.723-4.253-4.185c-1.042-1.128-2.068-2.273-3.156-3.355c-1.713-1.703-3.624-3.107-6.022-3.718
	C159.617,192.633,159.504,192.478,159.23,192.262z"/>
</svg>
