<svg width="400" height="400" viewBox="0 0 400 400" fill="none" xmlns="http://www.w3.org/2000/svg">
<path fill-rule="evenodd" clip-rule="evenodd" d="M186.057 70.4424C176.886 71.5152 163.632 73.9498 162.672 74.7375C162.074 75.2272 161.219 75.5456 160.773 75.4446C160.327 75.3435 159.322 75.5213 158.538 75.8409C157.756 76.1606 154.554 77.1286 151.422 77.9929C116.892 87.5138 82.5255 120.294 70.7196 154.965C69.3297 159.047 67.959 163.028 67.6726 163.81C67.3861 164.593 67.0856 165.661 67.0064 166.182C66.9258 166.705 66.5831 167.772 66.2456 168.555C61.7332 179.015 61.9979 230.985 66.5921 236.52C67.0972 237.129 67.427 237.992 67.326 238.438C67.225 238.884 67.39 239.889 67.693 240.672C67.9961 241.456 69.1801 245.085 70.3258 248.738C79.9106 279.321 109.39 313.63 133.157 321.863C135.374 322.632 137.829 323.53 138.611 323.862C140.211 324.538 142.193 325.12 144.305 325.533C145.088 325.686 146.583 326.191 147.626 326.654C150.103 327.755 182.166 327.736 184.634 326.632C185.678 326.166 187.304 325.879 188.249 325.998C189.193 326.116 190.562 325.718 191.291 325.113C192.02 324.509 193.045 324.278 193.568 324.602C194.091 324.925 195.284 324.786 196.219 324.291C197.154 323.796 201.762 322.445 206.458 321.288C211.156 320.131 215.533 318.761 216.185 318.243C216.837 317.725 217.372 317.62 217.372 318.009C217.372 318.398 218.012 318.184 218.795 317.535C219.578 316.885 220.218 316.672 220.218 317.06C220.218 317.449 220.751 317.324 221.405 316.783C222.057 316.241 225.366 314.841 228.758 313.671C265.035 301.156 292.037 276.344 300.45 247.789C304.415 234.335 304.6 233.286 305.234 220.745C307.773 170.499 279.694 126.214 233.876 108.2C230.277 106.786 226.904 105.301 226.377 104.902C221.4 101.126 189.483 100.235 177.043 103.525C173.911 104.353 170.922 105.138 170.4 105.268C169.879 105.398 169.024 105.757 168.503 106.063C167.981 106.37 164.564 107.603 160.911 108.801C91.751 131.497 69.2542 209.597 116.048 264.547C138.292 290.668 176.745 299.634 206.694 285.683C233.235 273.321 270.276 245.61 274.748 234.772C276.919 229.512 275.49 212.361 272.404 206.647C271.941 205.789 270.201 200.819 268.537 195.599C266.874 190.38 265.178 185.683 264.771 185.161C264.364 184.64 262.984 181.437 261.704 178.044C252.293 153.08 245.088 145.366 225.438 139.217C221.783 138.073 218.03 136.719 217.096 136.209C216.161 135.698 214.968 135.543 214.445 135.868C213.921 136.191 212.824 135.9 212.005 135.221C210.017 133.571 185.719 133.406 184.092 135.031C183.48 135.644 182.434 135.934 181.768 135.678C181.101 135.423 180.274 135.67 179.929 136.227C179.585 136.785 178.678 137.241 177.915 137.241C177.152 137.241 173.75 138.499 170.357 140.039C166.963 141.577 163.925 142.821 163.604 142.804C163.283 142.787 162.76 143.171 162.441 143.66C162.121 144.148 159.938 145.727 157.589 147.169C127.688 165.516 117.435 203.721 133.804 235.804C140.073 248.093 167.771 266.923 174.535 263.493C175.392 263.059 178.655 261.968 181.787 261.069C186.94 259.59 208.631 249.741 209.78 248.361C210.041 248.046 211.75 246.982 213.576 245.995C232.447 235.8 239.206 223.332 236.4 203.892C235.852 200.104 235.008 196.26 234.524 195.352C234.038 194.444 232.354 190.823 230.78 187.304C219.763 162.686 186.745 155.036 167.443 172.629C151.699 186.978 151.623 219.288 167.325 223.157C168.765 223.512 170.178 224.182 170.465 224.646C171.961 227.067 180.364 223.04 180.364 219.904C180.364 217.651 178.141 213.499 175.184 210.226C171.196 205.812 170.954 198.144 174.598 191.66C181.265 179.797 203.9 182.688 210.838 196.287C219.258 212.792 203.275 241.622 185.706 241.622C185.029 241.622 184.208 241.889 183.881 242.217C183.554 242.543 180.814 242.782 177.792 242.746C151.87 242.442 137.935 206.789 151.725 176.053C155.584 167.451 167.065 155.573 169.33 157.838C169.657 158.165 169.926 157.865 169.926 157.168C169.926 156.472 170.207 156.184 170.55 156.527C170.894 156.871 171.641 156.769 172.211 156.299C176.265 152.967 203.113 148.931 208.832 150.794C209.614 151.049 212.177 151.774 214.524 152.406C244.699 160.523 259.889 206.451 243.327 239.497C235.221 255.673 218.651 268.104 197.918 273.562C190.225 275.586 186.963 275.896 177.043 275.546C128.074 273.817 93.7061 211.512 118.437 169.302C128.787 151.637 157.555 127.752 168.482 127.752C169.215 127.752 170.066 127.343 170.375 126.844C170.683 126.346 171.568 126.179 172.34 126.476C173.114 126.773 174.446 126.434 175.303 125.723C177.453 123.937 221.099 123.833 223.242 125.609C224.023 126.256 224.875 126.574 225.133 126.316C226.752 124.697 241.468 133.895 249.52 141.556C272.368 163.3 283.321 187.729 283.321 216.95C283.321 225.561 282.935 233.46 282.463 234.505C281.992 235.548 281.54 236.83 281.461 237.351C281.38 237.873 280.956 239.154 280.516 240.198C280.077 241.242 278.781 244.444 277.636 247.315C271.149 263.588 247.787 286.222 230.656 292.832C227.785 293.941 224.029 295.498 222.307 296.294C218.569 298.021 203.624 301.89 196.97 302.853C194.36 303.232 191.799 303.87 191.276 304.273C187.317 307.327 158.436 307.634 152.371 304.686C150.283 303.672 148.361 302.8 148.1 302.748C132.107 299.607 106.064 277.437 99.7017 261.549C98.5522 258.678 97.2147 255.475 96.7289 254.432C96.0524 252.98 90.5018 233.955 88.9776 227.862C88.8472 227.341 88.4828 226.486 88.1695 225.965C87.8549 225.443 86.7169 220.959 85.639 216C84.5598 211.043 83.2032 204.851 82.6239 202.242C80.6778 193.493 79.5922 175.424 80.9604 174.579C81.4258 174.291 81.601 173.52 81.3491 172.867C79.9592 169.243 101.5 137.227 112.866 126.022C124.476 114.577 142.634 103.808 158.906 98.7175C163.14 97.3928 167.458 95.9134 168.503 95.43C180.278 89.974 222.937 87.0881 239.715 90.612C275.662 98.1613 311.145 144.017 317.042 190.541C322.234 231.501 321.731 235.497 307.841 263.656C294.654 290.388 292.553 292.403 261.564 308.046C242.258 317.791 238.686 320.793 239.362 326.703C239.895 331.353 252.337 331.03 263.393 326.078C265.481 325.143 270.039 323.093 273.522 321.523C298.575 310.229 324.492 283.924 330.744 263.446C331.62 260.576 332.595 257.587 332.908 256.804C333.633 254.997 333.777 254.315 335.628 243.994C337.904 231.287 337.913 194.52 335.642 184.213C333.814 175.922 333.681 175.395 332.884 173.299C332.586 172.517 331.237 167.896 329.886 163.03C328.535 158.165 326.602 152.366 325.59 150.144C324.577 147.922 322.91 144.003 321.886 141.435C310.144 112.016 284.243 87.4128 255.335 78.218C251.939 77.1388 248.671 75.8704 248.074 75.3998C247.477 74.9305 246.623 74.6288 246.176 74.7298C245.73 74.8308 244.724 74.6416 243.941 74.3078C237.371 71.5127 198.884 68.9426 186.057 70.4424Z" fill="#0000FF"/>
</svg>
