<svg width="400" height="400" viewBox="0 0 400 400" fill="none" xmlns="http://www.w3.org/2000/svg">
<path style="fill-rule:evenodd;clip-rule:evenodd;fill:#0000FF;" d="M185.887,70.442c-9.171,1.073-22.425,3.507-23.385,4.295
	c-0.598,0.49-1.453,0.808-1.899,0.707c-0.446-0.101-1.451,0.077-2.235,0.396c-0.782,0.32-3.984,1.288-7.116,2.152
	c-34.53,9.521-68.897,42.301-80.702,76.972c-1.39,4.082-2.761,8.063-3.047,8.845c-0.286,0.783-0.587,1.851-0.666,2.372
	c-0.081,0.523-0.423,1.59-0.761,2.373c-4.512,10.46-4.248,62.43,0.347,67.965c0.505,0.609,0.835,1.472,0.734,1.918
	c-0.101,0.446,0.064,1.451,0.367,2.234c0.303,0.784,1.487,4.413,2.633,8.066c9.585,30.583,39.064,64.892,62.831,73.125
	c2.217,0.769,4.672,1.667,5.454,1.999c1.6,0.676,3.582,1.258,5.694,1.671c0.783,0.153,2.278,0.658,3.321,1.121
	c2.477,1.101,34.54,1.082,37.008-0.022c1.044-0.466,2.67-0.753,3.615-0.634c0.944,0.118,2.313-0.28,3.042-0.885
	c0.729-0.604,1.754-0.835,2.277-0.511c0.523,0.323,1.716,0.184,2.651-0.311c0.935-0.495,5.543-1.846,10.239-3.003
	c4.698-1.157,9.075-2.527,9.727-3.045c0.652-0.518,1.187-0.623,1.187-0.234s0.64,0.175,1.423-0.474
	c0.783-0.65,1.423-0.863,1.423-0.475c0,0.389,0.533,0.264,1.187-0.277c0.652-0.542,3.961-1.942,7.353-3.112
	c36.277-12.515,63.279-37.327,71.692-65.882c3.965-13.454,4.15-14.503,4.784-27.044c2.539-50.246-25.54-94.531-71.358-112.545
	c-3.599-1.414-6.972-2.899-7.499-3.298c-4.977-3.776-36.894-4.667-49.334-1.377c-3.132,0.828-6.121,1.613-6.643,1.743
	c-0.521,0.13-1.376,0.489-1.897,0.795c-0.522,0.307-3.939,1.54-7.592,2.738c-69.16,22.696-91.657,100.796-44.863,155.746
	c22.244,26.121,60.697,35.087,90.646,21.136c26.541-12.362,63.582-40.073,68.054-50.911c2.171-5.26,0.742-22.411-2.344-28.125
	c-0.463-0.858-2.203-5.828-3.867-11.048c-1.663-5.219-3.359-9.916-3.766-10.438c-0.407-0.521-1.787-3.724-3.067-7.117
	c-9.411-24.964-16.616-32.678-36.266-38.827c-3.655-1.144-7.408-2.498-8.342-3.008c-0.935-0.511-2.128-0.666-2.651-0.341
	c-0.524,0.323-1.621,0.032-2.44-0.647c-1.988-1.65-26.286-1.815-27.913-0.19c-0.612,0.613-1.658,0.903-2.324,0.647
	c-0.667-0.255-1.494-0.008-1.839,0.549c-0.344,0.558-1.251,1.014-2.014,1.014s-4.165,1.258-7.558,2.798
	c-3.394,1.538-6.432,2.782-6.753,2.765s-0.844,0.367-1.163,0.856c-0.32,0.488-2.503,2.067-4.852,3.509
	c-29.901,18.347-40.154,56.552-23.785,88.635c6.269,12.289,33.967,31.119,40.731,27.689c0.857-0.434,4.12-1.525,7.252-2.424
	c5.153-1.479,26.844-11.328,27.993-12.708c0.261-0.315,1.97-1.379,3.796-2.366c18.871-10.195,25.63-22.663,22.824-42.103
	c-0.548-3.788-1.392-7.632-1.876-8.54c-0.486-0.908-2.17-4.529-3.744-8.048c-11.017-24.618-44.035-32.268-63.337-14.675
	c-15.744,14.349-15.82,46.659-0.118,50.528c1.44,0.355,2.853,1.025,3.14,1.489c1.496,2.421,9.899-1.606,9.899-4.742
	c0-2.253-2.223-6.405-5.18-9.678c-3.988-4.414-4.23-12.082-0.586-18.566c6.667-11.863,29.302-8.972,36.24,4.627
	c8.42,16.505-7.563,45.335-25.132,45.335c-0.677,0-1.498,0.267-1.825,0.595c-0.327,0.326-3.067,0.565-6.089,0.529
	c-25.922-0.304-39.857-35.957-26.067-66.693c3.859-8.602,15.34-20.48,17.605-18.215c0.327,0.327,0.596,0.027,0.596-0.67
	c0-0.696,0.281-0.984,0.624-0.641c0.344,0.344,1.091,0.242,1.661-0.228c4.054-3.332,30.902-7.368,36.621-5.505
	c0.782,0.255,3.345,0.98,5.692,1.612c30.175,8.117,45.365,54.045,28.803,87.091c-8.106,16.176-24.676,28.607-45.409,34.065
	c-7.693,2.024-10.955,2.334-20.875,1.984c-48.969-1.729-83.337-64.034-58.606-106.244c10.35-17.665,39.118-41.55,50.045-41.55
	c0.733,0,1.584-0.409,1.893-0.908c0.308-0.498,1.193-0.665,1.965-0.368c0.774,0.297,2.106-0.042,2.963-0.753
	c2.15-1.786,45.796-1.89,47.939-0.114c0.781,0.647,1.633,0.965,1.891,0.707c1.619-1.619,16.335,7.579,24.387,15.24
	c22.848,21.744,33.801,46.173,33.801,75.394c0,8.611-0.386,16.51-0.858,17.555c-0.471,1.043-0.923,2.325-1.002,2.846
	c-0.081,0.522-0.505,1.803-0.945,2.847c-0.439,1.044-1.735,4.246-2.88,7.117c-6.487,16.273-29.849,38.907-46.98,45.517
	c-2.871,1.109-6.627,2.666-8.349,3.462c-3.738,1.727-18.683,5.596-25.337,6.559c-2.61,0.379-5.171,1.017-5.694,1.42
	c-3.959,3.054-32.84,3.361-38.905,0.413c-2.088-1.014-4.01-1.886-4.271-1.938c-15.993-3.141-42.036-25.311-48.398-41.199
	c-1.149-2.871-2.487-6.074-2.973-7.117c-0.676-1.452-6.227-20.477-7.751-26.57c-0.13-0.521-0.495-1.376-0.808-1.897
	c-0.315-0.522-1.453-5.006-2.531-9.965c-1.079-4.957-2.436-11.149-3.015-13.758c-1.946-8.749-3.032-26.818-1.663-27.663
	c0.465-0.288,0.641-1.059,0.389-1.712c-1.39-3.624,20.151-35.64,31.517-46.845c11.61-11.445,29.768-22.214,46.04-27.305
	c4.234-1.325,8.552-2.804,9.597-3.287c11.775-5.456,54.434-8.342,71.212-4.818c35.947,7.549,71.43,53.405,77.327,99.929
	c5.192,40.96,4.689,44.956-9.201,73.115c-13.187,26.732-15.288,28.747-46.277,44.39c-19.306,9.745-22.878,12.747-22.202,18.657
	c0.533,4.65,12.975,4.327,24.031-0.625c2.088-0.935,6.646-2.985,10.129-4.555c25.053-11.294,50.97-37.599,57.222-58.077
	c0.876-2.87,1.851-5.859,2.164-6.642c0.725-1.807,0.869-2.489,2.72-12.81c2.276-12.707,2.285-49.474,0.014-59.781
	c-1.828-8.291-1.961-8.818-2.758-10.914c-0.298-0.782-1.647-5.403-2.998-10.269c-1.351-4.865-3.284-10.664-4.296-12.886
	c-1.013-2.222-2.68-6.141-3.704-8.709c-11.742-29.419-37.643-54.022-66.551-63.217c-3.396-1.079-6.664-2.348-7.261-2.818
	c-0.597-0.469-1.451-0.771-1.898-0.67c-0.446,0.101-1.452-0.088-2.235-0.422C237.201,71.513,198.714,68.943,185.887,70.442z"/>
</svg>
