<svg width="400" height="400" viewBox="0 0 400 400" fill="none" xmlns="http://www.w3.org/2000/svg">
<path fill-rule="evenodd" clip-rule="evenodd" d="M234.559 71.1511C232.077 74.7899 227.428 85.4569 227.428 87.513C227.428 89.5875 228.251 89.9223 237.201 91.4785L243.738 92.6156L243.185 89.5228C240.349 73.6631 237.29 67.1474 234.559 71.1511ZM161.173 71.599C158.798 75.3578 155.885 88.1583 156.839 90.6438C157.27 91.7682 157.986 91.9552 160.068 91.49C161.54 91.161 164.865 90.6553 167.457 90.3644C173.402 89.6995 173.475 88.343 168.144 77.6148C164.121 69.5198 163.064 68.6078 161.173 71.599ZM162.905 99.8966C145.536 104.502 139.729 143.8 152.741 168.677C171.36 204.27 202.638 168.828 191.411 124.861C186.664 106.27 175.556 96.543 162.905 99.8966ZM225.2 100.487C198.001 112.839 199.679 182.92 227.17 182.795C232.747 182.768 237.36 180.471 242.134 175.342C265.383 150.358 251.408 88.5843 225.2 100.487ZM291.908 125.199C284.351 135.144 284.497 137.624 292.799 140.349C300.343 142.827 302.663 135.544 298.442 122.628C297.07 118.434 297.037 118.447 291.908 125.199ZM101.148 121.636C100.497 123.333 98.7651 142.679 99.2234 143.137C99.624 143.538 112.764 138.417 113.725 137.485C114.553 136.683 110.124 128.111 106.551 123.6C103.743 120.054 101.999 119.421 101.148 121.636ZM107.982 147.681C95.7474 151.557 88.5125 176.361 93.7005 196.646C101.036 225.328 121.675 236.415 132.965 217.74C149.362 190.618 131.405 140.263 107.982 147.681ZM281.659 147.777C264.772 152.662 254.476 194.118 264.754 215.843C271.764 230.661 285.55 231.9 295.752 218.628C316.743 191.318 306.644 140.551 281.659 147.777ZM188.447 210.791C148.952 217.008 119.821 259.267 128.412 297.881C134.025 323.115 150.451 333.31 176.88 327.965C194.188 324.464 201.193 324.389 219.678 327.505C239.733 330.887 241.003 330.873 248.654 327.206C278.541 312.883 279.158 258.268 249.748 230.523C233.689 215.374 209.268 207.514 188.447 210.791Z" fill="#0000FF"/>
</svg>
