<svg width="400" height="400" viewBox="0 0 400 400" fill="none" xmlns="http://www.w3.org/2000/svg">
<path style="fill:#0000FF;" d="M192.111,189.175C191.714,134.081,150.08,112.516,123.603,70
	c-2.692,22.972-3.614,45.539,7.374,66.948c8.455,16.472,27.148,30.606,36.986,47.196c-1.08,7.45-1.21,12.698,1.335,18.702
	c5.918,1.475,13.535,2.536,22.849,2.949L192.111,189.175L192.111,189.175L192.111,189.175z M126.669,81.024
	c10.977,24.078,30.27,39.475,39.343,64.613c3.391,9.394,3.822,19.387,3.021,29.246c-10.3-14.239-26.087-26.123-33.611-40.781
	C126.107,115.952,125.74,99.527,126.669,81.024L126.669,81.024L126.669,81.024z M207.408,189.175
	c0.398-55.094,42.032-76.659,68.509-119.175c2.691,22.972,3.614,45.539-7.374,66.948c-8.455,16.472-27.148,30.606-36.986,47.196
	c1.08,7.45,1.21,12.698-1.335,18.702c-5.918,1.475-13.534,2.536-22.849,2.949L207.408,189.175L207.408,189.175L207.408,189.175z
	 M272.85,81.024c-10.977,24.078-30.27,39.475-39.343,64.613c-3.391,9.394-3.822,19.387-3.021,29.246
	c10.3-14.239,26.087-26.123,33.61-40.781C273.412,115.952,273.779,99.527,272.85,81.024L272.85,81.024L272.85,81.024z
	 M289.488,202.164c0-10.293-15.576-20.584-46.724-25.503c-2.281,2.809-4.392,5.646-6.208,8.528c0.231,1.778,0.399,3.454,0.481,5.074
	c21.391,7.667,9.048,21.976-37.037,21.976c-45.725,0-58.229-14.085-37.527-21.794c0.079-1.677,0.25-3.412,0.489-5.257
	c-1.802-2.859-3.893-5.674-6.153-8.461c-30.865,4.945-46.297,15.19-46.297,25.436h-0.001v5.471h0.001
	c0,9.77,14.035,19.539,42.1,24.713c-0.625,26.236-1.744,53.853-6.87,79.341C144.282,320.663,162.363,330,200,330
	c37.638,0,55.718-9.337,54.258-18.311c-5.641-24.805-6.279-53.391-6.802-79.354c28.02-5.177,42.032-14.938,42.032-24.7h0
	L289.488,202.164L289.488,202.164z M242.131,252.856c0,5.771-14.044,11.54-42.131,11.54c-19.089,0-31.689-2.664-37.804-6.184
	c-0.754,16.639-2.178,33.435-5.367,49.293c-1.252,7.695,13.856,15.692,45.331,16.069c-0.768,0.009-1.542,0.015-2.329,0.015
	c-33.061,0-48.942-8.201-47.66-16.084c4.797-23.854,5.6-49.83,6.137-74.201c11.736,1.787,25.631,2.821,41.692,2.821
	c16.06,0,29.957-1.034,41.693-2.821c0.117,6.39,0.243,12.941,0.448,19.552H242.131z M196.83,185.564
	c-0.16-4.134-0.543-8.08-1.124-11.862c1.415-0.017,2.844-0.028,4.295-0.028c1.287,0,2.555,0.009,3.815,0.022
	c-0.582,3.781-0.965,7.727-1.125,11.86c-0.884-0.011-1.778-0.018-2.689-0.018C198.924,185.539,197.869,185.548,196.83,185.564z"/>
</svg>
