<svg width="400" height="400" viewBox="0 0 400 400" fill="none" xmlns="http://www.w3.org/2000/svg">
<path fill-rule="evenodd" clip-rule="evenodd" d="M140.459 73.9616C131.89 84.8013 132.379 86.9148 145.56 96.0144L148.544 98.074L148.55 210.179C148.555 271.836 148.765 324.019 149.021 326.141L149.484 330L151.214 327.454C152.167 326.054 154.425 323.889 156.233 322.645L159.522 320.382V215.814C159.522 149.644 159.784 110.558 160.235 109.37C161.202 106.827 161.998 106.976 167.937 110.808C170.755 112.626 174.97 115.31 177.303 116.775C183.233 120.496 182.943 122.156 175.987 124.329C171.198 125.824 171.23 125.741 171.23 136.429C171.23 147.469 171.448 148.475 173.835 148.475C175.497 148.475 177.164 148.073 188.795 144.867C199.949 141.792 204.272 140.974 205.08 141.781C205.609 142.311 205.942 164.358 206.131 211.562C206.46 293.672 205.906 285.866 211.644 289.273C214.115 290.739 216.37 291.686 216.654 291.377C216.939 291.067 217.323 258.607 217.509 219.244C217.753 167.173 218.071 147.446 218.677 146.841C219.783 145.735 223.607 147.674 233.069 154.14L240.388 159.14L240.832 181.067C241.077 193.128 241.324 225.943 241.382 253.99L241.485 304.984L243.863 306.613C245.172 307.509 247.429 309.362 248.879 310.732L251.516 313.222L251.983 309.336C252.24 307.199 252.499 289.149 252.558 269.225C252.618 249.302 252.868 218.045 253.113 199.766L253.561 166.534L256.009 165.71C258.77 164.781 264.312 157.974 265.679 153.832C267.006 149.809 266.117 148.228 260.129 143.976C257.096 141.821 252.401 138.488 249.697 136.569C242.011 131.113 242.437 130.743 262.862 125.125C273.171 122.29 274.851 122.281 275.407 125.063C275.668 126.368 275.884 161.232 275.887 202.538C275.894 285.967 275.856 284.896 278.958 286.5C280.131 287.107 282.338 288.73 283.862 290.106L286.633 292.611L287.112 282.631C287.374 277.143 287.59 238.806 287.59 197.439C287.59 153.672 287.871 121.488 288.26 120.461C288.892 118.801 290.131 118.104 295.199 116.556C301.492 114.636 300.761 99.7406 294.143 95.0289L292.082 93.5609L275.017 97.9606C265.631 100.381 255.481 103.037 252.463 103.864C229.715 110.097 216.342 113.212 214.819 112.632C212.953 111.923 197.952 102.448 186.965 95.0375C175.731 87.461 152.032 71.9582 150.239 71.0137C146.507 69.0448 143.668 69.9008 140.459 73.9616ZM129.883 136.39C127.871 136.944 121.925 138.528 116.67 139.907C99.977 144.291 98.4766 145.577 100.928 153.394C104.046 163.335 106.074 166.038 110.41 166.038C112.993 166.038 113.046 167.074 113.417 224.523C113.654 261.35 114.039 281.252 114.515 281.388C114.917 281.503 117.387 279.652 120.004 277.273L124.76 272.948V218.355V163.764L126.585 162.386C127.589 161.627 129.806 160.615 131.512 160.138C136.099 158.854 136.166 158.647 135.94 146.556C135.712 134.292 135.963 134.714 129.883 136.39Z" fill="#FF0000"/>
</svg>
