<svg width="400" height="400" viewBox="0 0 400 400" fill="none" xmlns="http://www.w3.org/2000/svg">
<path style="fill:#FF0000;" d="M115.602,194.793c0,0-1.675,14.411,6.735,28.012c10.663-0.77,31.078-6.767,23.962-42.346
	c-9.492-47.456-17.257-88.872-1.726-100.089c15.438-11.149,32.583-10.364,56.515-10.355c23.932-0.01,41.078-0.795,56.514,10.355
	c15.531,11.217,7.765,52.634-1.725,100.089c-6.946,34.727,11.157,41.724,21.374,42.984c8.864-13.786,7.143-28.65,7.143-28.65
	c-2.517-57.887,40.27-54.11,40.27-54.11l-3.673,6.125c0,0-30.044,3.042-27.248,60.929c0,0,6.134,60.659-74.935,58.144H206.47v5.791
	l81.717,48.218c1.204-1.237,2.917-1.965,4.773-1.803c3.283,0.283,5.714,3.177,5.43,6.46c-0.286,3.281-3.177,5.714-6.46,5.43
	c-3.283-0.285-5.714-3.179-5.428-6.46c0.05-0.599,0.215-1.157,0.426-1.687l-80.459-45.263v6.137c0,2.894-1.91,5.314-4.53,6.142
	v4.821c3.084,0.689,5.393,3.434,5.393,6.725c0,3.812-3.089,6.902-6.903,6.902h-0.862c-3.811,0-6.902-3.09-6.902-6.902
	c0-3.291,2.309-6.034,5.392-6.725v-4.821c-2.618-0.828-4.53-3.248-4.53-6.142v-6.529l-81.154,45.655
	c0.212,0.53,0.376,1.088,0.428,1.687c0.285,3.281-2.146,6.175-5.429,6.46c-3.285,0.283-6.174-2.15-6.46-5.43
	c-0.285-3.283,2.146-6.177,5.43-6.46c1.856-0.161,3.568,0.567,4.775,1.803l82.41-48.632v-5.377h-14.04
	c-81.07,2.515-73.231-58.144-73.231-58.144c2.796-57.887-30.308-60.929-30.308-60.929l-0.613-6.125
	C75.334,140.684,118.118,136.907,115.602,194.793L115.602,194.793z"/>
</svg>
