<svg width="400" height="400" viewBox="0 0 400 400" fill="none" xmlns="http://www.w3.org/2000/svg">
<path fill-rule="evenodd" clip-rule="evenodd" d="M170.038 70.702C168.374 70.8813 166.432 71.2689 165.718 71.5635C165.005 71.858 163.99 72.0326 163.462 71.9511C162.933 71.8708 161.378 72.39 160.006 73.1059C158.634 73.8218 156.831 74.4097 156 74.412C155.168 74.4155 154.488 74.8066 154.488 75.2816C154.488 75.7565 153.808 76.1465 152.976 76.1488C145.961 76.1639 138.244 86.0483 136.234 97.5949C134.793 105.866 136.592 135.725 138.872 141.369C139.256 142.319 140.64 149.705 141.947 157.783C143.256 165.861 144.562 172.858 144.849 173.333C145.138 173.808 145.258 174.9 145.117 175.76C144.975 176.62 145.373 177.943 146.002 178.699C147.656 180.692 147.62 204.021 145.959 206.025C145.307 206.812 145.112 207.463 145.527 207.47C145.942 207.477 145.891 207.769 145.416 208.117C144.94 208.466 143.968 209.913 143.256 211.332C141.672 214.488 138.898 217.823 137.857 217.823C137.433 217.823 136.504 218.405 135.793 219.118C135.08 219.83 133.456 220.639 132.183 220.918C130.909 221.196 129.284 221.649 128.572 221.925C123.359 223.94 119.068 222.061 119.068 217.764C119.068 216.992 118.409 215.04 117.605 213.427C116.462 211.136 116.019 206.969 115.589 194.439C115.286 185.61 114.762 177.94 114.425 177.395C114.088 176.85 113.627 174.935 113.4 173.141C112.428 165.443 108.415 157.305 102.731 151.503C100.36 149.081 91.4244 143.184 91.4244 144.04C91.4244 144.351 90.9192 144.185 90.3011 143.672C89.6841 143.16 87.5375 142.479 85.5306 142.157C83.5249 141.836 81.674 141.237 81.419 140.823C80.8265 139.864 77.5228 139.876 75.9979 140.842C73.7337 142.277 75.6079 146.793 78.7381 147.445C90.8598 149.969 105.495 171.263 106.084 187.235C106.118 188.141 106.322 197.019 106.54 206.961C106.772 217.581 107.299 225.405 107.818 225.924C108.304 226.41 108.702 227.48 108.702 228.3C108.702 229.759 113.64 239.873 115.468 242.155C119.822 247.597 123.248 250.909 127.888 254.164C130.878 256.261 133.322 257.858 133.322 257.713C133.322 257.364 135.972 258.325 140.402 260.281C142.395 261.161 144.63 261.882 145.37 261.882C146.109 261.882 146.713 262.295 146.713 262.8C146.713 263.305 147.393 263.606 148.225 263.47C149.056 263.332 150.201 263.512 150.767 263.868C151.886 264.57 163.269 265.257 180.473 265.662C186.45 265.803 191.796 266.198 192.352 266.542C194.271 267.728 193.484 271.272 190.987 272.685C189.681 273.424 187.574 274.697 186.304 275.515C185.035 276.332 179.01 279.868 172.914 283.373C166.818 286.88 161.248 290.226 160.535 290.812C159.823 291.396 157.101 293.035 154.488 294.453C151.875 295.871 141.103 302.168 130.551 308.447C113.801 318.413 111.136 319.739 109.552 318.891C103.865 315.848 98.2402 322.812 102.607 327.487C105.46 330.54 106.229 330.667 109.648 328.647C111.583 327.504 112.157 326.534 112.157 324.411C112.157 321.843 138.226 305.077 142.217 305.077C142.711 305.077 143.243 304.769 143.401 304.395C143.559 304.02 149.132 300.665 155.784 296.94C162.435 293.214 170.405 288.722 173.493 286.958C194.06 275.207 193.804 275.312 193.118 278.9C192.546 281.899 193.771 285.121 196.435 287.618C199.188 290.197 199.098 291.706 196.023 294.542C190.253 299.863 192.65 306.804 200.257 306.804C207.183 306.804 209.391 297.971 203.283 294.702C200.139 293.019 200.057 289.914 203.097 287.57C205.223 285.932 205.751 284.791 206.108 281.076C206.346 278.596 206.668 276.568 206.825 276.568C206.981 276.568 209.168 277.785 211.682 279.272C214.198 280.76 218.589 283.221 221.439 284.74C228.287 288.39 230.675 289.758 232.238 290.927C232.951 291.46 237.032 293.763 241.309 296.046C245.585 298.327 249.214 300.516 249.372 300.907C249.53 301.299 250.031 301.621 250.484 301.621C250.936 301.621 255.472 303.998 260.562 306.903C265.653 309.809 271.566 313.168 273.705 314.37C275.843 315.571 278.564 317.197 279.752 317.984C280.94 318.771 282.98 319.874 284.288 320.433C286.09 321.208 286.664 322.052 286.664 323.929C286.664 329.162 293.87 331.389 296.721 327.039C299.719 322.464 294.48 316.334 289.741 318.869C287.725 319.948 287.247 319.881 284.957 318.188C283.558 317.153 282.097 316.307 281.712 316.307C281.325 316.307 279.038 315.044 276.63 313.499C271.392 310.139 271.402 310.146 255.563 300.937C248.673 296.932 242.004 292.92 240.744 292.023C239.482 291.124 238.077 290.391 237.62 290.391C237.164 290.391 235.766 289.584 234.515 288.599C233.262 287.615 232.238 287.038 232.238 287.319C232.238 287.598 230.31 286.557 227.954 285.006C220.534 280.117 217.457 278.296 216.628 278.296C216.186 278.296 215.824 277.884 215.824 277.381C215.824 276.878 215.435 276.707 214.96 277C214.485 277.293 214.096 277.122 214.096 276.619C214.096 276.115 213.634 275.704 213.07 275.704C208.1 275.704 203.407 266.333 208.265 266.113C209.334 266.065 216.711 265.889 224.657 265.723C238.353 265.437 248.906 264.256 250.812 262.796C251.287 262.433 253.231 261.717 255.131 261.206C273.058 256.389 286.886 242.657 291.424 225.167C291.794 223.741 292.294 221.798 292.535 220.847C292.776 219.897 293.104 212.899 293.263 205.297C293.792 179.937 296.093 169.869 304.109 157.805C306.861 153.663 317.046 146.44 318.697 147.459C319.55 147.987 324.785 141.337 324.075 140.626C323.254 139.805 318.801 139.956 318.265 140.823C318.01 141.237 316.176 141.834 314.19 142.152C312.203 142.469 309.571 143.251 308.339 143.887C307.109 144.525 304.934 145.58 303.509 146.231C297.398 149.026 286.664 163.977 286.664 169.694C286.664 170.349 286.371 171.177 286.015 171.533C285.004 172.544 284.775 175.644 283.78 201.842C283.551 207.889 282.991 211.387 281.913 213.503C281.067 215.167 279.696 217.878 278.87 219.529C277.027 223.204 274.826 224.793 273.817 223.177C273.43 222.558 272.761 222.162 272.33 222.297C268.53 223.484 257.928 213.963 256.327 207.928C255.819 206.006 255.096 203.832 254.721 203.098C253.984 201.651 254.206 187.114 254.997 184.996C255.263 184.282 255.692 181.043 255.949 177.794C256.206 174.546 256.673 171.473 256.987 170.965C257.3 170.458 257.69 169.228 257.852 168.232C259.05 160.873 260.101 155.799 260.733 154.327C261.141 153.377 261.494 152.016 261.518 151.304C261.633 147.818 263.847 133.475 264.401 132.622C264.75 132.089 264.899 129.845 264.733 127.635C264.567 125.426 264.769 123.411 265.181 123.156C266.165 122.548 266.153 98.1595 265.167 96.2189C264.748 95.3936 263.959 92.8209 263.413 90.5009C261.786 83.5932 256.984 79.0556 247.356 75.3293C244.505 74.2257 241.396 72.993 240.444 72.5902C235.409 70.4576 184.844 69.1002 170.038 70.702Z" fill="#FF0000"/>
</svg>
