<svg width="400" height="400" viewBox="0 0 400 400" fill="none" xmlns="http://www.w3.org/2000/svg">
<path style="fill:#0000FF;" d="M192.64,72.408c4.025,2.384,6.156,5.883,8.354,9.289c3.423,5.306,6.835,10.623,10.074,16.04
	c2.213,3.7,4.126,7.579,6.169,11.381c0.153,0.284,0.215,0.628,0.405,0.879c6.777,8.945,11.999,18.862,17.768,28.436
	c1.812,3.007,3.479,6.103,5.371,9.057c1.505,2.349,3.424,4.44,4.85,6.831c2.448,4.105,4.532,8.427,6.993,12.523
	c3.312,5.513,6.811,10.915,10.279,16.333c2.864,4.475,5.848,8.873,8.689,13.363c2.091,3.305,4.098,6.666,6.02,10.071
	c1.013,1.795,1.573,3.86,2.672,5.591c2.693,4.241,5.658,8.308,8.362,12.542c1.876,2.938,3.399,6.101,5.26,9.05
	c3.244,5.142,6.752,10.121,9.918,15.308c4.074,6.673,7.876,13.511,11.881,20.226c2.311,3.874,4.854,7.61,7.181,11.474
	c2.346,3.896,4.548,7.88,6.827,11.817c4.23,7.312,8.747,14.478,12.565,21.999c1.459,2.873,3.883,4.636,5.558,7.138
	c0.568,0.849,1.185,1.666,2.165,3.036c-2.02,0.359-3.618,0.876-5.222,0.893c-27.32,0.28-54.64,0.498-81.96,0.729
	c-14.419,1.933-28.906,0.571-43.358,0.825c-14.596,0.257-29.201,0.063-43.802,0.066c-14.52,0.002-29.089,0.754-43.547-0.193
	c-16.754-1.098-33.473-0.279-50.2-0.692c-9.644-0.238-19.296-0.17-28.944-0.247c-0.797-0.006-1.593-0.07-2.967-0.134
	c0.656-1.638,1.05-3.044,1.744-4.283c3.381-6.036,6.883-12.004,10.264-18.039c4.117-7.348,8.125-14.758,12.242-22.106
	c3.186-5.685,6.554-11.268,9.68-16.985c2.549-4.66,4.806-9.479,7.297-14.171c1.485-2.796,3.247-5.445,4.747-8.234
	c1.585-2.947,2.95-6.012,4.513-8.971c1.788-3.383,3.665-6.719,5.547-10.051c2.343-4.148,4.764-8.253,7.091-12.41
	c1.946-3.476,3.856-6.975,5.693-10.51c1.838-3.538,3.48-7.179,5.371-10.687c1.166-2.164,2.726-4.112,3.953-6.248
	c3.453-6.011,6.805-12.08,10.237-18.104c2.365-4.152,4.783-8.275,7.202-12.396c1.762-3.003,3.684-5.919,5.312-8.991
	c1.341-2.532,2.217-5.309,3.545-7.848c2.216-4.237,4.674-8.347,6.945-12.557c1.627-3.016,3.037-6.149,4.686-9.152
	c1.257-2.289,2.789-4.425,4.108-6.683c2.904-4.969,5.785-9.953,8.61-14.967c2.354-4.178,4.463-8.501,6.975-12.578
	c1.446-2.347,3.452-4.355,5.264-6.466C191.469,73.09,192.14,72.771,192.64,72.408z M141.079,316.288
	c-0.064,0.271-0.128,0.541-0.192,0.812c1.073,0.412,2.119,1.054,3.225,1.183c1.76,0.205,3.565,0.159,5.342,0.061
	c6.45-0.356,12.895-0.801,19.345-1.162c1.86-0.104,3.733,0.028,5.594-0.059c12.989-0.601,25.997-0.499,38.992-0.863
	c27.463-0.769,54.959-0.365,82.441-0.42c5.594-0.011,11.196,0.284,16.779,0.063c5.198-0.206,10.486,0.105,15.751-1.697
	c0-0.614,0.253-1.449-0.041-1.981c-2.116-3.836-4.247-7.67-6.565-11.386c-1.886-3.024-3.97-5.933-6.088-8.803
	c-2.662-3.608-5.804-6.525-10.77-6.049c-1.899,0.182-3.781,0.539-5.672,0.807c-3.993,0.567-8.008,1.01-11.974,1.727
	c-3.222,0.583-6.366,1.584-9.579,2.228c-3.232,0.648-6.513,1.05-9.76,1.627c-2.29,0.406-4.563,0.911-6.839,1.395
	c-3.447,0.732-6.857,1.769-10.341,2.164c-5.85,0.663-11.611,1.655-17.357,2.943c-5.416,1.214-10.938,1.95-16.412,2.904
	c-3.175,0.553-6.359,1.062-9.519,1.691c-5.192,1.033-10.357,2.2-15.553,3.212c-5.374,1.047-10.773,1.966-16.158,2.959
	c-2.603,0.48-5.193,1.035-7.799,1.495c-3.946,0.696-7.884,1.474-11.856,1.97C150.971,313.748,145.828,314.098,141.079,316.288z
	 M191.565,95.005c-1.951,3.03-3.935,5.988-5.782,9.028c-0.987,1.625-1.813,3.362-2.579,5.106c-1.029,2.341-2.001,4.713-2.862,7.121
	c-0.668,1.869-2.026,3.639-0.323,5.82c1.615,2.069,2.68,4.563,4.267,6.658c5.426,7.167,11.113,14.103,17.272,20.686
	c5.371,5.74,10.523,11.709,14.867,18.349c2.47,3.776,5.563,7.159,8.512,10.601c2.263,2.642,4.791,5.055,7.105,7.655
	c1.527,1.715,2.845,3.615,4.325,5.375c5.023,5.975,10.068,11.932,15.123,17.881c2.321,2.732,4.641,5.468,7.044,8.127
	c1.797,1.988,3.815,3.779,5.577,5.796c2.656,3.042,5.187,6.194,7.746,9.319c2.218,2.709,4.759,5.237,6.508,8.225
	c2.008,3.43,4.468,6.38,7.267,9.102c0.395,0.384,1.29,0.255,2.153,0.395c-0.494-1.352-0.783-2.261-1.152-3.137
	c-2.322-5.503-6.089-10.191-8.602-15.644c-2.32-5.034-5.93-9.468-8.918-14.2c-2.971-4.703-5.865-9.455-8.813-14.173
	c-1.863-2.982-3.733-5.96-5.65-8.907c-2.271-3.492-4.742-6.863-6.857-10.445c-2.188-3.704-3.73-7.818-6.134-11.359
	c-3.616-5.326-5.455-11.693-9.898-16.497c-0.051-0.056-0.058-0.151-0.094-0.223c-2.464-4.915-5.655-9.379-8.651-13.967
	c-2.351-3.6-4.687-7.219-6.837-10.941c-1.394-2.414-2.2-5.18-3.686-7.525c-4.538-7.161-9.166-14.271-13.996-21.237
	C196.769,99.503,195.458,96.438,191.565,95.005z M102.796,317.081c0.927-2.752,1.821-5.398,2.709-8.047
	c0.43-1.282,0.868-2.561,1.271-3.851c0.667-2.135,1.261-4.295,1.971-6.415c1.495-4.47,3.078-8.912,4.562-13.386
	c1.035-3.12,1.988-6.269,2.942-9.416c1.371-4.523,2.713-9.054,4.058-13.585c0.205-0.69,0.324-1.406,0.536-2.094
	c1.085-3.514,2.687-6.956,3.165-10.548c0.703-5.287,2.984-9.898,4.961-14.675c0.978-2.363,2.296-4.642,2.886-7.096
	c1.316-5.478,3.829-10.456,5.913-15.619c1.136-2.814,2.038-5.723,3.035-8.593c1.026-2.952,1.935-5.95,3.085-8.853
	c1.456-3.675,3.213-7.232,4.636-10.919c1.294-3.352,2.311-6.81,3.469-10.215c0.1-0.294,0.388-0.523,0.499-0.816
	c1.036-2.731,2.053-5.47,3.079-8.216c-2.335-0.749-3.156-0.416-3.809,1.48c-0.393,1.142-0.384,2.467-0.941,3.502
	c-3.085,5.731-5.586,11.752-9.476,17.088c-2.71,3.717-4.541,8.067-6.854,12.084c-3.182,5.525-6.443,11.003-9.679,16.496
	c-1.484,2.52-3.146,4.95-4.441,7.562c-1.237,2.495-1.92,5.264-3.165,7.754c-3.45,6.904-7.035,13.743-10.629,20.574
	c-2.071,3.937-4.233,7.827-6.413,11.705c-1.951,3.471-4.147,6.814-5.938,10.363c-2.223,4.404-3.962,9.055-6.237,13.43
	c-2.86,5.501-5.981,10.871-9.121,16.22c-2.254,3.84-4.764,7.529-7.057,11.348c-0.399,0.664-0.284,1.636-0.447,2.744
	C82.024,318.62,92.333,317.618,102.796,317.081z M152.939,193.639c-0.264-0.06-0.529-0.12-0.793-0.179
	c-0.269,0.255-0.664,0.46-0.788,0.773c-1.352,3.409-2.726,6.811-3.962,10.262c-1.106,3.087-1.996,6.25-3.073,9.347
	c-1.118,3.216-2.346,6.393-3.524,9.587c-1.103,2.991-2.198,5.985-3.304,8.975c-1.468,3.971-2.951,7.936-4.413,11.909
	c-1.101,2.99-2.18,5.987-3.268,8.981c-0.981,2.699-2.026,5.377-2.922,8.104c-1.069,3.254-1.983,6.559-3.012,9.827
	c-1.798,5.712-3.57,11.432-5.471,17.11c-1.392,4.156-2.963,8.253-4.476,12.369c-1.405,3.821-2.887,7.615-4.237,11.455
	c-0.58,1.649,0.359,3.278,2.138,3.708c2.596,0.627,5.253,0.628,7.362-1.227c2.38-2.094,5.19-2.668,8.149-2.88
	c4.348-0.311,6.182-1.83,6.976-6.161c1.261-6.882,2.484-13.771,3.671-20.666c0.91-5.287,1.778-10.582,2.595-15.884
	c0.857-5.562,1.59-11.144,2.452-16.706c0.812-5.238,1.529-10.502,2.641-15.678c1.109-5.162,2.713-10.216,3.987-15.345
	c0.62-2.496,1.075-5.043,1.436-7.591c0.678-4.792,1.297-9.594,1.806-14.406C153.104,197.446,152.939,195.534,152.939,193.639z
	 M258.519,225.859c0.183-0.247,0.365-0.495,0.548-0.742c-2.132-2.302-4.355-4.528-6.374-6.925c-3.105-3.686-6.015-7.537-9.11-11.232
	c-3.888-4.641-7.864-9.209-11.832-13.783c-4.849-5.589-9.765-11.121-14.584-16.736c-3.258-3.796-6.37-7.717-9.598-11.539
	c-2.915-3.453-5.894-6.852-8.855-10.266c-1.657-1.911-3.294-3.844-5.012-5.699c-3.046-3.289-6.2-6.48-9.212-9.8
	c-2.719-2.998-5.245-6.171-7.98-9.153c-1.375-1.5-2.279-1.358-2.979,0.44c-1.043,2.679-1.82,5.46-2.726,8.193
	c-1.127,3.397-2.27,6.788-3.409,10.192c0.746,0.852,1.249,1.6,1.912,2.156c4.925,4.126,9.912,8.178,14.816,12.328
	c2.907,2.459,5.677,5.078,8.548,7.58c2.875,2.505,5.769,4.989,8.709,7.417c3.335,2.753,6.787,5.366,10.079,8.169
	c2.237,1.904,4.217,4.107,6.43,6.042c5.254,4.597,10.572,9.12,15.875,13.661c4.042,3.461,8.364,6.644,12.074,10.428
	c3.23,3.294,7.095,5.595,10.698,8.31C257.114,225.333,257.855,225.545,258.519,225.859z M185.868,299.721
	c0.035,0.195,0.07,0.39,0.105,0.585c0.57,0.131,1.146,0.395,1.709,0.37c2.022-0.089,4.069-0.108,6.053-0.456
	c6.095-1.071,12.122-2.748,18.257-3.326c8.212-0.774,16.353-1.806,24.409-3.529c2.816-0.602,5.6-1.362,8.386-2.1
	c1.939-0.513,3.823-1.32,5.79-1.629c5.31-0.837,10.654-1.455,15.979-2.204c4.937-0.694,9.871-1.412,14.796-2.188
	c1.981-0.312,3.944-0.758,5.896-1.223c4.685-1.117,9.348-2.329,14.043-3.406c2.446-0.561,3.024-1.927,1.355-3.911
	c-3.998-4.753-8.163-9.271-13.955-12.03c-1.456-0.693-2.718-1.025-4.109-0.632c-2.842,0.803-5.652,1.731-8.439,2.713
	c-4.385,1.545-8.734,3.191-13.107,4.767c-3.302,1.19-6.636,2.294-9.925,3.519c-2.317,0.864-4.547,1.968-6.879,2.784
	c-3.079,1.076-6.249,1.893-9.329,2.969c-4.51,1.575-8.959,3.325-13.462,4.92c-5.211,1.845-10.453,3.601-15.68,5.397
	c-5.369,1.845-10.77,3.607-16.091,5.583C189.641,297.449,187.797,298.698,185.868,299.721z M282.956,255.812
	c-1.999-2.247-3.814-4.571-5.932-6.575c-1.597-1.511-3.608-2.578-5.386-3.907c-2.412-1.802-4.377-1.952-7.041-0.378
	c-2.806,1.658-5.59,3.353-8.389,5.023c-3.897,2.325-7.798,4.643-11.699,6.96c-1.991,1.183-4.122,2.18-5.957,3.569
	c-7.579,5.735-16.108,10.029-23.654,15.843c-3.103,2.391-7.048,3.66-10.479,5.664c-2.6,1.519-5.012,3.365-7.453,5.141
	c-0.375,0.273-0.454,0.952-0.87,1.897c3.263-0.916,5.984-1.537,8.606-2.447c4.352-1.511,8.626-3.247,12.961-4.811
	c2.866-1.034,5.801-1.877,8.67-2.904c4.203-1.505,8.363-3.127,12.561-4.645c4.05-1.465,8.135-2.834,12.185-4.3
	c3.069-1.111,6.12-2.274,9.153-3.478c2.803-1.113,5.556-2.356,8.362-3.461c2.678-1.055,5.331-2.307,8.117-2.916
	C279.258,259.529,281.113,258.363,282.956,255.812z M142.179,307.015c1.686-0.131,3.039,0.021,4.2-0.38
	c2.556-0.883,5.021-2.033,7.512-3.101c1.056-0.453,2.219-0.801,3.094-1.498c1.821-1.451,2.259-3.656,2.435-5.817
	c0.256-3.145,0.431-6.309,0.416-9.463c-0.1-21.24-0.212-42.48-0.451-63.719c-0.035-3.133-0.765-6.258-1.174-9.387
	c-0.314-0.067-0.627-0.134-0.941-0.201c-0.502,0.997-1.167,1.946-1.472,2.999c-0.691,2.389-1.266,4.816-1.776,7.251
	c-0.756,3.61-1.584,7.218-2.078,10.868c-0.831,6.148-1.372,12.334-2.14,18.492c-0.378,3.037-0.959,6.051-1.504,9.065
	c-0.567,3.139-1.304,6.251-1.781,9.403c-0.781,5.162-1.405,10.348-2.107,15.523c-0.408,3.011-0.475,6.131-1.353,9
	C141.983,299.567,142.339,303.021,142.179,307.015z M235.021,217.571c0.173-0.24,0.346-0.479,0.519-0.719
	c-0.663-0.931-1.192-2.003-2.009-2.77c-6.138-5.758-12.297-11.495-18.524-17.156c-3.871-3.519-7.816-6.964-11.831-10.318
	c-5.365-4.482-10.868-8.799-16.239-13.274c-2.749-2.29-5.209-4.938-8.031-7.125c-4.072-3.155-8.31-6.106-12.573-9.003
	c-1.579-1.073-2.655-0.552-2.982,1.259c-0.755,4.183-1.609,8.372-1.15,12.665c0.074,0.694,0.316,1.384,0.568,2.042
	c1.042,2.726,3.077,4.575,5.51,6.021c3.54,2.104,7.1,4.178,10.677,6.219c1.172,0.669,2.479,1.109,3.632,1.806
	c3.255,1.968,6.415,4.098,9.701,6.011c4.615,2.686,9.347,5.172,13.962,7.859c4.524,2.633,8.966,5.406,13.439,8.126
	c4.431,2.694,8.842,5.422,13.304,8.065C233.536,217.6,234.339,217.484,235.021,217.571z M161.998,183.667
	c0.557,4.944,1.085,9.621,1.611,14.293c3.847,1.056,7.509,1.95,11.098,3.072c4.868,1.522,9.632,3.395,14.534,4.789
	c4.468,1.27,8.693,3.013,12.899,4.954c2.458,1.134,5.274,1.218,8.362-0.164c-1.367-1.245-2.319-2.454-3.557-3.171
	c-3.356-1.945-6.882-3.598-10.253-5.518c-6.194-3.528-12.289-7.23-18.497-10.733c-4.559-2.572-9.221-4.963-13.87-7.372
	C163.826,183.558,163.108,183.723,161.998,183.667z M211.665,270.84c0.193,0.129,0.386,0.259,0.579,0.388
	c0.947-0.569,1.929-1.087,2.833-1.717c3.267-2.276,6.38-4.806,9.789-6.839c5.245-3.127,10.777-5.774,16.023-8.899
	c6.086-3.625,12.02-7.509,17.956-11.377c1.08-0.704,1.856-1.876,2.677-2.734c-1.186-3.176-3.821-4.038-6.299-5.181
	c-1.969-0.908-3.84-1.205-5.693,0.106c-1.221,0.863-2.41,1.78-3.551,2.746c-2.962,2.508-5.964,4.976-8.812,7.609
	c-4.745,4.387-9.421,8.851-14.051,13.359c-3.386,3.296-6.68,6.69-9.952,10.1C212.518,269.073,212.158,270.019,211.665,270.84z
	 M166.163,249.289c-0.24,3.71-0.587,7.318-0.679,10.933c-0.129,5.093-0.178,10.193-0.061,15.285
	c0.137,5.962,0.378,11.928,0.796,17.876c0.196,2.784,1.903,3.751,4.601,2.953c2.859-0.846,4.797-3.01,6.781-5.055
	c1.449-1.494,1.448-2.857,0.617-4.711c-1.17-2.611-2.497-5.241-3.078-8.006c-0.804-3.828-0.934-7.795-1.428-11.692
	c-0.793-6.251-2.852-12.103-5.666-17.797C167.423,249.145,166.892,249.205,166.163,249.289z M213.481,257.387
	c0.143,0.18,0.286,0.359,0.428,0.539c0.443-0.04,1.025,0.088,1.307-0.146c3.287-2.717,6.577-5.434,9.768-8.261
	c3.557-3.152,7.08-6.348,10.491-9.656c2.695-2.614,5.527-5.13,7.211-8.636c0.744-1.55,0.287-2.725-0.805-3.629
	c-1.04-0.861-2.107-2.069-3.814-1.074c-2.449,1.427-4.307,3.284-5.992,5.645c-4.383,6.143-9.223,11.958-13.78,17.979
	C216.55,252.455,215.078,254.968,213.481,257.387z M192.507,214.9c0.001-0.286,0.002-0.572,0.003-0.858
	c-9.076-4.577-18.536-7.959-28.612-9.351c-1.091,2.972-0.618,4.514,1.891,6.23c3.196,2.185,6.67,3.69,10.636,3.85
	c4.432,0.178,8.859,0.476,13.292,0.633C190.64,215.435,191.576,215.078,192.507,214.9z M178.015,258.206
	c0.376,2.734,0.543,5.219,1.084,7.62c1.089,4.832,2.387,9.617,3.587,14.424c0.415,1.663,2.337,2.989,3.999,2.728
	c1.459-0.229,2.318-1.333,1.85-3.348c-0.607-2.611-1.602-5.146-2.585-7.652c-1.456-3.712-2.941-7.422-4.643-11.025
	C180.742,259.758,180.395,257.763,178.015,258.206z M197.343,268.689c-1.956-4.686-3.734-8.654-8.668-10.245
	c-0.111,0.922-0.486,1.846-0.262,2.59c0.7,2.333,1.563,4.625,2.488,6.881c0.585,1.428,1.18,3.453,2.879,3.323
	C195.026,271.143,196.162,269.589,197.343,268.689z M170.72,221.778c2.637,3.229,15.959,3.083,18.445-0.139
	C183.058,220.219,177.004,219.83,170.72,221.778z M228.616,225.038c-2.121-0.545-3.334-0.332-4.558,1.347
	c-1.801,2.471-3.48,5.085-2.778,8.476C224.195,234.335,228.922,227.894,228.616,225.038z"/>
</svg>
