<svg width="400" height="400" viewBox="0 0 400 400" fill="none" xmlns="http://www.w3.org/2000/svg">
<path style="fill:#FF0000;" d="M267.762,73.284c-44.568,0.228-40.163,12.222-51.987,3.354c-7.533-5.649-12.144-6.508-14.525-6.638
	v11.838c2.473,0.107,8.113,0.658,8.755,3.481c1.137,5.003,6.054,25.195,17.878,30.425c11.824,5.23,27.497,9.082,35.657,8.85
	c13.146-0.374,24.97-6.628,32.701-13.449c2.06-1.818,18.646-19.555,19.442-25.922C315.684,85.222,312.33,73.057,267.762,73.284z
	 M299.198,92.953c0,0-2.274,12.734-14.553,19.328c-12.279,6.594-34.79,6.594-46.16,2.274c-11.369-4.32-17.282-12.051-17.736-19.783
	c-0.455-7.731,14.78-13.416,46.842-16.144C299.653,75.899,299.198,92.953,299.198,92.953z"/>
<path style="fill:#0000FF;" d="M198.75,70.019c-2.508,0.188-7.12,1.193-14.354,6.619c-11.824,8.868-7.589-3.127-52.157-3.354
	C87.67,73.057,84.316,85.222,84.316,85.222c0.796,6.367,18.305,23.421,19.442,25.922c0.743,1.634,0.903,7.918,0.988,12.719
	c-0.146,0.741-0.227,1.505-0.227,2.289c0,0.966,0.129,1.899,0.349,2.796c0.008,0.141,0.017,0.287,0.026,0.387
	c0.023,0.235,0.152,0.51,0.333,0.804c1.144,3.166,3.614,5.679,6.733,6.911c0.002,0.001,0.008,0.002,0.01,0.003
	c0.079,15.048,0.165,65.331-2.15,73.308c-2.729,9.399-2.729,16.979-2.122,19.707c0.606,2.729,1.773,6.973-0.326,11.521
	c-2.099,4.548-1.539,8.186,0,13.34c1.539,5.154,6.265,21.223,1.628,35.169c-4.637,13.946-7.491,28.802,0,35.473
	c1.727,1.538,3.471,2.642,5.138,3.453l0.84,0.283c2.906,0.98,6.063,0.919,8.929-0.173l0.388-0.148
	c1.645-0.852,3.36-1.998,5.047-3.576c7.325-6.852,4.106-21.634-0.872-35.462c-4.978-13.828-0.65-30.008,0.762-35.199
	c1.412-5.191,1.882-8.841-0.328-13.336c-2.21-4.495-1.149-8.767-0.61-11.509c0.539-2.743,0.353-10.32-2.606-19.649
	c-2.529-7.972-3.678-58.879-3.959-73.535c1.045-0.439,1.909-0.967,2.265-1.394c0.135-0.162,2.402-3.044,3.005-4.405
	c2.004-2.511,5.036-5.331,9.501-6.351c7.959-1.819,23.876-3.643,35.7-8.873c11.824-5.23,16.827-25.377,17.964-30.379
	c0.629-2.767,6.029-3.353,8.584-3.475V70.019z M126.901,309.502c0,4.354-3.529,7.883-7.883,7.883c-4.354,0-7.883-3.529-7.883-7.883
	c0-4.353,3.529-7.883,7.883-7.883C123.371,301.619,126.901,305.149,126.901,309.502z M161.515,114.555
	c-11.369,4.32-33.881,4.32-46.16-2.274c-12.279-6.594-14.553-19.328-14.553-19.328s-0.455-17.054,31.607-14.325
	s47.297,8.413,46.842,16.144C178.796,102.503,172.884,110.234,161.515,114.555z"/>
</svg>
