<svg width="400" height="400" viewBox="0 0 400 400" fill="none" xmlns="http://www.w3.org/2000/svg">
<path style="fill:#0000FF;" d="M198.663,70.705c0,0.532-0.44,0.965-0.978,0.965
	c-0.538,0-4.246,1.564-8.24,3.474c-3.994,1.911-10.869,5.142-15.278,7.182c-10.602,4.905-12.81,5.947-28.506,13.457
	c-19.33,9.249-24.628,11.769-36.076,17.156c-5.634,2.652-14.577,6.885-19.87,9.408l-9.627,4.588l0.272,3.768l0.274,3.768
	l119.143,0.227l119.143,0.225v-3.902c0-4.773,0.009-4.765-12.056-10.209c-5.373-2.425-15.782-7.333-23.13-10.906
	c-7.349-3.575-13.563-6.548-13.808-6.609c-0.522-0.129-9.622-4.384-20.932-9.789c-4.411-2.107-10.223-4.831-12.917-6.055
	c-5.507-2.499-21.52-10.059-30.287-14.3c-3.185-1.54-6.091-2.938-6.458-3.106C198.965,69.878,198.663,70.175,198.663,70.705z
	 M104.24,146.952v6.671h95.759h95.761v-6.682v-6.682l-95.761,0.011l-95.759,0.01V146.952z M112.754,160.943
	c-0.514,1.629-1.694,56.107-1.486,68.644c0.095,5.77-0.09,10.918-0.413,11.44c-0.323,0.521-0.73,8.527-0.904,17.792l-0.318,16.843
	h13.422h13.421l-0.634-16.258c-0.348-8.941-0.757-22.27-0.908-29.618c-0.269-12.999-0.671-25.927-1.72-55.229l-0.51-14.253
	l-9.795-0.252C115.544,159.863,113.025,160.084,112.754,160.943z M164.526,160.526c-0.663,1.126-1.447,23.177-1.989,55.898
	c-0.284,17.148-0.755,34.585-1.047,38.749c-0.292,4.164-0.565,10.378-0.607,13.808l-0.078,6.235l13.266,0.248l13.266,0.247
	l-0.555-20.736c-0.304-11.404-0.857-27.951-1.226-36.77c-0.369-8.819-0.677-25.254-0.686-36.521
	c-0.008-12.612-0.356-20.741-0.905-21.143C182.79,159.678,165.032,159.665,164.526,160.526z M214.671,168.544
	c-0.03,9.371-0.514,27.264-1.463,54.116c-0.33,9.308-0.747,25.042-0.926,34.963l-0.327,18.039h13.499h13.497l-0.659-14.476
	c-0.363-7.961-0.792-19.886-0.954-26.501c-0.354-14.498-0.797-28.654-1.723-55.006l-0.697-19.82h-10.11h-10.111L214.671,168.544z
	 M266.056,160.526c-0.227,0.368-0.468,6.847-0.535,14.4c-0.068,7.551-0.339,14.077-0.6,14.501
	c-0.262,0.424-0.633,16.245-0.824,35.159c-0.192,18.914-0.561,34.602-0.822,34.864c-0.262,0.26-0.475,4.015-0.475,8.342v7.87h13.441
	h13.442l-0.527-18.039c-0.291-9.921-0.641-20.645-0.778-23.829c-0.138-3.185-0.551-19.018-0.92-35.186
	c-0.368-16.168-0.884-31.5-1.147-34.072l-0.478-4.677h-9.683C270.825,159.859,266.283,160.159,266.056,160.526z M92.176,282.193
	c-0.204,0.572-0.479,4.046-0.612,7.721l-0.241,6.68l-6.236,0.446l-6.235,0.446v7.125v7.127l-6.904,0.26l-6.903,0.261v8.87V330
	h134.954h134.956v-8.368c0-9.727,0.086-9.631-8.908-9.791l-5.791-0.103l-0.258-7.309l-0.258-7.309l-5.977-0.263l-5.978-0.263
	l-0.445-7.571l-0.446-7.572l-107.173-0.149C118.72,281.189,92.456,281.408,92.176,282.193z"/>
</svg>
