<svg width="400" height="400" viewBox="0 0 400 400" fill="none" xmlns="http://www.w3.org/2000/svg">
<path style="fill:#FF0000;" d="M229.312,115.848c-0.803,0.734-0.961,0.238-1.834,0c0.287-8.271,1.347-15.769,5.502-20.173
	C232.809,103.451,228.9,107.489,229.312,115.848 M177.351,301.073c-1.459,3.408-10.309,4.639-12.837,3.057
	C166.236,300.871,173.536,300.234,177.351,301.073 M252.542,318.801c-5.82,3.379-21.066,1.94-25.675-1.834
	c3.368-4.375,14.095-1.391,20.173-3.057C249.396,315.019,252.072,315.807,252.542,318.801 M166.348,320.024
	c-2.191,1.923-9.006,4.205-9.17-1.223C160.385,317.265,164.19,318.666,166.348,320.024 M251.931,122.572
	c0.571-0.448,0.926-1.111,1.223-1.834c0.577,0.053-0.394,4.227,1.223,1.223c1.507,1.747-4.876,3.256-2.445,4.279
	c1.454,0.341-0.679,1.839-1.223,0.611c0.056,0.999-1.018,2.659,0,1.223c-14.555,24.162-28.828,53.902-51.35,72.134
	c-8.404-1.23-15.011,4.521-25.064,3.668c-2.184,0.874-3.465,2.648-4.279,4.89c8.427,1.493,20.715-1.694,28.731-0.611
	c-11.594,21.745-26.383,46.232-45.237,64.187c-6.795,2.986-11.805,7.757-22.007,7.336c-1.687-0.555-4.293-0.19-5.502-1.223
	c-1.98,5.65-6.306,14.481-4.279,20.173c-6.703,2.874-10.457,8.697-14.06,14.671c14.397-1.906,29.652-8.249,47.682-8.558
	c0.513,0.71,0.806,1.639,0.611,3.057c16.461,0.857,36.717-2.206,51.961,3.668c4.274-0.824,12.562-1.981,12.226,3.668
	c-1.388,1.057-3.415,1.475-6.113,1.223c3.156,5.811,14.317,3.615,15.283,11.615c-8.522,6.682-16.454-5.089-23.841-7.336
	c-11.247-1.915-21.344,3.292-28.731,1.223c-0.208-2.654,1.684-3.208,3.668-3.668c-10.676-7.272-34.687,1.365-44.625-7.336
	c-10.959,0.676-19.952,6.511-30.565,5.502c1.698-14.154,3.685-30.689,8.558-43.403c-0.608-2.245-2.252-3.453-2.445-6.113
	c-1.228,0.682-0.701,4.728,0,5.502c-0.526,1.166-0.363-0.66-1.223-0.611c-0.823-27.72,3.832-49.963,11.615-69.077
	c1.927,3.608,0.175,10.731,1.223,16.505c1.634-1.423,2.499-3.613,2.445-6.724c3.47,4.681,2.293,14.009,8.558,15.894
	c-0.391-10.59-7.641-25.529-3.668-38.512c1.397,2.271,0.023,7.313,1.223,9.781c1.256-0.171,1.22-1.633,1.834-2.445
	c-0.303,1.855-2.95,5.924-1.223,10.392c5.471-4.334,1.226-17.724,2.445-22.618c1.647-11.268,11.853-16.258,12.837-30.565
	c2.478-0.237,0.674,3.81,1.223,5.502c4.846-5.054,4.823-7.588,9.17-12.837c-1.078,6.668-2.398,18.384-1.834,28.731
	c0.845,1.001,2.823-2.033,3.668-3.057c-0.979-11.832-0.345-25.551,3.668-34.233c2.652,2.469,4.63-2.535,6.724-4.279
	c0.477,6.92-3.837,26.671-0.611,31.177c1.189,0.643-1.543,2.484-0.611,4.89c1.306,0.265,3.89-3.429,4.89-5.502
	c-1.186-9.008,1.762-30.217,3.668-36.067c0.391-3.489,7.937-5.098,9.17-9.781c7.874-2.383,15.717-9.907,22.618-15.283
	c26.075-13.66,51.734-27.736,85.583-33.622c0.643,1.586-4.106,1.765-0.611,2.445C275.417,84.667,262.484,104.01,251.931,122.572z
	 M171.85,204.487c-1.023-1.08-2.048,0.542-4.279,0c-1.227,1.218-1.765,3.125-3.057,4.279
	C168.915,209.296,169.962,206.471,171.85,204.487z M124.168,224.049c0.888-1.782,2.992-5.538,1.223-7.947
	C124.846,218.227,122.384,221.626,124.168,224.049z M150.454,184.314c0.758-2.299,3.421-2.692,3.057-6.113
	c-1.852-2.281,0.451-19.364,0.611-25.064C147.167,159.047,147.416,173.416,150.454,184.314z M162.069,174.533
	c0.977,0.539,3.803-2.287,4.279-4.279c-1.732-11.521,1.081-25.925,2.445-34.233C160.177,142.484,162.407,159.793,162.069,174.533z
	 M176.129,143.968c6.899-2.069,5.093-16.094,7.336-20.784C177.305,126.398,178.263,136.729,176.129,143.968z M184.076,137.855
	c0.965-1.481,2.187-2.703,3.668-3.668c-0.382-6.149,4.076-13.773,3.057-16.505C185.627,121.069,183.093,130.347,184.076,137.855z
	 M193.857,115.848c-0.9,5.825-2.604,10.845-3.668,16.505c1.668,0.446,1.231-1.215,2.445-1.223c-1.047,2.009-3.532,2.582-3.057,6.113
	c9.727-1.684,4.099-18.724,11.003-23.23c-0.251,8.107-3.641,16.324-1.834,24.452c0.828-2.228,3.093-3.02,3.668-5.502
	c-1.514-10.145,3.98-22.346,3.057-25.675C201.875,110.418,197.706,112.973,193.857,115.848z M188.355,147.636
	c4.343,0.196,8.33-8.324,6.724-14.06C190.757,136.181,188.321,140.674,188.355,147.636z M250.708,85.283
	c-3.209,4.741-5.552,13.597-6.113,18.95c3.858-3.071,7.515-6.341,12.226-8.558c0.407-4.695,2.246-11.193,4.89-11.615
	c-1.207,2.879-3.635,7.761-3.057,10.392c4.674-2.05,5.563-7.886,8.558-11.615c-0.951,2.665-1.859,4.945-1.834,6.724
	c2.264-1.811,4.324-3.826,7.336-4.89C205,134.733,144.239,191.752,113.164,278.455c0.765,5.596-1.84,10.16-3.057,16.505
	c0.192,0.827,0.87,1.168,0.611,2.445c-0.302,1.567-2.035,4.846-0.611,6.113c0.917-0.714,1.495-1.766,3.057-1.834
	c1.506-13.777,6.244-24.321,9.781-36.067c1.784,0.153,2.109-1.151,3.057-1.834c0.36-2.194-0.71-2.957-1.223-4.279
	c0.905,0.708,1.54,0.708,2.445,0c0.327-2.365-1.091-2.984-0.611-5.502c2.392,0.966,1.265-1.588,2.445-1.834
	c1.155,0.068,0.424,2.021,1.834,1.834c2.111-2.844-1.428-6.603,0-8.558c1.18,0.246,0.053,2.8,2.445,1.834
	c1.391-0.454-1.758-4.681,0-5.502c1.075,0.962,0.801,3.274,1.834,4.279c1.851-3.048-0.388-6.262,0-9.17
	c2.049,0.192,0.616,3.867,2.445,4.279c1.25-2.272-0.214-3.841-0.611-6.113c1.932-0.301,0.227,3.033,2.445,2.445
	c0.304-3.071-1.154-3.042-0.611-6.113c1.607-0.181,0.481,2.372,2.445,1.834c1.794-1.924,0.644-3.668,0-6.113
	c1.607-0.181,0.481,2.372,2.445,1.834c1.239-2.261-0.416-3.639,0-6.724c1.688-0.262,0.574,2.28,1.834,2.445
	c1.973-1.498-0.972-5.137,0.611-6.113c1.26,0.166,0.145,2.707,1.834,2.445c1.445-1.687-0.366-5.272,0.611-6.113
	c1.155,0.068,0.424,2.021,1.834,1.834c0.854-1.757-1.666-3.105,0-3.668c0.808,0.007,0.559,1.072,1.223,1.223
	c1.743-1.301,0.378-3.893,1.223-4.89c0.808,0.007,0.559,1.072,1.223,1.223c1.489-2.022-1.283-4.502,1.834-3.057
	c0-1.223,0-2.445,0-3.668c0.781,0.034,0.847,0.784,1.834,0.611c0.137-1.156-0.689-1.349-0.611-2.445
	c1.668-0.055,1.231,1.018,2.445,0c0.11-2.528-1.437-2.459,1.223-1.834c0-1.018,0-2.038,0-3.057c2.241,2.767,3.371-4.729,1.223-1.223
	c0.009-1.621-0.339-3.599,1.223-3.668c0.975,0.451-0.139,2.992,1.834,2.445c1.92-3.808,4.285-5.205,4.279-9.781
	c0.334,0.888-0.714,3.159,0.611,3.057c1.072-3.483,7.652-6.808,3.668-9.781c4.216,0.699,6.266-2.456,5.502-4.89
	c2.365,0.531,2.174-1.493,3.668-1.834c17.047-21.873,38.252-42.848,58.685-59.297c-0.664,0.146-1.468,1.006-0.611,1.223
	c8.445-7.449,17.205-14.583,26.897-20.784c5.357-7.889,14.23-15.518,20.784-20.173C276.32,77.07,262.957,80.619,250.708,85.283z
	 M276.383,85.894c2.66-3.458,8.813-6.666,9.781-9.781C283.248,79.316,276.894,82.323,276.383,85.894z M236.648,110.346
	c1.205-1.648,2.781-2.924,4.89-3.668c0.583-6.592,5.444-15.281,4.279-19.562C237.72,89.413,237.314,102.655,236.648,110.346z
	 M234.203,112.18c1.164-8.006,1.525-16.813,5.502-22.007c-5.033,1.487-7.578,5.463-12.837,6.724
	c-1.853,5.282-4.69,12.829-4.279,18.339c0.168-0.555,2.278-2.053,2.445-0.611c-2.239,2.041-3.813,4.745-4.89,7.947
	c-2.173,0.951-0.369-2.076-1.834-1.834c-3.061,1.837-6.759,6.273-5.502,10.392C219.616,124.492,227.055,118.481,234.203,112.18z
	 M264.157,98.12c0.628-1.042,4.201-2.265,2.445-3.668C266.412,95.933,262.84,97.155,264.157,98.12z M214.03,122.572
	c7.451-3.145,6.27-14.922,9.17-22.618c0.643-0.034,0.481-0.784-0.611-0.611C216.822,103.767,213.962,114.351,214.03,122.572z
	 M254.987,107.29c1.732,0.102,2.547,1.121,4.279,1.223c0.954-3.335,5.442-6.363,4.89-9.17
	C261.087,101.979,257.319,103.915,254.987,107.29z M204.86,130.519c8.255-1.733,7.152-21.372,11.003-27.509
	C206.481,106.466,205.277,118.099,204.86,130.519z M247.651,112.791c2.384,0.672,5.693,0.42,7.947,1.223
	c0.721-1.928,1.902-3.396,3.057-4.89C252.959,107.06,250.848,109.586,247.651,112.791z M240.927,118.293
	c3.822,0.661,6.341,2.624,9.781,3.668c0.495-2.969,2.775-4.153,3.668-6.724C247.746,113.497,244.227,113.354,240.927,118.293z
	 M234.203,124.406c3.75,1.548,7.446,3.151,12.226,3.668c0.775-1.874,2.081-3.217,3.057-4.89
	C244.212,120.189,237.114,117.729,234.203,124.406z M228.701,129.297c4.592,1.929,9.066,3.975,13.449,6.113
	c1.028-1.824,2.422-3.283,3.057-5.502C238.53,129.395,232.359,122.63,228.701,129.297z M203.637,137.855
	c-2.387-1.366-6.631,3.399-4.89,6.113c4.01-4.345,8.638-8.072,12.837-12.226c-1.751-0.083,0.528-4.196-1.223-4.279
	C208.484,131.29,204.276,132.788,203.637,137.855z M223.199,135.41c4.739,2.393,10.341,3.922,15.283,6.113
	c1.132-1.721,2.578-3.127,3.057-5.502c-6.332-0.189-9.229-3.812-14.671-4.89C225.452,132.365,223.6,133.162,223.199,135.41z
	 M183.464,149.47c1.036-1.407,4.919-5.807,1.834-7.336C183.831,143.336,181.448,146.814,183.464,149.47z M187.132,136.632
	c-2.509,0.564-5.469,3.882-3.668,6.724C185.627,142.055,187.07,140.034,187.132,136.632z M215.252,142.745
	c5.789,2.158,13.35,2.544,17.728,6.113c-7.229-0.921-13.552-2.75-18.95-5.502c-0.845,1.804-2.823,2.475-3.668,4.279
	c6.831,2.747,12.619,6.535,21.396,7.336c1.812-4.505,3.731-8.903,6.113-12.837C228.19,141.188,220.152,132.156,215.252,142.745z
	 M175.517,157.417c3.646-1.244,4.928-4.853,4.89-9.781C176.785,148.903,174.867,151.876,175.517,157.417z M179.797,142.134
	c-1.419,1.856-5.663,4.098-3.057,7.947C178.038,148.103,182.075,145.655,179.797,142.134z M188.966,153.138
	c1.764-2.119,6.724-4.264,5.502-7.336C193.053,147.972,188.491,153.108,188.966,153.138z M183.464,154.36
	c0.708-2.145,3.305-2.401,3.057-5.502C184.207,149.104,181.004,153.197,183.464,154.36z M204.249,153.749
	c6.499,2.874,14.242,4.505,20.784,7.336c-7.75,0.778-15.61-3.512-22.007-6.113c-0.919,1.73-2.693,2.604-3.057,4.89
	c7.327,2.658,14.859,5.111,23.23,6.724c3.236-2.673,5.296-6.522,7.336-10.392C219.061,157.735,210.247,143.051,204.249,153.749z
	 M175.517,161.696c1.525,1.176,6.601-4.865,3.668-6.113C178.532,158.191,175.734,158.652,175.517,161.696z M212.807,171.477
	c-2.236,0.209-2.797,2.093-3.668,3.668C211.531,175.179,213.797,172.913,212.807,171.477z M210.362,171.477
	c-1.868,0.442-2.228-0.625-3.668-0.611c-0.414,1.42-2.031,1.636-2.445,3.057C206.802,175.195,210.235,174.403,210.362,171.477z
	 M205.471,170.865c-3.782-1.516-8.348-2.248-11.615-4.279c-0.694,1.344-2.045,2.031-2.445,3.668
	c5.035,1.464,7.825,2.519,12.837,3.057C204.257,172.095,205.917,172.534,205.471,170.865z M212.196,175.756
	c6.614,0.909,6.958-4.453,9.781-7.336c-8.652-1.74-16.659-4.125-23.841-7.336c-0.283,1.959-2.327,2.155-2.445,4.279
	c4.736,1.989,10.25,3.199,15.283,4.89c1.279-0.002,2.298-3.33,3.057-1.834c-1.534,1.473-1.248,2.286,0.611,3.057
	C213.983,173.061,212.431,173.75,212.196,175.756z M144.952,191.65c5.34-4.779,0.803-16.743,0-24.452
	C141.315,172.979,144.074,186.657,144.952,191.65z M201.804,175.145c-4.615,0.239-7.041-2.423-12.226-3.057
	c-0.745,1.294-2.3,1.775-2.445,3.668c3.349,1.353,9.791,2.27,11.003,0.611C196.44,179.424,202.216,177.801,201.804,175.145z
	 M163.291,177.59c0.85-1.3,2.115-3.359,3.057-1.223c0.969-0.915,0.45-2.5-0.611-3.057
	C165.507,174.95,161.561,176.017,163.291,177.59z M137.005,198.985c7.225-3.07,4.446-16.077,3.668-24.452
	C135.931,180.114,136.865,189.775,137.005,198.985z M155.956,180.646c1.828,1.382,2.907-2.07,4.279-3.057
	c-0.338-1.088-0.314-2.539-1.223-3.057C157.966,176.543,155.481,177.115,155.956,180.646z M201.192,178.201
	c2.656,0.097,4.394,1.141,4.89-1.834c-1.87,0.443-1.798-1.055-3.668-0.611C202.097,176.66,201.51,177.296,201.192,178.201z
	 M206.083,178.812c1.75,0.12,3.337,0.076,3.057-1.834C207.219,176.689,206.641,177.741,206.083,178.812z M205.471,187.371
	c1.468-2.404,3.283-4.459,4.89-6.724c-4.76,0.334-5.152,5.037-7.947,7.336c1.426,0,2.853,0,4.279,0
	c1.962-3.749,7.231-7.433,7.336-11.004C211.44,180.706,208.674,184.257,205.471,187.371z M213.418,176.978
	c-2.327-0.418-4.33,1.1-3.057,2.445C212.154,179.382,212.632,178.026,213.418,176.978z M183.464,180.035
	c2.703,0.691,5.383,2.023,6.113-1.223C186.872,177.766,184.529,177.099,183.464,180.035z M163.903,183.091
	c-0.628-1.067,0.81-5.147,0.611-4.279C162.815,179.385,162.056,182.201,163.903,183.091z M189.577,181.869
	c2.632,0.186,4.933,0.043,4.89-2.445c-1.507,0.081-2.945,0.093-3.668-0.611C190.54,179.978,189.054,179.919,189.577,181.869z
	 M156.567,184.925c1.564-0.905,4.845-3.275,3.057-5.502C159.373,182.025,156.508,182.014,156.567,184.925z M194.468,182.48
	c2.596,0.558,3.077-0.998,3.668-2.445C195.701,179.638,194.396,180.371,194.468,182.48z M198.136,182.48
	c1.955-0.083,4.678,0.603,4.279-1.834C200.088,180.356,198.599,180.905,198.136,182.48z M203.026,183.091
	c1.993,0.159,2.942-0.726,3.057-2.445C204.089,180.487,203.141,181.372,203.026,183.091z M151.065,188.593
	c0.919-1.342,5.275-5.015,1.834-6.724C152.34,183.778,148.825,185.914,151.065,188.593z M180.408,184.925
	c2.731,1.451,5.725,0.221,6.113-2.445C183.61,180.85,181.118,182.582,180.408,184.925z M158.401,190.427
	c0.775-2.486,2.977-3.544,3.668-6.113c-0.808-0.007-0.559-1.072-1.223-1.223C160.265,185.381,156.2,187.387,158.401,190.427z
	 M185.298,186.148c3.517,0.966,4.685-0.068,6.113-2.445C188.434,182.005,186.255,184.051,185.298,186.148z M190.189,186.759
	c2.788,1.612,4.349-0.683,4.89-3.057C192.018,183.291,191.413,185.335,190.189,186.759z M199.97,184.314
	c-3.615-0.763-4.486,1.22-5.502,3.057C197.567,189.19,198.786,186.184,199.97,184.314z M198.747,187.982
	c3.467,0.41,3.959-2.154,4.89-4.279C200.799,183.922,199.606,185.785,198.747,187.982z M151.676,193.484
	c-0.068-2.737,4.579-3.952,2.445-6.724C153.705,189.013,149.6,190.768,151.676,193.484z M174.906,191.038
	c2.012,0.026,3.044,1.032,5.502,0.611c-0.002-2.039,1.989-2.087,1.834-4.279c-1.87,0.443-1.798-1.055-3.668-0.611
	c-0.215,2.026-1.831,2.652-3.057,3.668c0.274-1.201,2.993-3.055,1.834-3.668C176.694,188.343,175.141,189.032,174.906,191.038z
	 M187.132,188.593c-1.44,0.014-1.8-1.053-3.668-0.611c-0.569,1.673-1.876,2.607-2.445,4.279c9.981-1.931,19.881,5.756,23.841-2.445
	c-4.724,0.574-12.112-1.516-14.06,1.834c-0.138-1.156,0.689-1.349,0.611-2.445c-0.72-0.096-1.735,0.105-1.834-0.611
	c-2.387-0.716-2.42,4.046-3.668,2.445C185.918,189.823,187.578,190.261,187.132,188.593z M145.563,196.54
	c0.547-1.921,3.898-4.221,1.834-6.724C146.527,191.414,143.678,194.216,145.563,196.54z M207.917,189.816
	C205.374,193.247,208.931,191.562,207.917,189.816z M152.288,195.929c2.298,1.693,4.725-2.846,3.057-4.89
	C154.739,193.083,152.893,193.885,152.288,195.929z M166.348,200.208c8.905,1.237,17.931-1.799,25.064-4.279
	c-6.4-0.889-14.308-0.133-19.562-0.611c1.687-0.962,5.272-0.026,6.113-1.834C170.798,191.012,168.96,196.408,166.348,200.208z
	 M146.175,201.431c-0.057-2.325,3.955-3.752,1.834-6.113C148.246,197.823,144.234,199.251,146.175,201.431z M138.839,206.932
	c1.17-2.646,5.887-6.361,3.057-9.17C141.054,200.601,136.615,203.062,138.839,206.932z M198.747,198.374
	C195.516,199.99,201.074,197.211,198.747,198.374z M160.846,206.932c3.107,0.457,4.689-0.609,5.502-2.445
	c-0.803-0.624-2.253-0.599-3.057-1.223C162.538,204.549,161.599,205.648,160.846,206.932z M140.062,211.212
	c0.393-1.868,3.945-6.344,2.445-6.113C141.897,206.957,138.355,209.066,140.062,211.212z M133.949,212.434
	c1.751-1.808-1.273,2.375,0.611,2.445c0.223-2.682,4.312-5.01,1.223-7.336C135.446,209.076,132.928,211.57,133.949,212.434z
	 M121.111,230.162c0.067-0.877,2.684-3.187,0-3.057C121.907,228.623,119.318,229.642,121.111,230.162z M119.889,209.989
	c-2.144,4.552-0.314,11.452,0,17.117c0.129,0.739,0.679,0.376,1.223,0C121.1,221.004,120.867,215.124,119.889,209.989z
	 M155.344,215.491c4.038,0.167,4.638-3.105,6.113-5.502C157.144,209.548,156.545,212.82,155.344,215.491z M159.623,216.102
	c3.442-0.225,4.65-2.687,6.113-4.89c-1.473,0.25-1.329-1.116-3.057-0.611C161.903,212.676,160.51,214.135,159.623,216.102z
	 M164.514,217.325c8.316-0.056,17.162,1.555,25.064,0c0.208-2.644,2.976-2.729,2.445-6.113
	C182.272,214.019,166.274,206.052,164.514,217.325z M135.783,218.547c-0.183-1.854,3.21-3.256,1.223-4.89
	C137.189,215.511,133.795,216.913,135.783,218.547z M152.288,220.992c2.448,0.09,3.895-2.994,3.057-4.279
	C152.897,216.623,151.45,219.707,152.288,220.992z M155.956,222.215c2.378-0.271,2.503-2.795,3.668-4.279
	C157.301,218.263,156.708,220.319,155.956,222.215z M117.443,239.332c2.484-6.285,0.022-14.027-0.611-20.784
	C115.326,225.432,115.057,232.398,117.443,239.332z M160.235,223.438c2.121-0.49,2.35,0.91,4.279,0.611
	c0.143-2.302,2.302-2.588,2.445-4.89C162.387,218.254,161.249,220.783,160.235,223.438z M165.736,224.049
	c2.334-0.073,5.382-3.991,3.057-4.89C167.476,220.49,166.331,221.994,165.736,224.049z M171.85,219.77
	c-1.082,1.567-2.821,2.478-3.057,4.89c6.284,0.536,10.832,0.536,17.117,0c0.381-2.267,1.718-3.579,2.445-5.502
	C183.777,220.286,177.359,219.574,171.85,219.77z M147.397,228.939c2.799-0.869,3.31-4.026,4.89-6.113
	c-0.781-0.034-0.847-0.784-1.834-0.611C149.516,224.538,147.992,226.273,147.397,228.939z M152.288,228.939
	c0.605-2.044,2.451-2.846,3.057-4.89C153.484,224.456,151.642,228.054,152.288,228.939z M156.567,230.162
	c4.176,0.712,5.242-1.687,6.113-4.279C158.797,224.164,157.409,227.164,156.567,230.162z M153.51,229.551
	c1.516,0.236,2.683-2.944,1.834-3.057C154.986,227.766,154.059,228.47,153.51,229.551z M162.069,230.162
	c2.102-0.14,2.663-1.819,3.057-3.668C162.788,226.398,163.138,228.991,162.069,230.162z M160.846,237.498c5.502,0,11.003,0,16.505,0
	c2.629-3.28,4.889-6.93,6.724-11.003c-4.732,0.943-12.384,0.943-17.117,0c-0.944,1.298-1.759,2.724-2.445,4.279
	c5.156,0.753,11.139,0.68,15.894,1.834C174.415,236.557,161.156,228.37,160.846,237.498z M127.224,227.717
	C124.659,232.438,128.018,230.513,127.224,227.717z M122.334,233.83c-0.663-1.566,1.857-2.915,0-3.668
	C122.489,231.976,119.916,233.178,122.334,233.83z M144.341,234.441c1.619-0.382,4.156-3.681,1.834-4.279
	C146.177,232.201,144.186,232.249,144.341,234.441z M151.065,235.664c-0.314-1.789,3.044-3.005,1.223-4.279
	C152.151,232.722,149.53,234.675,151.065,235.664z M152.899,236.275c1.87-0.444,1.798,1.055,3.668,0.611
	c0.545-1.901,2.042-2.848,2.445-4.89C154.479,230.927,154.028,233.94,152.899,236.275z M158.401,236.886
	c2.203-0.242,1.865-3.025,3.057-4.279C159.254,232.849,159.592,235.632,158.401,236.886z M116.832,259.505
	c1.046-8.199-2.385-16.605-3.057-25.064C113.571,241.932,112.703,254.411,116.832,259.505z M122.945,236.275
	C121.884,240.316,124.505,231.329,122.945,236.275z M141.284,241.777c0.315-1.753,3.201-4.095,1.834-5.502
	C142.803,238.028,139.917,240.37,141.284,241.777z M118.055,250.335c3.259-2.583,2.174-9.016,1.223-13.449
	C117.119,240.167,117.17,245.58,118.055,250.335z M148.62,238.72C144.791,245.382,149.694,240.071,148.62,238.72z M159.623,239.332
	c-0.662,1.783-2.589,2.301-2.445,4.89c6.763-1.186,19.641,0.491,18.95-6.113C172.862,240.418,164.326,240.469,159.623,239.332z
	 M149.231,243.611c4.338,0.875,5.005-1.923,6.113-4.279c-0.788-0.842-2.656-0.605-4.279-0.611
	C150.745,240.642,149.993,242.131,149.231,243.611z M155.344,246.056c0.094,1.52-0.96,1.893-1.223,3.057
	c6.916-0.624,15.45,0.371,18.339-4.279C167.074,245.984,162.832,246.168,155.344,246.056z M144.341,249.112
	c-0.029-1.171,3.231-3.764,0.611-3.668C145.425,247.007,142.56,248.255,144.341,249.112z M146.786,249.724
	c3.589,0.736,4.175-1.53,4.89-3.668C149.119,244.257,146.54,246.78,146.786,249.724z M153.51,251.558
	c-1.207,0.422-1.63,1.63-1.834,3.057c5.516-1.055,17.625-1.869,16.505-5.502C164.747,251.091,155.989,252.494,153.51,251.558z
	 M141.896,255.226c-0.473-1.562,2.392-2.811,0.611-3.668C142.367,252.507,140.157,254.41,141.896,255.226z M147.397,255.226
	c-0.473-1.562,2.392-2.811,0.611-3.668c-0.402,1.831-1.306-0.584-2.445,0c-0.507,1.53-1.675,2.401-1.834,4.279
	c2.469,0.228,2.393-2.091,3.668-3.057C147.982,253.919,145.566,254.823,147.397,255.226z M146.175,265.006
	c8.366-0.149,16.136-3.566,18.95-11.004c-4.904,3.045-13.609,1.208-15.894,5.502c3.251-0.111,8.842-1.312,12.226-0.611
	C156.997,261.565,148.32,260.02,146.175,265.006z M113.164,265.618c3.755-1.788,0.334-7.22-0.611-9.781
	C112.45,259.403,113.62,261.698,113.164,265.618z M129.058,257.671c0.033-1.052-0.471-1.567-1.223-1.834
	C127.803,256.889,128.306,257.404,129.058,257.671z M132.726,258.282C130.984,261.29,133.878,256.292,132.726,258.282z
	 M134.56,260.116c0.067-0.817,1.146-3.37,0-1.834C134.472,259.005,133.471,259.667,134.56,260.116z M144.952,258.282
	c-0.532,1.805-0.915-1.418-2.445-0.611c-0.26,1.166-1.746,1.106-1.223,3.057c1.784,0.153,2.109-1.151,3.057-1.834
	C144.014,260.664,146.723,257.956,144.952,258.282z M132.726,262.561C130.16,267.282,133.52,265.358,132.726,262.561z
	 M139.45,266.229c1.143-0.895,2.904-1.171,2.445-3.668C139.547,261.883,138.049,265.18,139.45,266.229z M144.952,265.006
	c0.179-0.375,1.521-2.354,0-2.445C144.773,262.936,143.432,264.915,144.952,265.006z M137.005,264.395
	C133.842,268.979,138.979,261.535,137.005,264.395z M142.507,268.063c0,1.019,0,2.037,0,3.057
	c4.615-0.752,13.954-3.071,12.226-6.113C151.76,267.127,146.914,267.376,142.507,268.063z M135.171,272.342c0.815,0,1.63,0,2.445,0
	c-0.009-1.621,0.339-3.6-1.223-3.668C135.356,269.267,134.823,270.364,135.171,272.342z M139.45,271.119
	c-0.715-1.599,1.886-2.63-0.611-2.445C137.827,268.413,138.893,270.954,139.45,271.119z M132.726,272.342
	c0.081-0.803,0.093-4.423-0.611-2.445C132.034,270.7,132.022,274.32,132.726,272.342z M140.062,270.508
	C140.251,274.225,141.258,268.177,140.062,270.508z M129.058,271.731C128.414,275.279,131.708,271.986,129.058,271.731z
	 M138.839,274.787c-0.431,2.284,3.18,0.043,3.668-0.611C140.639,273.734,140.279,274.801,138.839,274.787z M135.783,276.01
	c1.083-0.139,3.061,0.616,2.445-1.223C136.835,274.617,135.93,274.935,135.783,276.01z M132.115,276.621
	c1.083-0.139,3.061,0.616,2.445-1.223C133.167,275.228,132.262,275.546,132.115,276.621z M118.666,297.406
	c1.143-6.844,5.057-14.044,4.89-20.173C121.032,282.658,118.772,291.598,118.666,297.406 M245.206,108.512
	C250.474,103.718,238.725,114.894,245.206,108.512L245.206,108.512 M275.16,81.003c-0.917,0.713-1.495,1.765-3.057,1.834
	C270.741,84.094,273.643,80.759,275.16,81.003 M270.27,84.06C272.223,82.946,267.092,86.738,270.27,84.06L270.27,84.06
	 M253.764,86.505c1.285,3.539-1.547,8.225-2.445,11.615C250.775,95.321,252.844,89.874,253.764,86.505 M262.934,107.901
	C264.55,104.67,261.771,110.227,262.934,107.901L262.934,107.901 M261.1,110.346C262.115,112.092,258.557,113.777,261.1,110.346
	L261.1,110.346 M258.655,114.625C259.67,116.371,256.112,118.057,258.655,114.625L258.655,114.625 M256.21,118.904
	C257.224,120.65,253.667,122.336,256.21,118.904L256.21,118.904"/>
</svg>
