<svg width="400" height="400" viewBox="0 0 400 400" fill="none" xmlns="http://www.w3.org/2000/svg">
<path fill-rule="evenodd" clip-rule="evenodd" d="M129.071 71.3164C111.281 77.8566 122.783 106.321 140.816 100.384C145.799 98.7436 145.847 98.7803 148.827 106.64C151.395 113.408 152.318 127.262 150.372 129.812C149.928 130.392 149.06 133.24 148.443 136.139C146.911 143.323 139.666 158.881 128.194 179.623C122.184 190.49 114.137 206.853 114.137 208.207C114.137 208.85 113.677 210.49 113.116 211.85C112.555 213.21 112.174 214.661 112.269 215.074C112.363 215.487 112.091 216.278 111.664 216.831C110.092 218.862 108.638 228.936 109.08 234.74C110.782 257.12 130.7 282.913 152.35 290.774C154.766 291.652 157.137 292.66 157.62 293.016C158.104 293.372 160.81 294.264 163.636 295C166.46 295.735 168.99 296.556 169.256 296.822C170.794 298.359 157.093 312.27 154.04 312.271C150.367 312.273 147.625 322.761 149.809 328.452C150.382 329.947 250.216 330.671 250.365 329.183C251.369 319.182 249.761 312.273 246.43 312.271C243.363 312.27 229.653 298.365 231.197 296.822C231.463 296.556 233.993 295.735 236.817 295C239.643 294.264 242.349 293.372 242.833 293.016C243.316 292.66 245.688 291.655 248.103 290.78C250.519 289.907 253.119 288.652 253.883 287.994C254.645 287.336 255.589 286.796 255.978 286.796C262.059 286.796 282.313 264.246 286.355 252.975C287.395 250.076 288.558 246.913 288.94 245.947C292.302 237.461 292.388 225.456 289.144 217.397C288.852 216.672 288.553 215.684 288.48 215.201C288.407 214.718 287.891 213.21 287.332 211.85C286.773 210.49 286.316 208.94 286.316 208.406C286.316 207.874 285.13 205.336 283.681 202.767C282.231 200.199 281.046 197.676 281.046 197.16C281.046 196.644 280.058 194.766 278.849 192.989C277.642 191.211 276.653 189.257 276.653 188.645C276.653 188.034 274.736 184.073 272.391 179.845C260.875 159.072 253.551 143.363 252.011 136.139C251.393 133.24 250.525 130.392 250.081 129.812C248.135 127.262 249.058 113.408 251.626 106.64C254.606 98.7803 254.655 98.7436 259.638 100.384C276.924 106.075 288.392 81.8742 272.889 72.4208C257.373 62.9604 237.05 82.2885 231.292 111.981C230.046 118.407 230.259 118.13 226.563 118.13H223.067V108.367C223.067 100.001 223.338 98.1222 224.957 95.2398C227.087 91.4518 225.976 88.1468 222.168 86.9382C217.265 85.3816 214.148 91.9632 217.795 96.169C219.306 97.9091 219.551 99.4432 219.539 107.064C219.524 117.073 219.053 118.393 215.633 117.981L213.221 117.691L213.352 103.881C213.443 94.0868 213.832 89.3945 214.69 87.7396C216.631 84.0002 214.673 80.3554 210.724 80.3554C205.932 80.3554 203.668 85.8338 207.206 88.863C208.759 90.1935 208.914 91.5418 208.914 103.784V117.243L206.804 117.772C202.795 118.778 202.742 118.55 202.742 100.336C202.742 86.0315 202.982 82.6779 204.12 81.0538C205.926 78.4745 205.86 77.5393 203.677 74.7646C199.545 69.5124 192.485 75.5589 196.333 81.0538C197.472 82.6779 197.711 86.0315 197.711 100.336C197.711 118.55 197.658 118.778 193.65 117.772L191.539 117.243V103.784C191.539 91.5418 191.694 90.1935 193.247 88.863C196.821 85.8042 194.512 80.3554 189.643 80.3554C185.737 80.3554 183.793 83.7611 185.613 87.4105C187.33 90.8517 187.856 117.422 186.218 117.968C180.788 119.777 177.84 101.723 182.657 96.169C186.585 91.6388 182.905 84.9093 177.777 87.246C174.156 88.8961 173.315 91.9857 175.518 95.5487C177.132 98.1601 177.386 99.9096 177.386 108.402V118.232L173.653 117.962C169.953 117.693 169.913 117.654 169.333 113.738C165.104 85.1815 146.025 65.0817 129.071 71.3164ZM177.159 183.909L177.371 241.341L174.664 244.424C172.386 247.019 172.005 248.094 172.256 251.216L172.554 254.927L169.666 252.723C166.329 250.178 164.044 250.83 160.171 255.433C156.672 259.592 158.451 265.099 162.76 263.445C164.232 262.881 166.386 266.08 165.5 267.514C163.942 270.033 151.668 260.371 145.724 251.949C138.657 241.933 134.664 212.923 139.469 206.495C139.862 205.968 140.683 203.759 141.295 201.584C142.729 196.492 145.185 190.936 150.39 181.018C154.354 173.462 159.809 162.361 163.379 154.586C164.267 152.653 165.645 148.503 166.441 145.363C167.238 142.222 168.199 139.044 168.577 138.299C168.956 137.556 169.552 134.47 169.904 131.444L170.542 125.941L173.745 126.209L176.947 126.475L177.159 183.909ZM187.076 179.144C187.006 234.625 187.089 233.505 183.097 232.995C181.365 232.774 181.336 232.025 181.116 180.502C180.87 122.85 180.688 125.813 184.454 126.2L187.141 126.475L187.076 179.144ZM197.561 171.497C197.53 216.954 196.994 226.252 194.245 229.001C191.689 231.557 191.495 227.964 191.456 177.391L191.416 126.036H194.504H197.591L197.561 171.497ZM209.011 177.375C209.011 228.219 208.826 231.619 206.208 229.001C203.518 226.31 201.507 165.247 202.839 126.695C202.852 126.333 204.245 126.036 205.937 126.036H209.011V177.375ZM219.048 127.585C219.588 129.288 219.514 232.4 218.972 233.377C218.787 233.71 217.464 233.575 216.033 233.077L213.431 232.169L213.198 179.761C213.069 150.937 213.087 127.057 213.236 126.695C213.807 125.308 218.555 126.035 219.048 127.585ZM230.555 131.492C230.903 134.491 231.497 137.556 231.876 138.299C232.254 139.044 233.216 142.222 234.014 145.363C235.895 152.767 254.175 191.269 256.553 192.835C257.655 193.561 259.963 200.628 259.963 203.276C259.963 204.569 260.361 206.025 260.848 206.511C265.912 211.575 261.807 241.963 254.71 251.949C248.528 260.648 236.545 270.089 234.954 267.514C233.972 265.928 236.208 262.948 237.962 263.505C242.956 265.09 243.563 258.648 238.842 254.157C233.495 249.071 228.618 251.059 227.871 258.628C227.459 262.807 226.433 264.512 224.9 263.564C223.337 262.598 223.804 260.095 226.141 256.929C229.261 252.701 229.104 248.199 225.702 244.325L223.067 241.324V184.265C223.067 152.884 223.331 126.944 223.653 126.622C226.539 123.736 229.932 126.129 230.555 131.492ZM201.111 227.771C201.113 228.588 201.679 230.337 202.368 231.657C203.452 233.736 203.452 234.395 202.367 236.572C201.676 237.955 201.04 241.717 200.952 244.933C200.74 252.596 199.349 252.524 199.342 244.849C199.34 241.417 198.806 237.903 198.077 236.504C196.982 234.406 196.982 233.77 198.077 231.673C198.77 230.343 199.34 228.344 199.342 227.228C199.346 226.101 199.739 225.442 200.226 225.742C200.709 226.042 201.107 226.954 201.111 227.771ZM185.67 239.459C184.905 240.696 181.779 240.36 181.779 239.041C181.779 238.241 182.501 237.984 183.964 238.264C185.167 238.493 185.934 239.032 185.67 239.459ZM218.016 239.49C217.451 240.056 216.36 240.184 215.439 239.794C214.028 239.195 214.096 239.046 216.039 238.503C218.643 237.774 219.369 238.137 218.016 239.49ZM195.834 240.676C195.834 243.092 194.82 243.509 193.328 241.71C192.622 240.861 192.641 240.268 193.395 239.514C195.012 237.897 195.834 238.289 195.834 240.676ZM207.125 239.644C207.831 240.493 207.812 241.085 207.058 241.84C205.441 243.457 204.619 243.065 204.619 240.676C204.619 238.261 205.633 237.844 207.125 239.644ZM182.657 244.688C182.657 246.686 180.847 248.845 178.727 249.377C177.507 249.683 176.508 250.321 176.508 250.796C176.508 251.27 176.124 251.658 175.657 251.658C174.368 251.658 175.614 248.878 178.119 246.168C180.38 243.72 182.657 242.977 182.657 244.688ZM222.463 246.215C225.078 248.945 226.022 252.982 223.443 250.403C222.684 249.643 221.508 249.023 220.831 249.023C220.152 249.023 218.985 247.837 218.235 246.387C216.365 242.771 219.06 242.663 222.463 246.215ZM193.023 245.683C194.605 247.266 194.299 248.143 192.17 248.143C191.121 248.143 189.54 248.798 188.655 249.598C186.567 251.487 186.406 249.452 188.417 246.582C189.944 244.401 191.448 244.109 193.023 245.683ZM212.037 246.582C214.218 249.698 213.811 251.087 211.214 249.385C210.01 248.597 208.429 248.179 207.701 248.459C206.113 249.068 205.93 247.184 207.429 245.683C209.005 244.109 210.508 244.401 212.037 246.582ZM201.105 255.999C201.105 256.936 201.5 257.947 201.983 258.246C203.507 259.188 202.942 260.222 200.666 260.658C198.26 261.117 198.22 261.029 199.019 257.038C199.622 254.024 201.105 253.284 201.105 255.999ZM210.22 258.863C209.625 259.823 210.551 259.742 212.582 258.655C214.72 257.511 214.991 259.639 212.927 261.351C211.223 262.766 209.977 261.643 209.399 258.17C209.095 256.343 209.213 255.976 209.812 256.886C210.274 257.588 210.457 258.477 210.22 258.863ZM175.786 259.118C176.483 260.648 176.513 261.902 175.884 263.29C175.02 265.197 174.929 265.142 173.55 261.872C171.362 256.684 173.485 254.068 175.786 259.118ZM190.564 260.49C190.564 261.664 188.158 262.078 187.157 261.077C185.219 259.139 185.971 257.753 188.368 258.845C189.575 259.396 190.564 260.136 190.564 260.49Z" fill="#0000FF"/>
</svg>
