<svg width="400" height="400" viewBox="0 0 400 400" fill="none" xmlns="http://www.w3.org/2000/svg">
<path style="fill:#0000FF;" d="M155.247,169.883c7.422-13.918,13.757-29.134,14.216-44.471h7.929v116.368
	c-0.598,0.354-1.164,0.775-1.661,1.287c-5.13,5.131-3.65,10.959-2.186,12.831c0.191,0.24,0.481,0.56,0.808,0.919
	c0.677,0.744,1.702,1.868,1.861,2.458c0.275,0.823,0.348,2.745-0.034,4.549c-0.204,0.038-0.399,0.069-0.605,0.106
	c0.071,0.431,0.127,0.871,0.188,1.306c-0.256,0.646-0.589,1.227-1.024,1.66c-1.276,1.277-2.391,1.546-3.104,1.546
	c-0.755,0-1.322-0.3-1.578-0.556c-0.306-0.304-0.585-0.6-0.651-0.848c-0.023-0.086-0.084-0.315,0.391-0.79
	c0.276-0.277,0.921-0.346,1.212-0.189c0.45,0.273,1.591,0.906,2.476,0.906c0.379,0,0.682-0.112,0.906-0.335
	c0.638-0.639,0.095-1.183-0.301-1.579c-0.986-0.985-1.923-2.595-2.096-7.674c-0.105-1.81-1.632-3.522-2.283-4.175
	c-0.698-0.696-2.203-1.446-3.862-1.446c-1.579,0-3.077,0.662-4.332,1.918c-3.773,3.772-3.782,7.201-2.191,8.79
	c1.008,1.008,3.073,1.471,3.816,0.731c0.458-0.458,1.851-1.852,0.325-3.612c-0.514-0.61-0.991-1.479-0.328-2.141
	c0.313-0.31,0.768-0.275,1.171,0.127c1.007,1.008,0.915,3.822,0.76,5.843c-0.179,1.881,0.722,4.968,2.345,6.693
	c-4.636-2.197-9.038-4.655-13.159-7.145c-9.857-9.355-17.015-20.77-17.499-40.248C136.289,204.047,146.257,186.724,155.247,169.883
	L155.247,169.883z M187.864,125.412v102c-0.173,0.356-0.23,0.752-0.164,1.25l0.014,0.294c0.108,2.279,0.108,2.279-0.691,3.079
	c-0.202,0.202-1.44,0.65-2.259,0.946c-1.482,0.535-2.409,0.887-2.766,1.243c-0.407,0.408-0.544,1.039-0.387,1.781
	c0.125,0.583,0.421,1.164,0.775,1.516c0.5,0.5,1.143,0.752,1.911,0.752c1.896,0,4.071-1.587,4.649-2.166
	c0.471-0.471,1.783-2.72,2.136-3.333c0.13,0.098,0.358,0.323,0.608,0.571c-0.27,1.023-4.133,5.283-5.485,6.634
	c-0.221,0.219-0.439,0.275-0.904,0.169c-0.227-0.042-0.604-0.064-1.036-0.064c-0.467,0-1.888,0.035-3.538,0.417V125.412H187.864
	L187.864,125.412z M198.331,125.412v91.774c-0.228,0.021-0.445,0.123-0.659,0.335c-0.527,0.529-0.777,2.298-1.098,4.937
	c-0.113,0.931-0.219,1.81-0.315,2.152c-1.218,4.558-2.535,5.872-2.965,6.286c-0.173,0-0.539-0.162-1.001-0.625
	c-0.208-0.208-0.429-0.454-0.628-0.675c-0.171-0.192-0.325-0.363-0.393-0.421c-0.017-0.025-0.043-0.077-0.074-0.142V125.412H198.331
	L198.331,125.412z M208.802,125.412v103.622c-0.031,0.065-0.058,0.117-0.075,0.142c-0.067,0.058-0.223,0.229-0.394,0.421
	c-0.198,0.221-0.419,0.466-0.627,0.675c-0.46,0.462-0.827,0.625-1.002,0.625c-0.429-0.414-1.746-1.729-2.964-6.286
	c-0.096-0.342-0.202-1.221-0.315-2.152c-0.321-2.639-0.571-4.408-1.098-4.937c-0.214-0.215-0.431-0.314-0.66-0.335v-91.774H208.802
	L208.802,125.412z M219.271,125.412V240.5c-1.65-0.381-3.07-0.417-3.537-0.417c-0.431,0-0.81,0.023-1.037,0.064
	c-0.462,0.106-0.683,0.05-0.902-0.169c-1.354-1.352-5.216-5.611-5.485-6.634c0.248-0.248,0.477-0.473,0.606-0.571
	c0.354,0.612,1.667,2.862,2.137,3.333c0.579,0.579,2.754,2.166,4.649,2.166c0.769,0,1.412-0.252,1.91-0.752
	c0.354-0.352,0.65-0.933,0.775-1.516c0.158-0.742,0.021-1.373-0.385-1.781c-0.358-0.356-1.283-0.708-2.766-1.243
	c-0.821-0.296-2.058-0.744-2.26-0.946c-0.8-0.8-0.8-0.8-0.689-3.079l0.012-0.294c0.067-0.496,0.009-0.889-0.16-1.244V125.412
	H219.271L219.271,125.412z M176.201,269.855l-2.853,2.852c-0.929-0.373-1.852-0.756-2.764-1.154
	c0.251,0.029,0.501,0.062,0.761,0.062c1.773,0,3.472-0.654,4.849-1.848C176.196,269.797,176.198,269.826,176.201,269.855
	L176.201,269.855z M196.186,245.984c-0.346-1.1-0.986-2.069-2.045-3.129c-0.831-0.831-1.437-1.156-2.562-1.594
	c-0.087-0.017-0.182-0.065-0.252-0.117c0.087-0.729,2.31-3.426,3.415-4.566C196.451,238.527,196.54,243.945,196.186,245.984
	L196.186,245.984z M208.421,241.262c-1.125,0.438-1.729,0.762-2.562,1.594c-1.058,1.06-1.698,2.029-2.043,3.129
	c-0.356-2.039-0.264-7.457,1.444-9.405c1.106,1.139,3.329,3.837,3.414,4.566C208.604,241.197,208.51,241.245,208.421,241.262
	L208.421,241.262z M213.547,262.238c-1.418-0.173-2.814-0.321-4.185-0.442c-0.208-1.848-0.783-3.108-0.796-3.137
	c-0.881-1.837,0.169-3.843,0.46-4.135c0.019-0.019,0.035-0.035,0.05-0.05c0.081,0.088,0.315,0.319,0.558,0.562
	c0.069,0.069,0.233,0.233,1.183,0.479c-0.073,0.296-0.273,0.8-0.406,1.131c-0.431,1.083-0.719,1.798-0.3,2.214
	c0.183,0.185,0.412,0.283,0.66,0.283c0.452,0,0.837-0.331,1.087-0.581c0.431-0.433,2.522-2.714,1.712-5.418
	c-0.335-1.073-1.169-2.279-2.481-3.591c-0.519-0.519-1.227-1.227-2.164-1.227c-0.604,0-1.187,0.288-1.781,0.881
	c-1.098,1.1-1.277,2.889-1.3,3.995c-0.475-1.864-0.546-6.201,1.593-8.34c0.383-0.383,1.758-1.346,2.729-1.346
	c0.269,0,0.473,0.075,0.629,0.229c0.396,0.398,2.402,3.839,3.354,7.303C215.119,254.391,214.665,258.428,213.547,262.238
	L213.547,262.238z M223.799,269.855c0-0.029,0.004-0.058,0.006-0.087c1.377,1.192,3.077,1.848,4.849,1.848
	c0.26,0,0.51-0.033,0.762-0.062c-0.912,0.398-1.837,0.781-2.766,1.154L223.799,269.855L223.799,269.855z M216.278,243.428
	c-0.208-0.383-0.183-0.591-0.165-0.627c-0.01,0.031,0.233-0.033,0.702-0.033c0.754,0,3.41,0.191,5.874,2.656
	c1.987,1.987,2.589,4.003,2.744,5.345c0.189,1.635-0.221,2.877-0.681,3.335c-0.298,0.3-0.421,0.319-0.427,0.319
	c0.042-0.031,0.006-0.325-0.006-0.421c0.01-1.431-0.812-3.368-1.55-4.106c-0.615-0.615-1.5-0.725-1.966-0.256
	c-0.483,0.483-0.144,1.514,0.477,3.156c0.121,0.319,0.271,0.717,0.29,0.823c0.075,0.317,0.265,1.468-0.215,4.616
	c-0.071,0.423-0.406,2.643-0.219,5.112c-0.306-0.052-0.602-0.096-0.906-0.148C221.202,257.797,220.614,251.096,216.278,243.428
	L216.278,243.428z M199.602,220.565c0-0.006,0.008-0.129,0.015-0.319h0.767c0.006,0.189,0.015,0.312,0.016,0.319
	c0.161,4.991,1.325,9.748,3.275,13.369c0.163,0.281,0.163,0.373,0.163,0.375c-0.008,0-0.063,0.054-0.102,0.092
	c-0.075,0.075-0.156,0.158-0.233,0.256c-3.268,5.276-2.892,14.96-2.408,15.445l0.145,0.1c0.164,0.071,0.331,0.152,0.471,0.221
	c-0.337,0.023-0.545,0.044-0.705,0.204c-0.192,0.192-0.313,0.465-0.33,0.748c-0.02,0.329,0.099,0.639,0.333,0.875l0.701,0.558
	c-0.32-0.015-0.603-0.046-0.829,0.179c-0.218,0.219-0.264,0.439-0.264,0.587c0,0.229,0.104,0.448,0.309,0.652
	c0.093,0.092,0.492,0.346,1.194,0.754l0,0c-0.341,0-0.685,0.029-0.896,0.24l-0.139,0.14l-0.004,0.654l0.255,0.138
	c0.562,0.302,1.163,0.637,1.657,0.927c-0.652-0.017-1.008,0.046-1.209,0.248l-0.136,0.137l-0.009,0.567l0.144,0.142
	c0.092,0.094,0.23,0.171,0.893,0.527c0.212,0.115,0.531,0.288,0.829,0.454c-0.104,0.031-0.185,0.075-0.258,0.148l-0.14,0.14
	l-0.002,0.564l0.142,0.142c0.035,0.038,0.069,0.062,0.156,0.115c-0.346,0.04-0.535,0.104-0.673,0.24l-0.298,0.298l0.146,0.188
	c-0.01,0.158,0.031,0.294,0.1,0.421c-1.786-0.048-3.561-0.048-5.346,0c0.067-0.127,0.109-0.262,0.1-0.421l0.144-0.188l-0.297-0.298
	c-0.137-0.135-0.326-0.2-0.672-0.24c0.086-0.052,0.12-0.077,0.156-0.115l0.142-0.142l-0.003-0.564l-0.139-0.14
	c-0.072-0.073-0.155-0.117-0.258-0.148c0.298-0.167,0.618-0.34,0.83-0.454c0.661-0.356,0.8-0.433,0.892-0.527l0.144-0.142
	l-0.009-0.567l-0.136-0.137c-0.201-0.202-0.557-0.265-1.208-0.248c0.492-0.289,1.094-0.625,1.656-0.927l0.255-0.138l-0.004-0.654
	l-0.139-0.14c-0.211-0.21-0.554-0.24-0.895-0.24h-0.001c0.702-0.408,1.101-0.662,1.193-0.754c0.205-0.204,0.309-0.423,0.309-0.652
	c0-0.148-0.046-0.369-0.263-0.587c-0.226-0.225-0.509-0.194-0.829-0.179l0.701-0.558c0.234-0.236,0.353-0.546,0.333-0.875
	c-0.018-0.283-0.138-0.556-0.33-0.748c-0.16-0.16-0.368-0.181-0.705-0.204c0.139-0.069,0.307-0.15,0.471-0.221l0.145-0.1
	c0.484-0.485,0.86-10.169-2.408-15.445c-0.077-0.098-0.158-0.181-0.233-0.256c-0.038-0.038-0.094-0.092-0.102-0.092
	c0-0.002,0-0.094,0.164-0.375C198.276,230.314,199.44,225.556,199.602,220.565L199.602,220.565z M185.849,251.05
	c0.952-3.464,2.957-6.905,3.355-7.303c0.154-0.154,0.359-0.229,0.629-0.229c0.969,0,2.345,0.962,2.729,1.346
	c2.138,2.139,2.066,6.476,1.592,8.34c-0.023-1.106-0.202-2.895-1.301-3.995c-0.591-0.594-1.175-0.881-1.78-0.881
	c-0.937,0-1.646,0.708-2.164,1.227c-1.312,1.312-2.146,2.518-2.48,3.591c-0.812,2.704,1.28,4.985,1.711,5.418
	c0.251,0.25,0.635,0.581,1.087,0.581c0.248,0,0.476-0.098,0.661-0.283c0.417-0.417,0.131-1.131-0.301-2.214
	c-0.132-0.331-0.334-0.835-0.407-1.131c0.951-0.246,1.115-0.41,1.184-0.479c0.244-0.244,0.476-0.475,0.558-0.562
	c0.015,0.015,0.031,0.031,0.051,0.05c0.292,0.292,1.34,2.298,0.459,4.135c-0.013,0.029-0.587,1.289-0.796,3.137
	c-1.372,0.121-2.767,0.269-4.186,0.442C185.334,258.428,184.881,254.391,185.849,251.05L185.849,251.05z M178.646,258.234
	c-0.48-3.147-0.29-4.299-0.215-4.616c0.019-0.106,0.169-0.504,0.29-0.823c0.62-1.641,0.96-2.672,0.477-3.156
	c-0.468-0.469-1.353-0.358-1.966,0.256c-0.738,0.737-1.561,2.675-1.551,4.106c-0.013,0.096-0.047,0.39-0.005,0.421
	c-0.006,0-0.13-0.019-0.428-0.319c-0.46-0.458-0.87-1.7-0.681-3.335c0.154-1.341,0.756-3.358,2.743-5.345
	c2.464-2.464,5.12-2.656,5.875-2.656c0.469,0,0.713,0.064,0.703,0.033c0.019,0.035,0.043,0.244-0.164,0.627
	c-4.339,7.668-4.924,14.369-3.953,19.772c-0.303,0.05-0.599,0.094-0.906,0.146C179.051,260.878,178.717,258.657,178.646,258.234
	L178.646,258.234z M230.536,125.412c0.458,15.337,6.795,30.554,14.216,44.471c8.988,16.84,18.955,34.163,18.489,52.831
	c-0.485,19.48-7.645,30.897-17.506,40.252c-4.118,2.487-8.517,4.945-13.152,7.14c1.623-1.723,2.523-4.812,2.345-6.693
	c-0.156-2.02-0.248-4.835,0.76-5.843c0.402-0.402,0.858-0.438,1.171-0.127c0.662,0.662,0.185,1.531-0.329,2.141
	c-1.525,1.76-0.133,3.154,0.325,3.612c0.744,0.74,2.808,0.277,3.816-0.731c1.591-1.589,1.583-5.018-2.191-8.79
	c-1.254-1.256-2.752-1.918-4.331-1.918c-1.66,0-3.164,0.75-3.862,1.446c-0.652,0.652-2.179,2.364-2.283,4.175
	c-0.173,5.078-1.11,6.688-2.095,7.674c-0.396,0.396-0.939,0.94-0.302,1.579c0.225,0.223,0.527,0.335,0.906,0.335
	c0.885,0,2.027-0.633,2.477-0.906c0.292-0.156,0.935-0.087,1.212,0.189c0.475,0.475,0.412,0.704,0.39,0.79
	c-0.065,0.248-0.344,0.543-0.65,0.848c-0.256,0.256-0.823,0.556-1.579,0.556c-0.712,0-1.827-0.269-3.104-1.546
	c-0.433-0.433-0.767-1.014-1.023-1.66c0.06-0.437,0.117-0.875,0.188-1.306c-0.206-0.039-0.4-0.071-0.604-0.108
	c-0.383-1.804-0.31-3.724-0.035-4.547c0.16-0.59,1.185-1.714,1.862-2.458c0.327-0.358,0.616-0.679,0.808-0.919
	c1.464-1.873,2.943-7.701-2.187-12.831c-0.498-0.513-1.062-0.935-1.66-1.287V125.412H230.536L230.536,125.412z M176.78,90.215
	c-0.108,0-0.214,0.009-0.319,0.016c0.541-0.635,1.347-1.039,2.247-1.039c1.63,0,2.953,1.322,2.953,2.952
	c0,0.462-0.109,0.898-0.298,1.286C180.68,91.556,178.889,90.215,176.78,90.215L176.78,90.215z M187.249,82.826
	c-0.107,0-0.214,0.009-0.319,0.016c0.542-0.635,1.348-1.04,2.248-1.04c1.63,0,2.953,1.322,2.953,2.953
	c0,0.462-0.111,0.898-0.299,1.286C191.149,84.168,189.358,82.826,187.249,82.826L187.249,82.826z M197.719,75.607
	c-0.107,0-0.213,0.009-0.319,0.016c0.542-0.635,1.348-1.039,2.248-1.039c1.63,0,2.953,1.322,2.953,2.952
	c0,0.462-0.111,0.898-0.298,1.286C201.62,76.948,199.828,75.607,197.719,75.607L197.719,75.607z M208.189,82.699
	c-0.108,0-0.215,0.009-0.319,0.016c0.539-0.635,1.345-1.039,2.245-1.039c1.631,0,2.954,1.322,2.954,2.952
	c0,0.462-0.11,0.898-0.298,1.287C212.089,84.041,210.297,82.699,208.189,82.699L208.189,82.699z M218.656,90.008
	c-0.106,0-0.212,0.009-0.319,0.016c0.542-0.635,1.348-1.039,2.247-1.039c1.629,0,2.952,1.322,2.952,2.952
	c0,0.462-0.108,0.898-0.298,1.287C222.558,91.349,220.767,90.008,218.656,90.008L218.656,90.008z M290.133,225.483
	c-2.314-18.532-13.142-35.994-22.122-52.835c-8.805-16.491-19.034-34.195-19.368-52.508c-0.156-8.656,2.243-16.055,6.36-22.587
	c2.62,2.039,5.866,3.303,9.436,3.303c8.519,0,15.429-6.907,15.429-15.427c0-8.52-6.909-15.428-15.429-15.428
	c-2.824,0-5.437,0.817-7.718,2.142c-0.006-0.02-0.012-0.037-0.012-0.056c-0.215,0.133-0.406,0.266-0.611,0.397
	c-0.156,0.098-0.306,0.191-0.456,0.292c-16.627,10.647-21.901,21.084-24.727,44.114c-0.046,0.385-0.083,0.771-0.123,1.156h-8.184
	V96.383c1.868-0.695,3.145-2.493,3.145-4.496c0-2.654-2.16-4.813-4.814-4.813c-2.656,0-4.816,2.159-4.816,4.813
	c0,2.003,1.277,3.802,3.147,4.495v21.663h-7.132V89.249c1.868-0.694,3.143-2.492,3.143-4.495c0-2.654-2.158-4.814-4.812-4.814
	c-2.654,0-4.814,2.16-4.814,4.814c0,2.003,1.275,3.801,3.145,4.495v28.795h-7.134V82.117c1.87-0.694,3.147-2.493,3.147-4.496
	c0-2.654-2.16-4.814-4.815-4.814c-2.655,0-4.814,2.16-4.814,4.814c0,2.003,1.276,3.803,3.145,4.496v35.928h-7.132V89.249
	c1.869-0.693,3.145-2.492,3.145-4.495c0-2.654-2.159-4.814-4.814-4.814c-2.655,0-4.814,2.16-4.814,4.814
	c0,2.003,1.277,3.801,3.147,4.495v28.795h-7.136V96.383c1.869-0.694,3.146-2.493,3.146-4.496c0-2.654-2.16-4.813-4.814-4.813
	c-2.654,0-4.814,2.159-4.814,4.813c0,2.004,1.277,3.803,3.145,4.495v21.663h-8.185c-0.039-0.385-0.076-0.771-0.123-1.156
	c-2.828-23.03-8.101-33.467-24.73-44.114c-0.149-0.101-0.298-0.194-0.454-0.292c-0.206-0.131-0.398-0.263-0.612-0.397
	c0,0.019-0.005,0.037-0.012,0.056c-2.28-1.326-4.893-2.142-7.719-2.142c-8.52,0-15.429,6.908-15.429,15.428
	c0,8.52,6.908,15.427,15.429,15.427c3.571,0,6.817-1.263,9.435-3.303c4.119,6.532,6.518,13.931,6.363,22.587
	c-0.336,18.314-10.564,36.017-19.367,52.508c-8.984,16.841-19.807,34.303-22.122,52.835c-2.227,17.81,5.412,35.295,18.399,48.243
	c8.75,10.242,23.785,18.339,42.175,22.592c-4.721,8.754-11.97,15.311-20.484,18.135V330h100.087v-15.547
	c-8.515-2.824-15.764-9.379-20.484-18.135c18.395-4.253,33.432-12.354,42.183-22.601
	C284.723,260.771,292.355,243.289,290.133,225.483L290.133,225.483z"/>
</svg>
