<svg width="400" height="400" viewBox="0 0 400 400" fill="none" xmlns="http://www.w3.org/2000/svg">
<path style="fill:#0000FF;" d="M283.549,142.824c-0.075-0.101-0.388-0.512-0.938-0.851c-0.967-0.595-1.961-0.531-2.944-0.472
	c-4.964,0.299-4.759,0.182-7.251,0.504c-0.544,0.07-0.813,0.136-1.361,0.185c-7.602,0.673-15.163,1.806-23.093,2.792
	c-6.055-15.065-16.685-25.021-31.234-31.167c0.146-2.864,0.154-5.348,0.42-7.805c1.061-9.811,2.342-19.6,3.258-29.424
	c0.516-5.538-0.644-6.545-6.372-6.565C209.385,70.004,204.731,70,200,70c-4.731,0-9.385,0.004-14.035,0.02
	c-5.728,0.02-6.888,1.027-6.372,6.565c0.916,9.824,2.197,19.613,3.258,29.424c0.266,2.457,0.274,4.942,0.42,7.805
	c-14.549,6.146-25.179,16.102-31.234,31.167c-7.929-0.986-15.491-2.119-23.093-2.792c-0.548-0.048-0.817-0.115-1.361-0.185
	c-2.492-0.322-2.286-0.205-7.251-0.504c-0.983-0.059-1.978-0.123-2.944,0.472c-0.549,0.338-0.863,0.75-0.938,0.851
	c-0.559,0.755-0.639,1.587-0.59,3.955c0.029,1.419,0.074,1.889,0.112,3.111c0.033,1.06,0.029,1.675,0.027,3.556
	c-0.002,1.778,0.006,3.556,0,5.333c-0.018,5.065-0.016,7.655-0.011,9.057c0.001,0.429,0.001,0.772,0.001,1.043
	c0,0,0,0.411-0.001,0.776c-0.023,7.796,0.046,8.886,0.183,11.068c0.01,0.165,0.038,0.562,0.203,1.042
	c0.09,0.261,0.334,0.972,0.847,1.403c0.669,0.562,1.718,0.59,3.729,0.218c1.961-0.362,3.975-0.371,5.938-0.718
	c2.46-0.435,5.084-0.827,10.333-1.611c2.961-0.443,2.617-0.363,4.984-0.726c2.696-0.414,3.479-0.569,4.847-0.684
	c2-0.167,3.683-0.116,4.893-0.03c6.787,15.358,17.561,26.343,34.201,31.482c-1.512,26.427-3.002,52.482-4.534,79.251
	c-22.194,2.454-44.457,4.459-64.944,13.641c0,9.068,0,17.329,0,26.009c27.824,0,55.562,0,83.331,0s55.508,0,83.331,0
	c0-8.68,0-16.94,0-26.009c-20.487-9.182-42.75-11.187-64.944-13.641c-1.531-26.769-3.022-52.824-4.534-79.251
	c16.639-5.139,27.413-16.125,34.201-31.482c1.21-0.086,2.893-0.137,4.893,0.03c1.369,0.114,2.152,0.27,4.847,0.684
	c2.367,0.364,2.022,0.284,4.984,0.726c5.249,0.784,7.874,1.176,10.333,1.611c1.963,0.347,3.977,0.356,5.938,0.718
	c2.01,0.372,3.059,0.344,3.729-0.218c0.513-0.431,0.757-1.142,0.847-1.403c0.165-0.48,0.193-0.877,0.203-1.042
	c0.137-2.181,0.206-3.272,0.183-11.068c-0.001-0.365-0.001-0.776-0.001-0.776c0-0.271,0-0.613,0.001-1.043
	c0.004-1.402,0.007-3.993-0.011-9.057c-0.006-1.778,0.002-3.556,0-5.333c-0.003-1.88-0.006-2.496,0.027-3.556
	c0.038-1.222,0.083-1.692,0.112-3.111C284.188,144.411,284.108,143.579,283.549,142.824z M178.104,134.999
	c2.577-2.054,5.095-3.512,7.253-4.552c0.799,6.557,1.503,12.326,2.317,19.004c-6.465-0.91-12.931-1.819-19.396-2.729
	C170.001,143.579,173.034,139.04,178.104,134.999z M186.78,194.66c-8.239-4.101-13.902-9.171-18.263-17.344
	c6.979-0.917,12.973-1.704,19.893-2.612C187.84,181.693,187.351,187.673,186.78,194.66z M213.22,194.66
	c-0.571-6.987-1.059-12.967-1.63-19.956c6.92,0.909,12.914,1.696,19.893,2.612C227.122,185.488,221.459,190.559,213.22,194.66z
	 M212.326,149.452c0.814-6.679,1.517-12.447,2.317-19.004c2.158,1.039,4.676,2.497,7.253,4.552c5.07,4.041,8.103,8.58,9.826,11.724
	C225.257,147.633,218.792,148.542,212.326,149.452z"/>
</svg>
