<svg width="400" height="400" viewBox="0 0 400 400" fill="none" xmlns="http://www.w3.org/2000/svg">
<path fill-rule="evenodd" clip-rule="evenodd" d="M179.741 71.8439C178.44 73.3634 178.42 74.7173 179.559 84.2741C183.348 116.073 183.482 114.011 177.432 117.023C166.668 122.38 159.982 129.001 153.964 140.265C150.778 146.226 152.131 146.127 126.102 142.335C115.716 140.822 116.16 139.906 116.093 162.955C116.025 186.225 114.565 184.364 131.182 182.182C137.565 181.344 144.906 180.443 147.494 180.181L152.198 179.704L153.875 184.37C154.798 186.935 156.304 189.84 157.22 190.824C158.137 191.808 159.65 193.777 160.581 195.199C163.485 199.631 178.398 209.874 182.659 210.365C184.942 210.627 185.365 212.51 185.191 221.67C185.089 227.071 184.729 231.493 184.393 231.494C184.056 231.496 183.728 236.035 183.663 241.582C183.597 247.129 183.142 255.466 182.649 260.11C182.158 264.754 181.747 273.04 181.738 278.524C181.718 290.704 182.203 290.224 168.547 291.559C150.318 293.341 126.062 298.627 118.867 302.387C116.554 303.594 116.518 303.801 116.261 316.807L116.001 330H199.52H283.039V316.891V303.781L280.459 302.449C279.04 301.715 275.98 300.632 273.658 300.04C271.335 299.449 268.592 298.603 267.559 298.162C266.528 297.721 263.15 296.871 260.054 296.273C256.959 295.677 251.893 294.602 248.797 293.885C245.701 293.167 237.743 292.133 231.112 291.586C224.481 291.04 218.734 290.394 218.342 290.151C217.95 289.908 217.321 281.151 216.944 270.689C216.567 260.227 216.082 249.556 215.867 246.976C213.361 217.019 213.713 210.387 217.844 209.64C220.566 209.148 227.102 205.881 227.93 204.599C228.32 203.995 230.107 202.593 231.9 201.484C235.486 199.268 242.652 190.351 245.742 184.26C246.828 182.12 247.83 180.218 247.971 180.03C248.215 179.704 256.898 180.723 271.907 182.838C283.812 184.517 283.039 185.931 283.039 162.5C283.039 138.529 284.868 140.505 265.24 143.273C246.914 145.86 247.972 145.996 245.523 140.734C240.875 130.746 231.271 121.231 221.458 116.89C216.137 114.536 216.003 114.11 217.304 103.668C222.007 65.943 223.669 69.7619 202.831 70.418C194.574 70.6772 187.052 71.1992 186.114 71.5772C185.16 71.9628 183.943 71.7972 183.347 71.2018C181.914 69.7695 181.446 69.8517 179.741 71.8439ZM185.008 134.631C185.102 136.053 185.516 140.075 185.927 143.572L186.676 149.928L181.15 149.358C178.11 149.044 174.414 148.405 172.936 147.938C171.458 147.47 169.874 147.32 169.418 147.602C164.429 150.684 174.235 138.103 180.173 133.803C184.304 130.81 184.762 130.888 185.008 134.631ZM226.65 141.075C230.842 145.837 231.402 147.525 228.862 147.743C227.959 147.821 224.058 148.296 220.194 148.799C211.586 149.918 211.886 150.112 212.897 144.062C213.354 141.328 213.955 137.307 214.235 135.124L214.742 131.156L218.769 133.926C220.984 135.45 224.53 138.667 226.65 141.075ZM186.936 184.351C186.567 189.38 186.065 193.694 185.82 193.94C184.169 195.589 168.587 182.131 168.587 179.056C168.587 178.185 171.696 177.468 179.359 176.573C181.929 176.272 184.216 175.842 184.441 175.617C186.889 173.169 187.579 175.585 186.936 184.351ZM221.123 176.609C227.313 177.455 230.504 178.238 230.504 178.909C230.504 180.477 220.117 190.868 216.558 192.86L212.68 195.031L212.672 191.452C212.669 189.485 212.394 184.993 212.062 181.473L211.458 175.071L214.648 175.615C216.403 175.914 219.317 176.361 221.123 176.609Z" fill="#0000FF"/>
</svg>
