<svg width="400" height="400" viewBox="0 0 400 400" fill="none" xmlns="http://www.w3.org/2000/svg">
<path fill-rule="evenodd" clip-rule="evenodd" d="M211.018 70.2853C210.152 70.5028 208.734 70.9879 207.868 71.3646C207.001 71.7414 204.622 72.583 202.58 73.2357C194.63 75.7764 186.997 85.9786 186.997 94.0646C186.997 99.0909 188.543 108.171 189.815 110.608C190.426 111.779 190.927 113.072 190.93 113.484C190.936 114.465 199.801 132.298 200.562 132.858C201.455 133.517 205 140.736 205.958 143.846C206.424 145.362 207.011 147.135 207.26 147.784C210.354 155.83 210.442 156.361 208.719 156.608C207.027 156.849 205.817 160.386 207.426 160.386C207.988 160.386 207.943 160.918 207.292 161.961C206.542 163.161 206.524 163.882 207.212 164.984C207.771 165.879 207.848 166.859 207.414 167.544C206.114 169.598 206.596 174.471 208.262 176.138C210.298 178.173 210.257 178.347 207.678 178.645C205.418 178.905 204.196 181.387 205.831 182.396C206.472 182.792 206.468 183.617 205.821 185.474C204.403 189.542 205.61 196.448 208.191 199.028L210.335 201.172L205.952 201.649C203.54 201.91 199.972 202.302 198.023 202.518C195.308 202.82 194.847 202.726 196.054 202.118C197.718 201.28 197.548 201.289 188.365 202.573C186.303 202.862 184.417 203.417 184.176 203.808C183.935 204.198 183.392 204.303 182.969 204.042C182.548 203.782 181.774 203.906 181.252 204.319C180.73 204.732 178.514 205.653 176.328 206.366C165.875 209.773 155.691 217.846 145.328 230.939C144.164 232.408 138.953 242.498 138.953 243.28C138.953 243.691 138.448 245.144 137.831 246.509C134.316 254.286 133.985 278.919 137.332 283.646C137.638 284.079 138.34 286.028 138.891 287.977C143.066 302.753 163.475 322.418 178.565 326.206C179.745 326.502 180.909 327.065 181.151 327.458C181.394 327.849 181.938 327.957 182.36 327.696C182.783 327.436 183.555 327.56 184.077 327.974C187.454 330.645 212.554 330.687 215.858 328.028C216.354 327.629 217.063 327.377 217.434 327.468C220.128 328.136 232.887 322.717 239.765 317.984C252.004 309.561 264.969 292.373 264.969 284.568C264.969 281.6 264.797 281.709 257.777 289.126C254.174 292.932 250.144 296.373 248.375 297.154C246.672 297.904 245.279 298.749 245.279 299.03C245.279 299.311 243.064 300.192 240.357 300.986C237.649 301.781 234.937 302.811 234.327 303.276C232.097 304.983 210.351 304.202 207.709 302.321C206.444 301.42 204.456 300.445 203.291 300.152C202.127 299.86 201.174 299.347 201.174 299.014C201.174 298.68 200.108 297.966 198.806 297.426C189.912 293.743 179.32 277.295 178.543 265.964C178.069 259.066 176.624 256.245 173.212 255.561C171.933 255.305 172.218 254.955 174.735 253.694C178.093 252.011 178.095 252.006 180.723 245.053C185.701 231.876 199.799 218.185 209.837 216.778C212.844 216.356 213.162 216.433 211.936 217.278C205.662 221.606 204.138 226.43 207.868 230.16C210.413 232.706 210.544 232.552 205.373 233.086C200.716 233.566 193.202 239.522 189.531 245.644C188.817 246.835 187.833 247.81 187.345 247.81C185.394 247.81 180.62 263.102 181.915 265.198C182.131 265.547 182.685 267.892 183.145 270.407C184.649 278.622 194.065 290.892 200.009 292.384C201.082 292.653 201.961 293.248 201.961 293.707C201.961 294.165 202.195 294.307 202.479 294.022C202.765 293.737 203.384 293.824 203.858 294.217C206.633 296.518 224.811 296.558 227.569 294.269C228.076 293.848 228.705 293.718 228.967 293.979C229.228 294.242 230.169 293.264 231.056 291.807C232.114 290.074 232.673 289.634 232.675 290.537C232.681 293.49 242.443 285.531 244.732 280.707C246.533 276.912 247.933 273.519 248.069 272.619C248.135 272.186 248.462 271.201 248.796 270.43C250.307 266.943 248.734 254.679 246.146 249.779C241.794 241.537 233.961 234.892 226.088 232.76C224.297 232.275 222.368 231.743 221.799 231.58C220.982 231.344 221.022 230.915 221.996 229.525C224.582 225.834 221.228 217.88 217.085 217.88C216.565 217.88 216.138 217.406 216.138 216.825C216.138 215.557 221.82 213.537 223.536 214.196C224.205 214.451 224.94 214.355 225.172 213.981C225.403 213.607 227.275 213.781 229.332 214.368C235.065 216.002 244.43 217.419 245.087 216.749C246.457 215.353 235.324 208.342 228.149 206.081C226.308 205.501 224.801 204.687 224.801 204.274C224.801 203.859 224.093 203.706 223.227 203.932C222.361 204.158 221.479 204.062 221.267 203.72C221.055 203.376 219.608 202.856 218.052 202.564L215.223 202.033L217.165 200.233C220.684 196.972 220.943 187.331 217.593 184.299L215.987 182.846L217.835 182.41C221.373 181.575 220.403 177.297 216.701 177.411C213.946 177.497 213.812 177.403 214.929 176.168C216.367 174.58 216.503 171.188 215.212 169.12C214.464 167.923 214.546 167.378 215.638 166.286C216.888 165.036 216.895 164.787 215.724 163.001C214.737 161.495 214.663 160.821 215.385 159.95C216.586 158.503 215.796 156.47 213.996 156.369C212.873 156.306 212.927 156.188 214.269 155.779C215.934 155.269 215.928 155.221 213.244 147.39C211.759 143.058 210.329 138.84 210.067 138.016C209.805 137.191 208.609 134.679 207.411 132.431C206.212 130.185 204.987 127.049 204.69 125.464C204.391 123.878 203.833 122.581 203.449 122.581C203.064 122.581 202.744 121.961 202.739 121.203C202.733 120.444 201.715 117.825 200.475 115.381C199.236 112.937 197.786 109.125 197.255 106.912C196.724 104.698 195.971 102.689 195.581 102.448C194.603 101.844 194.685 92.0736 195.673 91.4623C196.113 91.1906 196.292 90.6727 196.069 90.3119C195.638 89.6167 204.037 81.5647 204.961 81.7876C205.261 81.8597 206.923 81.3004 208.656 80.5448C221.072 75.1343 233.651 80.6446 238.092 93.4395C238.724 95.2628 238.582 117.758 237.909 122.187C237.58 124.353 237.331 126.48 237.355 126.913C238.27 143.691 247.364 163.952 254.174 164.384C254.697 164.417 255.744 164.563 256.502 164.709C258.693 165.128 258.135 163.413 254.42 158.307C246.585 147.54 245.279 142.223 245.279 121.098C245.279 112.528 245.016 105.253 244.694 104.931C244.371 104.609 244.229 100.834 244.376 96.5417C244.599 90.0678 244.381 88.167 243.097 85.379C242.246 83.5313 240.964 80.7104 240.248 79.1099C238.869 76.0258 233.665 71.1693 232.508 71.8847C232.131 72.1192 231.306 71.8825 230.677 71.3604C229.503 70.3861 213.998 69.5381 211.018 70.2853ZM216.138 191.421V194.797L212.594 194.722L209.05 194.647V191.203C209.05 188.276 209.221 187.902 210.197 188.712C211.105 189.465 211.707 189.41 213.082 188.446C215.452 186.787 216.138 187.453 216.138 191.421ZM205.937 209.177C205.307 209.575 203.004 210.14 200.817 210.434C198.631 210.728 196.425 211.305 195.916 211.716C195.407 212.127 194.52 212.386 193.946 212.292C192.733 212.091 190.974 212.669 186.603 214.705C184.87 215.512 181.504 216.781 179.121 217.525C176.738 218.268 174.434 219.152 174.001 219.489C173.568 219.826 171.998 220.416 170.511 220.799C166.417 221.856 166.73 223.115 171.236 223.712C178.565 224.684 182.193 230.253 179.174 235.896C177.737 238.58 176.561 237.895 176.88 234.561C177.712 225.831 162.131 225.458 154.547 234.027C153.195 235.555 153.181 235.519 154.075 232.847C156.503 225.583 171.118 213.833 179.729 212.219C182.21 211.755 184.771 211.189 185.422 210.963C186.071 210.736 186.958 210.496 187.391 210.429C187.824 210.363 188.71 210.077 189.359 209.793C192.145 208.578 207.804 207.997 205.937 209.177ZM188.849 222.223C185.162 225.48 184.926 225.496 181.546 222.692L178.851 220.458L183.446 219.884C185.973 219.569 188.78 219.032 189.684 218.691C192.461 217.646 192.048 219.398 188.849 222.223ZM212.643 223.473C212.948 223.966 214.156 224.144 215.446 223.886C217.538 223.468 217.713 223.615 217.713 225.776C217.713 228.351 216.865 228.763 215.343 226.929C214.466 225.873 214.247 225.888 213.391 227.057C212.088 228.84 209.837 227.866 209.837 225.519C209.837 222.785 211.478 221.589 212.643 223.473ZM169.993 236.844C172.184 239.447 172.728 243.648 171.087 245.289C170.567 245.809 170.414 246.234 170.747 246.234C171.428 246.234 168.228 251.037 166.951 251.932C164.565 253.605 160.218 252.009 160.218 249.463C160.218 248.544 160.428 248.492 161.163 249.227C162.501 250.565 166.18 250.399 167.644 248.935C169.348 247.23 169.195 244.399 167.307 242.69C166.441 241.906 165.732 241.54 165.732 241.877C165.732 242.214 165.204 242.051 164.56 241.518C160.26 237.948 151.063 249.411 145.604 265.145C143.536 271.106 143.257 271.544 143.031 269.178C142.892 267.719 143.13 265.593 143.562 264.453C143.993 263.312 144.565 260.963 144.833 259.229C145.323 256.041 146.768 251.683 147.572 250.96C147.813 250.743 148.639 249.325 149.408 247.81C151.32 244.036 159.777 235.4 161.973 234.979C166.534 234.102 167.968 234.437 169.993 236.844ZM221.114 236.636C221.627 237.044 222.88 237.634 223.901 237.948C228.967 239.503 237.581 248.982 239.406 255.008C240.187 257.588 241.119 259.88 241.477 260.102C242.496 260.731 242.248 270.216 241.183 271.28C239.658 272.806 239.209 272.411 238.676 269.075C238.399 267.342 237.781 265.924 237.302 265.924C236.824 265.924 236.605 266.586 236.817 267.396C237.814 271.207 235.99 282.473 234.122 284.051C229.681 287.802 226.514 283.391 226.41 273.31C226.374 269.759 223.656 262.774 222.31 262.774C221.801 262.774 221.682 263.475 222.01 264.547C222.308 265.521 222.559 266.85 222.566 267.499C222.575 268.15 222.932 269.839 223.363 271.255C223.814 272.739 223.912 276.326 223.593 279.722L223.042 285.614H220.414C217.846 285.614 216.161 282.916 216.142 278.769C216.134 276.913 214.411 276.817 213.16 278.602C211.731 280.643 211.331 283.109 212.329 283.725C212.691 283.949 212.988 285.041 212.988 286.151C212.988 287.855 212.803 288.017 211.809 287.191C210.166 285.829 208.262 278.984 208.262 274.445C208.262 272.358 207.908 270.597 207.475 270.532C205.262 270.2 204.717 270.34 204.717 271.241C204.717 271.782 204.363 272.22 203.93 272.213C203.452 272.206 203.25 269.92 203.416 266.4C203.718 259.99 202.503 257.738 201.575 262.987C200.784 267.457 200.471 280.297 201.128 281.282C203.095 284.232 203.663 286.762 202.027 285.28C201.125 284.464 200.386 283.319 200.386 282.736C200.386 282.153 200.073 281.677 199.692 281.677C196.641 281.677 196.743 259.824 199.812 255.882C200.365 255.172 200.169 254.902 199.104 254.91C195.09 254.943 192.412 259.757 192.792 266.257C193.135 272.157 192.215 273.038 190.878 268.09C189.23 261.992 190.378 257.216 196.292 245.568C197.919 242.364 202.299 238.358 204.176 238.358C204.931 238.358 206.248 237.869 207.102 237.271C210.082 235.187 218.804 234.791 221.114 236.636ZM163.908 260.549C165.742 262.271 166.137 263.949 165.253 266.254C164.596 267.965 163.635 267.815 163.14 265.924C162.722 264.326 161.006 263.692 161.006 265.137C161.006 265.57 160.48 265.924 159.839 265.924C159.197 265.924 158.435 266.871 158.145 268.029C157.584 270.263 160.572 273.8 163.019 273.8C163.644 273.8 164.156 274.154 164.156 274.588C164.156 275.788 169.074 275.479 170.805 274.169C173.248 272.322 174.051 272.833 172.051 274.962C171.044 276.034 168.59 277.51 166.597 278.243C164.605 278.975 162.638 279.869 162.226 280.231C161.157 281.172 156.47 281.044 155.861 280.059C155.578 279.603 154.972 279.356 154.512 279.51C154.052 279.663 152.844 278.957 151.828 277.94C145.377 271.49 157.294 254.335 163.908 260.549ZM172.114 281.708C167.415 285.112 166.532 293.312 170.776 294.146C172.635 294.512 174.705 292.697 173.641 291.634C172.309 290.301 172.696 289.543 174.565 289.829C181.008 290.812 177.237 299.923 170.386 299.923C155.56 299.923 156.034 285.011 171.024 279.836C175.296 278.36 175.723 279.094 172.114 281.708ZM150.642 287.809C147.974 290.055 147.18 289.616 146.42 285.478L145.889 282.585L149.432 284.215L152.976 285.846L150.642 287.809ZM153.081 297.764C153.594 298.381 155.32 299.56 156.919 300.383C168.046 306.116 172.416 308.236 174.395 308.861C174.612 308.929 175.498 309.296 176.364 309.677C181.698 312.024 186.997 309.436 186.997 304.486C186.997 300.204 181.662 298.832 179.685 302.606C178.734 304.419 178.512 304.501 177.581 303.378C176.13 301.63 178.561 299.004 181.631 299.004C190.599 299.004 197.088 309.916 190.147 313.326C187.117 314.815 182.23 315.16 180.094 314.036C179.342 313.64 176.689 312.905 174.198 312.404C171.707 311.903 169.226 311.075 168.684 310.564C168.143 310.054 166.46 309.007 164.944 308.239C159.385 305.422 149.058 296.641 151.303 296.641C151.768 296.641 152.569 297.146 153.081 297.764ZM202.501 305.732C203.055 306.286 203.957 306.889 204.507 307.072C205.918 307.543 205.782 314.065 204.324 315.834C203.674 316.622 202.289 318.123 201.247 319.169C198.595 321.832 199.407 322.091 204.896 320.338C207.513 319.501 211.379 318.562 213.487 318.249C215.594 317.937 218.554 317.023 220.065 316.219C221.574 315.414 223.412 314.755 224.147 314.755C224.884 314.755 226.484 314.346 227.704 313.845C228.923 313.344 230.453 312.992 231.102 313.064C231.752 313.135 234.677 311.984 237.6 310.507C240.524 309.029 242.916 308.098 242.916 308.437C242.916 309.131 237.819 313.18 236.947 313.18C236.638 313.18 234.478 314.445 232.149 315.993C228.297 318.548 225.446 319.627 213.406 323.083C205.736 325.285 192.921 324.209 185.781 320.762L181.993 318.935L186.376 319.299C197.232 320.199 205.21 312.436 199.905 306.132C197.592 303.382 199.81 303.041 202.501 305.732ZM214.208 309.193C214.62 309.598 216.552 310.047 218.5 310.191L222.045 310.451L219.683 311.495C218.383 312.069 215.636 313.373 213.578 314.393C210.508 315.915 208.081 315.934 210.535 314.417C210.919 314.18 211.467 312.741 211.753 311.22C212.283 308.391 212.888 307.891 214.208 309.193Z" fill="#0000FF"/>
</svg>
