<svg width="400" height="400" viewBox="0 0 400 400" fill="none" xmlns="http://www.w3.org/2000/svg">
<path style="fill:#0000FF;" d="M172.547,194.538c-4.511,0.295-8.301-0.95-11.12-4.557c-2.791-3.57-3.072-7.505-1.716-11.683
	c-3.909-1.376-6.727-3.891-8.476-7.574c-1.823-3.838-0.466-7.418,3.607-9.324c-0.783-0.703-1.479-1.429-2.272-2.027
	c-4.636-3.487-9.311-6.92-13.939-10.417c-4.667-3.527-9.364-7.02-13.92-10.69c-5.686-4.581-10.842-9.73-15.289-15.537
	c-4.865-6.351-8.776-13.233-10.936-21c-1.52-5.466-2.167-11.031-0.926-16.63c0.934-4.218,3.405-7.545,6.688-10.316
	c5.366-4.529,11.647-5.518,18.251-4.312c7.088,1.294,13.322,4.555,18.863,9.231c3.259,2.75,6.152,5.792,8.84,9.08
	c3.573,4.371,6.664,9.067,9.197,14.087c4.243,8.413,8.266,16.938,12.403,25.404c3.072,6.286,6.648,12.281,11.146,17.644
	c3.18,3.791,6.577,7.416,10.044,10.951c8.492,8.66,18.644,15.026,29.159,20.878c1.093,0.608,2.056,1.452,3.287,2.335
	c-0.977,0.88-1.612,1.452-2.48,2.232c-2.317-1.044-4.787-2-7.109-3.236c-4.167-2.218-8.433-4.329-12.312-6.989
	c-4.601-3.154-8.937-6.725-13.202-10.335c-2.962-2.507-5.754-5.256-8.362-8.132c-2.797-3.084-5.409-6.356-7.894-9.701
	c-6.736-9.07-11.12-19.447-16.084-29.495c-3.282-6.642-6.744-13.188-11.19-19.122c-4.591-6.125-9.993-11.467-17.085-14.643
	c-6.139-2.75-12.495-3.861-18.817-0.455c-3.125,1.683-4.675,4.628-5.367,7.979c-1.481,7.163,0.551,13.776,3.577,20.127
	c2.883,6.048,6.839,11.364,11.501,16.192c4.777,4.948,10.061,9.281,15.504,13.448c6.743,5.162,13.532,10.266,20.156,15.577
	c4.22,3.384,8.197,7.103,10.729,12.012c0.849,1.647,1.299,3.501,1.992,5.427c4.09-0.399,7.864,0.698,10.652,3.96
	c2.736,3.2,3.565,6.986,2.458,11.342c1.249,0.379,2.502,0.801,3.778,1.138c4.063,1.074,8.164,2.02,12.197,3.196
	c5.12,1.492,10.211,3.09,15.27,4.775c4.443,1.479,8.863,3.041,13.224,4.745c5.387,2.104,10.783,4.216,16.031,6.635
	c13.561,6.248,26.614,13.394,38.057,23.125c6.066,5.159,11.441,10.943,15.372,17.984c4.018,7.197,6.323,14.894,6.919,23.068
	c0.415,5.687-0.092,11.331-1.457,16.918c-1.762,7.204-4.719,13.833-9.153,19.741c-4.486,5.978-9.911,10.938-16.409,14.758
	c-9.722,5.714-20.184,8.181-31.376,7.553c-6.385-0.358-12.535-1.864-18.43-4.397c-6.924-2.974-12.99-7.198-18.119-12.688
	c-4.378-4.687-8.067-9.915-11.297-15.469c-3.87-6.655-7.246-13.557-9.769-20.819c-2.361-6.798-4.464-13.697-6.41-20.627
	c-1.218-4.34-2.045-8.802-2.847-13.246c-1.057-5.868-2.144-11.747-2.803-17.668c-0.885-7.95-1.391-15.942-2.024-23.92
	C172.689,198.959,172.652,196.836,172.547,194.538z M187.802,202.964c-0.176,0.833-0.321,1.278-0.357,1.73
	c-0.281,3.477-0.692,6.954-0.779,10.437c-0.217,8.768,0.161,17.533,1.535,26.192c1.195,7.539,2.516,15.096,4.453,22.469
	c2.72,10.356,6.903,20.164,13.018,29.056c2.574,3.742,5.422,7.262,8.884,10.193c5.205,4.407,11.088,7.605,17.742,9.293
	c6.221,1.578,12.497,1.931,18.814,0.763c11.608-2.147,20.962-7.946,28.004-17.462c5.634-7.612,8.556-16.209,8.619-25.608
	c0.07-10.527-3.099-20.053-9.841-28.328c-4.665-5.727-9.982-10.719-15.928-15.05c-7.936-5.782-16.522-10.391-25.748-13.743
	c-4.656-1.691-9.352-3.33-14.132-4.611c-4.744-1.272-9.583-2.293-14.442-3.015C201.098,204.307,194.491,203.725,187.802,202.964z
	 M257.483,255.12c2.057,4.748,4.038,9.321,6.001,13.852c-2.371,5.51-4.682,10.879-6.985,16.232
	c-5.8,1.364-11.514,2.707-17.263,4.058c-3.836-2.578-7.69-5.143-11.51-7.76c-0.518-0.355-1.054-0.899-1.258-1.47
	c-2.8-7.831-5.532-15.687-8.305-23.528c-0.792-2.24-1.68-4.445-2.476-6.683c-0.225-0.632-0.404-1.323-0.402-1.988
	c0.01-3.365,0.079-6.73,0.149-10.095c0.009-0.424,0.146-0.844,0.25-1.411c3.935,0.605,7.798,1.19,11.656,1.812
	c0.363,0.059,0.693,0.341,1.03,0.533c8.183,4.644,16.362,9.295,24.548,13.934C254.473,253.488,256.05,254.333,257.483,255.12z
	 M212.092,248.803c0,7.001,0,13.878,0,20.756c-0.152,0.065-0.303,0.129-0.455,0.194
	c-4.481-4.759-8.962-9.518-13.478-14.314c1.407-6.015,2.786-11.915,4.254-18.197C205.823,241.315,208.96,245.063,212.092,248.803z
	 M218.759,223.589c2.32-0.141,4.359-0.263,6.397-0.387c3.31-0.201,6.624-0.36,9.93-0.623
	c1.668-0.133,2.733,0.385,3.731,1.844c2.409,3.52,5.075,6.866,7.635,10.284c0.889,1.188,1.769,2.384,2.908,3.922
	c-3.514-0.557-6.625-1.061-9.74-1.541c-2.961-0.456-5.917-0.986-8.895-1.283c-1.551-0.155-2.506-0.864-3.437-2.018
	C224.584,230.436,221.771,227.175,218.759,223.589z
	 M198.08,215.147c5.336,2.65,10.673,5.3,16.073,7.982c-0.449,3.388-0.878,6.625-1.293,9.754
	c-3.331,0-6.594,0-10.02,0c-1.719-5.909-3.409-11.719-5.099-17.529C197.853,215.285,197.966,215.216,198.08,215.147z
	 M255.235,242.512c4.93,0.759,9.583,1.476,14.431,2.222c-0.233,4.489-0.462,8.896-0.704,13.577
	c-2.172-1.243-4.009-2.673-6.091-3.407c-3.856-1.357-4.264-5-5.791-7.906C256.38,245.666,255.92,244.204,255.235,242.512z
	 M227.861,292.762c-4.624-0.562-8.957-1.09-13.225-1.609c0-4.886,0-9.578,0-14.608
	c0.677,0.357,1.064,0.519,1.407,0.749c2.523,1.693,5.044,3.389,7.546,5.113c0.388,0.267,0.837,0.619,0.989,1.031
	C225.661,286.388,226.675,289.366,227.861,292.762z M258.638,287.738c2.909-0.707,5.924-1.44,8.909-2.167c0,4.296,0,8.493,0,12.79
	c-4.349-0.699-8.424-1.355-12.694-2.041C256.117,293.455,257.342,290.677,258.638,287.738z
	 M241.105,305.398c-2.908-3.463-5.631-6.705-8.553-10.184c1.639-0.755,3.132-1.457,4.638-2.131
	c1.021-0.457,1.99-0.569,3.092-0.004c3.169,1.624,6.399,3.128,9.804,4.776C247.029,300.422,244.139,302.85,241.105,305.398z
	 M279.061,273.546c-3.004,2.51-5.886,4.917-8.993,7.513c-1.174-4.124-2.289-8.041-3.414-11.993
	c1.233-1.897,2.45-3.772,3.776-5.812C273.368,266.757,276.199,270.133,279.061,273.546z
	 M272.446,248.022c4.145,6.696,6.493,13.538,7.109,21.203c-0.358-0.245-0.647-0.363-0.825-0.575
	c-1.938-2.301-3.829-4.641-5.797-6.916c-0.88-1.017-1.217-2.013-1.063-3.422c0.31-2.844,0.316-5.721,0.451-8.585
	C272.343,249.305,272.384,248.883,272.446,248.022z
	 M236.533,305.018c-7.192-1.746-13.259-5.393-18.786-10.03c0.065-0.157,0.13-0.313,0.195-0.47
	c3.632,0.455,7.266,0.896,10.893,1.387c0.343,0.046,0.716,0.339,0.955,0.62c2.271,2.667,4.518,5.355,6.764,8.043
	C236.6,304.62,236.549,304.753,236.533,305.018z
	 M255.079,250.438c-6.133-3.472-12.266-6.944-18.4-10.416c0.051-0.133,0.102-0.266,0.153-0.399
	c1.981,0.304,3.962,0.601,5.942,0.914c2.324,0.368,4.637,0.845,6.973,1.09c1.289,0.134,2.117,0.458,2.621,1.78
	c0.871,2.285,1.953,4.489,2.946,6.727C255.235,250.235,255.157,250.337,255.079,250.438z
	 M214.956,273.022c0-5.335,0-10.362,0-15.389c0.144-0.023,0.288-0.046,0.432-0.069
	c2.389,6.725,4.776,13.451,7.165,20.176c-0.083,0.066-0.166,0.131-0.249,0.196C219.805,276.264,217.307,274.594,214.956,273.022z
	 M203.502,273.868c-1.414-4.207-2.772-8.245-4.13-12.282c0.113-0.064,0.225-0.126,0.337-0.19
	c3.482,3.689,6.964,7.377,10.67,11.305C207.979,273.109,205.834,273.473,203.502,273.868z
	 M254.675,239.471c0.827-2.343,1.564-4.43,2.438-6.905c3.423,2.898,6.642,5.625,9.861,8.351
	c-0.067,0.128-0.135,0.256-0.203,0.384C262.803,240.702,258.838,240.101,254.675,239.471z
	 M252.219,237.555c-3.07-4.128-5.939-7.985-8.808-11.843c0.112-0.16,0.226-0.322,0.338-0.482
	c3.599,1.91,7.197,3.821,10.834,5.752C253.786,233.2,253.059,235.223,252.219,237.555z
	 M204.717,276.684c2.545-0.442,4.686-0.814,6.902-1.198c0,4.039,0,7.973,0,11.907
	c-0.148,0.058-0.294,0.116-0.442,0.174C209.084,284.043,206.993,280.519,204.717,276.684z
	 M243.913,291.182c3.629-0.855,7.259-1.71,11.209-2.64c-1.135,2.51-2.102,4.652-3.142,6.952
	c-2.799-1.356-5.477-2.653-8.156-3.951C243.854,291.423,243.883,291.302,243.913,291.182z
	 M267.453,282.57c-2.494,0.617-4.768,1.18-7.42,1.837c1.59-3.684,3.074-7.125,4.758-11.028
	C265.732,276.626,266.564,279.5,267.453,282.57z
	 M254.741,299.319c3.508,0.543,6.78,1.05,10.504,1.626c-2.985,2.055-5.812,3.437-9.149,4.139
	C255.635,303.123,255.22,301.356,254.741,299.319z
	 M270.687,285.829c2.062,0.919,3.752,1.674,5.757,2.569c-1.85,2.741-3.649,5.404-5.447,8.068
	c-0.104-0.053-0.206-0.106-0.31-0.158C270.687,292.953,270.687,289.598,270.687,285.829z
	 M215.765,233.376c0.335-2.557,0.639-4.89,0.995-7.615c2.566,3.07,4.871,5.83,7.404,8.86
	C221.208,234.182,218.569,233.791,215.765,233.376z
	 M204.939,235.674c2.838,0.148,5.191,0.271,7.51,0.392c0,2.846,0,5.508,0,8.591
	C209.86,241.561,207.546,238.792,204.939,235.674z
	 M196.333,221.001c1.108,3.818,2.218,7.635,3.388,11.669c-1.3,0.151-2.494,0.289-3.885,0.45
	c0-4.104,0-8.08,0-12.057C196.001,221.042,196.167,221.022,196.333,221.001z
	 M214.79,220.158c-3.619-1.794-7.138-3.538-11.053-5.479c2.349-0.356,4.193,0.279,6.062,0.582
	c1.893,0.306,3.783,0.629,5.908,0.983C215.411,217.512,215.135,218.688,214.79,220.158z
	 M251.903,300.161c0.49,2.072,0.9,3.808,1.38,5.842c-2.848,0.198-5.59,0.387-8.332,0.577
	c-0.057-0.136-0.112-0.272-0.169-0.409C247.092,304.22,249.402,302.271,251.903,300.161z
	 M272.108,283.188c2.466-2.06,4.711-3.935,6.955-5.81c0.15,0.075,0.299,0.151,0.449,0.226
	c-0.641,2.606-1.28,5.212-1.981,8.062C275.588,284.778,273.939,284.025,272.108,283.188z
	 M195.765,236.029c1.435-0.115,2.567-0.206,3.973-0.32c-0.942,4.033-1.832,7.848-2.722,11.662
	c-0.097-0.006-0.194-0.012-0.291-0.018C196.411,243.641,196.096,239.928,195.765,236.029z
	 M217.824,220.673c0.253-1.279,0.483-2.442,0.755-3.815c3.565,0.968,6.947,1.888,10.33,2.807
	c-0.026,0.131-0.052,0.262-0.078,0.393C225.306,220.255,221.78,220.451,217.824,220.673z
	 M262.241,257.863c1.972,1.112,3.943,2.224,6.031,3.402c-0.991,1.507-1.885,2.869-2.949,4.488
	c-1.194-2.734-2.266-5.185-3.337-7.638C262.071,258.032,262.156,257.947,262.241,257.863z
	 M230.917,292.649c-0.796-2.3-1.497-4.321-2.197-6.342c0.097-0.095,0.194-0.19,0.292-0.286
	c2.171,1.428,4.34,2.856,6.811,4.483C234.047,291.282,232.545,291.938,230.917,292.649z"/>
</svg>
