<svg width="400" height="400" viewBox="0 0 400 400" fill="none" xmlns="http://www.w3.org/2000/svg">
<path style="fill:#0000FF;" d="M192.045,199.228c-0.203,0.553-0.703,0.91-1.273,0.91c-0.163,0-0.327-0.029-0.486-0.086
	c-1.484-0.53-3.019-1.014-4.503-1.483c-1.691-0.534-3.434-1.084-5.138-1.712h0c-0.496-0.183-0.846-0.603-0.935-1.121
	c-0.09-0.52,0.107-1.068,0.5-1.395c0.379-0.313,0.89-0.394,1.364-0.22c1.503,0.556,3.054,1.046,4.554,1.52
	c1.669,0.527,3.395,1.072,5.077,1.712C192.043,197.671,192.291,198.556,192.045,199.228z M210.952,266.853
	c0.726,0,1.294-0.563,1.295-1.283c0.001-0.267,0.024-0.292,0.043-0.31c0.496-0.526,0.471-1.333-0.058-1.835
	c-0.255-0.242-0.562-0.374-0.922-0.362c-0.338,0.01-0.655,0.154-0.891,0.407c-0.68,0.72-0.76,1.542-0.761,2.098
	c0,0.383,0.157,0.729,0.442,0.974C210.335,266.742,210.638,266.853,210.952,266.853z M217.151,286.824
	c0.2,0.108,0.424,0.164,0.648,0.164c0.493,0,0.93-0.265,1.167-0.709c0.054-0.099,0.179-0.275,0.34-0.506l0.101-0.146
	c1.379-1.981,2.492-3.719,2.138-4.944c-0.128-0.448-0.437-0.795-0.866-0.977c-0.538-0.232-1.169-0.052-1.502,0.425
	c-0.224,0.321-0.275,0.709-0.153,1.063c-0.089,0.181-0.303,0.558-0.813,1.278l-0.154,0.22c-0.152,0.234-0.313,0.465-0.49,0.715
	c-0.343,0.491-0.698,1-0.995,1.564C216.216,285.649,216.471,286.463,217.151,286.824z M221.189,284.029
	c0.217-0.361,0.434-0.722,0.646-1.085c0.371-0.636,1.164-0.843,1.807-0.475c0.645,0.369,0.867,1.164,0.503,1.808l-0.571,0.999
	c-1.128,1.977-2.275,4.02-3.116,6.162c0.928-1.877,2.194-3.56,3.489-5.124c0.476-0.577,1.304-0.656,1.884-0.18
	c0.543,0.448,0.77,1.319,0.209,2.003c-1.917,2.333-3.307,4.67-4.246,7.143c-0.196,0.514-0.672,0.846-1.215,0.846
	c-0.129,0-0.257-0.019-0.381-0.058c-0.648-0.196-1.022-0.847-0.871-1.518c0.168-0.741,0.405-1.448,0.686-2.133
	c-0.242,0.32-0.618,0.513-1.035,0.513c-0.132,0-0.264-0.019-0.39-0.059c-0.665-0.201-1.042-0.869-0.874-1.552
	c0.643-2.59,2-4.841,3.313-7.018L221.189,284.029z M223.143,285.027L223.143,285.027L223.143,285.027L223.143,285.027z
	 M224.52,292.171c-1.198,1.72-2.554,3.669-3.802,5.618c-0.369,0.575-0.212,1.32,0.354,1.698c0.214,0.142,0.46,0.218,0.713,0.218
	c0.413,0,0.803-0.204,1.042-0.547c1.28-1.848,2.507-3.767,3.733-5.685l1.027-1.602c0.348-0.539,0.203-1.24-0.332-1.598
	c-0.549-0.364-1.267-0.227-1.634,0.308L224.52,292.171z M226.551,294.276c-0.352,0.111-0.643,0.359-0.817,0.698l-0.001,0.002
	c-0.299,0.583-0.626,1.152-0.964,1.738c-0.985,1.711-2.005,3.48-2.286,5.626c-0.087,0.668,0.355,1.273,1.029,1.407
	c0.092,0.018,0.184,0.025,0.27,0.025c0.565,0,1.034-0.341,1.223-0.848c-0.08,0.24-0.162,0.472-0.24,0.732
	c-0.232,0.773,0.166,1.549,0.93,1.805c0.162,0.054,0.33,0.081,0.498,0.081c0.635,0,1.189-0.389,1.41-0.988l0.048-0.127
	c0.419-1.136,0.815-2.209,1.426-3.173c0.438-0.689,0.241-1.576-0.448-2.021c-0.712-0.46-1.635-0.272-2.097,0.428
	c-0.499,0.755-0.91,1.588-1.283,2.573c0.457-1.368,1.188-2.67,1.915-3.931c0.376-0.655,0.753-1.309,1.095-1.977
	c0.179-0.347,0.211-0.741,0.09-1.108c-0.121-0.364-0.379-0.663-0.729-0.842C227.283,294.202,226.904,294.164,226.551,294.276z
	 M210.234,98.009c0,0.678-0.515,1.225-1.197,1.273l-0.629,0.041c-0.446,0-0.85-0.226-1.082-0.605
	c-0.263-0.431-0.263-0.987-0.002-1.417c0.258-0.418,0.691-0.651,1.185-0.603l0.528,0.037
	C209.72,96.783,210.234,97.331,210.234,98.009z M208.408,98.826L208.408,98.826L208.408,98.826L208.408,98.826z M311.962,310.929
	c-0.981,2.199-3.843,3.262-5.933,4.039l-0.464,0.173c-0.823,0.311-1.643,0.632-2.462,0.954c-2.179,0.858-4.433,1.745-6.78,2.426
	c-7.881,2.281-15.321,3.956-22.749,5.116l-1.985,0.317c-3.194,0.516-6.497,1.05-9.777,1.201c-1.926,0.091-3.96,0.135-6.219,0.135
	c-2.24,0-4.385-0.045-6.001-0.084l-1.565-0.039c-3.485-0.089-7.087-0.182-10.622-0.099c-3.388,0.079-6.694,0.064-9.86-0.931
	c-0.069,0.009-0.127,0.014-0.185,0.014c-0.447,0-0.876-0.133-1.241-0.385c-1.904-1.31-3.507-3.168-4.29-4.967
	c-0.24-0.554-0.6-1.092-0.982-1.661c-0.678-1.014-1.442-2.155-1.587-3.542c-0.223-0.052-0.464-0.096-0.716-0.132
	c-1.019-0.152-2.053-0.221-3.292-0.279c-2.434-0.111-4.905-0.123-7.432-0.125c-3.115-0.005-5.698-0.057-8.127-0.163l-0.574-0.026
	c-1.638-0.072-3.677-0.162-5.602-0.192l-0.215-0.003c-0.869-0.013-1.738-0.025-2.606-0.028l-0.318,0.005
	c-0.103,0.003-0.208,0.005-0.32,0.003c-0.585,2.095-1.418,4.304-2.159,6.266l-0.345,0.914c-0.672,1.791-1.351,3.536-2.264,5.189
	c-0.425,0.77-0.899,1.36-1.411,1.756c-0.69,1.146-1.642,1.808-2.828,1.967c-0.705,0.096-1.299-0.059-1.776-0.182
	c-0.614-0.16-1.205-0.16-1.831-0.161l-0.598-0.006c-1.335-0.02-2.714-0.04-4.015,0.109c-0.818,0.091-1.633,0.195-2.448,0.298
	l-0.322,0.041c-1,0.127-2.001,0.255-3.003,0.367c-2.179,0.244-4.325,0.337-6.319,0.401c-0.834,0.027-1.714,0.111-2.491,0.185
	c-0.996,0.093-1.998,0.189-3.007,0.201c-0.002,0-0.005,0-0.008,0c-1.148,0-2.159-0.217-3.136-0.427
	c-0.879-0.19-1.709-0.368-2.536-0.387c-1.031-0.024-2.08-0.124-3.007-0.21c-1.028-0.096-2.092-0.196-3.13-0.207
	c-3.76-0.042-7.503-0.583-11.123-1.105l-1.298-0.186c-1.407-0.199-2.819-0.363-4.229-0.524c-2.617-0.302-5.308-0.611-7.946-1.163
	c-3.903-0.817-8.004-1.935-12.191-3.321c-0.993-0.329-2.006-0.624-3.02-0.918c-2.617-0.761-5.321-1.547-7.77-2.944l-0.439-0.25
	c-1.045-0.592-2.028-1.15-3.032-1.873c-0.106-0.076-0.225-0.168-0.355-0.268c-0.218-0.17-0.491-0.383-0.767-0.57
	c-0.975,0.463-2.168,0.149-2.838-0.663c-0.223-0.27-0.372-0.577-0.443-0.911c-0.015-0.029-0.026-0.054-0.036-0.08
	c-0.297-0.759-0.138-1.558,0.403-2.091c0.185-1.22,0.677-2.416,1.113-3.476c0.121-0.294,0.217-0.528,0.305-0.752
	c0.668-1.711,1.399-3.549,2.212-5.388c1.188-2.689,2.211-5.49,3.2-8.198c0.423-1.156,0.826-2.259,1.242-3.361l0.605-1.588
	c1.225-3.205,2.489-6.514,3.17-9.892c0.113-0.561,0.217-1.124,0.321-1.689c0.268-1.462,0.538-2.935,0.966-4.366
	c0.546-1.824,0.97-3.739,1.261-5.689c0.341-2.291,0.553-4.649,0.758-6.93c0.168-1.863,0.34-3.781,0.582-5.675
	c0.477-3.732,0.873-7.822,1.209-12.504c0.609-8.482,0.7-16.844,0.701-23.96c-1.702-0.2-3.601-1.643-4.174-2.107
	c-2.089-1.693-4.199-3.583-5.478-5.932c-2.094-3.851-1.989-7.774-1.88-11.926l0.009-0.352c0.028-1.06,0.061-2.123,0.096-3.185
	c0.112-3.529,0.229-7.178,0.1-10.754c-0.018-0.506,0.148-0.97,0.465-1.326c-0.003-0.008-0.006-0.017-0.009-0.026
	c-0.269-0.778,0.009-1.831,1.056-2.248c0.19-0.076,0.371-0.169,0.552-0.262l0.062-0.031c0.012-0.024,0.021-0.043,0.029-0.062
	c0.289-0.639,0.918-0.983,1.594-0.879c0.026,0.004,0.051,0.009,0.074,0.015l0.369-0.218c0.578-0.352,1.157-0.703,1.755-1.018
	c1.2-0.63,2.546-1.284,4.119-1.998c2.009-0.912,4.006-1.946,5.937-2.945c0.776-0.402,1.554-0.805,2.334-1.201
	c2.054-1.042,4.185-1.935,6.247-2.799c1.699-0.712,3.45-1.446,5.132-2.254c2.006-0.964,4.011-1.983,5.95-2.969
	c1.806-0.918,3.579-1.819,5.37-2.688c7.621-3.701,14.882-8.245,21.904-12.64c3.059-1.915,6.073-4.02,8.988-6.056
	c3.755-2.621,7.628-5.326,11.656-7.674c0.698-0.406,1.41-0.789,2.121-1.172c1.079-0.58,2.178-1.17,3.188-1.828
	c0.952-0.62,1.904-1.293,2.824-1.945l0.391,0.334l-0.287-0.407c0.556-0.394,1.112-0.788,1.675-1.175
	c0.815-0.56,1.593-1.247,2.345-1.911c0.8-0.707,1.618-1.431,2.53-2.06c0.331-0.229,0.722-0.453,1.128-0.684
	c0.821-0.468,1.666-0.949,2.007-1.514c0.06-0.1,0.129-0.197,0.209-0.292c0.006-0.04,0.014-0.081,0.027-0.126
	c0.344-1.126,0.328-2.351,0.278-3.614c-0.047-1.186,0.015-2.353,0.075-3.483l0.05-0.991c0.15-3.291,0.295-6.588,0.439-9.883
	l0.007-0.154c0.058-1.323,0.094-2.645,0.128-3.967c0.056-2.056,0.112-4.115,0.247-6.151l0.038-0.573
	c0.182-2.707,0.338-5.168,0.389-7.652c-0.856-0.069-1.819-0.542-2.633-1.329c-1.568-1.515-2.265-3.373-2.015-5.374
	c0.57-4.586,4.84-8.678,9.326-8.933c4.046-0.227,8.629,1.968,9.322,6.054c0.664,3.916-0.77,7.644-4.041,10.526
	c0.036,0.266,0.062,0.519,0.079,0.763c0.932-0.304,1.897-0.774,2.988-1.452c1.276-0.794,2.716-1.519,4.668-2.348
	c2.664-1.136,5.446-1.812,9.022-2.192l0.432-0.047c2.486-0.273,6.244-0.683,8.41,1.263c1.127,1.012,1.9,2.514,2.305,4.469
	l0.251-0.091c5.801-2.131,15.494-5.69,20.214-2.419c1.331,0.922,2.157,2.307,2.461,4.123c1.029-0.208,2.053-0.535,3.129-0.878
	c1.021-0.326,2.042-0.652,3.092-0.881c1.615-0.352,3.302-0.433,4.932-0.512c0.996-0.048,2.025-0.098,2.995-0.211
	c2.049-0.239,4.046-0.188,5.974-0.14c0.717,0.018,1.438,0.037,2.168,0.041l0.184,0.001c2.191,0.011,4.457,0.022,6.506,1.228
	c0.284,0.169,0.506,0.388,0.663,0.653c0.293,0.192,0.503,0.476,0.599,0.816c0.215,0.757-0.189,1.532-0.938,1.801
	c-2.719,0.977-5.323,2.249-8.202,3.688c-0.867,0.434-1.562,0.818-2.191,1.213c0.957,0.477,1.771,1.222,2.559,1.943
	c0.303,0.277,0.59,0.54,0.873,0.776l0.543,0.448c1.925,1.587,3.743,3.085,4.912,5.49c0.131,0.268,0.157,0.572,0.074,0.866
	c0.046,0.513-0.118,1.053-0.448,1.466c-0.653,0.817-1.707,1.004-2.565,0.452c-0.443-0.286-1.477-0.158-2.232-0.063
	c-0.312,0.038-0.567,0.069-0.797,0.086c-1.713,0.125-3.497,0.218-5.305,0.277c-3.221,0.105-6.83,0.761-11.36,2.064
	c-0.737,0.212-1.504,0.469-2.289,0.733c-2.245,0.752-4.782,1.6-7.253,1.6c-0.635,0-1.247-0.057-1.82-0.169
	c-1.425-0.278-2.999-1.115-4.009-2.133c-0.316-0.277-0.572-0.573-0.759-0.882c-0.076-0.126-0.143-0.255-0.202-0.393
	c-0.584,0.214-1.163,0.517-1.895,0.985c-0.78,0.499-1.574,0.975-2.367,1.45c-0.857,0.514-1.712,1.027-2.551,1.57
	c-0.281,0.183-0.567,0.372-0.858,0.565l-0.108,0.072c-2.717,1.801-5.84,3.859-9.369,3.545c-1.48-0.133-6.345-0.88-6.826-4.928
	c-0.014-0.113-0.105-0.925-0.018-1.856c-0.68,0.268-1.427,0.586-2.275,0.971l-1.169,0.537c-1.292,0.597-2.757,1.275-4.227,1.804
	c-1.997,0.719-4.271,1.544-6.394,1.417c-0.582-0.033-1.3-0.103-2.025-0.331c-0.005,0.37-0.011,0.737-0.018,1.101
	c-0.025,1.341-0.053,2.859-0.023,4.314c0.011,0.503,0.051,1.097,0.091,1.699c0.07,1.049,0.122,1.911,0.092,2.58
	c0.618,0.413,1.203,0.888,1.713,1.31l0.247,0.205c0.263,0.216,0.522,0.435,0.781,0.654l0.104,0.088
	c1.201,1.012,2.337,1.968,3.665,2.708c0.578,0.322,1.161,0.637,1.744,0.953c2.627,1.42,5.261,2.845,7.536,4.791l0.598,0.513
	c2.941,2.521,5.982,5.127,9.278,7.232c3.45,2.204,6.832,4.168,10.338,6.003c2.378,1.243,4.825,2.454,7.192,3.625
	c4.982,2.464,10.074,4.982,14.867,7.953c1.646,1.02,3.439,1.867,5.173,2.686l0.302,0.143c1.774,0.84,3.431,1.884,5.034,2.893
	c0.767,0.483,1.448,0.955,2.128,1.428c0.984,0.683,1.986,1.377,3.021,1.949c0.802,0.443,1.664,0.756,2.577,1.089
	c0.767,0.279,1.559,0.567,2.337,0.946c0.803,0.39,1.589,0.823,2.348,1.243c1.067,0.59,2.125,1.175,3.195,1.636
	c1.065,0.459,2.074,0.996,3.049,1.516l-0.145,0.486l0,0l0.233-0.439c0.603,0.322,1.205,0.642,1.822,0.944
	c2.759,1.348,5.982,3.016,8.97,5.164c0.727,0.522,1.103,1.321,1.041,2.201c0.16,0.793,0.153,1.61,0.134,2.315
	c-0.008,0.309-0.013,0.528-0.012,0.743c0.007,1.232,0.012,2.467-0.013,3.7c-0.046,2.192-0.161,5.08-0.666,7.981
	c-1.03,5.935-3.577,10.549-7.362,13.343c-0.748,0.554-1.591,1.04-2.507,1.448l0.01,0.821c0.056,4.678,0.078,9.356,0.099,14.036
	c0.017,3.649,0.033,7.297,0.066,10.946c0.076,8.246,0.275,17.014,1.776,25.589c0.58,3.311,1.341,6.661,2.075,9.901l0.449,1.989
	c0.736,3.276,1.653,7.354,3.257,10.893c1.485,3.273,2.797,6.832,4.129,11.202c0.255,0.841,0.488,1.689,0.72,2.536
	c0.258,0.942,0.516,1.883,0.808,2.814c0.261,0.835,0.619,1.691,0.934,2.447c0.181,0.438,0.363,0.876,0.535,1.317
	c0.12,0.176,0.214,0.38,0.287,0.62c0.032,0.034,0.058,0.064,0.082,0.096C312.27,309.011,312.373,310.007,311.962,310.929z
	 M252.137,104.582C252.137,104.582,252.137,104.582,252.137,104.582L252.137,104.582L252.137,104.582z M260.932,319.48l-0.1-0.057
	l0.002,0.041L260.932,319.48C260.932,319.48,260.932,319.48,260.932,319.48z M242.702,154.403c0.026-0.003,0.053-0.006,0.079-0.007
	c-0.035-0.019-0.07-0.039-0.105-0.059c-0.021-0.002-0.044-0.005-0.065-0.009C242.64,154.352,242.671,154.378,242.702,154.403z
	 M305.641,308.79c0.089-0.046,0.18-0.09,0.269-0.136c-0.036-0.082-0.071-0.163-0.105-0.244
	C305.752,308.536,305.696,308.663,305.641,308.79z M303.535,303.39c-0.325,0.643-0.654,1.285-0.982,1.927
	c-1.118,2.182-2.131,4.189-3.034,6.248c0.736-0.298,1.401-0.577,2.035-0.854c0.733-1.141,1.385-2.419,1.992-3.9
	c0.219-0.533,0.67-0.804,1.136-0.849C304.282,305.146,303.901,304.292,303.535,303.39z M302.576,300.838
	c-0.122-0.355-0.245-0.726-0.372-1.118c-0.705,1.624-1.45,3.233-2.21,4.867c-0.139,0.299-0.278,0.598-0.418,0.9
	c0.206-0.386,0.412-0.765,0.613-1.137c0.515-0.952,1.027-1.902,1.514-2.856C301.886,301.132,302.213,300.902,302.576,300.838z
	 M294.729,309.097c-0.01,0.018-0.018,0.035-0.029,0.053l0.017,0.068c0.053-0.137,0.106-0.274,0.16-0.411
	C294.829,308.903,294.779,309.001,294.729,309.097z M267.541,318.736c1.523-0.125,3.065-0.278,4.6-0.454
	c-0.041-0.127-0.082-0.252-0.124-0.376c-0.112-0.325-0.22-0.644-0.325-0.959c-0.312,0.445-0.726,0.802-1.221,1.049
	c-0.598,0.287-1.326,0.046-1.629-0.522c-0.312-0.578-0.109-1.29,0.462-1.62c0.376-0.216,0.561-0.532,0.569-0.968
	c0.008-0.449,0.246-0.846,0.635-1.061c0.057-0.031,0.117-0.057,0.179-0.078c-0.38-1.3-0.706-2.541-0.984-3.746
	c-0.413,0.867-1.013,1.668-1.596,2.417c0.184-0.086,0.384-0.129,0.589-0.129c0.251,0,0.507,0.067,0.742,0.207
	c0.678,0.408,0.896,1.253,0.498,1.927h-0.001C269.232,315.608,268.352,317.126,267.541,318.736z M264.544,318.016
	c-0.181,0.319-0.366,0.642-0.553,0.966c0.099-0.007,0.197-0.013,0.297-0.018c0.436-1.099,0.962-2.142,1.523-3.15
	C265.376,316.55,264.956,317.289,264.544,318.016z M213.537,279.485c0.156,0.476,0.309,0.954,0.469,1.424
	c0.648,1.905,1.127,3.838,1.589,5.707c0.192,0.775,0.388,1.561,0.595,2.348l0.154,0.159l0.455,1.97
	c0.032,0.113,0.063,0.226,0.098,0.337c0.34,1.072,0.685,2.141,1.031,3.211l0.153,0.474c0.712,2.2,1.423,4.398,2.096,6.609
	c0.388,1.28,0.936,2.6,1.418,3.766l0.51,1.246c0.292,0.724,0.554,1.46,0.815,2.197c0.344,0.975,0.638,1.796,0.972,2.593
	c0.434,1.035,1,2.04,1.547,3.012c0.3,0.53,0.617,1.1,0.925,1.701c0.245-0.916,0.537-1.802,0.872-2.643
	c0.555-1.392,1.068-2.507,1.614-3.51c0.278-0.51,0.609-0.989,0.93-1.451c0.371-0.537,0.72-1.043,0.958-1.548
	c1.849-3.936,4.557-7.501,7.86-10.356c-1.863-0.866-3.424-2.406-4.483-3.548c-0.916-0.987-1.79-2.059-2.56-3.006
	c-0.792-0.97-1.59-1.947-2.42-2.848c-2.181-2.366-4.102-4.885-5.854-7.253c-0.48-0.649-0.977-1.293-1.477-1.939l-0.08-0.104
	c-1.34-1.734-2.725-3.526-3.84-5.468c-0.505-0.879-0.973-1.778-1.441-2.675c0.034,0.486-0.152,0.998-0.638,1.347
	c-0.732,0.527-1.043,1.406-1.402,2.422l-0.002,0.004c-0.222,0.624-0.788,1.027-1.443,1.027c-0.176,0-0.35-0.029-0.518-0.087
	c-0.231-0.077-0.425-0.205-0.583-0.361c0.115,0.366,0.235,0.73,0.35,1.096l0.046,0.146c0.25,0.796,0.505,1.606,0.763,2.416
	c0.025-0.055,0.031-0.114,0.065-0.166c0.74-1.166,1.512-2.308,2.285-3.453l0.128-0.189c0.405-0.596,1.192-0.746,1.797-0.344
	c0.583,0.388,0.739,1.151,0.356,1.737l-0.134,0.206c-0.349,0.53-0.709,1.051-1.061,1.578l1.071-0.263
	c0.509-0.527,0.974-0.699,1.46-0.543c0.266,0.085,0.561,0.312,0.688,0.699l0.205,0.013l-0.171,0.114
	c0.023,0.107,0.034,0.225,0.029,0.353c-0.011,0.235-0.086,0.452-0.217,0.635c-0.021,0.05-0.045,0.095-0.067,0.139
	c-0.072,0.141-0.138,0.272-0.2,0.408l-0.002,0.003c-0.219,0.466-0.438,0.93-0.665,1.39c-0.368,0.748-0.801,1.616-1.287,2.455
	c-0.239,0.41-0.653,0.654-1.108,0.654c-0.201,0-0.397-0.047-0.58-0.139c-0.64-0.321-0.911-1.061-0.627-1.722
	c0.454-1.068,0.927-2.022,1.435-2.892l-0.795-0.067c-0.138,0.201-0.268,0.408-0.408,0.608c-0.239,0.343-0.632,0.549-1.05,0.549
	C213.945,279.66,213.732,279.593,213.537,279.485z M200.84,253.591c-0.244,0.301-0.601,0.49-0.984,0.526
	c-0.003,0.327-0.007,0.653-0.01,0.98c0.119-0.189,0.232-0.376,0.333-0.571c0.14-0.269,0.362-0.472,0.631-0.583L200.84,253.591z
	 M201.25,247.344c-0.301,0.32-0.589,0.608-0.874,0.876c-0.128,0.12-0.273,0.213-0.432,0.281c-0.012,0.504-0.023,1.008-0.034,1.513
	c0.365-0.542,0.674-1.088,0.845-1.681c0.083-0.29,0.249-0.537,0.48-0.718L201.25,247.344z M199.82,263.447
	c0.216-1.661,0.412-3.335,0.586-5.019c-0.063,0.014-0.127,0.021-0.193,0.024c-0.125,0.012-0.265-0.015-0.387-0.047
	C199.821,260.094,199.819,261.777,199.82,263.447z M196.713,246.218c0.085-2.318,0.114-4.775,0.092-7.946
	c-0.269-0.446-0.307-0.982-0.098-1.467l0.089-0.194c-0.044-3.439-0.145-6.846-0.254-10.323c-0.101-3.238-0.205-6.57-0.254-9.909
	c-1.232,2.253-2.747,3.998-4.481,5.141c-2.679,1.766-5.866,2.093-9.454,0.911c-1.897-0.233-3.867-0.831-5.635-1.701
	c-0.016,0.045-0.035,0.089-0.055,0.132c0.208,1.41,0.373,2.683,0.504,3.888c0.083,0.764,0.142,1.529,0.2,2.295
	c0.308,0.323,0.409,0.788,0.246,1.226c-0.039,0.105-0.085,0.206-0.131,0.306l-0.002,0.005c0.196,3.263,0.231,6.609,0.258,9.306
	l0.003,0.161c0.272,0.094,0.516,0.266,0.702,0.501c0.534,0.675,0.456,1.575-0.181,2.093c-0.123,0.1-0.24,0.207-0.357,0.314
	c-0.032,0.029-0.063,0.057-0.095,0.087c0.028,1.061,0.057,2.115,0.095,3.169c0.073,0.052,0.14,0.111,0.197,0.178
	c0.275,0.315,0.346,0.752,0.181,1.137c-0.09,0.214-0.195,0.42-0.306,0.625l0.17,4.415c0.317,8.703,0.394,17.475,0.23,26.075
	c-0.159,8.273-0.378,17.122-0.9,25.782c-0.229,3.786-0.526,7.846-1.147,11.88c-0.148,0.96-0.329,1.923-0.512,2.891
	c-0.295,1.569-0.572,3.106-0.718,4.615c0.65-0.084,1.276-0.175,1.875-0.274c1.043-0.176,1.91-0.33,2.767-0.58l0.141-0.042
	c0.202-0.057,0.374-0.103,0.528-0.176c0.011-0.006,0.021-0.011,0.031-0.016c0.207-0.247,0.468-0.442,0.778-0.579
	c0.053-0.023,0.106-0.042,0.16-0.057c0.037-0.043,0.077-0.085,0.12-0.125c1.186-1.12,1.754-2.615,2.357-4.198
	c0.373-0.98,0.752-1.976,1.286-2.926c0.236-0.418,0.453-0.854,0.669-1.287l0.215-0.476c0.207-0.455,0.419-0.916,0.667-1.36
	l0.561-1.207c0.344-0.732,0.718-1.445,1.093-2.157c0.408-0.773,0.829-1.574,1.193-2.378c1.334-2.952,2.501-6.252,3.567-10.091
	l0.735-2.633c0.702-2.511,1.405-5.023,2.072-7.542c0.135-0.511,0.26-1.03,0.385-1.551l0.184-0.761
	C196.253,267.933,196.324,256.753,196.713,246.218z M168.959,322.368c0.765-0.054,1.484-0.107,2.143-0.157l0.461-0.038
	c0.042-0.704,0.118-1.44,0.23-2.242c-0.135,0.123-0.269,0.243-0.403,0.363c-0.668,0.597-1.283,1.148-1.875,1.724
	C169.352,322.176,169.163,322.294,168.959,322.368z M172.692,314.77c0.088-0.54,0.17-1.082,0.248-1.625
	c-0.623,0.631-1.244,1.264-1.865,1.896h0c-2.359,2.399-5,5.084-7.7,7.697c1.685-0.101,3.301-0.209,4.772-0.313
	c-0.295-0.061-0.57-0.212-0.795-0.438c-0.602-0.61-0.604-1.557-0.004-2.156c0.82-0.823,1.702-1.572,2.556-2.297
	c0.382-0.323,0.763-0.647,1.138-0.977c0.048-0.204,0.138-0.395,0.264-0.559c0.27-0.348,0.667-0.544,1.12-0.555l0.149-0.004
	C172.615,315.217,172.656,314.993,172.692,314.77z M124.525,317.537c0.311-1.214,0.615-2.448,0.911-3.689
	c-1.881,2.001-3.826,4.23-6.005,6.88c0.628,0.131,1.237,0.25,1.834,0.359c-0.037-0.26-0.005-0.54,0.122-0.822l0.051-0.111
	c0.356-0.787,0.723-1.598,1.389-2.295C123.284,317.383,123.962,317.274,124.525,317.537z M112.137,317.636
	c3.013-4.345,6.898-8.032,10.655-11.598c1.949-1.85,3.696-3.522,5.387-5.287c0.164-0.897,0.326-1.808,0.485-2.727
	c-2.309,2.479-4.698,4.995-7.25,7.343c-3.706,3.407-7.618,7.147-11.127,11.417c-0.524,0.639-1.542,0.721-2.226,0.178
	c-0.633-0.502-0.812-1.305-0.468-1.956c-0.209,0.211-0.421,0.419-0.637,0.625c-0.189,0.18-0.419,0.306-0.669,0.372
	c-0.082,0.307-0.157,0.618-0.219,0.93c-0.006,0.03-0.013,0.06-0.021,0.09c0.056,0.018,0.113,0.035,0.169,0.054
	c1.881,0.601,3.727,1.186,5.605,1.727c0.025,0.008,0.051,0.015,0.076,0.022C111.811,318.424,111.885,317.998,112.137,317.636z
	 M100.154,201.958c-0.496,3.761,1.196,7.306,4.525,9.479c3.465,2.266,7.718,2.4,11.102,0.352c1.203-0.729,2.184-1.702,2.995-2.974
	c0.073-0.244,0.142-0.505,0.216-0.8l0.09-0.349c0.13-0.497,0.424-0.912,0.836-1.185c0.355-0.969,0.634-2.068,0.832-3.27
	c-0.002-1.073,0.074-2.248,0.22-3.416c0.021-0.172,0.07-0.334,0.145-0.485c0.026-0.658,0.044-1.314,0.059-1.962
	c0.02-0.874,0.04-1.747,0.083-2.617l0.052-1.031c0.058-1.162,0.117-2.322,0.158-3.483c0.011-0.329,0.014-0.663,0.016-0.997
	c0.002-0.287,0.006-0.552,0.012-0.811c-0.12-0.098-0.227-0.205-0.32-0.32c-2.367-0.254-4.315-0.482-6.116-0.717l-0.953-0.123
	l0.153-1.966l1,0.044l1.41,0.139c1.379,0.131,2.768,0.234,4.156,0.337l0.332,0.025c2.195-2.915,5.289-5.054,8.02-6.833
	c3.277-2.133,6.462-4.363,9.414-6.456c3.65-2.585,7.268-5.321,10.767-7.967c3.058-2.312,6.212-4.697,9.374-6.974
	c3.386-2.438,6.976-5.046,10.36-7.767c1.559-1.254,3.095-2.538,4.631-3.821c1.675-1.399,3.365-2.812,5.063-4.168
	c1.066-0.851,2.155-1.688,3.248-2.511c-1.021,0.703-2.033,1.405-3.033,2.127c-5.844,4.213-11.885,8.569-18.355,12.21
	c-6.665,3.751-13.434,7.396-20.36,11.111c-6.6,3.541-13.659,7.269-20.996,10.518c-3.044,1.349-6.663,2.943-10.428,4.543
	l-0.913,0.387c-2.001,0.846-3.839,1.638-5.598,2.534c0.402,0.082,0.776,0.19,1.143,0.296c0.298,0.087,0.595,0.173,0.909,0.244
	c0.548,0.123,1.096,0.226,1.642,0.329c1.396,0.263,2.807,0.529,4.197,1.088c0.533,0.216,0.805,0.809,0.622,1.352
	c-0.179,0.526-0.751,0.837-1.299,0.687c-1.132-0.318-2.333-0.321-3.605-0.324c-0.811-0.002-1.638-0.004-2.465-0.088l-0.242-0.025
	c-0.773-0.078-1.489-0.151-2.249-0.167c-0.266-0.006-0.516-0.038-0.758-0.086c0.088,2.318,0.021,4.663-0.062,7.056l-0.07,2.129
	c-0.05,1.684-0.1,3.362-0.13,5.04c-0.005,0.255,0.003,0.522,0.011,0.791C100.138,201.358,100.194,201.656,100.154,201.958z
	 M110.387,185.913L110.387,185.913L110.387,185.913C110.387,185.913,110.387,185.913,110.387,185.913z M225.698,86.17
	c-0.416-0.003-0.832-0.004-1.246,0.021c-3.01,0.186-6.085,1.076-8.436,2.442l-0.226,0.131c-2.553,1.484-6.683,3.853-10.036,2.978
	c0.065,4.204,0.098,8.671,0.101,14.072c0.049-0.17,0.125-0.331,0.227-0.471c0.169-0.231,0.399-0.369,0.643-0.458
	c-0.394-0.252-0.614-0.715-0.526-1.213v0c0.097-0.545,0.566-0.919,1.09-0.946c-0.228-0.063-0.456-0.129-0.663-0.231
	c-0.587-0.287-0.833-0.991-0.56-1.604c0.274-0.613,0.941-0.891,1.553-0.646c0.268,0.108,0.621,0.099,0.991,0.09
	c0.352-0.008,0.712-0.015,1.104,0.047c0.578,0.091,0.988,0.572,0.998,1.171c0.008,0.597-0.399,1.106-0.969,1.213
	c-0.247,0.046-0.601,0.102-0.996,0.123c0.642,0.097,1.277,0.201,1.887,0.307c0.602,0.105,1.029,0.618,1.015,1.219
	c-0.01,0.442-0.253,0.826-0.604,1.055c0.244,0.191,0.429,0.468,0.497,0.81c0.144,0.735-0.276,1.426-0.977,1.607
	c-0.622,0.161-1.206,0.243-1.737,0.243c-0.934,0-1.755-0.253-2.44-0.752c-0.278-0.203-0.449-0.463-0.532-0.739
	c0,0.65,0,1.304-0.001,1.982c0.282,0.036,0.549,0.127,0.786,0.267c0.161-0.065,0.333-0.099,0.505-0.099
	c0.121,0,0.241,0.016,0.36,0.049c1.874,0.521,3.855,0.401,6.059-0.365c0.876-0.304,1.743-0.732,2.583-1.145
	c0.83-0.408,1.645-0.809,2.505-1.132c0.523-0.196,1.044-0.398,1.564-0.602c1.053-0.411,2.141-0.835,3.251-1.203l0.211-0.071
	c1.77-0.592,5.304-1.774,7.781-1.192c0.455-3.523,0.817-7.436,0.348-11.466c-0.114,0.207-0.277,0.376-0.484,0.492
	c0.234,0.211,0.387,0.503,0.392,0.844c0.01,0.616-0.433,1.12-1.054,1.196c-0.081,0.01-0.166,0.023-0.25,0.035
	c0.264,0.215,0.438,0.529,0.445,0.896c0.013,0.555-0.347,1.049-0.877,1.201c-0.409,0.115-0.81,0.174-1.197,0.174
	c-0.398,0-0.778-0.062-1.129-0.186c-0.624-0.218-0.956-0.86-0.774-1.494c0.064-0.225,0.202-0.402,0.366-0.549
	c-0.05-0.067-0.102-0.133-0.14-0.211c-0.217-0.457-0.131-0.968,0.18-1.318c-0.279-0.1-0.522-0.291-0.673-0.56
	c-0.325-0.59-0.126-1.315,0.453-1.652c0.043-0.025,0.086-0.05,0.129-0.073c-0.619-0.143-1.069-0.693-1.069-1.359
	c0-0.155,0.025-0.304,0.07-0.442l-0.189-0.007l-0.073-1.873l0.942-0.111c0.213-0.018,0.416-0.052,0.622-0.086
	c0.417-0.069,0.871-0.14,1.338-0.134c-0.097-0.051-0.192-0.11-0.291-0.154c-0.397-0.176-1.003-0.153-1.587-0.13
	c-0.223,0.008-0.43,0.016-0.627,0.016L225.698,86.17z M231.576,90.132c-0.152-0.892-0.333-1.787-0.583-2.684
	c-0.053-0.014-0.096-0.04-0.148-0.055c0.134,0.3,0.15,0.645-0.01,0.959c0.481,0.357,0.664,0.988,0.452,1.572
	C231.395,89.978,231.49,90.051,231.576,90.132z M234.099,106.345c0.015,0.572-0.238,1.08-0.676,1.39
	c-0.061,0.583-0.294,1.039-0.708,1.39c-0.41,0.347-0.845,0.66-1.28,0.972l-0.444,0.312c-0.328,0.227-0.639,0.442-0.903,0.679
	c0.691-0.022,1.4-0.131,2.026-0.241c1.8-0.317,3.183-0.805,4.485-1.581c1.163-0.693,2.292-1.505,3.384-2.29l0.919-0.657
	c1.468-1.041,3.241-2.223,5.28-3.104l0.58-0.253c1.15-0.507,2.341-1.032,3.637-1.289c0.88-0.174,1.611-0.222,2.261-0.147
	l0.054-0.137c0.269-0.685,0.548-1.392,0.756-2.112c0.656-2.261,1.346-4.894,1.244-7.543l-0.004-0.117
	c-0.048-1.267-0.107-2.847-0.942-3.58c-0.437-0.384-1.104-0.607-1.964-0.682c0.152,0.062,0.297,0.147,0.415,0.279
	c0.351,0.395,0.364,0.95,0.078,1.368c0.131-0.002,0.252-0.016,0.389-0.01c0.739,0.03,1.298,0.61,1.3,1.349
	c0,0.392-0.163,0.732-0.421,0.976c0.43,0.21,0.722,0.641,0.728,1.144c0.005,0.556-0.323,1.008-0.81,1.207
	c0.178,0.104,0.334,0.248,0.446,0.433c0.245,0.404,0.254,0.932,0.023,1.345c-0.227,0.408-0.645,0.655-1.118,0.661
	c-0.297,0.003-0.603,0.043-0.904,0.097c0.419,0.201,0.692,0.6,0.692,1.092c0,0.299-0.105,0.587-0.297,0.81
	c-0.235,0.273-0.565,0.422-0.928,0.422c-1.486-0.002-1.729-0.926-1.764-1.323c-0.03-0.328,0.084-0.661,0.311-0.912
	c0.022-0.024,0.053-0.036,0.076-0.058c-0.277-0.174-0.496-0.439-0.581-0.777c-0.093-0.374-0.008-0.736,0.188-1.025
	c-0.322-0.09-0.598-0.304-0.773-0.611c-0.342-0.606-0.147-1.364,0.446-1.728c0.106-0.065,0.219-0.11,0.327-0.168
	c-0.134-0.091-0.258-0.2-0.354-0.338c-0.383-0.553-0.281-1.279,0.238-1.689c0.106-0.084,0.223-0.144,0.334-0.216
	c-0.165-0.116-0.304-0.271-0.396-0.466c-0.273-0.58-0.035-1.249,0.544-1.523c0.252-0.118,0.501-0.2,0.762-0.251l0.063-0.014
	c0.076-0.05,0.162-0.075,0.246-0.102c-2.931,0.05-5.909,1.085-8.71,2.149c-1.396,0.53-2.783,1.101-4.075,1.639
	c-0.233,0.097-0.472,0.207-0.714,0.319c-0.798,0.369-1.574,0.729-2.413,0.881c-0.025,0.005-0.051,0.009-0.077,0.012
	c0.472,4.066,0.272,8.427-0.593,12.973c-0.058,0.306-0.199,0.582-0.406,0.799C234.09,106.185,234.097,106.263,234.099,106.345z
	 M208.745,131.333l0.174-0.219c-0.812-0.598-1.626-1.19-2.435-1.775c3.634,4.259,7.418,8.441,11.098,12.51
	c4.618,5.103,9.372,10.357,13.838,15.764c2.044,2.474,3.952,5.06,5.797,7.56c0.741,1.003,1.495,2.02,2.259,3.034l0.268,0.072
	c0.225,0.06,0.449,0.121,0.673,0.176c0.735,0.181,1.176,0.873,1.026,1.608c-0.034,0.167-0.097,0.325-0.186,0.468
	c0.782,1.003,1.415,1.791,2.028,2.523c0.926,1.107,1.898,2.202,2.878,3.305c2.686,3.024,5.722,6.442,7.784,10.329
	c0.944-0.05,1.887-0.099,2.827-0.143c2.017-0.095,4.035-0.177,6.053-0.259l0.249-0.01c3.145-0.128,6.471-0.268,9.815-0.455
	c-0.233-0.177-0.465-0.347-0.685-0.509c-0.532-0.389-1.077-0.788-1.584-1.229c-1.288-1.118-2.538-2.311-3.746-3.465
	c-1.414-1.351-2.825-2.698-4.275-3.916c-2.539-2.131-5.01-4.359-7.4-6.515l-0.98-0.882c-1.237-1.116-2.528-2.189-3.777-3.226
	c-1.659-1.378-3.369-2.8-4.969-4.325c-5.24-4.992-10.995-9.636-16.56-14.127l-1.318-1.064c-1.278-1.033-2.516-2.131-3.712-3.195
	c-1.829-1.623-3.682-3.269-5.655-4.67c-3.181-2.263-6.037-4.331-8.762-6.73L208.745,131.333z M259.61,163.583l-2.863-1.538
	c-0.5-0.068-1-0.138-1.492-0.21c-1.407-0.205-2.957-0.431-4.515-0.52c0.66,0.552,1.37,1.131,2.144,1.752
	c0.411,0.009,0.803,0.056,1.109,0.099c0.212,0.03,0.42,0.059,0.624,0.077c0.673,0.057,1.348,0.1,2.023,0.143l2.462,0.163
	C259.271,163.56,259.44,163.571,259.61,163.583z M298.018,182.312c0.078-0.021,0.156-0.043,0.233-0.064
	c-0.078-0.044-0.156-0.088-0.234-0.131C298.022,182.18,298.022,182.245,298.018,182.312z M299.587,290.545l-0.355-1.29
	c-0.013-0.033-0.027-0.066-0.041-0.1c-2.271,4.57-3.763,9.264-5.098,13.701c-0.142,0.47-0.504,0.816-0.949,0.933
	c0.064,0.178,0.128,0.355,0.193,0.529c0.066,0.184,0.132,0.374,0.197,0.57c0.103-0.262,0.206-0.522,0.308-0.781l0.404-1.024
	c0.183-0.468,0.353-0.952,0.523-1.439c0.365-1.042,0.724-2.07,1.21-3.025l0.238-0.469
	C297.466,295.706,298.755,293.178,299.587,290.545z M213.934,273.493L213.934,273.493L213.934,273.493L213.934,273.493z
	 M204.379,82.096c0.137-0.033,0.27-0.073,0.4-0.12c-0.117-0.009-0.231-0.033-0.34-0.072c-0.007,0.025-0.015,0.051-0.021,0.076
	C204.405,82.019,204.393,82.058,204.379,82.096z M293.103,208.092c-0.024,0.184-0.084,0.355-0.169,0.504
	c1.133-0.305,2.198-0.752,3.178-1.335c-1.818-0.313-3.507-0.618-5.196-0.982c-1.01-0.219-2.049-0.517-2.965-0.779
	c-1.302-0.373-2.636-0.755-3.961-0.956c2.535,0.984,5.24,1.688,8.048,2.093C292.728,206.738,293.195,207.377,293.103,208.092z
	 M202.555,85.776c-0.063-0.006-0.127-0.014-0.191-0.021c-0.049,2.093-0.179,4.145-0.289,5.735l-0.009,0.926
	c-0.005,0.559-0.01,1.119-0.02,1.678l-0.019,1.075c-0.026,1.459-0.039,2.92-0.052,4.381c-0.024,2.655-0.048,5.317-0.146,7.937v0
	c-0.047,1.229-0.081,2.459-0.115,3.689c-0.057,2.08-0.117,4.23-0.238,6.348c-0.073,1.267-0.148,2.576-0.13,3.822
	c0.002,0.119-0.002,0.272-0.008,0.448c-0.03,1.003,0.032,1.334,0.065,1.437c0.444,0.393,0.644,0.934,0.551,1.497
	c-0.005,0.033-0.012,0.065-0.019,0.097l0.417,0.302c-0.004-0.021-0.009-0.042-0.016-0.061l-0.037-0.161
	c-0.032-0.279-0.065-0.506-0.107-0.733l-0.101-0.555l0.267-0.234c0.003-3.046-0.002-6.092-0.01-9.139
	C202.326,105.406,202.301,95.405,202.555,85.776z M200.951,205.116c-0.01,0.34-0.025,0.688-0.041,1.038
	c-0.067,1.508-0.136,3.067,0.269,4.401c0.383,1.266,1.096,2.505,2.008,3.49c0.399,0.432,0.842,0.84,1.317,1.212
	c2.003,1.288,4.243,1.739,6.98,2.013c1.568,0.154,2.795,0.181,3.857,0.078c1.015-0.241,1.971-0.64,2.794-1.177l0.008-0.362
	c0.015-0.674,0.555-1.203,1.233-1.203c0.145,0,0.285,0.024,0.416,0.071c0.094-0.118,0.185-0.239,0.272-0.366
	c2.211-3.181,2.723-7.29,2.932-10.891c0.105-1.805,0.139-3.785,0.106-6.231c-0.006-0.428-0.019-0.857-0.032-1.288
	c-0.018-0.577-0.035-1.156-0.036-1.736c-0.396-0.215-0.657-0.638-0.647-1.111c0.007-0.356,0.151-0.667,0.384-0.886
	c-5.205,0.162-10.252,0.251-14.126,0.31c-2.572,0.039-5.191,0.058-7.872,0.037l-0.146-0.001c0.03,0.764,0.039,1.575,0.027,2.417
	C200.951,198.142,201.051,201.587,200.951,205.116z M212.632,140.315l-0.383-0.463c-0.078,0.094-0.166,0.177-0.265,0.245
	C212.201,140.17,212.417,140.243,212.632,140.315z M215.616,262.067c0.215,0.305,0.433,0.614,0.657,0.926
	c0.43-0.76,0.88-1.602,1.411-2.638l0.113-0.223c0.126-0.247,0.322-0.44,0.557-0.561c-0.026-0.276-0.053-0.554-0.076-0.83
	C217.428,259.707,216.563,260.79,215.616,262.067z M217.943,265.513c0.531,0.886,1.026,1.782,1.454,2.563
	c0.039,0.071,0.077,0.141,0.116,0.212c-0.121-0.919-0.258-1.876-0.412-2.918c-0.073-0.488-0.144-0.981-0.215-1.477
	C218.599,264.427,218.286,264.975,217.943,265.513z M248.209,211.738c-0.018,0.155-0.062,0.301-0.126,0.432
	c4.039-5.725,4.251-13.5,3.808-21.129c-0.212-0.077-0.41-0.194-0.587-0.346c-3.373,0.179-6.749,0.376-10.047,0.57
	c-1.193,0.07-2.385,0.139-3.578,0.207c3.964,0.94,7.419,1.712,10.687,2.388c0.665,0.139,1.086,0.77,0.959,1.435
	c-0.126,0.675-0.76,1.146-1.47,1.026c-6.137-1.051-12.256-2.588-18.173-4.074l-1.179-0.296l-1.33,0.061l0.002,0.209
	c1.876,0.356,3.735,0.909,5.388,1.402c1.128,0.336,2.294,0.684,3.428,0.965c1.586,0.392,3.161,0.821,4.737,1.25l0.139,0.038
	c3.099,0.845,6.303,1.718,9.506,2.289c0.724,0.128,1.193,0.797,1.066,1.522c-0.129,0.752-0.785,1.275-1.594,1.151
	c-3.348-0.557-6.631-1.478-9.805-2.368c-1.407-0.394-2.811-0.788-4.224-1.151c-2.026-0.523-4.071-1.098-6.251-1.76
	c-0.752-0.229-1.546-0.464-2.335-0.664c0.019,0.741,0.044,1.484,0.078,2.225c2.278,0.5,4.518,1.057,6.985,1.677
	c4.659,1.172,9.477,2.383,14.319,2.957c0.858,0.099,1.296,0.865,1.224,1.547c-0.072,0.681-0.618,1.175-1.298,1.175l-0.137-0.007
	c-5.224-0.482-10.329-1.859-15.265-3.191c-1.848-0.498-3.742-1.009-5.66-1.476c0.005,0.085,0.012,0.17,0.018,0.255
	c0.051,0.599,0.111,1.215,0.179,1.839c3.681,0.625,7.315,1.627,10.83,2.597c3.364,0.929,6.816,1.882,10.265,2.495
	c0.725,0.129,1.193,0.799,1.066,1.523c-0.13,0.755-0.802,1.279-1.6,1.149c-3.754-0.623-7.435-1.69-10.995-2.721
	c-2.846-0.825-6.031-1.748-9.22-2.383c0.055,0.358,0.115,0.717,0.181,1.076l1.796,0.522c5.525,1.62,11.236,3.295,17.023,4.041
	C247.863,210.306,248.287,211.066,248.209,211.738z M230.95,213.428c0.367,0.59,0.761,1.121,1.177,1.59
	c0.563,0.19,1.229,0.344,1.559,0.42c0.271,0.062,0.503,0.118,0.667,0.163c0.403,0.118,0.803,0.229,1.203,0.34
	c0.841,0.233,1.679,0.466,2.507,0.739c0.423,0.139,0.728,0.465,0.847,0.868c1.471-0.133,2.911-0.537,4.239-1.168
	C238.528,215.78,234.514,214.809,230.95,213.428z M245.412,214.996c0.766-0.588,1.461-1.264,2.062-2.017
	c0.121-0.151,0.239-0.304,0.354-0.459c-0.232,0.225-0.548,0.36-0.9,0.36l-0.154-0.009c-6.085-0.631-11.961-2.478-17.642-4.264
	l-0.259-0.081c0.133,0.466,0.279,0.925,0.436,1.373c4.56,2.035,9.509,2.984,15.032,3.925
	C244.93,213.924,245.355,214.41,245.412,214.996z M239.683,175.254c-0.035-0.044-0.07-0.088-0.105-0.132l-0.176-0.224
	c-1.136-1.435-2.336-2.964-3.448-4.522c-6.605-1.673-12.959-4.724-19.415-7.988c0.682,1.74,1.422,3.517,2.212,5.311
	c0.237-0.02,0.478,0.031,0.695,0.146c2.145,1.135,4.469,1.898,6.716,2.637c1.148,0.377,2.283,0.783,3.419,1.189
	c0.955,0.341,1.874,0.669,2.799,0.982c1.436,0.486,2.861,1.002,4.286,1.52l-0.069,0.504l0,0l0.169-0.468
	C237.73,174.558,238.702,174.91,239.683,175.254z M246.491,183.327c-0.97-1.221-2.002-2.423-3.187-3.788
	c-2.591-0.717-5.054-1.617-7.769-2.632c-1.473-0.551-2.995-1.12-4.512-1.635c-1.204-0.408-2.405-0.864-3.566-1.306
	c-1.055-0.401-2.035-0.774-3.025-1.122c-1.631-0.572-2.91-1.068-4.038-1.571c0.642,1.362,1.246,2.596,1.831,3.743
	c2.162,0.708,4.252,1.614,6.277,2.491c2.014,0.873,4.09,1.772,6.183,2.452C238.803,181.296,242.679,182.401,246.491,183.327z
	 M224.015,178.64c0.409,0.848,0.808,1.699,1.2,2.553c4.329,1.916,9.448,3.972,14.74,4.847c0.715,0.118,1.193,0.706,1.168,1.405
	c2.663-0.167,5.312-0.332,7.966-0.487c-0.167-0.268-0.339-0.532-0.511-0.79c-0.271,0.226-0.641,0.338-1.007,0.294
	c-4.575-0.526-8.986-2.03-13.251-3.485l-0.524-0.179c-2.3-0.783-4.529-1.798-6.684-2.779l-0.007-0.003
	C226.107,179.56,225.064,179.089,224.015,178.64z M234.522,187.854c-2.177-0.609-4.237-1.369-6.085-2.129
	c0.495,0.215,0.981,0.435,1.451,0.65c1.3,0.595,2.478,1.122,3.699,1.535C233.9,187.892,234.211,187.873,234.522,187.854z
	 M226.809,185.035c0.003,0.009,0.006,0.018,0.009,0.026c0.188,0.072,0.376,0.145,0.561,0.22
	C227.186,185.199,226.995,185.117,226.809,185.035z M233.326,166.399c-0.625-0.943-1.337-1.952-2.181-3.093
	c-2.57-0.957-5.431-1.907-8.987-2.985c-0.762-0.23-1.538-0.572-2.29-0.903c-1.651-0.729-3.338-1.47-4.828-1.074l0.053,0.149
	c0.16,0.452,0.319,0.905,0.483,1.353c0.044,0.12,0.089,0.24,0.132,0.361c0.266-0.365,0.678-0.57,1.109-0.57
	c0.205,0,0.414,0.047,0.614,0.144C223.1,162.567,228.315,164.739,233.326,166.399z M227.812,158.935
	c-0.465-0.594-0.934-1.188-1.402-1.781l-0.117-0.148c-1.911-0.395-3.717-1.061-5.704-1.825c-2.484-0.956-4.838-1.862-7.36-2.016
	c0.269,0.786,0.54,1.575,0.815,2.367c0.617-0.197,1.221-0.281,1.81-0.281c1.658,0,3.204,0.654,4.614,1.251
	c0.714,0.302,1.388,0.586,2.051,0.784l0.383,0.114C224.402,157.847,226.091,158.357,227.812,158.935z M223.2,153.133
	c-0.732-0.906-1.466-1.808-2.203-2.708c-3.184-0.688-6.359-2.005-9.167-3.169c-0.249-0.103-0.496-0.205-0.742-0.306
	c0.414,1.183,0.824,2.365,1.225,3.536c0.152-0.06,0.316-0.092,0.484-0.094c3.213,0.051,6.142,1.15,8.974,2.213
	C222.235,152.78,222.715,152.958,223.2,153.133z M252.151,216.769c-1.133,1.225-2.454,2.361-3.937,3.378
	c-1.151,1.571-2.051,2.872-2.829,4.089c-0.443,0.695-0.861,1.407-1.279,2.118c-0.285,0.486-0.576,0.98-0.876,1.471
	c0.004,0.146,0.007,0.292,0.01,0.438c1.733-2.639,3.746-5.086,5.557-7.284C249.952,219.572,251.085,218.18,252.151,216.769z
	 M261.038,222.804c0.002-0.267,0.005-0.533,0.011-0.798c-0.165,0.243-0.33,0.485-0.495,0.729l-0.075,0.11
	c-0.025,0.038-0.052,0.076-0.077,0.114C260.598,222.859,260.815,222.807,261.038,222.804z M249.814,224.733
	c-2.212,2.777-4.499,5.649-6.434,8.658c-0.054,0.084-0.116,0.154-0.178,0.213c-0.018,0.699-0.038,1.397-0.058,2.091
	c-0.013,0.399-0.024,0.798-0.035,1.195c1.667-3.886,4.468-7.243,7.187-10.501l1.321-1.586c1.48-1.776,3.007-3.608,4.377-5.491
	c0.462-0.633,0.926-1.286,1.379-1.951c-0.157-0.164-0.31-0.335-0.458-0.514c-0.208-0.252-0.415-0.52-0.632-0.819
	C254.262,219.152,251.908,222.107,249.814,224.733z M243.035,240.824c0.17-0.28,0.343-0.558,0.519-0.834
	c-0.1-0.022-0.197-0.055-0.29-0.099c-0.079-0.036-0.152-0.079-0.22-0.126C243.04,240.118,243.037,240.471,243.035,240.824z
	 M249.997,231.508c0.066-0.079,0.131-0.158,0.197-0.235c0.65-0.773,1.307-1.542,1.966-2.309c1.308-1.525,2.645-3.084,3.872-4.668
	c0.614-0.788,1.204-1.593,1.795-2.398l0.079-0.108c0.373-0.509,0.745-1.018,1.123-1.522v-0.001c0.244-0.326,0.499-0.645,0.76-0.961
	c-0.126-0.075-0.25-0.151-0.371-0.23c-0.515,0.824-0.97,1.509-1.415,2.13c-1.379,1.917-2.825,3.743-4.309,5.601L253,227.671
	C251.994,228.926,250.97,230.205,249.997,231.508z M243.19,246.849c0.004,0.093,0.009,0.187,0.013,0.279
	c0.715-1.163,1.495-2.296,2.295-3.442l0.694-0.997c1.458-2.112,2.945-4.223,4.418-6.274l1.918-2.667
	c1.179-1.636,2.377-3.3,3.573-4.977c-0.42,0.515-0.842,1.023-1.259,1.526l-0.132,0.161c-0.376,0.452-0.751,0.907-1.122,1.362
	c-1.913,2.343-3.931,4.845-5.746,7.431C246.139,241.683,244.64,244.309,243.19,246.849z M243.445,251.707
	c0.04,0.662,0.082,1.319,0.125,1.973c2.568-4.029,5.35-7.968,8.424-12.281c3.358-4.712,6.37-8.985,9.18-13.501
	c-0.018-0.351-0.033-0.706-0.048-1.064c-1.88,2.749-3.794,5.48-5.747,8.259l-2.959,4.218c-1.383,1.976-2.767,3.953-4.119,5.951
	c-0.292,0.43-0.578,0.863-0.864,1.297l-0.153,0.232c-0.984,1.493-2.001,3.037-3.17,4.465
	C243.932,251.474,243.701,251.629,243.445,251.707z M243.888,258.189c0.055,0.73,0.114,1.472,0.175,2.23
	c1.736-3.846,4.293-7.198,6.774-10.449c0.882-1.156,1.881-2.464,2.804-3.76c1.207-1.699,2.326-3.524,3.409-5.288l0.466,0.192v0
	l-0.425-0.259c1.283-2.095,2.734-4.462,4.406-6.654c-0.023-0.487-0.048-0.969-0.071-1.445c-3.63,5.893-7.657,11.703-11.241,16.874
	c-1.833,2.641-3.664,5.281-5.459,7.939C244.521,257.871,244.224,258.088,243.888,258.189z M244.298,263.263
	c0.077,0.891,0.157,1.805,0.241,2.745c2.466-3.915,5.342-7.642,7.698-10.696c3.361-4.357,6.836-8.862,9.54-13.836
	c-0.021-0.778-0.046-1.556-0.073-2.327c-0.652,1.034-1.278,2.082-1.911,3.147c-1.192,2.007-2.424,4.082-3.82,6.026
	c-0.782,1.089-1.585,2.165-2.388,3.24c-2.603,3.491-5.295,7.102-7.191,11.083c-0.334,0.7-1.204,1.011-1.958,0.684
	C244.389,263.31,244.343,263.287,244.298,263.263z M244.936,270.286c0.101,1.05,0.208,2.104,0.32,3.163
	c1.102-1.969,2.323-3.901,3.662-5.993l0.447-0.698c0.373-0.586,0.742-1.176,1.112-1.771c1.159-1.859,2.356-3.78,3.738-5.565
	c0.984-1.267,2.027-2.52,3.037-3.731c1.546-1.855,3.295-3.953,4.783-6.131c-0.035-0.877-0.068-1.751-0.097-2.627
	c-2.564,4.247-5.521,8.17-8.39,11.977c-2.59,3.438-5.268,6.992-7.585,10.673C245.727,269.959,245.356,270.21,244.936,270.286z
	 M245.692,277.341c0.062,0.533,0.126,1.066,0.191,1.6c1.97-3.741,4.422-7.204,6.803-10.566l0.528-0.746
	c1.439-2.034,2.907-4.05,4.374-6.064c1.858-2.553,3.353-4.637,4.696-6.543c-0.017-0.32-0.033-0.639-0.049-0.959
	c-0.838,1.103-1.713,2.195-2.662,3.37c-0.854,1.056-1.823,2.255-2.717,3.434c-1.953,2.578-3.661,5.427-5.313,8.184
	c-1.552,2.592-3.147,5.253-4.958,7.727C246.368,277.077,246.045,277.278,245.692,277.341z M248.339,281.21
	c5.349-7.512,10.331-14.887,14.229-20.71l-0.049-0.912c-1.072,1.563-2.149,3.112-3.215,4.632l-0.131,0.187
	c-1.141,1.629-2.282,3.257-3.409,4.897c-2.234,3.253-4.292,6.686-6.284,10.007l-0.087,0.143
	C249.043,280.039,248.691,280.625,248.339,281.21z M262.401,213.425c0.324,0.002,0.605,0.06,0.856,0.177
	c0.339,0.159,0.683,0.315,1.029,0.466c0.439,0.089,0.89,0.144,1.341,0.166c0.066-0.008,0.146-0.014,0.233-0.014
	c0.035,0,0.07,0.001,0.106,0.003l0.173,0.027c0.012,0,0.022,0,0.034,0c2.827,0,5.762-1.251,7.617-3.27
	c2.209-2.404,3.475-5.94,3.871-10.811c0.119-1.466,0.149-3.03,0.097-5.072c-0.234-1.258-0.505-2.965-0.526-4.739
	c-0.498-0.05-0.952-0.287-1.294-0.677c-4.014,0.237-8.1,0.367-11.714,0.481c-2.843,0.09-5.755,0.182-8.6,0.315
	c0.226,1.986,0.322,4.006,0.288,6.013c0.3,3.19,0.718,6.634,1.722,9.833C258.795,210.025,260.355,212.35,262.401,213.425z
	 M276.427,181.735c-0.411-0.069-0.823-0.148-1.234-0.228c-0.399-0.077-0.809-0.154-1.224-0.219c0.098,0.085,0.197,0.169,0.295,0.252
	c0.048,0.039,0.096,0.078,0.147,0.116c0.157-0.024,0.307-0.032,0.44-0.032c0.124,0,0.232,0.006,0.312,0.011
	C275.589,181.661,276.01,181.696,276.427,181.735z M279.979,185.341l1.379-0.115c0.2-0.017,0.404-0.034,0.608-0.051
	c-0.527-0.06-1.05-0.124-1.572-0.194c-0.645-0.087-1.288-0.194-1.929-0.303c-0.19-0.032-0.379-0.063-0.569-0.094
	c0.01,0.014,0.02,0.027,0.03,0.041c0.176,0.244,0.372,0.521,0.574,0.825l0.359-0.026
	C279.233,185.399,279.607,185.373,279.979,185.341L279.979,185.341z M217.632,146.341c-0.467-0.563-0.932-1.124-1.398-1.683
	c-1.768-0.36-3.502-1.003-5.039-1.573c-0.496-0.183-1.094-0.402-1.724-0.618c0.133,0.343,0.266,0.686,0.393,1.03
	c0.028-0.002,0.057-0.003,0.087-0.003c0.174,0,0.352,0.035,0.525,0.105l0.38,0.152c1.935,0.775,3.916,1.568,5.881,2.278
	C217.034,146.136,217.332,146.24,217.632,146.341z M209.913,137.02c-0.615-0.75-1.23-1.502-1.844-2.256
	c-0.41,0.351-1.031,0.439-1.538,0.184l-0.001,0c-0.031-0.016-0.062-0.032-0.093-0.048c0.146,0.357,0.291,0.711,0.436,1.064
	c0.104-0.025,0.211-0.038,0.318-0.038c0.248,0,0.498,0.069,0.722,0.209C208.522,136.517,209.198,136.777,209.913,137.02z
	 M205.176,131.177c-0.148-0.185-0.296-0.371-0.444-0.557c0.079,0.208,0.161,0.42,0.246,0.637
	C205.042,131.226,205.108,131.199,205.176,131.177z M205.116,229.463c-1.699,2.289-3.458,4.764-4.893,7.415
	c2.065-2.992,4.152-5.691,6.345-8.206c0.43-0.491,0.851-0.985,1.272-1.479l0.165-0.193c1.038-1.219,2.112-2.48,3.254-3.675
	l0.439-0.458c0.304-0.317,0.61-0.638,0.915-0.961c-0.263-0.017-0.525-0.037-0.789-0.062
	C209.12,224.24,206.922,227.031,205.116,229.463z M262.886,266.623l-0.072-1.399c-4.439,6.984-9.834,15.37-15.719,22.833
	c0.041,0.279,0.084,0.558,0.126,0.839c1.826-3.208,4.002-6.199,6.115-9.102l0.835-1.15c0.521-0.72,1.039-1.443,1.557-2.165
	c1.019-1.422,1.989-2.776,2.986-4.109c0.265-0.355,0.532-0.708,0.8-1.061l0.097-0.127c0.483-0.636,0.966-1.273,1.436-1.918
	c0.12-0.162,0.246-0.331,0.376-0.502c0.403-0.527,0.82-1.073,1.014-1.58C262.528,266.944,262.685,266.752,262.886,266.623z
	 M247.955,293.644l0.055,0.357c0.041,0.273,0.083,0.547,0.127,0.82l0.13,0.772c1.475-2.301,3.067-4.512,4.496-6.495
	c0.737-1.025,1.476-2.05,2.201-3.082c1.322-1.882,2.619-3.783,3.916-5.684l0.809-1.186c1.172-1.716,2.728-4.115,3.548-5.903
	c-0.049-0.794-0.092-1.568-0.132-2.323c-0.567,0.866-1.171,1.751-1.798,2.637c-0.708,1.004-1.396,2.021-2.084,3.038l-0.064,0.094
	c-0.761,1.124-1.478,2.184-2.217,3.229c-2.83,4.002-6.036,8.538-8.583,13.247C248.257,293.358,248.119,293.519,247.955,293.644z
	 M201.018,158.317l-0.244,4.932c-0.211,4.176-0.429,8.494-0.537,12.762c-0.068,2.674-0.072,5.4-0.076,8.037
	c-0.002,1.602-0.011,3.223-0.028,4.844c2.152-0.008,4.296-0.021,6.411-0.037l3.498-0.025c3.852-0.024,8.02-0.142,13.079-0.368
	c-0.262-1.963-1.038-3.764-1.857-5.661l-0.216-0.501c-0.676-1.573-1.41-3.158-2.119-4.691l-0.29-0.626
	c-0.285-0.617-0.571-1.235-0.853-1.855c-2.043-4.49-3.942-9.464-5.807-15.208c-0.65-2.002-1.27-4.016-1.888-6.031
	c-1.007-3.271-2.032-6.602-3.17-9.816c-0.72-2.037-1.512-4.095-2.276-6.086l-0.104-0.269c-0.877-2.281-1.777-4.624-2.596-6.991
	C201.92,139.956,201.462,149.28,201.018,158.317z M130.941,283.816c-0.93,1.156-1.882,2.301-2.849,3.432
	c0.548-0.504,1.101-1.002,1.66-1.493h0c0.276-0.241,0.613-0.368,0.956-0.37C130.786,284.863,130.864,284.339,130.941,283.816z
	 M179.026,146.008c-0.055-0.167-0.118-0.354-0.175-0.417h0c-0.037-0.041-0.072-0.084-0.102-0.128l-1.019,0.856
	c0.23,0.398,0.408,0.819,0.531,1.252c0.314-0.363,0.628-0.726,0.945-1.091C179.132,146.319,179.077,146.161,179.026,146.008z
	 M183.155,142.008c-0.012-0.057-0.02-0.116-0.027-0.175c-0.731,0.587-1.455,1.178-2.169,1.772l-0.514,0.432
	c0.015,0.015,0.03,0.031,0.044,0.047c0.152,0.167,0.266,0.343,0.356,0.518C181.608,143.733,182.377,142.866,183.155,142.008z
	 M183.417,157.609l-0.099-0.053l0.007,0.031L183.417,157.609C183.417,157.609,183.417,157.609,183.417,157.609z M186.213,217.641
	c0.752-0.215,1.497-0.522,2.227-0.918c-5.084-1.715-9.919-3.867-14.402-6.409c0.053,0.169,0.109,0.336,0.167,0.499
	c0.034,0.094,0.071,0.188,0.109,0.281l0.473-0.079l0.244,0.771c0.145-0.052,0.299-0.079,0.453-0.079c0.27,0,0.544,0.082,0.787,0.251
	c2.647,1.844,5.618,3.324,8.492,4.756l0.956,0.477C185.927,217.296,186.095,217.451,186.213,217.641z M175.015,259.29
	c-0.009-0.731-0.018-1.457-0.028-2.185c-2.218,2.417-4.572,4.731-6.984,7.077c-0.822,0.799-1.642,1.599-2.459,2.403
	c-4.644,4.58-8.132,8.619-10.977,12.71c-0.05,0.072-0.106,0.139-0.17,0.205c-0.063,0.709-0.125,1.408-0.188,2.095
	c0.707-0.771,1.413-1.537,2.112-2.294c1.685-1.825,3.405-3.686,5.06-5.544c0.834-0.938,1.655-1.886,2.475-2.836
	c1.277-1.476,2.572-2.973,3.902-4.407l1.064-1.144c1.662-1.778,3.38-3.618,4.918-5.566
	C174.06,259.401,174.54,259.226,175.015,259.29z M127.284,270.85c2.076-2.26,3.935-4.313,5.625-6.497
	c0.035-0.554,0.07-1.11,0.104-1.669c-0.353,0.384-0.721,0.742-1.082,1.093l-0.394,0.385c-1.221,1.2-2.329,2.664-3.401,4.079
	c-0.502,0.664-0.99,1.308-1.488,1.93c-2.683,3.348-5.753,7.267-8.629,11.449c1.136-1.388,2.297-2.774,3.473-4.171l1.506-1.792
	C124.401,273.983,125.933,272.319,127.284,270.85z M133.388,255.937c-0.722,0.865-1.453,1.7-2.11,2.444
	c-1.098,1.241-2.165,2.554-3.197,3.821c-0.651,0.802-1.261,1.552-1.883,2.297c-1.774,2.123-3.682,4.286-5.365,6.196
	c-1.395,1.581-2.816,3.209-4.213,4.849c-0.143,0.973-0.286,1.929-0.432,2.875c2.475-3.533,5.161-6.883,7.729-10.008
	c0.489-0.595,0.969-1.223,1.455-1.856c1.186-1.552,2.364-3.093,3.735-4.363c0.199-0.185,0.403-0.369,0.609-0.554
	c0.657-0.59,1.331-1.198,1.844-1.856c0.155-0.198,0.287-0.459,0.427-0.734c0.085-0.168,0.167-0.329,0.254-0.484
	c0.068-0.5,0.414-0.917,0.899-1.071c0.055-0.031,0.112-0.057,0.171-0.08C133.339,256.92,133.364,256.43,133.388,255.937z
	 M119.125,255.027c-0.003,0.032-0.005,0.064-0.008,0.096c0.03-0.033,0.059-0.066,0.089-0.099
	C119.179,255.026,119.152,255.027,119.125,255.027z M133.132,238.731c-0.845,0.925-1.684,1.823-2.491,2.683
	c-0.573,0.609-1.145,1.218-1.714,1.831c-2.629,2.831-4.976,5.765-7.13,8.914c0.363-0.397,0.723-0.789,1.078-1.175
	c0.947-1.029,1.894-2.059,2.83-3.097c1.087-1.205,2.145-2.435,3.204-3.664l1.003-1.164
	C131.122,241.658,132.279,240.27,133.132,238.731z M133.787,233.546c-0.012-0.546-0.026-1.092-0.041-1.64
	c-2.305,3.276-5.079,6.262-7.559,8.933c-1.721,1.855-3.501,3.773-5.099,5.72c-0.372,0.451-0.963,0.653-1.495,0.525
	c-0.028,0.836-0.064,1.688-0.109,2.567c1.927-3.084,4.418-5.789,6.839-8.319c0.848-0.884,1.706-1.76,2.564-2.634
	C130.507,237.047,132.181,235.341,133.787,233.546z M133.526,226.576c0-0.012-0.001-0.023-0.001-0.035
	c-2.147,2.716-4.523,5.269-6.968,7.855c-2.079,2.197-4.658,4.923-6.887,7.738l-0.001,1.161c1.693-2.037,3.488-3.968,5.233-5.846
	l0.092-0.099c0.516-0.555,1.031-1.108,1.543-1.665c2.546-2.768,4.806-5.562,6.904-8.536c-0.012-0.172,0.009-0.345,0.063-0.51
	L133.526,226.576z M131.921,215.144l-1.104-1.796c-0.965-1.563-1.983-3.213-3.001-4.92c0.859,1.667,1.752,3.424,2.581,5.148
	c0.201,0.419,0.186,0.881-0.004,1.267C130.882,214.987,131.393,215.088,131.921,215.144z M122.863,216.885l-0.246,0.326
	c0.089-0.101,0.177-0.204,0.264-0.306C122.875,216.898,122.869,216.891,122.863,216.885z M133.644,249.873
	c-0.581,0.613-1.155,1.235-1.728,1.858c-0.975,1.058-1.916,2.083-2.894,3.068c-0.734,0.738-1.476,1.472-2.22,2.205
	c-3.094,3.054-6.291,6.209-8.794,9.822c-0.056,0.081-0.122,0.157-0.197,0.228l-0.045,0.343c-0.067,0.514-0.134,1.026-0.208,1.556
	l-0.114,0.811c1.217-1.419,2.42-2.777,3.489-3.982c0.893-1.006,1.768-1.992,2.634-2.986c0.632-0.725,1.254-1.456,1.876-2.188
	l0.085-0.1c1.156-1.363,2.352-2.772,3.607-4.13l0.712-0.769c1.06-1.142,2.253-2.427,3.356-3.721
	c-0.135-0.409-0.037-0.866,0.285-1.198l0.002-0.002c0.044-0.045,0.088-0.087,0.13-0.125
	C133.628,250.334,133.636,250.104,133.644,249.873z M133.769,245.39c0.016-0.732,0.029-1.464,0.04-2.199
	c-1.339,1.917-2.916,3.69-4.451,5.416c-0.468,0.526-0.888,0.998-1.296,1.466c-1.503,1.727-3.076,3.46-4.464,4.991
	c-1.804,1.99-3.43,3.793-5.016,5.636c-0.003,0.031-0.007,0.063-0.01,0.094c1.903-2.225,3.998-4.24,6.034-6.198l1.188-1.144
	c0.868-0.841,1.711-1.732,2.525-2.593c0.859-0.907,1.687-1.781,2.544-2.612c0.281-0.273,0.589-0.554,0.907-0.842
	C132.476,246.765,133.204,246.102,133.769,245.39z M133.542,222.522L133.542,222.522L133.542,222.522
	C133.542,222.522,133.542,222.522,133.542,222.522z M138.732,186.754c-0.034-0.058-0.068-0.117-0.101-0.175
	c-0.552-0.946-1.122-1.924-1.592-2.966l-0.381-0.858c-0.519-1.182-1.01-2.252-1.654-3.2c-0.349,0.248-0.698,0.493-1.049,0.738
	c1.005,1.142,1.795,2.473,2.562,3.766c0.546,0.921,1.061,1.792,1.642,2.577c0.024,0.032,0.046,0.066,0.067,0.1L138.732,186.754z
	 M134.779,214.298c0.129,0.218,0.195,0.455,0.2,0.691c0.526-0.109,1.041-0.261,1.541-0.453c-1.024-3.25-3.124-6.217-5.155-9.088
	c-0.49-0.693-0.976-1.379-1.444-2.065c-1.628-2.387-2.9-4.972-4.132-7.473c-0.274-0.557-0.555-1.118-0.84-1.68
	c-0.041,0.788-0.082,1.576-0.116,2.365l-0.014,0.377c2.074,4.41,4.723,8.729,7.062,12.541
	C132.856,211.102,133.831,212.692,134.779,214.298l-0.428,0.253l0,0L134.779,214.298z M128.756,195.399
	c1.202,2.27,2.445,4.617,3.843,6.82c0.649,1.024,1.372,2.038,2.072,3.019c1.704,2.389,3.461,4.853,4.435,7.784
	c0.357-0.305,0.673-0.631,0.947-0.976c0.382-0.482,0.716-0.996,1.009-1.536c-0.011,0.008-0.023,0.015-0.035,0.021
	c-0.596,0.353-1.395,0.165-1.774-0.41c-1.059-1.609-2.217-3.281-3.239-4.758c-3.471-5.015-7.06-10.201-9.312-15.964
	c-0.1-0.256-0.113-0.522-0.053-0.766c-0.467-0.041-0.935-0.082-1.402-0.126c0,0.226-0.004,0.452-0.013,0.678
	c0.093,0.083,0.171,0.177,0.234,0.282C126.648,191.418,127.72,193.442,128.756,195.399z M141.512,208.783
	c0.078,0.147,0.127,0.301,0.148,0.454c1.091-2.687,1.38-5.82,1.493-8.687c0.036-0.915,0.053-1.864,0.051-2.902
	c-0.143,0.06-0.293,0.102-0.451,0.102c-0.351,0-0.676-0.158-0.893-0.432c-0.77-0.977-1.319-2.067-1.85-3.12
	c-0.695-1.376-1.346-2.666-2.407-3.599c-0.339-0.297-0.45-0.744-0.331-1.146c-0.912-0.061-1.822-0.117-2.735-0.182
	c0.052,0.086,0.101,0.169,0.145,0.249l0.082,0.142c0.565,0.95,1.106,1.926,1.646,2.9l0.519,0.933
	c1.637,2.945,3.329,5.989,5.337,8.739c0.428,0.584,0.307,1.378-0.275,1.809c-0.243,0.178-0.513,0.258-0.847,0.275
	c-0.427,0-0.823-0.2-1.084-0.551c-1.988-2.66-3.55-5.605-5.062-8.454c-0.678-1.277-1.285-2.483-1.892-3.691
	c-0.077-0.154-0.156-0.327-0.24-0.512c-0.207-0.457-0.508-1.124-0.775-1.332l-0.541-0.42l0.087-0.305
	c-0.782-0.061-1.565-0.124-2.347-0.189c1.711,4.089,4.278,7.783,6.763,11.359C137.953,202.957,139.91,205.775,141.512,208.783z
	 M143.166,195.036c-0.009-0.337-0.018-0.683-0.03-1.043c-0.016-0.468-0.043-0.945-0.071-1.425c-0.052-0.883-0.099-1.821-0.073-2.755
	l-1.36-0.08c-0.346,0.141-0.761,0.125-1.096-0.065c-0.235-0.014-0.471-0.032-0.707-0.047c1.023,1.105,1.708,2.408,2.367,3.678
	C142.501,193.887,142.825,194.472,143.166,195.036z M139.366,182.449c0.343,0.682,0.745,1.365,1.134,2.025
	c0.451,0.767,0.913,1.55,1.316,2.383l1.899,0.063c0.108-0.164,0.217-0.327,0.328-0.488c-0.004-0.003-0.009-0.006-0.013-0.009
	c-2.089-1.504-3.092-3.767-4.062-5.956c-0.545-1.228-1.055-2.336-1.69-3.289c-0.418,0.309-0.838,0.618-1.26,0.927
	c0.724,1.021,1.278,2.131,1.825,3.273C139.016,181.734,139.187,182.092,139.366,182.449z M142.283,179.352
	c0.916,1.928,1.781,3.748,3.333,4.999c0.004,0.003,0.007,0.006,0.011,0.009c0.655-0.786,1.314-1.512,1.882-2.121
	c-1.28-1.259-1.857-3.02-2.372-4.59c-0.526-1.601-1.025-3.12-2.131-4.007l-0.214,0.164c-0.351,0.27-0.701,0.541-1.056,0.805
	l-1.468,1.091C141.053,176.814,141.65,178.02,142.283,179.352z M172.663,151.834c-0.079-0.231-0.152-0.465-0.223-0.7
	c-0.03-0.099-0.06-0.197-0.091-0.294l-0.202,0.168C172.336,151.273,172.508,151.549,172.663,151.834z M173.298,153.304l0.029-0.033
	c-0.031-0.048-0.06-0.097-0.089-0.146C173.258,153.185,173.278,153.244,173.298,153.304z M171.387,155.462
	c-0.039-0.069-0.072-0.142-0.099-0.218l-0.141-0.416c-0.286-0.844-0.547-1.567-0.936-2.215l-0.528,0.437
	c0.289,0.546,0.493,1.105,0.663,1.571c0.179,0.49,0.349,0.956,0.573,1.372c0.117-0.131,0.233-0.263,0.349-0.395L171.387,155.462z
	 M169.29,157.803c-0.107-0.084-0.199-0.187-0.273-0.307c-0.409-0.657-0.653-1.339-0.889-1.998c-0.118-0.33-0.23-0.626-0.351-0.9
	c-0.28,0.226-0.56,0.451-0.842,0.676c0.843,0.677,1.472,1.679,1.904,3.033C168.992,158.136,169.142,157.968,169.29,157.803z
	 M166.393,160.037c-0.319-1.221-0.594-2.275-1.454-2.757l-0.001,0c-0.103-0.058-0.196-0.128-0.279-0.208
	c-0.044,0.033-0.087,0.066-0.131,0.099l-0.086,0.066c0.317,0.682,0.581,1.381,0.862,2.146c0.266,0.724,0.518,1.391,0.81,2.012
	c0.167-0.192,0.334-0.382,0.5-0.571C166.536,160.567,166.463,160.306,166.393,160.037z M164.232,163.584
	c-0.703-1.112-1.107-2.336-1.467-3.427c-0.151-0.458-0.294-0.885-0.448-1.294c-0.202,0.156-0.405,0.312-0.61,0.465l-1.297,0.96
	c1.089,1.45,1.93,3.08,2.664,4.677c0.192-0.233,0.385-0.466,0.58-0.698L164.232,163.584z M161.126,167.325
	c-0.264-0.535-0.516-1.071-0.755-1.598c-0.628-1.382-1.224-2.692-2.073-3.875l-1.554,1.153c1.243,1.593,2.075,3.421,2.88,5.191
	c0.092,0.202,0.185,0.406,0.279,0.61C160.314,168.311,160.722,167.816,161.126,167.325z M157.889,171.141
	c-0.573-0.952-1.006-1.966-1.433-3.006c-0.531-1.291-1.032-2.513-1.828-3.553c-0.639,0.482-1.274,0.967-1.907,1.455
	c1.381,1.342,1.997,3.323,2.546,5.091c0.236,0.757,0.463,1.483,0.728,2.116l0.629-0.676c0.394-0.423,0.773-0.862,1.154-1.3
	L157.889,171.141z M154.15,175.222c-0.812-1.134-1.178-2.524-1.531-3.869c-0.404-1.535-0.788-2.992-1.81-3.838
	c-0.759,0.595-1.515,1.194-2.269,1.795c0.999,1.235,1.587,2.668,2.112,3.947c0.55,1.34,1.072,2.612,1.953,3.618
	C153.123,176.321,153.637,175.772,154.15,175.222z M150.789,178.792c-1.372-1.304-2.002-2.945-2.613-4.536
	c-0.473-1.233-0.922-2.404-1.663-3.339c-0.523,0.414-1.049,0.828-1.579,1.242c1.014,0.979,1.656,2.269,2.113,3.324l0.249,0.577
	c0.605,1.407,1.228,2.857,2.05,4.25l0.041-0.043c0.419-0.435,0.837-0.877,1.255-1.321L150.789,178.792z M154.959,272.86l0,0.004
	c0.002-0.003,0.004-0.006,0.007-0.009C154.963,272.857,154.961,272.858,154.959,272.86z M173.989,246.841
	c0.209-0.224,0.414-0.45,0.621-0.677l0.186-0.204c-0.009-0.673-0.016-1.345-0.021-2.02c-1.334,1.398-2.592,2.855-3.777,4.243
	c-1.212,1.418-2.458,2.877-3.759,4.254c-0.81,0.856-1.627,1.706-2.443,2.558l-0.171,0.178c-2.91,3.028-5.919,6.16-8.575,9.485
	c-0.138,0.172-0.312,0.306-0.519,0.401c-0.028,0.426-0.056,0.853-0.086,1.282c2.749-3.723,6.116-7.047,8.884-9.78l2.141-2.105
	c1.502-1.473,3.004-2.947,4.481-4.445C171.979,248.968,172.988,247.909,173.989,246.841z M156.895,222.096
	c-0.125,0.107-0.246,0.214-0.357,0.326h0c-0.325,0.323-0.622,0.643-0.899,0.963c0.012,0.157,0.023,0.313,0.035,0.47
	c0.483-0.577,1.002-1.165,1.564-1.772C157.122,222.088,157.008,222.093,156.895,222.096z M172.857,183.387
	c-0.154,0.461-0.309,0.907-0.466,1.339l3.477,2.333c0.465,0.311,0.691,0.83,0.637,1.347c1.219,0.053,2.408,0.103,3.574,0.148
	C177.89,187.071,175.335,185.289,172.857,183.387z M171.282,187.472c-0.102,0.227-0.204,0.45-0.308,0.669
	c0.48,0.024,0.955,0.049,1.426,0.072L171.282,187.472z M171.504,216.394c-0.128-0.181-0.25-0.362-0.365-0.543l-0.394,0.436
	c-0.475,0.523-0.949,1.047-1.42,1.573c-0.593,0.662-1.214,1.355-1.851,2.063C168.669,218.684,169.991,217.415,171.504,216.394z
	 M156.263,236.311c5.036-6.011,10.959-11.701,17.626-16.932l-0.056-0.473c-0.107-0.089-0.212-0.179-0.314-0.269
	c-1.854,1.298-3.456,3.074-4.88,4.65c-1.061,1.174-2.135,2.364-3.303,3.42c-3.363,3.047-6.476,6.141-9.093,8.784
	C156.25,235.764,156.257,236.036,156.263,236.311z M174.703,228.148c-0.008-0.149-0.016-0.298-0.025-0.447
	c-0.75,0.938-1.586,1.774-2.246,2.435c-1.347,1.347-2.557,2.74-3.839,4.215l-0.952,1.092c-0.88,1.004-1.765,2.004-2.65,3.002
	c-2.45,2.765-4.984,5.625-7.36,8.55c-0.327,0.402-0.832,0.62-1.353,0.555c-0.007,0.388-0.015,0.778-0.023,1.169
	c1.908-2.444,3.979-4.759,6.258-7.272l0.077-0.085c1.044-1.153,2.088-2.306,3.111-3.476l0.869-0.999
	c1.456-1.679,2.829-3.264,4.448-4.784C172.517,230.696,173.693,229.434,174.703,228.148z M172.556,225.396
	c0.581-0.667,1.162-1.335,1.775-1.983c-0.013-0.128-0.026-0.258-0.039-0.386c-6.229,5.246-12.115,11.26-17.967,18.356
	c0.002,0.648,0.001,1.301-0.002,1.956c2.198-2.789,4.574-5.393,6.701-7.724c0.626-0.686,1.252-1.372,1.874-2.061l0.574-0.637
	c1.417-1.573,2.882-3.199,4.471-4.705C170.875,227.329,171.729,226.346,172.556,225.396z M148.404,214.025
	c1.164,1.611,3.101,2.717,5.453,3.115c2.511,0.426,5.157,0.179,7.266-0.675c1.267-0.617,2.41-1.484,3.368-2.565
	c0.241-0.271,0.477-0.573,0.743-0.948c1.937-3.223,2.267-7.274,2.422-10.814c0.058-1.337,0.083-2.674,0.107-4.011l0.002-0.134
	c0.015-0.801,0.03-1.601,0.052-2.402l0.021-0.932c0.02-1.021,0.042-2.156,0.172-3.275c-0.311-0.014-0.612-0.095-0.888-0.237
	l-1.063-0.068c-1.482-0.096-2.963-0.192-4.446-0.271c-2.38-0.128-4.759-0.251-7.139-0.373c-2.388-0.123-4.794-0.249-7.208-0.379
	l0.155,7.939c0.006,0.315,0.016,0.631,0.026,0.947c0.038,1.163,0.074,2.265-0.017,3.37c-0.052,0.621-0.126,1.24-0.2,1.859
	c-0.073,0.606-0.143,1.18-0.193,1.758C146.717,209.658,147.164,212.307,148.404,214.025z M174.907,252.456l-0.042-2.235
	c-0.673,0.779-1.359,1.533-2.016,2.247c-1.453,1.577-2.952,3.108-4.401,4.588c-0.595,0.609-1.191,1.217-1.784,1.828
	c-4.292,4.429-7.834,8.638-10.805,12.838c3.227-3.975,7.008-7.504,10.413-10.684c2.955-2.76,5.983-5.588,8.628-8.576
	C174.902,252.461,174.904,252.459,174.907,252.456z M174.771,238.493c-1.482,1.951-3.21,3.72-4.769,5.314l-0.095,0.097
	c-0.865,0.886-1.759,1.803-2.582,2.714c-0.798,0.884-1.599,1.767-2.4,2.647c-3.022,3.325-6.144,6.761-9.076,10.329l-0.002,0.055
	c2.135-2.51,4.433-4.895,6.791-7.313c0.843-0.863,1.686-1.729,2.523-2.6c1.146-1.196,2.295-2.492,3.31-3.637
	c2.033-2.291,4.046-4.512,6.298-6.485L174.771,238.493z M174.806,233.018c0-0.212-0.001-0.425-0.001-0.638
	c-0.35,0.374-0.714,0.744-1.099,1.134l-0.351,0.356c-1.542,1.57-2.89,3.185-4.317,4.895l-0.698,0.835
	c-2.48,2.958-5.066,5.905-7.567,8.754c-1.249,1.421-2.458,2.8-3.661,4.185c-0.25,0.287-0.602,0.462-0.979,0.489
	c-0.009,0.269-0.018,0.54-0.029,0.811c1.897-2.255,3.91-4.373,5.867-6.43c0.869-0.913,1.737-1.826,2.592-2.746
	c0.97-1.044,2.047-2.1,2.997-3.032c2.527-2.483,5.14-5.05,6.771-8.083C174.449,233.33,174.609,233.151,174.806,233.018z
	 M173.891,207.426c0.213,0,0.429,0.053,0.631,0.164c5.358,2.949,11.129,5.181,16.598,7.209c0.453-0.41,0.847-0.808,1.199-1.212
	c0.036-0.041,0.071-0.082,0.106-0.124c-3.052-1.077-6.054-2.294-9.354-3.648c-1.123-0.462-2.247-0.923-3.374-1.377
	c-1.494-0.602-2.783-1.291-4.148-2.022l-0.376-0.201c-1.029-0.562-1.651-0.882-2.027-1.064c0.068,0.776,0.149,1.573,0.268,2.366
	C173.566,207.457,173.728,207.426,173.891,207.426z M185.046,188.726l1.409,0.042c1.027,0.029,2.091,0.052,3.199,0.071
	c-0.125-0.023-0.247-0.063-0.365-0.12c-2.873-1.397-5.449-3.24-7.941-5.021c-0.601-0.43-1.176-0.841-1.755-1.246l-0.255-0.179
	c-0.722-0.507-1.412-0.991-2.114-1.455c-0.161-0.105-0.345-0.208-0.534-0.314c-0.456-0.255-0.974-0.544-1.37-0.952l-0.255-0.255
	c-0.078-0.076-0.148-0.145-0.212-0.208c-0.356,0.624-0.667,1.203-0.939,1.752c3.696,2.318,7.212,4.871,10.784,7.5
	C184.838,188.445,184.955,188.574,185.046,188.726z M190.125,188.847c1.866,0.03,3.858,0.046,6.009,0.051
	c0.001-0.162,0.002-0.324,0.004-0.486c-0.277,0.042-0.574-0.009-0.833-0.143c-4.326-2.234-8.228-5.277-11.474-7.959l-0.997-0.82
	c-1.488-1.222-3.027-2.486-4.474-3.824l-0.214-0.199c-0.258-0.24-0.513-0.474-0.773-0.691c-0.11,0.203-0.221,0.406-0.335,0.607
	c-0.257,0.454-0.529,0.913-0.806,1.376c0.198,0.16,0.38,0.337,0.553,0.51l0.129,0.126c0.589,0.549,1.425,1.018,2.234,1.472
	c0.537,0.302,1.088,0.61,1.597,0.956c0.741,0.503,1.478,1.015,2.216,1.527c2.455,1.704,4.993,3.465,7.648,4.882
	c0.67,0.357,0.924,1.166,0.579,1.842C190.973,188.496,190.577,188.779,190.125,188.847z M176.417,149.708
	c-0.226-0.217-0.358-0.517-0.364-0.846c-0.005-0.32-0.073-0.646-0.199-0.966l-1.481,1.247c0.182,0.43,0.324,0.861,0.453,1.251
	c0.095,0.289,0.187,0.563,0.287,0.823L176.417,149.708z M132.708,186.513c0.69,0.031,1.393,0.06,2.112,0.089
	c-0.548-0.776-0.987-1.597-1.361-2.295c-0.479-0.894-0.972-1.815-1.595-2.577c-0.407,0.276-0.802,0.549-1.189,0.821
	c1.037,1.222,1.961,3.031,1.97,3.05C132.786,185.898,132.8,186.222,132.708,186.513z M129.39,185.023l-0.213-0.332
	c-0.174-0.281-0.326-0.518-0.458-0.709c-0.96,0.737-1.819,1.463-2.597,2.193c1.325,0.079,2.698,0.154,4.132,0.224
	C129.981,185.935,129.681,185.473,129.39,185.023z M115.044,285.351c0.374-0.484,0.751-0.966,1.132-1.447
	c-0.273,0.123-0.589,0.168-0.899,0.12C115.2,284.468,115.122,284.91,115.044,285.351z M114.634,291.066
	c-0.21,0.249-0.491,0.418-0.799,0.488c-0.047,0.218-0.094,0.436-0.141,0.654c2.617-3.058,5.324-6.086,8.089-9.166
	c3.849-4.286,7.312-8.171,10.679-12.249l0.018-0.221c0.027-0.328,0.054-0.656,0.08-0.984c-1.131,1.36-2.281,2.67-3.307,3.831
	c-1.198,1.356-2.381,2.695-3.489,4.034c-1.513,1.829-3.005,3.675-4.496,5.522l-0.147,0.183
	C119.015,285.766,116.838,288.462,114.634,291.066z M174.806,278.357c-2.524,2.014-4.71,4.484-6.828,6.877
	c-1.171,1.324-2.383,2.693-3.659,3.993c-1.885,1.923-3.826,3.951-6.107,6.381l-0.995,1.07c-0.404,0.436-0.811,0.875-1.224,1.311
	c0.644-0.571,1.265-1.116,1.846-1.626c0.581-0.509,1.158-1.016,1.728-1.52l1.435-1.269c4.365-3.855,8.853-7.821,12.787-12.159
	c0.257-0.281,0.592-0.44,0.942-0.464C174.757,280.09,174.782,279.225,174.806,278.357z M174.497,288.392l0.109-3.499
	c-3.762,4.174-8.025,8.047-11.82,11.494l-0.957,0.871c-2.193,1.994-4.679,4.254-7.009,6.577c-1.28,1.275-2.511,2.622-3.702,3.923
	l-0.109,0.118c-0.153,1.016-0.302,2.035-0.434,3.052c2.958-3.835,6.811-7.03,10.26-9.89c0.627-0.52,1.258-1.038,1.89-1.557
	C166.686,296.23,171.097,292.608,174.497,288.392z M174.886,275.389c0.034-1.316,0.064-2.634,0.089-3.953
	c-0.196,0.231-0.39,0.439-0.562,0.624c-0.503,0.54-1.011,1.073-1.519,1.606c-0.521,0.547-1.041,1.093-1.557,1.644
	c-2.061,2.211-4.24,4.338-6.347,6.394l-0.819,0.799c-0.924,0.903-1.862,1.789-2.802,2.676l-0.126,0.119
	c-1.357,1.28-2.721,2.566-4.013,3.871c-1.327,1.341-2.652,2.83-4.286,4.816c-0.095,0.83-0.192,1.649-0.289,2.459
	c1.895-2.094,3.933-4.125,6.023-6.184c1.239-1.22,2.47-2.432,3.664-3.66c0.948-0.974,1.871-1.972,2.795-2.971
	c2.598-2.809,5.285-5.713,8.502-8.033C174.025,275.319,174.484,275.256,174.886,275.389z M175.031,267.414
	c0.012-1.099,0.023-2.198,0.024-3.293c0-0.4-0.002-0.802-0.006-1.204c-1.616,2.083-3.373,4.078-4.932,5.825
	c-1.092,1.223-2.166,2.507-3.204,3.749l-0.067,0.08c-0.982,1.178-1.965,2.353-2.979,3.504c-2.453,2.782-5.009,5.552-7.48,8.229
	l-0.137,0.149c-0.576,0.623-1.149,1.249-1.722,1.876l-0.862,0.942c-0.026,0.254-0.051,0.507-0.077,0.758
	c1.549-1.595,3.19-3.075,4.671-4.408c0.915-0.824,1.821-1.639,2.688-2.458l1.57-1.476c1.795-1.684,3.605-3.383,5.311-5.118
	l1.094-1.117c0.74-0.759,1.481-1.517,2.233-2.263c0.201-0.199,0.436-0.41,0.682-0.629c0.694-0.621,1.553-1.389,1.659-2.045
	C173.612,267.792,174.271,267.315,175.031,267.414z M174.716,223.732L174.716,223.732L174.716,223.732
	C174.716,223.732,174.716,223.732,174.716,223.732z M196.304,183.393c-1.624-0.842-3.071-1.917-4.472-2.959l-0.747-0.554
	c-0.502-0.37-1.037-0.723-1.575-1.077c-0.993-0.656-1.99-1.314-2.862-2.098c-0.641-0.577-1.271-1.213-1.879-1.828
	c-1.611-1.63-3.268-3.306-5.283-4.047c-0.264,0.51-0.529,1.02-0.797,1.527c0.045,0.027,0.081,0.051,0.104,0.068
	c0.452,0.345,0.876,0.713,1.3,1.082c0.286,0.249,0.546,0.475,0.813,0.694c1.552,1.27,3.119,2.523,4.686,3.775l0.157,0.126
	c3.249,2.596,6.766,5.121,10.459,7.511C196.236,184.872,196.268,184.132,196.304,183.393z M194.124,135.37
	c-0.404,0.351-0.81,0.698-1.215,1.044c-1.444,1.235-2.937,2.512-4.275,3.93c-3.502,3.715-6.881,7.681-10.148,11.517
	c-1.517,1.781-3.023,3.549-4.546,5.3c-2.613,3.005-4.96,5.718-7.22,8.502c-0.869,1.071-1.714,2.16-2.558,3.248
	c-1.38,1.779-2.801,3.611-4.319,5.344l-0.114,0.131c-2.269,2.59-4.615,5.268-7.002,7.843l-0.738,0.793
	c-1.148,1.229-2.426,2.598-3.563,4.054c4.521,0.15,9.659,0.338,14.687,0.633c1.164,0.069,2.294,0.132,3.404,0.195
	c0.583-1.019,1.134-2.113,1.681-3.337c0.208-0.465,0.39-0.946,0.573-1.427c0.302-0.794,0.612-1.609,1.033-2.383
	c1.256-2.31,2.672-4.557,4.041-6.729l0.497-0.789c0.08-0.128,0.158-0.259,0.235-0.39l0.051-0.084
	c-0.026-0.074-0.044-0.149-0.054-0.225c-0.068-0.486,0.127-0.965,0.509-1.249c0.168-0.124,0.363-0.203,0.569-0.232
	c1.679-2.86,3.249-5.861,4.843-8.94c0.558-1.079,1.123-2.152,1.688-3.225c-0.11-0.483,0.044-0.986,0.424-1.333
	c0.117-0.107,0.251-0.189,0.406-0.249c0.452-0.841,0.923-1.682,1.396-2.523c1.057-1.881,2.15-3.826,3.01-5.794
	c1.217-2.785,2.611-5.476,3.958-8.077C192.246,139.234,193.212,137.344,194.124,135.37z M111.887,299.72
	c2.358-2.609,4.766-5.122,7.058-7.497c4.143-4.294,8.834-9.157,12.785-14.281c0.063-0.516,0.124-1.033,0.183-1.55
	c-6.227,7.698-12.921,15.044-18.864,21.566c-0.231,0.253-0.518,0.42-0.83,0.488C112.107,298.887,111.996,299.31,111.887,299.72z
	 M196.534,201.298c0.125-1.618,0.14-3.283,0.154-4.894c0.01-1.091,0.025-2.347,0.081-3.597c-0.112-0.099-0.211-0.211-0.295-0.332
	c-3.879-0.055-7.745-0.155-11.494-0.3c-4.499-0.173-9.06-0.467-13.129-0.733c-0.03,0.764-0.069,1.526-0.114,2.273l-0.022,0.4
	l0.091,0.575c0.185,1.123,0.368,2.268,0.544,3.418c6.311,2.101,12.444,4.893,18.377,7.594l0.46,0.209
	c0.96,0.437,1.92,0.874,2.881,1.307c0.609,0.274,0.873,0.966,0.601,1.576c-0.275,0.617-1.033,0.912-1.647,0.639
	c-2.189-0.963-4.39-1.986-6.519-2.975c-4.228-1.963-8.992-4.176-13.793-5.905c0.009,0.064,0.018,0.127,0.026,0.191
	c0.09,0.682,0.157,1.362,0.215,2.034c0.857,0.045,2.283,0.652,5.318,2.186c0.436,0.221,0.848,0.43,0.958,0.473
	c3.173,1.171,6.359,2.434,9.439,3.656c1.797,0.712,3.595,1.422,5.397,2.12c0.316-0.519,0.591-1.036,0.819-1.543
	c0.174-0.386,0.304-0.828,0.441-1.296c0.096-0.327,0.199-0.653,0.313-0.977c0.05-0.231,0.104-0.487,0.157-0.753
	c-3.621-1.039-7.035-2.597-10.339-4.106c-3.932-1.794-7.989-3.646-12.262-4.558c-0.703-0.15-1.14-0.821-0.994-1.527
	c0.153-0.731,0.843-1.19,1.57-1.049c5.126,1.037,9.943,3.169,14.602,5.232c2.422,1.072,5.147,2.278,7.879,3.272
	C196.378,202.964,196.47,202.123,196.534,201.298z M193.202,177.625l1.394,1.003c0.626,0.448,1.26,0.909,1.893,1.378l0.155-2.656
	c-3.213-2.184-6.497-4.758-9.766-7.652c-0.278-0.246-0.56-0.489-0.843-0.733c-0.799-0.687-1.555-1.337-2.25-2.047
	c-0.206-0.211-0.439-0.5-0.685-0.81c-0.206-0.26-0.503-0.635-0.777-0.908c-0.526,1.061-1.059,2.132-1.599,3.205
	c2.426,0.893,4.306,2.692,5.98,4.293c0.482,0.461,0.961,0.919,1.447,1.353c0.925,0.827,2.038,1.555,3.114,2.259
	C191.921,176.741,192.578,177.171,193.202,177.625z M198.681,141.499c-1.084-0.415-2.075-0.993-3.032-1.552
	c-0.195-0.113-0.39-0.222-0.587-0.331l-0.056,0.115c0.507,0.209,0.954,0.491,1.204,0.649l0.14,0.088
	c0.521,0.321,1.037,0.672,1.552,1.024c0.284,0.194,0.562,0.38,0.839,0.559l0.021-0.524
	C198.734,141.519,198.707,141.51,198.681,141.499z M198.603,145.2c-0.467-0.249-1.168-0.692-2.388-1.48
	c-0.688-0.446-1.788-1.158-2.335-1.456c-0.049,0.012-0.099,0.021-0.149,0.027l-0.172,0.339c0.49,0.336,1.016,0.716,1.654,1.197
	c1.064,0.803,2.164,1.632,3.347,2.225C198.574,145.768,198.588,145.484,198.603,145.2z M198.286,137.924
	c0.208,0.119,0.409,0.236,0.606,0.354c0.004-0.096,0.009-0.193,0.013-0.289C198.696,138.012,198.484,137.989,198.286,137.924z
	 M197.1,137.152c-0.224-0.146-0.448-0.292-0.669-0.464c-0.027,0.062-0.055,0.123-0.082,0.184c0.507,0.263,0.979,0.516,1.423,0.762
	c-0.006-0.005-0.013-0.011-0.018-0.016C197.56,137.45,197.337,137.306,197.1,137.152z M109.459,307.39l-0.004,0.012
	c0.025-0.029,0.05-0.058,0.074-0.088C109.505,307.339,109.482,307.364,109.459,307.39z M112.1,309.722
	c2.242-2.345,4.628-4.539,7.063-6.739c2.458-2.222,4.818-4.604,7.099-6.908c1.069-1.08,2.168-2.179,3.276-3.272
	c0.178-1.094,0.356-2.192,0.531-3.294c-1.589,1.599-3.101,3.258-4.518,4.837c-0.971,1.084-1.97,2.144-2.97,3.204
	c-1.103,1.17-2.244,2.381-3.323,3.602c-1.998,2.26-3.908,4.565-6.162,7.33C112.763,308.893,112.431,309.307,112.1,309.722z
	 M149.368,318.911c0.129-0.114,0.257-0.227,0.385-0.34l0.457-0.401c1.596-1.405,3.245-2.794,4.699-4.02l0.278-0.233
	c0.975-0.824,1.951-1.647,2.918-2.48c3.78-3.251,7.402-6.837,10.905-10.305l0.113-0.112c1.463-1.448,2.924-2.895,4.4-4.319
	l0.001-0.003c0.204-0.196,0.455-0.316,0.72-0.356c0.045-1.28,0.086-2.557,0.125-3.827c-3.121,3.546-6.778,6.658-10.04,9.433
	l-1.22,1.039c-2.56,2.187-5.042,4.345-7.255,6.688c-1.927,2.039-3.797,4.452-5.886,7.593c-0.105,0.158-0.24,0.288-0.405,0.391
	C149.495,318.075,149.43,318.492,149.368,318.911z M189.769,150.634c1.571,0.914,3.055,1.959,4.493,2.972
	c1.236,0.871,2.454,1.718,3.704,2.482l0.061-0.96c-0.157-0.04-0.306-0.11-0.442-0.207c-0.83-0.586-1.62-1.222-2.383-1.837
	c-1.54-1.241-2.991-2.409-4.724-3.189v0c-0.099-0.044-0.19-0.098-0.274-0.159C190.068,150.031,189.923,150.335,189.769,150.634z
	 M191.35,147.1c0.151,0.019,0.3,0.061,0.445,0.126c2.427,1.098,4.457,2.76,6.442,4.562c0.062-1.019,0.121-2.037,0.178-3.054
	c-0.288,0.099-0.622,0.098-0.928-0.018c-1.615-0.603-2.946-1.614-4.233-2.592c-0.345-0.263-0.696-0.523-1.051-0.776l-0.033,0.066
	c-0.202,0.402-0.405,0.803-0.599,1.209C191.495,146.781,191.422,146.94,191.35,147.1z M199.781,228.822
	c0.03,0.811,0.058,1.626,0.084,2.441c0.971-1.414,1.991-2.757,2.916-3.974l0.289-0.381c1.629-2.146,3.254-3.991,4.944-5.61
	c-0.165-0.035-0.333-0.073-0.501-0.112c-1.887,2.737-4.268,5.267-6.902,7.334C200.373,228.705,200.08,228.812,199.781,228.822z
	 M218.031,254.087c-0.599,0.87-1.203,1.72-1.783,2.533c-0.124,0.173-0.247,0.346-0.371,0.52c0.578-0.642,1.158-1.239,1.704-1.789
	c0.14-0.142,0.304-0.25,0.483-0.32C218.052,254.717,218.04,254.402,218.031,254.087z M211.685,255.922
	c0.113,0.187,0.225,0.375,0.335,0.563c0.114,0.197,0.232,0.394,0.35,0.592c0.918-1.553,1.982-3.018,3.081-4.501
	c0.915-1.236,1.737-2.361,2.493-3.542l-0.016-1.746l-0.32,0.423c-1.879,2.48-3.821,5.043-5.466,7.743
	C212.024,255.649,211.867,255.807,211.685,255.922z M249.043,300.062c0.071,0.394,0.142,0.789,0.213,1.183
	c1.154-1.861,2.383-3.672,3.731-5.638c1.021-1.491,2.061-3.008,3.031-4.52c0.819-1.274,1.616-2.522,2.353-3.77
	c0.42-0.712,0.94-1.363,1.399-1.938c0.333-0.418,0.63-0.791,0.9-1.18c0.054-0.078,0.186-0.293,0.366-0.589l0.121-0.196
	c1.457-2.379,2.121-3.385,2.563-3.871c-0.049-0.517-0.094-1.03-0.137-1.541c-0.558,0.983-1.126,1.879-1.6,2.614l-0.087,0.131
	c-1.457,2.252-2.966,4.582-4.53,6.852c-0.579,0.84-1.16,1.676-1.74,2.514C253.316,293.439,251.076,296.702,249.043,300.062z
	 M250.143,305.971l0.037,0.195c0.022-0.029,0.044-0.058,0.065-0.089l0.074-0.101c0.377-0.515,0.75-1.022,1.097-1.524l0.831-1.207
	c1.242-1.805,2.524-3.667,3.854-5.456c0.648-0.869,1.323-1.733,2.002-2.597c2.346-2.996,4.769-6.089,6.04-9.621l0.001-0.003
	c0.06-0.165,0.15-0.312,0.269-0.444c-0.078-0.471-0.148-0.925-0.212-1.367c-0.488,0.889-0.959,1.664-1.448,2.385
	c-0.202,0.3-0.407,0.595-0.61,0.889c-0.617,0.893-1.196,1.731-1.713,2.641c-0.665,1.169-1.36,2.329-2.065,3.449
	c-1.338,2.12-2.696,4.223-4.056,6.329C252.911,301.617,251.518,303.787,250.143,305.971z M290.864,236.931
	c-2.318,4.948-4.715,10.065-6.306,15.407c-0.03,0.098-0.069,0.192-0.117,0.281l0.074,1.95c0.769-2.212,1.674-4.35,2.502-6.304
	c1.406-3.315,2.859-6.744,3.657-10.283v-0.002c0.044-0.194,0.131-0.369,0.261-0.524c-0.001-0.223-0.002-0.447-0.003-0.669
	C290.91,236.835,290.888,236.883,290.864,236.931z M284.822,261.648c0.024,0.387,0.058,0.774,0.098,1.152
	c0.226-0.645,0.456-1.274,0.69-1.89C285.458,261.265,285.173,261.528,284.822,261.648z M285.65,260.806
	c0.634-1.665,1.299-3.227,2.004-4.719c0.448-0.947,0.928-1.88,1.409-2.812c0.78-1.516,1.587-3.082,2.226-4.701
	c-0.057-0.931-0.107-1.875-0.151-2.826c-0.602,1.633-1.245,3.228-1.874,4.786c-1.328,3.292-2.7,6.696-3.583,10.164
	C285.672,260.735,285.662,260.771,285.65,260.806z M284.073,244.417l0.005,0.1c0.017-0.041,0.034-0.082,0.051-0.124
	C284.11,244.403,284.092,244.41,284.073,244.417z M286.075,240.027c0.71-1.499,1.43-2.947,2.114-4.319
	c0.842-1.693,1.888-3.793,2.815-5.82c0.005-0.208,0.01-0.417,0.015-0.625c-0.998,1.564-1.78,3.319-2.539,5.018l-0.434,0.969
	C287.299,236.9,286.645,238.483,286.075,240.027z M291.277,220.921c-1.807,3.67-3.611,7.434-5.082,11.322
	c0.606-1.387,1.262-2.774,2.129-3.976c1.192-1.657,2.034-2.965,2.729-4.243l0.133-0.239l0.057-1.8
	C291.255,221.632,291.265,221.277,291.277,220.921z M283.677,234.588c0.03,1.094,0.064,2.151,0.101,3.181
	c0.367-0.915,0.789-1.881,1.281-2.937c0.062-0.133,0.125-0.268,0.186-0.406c-0.321,0.299-0.794,0.429-1.246,0.3
	C283.882,234.693,283.775,234.646,283.677,234.588z M283.734,213.049c-0.108,0.206-0.213,0.415-0.316,0.625l0.005,0.349
	c0.2-0.275,0.402-0.547,0.602-0.814C283.927,213.156,283.83,213.104,283.734,213.049z M286.952,214.127l-0.543,0.783
	c-0.993,1.407-2.015,2.856-2.774,4.396c-0.044,0.091-0.099,0.176-0.166,0.257l0.001,0.121c1.022-1.67,2.193-3.219,3.333-4.729
	c0.191-0.251,0.381-0.506,0.572-0.762C287.234,214.173,287.093,214.152,286.952,214.127z M290.827,292.446
	c0.216-0.509,0.433-1.02,0.653-1.534c-0.365,0.207-0.831,0.233-1.246,0.042c-0.658-0.298-1.12-1.106-0.755-1.942
	c0.144-0.331,0.291-0.663,0.438-0.995c-0.305,0.185-0.702,0.253-1.072,0.178c0.306,1.607,0.617,3.106,0.936,4.522
	c0.106,0.469,0.218,0.933,0.333,1.393C290.352,293.557,290.59,293.002,290.827,292.446z M293.337,273.775
	c0.352-0.713,0.716-1.45,1.12-2.184c-0.096-0.449-0.193-0.901-0.288-1.354c-0.781,1.761-1.647,3.454-2.489,5.103
	c-1.304,2.552-2.653,5.191-3.611,7.906c-0.02,0.056-0.044,0.111-0.071,0.164c0.096,0.584,0.193,1.155,0.29,1.714
	c0.482-1.236,0.988-2.412,1.474-3.519l0.232-0.523c0.374-0.846,0.747-1.695,1.098-2.551c0.082-0.197,0.155-0.41,0.229-0.623
	c0.161-0.467,0.339-0.981,0.609-1.444C292.449,275.582,292.921,274.623,293.337,273.775L293.337,273.775z M293.134,264.967
	c-0.146-0.835-0.285-1.67-0.407-2.508c-0.566,1.387-1.11,2.593-1.515,3.471c-1.506,3.273-2.608,6.783-3.673,10.176l-0.221,0.703
	c-0.057,0.181-0.147,0.346-0.266,0.488c0.031,0.21,0.062,0.421,0.093,0.631c0.734-1.624,1.538-3.175,2.269-4.585
	C290.797,270.676,292.225,267.917,293.134,264.967z M291.931,256.118c-0.066-0.601-0.13-1.201-0.19-1.801
	c-0.007,0.014-0.014,0.027-0.02,0.041c-0.374,0.743-0.745,1.486-1.101,2.237c-1.247,2.633-2.233,5.44-3.185,8.154
	c-0.432,1.233-0.865,2.465-1.324,3.69c-0.067,0.18-0.166,0.342-0.293,0.481c0.104,0.689,0.206,1.378,0.308,2.066
	c0.541-1.63,1.236-3.545,2.08-5.409C289.692,262.297,291.001,259.318,291.931,256.118z M291.394,214.28
	c-0.118,0.011-0.236,0.02-0.355,0.028l-0.23,0.012c-0.521,0.789-1.085,1.56-1.663,2.345c-0.508,0.69-1.084,1.47-1.585,2.227
	c-1.497,2.264-3.026,4.698-3.817,7.37c-0.044,0.15-0.115,0.29-0.213,0.423c0.018,1.572,0.04,3.061,0.067,4.481
	c1.332-4.6,3.612-8.904,5.827-13.086l0.442,0.228l0,0l-0.44-0.232C290.088,216.83,290.751,215.555,291.394,214.28z M295.404,276.013
	l-0.002-0.009c-0.363,0.676-0.752,1.42-1.031,2.136c-0.237,0.609-0.484,1.217-0.736,1.822
	C294.228,278.673,294.825,277.347,295.404,276.013z M290.361,209.034c-1.231-0.203-2.456-0.484-3.691-0.847
	c0.041,0.108,0.065,0.222,0.072,0.34C287.761,208.959,288.971,209.129,290.361,209.034z M291.138,184.044
	c0.811-0.162,1.624-0.347,2.432-0.546c-2.209-0.15-4.401-0.369-6.55-0.59c0.766,0.113,1.531,0.245,2.292,0.404
	c0.491,0.102,0.858,0.442,1.002,0.878C290.589,184.144,290.864,184.098,291.138,184.044z M200.542,126.192
	c-0.171,0.423-0.339,0.848-0.503,1.273c0.151-0.053,0.314-0.082,0.485-0.082c0.346,0,0.66,0.118,0.903,0.315
	c0.141-0.221,0.352-0.399,0.615-0.501l-0.115-0.148l0.639-0.537l-0.207-0.151v-0.319l-0.63-0.713
	c-0.215,0.357-0.557,0.647-0.966,0.799C200.688,126.157,200.613,126.178,200.542,126.192z M199.094,129.961
	c-0.051,0.137-0.102,0.274-0.152,0.41c-0.437,1.175-0.873,2.35-1.332,3.516c0.219,0.069,0.423,0.19,0.597,0.359
	c0.166,0.161,0.387,0.309,0.622,0.465c0.056,0.037,0.113,0.075,0.171,0.115C199.047,133.018,199.078,131.432,199.094,129.961z
	 M187.105,166.256l0.469,0.389c2.889,2.408,6.002,4.854,9.265,7.28c0.077-1.372,0.158-2.748,0.242-4.122
	c-0.423,0.27-0.998,0.282-1.448,0.009c-4.839-2.929-8.477-5.635-11.385-8.471c-0.286,0.569-0.572,1.138-0.855,1.708
	c0.404,0.25,0.754,0.586,1.062,0.897c0.1,0.101,0.192,0.194,0.277,0.272C185.5,164.925,186.28,165.572,187.105,166.256z
	 M189.736,155.998c0.147,0.151,0.231,0.237,0.296,0.299c2.194,2.088,4.925,3.63,7.595,5.009l0.132-2.015
	c-2.214-0.956-4.18-2.377-5.924-3.636c-1.125-0.813-2.275-1.644-3.457-2.351l-0.521,1.003
	C188.568,154.8,189.231,155.48,189.736,155.998z M199.603,224.327l0.052,1.294c1.885-1.792,3.587-3.465,5.082-5.306
	c-0.254-0.105-0.503-0.216-0.747-0.333C202.637,221.586,201.09,223.006,199.603,224.327z M209.178,251.751
	c0.313,0.529,0.629,1.055,0.945,1.573c1.647-3.102,3.813-5.801,5.913-8.417l0.067-0.084c0.59-0.737,1.192-1.486,1.781-2.247
	c-0.008-0.966-0.013-1.929-0.016-2.888c-0.858,1.263-1.681,2.582-2.512,3.928c-1.615,2.612-3.275,5.296-5.345,7.677
	C209.795,251.541,209.499,251.702,209.178,251.751z M233.729,287.621L233.729,287.621
	C233.729,287.621,233.729,287.621,233.729,287.621L233.729,287.621z M251.074,310.717l0.258,1.282
	c1.589-3.413,3.721-6.481,5.639-9.137c0.869-1.201,1.819-2.434,2.658-3.522c1.966-2.552,3.979-5.165,5.503-7.954
	c0.104-0.193,0.249-0.35,0.424-0.465c-0.073-0.331-0.145-0.663-0.215-0.994c-1.406,2.643-3.223,5.045-4.853,7.2l-0.095,0.126
	c-0.575,0.762-1.149,1.521-1.703,2.287c-1.469,2.026-2.907,4.14-4.297,6.184l-0.305,0.451c-0.845,1.242-1.682,2.488-2.506,3.743
	c-0.153,0.235-0.305,0.476-0.456,0.718L251.074,310.717z M267.478,306.789l0.698-0.109c0.26-0.033,0.508-0.068,0.755-0.105
	l0.082,0.491l-0.078-0.492c0.032-0.005,0.064-0.009,0.096-0.011c-0.001-0.009-0.003-0.018-0.004-0.027
	c-0.105-0.647-0.225-1.291-0.341-1.885c-0.154,0.271-0.306,0.542-0.457,0.81C267.98,305.902,267.73,306.346,267.478,306.789z
	 M297.944,285.812c-0.17-0.513-0.338-1.044-0.506-1.605c-0.136,0.321-0.268,0.643-0.4,0.964c-0.227,0.55-0.44,1.065-0.667,1.577
	c-0.518,1.156-1.005,2.321-1.493,3.486c-1.01,2.415-2.052,4.905-3.339,7.266c-0.094,0.172-0.219,0.316-0.366,0.428
	c0.209,0.686,0.43,1.382,0.665,2.098C292.809,295.609,294.858,290.838,297.944,285.812z M288.527,202.871
	c0.821,0.217,1.67,0.442,2.496,0.61c1.196,0.246,2.393,0.46,3.593,0.674c1.216,0.218,2.505,0.451,3.798,0.721
	c0.428-0.607,0.816-1.263,1.158-1.958c-0.907-0.119-1.812-0.226-2.704-0.324c-1.541-0.168-3.289-0.359-4.98-0.642
	c-1.628-0.273-3.25-0.62-4.819-0.955c-1.656-0.353-3.344-0.713-5.01-0.984c0.107,0.622,0.221,1.221,0.355,1.812
	c0.066-0.009,0.13-0.01,0.198-0.01c2.014,0.024,3.945,0.535,5.812,1.029l-0.023,0.509L288.527,202.871z M292.414,199.204
	c1.296,0.193,2.614,0.334,3.889,0.47c1.337,0.143,2.838,0.304,4.319,0.536c0.144-0.479,0.275-0.984,0.394-1.51
	c-3.133-0.381-6.305-1.069-8.883-1.628l-0.925-0.201c-2.862-0.618-5.976-1.174-9.5-1.695c0.01,0.804,0.004,1.566-0.019,2.312
	c0.155-0.067,0.328-0.105,0.516-0.105c0.067,0,0.137,0.005,0.208,0.016c1.774,0.252,3.526,0.599,5.22,0.935
	C289.238,198.653,290.839,198.969,292.414,199.204z M290.254,194.004l1.414,0.277c2.802,0.547,6.253,1.22,9.607,1.715l-0.002-0.5
	c-0.002-0.235-0.003-0.47-0.003-0.705c-3.383-0.389-6.692-1.195-9.896-1.976c-3.05-0.743-6.484-1.579-9.879-1.95
	c0.053,0.596,0.096,1.226,0.134,1.926C284.614,192.888,287.603,193.48,290.254,194.004z M285.557,188.838
	c2.532,0.423,5.002,0.986,7.278,1.504c2.758,0.628,5.604,1.276,8.464,1.691c0.052-2.406,0.16-4.593,0.329-6.645
	c-0.34,0.138-0.673,0.262-1.02,0.369c-1.574,0.484-3.194,0.919-4.901,1.316c0.618,0.09,1.232,0.176,1.846,0.254
	c0.854,0.108,1.281,0.873,1.2,1.55c-0.079,0.676-0.605,1.147-1.279,1.147l-0.158-0.009c-1.211-0.128-2.44-0.302-3.633-0.47
	c-2.384-0.339-4.754-0.676-7.093-0.695c-0.154-0.001-0.307-0.029-0.457-0.084C285.943,188.79,285.75,188.814,285.557,188.838z
	 M295.165,180.649c-0.324-0.138-0.654-0.279-0.983-0.418l-0.31-0.132l-0.027,0.001c-4.436-0.209-8.792-0.686-13.021-1.419
	c-1.199-0.208-2.405-0.377-3.611-0.547c-1.148-0.161-2.296-0.323-3.438-0.516c-1.848-0.314-3.309-0.514-4.622-0.63l1.557,1.413
	c0.469-0.071,0.931-0.1,1.385-0.1c1.149,0,2.245,0.186,3.25,0.357c0.359,0.061,0.723,0.123,1.087,0.177
	c1.073,0.16,2.189,0.247,3.268,0.332c1.142,0.088,2.3,0.178,3.45,0.349c2.234,0.333,4.543,0.504,6.777,0.67
	C291.644,180.313,293.405,180.444,295.165,180.649z M279.096,175.341c-0.795-0.161-1.582-0.327-2.362-0.491
	c-3.714-0.779-7.873-1.651-12.032-1.826c0.458,0.389,0.914,0.779,1.366,1.177l0.073,0.066c0.23-0.164,0.507-0.254,0.802-0.254
	c2.494,0.004,4.887,0.317,6.897,0.623c0.914,0.138,1.833,0.255,2.755,0.371C277.429,175.114,278.265,175.22,279.096,175.341z
	 M275.17,171.694c-1.194-0.585-2.366-1.17-3.508-1.752c-1.239-0.18-2.469-0.39-3.678-0.598c-2.888-0.499-5.861-1.013-8.829-1.042
	c0.926,0.801,1.861,1.592,2.778,2.364c0.048-0.009,0.095-0.014,0.143-0.017v0c0.764-0.043,1.527-0.064,2.292-0.064
	C267.83,170.586,271.334,171.01,275.17,171.694z M256.71,166.19c0.065-0.082,0.139-0.155,0.221-0.219
	c-0.171-0.011-0.342-0.021-0.515-0.031C256.515,166.022,256.613,166.106,256.71,166.19z M206.694,77.905
	c-0.262-0.933-0.796-1.562-1.635-1.923c-0.493-0.211-1.052-0.28-1.644-0.353c-0.546-0.068-1.106-0.137-1.687-0.317
	c-0.083-0.026-0.163-0.057-0.242-0.095c-1.04,0.268-2.05,1.01-2.61,1.931c-0.323,0.532-0.643,1.36-0.328,2.286
	c0.022,0.064,0.046,0.128,0.073,0.191c0.186-0.333,0.397-0.624,0.643-0.883c0.236-0.25,0.954-1.002,1.921-0.644
	c0.11,0.041,0.213,0.096,0.305,0.163c0.352-0.461,0.988-0.635,1.577-0.39c0.114,0.048,0.219,0.109,0.314,0.182
	c0.068-0.028,0.14-0.049,0.214-0.061l0.033-0.016c0.404-0.231,0.997-0.154,1.392,0.23c0.007,0.006,0.013,0.012,0.018,0.018
	c0.079-0.025,0.16-0.04,0.242-0.046c0.026-0.002,0.053-0.002,0.079-0.002c0.436,0,0.861,0.225,1.104,0.587
	c0.262,0.388,0.293,0.872,0.085,1.294c-0.074,0.15-0.135,0.305-0.197,0.459c-0.069,0.171-0.138,0.34-0.215,0.506
	c0.06-0.075,0.119-0.153,0.172-0.233C206.852,79.978,206.988,78.954,206.694,77.905z M107.287,271.659
	c-0.155,0.765-0.316,1.55-0.493,2.335c-0.4,1.78-0.862,3.683-1.497,6.173l-0.072,0.346c-0.192,0.859-0.433,1.771-0.737,2.785
	c-0.7,2.637-1.426,5.275-2.143,7.868c-0.395,1.429-0.777,2.811-1.154,4.193l-0.402,1.482c-1.378,5.095-2.935,10.849-5.891,15.717
	c2.447,1.244,4.99,2.388,7.574,3.407c0.152-0.833,0.341-1.572,0.577-2.259c0.616-1.793,1.316-3.581,1.992-5.31
	c0.715-1.826,1.452-3.712,2.09-5.601c1.309-3.88,2.238-7.93,3.153-12.084c0.907-4.12,1.739-8.633,2.616-14.189
	c-0.19-0.459-0.13-0.97,0.169-1.37l0.054-0.068c0.475-3.082,0.929-6.176,1.367-9.303c0.692-4.928,1.178-9.04,1.53-12.942
	c0.295-3.265,0.383-6.54,0.422-10.445c-0.113-0.314-0.109-0.654,0.01-0.979l0.015-1.758c0.007-0.889,0.008-1.783,0.009-2.677
	l0-0.473c-0.693-0.336-1.177-1.212-0.792-2.108c0.225-0.528,0.487-1.064,0.798-1.634c-0.003-1.804-0.01-3.603-0.018-5.373
	l-0.011-2.813c-0.061-0.252-0.062-0.496-0.002-0.73c-0.008-2.395-0.009-4.814,0.003-7.23c-0.026,0.014-0.053,0.026-0.079,0.039
	c-1.465,0.707-3.2,1.445-5.02,1.6l0.002,0.52c-0.008,9.943-0.257,17.581-0.808,24.764c-0.223,2.919-0.525,5.778-0.79,8.187
	c-0.286,5.105-0.8,10.045-1.526,14.658c-0.094,0.759-0.198,1.533-0.321,2.303C107.773,269.563,107.581,270.478,107.287,271.659z
	 M114.674,319.594c0.576,0.153,1.133,0.296,1.682,0.431c0.013-0.332,0.129-0.659,0.349-0.936c2.993-3.794,6.344-7.394,9.962-10.702
	c0.137-0.64,0.272-1.283,0.405-1.932c-1.22,1.261-2.441,2.484-3.55,3.595C120.432,313.14,117.455,316.35,114.674,319.594z
	 M126.995,321.896c1.468,0.18,2.933,0.353,4.371,0.519c1.294,0.149,2.586,0.302,3.877,0.457c3.043,0.212,6.289,0.343,9.63,0.386
	c0.201-0.231,0.407-0.457,0.616-0.681c0.11-2.386,0.526-4.789,0.861-6.729c0.248-1.429,0.528-3.046,0.698-4.599
	c-0.308-0.031-0.61-0.156-0.863-0.359c-0.642-0.517-0.782-1.377-0.334-2.047c0.553-0.825,1.205-1.697,1.99-2.661l0.037-0.214
	c0.077-0.437,0.153-0.874,0.217-1.309c0.319-2.198,0.614-4.399,0.889-6.603l0.189-1.548c-0.654-0.453-0.876-1.298-0.515-1.984
	c0.27-0.514,0.578-1.037,0.939-1.598c0.092-0.801,0.183-1.608,0.273-2.423c-0.335-0.03-0.66-0.171-0.927-0.405
	c-0.624-0.548-0.864-1.589-0.189-2.382c0.532-0.625,1.071-1.245,1.613-1.862c0.448-4.356,0.876-8.927,1.305-13.964
	c0.978-11.489,1.509-21.497,1.622-30.589c-0.175-0.394-0.169-0.827,0.016-1.222c0.014-1.669,0.011-3.309-0.003-4.929
	c-0.099-0.31-0.102-0.642-0.008-0.952l-0.005-0.336c-0.037,0.025-0.074,0.05-0.112,0.074c-0.616,0.4-1.439,0.268-1.906-0.287
	c-0.503-0.601-0.487-1.444,0.038-2.003c0.633-0.676,1.301-1.313,1.891-1.862c-0.04-1.386-0.089-2.762-0.151-4.124
	c-0.215-0.023-0.427-0.096-0.619-0.215c-0.664-0.413-0.869-1.258-0.469-1.923c0.256-0.427,0.554-0.849,0.907-1.288l-0.03-0.459
	c-2.396-0.402-6.384-1.454-8.916-4.149c-0.253-0.27-0.487-0.554-0.7-0.847c-1,0.819-1.882,1.31-2.154,1.454
	c-1.456,0.766-3.137,1.616-4.88,2.137c0.337,3.332,0.572,6.771,0.715,10.498c0.254,0.031,0.501,0.133,0.715,0.302
	c0.61,0.478,0.737,1.321,0.286,1.919c-0.24,0.318-0.491,0.628-0.741,0.939l-0.159,0.197c0.066,2.95,0.075,5.977,0.03,9.241
	c0.258,0.325,0.359,0.742,0.272,1.156c-0.064,0.303-0.162,0.607-0.307,0.954l-0.011,0.671c-0.201,8.967-0.522,16.389-1.009,23.336
	c0.353,0.513,0.354,1.165-0.017,1.653l-0.113,0.145l-0.044,0.601c-0.532,6.909-1.558,13.65-2.592,19.913
	c0.231,0.515,0.138,1.104-0.252,1.522l-0.768,4.536c0.079,0.043,0.154,0.093,0.224,0.152c0.566,0.468,0.806,1.387,0.224,2.113
	c-0.265,0.331-0.54,0.652-0.815,0.972l-0.26,0.305c-0.433,2.371-0.896,4.735-1.376,7.029c-0.002,0.191-0.04,0.372-0.113,0.54
	C129.112,313.656,128.101,317.862,126.995,321.896z M149.762,323.264c0.696-0.008,1.396-0.019,2.102-0.034l0.933-0.025
	c2.94-3.043,6.122-5.904,9.394-8.81l0.791-0.703c1.012-0.898,2.141-1.646,3.233-2.37c0.851-0.564,1.731-1.148,2.513-1.779
	c2.001-1.616,3.444-3.095,4.542-4.652c0.148-0.21,0.342-0.372,0.565-0.476c0.099-1.422,0.184-2.893,0.258-4.459
	c-0.77,0.806-1.539,1.615-2.308,2.425c-3.657,3.857-7.438,7.848-11.492,11.437c-1.085,0.962-2.185,1.905-3.285,2.847l-0.172,0.148
	c-1.364,1.168-2.911,2.493-4.351,3.795C151.543,321.459,150.632,322.368,149.762,323.264z M157.457,323.045
	c0.808-0.035,1.611-0.073,2.407-0.113c-0.009-0.344,0.117-0.688,0.37-0.954c2.84-2.983,5.819-5.916,8.707-8.754
	c-1.125,0.852-2.252,1.631-3.323,2.357c-0.756,0.512-1.481,1.219-2.182,1.903c-0.353,0.343-0.639,0.622-0.927,0.885
	c-0.523,0.482-1.044,0.966-1.565,1.45l-1.422,1.318C158.831,321.772,158.144,322.409,157.457,323.045z M173.141,309.536
	c0.029-0.002,0.059-0.003,0.088-0.003c0.052,0,0.104,0.003,0.155,0.01c0.011-0.1,0.021-0.199,0.032-0.3
	C173.325,309.342,173.233,309.439,173.141,309.536z M197.221,167.528c0.069-1.092,0.139-2.181,0.21-3.265
	c-3.025-0.877-5.628-2.805-7.781-4.583c-0.704-0.582-1.41-1.224-2.287-2.083l-0.206-0.212c-0.222-0.232-0.418-0.431-0.591-0.601
	l-0.187,0.358c-0.272,0.52-0.544,1.04-0.812,1.562c3.205,3.169,7.114,5.781,10.572,8.092l0.965,0.645
	C197.146,167.47,197.184,167.498,197.221,167.528z M201.462,242.161l0.027-0.725c0.015-0.362,0.028-0.725,0.039-1.094
	c-0.432,0.609-0.86,1.217-1.287,1.821l-0.103,0.147c-0.03,0.042-0.061,0.082-0.094,0.121c-0.003,0.51-0.008,1.02-0.014,1.529
	C200.483,243.409,200.958,242.813,201.462,242.161z M202.73,238.656c0.03-0.003,0.061-0.004,0.092-0.004
	c0.312,0,0.605,0.136,0.809,0.367c3.919-6.163,9.029-11.748,13.559-16.701h0.001l0.72-0.79c-0.44,0.112-0.893,0.201-1.355,0.268
	c-1.448,1.789-2.976,3.504-4.457,5.166c-1.003,1.126-2.004,2.248-2.974,3.386C206.87,232.994,204.761,235.822,202.73,238.656z
	 M204.895,242.576c0.901,2.546,1.832,4.714,2.845,6.626c0.036,0.066,0.071,0.133,0.106,0.199c1.451-1.952,2.793-4.047,4.091-6.075
	c1.73-2.704,3.495-5.464,5.559-7.981c0.106-0.127,0.233-0.233,0.376-0.315c0.003-0.725,0.007-1.446,0.011-2.161
	c-0.365,0.415-0.722,0.809-1.049,1.166c-0.703,0.769-1.422,1.556-2.076,2.37c-2.002,2.493-3.948,5.373-6.124,9.062
	c-0.402,0.684-1.302,0.931-2.001,0.54c-0.722-0.405-0.984-1.29-0.599-2.017c1.706-3.215,3.66-6.183,5.805-8.824
	c0.827-1.018,1.738-1.963,2.621-2.879c1.342-1.392,2.518-2.648,3.467-4.066c0.01-0.806,0.02-1.604,0.032-2.39
	C213.69,230.746,208.934,236.421,204.895,242.576z M206.992,253.834l0.239,1.211c0.335,1.73,0.67,3.459,1.018,5.187l0.22,1.104
	c0.246,1.232,0.502,2.48,0.775,3.728c0.206,0.246,0.346,0.544,0.406,0.87c0.121,0.669,0.228,1.333,0.336,1.996l0.103,0.64
	c0.117,0.42,0.245,0.857,0.38,1.298c0.012-0.115,0.022-0.231,0.068-0.344c0.496-1.219,1.063-2.118,1.84-2.917
	c0.533-0.545,1.38-0.551,1.929-0.019c0.556,0.542,0.573,1.397,0.037,1.948c-0.032,0.033-0.056,0.075-0.087,0.109
	c0.53-0.301,1.144-0.249,1.599,0.113c-0.642-1.216-1.305-2.409-2.066-3.511c-1.487-2.156-3.207-4.743-4.688-7.596
	c-0.496-0.955-1.024-1.891-1.553-2.826C207.365,254.502,207.179,254.171,206.992,253.834z M210.774,270.84
	c0.234,0.708,0.455,1.421,0.681,2.132c0.012-0.074,0.024-0.147,0.047-0.221c0.16-0.51,0.345-1.023,0.578-1.521
	c-0.103,0.025-0.209,0.04-0.319,0.04c-0.208,0-0.418-0.05-0.609-0.144C211.004,271.052,210.878,270.954,210.774,270.84z
	 M229.783,318.199l0.114,0.01c5.649,0.419,12.34,0.868,19.167,1.018c-0.469-1.799-0.912-3.698-1.345-5.777
	c-0.097-0.036-0.188-0.08-0.274-0.134c-0.585-0.374-0.82-1.075-0.574-1.706c0.087-0.222,0.192-0.439,0.298-0.655l0.034-0.071
	c-0.481-2.501-0.94-5.158-1.481-8.563c-0.493-0.431-0.639-1.12-0.339-1.721l0.051-0.096l-0.85-5.449
	c-1.409-8.922-2.41-17.11-3.06-25.034c-0.663-8.067-1.31-16.731-1.549-25.437c-0.119-4.302,0.002-8.603,0.134-12.242
	c0.032-0.876,0.06-1.733,0.079-2.576c-0.471-0.339-0.672-0.952-0.473-1.529c0.144-0.419,0.308-0.836,0.487-1.248
	c-0.016-1.164-0.06-2.201-0.136-3.15c-0.664,0.139-1.318,0.209-1.951,0.209c-3.022,0-6.218-1.297-9.001-3.65
	c-1.003-0.848-2.736-2.531-3.909-4.851c-0.579,1.091-1.233,2.034-1.985,2.865c-0.33,0.363-0.69,0.699-1.108,1.034
	c0.368,0.525,0.344,1.235-0.097,1.739l-1.272,1.454l0.088,4.388c0.339,0.418,0.409,0.985,0.165,1.473
	c-0.038,0.076-0.08,0.146-0.124,0.217l-0.009,0.016c0.065,3.494,0.133,7.049,0.211,10.61c0.244,0.015,0.483,0.093,0.697,0.236
	c0.624,0.419,0.787,1.237,0.373,1.864c-0.321,0.487-0.652,0.972-0.987,1.452l0.077,3.145c0.026,1.007,0.046,2.016,0.065,3.025
	c0.075,3.868,0.152,7.852,0.648,11.689c0.161,1.254,0.35,2.512,0.54,3.772c0.491,3.255,0.989,6.56,1.042,9.851
	c0,0.023,0,0.047-0.001,0.069c0.236,0.307,0.475,0.612,0.712,0.915l0.179,0.23c0.473,0.601,0.928,1.181,1.373,1.766
	c1.7,2.238,3.627,4.777,5.766,7.032c0.896,0.946,1.738,1.945,2.552,2.912l0.065,0.078c0.726,0.863,1.477,1.755,2.251,2.586
	c1.629,1.745,3.285,2.957,5.372,3.93c0.678,0.316,1.05,1.017,0.974,1.788c0.414,0.671,0.292,1.527-0.314,2.007
	c-1.925,1.529-3.596,3.249-4.965,5.11c-0.572,0.777-1.311,1.81-1.951,2.921c-0.222,0.382-0.417,0.815-0.624,1.273
	c-0.295,0.653-0.595,1.321-1.007,1.924c-1.35,1.976-2.397,3.947-3.112,5.86c-0.481,1.283-0.781,2.273-0.977,3.208
	C229.808,318.056,229.795,318.127,229.783,318.199z M252.427,317.375c0.032-0.135,0.084-0.268,0.157-0.398
	c4.15-7.37,8.933-14.303,14.22-20.611l-0.036-0.149c-0.122-0.505-0.243-1.01-0.361-1.516c-1.386,2.391-3.065,4.635-4.57,6.646
	c-0.707,0.946-1.411,1.887-2.09,2.839c-3.145,4.42-5.331,8.242-6.878,12.03c-0.116,0.281-0.302,0.512-0.541,0.676L252.427,317.375z
	 M252.673,318.575l0.144,0.698c0.98,0,1.947-0.002,2.907-0.014c0.039-0.113,0.092-0.22,0.161-0.32c1.006-1.49,2.074-2.97,3.107-4.4
	c1.413-1.954,2.835-3.922,4.121-5.929c0.79-1.236,1.546-2.495,2.302-3.756c0.895-1.492,1.701-2.792,2.46-3.969
	c-0.094-0.407-0.189-0.812-0.284-1.216c-2.882,3.942-5.564,8.095-8.28,12.352c-1.381,2.167-2.766,4.335-4.188,6.486
	c-0.435,0.656-1.345,0.865-2.027,0.45C252.926,318.853,252.784,318.723,252.673,318.575z M259.227,319.194
	c0.442-0.013,0.882-0.027,1.32-0.044c1.2-2.092,2.429-4.228,3.812-6.238c0.633-0.923,1.326-1.788,1.995-2.625l0.202-0.253
	c0.371-0.463,0.751-0.939,1.025-1.424l-0.256-0.032l-0.03-1.469c-0.657,1.151-1.33,2.301-2.04,3.42
	C263.367,313.513,261.27,316.399,259.227,319.194z M272.433,304.327c0.184,0.862,0.329,1.733,0.472,2.604
	c0.165,0.994,0.323,1.941,0.529,2.845c0.336,1.469,0.857,2.955,1.362,4.393c0.37,1.053,0.816,2.327,1.17,3.616
	c2.73-0.397,5.366-0.868,7.841-1.404c1.286-0.287,2.537-0.586,3.765-0.893c1.073-0.275,2.14-0.559,3.187-0.865
	c0.49-0.143,0.977-0.29,1.463-0.442c-0.692-1.323-0.978-2.883-1.234-4.281c-0.122-0.667-0.248-1.358-0.413-1.965
	c-0.477-1.744-1.099-3.492-1.701-5.182c-0.729-2.044-1.453-4.078-1.982-6.172c-0.907-3.592-1.661-7.443-2.445-12.489
	c-0.644-4.149-1.243-8.306-1.851-12.554l-0.169-1.174c-0.533-3.683-1.084-7.493-1.215-11.364c-0.078-2.278-0.161-4.559-0.247-6.839
	c-0.232-6.221-0.471-12.654-0.546-18.985c-0.046-3.942-0.046-8.104,0-13.1c0.009-0.912,0.011-1.824,0.014-2.739l0.003-0.844
	c-0.448-0.307-0.669-0.835-0.555-1.358c0.123-0.567,0.317-1.183,0.578-1.833c0.01-0.806,0.023-1.616,0.046-2.425
	c-0.836,1.537-1.889,3.031-3.094,4.381c-1.989,2.228-5.333,4.998-9.966,5.546c-1.177,0.14-2.33,0.137-3.485-0.032
	c0.017,1.466,0.066,3.021,0.149,4.73c0.016,0.007,0.03,0.016,0.045,0.023c0.634,0.366,0.851,1.151,0.493,1.787l-0.398,0.69
	c0.078,1.246,0.164,2.46,0.253,3.632c0.266,0.038,0.517,0.153,0.729,0.34c0.546,0.482,0.751,1.394,0.148,2.086
	c-0.177,0.203-0.342,0.417-0.509,0.63l-0.131,0.167c0.078,1.154,0.146,2.309,0.2,3.464c0.544,0.316,0.899,1.02,0.584,1.75
	c-0.104,0.241-0.217,0.477-0.33,0.712l-0.14,0.295c0.04,1.033,0.075,2.062,0.11,3.08L265.19,245
	c0.275-0.064,0.568-0.034,0.848,0.097c0.691,0.327,0.983,1.12,0.666,1.806c-0.376,0.822-0.814,1.657-1.334,2.547
	c0.05,1.143,0.1,2.284,0.16,3.429c0.558,0.416,0.699,1.185,0.312,1.779l-0.198,0.297c0.268,4.802,0.596,9.69,0.883,13.904
	l0.232,3.407c0.287,4.268,0.636,8.799,1.462,13.167c0.74,3.914,1.665,7.848,2.56,11.654l0.167,0.711
	C271.495,300.132,271.986,302.235,272.433,304.327z M296.062,306.042c0.567-1.234,1.183-2.482,1.833-3.781
	c0.866-1.737,1.73-3.466,2.47-5.188c0.156-0.364,0.457-0.617,0.816-0.722c-0.148-0.52-0.294-1.042-0.437-1.563
	c-0.669,1.657-1.429,3.25-2.165,4.75c-0.697,1.415-1.243,2.956-1.772,4.447C296.564,304.671,296.321,305.359,296.062,306.042z
	 M250.384,158.593l-0.573-0.313l-0.029,0.006c-0.84,0.073-1.682,0.052-2.599-0.058c0.172,0.153,0.346,0.306,0.52,0.461
	C248.551,158.603,249.431,158.571,250.384,158.593z M255.258,106.353c2.925-0.901,5.586-1.603,8.101-2.139
	c5.482-1.168,10.862-1.808,16.015-1.906c-0.637-0.529-1.237-0.981-1.824-1.375c-2.115-1.42-4.294-2.508-6.478-3.234
	c-0.639-0.213-1.021-0.824-0.949-1.487c-0.026-0.088-0.049-0.187-0.054-0.299c-0.042-0.738,0.452-1.345,1.175-1.444
	c0.325-0.045,0.66-0.123,1.02-0.24c0.454-0.392,0.95-0.674,1.42-0.93c0.262-0.143,0.526-0.286,0.783-0.454
	c1.306-0.86,2.587-1.486,3.667-1.986c0.38-0.177,0.765-0.34,1.151-0.502c-0.391-0.028-0.776-0.047-1.155-0.051
	c-1.054-0.023-2.12,0.092-3.158,0.2l-0.179,0.019c-1.067,0.111-2.17,0.226-3.293,0.231c-3.343,0.015-6.662,0.757-9.871,1.475
	c-1.172,0.263-2.349,0.526-3.532,0.758c-0.035,0.679-0.103,1.344-0.204,1.983c-0.152,0.951-0.4,1.849-0.64,2.718
	c-0.138,0.494-0.269,0.968-0.385,1.451c-0.289,1.205-0.794,2.291-1.282,3.34c-0.094,0.203-0.187,0.405-0.278,0.606
	C256.019,104.214,255.697,105.375,255.258,106.353z M98.381,179.848l-0.002,0.005c0,0,0.001,0,0.001,0L98.381,179.848z"/>
</svg>
