<svg width="400" height="400" viewBox="0 0 400 400" fill="none" xmlns="http://www.w3.org/2000/svg">
<path style="fill:#0000FF;" d="M258.516,145.281c-1.191-0.96-2.406-1.89-3.591-2.857c-3.182-2.597-6.398-4.696-11.526-9.577
	c-2.527-2.405-3.641-3.756-3.712-5.559c-0.06-1.515,0.678-1.786,1.185-3.963c0.691-2.97,0.05-5.611-0.565-8.147
	c-0.664-2.736-1.393-3.85-1.285-6.344c0.063-1.438,0.271-2.322,0.588-2.783c0.835-1.216,2.08-2.141,3.066-3.264
	c4.595-5.239,8.229-10.576,6.041-18.32c-2.306-8.163-10.641-14.429-19.05-14.452c-6.042-0.016-12.083-0.019-18.125-0.004
	c-15.437,0.039-30.874,0.041-46.309,0.197c-2.132,0.022-4.269,0.816-4.324,3.673c-0.071,3.681-0.204,7.362-0.212,11.043
	c-0.021,10.123,0.095,20.246,0.002,30.368c-0.255,27.841-0.613,55.681-0.882,83.521c-0.117,12.101,0.029,24.207-0.253,36.303
	c-0.095,4.065-1.352,8.09-1.7,12.166c-0.35,4.1,0.124,8.289-0.425,12.349c-0.47,3.479-2.075,6.789-2.807,10.252
	c-0.641,3.035-1.296,6.233-0.987,9.262c0.386,3.786,1.848,7.451,2.674,11.206c1.158,5.27-1.563,9.629-4.655,16.043
	c-0.331,0.687-2.319,4.121-6.294,10.989c-1.514,2.616-2.863,5.333-4.509,7.868c-0.047,0.072-0.165,0.264-0.305,0.537
	c-0.776,1.518-0.886,3.04-0.819,4.212c3.232-0.003,23.032-0.022,26.263-0.025c3.135-0.003,22.716-0.027,25.851-0.031
	c-0.052-0.706-0.121-1.327-0.19-1.848c-0.108-0.816-0.2-1.276-0.439-1.794c-0.103-0.223-0.198-0.38-0.231-0.437
	c-1.443-2.471-7.129-12.889-7.757-14.043c-1.71-3.14-1.258-2.608-2.334-4.55c-2.217-4.002-3.331-5.205-4.214-7.954
	c-0.641-1.994-0.801-3.601-0.851-4.611c-0.295-5.933,1.442-11.909,2.384-14.07c1.486-3.412,1.866-6.678-0.331-10.216
	c-1.602-2.58-2.788-5.695-3.177-8.699c-0.82-6.332-1.082-12.743-1.413-19.13c-0.433-8.356-0.974-16.72-1.01-25.082
	c-0.109-24.948-0.232-46.074-0.043-88.311c0.024-5.293,0.039-9.589,0.048-12.204c0.681,0.291,1.712,0.74,2.957,1.31
	c2.59,1.185,4.38,2.107,4.9,2.366c3.376,1.68,7.708,2.54,9.843,2.704c7.21,0.553,15.362-4.84,19.097-11.469
	c2.631-4.668,3.843-10.73,4.472-17.126c0.298-3.025,0.975-6.232,2.375-8.885c1.818-3.446,4.052-5.809,6.777-7.149
	c1.152-0.567,5.156-2.589,9.745-1.017c2.926,1.002,4.679,2.979,5.425,3.938c-1.415-0.593-5.214-1.951-9.591-0.657
	c-4.414,1.305-9.053,5.094-9.363,9.771c-0.304,4.597,1.675,8.057,4.694,11.128c4.832,4.914,6.136,8.95,3.342,13.358
	c-2.015,3.177-1.348,6.22-0.106,8.865c1.279,2.723,0.762,3.378,0.654,3.988c-0.276,1.55-1.24,2.57-2.472,3.788
	c-2.641,2.608-3.962,3.913-6.027,5.464c-3.11,2.336-6.108,4.828-9.312,7.034c-0.774,0.533-2.205,1.538-2.443,3.104
	c-0.106,0.701,0.078,1.512,0.712,2.504c1.954,3.063,4.07,6.164,5.249,9.551c2.255,6.482,3.832,13.197,5.826,19.774
	c1.249,4.119,2.182,5.685,3.898,6.839c1.748,1.176,2.759,0.725,10.38,0.8c7.868,0.077,9.909,0.293,11.695-1.476
	c1.155-1.145,1.95-2.927,2.441-4.029c0.921-2.065,1.232-3.755,1.38-4.506c0.697-3.55,1.736-6.537,2.988-10.137
	c1.505-4.327,4.334-12.462,7.347-16.138c0.306-0.374,1.222-1.441,1.09-2.742C260.187,147.17,259.854,146.36,258.516,145.281z
	 M206.716,88.571c-0.693,2.271-1.183,4.604-1.76,6.911c-0.799,3.195-1.369,6.477-2.259,9.637c-0.511,1.814-0.813,2.708-1.033,3.156
	c-2.064,4.186-7.792,7.949-13.908,7.072c-5.554-0.796-8.667-5.024-9.294-5.914c1.443,0.885,3.615,1.964,6.421,2.492
	c2.22,0.418,5.704,1.074,9.205-0.769c2.845-1.498,4.224-3.878,4.569-4.483c2.228-3.909,1.951-9.436-1.274-13.939
	c-3.812-5.322-8.86-6.893-14.637-5.8c-3.571,0.676-6.086,2.754-8.388,4.553c-0.981,0.767-1.753,1.467-2.288,1.978
	c0.005-5.252,0.01-10.503,0.015-15.755h38.197C208.992,81.61,207.784,85.069,206.716,88.571z M177.927,99.21
	c1.24-1.581,3.307-3.788,5.966-4.829c0.524-0.205,0.994-0.335,1.553-0.353c2.323-0.073,4.016,1.865,4.675,2.619
	c0.973,1.113,2.54,2.907,2.025,4.919c-0.394,1.54-1.805,2.418-2.166,2.642c-0.476,0.296-1.236,0.769-2.225,0.704
	c-0.487-0.032-1.102-0.199-2.408-1.239c-1.341-1.068-1.873-1.834-2.478-2.422C182.012,100.418,180.553,99.496,177.927,99.21z
	 M225.042,175.445c-1.375-3.893-2.74-7.851-4.09-11.873c-1.379-4.109-2.705-8.173-3.981-12.189c1.47-0.691,2.94-1.382,4.41-2.072
	c0.551,1.519,1.052,3.133,1.478,4.841c0.786,3.152,1.064,5.688,1.62,10.761c0.328,2.994,0.418,4.489,0.451,5.069
	C225.053,172.18,225.063,174.047,225.042,175.445z M227.525,93.525c-0.138-0.451-0.766-2.706,0.596-4.54
	c0.318-0.428,0.689-0.928,1.348-1.142c1.633-0.532,3.495,1.183,4.248,1.876c1.442,1.328,1.085,1.782,2.14,2.422
	c1.841,1.118,3.73,0.224,4.159,1.129c0.236,0.497-0.118,1.222-0.544,1.572c-0.7,0.576-1.765,0.282-2.567,0.061
	c-1.688-0.465-1.759-1.167-2.907-1.241c-0.987-0.064-1.83,0.397-2.647,0.845c-1.362,0.746-1.574,1.376-2.197,1.295
	C228.184,95.677,227.675,94.016,227.525,93.525z M237.884,160.068c-1.207,7.413-2.664,13.229-3.492,16.503
	c-0.296,1.17-0.552,2.141-0.732,2.816c-0.278-0.76-0.667-1.863-1.09-3.204c-0.71-2.253-1.968-6.613-3.303-16.115
	c-0.403-2.864-0.864-6.565-1.254-10.918c3.76,0.016,7.52,0.032,11.279,0.047C238.873,153.53,238.349,157.212,237.884,160.068z
	 M246.24,163.572c-1.35,4.022-2.714,7.98-4.09,11.873c-0.021-1.398-0.01-3.265,0.113-5.464c0.032-0.58,0.123-2.075,0.451-5.069
	c0.556-5.072,0.833-7.609,1.62-10.761c0.426-1.708,0.927-3.322,1.478-4.841c1.47,0.691,2.94,1.382,4.41,2.072
	C248.945,155.4,247.618,159.463,246.24,163.572z"/>
</svg>
