<svg width="400" height="400" viewBox="0 0 400 400" fill="none" xmlns="http://www.w3.org/2000/svg">
<path fill-rule="evenodd" clip-rule="evenodd" d="M155.568 71.3025C154.812 72.2142 154.972 73.0888 156.296 75.2602C160.552 82.2426 157.493 87.9911 139.97 105.936C121.26 125.095 112.587 136.94 110.055 146.787C109.996 147.016 109.704 147.766 109.406 148.455C105.995 156.333 104.03 179.613 106.241 185.949C106.642 187.094 107.442 190.065 108.02 192.551C111.65 208.164 128.799 227.449 142.171 230.956C144.233 231.496 146.294 232.225 146.754 232.577C147.748 233.338 148.33 233.426 156.126 233.981C162.482 234.434 163.095 234.844 160.685 237.025C156.67 240.658 135.659 242.36 127.054 239.748C115.326 236.189 107.893 226.678 100.962 206.363C93.8249 185.443 87.5902 179.535 73.4031 180.251C67.2909 180.56 62.252 182.749 63.0929 184.731C63.2793 185.172 67.0674 185.532 71.5102 185.532H79.5895L83.0487 188.865C87.4588 193.112 90.0153 198.781 91.3177 207.196C91.8847 210.862 92.6359 214.237 92.9873 214.695C93.3387 215.153 94.0988 217.59 94.677 220.11C98.8087 238.138 112.5 252.261 129.103 255.625C137.779 257.383 155.816 256.075 159.251 253.437C163.452 250.212 166.578 252.049 163.643 256.018C161.91 258.364 153.836 264.037 153.836 262.911C153.836 262.629 153.215 262.915 152.457 263.543C150.479 265.186 134.554 265.068 132.54 263.396C131.738 262.732 130.859 262.233 130.586 262.289C130.312 262.345 129.714 262.259 129.256 262.097C126.847 261.245 117.206 259.061 114.674 258.794C113.071 258.625 110.318 258.243 108.558 257.945C106.797 257.648 104.547 257.784 103.558 258.246C102.569 258.709 100.186 259.513 98.2631 260.033C94.521 261.044 91.6085 263.987 90.8417 267.53C90.5857 268.716 90.0277 270.623 89.6011 271.77C88.6692 274.276 90.7261 280.454 94.1707 285.49C95.4135 287.308 97.5209 291.079 98.8537 293.87C102.039 300.545 104.171 302.599 105.443 300.223C107.078 297.168 106.391 293.663 103.004 287.79C93.5588 271.406 100.003 263.138 116.143 270.936C118.09 271.876 120.807 272.871 122.179 273.145C123.551 273.419 124.674 273.91 124.674 274.234C124.674 274.559 125.142 274.87 125.714 274.925C126.287 274.98 128.806 275.604 131.312 276.314C148.08 281.056 165.585 276.126 175.752 263.798C180.832 257.64 181.388 257.391 180.744 261.563C179.32 270.773 168.93 280.116 157.794 282.201C156.075 282.523 154.669 283.058 154.669 283.39C154.669 283.723 152.513 284.595 149.878 285.328C144.099 286.936 138.588 291.375 136.285 296.276L134.653 299.748L136.741 304.076C138.892 308.537 143.172 312.072 147.517 312.98C148.7 313.227 150.561 313.612 151.65 313.837C158.737 315.292 155.842 324.347 147.632 326.407C144.44 327.209 145.173 329.604 148.714 329.944C150.243 330.091 152.115 329.938 152.874 329.604C153.632 329.269 154.522 329.051 154.851 329.12C155.181 329.188 156.962 327.805 158.809 326.048C165.91 319.294 161.988 309.386 151.391 307.306C139.29 304.93 145.499 295.799 161.048 293.105C165.102 292.403 169.992 291.064 171.918 290.131C173.843 289.197 175.718 288.429 176.083 288.425C176.449 288.42 178.984 286.737 181.717 284.686C188.904 279.291 191.158 276.19 197.24 263.331C197.593 262.586 198.136 260.621 198.446 258.965C199.106 255.446 200.14 255.666 200.909 259.489C201.95 264.662 206.636 274.188 210.169 278.317C213.195 281.851 221.159 287.524 225.492 289.231C227.095 289.863 228.809 290.681 229.298 291.05C229.788 291.418 232.975 292.158 236.381 292.693C248.605 294.613 253.82 297.399 253.82 302.005C253.82 304.776 248.871 308.486 246.133 307.769C244.943 307.458 240.169 310.626 238.539 312.81C233.34 319.772 240.543 330.613 249.911 329.931C254.343 329.608 255.282 327.215 251.319 326.344C242.403 324.386 240.965 315.403 249.238 313.356C251.071 312.902 252.946 312.434 253.404 312.316C268.022 308.533 265.861 290.382 250.213 285.518C247.844 284.781 245.338 283.876 244.645 283.507C243.952 283.137 241.162 282.188 238.445 281.398C229.287 278.736 221.003 271.35 219.146 264.188C217.559 258.068 218.239 258.098 223.87 264.398C232.862 274.458 240.025 277.609 253.973 277.644C261.541 277.663 272.174 275.932 274.177 274.354C274.666 273.968 276.567 273.18 278.401 272.602C280.233 272.024 282.108 271.324 282.566 271.048C283.025 270.772 283.587 270.508 283.817 270.463C284.046 270.417 285.289 269.943 286.579 269.409C293.951 266.354 305.946 272.469 301.434 276.982C300.91 277.506 300.477 278.516 300.474 279.227C300.471 279.937 298.784 283.467 296.725 287.072C293.187 293.264 292.328 296.594 293.487 299.614C294.646 302.631 297.919 300.152 299.568 295.006C300.099 293.351 302.303 289.415 304.464 286.258L308.396 280.518V273.282C308.396 264.069 304.873 259.532 297.147 258.795C296.002 258.686 293.475 258.325 291.531 257.992C289.167 257.587 287.595 257.723 286.778 258.401C286.105 258.958 285.21 259.202 284.788 258.94C283.912 258.399 270.525 261.598 269.19 262.668C261.18 269.084 233.824 261.332 233.824 252.645C233.824 251.707 237.664 252.282 239.239 253.457C242.299 255.737 259.561 257.255 268.333 256.015C284.453 253.737 299.493 239.56 303.77 222.61C304.29 220.548 305.064 218.11 305.489 217.194C305.914 216.278 307.012 211.538 307.928 206.661C311.417 188.097 318.497 182.601 334.017 186.414C335.965 186.892 336.309 186.716 336.309 185.234C336.309 183.079 333.351 181.475 326.944 180.154C314.694 177.629 304.045 186.821 299.212 204.094C298.407 206.97 297.426 209.523 297.032 209.767C296.638 210.011 296.314 210.773 296.314 211.461C296.314 217.372 285.225 233.247 278.451 237.033C269.816 241.859 251.904 242.671 242.156 238.68C241.469 238.398 240.719 238.127 240.49 238.075C235.288 236.905 237.018 234.274 242.989 234.274C245.685 234.274 248.137 233.875 248.44 233.385C248.742 232.896 249.562 232.715 250.261 232.982C250.961 233.25 251.953 233.155 252.468 232.769C252.983 232.383 255.091 231.585 257.154 230.996C270.72 227.121 288.645 207.172 290.894 193.448C291.231 191.385 291.72 189.342 291.98 188.907C293.327 186.652 294.262 165.52 293.123 163.08C292.684 162.139 291.909 158.882 291.401 155.842C288.851 140.591 280.891 128.146 260.022 106.784C241.849 88.1808 238.858 82.6221 242.932 75.0199C245.414 70.3886 241.809 68.0634 238.259 72.0076C231.847 79.1315 234.466 88.5716 247.106 103.891C275.171 137.903 284.117 160.157 279.584 184.676C277.221 197.463 258.95 215.454 246.452 217.302C245.693 217.414 243.527 217.76 241.638 218.07C239.436 218.432 238.001 218.302 237.632 217.706C237.317 217.195 236.302 216.777 235.377 216.777C229.618 216.777 227.086 208.032 230.793 200.947C243.074 177.471 247.762 167.055 249.728 158.869C250.278 156.578 251.143 154.177 251.65 153.534C252.909 151.936 252.881 129.37 251.616 126.714C251.092 125.61 249.621 122.458 248.348 119.709C244.285 110.929 232.417 101.09 221.742 97.6512C219.909 97.0607 218.034 96.2826 217.574 95.9222C211.546 91.1921 189.151 91.8837 177.622 97.1572C175.053 98.3328 172.722 99.295 172.443 99.295C166.999 99.295 151 116.21 149.194 123.874C148.871 125.25 148.19 126.901 147.68 127.544C146.447 129.101 146.428 150.277 147.657 151.868C148.154 152.511 149.038 155.287 149.623 158.036C150.207 160.786 151.394 164.609 152.261 166.531C153.126 168.453 153.836 170.225 153.836 170.467C153.836 171.097 158.596 181.649 160.444 185.116C169.331 201.783 170.794 205.386 170.268 209.304C169.48 215.182 162.371 219.366 155.563 217.959C153.926 217.619 152.173 217.257 151.669 217.152C150.58 216.926 144.06 213.718 138.926 210.884C130.541 206.255 122.146 195.303 119.998 186.19C117.87 177.161 119.351 155.608 122.347 151.996C122.822 151.422 122.931 150.954 122.59 150.954C122.248 150.954 122.342 150.485 122.796 149.912C123.251 149.339 124.104 147.371 124.693 145.538C127.656 136.315 136.291 122.661 147.154 110.022C155.182 100.683 161.849 91.2729 162.624 88.1876C162.932 86.9559 163.519 85.7411 163.926 85.4896C165.146 84.7351 164.765 78.9215 163.295 75.8845C160.618 70.3493 157.763 68.6573 155.568 71.3025ZM188.732 209.711C191.712 213.105 192.57 215.787 191.84 219.436C189.991 228.683 179.158 224.117 179.309 214.154C179.421 206.723 184.151 204.492 188.732 209.711ZM218.309 208.333C220.536 210.797 220.262 216.688 217.733 220.695C213.653 227.159 207.161 225.163 207.161 217.443C207.161 209.612 214.234 203.832 218.309 208.333Z" fill="#FF0000"/>
</svg>
