<svg width="400" height="400" viewBox="0 0 400 400" fill="none" xmlns="http://www.w3.org/2000/svg">
<path fill-rule="evenodd" clip-rule="evenodd" d="M194.061 89.9676C180.624 91.5336 161.267 97.479 135.931 107.823C95.8331 124.193 77.4993 127.947 61.9736 122.967C58.2223 121.764 60.132 124.964 65.0693 128.155C77.6069 136.258 105.997 134.154 129.819 123.355C131.632 122.532 150.637 116.318 160.877 113.199C166.606 111.453 175.053 109.563 183.607 108.112C184.951 107.884 186.968 107.541 188.088 107.351C211.297 103.404 231.26 105.9 256.545 115.908C290.087 129.185 328.783 137.733 338.022 133.906C341.278 132.557 341.095 132.439 333.031 130.675C312.802 126.252 294.024 119.437 269.608 107.657C233.639 90.3047 219.526 87.0004 194.061 89.9676ZM192.571 120.869C178.023 123.092 164.849 127.056 117.187 143.546C85.7948 154.406 77.5938 155.238 67.6884 148.568C61.5475 144.432 61.5596 144.41 61.1269 161.143C60.6569 179.264 60.3088 178.507 67.4347 174.85C78.5283 169.158 86.8611 170.354 103.741 180.061C153.841 208.871 210.531 218.167 239.952 202.398C247.725 198.233 246.594 199.969 228.303 220.284C221.644 227.68 212.929 237.581 208.937 242.288C170.546 287.552 132.537 306.631 101.562 296.187C87.6276 291.49 78.9247 274.69 83.5623 261.44C88.4611 247.438 110.555 241.378 117.166 252.222C119.828 256.587 118.787 258.658 115.451 255.638C109.522 250.272 98.1513 256.238 96.1032 265.788C92.722 281.552 111.097 291.677 122.462 280.313C141.938 260.836 119.115 226.855 92.5046 235.711C70.1812 243.139 62.784 276.147 79.2146 295.009C90.5762 308.053 120.608 315.405 137.027 309.163C137.994 308.795 139.15 308.451 139.599 308.396C145.14 307.723 163.01 299.575 171.697 293.761C188.38 282.593 198.542 272.486 219.754 245.956C251.991 205.638 265.292 192.032 268.924 195.663C270.646 197.385 271.32 212.041 271.872 259.742C272.27 294.15 272.702 308.661 273.336 308.871C273.856 309.045 276.055 303.909 278.545 296.715C289.236 265.817 299.437 245.883 312.897 229.585C319.259 221.882 319.069 221.536 309.794 223.952C292.37 228.489 280.25 222.163 277.729 207.211C274.401 187.485 286.104 177.218 322.149 168.242C340.107 163.77 340.753 163.043 329.891 159.532C326.082 158.299 320.764 156.444 318.075 155.409C315.386 154.375 308.234 151.701 302.184 149.468C291.143 145.395 283.685 142.277 268.154 135.24C263.556 133.157 259.61 131.454 259.384 131.454C259.158 131.454 257.418 130.725 255.517 129.834C236.194 120.776 213.922 117.604 192.571 120.869ZM179.681 141.029C179.434 141.814 178.62 144.106 177.871 146.123C171.662 162.85 184.782 185.905 203.455 191.084C228.184 197.941 252.488 171.187 244.737 145.641C244.07 143.44 243.52 141.548 243.515 141.436C243.446 139.854 269.504 148.946 284.033 155.577C285.481 156.237 288.048 157.27 289.738 157.872C294.925 159.72 301.368 162.699 301.368 163.248C301.368 167.423 260.98 185.944 233.727 194.265C211.319 201.108 174.705 198.264 141.636 187.111C129.262 182.938 102.018 170.949 98.1853 167.99C95.3169 165.775 105.587 160.948 129.404 153.317C135.011 151.522 140.333 149.726 141.229 149.329C151.723 144.675 180.487 138.467 179.681 141.029Z" fill="#0000FF"/>
</svg>
