<svg width="400" height="400" viewBox="0 0 400 400" fill="none" xmlns="http://www.w3.org/2000/svg">
<path style="fill:#FF0000;" d="M230.915,327.101
	c45.915-12.21,79.892-43.751,94.008-87.269c6.794-20.943,6.766-51.546-0.066-71.502c-15.305-44.708-46.688-73.992-91.86-85.713
	c-9.455-2.453-20.722-6.316-25.038-8.585c-7.942-4.174-16.256-5.106-25.011-2.804l-4.802,1.262l4.802,3.93
	c5.948,4.868,3.307,5.288-3.946,0.628c-5.128-3.295-5.584-3.204-10.612,2.117c-2.89,3.058-6.781,5.56-8.648,5.56
	c-1.867,0-10.096,3.31-18.287,7.355c-9.819,4.85-15.181,6.506-15.739,4.863c-1.173-3.45-21.059,13.157-21.059,17.586
	c0,1.93-3.758,8.157-8.351,13.839c-18.232,22.553-25.966,45.55-26.295,78.181c-0.245,24.32,3.673,39.258,15.937,60.765
	c15.409,27.021,49.208,51.563,82.291,59.752C183.985,330.963,216.323,330.981,230.915,327.101z M173.068,320.458
	c-55.163-12.223-96.469-60.833-96.469-113.527c0-24.917,10.806-56.806,24.761-73.07c5.543-6.46,5.664-6.49,11.988-2.961
	c6.994,3.903,8.541,8.856,2.766,8.856c-3.2,0-3.134,0.412,0.54,3.348c4.132,3.302,4.13,3.331-0.127,2.111
	c-4.316-1.236-4.316-1.236,0,1.858c7.874,5.644,22.662,25.003,22.662,29.668c0,7.915,22.01,11.605,39.49,6.622
	c13.99-3.989,15.677-5.788,12.718-13.572c-1.19-3.131-2.89-7.598-3.777-9.926c-0.887-2.328-1.385-6.004-1.106-8.169
	c0.305-2.363-0.425-3.37-1.827-2.521c-1.284,0.778-2.334,3.147-2.334,5.264c0,6.56-5.627,9.29-16.217,7.866
	c-7.789-1.047-9.682-0.675-9.682,1.901c0,1.761,2.185,4.064,4.856,5.117c3.286,1.295,3.72,1.958,1.343,2.048
	c-3.925,0.15-8.463-4.368-9.177-9.137c-0.258-1.722-4.924-7.501-10.37-12.842c-11.79-11.562-15.843-19.976-13.543-28.115
	c0.911-3.224,1.454-7.88,1.206-10.347c-0.31-3.094,1.763-5.756,6.682-8.581c11.549-6.632,25.477-11.521,25.477-8.943
	c0,1.264-2.03,2.818-4.51,3.454c-3.623,0.929-4.241,2.243-3.141,6.681c0.753,3.038,1.75,7.905,2.216,10.816
	c0.466,2.91,1.32,7.196,1.897,9.525c0.577,2.328,1.124,5.424,1.215,6.879c0.091,1.455,2.519,2.646,5.395,2.646
	c2.877,0,8.116,2.381,11.642,5.292c9.401,7.758,17.35,6.911,29.795-3.175c7.394-5.992,12.472-8.466,17.377-8.466
	c5.955,0,6.803-0.648,6.026-4.606c-0.497-2.533,0.128-5.825,1.389-7.315c1.301-1.537,1.516-3.895,0.497-5.448
	c-0.988-1.506-1.8-5.596-1.805-9.088c-0.006-4.97-1.063-6.497-4.864-7.026c-2.671-0.372-4.856-2.015-4.856-3.651
	c0-4.425,10.92-1.841,31.295,7.407c29.617,13.443,53.44,39.269,63.999,69.379c7.215,20.574,6.955,54.586-0.578,75.707
	c-13.685,38.369-45.353,66.628-86.518,77.204C209.803,324.655,193.128,324.903,173.068,320.458z M224.44,317.479
	c55.073-13.042,92.371-55.584,92.093-105.041c-0.154-27.419-6.97-45.734-24.116-64.8c-11.236-12.494-23.362-20.748-38.84-26.436
	c-6.529-2.399-13.628-5.045-15.776-5.878c-3.421-1.327-3.822-0.497-3.237,6.697l0.668,8.212l-9.129,0.649
	c-6.722,0.478-10.834,2.322-15.599,6.994c-6.452,6.327-13.014,23.133-13.074,33.486c-0.059,10.079-4.805,15.085-20.472,21.592
	l-15.108,6.275l-12.197-3.55c-21.991-6.401-39.319-0.508-52.471,17.844c-5.828,8.133-6.553,10.827-6.54,24.31
	c0.012,12.805,1.003,16.917,6.372,26.443c7.006,12.432,26.385,31.175,40.796,39.458c16.926,9.728,33.388,14.097,56.414,14.971
	C206.095,319.154,219.692,318.603,224.44,317.479z M175.789,310.321c-40.15-7.025-75.297-37.575-79.058-68.717
	c-2.692-22.29,14.512-41.374,37.297-41.374c15.738,0,18.181,2.971,8.435,10.261c-4.244,3.175-9.388,7.489-11.43,9.588
	c-2.043,2.099-5.794,4.442-8.337,5.207c-2.543,0.765-5.143,3.34-5.778,5.721c-0.804,3.015-0.288,4.004,1.699,3.256
	c2.139-0.805,2.627,0.877,1.949,6.712c-0.704,6.052,0.306,9.2,4.532,14.136c3.999,4.67,5.44,5.403,5.448,2.771
	c0.006-1.968-0.96-4.168-2.148-4.887c-3.622-2.195-2.415-4.96,2.477-5.673c5.175-0.755,10.147-6.992,7.581-9.509
	c-0.913-0.895-2.525-0.254-3.583,1.425c-1.058,1.679-2.538,2.449-3.29,1.713c-0.751-0.737,1.624-3.508,5.278-6.157
	c3.654-2.65,6.644-6.543,6.644-8.653c0-2.424,1.588-3.835,4.317-3.835c2.374,0,4.385-1.191,4.468-2.646
	c0.083-1.455,0.986-0.741,2.007,1.587c1.586,3.62,1.877,3.696,2.007,0.529c0.083-2.037,1.227-3.704,2.541-3.704
	c1.314,0,1.811,1.478,1.104,3.285c-0.737,1.884-0.375,2.733,0.848,1.992c1.173-0.711,2.134-2.666,2.134-4.343
	c0-1.677,0.971-3.05,2.158-3.05c2.757,0,2.719,1.368-0.185,6.689c-2.072,3.797-1.822,4.132,2.158,2.893
	c4.064-1.265,4.502-0.557,4.502,7.276c0,18.222-10.057,30.504-27.023,32.999c-18.424,2.71-35.567-11.553-35.567-29.592
	c0-11.027,4.582-17.486,15.91-22.429c6.965-3.039,7.827-3.92,3.947-4.037c-16.428-0.495-28.534,17.971-24.186,36.891
	c2.601,11.321,15.657,23.343,27.477,25.301c28.536,4.728,52.147-19.957,45.995-48.088c-1.843-8.428-1.756-11.139,0.403-12.518
	c6.231-3.979,10.945-0.754,14.479,9.906c4.2,12.665,15.275,29.426,30.45,46.081c15.739,17.273,11.82,22.849-10.663,15.171
	c-9.442-3.225-21.799-2.456-21.799,1.356c0,1.072,3.457,1.948,7.681,1.948c4.571,0,7.141,0.857,6.347,2.117
	c-0.734,1.164-4.643,2.117-8.687,2.117c-7.829,0-22.608,5.884-22.608,9.001c0,2.282,8.161-0.052,13.969-3.995
	c2.342-1.589,5.741-2.874,7.554-2.854c1.813,0.02-1.559,2.861-7.495,6.314c-5.935,3.453-9.334,6.26-7.554,6.239
	c1.781-0.021,5.665-1.4,8.633-3.064c2.968-1.664,6.852-3.016,8.633-3.004c1.781,0.011-1.133,2.316-6.475,5.121
	c-6.4,3.361-8.24,5.107-5.396,5.121c2.374,0.011,6.745-1.341,9.712-3.004c2.968-1.664,10.388-3.059,16.491-3.1
	c6.289-0.043,15.17-1.888,20.503-4.262c5.175-2.303,11.684-4.208,14.466-4.233c3.219-0.03,5.469-1.586,6.187-4.28
	c0.621-2.328,2.23-4.248,3.575-4.266c1.345-0.018,0.989-0.956-0.791-2.084c-2.878-1.824-2.878-2.056,0-2.092
	c1.781-0.022,0.246-1.829-3.409-4.015c-7.157-4.28-9.415-8.687-15.184-29.635c-4.351-15.798-15.557-29.056-26.345-31.172
	c-3.734-0.732-6.262-2.168-5.618-3.191c1.563-2.48,6.947-2.36,10.18,0.226c1.434,1.147,5.588,4.42,9.232,7.275
	c7.179,5.624,11.727,14.549,17.029,33.421c4.009,14.268,13.471,22.879,25.828,23.503c4.231,0.214,7.697,1.072,7.702,1.908
	c0.014,2.237-21.295,17.449-31.285,22.333c-7.477,3.656-13.678,5.303-36.69,9.747C199.115,313.548,192.099,313.175,175.789,310.321
	z M244.341,287.834c0.633-2.374,1.633-3.844,2.223-3.266c1.168,1.145-0.895,7.583-2.429,7.583
	C243.615,292.151,243.707,290.208,244.341,287.834z M284.941,276.603c0.824-7.365,5.628-13.8,10.058-13.472
	c4.994,0.369,4.994,0.37-2.035,10.116C286.112,282.75,284.162,283.566,284.941,276.603z M203.937,240.169
	c0-0.513,0.971-0.933,2.158-0.933s2.158,1.009,2.158,2.242s-0.971,1.653-2.158,0.933
	C204.908,241.691,203.937,240.683,203.937,240.169z M270.966,200.088c-3.894-9.577-12.509-19.722-19.951-23.496
	c-6.177-3.133-7.25-3.095-14.971,0.531c-4.575,2.148-8.329,4.384-8.342,4.968c-0.014,0.584,4.21,3.265,9.386,5.958
	c11.783,6.13,23.73,17.996,29.189,28.99c2.305,4.641,3.831,8.794,3.392,9.229c-0.439,0.434-5.386-3.171-10.994-8.012
	c-5.608-4.841-16.123-11.576-23.367-14.966c-9.337-4.37-13.267-7.417-13.501-10.467c-0.182-2.366,0.583-4.856,1.698-5.532
	c1.116-0.676,1.435-3.55,0.709-6.387c-0.726-2.836-0.751-6.609-0.057-8.385c1.039-2.655,2.016-2.766,5.508-0.628
	c3.53,2.162,4.992,1.936,8.682-1.338c2.44-2.166,4.437-6.172,4.437-8.902c0-2.73,1.048-4.963,2.33-4.963
	c1.498,0,1.793,2.456,0.827,6.879c-0.827,3.783-0.753,6.175,0.164,5.315c0.917-0.86,2.457-5.146,3.423-9.525
	c1.542-6.99,1.635-6.671,0.758,2.622c-0.694,7.359-0.355,9.616,1.112,7.408c1.161-1.746,2.155-6.509,2.209-10.583
	c0.082-6.149,0.479-6.767,2.336-3.638c1.568,2.643,1.487,6.002-0.273,11.23c-2.391,7.104-2.157,7.796,4.886,14.504
	c10.62,10.115,15.358,21.158,15.947,37.168l0.506,13.758l-1.734-12.7C274.325,212.143,272.385,203.575,270.966,200.088z
	 M214.827,198.839c1.325-2.428,2.936-3.898,3.58-3.266c1.779,1.745-1.071,7.681-3.687,7.681
	C213.123,203.254,213.156,201.9,214.827,198.839z M297.083,161.122c-10.994-16.639-24.97-26.651-48.672-34.866
	c-7.772-2.694-1.569-3.845,6.639-1.232c11.825,3.764,29.035,15.426,36.486,24.723c7.14,8.91,13.839,18.893,13.839,20.625
	C305.375,172.961,303.589,170.969,297.083,161.122z M181.984,138.369c-2.171-1.927-3.947-6.236-3.947-9.577
	c0-4.532-1.37-6.585-5.396-8.086c-5.619-2.095-6.084-3.26-5.499-13.758c0.381-6.839,6.898-13.758,12.957-13.758
	c2.059,0,5.501,1.905,7.65,4.234l3.907,4.234l3.024-4.234c3.433-4.807,13.096-5.646,18.292-1.589
	c4.423,3.454,6.49,17.212,3.207,21.334c-1.393,1.748-4.474,3.515-6.849,3.925c-3.182,0.551-4.151,2.137-3.688,6.036
	C207.01,138.633,190.901,146.283,181.984,138.369z M208.175,111.274c3.204-3.786,1.173-7.501-4.101-7.501
	c-4.756,0-9.676,5.316-7.749,8.374C198.346,115.355,205.145,114.854,208.175,111.274z M187.553,112.552
	c0.626-0.993-0.12-3.491-1.656-5.551c-3.166-4.246-12.176-2.781-12.176,1.98C173.721,113.5,185.104,116.439,187.553,112.552z
	 M194.231,105.88c2.57-4.079,10.503-5.984,15.101-3.626c3.861,1.98,4.004,1.841,1.354-1.308c-3.944-4.689-9.54-4.451-14.205,0.604
	c-3.771,4.087-3.864,4.085-9.817-0.231c-4.714-3.418-6.873-3.865-10.016-2.074c-3.532,2.013-3.26,2.291,2.298,2.348
	c3.468,0.035,7.985,1.555,10.037,3.377C191.635,107.323,193.155,107.587,194.231,105.88z M121.923,114.482
	c0-1.095,0.971-2.58,2.158-3.3c1.187-0.719,2.158,0.177,2.158,1.992c0,1.815-0.971,3.3-2.158,3.3
	C122.894,116.473,121.923,115.577,121.923,114.482z M159.467,102.23c2.194-2.152,4.004,1.088,2.204,3.944
	c-1.36,2.158-1.868,2.159-2.599,0.009C158.572,104.712,158.75,102.934,159.467,102.23z M223.361,101.657
	c0-1.164,0.971-2.117,2.158-2.117c1.187,0,2.158,0.952,2.158,2.117c0,1.164-0.971,2.117-2.158,2.117
	C224.332,103.774,223.361,102.821,223.361,101.657z M193.145,73.891c0-1.164,0.971-1.528,2.158-0.808
	c1.187,0.719,2.158,2.261,2.158,3.425c0,1.164-0.971,1.528-2.158,0.808C194.116,76.597,193.145,75.056,193.145,73.891z
	 M186.395,74.67c-2.685-3.357-2.608-3.432,0.815-0.799c2.077,1.598,3.777,3.265,3.777,3.704
	C190.987,79.317,189.215,78.196,186.395,74.67z"/>
</svg>
