<svg width="400" height="400" viewBox="0 0 400 400" fill="none" xmlns="http://www.w3.org/2000/svg">
<path style="fill:#FF0000;" d="M186.095,168.937c-0.242,1.045-1.486,1.91-2.768,1.661c-1.202-0.234-2.085-1.381-1.943-2.578
	c0.121-1.015,0.95-1.825,1.845-1.977C184.765,165.783,186.435,167.47,186.095,168.937z M197.638,178.988
	c-1.701,0.247-3.036,1.997-2.727,3.69c0.306,1.677,2.071,2.391,3.247,2.552c1.287,0.177,2.557-0.272,3.087-1.258
	c0.43-0.8,0.205-1.658,0.114-1.996C201.006,180.662,199.644,178.697,197.638,178.988z M265.549,293.566
	c-1.88,14.213-6.09,27.08-20.318,34.072c-5.426,2.667-11.067,2.937-16.418,1.501c-14.042-3.767-23.983-11.621-27.905-26.9
	c-4.093-15.949-10.311-31.336-15.051-47.135c-4.908-16.358-9.101-32.931-13.718-49.378c-1.875-6.679-3.905-13.322-6.108-19.9
	c-4.763-14.224-9.712-28.385-14.512-42.597c-0.825-2.443-1.788-4.338-4.674-4.907c-3.96-0.781-5.97-3.689-6.63-7.492
	c-0.67-3.86,1.231-6.731,4.469-8.307c1.66-0.808,2.548-1.705,2.908-2.71c0.484-1.351-0.067-2.758-0.954-5.016
	c-0.253-0.644-0.679-1.516-1.532-3.261c-0.604-1.237-1.112-2.244-1.272-2.556c0,0-6.111-11.973-9.341-20.638
	c-0.096-0.258-0.317-0.877-0.066-1.462c0.353-0.821,1.426-1.087,1.746-1.169c6.036-1.55,11.964-3.508,17.86-5.527
	c7.785-2.665,15.449-5.685,23.175-8.523c1.573-0.578,3.159-1.193,4.794-1.516c2.84-0.562,4.454,0.467,5.133,3.584
	c1.918,8.804,4.187,17.53,6.23,26.308c1.247,5.358,1.173,5.375,6.504,4.262c6.09-1.271,12.087,2.976,12.278,9.155
	c0.051,1.659-1.352,3.741-2.689,4.974c-1.796,1.657-2.194,2.956-1.347,5.32c8.354,23.324,16.614,46.682,24.811,70.062
	c10.618,30.285,21.203,60.583,31.645,90.929C265.511,287.484,265.928,290.705,265.549,293.566z M180.12,77.685
	c0.631,2.532,1.566,5.004,2.011,7.565c1.324,7.626,2.491,15.288,3.763,23.27c0.797-0.258,1.453-0.458,1.909-0.594
	c1.102-0.33,1.631-0.466,2.552-0.797c0.398-0.143,0.73-0.273,1.026-0.388c0.723-0.282,1.322-0.533,1.753-0.719
	c-0.448-1.829-0.799-3.325-1.03-4.316c-1.993-8.579-4.336-17.073-6.439-25.626c-0.459-1.866-0.58-4.1-3.186-3.675
	C179.384,72.909,179.534,75.334,180.12,77.685z M166.151,128.513c8.914-2.099,17.863-4.082,26.692-6.501
	c4.471-1.225,8.798-3.107,13.028-5.047c2.48-1.137,4.333-3.276,3.361-6.347c-0.467-1.475-1.253-2.641-2.364-3.396
	c-0.966-0.657-1.842-0.76-3.493-0.972c-0.723-0.093-1.992-0.068-4.501-0.014c-2.609,0.056-3.255,0.104-4.162,0.353
	c-0.394,0.108-0.3,0.107-2.117,0.749c-0.77,0.272-1.988,0.703-3.144,1.077c-0.915,0.296-2.192,0.687-3.761,1.095
	c-1.162,0.39-2.578,0.864-4.006,1.346c-7.094,2.392-14.21,4.724-21.261,7.236c-1.26,0.449-3.002,1.476-3.236,2.525
	C156.454,123.904,162.757,129.312,166.151,128.513z M260.985,282.058c-11.554-33.896-23.087-67.799-34.795-101.641
	c-6.374-18.423-13.081-36.731-19.643-55.088c-1.65-4.617-1.636-4.521-6.298-3.296c-5.781,1.518-11.628,2.779-17.411,4.293
	c-3.475,0.91-4.113,1.026-9.268,2.37c-8.834,2.304-6.705,1.896-8.175,2.247c-0.074,0.018-0.231,0.057-0.44,0.128
	c-1.602,0.548-3.11,1.953-2.871,2.612c0.265,0.73,2.656,0.486,3.609,0.388c2.298-0.235,3.957-0.931,4.069-0.978
	c0.088-0.037,3.579-0.941,10.561-2.748c8.265-2.14,9.768-2.353,12.642-3.18c0,0,0.385-0.111,0.99-0.245
	c2.179-0.484,4.402-0.977,5.305,0.049c0.294,0.335,0.495,0.884,0.353,1.348c-0.146,0.476-0.642,0.829-3.364,1.648
	c-1.962,0.59-2.518,0.65-2.839,1.218c-0.262,0.464-0.079,0.753-0.029,2.083c0.044,1.18,0.192,2.434-0.267,3.153
	c-0.689,1.079-2.13,1.494-3.885,1.903c-6.184,1.441-12.271,3.298-18.435,4.834c-3.498,0.871-3.785,2.881-2.84,5.92
	c4.451,14.312,8.71,28.683,13.101,43.014c0.686,2.239,1.739,5.846,2.815,10.405c2.439-0.143,4.391-0.293,5.578-0.389
	c11.547-0.938,23.139-1.267,34.686-2.218c3.506-0.289,4.985,0.908,6.104,4.076c7.367,20.863,15.011,41.627,22.322,62.509
	c3.091,8.829,6.176,17.681,5.358,27.405c-1.089,12.945-11.959,23.442-24.938,23.576c-1.311,0.014-2.619,0.227-4.953,0.443
	c1.681,1.321,2.313,2.027,3.101,2.405c9.972,4.782,25.095-1.434,28.954-12.289C263.083,299.564,263.961,290.787,260.985,282.058z
	 M203.41,172.746c-0.638-0.381-1.489-0.155-1.861,0.494c-0.373,0.65-0.138,1.505,0.526,1.861c0.657,0.353,1.485,0.083,1.828-0.564
	C204.234,173.913,204.021,173.111,203.41,172.746z M171.421,121.853c2.921-0.325,3.868-1.365,7.136-2.601
	c2.599-0.983,1.976-0.316,6.949-1.826c2.213-0.672,3.221-1.072,4.859-0.952c1.176,0.086,1.372,0.345,3.259,0.491
	c0.782,0.06,1.82-0.107,3.897-0.442c0.184-0.03,0.604-0.101,0.646-0.303c0.036-0.175-0.225-0.368-0.367-0.468
	c-3.975-2.8-6.009-2.792-6.009-2.792c-1.036,0.004-1.868,0.239-3.217,0.618c-1.103,0.31-1.887,0.643-2.16,0.747
	c-3.924,1.491-14.853,5.145-16.333,5.596c-0.108,0.033-0.717,0.218-1.234,0.751c-0.182,0.188-0.559,0.576-0.477,0.847
	C168.563,122.158,171.221,121.875,171.421,121.853z"/>
</svg>
