<svg width="400" height="400" viewBox="0 0 400 400" fill="none" xmlns="http://www.w3.org/2000/svg">
<path fill-rule="evenodd" clip-rule="evenodd" d="M175.574 72.4348C172.497 73.7389 165.782 76.2679 160.652 78.0546C155.522 79.8413 149.983 81.7969 148.341 82.399C146.7 83.0022 144.248 83.5124 142.892 83.5331C141.537 83.5537 138.755 84.4063 136.711 85.4266C133.035 87.2627 131.914 88.6864 134.143 88.6864C136.136 88.6864 149.657 119.079 148.357 120.644C147.765 121.357 146.785 121.942 146.181 121.942C144.416 121.942 140.667 126.991 140.667 129.368C140.667 133.02 143.678 136.901 147.37 138.006C150.944 139.077 151.048 139.25 154.196 149.228C158.856 163.999 165.207 181.902 168.619 189.881C169.987 193.082 171.59 198.002 172.181 200.816C172.77 203.63 173.626 207.084 174.081 208.49C174.536 209.898 176.196 216.037 177.773 222.133C181.615 237.005 182.193 239.062 184.48 246.009C185.561 249.293 187.12 254.088 187.945 256.668C188.77 259.248 189.963 262.508 190.596 263.916C191.23 265.322 192.557 269.702 193.548 273.648C194.537 277.594 196.039 282.198 196.883 283.88C197.728 285.562 198.871 288.857 199.425 291.203C204.603 313.166 210.962 322.413 223.806 326.659C227.088 327.743 229.902 328.94 230.059 329.315C230.215 329.692 232.957 330 236.153 330C245.591 330 253.867 324.935 260.388 315.172C263.292 310.823 263.244 309.29 260.321 313.041C258.006 316.011 252.836 320.247 248.96 322.351C245.243 324.368 235.366 323.944 232.119 321.628C227.997 318.688 228.518 317.453 233.877 317.453C254.631 317.453 265.431 294.816 255.35 272.443C254.716 271.036 253.036 266.431 251.616 262.211C250.196 257.989 247.26 249.548 245.092 243.451C242.925 237.354 239.274 226.994 236.978 220.428C229.17 198.092 230.432 200.057 224.394 200.812C221.783 201.139 215.019 201.537 209.363 201.698C203.705 201.859 195.279 202.251 190.638 202.57L182.199 203.149L182.756 199.666C183.303 196.247 179.246 180.797 177.248 178.688C176.826 178.244 176.48 176.659 176.48 175.169C176.48 173.679 175.917 171.112 175.23 169.466C174.542 167.82 173.041 163.072 171.897 158.916C170.751 154.76 169.312 150.115 168.698 148.591C166.891 144.11 168.038 143.569 190.953 138.105C195.633 136.988 195.472 137.161 194.42 134.39C193.596 132.225 193.749 132.022 197.38 130.465C204.67 127.34 201.035 124.955 193.158 127.696C188.79 129.218 168.628 133.787 164.543 134.183C163.839 134.25 163.263 133.771 163.263 133.119C163.263 131.567 179.028 126.47 187.566 125.262C191.083 124.763 196.598 123.436 199.822 122.311C206.468 119.992 206.827 120.065 207.629 123.87C207.948 125.389 208.729 127.783 209.365 129.19C211.412 133.728 224.192 169.84 224.226 171.185C224.228 171.302 224.637 171.398 225.135 171.398C225.631 171.398 225.808 171.028 225.529 170.575C225.25 170.124 223.745 165.423 222.185 160.131C220.626 154.837 217.611 146.094 215.484 140.701C213.359 135.307 210.938 128.444 210.106 125.448L208.592 120.001L210.869 118.342C217.632 113.416 210.582 103.374 201.131 104.47C196.962 104.954 196.013 104.822 195.581 103.697C195.295 102.95 194.735 102.541 194.335 102.788C193.936 103.035 193.823 103.795 194.084 104.477C194.396 105.286 193.715 106.052 192.129 106.683C190.791 107.214 190.141 107.815 190.684 108.018C191.227 108.222 192.954 107.859 194.521 107.212C198.878 105.415 206.783 105.82 208.913 107.949C214.253 113.289 208.505 118.204 192.255 122.196C187.566 123.349 179.356 125.364 174.013 126.675L164.298 129.059L160.953 125.472C159.11 123.496 157.732 121.227 157.886 120.421C158.123 119.178 171.995 114.042 187.449 109.474C188.248 109.239 188.348 108.802 187.768 108.076C187.306 107.494 186.714 105.869 186.455 104.461C186.195 103.055 185.379 99.0251 184.643 95.508C183.906 91.9909 183.303 87.9131 183.303 86.4458C183.302 84.9785 182.778 82.4852 182.137 80.903C179.592 74.6248 179.65 73.5884 182.612 72.5566C186.042 71.3605 186.019 71.326 188.298 81.0121C191.038 92.6573 193.815 101.328 194.212 99.4652C194.397 98.5943 193.577 95.1403 192.391 91.791C191.205 88.4428 189.797 82.8241 189.263 79.307C188.729 75.7899 188.102 72.2406 187.872 71.4191C187.246 69.2015 182.224 69.6151 175.574 72.4348ZM183.302 115.242C177.908 117.054 172.44 118.735 171.151 118.977C168.649 119.445 167.981 121.442 170.061 122.241C170.751 122.505 173.414 121.762 175.979 120.587C182.032 117.816 183.312 117.532 191.129 117.231C197.344 116.991 203.816 115.21 198.706 115.146C197.563 115.132 195.836 114.406 194.868 113.534C193.143 111.978 192.913 112.012 183.302 115.242ZM182.754 167.572C181.943 169.687 184.025 171.528 186.02 170.46C187.627 169.6 187.637 169.48 186.225 167.92C184.439 165.947 183.417 165.845 182.754 167.572ZM202.483 173.962C202.192 174.435 202.57 175.057 203.323 175.347C204.956 175.973 205.866 175.283 205.081 174.013C204.372 172.867 203.175 172.844 202.483 173.962ZM225.084 174.705C225.084 175.116 225.66 175.931 226.363 176.514C227.751 177.667 227.925 177.391 227.125 175.306C226.577 173.877 225.084 173.438 225.084 174.705ZM196.592 180.697C193.821 183.759 197.411 187.074 201.264 185.011C203.262 183.943 203.379 182.217 201.575 180.413C199.803 178.641 198.379 178.722 196.592 180.697ZM230.2 186.331C230.2 186.573 230.584 187.436 231.052 188.25C231.521 189.065 232.299 190.84 232.782 192.195C233.264 193.549 233.822 194.494 234.021 194.295C234.564 193.753 231.595 185.894 230.847 185.894C230.492 185.894 230.2 186.091 230.2 186.331ZM236.373 203.956C236.646 204.664 238.071 209.14 239.539 213.902C241.009 218.663 242.57 222.56 243.009 222.56C243.502 222.56 243.5 221.828 243.002 220.642C242.56 219.586 241.205 215.376 239.992 211.284C238.778 207.193 237.356 203.581 236.832 203.257C236.232 202.886 236.062 203.144 236.373 203.956ZM245.552 231.407C245.547 232.523 250.012 242.256 250.367 241.902C250.843 241.425 248.828 236.055 247.106 233.219C246.254 231.811 245.554 230.997 245.552 231.407ZM256.691 261.532C256.66 262.096 258.406 267.852 260.573 274.323C263.793 283.943 264.531 287.29 264.623 292.7C264.709 297.823 264.991 299.217 265.87 298.881C266.495 298.645 267.166 298.451 267.362 298.451C268.496 298.451 267.607 286.651 266.44 286.204C265.736 285.934 265.161 284.765 265.161 283.605C265.161 282.445 264.834 281.295 264.436 281.049C264.037 280.802 262.862 277.806 261.823 274.39C260.785 270.974 259.623 267.412 259.24 266.474C257.208 261.497 256.744 260.596 256.691 261.532Z" fill="#FF0000"/>
</svg>
