<svg width="400" height="400" viewBox="0 0 400 400" fill="none" xmlns="http://www.w3.org/2000/svg">
<path style="fill:#0000FF;" d="M237.799,166.221c-2.788-11.457-4.806-22.085-13.001-30.298c-3.732-3.74-6.25-8.614-8.202-13.581
	c-1.667-4.242,1.799-5.456,4.664-6.573c9.804-3.824,20.054-4.316,30.478-4.574c6.693-0.166,13.415-1.028,19.917,0.604
	c6.756,1.695,13.439,4.044,17.525,10.441c1.184,1.854-0.156,3.756-0.055,5.674c0.323,6.108,5.817,7.989,9.223,11.38
	c7.406,7.375,15.297,14.32,20.58,23.458c3.119,5.395,7.566,9.506,11.645,14.006c0.37,0.408,0.593,0.843,0.669,1.302
	c0.035,0.206,0.178,0.876-0.155,1.315c-0.435,0.576-1.464,0.475-1.69,0.458c-2.732-0.201-22.156,2.026-31.108,4.681
	c-2.292,0.68-8.031,4.038-19.373,10.978c-8.907,5.45-13.264,8.313-15.979,10.117c-4.967,3.3-9.485,7.193-15.255,9.302
	c-7.296,2.668-13.469,0.989-19.239-3.66c-4.276-3.445-9.464-5.437-13.746-8.997c-4.862-4.041-8.704-8.673-11.852-14.103
	c-2.592-4.47-2.393-9.754-4.775-14.284c-1.078-2.05,1.4-2.944,2.722-3.212c9.285-1.883,14.409-2.133,14.409-2.133
	c3.346,0.218,7.605,0.495,12.572,2.626c6.216,2.667,10.028,6.73,11.291,5.636c0.569-0.494,0.355-1.806,0.13-2.47
	c-0.46-1.355-1.666-2.064-2.329-2.443c-5.527-3.149-7.373-3.686-7.373-3.686c-6.263-1.822-11.069-3.221-17.941-2.931
	c-3.423,0.144-6.417,0.736-12.345,2.174c-4.951,1.202-9.793,2.849-14.734,4.102c-6.33,1.604-12.51,3.606-18.599,5.97
	c-5.498,2.135-11.152,3.863-16.658,5.978c-3.827,1.47-7.706,2.973-11.223,5.037c-4.01,2.354-0.961,5.811-0.135,8.326
	c2.119,6.45,4.812,12.734,7.615,18.931c2.885,6.379,6.33,12.504,9.23,18.876c2.16,4.744,3.774,9.734,5.755,14.564
	c3.132,7.637,6.428,15.208,9.54,22.853c2.572,6.32,4.689,12.842,7.548,19.024c2.423,5.238,5.314,10.25,7.248,15.732
	c1.964,5.567,4.216,11.033,6.207,16.591c0.963,2.689-1.067,4.615-2.573,6.219c-1.091,1.162-2.256-0.713-2.808-1.607
	c-6.99-11.336-12.323-23.551-18.598-35.259c-4.399-8.207-7.825-16.794-11.303-25.341c-3.329-8.182-7.665-15.868-10.774-24.167
	c-3.425-9.14-8.094-17.806-11.923-26.805c-3.331-7.828-5.972-15.954-9.42-23.726c-3.707-8.355-6.228-17.147-10.151-25.434
	c-3.63-7.669-7.245-15.372-9.577-23.655c-2.484-8.821-6.617-17.047-10.842-25.206c-3.166-6.113-5.581-12.623-9.373-18.409
	c-1.487-2.269-4.439-1.791-6.637-2.816c-6.891-3.212-9.851-9.882-7.569-16.757c3.059-9.215,7.394-11.532,17.115-10.024
	c9.222,1.431,14.883,14.384,9.881,22.286c-0.716,1.131-1.882,2.482-1.641,3.937c0.041,0.246,0.173,1.112,0.833,1.542
	c0.918,0.6,2.322,0.008,4.262-0.836c0.754-0.328,1.131-0.493,1.731-0.85c2.557-1.523,11.936-5.205,17.221-7.496
	c8.025-3.479,16.48-5.321,24.936-6.696c6.92-1.125,14.127-0.625,21.206-0.605c9.011,0.025,17.55,3.221,26.459,4.189
	c7.237,0.786,14.658,9.379,16.095,16.453c2.482,12.22,6.324,23.906,14.222,33.965c4.035,5.14,8.5,10.276,9.985,16.825
	c0.846,3.733,1.874,7.245,3.808,10.5C235.989,164.344,236.651,164.908,237.799,166.221z M174.47,105.206
	c-13.069,1.238-24.832,4.337-24.832,4.337c-0.62,0.163-9.132,2.452-17.776,6.988c-2.339,1.228-5.963,3.289-6.196,6.327
	c-0.1,1.306,0.429,2.346,0.765,2.886c4.52,7.269,9.004,14.421,10.005,23.206c0.253,2.223,1.432,4.368,4.386,3.193
	c1.701-0.677,3.379-1.572,4.835-2.677c7.129-5.411,15.705-7.585,24.009-9.748c6.159-1.604,12.97-1.444,19.418-1.004
	c7.814,0.534,15.603,0.553,23.409,0.594c1.867,0.01,2.9-1.455,3.966-2.587c0.363-0.386-0.021-1.893-0.5-2.587
	c-4.652-6.743-9.232-13.461-10.004-22.009c-0.199-2.204-1.35-4.738-3.878-4.793c-2.743-0.06-4.202-0.182-9.849-1.286
	c-1.633-0.319-1.633-0.438-3.238-0.709c-1.723-0.29-3.613-0.472-6.928-0.465C177.992,104.88,174.894,105.166,174.47,105.206z
	 M240.641,163.639c-0.168,8.032,4.028,13.779,8.874,13.289c5.432-0.549,10.11-3.464,15.373-4.718
	c8.229-1.961,16.174-5.093,24.3-7.522c4.694-1.403,9.213-2.953,12.814-6.481c4.819-4.722,4.996-9.346-0.081-12.624
	c-5.24-3.383-9.642-7.641-14.16-11.833c-1.554-1.442-2.917-3.854-5.631-2.947c-5.94,1.985-11.728,4.482-17.751,6.14
	c-8.061,2.219-15.864,5.063-23.327,8.737c-1.867,0.919-5.024,2.279-3.847,5.404C238.872,155.508,240.002,160.006,240.641,163.639z
	 M132.528,181.15c1.991-0.321,2.219-2.389,2.371-3.984c0.599-6.26,0.256-12.498-0.873-18.708
	c-1.018-5.602-1.637-11.331-4.197-16.489c-4.206-8.477-8.839-16.707-12.41-25.539c-2.298-5.683-7.83-8.98-13.464-11.385
	c-0.959-0.409-2.529-0.78-3.62,0.541c-0.957,1.159-0.585,2.163-0.062,3.327c3.231,7.2,6.551,14.365,9.576,21.652
	c2.812,6.773,6.225,13.255,8.913,20.109C122.784,160.924,127.789,170.787,132.528,181.15z M227.849,199.831
	c0.499-1.366,0.748-2.05,0.882-2.476c0.858-2.742,3.625-5.652,4.427-6.496c0,0,3.995-4.204,5.428-6.14
	c0.197-0.267,0.605-0.842,0.407-1.255c-0.129-0.269-0.48-0.393-0.746-0.407c-0.257-0.013-0.483,0.075-1.221,0.656
	c-1.16,0.913-1.754,1.604-1.909,1.787c-0.176,0.208-0.298,0.366-0.33,0.407c-1.155,1.49-3.411,3.98-4.749,5.699
	c-1.808,2.323-3.803,4.887-3.766,8.142c0.011,0.969,0.206,2.312,0.526,2.341C226.982,202.103,227.174,201.678,227.849,199.831z
	 M76.992,85.211c1.728-0.114,2.891-1.57,3.202-2.825c0.037-0.151,0.195-0.747,0.029-1.48c-0.305-1.344-1.393-2.793-3.263-2.848
	c-2.475-0.073-2.968,1.993-3.426,3.615c-0.152,0.538-0.13,0.849-0.034,1.242C73.818,84.212,75.374,85.318,76.992,85.211z"/>
</svg>
