<svg width="400" height="400" viewBox="0 0 400 400" fill="none" xmlns="http://www.w3.org/2000/svg">
<path style="fill:#B0FF30;" d="M172.11,116.972c-0.724,0.678-0.505,1.44-0.274,2.148c0.962,2.95,2.425,5.618,4.572,7.885
	c0.308,0.325,0.61,0.656,0.908,0.99c0.066,0.074,0.102,0.174,0.176,0.305c-1.404,1.424-3.214,2.383-4.741,3.891
	c1.185,0.433,2.138-0.014,3.076-0.166c1.311-0.212,2.618-0.509,3.871-0.99c2.109-0.809,4.354-0.957,6.551-1.342
	c3.216-0.565,6.407-1.311,9.641-1.724c4.849-0.619,9.722-1.02,14.627-0.927c2.547,0.048,5.101-0.198,7.644-0.107
	c2.957,0.106,5.915,0.184,8.873,0.238c0.498,0.009,1.041,0.041,1.662-0.483c-2.121-2.334-5.111-2.249-7.91-3.089
	c1.364-2.257,3.158-4.191,4.761-6.252c1.594-2.05,2.92-4.332,5.262-6.113c-1.28,0.088-2.04,0.606-2.786,1.125
	c-3.234,2.251-6.257,4.749-8.908,7.678c-0.763,0.843-1.634,1.602-2.311,2.508c-0.523,0.7-1.134,0.669-1.817,0.578
	c-0.684-0.091-0.639-0.717-0.792-1.183c-1.426-4.351-1.136-8.847-1.124-13.32c0.006-2.237,0.001-4.473,0.001-6.773
	c4.178-0.576,7.74-2.579,11.656-3.35c3.425-0.674,6.92-0.739,10.4-0.712c7.305,0.057,14.416,1.477,21.498,3.121
	c6.404,1.487,12.491,3.806,18.204,7.02c3.992,2.246,7.749,4.895,11.336,7.745c2.083,1.655,3.783,3.693,4.878,6.189
	c0.364,0.83,0.333,1.553-0.126,2.245c-1.918,2.889-2.12,6.197-2.38,9.494c-0.301,3.817,0.698,7.235,2.81,10.451
	c1.552,2.365,1.061,3.033-0.283,4.486c-1.111,1.201-2.257,2.422-2.95,3.965c-0.603,1.344-0.621,2.624,0.101,3.947
	c1.058,1.94,0.75,2.8-1.279,3.696c-0.389,0.172-0.488,0.457-0.593,0.774c-1.317,4.015-0.842,7.691,2.165,10.825
	c1.688,1.759,3.445,3.452,5.191,5.154c0.646,0.63,0.637,1.371,0.386,2.107c-0.703,2.068-0.692,4.195-0.662,6.335
	c0.013,0.969,0.071,1.911,0.392,2.846c0.298,0.868,0.242,1.764-0.162,2.62c-0.311,0.659-0.503,1.357-0.574,2.083
	c-0.073,0.748-0.19,1.504,0.791,1.84c0.255,0.087,0.503,0.404,0.612,0.673c0.458,1.13,1.388,1.728,2.365,2.337
	c1.938,1.206,2.38,2.582,1.649,4.777c-0.13,0.391-0.293,0.782-0.345,1.185c-0.089,0.687,0.23,1.136,0.948,1.203
	c1.2,0.112,2.401,0.233,3.604,0.289c1.496,0.07,2.239,0.65,2.751,2.039c0.745,2.02,1.891,3.655,4.25,3.998
	c0.541,0.079,1.084,0.224,1.592,0.426c1.139,0.453,1.642,1.499,1.346,2.682c-0.041,0.166-0.193,0.367-0.141,0.484
	c1.069,2.426-0.289,4.963,0.386,7.429c0.554,2.023,0.884,4.107,2.018,5.927c0.557,0.893,0.502,1.705,0.068,2.707
	c-1.71,3.939-3.857,7.683-5.276,11.748c-1.403,4.021-3.535,7.694-5.374,11.509c-3.895,8.077-8.82,15.516-14.138,22.692
	c-3.61,4.871-7.552,9.495-11.237,14.312c-2.873,3.756-6.072,7.23-9.125,10.828c-2.457,2.895-5.489,5.217-8.384,7.665
	c-2.632,2.226-5.152,4.593-7.873,6.703c-4.839,3.751-10.2,5.833-16.508,4.916c-7.96-1.157-15.867-0.734-23.681,1.242
	c-4.088,1.034-7.974,2.588-11.738,4.471c-1.015,0.508-2.055,0.967-3.064,1.487c-2.834,1.462-5.957,1.742-8.966,1.416
	c-3.897-0.422-7.768-1.171-11.525-2.532c-4.704-1.704-9.396-3.414-14.021-5.326c-5.862-2.424-11.502-5.285-16.93-8.536
	c-3.948-2.364-7.377-5.455-10.51-8.81c-5.716-6.122-10.873-12.724-16-19.336c-2.397-3.092-4.363-6.513-6.649-9.697
	c-2.65-3.69-5.192-7.45-7.728-11.217c-4.19-6.223-8.177-12.545-11.26-19.419c-1.909-4.256-3.986-8.438-5.575-12.829
	c-1.228-3.394-1.932-6.938-2.617-10.468c-1.168-6.016-2.28-12.047-2.023-18.231c0.071-1.719-0.024-3.447-0.075-5.17
	c-0.137-4.702,0.445-9.335,1.074-13.989c1.192-8.826,4.35-17.022,7.528-25.238c1.994-5.155,4.217-10.204,6.881-15.037
	c3.316-6.015,7.472-11.415,12.058-16.554c6.021-6.747,13.402-11.41,21.369-15.397c3.581-1.792,7.241-3.374,10.973-4.771
	c3.283-1.229,6.747-1.873,10.186-2.596c6.537-1.374,13.176-1.024,19.769-1.402c5.297-0.304,10.591-0.698,15.903-0.714
	c0.917-0.003,1.245,0.262,1.46,1.103c1.255,4.896,1.264,9.886,1.25,14.888c-0.004,1.401-0.316,2.723-0.638,4.06
	c-0.141,0.587-0.407,0.862-1.065,1.015c-2.803,0.654-5.6,1.349-8.314,2.33c-0.843,0.305-1.591,0.237-2.462-0.151
	c-3.894-1.733-6.449-4.719-8.275-8.447C172.33,117.264,172.222,117.138,172.11,116.972z M267.113,248.013
	c1.398,2.115,1.398,2.115,3.915,2.204c0.034,0.001,0.069-0.002,0.103,0.001c0.865,0.074,1.6,0.301,1.94,1.245
	c0.196,0.545,0.531,1.042,0.822,1.55c1.405,2.443,3.943,3.441,6.624,2.612c0.886-0.274,2.015,0.124,2.608,1.032
	c0.291,0.447,0.655,0.643,1.121,0.81c2.056,0.741,4.227,0.511,6.338,0.782c0.429,0.055,0.583-0.277,0.787-0.555
	c2.57-3.508,4.782-7.22,6.667-11.147c2.624-5.467,4.655-11.167,6.892-16.788c0.413-1.037,0.42-1.771-0.211-2.696
	c-0.792-1.16-1.234-2.452-0.451-3.868c0.258-0.467,0.18-1.027-0.135-1.481c-0.341-0.493-0.354-1.008-0.294-1.577
	c0.118-1.117-0.271-1.679-1.369-1.74c-0.806-0.045-1.347-0.428-1.897-0.909c-1.16-1.013-1.892-2.351-2.253-3.766
	c-0.483-1.894-1.85-2.549-3.44-2.731c-1.423-0.163-2.772-0.44-4.099-0.945c-0.97-0.37-1.272-0.869-1.03-1.874
	c0.683-2.834,0.215-4.349-2.243-5.926c-1.5-0.962-2.557-2.191-3.373-3.71c-0.144-0.268-0.397-0.473-0.393-0.82
	c0.015-1.619-0.101-3.259,0.437-4.816c0.235-0.679,0.224-1.278-0.083-1.882c-0.85-1.668-1.19-3.402-0.976-5.286
	c0.183-1.617,0.556-3.188,0.941-4.755c0.17-0.691-0.014-0.962-0.61-1.26c-1.9-0.951-3.631-2.176-4.824-3.956
	c-3.725-5.557-3.106-11.253-0.342-16.949c0.278-0.572,0.41-1.032,0.231-1.635c-0.296-0.992-0.551-2.028-0.426-3.052
	c0.407-3.339,1.208-6.571,3.092-9.428c0.261-0.395,0.225-0.649-0.008-1.002c-1.616-2.449-2.045-5.218-2.162-8.073
	c-0.192-4.686,0.717-9.228,1.799-13.738c-0.67-0.412-0.703-0.461-1.353-0.423c-2.738,0.159-5.175,1.11-7.156,3.015
	c-3.069,2.952-4.998,6.546-5.735,10.753c-0.106,0.603-0.37,0.945-0.956,1.184c-1.659,0.675-3.287,1.425-4.926,2.148
	c-1.043,0.46-1.878,1.154-2.389,2.19c-0.557,1.13-0.665,2.217,0.247,3.262c0.657,0.752,1.277,1.542,1.851,2.358
	c0.553,0.787,0.286,1.347-0.649,1.394c-0.531,0.027-1.001,0.214-1.499,0.339c-2.731,0.686-4.83,2.446-7.013,4.066
	c-0.306,0.227-0.62,0.464-0.666,0.88c-0.088,0.798-0.538,1.402-1.025,1.991c-0.357,0.433-0.666,0.907-0.695,1.474
	c-0.087,1.692-0.854,3.106-1.783,4.449c-0.783,1.13-1.159,2.371-1.424,3.719c-0.297,1.508,0.262,2.842,0.418,4.258
	c0.23,2.091,1.171,3.623,2.884,4.763c0.502,0.334,1.098,0.567,1.441,1.153c-0.366,0.473-0.712,0.944-1.083,1.396
	c-2.752,3.349-4.676,7.226-6.954,10.878c-1.161,1.861-1.085,2.543,0.562,4.067c1.199,1.109,2.608,1.945,3.96,2.886
	c-0.867,1.313-1.684,2.589-2.54,3.837c-0.813,1.186-1.469,2.403-1.36,3.914c0.097,1.344-0.068,2.66-0.303,3.997
	c-0.215,1.224-0.439,2.63,0.39,3.713c0.944,1.232,0.888,2.357,0.203,3.624c-0.309,0.571-0.482,1.214-0.745,1.813
	c-0.295,0.671-0.32,1.388-0.071,2.023c0.802,2.042,1.703,4.01,4.106,4.706c0.741,0.214,1.464,0.518,2.278,0.633
	c-0.02,3.577,1.144,6.71,3.069,9.567c1.34,1.988,3.119,3.263,5.67,3.206c0.944-0.021,1.881,0.231,2.746,0.502
	c0.152,1.332-0.631,2.376-0.748,3.586c-0.248,2.582,0.436,4.886,1.726,7.094c1.094,1.872,2.792,2.637,4.896,2.026
	C266.482,248.239,266.77,248.129,267.113,248.013z M138.169,253.627c-0.13-0.309-0.158-0.41-0.21-0.496
	c-3.763-6.105-6.086-12.825-8.235-19.599c-1.858-5.857-2.988-11.893-4.073-17.939c-0.919-5.121-1.515-10.272-1.595-15.458
	c-0.07-4.531,0.216-9.061,1.013-13.547c0.522-2.941,0.975-5.923,1.915-8.736c1.253-3.751-1.243-6.632-4.697-6.909
	c-2.787-0.223-5.508,0.221-8.182,1.275c-4.798,1.892-7.696,5.226-9.086,10.186c-1.051,3.75-1.148,7.513-1.196,11.341
	c-0.053,4.131,0.828,8.09,2.116,11.93c3.109,9.269,7.077,18.179,11.797,26.746c4.016,7.289,8.842,13.883,15.892,18.588
	C135.027,251.944,136.42,252.864,138.169,253.627z M122.175,145.439c-3.637,0.018-7.425,2.066-10.477,5.32
	c-3.401,3.626-1.614,8.846,3.2,10.119c3.732,0.987,7.381,0.612,10.974-0.506c2.48-0.772,4.655-2.208,6.233-4.259
	c2.643-3.434,2.025-7.13-1.84-9.032C128.045,145.989,125.659,145.481,122.175,145.439z M206.641,97.679
	c-0.107,5.335,0.003,9.816,0.205,14.291c0.141,3.124,0.466,6.243,1.146,9.31c0.272,1.225,0.208,1.301-1.058,1.258
	c-2.512-0.085-5.024-0.224-7.519,0.239c-0.708,0.131-0.91-0.256-0.897-0.889c0.044-2.169,0.458-4.314,0.378-6.493
	c-0.152-4.164-0.181-8.335-0.422-12.494c-0.224-3.873-0.994-7.676-1.811-11.471c-1.039-4.825-2.136-9.644-3.854-14.263
	c-0.712-1.915-0.086-3.09,1.063-4.273c2.985-3.073,7.774-3.783,11.517-1.727c1.456,0.8,2.259,2.016,2.266,3.761
	c0.012,2.899-0.461,5.751-0.725,8.622c-0.262,2.858-0.166,5.716-0.173,8.574C206.753,94.263,206.725,96.398,206.641,97.679z
	 M205.084,74.281c-3.436-1.357-6.464-0.925-9.362,0.944C197.126,77.52,201.269,77.147,205.084,74.281z"/>
</svg>
