<svg width="400" height="400" viewBox="0 0 400 400" fill="none" xmlns="http://www.w3.org/2000/svg">
<path fill-rule="evenodd" clip-rule="evenodd" d="M249.684 70.9211C243.684 73.6065 242.238 79.6377 246.773 83.0656C252.385 87.3088 253.572 88.9369 256.34 96.1879C259.87 105.44 262.647 109.78 266.218 111.626L268.986 113.058L268.391 120.94C267.649 130.773 266.648 133.835 264.703 132.221C263.275 131.036 254.64 118.522 254.64 117.638C254.64 115.95 246.765 105.743 243.323 102.97C238.847 99.3635 236.682 98.9305 233.672 101.04C225.702 106.622 230.16 114.518 245.647 122.252C255.163 127.004 256.822 128.355 261.437 135.109L265.51 141.07L265.342 165.991C265.251 179.697 265.583 194.086 266.081 197.965C267.765 211.095 268.669 229.991 267.757 233.008C258.427 263.899 254.807 292.508 257.245 316.1C258.402 327.298 259.147 329.769 261.366 329.769C262.566 329.769 262.645 328.687 261.995 321.173C260.074 298.965 261.621 272.981 265.666 259.459C268.153 251.15 268.746 254.012 268.772 274.446C268.817 307.927 270.571 331.763 272.826 329.509C273.103 329.232 273.192 311.622 273.021 290.374C272.527 228.48 272.479 230.102 275.124 219.565C282.769 189.1 282.185 167.49 273.183 147.634C270.128 140.896 270.024 139.378 271.835 127.876C273.951 114.447 272.958 115.73 280.852 116.219C285.903 116.531 288.647 117.191 291.305 118.732C297.585 122.374 300.672 121.702 300.367 116.758C300.063 111.811 301.309 110.647 307.827 109.789C316.768 108.611 323.284 104.224 320.541 101.231C319.935 100.57 319.002 99.253 318.468 98.3037C317.933 97.3544 316.544 96.4714 315.382 96.3401C307.02 95.3999 305.763 94.1424 303.18 84.1319C302.318 80.7912 301.768 80.2762 296.295 77.6884C293.023 76.141 289.354 74.3399 288.142 73.6858C286.929 73.0317 280.978 72.0174 274.917 71.4309C256.654 69.6624 252.673 69.5817 249.684 70.9211ZM127.962 111.132C120.198 114.26 110.733 130.001 112.015 137.653C112.149 138.447 110.934 140.334 109.318 141.844C104.504 146.343 106.907 152.676 116.151 159.857C124.218 166.12 124.405 166.579 123.32 177.373C121.95 191.021 123.116 201.734 129.151 230.89L131.405 241.774L129.045 250.092C123.049 271.221 120.648 330.593 125.831 329.568C127.076 329.323 127.209 327.499 126.947 314.321C126.482 290.891 128.569 265.642 131.713 256.667C135.317 246.382 138.22 296.918 135.184 317.061C133.37 329.099 133.413 329.955 135.816 329.61C137.934 329.304 138.047 328.912 139.945 315.221C141.997 300.404 140.617 272.383 136.8 251.391L135.293 243.103L138.657 236.57C142.477 229.15 148.772 221.829 154.724 217.887L158.776 215.203L161.137 216.885C162.436 217.809 164.561 218.833 165.86 219.159C167.659 219.61 168.44 220.558 169.134 223.132C170.474 228.114 175.395 228.964 176.538 224.411C177.011 222.522 177.318 222.41 179.923 223.184C197.425 228.38 202.878 226.583 199.75 216.648C198.958 214.13 198.099 210.774 197.84 209.188C197.367 206.28 192.702 196.026 189.404 190.644C188.421 189.04 184.746 184.836 181.235 181.301L174.853 174.87L167.933 174.251C157.035 173.274 153.693 176.728 154.28 188.363C154.596 194.613 154.547 194.795 152.689 194.329C146.994 192.9 145.289 198.673 150.66 201.195C158.013 204.649 158.624 210.197 152.182 215.013C147.131 218.79 142.02 223.973 137.395 230.007C133.808 234.687 133.565 234.393 131.121 222.417C127.584 205.074 126.752 197.584 126.999 185.351L127.245 173.28L132.392 173.278C136.867 173.277 137.802 172.971 139.549 170.939L141.561 168.601L143.901 170.94C150.305 177.342 167.728 167.294 172.711 154.325C175.49 147.091 174.807 141.404 170.596 136.745C168.816 134.773 167.358 132.613 167.358 131.944C167.358 128.704 153.914 117.762 147.081 115.439C145.384 114.863 143.122 113.457 142.054 112.317C139.973 110.094 132.167 109.438 127.962 111.132ZM225.546 126.994C224.819 127.465 222.417 127.616 220.209 127.331C215.619 126.738 203.736 130.329 202.403 132.71C201.982 133.463 198.837 135.487 195.416 137.21C182.998 143.464 181.504 150.683 191.519 156.042C194.339 157.553 194.344 157.863 191.603 161.902C188.255 166.837 188.647 170.316 193.147 175.54C199.041 182.385 201.783 181.791 212.393 171.368C217.757 166.098 219.271 165.038 220.064 165.993C222.319 168.711 227.131 187.094 227.395 193.998C227.743 203.108 227.449 204.245 223.475 209.125C221.365 211.716 218.805 215.422 217.783 217.361C216.762 219.301 215.909 220.341 215.887 219.673C215.866 219.004 217.022 216.406 218.456 213.899C219.891 211.392 221.944 205.869 223.018 201.626L224.971 193.912L223.183 192.125C222.202 191.142 219.792 190.122 217.83 189.86C211.635 189.029 211.018 190.965 210.906 211.592C210.81 229.229 210.099 239.5 208.722 243.123C203.138 257.808 199.949 329.769 204.882 329.769C206.432 329.769 206.338 331.144 206.188 310.373C206.006 285.126 208.247 258.357 210.542 258.357C211.549 258.357 212.212 268.254 213.231 298.471C214.148 325.641 214.589 329.146 217.144 329.637C218.625 329.923 218.705 329.463 218.122 323.908C216.974 312.943 215.897 292.477 215.878 281.279C215.867 275.218 215.397 263.245 214.831 254.673C213.819 239.349 213.836 238.994 215.821 233.514C219.251 224.043 225.323 213.047 225.628 215.755C225.672 216.154 225.64 238.101 225.557 264.527C225.38 320.2 225.797 329.769 228.406 329.769C230.113 329.769 230.133 329.203 229.557 295.606C228.796 251.313 229.981 209.099 232.073 205.907C233.886 203.139 240.109 198.546 243.042 197.81C247.683 196.645 249.098 203.106 245.306 208.152C241.275 213.521 244.777 231.908 249.831 231.908C255.475 231.908 258.717 211.177 253.878 206.028C252.862 204.946 251.571 202.689 251.009 201.013C248.536 193.632 244.764 192.437 237.278 196.662C231.776 199.768 232.163 200.268 230.792 188.267C229.974 181.103 227.527 171.092 224.96 164.403C224.735 163.815 226.304 161.606 228.449 159.491C230.593 157.377 233.449 153.465 234.796 150.798C236.143 148.131 238.778 143.802 240.653 141.177C244.284 136.092 245.115 131.611 242.786 129.678C239.877 127.264 227.991 125.413 225.546 126.994ZM307.787 152.298C298.41 154.113 298.823 176.648 308.404 185.946L311.821 189.263L308.837 198.022C302.488 216.655 301.491 273.664 306.733 318.307C307.937 328.563 308.256 329.769 309.759 329.769C311.482 329.769 311.472 322.921 309.729 309.932C308.094 297.754 307.115 270.797 308.448 274.667C310.144 279.594 312.781 304.585 312.682 314.78C312.533 330.133 312.504 329.936 314.811 329.61C318.388 329.101 317.911 307.93 313.672 279.075C308.802 245.934 308.417 241.6 309.767 235.076C313.459 217.232 325.057 205.614 335.269 209.534C340.562 211.563 341.46 224.124 336.707 229.617C331.538 235.588 331.108 246.672 335.818 252.488C341.787 259.86 351.595 239.079 346.023 230.867C344.391 228.462 343.853 226.224 343.484 220.294C342.222 200.085 324.569 199.589 309.713 219.346C307.387 222.44 308.959 209.928 312.123 200.169C315.048 191.15 315.704 190.471 321.525 190.471C336.885 190.468 354.746 171.955 345.227 165.901C343.651 164.899 341.568 163.531 340.599 162.862C333.81 158.178 329.824 156.088 327.684 156.088C326.323 156.088 322.576 155.096 319.355 153.884C313.678 151.746 311.897 151.503 307.787 152.298ZM274.02 160.563C277.855 170.49 276.285 213.543 272.245 209.271C270.756 207.697 269.495 195.334 269.011 177.57C268.333 152.69 269.478 148.806 274.02 160.563ZM84.3526 180.715C80.6035 181.233 77.8597 182.408 73.2667 185.462C69.7309 187.812 65.632 189.764 63.5253 190.1C56.2587 191.263 49.3744 201.881 52.996 206.341C54.4837 208.173 64.1378 216.316 67.0247 218.175C71.2185 220.874 78.8701 221.397 84.9013 219.397L90.1667 217.651L91.6842 219.526C97.0276 226.125 99.8768 245.036 99.1004 268.75C97.3215 323.044 97.458 329.328 100.411 329.328C101.462 329.328 101.628 327.375 101.389 317.866C101.042 304.099 103.006 260.221 103.995 259.609C104.38 259.371 105.498 260.751 106.481 262.676C107.463 264.6 109.051 266.724 110.009 267.396C111.599 268.509 111.803 270.027 112.309 284.426C112.837 299.519 115.541 327.069 116.674 328.901C117.99 331.03 120.785 329.825 120.281 327.343C116.852 310.432 116.707 307.869 116.686 263.564C116.664 216.614 116.694 216.92 112.212 216.92C107.548 216.92 106.8 219.932 107.351 236.482C107.811 250.297 103.141 253.813 101.717 240.724C101.374 237.573 99.9353 230.919 98.5204 225.938C97.1043 220.958 95.9469 216.723 95.9469 216.528C95.9469 216.333 98.7012 214.342 102.068 212.104C109.877 206.913 112.081 203.431 112.757 195.214C113.132 190.659 113.8 188.265 115.189 186.498C117.791 183.191 117.648 182.75 113.613 181.663C110.176 180.739 106.141 181.165 104.234 182.657C103.665 183.102 102.143 182.856 100.548 182.06C97.1264 180.353 90.7896 179.827 84.3526 180.715ZM288.843 218.85C286.193 220.889 283.609 228.543 282.798 236.756C282.367 241.12 281.417 247.469 280.686 250.863C277.541 265.457 282.082 329.769 286.257 329.769C287.991 329.769 288.016 326.7 286.383 314.134C280.306 267.378 281.173 253.36 290.906 241.051C295.765 234.903 299.582 227.315 299.595 223.773C299.609 219.794 292.09 216.35 288.843 218.85ZM113.492 232.18C113.324 245.976 110.898 247.412 110.769 233.791C110.729 229.482 110.974 225.502 111.316 224.95C112.743 222.642 113.574 225.404 113.492 232.18ZM155.119 229.818C152.077 231.949 150.608 236.374 150.608 243.397C150.608 247.821 150.059 250.929 148.735 254.006C144.319 264.273 152.713 284.351 157.603 275.217C160.676 269.475 160.21 253.949 156.966 253.949C154.292 253.949 153.149 242.142 155.321 236.949C157.265 232.297 158.846 231.456 163.199 232.756C178.258 237.255 181.204 258.726 173.949 311.144C172.307 323.007 172.468 329.328 174.412 329.328C175.394 329.328 175.881 327.851 176.303 323.597C176.615 320.445 177.768 311.122 178.864 302.879C182.867 272.79 182.1 251.547 176.62 240.731C171.963 231.541 160.771 225.86 155.119 229.818ZM64.3017 241.287C60.5695 243.902 63.4551 253.739 70.7608 263.306C78.6334 273.619 80.0639 284.182 75.2238 296.279L71.9428 304.478L72.3538 315.581C72.7816 327.19 73.3135 329.769 75.2771 329.769C76.2134 329.769 76.4422 327.159 76.3811 317.205C76.32 307.299 76.6256 303.803 77.822 300.675C78.6581 298.493 80.1432 294.223 81.1237 291.188L82.9065 285.668L81.1003 275.318C80.1068 269.626 79.0873 262.39 78.835 259.239C77.5125 242.705 71.9988 235.895 64.3017 241.287Z" fill="#0000FF"/>
</svg>
