<svg width="400" height="400" viewBox="0 0 400 400" fill="none" xmlns="http://www.w3.org/2000/svg">
<path style="fill:#0000FF;" d="M158.06,104.169c61.758,26.129,123.427,52.22,185.338,78.414c-5.757,2.655-11.233,5.18-16.771,7.734
	c-0.914,6.787-2.015,13.531-1.003,20.329c8.202,5.183,16.241,10.263,24.375,15.404c-35.526,16.384-70.947,32.719-106.624,49.173
	c-0.388,2.847-0.869,5.79-1.154,8.751c-0.128,1.333,0.268,2.701,1.078,3.802c0.935,1.271,2.341,1.813,3.889,1.843
	c1.467,0.029,2.937-0.066,4.531-0.109c-0.516,0.915-1.014,1.819-1.532,2.712c-0.575,0.992-1.116,2.01-1.779,2.941
	c-0.246,0.345-0.813,0.698-1.203,0.667c-2.859-0.23-5.71-0.53-8.377-1.74c-1.335-0.606-2.232-1.495-2.511-2.979
	c-0.201-1.071-0.614-2.114-0.708-3.189c-0.144-1.634-0.268-3.305-0.086-4.925c0.308-2.739,0.863-5.451,1.357-8.433
	c-0.421,0.262-0.807,0.384-1.008,0.647c-1.154,1.514-2.259,3.065-3.393,4.595c-0.148,0.2-0.333,0.405-0.548,0.519
	c-1.322,0.704-2.663,1.375-3.987,2.076c-0.389,0.206-0.746,0.474-1.26,0.806c-58.715-29.85-117.553-59.763-176.633-89.799
	c-0.018-13.018-0.035-26.161-0.053-39.461c3.568-0.102,7.078-0.203,10.625-0.304c1.003-1.693,2-3.334,2.952-5.001
	c0.471-0.826,1.06-1.415,1.961-1.828c12.008-5.504,23.998-11.048,35.994-16.579c18.248-8.416,36.498-16.83,54.746-25.244
	C156.875,104.715,157.472,104.44,158.06,104.169z M325.92,224.944c-0.017-0.176-0.008-0.24-0.03-0.29
	c-1.725-3.858-3.335-7.751-4.493-11.835c-0.731-2.578-0.975-5.178-0.924-7.802c0.061-3.098,0.354-6.192,0.549-9.319
	c-0.128,0.035-0.305,0.057-0.459,0.13c-7.86,3.714-15.717,7.435-23.577,11.149c-11.421,5.396-22.84,10.796-34.268,16.176
	c-5.035,2.371-10.092,4.696-15.133,7.054c-0.344,0.161-0.72,0.366-0.943,0.657c-1.783,2.322-3.534,4.67-5.283,6.995
	c-1.837-0.166-3.618-0.352-5.404-0.474c-0.625-0.043-1.315-0.072-1.879,0.143c-1.318,0.503-2.595,1.125-3.847,1.777
	c-0.271,0.141-0.507,0.609-0.523,0.938c-0.148,3.037-0.246,6.076-0.354,9.115c-0.039,1.097-0.063,2.194-0.094,3.291
	c1.543-0.711,2.976-1.373,4.436-2.046c3.904,3.424,7.557,7.003,9.911,11.878C271.067,249.959,298.485,237.455,325.92,224.944z
	 M228.87,172.427c-18.218-8.402-36.287-16.736-54.582-25.174c7.839-3.974,15.416-7.815,23.146-11.734
	c-2.694-1.751-5.217-3.392-7.753-5.04c-8.496,3.778-16.989,7.554-25.59,11.379c-9.299-4.09-18.664-8.209-28.065-12.344
	c-2.399,1.423-4.785,2.837-7.258,4.303c8.024,4.468,16.023,8.921,24.227,13.488c-7.836,3.724-15.449,7.342-23.134,10.994
	c2.709,1.974,5.35,3.899,7.929,5.778c9.033-4.065,17.974-8.088,27.012-12.155c17.72,8.627,35.484,17.275,53.334,25.966
	C221.665,176.091,225.193,174.297,228.87,172.427z M237.505,265.054c-0.996-2.707-5.26-7.28-8.363-9.334
	c-0.151,4.458-0.302,8.896-0.455,13.401C231.697,267.733,234.604,266.392,237.505,265.054z"/>
</svg>
