<svg width="400" height="400" viewBox="0 0 400 400" fill="none" xmlns="http://www.w3.org/2000/svg">
<path style="fill-rule:evenodd;clip-rule:evenodd;fill:#0000FF;" d="M338.495,242.636c6.258,4.107,12.366,11.874,11.405,20.007
	c-0.608,5.14-3.653,9.531-8.014,12.033c-1.439,0.826-5.192,2.598-6.747,3.012c-2.27,0.605-6.798,0.6-9.161,0.284
	c-7.242-0.969-11.743-4.622-18.032-7.992c-16.827-9.017-38.245-15.722-56.631-20.38c-8.049-2.039-16.207-3.441-24.403-4.678
	l0.89,0.23c-12.359-2.153-18.897-2.251-31.406-2.251c-31.488,0-82.544,14.06-109.152,29.736c-4.621,2.723-7.788,4.606-13.271,5.334
	c-3.268,0.434-7.327,0.384-10.446-0.78c-3.235-1.208-6.901-2.972-9.333-5.564c-4.871-5.191-5.45-12.849-1.987-19.015
	c3.814-6.789,9.768-11.314,16.971-13.61l5.257-1.453c0-1.985,1.634-7.289,2.586-9.304c2.407-5.092,7.116-10.173,11.645-13.291
	c7.035-4.842,15.816-7.928,24.248-8.471l-8.391-3.562l16.439,3.278c2.972-9.922,5.936-14.321,13.58-20.592v-0.035h0.034
	l-16.166-14.443l20.07,11.749l6.542-3.243c9.794-4.528,17.669-6.203,28.376-6.203l-11.662-36.931l9.144,16.746l10.857,20.787
	c5.598,0.794,9.643,1.931,15.104,3.491l2.26-36.629l-7.638,3.668l1.421-8.861l-5.137-6.486l8.425-0.036l3.802-7.407l0.034,0.036
	v-0.036l3.802,7.407l8.425,0.036l-5.137,6.486l1.421,8.861l-7.638-3.668l2.26,36.629c5.493-1.57,9.471-2.698,15.104-3.491
	l10.84-20.787l9.162-16.746l-11.662,36.931c14.691,0,22.142,3.088,34.951,9.445l20.019-11.749l-16.149,14.443
	c1.812,1.25,5.538,4.923,7.021,6.84c3.182,4.115,5.01,8.823,6.593,13.787l16.439-3.278l-8.408,3.562
	c13.127,0.809,28.22,7.981,35.089,20.202c1.873,3.333,2.854,7.071,3.408,10.863C330.17,238.672,334.429,240.053,338.495,242.636
	L338.495,242.636z M87.519,258.736c-5.696-2.2-9.243-5.384-11.476-11.369l-0.908-3.012c-6.04,0.847-13.539,4.472-16.303,10.367
	c-3.076,6.563-0.515,13.067,5.788,15.293c0.475,0.168,2.413,0.629,2.723,0.567l8.425-4.625c4.675-2.419,9.262-4.583,14.025-6.787
	L87.519,258.736z M333.425,247.243c-2.723-1.492-5.637-2.512-8.699-2.888c-1.465,4.511-1.482,5.883-4.778,9.764
	c-2.473,2.912-6.397,4.734-10.121,4.927c7.015,3.148,13.185,6.182,19.933,9.924l2.877,1.613c0.58,0.113,3.058-0.656,3.973-1.116
	c7.613-3.832,7.187-13.08,1.901-18.554C337.122,249.473,335.142,248.22,333.425,247.243L333.425,247.243z M243.316,189.1
	c-6.458-2.815-13.563-3.779-20.532-3.633l-8.734,27.521l33.496-21.567C245.855,190.36,245.085,189.974,243.316,189.1L243.316,189.1z
	 M253.676,196.047l-24.163,21.531l34.712-8.258C262.344,203.485,258.176,199.772,253.676,196.047L253.676,196.047z M265.218,215.699
	l-42.503,17.969c11.789,0.821,19.511,2.086,30.995,4.98c2.557-1.889,4.707-4.187,6.644-6.752
	C263.75,227.402,265.345,221.347,265.218,215.699L265.218,215.699z M279.414,221.601c-1.563,6.766-4.522,12.136-10.172,16.108
	c-2.299,1.617-4.75,2.435-7.432,3.03c10.919,2.258,29.091,7.908,38.838,13.503l2.483,1.435c3.217-3.529,4.803-6.546,5.446-11.466
	c1.054-8.068-3.307-16.128-9.23-21.194c-4.737-4.052-10.68-7.002-16.953-6.468l-2.432,0.496
	C279.837,219.01,279.755,219.681,279.414,221.601L279.414,221.601z M170.005,185.751c-6.433,0.72-12.043,2.135-17.57,5.671
	l33.496,21.567l-8.733-27.521C174.777,185.367,172.415,185.524,170.005,185.751L170.005,185.751z M136.818,206.608
	c-0.531,0.996-0.735,1.628-1.062,2.711l34.712,8.258l-24.146-21.531C142.86,198.776,138.767,202.573,136.818,206.608
	L136.818,206.608z M134.849,218.8c0.422,4.721,2.186,10.009,5.189,13.645c2.091,2.532,3.559,4.358,6.233,6.202
	c11.473-2.916,19.023-4.149,30.996-4.98l-42.503-17.969C134.668,217.072,134.702,217.442,134.849,218.8L134.849,218.8z
	 M210.933,186.92c-2.365,0.438-4.963,1.125-7.038,2.428l0.822,12.104l7.158-14.726L210.933,186.92z M188.106,186.725l7.158,14.726
	l0.805-12.104C192.817,187.588,191.52,187.445,188.106,186.725L188.106,186.725z M188.106,216.426l5.069,6.433l-1.353,8.79
	l8.066-3.916l8.271,3.916l-1.353-8.79l5.069-6.433l-8.425-0.16l-3.442-6.716l-3.476,6.716L188.106,216.426z M137.451,240.58
	c-10.727-2.596-16.98-12.524-17.398-23.534c-13.55-3.721-32.973,13.032-27.999,30.569c0.916,3.229,2.518,5.707,4.795,8.063
	l4.418-2.481c8.783-4.747,26.833-10.456,36.904-12.458L137.451,240.58z M137.451,240.58"/>
</svg>
