<svg width="400" height="400" viewBox="0 0 400 400" fill="none" xmlns="http://www.w3.org/2000/svg">
<path style="fill:#0000FF;" d="M172.035,314.556c-8.261,0-14.961-6.697-14.961-14.961
	c0-2.517,0.621-4.889,1.719-6.971c-0.04,0.312-0.062,0.631-0.062,0.959c0,4.125,3.347,7.468,7.471,7.468
	c4.125,0,7.47-3.343,7.47-7.468c0-4.126-3.345-7.471-7.47-7.471c-0.252,0-0.493,0.014-0.734,0.036
	c1.98-0.972,4.211-1.517,6.567-1.517c8.262,0,14.964,6.697,14.964,14.964C187,307.859,180.297,314.556,172.035,314.556z
	 M312.581,264.999c-8.945,15.497-35.654,18.338-69.238,10.05C233.729,308.296,217.9,330,199.999,330
	c-8.68,0-16.871-5.102-24.102-14.148c4.189-0.991,7.773-3.564,10.079-7.049c5.639,6.458,11.875,10.047,18.436,10.047
	c14.456,0,27.345-17.419,35.731-44.611c-12.661-3.347-26.228-8.243-40.144-14.591c-10.978,5.008-21.736,9.108-32.007,12.259
	c1.128,3.846,2.334,7.528,3.63,10.986c-4.222,0.101-8.052,1.77-10.938,4.444c-1.44-3.884-2.776-8-4.017-12.291
	c-33.591,8.292-60.305,5.453-69.252-10.044c-8.949-15.502,1.932-40.063,25.918-65.013c-2.93-3.049-5.686-6.093-8.212-9.114
	c3.946-1.14,7.291-3.694,9.447-7.078c2.194,2.632,4.593,5.292,7.143,7.964c7.864-7.319,16.79-14.589,26.616-21.591
	c1.459-15.222,4.011-29.41,7.442-42.047c-27.733-6.328-49.262-3.885-56.488,8.633c-3.343,5.785-3.293,13.138-0.368,21.431
	c-4.358,0.407-8.227,2.483-10.965,5.583c-4.522-11.115-4.983-21.064-0.533-28.769c8.946-15.496,35.654-18.335,69.239-10.048
	C166.269,91.705,182.099,70,199.999,70c17.9,0,33.73,21.705,43.343,54.953c33.584-8.287,60.294-5.448,69.241,10.048
	c5.013,8.682,3.804,20.204-2.444,33.046c-2.596-3.182-6.338-5.388-10.602-5.989c4.374-9.879,5.03-18.635,1.183-25.303
	c-7.229-12.517-28.759-14.96-56.491-8.632c3.43,12.636,5.982,26.824,7.442,42.045c9.825,7.002,18.752,14.272,26.616,21.591
	c1.533-1.607,3.023-3.21,4.429-4.804c2.015,3.478,5.242,6.161,9.108,7.473c-1.638,1.85-3.368,3.706-5.154,5.564
	C310.652,224.941,321.531,249.5,312.581,264.999z M252.018,174.06c0.693,8.383,1.058,17.057,1.058,25.941
	c0,4.886-0.114,9.706-0.328,14.451c8.769-6.729,16.608-13.613,23.351-20.438C269.04,187.308,260.956,180.59,252.018,174.06z
	 M159.536,223.36c6.253,4.28,12.867,8.45,19.793,12.449c6.924,3.998,13.84,7.634,20.671,10.909
	c6.832-3.275,13.748-6.911,20.673-10.909c10.455-6.037,20.183-12.466,29.045-19.071c0.297-5.469,0.454-11.055,0.454-16.737
	c0-9.721-0.453-19.167-1.3-28.21c-7.412-5.259-15.36-10.379-23.783-15.243c-8.422-4.862-16.829-9.185-25.088-12.973
	c-8.259,3.788-16.666,8.111-25.088,12.973c-4.928,2.845-9.687,5.782-14.281,8.778c-1.287,10.97-1.981,22.611-1.981,34.674
	C158.65,207.998,158.956,215.807,159.536,223.36z M241.071,128.861c-11.684,2.897-24.388,7.313-37.528,13.122
	c7.607,3.591,15.301,7.61,22.995,12.052c7.697,4.444,15.029,9.099,21.945,13.893C246.945,153.637,244.406,140.433,241.071,128.861z
	 M167.978,128.09c10.275,3.151,21.038,7.252,32.021,12.263c13.916-6.348,27.483-11.243,40.144-14.591
	c-8.386-27.191-21.275-44.608-35.731-44.608C189.547,81.154,176.338,99.569,167.978,128.09z M161.099,161.552
	c4.006-2.561,8.127-5.072,12.363-7.517c7.693-4.442,15.387-8.461,22.994-12.052c-10.129-4.478-19.992-8.12-29.335-10.88
	C164.582,140.354,162.541,150.593,161.099,161.552z M146.922,200.001c0-8.883,0.365-17.557,1.058-25.94
	c-8.94,6.531-17.025,13.25-24.085,19.959c6.744,6.824,14.595,13.708,23.364,20.435C147.045,209.707,146.922,204.891,146.922,200.001
	z M153.717,263.684c-2.407-10.469-4.233-21.842-5.385-33.852c-12.457-8.878-23.461-18.184-32.689-27.476
	c-19.352,20.857-28.005,40.727-20.776,53.246C102.298,268.476,124.847,270.701,153.717,263.684z M186.142,252.902
	c-4.218-2.188-8.449-4.492-12.68-6.936c-4.235-2.445-8.345-4.96-12.351-7.52c1.022,7.759,2.334,15.168,3.921,22.11
	C171.839,258.458,178.909,255.898,186.142,252.902z M243.239,262.91c2.28-9.474,4.062-19.839,5.247-30.853
	c-6.92,4.798-14.245,9.462-21.947,13.909c-4.232,2.443-8.463,4.748-12.681,6.936C224.072,257.133,233.954,260.483,243.239,262.91z
	 M284.357,202.356c-9.228,9.288-20.234,18.59-32.686,27.465c-1.152,12.017-2.985,23.388-5.393,33.863
	c28.871,7.017,51.421,4.793,58.854-8.081C312.36,243.082,303.708,223.212,284.357,202.356z M85.517,174.82
	c0,8.266,6.7,14.964,14.963,14.964c8.264,0,14.962-6.698,14.962-14.964c0-8.263-6.698-14.961-14.962-14.961
	c-2.358,0-4.587,0.544-6.57,1.512c0.244-0.022,0.487-0.033,0.737-0.033c4.126,0,7.469,3.344,7.469,7.468
	c0,4.125-3.343,7.47-7.469,7.47c-4.123,0-7.47-3.345-7.47-7.47c0-0.324,0.019-0.644,0.062-0.957
	C86.14,169.931,85.517,172.303,85.517,174.82z M282.223,178.601c0,8.263,6.699,14.96,14.964,14.96
	c8.264,0,14.963-6.697,14.963-14.96c0-8.267-6.699-14.965-14.963-14.965c-2.357,0-4.585,0.546-6.57,1.517
	c0.24-0.024,0.487-0.038,0.734-0.038c4.125,0,7.47,3.345,7.47,7.471c0,4.125-3.345,7.469-7.47,7.469
	c-4.125,0-7.467-3.344-7.467-7.469c0-0.326,0.02-0.645,0.06-0.957C282.846,173.709,282.223,176.081,282.223,178.601z
	 M201.415,223.606c14.451,0,26.162-11.716,26.162-26.167c0-14.451-11.711-26.162-26.162-26.162c-2.628,0-5.165,0.388-7.554,1.106
	h0.148c7.111,0,12.876,5.762,12.876,12.873c0,7.114-5.764,12.879-12.876,12.879c-7.113,0-12.875-5.766-12.875-12.879
	c0-2.177,0.538-4.229,1.493-6.028c-4.568,4.709-7.379,11.132-7.379,18.212C175.248,211.89,186.961,223.606,201.415,223.606z"/>
</svg>
