<svg width="400" height="400" viewBox="0 0 400 400" fill="none" xmlns="http://www.w3.org/2000/svg">
<path style="fill:#FF0000;" d="M134.598,77.39c-1.686,0.309-5.986,1.198-11.097,3.571
	c-11.005,5.111-18.419,13.049-24.226,21.282c-11.998,17.01-14.477,18.755-15.706,11.069c-0.979-6.12-2.539-9.275-4.289-9.38
	c-1.698-0.102-3.541,4.099-4.967,7.394c-0.831,1.92-1.459,3.921-1.535,4.165c-0.175,0.565-0.502,1.666-0.854,3.212
	c-0.477,2.093-0.661,4.159-1.122,7.049c-0.918,5.76-0.682,9.499-0.68,9.526l0,0c-0.243,8.776-0.093,16.248,0.155,22.088
	c0.153,3.605,0.394,9.383,1.073,15.414c0.258,2.296,0.263,1.842,0.375,3.078c0,0,0.901,9.935,1.719,10.432
	c0.116,0.07,0.24,0.118,0.24,0.118c0.844,0.327,3.024,0.601,18.295-16.844c1.637-1.871,6.822-8.126,17.193-20.636
	c0.546-0.659-0.234,0.282,4.484-5.646c7.006-8.803,9.649-12.102,8.85-13.437c-0.414-0.691-1.899-0.683-4.258-0.576
	c-6.305,0.285-6.528-1.117-1.116-7.037c13.379-14.64,27.428-9.635,32.905,11.72c0.658,2.558,1.698,5.773,2.314,7.141
	c0.616,1.369,1.549,5.101,2.075,8.293c0.525,3.193,1.408,7.859,1.965,10.367c1.093,4.935,1.405,34.008,0.442,41.048
	c-0.312,2.281-0.965,7.133-1.451,10.781c-0.485,3.648-1.258,8.686-1.716,11.194c-0.458,2.509-0.989,5.682-1.182,7.049
	c-0.193,1.369-0.963,5.661-1.713,9.537c-1.122,5.8-1.839,13.052-2.951,29.854c-0.415,6.275,2.123,10.717,2.578,12.041
	c0.59,1.713,2.937,8.234,8.045,14.851c9.929,12.859,23.826,17.705,31.517,20.387c7.543,2.631,15.742,4.187,18.026,4.62
	c5.297,1.005,9.249,1.449,10.198,1.552c5.131,0.56,9.527,0.697,18.304,0.582c0,0,24.877-0.325,37.678-2.402
	c3.379-0.548,6.576-1.227,6.576-1.227c2.78-0.59,4.795-1.108,5.611-1.315c3.909-0.991,5.533-1.242,22.391-4.912
	c1.383-0.301,4.38-0.963,8.043-2.202c1.379-0.467,1.13-0.432,2.641-0.942c3.897-1.316,5.121-1.394,6.444-2.589
	c0.674-0.609,1.176-1.363,1.71-2.387c4.668-8.943,1.137-27.765,1.137-27.765c-0.598-3.354-2.073-10.794-5.416-19.941
	c-1.416-3.873-2.805-7.066-3.881-9.388l-3.584-7.353l-4.433,0.458c-1.299,0.316-3.237,0.797-5.586,1.412
	c-2.67,0.699-4.628,1.248-5.557,1.507c-0.812,0.227-7.537,2.1-13.087,3.549c-4.153,1.084-8.243,2.152-13.642,3.327
	c-4.967,1.082-8.751,1.756-15.468,2.952c-5.246,0.935-7.869,1.402-9.859,1.692c-6.954,1.015-12.636,1.179-23.717,1.466
	c-11.513,0.298-15.211,0.005-19.488-0.972c-2.876-0.657-5.196-1.436-6.746-2.01l0.565-11.776
	c1.532-31.937,1.965-64.155,1.024-76.046c-1.618-20.452-3.556-36.658-4.713-39.391c-0.385-0.912-1.349-4.441-2.14-7.842
	c-1.875-8.056-4.703-14.963-10.063-22.158c-6.162-8.271-13.407-12.592-16.201-14.124c-5.495-3.012-10.738-4.533-14.889-5.306
	C143.064,75.932,136.226,77.092,134.598,77.39z M161.985,88.86c12.41,6.289,23.366,24.851,25.2,42.696
	c0.118,1.14,0.431,2.633,0.698,3.317c2.098,5.402,2.598,40.281,0.914,63.854c-0.701,9.807-1.708,25.108-2.238,34.001l-0.962,16.17
	l-4.033-0.258l-4.032-0.26l1.676,2.332c2.047,2.422,4.733,5.043,8.186,7.413c5.295,3.632,10.509,5.38,13.353,6.014
	c0.775,0.173,2.954,0.615,5.581,1.03c0,0,1.623,0.257,3.263,0.466c13.341,1.702,36.851-0.487,36.852-0.487
	c7.395-0.688,11.705-1.348,14.102-1.743c2.866-0.473,5.538-1.025,10.882-2.131c10.519-2.177,15.77-3.309,18.244-4.037
	c0,0,14.371-4.225,18.785-4.994c0.097-0.017,0.72-0.122,1.521-0.242c0.93-0.139,1.395-0.209,1.565-0.201
	c1.302,0.06,2.255,2.22,2.653,3.147c0.91,2.12,2.009,4.821,3.182,8.049c0.46,1.566,1.159,3.869,2.088,6.635
	c1.86,5.541,2.369,7.268,2.502,8.608c0.055,0.559,0.075,0.844,0.044,1.079c-0.432,3.303-6.121,5.065-9.771,6.143
	c-13.576,4.009-18.839,4.907-18.839,4.907c-23.132,3.948-20.935,4.006-26.95,4.622c-7.564,0.775-13.044,0.889-21.306,1.061
	c-8.757,0.182-14.628,0.286-22.646-0.42c-8.053-0.709-14.64-1.845-14.64-1.845c-3.203-0.552-6.653-1.248-12.282-2.133
	c-6.252-0.982-9.565-1.498-9.565-0.997c0,2.871,13.44,9.451,23.301,11.406c8.956,1.776,12.976,2.082,35.578,2.709
	c13.827,0.383,17.028,0.617,17.057,1.126c0.028,0.477-2.734,1.043-6.158,1.745c-4.681,0.96-8.232,1.304-8.412,1.321
	c-15.949,1.502-23.924,2.252-34.83,0.741c-10.205-1.414-17.305-3.929-19.693-4.924c0,0-3.091-1.186-5.667-2.419
	c-8.247-3.948-22.583-16.555-28.332-35.727c-2.192-7.311-1.025-21.942,1.399-50.907c1.139-13.61,0.525-13.363,2.287-25.7
	c0,0,2.058-26.718-1.025-50.41c-0.343-2.638-1.077-5.039-1.077-5.04c-0.68-2.227-1.689-3.833-2.129-5.183
	c-1.985-6.09-5.605-11.383-11.85-17.328c-5.084-4.839-5.336-5.245-3.609-5.794c3.277-1.04,8.641,1.761,13.552,7.075
	c4.969,5.376,6.385,6.024,6.385,2.92c0-5.46-4.774-11.803-11.281-14.986c-4.88-2.388-17.691-2.783-20.435-0.631
	c-0.571,0.449-2.844,1.417-5.049,2.151c-15.091,5.026-29.132,25.711-21.976,32.377c0.078,0.073,0.981,0.689,2.144,1.497
	c0.505,0.351,0.518,0.36,0.551,0.405c0.673,0.953-1.005,3.28-4.114,7.388c-1.733,2.29-2.6,3.435-2.942,3.855
	c-3.876,4.754-5.03,6.561-7.565,9.767c-7.619,9.635-12.007,15.456-13.59,13.873c-1.126-1.126-2.29-29.72-1.577-38.751
	c0.885-11.202,1.626-12.13,4.945-6.186c2.715,4.863,4.66,4.713,7.932-0.611C112.73,89.16,137.318,76.361,161.985,88.86z"/>
</svg>
