<svg width="400" height="400" viewBox="0 0 400 400" fill="none" xmlns="http://www.w3.org/2000/svg">
<path fill-rule="evenodd" clip-rule="evenodd" d="M134.697 77.5464C133.101 77.7658 131.315 78.3423 130.731 78.8271C130.147 79.3118 129.432 79.4708 129.143 79.182C128.853 78.892 128.207 78.9771 127.709 79.37C127.21 79.7641 125.353 80.5534 123.58 81.1243C116.395 83.4406 106.723 91.9377 99.3093 102.445C87.2891 119.486 84.8061 121.235 83.5746 113.534C81.6983 101.807 77.6938 100.948 74.3017 111.544C73.293 114.695 72.4008 117.273 72.3201 117.273C72.2384 117.273 72.0526 118.021 71.9082 118.935C71.7626 119.848 71.2577 123.027 70.7842 125.997C69.0691 136.772 70.3991 177.889 72.5496 180.578C72.9874 181.125 73.2337 182.433 73.0982 183.486C71.8175 193.388 83.0294 182.367 113.716 143.559C124.691 129.682 124.841 129.224 118.316 129.52C111.999 129.806 111.776 128.401 117.198 122.47C130.602 107.803 144.676 112.817 150.164 134.212C150.823 136.775 151.865 139.996 152.482 141.366C153.099 142.738 154.034 146.476 154.561 149.674C155.087 152.873 155.972 157.547 156.53 160.06C157.625 165.004 157.938 194.131 156.973 201.184C156.66 203.469 156.006 208.33 155.519 211.985C155.033 215.64 154.259 220.687 153.8 223.2C153.341 225.714 152.809 228.892 152.616 230.262C152.423 231.634 151.651 235.933 150.9 239.817C149.776 245.628 149.058 252.893 147.944 269.726C147.526 276.055 152.501 288.648 158.587 296.667C163.821 303.562 182.661 316.251 187.666 316.251C188.246 316.251 189.368 316.629 190.162 317.092C191.761 318.022 204.312 321.239 208.221 321.721C209.591 321.89 212.957 322.407 215.698 322.871C225.82 324.583 265.229 323.924 266.404 322.023C266.635 321.65 268.145 321.56 269.761 321.823C271.377 322.085 273.52 321.918 274.523 321.452C275.526 320.985 281.02 319.84 286.732 318.906C296.781 317.263 306.598 315.109 309.164 313.985C309.849 313.684 310.784 313.38 311.241 313.311C311.698 313.241 312.632 312.954 313.317 312.675C314.003 312.396 316.95 311.568 319.868 310.835C325.304 309.469 326.543 308.712 328.037 305.85C330 302.085 330.693 285.177 329.176 278.034C327.057 268.057 324.891 259.177 324.209 257.679C323.794 256.766 321.838 252.703 319.862 248.651L316.271 241.284L311.83 241.743C309.386 241.995 306.869 242.632 306.234 243.158C305.601 243.684 304.707 243.882 304.249 243.599C303.79 243.316 302.746 243.448 301.928 243.893C301.109 244.339 297.636 245.345 294.21 246.131C290.782 246.917 287.418 247.858 286.732 248.223C284.828 249.235 274.12 251.591 271.798 251.508C270.667 251.469 268.612 251.946 267.229 252.571C265.847 253.194 261.351 254.169 257.238 254.737C253.126 255.305 249.2 255.967 248.515 256.21C245.101 257.418 240.887 257.679 224.754 257.679C213.037 257.679 206.562 257.357 205.23 256.705C204.133 256.17 202.164 255.497 200.854 255.212L198.472 254.691L199.038 242.893C200.573 210.897 201.007 178.62 200.064 166.707C198.443 146.217 196.501 129.982 195.342 127.243C194.956 126.329 193.991 122.794 193.198 119.387C186.505 90.6211 162.818 73.6796 134.697 77.5464ZM162.134 89.037C174.567 95.3376 185.543 113.934 187.38 131.812C187.498 132.954 187.812 134.45 188.079 135.135C190.181 140.547 190.682 175.49 188.995 199.107C188.293 208.932 187.284 224.261 186.753 233.171L185.789 249.371L181.749 249.113L177.71 248.853L179.389 251.189C183.02 256.241 193.301 263.08 197.267 263.08C197.982 263.08 198.785 263.43 199.049 263.858C199.313 264.285 200.177 264.638 200.968 264.64C201.758 264.643 204.275 265.107 206.559 265.672C212.159 267.057 241.837 267.042 246.747 265.651C248.745 265.086 252.437 264.622 254.954 264.622C257.469 264.622 260.134 264.3 260.875 263.905C261.616 263.511 266.523 262.55 271.777 261.77C277.032 260.991 281.706 260.07 282.163 259.726C282.619 259.382 286.172 258.482 290.055 257.726C293.939 256.97 297.865 256.009 298.778 255.59C300.888 254.623 310.225 252.279 311.967 252.279C313.584 252.279 315.973 256.861 317.813 263.495C318.575 266.237 319.515 269.228 319.905 270.142C320.897 272.47 322.456 278.405 322.456 279.847C322.456 281.243 317.706 284.037 312.902 285.468C311.074 286.013 308.832 286.791 307.917 287.198C305.731 288.175 297.975 290.217 293.793 290.917C291.966 291.224 290.097 291.755 289.64 292.096C288.713 292.788 279.939 294.114 266.793 295.548C256.119 296.711 230.12 297.09 222.76 296.19C203.215 293.799 196.545 292.813 195.788 292.205C194.376 291.07 186.205 290.219 186.205 291.206C186.205 294.082 199.67 300.674 209.549 302.633C218.521 304.412 222.549 304.719 245.192 305.347C264.822 305.892 266.471 306.304 255.576 307.942C251.921 308.492 248.369 309.214 247.684 309.547C245.145 310.782 219.684 311.324 212.79 310.289C205.616 309.213 196.564 306.949 193.061 305.356C191.12 304.472 188.566 303.382 187.384 302.933C176.515 298.801 160.429 278.545 160.024 268.48C160.005 268.022 159.715 267.211 159.38 266.674C157.058 262.97 157.494 241.434 160.402 216.139C164.644 179.255 164.734 140.096 160.588 134.841C160.176 134.317 159.216 131.98 158.455 129.648C156.466 123.547 152.84 118.244 146.583 112.288C141.49 107.44 141.237 107.033 142.967 106.483C146.25 105.441 151.624 108.247 156.544 113.571C161.522 118.957 162.941 119.606 162.941 116.496C162.941 111.026 158.158 104.671 151.639 101.482C146.75 99.0891 133.915 98.6939 131.166 100.85C130.594 101.3 128.317 102.27 126.108 103.005C110.989 108.04 96.9225 128.763 104.092 135.442C105.138 136.416 106.104 137.091 106.24 136.942C106.377 136.794 106.934 136.821 107.478 137.002C108.055 137.195 106.047 140.432 102.67 144.75C99.4806 148.829 94.7428 154.971 92.1433 158.397C86.7238 165.541 79.3249 173.093 78.5278 172.296C77.3994 171.168 76.234 142.521 76.9482 133.474C77.8349 122.251 78.5771 121.322 81.902 127.277C84.6225 132.149 86.5704 131.999 89.8483 126.665C112.788 89.3382 137.422 76.5153 162.134 89.037Z" fill="#FF0000"/>
</svg>
