<svg width="400" height="400" viewBox="0 0 400 400" fill="none" xmlns="http://www.w3.org/2000/svg">
<path style="fill:#0000FF;" d="M130.905,72.398c-2.757,2.757-2.877,3.836-0.599,10.19c2.517,6.953,2.278,11.029-0.719,12.707
	c-3.793,2.124-8.834,0.48-27.212-1.439c-3.455-0.361-6.321-0.584-8.272-0.719c0.035,0.464,0.098,1.229,0.203,2.169
	c0.012,0.107,0.247,2.185,0.636,4.304c0.955,5.201,5.079,23.699,1.319,29.13c-1.079,1.558-2.158,1.558-9.47-0.36
	c-4.555-1.199-9.111-1.798-10.309-1.319c-2.877,1.079-5.514,6.833-6.354,13.666c-0.959,7.912,0.24,13.187,3.956,17.262
	c2.877,2.997,3.716,3.237,8.152,2.637c2.637-0.48,6.833-0.959,9.111-1.079c0.802-0.197,2.234-0.412,3.238,0.368
	c0.632,0.491,1.031,1.326,1.167,5c0.054,1.464,0.068,3.434-0.089,5.781c-0.15,5.362-0.555,11.096-1.319,17.143
	c-0.313,2.478-0.671,4.884-1.064,7.216c2.912-0.716,5.312-1.24,6.938-1.581c0,0,16.037-4.324,26.853-0.719
	c2.517,0.839,2.757,1.558,2.158,4.675c-2.398,12.587-2.398,13.546,1.079,16.184c9.231,7.313,29.969,5.514,31.528-2.637
	c0.24-1.079-0.719-4.915-2.278-8.391c-2.947-6.574-2.242-7.675-1.821-8.526c1.452-2.942,7.487-2.65,15.099-2.281
	c8.198,0.397,15.023,1.965,19.5,3.014c2.735,0.641,4.969,1.246,6.458,1.667c1.958-7.949,3.042-14.639,3.68-19.527
	c1.299-9.955,0.933-13.874-0.96-14.79c-0.421-0.203-0.73-0.169-4.554,0.764c-5.868,1.431-6.758,1.856-8.081,1.589
	c-2.129-0.43-4.097-1.666-6.065-3.747c-6.953-7.313-8.511-20.139-3.596-29.61c1.212-2.335,2.671-5.831,6.347-7.954
	c3.317-1.915,6.976-1.984,8.771-2.017c2.406-0.045,4.401,0.302,5.784,0.636c0.561,0.047,1.435,0.022,2.105-0.525
	c0.606-0.495,0.869-1.274,0.965-3.61c0.098-2.366-0.062-4.226-0.156-5.273c-0.202-2.254-0.303-3.38-0.485-4.798
	c-0.255-1.995-0.648-4.589-1.274-7.627c-0.517-2.879-1.034-5.757-1.551-8.636c-1.449,0.42-3.353,0.931-5.606,1.428
	c-3.886,0.857-6.684,1.2-9.344,1.544c-13.66,1.769-19.4,2.904-22.283,0.127c-0.121-0.117-0.215-0.231-0.295-0.337
	c-1.49-1.974-1.174-5.121-0.719-9.47c0.839-8.032,0.719-8.631-2.278-11.508C156.439,70.24,155.36,70,144.691,70
	C134.861,70,132.943,70.36,130.905,72.398z
	 M275.238,84.865c-0.36,0.959,0.24,5.035,1.439,9.231c0.361,0.83,1.551,3.838,0.407,7.321
	c-0.668,2.035-1.852,3.377-2.565,4.067c-8.152,7.432-23.496,8.032-34.285,1.199c-6.114-3.836-8.152-8.631-6.234-14.505
	c1.555-4.762,1.135-5.183,0.719-5.994c-1.955-3.811-14.672-1.325-21.469,0.65c-3.779,1.098-6.787,2.345-8.778,3.25
	c0.09,0.452,0.251,1.265,0.444,2.278c0,0,2.146,11.266,2.896,24.514c0.037,0.659-0.024,1.796-0.146,4.069
	c-0.123,2.292-0.247,3.298-1,4.056c-0.507,0.51-1.107,0.732-1.833,0.889c-1.221,0.263-3.264,0.543-6.078,0.214
	c-1.359-0.29-8.437-1.538-12.951,2.594c-1.509,1.381-2.381,3.404-2.993,6.277c-1.199,5.634-1.079,15.944,0.24,20.02
	c1.319,4.435,4.435,5.155,13.546,2.877c12.347-2.877,12.587-2.637,11.748,10.789c-0.534,8.537-0.816,12.931-2.158,19.061
	c-0.916,4.182-1.965,7.638-2.813,10.155c2.444,0.706,6.106,1.7,10.605,2.672c8.966,1.937,21.355,4.059,24.335,1.079
	c0.48-0.48-0.12-3.117-1.319-5.634c-2.997-6.713-2.637-10.429,1.199-14.505c5.155-5.395,17.382-7.432,27.572-4.675
	c10.789,2.997,14.625,9.231,11.868,18.821c-1.558,5.035-1.558,5.155,1.678,6.354c1.798,0.719,5.874,0.959,9.231,0.48
	c5.514-0.599,19.78-4.076,20.859-4.915c0.24-0.24-0.36-2.757-1.439-5.514c-4.555-12.587-5.395-29.25-1.678-33.086
	c1.798-1.678,2.398-1.678,6.593,0.24c2.517,1.199,6.473,1.918,8.751,1.678c3.357-0.24,4.435-1.199,6.234-4.795
	c4.196-8.511,2.398-27.452-2.877-29.13c-1.319-0.48-5.035,0.12-8.272,1.199c-3.237,1.079-7.432,1.798-9.231,1.558
	c-0.194-0.004-0.374-0.035-0.54-0.088c-2.958-0.945-2.635-9.195-2.576-10.461c0.544-6.373,1.128-13.168,1.678-19.54
	c0.2-2.32,0.71-8.206,0.912-10.526c-1.956-0.566-26.81-7.705-30.042-5.897C275.687,83.875,275.238,84.865,275.238,84.865z
	 M244.549,182.086c-5.395,2.997-5.874,5.155-2.517,13.426c1.678,4.076,2.757,8.152,2.398,9.231
	c-1.079,2.637-17.382,2.517-31.288-0.24c-3.714-0.918-7.427-1.835-11.141-2.753c-0.442,1.597-0.884,3.194-1.326,4.791
	c-1.798,4.435-3.476,26.133-2.278,29.37c0.599,1.678,1.199,1.678,4.915,0.12c6.833-2.877,11.269-2.278,15.704,2.158
	c4.555,4.555,6.234,13.306,4.316,23.376c-0.743,3.903-1.514,9.502-5.587,12.603c-2.034,1.548-4.633,2.388-4.633,2.388
	c-2.617,0.846-4.897,0.835-6.278,0.722c-1.421-0.247-2.793-0.469-4.111-0.667c-1.719-0.258-2.368-0.33-2.944,0.056
	c-0.858,0.575-0.982,1.782-1.056,2.667c-0.15,1.812-0.278,4.574-0.086,8.245c0.407,4.266,0.946,8.69,1.642,13.255
	c0.296,1.942,0.612,3.85,0.944,5.722c2.908-0.34,5.256-0.661,6.764-0.876c7.678-1.093,21.76-3.588,30.089-1.439
	c3.716,0.959,3.836,2.877,1.079,10.909c-0.239,0.456-1.561,3.079-0.488,6.1c0.73,2.054,2.177,3.195,2.766,3.61
	c7.552,6.833,23.136,6.833,29.49,0.12c0.464-0.831,1.014-2.069,1.244-3.647c0.473-3.241-0.716-5.794-1.244-6.783
	c-0.304-1.342-0.653-3.407-0.598-5.953c0.03-1.375,0.045-2.062,0.245-2.547c1.649-3.99,12.615-3.11,13.779-3.008
	c3.722,0.327,13.87,1.796,14.288,1.823c0.207,0.013,0.29,0.014,0.377,0.026c0.176,0.024,0.302,0.064,0.319,0.069
	c0.208,0.06,3.249,0.651,10.833,2.095c0.214-0.978,0.534-2.456,0.915-4.253c6.199-29.292,4.559-31.408,3.716-31.408
	c-0.36,0-2.637,1.079-5.275,2.398c-10.909,5.634-18.701,0.839-20.979-12.947c-1.918-11.748,2.038-22.417,10.07-27.092
	c3.956-2.278,4.316-2.278,9.59-0.36c2.997,1.079,5.634,1.678,5.994,1.439c2.158-2.158,0.24-21.458-2.757-28.771l-1.678-3.956
	l-8.152,2.278c-9.71,2.637-25.294,3.117-28.531,0.719c-2.038-1.558-2.038-1.918-0.12-8.991c2.158-7.432,2.158-7.552-0.48-10.309
	c-1.439-1.439-4.316-3.237-6.473-3.956C259.774,179.928,248.145,180.048,244.549,182.086z
	 M112.324,195.272c-2.756,0.312-4.416,0.88-8.152,1.798c-2.595,0.638-6.39,1.51-11.117,2.374
	c0.225,2.481,0.455,4.967,0.687,7.456c0.544,5.819,1.104,11.613,1.678,17.382c0.535,3.759,0.565,6.651,0.495,8.551
	c-0.047,1.273-0.163,2.787-1.25,3.75c-0.628,0.556-1.336,0.712-2,0.833c-1.447,0.263-3.697,0.54-6.716,0.412
	c-1.312,0.002-3.197,0.062-5.451,0.338c-3.31,0.406-4.993,0.629-6.386,1.619c-1.92,1.365-2.372,3.752-3.148,6.555
	c-2.757,9.95,0.24,23.256,5.514,24.575c1.558,0.36,5.754-0.24,9.35-1.319c9.71-3.117,10.309-2.517,10.309,9.231
	c0,4.289-0.272,7.729-0.469,9.861c-0.643,6.966-1.736,12.286-2.449,15.368c-0.211,0.912-0.398,1.668-0.532,2.194
	c1.208-0.169,3.057-0.429,5.309-0.75c6.559-0.936,9.571-1.402,11.926-1.738c12.305-1.758,17.649-1.523,20.259-0.48
	c2.398,0.959,2.398,4.675,0.12,11.269c-2.757,7.912-2.398,10.429,2.158,12.827c5.754,3.117,19.3,2.877,24.815-0.36
	c3.956-2.278,4.196-2.757,4.196-8.991c-0.12-3.596-0.36-8.391-0.599-10.669l-0.599-4.076l11.748,0.36
	c5.641,0.494,11.439,1.126,17.382,1.918c2.21,0.294,4.393,0.605,6.55,0.93c-0.559-3.587-1.015-6.407-1.275-8.003
	c0,0-3.467-21.56-0.24-27.092c0.839-1.439,1.918-1.558,6.593-0.24c10.909,2.877,14.385,1.558,17.262-6.833
	c1.918-5.754,1.678-16.423-0.48-20.499c-2.877-5.634-5.395-6.354-14.505-3.956c-7.792,2.038-7.912,2.038-9.71-0.24
	c-2.278-3.117-1.439-17.862,1.918-30.329l2.278-8.751l-2.517-0.959c-4.675-1.798-25.414-5.155-29.13-4.675
	c-3.836,0.36-3.956,0.959-1.558,9.59c1.146,4.102,1.321,7.021,0.264,9.381c-1.445,3.228-4.579,4.803-6.978,5.963
	c-3.483,1.685-6.567,1.915-9.377,2.097c-1.949,0.126-5.531,0.33-9.917-0.778c-3.805-0.961-11.593-2.929-14-8.917
	c-1.214-3.019-0.909-6.687-0.722-8.944c0.162-1.956,0.506-3.573,0.806-4.722c0.034-0.148,0.268-1.276-0.5-2.25
	c-0.867-1.098-2.227-1.009-2.333-1C119.407,195.027,116.14,194.841,112.324,195.272z"/>
</svg>
