<svg width="400" height="400" viewBox="0 0 400 400" fill="none" xmlns="http://www.w3.org/2000/svg">
<path fill-rule="evenodd" clip-rule="evenodd" d="M210.557 71.3965C208.198 72.5326 208.027 73.3551 207.516 85.956C207.115 95.8134 204.901 118.224 204.066 120.881C203.836 121.611 203.056 125.614 202.332 129.778C201.607 133.941 200.049 140.011 198.867 143.267C197.687 146.523 196.401 150.973 196.011 153.155C195.306 157.106 194.778 158.482 190.583 167.312C188.189 172.353 184.884 178.101 183.459 179.702C179.276 184.403 171.584 203.765 171.584 209.593C171.584 210.86 171.186 212.14 170.702 212.44C168.829 213.598 170.099 224.407 173.423 235.601C176.62 246.367 187.257 258.558 198.43 264.263C201.322 265.74 221.715 268.026 224.213 267.155C224.711 266.981 228.073 266.485 231.685 266.051C244.674 264.493 258.501 251.923 264.487 236.229C271.23 218.55 268.03 202.307 252.858 177.197C243.36 161.479 239.718 150.996 234.77 125.158C232.117 111.295 229.756 88.0554 229.756 75.7941C229.756 70.9864 217.32 68.1372 210.557 71.3965ZM226.18 74.3877C226.433 75.1455 224.613 75.4181 219.287 75.4181C212.807 75.4181 211.109 74.9546 212.496 73.5675C213.447 72.6166 225.838 73.3596 226.18 74.3877ZM227.421 85.956C228.536 101.172 229.772 112.824 230.999 119.679C232.275 126.807 235.367 142.15 235.671 142.864C235.77 143.095 235.918 143.664 236 144.128C236.447 146.674 238.442 153.045 239.827 156.353C240.701 158.439 242.475 162.76 243.771 165.953C245.066 169.148 248.228 175.028 250.798 179.021C254.745 185.156 257.589 190.673 261.926 200.614C270.426 220.096 261.656 246.986 242.714 259.522C239.617 261.572 235.657 261.836 235.657 259.994C235.657 259.607 233.479 259.178 230.817 259.038C226.726 258.825 225.939 258.525 225.726 257.099C224.886 251.471 225.062 251.62 219.231 251.62C213.74 251.62 210.959 253.385 212.506 255.889C213.419 257.365 211.126 259.206 208.364 259.217C206.915 259.221 203.932 259.77 201.737 260.437L197.746 261.648L192.042 257.08C168.909 238.555 166.308 210.899 184.988 182.052C188.527 176.587 189.045 175.659 192.504 168.577C197.076 159.221 198.199 155.988 202.906 138.648C204.794 131.689 207.042 119.189 206.998 115.885C206.983 114.726 207.34 112.829 207.792 111.67C208.245 110.51 209.007 102.583 209.488 94.0537C210.531 75.5419 209.932 76.5712 219.353 77.104L226.805 77.5254L227.421 85.956ZM217.122 199.786C219.667 202.852 216.014 213.364 209.864 220.674C204.026 227.612 202.443 237.664 206.004 245.198C208.556 250.599 209.686 249.423 209.831 241.211C209.924 235.979 210.277 234.466 211.867 232.5C215.734 227.716 217.531 224.153 217.531 221.268C217.531 217.26 218.809 217.552 222.897 222.499C228.014 228.691 230.227 236.095 228.49 241.211C226.66 246.601 229.563 250.353 231.487 245.085C231.953 243.811 232.573 242.198 232.864 241.502C233.155 240.807 233.324 239.793 233.238 239.247C233.153 238.703 233.472 238.017 233.948 237.723C235.006 237.069 235.111 225.768 234.066 225.122C233.655 224.867 233.054 223.233 232.73 221.489C231.836 216.665 227.457 209.088 222.342 203.515C218.389 199.206 214.097 196.14 217.122 199.786ZM132.802 254.111C128.861 254.913 124.593 256.069 123.317 256.68L121 257.792V281.554V305.317L123.787 308.188C127.595 312.109 132.429 313.271 159.359 316.74C160.374 316.87 161.047 317.594 161.05 318.554C161.054 320.407 162.03 321.012 167.79 322.735C171.712 323.907 174.652 324.381 192.062 326.643C195.675 327.112 201.799 327.496 205.672 327.496C210.903 327.496 212.829 327.797 213.163 328.667C213.824 330.39 225.219 330.467 226.927 328.758C227.808 327.879 229.971 327.496 234.072 327.496C240.178 327.496 260.544 325.363 266.43 324.107C278.998 321.426 280.569 320.527 277.562 317.74C275.971 316.264 275.406 314.638 274.955 310.238C273.856 299.505 270.225 294.383 262.943 293.29C259.984 292.847 258.307 291.949 255.992 289.57C253.937 287.461 252.389 286.555 251.253 286.8C250.326 286.999 247.102 287.519 244.087 287.954C241.073 288.388 236.142 289.158 233.128 289.665C228.311 290.475 210.631 290.226 202.356 289.233C196.347 288.512 191.251 287.588 189.341 286.875C187.56 286.21 186.866 286.569 184.105 289.588C182.356 291.504 180.57 292.851 180.137 292.584C175.267 289.574 166.238 298.878 165.209 307.967C164.492 314.303 164.984 313.989 157.252 313.047C153.773 312.623 147.177 311.916 142.593 311.477C134.6 310.711 132.158 309.869 129.127 306.838C127.081 304.792 127.407 301.127 129.839 298.844C132.664 296.189 133.329 292.103 131.627 287.848C130.373 284.715 130.373 283.97 131.63 278.446C133.161 271.712 132.482 267.448 129.437 264.693C124.9 260.587 129.138 256.417 138.762 255.523C148.351 254.631 151.021 256.812 153.081 267.217C153.54 269.535 154.038 271.811 154.188 272.274C154.337 272.739 154.763 274.255 155.134 275.647C157.797 285.602 169.921 291.956 180.436 288.906C184.22 287.807 184.483 284.939 180.729 285.696C173.566 287.14 172.353 287.141 168.467 285.706C161.746 283.221 159.127 279.865 157.327 271.431C153.292 252.524 150.453 250.519 132.802 254.111ZM212.422 262.33C212.665 262.965 212.343 263.687 211.704 263.932C209.758 264.679 204.193 263.908 203.844 262.844C203.551 261.951 204.804 261.669 210.961 261.244C211.52 261.206 212.178 261.694 212.422 262.33ZM233.762 263.212C234.01 263.962 232.879 264.265 229.825 264.265C225.899 264.265 224.352 263.205 225.949 261.608C226.75 260.807 233.417 262.176 233.762 263.212ZM189.531 269.186C188.882 270.264 188.694 272.44 189.014 275.147C189.353 278.007 189.17 279.832 188.458 280.69C184.452 285.517 242.292 288.296 248.008 283.552C248.594 283.065 249.442 282.896 249.893 283.176C251.074 283.905 251.97 282.087 251.026 280.88C249.796 279.303 249.219 276.123 250.068 275.598C250.489 275.338 250.832 273.657 250.832 271.861C250.832 267.948 249.449 267.245 243.467 268.114C237.529 268.976 236.579 269.176 235.643 269.754C234.465 270.481 212.982 271.164 211.919 270.508C211.445 270.215 208.91 269.913 206.285 269.838C203.66 269.763 201.089 269.437 200.572 269.113C197.897 267.432 190.557 267.482 189.531 269.186ZM195.604 276.279C194.909 281.525 193.996 282.823 192.236 281.065C191.208 280.037 191.157 279.281 191.949 276.885C192.48 275.277 193.036 273.486 193.183 272.907C194.107 269.265 196.155 272.118 195.604 276.279ZM202.322 273.485C202.966 274.527 201.471 281.084 200.329 282.226C199.165 283.39 198.396 282.563 198.095 279.823C197.597 275.291 200.629 270.746 202.322 273.485ZM247.295 277.681C247.521 281.569 247.367 282.076 246.031 281.823C244.454 281.524 243.45 276.417 244.453 273.802C245.456 271.188 247.044 273.356 247.295 277.681ZM208.679 276.75C208.679 280.081 206.776 283.721 205.633 282.578C204.944 281.888 205.089 275.415 205.821 274.233C207.033 272.271 208.679 273.721 208.679 276.75ZM214.158 278.668C214.158 282.166 213.863 283.235 212.894 283.235C211.616 283.235 211.02 278.375 211.883 274.98C212.68 271.836 214.158 274.229 214.158 278.668ZM221.165 279.112C220.976 282.099 220.554 283.235 219.638 283.235C218.407 283.235 218.218 276.033 219.399 274.099C220.403 272.45 221.407 275.299 221.165 279.112ZM234.665 276.824C235.039 280.723 234.191 283.656 232.69 283.656C231.725 283.656 231.442 282.496 231.442 278.536C231.442 272.606 234.125 271.181 234.665 276.824ZM240.866 276.975C241.591 280.365 240.981 283.04 239.589 282.583C239.05 282.404 238.492 280.258 238.35 277.813C238.051 272.665 239.821 272.075 240.866 276.975ZM227.792 278.712C226.976 285.591 224.697 285.47 224.697 278.547C224.697 274.854 224.902 274.383 226.5 274.383C228.176 274.383 228.268 274.691 227.792 278.712ZM261.613 296.884C265.053 299.453 265.85 301.262 264.111 302.556C263.299 303.161 262.635 304.288 262.635 305.062C262.635 307.249 260.391 307.6 256.329 306.049C250.108 303.673 245.572 298.831 249.567 298.831C250.263 298.831 250.832 299.149 250.832 299.539C250.832 300.156 254.436 302.203 255.522 302.203C255.739 302.203 254.71 301.125 253.234 299.806C247.834 294.981 255.488 292.312 261.613 296.884Z" fill="#0000FF"/>
</svg>
