<svg width="400" height="400" viewBox="0 0 400 400" fill="none" xmlns="http://www.w3.org/2000/svg">
<path fill-rule="evenodd" clip-rule="evenodd" d="M249.614 70.8147C249.614 71.2714 250.081 71.6453 250.652 71.6453C251.224 71.6453 253.833 73.3277 256.452 75.3841C259.071 77.4393 261.503 79.1218 261.857 79.1218C263.262 79.1218 274.631 92.2904 278.69 98.6195C283.266 105.753 287.705 114.003 288.203 116.296C288.526 117.781 289.15 118.996 289.591 118.996C290.031 118.996 290.317 119.464 290.225 120.035C290.133 120.606 290.288 121.633 290.569 122.319C292.83 127.834 294.487 148.542 292.924 151.759C292.466 152.701 291.854 155.615 291.563 158.234C291.272 160.855 290.681 163.217 290.247 163.484C289.815 163.752 289.653 164.279 289.886 164.658C290.12 165.035 289.755 166.411 289.074 167.715C288.394 169.019 287.835 170.74 287.833 171.54C287.83 172.339 287.453 172.994 286.997 172.994C286.54 172.994 286.165 173.461 286.164 174.031C286.159 175.75 280.493 186.455 277.841 189.753C276.48 191.447 275.366 193.039 275.366 193.291C275.366 193.541 274.213 194.85 272.803 196.198C269.883 198.987 266.98 207.093 267.648 210.589C268.169 213.319 281.421 226.175 287.296 229.651L291.332 232.039L295.31 228.477C297.499 226.517 299.327 224.504 299.373 224.004C299.42 223.503 300.206 222.418 301.119 221.59C302.032 220.764 302.78 219.603 302.78 219.011C302.78 218.419 303.435 217.554 304.234 217.088C305.034 216.622 305.388 216.231 305.022 216.216C304.656 216.203 305.284 214.976 306.417 213.491C307.549 212.006 308.432 210.605 308.38 210.376C308.326 210.148 309.262 208.278 310.459 206.222C311.656 204.167 312.888 201.456 313.197 200.2C313.507 198.944 314.011 197.915 314.319 197.915C314.767 197.915 316.766 193.93 317.237 192.1C317.296 191.871 317.574 191.311 317.856 190.854C318.138 190.397 318.643 188.715 318.978 187.116C319.313 185.516 319.867 183.834 320.208 183.377C320.551 182.921 320.884 181.986 320.95 181.301C321.375 176.911 323.169 168.84 323.72 168.84C324.082 168.84 324.379 164.915 324.379 160.117C324.379 155.319 324.049 151.395 323.646 151.395C323.242 151.395 322.652 148.969 322.334 146.004C322.016 143.039 321.397 140.39 320.957 140.119C320.518 139.847 320.385 138.908 320.664 138.033C320.941 137.157 320.821 136.442 320.395 136.442C319.97 136.442 319.146 134.199 318.564 131.457C317.983 128.716 317.225 126.472 316.881 126.472C316.538 126.472 316.012 125.164 315.712 123.565C315.412 121.966 314.809 120.657 314.373 120.657C313.937 120.657 313.645 120.377 313.725 120.035C313.9 119.281 311.852 114.824 310.682 113.415C310.22 112.857 308.533 110.502 306.934 108.179C301.954 100.948 282.313 82.4441 279.618 82.4441C279.153 82.4441 278.474 81.9695 278.107 81.3886C277.743 80.8076 276.509 79.8684 275.366 79.3009C274.224 78.7344 271.721 77.3822 269.805 76.2964C267.887 75.2117 266.112 74.5311 265.859 74.7841C265.605 75.0371 265.398 74.8255 265.398 74.3128C265.398 73.8012 264.089 73.1363 262.491 72.8363C260.891 72.5363 259.583 71.915 259.583 71.4561C259.583 70.996 258.836 70.8158 257.922 71.0542C257.009 71.2938 256.052 71.1505 255.797 70.7363C255.161 69.7076 249.614 69.7781 249.614 70.8147ZM138.767 71.5568C138.53 71.9397 136.968 72.4736 135.295 72.7456C131.28 73.3971 121.711 79.8852 117.765 84.6315C116.036 86.7124 113.075 90.1546 111.184 92.2826C109.295 94.4106 105.984 98.2076 103.827 100.721C101.67 103.234 98.2632 107.158 96.2572 109.443C94.2512 111.728 90.4038 116.116 87.7083 119.194C82.6911 124.925 77.6538 132.935 77.6538 135.183C77.6538 135.875 77.28 136.442 76.8232 136.442C75.8673 136.442 75.6759 141.147 76.615 141.564C76.9587 141.717 77.9852 143.336 78.8986 145.164C81.3792 150.131 99.6859 167.178 102.539 167.178C103.016 167.178 103.407 167.459 103.407 167.803C103.407 169.383 113.312 173.08 116.129 172.552C120.469 171.738 136.568 156.699 136.621 153.409C136.628 152.917 137.477 151.731 138.505 150.771L140.374 149.027L144.527 151.831C149.424 155.138 151.431 156.695 155.436 160.296C158.093 162.686 161.44 164.481 161.827 163.724C166.749 154.104 166.664 154.18 173.405 153.387L177.951 152.853L180.761 147.542L183.572 142.231L180.032 139.128C178.084 137.422 174.43 134.531 171.909 132.703C163.709 126.76 158.562 121.624 159.486 120.308C159.94 119.662 161.733 117.046 163.471 114.495C165.209 111.945 166.984 109.858 167.416 109.858C167.849 109.858 168.203 109.379 168.203 108.794C168.203 107.401 177.046 98.7874 180.248 97.0591C181.619 96.3203 183.302 95.3699 183.987 94.9479C187.87 92.5557 191.428 91.5785 196.368 91.5482L201.847 91.5147L199.125 89.1841C197.627 87.9035 195.385 86.3296 194.14 85.6893C192.896 85.0479 191.58 84.0561 191.214 83.4841C190.849 82.9121 190.008 82.4441 189.346 82.4441C188.683 82.4441 188.14 82.0703 188.14 81.6136C188.14 81.1568 187.86 80.8658 187.518 80.9677C187.175 81.0695 185.886 80.4785 184.653 79.6546C183.421 78.8307 181.925 78.0572 181.331 77.9363C179.87 77.6374 175.556 75.9617 174.018 75.0953C173.333 74.7091 170.156 73.9244 166.956 73.3535C163.758 72.7815 160.521 71.9945 159.763 71.6039C157.98 70.6859 139.331 70.6445 138.767 71.5568ZM196.032 132.264C193.594 133.271 185.986 141.505 185.265 143.918C184.924 145.06 183.75 147.556 182.655 149.466C180.858 152.597 179.855 156.634 181.21 155.278C181.724 154.765 188.667 159.88 189.997 161.75C190.333 162.223 190.613 162.314 190.619 161.953C190.627 161.592 191.657 162.245 192.909 163.406C195.796 166.084 195.963 166.067 199.341 162.787C201.978 160.226 209.739 149.555 209.739 148.49C209.739 148.222 210.562 146.892 211.567 145.533L213.395 143.061L208.867 138.431C206.377 135.884 203.592 133.511 202.678 133.155C199.218 131.81 197.643 131.599 196.032 132.264ZM220.945 143.101C220.659 143.565 220.073 143.728 219.644 143.463C218.668 142.861 208.908 152.073 208.908 153.598C208.908 154.214 208.596 154.717 208.213 154.717C207.159 154.717 199.771 166.424 199.771 168.095C199.771 168.9 200.518 169.796 201.432 170.086C202.345 170.375 203.093 170.962 203.093 171.387C203.093 171.814 203.499 172.163 203.996 172.163C204.861 172.163 211.538 176.552 213.624 178.492C214.175 179.004 214.418 180.213 214.165 181.18C212.419 187.859 217.014 184.554 228.015 171.218C229.614 169.281 232.51 165.886 234.45 163.675C239.952 157.404 241.002 155.559 239.58 154.659C238.931 154.248 238.759 153.907 239.199 153.899C239.638 153.892 238.157 152.017 235.907 149.733C233.657 147.449 231.361 145.58 230.806 145.58C230.25 145.58 229.199 144.983 228.469 144.253C227.739 143.523 226.603 143.133 225.943 143.386C225.285 143.639 224.525 143.487 224.254 143.051C223.607 142.004 221.605 142.034 220.945 143.101ZM171.941 155.722C168.422 156.956 166.658 158.703 164.361 163.233C163.26 165.403 162.064 167.178 161.7 167.178C161.337 167.178 160.561 169.048 159.976 171.331C159.39 173.616 158.587 175.486 158.19 175.486C157.794 175.486 157.022 176.981 156.474 178.809C155.927 180.636 155.165 182.131 154.78 182.131C154.396 182.131 154.081 182.495 154.081 182.94C154.081 183.385 152.736 186.469 151.091 189.794C148.071 195.899 147.434 199.474 149.019 201.421C157.866 212.29 162.095 216.699 177.908 231.528C181.19 234.606 184.927 238.676 186.212 240.572C187.499 242.468 188.774 244.208 189.046 244.436C189.658 244.951 189.452 257.924 188.813 259.012C188.558 259.447 188.078 262.047 187.748 264.788C187.419 267.53 186.768 270.238 186.301 270.807C185.834 271.376 185.648 272.59 185.888 273.506C186.127 274.422 185.984 275.38 185.57 275.636C185.156 275.893 184.818 277.553 184.818 279.326C184.818 281.1 184.494 282.751 184.098 282.995C183.703 283.24 183.559 284.385 183.781 285.542C184.002 286.697 183.809 288.109 183.353 288.676C182.898 289.245 182.255 292.7 181.926 296.356C181.598 300.011 180.959 303.453 180.508 304.006C180.056 304.558 179.928 306.112 180.224 307.457C180.535 308.872 180.39 310.134 179.882 310.449C178.673 311.195 178.756 316.709 179.975 316.709C180.51 316.709 181.539 317.202 182.26 317.805C184.259 319.475 190.586 321.659 191.931 321.143C192.587 320.891 193.125 321.055 193.125 321.507C193.125 321.959 195.925 322.592 199.35 322.912C202.773 323.233 205.795 323.853 206.066 324.29C206.336 324.728 208.115 325.104 210.018 325.125C211.921 325.146 217.496 325.342 222.408 325.559C231.702 325.97 233.507 325.304 228.254 323.403C224.123 321.91 221.772 319.69 225.215 320.534C226.527 320.857 227.724 321.435 227.877 321.822C228.029 322.208 228.648 322.524 229.251 322.524C229.855 322.524 233.618 324.206 237.614 326.262C241.61 328.319 245.384 330 246.001 330C247.347 330 247.434 321.053 246.192 310.063C242.877 280.719 242.489 251.091 245.372 247.397C248.396 243.522 246.899 240.629 237.201 231.61C234.714 229.299 230.168 224.883 227.099 221.799C220.452 215.12 219.738 214.962 219.61 220.137C219.556 222.308 219.226 225.205 218.878 226.575C218.292 228.872 218.135 228.954 217.675 227.199C215.891 220.381 196.536 198.397 193.804 200.086C193.43 200.316 193.125 200.171 193.125 199.762C193.125 199.352 191.068 197.978 188.555 196.706C183.921 194.361 183.63 193.931 184.495 190.704C185.213 188.03 187.08 187.727 189.916 189.824C192.923 192.047 204.254 192.593 205.501 190.575C205.878 189.965 206.424 189.591 206.714 189.744C207.676 190.253 212.022 185.539 212.369 183.611C212.931 180.49 212.341 179.326 209.094 177.155C207.393 176.016 205.814 174.893 205.586 174.659C205.358 174.427 203.488 173.116 201.432 171.748C199.375 170.379 197.395 168.791 197.029 168.219C196.664 167.646 195.967 167.178 195.481 167.178C194.994 167.178 192.45 165.318 189.825 163.044C187.201 160.772 184.814 159.151 184.52 159.446C184.227 159.739 183.987 159.588 183.987 159.11C183.987 158.349 179.528 155.999 178.033 155.973C177.728 155.968 177.199 155.683 176.856 155.341C176.067 154.552 175.056 154.63 171.941 155.722ZM243.31 157.779C242.356 157.967 240.674 159.256 239.572 160.643C236.585 164.406 228.47 173.722 224.432 178.027C215.373 187.681 217.35 197.902 228.277 197.912C233.097 197.917 234.527 196.683 257.298 172.854C258.864 171.215 259.21 169.67 258.011 169.67C257.605 169.67 257.049 168.788 256.778 167.711C255.93 164.327 248.059 156.933 245.723 157.323C245.35 157.385 244.265 157.59 243.31 157.779ZM246.524 186.872C234.949 198.633 234.517 199.196 234.96 201.928C235.46 205.013 237.581 207.884 239.358 207.884C239.973 207.884 240.477 208.257 240.477 208.715C240.477 209.805 245.209 209.793 245.884 208.702C246.171 208.237 246.698 208.037 247.054 208.257C247.411 208.478 249.653 206.993 252.038 204.958C254.422 202.922 256.815 200.972 257.355 200.625C264.464 196.043 270.281 184.273 266.722 181.67C265.993 181.137 265.398 180.296 265.398 179.797C265.398 178.857 260.329 174.655 259.194 174.655C258.839 174.655 253.137 180.152 246.524 186.872ZM214.26 197.326C213.956 198.119 214.089 199.229 214.557 199.794C215.024 200.36 215.667 202.225 215.987 203.937C216.308 205.651 216.965 207.053 217.447 207.053C217.928 207.053 218.085 207.291 217.794 207.582C216.585 208.791 227.242 220.432 235.721 227.166C237.446 228.536 240.811 231.959 243.198 234.772C245.584 237.586 247.912 240.002 248.368 240.142C249.423 240.466 258.597 248.902 270.658 260.635C286.382 275.935 288.755 277.835 290.343 276.397C291.087 275.724 291.987 275.173 292.342 275.173C292.698 275.173 293.725 274.235 294.628 273.087C295.53 271.941 296.54 271.171 296.871 271.376C297.884 272.002 303.311 265.848 305.245 261.881C306.247 259.825 307.425 257.473 307.86 256.656C308.296 255.837 308.43 254.809 308.159 254.371C307.888 253.932 307.969 253.571 308.339 253.567C308.709 253.564 309.437 252.643 309.958 251.519C310.851 249.593 307.271 245.267 304.784 245.267C304.454 245.267 302.958 244.332 301.46 243.189C299.963 242.047 298.379 241.113 297.94 241.113C297.502 241.113 296.928 240.552 296.665 239.867C296.402 239.182 295.684 238.621 295.07 238.621C294.456 238.621 292.856 237.457 291.513 236.034C290.171 234.612 287.579 232.508 285.751 231.359C283.923 230.212 281.679 228.432 280.766 227.406C277.547 223.79 260.787 209.08 257.359 206.862L253.889 204.618L251.257 207.616C247.384 212.027 240.425 212.206 236.713 207.988C231.436 201.993 230.514 201.239 228.469 201.239C227.306 201.239 226.354 200.913 226.354 200.515C226.354 200.118 224.017 199.333 221.161 198.772C218.306 198.211 215.71 197.332 215.392 196.818C215.009 196.201 214.625 196.374 214.26 197.326ZM261.896 200.161C257.722 204.409 257.715 204.873 261.788 207.716C265.058 209.998 265.397 209.994 265.403 207.676C265.406 206.649 265.971 204.729 266.658 203.41C267.429 201.931 267.62 200.66 267.158 200.088C266.744 199.578 266.273 198.489 266.11 197.668C265.871 196.465 265.051 196.95 261.896 200.161ZM118.327 220.968C114.109 225.422 110.083 230.002 109.382 231.144C108.68 232.286 107.228 234.156 106.156 235.297C104.207 237.373 100.773 241.792 98.4221 245.25C97.737 246.259 96.3053 248.263 95.2419 249.705C90.9311 255.547 83.6348 266.942 81.3266 271.434C80.6225 272.805 79.5132 274.862 78.8628 276.003C76.2423 280.599 83.7423 291.412 92.2329 295.28C93.3523 295.79 94.268 296.492 94.268 296.839C94.268 297.186 95.3897 297.716 96.7609 298.018C98.1311 298.319 99.2527 298.971 99.2527 299.468C99.2527 299.965 99.4889 300.135 99.7777 299.847C100.065 299.558 101.083 299.87 102.039 300.54C106.077 303.367 115.867 298.677 115.867 293.914C115.867 293.657 116.522 292.727 117.321 291.846C119.796 289.119 120.852 287.725 120.852 287.182C120.852 286.445 126.119 278.97 126.874 278.634C127.217 278.482 127.497 277.885 127.497 277.309C127.497 276.732 128.245 275.585 129.159 274.758C130.072 273.93 130.827 272.844 130.834 272.344C130.857 270.947 134.78 267.541 135.334 268.437C135.603 268.874 136.941 269.475 138.306 269.775C139.672 270.075 140.789 270.665 140.789 271.085C140.789 271.506 141.181 271.849 141.66 271.849C142.139 271.849 144.059 272.588 145.926 273.49C147.794 274.393 149.645 274.931 150.04 274.687C150.435 274.443 150.758 274.623 150.758 275.085C150.758 275.549 152.066 276.174 153.666 276.474C155.264 276.774 156.573 277.316 156.573 277.679C156.573 278.043 158.535 278.604 160.934 278.926C163.333 279.249 165.76 279.888 166.326 280.346C166.893 280.803 168.575 280.988 170.065 280.754C171.554 280.521 174.376 280.747 176.337 281.256C180.693 282.386 182.499 281.486 182.791 278.04C182.906 276.691 183.595 273.544 184.324 271.046C185.052 268.547 185.648 264.977 185.648 263.112C185.648 261.247 186.024 259.344 186.484 258.884C189.034 256.335 187.823 246.159 184.609 243.122C182.897 241.502 181.494 240.433 181.494 240.747C181.494 241.06 181.027 240.941 180.456 240.484C179.886 240.026 176.521 239.387 172.98 239.065C169.438 238.743 166.541 238.215 166.541 237.89C166.541 237.566 164.299 236.804 161.558 236.196C158.816 235.588 156.573 234.823 156.573 234.496C156.573 234.169 155.077 233.409 153.25 232.806C151.422 232.202 149.927 231.486 149.927 231.214C149.927 230.942 148.749 230.197 147.31 229.56C145.87 228.924 144.068 227.804 143.305 227.073C142.541 226.342 140.475 224.623 138.714 223.253C136.952 221.881 133.578 218.984 131.216 216.814C125.893 211.923 127.333 211.46 118.327 220.968ZM247.969 245.641C245.461 252.235 243.737 271.23 245.487 272.983C245.991 273.488 253.135 271.839 253.767 271.072C254.237 270.504 257.905 268.828 259.167 268.605C260.917 268.296 266.228 262.292 266.228 260.624C266.228 259.078 251.929 244.602 249.556 243.746C249.136 243.593 248.422 244.446 247.969 245.641Z" fill="#FFEE00"/>
</svg>
