<svg width="400" height="400" viewBox="0 0 400 400" fill="none" xmlns="http://www.w3.org/2000/svg">
<path style="fill:#FFEE00;" d="M246.974,330c-7.149-3.36-14.299-6.721-21.448-10.081c-0.161,0.343-0.323,0.687-0.484,1.03
	c2.288,1.169,4.575,2.337,6.863,3.506c-7.313,0.553-16.925,0.577-27.963-1.298c-10.296-1.75-18.839-4.644-25.311-7.363
	c0.564-4.439,0.954-8.31,1.562-12.145c1.365-8.604,2.779-17.201,4.287-25.78c1.084-6.171,1.652-12.553,3.686-18.411
	c3.894-11.22-0.524-19.272-8.313-26.593c-7.414-6.969-14.786-13.985-22.065-21.095c-2.351-2.297-4.459-4.87-6.481-7.47
	c-3.061-3.936-4.076-7.921-1.431-12.844c5.253-9.776,9.885-19.883,14.957-29.759c3.524-6.86,9.462-8.599,16.162-4.715
	c3.655,2.119,7.027,4.736,10.467,7.212c5.453,3.925,10.77,8.045,16.304,11.851c5.62,3.864,5.914,7.636,0.625,12.128
	c-5.004,4.25-11.895,4.894-17.671,1.654c-1.294-0.726-2.595-1.438-4.59-2.543c-0.994,2.253-1.812,4.106-2.825,6.402
	c15.363,7.585,27.385,17.963,35.048,33.416c0.518-3.532,1.037-7.064,1.786-12.172c9.358,9.197,17.877,17.569,26.019,25.571
	c-1.23,6.785-2.617,12.651-3.262,18.597c-0.465,4.286,0.037,8.679,0.156,13.023c0.045,1.643,0.209,3.284,0.341,4.924
	c0,0,0.529,6.332,2.239,27.793C246.112,310.863,246.676,319.42,246.974,330z M175.055,100.557c5.38-5.022,8.838-7.094,12.58-7.972
	c1.672-0.392,4.932-0.906,8.295-1.198c2.353-0.204,4.323-0.263,5.714-0.276c-7.584-6.358-14.685-10.236-19.708-12.569
	c-7.371-3.423-20.953-9.074-37.797-7.457c-4.906,0.471-9.999,1.822-14.408,3.991c-7.098,3.491-12.136,9.55-17.169,15.663
	c-9.66,11.733-20.051,22.862-29.852,34.483c-7.457,8.843-8.025,15.74-1.606,23.167c7.644,8.844,16.333,16.633,26.958,21.896
	c6.881,3.408,10.383,3.11,15.73-2.34c4.679-4.769,8.761-10.123,13.109-15.216c1.043-1.222,2.097-2.435,3.404-3.951
	c7.083,5.211,13.846,10.186,20.842,15.333c0.76-1.408,1.268-2.2,1.633-3.053c1.898-4.433,4.783-8.007,9.927-7.894
	c5.593,0.123,7.07-3.73,8.867-7.634c1.131-2.457,0.859-4.538-1.317-6.245c-2.802-2.197-5.656-4.329-8.416-6.578
	c-4.414-3.597-8.768-7.267-13.928-11.555C164.452,111.189,170.769,104.558,175.055,100.557z M124.071,214.49
	c-5.63,6.362-11.2,12.778-16.828,19.142c-11.148,12.607-20.085,26.747-28.267,41.358c-1.11,1.982-1.269,5.987-0.006,7.557
	c6.702,8.333,15.086,14.703,25.31,18.263c2.655,0.925,5.5,0.986,7.453-1.765c3.793-5.343,7.575-10.694,11.344-16.054
	c3.606-5.128,7.189-10.273,10.812-15.453c8.044,3.442,15.357,7.38,23.154,9.68c4.053,1.196,10.685,2.254,11.83,2.469
	c5.193,0.978,9.538,1.662,12.604,2.111c0.127-0.688,0.329-1.767,0.59-3.082c3.61-18.195,4.099-20.361,5.21-26.206
	c1.293-6.803-3.357-13.246-10.075-13.601c-11.136-0.59-21.265-4.258-30.363-10.35c-7.022-4.702-13.399-10.367-20.549-15.985
	C125.692,213.083,124.776,213.693,124.071,214.49z M298.619,222.924c5.658-9.214,11.789-18.304,16.035-28.174
	c4.612-10.72,8.944-22.396,8.662-38.144c-0.375-20.961-9.19-36.051-12.871-42.178c-7.636-12.712-16.299-19.998-24.331-26.789
	c0,0-9.071-7.669-21.935-14.009c-2.039-1.005-4.66-2.148-8.087-2.888c-3.077-0.664-5.706-0.766-7.511-0.737
	c0.811,0.376,1.959,0.936,3.295,1.69c0.915,0.516,3.485,2.009,7.696,5.407c0.941,0.759,3.934,3.204,6.882,6.114
	c10.376,10.243,16.835,22.119,16.835,22.119c2.808,5.163,6.895,12.828,8.88,23.843c0.414,2.298,2.045,10.75,0.55,21.712
	c-2.393,17.54-9.493,33.112-21.359,46.432c-4.54,5.096-5.792,12.808-2.21,16.259c6.671,6.428,12.611,13.863,21.95,17.86
	C293.604,228.656,296.654,226.123,298.619,222.924z M251.148,206.889c-6.778,6.727-13.224,4.251-16.839-0.969
	c-5.077-7.333-13.119-6.419-20.842-9.348c1.091,3.571,1.378,6.288,2.676,8.378c2.55,4.106,5.307,8.201,8.625,11.685
	c5.197,5.459,10.977,10.357,16.41,15.598c2.063,1.99,3.693,4.434,5.782,6.391c8.104,7.59,16.314,15.068,24.485,22.588
	c5.525,5.085,11.049,10.17,16.432,15.124c12.84-7.217,19.96-16.731,21.306-28.523c-20.824-11.031-36.327-29.302-55.308-43.412
	C252.562,205.594,251.828,206.214,251.148,206.889z M221.335,142.334c-10.881,5.412-16.582,15.502-22.538,25.739
	c5.564,3.883,10.432,7.281,14.732,10.283c0.301,2.474,0.5,4.103,0.698,5.733c0.424,0.158,0.848,0.316,1.272,0.474
	c8.089-9.358,16.179-18.717,24.334-28.152C235.922,147.898,229.681,144.074,221.335,142.334z M254.948,165.303
	c-0.914-1.358-2.106-2.544-3.259-3.724c-5.733-5.871-8.775-5.54-14.017,0.844c-4.517,5.502-9.511,10.608-14.108,16.048
	c-2.597,3.073-6.096,5.809-5.477,10.598c0.541,4.182,3.348,6.684,6.879,8.088c3.587,1.426,7.178,0.412,9.89-2.314
	c7.754-7.795,15.366-15.732,23.207-23.791C256.787,168.656,256.011,166.883,254.948,165.303z M204.454,134.445
	c-3.996-3.248-7.503-3.115-11.449,0.026c-6.349,5.054-9.382,12.213-12.77,19.391c5.27,3.946,10.339,7.74,16.383,12.266
	c5.739-7.962,11.097-15.395,17.007-23.593C210.206,139.503,207.424,136.859,204.454,134.445z M238.93,207.485
	c4.511,3.06,8.595,0.267,11.857-2.606c4.588-4.041,8.821-8.535,12.856-13.142c5.48-6.256,3.073-13.612-6.056-16.398
	c-7.674,7.787-15.707,15.94-24.621,24.985C235.285,203.193,236.685,205.962,238.93,207.485z M245.521,272.54
	c7.642-1.834,13.971-4.43,18.893-9.732c1.788-1.926,1.802-3.826-0.246-5.714c-3.429-3.162-6.76-6.43-10.153-9.632
	c-1.537-1.45-3.121-2.85-5.5-5.016C244.79,253.034,242.677,262.34,245.521,272.54z M266.136,199.573
	c-0.405-0.567-0.248-1.078-0.426-2.474c-0.052-0.408-0.112-0.733-0.15-0.922c-2.618,2.551-5.237,5.101-7.855,7.652
	c1.996,1.558,3.992,3.117,5.989,4.675c0.652-2.281,1.268-3.667,1.728-4.528c0.256-0.479,0.459-0.984,0.691-1.475
	c0.621-1.312,0.876-1.816,0.668-2.293C266.63,199.863,266.437,199.993,266.136,199.573z"/>
</svg>
