<svg width="400" height="400" viewBox="0 0 400 400" fill="none" xmlns="http://www.w3.org/2000/svg">
<path style="fill:#FF0000;" d="M325.711,224.71l4.292-75.22
	l-24.752-1.408l1.111-19.501L256.21,72.358l-18.499,16.506l-13.004-14.576L149.49,70l-1.41,24.748l-19.503-1.11L72.36,143.793
	l16.501,18.495L74.288,175.29l-4.291,75.218l24.749,1.41l-1.112,19.505l50.156,56.218l18.496-16.502l13.004,14.573L250.508,330
	l1.41-24.749l19.499,1.112l56.223-50.151l-16.504-18.501L325.711,224.71z M253.375,279.637l1.418-24.855l-30.081-33.719
	l-4.292,75.215l-38.991-2.221l18.581-16.578l2.571-45.111l-56.218,50.151l-26.002-29.144l24.86,1.417l33.718-30.079l-75.214-4.292
	l2.218-38.988l16.576,18.58l45.115,2.571l-50.151-56.22l29.136-25.998l-1.414,24.856l30.081,33.715l4.292-75.214l38.991,2.221
	l-18.58,16.578l-2.571,45.111l56.217-50.151l26,29.141l-24.858-1.416l-33.716,30.081l75.212,4.292l-2.218,38.984l-16.573-18.575
	l-45.118-2.571l50.151,56.218L253.375,279.637"/>
</svg>
