<svg width="400" height="400" viewBox="0 0 400 400" fill="none" xmlns="http://www.w3.org/2000/svg">
<path style="fill:#0000FF;" d="M126.095,165.253c-0.363,0.143-0.846-0.049-1.045-0.337c-0.297-0.426-0.266-0.949-0.057-1.407
	c0.865-1.877,2.581-3.077,4.571-4.128c0.835-0.439,1.664-0.97,2.469-1.436c9.622-5.558,21.031-9.721,32.598-13.808
	c0.249-0.086,0.514-0.188,0.541-0.181c0.758,0.218,1.474,0.777,0.86,1.43c-0.392,0.829-0.185,2.137-0.69,3.04
	c-0.456,0.825-1.518,1.267-2.659,1.525c-2.77,0.619-4.328,2.144-6.879,2.898C146.157,157.189,136.215,161.295,126.095,165.253
	L126.095,165.253z M212.947,167.129c0.282,0.436,2.248,4.061,3.25,5.123c0.501,0.529,1.312,0.678,1.902,1.109
	c2.866,0.493,5.421,1.394,8.547,1.662c1.037,0.331,2.354,0.478,3.259,0.953c2.315,1.226,4.358,2.724,6.975,3.611
	c0.792,0.27,1.643-0.335,1.598-0.898c-0.05-0.687-0.429-1.404-0.632-2.009c-1.372-1.117-2.906-1.914-4.83-2.499
	c-2.284-0.698-5.428-0.864-7.862-1.532c-1.472-0.4-3.163-0.488-4.203-1.305c-0.589-1.252-1.35-2.355-2.417-3.23
	c-1.126-0.931-2.993-1.224-4.757-1.489C213.337,166.557,212.848,166.984,212.947,167.129L212.947,167.129z M234.131,148.694
	l-1.9-0.779l-1.733-0.543c-1.503-0.018-2.78,0.24-3.938,0.572c-0.083,0.024-1.751,1.003-1.875,1.516
	c-0.097,0.401,0.438,0.647,0.785,0.809c3.076,1.455,6.296,2.837,9.749,3.977c0.717,0.237,12.399,4.493,14.309,5.088
	c3.839,1.199,7.953,2.291,11.694,3.56c2.027-0.172,3.378-1.108,3.793-2.447c0.175-0.575-0.352-0.998-0.784-1.181l-2.335-0.62
	c-4.637-2.012-9.818-3.69-14.86-5.418C242.653,151.73,238.367,150.292,234.131,148.694L234.131,148.694z M220.077,104.651
	c1.42-0.125,15.285-8.964,19.567-11.764c1.013-0.403,8.246-5.09,10.902-7.023c1-0.723,7.87-4.934,7.87-4.934
	c2.194-1.183,4.062-2.597,6.427-3.616c1.291-0.555,2.021-1.557,3.166-2.24c1.337-0.802,2.953-1.4,4.061-2.416
	c0.691-0.325,1.336-0.719,2.055-0.992c0.498-0.185,0.811-0.753,0.588-1.179c-0.095-0.184-0.323-0.386-0.556-0.451
	c-0.385-0.111-0.803,0.071-1.187,0.178c-3.006,0.853-5.826,1.85-8.367,3.172c-1.33,0.692-7.299,4.058-9.45,5.186
	c-0.393,0.083-2.381,1.134-2.792,1.375l-8.416,5.054c0,0-3.657,2.355-4.586,2.834c-2.734,1.407-5.239,2.971-7.888,4.491
	c-0.186,0.107-4.021,2.852-5.92,3.661c-2.144,1.479-4.351,2.937-6.491,4.418c-0.744,0.516-1.415,1.126-1.867,1.832
	c-0.187,0.29-0.21,0.623-0.069,0.897C217.603,104.079,219.052,104.393,220.077,104.651L220.077,104.651z M178.303,183.574
	l2.962-1.99c0.793-0.603,1.238-1.481,1.547-2.461c0.029-0.088-0.026-0.286-0.252-0.418c-0.584-0.333-1.466-0.444-2.295-0.726
	c-0.599-0.198-1.228-0.048-1.797,0.082c-0.077,0.016-0.313,0.073-0.376,0.11c-1.16,0.618-2.362,1.247-3.381,1.962
	c-1.896,1.335-3.452,3.66-2.553,6.423c0.236,0.736,0.17,1.603,0.651,2.165c1.389,1.637,3.253,2.976,5.531,3.801
	c2.552,0.93,4.527,2.289,7.865,2.514l7.129,0.228c1.367,0.007,2.743,0.004,3.765-0.324c1.451-0.469,2.183-1.528,3.316-2.216
	c1.694-1.631,3.905-2.846,6.345-3.857l4.986,1.805c2.229,0.833,4.953,1.673,8.329,1.279c4.325,0.047,6.051-2.167,7.659-4.056
	c0.257-0.306-0.521-0.822-0.905-0.626c-1.688,0.86-3.208,2.068-5.499,2.649c-1.432,0.731-3.246,0.241-4.157-0.571
	c-0.932-0.829-1.588-1.955-3.133-2.324c-1.417-0.337-3.623-0.968-6.151-0.944l-3.804,0.209c-0.444,0.025-2.873,0.328-3.549,0.469
	c-1.74,0.363-2.953,1.186-4.17,1.917c-2.314,1.386-4.014,3.315-6.842,4.293c0,0-0.852,0.278-2.38,0.028
	c-1.528-0.25-4.967-1.191-6.991-2.173c-0.43-0.209-0.806-0.514-1.158-0.781c-0.925-0.701-1.912-1.405-2.228-2.627
	C176.327,185.724,176.907,184.188,178.303,183.574L178.303,183.574z M244.312,204.815l3.091-10.556c0,0,0.551-3.063-0.248-4.822
	c-0.799-1.759-1.186-1.797-1.186-1.797c-0.729-1.527-1.834-2.642-3.269-3.56c-0.74-0.238-1.501-0.64-2.302-0.511
	c-0.364,0.06-0.49,0.537-0.428,0.781c0.149,0.583,0.574,1.082,0.906,1.59c0.949,1.454,0.664,3.508,0.402,5.12
	c-1.702,4.105-3.024,8.338-3.407,13.42c-0.647,2.288-0.6,11.947-0.579,12.16l0.535,5.588c0.201,1.99,0.239,3.711,0.749,5.4
	c0.16,0.538,0.088,5.849-0.107,7.433c-0.205,0.724-1.991,7.423-4.19,9.999c-0.136,0.16-0.364,0.456-0.677,0.298
	c-0.18-0.088-0.293-0.282-0.326-0.46c-0.204-1.066-0.374-1.999-0.8-2.899c-1.604-0.466-5.441-7.735-5.682-10.965
	c-0.38-0.551-0.651-1.636-0.266-2.411c0.411-0.829,1.286-1.396,1.564-2.283c0.292-0.934,0.308-1.92,0.506-2.82
	c0.219-0.993,0.634-1.402,0.095-3.339c-0.539-1.937-0.929-1.702-1.377-2.435c-0.552-0.459-0.977-0.327-2.02-0.76
	c-0.925-0.133-1.43-0.265-2.119-0.069c-4.211,1.008-6.858,2.984-9.28,5.098c-0.429,0.373-1.171,0.347-1.706-0.032
	c-0.934-0.494-0.915-0.866-1.271-1.62c-0.407-0.862-0.08-2.203-0.281-3.162c0.243-1.388,0.479-2.866,0.502-4.361
	c0.017-0.802-0.244-1.553-0.423-2.252c-1.228-1.617-2.608-1.955-3.986-2.825c-0.471-0.297-0.972-0.833-1.757-0.73
	c-1.012,0.137-1.609,0.732-1.969,1.416c-1.183,2.238-2.986,4.131-4.29,6.337c-1.309,2.214-2.868,4.474-2.956,7.498
	c-0.071,2.5-0.596,4.916-0.534,7.187c-0.601,1.806-0.917,3.153-1.725,4.651c-0.513,1.018-2.503,1.405-3.027,1.254
	c-0.893-0.26-1.769-0.626-2.02-1.385l-1.093-4.064c-0.346-1.049-0.926-1.991-1.321-3.128c-0.591-1.703-2.223-7.43-2.385-8.424
	c0,0-0.254-9.552-0.207-10.196c0.001-1.884-0.036-3.989-0.327-4.817c-0.304-0.874-0.709-1.783-1.264-2.583
	c-0.761-1.098-2.464-1.413-4.734-1.479c-1.008-0.319-2.438,0.081-3.081,0.559c-1.549,1.148-3.271,2.18-4.722,3.399
	c-0.32,0.272-1.403,1.52-1.525,1.689l-1.435,1.811c-0.895,1.562-1.554,3.17-3.02,4.229c-0.7,0.505-1.147,1.243-2.097,1.614
	c-0.618-0.523-0.934-0.982-1.068-2.212c-0.075-3.539,0.779-6.861,0.793-7.199c0.059-1.347,0.128-2.702,0.373-3.875
	c0.515-2.458,1.37-4.767,2.021-7.015c0.362-1.244,0.439-2.784,0.917-3.924c0.623-1.501,3.096-6.697,3.397-7.396
	c0.776-1.811,1.148-3.716,2.063-5.371c1.369-1.169,7.135-2.383,7.805-2.67l2.311-0.396c1.026-0.227,2.159-0.322,2.664-1.026
	c0.211-0.296-0.27-0.468-0.538-0.599c-0.077-0.039-0.537,0.028-0.687,0.027c-9.608,0.026-15.354,3.322-18.73,8.076
	c-1.883,2.055-3.197,4.354-4.085,7.149c-0.988,3.111-1.468,6.245-1.975,9.544c-0.313,2.022-0.235,3.924-0.402,5.944
	c0.39,3.69,1.062,7.138,1.656,10.848c0.113,0.834,0.534,1.629,0.989,2.547c0.139,0.281,0.721,0.753,0.89,1.002
	c0.314,0.461,1.194,0.676,2.056,0.689c1.586-0.39,2.638-1.082,4.036-1.822c0.04-0.02,0.553-0.315,0.554-0.091
	c0.009,3.509,0.131,6.508-0.151,9.938c-0.299,3.691,0.134,15.721,0.174,17.602c0.128,5.976-0.084,11.429,0.489,17.677
	c0.151,0.324,0.319,0.881,0.001,1.236c-0.212,0.241,0.109,0.985,0.561,1.165c0.847,0.335,1.695,0.777,2.822,0.872
	c0.654,0.06,1.212-0.337,1.262-0.824c0.385-3.807-0.075-7.926,0.286-11.887c0.112-1.223,0.375-7.196,0.246-8.483
	c-0.143-1.443,0.229-8.421,0.234-8.687c0.069-2.78,0.403-5.482,0.154-8.266c-0.132-1.461-0.111-2.733,0.027-4.209
	c0.057-0.595-0.034-11.995-0.285-14c-0.065-0.515-0.394-1.035-0.121-1.541c0.705-1.305,2.056-2.206,3.695-2.899
	c0.608-0.079,1.117,0.367,1.346,0.771c0.907,1.609,0.601,4.088,0.572,6.103c-0.019,1.435,0.19,3.135-0.229,4.429
	c-0.053,3.389,1.045,6.109,2.038,9.065c1.132,3.354,2.887,6.331,3.791,9.926c0.569,2.258,2.371,3.546,3.647,5.399
	c0.046,0.064,0.365,0.167,0.648,0.226c1.906,0.394,3.251,0.394,5.194-0.227c3.05-1.09,5.394-3.049,6.469-5.813
	c0.592-1.516,0.388-3.351,0.742-4.949c-0.028-1.641-0.031-3.346,0.275-4.746c0.378-1.753,1.945-6.397,1.945-6.397
	c0.827-1.865,1.915-3.369,3.044-4.934c0.134-0.188,0.557-0.186,0.753-0.032c0.646,0.503,0.99,1.202,1.474,1.867
	c0.15,0.211,0.171,0.724,0.003,1.088c-0.33,0.729-0.452,1.662-0.288,2.616c0.363,2.09,1.446,3.584,1.98,5.61
	c0.577,0.812,0.829,1.144,1.592,1.59c1.265,0.74,2.891,1.559,4.798,1.014c1.465-0.419,5.858-4.287,7.337-5.27
	c0.292-0.193,0.712-0.234,1.06,0.048c0.167,0.136,0.333,0.415,0.412,0.692c0.373,1.28-0.048,2.68-0.533,3.762
	c-0.858,1.926-1.69,4.171-1.239,7.002c0.66,1.409,0.785,3.183,1.179,4.815c0.085,2.736-0.176,5.4-0.213,8.026
	c-0.017,1.072-0.142,5.261-0.033,6.399c0.153,1.614-0.458,11.964-0.458,11.964c0.228,0.536,0.003,1.082-0.157,1.626
	c-0.133,0.424,0.144,0.764,0.356,1.093c0.172,0.267,0.586,0.269,0.833,0.187c1.449-0.489,2.726-1.178,4.395-1.432
	c1.034-0.155,1.681-0.654,1.859-1.364l-0.035-2.336c0.384-1.186-0.143-8.285-0.143-8.285c-0.346-1.081-0.115-2.486,0.297-3.58
	c0.071-0.19,0.429-0.315,0.549-0.144c0.285,0.397,0.833,0.769,1.758,1.1c1.009,0.464,1.451,0.405,2.316,0.101
	c0.738-0.257,1.215-0.366,2.076-0.994c0,0,0.908-0.721,1.914-2.153c1.005-1.433,1.172-2.892,1.321-3.181
	c0.273-0.539,0.352-1.096,0.601-1.62c0.793-1.679,2.763-8.377,2.839-10.083c0.199-1.806-0.006-3.834-0.062-4.919l-0.7-6.697
	C242.969,219.683,243.851,206.621,244.312,204.815L244.312,204.815z M163.934,262.64c-0.249-1.906-0.704-3.701-1.42-5.203
	c-0.15-0.317-0.321-0.674-0.361-0.772c-1.467-3.561-3.864-6.296-6.873-8.419c-1.408-0.101-2.369-0.463-4.387,0.047
	c-8.044,2.364-16.081,4.612-24.797,6.384c-1.508,0.309-2.836,0.938-4.266,1.257c-0.841,0.729-1.832,1.293-2.274,2.241
	c0.252,0.209,0.45,0.376,0.683,0.486c0.494,0.233,1.002-0.099,1.383-0.184c1.942-0.447,3.713-0.558,6.362-0.129
	c2.649,0.43,7.881,3.43,11.457,5.509c1.869,1.086,3.471,2.403,5.548,3.184c0.367,0.138,0.793-0.236,0.852-0.491
	c0.082-0.37-0.282-0.759-0.431-1.142c-0.049-0.126,0.247-0.487,0.485-0.319c0.965,0.691,1.944,1.557,3.485,1.628
	c1.717,1.135,2.838,2.558,4.346,3.677c0.54,0.401,1.226-0.083,1.48-0.554c0.027-0.049-0.87-1.701-1.123-2.351
	c0.016-0.536-0.152-1.053-0.566-1.399c0.373-0.266,0.776-0.077,0.971,0.144c0.964,1.082,1.646,2.344,2.541,3.452
	c0.26,0.323,0.579,0.651,0.983,1.033c0.469,0.444,0.82,1.228,1.153,1.801c0.219,0.38,0.907,0.376,1.253,0.126
	c0.247-0.183,0.445-0.402,0.378-0.652c-0.688-2.487-2.098-4.533-2.949-6.886c-0.107-0.291-0.008-0.605,0.195-0.872
	c0.119-0.159,0.409-0.198,0.563-0.014c0.513,0.605,2.287,3.304,3.04,3.723c0.313,0.174,0.344,0.536,0.443,0.807
	c0.109,0.297,0.626,0.456,0.961,0.298c0.53-0.246,0.652-0.912,0.591-1.482c-0.036-0.329,0.224-0.52,0.404-0.688
	C164.502,266.447,164.468,263.318,163.934,262.64L163.934,262.64z M273.032,89.416c-0.471,0.126-0.884,0.424-1.371,0.46
	c-0.662,0.05-1.095,0.431-1.336,0.529c-2.163,0.886-3.96,1.962-6.133,2.646c-1.414,0.445-5.473,2.187-5.473,2.187
	c-1.193,0.451-2.091,1.171-3.216,1.711c-1.801,0.869-16.083,8.149-21.963,11.349c-0.661,0.36-1.146,1.052-0.698,1.847
	c0.671,1.185,2.078,1.974,3.947,2.269c2.765-1.448,9.259-4.902,9.723-5.15c3.535-1.877,7.324-3.631,10.512-5.823l17.52-8.775
	c0.739-0.369,1.412-0.794,1.706-1.523c-0.097-0.483-0.705-0.728-1.019-1.085c-0.314-0.358-0.75-0.674-1.411-0.761
	C273.647,89.271,273.325,89.337,273.032,89.416L273.032,89.416z M293.09,112.371c-0.06-0.024-0.528-0.007-0.677,0.016
	c-3.306,0.462-9.948,0.925-15.202,1.9l-2.056,0.469c-1.408,0.287-9.672,1.934-12.145,2.279c-4.835,1.137-10.163,1.677-15.085,2.786
	c-0.914,0.204-6.543,1.546-8.631,1.827c-0.777,0.106-1.405,0.587-1.516,1.074c-0.06,0.261,0.501,1.096,0.917,1.423
	c0.899,0.711,2.172,1.491,3.372,2.353c4.053-1.099,8.284-2.226,12.463-3.169c1.162,0.088,16.953-3.219,18.947-3.827
	c2.025-0.615,11.616-2.697,11.616-2.697c1.804-0.417,4.251-0.637,5.793-1.202c1.628-0.17,2.789-0.969,3.04-2.164
	C294.018,112.981,293.614,112.577,293.09,112.371L293.09,112.371z M230.842,267.651c-0.098-0.602,0.212-1.16,0.224-1.561
	c-0.226-0.578-0.839-1.059-1.546-0.911c-1.985,0.421-3.488,1.191-5.271,2.106c0,0-2.058,1.278-3.154,3.008s-0.893,2.072-1.573,3.013
	c-0.14,0.195-0.18,0.559-0.755,0.542c-0.264-1.435-1.055-2.574-2.093-3.393c0,0-1.646-1.562-2.986-2.149
	c-1.339-0.588-1.729-0.524-2.567-0.764c-2.512,1.003-4.144,2.67-5.78,4.31c-1.995,1.995-3.894,4.032-5.154,6.575
	c-0.094,0.191-0.502,0.596-0.602,0.413c-1.121-2.001-1.858-4.411-3.445-6.048c-1.616-2.434-3.97-4.279-7.204-5.313
	c-4.268,1.752-7.194,4.406-8.331,8.27c-0.063,0.213-0.604,0.075-0.673-0.133c-1.386-4.156-3.727-7.51-7.706-9.458l-2.788-1.108
	c-0.752-0.688-1.918-1.203-3.602-1.179c-0.218,0.001-0.605,0.095-0.664,0.433c-0.102,0.562,0.115,1.439,0.497,2.019
	c0,0,0.148,4.149,0.15,4.581c0,0,0.441,10.07,0.402,10.546c-0.036,0.4,0.565,14.109,0.354,14.852
	c-0.459,1.614-0.825,3.329-1.166,4.899c0.468,0.976,1.132,1.83,2.514,1.926c2.539,1.472,5.393,2.748,8.899,3.361
	c3.768,0.66,7.235,1.606,11.561,1.669c4.584,0.467,9.491,0.726,15.071,0.503c2.324-0.09,4.144-0.404,6.252-0.607l7.661-1.314
	l3.511-1.191c3.528-1.198,5.959-3.299,8.184-5.273l0.784-3.606l0.405-11.76c0.117-2.836,0.1-5.634,0.045-8.555
	c0.577-2.181,0.359-4.914,0.78-7.146C231.172,268.688,230.927,268.166,230.842,267.651L230.842,267.651z M269.882,294.419
	c-0.25-0.3-0.694-0.556-1.121-0.466c-0.443,0.088-0.977,0.189-1.318,0.51c-2.495,2.337-5.582,4.36-9.43,5.822
	c-7.807,4.286-17.611,7.13-28.438,9.187c-4.117,0.525-8.387,1.384-12.654,1.688c-2.937,0.21-6.214,0.592-9.481,0.738
	c-1.244,0.057-11.653-0.004-16.039-0.119c-1.239-0.032-2.385-0.045-3.567-0.121l-14.159-0.992c-1.61-0.052-3.218-0.233-4.707-0.428
	c-3.98-0.527-7.398-0.795-11.669-1.472c-1.714-0.459-3.393-0.767-5.249-1.154c-5.9-1.232-11.663-2.592-16.62-4.661l-4.115-2.141
	l-4.036-2.918c-0.835-0.714-1.187-1.793-1.925-2.64c-0.947-1.082-0.602-2.77,0.682-3.303c0.374-1.243,1.427-1.967,2.106-2.819
	c0.989-1.245,2.513-2.045,3.585-3.191c0.128-0.137,0.415,0.065,0.294,0.219c-0.514,0.647-1.049,1.26-1.197,1.884
	c-1.657,2.54-3.441,5.36-2.613,8.792c0.067,0.281,0.344,0.492,0.746,0.482c0.254-0.009,0.617-0.162,0.727-0.479
	c1.332-3.831,3.807-7.01,6.817-9.823c0.091-0.089,0.378,0.149,0.265,0.314c-0.869,1.27-1.636,2.654-2.178,4.085
	c-0.458,1.207-0.221,2.838,0.058,4.049c0.119,0.509,0.84,0.146,1.035-0.087c0.356-0.424,0.189-0.99,0.179-1.531
	c-0.008-0.427,0.317-0.854,0.638-1.183c0.238-0.245,0.381-0.595,0.983-0.764c-0.346,1.538-0.7,3.166-0.399,4.759
	c0.333,1.757,1.207,3.037,2.643,3.401c0.642,0.162,1.163-0.302,1.034-0.626l-0.996-2.655c0.266-0.665,0.195-1.434,0.499-2.014
	l0.272-1.398c1.01-1.672,2.134-3.179,3.452-4.499c0.214-0.216,0.53,0.07,0.493,0.269c-0.121,0.61-0.695,1.017-0.997,1.521
	c-0.885,1.471-1.259,3.223-1.873,4.836c-0.419,1.095-0.269,2.392-0.185,3.716c0.013,0.21,0.202,0.422,0.491,0.52
	c0.209,0.068,0.457-0.063,0.626-0.212c0.282-0.243,0.6-0.766,1.117-0.629c0.464,0.124,0.296,0.665,0.547,0.987
	c0.162,0.203,0.641,0.232,0.802,0.033c0.507-0.62,0.948-1.482,1.806-1.905l0.118,2.008c0.027,0.811,0.103,1.69,0.703,2.125
	c0.396,0.285,1.118,0.074,1.068-0.392c-0.057-0.508-0.012-1.284,0.118-1.979c0.139-0.753,0.599-1.334,0.858-2.039
	c0.046-0.125,0.379,0.002,0.385,0.07c0.136,1.115,0.202,2.184,0.584,3.129c0.121,0.291,0.49,0.604,0.778,0.534
	c0.361-0.089,0.6-0.626,1.038-0.435c0.317,0.139,0.345,0.667,0.844,0.816c0.09,0.025,0.503,0.051,0.584-0.002
	c0.375-0.241,0.659-0.616,0.727-1.113c0.016-0.111,0.021-0.45,0.433-0.295c0.009,0.229,0.032,0.991,0.056,1.243
	c0.063,0.712,0.415,1.309,0.967,1.65c0.357,0.22,0.977,0.25,1.234-0.034c0.459-0.502,0.576-1.413,0.388-2.16
	c-0.043-0.163-0.122-0.696,0.495-0.454c-0.097,1.417,0.708,2.398,1.981,2.818c0.309,0.104,0.489-0.196,0.609-0.343
	c0.434-0.529,0.201-1.471-0.075-1.995c-0.12-0.227,0.191-0.583,0.247-0.894c0.223-1.191,0.858-2.096,1.636-2.887
	c0.177-0.18,0.465,0.221,0.667,0.276c0.182,0.05,0.385,0.064,0.509-0.08c0.401-0.466,0.707-1.123,0.562-1.853
	c-0.078-0.383,0.656-0.733,0.715-1.054c0.134-0.701,0.116-1.563,0.057-2.382c-0.013-0.153-0.317-0.339-0.56-0.439
	c-0.115-0.048-4.153-1.937-5.585-3.247c-0.617-1.333-6.182-7.007-6.493-8.415c-1.541-2.144-3.138-4.459-5.073-6.543l-4.798-5.083
	c0,0-5.827-4.544-9.293-6.382c-1.878-0.995-3.925-1.829-6.229-2.506c-1.414-0.049-2.848,0.009-4.166,0.148
	c-0.084,0.009-0.339,0.043-0.422,0.057c-1.935,0.267-3.25,1.208-4.163,2.261c-0.988,1.14-1.531,2.108-2.01,4.244
	c-0.478,2.136,0.042,5.184,0.623,6.674c0.581,1.49,1.941,2.809,1.941,2.809c0.625,0.376,1.03,0.908,1.572,1.372
	c1.503,1.291,3.749,2.746,7.01,1.852c0.217-0.058,0.413-0.372,0.136-0.579c-0.522-0.391-1.533-0.538-2.079-0.926
	c-0.485-0.345-0.163-1.026-0.909-1.33c-2.316-0.947-3.895-2.968-4.651-5.353c-0.252-1.324-0.263-2.588,0.103-3.544
	c0.463-1.207,1.045-2.477,2.322-3.107c0.142-0.069,0.39-0.056,0.549,0.007c4.003,1.604,7.407,3.72,9.987,6.535
	c1.759,1.248,3.343,2.676,4.67,4.234c-0.251,0.245-0.387,0.44-0.603,0.528c-2.01,0.847-3.944,1.718-5.616,2.825l-4.792,3.081
	c-3.01,2.641-5.562,5.551-7.328,9.267c-0.468,1.765-0.652,3.538-0.384,5.275c0.225,0.765,0.376,4.596,0.722,5.227
	c1.127,2.058,2.578,4.065,4.33,5.723c2.054,1.943,4.298,3.769,6.551,5.56c2.954,1.775,4.875,3.226,8.238,5.147l7.027,3.57
	c6.478,2.716,13.64,4.811,21.662,6.241c6.683,1.189,17.803,2.375,26.276,2.522c6.448,0.112,12.466-0.711,18.788-1.257
	c0.834-0.072,7.28-1.245,8.065-1.389c2.918-0.527,6.097-1.135,8.811-1.838c3.227-0.84,5.801-1.624,9.124-2.907
	c3.57-1.433,9.876-4.48,13.302-6.55c0,0,7.483-5.077,7.789-5.388c1.193-1.212,2.745-2.44,4.274-3.645
	c0.105-0.496,0.41-0.944,0.474-1.283c0.079-0.427-0.527-0.827-0.706-0.747c-1.319,0.583-2.704,1.133-3.45,2.103
	c-0.503,0.655-1.166,1.159-1.906,1.611c-3.523,2.16-7.211,4.149-11.203,6.011c-1.113,0.52-2.437,0.946-3.647,1.47
	c-4.686,2.033-10.884,3.027-16.107,4.7c-3.906,0.735-7.772,1.478-11.756,2.042l-5.936-0.047c-0.208-0.005-0.615-0.311-0.398-0.336
	c3.256-0.364,6.677-0.683,9.968-1.04c0.434-0.05,1.054-0.035,1.231-0.459c0.101-0.241-0.028-0.596-0.449-0.61
	c-3.223-0.12-6.487,0.337-9.842,0.277c-0.975-0.02-1.927,0.102-2.804,0.229c-1.688-0.225-3.315-0.347-5.103-0.39
	c-0.279-0.006,0.041-0.433,0.285-0.46c1.066-0.116,2.143,0.013,3.227-0.003l11.821-0.283c0.751-0.038,1.358-0.225,1.657-0.635
	c0.214-0.296-0.253-0.558-0.559-0.604c-2.185-0.328-4.501-0.292-6.824-0.047l-4.152-0.214c-0.233-0.008,0.175-0.465,0.339-0.475
	l4.57-0.235c1.071-0.124,2.088-0.384,2.894-0.766l3.819-0.087c4.421-0.618,9.24-1.105,13.75-1.815
	c4.374-0.68,17.349-4.033,19.393-5.001c3.808-1.807,11.757-7.01,15.154-10.459c0.326-0.331,2.643-3.101,2.837-4.553
	C270.417,294.738,270.022,294.584,269.882,294.419L269.882,294.419z M271.505,287.496c-0.27-1.035-0.383-1.923-0.805-2.646
	c-1.457-2.505-3.408-4.628-6.042-6.135c-1.652-0.943-5.61-3.161-5.762-3.224c-3.717-1.57-7.705-3.044-12.187-4.228
	c-1.657-0.299-2.833-0.564-4.548-0.816c-2.406-0.543-5.966-0.08-6.143,0.161c-0.394,0.548-0.202,1.24,0.555,1.646
	c0.831,0.177,2.237,0.106,3.266,0.493c0.054,0.023,0.476,0.109,0.202,0.5c-1.253-0.13-2.987-0.196-3.863,0.413
	c-0.229,0.155-0.32,0.39-0.141,0.612c0.194,0.24,1.172,0.366,1.061,0.617c-0.17,0.38-0.701,0.977-0.367,1.728
	c-0.377,0.572-1.317,0.838-1.741,1.451c0.315,0.48,1.059,0.631,1.207,1.145c0.449,0.496-0.166,1.015-0.39,1.118
	c-0.443,0.202-0.43,0.631-0.142,0.786c0.796,0.432,1.927,0.686,2.485,1.269c-0.311,0.362-0.618,0.529-0.95,0.671
	c-0.531,0.224-0.568,0.814-0.167,1.247l-1.523,1.001c-0.362,0.248-0.694,0.546-0.833,0.901c-0.077,0.192,0.028,0.391,0.257,0.49
	c1.727,0.74,3.439,1.475,5.033,2.308c0.159,0.085,0.144,0.217,0.138,0.338c-0.207,0.027-0.446,0.008-0.655-0.057
	c-1.103-0.339-2.841-0.625-3.93,0.016c-0.602,0.356,0.299,0.934-0.231,1.246l-3.17,2.033c-0.242,0.159-0.022,0.705,0.327,0.951
	c1.145,0.81,2.377,1.77,4.104,2.255c0.923,0.713,1.999,1.246,3.252,1.794c0.455,0.426,1.14,0.832,2.033,1.004
	c0.483,0.091,0.7-0.531,0.612-0.822c-0.133-0.438-0.45-0.825-0.826-1.147c-0.324-0.28-1.23-0.783-1.253-1.217
	c2.934,1.339,5.624,2.715,8.06,4.348c0.051,0.032,0.472,0.034,0.537-0.005c0.279-0.166,0.709-0.42,0.596-0.618
	c-0.313-0.532-0.61-0.991-0.953-1.413c-0.134-0.162,0.102-0.305,0.285-0.442l2.235,0.838c0.312,0.116,0.896-0.247,1.351-0.047
	c0.416,0.184,0.714,0.759,1.248,0.558c0.228-0.086,0.399-0.23,0.497-0.38c0.05-0.078-0.054-0.394-0.073-0.491
	c-0.338-1.713-1.378-2.726-2.41-3.807c-0.186-0.194,0.284-0.491,0.383-0.432c1.041,0.64,2.041,1.297,2.917,2.097
	c0.244,0.222,0.679,0.177,0.983-0.005c0.202-0.127,0.258-0.319,0.222-0.51c-0.116-0.587-1.145-0.814-1.344-1.293l-1.156-2.627
	c-0.093-0.253-0.573-0.605-0.193-0.661c0.679-0.104,1.071-0.752,1.621-1.16c0.988,0.413,1.912,0.983,2.909,1.233
	c0.347,0.09,0.168-0.541,0.138-0.736c-0.039-0.224,0.191-0.429,0.478-0.436c0.918-0.015,1.672,0.437,1.973,0.584
	c0.702,0.35,1.283-0.249,1.463-0.639c0.278-0.616-0.05-1.541,0.203-2.179c0.074-0.192,0.419-0.154,0.546-0.103
	c1.599,0.604,3.04,1.463,3.666,2.515c0.084,0.874,0.526,1.335,0.898,1.724c0.318,0.333,1.12-0.089,1.306,0.275
	c0.263,0.498,0.417,0.998,0.904,1.263c0.944,0.512,1.702-0.237,1.996-0.826c0.384-0.773,0.215-1.655,0.185-2.58
	C271.767,289.176,271.787,288.581,271.505,287.496L271.505,287.496z M242.984,134.28l-3.373-0.496
	c-0.175-0.032-0.752-0.04-0.922,0.009c-0.464,0.133-0.994,0.229-1.229,0.624c-0.284,0.485-0.113,1.043,0.047,1.554
	c0.297,0.939,1.347,1.34,1.8,2.189c0.109,0.208,0.813,0.789,1.086,0.849c1.782,0.395,38.393,8.183,41.932,8.584
	c1.339,0.151,2.861,0.527,4.614,0.387c1.375-0.108,2.025-1.125,1.891-2.255c-0.047-0.394,0.253-0.932-0.333-1.277
	c-1.289-0.755-7.632-1.847-7.632-1.847c-0.906-0.267-5.345-1.274-6.837-1.449c-0.473-0.053-0.952-0.341-1.5-0.483
	c-5.445-1.405-11.38-2.609-17.176-3.953c-1.527-0.35-2.566-0.488-4.827-0.933c-1.675-0.396-3.219-0.646-4.607-0.985L242.984,134.28
	L242.984,134.28z M129.337,137.075c5.029-0.142,10.565-0.13,15.516-0.198l15.959-0.283c1.544-0.275,3.087-0.795,3.463-1.844
	c0.083-0.24-0.409-0.409-0.806-0.418c-2.51-0.064-6.157,0.198-8.795-0.212c-2.321-0.362-5.113-0.287-7.697-0.351
	c-0.445-0.015-8.955-0.071-8.955-0.071c-7.157-0.167-23.018,0.462-23.818,0.3c0,0-3.503,0.39-4.091,0.493
	c-1.829,0.322-3.049,1.262-3.865,2.308c-0.256,0.332-0.249,0.943,0.023,1.285c0.417-0.164,0.818,0.107,1.118,0.082
	c5.855-0.482,12.285-0.42,18.352-0.768C126.942,137.329,128.102,137.11,129.337,137.075L129.337,137.075z M133.095,94.483
	c1.097,0.332,2.243,0.951,3.374,1.607l12.926,7.989l4.132,2.442c2.614,1.403,5.175,2.822,7.859,4.155
	c1.185,0.585,2.328,1.232,3.484,2c0.066,0.041,1.603,0.922,1.817,1.022l4.674,2.075c1.154,0.471,2.571,1.08,4.304,0.625
	c0.26-0.067,0.579-0.174,0.569-0.319c-0.037-0.523-0.513-1.732-0.977-2.04c-2.644-1.745-4.87-3.843-7.851-5.308
	c-6.592-4.401-13.081-8.787-20.22-12.745c-3.286-1.82-6.651-3.66-11.143-4.636c0.04,0.005-0.371,0.022-0.414,0.01
	c-1.123-0.281-2.24-0.514-3.469-0.541c-0.205-0.004-0.609,0.245-0.739,0.305c-0.335,0.152-0.75,0.395-0.681,0.581
	C131.176,92.887,131.896,93.739,133.095,94.483L133.095,94.483z M147.294,82.34c4.919,4.895,11.144,8.729,16.8,13.051
	c1.595,1.098,2.622,1.615,3.697,2.57c0.356,0.315,0.783,0.67,1.398,0.757c0.452,0.065,1.3-0.138,1.186-0.485
	c-0.656-2.026-2.196-3.47-4.158-4.867c-0.188-0.556-7.008-7.118-7.71-7.572c-0.55-0.684-9.113-7.846-11.576-9.132
	c-0.93-0.486-2.092-0.802-3.253-0.994c-0.604,0.243-1.168,0.614-1.311,1.07c0.678,0.744,1.441,1.564,1.918,2.504
	C144.913,80.491,146.27,81.321,147.294,82.34L147.294,82.34z M178.394,160.195c0.75,2.124,1.604,4.56,2.647,6.004
	c1.043,1.444,2.136,2.636,2.136,2.636c1.849,1.948,4.243,2.933,7.484,3.747c1.034,0.261,1.852,0.973,3.254,0.925
	c0.275-0.007,0.496-0.299,0.626-0.474c0.209-0.282,0.073-0.669-0.198-0.855l-5.414-3.627c-0.873-1.265-1.362-2.944-1.853-4.498
	l-0.42-3.063c0,0-0.077-3.373,0.24-5.247c0.317-1.875,0.924-2.985,1.41-4.656c0.205-0.7,0.672-1.192,1.106-2.315
	c0.797-2.071,1.883-4.08,3.061-6.306c0.624-1.182,0.708-1.447,1.163-2.633c0.991-2.998,2.151-5.404,3.136-8.642
	c1.042-3.331,3.015-16.409,3.064-19.521c0,0-0.65-6.341-0.668-6.69l-0.012-2.28c0.235-0.605,0.3-3.29-0.189-3.797
	c-0.295-0.654-1.48-0.839-2.485-0.683c-0.35,0.056-0.719,0.14-1,0.318c-0.572,0.358-0.937,0.959-1.019,1.618
	c-0.044,0.357-0.069,1.612-0.071,1.599c0.168,2.408,0.385,4.841,0.453,7.336c0.187,6.959-2.669,15.271-4.003,17.984
	c-1.46,2.103-3.24,3.999-4.878,6.013c-2.096,2.577-3.93,5.437-5.251,8.565c-2.163,3.735-4.026,7.97-3.518,13.595
	C177.355,157.034,178.136,158.429,178.394,160.195L178.394,160.195z M118.32,113.511c1.323,0.464,2.638,0.737,4.117,1.106
	c2.354,0.586,4.516,1.301,6.87,1.961c6.416,1.795,12.522,4.105,19.012,6.048c5.01,1.499,10.713,2.624,15.871,4.123
	c1.499,0.14,1.835,0.438,3.161-0.157l1.592-1.047c0.418-0.262,0.927-0.629,0.876-1.144c-1.011-1.079-2.547-1.556-4.17-2.075
	l-14.846-4.706c-5.788-1.824-11.03-3.99-17.492-5.229c-1.995-0.383-8.845-2.113-10.728-2.101c-1.488,0.599-3.259,1.015-4.687,1.737
	c-0.359,0.185-0.625,0.57-0.426,0.858C117.644,113.143,117.954,113.384,118.32,113.511L118.32,113.511z M201.463,106.599
	c0.003,0.107,1.331,7.163,2.114,8.631c0.195,0.362,0.539,1.57,0.6,1.776c0.732,2.573,1.592,4.941,2.346,7.47
	c0.393,1.305,0.985,4.954,1.123,5.442c0.667,2.358,1.464,8.52,1.399,11.161c-0.055,2.328-0.406,4.281-0.465,6.363
	c-0.189,6.906-1.661,12.71-3.967,18.081c-0.465,1.777-0.887,3.56-1.767,4.978c-0.41,0.665-1.081,1.232-0.799,2.237
	c0.246,0.891,0.524,1.821,1.022,2.564c0.328,0.495,0.518,1.09,1.166,1.231c0.335,0.07,0.797-0.058,1.017-0.28
	c0.656-0.665,2.98-6.604,3.21-7.617c0.641-2.84,1.761-5.255,2.447-8.086c0.095-0.398,0.719-2.112,0.611-2.721
	c0.235-0.938,1.196-6.417,1.265-8.302c0.042-1.12,0.28-6.413,0.174-8.029c-0.019-0.277-0.041-2.255-0.106-2.862
	c-0.109-0.988-0.451-1.678-0.432-2.705c-0.204-0.46-0.241-1.004-0.468-1.766c-0.491-1.925-0.865-3.609-1.538-5.717l-5.03-16.484
	c-0.599-1.884-1.192-3.949-1.574-5.941l-0.53-5.009c-0.202-0.382-0.598-0.782-1.118-1.086c-0.083-0.046-0.561-0.026-0.695,0.005
	c-0.063,0.014-0.22,0.165-0.233,0.189c-0.207,0.383-0.304,1.479-0.3,1.593C201.003,103.378,201.406,104.781,201.463,106.599
	L201.463,106.599z"/>
</svg>
