<svg width="400" height="400" viewBox="0 0 400 400" fill="none" xmlns="http://www.w3.org/2000/svg">
<path fill-rule="evenodd" clip-rule="evenodd" d="M303.269 94.6052C301.29 96.3249 301.233 96.6989 302.5 99.6232C308.902 114.404 309.759 118.739 308.699 130.943C306.886 151.833 288.237 177.096 263.251 192.513C254.563 197.874 244.994 204.297 243.922 205.488C243.505 205.952 241.605 207.376 239.698 208.653C235.996 211.134 230.528 217.664 229.178 221.216C226.572 228.069 229.236 239.906 233.383 239.906C234.791 239.906 237.477 243.646 237.477 245.607C237.477 247.722 232.8 252.067 227.788 254.607C222.962 257.052 222.42 257.812 221.419 263.518C220.78 267.166 219.947 269.076 218.002 271.354C216.587 273.012 215.222 275.23 214.969 276.283C214.393 278.672 211.859 282.37 210.798 282.37C210.361 282.37 208.832 283.65 207.399 285.214L204.795 288.058L206.525 289.458C208.327 290.917 210.202 290.924 223.678 289.508C228.828 288.968 232.168 290.669 232.168 293.832C232.168 294.568 232.465 295.354 232.826 295.578C233.189 295.802 233.703 297.626 233.969 299.631C234.518 303.769 236.374 306.929 237.91 306.34C238.479 306.122 239.133 306.248 239.364 306.621C239.595 306.994 240.544 307.11 241.474 306.877C242.403 306.645 245.638 306.287 248.661 306.083C251.685 305.879 254.158 305.408 254.158 305.036C254.158 304.665 254.559 304.36 255.047 304.36C255.536 304.36 256.55 303.803 257.302 303.123C258.463 302.072 259.014 302.027 260.951 302.831C266.116 304.97 271.58 302.025 272.291 296.719L272.737 293.385L276.907 292.797C283.658 291.843 284.862 290.489 284.908 283.798L284.947 278.199L289.154 278.452C295.037 278.804 297.2 276.897 297.966 270.679C298.448 266.762 298.759 266.123 300.414 265.65C301.457 265.352 304.527 264.505 307.239 263.768C319.619 260.4 332.256 251.919 332.267 246.969C332.271 244.869 332.691 243.862 335.93 238.185C336.827 236.613 337.509 235.078 337.445 234.773C337.381 234.469 337.525 233.706 337.764 233.081C338.004 232.456 338.388 230.363 338.616 228.43C338.846 226.498 339.589 223.426 340.269 221.605C340.947 219.785 341.95 216.759 342.498 214.882C343.045 213.006 344.623 209.081 346.007 206.162C347.389 203.243 348.602 200.513 348.702 200.096C348.803 199.679 349.197 198.086 349.579 196.555C350.55 192.666 349.905 190.05 346.948 185.877C344.445 182.343 344.395 182.119 344.395 174.401C344.395 166.692 344.329 166.397 341.27 160.284C338.201 154.153 338.143 153.889 338.047 145.6L337.949 137.159L334.613 131.85C332.778 128.931 330.475 125.578 329.495 124.399C328.514 123.22 327.713 121.65 327.713 120.911C327.713 120.171 326.701 118.171 325.466 116.464C324.23 114.759 322.229 111.21 321.018 108.578C318.488 103.079 313.244 97.3211 308.437 94.7657L305.116 93L303.269 94.6052ZM89.9906 95.2377C85.4538 97.8606 77.4788 107.885 77.4788 110.965C77.4788 111.398 76.2843 113.414 74.8241 115.447C73.365 117.478 72.1706 119.671 72.1706 120.319C72.1706 120.967 71.3654 122.461 70.3814 123.64C69.3974 124.82 68.0221 126.808 67.3252 128.059C66.6284 129.31 65.391 131.358 64.5756 132.609C61.2476 137.718 59.7681 146.117 61.4734 150.232C62.2776 152.174 61.9976 153.119 58.546 160.088L54.7296 167.795V175.459C54.7296 182.93 54.6694 183.198 52.3284 186.112C50.2225 188.732 49.9374 189.635 50.009 193.46C50.1163 199.137 50.1398 199.227 53.339 205.83C54.842 208.932 56.3175 212.617 56.6169 214.018C56.9163 215.42 57.9289 218.319 58.8669 220.463C59.8049 222.607 60.7929 226.544 61.0637 229.213C61.3335 231.881 61.9373 234.525 62.4053 235.089C62.8733 235.653 63.002 236.115 62.6914 236.115C62.3808 236.115 62.5514 236.627 63.0705 237.252C63.5906 237.877 63.7786 238.389 63.4884 238.389C63.1992 238.389 63.4986 238.926 64.1546 239.581C64.8096 240.237 65.346 241.26 65.346 241.856C65.346 242.452 65.6423 242.939 66.0041 242.939C66.3668 242.939 66.8511 244.345 67.082 246.064C67.5551 249.59 70.7237 253.387 75.3933 256.021C76.9566 256.904 78.2369 257.905 78.2369 258.245C78.2369 258.585 78.4924 258.796 78.805 258.714C79.1177 258.632 81.0806 259.369 83.166 260.351C85.2505 261.334 90.0284 263.061 93.7814 264.191L100.606 266.243L101.075 270C101.941 276.934 103.724 278.578 110.376 278.578H114.559L114.407 283.972C114.22 290.6 115.75 292.26 122.565 292.825C126.625 293.162 126.767 293.248 126.767 295.392C126.767 301.625 132.402 305.169 138.577 302.822C140.091 302.246 140.948 302.296 141.849 303.011C144.606 305.201 146.669 305.877 150.593 305.877C152.865 305.877 155.642 306.225 156.762 306.651C158.193 307.196 159.1 307.176 159.811 306.586C160.368 306.124 161.152 305.949 161.554 306.197C162.911 307.036 164.569 304.384 165.429 299.999C167.235 290.803 169.34 288.78 176.351 289.509C187.973 290.718 190.212 290.793 192.169 290.037C195.771 288.646 195.207 287.314 188.857 282.213C186.627 280.421 185.197 278.597 184.914 277.183C184.67 275.963 183.089 273.368 181.4 271.418C179.061 268.714 178.317 267.205 178.272 265.072C178.141 258.686 176.45 256.613 167.884 252.33C162.117 249.447 160.422 243.197 164.764 240.818C168.578 238.73 169.956 237.371 170.306 235.357C170.487 234.313 170.69 233.46 170.759 233.46C171.538 233.46 171.257 224.095 170.417 222.086C168.975 218.635 163.813 211.93 160.726 209.499C155.253 205.188 141.174 195.165 141.174 195.579C141.174 195.822 139.724 195.031 137.951 193.821C136.18 192.612 132.775 190.374 130.386 188.849C127.997 187.323 122.708 183.016 118.632 179.277C111.636 172.859 109.656 170.362 99.6638 155.357C89.0454 139.411 87.0938 121.849 94.1881 106.069C98.1199 97.3211 98.5542 95.9795 97.7245 95.1488C96.6383 94.0637 91.9289 94.1178 89.9906 95.2377ZM89.9875 107.822C87.246 115.925 86.4899 124.23 87.7314 132.609C88.1013 135.111 88.4528 137.5 88.511 137.917C88.5682 138.334 89.0107 139.635 89.4929 140.81C89.9752 141.984 90.3696 143.216 90.3696 143.548C90.3696 144.618 96.6077 157.592 97.6867 158.77C98.2609 159.395 99.9612 161.784 101.464 164.078C102.967 166.372 104.592 168.589 105.073 169.007C105.554 169.424 107.29 171.47 108.931 173.556C112.264 177.791 116.17 181.708 119.898 184.551C121.265 185.594 123.765 187.574 125.453 188.951C127.141 190.328 129.577 191.934 130.867 192.519C139.357 196.369 165.316 215.518 164.291 217.175C164.071 217.531 164.343 218.1 164.896 218.438C171.003 222.177 170.133 236.354 163.703 237.874C162.155 238.24 160.861 238.762 160.826 239.033C160.791 239.305 160.67 240.209 160.555 241.043C159.379 249.6 161.25 253.455 167.525 255.402C168.463 255.693 169.231 256.271 169.231 256.684C169.231 257.097 169.573 257.225 169.99 256.968C170.406 256.71 170.748 256.881 170.748 257.347C170.748 257.813 171.054 258.005 171.429 257.773C173.237 256.656 176.768 262.578 176.542 266.348C176.338 269.757 176.548 270.271 179.235 272.942C180.838 274.535 182.548 277.172 183.037 278.801C183.551 280.518 184.741 282.269 185.866 282.965C195.056 288.649 190.222 291.071 176.556 287.629C171.008 286.233 168.291 286.881 166.834 289.953C164.466 294.944 163.891 296.399 163.538 298.294C162.483 303.953 159.886 306.531 157.162 304.623C156.096 303.877 155.673 302.991 155.956 302.1C156.196 301.345 156.537 299.753 156.713 298.563C157.243 294.995 157.911 291.994 158.328 291.32C159.005 290.225 160.088 291.457 159.591 292.756C158.769 294.896 160.794 293.094 162.154 290.473C162.845 289.145 163.553 288.484 163.729 289.005C164.168 290.304 165.439 290.203 165.439 288.87C165.439 288.274 165.958 287.269 166.59 286.635C167.224 286.003 167.695 285.21 167.638 284.875C167.581 284.539 167.604 284.095 167.686 283.887C167.77 283.678 168.003 282.496 168.203 281.26L168.568 279.013L166.661 281.071C164.436 283.471 164.49 283.46 161.702 282.019C158.433 280.329 157.663 274.089 160.585 272.968C161.169 272.743 161.648 271.866 161.648 271.019C161.648 269.011 159.428 269 156.891 270.996C153.923 273.33 148.757 271.947 148.757 268.817C148.757 267.665 151.802 261.22 152.57 260.745C153.946 259.895 153.314 258.757 151.6 259C150.662 259.134 149.558 260.01 149.146 260.948C148.252 262.987 146.727 263.114 144.186 261.362C139.631 258.222 139.331 255.58 143.066 251.512C146.458 247.819 146.407 247.488 142.448 247.488C139.931 247.488 138.804 247.065 137.581 245.658C134.182 241.749 134.09 240.936 136.63 237.244C139.049 233.728 139.484 233.538 144.587 233.76C147.374 233.881 147.506 233.803 146.219 232.781C145.449 232.17 144.383 231.836 143.852 232.04C143.321 232.243 142.674 231.857 142.414 231.182C142.156 230.505 141.6 230.165 141.18 230.425C140.76 230.684 140.416 230.364 140.416 229.714C140.416 229.063 140.111 228.532 139.74 228.532C138.405 228.532 138.11 224.727 139.27 222.481C141.31 218.536 144.735 217.638 147.999 220.19C150.372 222.047 151.032 222.076 151.032 220.323C151.032 218.756 147.514 215.114 146.745 215.884C146.469 216.16 145.776 215.999 145.207 215.526C144.637 215.054 143.975 214.863 143.734 215.104C143.493 215.344 141.369 214.486 139.013 213.197C136.657 211.909 134.046 210.479 133.212 210.021C126.961 206.591 112.36 193.231 112.36 190.942C112.36 189.9 112.734 190.041 114.219 191.645C116.163 193.741 117.668 194.247 117.668 192.803C117.668 192.038 116.722 190.788 111.424 184.551C110.538 183.508 109.789 181.973 109.759 181.139C109.729 180.305 109.365 179.532 108.947 179.421C107.99 179.167 107.494 185.878 108.381 187.074C112.026 191.99 105.635 191.571 100.413 186.552C95.7412 182.062 95.5205 181.144 99.3798 182.251C102.92 183.266 102.075 181.622 98.4091 180.361C94.9003 179.155 91.4895 176.047 89.5614 172.299C88.7767 170.773 87.6997 169.35 87.1663 169.137C86.634 168.922 87.2225 168.692 88.4732 168.626L90.7487 168.503L88.4221 167.482C85.698 166.286 85.1228 165.648 82.4865 160.899C80.0772 156.556 79.9413 155.378 81.9787 156.468C84.9266 158.046 85.3353 157.194 82.6786 155.004C80.259 153.01 77.5503 148.743 77.1865 146.351C77.115 145.883 76.7758 145.05 76.4335 144.501C76.0901 143.953 76.0115 143.301 76.2587 143.054C76.505 142.808 76.3395 142.163 75.8899 141.622C74.2765 139.677 76.0053 138.983 78.334 140.64C81.713 143.046 81.6834 141.995 78.2563 137.847C76.5775 135.816 75.1838 133.805 75.1593 133.381C75.0285 131.095 75.0694 124.922 75.2206 124.268C75.3166 123.851 75.4372 122.685 75.4893 121.679C75.6079 119.347 77.1937 118.764 77.8445 120.813C78.755 123.683 79.5734 122.413 79.8932 117.632C80.2723 111.971 82.7256 107.599 87.4432 104.182C91.6336 101.147 92.0464 101.737 89.9875 107.822ZM314.315 106.348C318.167 109.998 319.295 112.325 319.869 117.803C320.283 121.772 321.647 124.403 321.647 121.234C321.647 120.35 323.799 119.467 323.958 120.287C323.978 120.391 324.174 123.384 324.395 126.939L324.796 133.401L321.611 137.019C318.429 140.634 318.098 142.489 320.954 140.706C323.399 139.179 323.912 140.314 322.7 144.568C320.772 151.334 320.04 152.638 316.854 154.981C313.825 157.209 314.565 158.256 317.905 156.468C320.06 155.315 319.781 156.763 317.096 160.665C315.846 162.484 314.822 164.297 314.822 164.697C314.822 165.095 313.549 166.025 311.993 166.764C309.754 167.826 309.44 168.203 310.489 168.571C313.005 169.453 307.681 176.932 302.762 179.423C297.525 182.075 297.08 182.601 300.604 181.963C304.428 181.272 304.196 182.106 299.269 186.766C292.844 192.842 290.928 192.273 291.172 184.361C291.283 180.737 291.055 178.485 290.575 178.485C290.148 178.485 289.798 179.488 289.798 180.715C289.798 181.942 289.474 183.145 289.078 183.391C288.252 183.9 281.457 192.718 281.457 193.28C281.457 194.204 283.415 193.5 285.007 192.004C287.461 189.7 287.851 190.601 285.569 193.304C282.1 197.415 276.979 202.75 276.504 202.75C276.245 202.75 273.968 204.339 271.444 206.282C265.84 210.594 256.273 215.641 253.705 215.641C251.852 215.641 248.093 218.636 248.093 220.112C248.093 221.62 249.479 221.648 251.345 220.18C254.004 218.089 256.173 218.297 258.767 220.89C262.64 224.764 260.276 230.917 254.499 232.001C250.876 232.681 251.91 233.69 256.159 233.623C261.515 233.539 267.199 240.808 263.749 243.331C263.062 243.832 262.5 244.591 262.5 245.016C262.5 246.663 259.994 247.78 256.746 247.58C252.919 247.344 252.518 248.202 255.399 250.467C256.497 251.331 257.095 252.049 256.725 252.062C256.356 252.074 256.652 252.433 257.381 252.858C259.12 253.87 259.108 257.739 257.361 259.615C254.679 262.493 252.512 262.679 249.753 260.266C246.412 257.345 245.386 258.209 247.751 261.955C252.537 269.537 248.593 275.998 242.233 270.996C238.343 267.936 236.556 269.097 238.996 273.1C242.914 279.525 237.874 285.905 232.702 281.07L230.442 278.957L230.943 281.612C231.219 283.071 231.759 284.373 232.143 284.504C232.527 284.636 232.654 285.232 232.424 285.831C232.194 286.43 232.384 286.919 232.846 286.919C233.308 286.919 233.685 287.431 233.685 288.058C233.685 288.683 234.046 289.195 234.488 289.195C234.93 289.195 235.053 288.809 234.762 288.337C234.446 287.828 234.638 287.616 235.236 287.815C235.788 287.999 236.943 289.494 237.806 291.137C239.174 293.746 239.403 293.907 239.614 292.417C239.904 290.377 241.267 290.116 241.267 292.102C241.267 292.866 241.502 293.726 241.789 294.012C242.321 294.544 242.794 296.871 242.85 299.227C242.867 299.948 243.201 300.737 243.591 300.978C245.327 302.051 241.999 306.109 240.01 305.346C238.2 304.651 235.4 299.9 235.62 297.895C235.733 296.863 235.589 296.019 235.3 296.019C235.011 296.019 234.315 294.465 233.754 292.565C231.989 286.584 230.07 285.894 221.173 288.042C216.295 289.22 207.903 289.576 207.903 288.605C207.903 287.172 210.59 284.395 212.918 283.423C214.64 282.703 215.62 281.69 215.955 280.28C216.648 277.368 218.57 274.027 220.755 271.939C222.268 270.492 222.573 269.541 222.404 266.788C222.268 264.579 222.506 263.413 223.093 263.413C223.586 263.413 223.796 262.908 223.559 262.291C223.055 260.978 226.14 258.474 231.978 255.455C238.501 252.082 242.398 244.322 239.183 241.106C238.87 240.794 238.614 240.14 238.614 239.653C238.614 239.167 237.425 238.384 235.969 237.914C225.208 234.436 232.423 214.201 247.244 206.297C248.753 205.492 251.183 203.918 252.642 202.799C255.795 200.384 267.655 192.892 268.328 192.892C268.916 192.892 274.153 189.056 279.906 184.41C293.264 173.624 306.479 153.863 310.368 138.859C312.017 132.496 312.888 116.606 311.63 115.829C311.3 115.624 311.03 114.628 311.03 113.615C311.03 112.601 310.348 109.977 309.514 107.783C306.903 100.913 308.178 100.532 314.315 106.348ZM72.2911 132.323C72.1287 134.026 72.4516 137.516 73.0074 140.08C73.5643 142.644 73.9321 145.033 73.8269 145.39C73.7206 145.747 74.0292 146.514 74.5115 147.096C75.1675 147.886 75.1716 148.416 74.5278 149.191C73.8187 150.046 73.7942 152.42 74.4767 154.219C74.5554 154.428 74.5595 155.196 74.4849 155.926C74.4103 156.655 74.7332 157.253 75.2002 157.253C75.6681 157.253 75.8551 157.571 75.615 157.959C75.3749 158.348 75.4995 158.862 75.8919 159.105C76.2833 159.348 77.1896 161.333 77.9048 163.518C79.7962 169.298 82.4048 174.201 87.6343 181.812C90.1806 185.518 92.6063 189.062 93.0232 189.689C93.4401 190.315 94.5426 191.676 95.4735 192.713C96.4043 193.75 96.9469 194.953 96.6792 195.386C96.1918 196.175 95.3601 195.364 89.0475 187.951C87.2777 185.872 85.8268 184.56 85.8247 185.035C85.8166 186.35 90.9337 193.633 94.3965 197.237C97.4404 200.404 97.8726 202.769 94.9186 200.096C91.8001 197.274 92.7136 199.649 96.0784 203.111C99.249 206.374 100.073 208.817 98.0014 208.817C97.3566 208.817 91.4701 203.936 88.2351 200.719C87.1949 199.684 87.7161 197.876 88.8523 198.579C89.212 198.801 89.6912 198.685 89.917 198.319C90.1428 197.953 88.9473 197.031 87.2593 196.27C81.43 193.641 74.7925 184.612 79.5632 185.8C81.4433 186.268 81.5465 186.195 80.6085 185.056C80.0363 184.361 79.2148 183.793 78.7846 183.793C77.117 183.793 72.989 179.878 71.1079 176.513C68.7966 172.377 68.6403 171.294 70.4642 172.045C74.2489 173.603 74.3786 173.167 71.1253 169.818C68.9274 167.557 67.3385 165.078 66.8031 163.075C66.3372 161.332 65.6812 159.565 65.345 159.149C64.7861 158.454 64.3007 155.475 64.5041 153.978C64.55 153.637 65.6311 154.101 66.9063 155.009C70.1096 157.29 70.5163 156.365 67.8218 152.928C64.0453 148.11 62.3471 141.547 64.3569 139.537C64.6471 139.247 64.9516 138.548 65.0344 137.983C65.1182 137.419 66.4066 135.048 67.8995 132.714C71.0721 127.754 72.7417 127.606 72.2911 132.323ZM330.847 131.688C333.753 136.338 336.054 141.391 336.054 143.124C336.054 145.159 334.381 149.67 333.626 149.67C333.293 149.67 333.02 150.034 333.02 150.479C333.02 150.924 332.127 152.459 331.035 153.891C328.911 156.676 329.343 157.241 332.113 155.301C336.86 151.976 333.026 165.446 327.852 170.272C324.858 173.064 325.205 174.166 328.521 172.392C333.665 169.639 327.162 180.265 321.775 183.414C317.688 185.804 316.546 187.286 319.724 186.078C325.07 184.046 318.479 193.151 312.42 196.167C310.196 197.275 308.632 198.228 308.945 198.285C309.257 198.342 309.911 198.432 310.399 198.484C312.987 198.762 307.833 205.305 302.98 207.902C299.713 209.651 299.06 207.496 302.052 204.837C305.164 202.072 307.83 198.2 306.623 198.2C306.188 198.2 305.161 199.054 304.341 200.096C303.521 201.139 302.643 201.992 302.39 201.992C301.177 201.992 302.275 200.182 305.932 196.158C310.566 191.06 314.296 185.542 313.457 185.024C313.138 184.827 311.012 187.017 308.731 189.89C306.45 192.762 304.159 195.126 303.636 195.14C302.597 195.17 302.33 193.929 303.287 193.525C306.998 191.956 324.28 161.787 323.147 158.854C323.084 158.693 323.392 158.338 323.829 158.069C324.266 157.798 324.778 156.395 324.965 154.95C325.152 153.506 325.529 151.761 325.803 151.073C326.076 150.386 325.981 149.627 325.592 149.386C325.202 149.145 324.992 148.173 325.123 147.224C325.836 142.077 326.114 140.557 326.44 140.023C326.638 139.699 326.902 137.215 327.025 134.504C327.36 127.172 327.815 126.838 330.847 131.688ZM62.7568 161.613C63.0909 162.343 63.4148 163.282 63.4782 163.699C63.5415 164.116 64.0003 165.481 64.499 166.731C64.9976 167.983 66.2564 171.263 67.2976 174.021C70.0912 181.422 77.4154 193.317 82.7706 199.149C85.3557 201.964 87.0008 204.267 86.4266 204.267C85.229 204.267 79.5039 198.5 76.2649 194.029C75.0551 192.362 73.6757 190.582 73.1975 190.074C72.7203 189.566 71.068 186.896 69.5262 184.14C66.5507 178.819 65.3235 177.947 67.2292 182.509C69.5844 188.146 77.0424 198.576 82.9014 204.428C86.2334 207.755 88.7573 210.68 88.51 210.929C88.2617 211.176 86.3693 209.714 84.3033 207.678C82.2372 205.644 80.3336 204.192 80.0731 204.453C79.4835 205.041 86.4715 212.6 87.6292 212.626C88.5396 212.646 91.1278 217.341 91.1278 218.971C91.1278 219.518 91.981 221.569 93.0232 223.53C96.3481 229.783 94.8951 229.537 86.8649 222.486C84.7876 220.662 84.3329 219.883 85.0788 219.421C85.7869 218.984 85.2525 218.457 83.2519 217.622C77.5911 215.256 73.7083 211.204 78.2379 212.388C80.7331 213.041 79.9494 211.314 77.2887 210.298C75.9338 209.781 74.5891 209.399 74.301 209.451C73.6777 209.562 66.8624 201.703 66.8624 200.873C66.8624 200.558 67.5449 200.477 68.3787 200.695C69.2115 200.913 70.0289 200.867 70.1944 200.593C70.5694 199.971 69.0633 198.661 67.5909 198.33C64.9659 197.74 61.4745 192.73 58.9006 185.861C57.3168 181.637 57.6489 180.912 60.3515 182.682C62.6414 184.182 62.9867 183.122 60.841 181.179C57.0716 177.768 56.5556 170.25 59.5923 162.981C60.8318 160.016 61.83 159.584 62.7568 161.613ZM340.006 163.512C342.555 169.835 342.531 173.789 339.912 178.752C337.087 184.104 337.082 184.148 339.465 182.585C341.315 181.375 341.362 181.391 341.362 183.25C341.362 187.207 334.287 198.2 331.741 198.2C331.194 198.2 330.746 198.542 330.746 198.959C330.746 199.375 330.234 199.717 329.608 199.717C328.983 199.717 328.471 200.098 328.471 200.564C328.471 201.058 329.26 201.26 330.366 201.048C331.499 200.831 332.262 201.036 332.262 201.557C332.262 202.667 325.252 209.606 323.843 209.89C321.801 210.302 320.129 211.26 320.129 212.019C320.129 212.44 320.812 212.607 321.647 212.388C325.597 211.355 320.206 216.417 315.672 217.998C313.585 218.725 313.414 218.965 314.45 219.723C315.51 220.498 307.415 227.773 305.493 227.773C304.431 227.773 309.13 217.912 310.21 217.874C311.39 217.833 315.493 213.366 314.352 213.366C314.03 213.366 312.81 214.283 311.64 215.403C310.193 216.791 309.514 217.086 309.514 216.33C309.514 215.718 311.732 213.019 314.443 210.333C317.154 207.646 319.371 205.113 319.371 204.703C319.371 204.294 318.046 205.254 316.425 206.835C314.806 208.417 313.279 209.388 313.034 208.991C312.789 208.594 314.2 206.723 316.17 204.834C323.285 198.005 333.713 182.458 332.871 179.932C332.741 179.542 331.472 181.447 330.05 184.163C328.628 186.879 327.188 189.101 326.849 189.101C326.511 189.101 325.662 190.208 324.962 191.562C322.904 195.542 311.788 206.588 311.788 204.653C311.788 204.42 313.75 202.084 316.148 199.463C321.533 193.579 324.017 190.618 323.567 190.618C323.379 190.618 324.895 187.868 326.935 184.508C330.32 178.935 334.709 168.766 335.183 165.397C335.352 164.2 337.631 160.286 338.159 160.289C338.46 160.291 339.292 161.741 340.006 163.512ZM97.0103 189.302C97.9523 190.648 98.3723 191.867 97.9452 192.01C97.0317 192.315 94.2228 189.149 94.186 187.774C94.1431 186.161 95.2231 186.745 97.0103 189.302ZM304.964 187.879C304.964 189.316 302.189 192.641 301.535 191.988C301.054 191.51 303.869 186.826 304.637 186.826C304.817 186.826 304.964 187.3 304.964 187.879ZM57.9585 191.776C61.078 199.197 70.5745 212.303 76.7206 217.67C85.932 225.714 96.0406 233.081 97.8645 233.081C98.3294 233.081 98.7105 233.422 98.7105 233.839C98.7105 235.241 96.0825 234.587 92.6441 232.331C84.244 226.82 80.914 224.067 72.8306 215.954C64.0586 207.15 62.0538 205.601 64.409 209.449C66.2452 212.448 74.8354 221.708 75.7826 221.708C76.2117 221.708 77.6116 222.901 78.8929 224.361C80.1752 225.821 81.43 227.015 81.6834 227.015C81.9368 227.015 84.0795 228.473 86.446 230.255C88.8124 232.037 91.6867 233.971 92.8332 234.554C93.9807 235.136 94.9186 236.074 94.9186 236.637C94.9186 237.814 91.5141 236.22 85.8523 232.392C83.9947 231.137 82.2883 230.295 82.0615 230.523C81.4995 231.088 86.777 235.299 91.0205 237.675C93.6322 239.136 94.4946 240.071 94.5181 241.466C94.5355 242.485 94.8093 243.721 95.1261 244.214C95.8985 245.414 94.5069 246.185 92.637 245.591C91.6745 245.285 91.1278 244.443 91.1278 243.267C91.1278 241.716 90.7589 241.423 88.8155 241.423C86.2529 241.423 82.0278 239.523 82.0278 238.37C82.0278 237.963 82.369 237.631 82.7859 237.631C83.2038 237.631 83.5451 237.29 83.5451 236.873C83.5451 236.456 82.9474 236.107 82.2178 236.097C81.4883 236.088 79.509 235.454 77.8211 234.686C72.2595 232.161 68.0803 226.963 72.5026 228.073C73.5203 228.329 74.5575 228.205 74.8088 227.799C75.0602 227.392 74.3133 226.831 73.1494 226.551C69.2942 225.623 65.6955 223.394 62.5545 219.986C58.2119 215.274 57.1257 211.402 60.6816 213.304C62.5964 214.329 63.8297 214.354 63.8297 213.366C63.8297 212.949 63.3178 212.608 62.6914 212.608C62.0661 212.608 61.5542 212.29 61.5542 211.901C61.5542 211.511 60.9227 210.993 60.1502 210.748C59.3778 210.503 57.7838 208.517 56.6077 206.336C55.4316 204.155 54.1431 202.153 53.7446 201.887C53.3451 201.62 53.2532 201.024 53.5403 200.56C53.8264 200.096 53.6997 199.717 53.2583 199.717C52.3478 199.717 52.1394 192.702 53.0232 191.818C53.3369 191.506 53.622 191.022 53.6578 190.743C54.1922 186.623 55.9711 187.051 57.9585 191.776ZM344.933 189.101C345.152 189.935 345.621 190.618 345.976 190.618C346.331 190.618 346.426 191.13 346.186 191.755C345.946 192.38 346.074 192.892 346.472 192.892C347.353 192.892 347.112 197.116 346.082 199.717C345.669 200.76 345.482 201.869 345.666 202.181C345.85 202.494 345.681 202.75 345.29 202.75C344.898 202.75 344.162 203.757 343.652 204.987C342.651 207.403 337.954 212.608 336.775 212.608C336.379 212.608 336.054 212.949 336.054 213.366C336.054 214.525 337.669 214.27 339.221 212.865C341.21 211.066 341.837 212.209 340.439 215.081C338.038 220.017 333.936 223.843 329.193 225.572C324.776 227.183 322.817 229.164 326.575 228.221C329.484 227.49 328.965 229.529 325.554 232.231C323.949 233.502 321.049 234.966 319.108 235.485C315.722 236.391 314.341 237.631 316.717 237.631C317.343 237.631 317.855 237.963 317.855 238.37C317.855 239.592 313.563 241.423 310.698 241.423C308.367 241.423 308.038 241.647 308.196 243.128C308.305 244.159 308.001 244.76 307.428 244.646C306.907 244.541 306.48 244.797 306.48 245.214C306.48 245.631 306.052 245.972 305.527 245.972C302.637 245.972 305.03 239.489 308.62 237.595C312.435 235.584 317.096 231.815 317.096 230.743C317.096 230.378 314.494 231.778 311.312 233.855C305.428 237.697 304.206 238.217 304.206 236.882C304.206 236.058 309.783 232.323 311.015 232.323C311.441 232.323 311.788 232.062 311.788 231.744C311.788 231.425 313.146 230.325 314.806 229.301C316.465 228.275 317.99 226.999 318.194 226.467C318.398 225.935 319.016 225.498 319.567 225.498C320.415 225.498 331.065 214.85 333.399 211.669C337.174 206.524 335.829 205.846 331.744 210.835C324.602 219.557 302.295 236.795 300.538 234.95C300.261 234.659 300.663 234.033 301.429 233.561C319.307 222.55 334.44 207.066 340.604 193.486C343.351 187.429 344.257 186.512 344.933 189.101ZM109.079 194.459C110.248 194.903 113.426 197.394 116.142 199.994C118.858 202.594 122.701 205.871 124.681 207.277C126.663 208.682 128.283 210.088 128.283 210.402C128.283 210.714 129.283 211.19 130.506 211.459C131.729 211.727 133.135 212.437 133.632 213.036C134.129 213.634 135.005 214.124 135.58 214.124C136.155 214.124 136.625 214.465 136.625 214.882C136.625 215.3 137.137 215.641 137.762 215.641C138.388 215.641 138.9 216.157 138.9 216.789C138.9 218.087 131.956 214.904 126.246 210.986C124.376 209.704 122.877 209.121 122.6 209.569C122.179 210.249 133.145 217.916 134.54 217.916C134.852 217.916 135.108 218.451 135.108 219.105C135.108 220.125 134.812 220.091 133.023 218.86C128.946 216.057 122.217 212.607 122.217 213.318C122.217 214.392 130.318 219.993 133.289 220.974C134.706 221.442 135.867 222.333 135.867 222.954C135.867 224.423 134.157 223.9 126.578 220.114C123.345 218.498 120.7 217.508 120.7 217.913C120.7 218.317 122.492 219.552 124.681 220.656C126.871 221.761 128.833 222.911 129.041 223.214C129.251 223.515 130.67 224.169 132.198 224.667C136.046 225.921 137.533 229.621 133.926 228.967C131.668 228.559 116.24 220.525 115.057 219.144C114.616 218.629 112.833 217.303 111.094 216.196C99.0988 208.562 97.3791 190.011 109.079 194.459ZM297.511 194.905C301.601 198.607 294.327 213.288 286.386 217.36C285.135 218.002 282.88 219.508 281.374 220.707C277.865 223.504 269.691 227.624 266.379 228.265C260.962 229.314 265.243 225.665 275.58 220.421C282.225 217.05 279.266 217.207 271.925 220.613C264.303 224.152 263.258 224.464 263.258 223.214C263.258 222.792 265.05 221.588 267.239 220.54C271.764 218.373 278.762 213.452 278.165 212.855C277.948 212.637 274.979 214.028 271.57 215.946C264.87 219.713 264.775 219.753 264.775 218.776C264.775 218.415 267.477 216.55 270.781 214.631C274.084 212.711 276.99 210.812 277.239 210.41C278.13 208.969 276.292 208.865 274.524 210.255C271.257 212.825 262.421 217.254 261.121 216.973C260.224 216.779 260.745 216.197 262.879 215.012C271.3 210.334 276.694 206.355 284.111 199.349C290.354 193.451 294.416 192.104 297.511 194.905ZM293.589 200.805C293.589 203.579 292.442 206.068 289.748 209.137C286.864 212.422 287.262 213.437 290.524 211.114C294.252 208.459 297.241 198.959 294.348 198.959C293.93 198.959 293.589 199.789 293.589 200.805ZM104.788 202.598C104.777 205.676 106.713 210.925 107.55 210.088C107.763 209.875 108.619 210.383 109.453 211.218C112.165 213.93 111.899 211.971 109.059 208.326C107.538 206.374 106.288 204.064 106.282 203.194C106.275 202.324 105.94 201.101 105.535 200.475C104.998 199.643 104.796 200.213 104.788 202.598ZM107.81 203.416C107.81 204.836 109.805 207.074 110.474 206.404C110.955 205.925 109.09 202.005 108.379 201.997C108.066 201.994 107.81 202.633 107.81 203.416ZM289.912 204.267C289.028 206.802 290.045 207.398 291.288 205.075C292.255 203.268 292.297 201.992 291.389 201.992C291.012 201.992 290.348 203.015 289.912 204.267ZM103.788 213.594C104.957 214.5 106.544 216.022 107.313 216.979C108.082 217.934 109.958 219.409 111.483 220.254C120.63 225.328 123.735 226.887 123.745 226.412C123.751 226.119 124.008 226.238 124.315 226.679C124.895 227.513 130.398 230.206 133.478 231.162C134.542 231.492 134.984 231.992 134.574 232.402C134.166 232.81 132.62 232.474 130.744 231.568C129.014 230.732 127.239 230.048 126.799 230.048C126.36 230.048 124.233 229.195 122.072 228.153C117.856 226.119 116.91 225.889 116.91 226.9C116.91 227.255 120.321 229.149 124.492 231.111C128.662 233.073 132.075 234.874 132.075 235.115C132.075 235.93 125.855 234.56 122.75 233.06C118.956 231.226 116.752 231.002 118.452 232.622C119.656 233.769 129.913 238.389 131.254 238.389C131.705 238.389 132.075 238.901 132.075 239.527C132.075 240.957 132.108 240.958 123.192 239.208C115.22 237.642 107.205 234.389 103.367 231.159C102.057 230.057 100.985 229.409 100.985 229.719C100.985 231.377 97.4323 226.758 95.5624 222.671C91.4354 213.65 96.5607 207.993 103.788 213.594ZM304.607 213.385C307.212 215.546 304.344 224.773 299.9 228.532C292.999 234.37 280.236 239.388 270.542 240.075C267.085 240.321 265.988 238.821 269.06 238.049C270.201 237.763 272.271 237.054 273.656 236.476C275.043 235.896 276.344 235.414 276.55 235.405C278.152 235.329 281.513 232.834 280.873 232.194C280.367 231.688 279.33 231.842 277.761 232.653C276.466 233.322 275.147 233.905 274.83 233.946C274.512 233.987 273.463 234.322 272.497 234.688C266.566 236.944 266.959 234.661 272.913 232.272C275.319 231.307 278.31 229.816 279.561 228.958C280.813 228.101 281.979 227.313 282.152 227.207C283.859 226.17 280.879 226.527 278.326 227.666C265.943 233.191 263.826 232.642 275.835 227.02C280.355 224.904 284.318 222.757 284.639 222.25C284.961 221.743 285.241 221.669 285.26 222.087C285.279 222.504 285.643 222.247 286.068 221.518C286.493 220.788 287.295 220.19 287.851 220.19C288.407 220.19 290.225 218.827 291.892 217.161C296.793 212.26 301.55 210.847 304.607 213.385ZM85.4783 214.064C84.9889 214.856 88.7011 218.319 89.3479 217.674C89.6227 217.398 88.9483 216.338 87.8479 215.318C86.7484 214.299 85.6817 213.735 85.4783 214.064ZM96.857 218.864C96.9336 223.268 99.4053 226.941 103.829 229.222C106.512 230.605 105.839 229.145 102.103 225.48C99.6506 223.073 98.5419 221.297 98.2149 219.255C97.655 215.751 96.7987 215.504 96.857 218.864ZM301.345 217.639C301.826 219.789 299.275 224.318 296.118 226.921C292.798 229.658 292.975 230.452 296.522 228.734C300.966 226.583 305.036 217.63 302.048 216.582C301.37 216.344 301.134 216.7 301.345 217.639ZM101.743 222.231C101.743 222.648 102.426 223.606 103.261 224.361C104.094 225.116 104.777 225.392 104.777 224.975C104.777 224.558 104.094 223.599 103.261 222.845C102.426 222.09 101.743 221.813 101.743 222.231ZM295.918 222.779C295.353 223.461 295.115 224.244 295.39 224.519C296.098 225.227 297.613 223.54 297.249 222.448C297.04 221.821 296.629 221.923 295.918 222.779ZM140.936 224.55C141.796 226.969 142.136 227.222 142.836 225.97C143.654 224.51 143.042 223.224 141.533 223.224C140.84 223.224 140.63 223.691 140.936 224.55ZM256.195 224.55C257.033 226.904 257.369 227.197 258.033 226.148C259.124 224.426 258.788 223.224 257.216 223.224C256.12 223.224 255.848 223.576 256.195 224.55ZM70.4887 233.081C74.2816 236.835 77.8895 239.906 78.5056 239.906C79.1228 239.906 79.741 240.19 79.88 240.537C80.0189 240.885 83.1834 242.825 86.9129 244.849C90.6425 246.873 93.292 248.663 92.7995 248.827C91.8543 249.143 83.4971 245.565 82.8104 244.552C82.1831 243.627 77.4788 241.469 77.4788 242.107C77.4788 244.274 91.4119 252.689 97.0041 253.9C100.007 254.551 100.254 255.821 97.3832 255.853C95.4398 255.874 95.4009 255.934 96.8151 256.737C97.6489 257.21 99.0354 258.308 99.8968 259.178C100.758 260.047 102.122 261.15 102.929 261.628C106.43 263.701 102.91 264.567 97.0082 263.083C87.4095 260.67 82.6725 258.022 86.3887 257.144C87.3114 256.927 87.0233 256.667 85.4405 256.293C79.3875 254.862 77.2907 253.836 73.5612 250.477C69.6406 246.948 68.8875 244.974 72.1215 246.705C75.3943 248.456 75.1389 246.516 71.8058 244.308C69.9012 243.047 67.9557 241.291 67.4826 240.407C67.0095 239.524 66.236 238.413 65.7639 237.941C63.564 235.741 61.5705 226.257 63.3076 226.257C63.4649 226.257 66.6958 229.328 70.4887 233.081ZM336.812 228.818C336.812 233.674 333.019 239.937 327.352 244.44C324.573 246.65 324.863 248.256 327.762 246.705C328.641 246.234 329.558 246.049 329.802 246.293C330.412 246.903 326.92 250.522 325.722 250.522C325.19 250.522 324.482 250.996 324.148 251.576C323.038 253.504 317.736 255.936 315.132 255.712C313.755 255.593 312.382 255.741 312.082 256.042C311.781 256.342 312.104 256.588 312.8 256.588C315.197 256.588 314.055 258.732 310.841 260.265C302.134 264.416 290.605 265.148 297.212 261.13C301.352 258.613 305.645 253.842 302.03 255.776C300.634 256.524 299.656 256.182 299.656 254.945C299.656 254.598 300.178 254.313 300.816 254.313C305.085 254.313 323.785 243.308 322.203 241.727C321.619 241.142 317.096 243.576 317.096 244.475C317.096 244.882 316.841 245.145 316.527 245.063C316.215 244.979 314.179 245.832 312.003 246.958C307.691 249.19 307.239 249.324 307.239 248.363C307.239 248.01 309.354 246.612 311.94 245.256C320.354 240.846 324.839 237.586 330.303 231.907C336.463 225.507 336.812 225.341 336.812 228.818ZM119.563 240.994C122.066 241.588 126.075 242.308 128.473 242.594C131.431 242.947 132.833 243.451 132.833 244.163C132.833 245.495 132.282 245.482 124.663 243.969C121.211 243.285 118.15 242.962 117.86 243.252C117.237 243.875 119.238 245.27 120.043 244.772C120.347 244.584 120.814 244.784 121.08 245.214C121.346 245.645 121.836 245.829 122.168 245.624C122.836 245.211 133.447 247.092 134.094 247.739C136.083 249.728 128.988 250.152 120.7 248.538C118.939 248.194 118.965 248.262 121.08 249.491C122.64 250.397 125.558 250.914 130.369 251.137C142.693 251.706 138.56 253.592 124.94 253.613C109.303 253.639 98.5205 248.78 98.5205 241.709C98.5205 239.401 98.6829 239.239 102.207 238.028C104.678 237.179 105.724 237.239 110.036 238.48C112.773 239.268 117.061 240.399 119.563 240.994ZM299.846 239.207C307.337 247.077 284.839 256.167 265.169 253.218C259.859 252.422 261.711 251.529 269.52 251.12C275.574 250.803 280.728 249.54 279.79 248.602C279.637 248.449 277.059 248.687 274.062 249.131C267.65 250.083 263.922 249.525 265.604 247.865C266.191 247.287 268.377 246.631 270.462 246.408C278.298 245.569 282.216 244.631 282.216 243.594C282.216 242.924 279.657 243.126 271.22 244.461C269.135 244.791 267.281 244.92 267.1 244.746C266.191 243.873 268.846 242.925 275.012 241.92C278.765 241.308 284.32 239.991 287.354 238.994C293.534 236.965 297.781 237.038 299.846 239.207ZM137.13 239.653C136.087 240.697 136.68 242.181 138.141 242.181C139.152 242.181 139.658 241.675 139.658 240.664C139.658 239.203 138.174 238.609 137.13 239.653ZM259.467 240.192C259.467 241.957 261.635 243.341 262.179 241.924C262.43 241.271 262.413 240.38 262.144 239.942C261.428 238.786 259.467 238.969 259.467 240.192ZM100.985 243.548C100.985 246.038 108.366 250.486 112.549 250.518C114.241 250.53 112.723 249.127 110.24 248.383C108.658 247.909 105.927 246.293 104.174 244.792C101.431 242.444 100.985 242.27 100.985 243.548ZM295.704 244.473C294.202 245.71 291.359 247.416 289.384 248.263C285.051 250.119 285.349 250.961 289.905 249.735C293.686 248.717 297.019 246.549 298.203 244.338C299.469 241.973 298.687 242.015 295.704 244.473ZM106.293 243.653C106.293 244.458 107.715 245.479 109.137 245.694C110.603 245.917 110.256 244.601 108.618 243.724C106.803 242.753 106.293 242.737 106.293 243.653ZM290.893 244.014C288.84 245.515 289.907 246.219 292.328 244.964C293.427 244.393 294.103 243.705 293.831 243.433C293.103 242.705 292.528 242.819 290.893 244.014ZM99.3553 250.596C100.669 251.054 101.743 251.719 101.743 252.073C101.743 252.782 97.2453 251.464 96.0947 250.419C95.0934 249.509 96.4493 249.583 99.3553 250.596ZM303.447 250.522C303.447 250.939 302.963 251.28 302.371 251.28C301.781 251.28 300.757 251.488 300.097 251.74C299.437 251.993 298.897 251.846 298.897 251.414C298.897 250.737 299.609 250.461 302.878 249.867C303.191 249.81 303.447 250.105 303.447 250.522ZM135.254 257.257C134.715 257.59 132.682 257.922 130.735 257.995C128.79 258.069 126.844 258.494 126.413 258.94C125.859 259.512 127.02 259.675 130.371 259.495C134.847 259.256 136.864 260.427 132.963 261.002C132.058 261.134 131.317 261.599 131.317 262.036C131.317 262.543 132.537 262.644 134.729 262.315C141.722 261.266 136.632 264.611 123.186 269.898C119.758 271.247 115.534 273.474 113.802 274.846C108.819 278.792 103.826 274.882 105.608 268.428C106.447 265.389 111.932 259.268 113.145 260.018C113.547 260.266 113.876 260.088 113.876 259.621C113.876 259.155 114.157 258.947 114.499 259.158C114.841 259.371 116.083 259.045 117.258 258.436C118.432 257.827 119.773 257.386 120.237 257.457C120.7 257.527 121.672 257.326 122.397 257.009C123.121 256.693 125.254 256.557 127.136 256.706C129.018 256.856 130.559 256.743 130.559 256.455C130.559 256.166 131.497 255.812 132.644 255.666C135.092 255.354 136.723 256.348 135.254 257.257ZM254.96 255.804C253.752 256.55 254.501 259.129 255.799 258.695C256.802 258.361 257.333 256.007 256.52 255.504C256.224 255.321 255.522 255.456 254.96 255.804ZM142.703 256.398C142.736 258.061 144.185 259.164 144.195 257.536C144.203 256.598 143.866 255.83 143.45 255.83C143.032 255.83 142.696 256.086 142.703 256.398ZM268.085 256.361C268.377 256.652 270.158 256.796 272.043 256.679C273.928 256.564 275.962 256.877 276.564 257.376C277.165 257.875 278.512 258.12 279.557 257.92C280.602 257.721 281.457 257.811 281.457 258.12C281.457 258.43 282.927 259.053 284.724 259.506C291.897 261.312 296.57 270.242 292.829 274.997C290.894 277.457 288.817 277.251 284.572 274.174C282.769 272.87 278.52 270.731 275.127 269.423C262.339 264.492 257.972 261.464 264.898 262.335C268.738 262.817 269.664 261.69 265.975 261.022C262.335 260.363 264.344 259.259 268.755 259.495C272.003 259.669 273.257 259.503 272.737 258.966C272.32 258.536 270.47 258.078 268.628 257.949C266.785 257.822 265.135 257.291 264.963 256.773C264.631 255.777 267.168 255.442 268.085 256.361ZM141.174 265.687C141.174 266.105 139.473 267.385 137.393 268.531C135.314 269.679 133.609 270.872 133.603 271.186C133.585 272.071 135.462 271.854 136.461 270.857C136.954 270.363 137.619 270.22 137.938 270.54C138.257 270.859 137.861 271.601 137.058 272.187C136.255 272.775 135.792 273.449 136.029 273.686C136.606 274.262 141.908 272.012 143.616 270.466C144.363 269.789 145.206 269.466 145.487 269.748C146.193 270.453 141.302 275.419 138.52 276.821C137.269 277.452 133.686 280.665 130.559 283.96C122.249 292.715 116.151 292.097 116.151 282.5C116.151 278.529 120.497 272.106 122.809 272.658C124.07 272.959 129.037 270.984 134.349 268.07C140.386 264.759 141.174 264.484 141.174 265.687ZM265.332 268.355C268.001 269.823 270.503 270.826 270.892 270.585C271.28 270.345 271.599 270.455 271.599 270.829C271.599 271.204 273.049 271.966 274.822 272.523C285.114 275.757 287.174 288.914 277.627 290.432C275.062 290.84 274.702 290.603 270.044 285.438C267.355 282.454 263.106 278.537 260.604 276.732C255.555 273.09 252.92 270.465 253.615 269.771C253.866 269.519 255.113 270.055 256.385 270.961C257.657 271.867 259.041 272.396 259.461 272.136C259.881 271.876 260.225 271.986 260.225 272.379C260.225 272.773 260.907 273.272 261.742 273.49C263.311 273.901 263.837 272.96 262.5 272.133C262.083 271.875 261.742 271.275 261.742 270.799C261.742 270.176 261.997 270.188 262.651 270.844C263.152 271.344 264.005 271.754 264.547 271.754C266.396 271.754 265.537 270.52 262.5 268.812C260.832 267.874 259.467 266.788 259.467 266.398C259.467 265.281 260.158 265.512 265.332 268.355ZM110.078 269.85C110.593 270.47 111.322 270.788 111.699 270.555C112.667 269.958 111.741 268.721 110.326 268.721C109.363 268.721 109.316 268.932 110.078 269.85ZM287.935 269.426C287.175 270.656 288.826 271.029 289.806 269.85C290.567 268.932 290.521 268.721 289.556 268.721C288.904 268.721 288.175 269.039 287.935 269.426ZM107.833 271.797C108.763 273.534 110.623 274.502 111.444 273.678C112.012 273.108 108.889 270.238 107.699 270.238C107.313 270.238 107.373 270.938 107.833 271.797ZM290.072 271.375C289.832 272 289.161 272.512 288.579 272.512C287.999 272.512 287.524 272.853 287.524 273.27C287.524 274.46 289.255 274.115 291.126 272.555C293.124 270.887 293.277 270.238 291.67 270.238C291.032 270.238 290.312 270.749 290.072 271.375ZM144.208 277.062C144.208 277.479 143.733 277.82 143.151 277.82C142.57 277.82 141.89 278.355 141.639 279.008C141.289 279.919 141.535 280.082 142.695 279.715C143.527 279.451 144.208 279.571 144.208 279.981C144.208 280.391 143.798 280.863 143.297 281.031C142.685 281.234 142.649 281.497 143.187 281.829C143.627 282.102 145.419 281.099 147.167 279.603C151.575 275.83 151.729 276.787 147.669 282.719C145.765 285.499 144.208 288.227 144.208 288.782C144.208 289.337 143.715 289.98 143.114 290.21C142.513 290.441 142.048 291.245 142.08 291.998C142.37 298.701 134.743 303.127 130.564 298.679C126.87 294.747 128.919 289.39 137.08 281.638C142.455 276.532 144.208 275.407 144.208 277.062ZM257.192 277.062C257.192 277.479 257.545 277.82 257.976 277.82C259.075 277.82 267.916 287.355 269.482 290.23C272.971 296.632 268.938 301.97 262.015 300.113C260.215 299.629 257.599 294.998 256.749 290.787C256.631 290.203 256.256 289.521 255.916 289.27C255.575 289.02 254.723 287.575 254.023 286.06C253.324 284.545 251.657 282.06 250.321 280.537C247.15 276.925 247.884 276.352 251.927 279.281C255.533 281.893 256.609 282.191 255.916 280.387C255.532 279.386 255.778 279.267 257.261 279.738C258.882 280.252 258.965 280.181 258.041 279.067C257.472 278.381 256.536 277.82 255.962 277.82C255.388 277.82 254.918 277.479 254.918 277.062C254.918 276.645 255.428 276.304 256.055 276.304C256.68 276.304 257.192 276.645 257.192 277.062ZM162.407 277.82C162.407 278.237 162.918 278.578 163.544 278.578C164.169 278.578 164.681 278.237 164.681 277.82C164.681 277.403 164.169 277.062 163.544 277.062C162.918 277.062 162.407 277.403 162.407 277.82ZM281.457 282.723C281.457 284.815 279.548 286.161 276.578 286.161C275.508 286.161 274.633 286.502 274.633 286.919C274.633 288.371 279.098 287.705 280.67 286.018C282.027 284.561 282.865 280.853 281.837 280.853C281.628 280.853 281.457 281.695 281.457 282.723ZM117.756 283.677C117.657 286.419 120.371 288.377 123.544 287.854C126.189 287.418 125.555 286.161 122.689 286.161C120.002 286.161 118.837 285.272 118.216 282.749C117.97 281.746 117.814 282.061 117.756 283.677ZM253.387 290.54C256.765 297.759 256.84 298.454 254.523 301.207C250.574 305.9 247.155 303.793 245.283 295.514C244.639 292.664 243.465 289.053 242.674 287.488C241.208 284.586 241.892 283.572 243.697 285.972C244.246 286.702 245.505 287.981 246.495 288.816L248.294 290.332L247.763 288.626C247.186 286.77 248.01 286.383 249.457 287.83C250.724 289.097 250.592 288.043 249.126 285.176L247.885 282.749L249.477 284.168C250.352 284.948 252.112 287.815 253.387 290.54ZM150.301 285.353C149.092 287.611 149.363 288.051 151.032 286.54C152.698 285.033 153.075 286.036 151.764 288.486C150.596 290.667 151.536 290.273 154.603 287.294C157.92 284.073 158.434 284.31 156.508 288.173C155.709 289.777 154.621 293.308 154.09 296.019C152.679 303.232 149.652 305.338 145.447 302.03C142.289 299.545 142.717 296.892 147.853 287.109C148.784 285.336 149.893 283.887 150.316 283.887C150.831 283.887 150.826 284.371 150.301 285.353ZM132.833 294.171C132.833 294.786 132.367 295.034 131.696 294.777C130.121 294.173 130.269 295.523 131.945 297.039C133.446 298.397 138.141 298.774 138.141 297.536C138.141 297.119 137.288 296.777 136.246 296.777C134.224 296.777 133.844 296.07 135.158 294.755C135.731 294.183 135.509 293.828 134.4 293.537C133.378 293.271 132.833 293.49 132.833 294.171ZM263.258 294.597C263.258 294.962 263.6 295.261 264.017 295.261C264.433 295.261 264.775 295.602 264.775 296.019C264.775 296.436 264.092 296.777 263.258 296.777C262.425 296.777 261.742 297.119 261.742 297.536C261.742 297.953 262.713 298.294 263.899 298.294C266.269 298.294 268.799 296.095 267.96 294.765C267.334 293.774 263.258 293.629 263.258 294.597ZM146.956 295.798C146.718 296.036 146.705 296.524 146.927 296.883C147.459 297.744 149.516 297.725 149.516 296.858C149.516 296.021 147.548 295.206 146.956 295.798ZM145.724 299.759C145.724 300.687 148.524 301.56 149.521 300.944C149.949 300.681 150.102 300.146 149.862 299.758C149.293 298.838 145.724 298.839 145.724 299.759ZM237.969 300.211C238.396 301.325 240.565 302.844 241.729 302.844C242.038 302.844 241.489 301.991 240.509 300.948C238.508 298.817 237.299 298.466 237.969 300.211ZM249.794 299.556C248.661 300.012 249.294 301.327 250.646 301.327C251.168 301.327 252.257 300.826 253.066 300.214C254.624 299.036 252.263 298.56 249.794 299.556ZM158.236 301.327C156.469 303.279 157.902 303.297 160.238 301.352C161.598 300.219 161.737 299.855 160.818 299.836C160.153 299.821 158.991 300.493 158.236 301.327Z" fill="#0000FF"/>
</svg>
