<svg width="400" height="400" viewBox="0 0 400 400" fill="none" xmlns="http://www.w3.org/2000/svg">
<path style="fill:#FF0000;" d="M257.953,317.558c-9.461,2.59-32.951,5.34-56.703-0.243v-95.362c0.359,1.133,0.775,2.252,1.279,3.346
	c1.303,2.828,3.106,5.505,5.546,7.943c10.369,10.37,39.484,16.261,39.484,16.261s-5.102,2.856-10.275,8.277
	c-6.833,7.154-13.765,18.772-9.134,34.131C234.427,312.692,258.857,317.308,257.953,317.558z M329.184,214.445
	c-0.554,1.192-1.512,2.674-3.118,4.283c0,0,0.731,13.42-6.296,18.867c-0.014,0-0.027,0.029-0.054,0.042
	c-0.097,0.056-0.183,0.125-0.282,0.194c-0.994,0.721-2.146,1.274-3.476,1.622c-13.269,3.452-5.548-6.849-43.393-4.492
	c-0.539,0.043-1.095,0.07-1.661,0.113c0,0,32.744,5.267,31.594,14.319c-0.958,7.403-8.623,3.715-13.213,4.408
	c-5.947,0.901-12.324,10.827-11.064,16.58c1.679,7.707,10.286,8.026,7.664,16.746c-1.718,5.698-7.013,9.067-12.228,11.243
	c-4.017,1.692-9.19,1.692-13.251-0.056c-1.289-0.541-2.301-1.469-3.785-1.511c5.516,0.152,16.51-1.456,16.79-8.775
	c0.264-6.905-11.174-11.118-8.914-18.868c1.982-6.807,12.128-14.903,18.406-17.882c-13.431-5.366-28.472-8.013-42.489-11.604
	c-14.112-3.618-30.165-8.609-34.743-24.248c-3.503-11.99,1.238-26.173,3.997-37.886c0,0-5.612,9.447-8.42,21.317v-51.255
	c15.732,0.46,25.055-9.351,25.055-9.351s-13.489,5.408-23.569,3.937c-0.509-0.075-0.997-0.162-1.486-0.249v-19.846
	c14.185,0.043,25.342,6.698,29.049,9.214c0.859,0.582,1.314,0.941,1.314,0.941s-6.235-14.791-30.026-23.109
	c-0.111-0.039-0.226-0.071-0.338-0.109v-28.62c1.617,0.228,3.211,0.481,4.757,0.782c-0.539,5.629-1.427,14.085-1.427,14.085
	l5.546-13.184c15.513,3.786,27.34,11.078,36.057,18.743c-3.643,4.048-9.549,10.647-9.923,11.062l13.267-7.958
	c12.202,11.923,17.216,23.694,17.216,23.694s-3.158,6.321-10.147,9.677c-4.423,2.12-10.37,3.049-18.007,0.429
	c0,0,13.169,8.706,24.382,2.439c2.304-1.289,4.536-3.204,6.544-5.975c0,0,7.363,2.356,15.014,0.582c0,0-8.068,38.708,14.722,58.615
	c20.949,18.298,20.949,18.298,30.748,18.173C330,211.671,329.991,212.767,329.184,214.445z M282.437,188.133
	c-0.126-0.528-2.372-9.052-8.302-14.987c-11.091-11.091-36.283-6.238-36.283-6.238s3.305,4.797,12.477,10.69
	c9.195,5.892,22.363,2.079,22.363,2.079C276.048,179.676,282.062,187.634,282.437,188.133z"/>
<path style="fill:#0000FF;" d="M198.75,121.962v19.467c-18.493-4.392-21.163-18.253-21.004-26.536
	c0.068-3.812,0.735-6.446,0.735-6.446S185.656,120.612,198.75,121.962z M178.397,105.577c7.062-0.181,13.922,0.744,20.353,2.651
	v-28.14c-6.43-0.736-13.388-0.891-20.908-0.281l-0.29,11.09c0,0-1.758-6.059-3.048-10.773c-5.061,0.541-10.343,1.415-15.888,2.676
	c-5.09,1.165-9.899,2.607-14.45,4.312l2.665,11.866l-6.891-10.188c-8.174,3.438-15.483,7.708-21.997,12.615l3.994,12.547
	l0.162,0.513l-0.32-0.402l-7.735-9.566c-7.552,6.28-13.943,13.419-19.324,21.044l5.893,7.86l-8.652-3.757
	c-5.185,8.028-9.288,16.484-12.489,24.954l5.694,5.337l2.514,2.358c0,0-1.238-0.429-3.097-1.095
	c-1.799-0.652-4.198-1.51-6.623-2.398c-3.109,9.067-5.201,18.05-6.447,26.45l3.133,1.747l3.327,1.857l-4.062,0.347l-2.967,0.263
	c-0.512,4.229-0.805,8.277-0.902,12.074v0.015c-0.124,4.588,0.029,8.801,0.404,12.531c2.649,0.609,4.989,1.109,4.989,1.109
	l-4.628,1.719c0.165,1.192,0.358,2.315,0.582,3.368c1.607,7.611,3.395,14.21,5.473,20.116l2.734-0.471l-1.887,2.773
	c2.84,7.541,6.215,13.904,10.327,19.739l1.72-0.332l-0.805,1.608c5.338,7.306,11.896,13.849,20.144,20.961
	c-1.801-2.066-40.879-47.634-11.605-114.537C117.067,125.443,149.394,106.285,178.397,105.577z M198.75,147.437
	c-3.649-0.352-7.602-1.251-11.841-2.947c0,0-65.555,46.15-45.402,117.836c9.265,32.94,33.14,48.097,57.242,54.367V147.437z"/>
</svg>
