<svg width="400" height="400" viewBox="0 0 400 400" fill="none" xmlns="http://www.w3.org/2000/svg">
<path fill-rule="evenodd" clip-rule="evenodd" d="M181.421 91.3606C180.773 92.1083 179.999 93.7378 179.705 94.9818C179.088 97.5761 178.017 97.8774 176.774 95.8037C176.014 94.5354 175.79 94.511 174.884 95.5977C173.702 97.0156 170.156 97.6249 170.156 96.4108C170.156 95.9632 169.786 95.5977 169.334 95.5977C168.882 95.5977 168.512 96.5016 168.512 97.6049C168.512 99.7495 166.769 101.468 166.231 99.8536C165.724 98.3327 164.565 98.7204 163.965 100.612C163.532 101.974 162.907 102.263 160.996 101.982C159.665 101.787 158.384 101.935 158.151 102.312C157.919 102.688 157.131 102.996 156.402 102.996C155.673 102.996 154.38 103.628 153.528 104.399C152.268 105.539 151.683 105.617 150.405 104.819C149.08 103.991 148.687 104.104 147.921 105.535C147.421 106.47 146.505 107.04 145.884 106.801C145.264 106.563 143.596 106.948 142.178 107.655C140.281 108.601 139.358 108.699 138.683 108.024C137.326 106.666 136.819 106.879 135.732 109.264C134.779 111.355 134.701 111.376 133.119 109.944C131.546 108.521 131.493 108.525 131.633 110.048C131.95 113.481 131.55 114.361 129.874 113.922C128.965 113.684 128.23 112.801 128.23 111.944C128.23 109.767 126.756 110.007 126.438 112.237C126.091 114.667 123.298 115.277 123.298 112.922C123.298 111.984 122.928 111.218 122.476 111.218C122.024 111.218 121.654 112.124 121.654 113.232C121.654 115.96 119.239 117.273 117.356 115.569C116.063 114.399 115.887 114.405 115.417 115.627C114.757 117.348 113.474 117.343 112.21 115.613C111.118 114.119 109.322 114.738 109.322 116.609C109.322 118.194 108.784 118.108 105.908 116.06C102.818 113.859 102.577 114.161 103.5 119.096C103.915 121.318 104.083 123.309 103.872 123.518C103.114 124.276 100.689 122.094 100.602 120.577C100.438 117.74 98.9716 114.942 98.2548 116.101C97.8826 116.703 98.0266 117.418 98.5916 117.767C99.3238 118.219 99.2219 118.734 98.1983 119.759C97.136 120.82 96.5556 120.922 95.6816 120.196C94.3379 119.082 91.7114 119.854 92.5012 121.132C92.8014 121.619 93.5403 121.828 94.1429 121.596C94.8497 121.325 95.4323 122.062 95.7868 123.677C96.4891 126.876 95.0501 128.531 93.722 126.049C92.9321 124.574 92.5522 124.442 91.5286 125.292C90.5295 126.121 90.1528 126.098 89.5801 125.172C88.993 124.222 88.5798 124.288 87.1708 125.564C85.6044 126.981 85.5734 127.219 86.7809 128.553C88.0016 129.902 87.9318 130.021 85.7595 130.269C83.749 130.499 83.4643 130.848 83.6914 132.797C84.0126 135.538 81.9279 135.924 80.3593 133.414C79.7943 132.509 79.0522 131.769 78.7088 131.769C77.6309 131.769 78.0308 135.057 79.112 135.083C79.6769 135.097 80.8456 136.077 81.7085 137.26L83.2771 139.411L81.1425 138.876C78.454 138.201 77.7893 139.204 79.4 141.504C80.2895 142.773 81.1846 143.151 82.515 142.816C83.6781 142.525 85.5646 143.046 87.5164 144.196L90.6491 146.045L92.1412 144.203C93.3442 142.717 93.9446 142.527 95.2418 143.222C96.6852 143.995 96.9078 143.742 97.4119 140.761C98.1851 136.183 101.04 138.348 103.98 145.744C105.662 149.973 109.147 155.948 110.484 156.895C112.443 158.28 113.661 157.622 112.999 155.536C112.661 154.471 112.968 153.776 113.944 153.402C114.778 153.083 115.527 153.258 115.713 153.817C115.891 154.351 116.745 154.788 117.611 154.788C119.367 154.788 119.696 156.416 118.236 157.876C117.008 159.104 118.086 160.428 122.026 162.532L124.985 164.111L127.859 161.325C129.441 159.792 130.543 158.041 130.311 157.433C130.077 156.825 130.451 155.234 131.143 153.898C131.833 152.562 132.328 150.644 132.241 149.634C131.953 146.258 132.331 144.922 133.574 144.922C134.867 144.922 135.022 145.618 134.98 151.254C134.965 153.251 135.444 155.114 136.114 155.67C136.751 156.2 137.273 157.307 137.273 158.131C137.273 160.788 140.702 163.727 144.095 163.976C147.452 164.224 148.747 163.126 148.77 160.013C148.777 159.045 149.278 158.061 149.884 157.828C151.549 157.189 153.016 158.44 152.421 159.991C152.132 160.746 152.283 161.364 152.756 161.364C153.945 161.364 154.952 159.584 154.684 157.956C154.562 157.211 155.219 154.45 156.143 151.819C157.068 149.187 157.825 146.189 157.825 145.157C157.825 144.017 158.321 143.278 159.085 143.278C160.164 143.278 160.294 144.633 159.989 152.735C159.784 158.191 159.963 162.393 160.41 162.67C161.456 163.317 163.744 161.335 163.297 160.17C163.101 159.658 164.415 158.781 166.221 158.217C170.05 157.022 171.8 157.913 171.8 161.053C171.8 164.378 174.445 162.874 178.352 157.327C180.451 154.347 183.309 156.131 183.309 160.422C183.309 162.245 185.846 167.105 186.803 167.113C187.142 167.116 187.419 166.429 187.419 165.585C187.419 164.742 188.167 163.101 189.082 161.939C189.996 160.777 190.659 159.524 190.557 159.156C190.394 158.566 191.503 150.45 191.97 148.827C192.067 148.488 192.192 147.471 192.249 146.567C192.306 145.649 192.935 144.922 193.67 144.922C194.824 144.922 194.911 145.768 194.364 151.705C194.02 155.435 193.803 160.706 193.882 163.419C194.163 173.048 194.612 174.516 197.278 174.516C198.124 174.516 199.053 175.256 199.339 176.161C199.939 178.048 202.216 178.403 202.216 176.611C202.216 174.553 204.075 171.229 205.226 171.229C206.502 171.229 206.724 174.174 205.505 174.927C204.277 175.687 204.488 180.271 205.751 180.271C206.339 180.271 207.172 179.949 207.601 179.556C209.203 178.088 212.696 177.798 213.732 179.046C214.292 179.721 215.415 180.271 216.229 180.271C219.105 180.271 222.893 184.358 222.613 187.156C222.417 189.104 222.717 189.77 223.89 189.997C224.733 190.16 226.528 191.552 227.88 193.092C229.232 194.631 230.613 195.89 230.951 195.89C232.503 195.89 238.771 190.877 241.801 187.209C246.106 181.999 246.917 182.07 247.027 187.67C247.237 198.403 249.572 199.181 259.058 191.682C262.332 189.093 263.05 188.835 263.05 190.246C263.05 191.311 259.603 194.5 256.267 196.521C253.682 198.087 252.953 199.79 252.755 204.728C252.621 208.057 253.319 209.178 254.419 207.4C255.183 206.162 259.977 206.354 259.54 207.606C259.341 208.171 258.62 208.535 257.937 208.417C256.083 208.094 254.317 210.504 255.522 211.709C256.243 212.43 256.713 212.422 257.46 211.674C259.022 210.113 260.584 210.524 260.584 212.496C260.584 213.892 260.807 214.083 261.559 213.329C262.311 212.577 262.84 212.632 263.871 213.564C266.249 215.717 275.675 213.305 283.548 208.531C292.668 203 297.552 200.524 298.153 201.125C298.888 201.86 296.024 204.799 293.975 205.417C292.31 205.919 286.972 209.147 279.902 213.927C278.094 215.149 275.439 216.619 274.002 217.193C268.992 219.195 267.076 223.841 271.261 223.841C272.648 223.841 272.855 224.204 272.43 225.897C272.015 227.553 272.22 227.952 273.49 227.952C275.631 227.952 278.022 226.093 277.7 224.68C277.555 224.047 278.041 223.394 278.78 223.232C280.763 222.794 281.316 228.478 279.584 231.493C277.655 234.854 284.799 239.71 287.301 236.738C288.362 235.478 293.239 233.09 296.138 232.412C299.158 231.706 299.059 233.168 295.933 235.48C294.576 236.483 293.466 237.986 293.466 238.819C293.466 239.653 292.911 240.547 292.233 240.807C289.693 241.782 292.989 246.86 296.163 246.86C296.908 246.86 297.903 247.575 298.371 248.451C299.569 250.69 304.071 251.017 306.373 249.032C308.566 247.141 311.071 247.779 310.352 250.046C309.766 251.89 311.606 252.838 314.405 252.136C315.451 251.873 316.545 252.046 316.837 252.52C317.131 252.994 318.373 253.205 319.599 252.988C322.273 252.515 325.121 254.454 324.423 256.273C324.063 257.21 324.47 257.546 325.964 257.546C327.488 257.546 327.994 257.11 327.994 255.79C327.994 254.182 328.305 254.077 331.693 254.542C335.648 255.083 336.539 254.165 333.748 252.423C331.924 251.283 331.531 249.318 333.131 249.34C333.696 249.348 335.03 250.273 336.096 251.395C338.901 254.354 339.903 253.961 339.989 249.867C340.057 246.671 339.821 246.207 337.728 245.417C335.466 244.563 334.418 241.927 336.341 241.927C336.947 241.927 336.841 241.406 336.047 240.488C335.082 239.371 332.926 234.385 332.926 233.268C332.926 233.162 333.758 232.841 334.775 232.555C336.577 232.048 336.585 232.004 335.049 230.83C333.789 229.867 333.636 229.248 334.288 227.76C335.358 225.32 334.293 220.516 332.333 218.928C330.63 217.55 327.994 212.716 327.994 210.973C327.994 210.364 327.58 209.866 327.075 209.866C326.542 209.866 326.321 209.014 326.547 207.828C326.824 206.384 326.517 205.658 325.494 205.334C324.514 205.022 324.194 204.335 324.494 203.187C324.871 201.747 324.584 201.521 322.56 201.658C316.935 202.039 315.444 200.814 319.362 199.03C320.492 198.515 321.417 197.775 321.417 197.386C321.417 196.996 320.492 196.256 319.362 195.741C318.231 195.226 317.307 194.31 317.307 193.704C317.307 192.218 314.316 189.315 312.785 189.315C312.107 189.315 311.552 188.79 311.552 188.149C311.552 187.509 310.568 186.267 309.364 185.391C307.036 183.695 307.127 180.482 309.478 181.383C310.138 181.637 310.896 181.49 311.164 181.058C311.431 180.626 311.217 180.271 310.69 180.271C310.077 180.271 309.916 179.53 310.244 178.223C310.686 176.459 310.499 176.204 308.894 176.374C307.241 176.549 307.031 176.208 307.031 173.359C307.031 171.522 306.591 169.996 306.003 169.796C304.78 169.381 304.624 165.789 305.798 165.063C307.402 164.072 306.615 163.062 304.77 163.745C303.753 164.121 302.914 164.757 302.908 165.157C302.884 166.509 301.597 167.941 300.405 167.941C299.754 167.941 299.221 167.386 299.221 166.707C299.221 166.029 299.556 165.474 299.965 165.474C301.482 165.474 305.136 158.006 304.621 155.955C303.879 152.996 302.984 153.329 294.285 159.803C290.539 162.592 288.534 163.291 288.534 161.807C288.534 160.387 290.762 158.075 292.13 158.075C293.186 158.075 298.399 153.086 298.399 152.076C298.399 151.759 297.474 151.499 296.344 151.499C293.983 151.499 293.643 150.298 295.681 149.157C296.813 148.523 295.978 141.634 294.768 141.634C294.725 141.634 293.489 141.978 292.023 142.399C288.992 143.268 288.498 142.301 290.717 139.85C291.983 138.451 291.983 138.345 290.717 138.345C289.152 138.345 288.958 137.429 290.249 136.137C290.814 135.572 290.849 135.061 290.343 134.749C289.903 134.476 289.096 134.791 288.552 135.448C287.274 136.986 283.437 134.801 284.15 132.941C284.41 132.266 284.105 131.769 283.432 131.769C282.79 131.769 281.755 130.472 281.133 128.886C280.271 126.689 279.647 126.115 278.513 126.475C277.341 126.847 277.025 126.5 277.025 124.836C277.025 122.722 275.172 121.892 274.147 123.548C273.238 125.021 271.276 124.493 271.861 122.932C272.325 121.694 272.215 121.644 271.069 122.576C269.797 123.609 266.237 122.249 264.686 120.139C264.456 119.825 263.226 119.308 261.954 118.988C260.605 118.65 259.332 117.595 258.9 116.456C258.198 114.61 256.473 113.714 256.473 115.197C256.473 117.746 242.335 118.232 241.37 115.716C241.115 115.051 240.543 114.506 240.1 114.506C239.657 114.506 238.296 113.581 237.077 112.451C235.857 111.32 234.452 110.395 233.952 110.395C232.941 110.395 226.057 102.692 226.057 101.561C226.057 100.054 221 97.0378 220.058 97.9804C218.526 99.5124 217.625 98.9896 218.041 96.8118C218.516 94.3315 217.347 93.2537 216.631 95.5102C215.841 97.9959 213.726 98.3903 213.726 96.0519C213.726 93.7876 212.273 93.0189 210.298 94.2396C208.719 95.2166 206.327 93.7134 206.327 91.7439C206.327 89.7909 201.943 90.7657 200.993 92.9291C200.188 94.7647 198.327 95.015 198.722 93.2349C198.835 92.7264 198.495 92.3099 197.966 92.3099C197.436 92.3099 196.326 91.6973 195.499 90.9496C194.101 89.6835 193.892 89.6835 192.493 90.9496C190.658 92.609 187.747 92.6854 184.805 91.1501C182.863 90.1365 182.46 90.162 181.421 91.3606ZM174.678 100.588C174.678 101.222 174.03 101.865 173.239 102.018C171.822 102.291 171.236 100.547 172.365 99.4172C173.227 98.5554 174.678 99.2898 174.678 100.588ZM161.114 114.554C161.114 115.432 160.559 116.15 159.88 116.15C158.661 116.15 158.156 113.626 159.173 112.61C160.03 111.753 161.114 112.839 161.114 114.554ZM173.444 121.493C173.444 122.171 173.074 122.726 172.622 122.726C172.17 122.726 171.8 122.171 171.8 121.493C171.8 120.815 172.17 120.26 172.622 120.26C173.074 120.26 173.444 120.815 173.444 121.493ZM73.7295 137.909C75.2183 139.954 76.4401 140.579 76.4401 139.296C76.4401 138.481 73.7018 135.88 72.8433 135.88C72.5187 135.88 72.9175 136.792 73.7295 137.909ZM181.665 138.345C181.665 139.417 181.117 139.99 180.094 139.99C178.726 139.99 178.457 139.125 179.135 136.908C179.463 135.836 181.665 137.088 181.665 138.345ZM160.292 139.579C160.292 140.858 159.825 141.634 159.058 141.634C157.825 141.634 157.338 139.106 158.373 138.072C159.491 136.954 160.292 137.583 160.292 139.579ZM170.712 143.772C170.99 144.496 170.701 145.415 170.071 145.815C168.326 146.919 167.69 146.717 167.69 145.059C167.69 142.365 169.824 141.456 170.712 143.772ZM181.665 145.197C181.665 147.533 181.052 148.239 179.53 147.655C177.661 146.938 178.072 143.278 180.02 143.278C181.195 143.278 181.665 143.826 181.665 145.197ZM116.31 146.155C116.31 146.985 115.848 147.817 115.283 148.005C114.632 148.222 114.255 147.544 114.255 146.155C114.255 144.767 114.632 144.089 115.283 144.306C115.848 144.494 116.31 145.326 116.31 146.155ZM181.253 151.773C181.253 153.916 179.642 153.782 179.335 151.613C179.146 150.282 179.406 149.786 180.157 150.038C180.76 150.238 181.253 151.019 181.253 151.773ZM147.158 158.539C148.423 161.868 148.177 162.419 145.704 161.797C142.015 160.872 139.695 158.075 142.617 158.075C143.294 158.075 143.849 157.705 143.849 157.253C143.849 155.536 146.392 156.525 147.158 158.539ZM303.332 158.075C303.332 158.989 302.784 159.719 302.098 159.719C300.847 159.719 300.412 157.98 301.413 156.98C302.456 155.937 303.332 156.438 303.332 158.075ZM67.9327 159.391C67.0232 160.64 65.9243 161.29 65.1954 161.01C63.7365 160.45 59.999 161.283 59.999 162.17C59.999 162.514 61.8523 163.042 64.1187 163.343C69.6718 164.079 70.6854 164.552 70.6854 166.41C70.6854 167.28 71.2404 168.205 71.9183 168.465C72.5962 168.725 73.1512 169.454 73.1512 170.083C73.1512 170.844 74.1172 171.229 76.0291 171.229C78.0386 171.229 78.9059 171.601 78.9059 172.462C78.9059 173.14 78.351 173.694 77.673 173.694C75.8818 173.694 76.1621 175.051 78.2557 176.518C79.8774 177.654 79.9838 178.121 79.2471 180.881C78.043 185.393 79.688 201.234 81.3607 201.234C82.0331 201.234 82.7077 201.882 82.8595 202.673C83.0256 203.531 82.6357 204.112 81.8924 204.112C79.4155 204.112 79.5961 205.964 82.3588 208.913C83.9096 210.567 85.6587 213.031 86.2469 214.387C87.2572 216.72 87.3502 216.76 87.9739 215.118C88.8125 212.912 91.2373 211.863 91.2373 213.706C91.2373 214.433 90.6236 215.477 89.8726 216.026C88.602 216.955 88.602 217.157 89.8726 218.971C90.6236 220.042 91.2373 221.907 91.2373 223.115C91.2373 224.366 92.211 226.373 93.4982 227.777C96.293 230.825 97.814 233.32 97.814 234.855C97.814 235.499 98.9649 236.995 100.373 238.179C102.726 240.159 104.181 242.61 108.133 251.244C108.926 252.977 110.628 255.174 111.915 256.125C113.203 257.076 114.255 258.532 114.255 259.358C114.255 261.507 125.835 273.165 127.971 273.165C129.092 273.165 129.864 273.836 130.177 275.079C130.67 277.043 150.792 288.023 153.819 287.981C154.556 287.971 155.618 288.517 156.181 289.195C156.744 289.874 158.226 290.429 159.474 290.429C160.94 290.429 161.881 290.939 162.132 291.867C162.373 292.764 164.576 294.031 167.978 295.229C170.981 296.286 173.645 297.488 173.9 297.9C174.155 298.312 175.671 298.65 177.271 298.65C178.87 298.65 181.345 299.257 182.771 300C187.512 302.469 187.931 302.591 190.177 302.162C191.574 301.894 192.948 302.222 193.85 303.039C195.944 304.934 200.966 306.87 203.786 306.87C205.131 306.87 206.436 307.204 206.688 307.611C207.538 308.986 216.655 309.574 218.583 308.378C220.062 307.462 220.466 307.464 221.045 308.393C221.576 309.249 222.13 309.296 223.432 308.6C225.665 307.404 226.057 307.453 226.057 308.925C226.057 310.534 227.609 310.497 229.435 308.845C230.32 308.043 231.307 307.795 231.965 308.207C232.558 308.58 233.692 308.778 234.483 308.648C235.275 308.518 235.922 308.879 235.922 309.449C235.922 310.257 236.141 310.268 236.908 309.501C237.45 308.958 238.472 308.514 239.176 308.514C239.882 308.514 240.93 307.76 241.506 306.838C242.74 304.861 244.464 305.549 243.88 307.785C243.422 309.538 244.171 309.801 245.588 308.385C246.308 307.665 246.862 307.701 247.87 308.538C248.986 309.464 249.314 309.458 249.906 308.5C250.496 307.545 250.944 307.535 252.631 308.438C254.666 309.527 259.761 307.074 259.761 305.006C259.761 304.603 260.837 304.51 262.149 304.798C263.52 305.099 264.767 304.952 265.075 304.452C266.451 302.227 268.198 303.578 267.724 306.5C267.275 309.264 270.119 310.21 271.119 307.629C271.261 307.261 273.113 307.166 275.234 307.418C278.233 307.772 279.73 307.496 281.97 306.174C283.709 305.148 285.278 304.738 285.929 305.14C287.373 306.033 292.906 304.961 295.445 303.297C296.57 302.559 298.065 302.177 298.767 302.446C299.614 302.772 300.043 302.463 300.043 301.527C300.043 300.578 300.47 300.282 301.347 300.618C302.271 300.973 302.923 300.398 303.582 298.651C304.763 295.524 304.995 295.55 308.559 299.219C310.181 300.89 311.795 301.949 312.146 301.573C312.497 301.198 312.322 300.726 311.757 300.524C310.448 300.056 310.419 296.001 311.716 294.704C313.754 292.667 314.878 293.594 314.65 297.122C314.51 299.277 314.807 300.66 315.457 300.891C316.038 301.095 316.483 300.597 316.482 299.745C316.481 298.917 317.277 296.732 318.252 294.892C320.362 290.909 319.895 287.14 317.291 287.14C315.417 287.14 315.235 286.16 316.678 283.848C317.548 282.456 317.43 282.038 315.856 280.936C314.845 280.228 314.018 278.975 314.018 278.152C314.018 275.665 311.595 274.159 310.345 275.868C308.464 278.441 307.578 277.331 307.037 271.727C306.744 268.674 306.29 265.623 306.028 264.945C305.767 264.267 305.635 262.88 305.735 261.862C306.003 259.12 303.72 259.557 302.509 262.479C301.321 265.347 298.399 265.93 298.399 263.301C298.399 262.397 298.861 261.654 299.427 261.65C301.53 261.637 302.662 257.396 300.893 256.158C300.018 255.544 298.755 254.496 298.087 253.828C297.419 253.16 296.516 252.613 296.081 252.613C295.645 252.613 295.068 251.736 294.799 250.664C294.243 248.445 289.851 247.07 288.062 248.554C287.316 249.173 286.079 249.179 283.888 248.573C281.854 248.012 280.495 247.993 279.969 248.52C279.001 249.487 276.203 249.597 276.203 248.667C276.203 248.306 276.641 247.572 277.176 247.037C278.782 245.431 277.164 244.835 275.438 246.397C274.559 247.192 273.412 247.577 272.888 247.254C272.364 246.931 271.047 247.141 269.96 247.723C267.501 249.039 266.471 248.152 267.865 245.919C269.53 243.253 268.202 243.07 266.144 245.681C264.143 248.221 262.476 253.257 261.673 259.19C261.397 261.225 260.67 263.62 260.056 264.511C259.442 265.403 258.938 267.068 258.936 268.21C258.931 270.438 255.341 275.582 254.425 274.674C254.122 274.374 254.337 273.265 254.902 272.209C256.222 269.742 258.277 260.447 258.326 256.724C258.347 255.141 258.588 253.662 258.862 253.435C260.586 252.012 261.532 246.634 260.278 245.38C259.564 244.664 258.703 244.355 258.367 244.692C258.03 245.029 258.296 245.639 258.957 246.048C259.865 246.609 259.927 247.022 259.21 247.74C258.093 248.857 256.473 248.08 256.473 246.429C256.473 244.917 253.473 243.263 252.776 244.39C252.101 245.483 248.494 245.449 247.812 244.345C247.514 243.862 246.269 243.695 245.017 243.971C243.5 244.304 242.415 244.05 241.706 243.196C239.588 240.644 237.532 242.199 237.592 246.31C237.63 248.876 241.51 253.108 242.717 251.901C244.576 250.042 245.583 251.031 246.145 255.267C246.531 258.183 246.417 259.665 245.79 259.874C245.282 260.044 243.898 261.079 242.716 262.174C240.205 264.502 238.024 263.534 240.205 261.06C241.045 260.106 241.347 258.676 241.079 256.929C240.612 253.894 239.21 253.291 239.21 256.126C239.21 257.153 238.056 259.394 236.645 261.105C234.612 263.572 234.036 265.103 233.869 268.486C233.631 273.314 232.086 277.276 230.444 277.276C229.584 277.276 229.44 276.049 229.796 271.727C230.046 268.674 230.245 265.144 230.239 263.88C230.232 262.612 230.767 261.374 231.431 261.12C232.144 260.846 232.634 259.574 232.634 257.991C232.634 256.525 233.001 254.253 233.452 252.942C233.902 251.631 234.424 249.078 234.611 247.271C234.798 245.462 235.21 243.16 235.526 242.155C236.28 239.76 232.637 237.752 230.602 239.44C229.618 240.256 229.086 240.269 228.152 239.493C227.484 238.939 226.189 238.747 225.214 239.056C224.033 239.431 223.136 239.153 222.438 238.198C221.573 237.016 221.102 236.949 219.544 237.782C218.52 238.33 216.807 238.558 215.737 238.29C213.579 237.748 211.72 240.026 212.55 242.192C213.191 243.859 211.453 249.951 210.113 250.737C208.622 251.612 206.327 256.246 206.327 258.38C206.327 260.447 203.237 268.084 201.633 269.981C201.01 270.717 199.281 275.088 197.789 279.694C195.008 288.279 192.341 292.391 190.65 290.701C190.001 290.052 190.249 288.829 191.545 286.286C192.532 284.353 193.893 280.887 194.57 278.585C195.246 276.282 196.281 273.843 196.868 273.165C197.455 272.487 198.382 269.712 198.929 266.999C199.475 264.287 200.406 261.513 200.998 260.835C201.589 260.156 202.8 257.567 203.686 255.08C206.959 245.906 208.366 242.441 211.082 236.87C211.573 235.86 206.119 233.727 204.247 234.197C202.976 234.516 202.121 234.211 201.583 233.249C200.645 231.574 198.929 232.35 198.929 234.45C198.929 235.257 198.189 236.586 197.285 237.405C196.38 238.224 195.64 239.531 195.64 240.31C195.64 241.088 195.047 242.218 194.321 242.82C193.596 243.422 192.681 244.762 192.286 245.797C191.489 247.896 189.886 248.347 189.886 246.473C189.886 245.021 193.24 238.341 194.165 237.953C194.524 237.803 194.818 237.212 194.818 236.642C194.818 236.071 195.558 234.936 196.463 234.117C198.788 232.011 198.511 230.779 195.435 229.552C193.965 228.966 191.781 227.811 190.581 226.986C189.381 226.16 187.853 225.486 187.188 225.486C186.521 225.486 185.421 224.653 184.742 223.636L183.508 221.786L181.792 223.841C180.848 224.972 180.064 226.728 180.048 227.743C180.033 228.759 178.726 231.024 177.144 232.776C175.561 234.527 174.266 236.338 174.266 236.8C174.266 237.262 173.781 237.827 173.187 238.054C172.593 238.282 171.211 240.357 170.115 242.665C169.02 244.971 167.83 246.86 167.47 246.86C166.248 246.86 165.783 244.181 166.738 242.651C167.262 241.813 167.69 240.613 167.69 239.986C167.69 237.867 171.764 231.536 173.845 230.423C175.405 229.589 175.911 228.659 175.911 226.628C175.911 225.149 176.281 223.71 176.733 223.43C178.09 222.591 177.662 221.375 176.01 221.375C175.069 221.375 174.066 220.411 173.444 218.909C172.362 216.294 171.108 215.82 169.509 217.418C168.757 218.171 168.097 217.983 166.62 216.596C165.568 215.607 164.104 214.798 163.369 214.798C162.634 214.798 161.8 214.423 161.516 213.963C160.78 212.771 159.469 213.799 159.469 215.568C159.469 216.39 158.914 217.523 158.236 218.087C155.946 219.987 156.982 220.727 159.606 219.066L162.209 217.418L164.539 219.14C165.819 220.087 166.867 221.281 166.867 221.791C166.867 222.374 168.213 222.642 170.471 222.509L174.074 222.298L174.118 225.532C174.156 228.273 173.864 228.843 172.206 229.259C169.919 229.834 168.512 229.16 168.512 227.492C168.512 226.841 167.793 226.308 166.916 226.308C166.039 226.308 165.091 225.938 164.812 225.486C164.533 225.033 163.553 224.663 162.633 224.663C161.714 224.663 160.01 223.915 158.848 223.001L156.736 221.34L154.814 223.144C153.757 224.138 152.881 225.532 152.866 226.246C152.852 226.958 152.297 228.258 151.634 229.136C150.969 230.014 150.426 231.592 150.426 232.642C150.426 234.344 148.795 236.722 140.739 246.765C139.512 248.297 138.168 250.146 137.755 250.876C137.341 251.606 136.749 252.387 136.439 252.613C136.128 252.839 135.465 253.804 134.964 254.757C132.651 259.153 126.586 264.341 126.586 261.922C126.586 261.36 132.354 252.551 133.221 251.791C134.56 250.616 140.846 241.475 141.877 239.205C142.53 237.763 145.29 232.329 148.007 227.13C150.724 221.93 152.894 216.936 152.829 216.031C152.577 212.544 152.833 212.139 154.948 212.669C156.632 213.092 157.003 212.885 157.003 211.526C157.003 210.613 156.612 209.866 156.133 209.866C155.06 209.866 147.96 202.754 147.96 201.679C147.96 201.251 148.382 199.973 148.899 198.84C150.031 196.357 147.694 191.717 146.11 193.301C145.491 193.921 145.543 194.549 146.286 195.445C147.128 196.459 147.134 196.96 146.316 197.946C143.917 200.836 142.551 199.013 143.008 193.534C143.366 189.238 128.701 181.893 125.62 184.825C123.82 186.539 120.516 184.865 121.761 182.871C122.505 181.679 122.497 180.4 121.721 177.322C121.018 174.526 120.979 173.235 121.595 173.03C123.52 172.387 122.317 171.229 119.726 171.229C116.865 171.229 114.255 169.205 114.255 166.987C114.255 165.078 110.94 163.753 106.856 164.029C102.233 164.344 101.102 165.041 101.102 167.578C101.102 168.682 100.732 169.585 100.28 169.585C99.8278 169.585 99.4578 170.094 99.4578 170.717C99.4578 172.653 97.1748 174.049 95.8322 172.933C95.1532 172.371 94.4763 172.288 94.1994 172.735C92.4891 175.502 88.4824 174.183 89.9324 171.329C91.9728 167.317 92.2797 165.474 90.9105 165.474C90.2182 165.474 89.2544 164.734 88.7715 163.83C88.1223 162.617 87.05 162.186 84.6872 162.186C82.2048 162.186 81.3651 161.815 80.9608 160.541C80.418 158.83 79.4233 158.541 75.0842 158.833C73.6597 158.928 72.2506 158.613 71.9527 158.131C71.0654 156.695 69.55 157.171 67.9327 159.391ZM237.154 160.541C237.154 161.208 236.508 161.877 235.717 162.029C234.706 162.224 234.278 161.78 234.278 160.541C234.278 159.304 234.706 158.86 235.717 159.055C236.508 159.206 237.154 159.875 237.154 160.541ZM167.69 162.137C167.69 163.015 168.06 163.962 168.512 164.241C168.964 164.52 169.334 164.387 169.334 163.945C169.334 163.504 169.559 162.557 169.833 161.842C170.16 160.989 169.878 160.541 169.011 160.541C168.251 160.541 167.69 161.22 167.69 162.137ZM208.588 161.569C208.071 163.124 205.505 163.346 205.505 161.835C205.505 161.073 206.207 160.541 207.218 160.541C208.222 160.541 208.788 160.967 208.588 161.569ZM150.426 164.241C150.426 164.919 150.796 165.474 151.248 165.474C151.7 165.474 152.07 164.919 152.07 164.241C152.07 163.563 151.7 163.008 151.248 163.008C150.796 163.008 150.426 163.563 150.426 164.241ZM207.525 167.061C208.133 168.045 206.586 169.02 205.492 168.343C204.572 167.775 205.176 166.296 206.327 166.296C206.726 166.296 207.265 166.64 207.525 167.061ZM175.089 168.674C175.089 169.581 177.221 170.465 177.863 169.824C178.121 169.566 178.135 169.036 177.895 168.648C177.318 167.714 175.089 167.735 175.089 168.674ZM113.11 171.707C112.836 172.422 112.611 173.523 112.611 174.152C112.611 175.38 108.192 178.046 107.427 177.279C106.786 176.638 108.631 172.671 110.134 171.46C111.942 170.004 113.708 170.15 113.11 171.707ZM303.332 171.254C303.332 172.239 301.012 173.295 300.337 172.618C299.617 171.898 300.837 170.407 302.147 170.407C302.798 170.407 303.332 170.788 303.332 171.254ZM283.602 176.818C283.602 177.843 281.744 179.449 280.56 179.449C279.194 179.449 279.161 177.254 280.519 176.705C282.146 176.048 283.602 176.103 283.602 176.818ZM107.678 180.222C107.678 181.101 107.308 182.047 106.856 182.327C106.404 182.606 106.034 183.552 106.034 184.431C106.034 185.308 105.48 186.026 104.802 186.026C103.242 186.026 103.256 185.64 104.96 181.781C106.465 178.369 107.678 177.673 107.678 180.222ZM275.381 181.038C275.381 181.924 274.626 182.867 273.674 183.168C271.097 183.987 270.613 182.797 272.8 181.022C275.21 179.069 275.381 179.07 275.381 181.038ZM209.341 181.641C208.395 182.587 208.743 183.56 210.026 183.56C210.705 183.56 211.26 183.005 211.26 182.327C211.26 181.043 210.287 180.695 209.341 181.641ZM306.62 184.793C306.62 185.471 306.065 186.026 305.387 186.026C304.103 186.026 303.756 185.053 304.701 184.107C305.647 183.162 306.62 183.509 306.62 184.793ZM115.532 185.276C116.38 186.646 114.474 188.218 113.34 187.084C112.392 186.136 112.986 184.382 114.255 184.382C114.654 184.382 115.229 184.784 115.532 185.276ZM201.965 184.947C201.426 185.818 203.671 188.957 204.348 188.28C204.624 188.003 204.297 186.985 203.62 186.019C202.942 185.052 202.197 184.569 201.965 184.947ZM131.519 188.436C131.519 189.31 132.258 190.261 133.163 190.548C134.958 191.117 135.463 194.567 133.893 195.537C132.752 196.241 131.548 194.431 131.531 191.985C131.514 189.399 130.395 189.671 126.97 193.095C122.221 197.845 121.903 194.547 126.625 189.52C129.448 186.517 131.519 186.058 131.519 188.436ZM123.298 188.815C123.298 189.445 122.713 190.185 121.997 190.459C120.112 191.183 120.01 191.125 120.01 189.315C120.01 188.218 120.558 187.67 121.654 187.67C122.558 187.67 123.298 188.185 123.298 188.815ZM137.954 190.216C138.547 191.165 138.803 192.169 138.523 192.447C137.76 193.211 135.256 191.384 134.952 189.843C134.572 187.911 136.678 188.173 137.954 190.216ZM208.177 189.099C206.572 189.649 206.972 190.959 208.745 190.959C209.623 190.959 210.569 191.329 210.849 191.781C211.643 193.067 214.548 192.743 214.548 191.37C214.548 190.692 214.452 190.137 214.337 190.137C214.221 190.137 213.019 189.823 211.665 189.441C210.312 189.058 208.742 188.904 208.177 189.099ZM104.391 190.48C104.391 192.262 103.478 194.246 102.658 194.246C102.255 194.246 101.924 193.136 101.924 191.781C101.924 190.137 102.335 189.315 103.158 189.315C103.836 189.315 104.391 189.839 104.391 190.48ZM140.4 196.199C140.24 197.315 139.556 197.946 138.506 197.946C137.456 197.946 136.772 197.315 136.613 196.199C136.413 194.801 136.792 194.452 138.506 194.452C140.22 194.452 140.599 194.801 140.4 196.199ZM102.746 197.094C102.746 197.757 103.486 198.695 104.391 199.179C105.295 199.663 106.034 200.6 106.034 201.263C106.034 203.06 104.302 202.717 103.807 200.823C102.999 197.738 102.118 199.173 101.404 204.728C100.764 209.705 100.514 210.253 98.9671 210.042C98.0189 209.911 96.7716 210.374 96.1944 211.069C95.6184 211.763 94.822 212.332 94.4243 212.332C93.2146 212.332 93.6178 210.479 95.2185 208.686C96.0515 207.752 97.7985 204.492 99.1012 201.44C101.36 196.144 102.746 194.491 102.746 197.094ZM120.505 201.196C119.282 202.799 118.495 204.112 118.756 204.112C119.016 204.112 118.656 205.221 117.955 206.578C116.607 209.183 114.255 209.933 114.255 207.756C114.255 205.697 115.849 203.289 117.213 203.289C117.987 203.289 118.37 202.693 118.212 201.734C117.881 199.733 120.816 196.369 121.925 197.478C122.449 198.001 121.954 199.298 120.505 201.196ZM108.5 203.701C108.5 204.379 108.152 204.934 107.727 204.934C106.69 204.934 105.948 203.65 106.605 202.993C107.531 202.067 108.5 202.429 108.5 203.701ZM90.2669 205.131C89.9346 207.458 87.1265 208.193 87.1265 205.953C87.1265 204.091 87.8033 203.289 89.3763 203.289C90.1008 203.289 90.432 203.973 90.2669 205.131ZM145.493 206.118C145.493 206.769 145.101 207.546 144.622 207.842C144.141 208.139 143.402 209.293 142.979 210.406C142.556 211.519 141.87 212.222 141.456 211.966C141.041 211.71 140.532 211.965 140.323 212.533C140.027 213.342 139.715 213.349 138.889 212.571C138.036 211.768 138.255 210.939 140.031 208.255C142.214 204.956 145.493 203.673 145.493 206.118ZM128.042 208.068C128.22 208.604 127.765 209.274 127.031 209.556C125.315 210.214 124.765 209.641 125.435 207.894C126.01 206.393 127.517 206.494 128.042 208.068ZM149.702 211.715C149.755 212.28 149.704 213.113 149.588 213.565C149.472 214.017 149.437 215.542 149.509 216.953C149.635 219.388 147.116 222.197 144.808 222.197C143.754 222.197 143.033 214.68 143.926 213.012C144.566 211.815 145.397 211.452 148.987 210.8C149.327 210.738 149.648 211.151 149.702 211.715ZM130.937 213.359C133.091 214.361 133.577 216.114 131.655 215.949C131.128 215.904 129.956 215.812 129.052 215.743C127.998 215.665 127.408 215.031 127.408 213.976C127.408 212.058 127.936 211.966 130.937 213.359ZM112.611 214.695C112.611 217.305 111.4 220.553 110.428 220.553C108.589 220.553 108.201 218.256 109.662 216.026C110.981 214.014 112.611 213.278 112.611 214.695ZM141.843 217.344C142.712 218.75 139.971 221.114 138.814 219.956C138.299 219.441 138.099 218.439 138.372 217.731C138.94 216.248 141.022 216.016 141.843 217.344ZM117.544 222.918C117.544 223.955 115.13 225.813 114.545 225.227C113.703 224.385 114.96 222.197 116.284 222.197C116.977 222.197 117.544 222.521 117.544 222.918ZM105.627 225.491C106.311 226.599 102.945 231.239 101.457 231.239C99.8943 231.239 99.9574 230.894 102.13 227.54C104.072 224.541 104.783 224.124 105.627 225.491ZM99.2695 228.106C98.7611 229.63 96.992 229.882 96.992 228.431C96.992 227.716 97.5769 227.13 98.2936 227.13C99.0092 227.13 99.449 227.568 99.2695 228.106ZM111.789 230.969C111.789 233.412 109.712 236.172 107.874 236.172C107.064 236.172 106.868 235.711 107.264 234.733C107.584 233.942 108.215 232.277 108.665 231.034C109.727 228.101 111.789 228.059 111.789 230.969ZM125.751 231.034C125.735 234.173 124.601 235.668 122.631 235.153C121.473 234.85 120.852 235.186 120.568 236.267C120.345 237.119 119.547 237.816 118.793 237.816C116.647 237.816 117.659 235.102 120.273 233.849C121.538 233.243 122.981 231.853 123.478 230.761C124.686 228.112 125.767 228.243 125.751 231.034ZM191.961 231.177C191.663 232.117 190.889 232.884 190.242 232.884C188.551 232.884 188.784 229.778 190.502 229.396C192.426 228.969 192.596 229.176 191.961 231.177ZM305.596 229.802C305.41 230.366 304.38 230.957 303.306 231.113C301.603 231.361 301.493 231.232 302.444 230.085C303.732 228.534 306.084 228.322 305.596 229.802ZM288.534 233.343C288.534 233.995 287.98 234.528 287.301 234.528C286.063 234.528 285.611 232.792 286.594 231.81C287.361 231.043 288.534 231.97 288.534 233.343ZM166.867 234.796C166.867 235.396 165.952 236.745 164.834 237.796C162.25 240.223 160.776 237.993 163.196 235.319C164.868 233.473 166.867 233.187 166.867 234.796ZM189.064 236.893C189.064 237.743 188.509 238.897 187.83 239.461C187.152 240.024 186.597 240.993 186.597 241.617C186.597 242.239 186.042 242.749 185.364 242.749C183.786 242.749 183.793 240.853 185.385 237.775C186.788 235.064 189.064 234.518 189.064 236.893ZM125.39 240.296C127.493 241.096 127.531 241.215 126.264 242.968C125.535 243.978 123.641 246.759 122.055 249.149C119.313 253.28 117.207 255.018 116.185 253.996C115.929 253.74 116.5 252.435 117.454 251.096C118.407 249.756 119.188 248.079 119.188 247.368C119.188 246.657 120.132 245.456 121.285 244.701C122.751 243.74 123.122 243.067 122.518 242.462C120.173 240.117 121.763 238.917 125.39 240.296ZM203.039 241.597C203.039 242.32 202.523 244.077 201.894 245.502C201.264 246.926 200.536 248.739 200.276 249.53C200.015 250.322 199.235 250.969 198.543 250.969C196.962 250.969 196.947 250.086 198.491 248.044C199.156 247.166 199.709 245.308 199.724 243.913C199.738 242.52 199.997 241.132 200.299 240.83C201.328 239.801 203.039 240.28 203.039 241.597ZM198.107 243.881C198.107 245.408 195.929 247.169 195.3 246.151C194.57 244.971 195.655 242.749 196.961 242.749C197.591 242.749 198.107 243.258 198.107 243.881ZM134.807 245.924C134.807 246.314 133.79 247.943 132.546 249.545C131.303 251.147 129.655 253.601 128.885 255.002C128.115 256.401 127.097 257.546 126.624 257.546C124.905 257.546 125.823 254.325 128.23 251.918C129.587 250.562 130.696 248.714 130.696 247.813C130.696 246.219 131.679 245.413 133.779 245.28C134.345 245.245 134.807 245.534 134.807 245.924ZM145.956 249.941C145.662 251.185 144.694 253.127 143.806 254.258C142.919 255.388 141.291 258.255 140.189 260.629C138.978 263.239 137.658 264.945 136.852 264.945C135.195 264.945 135.79 262.526 138.47 258.368C139.489 256.786 141.318 253.733 142.532 251.586C144.992 247.238 146.806 246.368 145.956 249.941ZM218.081 248.2C218.367 248.486 218.209 249.451 217.731 250.343C217.143 251.442 217.132 252.238 217.696 252.802C218.604 253.711 218.066 255.903 216.663 257.007C216.128 257.427 216.338 257.523 217.193 257.248C219.28 256.58 219.809 258.154 218.282 260.486C216.768 262.798 215.303 262.501 215.953 260.014C216.365 258.437 216.267 258.42 213.437 259.603C209.448 261.27 208.633 261.157 208.942 258.985C209.113 257.786 209.728 257.178 210.69 257.257C211.508 257.324 213.134 256.491 214.304 255.407C215.941 253.89 216.12 253.435 215.079 253.435C213.519 253.435 213.411 252.726 214.528 249.79C215.285 247.796 216.937 247.057 218.081 248.2ZM190.708 249.669C190.708 250.794 186.376 258.368 185.732 258.368C184.543 258.368 184.804 255.591 186.161 253.799C186.824 252.921 187.379 251.555 187.394 250.764C187.415 249.565 190.708 248.477 190.708 249.669ZM226.057 251.435C226.057 252.142 225.674 253.437 225.206 254.311C224.316 255.974 224.904 256.293 227.222 255.403C227.993 255.107 228.523 253.936 228.523 252.526C228.523 250.696 228.902 250.147 230.167 250.147C232.76 250.147 231.41 258.639 228.535 260.416C228.076 260.7 227.701 261.813 227.701 262.892C227.701 263.97 227.014 265.335 226.174 265.926C225.335 266.516 224.385 267.832 224.064 268.849C223.324 271.192 221.102 271.375 221.711 269.042C221.95 268.13 222.47 267.184 222.868 266.939C224.451 265.96 223.618 264.003 221.855 264.562C220.173 265.096 220.141 264.959 220.763 259.891C221.117 257.019 221.412 253.929 221.42 253.024C221.428 252.12 221.827 251.109 222.307 250.777C223.84 249.715 226.057 250.104 226.057 251.435ZM285.246 252.202C285.246 253.71 284.807 254.258 283.602 254.258C281.998 254.258 281.279 251.922 282.505 250.696C283.754 249.447 285.246 250.268 285.246 252.202ZM153.715 252.458C153.715 254.058 150.874 257.546 149.572 257.546C148.247 257.546 148.687 255.422 150.486 253.135C152.471 250.612 153.715 250.351 153.715 252.458ZM328.815 257.869C328.815 258.946 330.485 260.012 332.171 260.012C333.448 260.012 333.006 257.752 331.626 257.223C329.6 256.446 328.815 256.625 328.815 257.869ZM254.622 258.491C255.334 259.201 255.268 260.014 254.355 261.779C252.865 264.659 250.342 265.047 251.14 262.273C251.432 261.256 251.852 259.776 252.072 258.985C252.539 257.313 253.299 257.166 254.622 258.491ZM162.35 259.195C162.631 259.651 162.097 261.097 161.162 262.409C160.227 263.722 159.678 265.356 159.94 266.04C160.235 266.808 159.73 267.653 158.622 268.246C156.189 269.548 155.061 268.302 156.13 265.49C156.663 264.088 156.674 263.301 156.161 263.301C155.72 263.301 155.359 262.521 155.359 261.567C155.359 260.149 155.717 259.924 157.328 260.329C158.661 260.663 159.45 260.426 159.769 259.595C160.309 258.185 161.602 257.986 162.35 259.195ZM147.96 260.386C147.96 261.045 147.127 262.849 146.11 264.395C145.093 265.942 143.842 267.9 143.33 268.747C141.548 271.696 141.354 269.261 143.054 265.294C145.471 259.654 147.96 257.165 147.96 260.386ZM213.233 263.168C214.203 264.737 210.799 271.929 208.96 272.196C206.949 272.486 206.834 270.932 208.628 267.671C209.171 266.683 209.615 265.111 209.615 264.177C209.615 262.464 212.33 261.708 213.233 263.168ZM182.487 264.534C182.487 265.212 181.944 265.767 181.28 265.767C180.544 265.767 180.258 265.285 180.546 264.534C180.806 263.856 181.349 263.301 181.753 263.301C182.156 263.301 182.487 263.856 182.487 264.534ZM136.451 267.054C136.451 269.083 134.865 271.521 133.545 271.521C131.929 271.521 132.018 269.131 133.701 267.27C135.37 265.426 136.451 265.341 136.451 267.054ZM152.917 269.01C151.935 270.844 150.426 271.285 150.426 269.737C150.426 268.371 153.203 265.467 153.541 266.48C153.695 266.942 153.415 268.081 152.917 269.01ZM251.541 268.142C251.541 268.996 250.814 270.569 249.924 271.635L248.307 273.576L248.281 271.069C248.254 268.68 249.469 266.588 250.884 266.588C251.245 266.588 251.541 267.287 251.541 268.142ZM297.577 267.311C297.577 268.346 295.163 270.204 294.579 269.618C293.737 268.777 294.993 266.588 296.318 266.588C297.01 266.588 297.577 266.913 297.577 267.311ZM221.124 274.729C221.124 275.59 219.096 280.307 216.617 285.211C214.137 290.116 212.103 294.469 212.095 294.886C212.057 296.998 207.971 299.707 207.971 297.619C207.971 296.62 213.699 284.707 215.38 282.208C215.836 281.53 216.963 279.218 217.883 277.07C219.603 273.059 221.124 271.96 221.124 274.729ZM209.615 275.272C209.615 277.322 206.728 283.853 205.821 283.853C204.504 283.853 204.362 282.267 205.438 279.576C205.853 278.537 206.397 277.039 206.645 276.248C207.049 274.964 209.615 274.12 209.615 275.272ZM248.253 275.906C248.253 276.508 247.975 277.275 247.636 277.608C247.297 277.942 246.442 279.919 245.735 282.004C244.482 285.696 242.316 288.055 241.202 286.94C240.689 286.428 241.562 284.38 245.23 277.481C246.681 274.754 248.253 273.934 248.253 275.906ZM265.927 277.332C265.927 277.967 265.28 278.611 264.489 278.764C263.071 279.036 262.486 277.291 263.615 276.163C264.477 275.301 265.927 276.035 265.927 277.332ZM253.18 283.261C251.338 287.425 250.171 288.566 248.98 287.374C248.179 286.573 248.966 284.66 251.883 280.317C254.228 276.825 255.125 278.863 253.18 283.261ZM236.743 280.381C236.743 281.448 234.237 284.675 233.409 284.675C232.301 284.675 232.45 281.899 233.62 280.729C234.725 279.623 236.743 279.398 236.743 280.381ZM230.167 282.208C230.167 283.304 229.62 283.853 228.523 283.853C226.939 283.853 226.295 282.244 227.427 281.112C228.558 279.98 230.167 280.624 230.167 282.208ZM223.445 284.401C223.045 286.464 221.124 286.746 221.124 284.743C221.124 283.733 221.655 283.031 222.418 283.031C223.184 283.031 223.602 283.59 223.445 284.401ZM273.736 285.907C273.736 286.585 273.181 287.14 272.504 287.14C271.826 287.14 271.271 286.585 271.271 285.907C271.271 285.23 271.826 284.675 272.504 284.675C273.181 284.675 273.736 285.23 273.736 285.907ZM205.938 286.355C206.55 287.343 204.22 291.251 203.019 291.251C201.969 291.251 201.994 289.093 203.068 287.086C204.01 285.327 205.127 285.042 205.938 286.355ZM272.093 288.428C272.093 289.498 270.33 292.073 269.598 292.073C268.488 292.073 268.608 290.132 269.791 288.949C270.822 287.918 272.093 287.63 272.093 288.428ZM257.305 291.637C256.262 294.382 254.554 297.006 253.809 297.006C252.651 297.006 253.18 294.146 254.845 291.416C256.709 288.358 258.491 288.517 257.305 291.637ZM239.207 293.512C239.203 295.712 236.111 300.294 234.632 300.294C233.91 300.294 233.441 300.008 233.592 299.659C236.597 292.702 239.215 289.836 239.207 293.512ZM203.039 294.041C203.039 294.67 202.484 295.399 201.805 295.659C200.967 295.98 200.572 295.615 200.572 294.514C200.572 293.623 201.127 292.895 201.805 292.895C202.484 292.895 203.039 293.41 203.039 294.041ZM245.786 295.197C245.786 296.721 244.317 298.65 243.156 298.65C242.363 298.65 242.272 295.04 243.046 294.265C244.129 293.183 245.786 293.746 245.786 295.197ZM259.761 296.527C259.761 297.84 258.574 299.472 257.619 299.472C256.438 299.472 256.051 297.702 257.022 296.731C257.62 296.133 259.761 295.974 259.761 296.527ZM267.834 299.612C267.502 301.872 265.516 302.631 265.516 300.5C265.516 298.793 266.181 297.828 267.355 297.828C267.762 297.828 267.978 298.631 267.834 299.612Z" fill="#FF0000"/>
</svg>
