<svg width="400" height="400" viewBox="0 0 400 400" fill="none" xmlns="http://www.w3.org/2000/svg">
<path fill-rule="evenodd" clip-rule="evenodd" d="M304.62 133.323C290.855 135.786 280.056 147.601 279.178 161.161C278.549 170.87 278.801 170.388 272.074 174.775C268.755 176.94 265.491 179.029 264.821 179.418C264.151 179.807 259.169 183.129 253.748 186.8C248.327 190.472 241.245 195.129 238.009 197.15L232.127 200.822L200.983 201.031C183.854 201.146 165.807 201.55 160.877 201.929C155.947 202.308 147.207 202.618 141.453 202.618C135.699 202.618 129.299 202.924 127.231 203.299C125.162 203.675 119.322 204.293 114.252 204.671C97.3751 205.933 58.3599 211.748 50.9049 214.113C45.7542 215.748 63.586 220.208 79.5228 221.271C127.733 224.486 185.842 225.446 220.294 223.598L228.533 223.156L233.591 218.744C236.374 216.318 241.114 211.15 244.126 207.261C253.013 195.785 263.509 186.711 272.267 182.933C273.79 182.276 275.6 181.439 276.289 181.072C287.024 175.367 305.563 179.153 305.856 187.111C305.885 187.905 308.32 190.852 308.947 190.852C309.99 190.852 312.017 187.624 312.038 185.928C312.085 182.287 318.085 177.703 322.806 177.703C323.703 177.703 324.615 177.415 324.832 177.064C325.05 176.713 326.227 176.205 327.45 175.937C345.576 171.955 345.667 144.796 327.582 136.308C325.707 135.427 323.602 134.396 322.904 134.016C321.266 133.125 308.444 132.638 304.62 133.323ZM316.944 141.733C332.613 149.728 329.094 168.488 311.024 173.304C292.431 178.258 278.241 161.588 289.908 148.497C296.998 140.543 308.814 137.586 316.944 141.733ZM65.6815 166.935C57.2044 168.566 53.974 170.802 58.2414 172.085C59.479 172.457 65.3178 174.677 71.2182 177.018C77.1186 179.36 82.7243 181.538 83.6756 181.859C84.6268 182.18 86.9629 183.039 88.8663 183.767C90.7697 184.496 97.4656 187.041 103.746 189.424C110.026 191.808 116.255 194.236 117.588 194.82C127.402 199.126 129.027 199.47 135.354 198.586C140.186 197.91 174.456 196.944 188.29 197.093C195.273 197.168 195.698 196.122 189.41 194.335C186.639 193.548 180.947 191.943 176.761 190.768C172.573 189.593 168.057 188.238 166.725 187.755C163.865 186.72 158.491 185.079 154.614 184.055C153.091 183.654 150.289 182.828 148.385 182.222C146.482 181.616 144.146 180.967 143.194 180.781C142.243 180.595 140.842 180.171 140.08 179.839C139.319 179.507 136.049 178.602 132.813 177.828C129.578 177.055 124.439 175.744 121.394 174.915C114.555 173.054 113.127 172.699 99.5937 169.498C85.5062 166.167 74.1409 165.308 65.6815 166.935ZM211.708 205.813C217.86 211.371 214.191 220.612 205.832 220.612C199.058 220.612 194.638 212.638 198.612 207.586C202.558 202.568 207.393 201.914 211.708 205.813ZM278.149 214.174C272.866 215.215 270.802 215.671 264.654 217.154C254.636 219.57 252.605 220.032 249.429 220.609C247.525 220.955 245.291 221.438 244.465 221.683C243.364 222.01 242.547 221.654 241.422 220.359L239.882 218.589L234.723 223.407C229.887 227.923 229.364 228.224 226.381 228.224C222.08 228.224 223.359 229.16 229.704 230.655C232.559 231.327 235.673 232.249 236.625 232.704C239.663 234.155 244.225 233.44 251.487 230.375C260.726 226.474 264.394 227.814 267.391 236.183C272.374 250.099 277.004 253.41 300.988 260.214C304.985 261.347 309.812 262.745 311.716 263.322C313.619 263.898 316.499 264.737 318.115 265.188C319.731 265.638 321.428 266.382 321.886 266.839C323.943 268.896 327.72 266.592 326.234 264.188C325.299 262.675 327.944 260.258 332.246 258.696C339.261 256.148 348.031 248.818 348.045 245.492C348.048 244.902 348.375 244.094 348.773 243.696C350.351 242.117 350.428 233.375 348.885 230.882C344.089 223.132 331.367 217.796 311.253 215.098C308.715 214.758 305.445 214.148 303.986 213.743C300.22 212.697 284.299 212.963 278.149 214.174ZM296.671 220.568C298.094 220.952 301.749 221.874 304.795 222.617C307.84 223.359 313.061 224.769 316.397 225.749C319.734 226.73 323.473 227.532 324.704 227.532C339.567 227.532 347.866 238.116 339.928 246.946C324.72 263.86 279.25 254.743 271.814 233.288C268.52 223.781 282.355 216.7 296.671 220.568Z" fill="#0000FF"/>
</svg>
