<svg width="400" height="400" viewBox="0 0 400 400" fill="none" xmlns="http://www.w3.org/2000/svg">
<path style="fill:#0000FF;" d="M240.446,269.615l-0.368-11.331c1.085,0.799,2.175,1.592,3.267,2.383
	c1.147,4.322,0.816,8.646,1.277,12.969L240.446,269.615z M223.405,245.756l1.526,8.883l1.152,0.862
	c0.062-3.152-0.924-5.932-1.5-8.858C224.192,246.349,223.797,246.052,223.405,245.756z M250.665,110.089
	c-0.431,3.389-1.395,6.608-2.712,9.328c-0.086,8.491,21.436,91.762,21.941,132.452l2.334-9.237l7.706,7.113l-3.01,12.789
	c14.107,13.519,30.819,28.237,51.912,44.109c4.625,3.427-5.703,17.232-10.296,13.763c-19.872-14.917-39.321-26.923-57.655-37.248
	l-10.327,7.057l-8.785-5.673l6.558-4.184l3.143,2.957l0.068-2.107l-1.733-1.793l0.718-0.458c-0.298,0.087-0.608,0.172-0.911,0.258
	l-2.51-2.597l-1.178-14.1c2.003,1.427,4.02,2.846,6.079,4.246c4.346,2.294,9.269,5.919,13.038,6.883l1.077-1.439
	c-18.638-9.891-58.646-41.365-94.898-67.626l-55.719-41.683l-1.288,1.732l105.795,78.575l3.428,13.73l14.772,13.901
	c-26.221-13.848-49.184-25.009-66.405-37.737c1.086-9.033-5.653-18.493-21.834-28.464l-22.453-4.218l-1.464-1.045l-0.408,0.545
	c-22.617,36.383-7.668,68.033-13.22,90.088c28.678-2.427,85.182-9.773,126.802-18.21l8.449,7.951
	c-39.904,10.623-123.549,13.443-131.555,15.888c-2.259,2.052-5.108,3.899-8.274,5.273c-12.105,19.994-33.266,9.101-31.43,3.247
	c4.352-0.652,7.73-1.749,10.32-3.246c-0.216-0.113-0.436-0.203-0.649-0.325c-2.617-5.812,0.038-9.441,7.81-10.129
	c3.779-21.423-23.36-63.869,7.192-107.559l0.656-0.877l-0.586-0.418l-1.014-5.251c-9.982-3.873-17.946-5.638-23.892-5.295
	c-3.649-1.529-4.778-4.023-3.822-6.902c3.374-7.247,7.271-13.582,11.349-19.659c-5.485-7.303-10.803-14.915-13.786-20.35
	c6.049,1.326,14.924,4.048,23.602,6.963c4.229-4.85,8.882-9.51,14.128-14.129c2.492-1.731,5.85-2.215,8.347,0.853
	c1.35,5.802,6.369,11.503,12.903,19.985l5.324-0.51l0.567,0.444l0.275-0.368c33.496-41.906,82.352-27.871,101.57-37.79
	c-1.548-7.672,1.183-11.253,7.506-10.382c0.088,0.085,0.161,0.179,0.247,0.266c0.565-2.739,0.608-6.022,0.035-9.999
	C249.556,76.09,265.733,92.985,250.665,110.089z M99.525,152.068c-0.2,2.469,3.189,9.644,1.743,13.877
	c-1.866-2.05-3.755-4.199-5.656-6.451c-2.358-2.793-4.566-5.543-6.631-8.232c-0.052,0.095-0.104,0.191-0.156,0.286
	c-1.59,2.808-3.038,5.666-4.377,8.56c-0.51,1.125-0.221,1.94,0.866,2.445c6.405,1.048,12.046,3.576,17.493,7.502
	c0.85,0.547,1.999,0.808,2.588-0.116c1.595-2.725,3.288-5.416,5.051-8.043C107.204,158.376,103.654,155.157,99.525,152.068z
	 M241.098,243.834l8.986-2.708l-1.583-1.184l-8.52,1.484l-2.7-0.989L241.098,243.834z M236.166,239.021l7.729-1.627l-1.332-1.221
	l-9.383,1.738l3.455,2.585L236.166,239.021z M247.216,248.861l9.667-4.219l-1.583-1.184l-9.201,2.995l-2.7-0.989L247.216,248.861z
	 M261.022,247.513l-10.676,3.465l2.447,1.831l9.811-4.112L261.022,247.513z M124.31,145.065c0.411-0.775,0.555-1.494-0.53-2.703
	c-4.01-4.648-7.734-9.679-11.17-15.095c-0.867-1.227-1.774-1.379-2.516-1.068c-3.057,2.462-5.821,5.042-8.351,7.715
	c8.118,2.87,15.115,5.556,18.096,6.906c-3.653,2.581-11.816,1.788-14.128,2.678c4.129,3.09,7.958,6.213,12.229,8.384
	C119.993,149.442,122.112,147.138,124.31,145.065z M241.566,117.743c-19.504,11.919-54.418,6.165-83.161,38.387l-0.026,0.035
	l1.416,1.109l10.385,20.348c14.135,12.708,23.601,16.719,31.96,13.128c20.131,14.228,36.031,32.636,57.827,54.949
	C256.402,203.373,247.403,146.355,241.566,117.743z M231.626,260.996c0.821-2.362,0.054-6.277-0.547-9.442
	c-1.497-1.131-3.005-2.271-4.523-3.419l0.967,9.342L231.626,260.996z M238.069,266.49c1.409-3.063-0.197-6.434-0.02-9.711
	c-1.493-1.109-2.988-2.226-4.484-3.352l0.904,10.37L238.069,266.49z"/>
</svg>
