<svg width="400" height="400" viewBox="0 0 400 400" fill="none" xmlns="http://www.w3.org/2000/svg">
<path fill-rule="evenodd" clip-rule="evenodd" d="M244.735 79.4224C244.053 80.3965 243.756 81.5746 244.077 82.0392C245.839 84.6037 244.639 86.8499 240.477 88.7703L236.316 90.6908V95.2195V99.7482L232.551 100.312C230.48 100.623 228.518 101.287 228.191 101.789C227.764 102.446 227.374 102.368 226.804 101.514C226.191 100.593 225.867 100.547 225.371 101.313C225.02 101.857 222.434 102.488 219.625 102.715C216.816 102.943 212.021 103.332 208.97 103.579C205.918 103.827 202.886 104.029 202.232 104.027C201.579 104.026 200.508 104.23 199.854 104.482C199.2 104.733 197.773 105.042 196.684 105.167C195.594 105.292 193.417 105.537 191.848 105.711C190.278 105.886 188.647 106.243 188.223 106.506C187.426 106.998 179.507 108.542 174.291 109.22C172.657 109.433 171.319 109.985 171.319 110.448C171.319 110.911 171.093 111.065 170.819 110.789C170.543 110.513 169.572 110.811 168.66 111.45C167.749 112.088 166.399 112.611 165.66 112.611C164.922 112.611 164.199 112.878 164.053 113.205C163.63 114.155 157.36 117.366 155.927 117.366C155.211 117.366 154.419 117.899 154.169 118.551C153.919 119.202 153.443 119.568 153.111 119.363C152.779 119.157 151.836 119.741 151.014 120.658C150.193 121.577 148.184 123.178 146.549 124.217C144.914 125.255 143.576 126.636 143.576 127.285C143.576 127.933 143.206 128.464 142.754 128.464C141.706 128.464 134.857 135.476 134.857 136.549C134.857 137.007 134.024 137.145 132.924 136.87C131.861 136.603 130.77 136.743 130.499 137.179C129.745 138.399 126.931 138.125 126.931 136.831C126.931 136.202 126.306 135.222 125.543 134.651C123.215 132.913 117.521 124.963 114.769 119.606C111.344 112.942 108.736 113.58 98.4952 123.585C91.1894 130.722 88.9945 131.401 83.8741 128.109C82.9235 127.498 80.5416 126.901 78.5796 126.783C76.6175 126.665 74.4354 126.225 73.7304 125.805C70.7964 124.06 68.6121 127.102 71.0495 129.539C71.7032 130.193 72.2383 131.049 72.2383 131.439C72.2383 131.83 73.1302 132.988 74.2196 134.012C75.3101 135.036 76.2009 136.279 76.2009 136.775C76.2009 137.271 76.8386 138.368 77.6161 139.213C81.4944 143.424 82.5059 147.487 79.6754 147.487C79.073 147.487 78.5796 147.97 78.5796 148.56C78.5796 149.151 77.7155 150.566 76.6591 151.705C75.6028 152.845 74.5048 154.591 74.2175 155.586C73.9312 156.581 72.7991 159.285 71.7021 161.594C70.4503 164.228 69.881 166.487 70.1748 167.655C70.7772 170.055 75.3742 173.075 76.7222 171.955C77.9387 170.946 84.7499 171.886 86.8807 173.358C87.7406 173.952 89.3555 174.436 90.4695 174.436C91.5825 174.436 93.2679 174.979 94.2121 175.64C95.1574 176.302 96.3964 176.748 96.9646 176.631C97.5339 176.514 98.0038 177.018 98.0092 177.75C98.0145 178.482 98.2826 179.344 98.6041 179.666C99.606 180.668 99.2439 183.709 97.9996 184.741C97.3448 185.284 96.8097 186.15 96.8097 186.666C96.8097 187.182 95.8933 188.832 94.7739 190.334C92.4263 193.48 90.4695 197.785 90.4695 199.801C90.4695 200.566 89.9793 201.599 89.3801 202.097C88.7819 202.593 88.0482 204.834 87.7512 207.076C87.4532 209.318 86.6949 211.889 86.0658 212.787C85.3053 213.872 84.9208 216.496 84.9208 220.586C84.9208 224.168 84.5886 226.751 84.1283 226.751C82.9726 226.751 83.1553 231.314 84.3259 231.708C85.1013 231.968 85.0757 232.494 84.2063 234.125C83.4351 235.573 83.3432 236.52 83.9051 237.227C84.3504 237.787 84.8973 241.333 85.1216 245.107C85.3459 248.881 85.8351 252.448 86.21 253.033C86.5849 253.619 86.9427 254.811 87.0068 255.683C87.2322 258.803 88.234 265.217 88.6783 266.384C88.9272 267.038 89.2038 268.643 89.2946 269.95C89.3854 271.259 89.8362 273.259 90.2976 274.396C91.5099 277.381 92.045 292.515 90.9438 292.642C90.4642 292.697 89.2701 292.828 88.2896 292.93C84.9326 293.282 82.273 296.876 82.8231 300.315C83.3379 303.539 80.1721 306.017 75.5387 306.017C71.2653 306.017 77.4901 313.866 82.1459 314.348C82.5817 314.393 83.5633 314.715 84.3259 315.063C85.0885 315.413 86.3371 315.425 87.1008 315.093C87.8634 314.761 89.6888 314.383 91.1563 314.255C92.6239 314.125 94.4353 313.469 95.1819 312.792C95.9285 312.117 96.9443 311.564 97.4399 311.564C98.8241 311.564 103.886 306.843 105.175 304.348C105.981 302.79 107.155 301.968 109.098 301.604C110.664 301.311 111.871 300.611 111.871 299.998C111.871 299.401 112.851 298.678 114.05 298.391C115.249 298.105 116.703 297.497 117.281 297.04C118.039 296.442 118.537 296.528 119.064 297.348C119.569 298.132 119.982 298.216 120.391 297.62C121.276 296.33 126.054 295.61 127.741 296.514C128.719 297.037 129.377 297.035 129.704 296.506C129.974 296.069 132.114 295.712 134.461 295.712C136.808 295.712 138.958 295.338 139.241 294.881C139.598 294.301 140.059 294.302 140.759 294.884C141.312 295.342 142.796 295.534 144.058 295.309C150.686 294.13 158.355 293.455 180.828 292.069C185.195 291.8 188.596 291.219 188.928 290.686C189.361 289.993 189.883 290.004 191.055 290.729C191.908 291.259 192.722 291.403 192.862 291.05C193.255 290.06 198.971 289.376 199.514 290.254C199.822 290.751 200.328 290.759 200.915 290.275C201.422 289.858 204.154 289.272 206.987 288.972C213.975 288.234 215.119 288.062 216.5 287.541C218.119 286.931 224.235 286.203 227.479 286.234C228.94 286.248 230.571 285.899 231.104 285.457C231.637 285.015 233.67 284.461 235.623 284.228C237.576 283.993 240.365 283.46 241.821 283.042C243.277 282.624 244.749 282.457 245.093 282.669C247.706 284.284 246.032 280.502 242.592 277.019C239.973 274.368 238.169 273.084 237.831 273.631C237.531 274.117 236.949 274.306 236.539 274.052C236.129 273.799 234.061 274.113 231.943 274.75C229.826 275.387 227.447 275.703 226.656 275.452C225.866 275.201 225.219 275.377 225.219 275.842C225.219 276.308 224.145 276.688 222.833 276.688C221.52 276.688 217.329 277.375 213.519 278.213C209.709 279.052 202.311 280.174 197.08 280.707C191.848 281.24 187.212 281.948 186.776 282.28C186.339 282.614 182.683 283.142 178.651 283.455C174.618 283.769 171.319 284.33 171.319 284.702C171.319 285.073 169.688 285.282 167.695 285.165C165.7 285.049 163.896 285.234 163.684 285.577C163.472 285.919 161.774 286.2 159.91 286.2C158.048 286.2 156.295 286.428 156.016 286.707C155.737 286.985 154.162 287.31 152.515 287.429C150.869 287.547 148.094 287.829 146.351 288.054C142.975 288.491 137.809 288.961 126.931 289.82C123.225 290.113 119.747 290.71 119.202 291.147C118.53 291.687 117.852 291.644 117.093 291.014C116.329 290.38 115.812 290.349 115.461 290.917C114.709 292.135 112.216 291.931 111.078 290.559C110.396 289.738 110.366 289.37 110.981 289.37C111.602 289.37 111.871 285.537 111.871 276.688C111.871 268.762 111.573 264.005 111.078 264.005C110.641 264.005 110.285 263.471 110.285 262.817C110.285 262.163 110.641 261.628 111.078 261.628C111.514 261.628 111.871 261.093 111.871 260.439C111.871 259.785 111.514 259.25 111.078 259.25C109.968 259.25 110.086 255.802 111.236 254.653C111.977 253.913 111.977 253.702 111.236 253.702C109.971 253.702 110.002 248.77 111.276 247.42C112.068 246.58 112.068 246.296 111.276 246.006C110.162 245.598 109.929 241.74 110.949 240.583C111.314 240.169 112.072 235.917 112.631 231.134C113.582 223.009 114.412 219.982 117.124 214.74C117.722 213.582 118.212 211.877 118.212 210.95C118.212 210.022 118.746 209.059 119.401 208.808C120.055 208.557 120.59 207.82 120.59 207.171C120.59 203.525 123.839 201.19 128.037 201.821C130.262 202.156 132.885 202.411 133.866 202.388C134.848 202.366 135.65 202.694 135.65 203.117C135.65 203.54 137.062 203.784 138.787 203.659C140.512 203.535 142.177 203.686 142.486 203.995C142.795 204.305 144.193 204.558 145.593 204.558C146.993 204.558 148.582 205.093 149.125 205.746C149.667 206.4 150.472 206.935 150.913 206.935C151.353 206.935 152.289 207.587 152.995 208.382C153.7 209.178 155.436 210.336 156.853 210.954C158.27 211.572 159.43 212.35 159.43 212.683C159.43 213.015 160.32 214.063 161.411 215.01C162.5 215.957 163.392 217.197 163.392 217.764C163.392 218.331 164.284 219.019 165.374 219.292C166.464 219.565 167.356 220.3 167.356 220.924C167.356 221.548 168.101 223.522 169.015 225.31C169.927 227.099 170.696 230.1 170.725 231.982C170.77 234.949 171.055 235.5 172.879 236.136C174.036 236.538 175.51 237.357 176.156 237.954C177.62 239.305 179.841 240.74 182.416 242C183.505 242.533 184.576 243.154 184.794 243.381C185.823 244.452 190.326 247.318 193.15 248.698C196.784 250.474 200.078 252.331 200.647 252.927C201.951 254.292 205.567 256.072 206.217 255.669C206.641 255.407 206.987 255.528 206.987 255.938C206.987 256.347 210.726 258.531 215.295 260.79C219.863 263.049 223.783 265.193 224.006 265.553C224.229 265.913 225.355 266.445 226.509 266.734C227.662 267.024 229.751 268.134 231.149 269.201C234.059 271.421 237.189 271.957 235.524 269.95C234.98 269.297 234.253 268.762 233.906 268.762C230.48 268.762 220.935 254.994 220.1 248.849C219.582 245.033 217.607 242.609 213.126 240.291C211.929 239.672 210.951 238.698 210.951 238.126C210.951 237.554 210.086 236.868 209.027 236.604C207.97 236.338 206.488 235.439 205.735 234.606C204.98 233.774 203.964 233.093 203.474 233.093C202.985 233.093 201.659 232.037 200.527 230.747C199.394 229.457 198.303 228.567 198.1 228.77C197.897 228.973 197.083 228.424 196.292 227.549C195.5 226.675 194.404 225.959 193.856 225.959C193.309 225.959 192.019 224.958 190.99 223.735C189.191 221.597 186.633 220.021 185.389 220.284C185.062 220.354 184.794 219.9 184.794 219.275C184.794 218.65 183.991 217.885 183.01 217.576C182.029 217.266 180.76 216.35 180.191 215.541C179.622 214.731 178.649 214.069 178.029 214.069C177.411 214.069 176.308 213.16 175.579 212.048C174.848 210.931 173.775 210.21 173.183 210.437C172.594 210.664 172.111 210.564 172.111 210.215C172.111 209.867 170.417 208.373 168.346 206.896C166.276 205.417 163.868 203.546 162.996 202.737C162.124 201.927 160.429 200.68 159.231 199.966C158.033 199.251 157.051 198.387 157.051 198.046C157.051 197.704 156.699 197.424 156.268 197.424C155.837 197.424 154.856 196.911 154.088 196.284C147.158 190.625 143.581 187.908 143.036 187.886C141.972 187.842 138.821 184.952 138.821 184.019C138.821 183.545 138.286 183.156 137.631 183.156C136.977 183.156 135.808 182.532 135.031 181.769C134.255 181.006 132.73 179.918 131.64 179.352C130.552 178.785 127.887 176.744 125.72 174.815C123.553 172.887 121.335 171.299 120.795 171.288C120.253 171.276 119.365 170.553 118.82 169.681C118.276 168.809 117.443 168.096 116.97 168.096C116.048 168.096 112.663 164.785 112.663 163.884C112.663 163.073 114.181 163.227 115.273 164.149C119.492 167.71 121.079 168.887 121.664 168.888C122.038 168.888 123.047 169.784 123.908 170.878C124.768 171.971 125.801 172.664 126.201 172.416C126.603 172.168 126.931 172.343 126.931 172.804C126.931 173.267 127.303 173.644 127.757 173.644C128.678 173.644 129.11 173.955 133.765 177.964C135.561 179.512 137.255 180.778 137.53 180.778C137.803 180.778 138.652 181.319 139.415 181.98C143.848 185.824 146.661 187.911 147.406 187.911C147.872 187.911 148.538 188.37 148.888 188.928C149.236 189.487 151.84 191.648 154.673 193.728C157.507 195.809 160.361 197.943 161.015 198.47C163.573 200.531 167.779 203.366 168.28 203.368C168.57 203.368 169.504 204.171 170.354 205.152C171.205 206.133 172.165 206.935 172.486 206.935C173.073 206.935 176.958 209.87 179.312 212.092C180.002 212.743 180.894 213.279 181.293 213.281C181.693 213.283 183.33 214.442 184.932 215.857C186.535 217.271 189.157 219.321 190.76 220.41C192.363 221.501 195.068 223.69 196.769 225.276C198.472 226.863 201.021 228.715 202.435 229.392C203.849 230.069 205.627 231.356 206.386 232.254C207.144 233.151 208.273 233.885 208.896 233.885C209.518 233.885 210.146 234.201 210.291 234.587C210.65 235.543 217.918 241.019 218.827 241.019C219.228 241.019 220.219 241.863 221.03 242.894C221.841 243.925 223.294 245.019 224.258 245.326C225.222 245.631 226.011 246.354 226.011 246.932C226.011 247.509 226.956 248.218 228.112 248.508C229.268 248.799 230.902 249.911 231.743 250.98C232.584 252.049 233.545 252.755 233.88 252.548C234.214 252.342 235.501 253.23 236.739 254.522C237.977 255.814 239.441 256.872 239.991 256.872C240.543 256.872 241.278 257.359 241.627 257.954C241.975 258.549 243.42 259.627 244.836 260.351C246.254 261.076 247.412 262.017 247.412 262.441C247.412 262.866 248.123 263.213 248.991 263.213C249.859 263.213 251.015 263.926 251.56 264.799C252.105 265.671 252.972 266.384 253.488 266.384C254.003 266.384 255.522 267.307 256.864 268.436C258.206 269.565 259.302 270.28 259.302 270.026C259.302 269.773 260.223 270.365 261.348 271.343C262.473 272.322 263.78 273.122 264.254 273.122C264.727 273.122 265.281 273.617 265.482 274.224C265.87 275.385 261.755 274.833 260.896 273.609C260.674 273.292 258.886 272.232 256.925 271.252C251.455 268.522 249.897 267.553 247.78 265.564L245.827 263.73V267.672C245.827 269.841 246.256 272.044 246.779 272.566C247.461 273.249 247.487 273.76 246.872 274.375C245.83 275.418 247.268 279.859 248.648 279.859C249.79 279.859 251.532 283.633 250.643 284.182C250.273 284.41 249.547 284.087 249.027 283.462C248.265 282.542 247.682 282.504 245.965 283.263C241.16 285.387 240.705 288.024 244.982 288.962C246.319 289.256 247.412 289.813 247.412 290.198C247.412 293.489 253.431 291.331 259.109 286.006L260.898 284.328L263.117 286.453C264.336 287.622 265.935 288.578 266.671 288.578C267.406 288.578 268.454 289.291 268.999 290.163C269.542 291.036 270.572 291.748 271.285 291.748C272 291.748 273.027 292.283 273.57 292.938C274.113 293.591 275.171 294.127 275.922 294.127C276.673 294.127 277.96 294.869 278.781 295.777C279.604 296.685 281.353 297.94 282.669 298.566C286.176 300.232 289.75 302.355 290.294 303.095C290.556 303.451 291.626 304.19 292.673 304.738C296.034 306.499 298.326 307.963 300.037 309.443C304.194 313.036 308.666 316.32 309.402 316.32C309.846 316.32 311.863 317.695 313.885 319.375C320.029 324.48 324.312 323.902 328.313 317.428C331.264 312.654 330.403 309.276 325.245 305.392C316.024 298.447 309.598 293.261 308.319 291.735C307.596 290.87 306.778 290.163 306.502 290.163C305.823 290.163 304.087 288.687 301.142 285.605C299.788 284.189 298.239 283.029 297.698 283.029C297.158 283.029 294.923 281.067 292.732 278.67C290.54 276.272 288.454 274.303 288.094 274.292C286.009 274.237 276.622 263.375 277.418 261.941C277.878 261.115 278.579 258.345 278.979 255.785L279.704 251.132L276.52 248.255C273.231 245.284 271.423 244.589 271.812 246.444C271.934 247.029 271.577 247.359 271.018 247.175C270.46 246.992 269.885 245.622 269.74 244.131C269.596 242.641 269.132 241.006 268.711 240.499C268.211 239.895 268.245 239.389 268.808 239.041C269.283 238.748 269.47 237.871 269.223 237.094C268.976 236.316 268.733 234.295 268.683 232.602C268.633 230.911 268.375 229.17 268.109 228.733C267.843 228.297 267.203 224.731 266.688 220.806C266.172 216.883 265.381 211.532 264.928 208.917C264.475 206.301 263.908 202.582 263.667 200.652C263.424 198.723 262.813 196.644 262.307 196.034C261.599 195.181 261.637 194.77 262.473 194.253C263.316 193.731 263.352 193.33 262.627 192.457C262.114 191.839 261.92 191.107 262.197 190.831C262.473 190.554 262.332 189.874 261.882 189.318C261.432 188.763 260.806 185.99 260.491 183.156C260.176 180.323 259.592 177.599 259.193 177.106C258.795 176.611 258.282 174.309 258.056 171.989C257.828 169.67 257.351 167.399 256.996 166.943C256.641 166.487 256.105 164.153 255.806 161.755C255.506 159.357 255.103 156.503 254.908 155.414C254.715 154.323 254.325 151.559 254.044 149.27C253.762 146.981 253.275 145.109 252.961 145.109C252.647 145.109 252.183 143.091 251.927 140.626C251.673 138.16 251.043 135.882 250.526 135.562C250.01 135.243 249.827 134.594 250.121 134.118C250.415 133.643 250.11 131.419 249.444 129.176C248.777 126.933 248.436 124.769 248.683 124.368C248.931 123.966 248.768 123.196 248.318 122.655C247.87 122.114 247.607 121.149 247.734 120.51C247.952 119.421 248.21 118.651 249.524 115.186C249.814 114.424 250.081 113.562 250.119 113.271C250.156 112.981 250.454 112.476 250.781 112.149C251.108 111.821 251.376 110.9 251.376 110.1C251.376 109.301 252 108.015 252.764 107.243C254.505 105.481 256.132 100.944 256.132 97.8512C256.132 96.5524 256.545 95.0763 257.05 94.5722C257.684 93.9367 257.716 93.3396 257.153 92.6304C256.706 92.0665 255.912 89.8224 255.39 87.6424C254.621 84.4339 253.77 83.1511 250.922 80.9049C246.423 77.3557 246.217 77.3065 244.735 79.4224ZM242.246 122.32C242.569 124.609 242.965 127.865 243.127 129.554C243.29 131.245 243.829 133.117 244.326 133.716C245.005 134.536 244.985 135.099 244.242 135.994C243.591 136.778 243.55 137.183 244.121 137.183C244.596 137.183 244.78 137.718 244.529 138.371C244.278 139.025 244.468 139.56 244.951 139.56C245.446 139.56 245.848 141.023 245.874 142.929C245.901 144.782 246.234 147.903 246.617 149.865C249.061 162.402 249.679 166.094 249.385 166.387C249.203 166.57 249.387 167.341 249.794 168.102C250.201 168.862 250.718 171.223 250.944 173.348C251.169 175.472 251.594 179.352 251.889 181.968C252.183 184.583 252.404 187.526 252.38 188.506C252.356 189.487 252.634 190.29 253 190.29C253.365 190.29 253.527 190.996 253.361 191.858C253.195 192.721 253.395 193.634 253.805 193.888C254.263 194.172 254.234 194.942 253.728 195.887C253.275 196.732 253.224 197.424 253.612 197.424C254 197.424 254.593 200.366 254.929 203.963C255.88 214.162 255.916 214.465 256.132 214.465C256.343 214.465 256.427 215.129 257.244 223.185C257.51 225.801 257.95 229.546 258.225 231.508C259.307 239.268 259.445 244.983 258.551 244.983C258.062 244.983 255.566 242.754 253.004 240.028C243.399 229.815 222.829 209.314 222.187 209.314C221.821 209.314 220.374 207.887 218.972 206.143C217.571 204.399 216.072 202.973 215.639 202.973C215.206 202.973 213.49 201.634 211.826 200C204.787 193.089 202.915 192.033 197.678 192.033C191.226 192.033 186.678 191.209 185.535 189.832C185.021 189.211 184.159 188.705 183.622 188.705C182.669 188.705 175.679 183.732 174.093 181.927C173.658 181.43 172.231 180.289 170.922 179.389C168.589 177.785 168.016 176.874 163.828 168.096C162.684 165.698 160.869 162.164 159.796 160.243C158.723 158.321 157.844 156.442 157.844 156.066C157.844 154.806 167.722 145.771 170.363 144.615C171.798 143.987 173.179 142.936 173.431 142.281C173.88 141.111 178.076 138.444 179.641 138.334C181.324 138.215 184.001 137.046 184.001 136.428C184.001 136.073 184.803 135.521 185.785 135.202C186.765 134.883 187.747 134.558 187.965 134.481C188.183 134.404 190.1 133.554 192.226 132.592C194.353 131.628 196.737 130.841 197.525 130.841C198.313 130.841 199.963 130.457 201.19 129.987C202.417 129.517 204.842 128.958 206.577 128.746C208.313 128.533 209.918 128.081 210.144 127.741C210.37 127.4 212.324 126.885 214.486 126.597C216.648 126.307 218.771 125.717 219.202 125.285C219.634 124.854 220.79 124.5 221.773 124.5C222.756 124.5 224.378 124.176 225.38 123.78C226.381 123.384 229.697 122.275 232.749 121.314C235.8 120.354 238.636 119.251 239.05 118.864C240.719 117.302 241.686 118.35 242.246 122.32ZM114.957 133.447C117.96 137.497 120.991 141.285 121.693 141.867C123.571 143.427 123.265 144.304 119.321 148.676L115.746 152.639L113.806 150.414C112.74 149.189 111.497 148.417 111.044 148.697C110.592 148.976 109.502 148.291 108.623 147.172C107.743 146.054 106.598 145.222 106.079 145.322C105.558 145.423 105.133 144.97 105.133 144.316C105.133 143.419 106.057 143.139 108.898 143.178C110.968 143.204 112.663 142.937 112.663 142.583C112.663 142.228 113.734 141.939 115.041 141.939C118.233 141.939 118.043 140.894 114.606 139.545C113.06 138.939 111.41 137.98 110.943 137.416C110.474 136.851 109.286 136.39 108.303 136.39C106.227 136.39 100.773 134.252 100.773 133.437C100.773 132.435 107.421 126.085 108.47 126.085C109.034 126.085 111.953 129.398 114.957 133.447ZM90.3905 155.975C91.3058 156.938 92.0546 157.942 92.0546 158.208C92.0546 158.473 93.3032 159.868 94.8284 161.308C96.3547 162.746 97.6033 164.327 97.6033 164.82C97.6033 165.314 98.1373 165.718 98.7921 165.718C100.032 165.718 100.475 162.513 99.3859 161.425C99.0591 161.098 98.7355 160.058 98.6671 159.113C98.5988 158.168 98.2901 156.593 97.9803 155.611C97.5563 154.266 97.7325 153.828 98.6992 153.828C99.4041 153.828 99.9809 154.184 99.9809 154.621C99.9809 155.057 100.426 155.414 100.972 155.414C104.678 155.417 108.876 163.115 106.52 165.589C105.757 166.391 104.74 167.728 104.26 168.562C103.04 170.678 100.661 170.83 98.6116 168.92C97.6578 168.03 96.3269 167.303 95.654 167.303C94.9822 167.303 94.4321 167.004 94.4321 166.637C94.4321 166.271 92.9165 165.495 91.0634 164.914C89.2102 164.332 87.3561 163.562 86.9416 163.202C86.5272 162.842 85.3683 162.548 84.3654 162.548C82.1886 162.548 81.7892 159.404 83.7577 157.77C84.4263 157.215 84.8289 156.369 84.6516 155.889C84.4743 155.41 85.0735 154.2 85.9825 153.202C87.5077 151.526 87.6775 151.495 88.1806 152.804C88.4807 153.585 89.4751 155.012 90.3905 155.975ZM242.657 238.245C242.657 238.905 241.952 239.434 241.071 239.434C240.2 239.434 239.485 239.701 239.483 240.028C239.481 240.356 238.232 240.687 236.708 240.765C234.77 240.864 233.937 240.566 233.937 239.774C233.937 239.151 234.651 238.597 235.524 238.542C238.1 238.381 238.531 238.275 239.156 237.65C240.206 236.6 242.657 237.017 242.657 238.245ZM248.205 241.715C248.205 243.498 244.536 245.218 241.528 244.845C238.313 244.447 239.016 243.076 242.814 242.336C244.69 241.971 246.562 241.347 246.977 240.95C248.042 239.927 248.205 240.03 248.205 241.715ZM255.153 245.938C254.639 247.48 248.074 250.596 246.435 250.076C244.447 249.445 245.083 247.826 247.452 247.48C248.496 247.328 250.063 246.704 250.935 246.094C252.879 244.732 255.588 244.632 255.153 245.938ZM223.634 249.903C223.634 254.402 224.518 256.7 226.091 256.288C227.269 255.98 227.596 256.319 227.596 257.846C227.596 259.629 229.707 262.42 231.055 262.42C231.859 262.42 230.714 254.296 229.737 253.064C227.777 250.593 225.927 250.314 226.494 252.575C226.883 254.121 226.751 254.608 226.011 254.362C225.453 254.176 224.863 252.817 224.702 251.343C224.345 248.081 223.634 247.122 223.634 249.903ZM262.473 250.169C262.473 250.842 262.027 251.32 261.482 251.23C260.938 251.139 258.765 251.839 256.655 252.783C252.992 254.421 251.376 254.455 251.376 252.892C251.376 251.856 257.732 249.091 260.294 249.013C261.759 248.968 262.473 249.347 262.473 250.169ZM233.586 260.218C233.981 265.598 235.712 268.605 237.135 266.384C238.762 263.847 236.231 255.287 233.854 255.287C233.507 255.287 233.386 257.506 233.586 260.218ZM239.974 264.6C240.175 268.69 240.373 269.636 241.717 272.908C242.316 274.365 243.003 274.92 243.82 274.606C245.087 274.12 245.51 272.725 244.391 272.725C244.036 272.725 243.671 271.03 243.579 268.96C243.385 264.573 242.074 260.835 240.732 260.835C240.111 260.835 239.854 262.12 239.974 264.6Z" fill="#0000FF"/>
</svg>
