<svg width="400" height="400" viewBox="0 0 400 400" fill="none" xmlns="http://www.w3.org/2000/svg">
<path fill-rule="evenodd" clip-rule="evenodd" d="M200.197 71.4092C199.487 73.6444 193.77 76.875 183.833 80.6581C179.86 82.1706 175.39 83.8984 173.901 84.4995C172.41 85.0994 170.844 85.5107 170.419 85.4133C169.995 85.3148 169.182 85.608 168.612 86.0631C165.151 88.8374 126.77 95.7282 109.077 96.7539C103.719 97.0642 99.0904 97.714 98.791 98.1983C98.2021 99.1522 98.0853 100.154 96.6531 116.453C96.1299 122.413 95.3159 127.994 94.8425 128.857C93.762 130.83 93.7012 166.569 94.7793 166.569C95.2161 166.569 95.8464 170.937 96.1798 176.277C97.7677 201.718 110.244 241.501 120.179 252.806C121.051 253.799 122.388 255.847 123.15 257.356C130.091 271.109 175.083 316.418 187.352 322.008C188.645 322.597 189.703 323.444 189.703 323.891C189.703 324.337 190.11 324.452 190.606 324.144C191.102 323.837 191.509 323.984 191.509 324.472C191.509 324.96 192.959 325.837 194.732 326.423C196.505 327.008 198.175 328.054 198.441 328.75C198.997 330.2 203.247 330.49 203.247 329.079C203.247 328.564 204.98 327.401 207.099 326.493C209.216 325.586 211.501 324.178 212.175 323.365C212.85 322.552 213.782 321.886 214.247 321.886C223.429 321.886 274.025 268.184 285.559 246.197C287.56 242.382 289.926 238.043 290.818 236.552C293.619 231.872 298.951 214.877 301.724 201.787C303.812 191.931 305.232 181.924 304.73 180.613C304.428 179.83 304.736 178.521 305.412 177.705C306.83 175.996 307.219 122.413 305.838 119.161C305.416 118.168 304.959 116.34 304.822 115.098C302.733 96.1638 303.501 97.5327 294.838 97.2808C290.901 97.1664 284.022 96.4753 279.552 95.7464C275.082 95.0175 268.173 93.9614 264.201 93.398C255.796 92.2067 239.106 88.4152 236.773 87.1655C235.888 86.6922 234.181 86.141 232.977 85.9414C231.774 85.7407 229.977 85.2515 228.984 84.8536C227.99 84.4569 223.52 82.7315 219.05 81.0207C208.391 76.9407 202.297 73.5872 201.467 71.3435C200.8 69.5414 200.789 69.5414 200.197 71.4092ZM211.042 95.2366C219.838 98.9941 229.583 102.052 241.174 104.691C244.898 105.539 248.759 106.592 249.752 107.03C250.746 107.468 253.184 108.043 255.171 108.309C257.158 108.574 264.937 109.686 272.458 110.78L286.132 112.768L286.69 116.868C286.996 119.122 287.437 121.983 287.668 123.225C288.523 127.804 288.28 171.893 287.373 176.603C286.859 179.279 286.174 184.618 285.852 188.467L285.267 195.466L277.443 195.555C273.139 195.604 256.209 195.78 239.82 195.945C223.43 196.109 208.09 196.272 205.731 196.307L201.442 196.369V252.753C201.442 313.801 201.616 311.937 196.333 307.741C194.561 306.333 192.445 304.775 191.632 304.278C190.819 303.782 189.83 302.867 189.432 302.246C189.035 301.626 188.279 301.117 187.754 301.117C186.676 301.117 186.951 301.353 171.868 287.505C165.784 281.919 160.799 277.109 160.791 276.816C160.783 276.524 158.861 274.252 156.521 271.77C151.314 266.246 143.65 257.127 143.65 256.458C143.65 256.188 142.909 255.226 142.003 254.321C139.379 251.697 130.3 235.996 127.757 229.683C126.478 226.508 125.061 223.524 124.607 223.052C124.154 222.581 123.78 221.565 123.778 220.795C123.774 220.026 123.209 218.315 122.519 216.993C119.578 211.356 116.593 195.466 118.475 195.465C119.16 195.463 137.803 195.361 159.904 195.238L200.087 195.014L200.222 174.245C200.298 162.821 200.399 139.559 200.449 122.548C200.513 100.236 200.822 91.6202 201.558 91.6202C202.118 91.6202 206.387 93.2471 211.042 95.2366Z" fill="#0000FF"/>
</svg>
