<svg width="400" height="400" viewBox="0 0 400 400" fill="none" xmlns="http://www.w3.org/2000/svg">
<path fill-rule="evenodd" clip-rule="evenodd" d="M215.457 94.837C215.197 95.2572 215.98 96.5475 217.197 97.7029C221.805 102.076 221.572 96.7102 221.572 198.079C221.572 296.52 221.704 292.584 218.264 296.749C215.789 299.746 217.252 300.12 232.194 300.306C247.85 300.502 248.201 300.382 244.609 296.072C241.005 291.746 241.044 292.626 240.99 214.394C240.937 136.039 240.822 138.962 244.285 129.989C255.304 101.445 299.09 99.3526 301.967 127.233C302.751 134.817 296.298 147.565 291.677 147.565C291.013 147.565 289.928 148.023 289.265 148.581C287.826 149.792 280.994 151.387 277.247 151.387C275.117 151.387 274.628 151.658 274.822 152.731C275.077 154.131 291.924 170.492 293.111 170.492C294.454 170.492 293.722 169.179 289.586 164.165C284.235 157.679 284.265 157.501 290.683 157.501C293.598 157.501 296.951 157.104 298.134 156.619C299.317 156.135 300.955 155.611 301.773 155.454C302.592 155.299 303.823 154.664 304.508 154.044C305.194 153.423 306.126 152.915 306.579 152.915C307.032 152.915 308.9 151.25 310.73 149.215C325.802 132.451 319.83 109.118 297.675 98.2023C294.698 96.7359 292.261 95.2057 292.261 94.8031C292.261 93.7795 216.09 93.8124 215.457 94.837ZM268.952 112.651C258.027 116.173 249.446 126.118 245.937 139.325C244.514 144.686 244.825 146.231 247.018 144.684C249.423 142.988 254.098 140.799 256.389 140.296C262.427 138.97 266.066 132.318 263.342 127.585C262.435 126.008 261.693 124.385 261.693 123.976C261.693 122.363 269.523 114.761 272.042 113.93C273.495 113.45 274.684 112.784 274.684 112.448C274.684 111.635 271.787 111.737 268.952 112.651ZM356.797 174.573C356.759 186.537 355.439 195.178 353.284 197.583C352.926 197.983 352.634 198.904 352.634 199.631C352.634 201.767 346.833 209.878 343.293 212.693C334.16 219.953 319.207 221.914 306.017 217.582C302.444 216.409 298.979 214.962 298.314 214.368C297.651 213.773 296.759 213.287 296.334 213.287C295.498 213.287 284.454 202.75 281.774 199.396C278.599 195.421 270.02 179.222 269.335 175.905C268.702 172.846 267.042 173.037 267.042 176.167C267.042 178.959 269.376 190.114 271.321 196.618C271.91 198.589 272.392 201.017 272.392 202.013C272.392 203.009 272.896 204.492 273.513 205.309C274.131 206.124 274.646 207.389 274.659 208.118C274.754 213.27 289.567 233.157 293.31 233.157C293.591 233.157 295.219 234.04 296.928 235.12C306.922 241.428 328.767 243.486 338.353 239.023C361.428 228.279 371.022 199.125 361.128 169.82C357.586 159.327 356.843 160.142 356.797 174.573Z" fill="#FFEE00"/>
<path fill-rule="evenodd" clip-rule="evenodd" d="M136.915 95.0482C136.709 95.5857 133.613 97.4764 130.034 99.2497C107.707 110.314 103.487 138.613 122.164 152.025C126.664 155.258 131.123 156.724 138.082 157.262C141.339 157.513 144.004 158.064 144.004 158.486C144.004 159.194 139.906 164.547 137.594 166.859C129.79 174.662 136.674 170.842 145.209 162.633C149.236 158.759 153.02 155.316 153.617 154.979C155.522 153.907 154.992 151.133 152.984 151.663C147.977 152.986 137.12 148.407 132.359 142.962C117.237 125.677 136.45 101.781 160.362 108.135C169.862 110.658 180.14 118.594 183.37 125.897C189.238 139.164 188.998 135.119 188.733 216.455C188.485 292.565 188.548 291.303 184.774 296.277C181.615 300.439 181.734 300.48 196.667 300.334C213.008 300.174 213.077 300.15 210.396 295.268C207.339 289.709 207.404 291.779 207.367 197.911C207.328 101.255 207.222 103.644 211.783 98.5968C213.243 96.9801 214.217 95.3005 213.947 94.8639C213.165 93.5973 137.402 93.7785 136.915 95.0482ZM155.934 112.276C155.675 112.695 156.96 113.762 158.789 114.648C165.504 117.899 168.666 123.251 166.27 127.31C163.093 132.696 166.171 138.23 173.536 140.37C175.736 141.01 178.785 142.381 180.31 143.415C185.467 146.915 185.503 142.03 180.405 130.753C176.97 123.158 167.675 114.378 161.581 112.975C160.531 112.733 158.936 112.306 158.038 112.025C157.139 111.745 156.193 111.857 155.934 112.276ZM70.5311 163.865C64.957 171.548 62.9839 202.956 67.482 212.38C73.8161 225.651 76.2814 229.186 82.3694 233.736C92.3695 241.208 112.256 244.215 121.174 239.603C122.341 239 123.914 238.49 124.67 238.469C125.427 238.45 127.249 237.788 128.72 236.999C130.192 236.21 132.777 234.879 134.465 234.04C140.746 230.923 146.637 224.511 151.425 215.581C153.704 211.33 156.996 203.205 156.996 201.832C156.996 201.271 157.485 199.063 158.081 196.924C162.768 180.14 163.494 167.93 159.21 177.943C152.295 194.109 138.002 213.23 132.796 213.279C132.306 213.284 131.79 213.621 131.65 214.028C131.055 215.759 118.381 219.541 111.795 219.954C85.5452 221.601 70.5929 202.74 72.4321 170.301C72.914 161.799 72.6576 160.933 70.5311 163.865Z" fill="#FFEE00"/>
</svg>
