<svg width="400" height="400" viewBox="0 0 400 400" fill="none" xmlns="http://www.w3.org/2000/svg">
<path style="fill:#FFEE00;" d="M200.457,97.65c-0.26,0.42,0.523,1.711,1.74,2.866
	c4.608,4.373,4.375-0.993,4.375,100.376c0,98.441,0.132,94.505-3.308,98.67c-2.475,2.997-1.012,3.371,13.93,3.557
	c15.656,0.196,16.007,0.076,12.415-4.234c-3.604-4.326-3.565-3.446-3.619-81.678c-0.053-78.355-0.168-75.432,3.295-84.405
	c11.019-28.544,54.805-30.636,57.682-2.756c0.784,7.584-5.669,20.332-10.29,20.332c-0.664,0-1.749,0.458-2.412,1.016
	c-1.439,1.211-8.271,2.806-12.018,2.806c-2.13,0-2.619,0.271-2.425,1.344c0.255,1.4,17.102,17.761,18.289,17.761
	c1.343,0,0.611-1.313-3.525-6.327c-5.351-6.486-5.321-6.664,1.097-6.664c2.915,0,6.268-0.397,7.451-0.882
	c1.183-0.484,2.821-1.008,3.639-1.165c0.819-0.155,2.05-0.79,2.735-1.41c0.686-0.621,1.618-1.129,2.071-1.129s2.321-1.665,4.151-3.7
	c15.072-16.764,9.1-40.097-13.055-51.013c-2.977-1.466-5.414-2.997-5.414-3.399C277.261,96.593,201.09,96.625,200.457,97.65z
	 M253.952,115.464c-10.925,3.522-19.506,13.467-23.015,26.674c-1.423,5.361-1.112,6.906,1.081,5.359
	c2.405-1.696,7.08-3.885,9.371-4.388c6.038-1.326,9.677-7.978,6.953-12.711c-0.907-1.577-1.649-3.2-1.649-3.609
	c0-1.613,7.83-9.215,10.349-10.046c1.453-0.48,2.642-1.146,2.642-1.482C259.684,114.448,256.787,114.55,253.952,115.464z
	 M341.797,177.386c-0.038,11.964-1.358,20.605-3.513,23.01c-0.358,0.4-0.65,1.321-0.65,2.048c0,2.136-5.801,10.247-9.341,13.062
	c-9.133,7.26-24.086,9.221-37.276,4.889c-3.573-1.173-7.038-2.62-7.703-3.214c-0.663-0.595-1.555-1.081-1.98-1.081
	c-0.836,0-11.88-10.537-14.56-13.891c-3.175-3.975-11.754-20.174-12.439-23.491c-0.633-3.059-2.293-2.868-2.293,0.262
	c0,2.792,2.334,13.947,4.279,20.451c0.589,1.971,1.071,4.399,1.071,5.395s0.504,2.479,1.121,3.296
	c0.618,0.815,1.133,2.08,1.146,2.809c0.095,5.152,14.908,25.039,18.651,25.039c0.281,0,1.909,0.883,3.618,1.963
	c9.994,6.308,31.839,8.366,41.425,3.903c23.075-10.744,32.669-39.898,22.775-69.203C342.586,162.14,341.843,162.955,341.797,177.386
	z M121.915,97.861c-0.206,0.537-3.302,2.428-6.881,4.201c-22.327,11.064-26.547,39.363-7.87,52.775
	c4.5,3.233,8.959,4.699,15.918,5.237c3.257,0.251,5.922,0.802,5.922,1.224c0,0.708-4.098,6.061-6.41,8.373
	c-7.804,7.803-0.92,3.983,7.615-4.226c4.027-3.874,7.811-7.317,8.408-7.654c1.905-1.072,1.375-3.846-0.633-3.316
	c-5.007,1.323-15.864-3.256-20.625-8.701c-15.122-17.285,4.091-41.181,28.003-34.827c9.5,2.523,19.778,10.459,23.008,17.762
	c5.868,13.267,5.628,9.222,5.363,90.558c-0.248,76.11-0.185,74.848-3.959,79.822c-3.159,4.162-3.04,4.203,11.893,4.057
	c16.341-0.16,16.41-0.184,13.729-5.066c-3.057-5.559-2.992-3.489-3.029-97.357c-0.039-96.656-0.145-94.267,4.416-99.314
	c1.46-1.617,2.434-3.296,2.164-3.733C198.165,96.41,122.402,96.592,121.915,97.861z M140.934,115.089
	c-0.259,0.419,1.026,1.486,2.855,2.372c6.715,3.251,9.877,8.603,7.481,12.662c-3.177,5.386-0.099,10.92,7.266,13.06
	c2.2,0.64,5.249,2.011,6.774,3.045c5.157,3.5,5.193-1.385,0.095-12.662c-3.435-7.595-12.73-16.375-18.824-17.778
	c-1.05-0.242-2.645-0.669-3.543-0.95C142.139,114.558,141.193,114.67,140.934,115.089z M55.531,166.678
	c-5.574,7.683-7.547,39.091-3.049,48.515c6.334,13.271,8.799,16.806,14.887,21.356c10,7.472,29.887,10.479,38.805,5.867
	c1.167-0.603,2.74-1.113,3.496-1.134c0.757-0.019,2.579-0.681,4.05-1.47c1.472-0.789,4.057-2.12,5.745-2.959
	c6.281-3.117,12.172-9.529,16.96-18.459c2.279-4.251,5.571-12.376,5.571-13.749c0-0.561,0.489-2.769,1.085-4.908
	c4.687-16.784,5.413-28.994,1.129-18.981c-6.915,16.166-21.208,35.287-26.414,35.336c-0.49,0.005-1.006,0.342-1.146,0.749
	c-0.595,1.731-13.269,5.513-19.855,5.926c-26.25,1.647-41.202-17.214-39.363-49.653C57.914,164.612,57.658,163.746,55.531,166.678z"
	/>
</svg>
