<svg width="400" height="400" viewBox="0 0 400 400" fill="none" xmlns="http://www.w3.org/2000/svg">
<path style="fill:#0000FF;" d="M347.594,188.385c1.771-2.398,2.572-5.84,2.378-10.231c-0.128-2.966-0.598-5.874-1.674-10.374
	c-0.173-0.722-0.602-2.345-0.951-3.629l-0.027-0.099c-0.086-0.317-0.184-0.676-0.226-0.85c-0.095-0.358-0.207-0.548-0.527-0.888
	c-0.217-0.226-0.244-0.28-0.312-0.513c-0.428-1.467-0.562-1.894-0.879-2.901c-0.758-2.376-1.791-5.102-2.835-7.477
	c-0.518-1.173-0.706-1.584-1.324-2.891c-1.309-2.756-2.547-5.115-5.096-9.709l-0.484-0.869l-0.684-0.346
	c-0.746-0.376-1.267-0.576-3.101-1.185c-2.088-0.691-2.993-1.095-3.872-1.73l-0.592-0.428l-0.774,0.082
	c-0.697,0.078-2.816,0.08-3.78,0.004c-0.876-0.068-11.554-0.099-14.108-0.04c-2.894,0.061-4.529,0.216-6.569,0.631
	c-1.145,0.234-1.416,0.29-1.516,0.876c-0.016,0.096-0.098,0.191-0.137,0.205c-0.079,0.018-0.453,0.053-0.924,0.07
	c-1.637,0.063-3.612,0.369-5.281,0.82c-1.574,0.427-2.706,0.805-5.769,1.928c-3.605,1.321-4.424,1.567-7.295,2.195
	c-0.934,0.201-1.946,0.428-2.254,0.501c-1.299,0.312-2.425,0.591-2.806,0.701c-0.233,0.062-0.499,0.136-0.578,0.16
	c-0.939,0.245-3.498,1.194-4.28,1.587c-0.273,0.139-0.532,0.271-0.527,0.612c0.002,0.092,0.024,0.168,0.059,0.232
	c-0.443,0.221-0.912,0.447-1.251,0.595c-0.352,0.155-1.017,0.393-1.401,0.522c-0.002-0.022-0.004-0.045-0.006-0.07
	c-0.016-0.151-0.059-0.521-0.149-0.696c-0.301-0.581-1.038-0.29-1.283-0.193c-0.151,0.061-0.343,0.129-0.42,0.147
	c-0.647,0.147-0.544,0.658-0.506,0.844c0.068,0.359,0.037,0.839,0.037,0.887c-0.259,0.261-2.156,0.985-4.453,1.485
	c-0.707,0.153-0.794,0.172-2.205,0.406c-1.05,0.176-1.113,0.205-2.731,0.949l-0.662,0.301c-0.345,0.148-2.991,1.413-4.835,2.307
	c-0.547,0.265-1.579,0.75-2.293,1.082l-0.883,0.415c-0.31,0.145-0.523,0.246-0.521,0.246c-0.061,0.028-0.468,0.209-0.909,0.402
	l-1.123,0.496l0.047,0.658c0.003,0.063,0.008,0.107-0.028,0.129c-0.183,0.191-0.626,0.254-1.376,0.177
	c-0.526-0.052-0.561-0.036-2.434,0.803l-0.151,0.068c-0.143,0.064-0.414,0.17-0.584,0.235c-0.254,0.09-0.68,0.24-0.68,0.713
	c0,0.245,0.094,0.461,0.254,0.615c-0.639,0.259-1.3,0.499-1.607,0.583c-0.305,0.086-1.431,0.097-1.643,0.038
	c-0.449-0.163-0.649-0.018-1.049,0.271c-0.448,0.325-1.006,0.619-2.133,1.12c-1.148,0.505-1.736,0.803-2.249,1.141
	c-0.228,0.15-0.557,0.366-0.584,0.693c-0.365,0.092-0.865,0.201-1.133,0.259c-1.66,0.355-1.796,0.384-2.077,0.875
	c-0.057,0.101-0.07,0.122-0.565,0.367c-0.685,0.34-2.761,1.266-3.704,1.652c-2.654,1.092-5.021,2.301-5.754,2.939
	c-0.116,0.1-0.283,0.245-0.316,0.469c-0.021,0.008-0.043,0.017-0.065,0.026c-3.083,1.21-6.542,2.933-11.214,5.585
	c-0.566,0.317-1.315,0.744-1.663,0.943c-0.348,0.198-0.794,0.452-1.002,0.567c-0.198,0.116-0.874,0.5-1.514,0.853
	c-0.401,0.223-0.825,0.461-1.137,0.638c-0.02-0.036-0.046-0.07-0.074-0.101l-0.278-0.255l-0.315,0.119
	c-0.049,0.018-0.13,0.049-0.736,0.468c-0.884,0.621-2.928,1.96-3.473,2.274c-0.682,0.397-1.657,0.887-2.252,1.133
	c0.103-0.257,0.073-0.421,0.01-0.555l-0.201-0.324h-0.318c-0.072,0-0.291,0-1.982,0.857c-0.677,0.347-1.203,0.643-2.677,1.508
	c-0.568,0.334-1.487,0.837-2.049,1.12c-1.036,0.527-1.251,0.674-1.33,0.96c-0.23-0.036-0.455,0.109-0.919,0.478
	c-0.642,0.512-1.413,1.022-1.834,1.215c-0.446,0.204-1.148,0.388-1.326,0.392c-0.879,0-0.924,0.646-0.878,0.779
	c-0.059,0.048-0.338,0.155-0.433,0.191c-0.704,0.276-2.666,0.938-3.229,1.09l-0.836,0.223c-0.529,0.148-2.375,0.609-3.191,0.798
	c-0.346,0.083-0.73,0.17-0.853,0.198l-1.058,0.247c-0.267,0.062-0.533,0.125-0.666,0.153c-0.63,0.131-0.906,0.267-0.906,1.027
	c0,0.091-0.004,0.148,0.001,0.17c-0.025,0.006-0.062,0.014-0.117,0.021c-0.477,0.058-1.9,0.339-2.756,0.544l-0.426,0.097
	c-2.098,0.495-5.491,1.588-7.561,2.436c-0.073,0.029-0.145,0.058-0.21,0.084c0-0.029-0.001-0.059-0.001-0.092
	c0-0.327,0-0.936-0.592-0.936c-0.304,0-2.278,0.689-2.599,0.817c-1.287,0.517-1.401,0.695-1.47,0.803l-0.178,0.35l0.078,0.099
	c-1.14,0.257-2.292,0.537-2.951,0.721c-0.232,0.062-0.497,0.136-0.581,0.161c-0.679,0.182-2.698,0.819-3.908,1.244
	c-4.738,1.637-4.696,1.818-4.599,2.239l0.048,0.17c-0.881,0.368-1.685,0.651-2.679,0.949l-0.895,0.269
	c-0.091,0.029-0.611,0.162-1.157,0.296c-1.604,0.39-3.42,0.74-5.719,1.099c-0.5,0.082-1.06,0.17-1.26,0.2
	c-0.472,0.076-0.945,0.147-1.477,0.22c-0.24,0.039-0.558,0.088-0.733,0.114c-0.146,0.027-0.622,0.102-1.058,0.163
	c-0.954,0.138-2.827,0.431-3.163,0.499c-0.116,0.018-0.316,0.055-0.487,0.088l-0.103,0.019c-1.939,0.352-3.919,0.806-5.731,1.314
	c-0.189-0.511-0.632-0.486-1.659-0.43c-1.429,0.08-2.229,0.182-4.754,0.603c-1.098,0.186-2.623,0.352-3.455,0.411
	c0.054-0.415-0.018-0.89-0.133-1.271c-0.06-0.188-0.124-0.546-0.139-0.775l-0.075-0.925l-0.683-0.015l-0.1-0.05
	c-0.018-0.063-0.02-0.095-0.023-0.098c0.014-0.019,0.068-0.08,0.267-0.208c0.367-0.237,0.569-0.531,0.637-0.932
	c0.042-0.266-0.02-0.512-0.176-0.695c-0.104-0.123-0.292-0.265-0.615-0.301c0.341-0.499,0.481-0.77,0.481-1.188
	c-0.007-0.492-0.25-0.84-0.67-0.997c0.554-0.545,0.869-0.975,0.745-1.41c-0.043-0.154-0.183-0.426-0.637-0.526
	c-0.095-0.018-0.22-0.019-0.344-0.014c0.461-0.199,0.63-0.456,0.702-1.033c0.053-0.443-0.074-0.719-0.376-0.819
	c-0.024-0.008-0.131-0.039-0.265-0.079c0.578-0.279,0.657-0.765,0.602-1.16c-0.075-0.555-0.374-0.738-0.725-0.807
	c0.161-0.172,0.294-0.366,0.379-0.562c0.102-0.237,0.217-0.504,0.077-0.788c-0.141-0.287-0.427-0.361-0.702-0.433
	c-0.018-0.005-0.035-0.01-0.051-0.014c0.553-0.41,0.809-0.703,0.858-1.311c0.076-0.789-0.281-1.063-0.879-1.245
	c0.033-0.026,0.068-0.053,0.105-0.08c0.451-0.336,0.875-0.72,0.673-1.4c-0.044-0.149-0.154-0.517-0.474-0.674
	c0.145-0.181,0.207-0.423,0.207-0.75c0-0.445-0.15-1.838-0.256-2.487c-0.352-2.045-1.208-4.191-2.695-6.751l-0.682-1.182
	c-0.325-0.551-0.672-0.68-1.324-0.492c-0.063,0.018-0.129,0.035-0.183,0.047c-0.054-0.045-0.126-0.111-0.209-0.197
	c-0.223-0.223-0.699-0.645-1.063-0.943c-1.124-0.908-1.241-1.18-1.272-1.677l-0.051-0.747l-0.53-0.162
	c-0.04-0.012-0.177-0.079-0.27-0.147c-0.808-0.588-1.139-0.776-1.828-0.648c-0.223-0.456-0.572-0.641-1.311-0.904
	c-0.214-0.081-0.468-0.182-0.569-0.242c-0.307-0.178-0.46-0.178-0.51-0.178c-0.352,0-0.71,0.376-0.791,0.704
	c-0.152-0.172-0.405-0.558-0.513-0.722c-0.603-0.923-0.927-1.304-1.715-1.354c-0.221-0.014-0.532,0.007-0.737,0.079
	c-0.057,0.018-0.109,0.038-0.156,0.059c-0.023-0.052-0.056-0.101-0.102-0.148c-0.179-0.18-0.38-0.183-0.929-0.103
	c-0.355,0.049-0.537,0.051-1.378-0.035c-0.509-0.051-1.17-0.09-1.394-0.066c-0.378,0.043-0.883,0.237-1.093,0.498
	c-0.063,0.055-0.278,0.163-0.355,0.195c-0.313-0.173-0.816-0.214-0.944-0.214c-0.435,0-0.839,0.243-1.076,0.644
	c-0.007-0.002-0.013-0.005-0.02-0.008c-0.812-0.31-1.64-0.064-1.921,0.57c-0.021,0.048-0.059,0.131-0.082,0.196
	c-0.018-0.022-0.039-0.05-0.063-0.084c-0.162-0.23-0.36-0.446-0.699-0.475c-0.198-0.018-0.695,0.068-1.004,0.301
	c-0.338-0.072-0.65,0.159-0.963,0.419c-0.4,0.327-0.637,0.547-0.764,0.875c-0.001,0-0.002-0.001-0.003-0.001
	c-0.706-0.253-1.034,0.015-1.363,0.568c-0.069,0.119-0.157,0.245-0.237,0.344c-0.471-0.12-1.063,0.106-1.611,0.628
	c-0.444,0.418-1.13,0.926-2.293,1.698c-2.162,1.445-3.138,2.272-3.869,3.277c-0.229,0.317-0.229,0.317-0.699,0.554
	c-1.363,0.681-2.445,1.547-3.045,2.434c-0.219,0.322-0.469,0.687-0.216,1.041c0.222,0.311,0.541,0.285,1.106,0.141
	c-0.476,1.083-0.883,2.442-1.043,3.488c-0.204,1.314-0.201,3.312,0.007,4.549c0.128,0.755,0.414,1.887,0.667,2.636
	c0.141,0.41,0.243,0.707,0.61,0.735l0.362-0.016l0.154-0.284c0.042-0.078,0.121-0.223,0.154-1.577
	c0.044-1.322,0.061-1.647,0.144-2.956c0.055-0.839,0.066-0.94,0.17-1.877c0.254-2.307,0.716-3.923,1.5-5.242
	c0.887-1.506,3.43-3.643,6.331-5.319c0.735-0.429,1.433-0.81,3.113-1.702l0.973-0.529c0.401-0.223,1.177-0.459,2.197-0.67
	c0.163-0.038,0.385-0.087,0.506-0.113c0.285-0.072,1.984-0.352,3.494-0.577l1.675-0.248c0.187-0.023,0.522-0.073,0.723-0.105
	c0.223-0.029,0.555-0.081,0.736-0.114c0.246-0.04,0.657-0.113,0.733-0.094c0.399,0.337,0.822,0.378,1.502,0.338
	c0.503-0.023,0.502-0.024,1.069,0.163c4.846,1.617,6.989,2.748,8.821,4.655c1.488,1.548,2.642,3.965,3.33,6.891
	c-0.872-0.602-2.134-1.552-3.375-2.541c-0.102-0.083-0.207-0.168-0.222-0.184c-0.012-0.033-0.027-0.158-0.04-0.276
	c-0.089-0.789-0.574-1.853-1.205-2.645c-1.603-2.028-4.397-3.223-7.326-3.128c-0.852,0.027-1.366,0.043-1.434,0.552
	c-0.068,0.503,0.424,0.655,1.1,0.864c0.354,0.113,0.844,0.253,1.092,0.322c0.28,0.074,0.537,0.143,0.773,0.207
	c-0.075,0.027-0.147,0.066-0.213,0.124c-0.151,0.131-0.228,0.318-0.228,0.555c0,0.128,0.022,0.243,0.06,0.348
	c-0.87-0.094-1.855-0.118-2.658-0.059c-2.469,0.176-4.474,0.766-7.418,2.24c0.455-0.286,1.026-0.765,1.097-1.174l0.028-0.324
	l-0.183-0.183c-0.121-0.121-0.345-0.345-2.182,0.268c-0.424,0.142-0.84,0.312-1.25,0.512l0.002-0.139l-0.205-0.159
	c-0.237-0.183-0.348-0.148-1.228,0.125l-0.153,0.048c-0.219,0.065-0.539,0.191-0.816,0.31c0.142-0.148,0.249-0.301,0.331-0.465
	l0.461-0.881l-0.842-0.105c-0.445-0.062-1.62,0.347-2.122,0.586c-0.436,0.207-0.852,0.452-1.274,0.756
	c0.117-0.189,0.198-0.361,0.198-0.478l-0.027-0.345l-0.266-0.14c-0.547-0.288-1.647,0.456-1.695,0.49
	c-0.209,0.145-0.476,0.316-0.607,0.379c-0.117,0.061-0.518,0.152-0.646,0.155c-0.614-0.086-1.49,1.131-1.672,1.396
	c-0.75,1.108-1.247,2.563-1.563,4.578c-0.114,0.711-0.114,3.883,0,4.585c0.009,0.059,0.018,0.119,0.028,0.178
	c-0.175-0.062-0.355-0.078-0.518-0.038c-0.272,0.064-0.472,0.273-0.521,0.543c-0.384,2.033-0.006,3.809,1.188,5.589
	c0.744,1.113,1.741,2.127,3.953,4.02c2.856,2.448,4.068,3.384,5.643,4.353c2.066,1.273,3.705,1.973,7.012,2.995
	c0.257,0.082,0.935,0.311,1.509,0.519c0.591,0.214,1.34,0.462,1.666,0.56c0.506,0.143,2.233,0.53,3.331,0.747l0.524,0.105
	c1.964,0.383,5.105,0.708,8.402,0.871c1.402,0.069,6.364,0.052,8.045-0.028c3.127-0.145,6.323-0.387,8.997-0.682l0.969-0.105
	c1.344-0.147,1.837-0.216,2.775-0.387c0.905-0.165,2.717-0.564,3.128-0.688c0.342-0.105,3.033-0.754,3.69-0.891
	c0.39-0.08,0.815-0.17,0.935-0.201c0.09-0.019,0.201-0.042,0.255-0.045c0.165,0,0.9-0.18,1.323-0.286
	c0.588-0.148,1.517-0.374,2.067-0.495l1.705-0.398c0.086-0.022,0.207-0.051,0.294-0.063c0.193-0.036,3.234-0.726,4.121-0.934
	c1.121-0.269,2.803-0.695,3.565-0.914c0.378-0.11,0.859-0.247,1.064-0.301c0.219-0.056,0.737-0.201,1.153-0.326
	c0.407-0.122,1.118-0.325,1.568-0.452c0.468-0.129,0.947-0.271,1.067-0.309l0.431-0.128c1.078-0.307,1.717-0.495,2.336-0.685
	c0.608-0.189,0.766-0.234,1.133-0.335l0.12-0.033c0.096-0.028,0.424-0.125,0.719-0.221c0.285-0.093,0.818-0.258,1.179-0.367
	c0.371-0.112,0.814-0.247,0.996-0.309c0.121-0.044,0.526-0.174,1-0.326l0.529-0.17c4.487-1.431,11.001-3.631,14.521-4.905
	l1.217-0.443c0.611-0.222,1.389-0.506,1.999-0.738c0.323-0.123,0.763-0.29,0.961-0.368c0.213-0.077,0.528-0.201,0.733-0.282
	c2.059-0.81,2.702-1.066,3.962-1.592c0.816-0.341,1.694-0.716,1.953-0.838c0.257-0.118,0.426-0.176,0.517-0.176
	c0.204,0,0.502-0.059,0.699-0.136c0.11-0.041,0.289-0.074,0.347-0.074c0.301,0,0.607-0.121,1.104-0.361
	c3.173-1.548,3.974-1.934,5.229-2.521c1.645-0.773,4.611-2.069,5.476-2.394c0.207-0.08,0.454-0.178,0.547-0.219
	c0.45-0.2,2.073-0.797,3.338-1.228c0.8-0.266,1.056-0.393,3.424-1.696c0.548-0.299,4.117-2.236,4.844-2.629l1.301-0.704
	c0.444-0.244,1.072-0.582,1.524-0.824l2.097-1.127c0.834-0.448,2.923-1.559,3.592-1.906c0.428-0.222,1.089-0.573,1.473-0.778
	c0.307-0.164,0.881-0.465,1.402-0.736l0.362-0.19c0.594-0.305,1.492-0.771,1.993-1.036c3.056-1.582,10.523-5.258,12.68-6.243
	c0.246-0.112,0.6-0.275,0.787-0.366c0.542-0.265,2.402-1.109,4.329-1.963c0.989-0.442,1.874-0.835,1.975-0.879
	c0.092-0.044,0.81-0.35,1.591-0.683l1.352-0.575h1.233l0.416-0.519c0.372-0.465,1.106-0.966,2.013-1.374
	c0.24-0.108,1.211-0.42,1.674-0.529c0.468-0.115,0.63-0.223,1.068-0.601c1.578-1.379,3.69-2.59,6.108-3.501
	c0.571-0.216,3.834-1.296,4.599-1.523l1.504-0.461c0.244-0.077,0.496-0.156,0.652-0.202c2.762-0.841,4.17-1.405,7.927-3.181
	c2.724-1.284,3.785-1.767,5.117-2.283c0.889-0.347,2.017-0.725,2.745-0.919l0.775-0.211c0.164-0.044,0.93-0.326,1.568-0.568
	c2.282-0.868,3.374-1.267,5.348-1.919c2.034-0.676,3.55-1.148,5.404-1.682c1.76-0.502,2.196-0.618,3.467-0.943
	c0.933-0.235,1.145-0.29,1.586-0.405c0.6-0.156,2.526-0.601,4.017-0.918c0.424-0.088,0.533-0.11,1.186-0.237
	c0.168-0.033,0.476-0.095,0.684-0.14c0.736-0.161,3.414-0.634,4.857-0.858l0.155-0.024c1.023-0.157,1.337-0.206,2.607-0.384
	c3.03-0.424,5.156-0.665,7.104-0.804c2.242-0.154,2.879-0.182,4.26-0.187c3.606-0.036,6.582,0.304,9.01,1.021
	c-0.659-0.17-1.283-0.308-1.844-0.405c-1.077-0.187-1.294-0.207-2.311-0.207c-1.385,0-2.31,0.18-3.001,0.586
	c-0.145,0.087-0.387,0.232-0.387,0.543l0.051,0.358l0.275,0.138c0.23,0.115,0.552,0.08,0.613,0.07
	c0.359-0.047,2.256,0.064,3.642,0.244c2.702,0.345,4.948,1.006,6.533,1.918c-1.09-0.31-2.264-0.634-2.622-0.718
	c-1.524-0.347-2.718-0.52-3.992-0.577c-1.055-0.046-1.432-0.026-1.876,0.376c-0.128,0.11-0.466,0.403-0.349,0.804
	c0.115,0.393,0.536,0.455,0.674,0.475c1.328,0.2,3.986,0.634,4.615,0.76c2.436,0.481,4.129,1.031,5.283,1.73
	c-2.935-0.971-4.542-1.368-6.249-1.551c-0.72-0.081-0.912-0.103-1.13,0.091l-0.188,0.231v0.223c0,0.493,0.555,0.923,0.954,1.072
	c0.397,0.145,1.411,0.257,2.019,0.257c0.204,0,0.231,0,0.668,0.219c0.768,0.384,1.505,0.693,3.155,1.326
	c2.25,0.864,3.176,1.288,4.119,1.906c-0.782-0.364-1.58-0.717-2.123-0.935c-2.485-0.994-5.055-1.687-7.235-1.952
	c-2.186-0.273-2.27-0.188-2.456,0l-0.157,0.165l0.009,0.216c0.027,0.659,1.599,1.187,1.787,1.248
	c0.209,0.064,0.69,0.181,1.074,0.256c0.631,0.123,0.898,0.167,1.799,0.317c0.503,0.087,1.586,0.362,1.887,0.482
	c0.151,0.054,0.684,0.295,1.182,0.525c1.12,0.519,1.765,0.744,2.302,0.802c0.156,0.016,0.156,0.016,0.336,0.173
	c0.438,0.396,1.09,0.779,1.992,1.171c0.4,0.176,0.72,0.322,0.984,0.453c-4.416-1.781-6.48-2.397-9.044-2.747
	c-0.78-0.109-3.424-0.159-3.942-0.048l-2.335,0.525l2.276,0.536c0.096,0.022,0.433,0.095,0.759,0.163
	c0.317,0.066,0.673,0.142,0.86,0.185c0.156,0.036,0.439,0.1,0.681,0.151c1.076,0.24,3.198,0.752,3.372,0.807
	c0.086,0.031,0.264,0.086,0.399,0.123c2.767,0.749,5.117,1.652,7.018,2.694c-0.069-0.005-0.142-0.009-0.219-0.014l-0.621-0.034
	l-1.321-0.632c-3.337-1.607-4.857-2.047-7.068-2.047c-0.803,0-1.045,0-1.189,0.346l-0.091,0.369l0.237,0.236
	c0.173,0.173,0.532,0.287,0.688,0.329c0.466,0.119,1.516,0.446,2.957,0.921c2.245,0.736,3.733,1.341,5.696,2.357
	c-1.62-0.586-3.279-1-4.816-1.178c-1.896-0.228-1.972,0.056-2.044,0.323c-0.071,0.246-0.178,0.618,1.54,1.25
	c0.43,0.153,1.555,0.425,2.618,0.634c1.206,0.236,2.666,0.764,4.22,1.524c1.501,0.741,2.551,1.462,3.29,2.273
	c-2.803-1.81-5.133-2.752-7.682-3.119c-0.088-0.012-2.147-0.299-2.543,0.045l-0.178,0.161v0.227c0,0.321,0.271,0.554,0.64,0.554
	c0.031,0.001,0.147,0.018,0.253,0.045c3.397,0.875,5.738,1.847,7.83,3.253c1.443,0.964,2.803,2.279,3.637,3.516
	c0.223,0.332,0.44,0.686,0.651,1.059c-0.107-0.111-0.22-0.229-0.341-0.352c-2.129-2.173-4.503-3.794-7.258-4.953
	c-3.828-1.615-7.726-1.985-11.587-1.102c-0.174,0.039-0.316,0.05-0.698,0.013c-1.038-0.099-2.857,0.033-4.858,0.352
	c-1.766,0.283-2.484,0.379-3.077,0.41c-2.602,0.147-4.819,0.702-9.488,2.374c-0.324,0.116-0.765,0.253-0.973,0.301l-0.75,0.17
	c-0.603,0.143-1.029,0.377-1.338,0.737c-0.218,0.256-0.458,0.601-0.386,1.006c0.071,0.401,0.405,0.634,0.679,0.787
	c0.116,0.068,0.209,0.145,0.22,0.153l0.252,0.364l1.075-0.091c1.026-0.09,1.919-0.216,2.809-0.395
	c0.789-0.156,1.077-0.225,3.094-0.719c2.798-0.687,3.505-0.833,5.041-1.042c1.603-0.217,2.645-0.267,5.578-0.267
	c2.353,0,3.015,0.016,3.734,0.091c2.56,0.272,4.265,0.751,6.757,1.899c0.388,0.18,0.764,0.358,0.869,0.42
	c0.068,0.04,0.533,0.29,1.031,0.544c1.929,1,2.388,1.238,2.885,1.527c0.663,0.385,1.076,0.664,1.407,0.964
	c-0.469-0.2-0.903-0.347-1.277-0.431c-0.428-0.093-1.768-0.151-2.01,0.562c-0.083,0.307-0.161,0.596,1.851,1.547l1.607,0.77
	c1.38,0.664,2.146,1.286,2.562,2.115c-0.529-0.234-0.95-0.343-1.426-0.363c-0.363-0.007-0.645-0.015-0.815,0.274
	c-0.163,0.279-0.008,0.537,0.062,0.653c0.137,0.237,0.458,0.616,1.796,1.63c0.995,0.754,1.371,1.135,1.615,1.635
	c0.087,0.175,0.128,0.261,0.151,0.376c-0.182-0.147-0.42-0.35-0.728-0.632c-0.833-0.773-1.489-1.106-2.423-1.23
	c-0.384-0.048-0.783-0.101-1.005,0.236c-0.215,0.328-0.014,0.669,0.121,0.895c0.311,0.524,0.769,0.964,1.813,1.744
	c0.902,0.674,1.52,1.242,1.843,1.693c-0.932-0.89-1.455-1.237-2.352-1.367c-0.231-0.034-0.49-0.073-0.688,0.156l-0.168,0.305
	l0.077,0.262c0.156,0.528,0.571,1.075,1.645,2.167c0.028,0.029,0.056,0.058,0.084,0.086c-0.107-0.015-0.214-0.016-0.319-0.005
	c-0.305,0.04-1.07,0.367-1.07,0.898c0,0.181,0.039,0.326,0.58,0.813c0.468,0.421,1.204,1.251,1.641,1.849
	c0.121,0.166,0.258,0.396,0.387,0.633c-0.074-0.059-0.14-0.109-0.196-0.145c-0.378-0.252-0.533-0.3-0.979-0.3
	c-0.426,0-0.717,0.055-0.829,0.285c-0.233,0.363-0.114,0.59,1.272,2.435c0.151,0.199,0.281,0.376,0.397,0.536
	c-0.197-0.098-0.419-0.156-0.674-0.156c-0.127,0-0.424,0-0.603,0.257c-0.193,0.278-0.088,0.561,0.058,0.952
	c0.202,0.542,0.482,1.001,1.196,1.967c0.139,0.187,0.267,0.368,0.382,0.541c-0.156-0.071-0.316-0.125-0.476-0.15
	c-0.12-0.021-0.429-0.075-0.639,0.182c-0.221,0.27-0.105,0.563,0.016,0.87c0.28,0.728,0.343,0.857,1.123,2.289
	c0.12,0.222,0.223,0.418,0.311,0.593c-0.085-0.019-0.177-0.028-0.283-0.028c-0.674,0-0.747,0.38-0.747,0.543
	c0,0.111,0,0.138,0.428,1.224c1.079,2.73,1.327,3.434,1.55,4.447c-0.018-0.045-0.035-0.087-0.053-0.128
	c-1.338-3.128-3.546-5.801-6.749-8.175c-1.178-0.871-1.637-1.14-2.054-1.2c-0.646-0.091-1.798-0.433-4.109-1.223
	c-1.572-0.535-2.329-0.738-3.375-0.906c-0.76-0.123-0.916-0.127-3.296-0.095c-0.598,0.007-2.567,0.033-2.8,0.056l-0.83,0.061
	c-2.122,0.14-4.497,0.394-6.062,0.649c-0.167,0.031-0.434,0.071-0.649,0.103c-2.173,0.328-4.68,0.862-7.661,1.632
	c-1.832,0.475-5.082,1.48-6.69,2.068c-2.594,0.959-4.186,1.59-6.085,2.412c-1.3,0.561-1.444,0.628-2.651,1.192l-0.236,0.109
	c-0.847,0.396-1.421,0.629-2.195,0.893c-0.486,0.164-3.318,1.235-4.148,1.564c-2,0.795-4.593,1.895-6.028,2.556l-1.329,0.603
	c-0.775,0.353-3.648,1.738-4.394,2.119c-0.035,0.018-3.443,1.774-3.568,1.87c-0.056,0.036-0.269,0.152-0.508,0.276
	c-1.053,0.564-1.751,1.015-3.733,2.418c-2.083,1.476-2.557,1.727-4.613,2.443c-1.771,0.611-1.983,0.714-4.512,2.206
	c-0.936,0.55-2.854,1.538-4.278,2.204l-1.192,0.561c-0.935,0.449-3.114,1.443-5.828,2.663c-1.848,0.83-4.123,1.847-4.343,1.947
	c-0.075,0.038-0.265,0.122-0.509,0.23l-0.686,0.315c-1.541,0.704-2.351,1.076-2.804,1.289l-1.265,0.594
	c-0.834,0.386-2.504,1.206-5.933,2.896l-0.742,0.365c-0.99,0.489-1.917,0.946-2.241,1.103c-0.411,0.195-1.188,0.572-1.72,0.832
	c-2.217,1.075-4.104,1.963-7.213,3.395l-0.356,0.163c-2.124,0.973-2.124,0.973-3.066,1.397l-0.221,0.099
	c-3.145,1.407-9.581,4.144-10.096,4.309c-0.085,0.024-0.41,0.149-0.727,0.283c-0.286,0.126-1.522,0.609-2.747,1.088l-0.678,0.263
	c-2.255,0.874-2.255,0.874-2.773,1.062l-2.128,0.778c-0.544,0.199-1.15,0.419-1.518,0.548l-1.277,0.451
	c-0.601,0.218-5.536,1.858-6.29,2.091l-1.248,0.388c-0.617,0.199-1.321,0.413-2.263,0.69c-1.028,0.309-1.123,0.337-1.939,0.587
	l-1.435,0.447c-0.35,0.105-1.051,0.328-1.561,0.492l-1.903,0.611c-0.55,0.172-1.4,0.445-1.889,0.606
	c-0.486,0.16-1.518,0.496-2.293,0.741l-0.596,0.191c-0.611,0.197-1.209,0.388-1.478,0.478l-2.501,0.784
	c-0.197,0.067-2.453,0.752-2.698,0.82l-1.404,0.412c-0.683,0.199-1.476,0.424-1.762,0.502l-0.694,0.188
	c-0.986,0.271-1.389,0.376-2.509,0.657c-2.117,0.535-2.84,0.701-4.395,1.03c-1.064,0.221-1.401,0.287-2.316,0.466
	c-0.289,0.056-0.289,0.056-1.631,0.282l-0.142,0.023c-0.622,0.104-1.574,0.253-2.115,0.33c-0.85,0.115-1.227,0.199-2.024,0.451
	c-0.506,0.164-1.023,0.327-1.143,0.36c-1.017,0.285-1.66,0.456-2.369,0.628l-0.692,0.171c-0.201,0.05-0.367,0.091-0.44,0.11
	c-0.443,0.111-1.742,0.387-2.572,0.548c-0.413,0.077-0.993,0.189-1.275,0.248c-0.223,0.043-0.519,0.096-0.74,0.135l-0.853,0.141
	c-0.105,0.018-0.237,0.04-0.334,0.059c-1.315,0.226-4.421,0.661-6.646,0.932l-0.214,0.026c-0.513,0.062-1.032,0.127-1.779,0.223
	c-0.586,0.072-4.953,0.564-6.14,0.691c-0.245,0.029-0.657,0.079-0.919,0.112c-0.258,0.033-0.666,0.083-0.906,0.11
	c-0.246,0.027-0.839,0.1-1.311,0.166c-1.35,0.181-1.394,0.175-2.512,0.065c-2.1-0.219-2.962-0.253-5.428-0.213
	c-6.074,0.092-8.017,0.1-9.039,0.04c-1.191-0.072-2.144-0.153-2.614-0.222c-1.216-0.18-1.506-0.225-1.911-0.017
	c-0.282,0.144-0.695,0.201-1.058,0.139c-0.979-0.162-2.565-0.201-5.473-0.134c-1.557,0.039-3.226,0.09-3.703,0.118
	c-0.432,0.031-1.588,0.055-2.632,0.055c-1.98,0-2.105-0.025-2.839-0.297c-0.541-0.199-1.122-0.296-2.829-0.476
	c-0.592-0.059-1.222-0.134-1.404-0.167c-1.595-0.272-2.213-0.493-2.869-1.026c-0.3-0.25-0.504-0.344-0.945-0.432
	c-0.863-0.176-1.287-0.293-2.161-0.597c-1.769-0.614-3.216-1.476-4.3-2.561c-0.624-0.624-1.098-1.247-1.451-1.913
	c0.024,0.014,0.048,0.027,0.071,0.039c0.357,0.187,0.905,0.325,1.306,0.394c0.16,0.024,0.169,0.026,0.531,0.349
	c2.085,1.857,5.114,3.195,8.528,3.768c1.174,0.199,1.999,0.261,3.53,0.267c1.531,0.012,1.987,0.008,2.053-0.525
	c0.06-0.48-0.442-0.604-0.612-0.646c-0.061-0.018-0.347-0.089-0.695-0.175l-0.32-0.079c-0.476-0.118-1.021-0.246-1.22-0.289
	l-0.554-0.11c-0.085-0.02-0.395-0.082-0.8-0.162l-0.876-0.175c-0.766-0.148-1.702-0.345-2.08-0.437
	c-0.806-0.197-1.575-0.445-2.248-0.72c0.018,0.004,0.033,0.007,0.045,0.011c0.298,0.074,0.598-0.043,0.689-0.235l0.133-0.218
	l-0.066-0.225c-0.029-0.097-0.073-0.245-0.505-0.523c0.309-0.018,0.481-0.215,0.537-0.401c0.245-0.816-1.647-1.708-1.66-1.714
	c-0.229-0.108-0.792-0.327-1.254-0.494c-1.105-0.393-1.373-0.504-2.866-1.19c-0.676-0.309-1.62-0.714-2.035-0.858
	c-0.323-0.113-0.637-0.228-0.682-0.243c-0.117-0.096-0.584-0.703-0.807-1.124c-0.093-0.177-0.212-0.451-0.266-0.62
	c-0.014-0.041-0.027-0.091-0.041-0.146c1.346,1.03,3.322,2.028,5.755,2.902c0.438,0.155,1.199,0.405,3.851,1.276
	c1.427,0.47,1.756,0.603,3.521,1.423c2.961,1.374,4.004,1.75,5.584,2.011c0.019,0.003,2.06,0.23,2.472-0.018l0.21-0.156l0.032-0.227
	c0.055-0.395-0.345-0.888-0.469-1.029c-0.394-0.45-1.168-0.806-2.126-0.976l-0.59-0.105c-0.685-0.124-0.866-0.163-1.407-0.34
	c-0.63-0.196-1.354-0.466-2.422-0.904c-1.766-0.722-2.735-0.978-3.703-0.978h-0.375l-0.942-0.495
	c-1.373-0.726-2.234-1.092-3.072-1.304c-0.537-0.136-0.537-0.136-1.351-0.706c-0.496-0.348-1.127-0.771-1.408-0.945
	c-0.939-0.582-2.227-1.141-2.91-1.253c-0.006-0.007-0.031-0.034-0.101-0.141c-0.121-0.185-0.429-0.561-0.679-0.845
	c0.017,0.011,0.032,0.021,0.045,0.03c1.587,1.037,3.225,1.682,4.869,1.918c0.068,0.009,1.676,0.231,2.113-0.147l0.188-0.18v-0.227
	c0-0.214-0.045-0.362-0.403-0.579c0.865,0.181,1.775,0.31,2.6,0.368c0.405,0.027,0.408,0.029,0.565,0.137
	c0.075,0.049,0.28,0.238,0.43,0.424c0.242,0.303,0.443,0.486,0.596,0.545c0.398,0.155,1.754,0.749,2.274,0.993
	c0.452,0.216,0.633,0.303,0.734,0.337c0.068,0.028,0.241,0.107,0.445,0.203c0.517,0.238,1.69,0.722,2.226,0.909
	c1.685,0.584,3.746,0.795,4.901,0.5c0.535-0.134,1.424-0.444,1.362-0.984c-0.026-0.44-0.031-0.519-4.207-1.561
	c-3.24-0.812-4.795-1.341-6.162-2.099c-0.851-0.471-1.836-1.218-2.307-1.745c0.106,0.028,0.255,0.069,0.385,0.105
	c0.649,0.176,3.147,0.806,3.662,0.923c2.031,0.464,3.199,0.681,4.631,0.862c0.364,0.042,0.722,0.094,0.803,0.11
	c0.364,0.072,0.555-0.1,0.637-0.208c0.236-0.314,0.047-0.679-0.053-0.873c-0.424-0.829-1.484-0.93-2.248-0.935
	c-0.65,0-1.755-0.226-3.288-0.673c-0.311-0.09-0.652-0.199-0.995-0.316c0.125-0.106,0.301-0.291,0.263-0.578
	c-0.049-0.373-0.261-0.487-1.384-0.981c0.418,0.058,0.875,0.149,1.513,0.294c1.98,0.454,2.776,0.6,3.706,0.68
	c0.358,0.031,0.763,0.064,0.938-0.314c0.173-0.375-0.114-0.662-0.328-0.876c-0.409-0.4-0.899-0.557-1.916-0.779
	c-1.143-0.243-1.273-0.401-1.404-0.658c-0.225-0.441-0.457-0.516-0.93-0.582c-1.399-0.204-3.444-1.066-5.915-2.492l-1.933-1.112
	c-2.751-1.587-4.335-2.203-4.714-1.824l-0.162,0.172l0.012,0.222c0.004,0.079,0.042,0.173,0.102,0.277
	c-0.96-0.599-1.803-1.221-2.517-1.858c-1.978-1.772-3.107-4.066-3.203-6.491c0.483,0.426,1.167,1.058,1.948,1.812
	c2.115,2.054,3.113,2.856,4.451,3.58c0.014,0.008,1.488,0.762,1.868,0.762l0.394-0.023l0.132-0.295
	c0.158-0.351-0.08-0.618-0.406-0.985c-0.672-0.765-1.41-1.365-3.295-2.677c-1.872-1.298-2.306-1.684-3.315-2.945
	c-0.426-0.534-1.033-1.215-1.354-1.519c-1.314-1.237-1.593-1.544-1.869-2.046c-0.975-1.778-1.727-4.331-2.062-7.005
	c-0.103-0.839-0.087-2.983,0.028-3.89c0.264-2.099,0.682-3.393,1.495-4.617l0.404-0.621l-0.186-1.15l0.013-0.018
	c0.068-0.095,0.38-0.456,0.691-0.8c2.357-2.621,4.806-3.842,7.705-3.842h0.468l0.028,0.075c0.083,0.219,0.192,0.52,0.248,0.678
	c0.328,0.891,0.434,1.386,0.434,2.041l0.002,0.216l-0.292,0.077c-0.821,0.213-1.493,0.514-1.995,0.892
	c-0.243,0.182-0.386,0.357-0.465,0.516c-0.337,0.009-0.603,0.31-1.42,1.236c-0.689,0.781-1.12,1.352-1.489,1.974
	c-0.694,1.173-1.06,2.511-1.06,3.869v0.356l-0.247,0.297c-0.204,0.25-0.625,0.807-0.926,1.244c-0.432,0.623-0.802,1.099-1.074,1.418
	c-0.023-0.128-0.043-0.243-0.055-0.319c-0.073-0.443-0.226-1.066-0.709-1.346l-0.65-0.396l-0.311,0.743
	c-0.271,0.634-0.317,1.044-0.317,1.955c0,1.061,0.065,1.398,0.461,2.397c0.364,0.922,0.619,1.385,1.948,3.536
	c0.267,0.437,0.628,1.048,0.799,1.358c0.278,0.521,0.527,0.834,1.089,1.457c4.74,5.218,9.008,8.262,13.839,9.873
	c1.493,0.494,3.718,1.004,5.537,1.271c2.585,0.378,4.291,0.515,6.518,0.526c2.745-0.005,4.716-0.15,5.841-0.479
	c0.872-0.25,1.91-0.661,1.91-1.218c-0.031-0.624-1.574-1.142-1.592-1.148c-0.746-0.238-0.999-0.245-3.5-0.25
	c-2.312,0-2.482-0.013-3.117-0.115c-3.599-0.607-6.836-1.912-8.656-3.487c-0.01-0.009-0.019-0.018-0.029-0.026
	c0.174,0.052,0.374,0.115,0.548,0.172c1.154,0.381,1.73,0.5,2.3,0.258c0.36-0.149,0.896-0.561,0.802-1.031
	c-0.053-0.267-0.238-0.444-0.532-0.446c-0.307-0.044-3.021-0.86-3.708-1.13c-1.161-0.461-1.924-1.045-2.268-1.735
	c-0.037-0.075-0.072-0.167-0.102-0.266c0.144,0.085,0.307,0.184,0.487,0.296c0.988,0.623,1.554,0.891,2.328,1.1
	c0.609,0.166,0.9,0.166,1.112,0.004l0.207-0.172v-0.246c0-0.113,0-0.324-0.541-0.891c-0.303-0.329-0.79-0.671-1.796-1.259
	c-0.886-0.522-1.279-0.804-1.682-1.202c-0.353-0.353-0.527-0.618-0.659-1.003c-0.056-0.172-0.081-0.316-0.081-0.979
	c0-0.057,0-0.113,0-0.166c0.475,0.149,1.143,0.366,1.551,0.509c3.09,1.08,3.961,1.322,5.186,1.438
	c0.018,0.002,1.861,0.109,2.277-0.273l0.173-0.17v-0.219c0-0.374,0-0.67-3.446-1.562c-1.784-0.458-2.035-0.531-2.788-0.777
	c-2.285-0.742-3.453-1.635-3.785-2.932c1.599,0.952,4.831,2.46,6.837,3.167c2.617,0.921,2.774,0.976,2.973,0.447
	c0.236-0.63-0.559-1.356-1.011-1.586c-0.282-0.147-0.976-0.326-1.058-0.346c-1.568-0.387-2.158-0.596-3.713-1.314
	c-2.076-0.959-4.005-2.2-4.503-2.757c-0.284-0.318-0.474-0.877-0.514-1.496c0.23,0.14,0.557,0.349,1.021,0.659
	c1.153,0.773,1.667,1.057,2.292,1.269c0.981,0.338,1.154,0.21,1.281,0.12l0.214-0.158v-0.256c0-0.195-0.059-0.417-0.788-1.154
	c-0.443-0.443-0.81-0.708-2.457-1.772c-0.745-0.479-1.261-0.903-1.531-1.257c-0.026-0.035-0.053-0.073-0.079-0.113
	c0.361,0.301,0.72,0.588,0.972,0.781c0.8,0.607,2.096,1.45,3.08,2.001c0.019,0.012,2.035,1.122,2.392,1.122l0.389-0.02l0.117-0.332
	c0.19-0.537-0.75-1.401-1.328-1.868c-0.453-0.366-1.458-1.044-3.072-2.074c-2.024-1.295-3.025-2.223-3.396-3.162
	c0.331,0.179,0.711,0.406,0.956,0.586c0.275,0.208,0.78,0.593,1.127,0.868c0.359,0.283,0.893,0.662,1.188,0.842
	c0.143,0.088,1.406,0.853,1.868,0.698l0.28-0.096l0.062-0.278c0.099-0.44-0.692-1.257-1.173-1.705
	c-0.398-0.37-1.362-1.154-2.646-2.155c-1.101-0.854-1.941-1.734-2.432-2.551c-0.057-0.092-0.112-0.197-0.165-0.31
	c0.741,0.873,1.605,1.803,2.183,2.328c1.568,1.433,2.906,2.367,4.616,3.226c1.264,0.64,1.576,0.783,1.907,0.455l0.157-0.186
	l-0.012-0.209c-0.015-0.28-0.015-0.28-2.01-2.036l-0.13-0.115c-2.941-2.582-4.586-4.148-5.674-5.404
	c-1.131-1.308-2.188-2.871-2.9-4.287c-0.263-0.522-0.437-0.866-0.871-0.866c-0.325,0-0.968,0.196-1.23,0.376
	c-0.912,0.63-0.912,0.879-0.912,1.014c0,0.131,0.038,0.276,0.171,0.383c-0.785,0.123-1.834,0.314-2.183,0.4
	c-1.779,0.439-2.978,1.099-3.666,2.015c-0.14,0.185-0.225,0.312-0.277,0.408c-0.113,0.1-0.497,0.416-1.792,1.401
	c-0.954,0.728-1.643,1.362-2.108,1.941c-1.144,1.441-1.573,2.752-1.767,5.39l-0.117,1.556c-0.027,0.42-0.115,1.267-0.185,1.884
	c-0.238,2.034-0.272,2.624-0.201,3.514c0.102,1.205,0.199,1.778,0.489,2.921c0.257,1.015,0.819,2.713,1.133,3.423
	c0.108,0.251,1.045,2.593,1.281,3.219c0.327,0.856,0.69,1.972,0.847,2.603l0.199,0.773c0.094,0.373,0.258,1.54,0.318,2.269
	c0.118,1.486,0.442,3.834,0.722,5.234c0.027,0.133,0.075,0.374,0.104,0.552c0.202,1.093,1.226,5.387,1.913,7.946
	c0.16,0.602,0.391,1.538,0.644,2.589c0.194,0.813,0.44,2.117,0.602,3.18l0.283,1.609c0.524,2.912,1.237,4.482,2.725,6
	c1.565,1.599,3.543,2.701,7.297,4.066l1.093,0.4l0.399,1.17l0.596-0.029c0.12-0.006,0.687-0.016,1.255-0.021
	c1.422-0.015,2.487,0.139,4.548,0.666c3.14,0.801,3.185,0.812,4.79,1.122l0.156,0.03c0.779,0.142,0.997-0.452,1.07-0.688
	c0.985-0.034,4.7,0.011,6.548,0.097c1.183,0.055,1.687,0.055,2.698,0l1.007-0.058l0.223,0.214c1.075,1.035,2.48,1.252,4.851,0.742
	c2.056-0.444,2.345-0.495,3.097-0.548c0.733-0.055,1.1,0.009,2.309,0.539c0.549,0.243,0.981,0.359,1.357,0.359
	c0.162,0,0.312-0.021,0.458-0.063c0.403-0.109,0.549-0.266,0.866-0.684c0.303-0.402,0.304-0.4,0.66-0.363
	c0.301,0.033,1.927,0.053,3.325,0.053h0.165c2.758,0.006,2.768,0,3.566,0.276c0.487,0.17,0.691,0.144,1.707-0.032
	c0.131-0.025,1.244-0.187,2.531-0.375l0.238-0.035c3.397-0.487,3.487-0.497,4.223-0.586l0.17-0.019
	c0.223-0.027,0.503-0.06,0.69-0.086c0.847-0.106,1.773-0.209,2.244-0.254c0.019,0.184,0.082,0.4,0.279,0.545
	c0.292,0.217,0.638,0.109,0.839,0.047c0.728-0.215,1.076-0.277,2.866-0.509c2.101-0.267,3.052-0.539,3.914-1.122l0.042-0.028
	l0.222,0.066c0.899,0.257,1.711,0.154,2.17-0.275c0.045-0.041,0.131-0.122,0.197-0.234c0.387,0.18,0.586,0.234,0.968,0.236
	c0.108-0.004,0.476-0.024,0.687-0.138c0.228-0.124,0.32-0.288,0.351-0.452c0.467,0.157,0.925,0.236,1.368,0.236
	c0.923-0.007,1.559-0.241,3.128-0.99c0.402-0.193,0.729-0.346,1.005-0.467l0.013,0.23l0.188,0.15
	c0.243,0.192,0.443,0.148,1.294-0.049c0.253-0.059,0.581-0.134,0.737-0.164c0.162-0.035,0.381-0.087,0.495-0.117
	c0.069-0.018,0.29-0.066,0.555-0.124l0.393-0.087c0.427-0.095,1.367-0.311,2.084-0.484c0.708-0.17,1.377-0.323,1.496-0.349
	l3.293-0.802c2.5-0.608,4.015-0.974,4.67-1.128c0.417-0.095,0.852-0.202,0.955-0.23l0.627-0.148
	c0.159-0.036,0.364-0.084,0.533-0.126c0.265-0.061,0.999-0.226,1.632-0.366l1.379-0.305c0.206-0.05,0.559-0.119,1.025-0.21
	c0.124-0.023,0.48-0.096,0.79-0.164c0.302-0.065,1.276-0.24,2.163-0.388c0.904-0.15,1.847-0.312,2.097-0.363
	c0.624-0.131,1.434-0.443,2.549-0.98c1.918-0.924,2.277-1.03,3.489-1.03c1.353-0.006,2.114-0.092,2.776-0.571
	c0.187-0.135,0.576-0.419,0.439-0.84c-0.056-0.172-0.169-0.273-0.296-0.332c0.077-0.028,0.152-0.053,0.219-0.068
	c0.081-0.019,0.144-0.032,0.192-0.042c0.028,0.176,0.085,0.434,0.335,0.592c0.323,0.204,0.676,0.097,1.447-0.138
	c1.732-0.524,2.776-0.957,3.11-1.289c0.159,0.086,0.335,0.082,0.471,0.02c0.152-0.067,0.284-0.216,0.309-0.444
	c0.036-0.002,0.075-0.003,0.117-0.006c0.904-0.041,1.376-0.176,2.527-0.722c0.728-0.346,1.087-0.483,1.916-0.729
	c0.436-0.126,0.553-0.319,0.8-0.782c0.231-0.433,0.231-0.433,0.803-0.445c0.667-0.012,1.145-0.069,1.653-0.2
	c0.561-0.149,1.374-0.419,1.893-0.629c0.409-0.168,3.128-1.486,3.369-1.692c0.301-0.245,0.276-0.508,0.228-0.652
	c0.516-0.113,1.19-0.22,2.112-0.341c0.501-0.065,3.015-0.426,3.271-1.113c0.075-0.189,0.089-0.381,0.04-0.549
	c0.275-0.031,0.779-0.072,1.195-0.1c1.627-0.105,1.949-0.311,2.081-0.397c0.123-0.083,0.343-0.29,0.349-0.701
	c0.169,0.112,0.367,0.189,0.58,0.16c0.381-0.047,0.596-0.382,0.687-0.525c0.15-0.234,0.274-0.347,0.986-0.623
	c0.74-0.281,1.19-0.553,1.506-0.944c0.002,0.001,0.004,0.002,0.006,0.003c0.64,0.27,0.945,0.156,1.532-0.328
	c1.575-1.279,3.126-1.952,5.03-2.183c0.365-0.043,0.596-0.081,0.633-0.096c0.127-0.027,0.236-0.051,0.799-0.665
	c0.401-0.436,0.707-0.606,0.779-0.619c0.047,0,0.171,0,0.775-0.195c2.407-0.758,4.167-1.546,7.846-3.512
	c1.418-0.76,3.502-1.819,3.928-1.994c0.101-0.046,0.37-0.162,0.64-0.278l0.154-0.066c0.996-0.433,2.018-0.791,3.321-1.164
	c0.18-0.055,0.419-0.199,0.535-0.57c0.065-0.199,0.228-0.418,0.436-0.593c0.055,0.064,0.115,0.118,0.173,0.157
	c0.186,0.125,0.397,0.153,0.533,0.095c0.04-0.012,0.535-0.194,1.104-0.406c2.963-1.098,3.915-1.615,4.848-2.633
	c0.054-0.058,0.173-0.189,0.253-0.266c0.003,0,0.007,0,0.011,0c0.191,0,0.423-0.041,0.574-0.073c0.166-0.039,0.33-0.055,0.346-0.056
	c0.369,0.068,0.608-0.088,1.61-0.748c0.914-0.598,1.288-0.778,1.429-0.832c0.244-0.094,0.723-0.278,1.052-0.41
	c1.573-0.606,3.608-1.492,5.311-2.312c0.475-0.229,0.878-0.42,0.951-0.452l-0.005-0.012c0.263-0.104,0.952-0.443,2.988-1.536
	c0.582-0.315,2.863-1.631,3.44-1.984c1.245-0.768,1.523-0.945,2.436-1.542c0.534-0.35,1.286-0.853,1.671-1.119
	c0.516-0.358,0.674-0.435,0.809-0.463c0.217-0.043,0.552-0.157,0.772-0.261c0.544-0.244,0.552-0.244,0.747-0.244
	c0.402,0,0.565-0.087,0.918-0.387c1.135-0.981,2.942-2.059,5.088-3.033c0.645-0.292,2.789-1.17,3.82-1.566
	c3.871-1.484,6.098-2.474,7.694-3.423c0.689-0.41,0.689-0.41,4.006-1.51l0.289-0.096c3.928-1.306,5.464-1.88,7.143-2.673
	c0.526-0.245,0.761-0.332,0.941-0.348c0.606-0.06,1.535-0.331,2.758-0.806c1.239-0.476,2.081-0.707,2.73-0.748
	c0.511-0.032,0.712-0.082,1.077-0.268c0.184-0.092,0.515-0.23,0.74-0.306c0.778-0.265,1.226-0.494,1.549-0.79
	c0.074-0.068,0.108-0.093,0.11-0.097c0.715-0.001,2.591-0.349,4.001-0.678c0.222-0.055,0.498-0.11,0.648-0.133l0.113,0.171
	c0.081,0.127,0.191,0.275,0.309,0.413c-0.321,0.302-0.497,0.744-0.497,1.273c0,0.359,0.116,0.814,0.301,1.187
	c-0.141,0.088-0.42,0.276-0.532,0.46c-0.035,0.055-0.143,0.225-0.214,0.896c-0.097,1.031-0.353,2.666-0.623,3.973
	c-0.078,0.371-0.167,0.797-0.197,0.955c-0.026,0.145-0.091,0.452-0.141,0.677c-0.327,1.55-0.654,3.494-0.854,5.078
	c-0.071,0.57-0.09,3.052-0.006,3.515c0.026,0.14,0.08,0.44,0.113,0.666c0.149,0.944,0.59,2.478,1.027,3.569
	c0.213,0.526,0.75,1.813,0.861,2.05c0.253,0.559,0.951,2.215,1.154,2.753c0.24,0.643,0.297,0.709,0.967,1.374
	c1.849,1.838,4.59,2.917,8.628,3.396c1.241,0.146,2.34,0.189,4.053,0.153c2.466-0.045,3.515-0.13,5.902-0.486
	c1.296-0.19,1.463-0.213,1.929-0.65c0.949-0.89,2.236-1.838,3.825-2.819c0.336-0.209,1.696-0.997,3.028-1.762
	c0.169-0.097,4.16-2.377,4.534-2.749c0.271-0.273,0.205-0.546,0.165-0.651c-0.157-0.404-0.651-0.428-1.041-0.447
	c-0.026-0.002-0.071-0.005-0.119-0.008c1.236-2.134,1.918-4.207,2.264-6.862l0.128-0.998c0.103-0.787,0.105-5.718,0.002-6.941
	c-0.133-1.668-0.385-4.276-0.565-5.991c-0.186-1.714-0.379-3.765-0.441-4.604c-0.034-0.462-0.084-1.125-0.123-1.558
	c-0.032-0.405-0.06-0.756-0.053-0.811c0.016-0.019,0.081-0.073,0.163-0.14C346.485,189.685,347.206,188.911,347.594,188.385z
	 M345.92,186.516c0.134-0.307,0.373-0.68,0.772-1.22c0.175-0.238,0.324-0.445,0.452-0.634c-0.186,0.585-0.694,1.44-0.958,1.672
	C346.107,186.402,346.014,186.464,345.92,186.516z M344.846,208.324l-0.127,0.032c0-0.001,0-0.002,0-0.002L344.846,208.324
	L344.846,208.324z M321.811,217.07c-0.045,0.016-0.086,0.035-0.124,0.056c-0.025-0.017-0.053-0.034-0.082-0.054
	c-0.285-0.186-0.486-0.348-0.627-0.5C321.271,216.708,321.563,216.883,321.811,217.07z M326.345,205.936l0.092-0.284l-0.09,0.285
	C326.346,205.936,326.346,205.936,326.345,205.936z M328.22,209.494c-0.473-0.318-1.087-0.619-1.637-0.805
	c-0.382-0.132-0.679-0.185-1.181-0.209c-0.108-0.005-0.211-0.008-0.311-0.008c-0.802,0-1.394,0.159-2.147,0.561
	c-0.52,0.283-0.789,0.481-1.807,1.323c-0.346,0.29-0.645,0.522-0.88,0.695c0.011-0.253,0.035-0.56,0.078-0.89
	c0.127-1.043,0.218-1.472,0.492-2.287c0.164-0.491,0.277-0.782,0.344-0.93c0.055-0.011,0.119-0.02,0.184-0.031
	c0.951-0.147,2.271-0.193,3.077-0.108c2.016,0.22,3.477,0.865,4.886,2.159c0.122,0.111,0.157,0.167,0.208,0.338
	c0.203,0.658,0.266,1.111,0.266,1.932c-0.001,0.164-0.006,0.327-0.016,0.489C329.568,210.818,329.043,210.053,328.22,209.494z
	 M314.847,211.252l-0.057,0.26c-0.01,0.009-0.019,0.018-0.03,0.025l-0.01-0.018L314.847,211.252L314.847,211.252z M329.311,204.143
	c-0.257-0.31-0.419-0.49-0.626-0.615c0.661,0.326,1.27,0.693,1.588,0.963c0.492,0.425,0.807,1.031,1.129,3.103
	C330.904,206.41,330.158,205.168,329.311,204.143z M328.403,203.396c-0.114-0.043-0.286-0.121-0.431-0.197
	c0.159,0.067,0.319,0.139,0.479,0.214C328.435,203.408,328.42,203.402,328.403,203.396z M313.346,203.625l0.03-0.184
	c0.075-0.459,0.075-0.459,0.668-0.883l0.224-0.161c2.235-1.603,4.982-2.839,7.464-3.369c-0.101,0.16-0.18,0.371-0.118,0.603
	c0.061,0.227,0.241,0.397,0.492,0.466c0.06,0.017,0.125,0.029,0.192,0.039c-0.001,0.018-0.002,0.038-0.002,0.057
	c0,0.262,0.188,0.501,0.475,0.608c0.393,0.15,1.327,0.351,2.039,0.439c0.068,0.009,0.135,0.017,0.201,0.025
	c-0.001,0.018-0.002,0.037-0.002,0.056c0,0.216,0,0.526,1.799,1.366c-0.346-0.086-0.69-0.096-1.071,0.001
	c-0.046-0.013-0.206-0.094-0.386-0.187c-1.141-0.596-1.856-0.759-3.333-0.759c-1.086,0.005-1.615,0.071-2.452,0.305l-0.467,0.126
	c-0.847,0.22-2.545,1.05-3.426,1.675c-0.872,0.613-1.915,1.618-2.427,2.338c-0.237,0.332-0.435,0.659-0.605,1.005
	c0.096-0.506,0.209-1.066,0.342-1.694C313.104,204.913,313.266,204.07,313.346,203.625z M341.216,211.462l0.131-0.202l0.007,0.009
	l-0.114,0.193C341.231,211.462,341.224,211.463,341.216,211.462z M334.231,207.859c0.073-0.041,0.181-0.095,0.261-0.135
	c0.106-0.054,0.179-0.087,0.24-0.107c-0.166,0.099-0.331,0.21-0.487,0.329C334.241,207.915,334.236,207.886,334.231,207.859z
	 M337.883,207.77l0.06-0.065l-0.055,0.074L337.883,207.77z M335.015,210.104c0.247-0.233,0.615-0.494,1.295-0.922
	c-0.426,0.389-0.859,0.703-1.24,0.895C335.052,210.086,335.033,210.095,335.015,210.104z M313.393,217.62
	c0.214,0.209,0.622,0.646,1.235,1.356c1.286,1.503,2.017,2.15,3.008,2.661c0.682,0.349,1.362,0.547,2.508,0.729
	c1.076,0.166,3.415,0.18,4.908,0.025c2.28-0.228,2.349-0.27,2.471-0.345c0.354-0.201,0.31-0.632,0.289-0.831
	c-0.013-0.142,0.005-0.272,0.019-0.315c0.055-0.158,0.128-0.373-0.002-0.6l-0.201-0.234l-0.222-0.044
	c-0.054-0.011-0.153-0.027-0.282-0.048c2.122-0.229,3.489-0.694,4.581-1.512c0.508-0.383,0.921-0.821,1.378-1.466l0.205-0.288
	l1.018-0.341c0.526-0.174,1.005-0.34,1.446-0.498c-0.041,0.1-0.023,0.202,0.016,0.339c0.124,0.438,0.546,0.408,1.003,0.378
	c1.338-0.096,2.815-0.727,4.304-1.835c-0.238,0.347-0.528,0.708-0.842,1.025c-0.567,0.572-0.839,0.724-2.421,1.03
	c-0.732,0.143-1.134,0.265-1.577,0.605c-0.247,0.186-0.373,0.401-0.373,0.639c0,0.233,0.117,0.438,0.336,0.602
	c0.491,0.389,1.148,0.513,1.841,0.345c0.384-0.087,0.794-0.258,1.372-0.588c-0.061,0.077-0.103,0.161-0.122,0.261l-0.034,0.27
	l0.152,0.181c0.003,0.003,0.006,0.007,0.009,0.01c-0.746,0.36-1.292,0.762-2.546,1.786c-0.506,0.419-1.216,0.969-1.582,1.229
	c-0.733,0.519-1.065,0.786-1.869,1.506c-0.678,0.602-1.131,0.882-1.731,1.072c-1.509,0.483-6.16,0.621-8.888,0.263
	c-2.711-0.356-4.794-1.453-7.686-4.051c-1.123-1.004-1.476-1.337-1.495-1.461c-0.03-0.204-0.137-0.565-0.225-0.807
	c-0.201-0.533-0.267-0.785-0.284-0.995C313.228,217.66,313.32,217.642,313.393,217.62z M335.531,142.825
	c-0.012-0.011-0.022-0.027-0.033-0.045l0.221-0.367c0.002,0,0.004,0,0.006,0.001L335.531,142.825z M335.747,142.366l-0.016,0.032
	c-0.001,0-0.002-0.001-0.003-0.002L335.747,142.366L335.747,142.366z M79.119,180.096c0.156-0.091,0.404-0.215,0.878-0.441
	c-0.215,0.112-0.435,0.229-0.66,0.35c-0.069,0.036-0.139,0.073-0.208,0.111C79.126,180.11,79.122,180.103,79.119,180.096z
	 M74.907,187.714l0.335,0.093l0,0l-0.379-0.072C74.878,187.727,74.893,187.72,74.907,187.714z M74.83,190.783
	c0.045-0.029,0.087-0.056,0.126-0.084c-0.01,0.077-0.02,0.132-0.026,0.169c-0.034-0.005-0.074-0.012-0.123-0.021
	c-0.017-0.004-0.035-0.008-0.053-0.012C74.778,190.818,74.804,190.801,74.83,190.783z M75.766,193.076
	c0.035-0.004,0.067-0.006,0.096-0.001c-0.022,0.007-0.044,0.01-0.066,0.01c-0.018-0.001-0.033-0.003-0.047-0.005
	C75.755,193.078,75.76,193.077,75.766,193.076z M69.226,191.945l0.109-0.101c0.027,0.034,0.045,0.066,0.062,0.096
	c-0.02,0.022-0.036,0.046-0.058,0.066C69.303,191.992,69.266,191.979,69.226,191.945z M68.628,185.097l0.393,0.015h-0.403
	C68.621,185.106,68.625,185.101,68.628,185.097z M94.187,190.621c0.069-0.046,0.137-0.091,0.201-0.132l-0.16,0.108
	C94.215,190.605,94.202,190.612,94.187,190.621z M94.411,189.977l0.001,0.002c0,0,0,0,0,0.001L94.411,189.977z M90.33,193.092
	l0.005,0.135c-0.062,0.014-0.121,0.027-0.172,0.038c-0.264,0.061-0.543,0.123-0.664,0.14c-0.298,0.058-0.485,0.202-0.556,0.429
	c-0.11,0.352,0.15,0.62,0.26,0.733c0.455,0.471,1.087,0.651,1.804,0.61c-0.147,0.107-0.284,0.232-0.444,0.392l-0.221,0.224
	l-0.25-0.018c-0.211-0.013-0.645-0.083-0.93-0.161c-0.862-0.235-1.322-0.322-1.697-0.322c-0.036,0-0.065,0-0.07,0.005
	c-0.199-0.231-0.695-1.366-0.969-2.457c-0.105-0.418-0.265-1.193-0.388-1.831c1.825,1.23,2.931,1.632,4.191,1.548
	c0.167-0.012,0.326-0.03,0.48-0.055C90.33,192.783,90.33,192.92,90.33,193.092z M94.758,186.058c0,1.109-1.533,3.218-3.164,3.939
	c-0.939,0.418-1.832,0.315-2.39-0.275c-0.469-0.495-0.665-1-0.976-3.186c-0.192-1.374-0.241-1.622-0.404-2.281
	c-0.131-0.504-0.407-1.132-0.669-1.539c0.335-0.121,0.551-0.257,0.789-0.47c0.172-0.158,0.498-0.545,0.506-0.883l-0.007-0.263
	l-0.166-0.152c-0.328-0.302-1.844-0.236-1.858-0.235c-0.238,0.018-0.465,0.045-0.689,0.085c0.007-0.04,0.007-0.077,0.007-0.113
	l-0.017-0.285l-0.21-0.149c-0.218-0.153-0.693-0.135-1.183-0.057c0.21-0.072,0.415-0.137,0.608-0.193l0.582-0.175
	c0.074-0.026,0.32-0.09,0.555-0.145c3.223-0.759,5.659-0.354,6.86,1.134C93.615,181.658,94.758,184.941,94.758,186.058z
	 M77.765,185.337c0.041-0.114,0.085-0.23,0.132-0.346c0.287-0.721,0.398-0.894,0.674-1.113
	C78.282,184.347,77.993,184.867,77.765,185.337z M96.345,205.609c0.334-0.045,0.803-0.106,1.02-0.138h0.003
	c-0.769,0.201-1.558,0.349-2.326,0.432c-0.783,0.084-2.425,0.095-3.525,0.035C92.956,205.953,94.608,205.844,96.345,205.609z
	 M101.833,193.123c-0.5,1.022-1.199,1.951-2.197,2.923c-0.968,0.941-1.851,1.573-2.863,2.047c-0.455,0.212-1.511,0.573-2.02,0.692
	l-0.122,0.029c-0.113,0.027-0.226,0.054-0.264,0.065c-0.799,0.187-2.089,0.334-4.763,0.542c-2.245,0.179-2.705,0.238-2.95,0.329
	l-0.431,0.184l0.036,0.378c0.04,0.419,0.372,0.478,1.035,0.594c1.364,0.24,2.641,0.309,3.886,0.216
	c-0.237,0.083-0.435,0.169-0.545,0.256l-0.349,0.282l0.113,0.341c0.036,0.108,0.082,0.186,0.15,0.241
	c-1.841,0.024-3.795-0.028-5.078-0.175c-0.339-0.038-0.528,0.002-0.675,0.135l-0.168,0.156v0.222c0,0.211,0,0.501,1.602,1.082
	c0.417,0.151,1.057,0.312,1.711,0.431c0.563,0.105,2.968,0.106,3.678,0.004c1.273-0.187,2.342-0.352,2.596-0.403
	c0.921-0.177,2.499-0.446,3.178-0.543c0.218-0.027,0.592-0.078,0.835-0.112l0.807-0.11c0.222-0.029,0.446-0.065,0.669-0.106
	c-2.059,0.791-4.949,1.23-8.952,1.383c-3.514,0.137-3.514,0.137-3.664,0.537l-0.091,0.302c-1.293-0.426-2.622-1.026-3.74-1.697
	l-0.168-0.101c-0.711-0.422-0.711-0.422-0.934-1.326l-0.054-0.216c-0.42-1.665-0.677-2.433-1.833-5.478
	c-0.27-0.713-0.47-1.213-0.67-1.645c1.266,1.477,2.954,2.672,4.832,3.358c0.819,0.298,1.156,0.421,1.416,0.063
	c0.129-0.176,0.119-0.353,0.064-0.502c1.311,0.621,2.458,1.045,3.422,1.264c0.84,0.192,1.047,0.212,2.215,0.212
	c1.398,0,1.814-0.057,2.968-0.409c0.742-0.225,1.773-0.809,2.629-1.487c2.004-1.595,3.004-2.652,3.821-4.039
	c0.825-1.4,1.364-2.954,1.615-4.644C102.709,190.697,102.511,191.721,101.833,193.123z M66.923,243.806
	c-1.36-0.318-2.768-0.862-3.83-1.493c-1.761-1.045-3.333-2.683-4.224-4.394c0.355,0.33,0.726,0.659,1.034,0.915
	c1.076,0.892,2.347,1.805,4.856,3.491C65.633,242.91,66.358,243.408,66.923,243.806z M61.651,243.563
	c-1.423-0.724-2.132-1.369-2.503-2.189C59.916,242.202,60.755,242.933,61.651,243.563z M59.136,235.728
	c0.016,0.014,0.032,0.027,0.048,0.041c-0.193-0.093-0.378-0.173-0.554-0.238c-0.142-0.353-0.329-0.682-0.606-1.068
	c-0.497-0.69-0.609-0.976-0.623-1.402c0.251,0.144,0.418,0.316,0.605,0.616c0.173,0.262,0.329,0.743,0.333,0.866
	C58.338,235.036,58.539,235.21,59.136,235.728z M62.211,251.991c0.385,0.186,0.813,0.403,1.233,0.631
	c0.172,0.092,0.338,0.18,0.498,0.265c-0.325-0.07-0.72-0.155-1.219-0.266l-0.102-0.022
	C62.561,252.401,62.424,252.197,62.211,251.991z M60.462,221.237c0.003-0.005,0.005-0.01,0.007-0.015l0.36,0.015l0,0H60.462z
	 M67.168,219.119c0.038-0.021,0.086-0.05,0.139-0.084c0.002,0.035,0.006,0.078,0.011,0.125
	C67.27,219.148,67.219,219.134,67.168,219.119z M65.838,214.386c-0.076-0.051-0.152-0.103-0.226-0.156
	c0.231,0.124,0.369,0.218,0.489,0.317C66.001,214.489,65.911,214.434,65.838,214.386z M67.659,222.521
	c-2.07-0.088-3.646-0.673-4.685-1.737c-0.592-0.606-1.036-1.334-1.549-2.623c1.014,1.752,2.431,3.163,3.869,3.719
	c0.74,0.283,1.043,0.303,1.8,0.113c0.511-0.128,0.684-0.143,0.868-0.102c0.018,0.05,0.037,0.115,0.065,0.198
	c0.051,0.156,0.089,0.314,0.115,0.451C67.998,222.535,67.832,222.529,67.659,222.521z M64.641,211.083
	c-0.071-0.07-0.133-0.153-0.187-0.237c0.044,0.021,0.094,0.047,0.151,0.079l0.005,0.003c0.711,0.385,0.877,0.468,1.355,0.512
	l0.074,0.007l0.022,0.049c0.039,0.087,0.077,0.208,0.109,0.333C65.131,211.495,64.929,211.371,64.641,211.083z M65.468,208.759
	c-0.482-0.313-0.98-0.505-1.345-0.513c-0.389,0-0.606,0.242-0.84,0.503c-0.196,0.225-0.226,0.259-1,0.639
	c-1.035,0.502-1.369,0.75-1.752,1.537c-0.395,0.814-0.492,1.293-0.498,2.442c0,0.49,0.011,0.812,0.04,1.082
	c-0.029-0.069-0.055-0.13-0.079-0.182c-0.157-0.345-0.315-0.721-0.348-0.82c-0.055-0.222-0.02-1.465,0.093-1.996
	c0.518-2.391,2.122-4.492,3.957-5.128c0.46-0.162,0.808-0.284,0.83-0.764c0.021-0.003,0.042-0.006,0.062-0.01
	c0.023,0.041,0.049,0.088,0.077,0.142c0.371,0.721,0.649,1.646,0.762,2.532c0.021,0.177,0.036,0.367,0.046,0.539
	C65.471,208.761,65.469,208.76,65.468,208.759z
	 M307.463,138.519c-1.428,0.232-1.987,0.349-2.878,0.581c-1.356,0.354-3.542,1.223-3.542,1.406
	c0,0.066,0.028,0.061,0.775-0.033c1.146-0.144,1.655-0.249,3.598-0.725c0.686-0.166,1.395-0.338,1.577-0.382
	c0.996-0.238,2.308-0.415,3.077-0.415c0.321,0,0.548-0.022,0.548-0.055c0-0.1-0.288-0.244-0.686-0.343
	C309.495,138.441,308.039,138.425,307.463,138.519z
	 M310.784,141.192c-2.828,0.205-3.946,0.387-5.064,0.814c-0.786,0.304-1.555,0.753-1.456,0.847
	c0.061,0.061,1.417,0.039,1.749-0.028c0.343-0.066,0.725-0.161,2.114-0.498c1.434-0.349,1.921-0.404,2.961-0.354
	c1.085,0.055,1.467,0.044,1.832-0.061c0.315-0.089,0.742-0.376,0.742-0.498c0-0.138-0.531-0.26-1.218-0.282
	C312.096,141.126,311.349,141.148,310.784,141.192z
	 M297.584,142.515c-0.249,0.105-0.88,0.238-1.467,0.31c-1.749,0.216-2.308,0.338-2.906,0.637
	c-0.376,0.183-0.913,0.62-0.913,0.742c0,0.255,1.699,0.006,2.574-0.382c0.061-0.028,0.459-0.177,0.886-0.338
	c0.692-0.26,0.836-0.293,1.339-0.321c0.642-0.039,0.742-0.094,0.753-0.415C297.855,142.487,297.788,142.426,297.584,142.515z
	 M313.347,144.347c-1.284,0.127-3.315,0.432-4.472,0.664c-0.958,0.194-1.921,0.553-2.347,0.88
	c-0.26,0.194-0.161,0.221,0.648,0.183c1.273-0.066,2.701-0.266,4.882-0.681c2.225-0.426,2.85-0.476,3.703-0.304
	c0.747,0.149,1.428,0.155,1.716,0.006c0.227-0.111,0.52-0.421,0.476-0.498c-0.039-0.061-0.725-0.205-1.301-0.277
	C316.02,144.242,314.249,144.258,313.347,144.347z
	 M299.299,145.066c-1.14,0.138-1.937,0.354-2.828,0.769c-0.57,0.271-1.129,0.614-1.129,0.697
	c0,0.177,1.411-0.017,2.85-0.393c0.487-0.127,1.262-0.327,1.716-0.443l0.83-0.216l0.376,0.111c0.349,0.111,0.393,0.111,0.515,0.028
	c0.1-0.066,0.133-0.133,0.133-0.293v-0.21l-0.565-0.066C300.517,144.972,300.107,144.972,299.299,145.066z
	 M314.465,147.148c-3.088,0.149-5.518,0.642-7.118,1.428c-0.83,0.41-1.002,0.57-0.487,0.454
	c0.437-0.1,1.334-0.216,2.291-0.304c0.52-0.05,1.19-0.111,1.494-0.138c0.304-0.033,0.913-0.083,1.356-0.116
	c0.443-0.033,0.985-0.083,1.207-0.116c0.221-0.028,0.515-0.05,0.659-0.05c0.138,0,0.404-0.022,0.592-0.055
	c0.183-0.028,0.537-0.077,0.78-0.111c0.797-0.105,1.821-0.277,2.042-0.338c0.238-0.066,0.614-0.399,0.67-0.592l0.033-0.122
	l-1.317,0.006C315.943,147.098,314.952,147.125,314.465,147.148z
	 M300.351,149.633c-0.476,0.055-1.179,0.255-1.356,0.387c-0.127,0.094-0.133,0.111-0.044,0.205
	c0.232,0.255,1.356,0.443,2.07,0.343c0.537-0.072,0.725-0.138,0.924-0.315c0.227-0.216,0.199-0.382-0.083-0.504
	C301.58,149.627,300.888,149.572,300.351,149.633z
	 M317.343,149.893c-0.249,0.017-1.018,0.089-2.463,0.238c-0.26,0.028-0.88,0.077-1.384,0.111
	c-3.393,0.221-4.727,0.454-5.95,1.029c-0.482,0.227-1.218,0.736-1.157,0.797c0.083,0.083,1.251-0.05,2.928-0.332
	c0.155-0.022,0.902-0.172,1.66-0.327c3.216-0.648,3.636-0.703,5.203-0.675c2.657,0.05,2.895,0.044,3.293-0.1
	c0.382-0.138,0.941-0.515,0.941-0.637c0-0.05-0.111-0.083-0.338-0.111C319.74,149.854,317.891,149.854,317.343,149.893z
	 M301.679,153.064c-1.367,0.166-2.087,0.354-2.673,0.697c-0.327,0.188-1.007,0.841-1.007,0.963
	c0,0.116,0.293,0.221,0.625,0.221c0.343,0,0.714-0.172,1.45-0.675c0.603-0.41,0.62-0.415,1.113-0.476
	c0.277-0.039,0.587-0.066,0.692-0.066c0.504,0,0.958-0.293,0.924-0.592C302.781,152.937,302.731,152.937,301.679,153.064z
	 M316.153,153.042c-0.105,0.011-0.631,0.061-1.162,0.111c-1.417,0.127-3.1,0.332-3.753,0.465
	c-1.24,0.249-2.015,0.659-2.402,1.267c-0.194,0.31-0.194,0.393-0.011,0.393c0.133,0,0.919-0.172,1.267-0.271
	c0.47-0.144,2.679-0.681,3.21-0.78c0.952-0.183,1.904-0.271,3.017-0.271c1.362-0.006,2.098-0.144,2.707-0.515
	c0.57-0.343,0.498-0.365-1.35-0.399C316.945,153.031,316.258,153.031,316.153,153.042z
	 M321.688,155.483c-0.764,0.055-2.878,0.36-3.57,0.509c-0.122,0.028-0.432,0.083-0.692,0.116
	c-0.836,0.122-1.306,0.271-1.649,0.537c-0.172,0.127-0.343,0.415-0.343,0.57c0,0.066,0.172,0.072,0.343,0.006
	c0.338-0.133,1.456-0.299,3.199-0.476c2.518-0.255,3.537-0.454,4.5-0.88c0.482-0.21,0.437-0.26-0.31-0.36
	C322.756,155.45,322.252,155.439,321.688,155.483z
	 M297.954,161.577c-0.432,0.155-0.675,0.426-0.675,0.758c0,0.183,0.155,0.244,0.714,0.288
	c0.531,0.039,0.852-0.044,1.096-0.288c0.166-0.166,0.188-0.221,0.172-0.426c-0.017-0.221-0.028-0.244-0.238-0.31
	C298.641,161.472,298.275,161.466,297.954,161.577z
	 M294.29,162.811c-0.443,0.089-0.72,0.382-0.764,0.814l-0.022,0.277l0.21,0.061
	c0.476,0.133,1.041,0.044,1.411-0.221c0.221-0.155,0.393-0.504,0.371-0.758l-0.017-0.205l-0.47-0.011
	C294.75,162.767,294.429,162.784,294.29,162.811z
	 M316.524,165.601c-1.179,0.105-2.02,0.26-2.723,0.498c-0.404,0.133-1.052,0.448-1.135,0.553
	c-0.077,0.094-0.072,0.1,0.161,0.061c0.127-0.017,0.692-0.061,1.245-0.089c2.895-0.161,3.343-0.205,4.339-0.454
	c0.321-0.077,0.863-0.293,1.052-0.421l0.138-0.094l-0.188-0.039C319.031,165.534,317.343,165.523,316.524,165.601z
	 M330.627,166.182c-0.066,0.111,0.172,0.47,0.421,0.642c0.36,0.244,0.93,0.399,1.572,0.437
	c0.664,0.039,0.731,0.011,0.642-0.266c-0.149-0.443-0.476-0.67-1.162-0.791C331.595,166.116,330.677,166.105,330.627,166.182z
	 M315.046,169.287c-0.758,0.271-1.074,0.315-2.242,0.327c-1.074,0.011-1.611,0.077-1.987,0.244
	c-0.31,0.138-0.697,0.537-0.697,0.714c0,0.094,0.028,0.105,0.183,0.072c0.244-0.055,1.068-0.133,2.031-0.199
	c0.958-0.066,1.688-0.138,2.103-0.221c0.891-0.172,1.716-0.493,2.103-0.825c0.271-0.232,0.177-0.304-0.404-0.321
	C315.727,169.066,315.616,169.088,315.046,169.287z
	 M332.038,169.553c0,0.127,0.039,0.304,0.083,0.387c0.066,0.138,0.122,0.166,0.387,0.199
	c0.614,0.072,1.223,0.349,2.17,0.974c0.852,0.565,1.422,0.83,1.865,0.863c0.41,0.033,0.642-0.006,0.642-0.116
	c0-0.083-0.476-0.47-1.024-0.819c-0.863-0.559-2.203-1.129-3.598-1.539c-0.183-0.055-0.376-0.116-0.426-0.138
	C332.049,169.331,332.038,169.359,332.038,169.553z
	 M312.694,172.442c-0.852,0.055-2.042,0.149-2.823,0.216c-0.797,0.072-1.732,0.144-2.729,0.216
	c-0.41,0.028-0.753,0.066-0.769,0.077c-0.05,0.05,0.144,0.354,0.315,0.504c0.343,0.282,0.913,0.315,2.159,0.122
	c0.31-0.05,1.317-0.105,2.435-0.144c2.474-0.072,3.393-0.199,4.373-0.609c0.493-0.205,0.681-0.315,0.637-0.387
	C316.253,172.37,313.613,172.376,312.694,172.442z
	 M333.117,173.09c-0.232,0.044-0.216,0.122,0.089,0.415c0.327,0.315,0.642,0.509,1.173,0.725
	c0.448,0.177,1.755,0.548,1.793,0.509c0.055-0.055-0.249-0.509-0.52-0.758c-0.338-0.315-0.686-0.526-1.179-0.692
	C334.103,173.156,333.344,173.051,333.117,173.09z
	 M312.14,175.409c-2.042,0.166-3.277,0.41-4.068,0.803c-0.576,0.293-0.509,0.343,0.526,0.393
	c1.251,0.061,3.736,0.011,4.511-0.1c1.339-0.183,2.601-0.592,2.967-0.952c0.094-0.094,0.089-0.1-0.066-0.133
	C315.849,175.381,312.55,175.375,312.14,175.409z
	 M331.54,176.023c0,0.133,1.533,1.173,2.524,1.71c0.553,0.293,2.673,1.29,2.756,1.29
	c0.155,0-0.255-0.642-0.714-1.118c-0.576-0.587-1.411-1.068-2.518-1.445C332.459,176.073,331.54,175.879,331.54,176.023z
	 M312.306,178.364c-2.247,0.194-4.201,0.675-5.258,1.29c-0.432,0.255-0.393,0.277,0.421,0.238
	c0.41-0.022,1.267-0.066,1.904-0.094c2.214-0.105,3.365-0.266,4.544-0.631c0.553-0.172,1.351-0.576,1.351-0.686
	c0-0.061-1.323-0.177-1.91-0.172C313.087,178.314,312.611,178.342,312.306,178.364z
	 M332.807,179.554c-0.066,0.111-0.133,0.321-0.149,0.465c-0.017,0.216,0,0.288,0.094,0.382
	c0.066,0.066,0.188,0.116,0.277,0.116c0.249,0,0.985,0.293,1.55,0.609c0.277,0.161,0.681,0.36,0.897,0.448
	c0.443,0.183,1.085,0.343,1.162,0.293c0.1-0.061,0.044-0.376-0.127-0.703c-0.36-0.664-1.245-1.173-2.895-1.66
	c-0.149-0.044-0.365-0.1-0.482-0.116C332.946,179.355,332.924,179.366,332.807,179.554z
	 M308.57,181.353c-1.472,0.166-2.314,0.376-3.171,0.803c-0.509,0.249-0.98,0.609-1.207,0.924
	l-0.172,0.232l0.271,0.017c0.548,0.039,1.35-0.177,2.895-0.78c1.168-0.454,1.522-0.531,2.424-0.537c0.841,0,1.024-0.05,1.256-0.354
	c0.266-0.349,0.216-0.365-0.897-0.36C309.428,181.303,308.797,181.325,308.57,181.353z
	 M332.597,182.975c-0.055,0.061-0.055,0.31-0.011,0.648c0.006,0.017,0.155,0.05,0.338,0.066
	c0.41,0.044,0.913,0.271,1.6,0.714c0.625,0.404,0.963,0.542,1.334,0.542c0.343,0,0.354-0.061,0.066-0.426
	c-0.642-0.808-1.533-1.301-2.751-1.517c-0.183-0.028-0.371-0.066-0.421-0.083C332.702,182.908,332.636,182.931,332.597,182.975z
	 M308.515,184.702c-1.179,0.077-1.976,0.194-3.819,0.548c-2.336,0.454-3.299,0.808-4.024,1.489
	c-0.415,0.382-0.459,0.542-0.138,0.476c0.111-0.028,0.354-0.077,0.537-0.116c0.542-0.111,1.483-0.36,2.601-0.686
	c2.269-0.67,2.9-0.803,4.151-0.858c1.179-0.055,1.577-0.155,2.02-0.504c0.155-0.122,0.271-0.255,0.26-0.288
	C310.081,184.696,309.118,184.663,308.515,184.702z
	 M332.038,185.272c0,0.105,0.487,0.526,0.941,0.808c1.09,0.67,2.302,1.184,3.526,1.494
	c0.83,0.21,0.902,0.221,0.902,0.138c0-0.116-0.858-0.952-1.223-1.196c-0.908-0.603-2.092-1.035-3.343-1.212
	C332.193,185.211,332.038,185.205,332.038,185.272z
	 M305.886,187.917c-0.443,0.033-1.279,0.133-1.55,0.183c-1.063,0.194-1.649,0.321-2.795,0.614
	c-0.714,0.183-1.472,0.382-1.688,0.443c-0.21,0.061-0.476,0.133-0.581,0.161c-3.703,1.035-4.35,1.251-5.629,1.893
	c-0.637,0.321-1.467,0.863-1.5,0.98c-0.022,0.066,0.072,0.072,0.576,0.044c0.958-0.061,1.622-0.244,3.426-0.952
	c1.168-0.465,1.478-0.565,2.767-0.913c0.094-0.022,0.426-0.122,0.736-0.216c0.315-0.1,0.703-0.21,0.858-0.255
	c0.57-0.149,1.511-0.415,1.672-0.465c0.587-0.183,1.91-0.465,2.43-0.509c1.422-0.133,1.965-0.288,2.408-0.686
	c0.354-0.321,0.321-0.36-0.338-0.349C306.362,187.895,306.008,187.906,305.886,187.917z
	 M332.675,188.039c-0.149,0.017-0.249,0.05-0.221,0.066c0.033,0.022,0.315,0.116,0.637,0.216
	c0.775,0.238,1.572,0.603,2.79,1.267c1.135,0.62,1.898,1.002,2.009,1.002c0.105,0-0.017-0.227-0.338-0.62
	C336.593,188.798,334.219,187.857,332.675,188.039z
	 M330.605,189.495c-0.133,0.066-0.31,0.221-0.404,0.343l-0.166,0.227l0.565,0.039
	c1.279,0.083,2.142,0.399,4.096,1.489c0.504,0.282,1.146,0.614,1.428,0.747c0.537,0.244,1.207,0.454,1.262,0.393
	c0.061-0.061-0.205-0.421-0.515-0.697c-0.166-0.149-0.62-0.443-1.002-0.648c-0.83-0.443-1.124-0.631-1.422-0.908
	c-0.183-0.177-0.282-0.221-0.603-0.271c-0.415-0.072-0.946-0.238-1.577-0.504c-0.498-0.205-0.98-0.332-1.229-0.332
	C330.931,189.379,330.737,189.434,330.605,189.495z
	 M64.04,192.351c0,0.172,0.039,0.493,0.089,0.703c0.05,0.216,0.105,0.598,0.116,0.858l0.028,0.476
	l0.227,0.127c0.493,0.288,0.985,0.863,2.225,2.635c0.637,0.908,1.301,1.611,1.738,1.843c0.365,0.199,0.393,0.205,0.393,0.105
	c0-0.1-0.919-1.45-1.993-2.917c-1.184-1.627-1.887-2.651-2.374-3.481c-0.221-0.365-0.41-0.67-0.421-0.67
	C64.051,192.03,64.04,192.174,64.04,192.351z
	 M158.725,193.641c-0.327,0.077-0.869,0.393-0.869,0.504c0,0.083,0.493,0.044,0.786-0.066
	C159.367,193.807,159.428,193.474,158.725,193.641z
	 M287.433,194.216c-0.404,0.177-0.548,0.221-2.801,0.803c-0.697,0.177-1.428,0.509-1.898,0.852
	c-0.31,0.232-0.786,0.786-0.786,0.919c0,0.077,0.05,0.072,0.675-0.089c0.725-0.183,1.494-0.465,2.972-1.096
	c0.659-0.282,1.428-0.598,1.71-0.697c0.432-0.155,0.515-0.205,0.548-0.321c0.033-0.144-0.072-0.404-0.177-0.432
	C287.648,194.144,287.538,194.172,287.433,194.216z
	 M73.338,214.175c0,0.144,0.293,0.493,0.548,0.648c0.299,0.188,0.736,0.365,1.196,0.482
	c0.432,0.111,0.432,0.111,0.382-0.1c-0.127-0.576-0.814-1.007-1.721-1.074C73.427,214.103,73.338,214.114,73.338,214.175z
	 M95.09,216.156c0,0.055,0.26,0.321,0.421,0.426c0.183,0.127,0.742,0.299,1.212,0.387
	c0.52,0.089,1.771,0.105,2.197,0.017c0.664-0.127,0.863-0.183,1.151-0.31c0.343-0.149,0.498-0.271,0.498-0.393
	c0-0.072-0.282-0.077-2.253-0.044c-1.954,0.039-2.314,0.028-2.673-0.044C95.168,216.095,95.09,216.09,95.09,216.156z
	 M94.625,219.311c-0.055,0.083,0.858,0.36,1.904,0.57c0.565,0.111,0.797,0.127,1.993,0.127
	c1.245,0,1.395-0.011,1.854-0.127c0.559-0.149,1.323-0.487,1.273-0.57C101.605,219.245,94.664,219.245,94.625,219.311z
	 M93.729,221.813c-0.127,0.21,1.068,0.642,2.247,0.814c1.068,0.155,2.037,0.199,2.922,0.127
	c1.196-0.1,1.821-0.221,2.374-0.47c0.327-0.149,0.62-0.387,0.559-0.448c-0.017-0.017-0.266,0.006-0.548,0.05
	c-1.068,0.172-1.921,0.216-3.338,0.183c-0.764-0.022-1.489-0.05-1.611-0.066c-0.122-0.011-0.731-0.066-1.356-0.116
	c-0.62-0.044-1.151-0.1-1.173-0.111C93.79,221.763,93.751,221.78,93.729,221.813z
	 M74.927,221.962c-0.177,0.111-0.232,0.244-0.155,0.387c0.066,0.122,0.886,0.875,1.528,1.406
	c2.424,1.987,5.601,3.509,8.634,4.135c1.328,0.277,2.402,0.41,2.264,0.288c-0.028-0.022-0.454-0.21-0.946-0.415
	c-1.262-0.515-3.869-1.633-4.528-1.943c-2.723-1.267-4.876-2.552-6.155-3.659c-0.183-0.166-0.371-0.299-0.415-0.299
	C75.115,221.863,75.015,221.907,74.927,221.962z
	 M85.083,223.59c0.017,0.387-0.072,0.321,0.819,0.614c0.227,0.077,0.858,0.293,1.395,0.476
	c1.4,0.482,1.821,0.576,2.618,0.581c0.498,0.006,0.747-0.022,1.002-0.094c0.343-0.111,0.631-0.282,0.565-0.343
	c-0.033-0.033-1.046-0.288-2.535-0.637c-1.162-0.271-2.336-0.565-2.989-0.747C85.022,223.18,85.061,223.175,85.083,223.59z
	 M98.743,224.796c-0.531,0.022-1.406,0.077-1.937,0.116s-1.284,0.066-1.672,0.061
	s-0.72,0.017-0.736,0.039c-0.044,0.072,0.293,0.338,0.609,0.476c0.52,0.232,1.057,0.304,2.286,0.304c2.037,0,3.493-0.26,4.002-0.714
	c0.133-0.116,0.227-0.232,0.21-0.255C101.444,224.769,99.789,224.752,98.743,224.796z
	 M100.62,227.143c-0.039,0.039-2.219,0.365-3.011,0.448c-0.426,0.044-1.279,0.083-1.893,0.083
	c-0.62,0-1.124,0.022-1.124,0.044c0,0.072,0.493,0.321,0.83,0.421c0.542,0.161,1.279,0.255,2.297,0.288
	c1.284,0.044,2.053-0.028,3.005-0.293l0.299-0.083l-0.028-0.199C100.935,227.398,100.736,227.027,100.62,227.143z
	 M91.609,228.538c-0.565,0.216-2.214,0.703-2.773,0.814c-0.077,0.011-0.376,0.077-0.664,0.138
	c-0.924,0.205-1.932,0.349-3.819,0.565c-0.288,0.033-0.869,0.061-1.284,0.072c-0.52,0.006-0.769,0.033-0.786,0.077
	c-0.072,0.183,0.493,0.526,1.129,0.686c0.404,0.105,2.496,0.105,3.183,0c2.314-0.338,4.361-1.146,5.17-2.031
	c0.255-0.277,0.354-0.47,0.244-0.459C91.98,228.399,91.803,228.466,91.609,228.538z
	 M57.509,229.174c0,0.111,0.542,0.747,1.041,1.218c1.129,1.074,2.624,2.076,4.522,3.022
	c3.227,1.616,8.828,3.393,12,3.808c1.184,0.149,3.376,0.077,3.188-0.111c-0.017-0.011-0.327-0.1-0.686-0.194
	c-0.908-0.232-2.02-0.526-2.85-0.758c-0.382-0.105-0.814-0.227-0.969-0.266c-4.251-1.173-8.164-2.546-11.114-3.913
	c-1.677-0.775-4.112-2.131-4.86-2.712C57.558,229.097,57.509,229.08,57.509,229.174z
	 M99.076,231.272c-0.105,0.028-0.382,0.072-0.609,0.111c-1.649,0.249-2.779,0.487-3.625,0.753
	c-0.625,0.199-1.489,0.614-1.478,0.714c0.011,0.083,0.852,0.188,1.478,0.183c1.295-0.006,2.59-0.277,3.481-0.72
	c0.387-0.194,0.941-0.703,1.024-0.935C99.408,231.2,99.402,231.2,99.076,231.272z
	 M85.875,238.822c-2.928,0.293-2.828,0.293-3.409,0.127c-0.531-0.149-0.83-0.166-1.046-0.055
	c-0.166,0.089-0.443,0.404-0.443,0.515c0,0.017,0.703,0.066,1.566,0.105c0.858,0.039,1.86,0.089,2.225,0.116
	c1.251,0.1,2.258,0.05,3.26-0.144c0.537-0.111,1.279-0.365,1.428-0.504c0.111-0.1,0.111-0.1-0.127-0.144
	C88.864,238.761,86.622,238.75,85.875,238.822z
	 M81.989,242.757c-0.399,0.028-0.742,0.072-0.764,0.089c-0.077,0.083,0.504,0.399,1.052,0.576
	c1.517,0.487,3.897,0.559,5.48,0.166c0.664-0.166,1.041-0.371,0.819-0.437c-0.149-0.044-1.627-0.244-2.258-0.304
	C85.017,242.718,82.986,242.674,81.989,242.757z
	 M97.919,245.447c-0.498,0.089-0.858,0.21-1.168,0.399c-0.277,0.166-0.443,0.332-0.387,0.393
	c0.017,0.011,0.415,0.094,0.886,0.177c0.675,0.122,1.029,0.155,1.66,0.161c0.742,0,0.83-0.011,1.14-0.144
	c0.387-0.161,0.742-0.426,0.742-0.553c0-0.094-0.321-0.255-0.747-0.382C99.751,245.414,98.295,245.375,97.919,245.447z
	 M80.589,246.792c-0.354,0.044-0.47,0.083-0.47,0.144c0,0.055,0.083,0.094,0.277,0.122
	c0.155,0.017,0.504,0.077,0.775,0.127c3.005,0.553,4.456,0.703,5.59,0.559c0.67-0.083,1.317-0.255,1.461-0.393
	c0.089-0.083,0.072-0.089-0.852-0.221c-1.184-0.166-2.076-0.271-3.022-0.36C83.528,246.698,81.203,246.709,80.589,246.792z
	 M95.328,248.674c-0.205,0.094-0.404,0.282-0.404,0.382c0,0.072,0.089,0.116,0.664,0.327
	c1.212,0.454,3.05,0.587,4.566,0.343c0.83-0.133,1.107-0.21,1.124-0.321c0.028-0.138-0.249-0.415-0.542-0.542
	c-0.315-0.138-1.035-0.144-1.937-0.011c-0.349,0.05-0.935,0.089-1.306,0.089c-0.614,0-0.686-0.011-0.958-0.149
	C96.175,248.607,95.594,248.552,95.328,248.674z
	 M71.966,248.928c0.028,0.083,1.384,0.852,2.424,1.373c1.245,0.625,1.943,0.875,3.044,1.096
	c0.548,0.111,1.948,0.111,2.435,0c0.675-0.149,0.714-0.205,0.183-0.304c-0.476-0.089-1.522-0.426-3.432-1.118
	c-1.926-0.692-2.718-0.924-3.531-1.041C72.591,248.862,71.938,248.856,71.966,248.928z
	 M92.766,252.183c0,0.155,0.022,0.293,0.044,0.31c0.061,0.039,1.583,0.382,2.341,0.531
	c1.223,0.244,2.906,0.443,3.708,0.443c0.553,0,1.456-0.122,2.053-0.282c0.476-0.127,1.234-0.531,1.234-0.659
	c0-0.1-0.426-0.133-2.325-0.188c-2.784-0.083-5.861-0.26-6.819-0.399l-0.238-0.033V252.183z
	 M70.089,253.616c-0.083,0.033-0.094,0.216-0.017,0.266c0.033,0.017,0.055,0.077,0.055,0.133
	c0,0.127,0.697,0.553,2.02,1.229c1.046,0.537,2.087,0.98,3.127,1.317c1.66,0.548,2.845,0.786,4.456,0.897
	c0.786,0.055,1.085,0.055,1.843-0.017c0.498-0.05,0.935-0.116,0.963-0.144c0.066-0.066-0.044-0.116-0.736-0.36
	c-0.664-0.238-1.351-0.371-2.07-0.41c-0.52-0.022-0.686-0.05-0.775-0.127c-0.061-0.055-0.31-0.199-0.553-0.321
	c-0.376-0.194-0.515-0.232-0.913-0.266c-0.36-0.028-0.742-0.122-1.633-0.415c-0.642-0.205-1.301-0.393-1.467-0.41
	c-0.393-0.044-0.443-0.066-1.688-0.637c-0.576-0.266-1.256-0.553-1.511-0.631C70.77,253.589,70.267,253.539,70.089,253.616z
	 M94.183,255.238c-0.21,0.028-0.404,0.072-0.437,0.105c-0.044,0.044-0.033,0.061,0.028,0.061
	c0.05,0,0.161,0.039,0.244,0.083c0.089,0.044,0.244,0.083,0.349,0.083s0.343,0.022,0.526,0.05c0.188,0.028,0.537,0.077,0.78,0.111
	c0.244,0.033,0.797,0.111,1.223,0.172c0.88,0.122,1.932,0.227,3.625,0.365c1.212,0.094,1.672,0.072,2.065-0.116
	c0.238-0.116,0.531-0.432,0.531-0.581c0-0.1-0.028-0.105-0.26-0.066c-0.41,0.061-1.876,0.044-2.978-0.033
	c-0.548-0.039-1.544-0.105-2.214-0.155C96.109,255.21,94.67,255.177,94.183,255.238z
	 M91.769,264.487c-0.775,0.155-1.295,0.343-1.256,0.465c0.033,0.089,0.83,0.183,1.605,0.188
	l0.708,0.006l-0.033-0.127c-0.022-0.066-0.077-0.227-0.122-0.36l-0.089-0.232l-0.282,0.006
	C92.146,264.437,91.908,264.459,91.769,264.487z"/>
</svg>
