<svg width="400" height="400" viewBox="0 0 400 400" fill="none" xmlns="http://www.w3.org/2000/svg">
<path style="fill:#FFEE00;" d="M198.158,117.736c-25.078-0.061-50.156,3.155-74.428,9.409c-13.192,3.647-26.301,8.112-38.251,14.792
	c-9.597,6.079-17.032,16.178-18.322,27.652c-1.619,1.052-3.473,1.671-5.148,2.653c-3.457,1.794-7.139,3.295-10.417,5.345
	c-2.019,2.749-1.043,6.357-1.334,9.521c-0.079,13.463-0.558,26.964,0.034,40.404c0.383,2.682,0.523,5.903,2.702,7.817
	c1.571,0.885,3.482,0.342,5.177,0.789c3.038,0.335,6.161,0.632,9.15,0.949c0.811,9.194,6.677,17.14,13.891,22.508
	c11.06,8.561,22.819,16.905,36.505,20.551c15.443,4.122,32.959,2.527,46.326-6.652c6.636-4.517,11.536-10.975,16.031-17.539
	c4.99-7.064,9.932-14.544,17.5-19.023c2.34-1.132,5.065-0.245,6.933,1.356c7.991,5.391,12.466,14.304,18.323,21.733
	c5.794,7.823,13.027,15.136,22.41,18.399c17.36,6.752,37.719,4.241,53.637-5.127c9.424-5.409,18.316-11.834,26.116-19.412
	c4.224-4.648,7.169-10.561,7.765-16.828c4.594-0.439,9.205-0.863,13.774-1.435c2.45-1.341,2.584-4.535,3.051-6.952
	c0.704-6.375,0.278-12.807,0.391-19.207c-0.092-9.667-0.063-19.352-0.4-29.007c-0.18-1.765-1.233-3.581-3.073-3.986
	c-4.677-2.315-9.342-4.673-14.038-6.939c-1.038-11.083-8.089-20.811-17.109-26.981c-8.222-5.497-17.887-8.253-27.088-11.707
	c-25.253-8.527-51.924-12.029-78.482-12.989C205.909,117.739,202.034,117.706,198.158,117.736L198.158,117.736z M208.94,126.395
	c13.856,0.198,27.625,1.991,41.31,3.984c16.642,2.657,33.029,6.986,48.539,13.605c5.983,2.169,12.088,4.828,16.435,9.59
	c5.589,5.499,9.567,13.207,9.032,21.236c0.174,17.639-0.561,35.284,0.092,52.917c0.055,5.691,0.234,11.874-3.046,16.765
	c-3.674,5.749-9.525,9.59-14.871,13.632c-7.665,5.4-15.684,10.618-24.767,13.195c-9.538,2.914-19.965,3.147-29.556,0.275
	c-5.992-1.607-11.755-4.596-15.95-9.263c-8.305-8.318-13.519-19.279-21.997-27.447c-3.833-3.554-8.477-6.799-13.814-7.311
	c-5.431,0.076-10.093,3.475-14.022,6.887c-7.295,6.749-12.119,15.692-18.41,23.314c-3.99,5.078-8.888,9.789-15.027,12.077
	c-13.796,5.798-30.089,4.734-43.358-1.961c-9.106-4.414-17.309-10.519-25.144-16.879c-4.563-3.966-8.373-9.401-8.555-15.645
	c-0.546-7.36,0.221-14.734,0.077-22.103c0.128-14.411-0.392-28.828-0.118-43.232c0.889-8.025,6.349-14.84,12.518-19.624
	c6.033-4.41,13.342-6.467,20.158-9.329c18.208-6.864,37.404-10.695,56.747-12.752c10.606-1.341,21.291-2.137,31.987-1.907
	C201.115,126.43,205.027,126.388,208.94,126.395L208.94,126.395z M194.25,135.061c-26.169,0.22-52.274,4.237-77.398,11.463
	c-6.037,1.816-11.984,4.796-15.84,9.924c-6.058,7.738-7.619,17.744-9.361,27.16c-1.982,11.501-1.769,23.266-0.879,34.871
	c0.893,10.025,3.243,20.201,8.98,28.611c3.312,5.323,7.768,10.178,13.699,12.53c9.243,3.283,19.634,4.572,29.13,1.576
	c10.663-3.585,19.212-11.512,26.388-19.938c5.482-6.526,9.941-13.939,16.387-19.562c8.059-6.366,20.445-6.828,28.645-0.432
	c6.969,5.261,11.102,13.216,16.859,19.686c6.889,8.187,15.054,15.824,25.161,19.774c9.493,3.412,20.114,2.465,29.542-0.7
	c5.346-1.949,9.92-5.716,13.034-10.465c5.665-7.472,8.809-16.55,10.04-25.774c1.397-9.648,1.409-19.466,1.06-29.197
	c-0.683-8.639-2.049-17.288-4.681-25.56c-2.765-7.959-7.598-15.767-15.203-19.825c-9.484-4.996-20.268-6.649-30.701-8.645
	C237.713,136.811,215.983,134.968,194.25,135.061L194.25,135.061z M254.734,147.676c7.519,1.308,14.979,2.852,22.352,4.824
	c-11.177,30.242-22.354,60.483-33.531,90.726c-6.509-6.263-11.746-13.73-17.371-20.795c9.232-24.966,18.463-49.932,27.695-74.897
	C254.164,147.581,254.449,147.628,254.734,147.676L254.734,147.676z M291.397,160.236c4.174,4.849,6.5,11.018,7.951,17.19
	c-9.564,25.875-19.127,51.751-28.692,77.626c-4.657,0.319-9.357-0.511-13.639-2.312c11.409-30.888,22.824-61.775,34.245-92.659
	L291.397,160.236z M291.397,160.236"/>
</svg>
