<svg width="400" height="400" viewBox="0 0 400 400" fill="none" xmlns="http://www.w3.org/2000/svg">
<path style="fill:#0000FF;" d="M163.921,310.586c-4.287-1.798-3.939-10.682-0.747-10.905
	c19.891,4.641,57.776,4.644,77.681,0c3.191,0.224,3.539,9.107-0.747,10.905C220.654,316.105,183.376,316.105,163.921,310.586
	L163.921,310.586L163.921,310.586z M241.76,161.866c-18.258-5.287-61.185-5.281-79.42,0c-0.336-7.773,13.49-12.31,29.694-13.617
	c-1.744-2.189-2.793-4.956-2.793-7.973c0-7.073,5.734-12.809,12.81-12.809c7.073,0,12.81,5.735,12.81,12.809
	c0,3.016-1.049,5.784-2.794,7.973C228.27,149.557,242.096,154.093,241.76,161.866z M203.735,135.26c0-2.629-2.131-4.761-4.761-4.761
	c-2.629,0-4.76,2.132-4.76,4.761c0,2.629,2.131,4.761,4.76,4.761C201.604,140.021,203.735,137.889,203.735,135.26z M272.769,260.352
	c-3.878,12.93-12.929,23.935-31.431,35.879c-25.759,4.861-51.771,4.264-78.577,0c-18.503-11.944-27.554-22.949-31.431-35.879
	c-12.798-42.681,15.178-57.688,26.714-92.294c3.497-10.299,83.784-10.562,88.011,0C257.592,202.663,285.568,217.671,272.769,260.352
	z M241.702,174.079c-25.473-6.598-50.632-5.408-76.785-1.195c-1.928,27.987-59.945,64.642-7.469,110.247
	c-41.086-46.464,9.648-73.86,15.48-102.125C192.167,172.82,214.993,174.495,241.702,174.079z M256.348,208.14
	c20.48,45.225-5.544,76.421-38.242,82.76C264.081,285.04,279.809,248.38,256.348,208.14z M274.91,259.397
	c2.39-5.743,4.089-18.143,2.001-25.521c22.967,21.413,46.164-7.886,42.644-30.952c-5.016-32.872-57.414-42.961-50.873,2.72
	c-5.048-7.822-10.534-15.937-14.806-23.691c17.452-25.384,61.612-26.71,73.646,9.672C338.538,224.93,311.369,264.559,274.91,259.397
	z M319.866,193.526c8.94,26.41-9.265,57.694-32.221,52.535C317.015,256.601,335.319,216.459,319.866,193.526z M128.081,262.256
	c-16.288-23.819-0.849-67.606-27.008-78.744c-7.091-3.019-14.681-1.073-19.423-2.189c-7.49-1.763-2.627-4.266,1.848-4.966
	c5.869-0.918,10.595-3.569,15.005-9.707c21.672,4.826,32.694,33.125,55.87,3.286c-9.671,21.641-22.097,35.811-27.375,53.329
	C123.426,235.12,123.462,248.161,128.081,262.256z M144.467,183.644c-22.426,8.808-24.723-6.025-45.04-14.49
	c-3.516,4.836-6.397,5.655-11.727,8.366C116.445,170.102,118.896,199.091,144.467,183.644z M100.605,92.917
	c-1.374-3.719-3.548-6.246-4.951-7.642c0.767,1.758,1.171,3.291,1.397,4.4c0.329,1.612,0.394,2.865,0.459,4.129
	c0.075,1.461,0.136,2.637-0.042,4.191c-0.255,2.232-0.843,3.871-1.001,4.296c-0.688,1.854-1.538,3.104-3.209,5.529
	c-0.753,1.092-1.528,2.14-2.567,3.459c-2.11,2.677-3.783,4.531-5.005,5.901c-3.318,3.72-4.977,5.579-6.485,7.465
	c-2.713,3.392-5.015,6.802-6.981,10.701c-1.963,3.893-2.263,5.643-2.215,7.211c0.054,1.757,0.54,3.108,1.434,5.596
	c0.392,1.092,1.286,3.408,2.89,6.17c1.426,2.455,2.991,4.529,4.517,6.251c-0.291-1.048-0.688-2.556-1.093-4.386
	c-0.77-3.478-1.3-5.874-1.366-8.162c-0.128-4.426,1.5-7.78,3.127-11.134c1.691-3.486,3.496-5.758,6.097-9.033
	c3.034-3.821,3.87-4.187,6.994-7.942c3.933-4.726,5.899-7.089,7.162-10.045C100.432,108.319,103.59,100.998,100.605,92.917z
	 M99.7,104.492c-0.124,0.534-0.265,0.924-0.324,1.07c-1.245,3.101-2.877,5.453-2.877,5.453c-1.055,1.521-2.284,2.982-4.76,5.889
	c-1.881,2.208-2.838,3.297-3.754,4.339c-1.38,1.569-1.738,1.949-2.537,2.903c-1.265,1.511-2.131,2.666-3.122,3.992
	c-0.789,1.055-3.413,4.567-4.899,6.871c-0.177,0.275-0.825,1.288-1.782,2.526c-0.054,0.07-0.234,0.296-0.595,0.748
	c-0.906,1.136-1.384,1.72-2.09,2.298c-0.714,0.584-0.892,0.531-0.955,0.496c-0.242-0.133-0.149-0.741-0.083-1.147
	c0.154-0.953,0.513-1.619,0.646-1.96c0.639-1.634,0.958-2.451,1.105-2.773c0.11-0.241,0.611-1.331,1.418-2.711
	c2.031-3.471,5.135-7.296,5.261-7.451c2.154-2.64,4.159-4.819,5.916-6.73c0,0,1.963-2.093,4.039-4.623
	c0.63-0.768,1.072-1.308,1.658-2.083c0.716-0.946,2.957-3.969,4.632-7.053c0.433-0.798,0.967-1.538,1.418-2.326
	c0.747-1.304,0.939-1.541,1.14-1.515C99.766,100.785,99.96,103.38,99.7,104.492z"/>
</svg>
