<svg width="400" height="400" viewBox="0 0 400 400" fill="none" xmlns="http://www.w3.org/2000/svg">
<path style="fill:#0000FF;" d="M195.939,135.745c-7.345-9.913-14.578-19.675-22.186-29.944c8.442,0.074,16.734,0.146,24.997,0.218
	v26.379C197.813,133.515,196.881,134.624,195.939,135.745z M138.663,144.403c-8.464-0.074-16.647-0.145-25.245-0.22
	c24.273,41.499,48.338,82.641,73.804,126.18C170.345,226.584,154.459,185.378,138.663,144.403z M63.615,136.729
	c12.667,0.111,25.03,0.218,37.713,0.329c-3.343-10.714-6.566-21.041-9.887-31.683C82.046,115.962,72.884,126.286,63.615,136.729z
	 M192.338,143.761c-15.678-0.137-31.094-0.271-46.798-0.408c16.337,42.16,32.531,83.952,49.16,126.868
	C193.898,227.227,193.116,185.4,192.338,143.761z M105.626,144.459c-13.208-0.115-26.167-0.228-38.929-0.34
	c38.045,42.071,76.039,84.086,114.493,126.609C155.732,228.187,130.602,186.194,105.626,144.459z M106.696,131.907
	c14.585-8.589,28.992-17.073,43.575-25.661c-17.715-0.155-35.099-0.306-52.87-0.461C100.581,114.723,103.6,123.208,106.696,131.907z
	 M138.635,137.003c7.06-9.845,14.035-19.57,21.557-30.058c-16.371,10.2-31.903,19.877-47.875,29.829
	C121.419,136.852,129.952,136.927,138.635,137.003z M167.171,105.8c-6.948,10.503-13.753,20.788-20.531,31.034
	c14.173,0.124,28.151,0.246,42.598,0.372C181.726,126.515,174.514,116.251,167.171,105.8z M198.75,296.599
	c-0.083,0.09-0.165,0.18-0.248,0.27c-47.63-52.25-95.181-104.415-142.895-156.757c11.475-12.98,22.951-25.961,34.426-38.941
	c36.239-0.019,72.478-0.039,108.717-0.058v-4.08c-36.947,0.013-73.893,0.026-110.84,0.038C75.273,111.434,62.637,125.798,50,140.161
	c49.505,54.289,98.956,108.518,148.497,162.846c0.084-0.091,0.169-0.182,0.253-0.273V296.599z"/>
<path style="fill:#FF0000;" d="M201.25,97.031c37.196-0.013,74.392-0.026,111.589-0.039c12.387,14.211,24.774,28.421,37.161,42.632
	c-49.583,53.471-99.167,106.942-148.75,160.414v-6.156c47.631-51.756,95.128-103.365,142.73-155.089
	c-11.073-12.652-22.071-25.219-33.03-37.741c-36.567,0.02-73.134,0.039-109.7,0.058V97.031z M205.242,135.226
	c13.265,0.116,26.307,0.23,39.833,0.348c-5.77-10.008-11.291-19.585-16.916-29.342C220.415,116.03,212.872,125.573,205.242,135.226z
	 M310.352,109.417c-3.667,8.589-7.333,17.178-11,25.767c11.843,0.103,23.685,0.207,35.528,0.31
	C326.705,126.801,318.529,118.109,310.352,109.417z M253.946,135.188c8.166,0.071,16.14,0.141,24.906,0.217
	c-14.496-9.37-28.322-18.307-43.005-27.798C242.288,117.422,248.172,126.389,253.946,135.188z M291.974,135.3
	c4.116-9.889,8.138-19.551,12.103-29.078c-20.47-0.179-40.748-0.356-62.218-0.543C259.231,115.948,275.531,125.582,291.974,135.3z
	 M201.25,143.366V269.82c15.497-42.806,30.586-84.483,45.637-126.056C231.61,143.63,216.475,143.498,201.25,143.366z
	 M201.25,106.042v23.381c6.547-7.794,13.01-15.489,19.497-23.211C214.223,106.155,207.742,106.098,201.25,106.042z M295.128,143.966
	c-26.841,42.339-53.543,84.459-81.566,128.662c41.188-43.943,80.683-86.081,120.278-128.325
	C320.684,144.189,307.87,144.077,295.128,143.966z M254.303,144.037c-15.59,41.893-31.115,83.61-47.248,126.963
	c27.248-43.179,53.57-84.888,79.941-126.677C275.96,144.227,265.168,144.132,254.303,144.037z"/>
</svg>
