<svg width="400" height="400" viewBox="0 0 400 400" fill="none" xmlns="http://www.w3.org/2000/svg">
<path fill-rule="evenodd" clip-rule="evenodd" d="M264.728 86.7098C240.858 91.8286 223.377 113.748 223.336 138.61C223.322 147.243 223.664 146.713 212.576 155.316C208.197 158.714 197.501 167.07 188.806 173.884C180.112 180.698 170.225 188.422 166.835 191.05C163.444 193.677 156.833 198.821 152.143 202.482L143.617 209.136L137.888 207.258C113.729 199.342 83.6015 214.109 73.9615 238.59C69.8577 249.01 68.5648 266.329 71.8951 266.266C72.6343 266.252 80.047 260.877 88.3673 254.323C114.006 234.122 119.108 234.126 134.103 254.351C145.425 269.62 143.411 275.267 120.175 293.395C102.877 306.888 102.362 307.512 106.852 309.484C138.285 323.291 177.131 294.582 177.148 257.533L177.15 250.765L181.726 247.112C184.242 245.102 197.946 234.377 212.178 223.278C226.41 212.178 239.173 202.178 240.54 201.055C241.907 199.931 245.981 196.713 249.593 193.903L256.162 188.795L260.246 190.134C295.463 201.684 330.106 174.657 330 135.713C329.982 129.059 330.589 128.81 312.5 142.866C294.344 156.975 294.242 157.042 289.515 158.134C281.787 159.917 275.795 156.493 267.576 145.598C255.387 129.437 256.589 122.693 274.111 108.917C292.42 94.5216 296.066 91.5293 296.343 90.6645C297.361 87.4909 274.452 84.6252 264.728 86.7098ZM230.312 171.546C235.327 174.604 235.805 179.772 231.486 184.266C222.687 193.422 176.92 227.449 174.021 226.989C167.736 225.99 164.62 218.318 168.59 213.614C170.166 211.746 180.882 203.212 212.742 178.451C224.502 169.312 225.806 168.799 230.312 171.546Z" fill="#0000FF"/>
</svg>
