<svg width="400" height="400" viewBox="0 0 400 400" fill="none" xmlns="http://www.w3.org/2000/svg">
<path style="fill:#B0FF30;" d="M292.642,327.548l-11.551-14.922c-0.289-0.371-0.734-0.589-1.204-0.589l-1.522-0.006V148.365
	C278.365,105.153,243.211,70,200,70c-43.212,0-78.365,35.153-78.365,78.365v163.666l-1.521,0.006c-0.471,0-0.915,0.218-1.205,0.589
	l-11.551,14.922c-0.355,0.459-0.416,1.08-0.163,1.602c0.256,0.52,0.786,0.85,1.367,0.85h182.876c0.581,0,1.11-0.33,1.366-0.85
	C293.059,328.628,292.997,328.006,292.642,327.548z M200,130.197c-25.831,0-46.846,21.013-46.846,46.844v90.238h-1.52
	c-0.842,0-1.522,0.68-1.522,1.522v-91.76c0-27.508,22.38-49.888,49.888-49.888s49.888,22.38,49.888,49.888v91.76
	c0-0.842-0.681-1.522-1.522-1.522h-1.522v-90.238C246.844,151.211,225.831,130.197,200,130.197z M210.414,212.573v2.733h-20.824
	v-2.733H210.414z M193.106,209.531V208.5h13.792v1.031H193.106z M214.889,218.347v4.9h-29.774v-4.9H214.889z M219.863,226.288v7.306
	h-39.725v-7.306H219.863z M227.322,236.637v10.914H172.68v-10.914H227.322z M227.32,233.593v-51.057
	c0-15.065-12.257-27.322-27.32-27.322c-15.063,0-27.32,12.257-27.32,27.322v51.057h-1.521c-0.841,0-1.52,0.681-1.52,1.521v-52.579
	c0-16.742,13.618-30.363,30.361-30.363c16.742,0,30.361,13.621,30.361,30.363v52.545c-0.018-0.825-0.689-1.488-1.517-1.488H227.32z
	 M236.018,250.593v16.687h-72.033v-16.687H236.018z M236.015,247.551v-69.66c0-19.859-16.157-36.018-36.015-36.018
	c-19.859,0-36.016,16.159-36.016,36.018v69.66h-1.522c-0.841,0-1.522,0.68-1.522,1.522v-71.182c0-21.538,17.523-39.06,39.059-39.06
	s39.058,17.522,39.058,39.06v71.148c-0.018-0.826-0.689-1.488-1.518-1.488H236.015z M246.844,270.323v18.133h-93.69v-18.133H246.844
	z M262.726,291.5v20.537H137.274V291.5H262.726z M134.232,167.122c0-36.267,29.504-65.772,65.769-65.772
	c36.264,0,65.768,29.505,65.768,65.772v122.856c0-0.841-0.681-1.522-1.521-1.522h-1.522V167.122
	c0-34.589-28.139-62.729-62.726-62.729c-34.586,0-62.726,28.141-62.726,62.729v121.334h-1.522c-0.84,0-1.521,0.681-1.521,1.522
	V167.122z"/>
</svg>
