<svg width="400" height="400" viewBox="0 0 400 400" fill="none" xmlns="http://www.w3.org/2000/svg">
<path style="fill:#0000FF;" d="M276.989,70.954c-6.074,3.351-18.66,22.884-18.66,28.96
	c0,2.634-0.504,2.665-8.734,0.525c-30.825-8.014-58.523,7.001-83.708,45.378c-3.167,4.826-8.118,12.377-11.002,16.78
	c-7.686,11.731-17.011,19.833-27.967,24.298c-14.119,5.754-16.063,6.782-19.983,10.574c-6.445,6.234-6.348,12.636,0.4,26.124
	c5.501,10.996,32.61,36.531,53.33,50.234c15.86,10.49,18.012,11.331,20.247,7.921c1.89-2.885,0.887-4.054-8.081-9.422
	c-27.214-16.292-58.433-46.316-60.333-58.026c-1.353-8.333,17.926-10.729,32.695-4.062c2.191,0.989,5.049,2.055,6.352,2.371
	c16.02,3.884,78.973,47.567,92.922,64.478c12.269,14.876,10.373,18.8-9.098,18.826c-11.814,0.016-13.432,0.481-11.162,3.215
	c3.426,4.128,16.581,5.286,26.083,2.295c12.241-3.853,12.407-4.314,12.407-34.477V242.73l2.63-6.352
	c3.503-8.462,7.163-14.947,14.195-25.151c23.836-34.59,24.415-69.962,1.518-92.762c-6.303-6.276-6.299-5.461-0.065-12.704
	c6.575-7.643,9.978-13.987,10.47-19.517C292.375,75.793,284.094,67.034,276.989,70.954z M281.991,82.099
	c3.705,3.705-1.528,14.252-9.649,19.445c-6.514,4.167-8.119,3.306-5.639-3.022C271.25,86.919,278.752,78.86,281.991,82.099z
	 M222.902,118.689c-0.281,9.092-17.309,36.223-34.038,54.23c-12.819,13.798-15.813,15.181-23.516,10.854
	c-4.682-2.629-4.679-2.598-0.78-7.668c1.71-2.224,4.746-6.706,6.748-9.96c4.701-7.644,27.378-35.746,31.932-39.573
	C215.955,115.899,223.077,113.042,222.902,118.689z M198.24,252.4c-3.58,0.725-3.813,1.894-4.113,20.559
	c-0.279,17.366-0.314,17.688-2.006,18.112c-3.082,0.774-8.285,5.987-10.367,10.388c-7.298,15.426,11.64,34.508,26.552,26.756
	c15.013-7.806,16.598-26.115,2.961-34.184l-4.549-2.692l-0.006-11.601C206.7,257.762,204.637,251.104,198.24,252.4z"/>
</svg>
