<svg width="400" height="400" viewBox="0 0 400 400" fill="none" xmlns="http://www.w3.org/2000/svg">
<path style="fill:#FF0000;" d="M229.606,200.701c-11.263,11.303-17.917,22.658-19.782,33.76l-1.087,6.494l-7.487,1.377v-18.017
	c2.315-10.426,8.816-21.056,19.363-31.64c3.927-3.947,8.149-7.916,12.49-11.86l-0.435,16.908
	C231.638,198.717,230.59,199.712,229.606,200.701z M246.331,202.687c3.955-1.304,7.408-2.403,10.553-3.373
	c3-0.922,5.567-1.833,7.621-2.703c0.798-0.337,1.271-0.61,1.544-0.786c-0.008-0.044-0.016-0.096-0.024-0.16
	c-0.1-0.072-0.281-0.185-0.578-0.321c-0.477-0.221-3.437-1.203-14.688,1.063c-3.802,0.802-7.757,1.845-11.76,3.1l-4.264,1.341
	l-0.168,6.529l3.133-0.983c2.704-1.379,5.527-2.642,8.571-3.686L246.331,202.687z M268.817,109.096
	c0.834,10.083-0.333,19.589-3.457,28.245c-2.988,8.283-7.099,15.863-12.213,22.529c-1.671,2.172-3.458,4.274-5.284,6.347
	c3.993-0.559,8.046-0.784,12.135-0.648c1.209,0.04,2.388,0.181,3.576,0.287c4.433-6.172,8.082-13.028,10.775-20.49
	c3.129-8.656,4.292-18.161,3.461-28.245c-0.858-10.384-3.181-18.466-7.115-24.731c-3.441-5.454-7.815-9.821-12.918-13.315
	c1.399,1.66,2.733,3.396,3.93,5.293C265.64,90.629,267.962,98.711,268.817,109.096z M201.25,112.227
	c2.548,0.08,4.469,0.834,5.823,2.308c1.721,1.893,2.675,3.838,2.836,5.78c0.108,1.32-0.461,3.79-3.782,8.094
	c-1.417,1.838-3.047,3.815-4.876,5.915v69.911c3.55-5.749,8.141-11.465,13.772-17.115c5.07-5.102,10.537-10.252,16.244-15.318
	c0.723-0.642,1.413-1.314,2.12-1.971l0.002-0.074l0.118-0.037c4.872-4.544,9.372-9.436,13.355-14.619
	c4.605-6.004,8.311-12.847,11.018-20.339c2.727-7.553,3.738-15.899,3.004-24.812c-0.738-8.924-2.719-16.008-5.888-21.057
	c-8.976-14.227-25.317-20.472-48.568-18.555c-1.729,0.143-3.455,0.331-5.177,0.564V112.227z M201.25,120.28v0.395
	c0.042-0.076,0.093-0.163,0.127-0.228C201.34,120.396,201.294,120.337,201.25,120.28z M212.908,276.861
	c3.104,0.185,5.984-0.144,8.563-0.975c2.575-0.834,4.825-2.062,6.69-3.65c1.869-1.592,3.425-3.722,4.621-6.325
	c1.231-2.683,1.087-5.9-0.433-9.558c-1.512-3.638-4.978-6.726-10.308-9.173c-5.351-2.459-10.493-2.643-15.278-0.541
	c-2.097,0.93-3.94,2.163-5.514,3.649v22.976c0.475,0.282,0.972,0.552,1.507,0.797C206.391,275.729,209.808,276.672,212.908,276.861z
	 M237.957,172.833l-0.441,0.136l-0.59,22.951l0.858-0.269c4.135-1.3,8.23-2.378,12.165-3.205c8.736-1.765,14.548-2.026,17.271-0.774
	c1.64,0.754,2.575,1.717,2.86,2.948c0.293,1.275,0.229,2.386-0.189,3.297c-0.281,0.614-1.159,1.576-3.726,2.663
	c-2.186,0.923-4.881,1.885-8.022,2.852c-3.12,0.959-6.546,2.054-10.485,3.349c-14.516,4.978-24.876,14.038-30.8,26.933l-0.297,0.646
	l19.068,6.55l0.281-0.349c4.183-5.182,10.725-9.053,19.453-11.507c3.55-0.999,7.288-1.925,11.114-2.755
	c3.858-0.83,7.617-2.021,11.174-3.538c3.566-1.524,6.947-3.65,10.039-6.317c3.12-2.687,5.675-6.165,7.589-10.332
	c1.917-4.171,2.816-7.837,2.671-10.89c-0.433-8.619-6.165-15.522-17.038-20.516c-6.442-2.96-13.513-4.589-21.025-4.837
	C252.388,169.62,245.008,170.619,237.957,172.833z M304.085,200.737c-0.164-3.303-1.02-6.356-2.421-9.202
	c0.207,1.092,0.366,2.203,0.423,3.35c0.185,3.79-0.814,7.99-3.044,12.843c-2.166,4.717-5.078,8.672-8.656,11.752
	c-3.421,2.948-7.164,5.302-11.126,6.995c-3.806,1.62-7.817,2.888-11.936,3.778c-3.738,0.81-7.392,1.717-10.862,2.695
	c-7.877,2.214-13.709,5.615-17.335,10.108l-2.122,2.627l-22.148-7.614l-1.3,2.829c3.329,0,6.734,0.769,10.196,2.358
	c3.689,1.697,6.557,3.743,8.766,6.047l6.484,2.228l2.122-2.627c3.626-4.492,9.458-7.894,17.335-10.108
	c3.465-0.979,7.119-1.885,10.866-2.695c4.111-0.886,8.126-2.158,11.932-3.778c3.963-1.693,7.705-4.043,11.126-6.991
	c3.578-3.084,6.49-7.039,8.656-11.756C303.271,208.723,304.269,204.523,304.085,200.737z M237.456,259.194
	c0.504,2.996,0.251,5.798-0.911,8.333c-1.452,3.161-3.373,5.772-5.708,7.761c-2.286,1.945-5.018,3.441-8.114,4.444
	c-3.076,0.991-6.474,1.384-10.096,1.167c-3.542-0.212-7.369-1.242-11.378-3.055v22.279c0.337-0.339,0.676-0.678,0.997-1.026
	c3.582-3.875,6.229-8.114,7.881-12.602c0.05-0.136,0.078-0.286,0.126-0.424c1.494,0.34,2.96,0.592,4.37,0.676
	c1.279,0.078,2.49-0.016,3.709-0.091c-0.24,0.824-0.448,1.664-0.741,2.462c-2.021,5.495-5.23,10.649-9.538,15.318
	c-2.02,2.187-4.299,4.21-6.805,6.068v13.477c6.258-3.078,11.575-6.953,15.794-11.52c4.308-4.669,7.516-9.823,9.538-15.318
	c1.517-4.129,2.317-8.622,2.419-13.396c1.385-0.752,2.67-1.619,3.834-2.612c2.334-1.989,4.256-4.601,5.708-7.761
	c1.737-3.782,1.612-8.126-0.369-12.903C237.988,260.026,237.683,259.625,237.456,259.194z"/>
<path style="fill:#0000FF;" d="M154.836,241.19l43.914-8.078v9.679l-2.861,0.526c-6.002-1.851-12.996-2.487-20.976-1.83
	c-7.404,0.611-13.924,2.56-19.579,5.748L154.836,241.19z M198.75,271.333v-18.107c-0.772,1.124-1.487,2.381-2.13,3.784
	c-1.239,2.695-1.476,5.792-0.706,9.209C196.363,268.206,197.324,269.908,198.75,271.333z M198.75,312.262
	c-2.101,1.382-4.346,2.655-6.727,3.814c-6.357,3.096-14.034,5.034-22.818,5.76c-8.131,0.669-14.292-1.179-18.882-3.828
	c0.641,0.817,1.321,1.624,2.041,2.42c4.436,4.909,12.518,10.533,25.83,9.434c7.767-0.642,14.667-2.234,20.556-4.734V312.262z
	 M144.743,290.425c2.824-1.556,5.074-3.317,6.682-5.238c1.604-1.925,2.776-3.947,3.469-6.016c0.698-2.066,0.979-4.115,0.846-6.089
	c-0.136-1.973-0.77-3.999-1.885-6.024c-1.151-2.086-3.305-3.53-6.401-4.3c-3.084-0.766-6.746,0.004-10.886,2.282
	c-4.159,2.29-6.742,5.535-7.677,9.646c-0.429,1.925-0.509,3.839-0.241,5.68c0.269,1.845,0.975,3.818,2.102,5.864
	c1.155,2.094,3.048,3.73,5.631,4.869C139.015,292.258,141.827,292.03,144.743,290.425z M168.712,313.905
	c7.773-0.638,14.479-2.31,19.926-4.962c3.816-1.859,7.194-4.045,10.112-6.517v-25.898c-4.54-2.826-6.29-6.638-6.939-9.519
	c-0.979-4.328-0.65-8.323,0.983-11.868c0.592-1.289,1.269-2.433,1.967-3.536c-5.202-1.819-11.558-2.432-19.005-1.818
	c-10.078,0.83-18.18,4.517-24.153,10.949c2.255,1.114,3.993,2.651,5.101,4.662c1.352,2.455,2.126,4.949,2.294,7.416
	c0.168,2.415-0.172,4.901-1.011,7.388c-0.83,2.471-2.202,4.857-4.079,7.103c-1.877,2.242-4.448,4.272-7.637,6.028
	c-2.908,1.599-5.503,1.954-7.661,1.753c0.357,0.186,0.686,0.394,1.067,0.562c0.981,0.432,2.197,0.801,3.597,0.942
	c1.245,3.664,3.297,7.202,6.314,10.541C154.249,312.289,160.682,314.571,168.712,313.905z M134.848,262.052
	c2.867-1.578,5.569-2.457,8.121-2.784l4.549-3.133l-0.686-2.635c-1.171-4.5-0.582-9.911,1.757-16.08
	c1.031-2.711,2.194-5.515,3.461-8.331c0.638-1.414,1.197-2.858,1.71-4.313c0.029,2.35,0.111,4.712,0.308,7.096l0.112,1.376
	l38.657-7.111l0.148-0.866c0.932-5.559,2.861-11.125,5.764-16.669v-71.471c-1.116,1.231-2.287,2.496-3.522,3.798
	c-4.38,4.613-9.157,9.751-14.608,15.719c-13.297,14.936-21.671,31.204-25.1,48.583c-0.579-2.528-1.513-5.036-2.864-7.491
	c-2.078-3.774-4.32-6.43-6.863-8.13c-2.221-1.477-4.61-2.386-7.127-2.841c0.809,0.39,1.606,0.82,2.378,1.333
	c2.543,1.697,4.785,4.356,6.863,8.13c2.018,3.666,3.185,7.444,3.469,11.243c0.269,3.63,0,7.184-0.802,10.561
	c-0.774,3.245-1.873,6.454-3.269,9.546c-1.271,2.812-2.435,5.615-3.461,8.331c-2.342,6.165-2.932,11.576-1.761,16.08l0.686,2.635
	l-15.549,10.706l1.225,2.226C130.042,265.396,132.151,263.538,134.848,262.052z M158.953,152.578l-5.966,6.354l5.962,11.254
	l3.925-4.181c3.356-5.111,7.171-10.1,11.489-14.951l0.08-0.092c5.479-5.996,10.288-11.17,14.708-15.823
	c3.826-4.038,7.046-7.706,9.598-10.925v-3.775c-2.514,0.754-9.032,3.752-22.786,15.614
	C170.272,141.055,164.549,146.614,158.953,152.578z M153.194,147.191c5.784-6.165,11.708-11.916,17.6-17.087
	c12.69-10.949,22.079-16.904,27.956-17.748V71.273c-11.138,1.792-22.095,5.466-32.669,10.966
	c-12.979,6.758-24.563,15.514-34.426,26.027l-0.61,0.654l20.949,39.548L153.194,147.191z M124.147,213.283
	c0.164-0.678,0.217-1.115,0.233-1.372c-0.032-0.02-0.072-0.044-0.116-0.064c-0.092,0.028-0.253,0.092-0.485,0.217
	c-0.373,0.205-2.427,1.653-6.349,10.031c-1.304,2.848-2.523,5.912-3.626,9.105l-1.178,3.407l4.15,3.239l0.861-2.489
	c0.403-2.418,0.938-4.857,1.722-7.334l0.016-0.048c1.055-3.189,1.993-5.952,2.876-8.455
	C123.088,217.13,123.726,215.032,124.147,213.283z M138.927,252.883c-1.356-5.194-0.726-11.291,1.865-18.121
	c1.055-2.784,2.246-5.647,3.542-8.523c1.312-2.9,2.342-5.908,3.064-8.94c0.722-3.04,0.967-6.249,0.718-9.534
	c-0.245-3.309-1.276-6.63-3.056-9.871c-1.789-3.241-3.73-5.579-5.78-6.947c-5.792-3.854-13.011-3.449-21.462,1.203
	c-5.006,2.759-9.45,6.562-13.212,11.307c-3.754,4.745-6.646,10.003-8.591,15.639l-0.12,0.349l14.588,11.383l0.237-0.686
	c1.143-3.301,2.407-6.474,3.754-9.418c3.044-6.51,5.663-10.4,7.781-11.568c1.271-0.698,2.342-0.842,3.277-0.437
	c0.967,0.421,1.657,0.995,2.046,1.701c0.265,0.477,0.465,1.508-0.06,3.694c-0.445,1.857-1.119,4.067-1.993,6.566
	c-0.874,2.479-1.809,5.226-2.856,8.399c-3.73,11.788-2.828,22.85,2.691,32.87l0.277,0.501l13.38-9.217L138.927,252.883z"/>
</svg>
