<svg width="400" height="400" viewBox="0 0 400 400" fill="none" xmlns="http://www.w3.org/2000/svg">
<path fill-rule="evenodd" clip-rule="evenodd" d="M327.146 105.21C321.182 106.811 311.178 113.612 304.45 120.639C299.404 125.909 298.158 127.931 296.128 134.144C294.502 139.119 290.588 142.734 282.941 146.32C279.934 147.731 272.854 151.519 267.209 154.741C261.563 157.962 255.045 161.642 252.723 162.92C248.18 165.421 230.331 175.571 227.793 177.099C226.943 177.61 225.73 178.276 225.097 178.579C224.464 178.881 218.248 182.572 211.283 186.783C192.326 198.243 187.244 201.099 185.794 201.105C185.07 201.108 184.151 201.721 183.753 202.466C182.893 204.072 177.207 207.25 175.194 207.25C174.418 207.25 173.584 207.855 173.34 208.593C173.096 209.331 169.879 211.567 166.19 213.561C162.501 215.554 158.274 217.877 156.797 218.723C151.164 221.95 136.26 228.736 134.858 228.713C133.036 228.683 131.731 226.906 125.649 216.166C118.201 203.013 120.217 203.735 109.146 210.256C80.3674 227.208 68.5074 235.522 63.0774 242.552C57.2637 250.078 54.7695 255.157 50.9888 267.163C47.1379 279.393 54.8625 291.035 68.2809 293.228C70.7472 293.632 73.6282 294.193 74.684 294.477C87.7032 297.982 99.7183 294.805 128.018 280.376C131.818 278.439 137.343 275.661 140.297 274.203C143.251 272.744 145.842 271.328 146.053 271.055C146.264 270.783 148.062 269.767 150.049 268.797L153.661 267.034L147.171 254.536C139.953 240.634 139.8 240.065 142.791 238.206C143.953 237.486 145.593 236.309 146.436 235.591C147.281 234.873 152.288 231.842 157.564 228.852C162.84 225.863 167.516 223.147 167.957 222.816C169.78 221.445 177.249 217.994 178.394 217.994C179.074 217.994 180.083 217.451 180.633 216.786C181.979 215.165 187.064 212.622 188.959 212.622C189.8 212.622 190.764 212.128 191.101 211.524C191.651 210.542 195.612 208.403 219.725 196.063C223.313 194.227 227.975 191.742 230.085 190.54C232.196 189.337 238.412 185.915 243.899 182.934C253.182 177.891 272.25 167.383 290.971 156.993C299.759 152.116 297.607 152.417 312.622 153.966C320.931 154.822 333.929 150.802 344.271 144.174C351.002 139.861 351.564 136.59 347.196 127.137C339.722 110.957 333.023 103.632 327.146 105.21ZM329.79 118.747C343.444 136.144 340.516 145.479 321.407 145.469C304.566 145.46 301.017 134.923 313.232 121.193C320.139 113.43 325.048 112.705 329.79 118.747Z" fill="#0000FF"/>
</svg>
