<svg width="400" height="400" viewBox="0 0 400 400" fill="none" xmlns="http://www.w3.org/2000/svg">
<path style="fill:#B0FF30;" d="M205.005,105.813c0.619,0.391,1.163,0.715,1.686,1.072c0.304,0.208,0.516,0.134,0.747-0.106
	c1.393-1.442,3.179-1.995,5.103-2.081c1.011-0.045,1.151-0.581,1.247-1.386c0.751-6.261,0.799-12.552,0.712-18.84
	c-0.052-3.747,0.153-7.45,0.942-10.833c2.012,3.381,2.523,7.412,2.73,11.54c0.209,4.151,0.178,8.297,0.006,12.445
	c-0.014,0.335-0.002,0.67-0.002,1.221c1.817-2.444,3.354-4.836,5.227-6.927c1.449-1.618,1.619-3.059,0.741-4.947
	c-0.927-1.995-1.53-4.123-1.967-6.29c-0.208-1.035-0.687-1.968-1.164-2.953c1.356,1.008,2.742,1.98,4.061,3.035
	c1.343,1.075,2.054,2.634,2.883,4.184c3.075-4.625,3.941-10.297,7.718-14.608c0.699,1.05,0.834,2.171,0.866,3.286
	c0.058,2.056-0.68,3.948-1.396,5.825c-1.367,3.583-2.986,7.051-4.982,10.332c-0.324,0.533-0.395,1.019-0.266,1.617
	c0.813,3.769,0.221,7.336-1.489,10.776c-1.604,3.228-4.121,4.926-7.743,4.984c-0.89,0.014-1.778,0.145-2.668,0.199
	c-0.423,0.025-0.626,0.267-0.744,0.626c-0.123,0.373,0.175,0.541,0.403,0.673c0.883,0.509,1.791,0.973,2.68,1.473
	c0.381,0.215,0.591-0.075,0.85-0.232c0.803-0.487,1.622-0.556,2.445-0.069c0.833,0.493,1.128,1.269,1.069,2.197
	c-0.202,3.145-0.412,6.29-0.419,9.513c0.141-0.313,0.293-0.621,0.421-0.939c2.347-5.828,4.381-11.783,7.079-17.467
	c1.414-2.98,3.144-5.763,5.155-8.384c1.222-1.592,3.019-2.537,4.292-4.092c0.239,1.059-1.125,5.749-2.504,8.583
	c-1.32,2.711-2.736,5.376-3.86,8.161c10.328-6.579,19.954-14.201,31.185-19.223c-6.564,9.931-16.813,15.491-26.327,22.048
	c0.632-0.078,1.267-0.137,1.895-0.24c0.661-0.108,1.319-0.241,1.97-0.395c1.75-0.416,3.519-0.618,5.317-0.5
	c2.279,0.15,3.489,1.891,2.839,4.075c-0.387,1.299-1.204,2.287-2.19,3.19c-1.458,1.336-2.855,2.74-4.288,4.103
	c-1.406,1.337-2.825,2.66-4.306,4.053c1.976,0.929,4.029,0.937,6.088,0.851c0.384-0.016,0.507-0.456,0.711-0.727
	c3.101-4.138,6.139-8.325,9.311-12.408c1.65-2.125,4.074-3.389,6.275-5.201c-2.018,6.297-5.096,11.751-9.224,16.768
	c0.709,0.027,1.05-0.347,1.434-0.583c4.011-2.453,7.544-5.58,11.462-8.163c5.82-3.836,11.844-7.281,18.496-9.52
	c3.634-1.223,7.45-0.837,11.155-1.407c0.626-0.096,1.264-0.118,2.212-0.202c-0.467,0.219-0.655,0.337-0.86,0.399
	c-12.203,3.695-22.871,10.262-33.062,17.708c-2.397,1.751-4.744,3.568-7.262,5.148c-2.356,1.478-4.865,2.524-7.66,2.789
	c-0.262,0.025-0.482,0.062-0.663,0.297c-2.352,3.056-4.713,6.105-7.094,9.184c1.249,1.169,2.523,0.591,3.668,0.049
	c2.335-1.105,4.569-2.464,7.055-3.192c6.741-1.974,13.385-4.561,20.656-3.439c5.296,0.817,10.613,1.497,15.905,2.338
	c5.513,0.876,11,1.92,16.424,3.236c2.587,0.627,5.08,1.617,7.548,2.92c-3.372,1.3-6.729,1.472-10.102,0.958
	c-8.861-1.352-17.707-2.802-26.562-4.188c-5.147-0.805-10.279-1.147-15.329,0.645c-1.818,0.645-3.504,1.538-5.156,2.503
	c-3.95,2.307-8.319,3.15-12.771,3.703c-1.71,0.213-3.086-0.601-4.423-1.651c-1.207,1.299-2.395,2.574-3.578,3.853
	c-0.253,0.273-0.126,0.603-0.105,0.914c0.053,0.763,0.272,1.559,0.129,2.283c-0.303,1.537,0.413,2.32,1.675,2.929
	c0.829,0.4,1.591,0.942,2.369,1.442c0.771,0.496,1.291,1.127,1.523,2.086c0.891,3.683,0.551,7.432,0.692,11.152
	c0.28,7.373-0.646,14.728-0.378,22.104c0.084,2.323-0.502,4.548-1.105,6.762c-1.903,6.983-3.784,13.973-5.678,20.958
	c-1.652,6.093-3.255,12.206-5.098,18.238c-2.907,9.517-4.718,19.315-7.651,28.821c-0.52,1.684-0.604,3.502-0.887,5.242
	c1.905,0.588,2.668,3.08,1.608,5.204c-1.84,3.686-3.501,7.441-4.659,11.403c-0.025,0.087-0.021,0.183-0.03,0.27
	c2.076,0.91,2.892,3.108,2.123,5.899c-0.215,0.781-0.165,1.378,0.367,2.024c0.417,0.506,0.7,1.144,0.947,1.761
	c0.43,1.072,0.296,1.944-0.876,2.553c-1.527,0.794-1.485,1.095-0.396,2.456c0.997,1.246,1.546,2.57,1.031,4.331
	c-0.461,1.575-0.785,3.263-0.188,4.976c0.593,1.7,0.548,3.52,0.667,5.301c0.026,0.389-0.093,0.654-0.491,0.817
	c-7.816,3.21-15.879,5.581-24.238,6.824c-9.115,1.355-18.174,3.056-27.314,4.251c-3.686,0.482-7.394,0.349-11.086,0.615
	c-10.317,0.743-20.662,0.768-30.992,1.176c-3.195,0.126-6.376-0.148-9.549-0.544c-0.791-0.099-0.903-0.585-0.928-1.194
	c-0.095-2.275,0.913-4.273,1.61-6.348c0.443-1.321,1.118-2.591,0.894-4.06c-0.029-0.188,0.012-0.435-0.093-0.556
	c-1.187-1.37-0.529-2.368,0.433-3.578c1.843-2.32,3.402-4.866,5.797-6.713c0.455-0.351,0.431-0.724-0.172-1.002
	c-2.08-0.959-2.394-2.169-0.934-4.004c1.326-1.666,2.435-3.531,4.239-4.79c-1.572-1.249-1.706-2.14-0.719-3.874
	c0.677-1.191,1.579-2.143,2.676-2.953c1.142-0.843,1.869-1.816,1.593-3.449c-0.281-1.663,0.804-3.1,1.323-4.624
	c0.217-0.637,0.505-1.163-0.29-1.621c-0.387-0.223-0.403-0.701-0.353-1.13c0.155-1.344,0.72-2.491,1.63-3.491
	c1.33-1.461,2.788-2.838,3.911-4.447c1.155-1.654,1.202-3.734,1.379-5.695c0.132-1.46-0.014-2.926-0.237-4.385
	c-0.225-1.469-0.154-2.938,0.533-4.302c0.447-0.888,0.477-1.828,0.502-2.9c-1.628,0-3.217,0.003-4.806-0.001
	c-7.022-0.015-13.527-1.961-19.66-5.284c-0.418-0.227-0.801-0.521-1.195-0.792c-1.128-0.778-1.246-1.651-0.67-2.95
	c1.715-3.865,3.264-7.804,4.905-11.78c-2.596-0.225-5.084-0.119-7.549-0.452c-7.279-0.983-14.013-3.463-20.279-7.268
	c-1.06-0.644-0.558-1.23,0.079-1.681c1.165-0.824,2.585-0.847,3.937-1.021c2.134-0.275,4.301-0.179,6.404,0.064
	c4.184,0.485,8.197-0.364,12.243-1.085c2.605-0.464,5.198-0.989,7.803-1.455c0.612-0.11,0.913-0.401,1.111-0.991
	c1.081-3.226,2.688-6.283,3.068-9.733c0.051-0.466,0.165-0.818-0.509-0.965c-9.027-1.973-16.887-6.175-24.055-12.001
	c-5.942-4.83-9.225-11.252-12.199-17.996c-2.346-5.321-2.759-10.937-2.948-16.649c-0.128-3.88,0.285-7.711,0.455-11.564
	c0.064-1.449-0.231-2.858-0.301-4.289c-0.028-0.58,0.019-0.894,0.751-1.15c3.691-1.288,7.492-0.973,11.268-0.925
	c6.38,0.081,12.769,0.132,19.045,1.531c1.15,0.256,2.334,0.443,3.427,0.86c1.517,0.579,2.976,0.742,4.555,0.279
	c1.588-0.466,3.219-0.794,4.837-1.151c0.484-0.107,0.735-0.337,0.943-0.803c5.014-11.24,19.287-13.523,27.567-4.407
	c0.433,0.477,0.834,0.629,1.471,0.597c5.101-0.256,10.17-0.865,15.256-1.289c1.305-0.109,2.157-0.872,3.153-1.442
	c7.448-4.265,15.407-3.119,21.241,3.091c0.904,0.962,2.167,0.699,3.441,1.101c-1.337-3.169-1.913-6.322-2.493-9.486
	c-0.184-1.001-1.151-1.634-2.106-2.07c-4.184-1.91-7.553-4.585-8.981-9.211c-0.373-1.208-0.988-2.353-1.58-3.481
	c-2.017-3.846-3.422-7.895-4.181-12.17c-0.049-0.277-0.146-0.547-0.224-0.835c-1.129,0.217-2.221,0.4-3.301,0.639
	c-1.722,0.381-3.173-0.02-4.491-1.228c-3.177-2.914-5.804-6.083-6.115-10.665c-0.238-3.501-0.56-7.003-1.024-10.48
	c-0.576-4.321,0.363-8.507,0.905-12.76c0.762,2.436,1.981,4.712,2.216,7.318c0.456,5.053,1.013,10.097,1.458,15.151
	c0.337,3.828,2.883,6.198,5.461,8.564c0.385,0.354,3.841-0.35,4.066-0.798c0.073-0.145,0.029-0.371-0.014-0.547
	c-0.864-3.543-0.668-7.16-0.666-10.797c0.816,2.657,2.475,4.944,3.258,7.619c0.027,0.092,0.054,0.185,0.069,0.279
	c0.299,1.828,0.968,3.262,2.987,3.885c1.258,0.388,2.057,1.534,2.67,2.749c1.722,3.412,4.563,5.471,8.134,6.656
	c1.078,0.358,2.104,0.874,3.205,1.339c0.44-0.859,0.964-1.648,1.715-2.453c-1.764-1.152-3.566-2.072-5.391-2.952
	c-0.603-0.291-1.232-0.533-1.813-0.862c-0.761-0.432-0.998-1.149-0.809-1.973c0.193-0.847,0.787-1.314,1.64-1.354
	c0.974-0.045,1.952-0.01,2.999-0.01c-0.373-0.737-1.001-1.234-1.551-1.785c-4.478-4.492-5.833-11.048-3.335-16.897
	c2.196-5.143,5.299-9.729,9.005-13.91c0.055-0.062,0.158-0.082,0.369-0.187c-0.103,1.213-0.568,2.227-0.997,3.209
	c-1.697,3.888-2.976,7.94-4.786,11.786c-1.514,3.217-1.297,6.582-0.21,9.904c0.293,0.896,0.87,1.639,1.562,2.262
	c1.692,1.523,3.054,3.33,4.469,5.093C206.72,103.503,206.514,104.625,205.005,105.813z M92.483,150.755
	c0,3.032-0.018,5.997,0.005,8.962c0.022,2.838-0.272,5.699,0.159,8.51c0.932,6.069,3.574,11.418,7.378,16.18
	c2.696,3.376,5.675,6.558,9.291,8.923c5.386,3.523,10.922,6.828,17.328,8.3c2.605,0.599,5.226,1.086,7.859,0.628
	c4.269-0.742,8.515-1.631,12.745-2.575c9.686-2.161,19.252-4.672,27.775-10.066c0.504-0.319,0.646-0.525,0.41-1.096
	c-1.899-4.608-4.064-9.045-6.909-13.187c-5.761-8.388-13.395-14.602-21.989-19.816c-4.765-2.891-10.005-3.659-15.53-3.783
	c0.68,0.444,1.339,0.778,1.884,1.244c4.074,3.487,8.122,7.005,12.193,10.496c0.375,0.321,0.48,0.636,0.321,1.077
	c-0.171,0.476-0.575,0.596-0.997,0.582c-0.72-0.024-1.346-0.361-1.953-0.721c-2.468-1.466-4.898-2.999-7.409-4.388
	c-5.336-2.953-10.779-5.61-16.9-6.635c-5.437-0.91-10.836-2.005-16.378-2.147C98.781,151.167,95.823,150.496,92.483,150.755z
	 M229.529,208.2c1.213-2.158,2.346-4.181,2.746-6.438c1.068-6.033,1.552-12.137,1.784-18.256c0.284-7.496,0.101-14.99-0.198-22.483
	c-0.024-0.614-0.209-1.007-0.705-1.339c-3.318-2.22-6.72-4.334-10.38-5.899c-3.075-1.315-6.367-2.035-9.794-1.63
	c-0.482,0.057-0.684,0.195-0.836,0.673c-1.562,4.912-1.919,9.953-1.503,15.045c0.531,6.505,1.888,12.829,4.026,19.026
	c1.477,4.282,3.262,8.346,5.819,12.08C222.916,202.523,226.419,204.993,229.529,208.2z M181.17,193.03
	c-2.056,1.356-4.07,2.813-6.213,4.047c-1.147,0.661-1.655,1.57-2.007,2.727c-1.465,4.813-3.74,9.217-7.005,13.043
	c-3.494,4.095-7.554,7.63-11.888,10.784c-7.267,5.288-15.57,8.037-24.411,9.267c-0.552,0.077-0.84,0.246-0.992,0.803
	c-0.552,2.031-1.147,4.058-2.065,5.955c-0.464,0.959-0.187,1.394,0.726,1.695c4.509,1.483,9.103,1.328,13.582,0.192
	c8.16-2.069,15.957-5.108,23.084-9.694c1.688-1.086,3.435-2.069,4.824-3.577c3.484-3.783,5.727-8.365,8.02-12.856
	c3.417-6.693,5.035-13.881,4.635-21.451C181.445,193.657,181.509,193.317,181.17,193.03z M216.451,306.044
	c-0.9,0.168-1.809,0.299-2.699,0.51c-4.368,1.033-8.699,2.255-13.103,3.098c-7.516,1.438-15.093,2.53-22.713,3.293
	c-6.189,0.62-12.367,1.371-18.564,1.893c-6.262,0.527-12.519,1.071-18.773,1.694c-4.849,0.483-9.742,0.51-14.615,0.759
	c-1.134,0.058-2.264,0.196-3.651,0.32c1.052,0.631,1.946,0.449,2.781,0.578c3.539,0.544,7.105,0.827,10.683,0.738
	c8.267-0.205,16.499-1.004,24.744-1.585c10.747-0.757,21.527-1.26,32.035-4.014c4.281-1.122,8.753-1.391,13.001-2.718
	c2.007-0.627,4.04-1.172,6.057-1.762C213.411,308.329,215.053,307.39,216.451,306.044z M148.672,254.328
	c1.3-0.119,2.619-0.139,3.897-0.375c3.64-0.673,7.17-1.785,10.612-3.118c5.334-2.065,10.405-4.656,15.032-8.056
	c0.821-0.603,1.589-1.287,2.444-1.835c2.184-1.4,4.188-2.975,5.902-4.957c2.57-2.971,4.94-6.081,7.182-9.303
	c0.755-1.084,1.44-2.171,1.885-3.414c0.121-0.338,0.35-0.723-0.037-0.939c-0.447-0.249-0.698,0.181-0.868,0.508
	c-0.538,1.031-1.335,1.861-2.071,2.737c-3.298,3.926-6.373,8.045-10.264,11.447c-5.354,4.68-11.584,7.817-18.049,10.617
	c-4.93,2.136-9.909,4.051-15.21,5.023c-1.096,0.201-2.205,0.334-3.309,0.492c-0.491,0.07-1.067,0.173-1.035,0.758
	c0.031,0.582,0.638,0.392,1.015,0.403C146.754,254.345,147.711,254.327,148.672,254.328z M155.575,290.734
	c0.592,0.782,1.402,0.948,2.194,1.123c3.625,0.799,7.336,0.93,11.008,1.362c5.322,0.626,10.63,0.161,15.935-0.4
	c4.262-0.451,8.501-1.089,12.552-2.466c3.832-1.302,7.447-3.177,11.026-5.07c3.414-1.806,6.395-4.201,8.995-7.061
	c0.361-0.397,0.813-0.814,0.622-1.415c-0.199-0.627-0.781-0.758-1.372-0.867c-1.66-0.306-3.238-0.098-4.711,0.722
	c-0.373,0.208-0.975,0.186-1.041,0.865c0.398,0.049,0.77,0.143,1.139,0.129c0.475-0.017,0.946-0.132,1.421-0.182
	c0.322-0.034,0.732-0.277,0.903,0.217c0.147,0.423-0.216,0.626-0.479,0.843c-5.136,4.248-10.571,7.837-17.05,9.934
	c-6.749,2.184-13.599,3.382-20.62,3.751c-5.46,0.287-10.905-0.175-16.324-0.888C158.372,291.147,156.975,290.934,155.575,290.734z
	 M176.381,141.279c-3.735,2.114-5.486,10.253-3.761,16.724c1.769,6.635,8.262,10.866,16.588,10.809
	c5.86-0.04,12.911-5.537,14.293-11.144c1.228-4.98-0.336-12.885-2.818-14.24c4.615,9.948,0.761,17.254-3.936,20.583
	c-4.751,3.367-12.889,3.68-18.074-0.676C173.687,159.145,169.545,151.119,176.381,141.279z M193.44,281.546
	c-18.104,4.315-36.121,3.474-54.141-0.697c3.533,2.061,7.525,2.84,11.423,3.65C165.194,287.503,179.543,287.833,193.44,281.546z
	 M188.366,150.525c-0.77-0.58-1.466-1.13-2.191-1.64c-0.417-0.293-0.631-0.569-0.585-1.154c0.107-1.369-0.989-2.407-2.315-2.322
	c-1.283,0.083-2.223,1.245-2.035,2.514c0.194,1.302,1.434,2.097,2.78,1.782c0.617-0.144,3.238,1.486,3.293,2.086
	c0.017,0.183-0.161,0.392-0.273,0.575c-0.582,0.951-1.187,1.888-1.75,2.851c-0.188,0.322-0.349,0.545-0.773,0.583
	c-1.124,0.101-1.82,0.742-1.976,1.863c-0.15,1.072,0.302,1.892,1.297,2.315c0.948,0.402,1.845,0.206,2.512-0.591
	c0.752-0.897,0.729-1.865,0.045-2.808c-0.155-0.213-0.339-0.394-0.126-0.668c0.777-0.997,1.553-1.996,2.378-3.057
	c0.997,0.921,1.908,1.805,2.868,2.633c0.509,0.439,0.761,0.842,0.678,1.59c-0.134,1.198,0.928,2.195,2.137,2.211
	c1.252,0.017,2.254-0.996,2.225-2.249c-0.028-1.206-1.095-2.396-2.221-2.09c-1.238,0.336-1.733-0.384-2.391-1.03
	c-0.433-0.424-0.8-0.946-1.298-1.267c-1.15-0.74-0.96-1.423-0.153-2.306c0.623-0.683,0.963-1.481,2.232-1.197
	c1.17,0.262,2.177-0.897,2.181-2.122c0.004-1.224-0.956-2.195-2.176-2.202c-1.219-0.007-2.188,0.942-2.198,2.178
	c-0.003,0.403,0.113,0.777-0.23,1.153C189.637,148.884,189.049,149.68,188.366,150.525z M232.899,112.231
	c-2.298,6.414-4.78,12.572-7.411,18.771c0.72,0.091,1.419,0.449,1.815-0.103c1.425-1.988,3.035-3.847,2.779-6.646
	c-0.219-2.394,1.488-3.345,3.699-2.284c0.674,0.323,1.167,0.315,1.785-0.223c1.152-1.002,2.42-1.87,3.64-2.794
	c1.761-1.335,3.44-2.762,5.09-4.461C236.834,116.105,234.517,114.828,232.899,112.231z M148.391,204.68
	c-0.346,0.101-0.461,0.13-0.571,0.168c-4.06,1.404-8.049,3.026-12.257,3.971c-0.254,0.057-0.459,0.122-0.536,0.445
	c-0.694,2.914-1.692,5.735-2.63,8.574c-0.061,0.184-0.19,0.425-0.067,0.514C139.915,216.48,144.559,211.25,148.391,204.68z
	 M204.289,301.767c-2.102,0.495-4.213,0.957-6.306,1.489c-9.945,2.529-19.99,4.425-30.267,4.891
	c-10.047,0.456-20.037-0.121-29.954-1.772c-2.361-0.393-4.833-0.41-7.012-1.638c-0.117-0.066-0.396,0.005-0.507,0.11
	c-0.252,0.237-0.048,0.475,0.118,0.664c0.518,0.591,1.265,0.733,1.967,0.905c5.5,1.343,11.097,2.049,16.727,2.55
	c14.653,1.303,29.133,0.282,43.443-3.148C196.553,304.845,200.522,303.633,204.289,301.767z M189.294,108.932
	c0.105,0.324,0.191,0.655,0.316,0.971c1.73,4.362,4.156,8.394,6.018,12.704c0.831,1.923,2.902,3.012,4.928,4.068
	c0.139-3.227,0.211-6.264,1.037-9.199c0.194-0.689-0.041-0.945-0.567-1.27c-1.404-0.867-3.031-1.168-4.499-1.848
	C193.748,113.07,191.262,111.369,189.294,108.932z M171.05,299.897c-0.538-0.041-1.078-0.136-1.613-0.114
	c-5.397,0.227-10.783,0.107-16.136-0.651c-4.666-0.661-9.394-1.13-13.626-3.483c-0.978-0.544-2.099-0.953-2.73-2.283
	c3.068-1.053,6.065-2.081,9.061-3.11c-3.787-0.305-7.403-0.032-10.505,2.311c-0.866,0.654-1.102,1.45-0.363,2.384
	c0.565,0.714,1.29,1.221,2.043,1.71c2.91,1.891,6.242,2.546,9.551,3.214c6.386,1.291,12.863,1.438,19.346,1.265
	C167.776,301.096,169.453,300.676,171.05,299.897z M190.241,277.948c1.129,0.489,2.05,0.391,2.952,0.202
	c2.563-0.539,5.012-1.428,7.448-2.388c6.654-2.622,12.371-6.356,16.157-12.675c2.177-3.633,4.286-7.248,4.896-11.522
	c0.06-0.422,0.477-1.026-0.189-1.223c-0.623-0.184-0.853,0.46-1.041,0.914c-0.646,1.561-1.228,3.149-1.874,4.711
	c-1.78,4.301-3.905,8.454-7.333,11.65c-4.76,4.438-10.389,7.43-16.711,9.117C193.192,277.095,191.714,277.082,190.241,277.948z
	 M223.04,236.861c-0.695,1.666-1.446,3.304-2.095,4.971c-3.187,8.187-8.903,14.232-15.971,19.162
	c-2.352,1.64-4.784,3.169-6.956,5.052c-0.485,0.421-1.229,0.735-1.049,1.747c1.823-1.074,3.577-2.091,5.313-3.135
	c2.565-1.543,5.3-2.844,7.582-4.806c5.022-4.318,8.614-9.681,11.287-15.709C222.185,241.815,222.523,239.328,223.04,236.861z
	 M136.257,146.151c0.002,0.023,0.004,0.046,0.006,0.069c1.807-0.181,3.617-0.343,5.421-0.546c5.035-0.568,10.067-1.162,14.899-2.801
	c0.411-0.139,1.126-0.134,0.965-0.801c-0.159-0.661-0.831-0.453-1.311-0.404c-5.729,0.582-11.509,0.796-17.114,2.301
	c-1.626,0.437-3.253,0.869-4.88,1.305c-0.316,0.085-0.686,0.208-0.64,0.587c0.059,0.48,0.497,0.392,0.841,0.378
	C135.049,146.215,135.653,146.181,136.257,146.151z M178.469,272.601c-0.789,0.114-1.227,0.153-1.654,0.242
	c-5.061,1.058-10.187,1.673-15.328,2.123c-5.001,0.437-9.999,0.448-14.911-0.88c-0.422-0.114-1.091-0.345-1.267,0.247
	c-0.212,0.711,0.541,0.735,0.986,0.881c2.096,0.688,4.251,1.118,6.445,1.316c6.984,0.63,13.786-0.612,20.557-2.074
	C174.955,274.097,176.715,273.961,178.469,272.601z M208.314,133.327c0.484-2.144,0.958-4.222,1.413-6.304
	c0.043-0.199,0.031-0.478-0.078-0.633c-1.384-1.962-2.759-3.928-3.834-6.529c-0.273,3.767-0.461,7.13-0.357,10.497
	C205.498,131.657,206.83,132.954,208.314,133.327z M182.803,298.269c0.314,0.353,0.691,0.244,1.023,0.286
	c4.142,0.52,8.227-0.087,12.278-0.793c5.574-0.971,11.065-2.278,15.963-5.317c0.276-0.171,0.775-0.286,0.533-0.741
	c-0.253-0.477-0.62-0.076-0.904,0.048c-6.089,2.663-12.432,4.403-19.015,5.289C189.408,297.481,186.092,297.591,182.803,298.269z
	 M234.131,133.811c0.833-0.717,1.551-1.383,2.321-1.982c0.813-0.632,1.728-0.968,2.77-0.598c1.047,0.371,1.37,1.298,1.642,2.379
	c0.978-1.259,1.867-2.404,2.879-3.707c-2.602-0.202-4.772-1.213-6.969-2.136c-0.421-0.177-0.627,0.075-0.927,0.26
	C233.58,129.428,234.018,131.6,234.131,133.811z M215.455,123.197c0.981-0.806,1.431-1.839,1.803-2.918
	c0.419-1.213,1.085-2.104,2.567-1.936c0.153-1.025,0.368-1.99,0.264-2.984c-0.028-0.27,0.042-0.569-0.319-0.722
	c-1.16-0.491-2.31-1.007-3.484-1.523C215.335,116.41,215.233,119.741,215.455,123.197z M214.678,145.318
	c0.481-0.836,0.674-1.345,0.662-1.95c-0.041-2.041-0.06-4.082-0.056-6.124c0.002-1.453-0.092-2.888-0.89-4.148
	c-0.383-0.605-0.146-1.812-1.259-1.721c-1.119,0.092-0.676,1.253-0.963,1.912c-0.418,0.961-0.364,1.837,0.301,2.821
	c0.887,1.313,1.389,2.852,1.557,4.476C214.183,142.059,214.428,143.523,214.678,145.318z M220.807,102.873
	c2.339,0.229,4.919-3.32,4.86-6.796C223.989,98.424,222.409,100.633,220.807,102.873z M121.59,325.536
	c0,0.159-0.012,0.319,0.002,0.476c0.038,0.435-0.025,1.002,0.568,1.049c0.618,0.05,0.628-0.511,0.671-0.952
	c0.162-1.679,0.497-3.327,0.86-4.972c0.096-0.435,0.35-1.071-0.267-1.241c-0.703-0.195-0.749,0.523-0.89,0.98
	C122.066,322.397,121.725,323.945,121.59,325.536z M140.595,323.09c0-0.829,0.018-1.66-0.008-2.488
	c-0.012-0.374-0.197-0.716-0.621-0.719c-0.381-0.003-0.546,0.324-0.576,0.656c-0.162,1.783-0.193,3.567,0.044,5.347
	c0.044,0.327,0.17,0.653,0.565,0.666c0.445,0.015,0.568-0.33,0.649-0.693C140.855,324.936,140.672,324.012,140.595,323.09z
	 M157.247,320.989c0.024,1.499,0.184,2.888,0.566,4.242c0.119,0.423,0.311,0.965,0.856,0.857c0.621-0.122,0.395-0.686,0.345-1.114
	c-0.158-1.326-0.269-2.659-0.497-3.973c-0.123-0.708,0.354-2.002-0.666-1.97C156.946,319.061,157.428,320.356,157.247,320.989z
	 M206.505,113.99c3.015,1.124,2.77,4.424,4.341,6.547c0.86-1.887-1.017-5.801-3.669-7.682
	C206.875,113.173,206.605,113.509,206.505,113.99z M177.059,318.976c0.109,1.221,0.339,2.821,0.844,4.37
	c0.117,0.359,0.291,0.84,0.728,0.756c0.517-0.1,0.444-0.621,0.385-1.034c-0.244-1.727-0.736-3.419-0.697-5.185
	c0.009-0.388-0.159-0.691-0.625-0.656c-0.415,0.031-0.627,0.268-0.634,0.684C177.056,318.133,177.059,318.355,177.059,318.976z
	 M202.625,314.628c0.086,1.737,0.269,3.406,0.982,4.965c0.149,0.325,0.261,0.843,0.75,0.688c0.483-0.154,0.284-0.66,0.23-1.003
	c-0.247-1.566-0.48-3.138-0.834-4.681c-0.13-0.567,0.139-1.673-0.757-1.572C202.201,313.115,202.827,314.116,202.625,314.628z
	 M167.308,320.858c0.15,1.395,0.142,2.806,0.544,4.163c0.077,0.258,0.188,0.591,0.561,0.548c0.378-0.044,0.406-0.391,0.405-0.663
	c-0.009-2.041-0.223-4.067-0.52-6.083c-0.037-0.253-0.184-0.507-0.498-0.487c-0.362,0.023-0.469,0.329-0.482,0.614
	C167.288,319.584,167.308,320.221,167.308,320.858z M211.886,317.427c-0.49-1.756-1.067-3.836-1.658-5.912
	c-0.066-0.233-0.275-0.362-0.525-0.314c-0.344,0.067-0.476,0.342-0.432,0.644c0.317,2.151,0.983,4.202,1.818,6.203
	c0.097,0.233,0.241,0.35,0.515,0.297C211.965,318.277,211.942,318.028,211.886,317.427z M188.524,321.51
	c-0.24-1.604-0.478-3.209-0.72-4.813c-0.051-0.337-0.158-0.633-0.593-0.582c-0.411,0.048-0.508,0.361-0.514,0.69
	c-0.031,1.698,0.13,3.37,0.798,4.954c0.131,0.312,0.301,0.728,0.738,0.589C188.599,322.231,188.514,321.823,188.524,321.51z
	 M222.79,142.459c0.556-2.38,1.015-4.789,2.078-7.032C223.107,135.002,221.805,139.364,222.79,142.459z M130.222,326.695
	c0.127-0.092,0.327-0.158,0.36-0.273c0.583-1.996,0.837-4.038,0.795-6.115c-0.005-0.22-0.18-0.439-0.442-0.417
	c-0.314,0.026-0.384,0.302-0.423,0.559c-0.243,1.605-0.497,3.209-0.709,4.819C129.739,325.761,129.715,326.291,130.222,326.695z
	 M212.326,112.576c0.219-1.487,0.708-2.696,0.109-4.021c-0.446,0.106-0.889,0.159-1.293,0.316c-1.336,0.518-1.432,0.933-0.476,1.98
	C211.154,111.385,211.669,111.895,212.326,112.576z M149.257,326.26c0.288-2.47,0.144-4.645-0.084-6.819
	c-0.021-0.204-0.18-0.369-0.395-0.325c-0.316,0.065-0.324,0.352-0.333,0.609c-0.044,1.305-0.156,2.613-0.1,3.914
	C148.379,324.445,148.306,325.355,149.257,326.26z M196.994,320.906c0.504-1.018-0.09-5.616-0.658-6.233
	c-0.095-0.103-0.259-0.185-0.397-0.195c-0.229-0.017-0.356,0.173-0.347,0.371C195.687,316.886,196.026,318.866,196.994,320.906z
	 M218.117,316.162c0.179-0.453,0.289-0.641,0.328-0.843c0.368-1.891-0.5-3.604-0.807-5.397c-0.04-0.232-0.304-0.319-0.546-0.249
	c-0.333,0.097-0.447,0.382-0.399,0.674C217.004,312.237,217.461,314.09,218.117,316.162z M210.257,140.741
	c-0.289,1.337-0.492,2.277-0.713,3.299c0.535,0.092,0.975,0.167,1.523,0.261C210.802,143.137,210.574,142.134,210.257,140.741z
	 M206.637,140.903c1.001-2.592,0.88-3.04-0.837-3.147C206.071,138.777,206.334,139.766,206.637,140.903z M234.646,141.757
	c0.567-1.129,1.54-1.665,1.477-2.772C235.551,139.752,234.188,140.049,234.646,141.757z M217.376,126.611
	c-1.259,1.509-1.253,1.746,0,2.716C217.376,128.449,217.376,127.608,217.376,126.611z M229.197,137.839
	c-0.592,0.801-0.81,1.631-1.023,2.665C228.943,139.685,229.628,139.036,229.197,137.839z M228.68,148.795
	c0.776-0.283,1.234-0.758,1.151-1.783c-0.231,0.303-0.351,0.437-0.443,0.587C229.146,147.994,228.915,148.396,228.68,148.795z
	 M219.466,144.773c-0.288,0.491-0.438,0.747-0.652,1.111C219.789,146.025,219.597,145.515,219.466,144.773z M97.185,162.842
	c1.166,6.098,4.386,11.064,8.539,15.518c0.233,0.25,0.631,0.495,0.331,0.869c-0.316,0.394-0.639,0.014-0.906-0.166
	c-1.671-1.128-3.205-2.418-4.529-3.945c-0.646-0.745-1.276-1.503-2.001-2.359c-0.289,1.189,0.172,1.997,0.622,2.8
	c3.313,5.91,8.321,10.21,13.794,13.922c4.414,2.993,9.413,4.918,14.496,6.549c2.363,0.758,4.781,0.804,7.296,0.491
	c-16.564-7.462-29.421-18.771-37.269-35.464C97.003,161.649,97.069,162.236,97.185,162.842z"/>
</svg>
