<svg width="400" height="400" viewBox="0 0 400 400" fill="none" xmlns="http://www.w3.org/2000/svg">
<path fill-rule="evenodd" clip-rule="evenodd" d="M171.624 92.6206C171.624 92.9619 169.445 93.9662 166.782 94.8536C128.411 107.631 82.275 162.406 73.3298 205.808C72.8532 208.117 71.9359 210.973 71.2911 212.157C69.6903 215.092 69.5222 248.164 71.0978 250.062C71.6372 250.712 72.9779 253.101 74.0779 255.373C81.6081 270.921 107.712 287.546 124.277 287.343C133.593 287.228 152.343 280.526 158.84 274.988C159.361 274.543 161.886 272.857 164.45 271.241C167.015 269.625 169.223 268.203 169.358 268.081C169.935 267.56 168.104 265.201 155.842 250.668C151.699 245.758 147.229 240.33 145.909 238.606C143.214 235.085 142.431 234.851 140.225 236.906C139.378 237.695 138.484 238.341 138.239 238.341C137.993 238.341 136.124 239.437 134.084 240.776C128.386 244.517 120.67 248.086 112.258 250.873C102.348 254.155 102.775 254.225 102.671 249.28C102.008 217.699 110.571 193.536 132.647 164.685C153.704 137.165 170.584 124.915 189.928 123.117L194.243 122.715L194.357 127.623C194.603 138.3 190.974 159.059 187.476 166.964C187.127 167.753 186.123 170.174 185.244 172.344C184.365 174.513 182.528 178.872 181.161 182.028C177.944 189.459 177.741 193.73 180.391 198.251C185.398 206.795 203.637 227.557 205.257 226.555C207.759 225.009 220.129 203.846 222.992 196.213C223.697 194.33 224.453 192.627 224.671 192.43C225.258 191.898 229.599 179.341 231.616 172.344C232.582 168.99 233.503 165.864 233.662 165.397C234.017 164.356 257.896 180.141 272.054 190.776C295.745 208.573 312.187 230.816 312.217 245.107C312.23 251.278 307.343 267.767 307.227 261.944C307.188 259.962 297.244 241.159 293.051 235.137C284.35 222.642 271.617 209.211 263.68 204.156C262.564 203.446 261.491 202.678 261.293 202.451C260.601 201.654 252.259 196.016 251.771 196.016C251.5 196.016 249.577 194.93 247.498 193.603C243.903 191.306 240.559 189.639 234.588 187.167C229.052 184.875 231.46 187.543 241.015 194.284C280.032 221.814 297.79 242.536 300.518 263.716L300.969 267.212L287.408 266.84C271.805 266.412 263.898 264.804 250.175 259.274C244.743 257.086 226.143 247.471 226.143 246.852C226.143 246.511 225.803 246.231 225.386 246.231C224.496 246.231 216.834 241.16 213.231 238.186C211.849 237.046 207.653 233.581 203.904 230.486C170.365 202.786 164.117 184.19 180.352 160.387C185.93 152.21 190.275 144.885 190.275 143.66C190.275 142.76 185.686 142.698 183.988 143.576C183.303 143.93 180.103 144.56 176.877 144.976C163.747 146.669 156.374 152.711 143.456 172.365C132.691 188.74 132.494 208.498 142.933 224.711C143.314 225.303 144.067 226.755 144.606 227.939C148.918 237.408 164.683 256.05 176.287 265.407C193.495 279.28 200.366 283.97 214.665 291.602C219.966 294.432 234.01 300.483 237.798 301.57C241.617 302.665 241.363 302.584 242.642 303.115C247.643 305.193 267.937 308.212 275.282 307.971C292.329 307.411 298.775 305.324 306.882 297.741C314.026 291.057 322.555 278.667 327.319 268.047C340.87 237.845 301.427 185.033 245.411 158.378L236.413 154.096L235.503 148.693C235.002 145.722 234.433 141.677 234.237 139.704C233.336 130.631 229.588 121.295 224.776 116.136C220.368 111.411 201.763 98.2349 196.304 95.972C190.655 93.6308 189.558 93.073 189.558 92.5423C189.558 92.2437 185.523 92.0001 180.591 92.0001C175.658 92.0001 171.624 92.2794 171.624 92.6206ZM187.425 110.428C188.401 111.095 189.457 112.064 189.772 112.581C190.088 113.097 190.841 113.52 191.446 113.52C194.184 113.52 191.457 115.326 185.514 117.448C163.322 125.371 140.614 143.222 126.63 163.735C125.42 165.511 123.715 167.771 122.841 168.757C121.295 170.501 116.387 177.829 116.387 178.391C116.387 178.545 115.093 180.955 113.512 183.746C111.931 186.536 109.979 190.52 109.175 192.597C108.371 194.676 107.193 197.5 106.556 198.876C103.114 206.314 99.8331 219.436 98.1134 232.648C97.748 235.456 96.6751 250.775 96.7727 251.791C97.0627 254.811 90.6432 248.239 87.6447 242.446C71.7309 211.697 115.288 132.637 158.62 113.616C168.58 109.245 183.308 107.615 187.425 110.428Z" fill="#0000FF"/>
</svg>
