<svg width="400" height="400" viewBox="0 0 400 400" fill="none" xmlns="http://www.w3.org/2000/svg">
<path style="fill:#0000FF;" d="M196.665,195.17c-0.706-1.235-0.508-2.627-1.29-3.76c-1.36-1.971-2.158-4.149-2.18-6.569
	c-0.016-1.753,0.003-3.507-0.004-5.261c-0.003-0.689,0.207-1.291,0.455-1.943c0.726-1.907,2.343-3.436,2.243-5.709
	c-0.107-2.43,0.095-4.875-0.032-7.304c-0.098-1.871,0.122-3.9-1.46-5.409c-0.716,0.302-0.522,1.799-1.855,1.269
	c-0.169-0.558,0.158-0.924,0.249-1.339c0.377-1.72,0.979-3.664-0.061-5.109c-1.302-1.81-1.685-3.936-2.7-5.817
	c-0.267-0.495-0.847-0.782-0.851-1.465c-0.013-2.233-1.518-3.922-2.443-5.752c-1.068-2.115-3.203-3.564-4.78-5.399
	c-1.404-1.635-3.528-2.692-4.786-4.406c-2.614-3.559-6.407-5.592-9.894-7.902c-2.817-1.867-5.594-3.925-8.729-5.317
	c-2.349-1.043-4.521-2.516-7.125-2.947c-0.333-0.055-0.647-0.132-0.905-0.411c-2.024-2.18-4.957-2.346-7.536-3.186
	c-1.603-0.522-3.453-0.414-5.221-0.336c-3.158,0.14-6.312,0.196-9.453-0.478c-1.558-0.334-3.232-0.356-4.803-0.013
	c-3.813,0.831-7.653,0.645-11.496,0.526c-3.032-0.094-5.968,0.593-8.85,1.328c-1.144,0.292-2.487,0.249-3.447,0.949
	c-1.214,0.884-2.603,1.3-3.955,1.584c-2.478,0.52-4.69,1.661-7.027,2.504c-0.563,0.203-0.656,0.972-1.395,0.922
	c-1.285-0.087-2.339,0.705-3.369,1.241c-4.475,2.33-8.364,5.542-12.164,8.804c-2.823,2.423-5.447,5.102-7.773,8.04
	c-2.097,2.649-4.602,4.955-6.466,7.807c-1.28,1.958-2.193,4.099-3.299,6.142c-0.721,1.331-1.399,2.694-1.974,4.093
	c-0.81,1.971-1.04,4.101-1.179,6.19c-0.241,3.611-1.274,7.127-1.089,10.79c0.333,6.601-0.206,13.197,0.595,19.834
	c0.603,4.997,1.468,9.775,3.799,14.186c1.735,3.283,3.313,6.674,5.756,9.568c1.219,1.444,2.228,3.113,3.702,4.287
	c2.568,2.046,5.298,3.888,7.951,5.827c1.475,1.078,3.018,2.084,4.378,3.294c1.875,1.668,3.879,3.125,6.041,4.38
	c1.801,1.045,3.664,2.015,5.417,3.098c1.814,1.121,3.805,1.783,5.701,2.494c2.126,0.798,4.605,0.658,6.939,0.208
	c0.482-0.093,0.945-0.231,1.306-0.596c1.834-1.857,3.732-3.649,5.106-5.914c1.244-2.051,3.674-1.541,4.784,0.324
	c1.314,2.208,1.549,4.764,2.749,6.978c0.274,0.505,0.847,0.813,0.885,1.46c0.132,2.234,1.171,4.316,1.085,6.599
	c-0.031,0.816,0.078,1.666,0.289,2.457c0.808,3.031,1.361,6.143,1.447,9.234c0.087,3.118,1.376,4.213,4.541,5.031
	c0.37,0.096,0.875,0.115,1.072,0.364c1.094,1.385,2.558,1.53,4.161,1.487c1.797-0.048,3.745-0.304,5.346,0.416
	c3.127,1.406,6.436,2.362,9.478,3.965c0.715,0.377,1.832,0.258,2.303,0.781c1.589,1.768,3.982,2.001,5.857,3.304
	c1.971,1.37,4.379,2.383,6.706,3.362c3.253,1.368,6.368,1.01,9.49,0.164c2.059-0.558,4.017-0.729,5.979-0.001
	c1.405,0.521,2.67,0.558,4.074-0.024c1.559-0.647,3.241-0.738,4.821-0.024c1.168,0.528,2.425,0.918,3.43,0.124
	c1.172-0.926,2.582-2.032,1.367-3.922c-0.115-0.178-0.037-0.478-0.056-0.72c-0.147-1.886-0.001-3.86-0.528-5.634
	c-0.505-1.7-0.068-2.705,1.119-3.735c0.861-0.747,1.641-1.676,0.734-2.82c-0.481-0.606-0.817-1.257-1.284-1.948
	c0.957-0.496,1.942-1.033,2.397-1.872c1.082-1.99,2.521-3.877,2.34-6.376c-0.051-0.703,0.439-1.323,1.132-1.701
	c0.968-0.528,2.223-1.093,2.335-2.165c0.181-1.739,0.832-3.385,0.845-5.135c0.014-1.802,0.008-3.604,0.021-5.407
	c0.024-3.261,0.058-6.522,0.084-9.783c0.009-1.174-0.696-1.962-1.479-1.623c-0.426,0.184-0.678,1.03-1.283,0.427
	c-0.463-0.461-0.15-1.067-0.083-1.649c0.245-2.122,0.834-4.303-0.759-6.229c-0.498-0.603-0.568-1.409-0.132-2.055
	c0.794-1.178,1.741-2.254,2.551-3.423c0.482-0.696,1.326-1.343,1.251-2.194c-0.148-1.662,0.914-2.902,1.247-4.391
	C197.836,202.221,198.614,198.581,196.665,195.17z M82.451,230.092c-1.212,0.029-1.82-0.97-2.577-1.534
	c-4.844-3.603-9.656-7.258-14.331-11.076c-2.154-1.759-4.077-3.842-5.465-6.316c-1.156-2.06-2.222-4.172-3.415-6.209
	c-0.682-1.164-0.46-2.665-1.493-3.675c-0.457-0.446-1.088-0.788-0.953-1.618c0.07-0.432-0.013-0.947,0.473-1.131
	c0.509-0.193,1.083,0.127,1.268,0.482c1.527,2.935,4.306,4.763,6.331,7.258c3.405,4.197,6.754,8.437,10.155,12.635
	c1.549,1.911,3.368,3.751,5.426,5.05c1.309,0.826,2.922,1.236,3.899,2.559c0.58,0.785,1.346,1.482,1.543,2.516
	C83.456,229.786,83.197,230.162,82.451,230.092z M102.658,215.315c-0.258,0.504-0.516,1.308-1.227,1.244
	c-0.777-0.07-0.519-0.899-0.642-1.411c-0.135-0.56-0.174-1.144-0.238-1.59c0.004-0.618-0.034-1.198,0.638-1.218
	c0.923-0.028,1.257,0.8,1.553,1.433C102.939,214.195,102.878,214.885,102.658,215.315z M121.893,259.422
	c-0.069,0.61,0.127,1.404-0.946,1.419c-1.083,0.016-0.963-0.819-0.972-1.425c-0.008-0.538-0.209-1.342,0.849-1.336
	C121.78,258.086,121.97,258.612,121.893,259.422z M124.837,221.975c-2.887-0.549-5.646-1.613-7.731-3.885
	c-0.443-0.482-0.864-0.999-1.373-1.403c-0.595-0.473-0.666-1.118-0.512-1.695c0.186-0.696,0.802-1.108,1.554-1.12
	c1.607-0.026,3.214-0.008,4.821-0.008c0-0.009,0.001-0.019,0.001-0.028c1.462,0,2.928,0.068,4.384-0.026
	c0.859-0.055,1.395,0.492,1.881,0.912c1.249,1.08,3.034,0.764,4.274,1.926c1.375,1.29,1.238,2.747-0.286,3.861
	C129.682,222.095,127.275,222.439,124.837,221.975z M132.326,264.231c-0.138,0.034-0.291,0.005-0.553,0.005
	c-0.463-0.264-1.64,0.503-1.605-0.67c0.03-1.005,1.142-0.539,1.789-0.686c0.093-0.021,0.199-0.022,0.291,0.001
	c0.585,0.144,1.591-0.319,1.586,0.722C133.829,264.57,132.871,264.094,132.326,264.231z M139.22,204.598
	c-1.265,0.434-2.61,0.739-3.941,0.854c-1.694,0.146-3.409,0.054-5.115,0.043c-0.458-0.003-1.03,0.15-1.187-0.538
	c-0.128-0.559-0.035-1.046,0.431-1.451c1.378-1.2,2.5-2.616,3.572-4.093c0.969-1.335,1.654-2.746,1.865-4.385
	c0.029-0.227,0.153-0.442,0.274-0.778c1.165,0.358,1.633,1.11,1.518,2.031c-0.276,2.2,0.985,3.551,2.403,4.893
	C140.622,202.671,140.702,204.09,139.22,204.598z M150.585,233.827c-0.523,1.492-0.422,3.192-0.784,4.715
	c-0.508,2.136-0.73,4.25-0.757,6.415c-0.006,0.495-0.319,0.642-0.743,0.724c-0.717,0.14-1.364,0.043-1.822-0.563
	c-2.03-2.685-3.414-5.622-3.359-9.072c0.014-0.88-0.254-1.707-0.285-2.589c-0.077-2.176,0.143-4.046,2.543-4.929
	c1.62-0.597,2.709-1.904,3.932-3.062c0.835-0.79,1.901-1.558,3.005-1.024c3.153-0.398,4.448,1.685,3.835,3.777
	c-0.371,1.267-1.19,2.376-2.548,2.604C151.799,231.124,151.066,232.453,150.585,233.827z M157.297,273.122
	c-1.713-0.427-3.043-1.639-4.528-2.515c-0.629-0.371,0.091-1.598,1.015-1.71c1.104-0.133,1.874,0.519,2.396,1.314
	c0.36,0.548,0.741,0.671,1.287,0.703c0.793,0.046,1.768-0.142,1.673,1.173C159.05,273.345,157.975,272.749,157.297,273.122z
	 M177.017,196.957c-0.961,1.677-1.209,3.724-2.76,5.106c-0.864,0.77-1.774,1.302-2.891,1.71c-1.441,0.527-2.774,1.025-4.367,0.891
	c-3.849-0.325-6.489-2.364-8.689-5.391c-1.989-2.736-2.713-5.669-2.294-8.958c0-0.438,0.026-0.878-0.004-1.313
	c-0.3-4.29,1.895-7.243,5.176-9.586c2.399-1.713,4.954-3.032,7.807-3.981c1.811-0.602,3.377-1.88,5.472-1.693
	c1.212,0.108,2.073,0.932,2.107,2.207c0.038,1.415-0.851,1.608-2.005,1.689c-4.378,0.309-6.658,1.745-8.026,6.029
	c-0.839,2.629-0.912,5.184,0.088,7.75c0.656,1.682,2.368,2.43,3.423,3.763c0.646,0.817,1.645,1.116,2.476,1.634
	c1.276,0.795,2.201-0.528,3.269-0.925c0.372-0.138,0.611-0.674,1.078-0.226C177.267,196.039,177.322,196.424,177.017,196.957z
	 M172.579,190.029c-0.233,0.455,0.089,1.34-0.911,1.301c-0.733-0.029-0.967-0.487-0.93-1.163c0.044-0.795,0.606-1.068,1.244-1.113
	C172.591,189.011,172.57,189.547,172.579,190.029z M185.324,244.846c-0.02,1.685-0.739,2.63-2.071,2.738
	c-1.325,0.107-2.561-0.846-2.497-2.459c0.084-2.118,0.442-4.287,1.718-6.1c0.481-0.683,1.292-0.711,2.116-0.503
	c0.911,0.231,0.7,0.919,0.716,1.516c0.022,0.825,0.005,1.651,0.005,2.477h0.013C185.326,243.291,185.333,244.069,185.324,244.846z
	 M186.315,212.749c-1.088,1.822-0.988,3.862-1.115,5.869c-0.046,0.732-0.705,0.961-1.261,0.986
	c-0.796,0.035-1.737,0.136-2.258-0.667c-1.409-2.172-1.339-4.004,0.318-6.184c0.382-0.502,0.614-1.105,1.225-1.538
	c0.629-0.445,1.172-0.99,1.872-0.604C185.838,211.021,186.521,211.658,186.315,212.749z"/>
<path style="fill:#FF0000;" d="M275.349,289.447c-4.188,0-8.453,0.49-12.541-0.149c-3.526-0.552-7.193-0.601-10.618-2.03
	c-3.202-1.336-6.236-2.915-9.241-4.634c-2.311-1.323-4.68-2.545-6.916-4.002c-2.358-1.536-4.726-3.066-7.084-4.591
	c-2.885-1.865-5.152-4.414-7.918-6.328c-2.09-1.446-3.402-3.576-5.34-5.162c-1.391-1.139-2.143-3.292-3.075-5.044
	c-1.301-2.444-2.537-4.934-3.611-7.484c-0.855-2.029-1.334-4.214-2.15-6.263c-0.687-1.725-0.789-3.606-1.642-5.294
	c-0.367-0.727-0.279-1.718-0.278-2.589c0.005-3.797-0.321-7.648,0.218-11.372c0.373-2.576,0.731-5.121,0.739-7.713
	c0.007-2.189,0.028-4.387-0.163-6.563c-0.127-1.444-1.186-2.571-1.962-3.747c-0.489-0.741-0.643-1.46-0.721-2.302
	c-0.143-1.545-0.571-3.143-0.509-4.616c0.101-2.433,0.381-4.901,0.936-7.321c0.564-2.461,2.39-4.338,2.958-6.732
	c0.454-1.912,0.757-3.871-0.172-5.84c-0.746-1.581-1.172-3.297-1.636-5.006c-0.792-2.917-0.797-5.854-0.412-8.657
	c0.433-3.154,0.323-6.392,1.341-9.501c0.56-1.712,0.471-3.618,1.216-5.346c0.907-2.104,1.732-4.248,2.483-6.412
	c0.471-1.357,0.883-2.783,1.451-4.053c1.104-2.47,0.701-5.127,1.452-7.637c0.554-1.852,0.179-3.965,0.356-5.949
	c0.272-3.03,2.26-5.081,5.194-5.734c3.579-0.796,7.207-0.905,10.847-1.033c2.18-0.077,4.4,0.179,6.481,0.428
	c2.975,0.356,6.012,1.029,8.939,2.144c4.34,1.653,8.32,3.992,12.549,5.82c1.882,0.814,3.797,1.602,5.75,2.29
	c1.842,0.649,3.658,1.422,5.516,2.061c1.777,0.611,3.566,1.158,5.405,1.574c2.754,0.623,5.618,1.037,7.951,2.798
	c1.23,0.928,2.32,2.173,2.3,3.792c-0.052,4.144,0.814,8.193,1.211,12.284c0.207,2.134,0.611,4.363,1.345,6.479
	c0.548,1.58,0.817,3.267,1.233,4.899c0.345,1.354,1.057,2.58,1.198,4.018c0.098,0.992,1.185,1.246,2.031,0.572
	c1.903-1.517,3.654-3.257,5.677-4.585c2.255-1.48,4.502-3.081,7.253-3.636c1.239-0.25,2.392,0.305,3.333,0.761
	c3.035,1.47,6.223,2.593,8.98,4.73c2.25,1.744,4.778,3.214,6.862,5.15c5.391,5.008,11.176,9.624,15.808,15.415
	c3.033,3.792,5.771,7.79,7.653,12.264c0.615,1.462,0.981,3.124,1.469,4.665c1.607,5.08,1.053,10.397,2.047,15.549
	c0.616,3.194,0.605,6.692,0.004,9.89c-0.696,3.702-0.586,7.431-1.159,11.116c-0.351,2.259-1.161,4.375-1.644,6.582
	c-0.975,4.459-3.887,7.721-6.573,11.179c-2.763,3.558-6.228,6.361-9.435,9.448c-2.196,2.114-4.781,3.827-6.876,5.967
	c-3.395,3.468-7.566,5.69-11.592,8.11c-3.255,1.956-6.842,3.429-10.41,4.774c-2.046,0.772-4.234,1.262-6.452,1.648
	C288.747,289.689,282.064,289.834,275.349,289.447z M267.565,279.748c-1.184,2.178-0.893,3.532,1.118,5.757
	c1.532,1.695,3.294,1.931,4.8,0.577c1.681-1.511,3.438-2.963,4.947-4.635c3.139-3.478,5.318-7.306,3.447-12.239
	c-0.319-0.84-0.202-1.737-0.145-2.607c0.038-0.575,0.393-0.99,0.944-1.193c0.531-0.195,0.745,0.227,1.072,0.525
	c1.683,1.535,2.215,5.865,1.254,8.449c-0.696,1.871-1.575,3.716-1.507,5.833c0.079,2.474,2.417,4.581,4.837,3.811
	c2.222-0.707,4.533-0.644,6.782-1.365c2.449-0.785,4.912-1.632,7.392-2.366c3.757-1.112,7.298-2.915,10.667-4.847
	c3.771-2.162,7.599-4.34,10.766-7.46c2.147-2.115,4.542-3.977,6.795-5.986c2.028-1.808,3.716-3.921,5.363-6.074
	c1.957-2.558,3.571-5.295,4.804-8.274c1.142-2.759,1.912-5.637,2.886-8.444c1.046-3.016,1.509-6.15,1.624-9.201
	c0.193-5.116,0.545-10.271-0.478-15.411c-0.517-2.599-0.965-5.231-1.499-7.834c-0.199-0.967-0.572-1.963-1.005-2.849
	c-1.109-2.267-2.332-4.489-3.66-6.636c-1.686-2.725-3.469-5.431-5.671-7.747c-1.924-2.024-3.733-4.154-5.698-6.136
	c-1.61-1.624-3.104-3.438-4.957-4.726c-2.393-1.662-4.681-3.378-6.521-5.634c-0.752-0.922-1.477-1.86-2.405-2.609
	c-1.02-0.822-2.075-0.939-3.103-0.008c-0.497,0.451-0.992,0.911-1.434,1.415c-1.094,1.248-2.542,1.377-3.925,0.501
	c-1.371-0.868-2.811-1.65-4.288-2.322c-0.808-0.368-1.577-0.365-2.131,0.768c-1.005,2.056-2.266,3.986-3.413,5.973
	c-0.968,1.676-0.216,3.299,1.701,3.761c0.866,0.209,1.551,0.718,2.006,1.5c1.18,2.03,2.451,4.003,3.477,6.126
	c0.852,1.765,0.711,2.011-1.267,2.131c-3.321,0.202-6.562-0.537-9.837-0.705c-5.536-0.284-11.013-0.966-16.493-1.705
	c-0.282-0.038-0.569-0.131-0.826-0.256c-1.437-0.701-3.031-1.019-4.539-1.335c-1.589-0.334-2.995-1.069-4.542-1.446
	c-2.44-0.594-4.554-2.148-7.449-0.911c-2.221,0.949-4.525,1.804-6.765,2.764c-2.117,0.907-4.321,1.909-6.559,1.081
	c-1.892-0.7-3.211,0.044-4.602,0.891c-1.144,0.696-2.884,0.907-3.849,0.099c-1.493-1.249-2.741-2.745-3.475-4.566
	c-0.322-0.8-0.474-1.8,0.172-2.511c1.422-1.565,3.864-1.456,5.385,0.098c0.617,0.631,1.14,1.391,2.175,1.486
	c3.416,0.314,6.618-0.429,9.678-1.885c1.119-0.532,1.148-1.253,0.105-1.896c-2.102-1.293-4.379-2.208-6.72-2.951
	c-2.056-0.653-3.077-2.158-2.194-3.557c0.741-1.174,1.391-2.394,2.098-3.583c1.433-2.41,0.341-3.64-1.686-4.12
	c-2.141-0.508-4.294-1.166-6.563-1.195c-4.232-0.053-8.446-0.567-12.699-0.243c-2.432,0.185-4.395,2.511-4.728,4.886
	c-0.177,1.263-2.067,3.872-3.115,4.051c-1.016,0.173-2.094,0.53-2.305,1.45c-0.209,0.91,0.871,1.515,1.522,2.149
	c0.135,0.132,0.32,0.213,0.483,0.315c1.169,0.73,2.451,1.328,3.484,2.215c2.039,1.752,2.921,4.078,2.883,6.776
	c-0.044,3.213-0.043,6.427-0.038,9.641c0.002,1.167,0.501,2.203,1.397,2.868c0.82,0.609,1.874,0.235,2.598-0.273
	c1.602-1.124,3.168-2.276,4.976-3.063c2.292-0.997,4.617-0.9,6.915-0.142c2.019,0.666,3.65,1.997,5.156,3.456
	c2.576,2.496,4.003,5.534,4.158,9.135c0.048,1.119-0.002,2.242,0.066,3.359c0.073,1.184,0.408,2.317,1.247,3.188
	c1.559,1.618,6.561,0.916,7.931-1.116c1.222-1.814,1.652-3.9,1.771-6.035c0.151-2.721-0.245-5.463,0.165-8.17
	c0.216-1.425,0.767-2.753,2.081-3.619c2.191-1.445,4.744-1.963,7.21-2.383c3.646-0.621,7.389-0.268,11.09-0.243
	c0.89,0.006,2.292-0.314,2.433,0.947c0.127,1.131-1.227,1.56-2.113,1.821c-2.482,0.73-4.4,2.265-6.182,3.994
	c-1.874,1.818-1.991,4.648-0.608,6.84c0.858,1.36,1.856,2.709,2.017,4.397c0.145,1.523,0.322,2.975,0.8,4.497
	c0.696,2.213,2.049,3.852,3.304,5.63c1.708,2.419,4.22,3.94,6.521,5.679c2.237,1.691,4.815,2.782,7.461,3.652
	c1.296,0.426,2.771,0.623,4.005-0.035c1.004-0.536,2.003-0.656,3.056-0.775c0.385-0.044,0.86,0.007,1.132-0.199
	c1.01-0.764,1.964-0.505,3.024-0.122c2.202,0.797,4.191-0.07,6.012-1.149c2.584-1.531,4.138-4.083,5.49-6.62
	c0.995-1.867,1.158-4.278-0.045-6.045c-1.662-2.441-2.85-5.077-4.124-7.69c-0.257-0.527-0.506-1.195,0.179-1.735
	c0.487,0.318,0.952,0.566,1.366,1.019c1.45,1.589,2.773,3.288,4.687,4.45c1.024,0.622,1.97,0.71,2.858,0.3
	c1.548-0.714,2.94-1.703,4.147-2.972c0.772-0.812,1.43-1.917,2.755-1.988c0.262,0.33,0.42,0.737,0.207,0.99
	c-1.351,1.607-1.963,3.697-3.498,5.19c-2.019,1.963-3.664,4.144-4.668,6.867c-0.719,1.95-0.841,4.163-2.608,5.751
	c-1.841,1.655-3.42,3.63-5.622,4.831c-1.912,1.042-3.884,1.992-5.997,2.604c-0.919,0.266-1.756,0.317-2.667-0.115
	c-1.175-0.557-2.329-0.496-3.618,0.026c-1.073,0.435-1.879,1.235-2.976,1.626c-1.567,0.559-2.978-0.01-4.44-0.222
	c-2.504-0.363-4.861-1.114-6.565-3.141c-0.682-0.811-1.231-0.713-2.043-0.141c-1.744,1.227-2.156,3.216-2.644,4.972
	c-1.445,5.208,0.183,9.539,4.179,13.192c2.633,2.407,5.712,4.371,7.695,7.468c1.715,2.68,1.758,4.124-0.828,5.487
	c-1.273,0.671-2.997,0.666-4.575,0.394c-2.047-0.353-2.311-0.536-1.938-2.57c0.761-4.156-1.3-7.514-3.246-10.737
	c-2.508-4.155-5.3-8.107-5.462-13.188c-0.089-2.79-1.71-4.437-4.004-5.65c-2.541-1.343-5.29-2.207-7.852-3.531
	c-1.974-1.02-3.996-2.003-6.027-2.895c-3.067-1.346-6.005-2.873-8.827-4.653c-2.102-1.325-2.105-1.256-3.924,0.504
	c-1.606,1.553-2.911,3.418-4.567,4.854c-2.271,1.971-4.065,4.381-6.41,6.29c-2.19,1.784-5.094,2.321-7.602,1.134
	c-1.934-0.915-2.54-2.249-2.457-4.223c0.056-1.35-0.103-2.646-0.761-3.945c-1.19-2.35-2.377-2.493-4.151-0.49
	c-1.683,1.9-2.021,4.317-2.679,6.554c-0.46,1.562-0.961,2.819-2.307,3.748c-0.79,0.546-1.663,1.153-1.619,2.278
	c0.085,2.168-0.422,4.34,0.756,6.475c1.008,1.828,2.228,2.96,4.279,2.929c0.828-0.013,1.655-0.058,2.483-0.082
	c1.601-0.047,2.111,0.584,1.539,2.056c-1.13,2.912-0.686,5.711,1.016,8.141c2.217,3.165,4.28,6.462,7.494,8.866
	c2.967,2.219,5.626,4.844,8.494,7.2c2.846,2.337,5.8,4.541,8.898,6.543c1.545,0.998,3.034,2.115,4.672,2.928
	c2.649,1.314,5.409,2.402,8.104,3.626c1.416,0.643,4.232,0.336,5.271-0.789c0.567-0.614,1.008-1.369,1.459-2.101
	C265.538,280.42,266.067,279.317,267.565,279.748z M230.861,143.703c2.036,0.005,4.004,0.316,6.006,0.781
	c1.941,0.45,3.964,0.291,5.973,0.927c2.57,0.814,5.085,1.592,7.349,3.094c2.069,1.373,4.042,2.827,5.804,4.61
	c3.272,3.312,5.158,7.05,4.111,11.799c-0.497,2.255-0.293,4.5,0.159,6.665c0.383,1.833,1.116,3.71,2.656,4.969
	c2.372,1.939,5.224,1.233,7.691,0.615c2.83-0.709,5.423-0.134,7.797,0.793c3.353,1.309,6.416,3.356,9.608,5.079
	c0.662,0.357,1.439,0.606,2.065,0.148c0.563-0.412,0.307-1.166,0.217-1.784c-0.042-0.287-0.089-0.596-0.23-0.841
	c-1.116-1.943-2.233-3.887-3.391-5.805c-2.269-3.758-4.624-7.465-6.829-11.259c-1.483-2.552-2.362-5.435-2.707-8.293
	c-0.465-3.849-1.475-7.42-3.153-10.887c-1.075-2.22-2.81-3.741-4.997-4.374c-4.272-1.238-8.7-1.88-13.119-2.388
	c-1.723-0.198-3.423-0.661-4.873-1.322c-3.913-1.784-8.006-3.227-11.654-5.578c-1.437-0.926-3.192-1.529-4.139-2.981
	c-1.279-1.96-3.111-2.477-5.196-2.579c-1.605-0.079-3.217,0.001-4.822-0.063c-1.912-0.076-3.624,0.698-5.318,1.34
	c-1.652,0.626-2.817,4.172-2.205,6.57c0.512,2.009,0.44,4.171,1.441,6.041c0.98,1.831,2.083,3.642,4.434,3.883
	C225.984,143.113,228.337,144.152,230.861,143.703z M212.263,213.96c0.037,1.721-0.078,3.142,0.253,4.531
	c0.373,1.565,1.659,2.094,3.052,1.342c0.517-0.279,0.978-0.594,1.434-0.965c1.904-1.549,3.15-1.487,4.783,0.158
	c1.546,1.556,5.874,2.289,7.754,1.312c1.27-0.66,1.977-2.255,1.641-3.7c-0.299-1.285-1.344-2.018-2.945-1.992
	c-0.924,0.015-1.849,0.105-2.771,0.186c-1.082,0.096-1.355-0.3-1.112-1.38c0.413-1.836,1.663-3.228,2.424-4.876
	c0.437-0.946-0.063-1.459-0.546-1.865c-0.508-0.426-1.374-0.256-1.666,0.324c-0.532,1.057-1.527,1.397-2.399,1.955
	c-0.767,0.491-1.417,0.594-2.161-0.177c-2.439-2.527-4.986-4.95-7.395-7.504c-0.52-0.551-0.993-0.548-1.535-0.467
	c-0.774,0.116-0.587,0.816-0.57,1.298c0.051,1.411,0.423,2.799,0.636,4.153C211.557,208.93,212.911,211.486,212.263,213.96z
	 M270.014,213.116c0-0.486,0.048-0.977-0.008-1.456c-0.254-2.147-1.19-2.801-3.257-2.172c-0.904,0.275-1.851,0.632-2.583,1.203
	c-1.559,1.218-3.21,2.217-5.038,2.973c-2.917,1.207-3.472,3.939-1.13,6.012c2.925,2.589,6.476,4.139,10.07,5.555
	c1.469,0.579,2.996,1.006,4.474,1.563c0.459,0.173,0.911,0.32,1.168-0.118c0.343-0.587,1.418-1.014,0.884-1.81
	c-0.651-0.972-0.849-2.116-1.59-3.07C271.043,219.27,270.338,216.242,270.014,213.116z M214.343,195.992
	c-0.235,1.45,1.071,1.457,1.939,1.732c0.752,0.239,1.935-0.918,1.876-1.758c-0.087-1.22-0.947-1.698-2.043-1.822
	C214.809,193.994,214.409,194.789,214.343,195.992z M238.29,153.368c0.969-0.054,1.933-0.009,2.283-1.177
	c0.243-0.811-0.34-1.192-0.854-1.502c-0.839-0.505-1.842-0.488-2.645-0.064c-0.428,0.226-1.285,0.641-1.016,1.384
	c0.232,0.639,0.647,1.329,1.55,1.311C237.849,153.314,238.091,153.353,238.29,153.368z M308.142,169.393
	c-0.002-1.247-0.521-1.878-1.486-1.789c-0.738,0.068-1.559,0.413-1.541,1.388c0.019,1.02,0.813,1.516,1.658,1.624
	C307.728,170.737,308.008,169.916,308.142,169.393z M239.045,161.069c1.388,0.049,1.895-0.675,1.872-1.61
	c-0.019-0.771-0.432-1.528-1.458-1.419c-0.991,0.105-1.581,0.688-1.645,1.678C237.745,160.746,238.516,160.967,239.045,161.069z
	 M254.744,175.441c-1.067-0.158-1.494,0.443-1.517,1.334c-0.022,0.839,0.305,1.597,1.299,1.566c0.954-0.03,1.647-0.622,1.724-1.579
	C256.33,175.766,255.538,175.507,254.744,175.441z M315.231,268.537c1.936-1.357,3.353-3.16,4.625-5.109
	c0.172-0.263,0.344-0.484,0.137-0.77c-0.227-0.312-0.468-0.074-0.745-0.025c-3.057,0.537-4.677,2.89-6.38,5.084
	c-0.498,0.641-0.433,1.444,0.872,1.402C314.213,269.061,314.727,268.891,315.231,268.537z M303.3,197.933
	c0.764-0.258,1.392-0.772,1.634-1.608c0.252-0.87-0.295-1.391-0.91-1.789c-1.262-0.816-4.364,0.436-4.71,1.917
	c-0.136,0.58-0.22,1.325,0.673,1.497c0.519,0.1,1.054,0.113,1.542,0.162C302.155,198.058,302.767,198.114,303.3,197.933z
	 M320.396,186.214c-0.039,1.288,0.449,2.312,1.41,3.14c0.819,0.706,1.556,1.452,2.68,0.33c1.239-1.238,0.139-1.938-0.5-2.73
	c-0.629-0.781-0.864-2.06-2.296-1.921C320.962,185.069,320.423,185.321,320.396,186.214z M223.89,167.591
	c-0.258-0.563-0.613-0.404-1.021-0.032c-0.985,0.897-1.006,3.255-0.175,4.473c0.555,0.813,1.174,0.907,1.973,0.681
	c0.868-0.245,0.538-1.01,0.637-1.575C225.52,169.679,224.419,168.746,223.89,167.591z M270.388,151.094
	c0.306-0.528-0.272-0.74-0.463-1.097c-0.376-0.704-0.962-1.192-1.555-1.699c-2.597-2.219-5.186-4.44-8.223-6.071
	c-0.597-0.321-1.217-0.68-1.689-0.135c-0.421,0.486-0.137,1.106,0.183,1.726c1.236,2.393,3.26,3.998,5.486,5.25
	c1.603,0.902,3.07,2.244,5.211,2.344C269.608,151.361,270.118,151.561,270.388,151.094z"/>
</svg>
