<svg width="400" height="400" viewBox="0 0 400 400" fill="none" xmlns="http://www.w3.org/2000/svg">
<path fill-rule="evenodd" clip-rule="evenodd" d="M341.902 137.623C341.683 137.977 341.698 138.773 341.935 139.392C342.188 140.049 342.001 140.517 341.486 140.517C341 140.517 340.25 140.99 339.818 141.569C338.414 143.448 334.652 143.736 334.103 142.007C333.411 139.827 331.326 140.026 331.876 142.218C332.335 144.043 325.411 146.884 320.504 146.884C319.385 146.884 316.728 147.356 314.6 147.933C312.472 148.51 307.594 149.798 303.761 150.794C299.928 151.791 296.027 153.106 295.094 153.718C293.486 154.771 293.396 154.751 293.396 153.334C293.396 152.425 292.945 151.837 292.246 151.837C291.356 151.837 291.189 152.299 291.507 153.888C291.858 155.642 291.641 156.041 290.004 156.651C286.223 158.061 285.705 158.107 284.87 157.102C284.405 156.541 284.262 156.083 284.552 156.083C284.842 156.083 284.685 155.609 284.205 155.029C283.019 153.6 281.869 154.455 282.357 156.402C282.893 158.538 281.58 159.117 270.31 161.72C259.057 164.319 258.866 164.324 258.004 162.054C257.295 160.192 255.897 160.282 255.897 162.189C255.897 164.261 253.503 165.646 250.413 165.362C249.927 165.317 249.529 164.485 249.529 163.512C249.529 162.411 249.128 161.743 248.468 161.743C247.765 161.743 247.406 162.446 247.406 163.823C247.406 164.968 247.105 166.091 246.737 166.319C246.173 166.667 227.415 170.222 226.092 170.23C225.849 170.232 225.458 169.278 225.226 168.111C224.636 165.169 222.756 165.295 222.892 168.266L222.996 170.544L217.336 171.396C208.704 172.698 207.077 172.625 207.077 170.941C207.077 170.155 206.606 169.526 206.015 169.526C205.365 169.526 204.954 170.187 204.954 171.232C204.954 173.087 204.537 173.214 195.283 174.158C191.135 174.583 190.907 174.524 190.684 173.005C190.359 170.784 188.681 170.374 188.681 172.516C188.681 176.567 139.948 179.009 138.902 175.01C138.511 173.512 137.031 173.939 137.031 175.549C137.031 176.627 133.299 177.579 130.59 177.193C129.344 177.016 128.914 176.504 128.905 175.186C128.894 173.287 126.786 172.595 126.753 174.479C126.712 176.777 125.873 177.001 119.146 176.509C105.023 175.477 104.286 175.293 104.76 172.923C105.103 171.207 104.96 170.882 103.946 171.075C103.269 171.204 102.611 172.041 102.484 172.935C102.078 175.786 97.8308 174.832 97.5409 171.825C97.2778 169.093 95.2861 168.582 95.2861 171.247C95.2861 173.939 93.7731 173.95 78.1344 171.367C61.8655 168.68 61.7454 168.641 62.3422 166.265C62.6502 165.037 62.4719 164.573 61.692 164.573C61.1009 164.573 60.6165 164.868 60.6165 165.23C60.6165 166.745 58.3589 168.103 56.5817 167.658C55.2222 167.317 54.8532 167.448 55.0963 168.188C55.2756 168.73 56.044 169.265 56.8058 169.378C59.3581 169.758 56.2099 187.427 52.9445 191.047C48.3396 196.152 49.2729 202.648 54.7789 203.819C56.0431 204.088 57.476 204.839 57.9632 205.489C58.5744 206.306 59.9492 206.687 62.4089 206.72C64.3672 206.747 67.074 207.322 68.423 207.998C69.7721 208.673 72.4683 209.378 74.4142 209.562C76.3601 209.747 78.7474 210.09 79.7209 210.326C82.6707 211.04 84.7205 211.006 85.3307 210.234C86.3937 208.889 88.9183 200.943 88.9183 198.944C88.9183 193.947 92.239 185.06 96.5256 178.582C98.521 175.566 100.49 174.926 99.8977 177.486C99.3257 179.956 98.9529 182.995 95.9707 209.502C94.4376 223.121 92.7005 236.335 92.1103 238.864C90.4629 245.926 90.5877 246.648 93.4584 246.648C94.7884 246.648 96.0412 247.045 96.2433 247.531C97.5276 250.624 100.495 243.282 101.748 233.912C102.972 224.768 103.647 222.703 106.335 219.881L108.809 217.285L107.452 220.114C102.589 230.249 100.254 248.888 103.992 247.723C104.847 247.457 106.029 247.17 106.619 247.086C109.054 246.741 109.437 245.847 109.437 240.501C109.437 235.921 109.73 234.62 111.463 231.522C112.67 229.364 113.987 225.321 114.716 221.53C115.391 218.027 116.695 213.309 117.614 211.044C118.532 208.778 119.951 204.479 120.766 201.491C121.581 198.504 123.822 192.498 125.747 188.146C127.673 183.794 129.248 179.874 129.248 179.435C129.248 178.947 130.275 178.723 131.902 178.858L134.554 179.078L135.094 188.629C136.048 205.53 134.936 214.027 130.421 224.36C124.976 236.82 127.426 248.651 135.97 251.153C139.727 252.254 141.199 248.262 138.11 245.348C131.434 239.051 132.051 220.528 138.752 226.088C140.618 227.638 147.075 229.12 148.639 228.358C152.72 226.371 164.005 227.409 164.479 229.816C164.595 230.398 163.202 232.699 161.385 234.93C159.274 237.521 158.084 239.667 158.091 240.871C158.096 241.907 157.808 243.118 157.451 243.56C153.118 248.924 153.391 253.421 158.017 252.891C159.777 252.69 160.053 252.334 160.245 250.012C160.415 247.962 161.014 246.943 162.888 245.513C164.567 244.233 165.785 242.367 166.852 239.439C167.828 236.764 169.388 234.261 171.106 232.616C173.468 230.356 174.01 229.197 175.301 223.652C179.43 205.929 188.095 180.805 191.24 177.442C192.272 176.339 193.912 175.901 198.507 175.502L204.441 174.987L203.953 177.592C203.197 181.622 201.086 186.02 198.808 188.314C193.773 193.381 189.292 221.551 192.69 226.774C196.359 232.414 200.798 230.61 201.768 223.084C202.028 221.062 203.011 217.443 203.951 215.041C204.933 212.535 205.662 209.199 205.662 207.208C205.662 205.301 206.353 200.739 207.197 197.07C208.041 193.401 208.715 189.284 208.693 187.922C208.673 186.56 208.579 183.1 208.488 180.233C208.288 174.035 208.121 174.191 216.132 173.156C223.099 172.256 223.097 172.256 221.686 174.984C220.438 177.397 219.889 188.739 220.951 190.159C221.4 190.757 221.475 194.23 221.157 199.596C220.881 204.266 220.828 211.137 221.04 214.865C221.395 221.126 221.256 222.151 219.208 228.308C215.764 238.663 214.184 246.893 214.167 254.575L214.152 261.442L216.451 261.836C222.919 262.947 223.63 262.774 224.348 259.913C225.015 257.259 225.713 256.638 226.534 257.968C228.651 261.394 233.103 252.305 236.063 238.51C237.233 233.063 239.299 223.829 240.655 217.992C242.011 212.155 243.63 204.036 244.252 199.95C245.694 190.475 245.681 190.516 247.573 189.685C249.889 188.666 251.26 185.391 250.501 182.69C250.161 181.481 249.984 177.583 250.107 174.027L250.332 167.561L252.521 167.123C253.724 166.883 254.866 166.844 255.058 167.037C255.592 167.57 253.85 193.748 252.351 207.732C251.621 214.543 250.824 224.254 250.581 229.313C250.339 234.372 250 239.147 249.827 239.926C249.297 242.325 250.423 243.015 256.619 244.091C263.738 245.326 263.547 245.498 263.544 237.87C263.543 234.72 263.884 230.71 264.301 228.959C264.718 227.208 265.068 224.412 265.078 222.748C265.115 216.244 271.303 190.752 272.844 190.752C273.762 190.752 278.506 205.475 279.147 210.317C279.874 215.798 278.823 227.824 276.647 238.927C276.004 242.209 286.392 245.62 287.233 242.404C287.55 241.189 287.989 219.958 287.972 206.671C287.947 188.023 287.398 175.929 285.975 162.704C285.656 159.735 286.411 158.959 289.656 158.923C290.913 158.909 294.548 171.255 296.558 182.371L298.307 192.032L296.477 197.936C292.427 211.011 294.358 215.965 301.346 210.431C303.805 208.483 304.93 208.118 309.585 207.753C312.55 207.521 315.699 206.929 316.583 206.438C317.466 205.947 318.475 205.722 318.825 205.938C319.175 206.154 319.895 205.896 320.426 205.366C321.339 204.453 324.879 203.476 327.488 203.419C328.143 203.404 329.057 202.936 329.52 202.379C330.634 201.037 332.257 201.097 333.852 202.54C335.539 204.068 335.607 203.968 337.297 197.514C338.731 192.04 338.731 192.006 337.355 186.612C336.314 182.53 335.852 177.447 335.475 165.93C334.886 147.899 335.183 145.082 337.752 144.438C340.369 143.781 340.478 144.145 340.139 152.433C339.719 162.704 339.786 164.378 340.778 168.465C341.25 170.411 341.775 172.728 341.945 173.616C342.213 175.017 345.867 178.006 347.32 178.014C348.944 178.022 349.377 174.907 348.186 171.788C346.988 168.651 346.87 164.881 347.277 142.732C347.296 141.696 347.822 140.921 348.653 140.703C349.393 140.51 349.999 139.893 349.999 139.331C349.999 138.77 349.706 138.492 349.347 138.714C347.548 139.825 344.362 139.581 343.955 138.3C343.507 136.887 342.551 136.572 341.902 137.623ZM274.167 163.187C273.514 163.567 271.445 164.025 269.568 164.202L266.156 164.525L269.693 163.556C274.127 162.341 275.861 162.198 274.167 163.187ZM242.014 174.479C237.616 180.864 237.015 181.092 232.23 178.203C229.32 176.445 226.204 172.267 227.469 171.82C228.809 171.345 242.321 168.95 244.007 168.888C245.901 168.819 245.888 168.856 242.014 174.479ZM85.3812 174.536C86.5911 175.207 81.7459 174.558 79.0125 173.682C77.9161 173.331 78.5892 173.274 80.782 173.531C82.7279 173.76 84.7968 174.212 85.3812 174.536ZM115.703 178.009C119.732 178.402 123.53 178.724 124.14 178.724C125.9 178.724 122.326 182.215 118.989 183.754C114.778 185.697 113.643 185.435 109.224 181.498C104.919 177.66 104.22 176.355 106.783 176.935C107.659 177.133 111.673 177.616 115.703 178.009ZM231.765 221.102C229.356 227.771 227.264 233.108 227.116 232.96C226.968 232.814 227.175 231.832 227.576 230.78C227.975 229.727 228.303 227.175 228.303 225.107C228.303 222.121 228.776 220.561 230.603 217.527C231.867 215.425 233.525 212.323 234.288 210.631C237.27 204.011 235.93 209.572 231.765 221.102ZM199.275 218.958C200.767 224.36 197.261 230.971 195.073 226.883C194.276 225.393 194.095 217.569 194.797 214.948L195.233 213.319L196.91 214.895C197.833 215.763 198.897 217.591 199.275 218.958Z" fill="#0000FF"/>
</svg>
