<svg width="400" height="400" viewBox="0 0 400 400" fill="none" xmlns="http://www.w3.org/2000/svg">
<path fill-rule="evenodd" clip-rule="evenodd" d="M161.049 78.4044C155.866 83.1095 145.722 92.9295 138.507 100.228L125.39 113.498L126.645 120.844C130.185 141.537 133.206 157.41 134.296 161.032L135.514 165.08L133.453 164.562C126.05 162.704 125.232 161.668 113.691 139.548L104.368 121.677L109.974 111.97C131.356 74.9455 126.269 77.22 97.7583 117.431L94.9702 121.362L101.449 140.467C111.111 168.959 113.814 173.962 120.77 176.232C133.293 180.317 166.842 197.107 163.473 197.603C161.485 197.896 157.058 195.931 143.415 188.698C123.553 178.17 113.096 178.191 104.836 188.775C95.4326 200.823 76.0009 233.354 76.0009 237.048C76.0009 241.827 104.178 298.653 105.762 297.069C106.578 296.254 100.713 277.004 93.674 257.392C85.9677 235.916 86.0551 239.151 92.9694 231.475C99.7882 223.903 117.882 202.773 120.944 198.804L123.104 196.003L136.898 200.378C144.484 202.785 150.8 204.862 150.932 204.995C151.064 205.127 146.607 205.706 141.027 206.283C124.026 208.038 110.557 212.382 110.588 216.101C110.597 217.187 109.954 231.773 109.159 248.514L107.715 278.954L118.534 290.432C124.484 296.746 133.387 306.384 138.32 311.851C153.026 328.152 154.995 330 157.652 330C161.507 330 157.77 324.001 130.376 286.214C123.686 276.987 122.803 275.35 123.146 272.817C123.361 271.231 124.515 260.598 125.711 249.19C128.626 221.382 127.539 224.414 135.902 220.809L142.983 217.758L143.534 234.338C144.505 263.574 149.553 272.461 176.421 292.229C199.117 308.929 199.653 308.965 219.039 295.049C248.532 273.877 257.659 257.738 256.321 229.12L255.786 217.693L258.155 218.587C267.031 221.939 270.384 223.955 270.886 226.242C271.17 227.537 272.48 239.156 273.796 252.063L276.188 275.53L262.989 294.338C240.178 326.844 235.315 336.707 247.641 325.463C250.378 322.967 261.331 311.591 271.984 300.182L291.35 279.439L290.838 268.204C290.556 262.025 289.928 247.634 289.444 236.225C288.959 224.818 288.406 215.035 288.215 214.486C287.328 211.944 272.358 208.004 256.598 206.165L247.559 205.111L262.168 200.485C275.022 196.415 276.871 196.025 277.548 197.236C278.821 199.511 287.873 210.621 295.728 219.551C299.788 224.165 304.887 230.021 307.059 232.564L311.009 237.188L309.72 242.756C309.009 245.819 304.944 258.682 300.682 271.339C292.83 294.664 292.078 297.557 294.015 296.98C295.351 296.581 319.521 248.501 321.883 241.547L323.597 236.498L319.051 227.719C313.354 216.718 298.903 193.986 293.957 188.244C284.697 177.496 276.601 177.956 252.313 190.609C239.175 197.455 235.355 198.995 234.589 197.754C233.929 196.686 242.921 191.851 257.932 185.2C275.374 177.471 283.999 172.913 286.005 170.364C289.049 166.494 304.799 122.835 303.939 120.652C302.363 116.659 277.127 84.5443 275.564 84.5443C274.143 84.5443 274.757 87.5583 276.799 90.6096C279.506 94.6508 294.664 121.471 294.664 122.217C294.664 123.002 281.157 147.981 278.348 152.39C274.277 158.784 271.086 162.464 268.889 163.299C264.956 164.794 264.542 163.898 266.175 157.439C267.38 152.666 271.605 123.256 272.43 113.889C272.634 111.582 259.016 97.8535 237.621 78.7992C221.442 64.3883 223.461 68.5704 245.751 95.6268C252.925 104.337 259.494 112.388 260.349 113.518C261.867 115.525 261.811 115.921 257.943 130.524C252.083 152.656 248.144 159.305 228.602 180.047L222.088 186.962L223.785 183.072C225.81 178.432 225.994 170.725 224.289 161.91C222.986 155.165 220.048 151.732 211.261 146.68C203.46 142.196 202.23 143.081 203.915 151.966C205.014 157.76 204.112 159.056 199.235 158.699L195.704 158.44L195.934 151.311C196.203 142.977 195.906 142.777 188.66 146.444C179.997 150.827 176.429 154.949 174.913 162.33C173.243 170.462 173.032 179.428 174.448 182.066C176.704 186.268 174.582 184.463 166.209 175.061C149.629 156.443 147.451 152.542 141.252 130.344L137.136 115.608L140.532 111.528C157.639 90.9811 171.935 72.4462 171.935 70.8169C171.935 68.872 170.284 70.0238 161.049 78.4044ZM205.937 170.691C206.712 171.467 202.176 174.417 200.198 174.424C198.154 174.432 193.542 172.024 193.542 170.951C193.542 170.012 205.017 169.772 205.937 170.691ZM181.443 253.85C187.097 259.053 188.72 259.563 199.592 259.549C211.257 259.535 211.81 259.312 221.156 250.862C228.251 244.447 229.064 244.539 226.356 251.45C222.365 261.635 213.987 271.053 204.504 276.014L199.606 278.575L195.809 276.563C183.65 270.12 174.633 259.895 172.434 250.054C172.114 248.628 171.635 246.683 171.367 245.733C171.016 244.483 171.927 244.984 174.649 247.536C176.722 249.478 179.779 252.32 181.443 253.85Z" fill="#FF0000"/>
</svg>
