<svg width="400" height="400" viewBox="0 0 400 400" fill="none" xmlns="http://www.w3.org/2000/svg">
<path fill-rule="evenodd" clip-rule="evenodd" d="M167.95 100.677C166.434 101.982 165.923 103.193 165.637 106.159L165.272 109.966L170.446 114.919C174.497 118.797 175.622 120.324 175.626 121.952C175.631 123.88 172.833 136.275 171.198 141.573C169.365 147.507 168.106 155.918 167.971 163.127C167.838 170.229 167.599 171.511 165.611 175.822C164.394 178.46 162.496 182.903 161.395 185.696C160.293 188.489 159.155 191.101 158.867 191.5C158.579 191.899 157.995 194.122 157.567 196.438C157.141 198.756 156.555 201.036 156.265 201.504C155.976 201.973 155.66 202.852 155.564 203.457C154.679 209.058 151.486 220.849 149.196 226.974C146.177 235.055 146.375 234.924 133.181 237.588C129.589 238.314 124.203 239.567 121.21 240.374C118.218 241.181 113.32 242.5 110.328 243.304C99.953 246.093 85.9766 250.405 82.9413 251.754C81.645 252.331 79.5227 253.254 78.2254 253.806C64.2012 259.776 54.6561 266.147 51.6892 271.517L50.0009 274.575L51.4653 276.929C57.1353 286.038 68.0137 291.614 86.0245 294.643C89.6161 295.246 93.2068 296.029 94.0045 296.382C94.8032 296.735 95.9459 296.956 96.5442 296.873C97.1425 296.791 100.408 297.109 103.799 297.578C126.231 300.686 134.525 301.047 183.601 301.047C222.27 301.047 233.608 300.778 243.089 299.64C244.885 299.424 249.619 298.917 253.609 298.515C263.007 297.565 278.445 295.151 284.442 293.693C287.035 293.064 290.738 292.272 292.671 291.934C294.604 291.595 298.114 290.651 300.472 289.835C302.831 289.019 305.347 288.351 306.064 288.351C306.78 288.351 307.677 288.063 308.055 287.713C308.434 287.362 310.05 286.668 311.647 286.17C314.884 285.161 325.772 279.962 331.031 276.914C337.659 273.072 344.55 266.099 347.39 260.359L350.001 255.082L348.678 252.148C345.431 244.947 329.971 236.181 316 233.617C314.404 233.324 312.77 232.814 312.369 232.483C311.968 232.152 308.868 231.502 305.48 231.039C302.092 230.574 298.979 229.912 298.564 229.566C298.147 229.221 294.065 228.57 289.492 228.121C284.919 227.671 280.587 226.987 279.867 226.6C279.146 226.213 277.187 225.898 275.514 225.898C266.5 225.899 248.385 224.067 246.355 222.948C242.249 220.687 234.605 212.015 233.631 208.513C233.138 206.737 232.161 203.489 231.462 201.294C230.763 199.099 229.302 194.366 228.215 190.774C225.266 181.031 223.149 176.315 218.441 169.011C214.736 163.259 212.888 156.561 210.839 141.442C210.256 137.139 208.109 129.049 206.75 126.033C205.989 124.342 205.365 122.659 205.365 122.292C205.365 110.465 176.175 93.6024 167.95 100.677ZM187.591 107.199C196.629 110.342 198.904 112.911 200.245 121.492C200.714 124.484 201.371 127.586 201.708 128.384C202.044 129.182 202.839 132.446 203.472 135.638C204.106 138.831 205.296 143.891 206.117 146.883C207.844 153.186 208.304 157.945 207.484 161.03C207.166 162.227 206.537 165.484 206.086 168.269C205.637 171.054 204.917 173.755 204.488 174.272C202.278 176.934 206.053 175.96 209.887 172.878C212.574 170.718 212.619 170.828 213.37 181.449C214.393 195.926 215.256 201.989 217.015 207.062C217.979 209.845 218.341 211.84 217.908 211.985C213.186 213.559 214.113 215.197 223.168 221.285C235.364 229.483 245.873 241.195 241.034 241.195C240.302 241.195 239.46 241.439 239.161 241.738C238.45 242.449 229.762 243.966 225.981 244.039C224.351 244.071 222.821 244.294 222.581 244.534C222.03 245.085 214.076 245.147 212.619 244.61C212.021 244.39 210.389 244.014 208.993 243.775C202.027 242.583 193.251 236.09 194.926 233.37C195.598 232.281 196.826 231.544 202.635 228.743C203.328 228.41 204.865 228.136 206.052 228.136C214.624 228.136 210.644 220.053 199.102 214.022C183.949 206.104 182.277 198.382 193.323 187.336C199.891 180.768 200.718 179.064 199.154 175.324C197.037 170.26 193.828 160.304 193.378 157.403C193.131 155.806 192.645 153.847 192.3 153.05C189.773 147.206 189.597 129.06 192.017 123.942C194.284 119.15 194.567 119.619 184.576 111.642C175.191 104.149 175.885 103.128 187.591 107.199ZM179.29 146.656C181.082 171.555 180.417 178.831 175.641 186.603C173.958 189.338 172.293 189.805 173.046 187.328C175.27 180.017 176.468 170.662 176.719 158.635C176.822 153.725 177.106 149.509 177.351 149.264C177.597 149.018 177.797 146.207 177.797 143.014C177.797 134.736 178.567 136.614 179.29 146.656ZM169.317 207.619C169.558 211.521 169.966 215.432 170.223 216.307C170.612 217.633 170.225 218.117 167.895 219.212L165.102 220.526L164.739 228.865C164.376 237.187 164.371 237.205 162.5 237.423C158.122 237.932 157.649 230.448 161.389 219.794C161.949 218.197 163.283 213.954 164.355 210.362C168.183 197.53 168.676 197.259 169.317 207.619ZM284.442 237.306C289.031 237.59 293.601 237.856 294.598 237.898C295.596 237.94 296.738 238.172 297.138 238.413C297.536 238.656 299.984 239.078 302.579 239.353C306.923 239.812 313.894 241.395 321.077 243.552C340.137 249.274 343.015 259.735 327.506 266.92C325.168 268.003 322.753 269.145 322.141 269.459C315.424 272.904 281.658 280.2 267.03 281.367C265.234 281.51 261.457 282.006 258.636 282.47C247.081 284.366 223.841 285.23 209.355 284.301C199.721 283.683 188.314 282.396 187.591 281.847C187.192 281.544 185.233 281.084 183.238 280.824C178.345 280.187 165.597 277.025 162.115 275.585C156.143 273.114 151.68 270.94 151.68 270.501C151.68 269.88 162.739 270.939 163.65 271.648C164.05 271.958 168.293 272.619 173.081 273.116C177.87 273.615 182.113 274.226 182.512 274.476C182.912 274.725 184.707 274.973 186.503 275.027C193.924 275.248 197.367 275.906 199.661 277.539C206.778 282.608 229.795 281.058 242.727 274.639C247.515 272.263 253.305 269.471 255.595 268.436C258.629 267.063 259.878 266.065 260.208 264.752C260.939 261.841 258.308 248.19 255.771 241.724C253.369 235.605 254.412 235.445 284.442 237.306ZM236.57 251.533C237.855 257.256 238.626 271.823 237.707 273.033C234.058 277.842 208.267 279.395 208.267 274.807C208.267 274.078 209.788 273.841 214.462 273.841C222.556 273.841 234.472 272.495 235.748 271.436C236.523 270.793 236.661 269.182 236.351 264.401C235.981 258.681 235.506 256.698 233.446 252.258C232.644 250.532 230.827 250.121 229.568 251.379C228.319 252.628 205.883 252.663 204.37 251.418C201.835 249.335 207.216 248.645 232.328 247.833L235.715 247.724L236.57 251.533ZM251.721 250.807C255.463 260.652 254.722 263.76 248.278 265.247C243.543 266.34 243.338 266.122 242.464 259.057C241.589 251.992 241.649 251.84 245.842 250.486C250.614 248.943 251.022 248.965 251.721 250.807ZM100.171 253.502C100.171 253.887 97.9676 255.651 95.2743 257.421C88.5682 261.828 85.9375 264.785 82.4662 271.815C79.1336 278.564 76.6203 279.98 73.6993 276.752C69.8222 272.467 78.9479 262.497 92.5538 256.154C94.9478 255.038 97.3967 253.846 97.9949 253.506C99.4721 252.666 100.171 252.666 100.171 253.502ZM192.122 256.536C192.592 257.005 192.769 258.289 192.529 259.485C192.297 260.65 192.521 262.864 193.03 264.404C194.53 268.951 193.853 269.651 189.257 268.305C182.475 266.317 176.365 263.025 174.851 260.542C172.512 256.707 172.778 256.504 180.518 256.245C184.408 256.114 188.424 255.939 189.441 255.856C190.458 255.772 191.665 256.078 192.122 256.536ZM229.253 258.905C229.764 259.522 230.016 261.763 229.886 264.528L229.668 269.126L222.595 269.333L215.522 269.54V263.711V257.881H221.962C226.625 257.881 228.637 258.163 229.253 258.905Z" fill="#FF0000"/>
</svg>
