<svg width="400" height="400" viewBox="0 0 400 400" fill="none" xmlns="http://www.w3.org/2000/svg">
<path style="fill:#FF0000;" d="M349.744,251.665c-3.024-16.701-58.371-27.332-101.454-28.259
	c0,0-7.412-7.875-12.971-12.508c0,0-8.802-39.84-19.457-47.252c0,0-4.633-37.987-13.898-51.422
	c-9.265-13.434-32.428-18.53-36.598-11.581c-3.706,7.412,0,12.971,5.096,15.288c5.096,2.316,4.633,4.169,4.169,7.412
	c-0.463,3.243-10.655,34.281-6.949,44.936c0,0-5.559,7.412-12.045,31.038c-6.486,23.626-8.802,32.891-12.045,34.744
	c0,0-94.968,18.067-93.578,40.767c1.39,22.7,65.783,29.185,162.141,27.332S353.854,274.363,349.744,251.665z M78.86,278.348
	c-4.296,1.289-10.31-2.148-3.007-11.169c7.303-9.021,31.36-18.472,47.684-21.909C76.283,258.157,83.156,277.059,78.86,278.348z
	 M251.765,248.654l3.243,14.593c0,0-7.412,3.706-11.813,3.474c0,0,0-8.107-1.853-15.751
	C241.341,250.97,248.058,250.507,251.765,248.654z M198.721,112.224c1.39,1.853,3.706,24.553,7.875,34.281
	c4.169,9.728,0.463,21.31-2.316,27.796c-2.779,6.486,6.022-3.706,7.875-4.169s0.463,21.773,5.096,37.524
	c3.706,4.169,0,6.486-3.706,5.559c-3.706-0.927,4.633,3.706,7.875,6.949s12.971,4.633,21.773,21.31c0,0-31.038,7.875-40.767,0
	c-4.633-3.706-12.508-6.022-6.022-10.192c6.486-4.169,15.751-2.78,13.898-7.412s-2.316-5.559-12.508-10.655
	s-12.045-10.192-11.582-16.677c0.463-6.486,15.288-14.361,13.898-19.457c-1.39-5.096-4.633-6.022-8.339-26.869
	c-3.706-20.847-2.316-22.236,0-26.406c2.316-4.169,1.853-5.559-2.78-8.802c-4.633-3.243-4.169-4.633-4.169-4.633
	s-6.949-0.463-7.875-5.559C178.338,101.106,197.332,110.371,198.721,112.224z M226.054,272.744
	c10.655-1.39,10.887-1.158,10.887-2.548c0-1.39-0.463-16.446-3.706-18.53c0,0-20.079,1.81-28.027,0.927
	c-2.085-0.232-1.853-3.938-1.621-3.938c0,0,12.276-0.695,17.836-0.695s12.508-0.927,13.898-0.927s3.938,14.361,3.706,25.711
	c0,0-3.011,6.254-28.49,4.864c-3.011-0.232-3.938-3.474-1.853-4.169C210.766,272.744,215.399,274.133,226.054,272.744z
	 M216.557,257.919c0,0,2.085-0.232,12.276-0.695c0,0,2.316,6.949,0.695,12.045c0,0-6.418,1.469-13.203,0.695
	C216.325,269.964,214.472,262.32,216.557,257.919z M193.625,270.196c0,0-13.435-4.633-17.141-6.949
	c-3.706-2.316-2.78-6.949-2.316-7.875c8.339,1.39,18.994,0,18.994,0S192.699,262.784,193.625,270.196z M165.318,207.213
	c1.823-9.721,9.721-18.226,10.328-33.414c0.607-15.188,2.461-28.879,2.461-41.03c2.43-4.86,0.77,29.045,3.007,37.992
	c1.35,5.399-4.83,13.513-9.69,22.626c-2.43,4.556-3.426,14.445-0.737,22.506c1.642,4.923-6.403,2.268-6.123,4.672
	c1.486,12.755,0.147,20.669-4.713,16.416C154.99,232.729,163.496,216.933,165.318,207.213z M250.011,283.83
	c-70.553,7.026-103.475-15.474-103.475-15.474c42.86,7.67,51.722,6.704,51.722,6.704s0.105,3.158,2.779,3.474
	c12.076,1.427,21.584,2.293,31.27,0.232c10.887-2.316,9.497-5.096,9.497-5.096s18.782-5.767,18.53-9.034
	c-1.158-15.056-6.486-29.185-6.486-29.185c52.812,0,83.328,9.205,84.776,20.383C340.241,268.309,300.865,278.765,250.011,283.83z"/>
</svg>
