<svg width="400" height="400" viewBox="0 0 400 400" fill="none" xmlns="http://www.w3.org/2000/svg">
<path style="fill:#FF0000;" d="M320.382,149.684c-19.895-48.668-68.566-80.671-121.006-79.655
	c-28.698-0.642-57.416,9.344-80.898,28.094c-23.459,18.732-39.635,44.576-45.548,72.77c-5.383,25.666-3.281,53.855,5.768,77.339
	c9.002,23.361,26.147,44.602,48.277,59.809c20.74,14.252,46.386,21.96,72.765,21.959c1.856,0,3.719-0.038,5.581-0.115
	c28.318-1.168,55.399-11.184,76.256-28.206C326.142,265.313,342.099,202.81,320.382,149.684L320.382,149.684z M142.264,167.547
	l-13.456,23.367L96.72,167.547H142.264z M169.568,157.777h-10.494l24.007-41.666L169.568,157.777z M304.366,167.531l-30.632,22.306
	l-12.861-22.306H304.366L304.366,167.531z M264.167,208.794l6.533-4.79l2.781,4.79H264.167z M281.207,222.167l-20.764,15.103
	l-6.038-18.61h24.703L281.207,222.167z M144.095,267.66c4.314,2.744,7.481,5.753,9.85,9.358l-16.854,12.289l7.005-21.647H144.095z
	 M136.69,196.62l16.752-29.069h12.949l-13.284,41.037L136.69,196.62L136.69,196.62z M163.221,208.762l13.356-41.256h45.156
	l-13.371,41.256H163.221L163.221,208.762z M250.528,206.706l-12.712-39.211h11.872l16.171,28.064l-15.331,11.146L250.528,206.706z
	 M241.02,208.732h-22.473l11.23-34.659L241.02,208.732L241.02,208.732z M235.099,157.747l3.212-9.966l5.76,9.966H235.099z
	 M239.989,110.879c-0.887,3.446-2.008,6.8-3.194,10.351c-0.317,0.945-0.635,1.898-0.952,2.862l-25.274-43.854
	c17.517,1.69,33.495,6.655,48.669,15.132C249.424,95.09,242.65,100.532,239.989,110.879L239.989,110.879z M231.804,136.479
	l-2.022,6.228l-7.259-22.353l9.282,16.124L231.804,136.479z M208.755,249.108l36.69-26.71l6.771,20.867l-25.724,18.737
	l-17.736-12.894L208.755,249.108z M209.508,236.585l5.853-18.019h18.895L209.508,236.585z M193.349,286.468l9.546-29.641
	l15.589,11.337l-25.135,18.305L193.349,286.468z M205.154,218.636l-7.329,22.509l-30.932-22.509H205.154z M158.174,224.259
	l34.127,24.847l-30.191,21.982c-4.609-4.816-9.326-9.119-14.743-13.45L158.174,224.259L158.174,224.259z M162.599,297.099
	c0.034,0,0.067,0,0.101,0c2.488,0.041,4.986,1.556,4.96,4.854c-0.019,2.339-1.256,3.521-2.291,4.1
	c-1.726,0.966-4.126,0.922-5.837-0.11c-1.017-0.613-2.218-1.822-2.163-4.096c0.08-3.276,2.747-4.75,5.229-4.75L162.599,297.099z
	 M255.253,157.751l-12.898-22.334c1.8-5.598,3.705-11.143,5.665-16.489c0.326-0.888,0.622-1.831,0.936-2.83
	c1.245-3.966,2.656-8.461,6.289-9.924c3.756-1.514,8.083-0.043,10.295,3.494c2.838,4.542,1.012,9.605-0.754,14.502
	c-0.271,0.752-0.54,1.498-0.79,2.234c-4.389,1.744-9.386,4.488-10.475,10.105c-1.045,5.384,1.699,11.128,6.524,13.658
	c5.712,2.996,12.73,1.219,16.327-4.131c3.6-5.355,2.435-12.058-2.937-17.224l0.342-1.074c2.512-7.858,4.553-14.243,1.429-21.893
	c12.437,8.222,34.01,38.145,37.02,51.907h-56.974L255.253,157.751z M268.965,143.034c-1.709,1.022-4.145,1.029-5.919,0.018
	c-1.049-0.596-2.296-1.784-2.29-4.057c0.008-3.258,2.674-4.771,5.148-4.798c0.022,0,0.046,0,0.069,0c2.492,0,5.018,1.468,5.098,4.77
	c0.055,2.287-1.114,3.474-2.106,4.066V143.034z M136.844,208.75h-7.125l2.094-3.657L136.844,208.75z M149.849,218.539
	l-11.265,34.807c-7.055-2.773-14.023-4.153-21.039-4.153c-3.945,0-7.905,0.436-11.904,1.308l18.416-31.962h25.791H149.849z
	 M159.001,285.321l1.848,4.127c-6.795,1.626-10.972,6.329-10.992,12.502c-0.011,3.195,1.287,6.331,3.579,8.696
	c-5.847-2.486-11.519-5.468-16.933-8.941l22.499-16.385L159.001,285.321z M172.221,309.875c2.24-2.765,3.234-6.335,2.728-9.796
	c-0.309-2.113-1.19-4.112-2.042-6.045c-0.461-1.045-0.895-2.031-1.243-3.027c-1.032-2.956-2.058-5.914-3.084-8.87l-1.05-3.026
	l23.57-17.146c-2.507,7.783-5.015,15.566-7.557,23.337c-1.457,4.457-2.761,8.099-4.105,11.462c-1.068,2.675-1.134,4.756-0.196,6.189
	c0.757,1.156,2.093,1.772,3.97,1.831c0.058,0,0.116,0.002,0.174,0.002c2.951,0,5.581-2.312,7.906-4.357
	c0.674-0.593,1.312-1.153,1.898-1.601c3.448-2.637,7.102-5.371,11.168-8.359c2.253-1.656,4.536-3.413,6.744-5.113
	c5.05-3.889,10.266-7.906,15.686-11.15l37.307,27.164c-29.819,19.216-67.144,23.598-100.255,13.123
	C167.087,314.136,170.117,312.473,172.221,309.875L172.221,309.875z M255.357,252.966l12.767,39.356l-33.425-24.331L255.357,252.966
	L255.357,252.966z M286.055,230.603l6.937,12.05c-0.435,0.42-0.873,0.836-1.309,1.252c-4.403,4.196-8.955,8.535-10.783,14.961
	l-0.174,0.613l2.171,1.844h0.363c4.093,0,5.209-0.59,7.46-3.949c2.012-2.998,3.835-5.098,5.909-6.809
	c4.105-3.383,9.352-5.448,14.596-5.781c-7.705,18.815-18.596,34.086-33.235,46.599l-14.405-44.403l22.471-16.378L286.055,230.603z
	 M295.433,223.965c4.627-2.89,12.372-7.726,9.339-12.74c-1.611-2.663-4.634-2.535-7.064-2.434c-0.455,0.018-0.9,0.038-1.325,0.038
	h-11.679l-6.14-10.531l37.737-27.482c5.336,21.84,4.686,43.73-1.93,65.093l-12.824,2.173l-7.612-13.169
	C294.367,224.632,294.878,224.313,295.433,223.965L295.433,223.965z M224.471,157.709h-44.703l22.334-68.954L224.471,157.709z
	 M87.721,157.738c17.252-44.68,57.26-74.29,105.015-77.751l-44.802,77.751C147.934,157.738,87.721,157.738,87.721,157.738z
	 M96.66,220.046c-0.025,0-0.049,0-0.074,0c-2.245,0-3.439-1.232-4.046-2.271c-1.02-1.748-1.045-4.156-0.059-5.855
	c0.583-1.006,1.765-2.198,4.086-2.198h0.062c3.325,0.03,4.817,2.574,4.821,5.083C101.453,217.3,99.956,220.005,96.66,220.046
	L96.66,220.046z M92.13,203.235c-5.364,1.669-8.397,6.255-8.112,12.268c0.303,6.39,5.589,11.661,12.035,12
	c5.06,0.255,9.228-2.674,12.702-8.983h4.138l-20.191,35.068c-12.972-27.205-15.874-54.536-8.859-83.438l40.065,29.173l-5.407,9.491
	h-10.659c-3.84-5.681-10.741-7.127-15.71-5.58L92.13,203.235z M135.43,263.036l-10.063,31.031
	c-10.512-8.161-19.309-18.02-26.847-30.084C106.268,258.019,125.428,257.507,135.43,263.036L135.43,263.036z"/>
</svg>
