<svg width="400" height="400" viewBox="0 0 400 400" fill="none" xmlns="http://www.w3.org/2000/svg">
<path style="fill:#FF0000;" d="M217.77,230.483c7.495,10.533,15.698,20.762,26.637,27.751c11.141,7.09,24.307,10.027,37.372,8.102
	c23.294-3.443,42.841-21.573,46.487-45.07c3.646-23.193-8.609-47.095-30.89-55.805c-11.242-4.355-23.699-4.558-34.84,0.405
	c-11.748,5.267-20.864,15.091-28.46,25.117c-16.104,21.269-27.143,45.88-46.69,64.414c-19.344,18.433-45.373,28.257-72.213,23.092
	c-25.219-4.861-46.589-21.37-57.628-44.563c-10.128-21.167-10.027-46.589,0.101-67.655c10.027-20.864,29.574-34.739,51.45-41.018
	c23.497-6.786,56.818-9.723,74.947,10.128c1.519,1.722,3.646,3.747,2.329,5.874c-1.215,2.026-3.342,4.152-5.57,5.165
	c0.912-1.62,1.722-3.038,2.532-4.558c-1.418-0.912-2.026,1.722-2.735,2.633c-0.912,1.215-2.127,2.127-3.545,2.836
	c1.114-2.127,1.924-4.152,1.519-6.381c-6.077-1.722-12.356-3.038-16.812,2.735c4.861,2.532,8.811,4.558,11.343,9.824
	c1.317,2.532,2.026,5.469,3.646,7.9c0.608,1.013,1.418,1.823,2.532,2.329c0.81,0.405,2.735,0,3.14,0.709
	c-0.81,0.304-1.62,0.608-2.633,0.911c0.203,0.608,0.405,1.215,0.608,1.722c-0.101,0.101-0.101,0.101-0.203,0.203
	c-6.482-4.659-7.9-15.8-16.509-17.825c-0.101,0.101-0.101,0.203-0.203,0.203c1.013,2.228,10.027,12.964,7.09,14.483
	c-1.722,0.912-5.672-2.026-6.887-2.735c-2.735-1.519-5.368-3.14-8.001-4.76c-11.141-6.988-22.282-11.242-35.448-7.393
	c-19.142,5.672-32.612,22.18-34.638,42.132c-2.329,21.674,12.559,42.639,33.625,48.007c25.016,6.482,44.158-11.445,58.033-29.979
	c15.091-20.053,27.852-42.031,47.602-58.033c18.939-15.395,43.246-22.991,67.351-17.218c21.775,5.165,40.816,20.155,50.539,40.309
	c10.331,21.37,9.622,47.095-2.127,67.858c-11.242,19.75-31.599,32.207-54.083,34.638c-24.814,2.633-46.487-10.634-60.059-30.587
	c-3.342-4.963-6.279-10.229-9.115-15.597C217.568,230.686,217.669,230.585,217.77,230.483z M342.547,193.617
	c0.101,0,0.203,0,0.304-0.101c-4.963-21.775-18.737-41.93-40.107-50.134c-22.18-8.507-48.31-6.482-68.161,6.887
	c0,0.101,0.101,0.101,0.101,0.203c20.256-10.938,43.753-11.343,65.123-3.14C320.468,155.334,336.166,172.653,342.547,193.617z
	 M79.118,205.366c0,22.079,18.028,39.702,38.486,44.766c10.432,2.633,21.167,2.329,30.992-2.127
	c9.622-4.355,18.332-12.154,23.902-21.066c-0.101-0.101-0.203-0.101-0.304-0.203c-12.255,17.015-35.448,24.611-55.299,18.737
	C97.855,239.801,83.574,225.014,79.118,205.366z M67.876,159.385c0.101,0.101,0.203,0.203,0.304,0.304
	c3.241-4.558,8.508-8.507,12.964-11.748c4.456-3.241,9.115-6.077,13.875-8.71c9.925-5.267,20.357-9.216,31.194-12.154
	c0-0.101-0.101-0.203-0.101-0.304C103.324,129.811,81.144,139.838,67.876,159.385z M309.935,259.449
	c-15.091,9.622-31.295,12.356-48.817,9.014C277.931,275.046,296.262,270.894,309.935,259.449z M164.7,138.42
	c0-0.101,0-0.304,0-0.405c-2.633,0-6.482-0.709-9.014,0.101c-2.228,0.709-2.228,3.038-0.203,4.355
	C154.167,137.002,161.155,138.42,164.7,138.42z M156.699,127.38c0,0.101-0.101,0.203-0.101,0.304
	c1.114,1.418,2.228,2.937,4.152,3.444c0.101-0.912,0.203-1.823,0.304-2.735c-0.405-0.101-0.81-0.203-1.418-0.304
	c0.101,0.912,0.203,1.62,0.203,2.431c-1.013-0.608-1.013-1.62-1.215-2.633C157.914,127.684,157.306,127.482,156.699,127.38z
	 M161.357,131.533c1.924,0.405,3.444,0,5.064-1.215C163.484,129.001,163.484,129.305,161.357,131.533z M181.31,141.458
	c-0.81,0.608-1.013,1.215-1.317,2.937C180.702,143.484,181.208,142.674,181.31,141.458z"/>
</svg>
