<svg width="400" height="400" viewBox="0 0 400 400" fill="none" xmlns="http://www.w3.org/2000/svg">
<path style="fill:#FF0000;" d="M180.766,146.227c0.843-1.535,1.619-2.946,2.429-4.421c-1.45-0.356-1.899,1.74-2.531,2.606
	c-0.78,1.067-2.136,2.574-3.573,2.665c0.494-1.147,1.845-4.085,1.476-5.366c-0.476-1.654-4.47-1.908-5.853-2.07
	c-3.924-0.461-8.374,0.321-10.685,3.91c4.664,2.586,8.725,5.006,11.253,9.904c1.15,2.228,1.726,4.703,2.991,6.875
	c1.61,2.766,3.2,3.17,6.153,3.722c0.003,0.104,0.005,0.208,0.008,0.312c-0.782,0.311-1.565,0.624-2.434,0.971
	c0.153,0.551,0.308,1.11,0.534,1.924c-3.693-1.703-5.808-6.572-7.868-9.829c-1.644-2.601-5.118-8.38-8.996-7.764
	c2.38,3.778,6.411,7.995,7.308,12.439c1.041,5.158-8.141-1.18-9.69-2.105c-8.44-5.034-16.781-10.662-26.751-11.949
	c-19.11-2.469-37.769,11.543-45.023,28.544c-2.055,4.816-4.016,10.755-3.901,16.06c0.054,2.482,1.686,5.034,2.69,7.262
	c1.256,2.783,0.868,3.798-2.25,3.505c1.696,5.849,3.416,11.381,6.783,16.528c2.955,4.517,6.742,8.497,11.048,11.746
	c8.96,6.757,20.69,10.105,31.846,8.308c24.972-4.024,40.398-28.922,53.81-47.839c4.251-5.995,8.363-12.098,11.855-18.572
	c1.641-3.043,3.014-6.178,4.458-9.314c0.34-0.738,0.977-2.908,1.997-2.773c1.333,0.177,2.011,2.849,2.213,3.807
	c14.44-15.316,31.084-28.032,52.26-31.975c10.747-2,21.846-1.616,32.391,1.288c5.271,1.452,10.265,3.685,15.702,4.504
	c1.83,0.275,5.179,0.109,6.76,1.139c1.806,1.177-0.054,2.844-1.001,4.023c15.68,10.765,27.457,26.044,31.851,44.77
	c4.539,19.342,1.251,40.607-9.888,57.178c-3.152,4.689-7.254,8.508-10.69,12.961c-1.654,2.143-3.115,4.438-4.58,6.712
	c-0.582,0.903-1.275,2.658-2.564,2.464c-1.061-0.16-1.4-1.847-1.749-2.668c-9.463,5.115-18.712,9.246-29.457,10.798
	c-10.711,1.547-21.571,0.226-31.564-3.949c-8.881-3.71-16.775-9.531-23.359-16.514c-3.262-3.46-6.196-7.229-8.749-11.24
	c-1.475-2.317-2.833-4.708-4.191-7.094c-1.301-2.286-3.163-4.747-3.881-7.277c0.085-0.051,0.168-0.103,0.253-0.154
	c2.55,2.231,4.468,5.502,6.554,8.171c2.121,2.713,4.284,5.399,6.613,7.938c4.035,4.395,8.559,8.361,13.602,11.563
	c11.261,7.152,24.72,10.06,37.915,8.016c23.601-3.656,43.185-22.872,46.059-46.727c1.619-13.438-1.917-27.362-10.302-38.087
	c-0.539,0.815-1.426,2.89-2.626,2.23c-0.969-0.533-1.14-3.099-1.507-4.067c-1.083-2.865-3.041-5.467-5.329-7.482
	c-4.88-4.296-11.668-7.024-17.935-8.474c-6.7-1.549-13.77-1.68-20.48-0.113c-7.202,1.681-13.041,5.532-19.155,9.486
	c1.373,0.931,2.977,1.676,1.46,3.132c-1.275,1.223-4.19,1.956-5.745,2.913c-3.689,2.269-6.861,5.131-9.492,8.567
	c0.895,1.125,2.291,0.936,1.175,2.451c-0.902,1.225-3.117,2.261-4.312,3.292c-3.023,2.606-5.718,5.575-7.909,8.915
	c-5.099,7.776-9.961,15.711-15.06,23.49c-9.506,14.502-19.995,28.412-34.277,38.562c-7.469,5.308-15.67,9.132-24.3,12.155
	c1.052,2.715,1.678,3.893-1.733,3.864c-2.718-0.023-5.435-0.039-8.153-0.065c-4.883-0.047-9.769-0.106-14.65-0.273
	c-10.555-0.361-20.076-3.01-29.95-6.552c0.574,2.704-0.019,5.171-2.843,2.954c-2.887-2.268-5.704-4.659-8.457-7.088
	c-4.937-4.356-9.777-9.081-14.363-13.797c-9.272-9.537-16.14-21.457-19.64-34.289c-7.139-26.17-0.364-55.474,19.102-74.681
	c4.96-4.894,10.57-9.098,16.619-12.552c6.296-3.594,13.001-5.692,19.597-8.566c-2.209-1.245-0.669-2.282,1.127-2.404
	c2.026-0.138,4.063-0.006,6.09-0.052c4.64-0.105,9.171-1.185,13.751-1.811c9.099-1.244,18.578-1.395,27.643,0.206
	c8.162,1.441,16.146,4.499,22.672,9.688c2.387,1.898,6.684,5.028,7.308,8.193C187.205,141.648,183.478,146.039,180.766,146.227z
	 M163.773,237.31c0.077,0.083,0.154,0.164,0.231,0.247c1.604-1.928,4.45-4.089,7.133-3.54c1.926,0.394,4.274,2.805,3.634,4.974
	c-0.569,1.93-4.068,1.915-5.658,2.96c-2.17,1.427-3.727,3.589-5.334,5.581c3.409-1.055,8.731-6.433,11.893-1.855
	c3.17,4.589-1.899,8.579-4.788,11.606c3.51-1.646,8.066-3.399,9.847-7.151c1.985-4.183-0.575-7.089-3.721-9.519
	c2.245-3.561,1.918-8.988-3.118-9.914C169.448,229.882,165.899,234.026,163.773,237.31z M265.438,143.473
	c2.355-0.058,10.271-0.735,7.628,4.187c-0.794,1.478-2.661,2.157-4.206,2.506c-2.166,0.488-3.694-0.539-5.705-1.353
	c0.568-3.423-1.321-5.701-4.655-6.588c-4.328-1.152-8.644,0.975-12.051,3.46c3.274-0.745,10.704-3.231,12.208,1.774
	c1.215,4.045-4.929,7.604-7.588,9.224c2.491-0.59,4.819-1.678,6.996-3.006c1.675-1.021,2.988-2.737,4.992-1.636
	c5.216,2.864-2.847,7.235-5.201,8.488c2.799-0.491,5.923-1.205,8.175-3.058c2.322-1.91,2.119-4.248,1.391-6.877
	c2.968,0,10.285-0.197,9.46-5.002C276.029,140.621,268.454,141.976,265.438,143.473z M81.65,151.458
	c-0.386,2.623-1.154,6.983,2.898,6.85c3.344-0.11,5.379-3.616,6.495-6.31c-1.506,0.455-2.07,2.534-3.964,2.883
	c-1.319,0.244-2.566-0.237-3.086-1.555c-0.745-1.886,0.72-2.465,1.919-3.616c1.376-1.321,2.3-2.934,3.241-4.577
	c-2.101,1.408-4.878,4.459-7.398,2.5c-2.215-1.721-1.232-4.258-0.798-6.605C77.519,143.653,76.239,150.375,81.65,151.458z
	 M83.343,232.742c0.843,1.535,2.386,4.255,1.609,6.043c-0.619,1.424-3.275,2.383-4.482,1.015c-0.811-0.918-0.449-3.188-1.191-4.411
	c-0.893-1.471-2.337-2.551-3.664-3.601c1.251,2.13,3.827,5.401,0.718,7.307c-2.365,1.45-4.98-1.253-6.826-2.509
	c2.434,3.772,5.983,7.163,10.305,4.222c1.852,1.765,5.852,4.545,7.481,0.816C88.631,238.559,85.8,234.39,83.343,232.742z
	 M197.609,229.035c1.933,0.339,4.766-4.553,5.279-5.982c0.88-2.452,0.882-5.272-1.358-6.977c-4.958-3.772-10.672,2.907-11.186,7.543
	c1.486-2.622,4.871-6.113,8.141-4.252C202.49,221.648,199.373,226.504,197.609,229.035z M334.159,199.823
	c-0.713,2.51-0.585,5.766,0.998,7.96c1.681,2.331,3.073,1.256,5.335,0.969c0.359,2.048,1.392,4.327,3.833,4.058
	c2.433-0.268,3.87-3.252,3.235-5.47c-0.5,1.236-1.195,2.74-2.682,2.92c-1.351,0.163-2.855-1.12-2.991-2.483
	c-0.155-1.549,0.968-3.429,0.944-5.146c-0.023-1.658-0.387-3.269-0.675-4.893c-0.289,2.557-0.017,6.924-3.258,7.805
	C335.505,206.465,334.714,202.12,334.159,199.823z M69.99,218.956c-0.456,4.366,2.637,12.116,8.118,11.478
	c2.91-0.339,4.428-3.414,4.611-6.05c0.231-3.325-1.499-6.049-3.11-8.781c-0.073,0.043-0.147,0.087-0.22,0.129
	c0.921,3.447,3.352,9.364-1.817,10.748C73.349,227.611,70.945,222.057,69.99,218.956z M76.431,149.455
	c-2.396,1.831-6.057,5.907-3.568,8.965c2.898,3.561,6.377,0.51,7.687-2.586c-1.784,0.47-4.319,1.733-5.405-0.431
	C74.249,153.618,75.419,150.935,76.431,149.455z M332.803,215.98c-0.858,2.393-0.662,7.415,2.878,7.484
	c4.251,0.083,4.197-5.535,3.768-8.335c-0.589,1.974-0.852,4.965-3.576,5.158C333.385,220.463,333.057,217.825,332.803,215.98z
	 M154.724,143.268c-0.171-5.837,5.889-5.07,10.25-5.444c-3.015-0.063-6.693-0.39-9.547,0.733
	C153.18,139.441,152.307,141.863,154.724,143.268z M167.625,130.505c-0.95-0.463-1.777-0.724-2.38-0.877
	c-0.923-0.235-1.257-0.202-1.537-0.072c-0.228,0.106-0.399,0.268-0.971,1.111c-0.356,0.525-0.644,0.986-0.862,1.347
	c0.381,0.07,0.93,0.136,1.588,0.095c1.164-0.072,2.017-0.439,2.54-0.67C166.433,131.251,167.004,130.957,167.625,130.505z
	 M159.443,127.788c0.05,0.523,0.087,1.079,0.105,1.667c0.017,0.559,0.015,1.092-0.002,1.595c0.153,0.103,0.326,0.21,0.521,0.312
	c0.244,0.129,0.475,0.229,0.684,0.306c0.064-0.587,0.129-1.175,0.194-1.764c0.06-0.534,0.12-1.066,0.181-1.597
	c-0.242-0.108-0.52-0.216-0.833-0.312C159.985,127.9,159.699,127.834,159.443,127.788z M155.222,126.977
	c1.049,1.156,1.982,2.185,2.916,3.213c-0.007-0.563-0.052-1.034-0.097-1.383c-0.111-0.862-0.233-1.059-0.354-1.188
	c-0.093-0.099-0.251-0.228-0.896-0.396C156.419,127.126,155.886,127.016,155.222,126.977z"/>
</svg>
