<svg width="400" height="400" viewBox="0 0 400 400" fill="none" xmlns="http://www.w3.org/2000/svg">
<path style="fill:#0000FF;" d="M172.537,130.766c2.237-0.065,4.378-0.573,8.587-2.414c2.971-1.298,5.861-2.775,8.652-4.425
	c3.247-1.934,6.36-4.084,9.317-6.437c1.836-1.412,3.542-2.984,5.099-4.7c2.099-2.304,2.758-3.609,2.937-5.023
	c0.122-1.087,0.001-2.187-0.355-3.222c-0.267-0.737-0.66-1.422-1.163-2.024c-0.924,1.904-2.085,3.684-3.457,5.298
	c-2.589,3.02-5.844,5.398-9.507,6.946c2.159-1.752,4.091-3.766,5.754-5.995c0.831-1.102,5.308-7.147,3.634-9.514
	c-0.27-0.388-0.582-0.505-1.105-1.28c-0.598-0.873-0.785-1.595-1.201-3.017c-0.629-2.14-0.943-3.205-1.155-3.505
	c-0.946-1.335-2.445-1.787-3.178-2.008c-1.942-0.581-3.582-0.195-5.445,0.239c-1.487,0.351-2.923,0.884-4.277,1.588
	c0.087,0.921,0.198,1.901,0.345,2.903c0.113,0.785,0.239,1.553,0.378,2.301c0.651-0.346,1.274-0.746,1.861-1.193
	c0.716-0.547,1.375-1.164,1.964-1.846c-0.38,1.079-0.87,2.117-1.46,3.098c-1.929,3.167-4.424,4.842-7.245,6.682
	c-2.804,1.815-5.82,3.276-8.983,4.352c-2.573,0.883-5.225,1.514-7.92,1.883c0.937-0.415,1.844-0.894,2.714-1.436
	c0.584-0.348,1.101-0.712,1.573-1.07c-0.465-0.416-1.157-1.007-2.039-1.656c-0.973-0.714-1.458-1.072-1.858-1.144
	c-1.551-0.271-3.1,1.796-4.083,3.094c-1.509,2.003-3.15,4.183-2.446,6.468c0.472,1.526,1.76,2.366,2.138,2.599
	c1.315,0.828,3.42,1.387,9.477-0.43c3.678-1.113,7.229-2.611,10.592-4.47c-4.983,4.358-11.287,6.915-17.898,7.258
	c0.403,0.774,0.747,1.579,1.031,2.404c0.694,2,0.538,2.762,1.04,4.358c0.359,1.153,0.926,2.95,2.362,4.124
	C168.808,130.855,170.772,130.823,172.537,130.766z M176.647,81.184c2.082,3.086,4.939,8.147,6.815,15.408
	c-0.728-5.154-1.934-10.229-3.603-15.16c-0.992-2.906-1.986-5.26-4.283-7.159c-1.589-1.28-3.464-2.155-5.464-2.549
	c-3.683-0.807-6.843,0.049-10.41,1.288c-5.626,1.951-9.718,3.958-14.404,6.321c-8.66,4.331-8.925,4.583-14.828,7.505
	c-7.497,3.71-8.072,3.814-11.493,5.758c-4.738,2.697-8.284,5.187-11.651,8.343c-2.312,2.168-3.774,3.565-4.998,5.942
	c-1.498,2.923-1.843,5.777-1.839,9.911c0.03,6.145,0.768,12.266,2.197,18.243c-0.476-4.679-0.383-9.397,0.274-14.054
	c0.618-4.322,1.018-7.132,2.802-10.292c1.392-2.462,3.403-4.739,9.704-8.968c4.285-2.872,6.891-4.183,15.091-8.559
	c5.922-3.153,11.909-6.203,17.78-9.435c3.723-2.093,7.568-3.962,11.514-5.597c6.639-2.731,9.246-2.995,11.547-2.113
	C172.75,76.541,174.186,77.527,176.647,81.184z M143.447,220.25c-0.443-7.215-0.464-14.45-0.064-21.667
	c0.244-5.503,0.818-10.986,1.721-16.421c0.962-5.685,1.486-8.758,2.883-13.001c1.476-4.462,2.478-5.838,3.158-9.923
	c0.343-2.063,0.864-5.341,0.183-9.371c-0.533-3.183-1.306-3.791-3.035-8.896c-0.837-2.464-1.941-5.723-2.599-9.56
	c-0.476-2.814-1.291-7.779-0.076-13.942c0.689-3.887,2.14-7.599,4.266-10.925c1.744-2.714,3.946-5.103,6.508-7.064
	c1.243-0.928,2.566-1.743,3.954-2.437c5.791,0.572,11.295,2.801,15.852,6.419c-1.656-3.098-3.725-5.958-6.15-8.5
	c-2.796-2.915-4.463-4.666-7.182-5.291c-3.456-0.79-6.416,0.737-10.539,2.865c-3.611,1.868-6.92,4.27-9.813,7.127
	c1.034-0.244,2.615-0.652,4.544-1.264c2.768-0.885,3.932-1.462,4.211-1.097c0.396,0.518-1.531,2.261-3.26,4.729
	c-2.208,3.156-3.015,5.972-4.085,9.701c-1.061,3.791-1.65,7.699-1.754,11.635c-0.155,3.345,0.119,6.61,0.67,13.136
	c0.564,6.71,0.797,7.007,1.031,11.527c0.364,6.88,0.033,10.153-0.085,11.211c-0.328,2.955-0.705,3.959-1.603,8.259
	c-0.472,2.266-1.89,9.114-2.464,15.033c-0.538,5.648-0.217,9.728,0.235,15.476C140.545,205.503,141.713,212.938,143.447,220.25z
	 M111.088,129.125c-0.975,4.796-1.162,9.718-0.558,14.574c0.58-4.901,1.875-9.691,3.844-14.217c1.052-2.403,2.285-5.166,4.778-8.245
	c2.071-2.552,4.538-4.754,7.308-6.523c-0.845,1.437-1.525,2.963-2.028,4.552c-0.865,2.753-1.192,5.648-0.964,8.526
	c1.041-3.533,2.404-6.963,4.075-10.245c1.527-2.957,3.273-5.795,5.223-8.493c1.889-2.705,3.927-5.303,6.103-7.783
	c-4.061,1.858-7.987,3.995-11.752,6.397c-5.918,3.775-8.926,5.737-11.494,9.41C112.702,121.255,111.881,125.309,111.088,129.125z
	 M99.546,102.195c-1.534-1.846-3.697-4.519-6.182-7.834c-3.46-4.612-5.191-6.933-6.622-9.628c-1.586-2.986-3.568-7.826-4.076-14.733
	c-2.692,5.855-4.928,11.907-6.687,18.107c-2.456,8.684-3.723,13.348-2.917,19.711c0.611,4.482,2.018,8.819,4.155,12.807
	c1.826,3.401,3.889,5.927,8.019,10.979c3.919,4.792,5.858,6.55,7.547,10.628c0.888,2.097,1.457,4.314,1.686,6.579
	c0.245,2.676-0.01,5.373-0.751,7.955c1.242-1.524,3.43-4.679,3.821-9.063c0.287-3.119-0.473-5.482-1.314-8.131
	c-0.656-2.072-1.516-4.066-5.404-10.706c-3.812-6.501-3.752-5.881-5.386-8.97c-2.23-4.215-3.896-7.423-4.756-11.993
	c-0.396-2.185-0.959-5.258-0.27-9.19c0.561-3.142,1.776-6.131,3.564-8.774c1.005,1.483,2.13,2.879,3.367,4.175
	C90.767,97.673,94.934,100.431,99.546,102.195z M87.795,102.612c0.262,1.53,0.635,3.916,0.947,6.87
	c0.456,4.205,0.235,4.418,0.638,6.314c0.812,3.838,2.487,6.609,3.804,8.784c1.196,1.976,2.573,3.838,4.11,5.563
	c0.396-2.234,0.547-4.504,0.449-6.771c-0.111-2.467-0.321-6.298-2.354-10.326c-0.672-1.338-1.646-2.671-3.598-5.341
	C90.206,105.521,88.797,103.787,87.795,102.612z M103.509,145.459c1.391,6.222,1.352,12.678-0.114,18.881
	c2.482-1.849,4.125-4.611,4.564-7.675c2.256,2.182,4.178,4.683,5.704,7.426c1.148,2.07,3.034,5.545,3.576,10.495
	c0.373,3.499,0.016,7.038-1.051,10.392c1.883-2.172,3.207-4.771,3.859-7.572c0.612-2.726,0.413-5.122,0.294-6.569
	c-0.323-3.935-1.234-4.3-1.058-7.21c0.149-2.485,0.945-4.508,1.52-5.974c0.983-2.495,1.536-2.737,2.244-4.698
	c0.995-2.751,0.929-5.108,0.889-6.599c-0.125-3.603-1.135-7.12-2.944-10.239c0.598,2.124,0.86,4.329,0.776,6.534
	c-0.065,1.659-0.137,3.625-1.117,5.851s-1.907,2.547-3.291,4.916c-0.962,1.675-1.646,3.494-2.024,5.387
	c-1.694-2.148-3.529-4.362-5.522-6.616C107.674,149.766,105.556,147.522,103.509,145.459z M135.607,132.294
	c0.806-3.453,1.89-8.465,2.943-15.046c-1.058,2.638-2.395,6.001-3.935,9.921c-3.512,8.945-3.966,10.342-4.404,12.442
	c-0.741,3.631-1.165,7.32-1.266,11.025c-0.039,2.391,0.113,3.663-0.26,6.095c-0.446,2.915-1.134,4.123-1.908,6.988
	c-0.773,2.865-0.986,4.961-1.31,8.216c-0.671,6.669-0.219,11.857,0.116,15.493c0.32,3.462,0.825,6.905,1.513,10.313
	c-0.547-4.594-0.458-9.242,0.263-13.813c0.492-2.968,1.204-5.895,2.13-8.757c1.274-4.031,1.841-4.472,3.158-8.666
	c1.081-3.481,1.822-5.845,2.115-9.173c0.229-2.612,0.089-4.784-0.178-8.958c-0.221-3.469-0.389-3.712-0.446-5.504
	C134,138.647,134.793,135.673,135.607,132.294z M80.796,133.992c-5.196-6.399-11.668-9.467-15.181-10.829
	c1.195,1.938,2.288,3.936,3.272,5.989c1.59,3.314,1.651,4.179,2.99,6.088c1.277,1.779,2.82,3.351,4.576,4.658
	c2.213,1.731,3.226,1.94,4.878,3.057c1.821,1.232,4.162,3.386,6.12,7.426c-0.092-1.899-0.388-3.783-0.885-5.618
	C85.113,139.383,82.333,135.886,80.796,133.992z M70.435,142.943c-3.887-2.668-6.955-5.048-9.007-6.702
	c2.016,2.77,4.948,7.24,6.984,12.51c1.296,3.346,1.594,5.378,1.636,7.066c0.027,1.107-0.111,2.315-0.385,4.729
	c-0.504,4.426-0.885,5.194-0.687,7.106c0.184,1.642,0.682,3.233,1.466,4.688c-0.039-1.881,0.32-3.75,1.052-5.484
	c0.639-1.487,1.07-1.671,1.93-3.577c0.767-1.557,1.271-3.229,1.488-4.952c0.19-1.808,0.002-3.635-0.548-5.367
	c5.791,3.707,8.434,8.026,9.591,10.328c1.563,3.105,2.086,5.843,2.743,9.299c0.819,4.288,1.178,8.652,1.071,13.017
	c1.298-4.049,1.991-8.267,2.056-12.518c0.053-3.748,0.123-8.165-2.062-13.229c-2.011-4.683-4.936-7.6-6.697-9.32
	C78.009,147.549,76.172,146.881,70.435,142.943z M83.197,183.876c-0.621-1.789-0.899-3.678-0.817-5.571
	c0.105-2.019,0.584-2.641,0.504-4.743c-0.081-1.552-0.402-3.08-0.953-4.533c-0.714-1.868-1.783-3.58-3.148-5.041
	c0.019,1.228-0.04,2.457-0.178,3.677c-0.35,3.164-0.933,3.629-0.928,5.466c0.005,2.411,1.006,4.225,2.109,6.217
	C80.705,181.01,81.854,182.534,83.197,183.876z M98.76,190.701c1.168,2.42,2.568,4.721,4.18,6.871
	c0.566,6.093,2.598,11.958,5.923,17.096c-1.048-2.836-1.686-5.808-1.894-8.824c-0.109-1.739-0.085-3.484,0.073-5.22
	c0.274-3.046,0.941-6.043,1.982-8.917c0.922,1.036,2.361,2.647,4.091,4.609c6.741,7.571,6.913,7.661,7.766,8.863
	c2.573,3.627,4.467,7.69,5.593,11.993c1.599,6.176,1.497,12.668-0.297,18.79c1.816-2.189,3.255-4.666,4.254-7.329
	c2.013-5.383,1.629-9.992,1.376-12.658c-0.223-2.364-0.762-7.5-3.959-12.715c-1.159-1.886-1.568-1.994-7.542-8.534
	c-3.975-4.351-5.965-6.528-7.169-8.05c-2.476-3.112-5.559-7.952-7.802-15.136c-0.582,3.4-1.099,6.948-1.553,10.645
	c-0.404,3.327-0.73,6.548-0.976,9.66c-0.828-1.382-1.506-2.85-2.021-4.376c-0.5-1.53-0.849-3.106-1.039-4.704
	c-0.34-2.71-0.082-3.985-0.145-5.487c-0.081-2.047-0.784-4.949-3.577-8.456c-0.073,1.1-0.174,2.707-0.274,4.654
	c-0.204,3.935-0.308,5.902-0.268,6.748C95.677,184.318,97.14,187.339,98.76,190.701z M78.448,193.45
	c0.87,4.103,0.922,7.343,0.979,11.173c0.085,5.458-0.419,5.579-0.133,9.3c0.269,3.481,0.53,6.881,2.413,10.727
	c2.569,5.242,6.553,8.046,8.102,9.11c2.497,1.706,5.276,2.958,8.208,3.699c-2.953-1.905-5.584-4.268-7.793-7.001
	c-1.339-1.655-3.519-4.401-4.969-8.552c-1.129-3.235-1.33-5.879-1.569-9.472c-0.064-0.928-0.087-3.359-0.123-8.188
	c-0.045-5.693-0.027-6.551-0.292-8.102c-0.438-2.533-1.283-4.977-2.504-7.238c5.118,4.39,9.227,9.833,12.043,15.958
	c-1.552-5.38-4.081-10.429-7.457-14.895c-2.181-2.838-4.669-5.424-7.419-7.713c-2.647-2.25-5.505-4.238-8.536-5.935
	c2.118,2.043,3.934,4.378,5.39,6.936C77.119,187.344,77.905,190.934,78.448,193.45z M95.027,226.097
	c1.302,1.753,1.687,1.869,3.618,4.26c2.033,2.519,2.659,3.696,4.213,5.851c0.826,1.142,3.355,4.647,6.152,7.242
	c5.435,5.037,11.759,6.515,13.778,6.959c2.424,0.535,7.481,1.593,13.581-0.075c2.255-0.619,4.417-1.541,6.425-2.739
	c-3.825,0.826-7.796,0.689-11.555-0.401c-3.478-1.051-6.673-2.874-9.348-5.334c-2.748-2.418-4.198-4.688-6.794-8.766
	c-1.852-2.895-3.519-5.904-4.991-9.01c0.336,4.405,1.415,8.72,3.191,12.764c-3.217-3.667-5.946-7.735-8.121-12.101
	c-1.011-2.035-1.039-2.4-4.788-12.233c-3.21-8.456-3.605-9.277-5.625-14.749c-1.513-4.102-2.721-7.52-3.549-9.9
	c1.491,6.523,2.93,13.198,4.318,20.028c0.985,4.876,1.91,9.69,2.777,14.443c-4.264-3.106-7.425-7.493-9.024-12.519
	c0.109,3.307,0.791,6.571,2.015,9.646C92.256,221.823,93.508,224.053,95.027,226.097z M116.907,210.733
	c0.552,1.721,0.855,3.511,0.902,5.319c0.044,2.03-0.281,2.923-0.133,5.229c0.093,1.363,0.311,2.715,0.653,4.037
	c0.422,1.579,1.468,4.543,4.301,7.693c0.74-2.369,1.065-4.849,0.961-7.329C123.247,217.795,118.559,212.455,116.907,210.733z
	 M141.676,241.163c2.694-2.163,3.147-5.426,3.326-6.717c0.77-5.541-2.515-9.751-3.302-10.711c1.164,2.842,1.219,6.018,0.152,8.898
	c-1.008,2.61-2.888,4.79-5.322,6.171c-4.318,2.451-8.583,1.331-9.421,1.094c1.461,1.2,3.164,2.073,4.99,2.561
	C133.306,242.778,138.096,244.048,141.676,241.163z M147.338,225.252c0.309,1.143,0.248,0.609,2.4,6.956
	c0.991,2.921,1.586,4.753,1.476,7.207c-0.05,1.147-0.247,2.282-0.583,3.379c1.164-1.607,1.937-3.463,2.259-5.421
	c0.246-1.564,0.113-2.802-0.153-5.126c-0.308-2.709-0.606-3.464-0.942-5.613c-0.586-3.739-1.034-6.596-0.132-9.861
	c0.625-2.249,1.744-4.158,2.544-5.522c1.139-1.944,1.709-2.411,2.691-4.386c0.729-1.466,1.312-3.001,1.741-4.581
	c0.621-2.295,0.476-3.07,1.183-6.231c0.299-1.339,0.614-2.421,0.801-3.111c-1.682,1.303-3.276,2.717-4.769,4.233
	c-1.798,1.838-3.82,3.886-5.616,6.933C146.447,210.472,145.4,218.101,147.338,225.252z M157.323,215.538
	c-0.883,2.064-1.51,4.227-1.867,6.442c0.984-2.152,2.182-4.199,3.574-6.111c1.3-1.774,2.32-2.818,3.729-4.381
	c0,0,2.716-3.009,6.355-7.702c5.054-6.5,7.035-14.051,7.416-15.578c2.017-8.078,1.006-14.629,0.262-19.443
	c-0.924-5.515-2.538-10.892-4.805-16.002c-1.662-3.792-3.658-7.427-5.966-10.863c1.216,6.336,1.192,12.848-0.071,19.175
	c-0.862,4.245-1.656,8.137-4.429,12.267c-1.252,1.865-2.138,2.63-4.942,6.713c-2.292,3.353-3.292,5.143-4.019,7.298
	c-0.548,1.622-0.904,3.303-1.062,5.007c0.574-1.208,1.245-2.368,2.007-3.466c0.959-1.386,1.988-2.567,3.794-4.329
	c3.934-3.831,4.479-3.503,6.406-5.731c1.724-2.012,2.615-3.799,3.726-6.055c1.346-2.738,2.375-5.622,3.065-8.595
	c1.137,4.876,1.609,9.882,1.405,14.883c-0.214,5.736-1.344,11.401-3.347,16.781c-1.392,3.82-3.253,7.453-5.54,10.815
	C160.842,209.819,158.974,211.659,157.323,215.538z M182.475,131.108c-2.221,0.965-4.498,1.799-6.818,2.497
	c0.784,2.964,1.773,5.87,2.961,8.696c0.656,1.559,2.032,4.657,6.369,11.842c4.454,7.373,5.216,7.777,8.16,13.174
	c3.685,6.756,4.231,9.32,4.392,11.413c0.273,3.588-0.532,6.559-1.117,8.727c-1.248,4.625-2.836,6.398-3.634,11.553
	c-0.2,1.392-0.322,2.793-0.364,4.198c-0.307,10.82,11.186,27.508,11.186,27.508c6.426,9.316,12.039,19.155,18.059,28.732
	c9.401,14.95,14.316,23.464,16.122,26.617c4.893,8.54,8.212,14.808,10.835,19.969c2.474,4.875,4.49,9.078,5.994,12.295
	c3.964,0.949,8.079,1.079,12.094,0.383c-3.128,1.071-6.386,1.71-9.686,1.9c-1.21,0.068-2.369,0.07-3.457,0.028
	c0.394,2.13,1.394,4.101,2.881,5.677c1.987,2.082,4.248,2.751,5.55,3.137c3.94,1.127,7.197,0.377,13.133-1.088
	c3.621-0.919,7.174-2.087,10.634-3.496c1.22-0.473,3.659-1.448,6.755-2.889c2.087-0.972,9.474-4.485,18.955-10.805
	c6.244-4.167,10.162-7.398,14.281-10.779c2.397-1.967,5.169-4.338,8.054-8.008c4.195-5.34,4.616-8.325,4.716-9.494
	c0.178-2.239-0.192-4.487-1.082-6.55c-0.714-1.614-1.741-3.071-3.023-4.286c-0.822,1.97-1.829,3.858-3.006,5.638
	c-1.948,2.965-4.131,5.238-7.495,8.105c-4.65,3.949-9.644,7.472-14.923,10.528c1.512-2.409,2.845-4.926,3.985-7.533
	c0.929-2.104,2.625-5.995,3.132-9.261c0.643-4.127-0.514-7.871-7.408-19.964c-3.84-6.716-5.064-8.311-9.637-15.89
	c-5.92-9.802-5.598-9.968-11.512-19.691c-4.234-6.958-2.906-4.418-9.981-15.783c-3.839-6.156-5.097-8.306-7.803-11.546
	c-2.964-3.536-5.473-6.562-9.863-9.273c-2.278-1.396-7.119-4.308-13.616-4.636c-4.083-0.208-8.454,0.623-12.957,1.48
	c-4.683,0.891-6.963,1.68-7.358,0.961c-0.681-1.261,6.136-4.117,9.893-11.754c0.867-1.757,2.813-5.849,2.064-10.841
	c-0.453-3.014-1.712-5.182-3.325-7.956c-2.169-3.739-3.501-4.599-5.903-7.996c-2.806-3.995-2.182-4.508-5.468-10.336
	c-2.665-4.664-5.739-9.082-9.184-13.202c-2.297-2.753-4.758-5.367-7.368-7.825l-2.625,2.115c1.205,0.988,2.359,2.038,3.458,3.144
	c2.238,2.28,4.247,4.774,5.996,7.446c1.89,2.818,3.556,5.743,6.116,11.078c1.844,3.842,4.198,9.032,6.688,15.368
	c-2.999-5.288-5.674-9.798-7.829-13.356c-2.327-3.736-4.856-7.343-7.573-10.806c-1.891-2.416-3.716-4.571-6.811-6.006
	c-1.185-0.553-2.916-1.357-5.157-1.279c-2.487,0.097-3.329,1.195-8.556,4.139C187.824,128.589,185.18,129.915,182.475,131.108z
	 M329.535,275.147l2.33-3.773c-4.13-5.739-9.049-12.805-14.426-20.973c-5.394-8.221-9.709-15.243-12.711-20.253
	c-1.473-2.451-5.77-9.955-14.362-24.96c-5.107-8.938-7.666-13.405-8.154-14.294c-2.6-4.724-4.173-7.449-7.324-12.899
	c-2.578-4.464-4.085-6.986-6.873-9.85c-1.443-1.481-3.34-3.401-6.331-5.061c-2.128-1.176-3.898-1.721-10.202-3.133
	c-2.988-0.669-6.687-1.464-10.958-2.306c3.087,0.923,6.107,2.054,9.039,3.386c2.537,1.148,4.8,2.183,7.365,3.95
	c2.019,1.396,4.469,3.431,7.919,7.701c3.155,3.918,5.913,8.141,8.234,12.604c4.195,7.916,9.017,15.482,13.475,23.256
	c1.181,2.05,5.266,8.863,13.435,22.46c12.029,20.028,13.826,22.895,16.759,27.166C321.93,265.661,326.533,271.475,329.535,275.147z"
	/>
</svg>
