<svg width="400" height="400" viewBox="0 0 400 400" fill="none" xmlns="http://www.w3.org/2000/svg">
<path style="fill:#B0FF30;" d="M105.092,241.523c-0.452-5.371,1.392-10.245,3.011-15.108c1.619-4.865,3.403-9.707,6.294-14.171
	c-2.054-0.411-3.941-0.763-5.724-1.469c-1.157-0.458-2.28-1.086-2.245-2.533c0.034-1.392,0.52-2.527,1.973-3.213
	c3.543-1.673,6.505-0.547,9.458,1.723c4.16-5.993,9.554-10.877,14.843-16.075c-1.449-1.416-2.83-2.996-3.739-4.918
	c-0.658-1.391-1.529-2.88-0.235-4.249c1.257-1.331,2.835-0.848,4.393-0.332c1.862,0.617,2.909,2.026,3.861,3.56
	c0.419,0.676,0.719,1.425,1.174,2.343c5.043-3.54,10.887-5.102,16.722-6.667c0.04-1.507-0.584-2.756-0.617-4.11
	c-0.016-0.667-0.072-1.307,0.022-1.986c0.136-0.976,0.252-1.888,1.334-2.276c1.268-0.454,2.394-0.204,3.352,0.73
	c1.747,1.703,3.048,3.64,3.072,6.31c2.212-0.054,4.295-0.828,6.465-0.511c2.402-3.551,3.246-7.559,3.974-11.6
	c0.539-2.993,1.165-5.98,1.493-8.998c0.252-2.319,0.243-4.692,0.093-7.024c-0.207-3.216-0.323-6.454-1.041-9.619
	c-0.088-0.387-0.228-0.762-0.335-1.113c-8.069-0.881-12.118-8.578-8.785-15.452c-0.88-1.715-2.272-3.147-3.63-4.535
	c-6.977-7.134-14.827-13.124-23.555-18.004c-3.785-2.116-7.703-4.157-10.978-6.998c-3.029-2.628-5.576-5.8-7.425-9.456
	c-1.344-2.658-2.194-5.477-2.791-8.359c-0.264-1.276-0.413-2.603-0.305-3.979c0.23-2.939,3.456-4.243,6.139-2.909
	c3.71,1.844,5.454,5.072,5.911,9.024c0.192,1.664,0.709,3.367-0.063,5.203c20.457-4.301,40.212-1.603,59.751,4.518
	c-0.042-2.364,0.127-4.838,0.703-7.26c0.599-2.516,1.62-4.864,3.355-6.8c0.813-0.908,2.005-1.208,3.197-0.734
	c3.136,1.248,4.827,4.567,4.686,7.867c-0.16,3.74-0.846,7.271-2.548,10.517c15.094,7.289,29.697,15.23,43.638,24.559
	c0.768-1.667,1.031-3.445,1.745-5.075c1.434-3.275,3.625-5.983,6.132-8.437c1.686-1.65,3.857-1.263,5.456,0.744
	c2.319,2.912,2.261,8.157,0.147,11.273c-1.807,2.663-4.33,4.497-6.816,6.629c5.681,4.561,10.522,9.907,14.848,15.713
	c4.315,5.79,8.502,11.673,12.199,18.009c1.264-1.857,3.081-3.195,4.428-4.972c1.081-1.428,2.703-2.162,4.148-3.134
	c2.469-1.66,5.093-0.603,5.531,2.568c0.711,5.149-1.241,9.453-6.27,12.179c-1.15,0.623-2.49,0.272-3.7,0.906
	c2.214,4.854,5.127,9.368,6.992,14.367c1.857,4.976,3.41,10.058,4.759,15.443c2.259-1.992,4.723-3.182,7.45-3.818
	c0.957-0.223,1.918-0.404,2.91-0.473c3.127-0.218,4.257,2.176,3.454,4.976c-0.807,2.812-3.137,4.19-5.403,5.543
	c-1.853,1.107-3.89,1.831-6.123,1.762c-0.3-0.009-0.604,0.136-1.06,0.248c1.521,12.302-0.126,24.458-1.35,36.797
	c1.463-0.289,3.052-0.464,4.549-0.931c2.306-0.718,4.528-0.403,6.749,0.213c2.338,0.648,3.154,2.601,1.932,4.678
	c-1.66,2.821-4.03,4.579-7.387,5.038c-2.222,0.304-4.368,0.226-6.537-0.248c-0.471-0.103-0.984-0.015-1.636-0.015
	c-4.535,11.94-11.081,22.873-18.66,33.369c2.026,0.94,3.93,1.522,5.871,2.005c2.019,0.503,3.718,1.571,5.085,3.114
	c1.111,1.254,0.765,2.794-0.947,4c-3.642,2.565-7.504,3.02-11.502,0.876c-1.268-0.68-2.339-1.669-3.271-2.776
	c-0.289-0.344-0.507-0.743-1.089-0.805c-9.445,9.136-20.199,16.526-32.068,22.696c1.972,0.963,2.95,2.665,4.119,4.158
	c1.178,1.504,2.343,3.07,2.534,5.101c-0.983,3.324-2.697,2.94-5.23,2.151c-3.705-1.155-6.221-3.649-7.458-7.367
	c-0.084-0.254-0.085-0.541-0.667-0.833c-4.489,1.722-9.304,3.174-14.264,4.151c-4.98,0.98-10.033,1.192-15.263,1.554
	c1.262,2.622,1.709,5.208,1.947,7.845c0.095,1.048,0.212,2.019-0.8,2.8c-1.088,0.84-2.174,0.638-3.143,0.047
	c-3.522-2.149-5.989-4.997-5.773-9.456c0.02-0.404,0.003-0.81,0.003-1.353c-8.592-0.118-16.989-1.181-25.009-4.816
	c-0.299,2.174-0.304,4.245-1.196,6.127c-0.268,0.565-0.503,1.146-0.789,1.701c-1.224,2.377-2.525,2.656-4.54,0.933
	c-0.902-0.77-1.563-1.699-1.791-2.928c-0.561-3.02-0.293-5.888,1.431-8.613c-6.989-3.433-13.887-6.943-20.186-11.766
	c-0.838,1.789-1.859,3.455-3.154,4.936c-0.267,0.305-0.519,0.626-0.814,0.901c-1.035,0.965-2.075,1.928-3.667,1.152
	c-1.542-0.752-2.268-2.051-2.271-3.689c-0.007-3.28,1.526-5.821,4.072-7.899c-5.565-4.918-10.697-10.205-14.447-16.748
	c-1.192,1.047-2.135,2.275-3.426,3.112c-0.563,0.365-1.083,0.813-1.681,1.103c-1.091,0.529-2.23,1.09-3.365,0.072
	c-1.203-1.079-1.689-2.445-1.312-4.002c0.557-2.295,2.214-3.727,4.133-4.909c0.787-0.485,1.757-0.673,2.378-1.406
	c-3.179-7.45-5.798-14.995-5.794-23.306c-1.445,0.366-2.55,1.125-3.844,1.286c-0.221,0.027-0.434,0.118-0.655,0.141
	c-2.121,0.225-3.692-0.445-4.133-1.755c-0.553-1.643,0.535-4.138,2.21-5.067C100.724,242.116,101.822,241.814,105.092,241.523z
	 M188.063,181.414c9.884-6.004,14.757-15.416,18.1-25.861c-5.569-4.783-5.444-12.824,0.958-16.967c0-0.397,0.072-0.816-0.011-1.203
	c-0.702-3.277-1.194-6.598-2.114-9.831c-1.211-4.26-2.738-8.397-4.725-12.351c-2.418-4.813-6.121-8.707-9.436-12.872
	c-0.628-0.79-1.053-1.891-2.08-2.247c-3.796-1.316-7.451-3.019-11.368-4.005c-6.111-1.539-12.251-3.101-18.53-3.522
	c-6.179-0.415-12.386-0.737-18.595-0.639c-0.917,0.015-1.795,0.118-2.754,0.582c13.21,6.798,25.264,15.007,34.439,26.989
	c0.206,0,0.476,0.011,0.745-0.002c7.709-0.366,13.589,8.292,9.079,15.644c-0.323,0.527-0.447,1.066-0.237,1.668
	c1.561,4.479,1.555,9.174,1.793,13.817c0.359,7.007-1.182,13.805-2.561,20.611c-0.549,2.706-1.514,5.297-2.339,7.972
	c0.574,0.148,1.036,0.267,1.475,0.38c0.314-0.301,0.334-0.665,0.455-0.998c0.761-2.101,1.493-4.221,2.973-5.967
	c0.997-1.175,2.369-1.199,2.973,0.033c1.137,2.318,1.434,4.677,0.135,7.073c-0.199,0.366-0.645,0.642-0.563,1.152
	C186.587,181.046,187.28,181.219,188.063,181.414z M217.049,212.379c4.264,0.463,8.5,0.254,12.728,0.31
	c2.297,0.031,4.552-0.145,6.769-0.84c2.876-0.901,5.455-2.348,7.938-3.799c-0.635-3.189-0.262-5.994,1.783-8.3
	c2.711-3.057,6.128-4.032,10.105-2.761c1.146-1.775,2.069-3.562,3.082-5.299c2.974-5.096,5.165-10.486,6.585-16.213
	c0.707-2.851,0.884-5.845,2.264-8.524c0.204-0.397,0.062-0.855-0.175-1.285c-1.731-3.14-3.315-6.358-5.307-9.355
	c-4.074-6.129-8.263-12.177-13.044-17.778c-1.464-1.715-2.876-3.536-4.857-5.035c0.58,9.452,0.368,18.685-0.856,28.006
	c2.587,2.765,3.869,5.998,2.67,9.878c-1.196,3.872-3.968,5.948-7.742,6.734c-2.994,5.277-6.983,9.648-11.136,13.887
	c-4.212,4.3-9.33,7.344-14.61,10.211c0.554,1.102,1.002,1.996,1.442,2.871c1.972-0.47,3.942-1.933,5.575,0.673
	c-0.249,2.358-2.105,3.581-3.799,4.902C216.65,211.206,216.824,211.716,217.049,212.379z M207.842,195.538
	c9.93-4.327,16.978-11.713,22.765-20.45c-4.506-5.671-2.373-13.558,4.918-15.808c1.271-10.491,1.654-21.07,2.116-31.795
	c-9.508-7.511-20.264-13.076-30.913-18.911c5.467,9.341,8.723,19.386,9.931,30.018c7.021,3.809,7.231,14.714-1.22,18.199
	c-1.435,5.612-3.905,10.846-6.703,15.966c-2.845,5.204-6.786,9.417-11.362,13.117c1.356,0.977,2.584,1.862,3.809,2.745
	c1.425-1.025,2.182-2.825,4.145-3.005c0.937,0.145,1.545,0.787,2.143,1.602c0.039,2.057-1.311,3.389-2.778,4.792
	C205.751,193.194,206.788,194.357,207.842,195.538z M262.16,203.274c-0.131,1.084,0.204,2.209,0.06,3.401
	c-0.62,5.14-5.752,8.93-10.77,7.772c-0.814-0.188-1.443-0.061-2.15,0.365c-4.661,2.807-9.463,5.327-14.99,5.876
	c-2.943,0.293-5.898,0.559-8.88,0.211c-2.071-0.242-4.172-0.222-6.347-0.323c0.157,1.488,0.296,2.807,0.431,4.078
	c0.672,0.29,1.268,0.117,1.843,0.19c1.081,0.138,2.345,1.332,2.321,2.298c-0.03,1.204-0.806,1.681-1.92,1.849
	c-0.695,0.105-1.364,0.376-2.101,0.589c-0.169,1.347-0.334,2.667-0.52,4.15c8.632,2.278,17.287,3.414,26.068,1.226
	c1.108-7.69,8.035-9.769,13.004-7.267c3.746-2.082,6.745-5.096,9.887-7.895c5.099-4.543,9.029-10.08,12.717-15.788
	c0.427-0.66,0.681-1.346,0.561-2.156c-0.263-1.772-0.419-3.563-0.76-5.319c-0.992-5.108-2.724-10.005-4.427-14.903
	c-0.622-1.789-1.366-3.558-2.723-5.533C272.363,186.538,267.268,194.871,262.16,203.274z M247.422,255.988
	c1.687-0.153,3.344-0.727,5.047-1.068c5.204-1.042,10.225-2.633,14.873-5.207c3.916-2.169,7.638-4.688,11.826-6.536
	c2.545-9.43,2.768-19.118,3.158-28.824c-5.347,7.859-12.253,14.01-19.894,19.433c0.282,3.829-0.909,6.965-4.402,8.849
	c-3.438,1.854-6.727,1.358-9.801-1.052c-10.153,2.756-20.042,1.547-29.823-2.148c-0.659,1.593-0.594,3.318-1.497,4.674
	c0.627,0.802,1.487,1.281,1.587,2.296c-0.599,1.59-0.881,1.68-3.548,1.063c-0.563,1.436-1.674,2.549-2.69,3.973
	c6.508,4.88,13.94,6.007,21.538,6.306C236.805,252.572,243.127,251.71,247.422,255.988z M249.096,263.383
	c-1.256,3.678-3.735,5.813-7.433,6.078c-3.474,0.249-6.103-1.453-7.828-4.474c-4.188-0.338-8.318-0.71-12.349-1.904
	c-5.33-1.578-10.187-3.89-14.074-8.123c-1.074,0.641-2.219,1.325-3.311,1.978c-0.201,0.731-0.376,1.367-0.532,1.932
	c-0.968,0.447-1.597-0.434-2.443-0.405c-0.519,0.427-1.348,0.365-1.85,1.058c3.444,6.149,7.863,11.404,13.388,15.63
	c5.337-2.512,8.262-1.353,11.857,4.508c4.363,1.057,8.796,0.617,13.177,0.909c5.709,0.38,11.42-0.304,17.129-0.392
	c2.518-0.039,4.026-1.104,5.535-2.87c3.776-4.418,7.033-9.178,9.968-14.179c1.738-2.961,3.204-6.051,4.593-9.229
	C267.155,259.39,258.196,261.52,249.096,263.383z M196.864,292.165c4.632,3.738,9.926,6.082,15.455,7.967
	c2.884,0.983,5.779,1.951,8.42,3.495c0.709,0.414,1.244,0.444,1.971,0.134c1.57-0.669,3.062-1.482,4.568-2.274
	c5.358-2.817,10.714-5.646,15.633-9.2c2.119-1.531,4.422-2.835,6.313-4.761c-8.886,0.728-17.652,0.46-26.648-0.556
	c-2.298,2.214-5.15,3.132-8.454,1.873c-3.372-1.285-4.752-4.011-5.07-7.215c-7.316-5.264-12.526-12.039-16.661-19.659
	c-0.877-0.069-1.569,0.234-2.245,0.406c-0.384,0.859-0.633,1.737-1.779,1.747c-0.966-0.294-1.696-1.546-2.989-0.914
	c-1.278,6.508,0.734,12.405,3.222,18.203C194.198,280.747,198.902,285.906,196.864,292.165z M187.51,309.549
	c8.013,0.439,21.535-0.826,23.82-2.22c-15.918-5.962-15.306-6.921-20.336-10.635c-0.391,0.058-0.788,0.174-1.184,0.168
	c-5.593-0.079-8.926-5.229-7.575-9.84c0.217-0.739,0.427-1.41,0.056-2.199c-1.395-2.963-2.439-6.062-3.194-9.242
	c-0.626-2.638-1.416-5.252-0.976-8.059c0.232-1.478-0.003-3.019,0.315-4.414c-0.474-0.37-0.817-0.331-1.191-0.214
	c-0.391,0.986-0.692,2.088-2.027,2.044c-0.75-0.316-0.882-0.945-0.888-1.975c-3.53,4.935-4.683,10.123-4.87,15.57
	c4.727,2.531,6.078,7.737,2.232,12.2c-0.027,0.812,0.606,1.359,0.906,2.045c2.193,5.013,5.68,8.955,10.013,12.245
	C184.353,306.348,186.128,307.684,187.51,309.549z M165.401,292.427c-3.331-0.909-5.444-3.038-5.8-6.47
	c-0.293-2.825,0.937-5.138,3.471-6.841c0.227-6.358,2.057-12.377,5.053-18.113c-0.742-0.666-1.719-0.853-2.579-1.247
	c-0.846,0.433-1.647,0.976-2.538,0.03c0-0.564,0-1.188,0-1.795c-0.841-0.69-1.633-1.34-2.43-1.994
	c-0.953,0.123-1.813,0.434-2.324,1.228c-1.234,1.918-2.516,3.822-2.978,6.123c-0.446,2.225-1.213,4.384-1.436,6.609
	c3.967,3.284,3.841,8.652-0.783,11.635c-0.268,3.265,0.608,6.394,1.661,9.413c1.442,4.13,3.227,8.14,4.846,12.21
	c0.272,0.684,0.744,1.079,1.415,1.315c3.58,1.261,7.03,2.923,10.787,3.635c1.699,0.322,3.406,0.877,5.636,0.457
	C171.232,304.527,168.295,298.498,165.401,292.427z M147.122,269.533c0.673-2.375,1.28-4.748,2.02-7.08
	c1.361-4.29,3.234-8.252,7.379-10.623c0.147-0.084,0.276-0.235,0.196-0.465c-0.506-0.045-1.057,0.257-1.778-0.343
	c-0.655-0.432,0.721-1.342-0.078-2.069c-5.76,1.856-9.767,5.894-13.24,10.483c1.283,4.573,0.471,6.488-3.641,8.749
	c-0.37,0.204-0.562,0.475-0.62,0.801c-0.719,4.042-1.796,8.024-1.938,12.162c-0.078,2.272,0.295,4.536,0.032,6.811
	c-0.083,0.717,0.184,1.308,0.788,1.863c3.827,3.515,8.084,6.388,12.723,8.703c0.672,0.335,1.214,1.01,2.439,1.011
	c-3.181-5.905-5.268-11.893-5.196-18.418C141.783,277.434,143.063,271.534,147.122,269.533z M151.998,239.882
	c-6.717-1.691-11.802,1.387-16.756,4.788c-0.367,3.995-2.35,5.883-6.532,6.27c-4.226,5.697-7.053,12.144-9.498,18.862
	c1.496,4.021,6.893,11.542,9.656,13.343c-0.132-5.427,1.182-10.596,2.267-15.793c0.153-0.734,0.112-1.268-0.244-1.888
	c-0.778-1.355-1.149-2.77-0.74-4.37c0.8-3.126,2.964-4.525,5.938-4.926c4.019-6.062,9.481-10.284,16.256-12.972
	C150.636,242.174,150.569,241.722,151.998,239.882z M112.733,243.315c-0.286,5.863,1.253,15.324,2.915,17.727
	c0.847-2.731,1.708-5.376,3.336-7.674c1.63-2.299,2.691-4.955,4.483-7.024c0.032-5.207,2.047-7.078,7.684-7.163
	c5.701-4.547,12.252-6.768,19.63-6.422c-1.344-0.603-1.486-1.791-1.252-3.127c0.935-1.124,0.935-1.124,3.515-1.366
	c-1.055-2.226-9.293-3.561-14.919-2.418c-2.296,3.756-4.4,3.618-6.835,3.236c-0.879-0.138-1.542-0.078-2.261,0.393
	c-4.272,2.795-8.012,6.234-11.599,9.819C115.963,240.762,114.575,242.263,112.733,243.315z M147.476,212.71
	c-2.969,0.865-4.843,0.309-6.546-2.017c-0.412-0.563-0.871-0.689-1.471-0.717c-1.934-0.089-3.859-0.062-5.775,0.282
	c-3.202,0.575-6.409,1.119-9.486,1.654c-4.712,6.63-7.911,13.79-10.316,21.704c4.528-3.739,8.361-7.762,13.301-10.536
	c0.028-0.079,0.107-0.241,0.145-0.413c0.874-3.942,5.468-5.673,8.552-3.533c0.421,0.292,0.885,0.302,1.411,0.197
	c4.114-0.818,8.205-0.681,12.258,0.409c1.362,0.366,2.682,0.905,4.274,1.054c-0.549-1.207,0.138-1.932,0.774-2.595
	C153.05,215.157,149.918,214.348,147.476,212.71z M159.696,206.811c-3.278-0.425-4.471-1.51-5.26-4.903
	c-4.316-2.985-9.639-4.065-14.272-6.476c-3.913,2.502-6.78,5.916-9.889,9.377c3.826-0.744,7.418-1.629,11.131-0.848
	c0.305,0.064,0.6,0.002,0.891-0.198c2.968-2.044,7.438-0.666,8.19,3.854c4.229,1.868,7.945,4.527,10.335,9.165
	c0.329-1.187-0.36-2.019,0.39-2.688c0.713-0.635,1.476-0.529,2.328-0.16C162.57,210.71,161.645,209.003,159.696,206.811z
	 M158.087,197.486c4.047-0.364,5.895,2.279,5.834,5.394c2.358,2.544,3.948,5.593,5.15,8.895c0.198-0.954,0.496-1.658,1.67-1.526
	c0.249,0.228,0.537,0.492,0.929,0.85c-0.024-1.954,0.479-3.76,0.257-5.592c-0.188-1.555-0.483-3.064-2.049-3.981
	c-1.334-0.781-1.924-2.103-1.977-3.608c-0.028-0.786-0.277-1.38-0.836-1.896c-1.323-1.22-2.691-2.396-3.938-3.69
	c-1.49-1.547-2.872-3.198-4.412-4.929c-4.117,1.416-8.555,2.092-12.551,4.487C150.362,193.614,154.614,194.702,158.087,197.486z
	 M188.542,216.422c0.225,0,0.415,0.047,0.568-0.007c1.56-0.556,3.46-3.269,3.394-4.933c-0.064-1.611,0.369-2.982,1.853-3.749
	c0.914-0.472,1.214-1.188,1.424-2.093c0.709-3.058,0.298-6.272,1.398-9.182c-2.113-2.505-8.329-6.153-11.207-6.629
	c0.451,1.72,0.986,3.423,1.329,5.164c0.353,1.792,0.626,3.554,1.535,5.213c0.79,1.439,0.521,3.077-0.658,4.206
	c-1.047,1.003-1.494,2.187-1.803,3.476c-0.266,1.109-0.745,2.108-1.272,3.097c-0.309,0.581-0.872,1.029-0.945,1.736
	c0.383,0.598,1.055,0.673,1.59,0.996c0.593-0.274,1.196-0.375,1.687-0.187C188.609,214.256,188.46,215.363,188.542,216.422z
	 M182.36,198.026c-0.684-3.219-1.376-6.476-2.046-9.627c-4.647-1.614-9.241-1.201-14.025-1.154c0.269,0.351,0.354,0.51,0.481,0.62
	c2.06,1.791,4.436,3.218,6.18,5.377c0.128,0.158,0.384,0.219,0.588,0.308c2.93,1.279,3.747,2.891,3.052,6.208
	c2.147,3.432,1.679,7.257,1.047,11.141c0.689-0.309,1.252-0.562,1.816-0.814c0.9-1.697,1.887-3.359,2.092-5.401
	C179.998,201.975,180.134,200.449,182.36,198.026z M210.58,232.182c-2.086,1.31-4.269,1.746-5.698,3.521
	c-0.731,0.908-1.846,1.388-2.896,1.035c-1.644-0.554-3.306-0.647-4.99-0.856c-1.931-0.24-3.887-0.622-5.611-1.834
	c-0.29,0.447-0.542,0.86-0.817,1.256c-0.279,0.402-0.629,0.762-0.709,1.261c0.948,1.624,1.844,2.425,3.432,3.077
	c2.64-1.158,4.549-0.337,5.637,2.426c3.28,1.009,6.496-0.415,9.834-0.154C209.943,238.853,210.267,235.713,210.58,232.182z
	 M208.945,215.553c-1.514,1.669-2.615,3.573-3.919,5.326c-0.203,0.273-0.24,0.555-0.267,0.874c-0.181,2.2-1.5,3.515-3.673,3.672
	c-0.399,0.029-0.765,0.031-1.144,0.271c-1.864,1.178-3.883,2.008-6.051,2.429c-0.667,0.13-1.091,0.373-1.017,1.214
	c2.008,1.153,4.234,1.443,6.492,1.509c1.281-1.174,2.642-1.783,4.338-1.168c0.221,0.08,0.547,0.008,0.777-0.097
	c2.15-0.981,4.29-1.984,6.467-2.996C211.099,222.772,210.368,219.137,208.945,215.553z M207.222,210.05
	c-0.685-3.819-3.536-6.113-5.856-8.811c-0.002,2.714-0.382,5.309-1.219,7.767c0.956,3.161,0.334,4.582-2.655,6.073
	c-0.346,0.172-0.615,0.383-0.795,0.692c-1.288,2.209-3.059,3.958-5.177,5.389c0.425,0.744,0.51,1.58,1.066,2.233
	c1.593-0.32,3.109-0.795,4.565-1.723c0.26-2.434,1.727-3.766,4.131-3.99C203.142,215.013,204.89,212.4,207.222,210.05z
	 M205.146,246.286c-2.096,0.42-4.161,0.403-6.198,0.16c-0.877-0.104-1.66-0.124-2.489,0.15c-1.776,0.588-3.457-0.096-4.338-1.718
	c-0.213-0.392-0.339-0.94-0.672-1.138c-1.484-0.882-3.002-1.701-4.233-3.236c-0.22,2.65,0.115,3.67,1.394,4.084
	c1.592,0.515,2.451,1.569,2.672,3.127c1.02,0.763,2.02,1.448,3.141,1.922c1.105,0.468,2.262,0.812,3.223,1.466
	C200.878,249.69,204.293,247.508,205.146,246.286z M182.106,240.344c-1.04,2.123-1.178,4.238-0.477,6.446
	c1.967,0.696,2.536,2.221,2.266,4.124c1.073,1.296,2.097,2.531,3.166,3.822c1.816-0.39,3.552-0.873,5.308-1.555
	c-0.672-0.334-1.267-0.641-1.872-0.927c-0.635-0.3-1.131-0.912-1.933-0.84c-2.57,0.23-3.935-1.732-3.946-3.98
	C182.699,245.532,181.738,243.191,182.106,240.344z M165.606,251.521c1.394-4.555,1.426-9.413,4.868-13.021
	c-3.419,2.702-5.142,6.711-8.13,9.613C163.487,249.306,164.468,250.331,165.606,251.521z M159.866,244.66
	c3.155-3.714,4.973-8.39,9.287-10.983c-4.586,1.13-6.53,5.723-10.562,7.505C158.898,242.488,159.167,243.593,159.866,244.66z
	 M176.144,244.974c-0.428,0.791-1.004,1.783-0.515,2.479c1.149,1.637,0.927,3.062-0.165,4.446c0.248,1.063,0.468,2.007,0.687,2.944
	c1.599,0.162,3.105,0.693,4.715-0.013c-0.739-0.888-1.298-1.77-2.248-2.247c-0.667-0.335-1.107-0.983-1.142-1.571
	C177.35,248.932,176.237,247.078,176.144,244.974z M172.374,243.186c-1.651,3.299-2.173,6.89-3.188,10.333
	c1.226,0.656,2.306,0.976,3.602,1.096c-0.293-1.242-0.455-2.419-1.16-3.329c-0.678-0.875-0.779-1.91-0.37-2.657
	C172.211,246.89,171.682,244.915,172.374,243.186z M169.157,226.372c-2.488-1.559-5.221-1.79-8.128-1.733
	c-0.167,0.903-0.674,1.615-0.647,2.638C163.331,226.857,166.211,226.313,169.157,226.372z M187.223,225.928
	c-0.329-1.59-1.083-3.033-2.085-4.691c-0.458,2.356-0.856,4.4-1.262,6.483C185.112,227.375,186.21,227.03,187.223,225.928z
	 M158.335,236.474c1.858-1.588,3.192-3.67,5.265-4.994c-1.722,0.084-3.236,0.728-4.776,1.282
	C158.269,233.943,158.442,235.195,158.335,236.474z M172.517,222.958c-1.549-1.878-3.337-2.965-5.522-3.454
	c-0.755,0.323-1.506,0.693-2.08,1.486C167.529,221.155,169.845,222.207,172.517,222.958z M170.86,217.677
	c2.199,1.087,4.207,2.132,6.005,4.001c-0.513-1.636-0.921-2.938-1.377-4.395C174.024,217.484,172.525,216.903,170.86,217.677z
	 M179.087,218.048c0.601,1.863,1.558,3.421,1.941,5.303c0.723-1.538,0.731-3.039,0.628-4.591
	C180.815,218.527,180.019,218.307,179.087,218.048z M184.013,233.859c1.597-0.754,2.14-1.578,2.068-3.092
	c-0.808,0.83-1.809,0.937-2.901,0.946C183.472,232.464,183.727,233.121,184.013,233.859z"/>
</svg>
