<svg width="400" height="400" viewBox="0 0 400 400" fill="none" xmlns="http://www.w3.org/2000/svg">
<path fill-rule="evenodd" clip-rule="evenodd" d="M125.373 82.5873C123.32 83.0528 116.793 86.0228 116.282 86.7248C116.065 87.0242 114.542 88.0852 112.898 89.0844C109.57 91.1074 104.424 97.3681 104.424 99.3942C104.424 100.114 104.017 101.11 103.519 101.608C102.857 102.271 102.844 103.107 103.47 104.73C103.94 105.951 104.57 108.193 104.868 109.716C106.043 115.705 112.043 125.612 117.277 130.209C118.901 131.635 120.018 133.145 119.758 133.563C119.488 134.002 118.648 133.747 117.784 132.967C116.959 132.219 116.282 131.845 116.282 132.137C116.282 132.43 114.464 131.417 112.241 129.888C110.017 128.359 107.876 127.108 107.482 127.108C107.087 127.108 105.355 126.219 103.633 125.131C101.912 124.045 99.8631 123.155 99.0812 123.155C98.3004 123.155 96.8537 122.59 95.8673 121.898C94.8808 121.208 93.5673 120.836 92.9495 121.074C92.3316 121.311 91.636 121.198 91.4048 120.825C90.87 119.96 83.2479 119.87 82.7206 120.723C82.5033 121.075 81.4668 121.197 80.4175 120.997C78.1921 120.572 72.4449 122.939 69.1713 125.629C64.7333 129.275 61.6685 132.843 61.8773 134.118C61.9934 134.828 61.8102 135.854 61.4693 136.397C61.1284 136.94 61.0112 137.385 61.2083 137.385C61.4054 137.385 61.2957 138.586 60.9654 140.054C59.8288 145.094 63.5562 150.517 71.4553 155.315C76.738 158.525 76.8317 159.533 71.9549 160.677C59.4442 163.611 56.096 176.751 65.054 187.758C67.3912 190.629 76.9191 194.376 77.8896 192.806C78.1623 192.365 78.8622 192.186 79.4449 192.409C80.0265 192.633 82.4703 191.751 84.8736 190.451C87.2779 189.151 89.4266 188.269 89.6492 188.491C89.8719 188.714 90.886 188.994 91.9023 189.116C103.179 190.454 111.083 194.558 110.148 198.591C109.656 200.719 105.414 204.583 103.572 204.583C102.787 204.583 101.957 204.888 101.726 205.261C101.364 205.847 97.5057 206.542 90.1936 207.34C89.107 207.459 87.6838 207.744 87.0318 207.975C86.3788 208.206 84.0671 208.806 81.8929 209.307C72.8124 211.402 68.269 216.551 68.1177 224.915C68.0613 228.044 70.652 234.647 72.1871 235.288C72.5408 235.435 73.2726 235.999 73.8138 236.541C75.1443 237.87 81.2633 238.806 81.8993 237.775C82.1731 237.332 82.7504 237.189 83.183 237.456C83.6155 237.723 84.5998 237.371 85.371 236.672C86.1668 235.953 88.7991 235.22 91.4485 234.981C97.038 234.476 98.8937 233.989 100.471 232.612C103.817 229.691 116.939 227.488 118.959 229.509C119.557 230.107 120.224 230.42 120.44 230.203C120.655 229.987 123.099 230.837 125.87 232.092C128.641 233.346 132.865 235.011 135.256 235.792C137.648 236.573 140.315 237.506 141.185 237.865C147.753 240.575 162.693 241.801 173.993 240.556C185.499 239.289 196.198 239.869 200.477 241.991C204.307 243.89 215.102 254.202 215.102 255.961C215.102 256.428 215.604 257.002 216.216 257.237C216.829 257.473 218.938 259.685 220.903 262.153C222.867 264.623 225.835 268.1 227.497 269.882C231.098 273.745 233.638 276.74 236.842 280.907C238.147 282.604 240.104 284.917 241.191 286.05C242.278 287.183 244.115 289.328 245.273 290.816C246.431 292.304 248.469 294.69 249.801 296.119C251.132 297.548 253.196 300.039 254.384 301.653C256.951 305.138 259.364 307.63 259.773 307.221C260.079 306.914 260.827 297.765 260.908 293.324C260.967 290.105 262.686 289.933 266.809 292.731C268.411 293.818 269.939 294.707 270.205 294.707C270.47 294.707 271.901 295.632 273.383 296.762L276.077 298.817L275.525 295.774C275.222 294.1 274.498 291.79 273.916 290.64C270.861 284.599 271.926 279.853 275.31 284.43C276.275 285.734 277.441 286.816 277.903 286.834C278.365 286.851 279.975 287.918 281.48 289.205C283.609 291.026 284.986 291.545 287.682 291.545C292.081 291.545 294.497 293.032 298.736 298.346C307.725 309.616 311.846 300.129 303.611 287.123C299.759 281.038 311.059 281.104 316.641 287.198C318.19 288.89 319.457 290.47 319.457 290.711C319.459 291.88 327.469 299.303 329.746 300.246C337.484 303.451 343.061 293.312 338.151 284.965C334.25 278.333 330.234 276 319.547 274.161C312.759 272.994 303.645 267.82 303.645 265.134C303.645 264.674 302.531 262.055 301.168 259.315C299.806 256.577 298.882 254.145 299.116 253.911C299.656 253.371 308.415 258.051 310.195 259.831C312.684 262.32 312.982 259.964 310.76 255.365C308.032 249.718 308.777 249.134 314.081 252.759C317.211 254.898 318.775 256.505 326.967 265.996C331.507 271.254 336.255 271.518 338.872 266.658C340.535 263.569 339.111 258.766 336.258 257.845C335.496 257.6 334.339 257.199 333.687 256.955C333.034 256.71 331.061 256.435 329.303 256.343C325.151 256.128 322.131 254.512 318.469 250.55C314.347 246.091 314.524 244.757 319.01 246.463C320.125 246.887 321.038 246.938 321.038 246.575C321.038 245.802 302.682 228.368 296.925 223.673C287.191 215.736 267.477 198.269 261.548 192.331C255.194 185.967 255.335 186.757 259.026 178.099C260.556 174.514 263.326 162.804 263.326 159.929C263.326 152.848 251.776 141.126 241.981 138.269C240.024 137.699 237.867 136.949 237.187 136.602C236.506 136.256 235.329 136.321 234.569 136.745C233.811 137.17 232.679 137.321 232.055 137.083C231.432 136.843 229.23 137.406 227.162 138.331C225.095 139.258 223.137 139.957 222.811 139.887C222.485 139.815 222.217 140.078 222.217 140.47C222.217 143.018 215.016 142.708 208.382 139.874C205.315 138.565 198.836 136.385 193.757 134.954C182.342 131.739 163.872 117.589 160.567 109.527C159.835 107.741 155.626 101.491 152.921 98.1713C151.466 96.3869 150.277 94.7198 150.277 94.4662C150.277 93.3349 143.379 86.5864 140.016 84.4281C136.346 82.0728 130.75 81.3697 125.373 82.5873ZM138.502 90.268C140.412 91.7466 142.51 93.6247 143.162 94.4417C143.813 95.2588 145.629 97.5172 147.195 99.4614C148.762 101.405 150.666 104.206 151.428 105.686C156.84 116.195 176.095 134.974 183.876 137.329C185.614 137.855 187.749 138.573 188.618 138.923C189.489 139.273 191.195 139.96 192.411 140.449C193.627 140.938 195.228 141.341 195.969 141.343C196.709 141.346 198.228 141.824 199.343 142.407C200.46 142.989 202.417 143.726 203.692 144.044C204.967 144.362 207.078 145.108 208.382 145.701C209.687 146.294 211.616 146.89 212.669 147.024C214.689 147.281 216.003 149.244 214.155 149.244C212.992 149.244 203.386 158.902 199.941 163.535C196.981 167.516 194.315 175.939 195.21 178.484C195.594 179.577 196.343 181.82 196.873 183.471C198.406 188.237 202.96 192.584 207.741 193.845C212.313 195.051 221.815 193.866 223.003 191.941C223.344 191.391 223.977 191.161 224.412 191.429C224.845 191.697 225.64 191.387 226.178 190.74C226.715 190.092 227.561 189.563 228.058 189.563C228.555 189.563 230.297 188.846 231.93 187.97C234.85 186.405 237.99 186.451 240.084 188.089C241.04 188.836 245.935 186.741 245.935 185.585C245.935 185.201 244.68 184.984 243.146 185.106C241.551 185.23 239.987 184.878 239.492 184.281C238.846 183.504 238.902 183.235 239.711 183.227C241.058 183.213 249.887 175.515 249.887 174.354C249.887 173.851 249.324 173.958 248.504 174.617C247.742 175.227 246.271 176.205 245.234 176.79C244.195 177.375 242.061 178.585 240.49 179.482C238.919 180.378 235.855 182.08 233.681 183.266C231.506 184.451 227.985 186.37 225.855 187.531C221.11 190.118 218.611 189.057 222.612 186.155C229.898 180.871 230.52 179.882 230.499 173.612C230.46 162.58 221.68 156.187 211.94 160.097C207.754 161.778 206.406 162.01 206.406 161.05C206.406 160.011 212.74 153.593 215.893 151.438C216.98 150.694 219.365 149.027 221.193 147.732C230.779 140.943 239.001 141.213 248.848 148.638C257.188 154.926 259.556 161.918 256.019 169.807C248.147 187.363 248.985 190.069 266.895 204.961C269.498 207.125 271.805 209.106 272.023 209.36C273.01 210.521 288.841 224.432 291.368 226.359C292.923 227.546 295.521 229.749 297.142 231.255C298.762 232.761 300.888 234.533 301.866 235.19C304.425 236.912 304.055 237.794 301.128 236.954C299.744 236.558 298.463 236.381 298.28 236.563C297.788 237.055 300.488 244.812 301.335 245.335C302.337 245.954 302.255 247.274 301.214 247.274C300.017 247.274 290.157 241.407 288.116 239.481C286.234 237.705 285.162 238.034 286.273 240.046C286.667 240.76 288.269 244.191 289.834 247.669C291.398 251.147 293.357 255.396 294.187 257.112C295.015 258.828 295.557 260.37 295.387 260.538C295.01 260.916 285.222 257.443 284.672 256.736C284.129 256.04 278.956 254.308 278.571 254.693C278.194 255.069 280.27 263.312 282.36 269.738C283.197 272.311 283.715 274.582 283.511 274.786C283.109 275.189 278.489 273.502 277.077 272.436C276.052 271.662 262.536 264.665 262.065 264.665C261.345 264.665 261.827 268.359 262.786 270.199C263.354 271.287 264.294 274.488 264.875 277.315C265.458 280.141 266.238 283.054 266.609 283.789C267.724 285.995 265.89 286.255 263.135 284.283C257.722 280.405 257.014 280.27 256.911 283.094C256.861 284.481 256.738 285.971 256.636 286.407C256.535 286.841 256.398 288.531 256.332 290.162C256.266 291.792 255.815 293.126 255.33 293.126C254.112 293.126 245.935 284.234 245.935 282.908C245.935 282.513 245.639 282.071 245.275 281.926C244.913 281.781 240.928 277.393 236.42 272.177C231.91 266.959 227.938 262.571 227.59 262.426C227.244 262.281 226.961 261.658 226.961 261.042C226.961 260.427 226.427 259.923 225.775 259.923C225.123 259.923 224.583 259.655 224.575 259.329C224.544 258.053 210.064 241.246 208.566 240.747C207.374 240.349 211.848 235.415 213.399 235.415C216.407 235.415 220.309 232.372 224.464 226.79C226.919 223.49 229.161 220.612 229.443 220.394C231.655 218.693 238.84 211.456 238.578 211.193C236.858 209.473 228.055 216.509 220.824 225.385C218.101 228.728 215.542 231.463 215.139 231.463C213.888 231.463 213.298 229.789 214.222 228.863C214.707 228.38 215.102 227.346 215.102 226.568C215.102 225.789 215.814 224.707 216.684 224.163C217.553 223.621 218.265 222.789 218.265 222.316C218.265 221.843 220.261 218.886 222.703 215.744C225.144 212.603 226.969 209.862 226.76 209.652C225.69 208.582 210.868 227.832 208.631 233.195C207.116 236.825 203.959 237.334 194.943 235.402C190.526 234.455 190.881 234.473 185.456 234.926C180.853 235.31 162.476 236.422 160.158 236.456C155.338 236.526 148.55 235.028 138.418 231.659C129.999 228.859 127.539 227.782 124.88 225.73C123.33 224.535 121.651 223.556 121.149 223.556C120.646 223.556 120.223 223.112 120.209 222.569C120.175 221.277 117.163 217.669 116.594 218.237C116.354 218.479 116.725 219.546 117.422 220.61C119.003 223.021 117.847 224.217 114.217 223.926C112.864 223.818 110.196 224.014 108.291 224.363C104.199 225.111 103.663 224.585 103.645 219.801C103.628 215.086 102.341 215.61 101.703 220.592C101.128 225.074 98.8256 228.51 95.8801 229.28C93.6611 229.86 93.235 229.107 94.0904 226.122C94.8968 223.311 93.7165 216.656 92.0823 214.798C90.2575 212.724 90.8104 212.104 94.7104 211.853C96.76 211.721 98.8192 211.294 99.2879 210.905C99.7566 210.516 101.838 209.817 103.913 209.353C112.125 207.512 119.863 195.933 114.306 193.801C113.653 193.551 113.12 192.918 113.12 192.393C113.12 190.152 108.179 187.667 98.099 184.839C96.1432 184.291 94.084 183.712 93.5247 183.554C92.7801 183.343 92.6448 182.227 93.0198 179.4C93.3521 176.892 93.2243 175.344 92.6533 174.992C92.1707 174.693 91.7744 173.758 91.7744 172.914C91.7744 172.07 91.4186 171.38 90.984 171.38C90.5494 171.38 90.1936 172.28 90.1936 173.381C90.1936 182.983 76.1745 192.296 71.418 185.855C70.8747 185.119 70.4294 184.818 70.4294 185.186C70.4294 186.554 67.0706 182.754 65.6143 179.739C63.1951 174.732 65.3555 168.529 70.2941 166.302C78.3551 162.667 91.686 162.817 99.5734 166.632C103.111 168.341 106.004 169.522 106.004 169.252C106.004 166.64 109.184 172.427 109.606 175.808C110.387 182.053 111.799 181.194 111.364 174.74C111.046 170.014 111.217 169.147 112.853 167.169C114.883 164.714 115.115 163.353 113.895 161.072C113.242 159.852 113.523 159.147 115.375 157.369C117.685 155.15 121.018 150.198 121.023 148.975C121.024 148.609 118.938 150.518 116.387 153.215L111.748 158.121L106.589 155.658C103.752 154.304 100.88 153.196 100.207 153.196C98.2471 153.196 97.9403 151.843 99.3039 149.207C100.885 146.151 102.865 135.121 101.936 134.546C101.559 134.313 101.032 134.768 100.765 135.556C100.257 137.057 97.7507 142.882 96.3466 145.822C93.6525 151.463 84.9119 157.895 83.3576 155.38C82.3009 153.67 83.1968 144.434 84.7617 140.897C86.5386 136.879 86.1966 134.749 83.4887 132.974C78.5511 129.739 70.6446 139.331 72.708 146.055C73.8106 149.648 72.8231 150.505 70.0736 148.343C64.0792 143.628 64.8079 137.157 72.185 129.612C77.016 124.671 94.0084 124.386 99.6799 129.15C101.156 130.39 112.953 136.824 118.258 139.282C122.993 141.476 128.141 142.566 128.141 141.374C128.141 140.919 128.609 140.547 129.18 140.547C129.752 140.547 130.783 139.366 131.471 137.922C132.493 135.781 134.271 134.523 141.128 131.09C145.75 128.775 149.735 126.553 149.984 126.152C150.777 124.868 149.693 124.593 148.001 125.65C145.789 127.032 144.217 125.614 145.436 123.336C147.693 119.119 144.143 98.2501 141.452 99.913C141.091 100.136 141.328 101.348 141.978 102.606C143.555 105.655 143.55 115.671 141.971 118.7C141.321 119.946 140.789 121.445 140.789 122.03C140.789 123.148 134.607 129.48 133.515 129.48C132.411 129.48 132.833 127.818 134.466 125.743C135.335 124.637 136.047 122.912 136.047 121.909C136.047 120.907 136.37 119.886 136.767 119.641C137.477 119.202 136.711 116.039 134.968 112.218C130.719 102.902 115.231 108.607 116.822 118.902C117.083 120.589 117.089 121.782 116.834 121.553C115.364 120.229 112.329 114.96 112.329 113.73C112.329 112.933 111.8 111.841 111.152 111.304C110.505 110.767 110.194 109.971 110.463 109.538C110.731 109.103 110.461 108.445 109.862 108.074C108.646 107.323 116.532 98.6475 118.429 98.6475C118.988 98.6475 119.444 98.3162 119.444 97.9103C119.444 97.5055 120.161 96.9462 121.037 96.6682C121.913 96.3901 122.436 95.85 122.201 95.4687C121.585 94.4726 116.453 97.5737 112.527 101.312L109.167 104.511V102.143C109.167 92.7394 130.524 84.0936 138.502 90.268ZM150.189 142.326C148.715 143.304 146.5 144.626 145.267 145.263C142.672 146.604 133.674 155.972 133.674 157.334C133.674 157.839 135.439 156.451 137.595 154.249C142.11 149.637 143.741 149.429 148.848 152.809C152.526 155.243 154.013 154.625 153.005 151.081C151.978 147.471 152.002 145.038 153.089 142.721C154.326 140.083 153.698 139.996 150.189 142.326ZM163.219 156.915C157.751 164.146 154.416 174.838 156.612 178.099C156.905 178.534 157.76 181.203 158.513 184.029C159.265 186.855 160.206 190.234 160.602 191.539C162.419 197.516 165.377 215.373 164.938 217.711C164.667 219.154 164.813 220.49 165.273 220.775C165.746 221.067 166.087 220.484 166.087 219.387C166.087 218.347 166.33 217.253 166.627 216.957C167.694 215.889 166.044 203.127 163.798 195.096C162.693 191.144 161.302 185.481 160.982 183.634C160.106 178.581 159.486 173.25 159.693 172.565C159.825 172.131 160.037 170.707 160.162 169.404C160.527 165.649 162.578 159.858 164.498 157.161C167.05 153.577 165.909 153.357 163.219 156.915ZM72.2212 170.221C69.5324 172.909 69.4461 173.172 69.9276 177.269C71.1293 187.493 75.8027 188.559 77.4698 178.988C79.5152 167.243 77.8991 164.543 72.2212 170.221ZM171.622 168.171C171.622 168.58 171.937 169.11 172.323 169.348C172.708 169.586 173.253 171 173.532 172.492C174.353 176.87 181.114 186.375 187.087 191.546C190.095 194.151 192.921 196.637 193.367 197.073C194.604 198.276 200.072 206.087 200.149 206.759C200.374 208.743 206.695 212.712 210.168 213.048L213.917 213.411L209.977 211.344C205.614 209.053 203.225 206.679 197.617 199.055C195.535 196.225 191.139 191.438 187.846 188.416C181.73 182.801 175.188 173.871 173.484 168.81C172.996 167.36 171.622 166.888 171.622 168.171ZM143.916 174.146C143.412 188.402 143.003 194.77 142.291 199.444C141.828 202.488 141.29 206.758 141.097 208.931C140.904 211.105 140.593 213.318 140.407 213.847C140.22 214.377 140.398 215.014 140.801 215.263C141.204 215.512 141.708 214.901 141.922 213.905C142.613 210.669 144.06 203.034 144.056 202.633C144.055 202.417 144.39 201.078 144.8 199.656C145.811 196.155 145.815 174.891 144.805 173.158C144.125 171.989 143.987 172.143 143.916 174.146ZM200.86 175.574C200.892 179.381 207.825 189.563 210.385 189.563C210.806 189.563 211.15 189.918 211.15 190.353C211.15 191.39 207.759 191.365 205.446 190.312C200.972 188.273 196.66 176.578 198.992 172.805C199.619 171.79 200.843 173.603 200.86 175.574ZM177.156 195.861C177.156 197.181 182.805 203.814 184.666 204.679C186.544 205.552 190.995 208.733 193.757 211.175C197.86 214.803 205.138 219.604 206.535 219.604C208.598 219.604 208.333 218.434 206.032 217.386C204.294 216.593 199.73 213.179 192.571 207.317C191.268 206.248 189.072 204.574 187.692 203.595C186.314 202.617 183.378 200.271 181.171 198.382C178.962 196.494 177.156 195.359 177.156 195.861ZM88.1301 213.664C89.8708 215.276 90.3374 216.555 90.7337 220.791L91.2152 225.953L88.0033 229.009C81.2537 235.43 72.8913 232.732 71.5362 223.698C70.1833 214.678 81.7075 207.71 88.1301 213.664ZM75.9454 217.034C73.6657 219.927 74.2111 224.442 77.2206 227.583C80.932 231.458 82.858 227.796 80.312 221.703C79.659 220.141 79.1253 217.963 79.1253 216.862C79.1253 214.269 78.0813 214.325 75.9454 217.034ZM314.973 306.137C309.266 308.62 310.328 318.424 316.304 318.424C322.192 318.424 325.035 310.577 320.494 306.86C317.876 304.719 318.15 304.755 314.973 306.137Z" fill="#FF0000"/>
</svg>
