<svg width="400" height="400" viewBox="0 0 400 400" fill="none" xmlns="http://www.w3.org/2000/svg">
<path style="fill:#FF0000;" d="M85.884,163.993c7.353,0,14.476,0,22.846,0c-4.701-4.491-8.415-8.429-12.538-11.878
	c-5.015-4.193-5.907-8.514-3.077-14.603c3.495-7.52,5.691-15.633,8.943-23.281c1.244-2.925,3.303-6.461,5.933-7.67
	c10.585-4.868,21.537-8.934,33.075-13.588c7.026,6.648,14.006,13.253,20.986,19.858c0.434-0.136,0.866-0.273,1.3-0.409
	c0-9.149,0-18.299,0-27.543c2.375-1.498,4.044-2.911,5.969-3.7c8.433-3.456,16.974-6.645,25.403-10.109
	c3.553-1.46,6.908-1.42,10.363,0.079c8.547,3.707,17.075,7.462,25.676,11.044c3.8,1.582,5.471,4.099,5.308,8.262
	c-0.223,5.736-0.056,11.489-0.056,18.83c3.918-3.896,6.931-6.868,9.914-9.869c1.959-1.971,3.597-4.441,5.896-5.836
	c1.954-1.186,4.975-2.145,6.958-1.491c10.157,3.352,20.196,7.096,30.117,11.097c2.166,0.873,4.431,3.025,5.372,5.154
	c4.64,10.498,8.851,21.185,13.56,32.652c-6.412,6.923-12.806,13.827-19.199,20.731c0.073,0.466,0.145,0.932,0.218,1.398
	c9.125,0,18.249,0,27.21,0c1.495,2.621,2.645,4.227,3.384,6.003c3.043,7.323,5.99,14.689,8.918,22.061
	c2.374,5.981,2.508,11.798-0.421,17.814c-3.379,6.941-6.133,14.186-9.261,21.253c-0.857,1.935-2.082,3.707-3.305,5.848
	c-8.098,0.122-16.197,0.244-24.295,0.366c3.39,3.264,6.842,6.543,10.356,9.835c3.015,2.824,6.018,5.603,9.007,8.336
	c-0.264,0.737-0.621,1.735-0.881,2.459c-11.271,31.432-10.495,27.737-11.213,30.317c-0.102,0.365-0.338,1.233-0.896,2.265
	c-1.562,2.888-4.102,4.409-5.484,5.019c-9.06,3.997-18.292,7.603-27.474,11.32c-3.707,1.5-6.76,0.69-9.676-2.2
	c-5.175-5.129-10.649-9.954-17.186-16.009c0,10.279,0,19.065,0,27.808c-1.927,1.423-3.192,2.786-4.756,3.439
	c-8.59,3.595-17.167,7.258-25.942,10.348c-2.561,0.902-6.02,0.735-8.612-0.203c-9.872-3.572-19.532-7.725-29.326-11.519
	c-3.663-1.419-5.244-3.898-5.188-7.732c0.077-5.297,0.019-10.594,0.019-15.892c-0.44-0.205-0.879-0.411-1.32-0.616
	c-4.995,5.752-9.991,11.502-15.006,17.277c-8.946-3.238-16.344-5.908-23.734-8.597c-0.931-0.338-1.814-0.807-2.737-1.168
	c-17.098-6.672-12.27-2.231-19.218-18.898c-2.818-6.76-5.467-13.59-8.144-20.407c-0.201-0.514-0.026-1.175-0.026-3.098
	c6.332-6.997,12.665-13.995,18.997-20.992c-9.41-0.029-18.82-0.057-28.23-0.086c-1.356-2.395-2.633-4.173-3.432-6.146
	c-3.495-8.627-6.989-17.261-10.163-26.007c-0.826-2.275-1.381-5.322-0.547-7.41c4.185-10.48,8.855-20.767,13.41-31.097
	C84.062,165.949,84.868,165.271,85.884,163.993z M304.554,256.115c-7.207-6.834-14.094-13.365-20.668-19.598
	c-13.887,0-27.773-0.001-41.66-0.001c16.989,16.715,33.977,33.43,50.966,50.145C297.263,275.72,300.81,266.179,304.554,256.115z
	 M235.824,117.886c0.14,13.751,0.28,27.501,0.42,41.252c16.566-17.078,33.132-34.157,49.698-51.235
	c-10.275-4.126-19.418-7.798-29.777-11.958C249.675,102.947,243.108,110.029,235.824,117.886z M96.351,143.684
	c6.941,6.514,13.698,12.857,21.111,19.814c12.208,0,25.759,0,40.321,0c-17.047-16.684-33.353-32.643-50.213-49.145
	C103.603,124.726,100.014,134.109,96.351,143.684z M145.246,303.856c6.477-6.877,12.56-13.335,18.278-19.405
	c0-13.809,0-26.824,0-39.809c-16.107,16.084-32.106,32.062-48.625,48.558C124.883,296.704,134.668,300.141,145.246,303.856z
	 M76.498,196.913c11.15,0.212,22.492,0.321,34.021,0.317c11.031-0.005,21.891-0.113,32.575-0.317
	c-10.242-9.101-20.484-18.202-30.725-27.304c-8.047-0.024-16.093-0.048-24.14-0.072C84.318,178.663,80.408,187.788,76.498,196.913z
	 M196.746,324.064c0-22.67,0-44.1,0-67.126c-9.782,10.498-18.595,19.955-27.181,29.17c0,8.785,0,17.06,0,26.306
	C178.211,316.121,186.989,319.883,196.746,324.064z M204.16,141.446c0.357,0.23,0.715,0.459,1.072,0.689
	c8.806-9.208,17.61-18.417,25.92-27.106c0-9.394,0-17.867,0-27.017c-8.847-3.541-17.557-7.028-26.992-10.804
	C204.16,99.309,204.16,120.377,204.16,141.446z M324.519,204.35c-22.339,0.004-44.678,0.007-67.017,0.011
	c9.038,8.636,18.076,17.272,27.114,25.907c9.996,0,19.252,0,28.755,0C317.006,221.817,320.575,213.52,324.519,204.35z
	 M194.533,152.113c-8.285-8.831-16.077-17.239-25.904-24.818c0,12.69,0,24.383,0,36.336c5.822,0,11.116,0,16.76,0
	C188.282,159.988,191.186,156.329,194.533,152.113z M247.417,193.922c9.242-8.723,18.485-17.447,27.727-26.17
	c-7.163-0.018-14.4,0.01-21.712,0.085c-5.785,0.059-11.523,0.147-17.213,0.263c0.028,5.394,0.056,10.788,0.084,16.182
	C239.87,187.377,243.714,190.711,247.417,193.922z M231.504,236.425c-5.295,0-9.96,0-15.016,0
	c-3.072,3.616-6.145,7.233-9.217,10.849c8.726,8.683,16.729,16.646,24.233,24.114C231.504,260.793,231.504,248.986,231.504,236.425z
	 M152.667,206.723c-5.476,3.27-22.754,21.013-24.134,24.776c11.529,0,23.058,0,34.904,0c0-5.774,0-11.028,0-16.351
	C159.786,212.293,156.223,209.504,152.667,206.723z M196.711,241.99c0-11.47,0-21.771,0-33.229
	c-7.341,8.463-15.57,14.561-22.225,24.013c5.706,0,9.965,0,14.192,0C191.378,235.873,193.78,238.628,196.711,241.99z
	 M191.783,196.814c-3.797-3.705-7.735-7.449-11.816-11.221c-3.887-3.592-7.738-7.055-11.544-10.393
	c-0.014,4.016-0.027,8.032-0.041,12.048c-2.944,3.19-5.889,6.38-8.833,9.57C170.293,196.816,181.038,196.815,191.783,196.814z
	 M204.182,191.658c7.816-7.891,15.631-15.783,23.447-23.674c-4.791,0.002-9.582,0.004-14.373,0.007
	c-3.024-2.923-6.048-5.846-9.072-8.768C204.183,170.034,204.183,180.846,204.182,191.658z M208.901,204.337
	c8.048,7.67,15.065,14.358,23.169,22.081c-0.002-4.186-0.004-8.372-0.006-12.558c2.937-3.174,5.874-6.349,8.811-9.523
	C230.364,204.337,220.412,204.337,208.901,204.337z"/>
</svg>
