<svg width="400" height="400" viewBox="0 0 400 400" fill="none" xmlns="http://www.w3.org/2000/svg">
<path fill-rule="evenodd" clip-rule="evenodd" d="M194.377 71.2261C190.736 71.9019 187.011 72.7416 186.101 73.0929C185.191 73.4441 182.398 74.1935 179.894 74.7589C164.845 78.1579 142.345 87.2452 135.049 92.8722C130.198 96.6124 130.601 95.5943 125.744 116.324C124.216 122.845 122.356 126.364 114.616 137.381C103.65 152.986 99.8625 161.1 103.138 161.973C104.343 162.294 107.447 166.11 111.936 172.792C120.327 185.276 120.223 185.179 126.93 186.877C129.889 187.625 133.426 188.585 134.792 189.01C160.207 196.922 164.759 196.713 171.954 187.311C172.825 186.173 177.11 181.636 181.474 177.228C185.84 172.821 191.646 166.86 194.377 163.982C197.108 161.103 201.696 156.575 204.575 153.917C212.013 147.05 211.968 147.056 190.062 155.656C182.58 158.594 185.617 153.958 194.817 148.399C200.365 145.047 211.216 136.934 208.859 137.901C187.774 146.546 183.31 148.624 176.714 152.859C168.422 158.183 163.439 157.793 167.163 152.11C168.841 149.548 168.029 149.553 162.181 152.139C155.668 155.02 152.971 154.884 150.958 151.573C146.524 144.28 149.428 124.812 156.719 112.963C168.002 94.6263 216.986 87.5842 233.15 101.975C245.167 112.674 248.565 117.709 252.386 130.477C254.799 138.534 254.831 139.796 252.718 143.262C250.528 146.853 250.633 149.42 253.134 153.38C254.272 155.183 255.203 156.882 255.203 157.156C255.203 157.429 256.506 159.878 258.099 162.596C262.231 169.646 262.029 171.936 257.065 174.313C253.109 176.209 252.485 177.485 253.894 180.781C254.259 181.633 253.649 183.081 252.203 184.8C250.157 187.23 250.035 187.733 250.912 190.059C251.823 192.473 251.696 192.822 248.847 195.739C246.088 198.565 245.901 199.042 246.783 200.98C248.252 204.203 247.974 205.957 245.538 208.852L243.321 211.487L234.573 210.974C198.999 208.885 199.657 208.764 186.975 219.769C177.723 227.8 173.927 228.873 171.74 224.074C170.268 220.843 168.935 222.517 166.25 230.965C164.88 235.277 162.284 240.807 159.831 244.638C152.021 256.834 152.086 268.56 160.065 286.691C161.868 290.788 163.343 294.642 163.343 295.253C163.343 295.865 163.996 297.172 164.793 298.157L166.244 299.948L173.276 294.298C177.143 291.19 182.196 287.278 184.502 285.604C196.266 277.069 205.814 259.644 200.52 256.373C198.97 255.415 199.734 246.616 201.702 242.758C206.002 234.328 218.038 232.1 224.067 238.617L227.128 241.926L230.201 240.648C244.357 234.758 274.325 210.243 286.142 194.886C293.883 184.826 294.238 184.067 293.736 178.621C292.06 160.413 292.566 152.809 296.61 135.467C298.86 125.816 298.807 123.219 296.375 123.972C291.147 125.593 291.346 125.707 287.491 118.891C275.881 98.3699 253.566 78.0687 242.623 78.0742C240.211 78.0753 234.142 77.6817 229.135 77.1977C219.5 76.2688 215.568 75.234 206.141 71.1525C202.57 69.6058 203.135 69.6014 194.377 71.2261ZM231.47 123.646C229.567 124.587 227.035 126.263 225.84 127.369C224.647 128.475 223.375 129.381 223.014 129.381C222.652 129.381 221.648 130.189 220.78 131.176C219.225 132.947 219.227 132.963 220.859 132.326C221.769 131.971 224.19 131.514 226.239 131.31C232.739 130.662 233.648 130.247 236.161 126.777C239.846 121.691 237.961 120.433 231.47 123.646ZM202.581 128.197C201.176 128.89 198.398 131.116 196.408 133.143C192.173 137.459 193.185 137.885 200.249 134.76C202.823 133.622 205.419 132.692 206.02 132.692C206.62 132.692 208.156 131.767 209.433 130.638C213.249 127.262 208.153 125.447 202.581 128.197ZM195.125 292.09C193.261 292.751 191.027 293.932 190.159 294.714C189.292 295.496 187.094 297.224 185.273 298.554C180.199 302.263 176.823 306.213 175.284 310.244L173.885 313.907L177.074 317.848C188.083 331.452 193.142 333.071 200.997 325.504C203.491 323.103 213.545 318.066 215.847 318.066C219.433 318.066 219.069 303.317 215.351 298.046C211.19 292.145 202.327 289.535 195.125 292.09Z" fill="#0000FF"/>
</svg>
