<svg width="400" height="400" viewBox="0 0 400 400" fill="none" xmlns="http://www.w3.org/2000/svg">
<path fill-rule="evenodd" clip-rule="evenodd" d="M75.2925 139.667C73.728 140.01 71.3265 140.478 69.9575 140.705C61.3496 142.135 54.5431 146.942 52.9038 152.752C52.4618 154.317 51.6355 157.081 51.0689 158.894C48.3664 167.529 50.6595 173.944 59.4659 182.392C70.7398 193.206 97.71 208.814 121.892 218.52C126.357 220.312 130.221 221.986 132.021 222.907C132.7 223.255 133.7 223.54 134.243 223.54C134.785 223.54 136.63 224.137 138.343 224.867C144.958 227.686 155.15 231.378 157.651 231.861C158.732 232.07 159.791 232.525 160.005 232.871C160.219 233.217 161.047 233.501 161.846 233.501C162.643 233.501 164.306 233.946 165.539 234.492C168.756 235.915 174.938 237.769 176.471 237.769C177.19 237.769 178.412 238.205 179.183 238.739C179.955 239.272 181.546 239.887 182.721 240.106C183.894 240.324 187.096 241.177 189.835 241.998C192.574 242.821 195.936 243.69 197.305 243.932C198.675 244.172 200.116 244.615 200.507 244.916C200.898 245.217 202.979 245.814 205.131 246.241C214.458 248.095 215.895 248.44 217.189 249.133C217.94 249.534 219.296 249.861 220.203 249.857C221.698 249.852 226.262 250.779 235.011 252.866C236.772 253.286 239.814 253.873 241.77 254.171C243.727 254.47 248.689 255.244 252.797 255.892C288.738 261.559 325.032 261.861 335.161 256.577C336.229 256.02 337.553 255.561 338.104 255.56C340.617 255.548 346.665 249.759 346.692 247.338C346.701 246.536 347.025 245.562 347.413 245.174C349.341 243.246 350.842 230.625 349.469 227.895C346.351 221.7 342.658 217.553 334.969 211.61C332.621 209.796 330.541 208.135 330.345 207.921C329.724 207.243 323.205 202.909 322.805 202.909C322.594 202.909 323.858 204.429 325.614 206.288C340.909 222.48 334.551 234.301 308.646 237.837C301.279 238.842 280.737 238.811 273.631 237.784C270.977 237.399 266.535 237.079 263.76 237.072C260.985 237.064 257.144 236.581 255.223 235.998C253.302 235.415 250.577 234.935 249.169 234.931C247.76 234.927 245.678 234.6 244.544 234.205C243.41 233.81 240.401 233.186 237.858 232.818C235.314 232.451 230.992 231.631 228.253 230.997C225.514 230.363 221.832 229.591 220.071 229.281C215.992 228.563 210.644 227.251 206.554 225.964C204.793 225.409 202.509 224.958 201.477 224.96C200.446 224.962 198.685 224.484 197.565 223.9C196.443 223.316 194.886 222.824 194.104 222.808C193.321 222.791 191.881 222.321 190.902 221.762C189.924 221.202 188.239 220.733 187.157 220.72C186.076 220.705 184.635 220.417 183.956 220.078C183.277 219.74 181.6 219.071 180.23 218.593C177.768 217.733 176.512 217.351 170.271 215.557C168.509 215.051 166.588 214.327 166.002 213.949C165.415 213.57 164.134 213.152 163.156 213.021C162.178 212.888 161.073 212.48 160.701 212.113C160.33 211.746 159.45 211.445 158.747 211.445C158.044 211.445 155.435 210.485 152.951 209.311C150.466 208.137 147.931 207.177 147.315 207.177C146.7 207.177 145.291 206.713 144.182 206.145C143.075 205.576 140.567 204.421 138.612 203.577C134.229 201.684 128.778 199.207 123.838 196.861C121.778 195.882 119.725 195.082 119.273 195.082C118.823 195.082 118.347 194.816 118.217 194.492C118.086 194.167 116.219 193.05 114.067 192.008C111.915 190.967 108.553 189.157 106.597 187.987C104.64 186.815 102.399 185.533 101.617 185.136C99.4087 184.016 97.7915 182.937 92.0251 178.732C68.0277 161.234 66.6865 146.434 88.455 139.338C90.3541 138.719 78.2308 139.022 75.2925 139.667ZM97.3476 144.489C93.4343 145.121 89.9131 145.833 89.522 146.072C89.1309 146.312 87.8501 146.737 86.6757 147.017C80.1798 148.567 77.9528 154.293 81.5996 160.069C84.2081 164.201 84.8188 164.513 88.0993 163.379C95.2174 160.917 115.397 160.463 131.141 162.41C142.325 163.793 147.254 164.496 150.35 165.15C152.111 165.522 156.593 166.356 160.31 167.003C164.028 167.65 168.029 168.494 169.204 168.882C170.377 169.268 172.939 169.847 174.895 170.169C182.719 171.455 187.737 172.523 188.412 173.046C188.804 173.349 191.365 174.114 194.104 174.746C196.843 175.378 200.765 176.371 202.819 176.952C213.232 179.897 214.923 180.399 217.225 181.233C218.595 181.729 222.597 182.978 226.119 184.007C229.64 185.038 233.482 186.304 234.656 186.823C235.83 187.341 238.551 188.321 240.703 189.001C242.855 189.681 246.697 191.045 249.241 192.033C251.784 193.023 255.465 194.45 257.422 195.207C264.165 197.813 271.408 200.976 280.746 205.392C285.415 207.6 291.11 210.617 299.217 215.18C302.797 217.195 309.588 222.583 313.023 226.135L316.688 229.925L320.137 228.426C326.439 225.687 329.348 219.436 325.72 216.426C325.134 215.939 324.653 215.141 324.653 214.653C324.653 211.302 306.782 198.067 291.508 190.108C287.63 188.088 283.976 186.176 283.39 185.861C282.218 185.232 279.743 184.126 276.987 183.005C276.009 182.606 274.728 181.996 274.141 181.649C273.554 181.302 272.114 180.627 270.939 180.15C269.766 179.672 267.845 178.837 266.67 178.296C264.28 177.191 255.345 173.838 253.153 173.222C252.371 173.002 251.41 172.591 251.019 172.308C250.628 172.025 248.227 171.102 245.683 170.255C243.14 169.41 240.418 168.439 239.636 168.098C237.57 167.198 227.251 163.801 224.34 163.062C221.392 162.313 215.597 160.604 212.601 159.602C211.427 159.209 209.027 158.531 207.266 158.096C205.504 157.661 202.464 156.794 200.507 156.168C198.55 155.542 195.865 154.905 194.539 154.753C193.213 154.6 191.553 154.167 190.85 153.791C190.148 153.415 188.831 153.111 187.925 153.113C186.313 153.119 178.416 151.454 174.183 150.215C173.009 149.872 169.808 149.249 167.069 148.832C164.33 148.414 159.208 147.599 155.685 147.02C152.164 146.441 145.921 145.667 141.813 145.3C137.704 144.933 132.101 144.304 129.362 143.903C122.178 142.853 105.615 143.156 97.3476 144.489Z" fill="#FFEE00"/>
</svg>
