<svg width="400" height="400" viewBox="0 0 400 400" fill="none" xmlns="http://www.w3.org/2000/svg">
<path fill-rule="evenodd" clip-rule="evenodd" d="M197.96 127.152C197.96 131.16 198.274 131.943 200.89 134.478L203.818 137.316L200.627 141.202C198.851 143.367 197.581 145.744 197.761 146.569C198.209 148.62 199.216 148.42 200.828 145.96C202.931 142.75 208.037 137.895 209.31 137.895C211.597 137.895 212.711 140.32 211.193 141.997C210.432 142.84 209.808 143.812 209.808 144.16C209.808 144.507 207.083 147.795 203.751 151.467L197.693 158.142V164.129C197.693 169.356 197.936 170.298 199.609 171.564C200.664 172.361 210.152 180.629 220.695 189.938C231.238 199.247 241.574 208.166 243.664 209.759C245.754 211.351 249.559 214.648 252.119 217.085C256.334 221.099 260.285 224.591 270.313 233.166C272.175 234.757 276.33 238.483 279.547 241.443L285.395 246.825L281.239 247.444C278.953 247.784 276.702 248.365 276.237 248.732C275.771 249.1 274.18 249.66 272.698 249.977C271.218 250.293 269.553 251.099 268.998 251.767C268.444 252.435 267.528 252.982 266.965 252.982C265.766 252.982 258.042 260.926 258.042 262.159C258.042 262.619 257.757 263.122 257.408 263.277C256.207 263.811 253.875 269.088 254.324 270.257C254.571 270.901 254.366 271.679 253.869 271.987C253.371 272.294 252.966 274.986 252.966 277.969C252.966 285.251 254.57 286.096 234.006 267.983C228.842 263.433 222.903 258.222 220.808 256.4C218.715 254.579 213.043 249.637 208.207 245.419C203.37 241.201 199.086 237.75 198.687 237.75C198.288 237.75 197.99 248.317 198.026 261.233L198.091 284.716L206.699 292.181C219.164 302.992 221.255 304.823 229.651 312.27L237.225 318.987H242.93C246.067 318.987 248.833 319.309 249.076 319.702C249.319 320.094 254.005 320.669 259.493 320.978C275.641 321.887 281.998 322.434 282.902 322.992C283.368 323.28 284.915 323.581 286.341 323.661C297.814 324.301 307.759 325.119 308.816 325.509C309.515 325.765 311.704 325.899 313.683 325.803C315.66 325.707 317.279 325.984 317.279 326.416C317.279 327.604 334.231 328.34 336.292 327.242C340.112 325.209 341.312 316.955 338.314 313.342C337.81 312.735 337.615 311.676 337.88 310.986C338.144 310.297 338.04 309.535 337.648 309.294C337.257 309.052 336.667 307.04 336.337 304.824C336.007 302.607 335.443 300.413 335.082 299.948C334.722 299.483 333.946 295.864 333.357 291.909C332.768 287.952 331.973 284.316 331.59 283.828C331.207 283.338 330.635 281.331 330.321 279.366C330.007 277.401 329.436 275.598 329.051 275.361C328.667 275.124 328.57 274.365 328.834 273.677C329.098 272.988 328.949 271.953 328.501 271.377C328.053 270.801 327.214 267.854 326.639 264.829C326.062 261.804 325.237 258.567 324.805 257.636C324.022 255.947 322.131 247.408 320.592 238.596C320.145 236.036 319.525 233.371 319.215 232.673C318.905 231.974 318.611 230.831 318.561 230.134C318.427 228.274 316.279 224.21 315.428 224.21C315.026 224.21 312.316 222.02 309.405 219.344C306.495 216.668 301.495 212.193 298.294 209.401C286.126 198.787 273.587 187.647 270.736 184.921C269.107 183.363 267.138 181.76 266.359 181.359C265.582 180.957 261.13 177.202 256.467 173.013C251.805 168.825 246.539 164.187 244.766 162.708C228.885 149.466 219.872 140.701 219.069 137.719C218.164 134.361 213.271 129.809 211.316 130.509C209.851 131.032 207.59 129.786 202.983 125.911C198.057 121.768 197.96 121.792 197.96 127.152ZM223.278 161.964C224.945 163.586 228.785 167.047 231.81 169.654C234.835 172.26 238.833 175.893 240.695 177.727C242.557 179.561 244.412 181.059 244.818 181.057C245.225 181.054 249.604 184.704 254.551 189.167C259.496 193.632 265.066 198.579 266.928 200.163C288.214 218.275 290.292 220.987 285.525 224.456C283.062 226.249 281.152 225.534 277.083 221.292C275.687 219.837 273.211 217.65 271.582 216.432C269.954 215.215 265.321 211.231 261.287 207.579C257.254 203.927 251.733 198.989 249.017 196.604C246.302 194.22 241.75 190.222 238.902 187.719C236.054 185.216 232.137 181.835 230.195 180.206C211.007 164.102 208.904 161.446 212.388 157.737C214.499 155.49 218.038 156.864 223.278 161.964ZM305.854 227.595C306.142 228.061 307.094 228.441 307.97 228.441C310.412 228.441 312.165 233.7 314.785 248.89C315.374 252.304 316.133 255.479 316.472 255.944C316.81 256.409 317.353 258.406 317.679 260.382C318.005 262.357 318.635 264.199 319.078 264.472C319.523 264.747 319.665 265.67 319.394 266.521C319.124 267.374 319.254 268.289 319.685 268.556C320.116 268.821 320.738 270.853 321.068 273.069C321.398 275.286 321.976 277.481 322.352 277.946C324.707 280.859 325.047 292.08 322.85 294.372C321.647 295.627 320.663 296.993 320.663 297.407C320.663 297.821 318.629 300.275 316.143 302.861C313.656 305.447 309.315 310.021 306.495 313.026C302.298 317.498 301.147 318.304 300.15 317.477C299.453 316.898 293.359 316.061 285.891 315.518C278.72 314.996 272.661 314.287 272.428 313.94C272.195 313.595 267.055 313.053 261.005 312.738C240.645 311.68 240.01 311.558 237.773 308.296C233.318 301.794 235.987 290.764 242.599 288.344C244.111 287.79 245.35 287.033 245.35 286.661C245.35 285.406 251.962 285.974 254.535 287.45C257.342 289.061 258.579 288.578 257.651 286.232C256.973 284.519 256.798 273.791 257.431 272.72C257.658 272.336 258.127 270.689 258.473 269.06C259.132 265.96 264.679 257.241 266.001 257.223C266.423 257.218 267.947 256.319 269.387 255.226C272.661 252.741 278.035 250.901 281.144 251.199C282.448 251.324 284.083 250.954 284.777 250.378C285.653 249.652 286.31 249.601 286.921 250.212C289.202 252.491 291.057 250.391 289.101 247.744C284.94 242.112 287.812 232.957 295.067 228.718C298.376 226.786 304.932 226.103 305.854 227.595Z" fill="#FF0000"/>
<path fill-rule="evenodd" clip-rule="evenodd" d="M132.801 73.265C128.232 74.9526 125.995 76.5125 122.637 80.3542C118.171 85.4638 102.495 103.095 98.4084 107.606C96.8462 109.331 95.5668 111.108 95.5668 111.555C95.5668 112.002 95.2452 112.494 94.8507 112.649C94.4561 112.805 90.7878 116.74 86.6999 121.393C82.6108 126.048 77.6973 131.608 75.7804 133.749C56.4833 155.311 55.6646 160.046 69.079 172.508C72.2444 175.449 76.7657 179.646 79.1249 181.834C81.4853 184.024 84.2733 187.584 85.3201 189.748C87.2712 193.778 90.708 196.285 94.2805 196.285C95.2908 196.285 97.0127 197.236 98.1062 198.4C99.1986 199.564 100.44 200.516 100.865 200.516C101.289 200.516 102.841 201.655 104.314 203.046C105.786 204.437 111.222 209.365 116.392 213.998C122.175 219.18 126.367 223.66 127.286 225.642C129.533 230.488 131.766 232.493 135.643 233.143C137.659 233.48 140.406 234.805 142.11 236.263C145.24 238.939 147.664 241.051 163.266 254.695C168.617 259.376 174.52 264.519 176.381 266.125C178.243 267.729 183.249 272.092 187.506 275.82C191.763 279.549 195.476 282.599 195.757 282.599C196.038 282.599 196.268 271.931 196.268 258.892V235.184L193.095 232.297C183.62 223.675 172.827 214.257 171.633 213.571C170.884 213.139 168.317 211.018 165.931 208.857L161.591 204.927L164.755 201.631C166.495 199.817 169.252 196.667 170.882 194.631C173.504 191.351 177.401 186.904 186.489 176.822C187.956 175.192 190.231 172.431 191.544 170.687C192.856 168.941 194.456 167.513 195.099 167.513C195.899 167.513 196.268 166.444 196.268 164.128C196.268 159.943 195.327 159.864 192.285 163.798C190.985 165.479 188.739 168.049 187.294 169.511C185.848 170.972 184.515 172.588 184.331 173.103C184.148 173.617 181.676 176.56 178.839 179.642L173.679 185.246L171.919 183.361L170.16 181.476L172.337 178.937C175.119 175.692 186.075 163.467 188.017 161.441C188.832 160.592 189.498 159.555 189.498 159.138C189.498 158.722 190.857 157.187 192.518 155.73C195.328 153.261 197.657 147.204 195.795 147.204C194.976 147.204 190.744 151.733 182.553 161.377C179.291 165.218 176.283 168.359 175.867 168.359C175.452 168.359 175.112 168.772 175.112 169.277C175.112 169.781 171.209 174.379 166.439 179.492C161.668 184.606 157.625 189.182 157.454 189.662C156.165 193.276 151.327 196.465 149.497 194.908C148.473 194.037 143.631 189.778 138.737 185.446C133.844 181.113 128.316 176.278 126.455 174.701C124.593 173.125 122.033 170.957 120.766 169.885L118.463 167.936L124.864 160.743C128.384 156.787 132.849 151.797 134.784 149.653C136.719 147.509 139.2 144.653 140.299 143.306C141.397 141.959 143.685 139.333 145.381 137.472C148.363 134.201 156.643 124.737 160.48 120.212C161.507 119 164.26 115.824 166.598 113.152L170.848 108.297L175.307 112.157C180.959 117.048 188.045 123.23 192.672 127.307L196.268 130.476V124.968C196.268 119.472 196.26 119.454 192.413 116.196C190.293 114.401 186.58 111.131 184.163 108.929C181.744 106.727 179.476 104.918 179.122 104.909C178.766 104.9 177.477 102.784 176.257 100.205C173.767 94.9476 171.612 93.0456 168.146 93.0456C166.835 93.0456 165.144 92.2942 164.339 91.3523C163.542 90.4218 162.53 89.6601 162.091 89.6601C161.652 89.6601 158.786 87.3248 155.722 84.4718C148.079 77.3564 146.626 76.1203 145.891 76.1203C145.543 76.1203 144.835 75.5764 144.319 74.9116C143.336 73.647 134.996 72.4543 132.801 73.265ZM168.342 103.216C168.342 104.714 160.336 114.796 151.418 124.527C149.789 126.304 144.458 132.265 139.571 137.772C130.887 147.559 130.643 147.756 128.808 146.437C126.292 144.629 126.201 144.863 131.849 138.681C137.634 132.349 151.622 116.489 156.755 110.442C164.557 101.249 168.342 98.8885 168.342 103.216Z" fill="#0000FF"/>
</svg>
