<svg width="400" height="400" viewBox="0 0 400 400" fill="none" xmlns="http://www.w3.org/2000/svg">
<path style="fill:#0000FF;" d="M307.126,70.088c-0.417,0.046-1.177,0.132-1.686,0.192c-0.813,0.099-1.442,0.112-5.059,0.079
	c-2.275-0.026-4.774-0.06-5.555-0.079c-1.587-0.04-2.843,0.066-4.034,0.337c-0.093,0.026-0.284,0.066-0.43,0.099
	c-1.395,0.311-2.314,0.608-3.247,1.058c-1.184,0.555-2.037,1.25-2.83,2.281c-0.476,0.622-0.608,0.82-1.144,1.752
	c-0.602,1.045-0.688,1.217-1.554,2.89c-0.436,0.846-1.071,2.09-1.415,2.751c-0.344,0.661-1.369,2.705-2.281,4.543
	c-3.048,6.13-2.896,5.832-4.133,8.048c-0.496,0.886-1.699,2.837-3.101,5.012c-0.139,0.218-0.377,0.589-0.529,0.827
	c-0.304,0.476-1.508,2.467-1.931,3.207c-0.708,1.223-1.336,2.427-2.262,4.298c-0.794,1.6-0.959,1.944-1.375,2.91
	c-0.132,0.291-0.304,0.688-0.39,0.879c-0.086,0.192-0.159,0.364-0.159,0.377c0,0.013-0.073,0.185-0.159,0.377
	s-0.344,0.813-0.569,1.375s-0.456,1.131-0.509,1.256c-0.496,1.151-1.276,3.386-2.268,6.48c-0.655,2.057-1.157,3.544-1.369,4.034
	c-0.516,1.217-1.065,2.057-2.566,3.968c-0.76,0.965-1.025,1.329-1.534,2.083c-0.754,1.131-2.328,3.69-2.943,4.794
	c-1.098,1.951-1.296,2.328-1.865,3.472c-1.521,3.088-2.718,5.482-2.956,5.918c-0.681,1.243-0.615,1.151-0.926,1.204
	c-0.39,0.06-1.184,0.066-1.184,0.007c0-0.026,0.106-0.377,0.245-0.78c0.265-0.8,0.304-1.27,0.139-1.587
	c-0.06-0.112-0.377-0.496-0.714-0.86c-0.337-0.364-0.833-0.939-1.104-1.276c-0.271-0.331-0.516-0.608-0.542-0.608
	c-0.139,0-0.774,0.661-1.131,1.184c-0.212,0.311-0.635,0.853-0.932,1.197c-0.946,1.104-1.865,2.248-2.777,3.465
	c-1.415,1.898-1.587,2.05-2.533,2.295c-0.727,0.185-0.926,0.251-1.065,0.35c-0.119,0.086-0.112,0.099,0.152,0.172
	c0.172,0.04,0.641,0.066,1.157,0.053l0.873-0.02l0.397,0.271c0.218,0.145,0.602,0.364,0.86,0.489
	c0.43,0.198,0.509,0.218,1.091,0.212c0.397,0,0.846-0.053,1.223-0.145c0.324-0.073,0.661-0.119,0.741-0.099
	c0.238,0.06,0.192,0.304-0.119,0.655c-0.377,0.423-1.6,1.395-2.037,1.607c-0.331,0.165-0.41,0.179-1.151,0.165l-0.794-0.013
	l-0.258,0.271c-0.139,0.145-0.251,0.317-0.251,0.384c0,0.073-0.046,0.139-0.099,0.165c-0.112,0.04-1.045-0.126-1.223-0.225
	c-0.152-0.079-0.43-0.476-0.721-1.038c-0.364-0.681-2.751-3.776-3.366-4.358c-0.317-0.304-1.316-1.005-2.043-1.442
	c-0.298-0.179-0.443-0.317-0.529-0.489c-0.06-0.132-0.231-0.423-0.37-0.641c-0.589-0.893-0.866-1.058-1.766-1.045l-0.628,0.007
	l-0.721-0.516c-0.952-0.674-1.071-0.714-1.845-0.582c-0.337,0.06-0.741,0.145-0.906,0.185l-0.304,0.079l-0.688-0.555
	c-0.384-0.304-0.813-0.608-0.959-0.674c-0.377-0.179-1.23-0.238-2.447-0.172c-0.575,0.033-1.071,0.046-1.098,0.026
	c-0.026-0.013-0.066-0.152-0.093-0.304c-0.053-0.304-0.231-0.741-0.384-0.939c-0.066-0.086-0.165-0.126-0.331-0.119
	c-0.344,0.013-0.681,0.218-2.043,1.237c-0.999,0.741-1.561,1.058-2.46,1.362c-0.82,0.284-1.018,0.331-2.182,0.522
	c-0.82,0.132-1.369,0.35-1.997,0.807l-0.271,0.192l-1.151,0.02c-0.694,0.007-1.256,0.046-1.415,0.099
	c-0.324,0.106-1.012,0.794-1.475,1.481c-0.291,0.423-0.37,0.496-0.714,0.635c-1.488,0.608-2.804,2.262-3.538,4.444
	c-0.192,0.555-0.212,0.708-0.218,1.415c-0.007,0.747,0.007,0.813,0.172,1.118c0.185,0.324,0.192,0.436,0.013,0.436
	c-0.245,0-1.005,0.436-1.746,0.992c-1.349,1.018-1.653,1.111-1.918,0.589c-0.106-0.198-0.212-0.298-0.43-0.39l-0.298-0.126v-0.965
	c0-1.118-0.099-1.514-0.536-2.162c-0.41-0.595-0.985-0.999-2.996-2.076c-1.58-0.86-1.561-0.846-2.553-0.886
	c-0.807-0.033-0.932-0.053-1.323-0.225c-0.76-0.344-1.871-0.932-2.228-1.177c-0.337-0.231-0.813-0.384-1.21-0.384
	c-0.317,0-0.489-0.106-0.648-0.397c-0.185-0.357-0.192-0.84-0.007-1.323c0.079-0.198,0.39-0.873,0.694-1.494
	c0.304-0.615,0.555-1.17,0.555-1.223c0-0.311-0.509-0.344-1.018-0.066c-0.304,0.165-1.217,0.45-1.256,0.39
	c-0.026-0.033-0.152-0.403-0.245-0.714c-0.192-0.674-0.939-1.699-2.242-3.101c-1.065-1.137-1.779-1.805-1.918-1.779
	c-0.159,0.033-0.152,0.403,0.007,0.754c0.086,0.172,0.384,0.688,0.668,1.137c0.582,0.932,0.595,1.005,0.569,2.162l-0.02,0.794
	l-0.179,0.02c-0.417,0.046-0.813-0.258-3.128-2.44c-2.242-2.103-2.718-2.533-4.761-4.325c-0.906-0.8-2.057-1.805-2.546-2.242
	c-0.489-0.436-0.959-0.853-1.038-0.926c-0.212-0.179-0.238-0.112-0.119,0.265c0.139,0.423,0.093,0.324,1.078,2.341
	c1.018,2.076,1.303,2.83,1.256,3.333l-0.02,0.251l-0.661-0.78c-1.878-2.222-6.857-8.015-7.935-9.225
	c-3.339-3.763-3.69-4.226-6.54-8.59c-1.005-1.541-1.891-2.751-2.989-4.067c-0.747-0.893-4.497-4.688-5.879-5.951
	c-0.436-0.397-1.018-0.932-1.289-1.19c-1.289-1.204-4.298-3.65-7.631-6.203c-0.575-0.443-1.217-0.939-1.428-1.104
	c-0.205-0.165-0.952-0.727-1.653-1.256s-1.501-1.137-1.779-1.349c-3.068-2.4-3.286-2.586-6.487-5.495
	c-0.965-0.873-2.526-2.288-3.472-3.141c-0.946-0.853-2.599-2.354-3.67-3.333c-3.128-2.863-3.227-2.949-4.186-3.769
	c-1.19-1.025-1.752-1.435-2.381-1.759c-1.118-0.569-1.951-0.76-3.763-0.866c-1.785-0.099-3.928,0-5.674,0.278
	c-0.939,0.145-1.957,0.317-2.281,0.39c-0.509,0.112-1.395,0.284-2.017,0.397c-0.238,0.04-0.575,0.099-0.76,0.132
	c-0.179,0.033-0.555,0.093-0.827,0.132c-0.271,0.046-0.628,0.099-0.794,0.132c-0.165,0.033-0.536,0.093-0.827,0.132
	c-0.291,0.04-0.674,0.099-0.86,0.132c-0.179,0.033-0.582,0.093-0.893,0.132c-0.311,0.046-0.721,0.106-0.913,0.139
	s-0.714,0.04-1.157,0.02c-1.574-0.073-2.526,0.185-3.201,0.879c-0.397,0.403-0.635,0.833-0.846,1.508l-0.139,0.463l-1.323,0.661
	c-0.727,0.364-1.673,0.853-2.109,1.084s-1.104,0.589-1.488,0.787c-0.932,0.489-1.137,0.641-1.719,1.243
	c-1.237,1.289-3.756,4.106-4.311,4.821c-0.337,0.43-0.952,1.131-1.356,1.561c-0.674,0.708-0.747,0.807-0.747,1.025
	c0,0.589,0.575,0.906,1.375,0.76c1.157-0.212,1.739-0.542,3.214-1.825c0.827-0.721,1.865-1.422,2.103-1.422
	c0.139,0,0.152,0.159,0.033,0.397c-0.384,0.727-0.959,1.805-1.104,2.05c-0.364,0.622-0.985,1.924-1.349,2.837
	c-0.212,0.529-0.45,1.078-0.529,1.223c-0.364,0.641-0.417,0.747-0.503,1.018c-0.126,0.39,0.007,0.668,0.423,0.873
	c0.35,0.165,0.635,0.145,1.217-0.079c0.192-0.073,0.364-0.119,0.384-0.099c0.053,0.053-0.099,0.555-0.284,0.959
	c-0.205,0.43-0.172,0.741,0.086,1.012c0.47,0.489,0.999,0.417,2.017-0.271c0.681-0.47,0.959-0.926,1.184-1.984
	c0.185-0.84,0.714-2.195,1.422-3.663c0.265-0.536,0.483-0.879,0.754-1.177c0.212-0.231,0.555-0.688,0.767-1.012
	c0.225-0.344,0.694-0.913,1.118-1.356c0.403-0.417,0.853-0.913,0.992-1.104c0.212-0.278,0.344-0.384,0.694-0.529
	c0.767-0.317,1.567-0.794,2.215-1.303c0.251-0.205,0.258-0.205,1.058-0.205c0.436-0.007,0.979-0.046,1.197-0.093
	c0.218-0.046,0.516-0.112,0.661-0.139c0.291-0.066,0.774-0.172,1.19-0.278c0.602-0.139,0.628-0.139,0.8,0.02
	c0.225,0.212,0.198,0.39-0.093,0.661c-0.317,0.304-0.516,0.436-1.237,0.82c-0.324,0.179-0.827,0.45-1.118,0.608
	c-0.284,0.159-0.529,0.284-0.549,0.284c-0.079,0-0.886,0.595-1.17,0.86c-0.661,0.615-1.561,1.845-1.964,2.678
	c-0.198,0.41-0.218,0.522-0.225,1.025c0,0.489,0.02,0.602,0.179,0.86c0.212,0.364,0.476,0.608,0.774,0.727
	c0.304,0.119,0.688,0.013,1.713-0.476c0.45-0.212,0.827-0.384,0.846-0.384s0.337-0.152,0.708-0.337
	c0.913-0.45,1.964-1.084,2.394-1.448c0.192-0.165,0.622-0.522,0.946-0.8c0.866-0.741,1.27-0.926,4.543-2.143
	c0.946-0.357,1.871-0.708,2.05-0.787c0.185-0.086,0.509-0.218,0.727-0.304c0.886-0.35,2.169-1.078,2.797-1.587
	c0.231-0.185,0.489-0.364,0.575-0.397c0.192-0.073,0.708,0.007,1.058,0.159c1.911,0.86,1.845,0.78,8.187,8.682
	c2.506,3.121,3.511,4.411,5.965,7.658c3.518,4.649,6.752,8.603,10.389,12.696c3.657,4.12,5.026,5.733,6.209,7.307
	c0.529,0.701,1.091,1.323,2.083,2.321c1.739,1.739,2.46,2.341,5.297,4.43c1.514,1.111,2.658,2.387,6.342,7.062
	c1.435,1.818,2.672,3.419,6.394,8.239c3.273,4.232,5.045,6.394,8.14,9.939l0.985,1.131l-0.033,1.223
	c-0.046,1.693,0.112,3.359,0.463,4.801c0.086,0.364,0.311,1.045,0.582,1.785c0.119,0.311,0.238,0.648,0.278,0.754
	c0.139,0.377-0.007,1.124-0.384,1.938c-0.086,0.198-0.159,0.37-0.159,0.384c0,0.013-0.079,0.198-0.172,0.403
	c-0.093,0.205-0.212,0.496-0.264,0.641c-0.205,0.569-0.066,1.448,0.384,2.42c0.271,0.595,0.291,0.767,0.119,1.23
	c-0.655,1.799-0.76,2.268-0.655,2.863c0.192,1.018,0.628,1.323,1.99,1.395c0.522,0.026,0.873,0.073,0.919,0.119
	c0.066,0.066,0.046,0.251-0.066,0.873c-0.086,0.436-0.139,0.866-0.112,0.952c0.172,0.694,1.058,0.794,3.412,0.377
	c0.39-0.066,0.913-0.152,1.554-0.258c0.218-0.04,0.562-0.099,0.76-0.132c0.575-0.112,0.608-0.112,0.661-0.007
	c0.06,0.119,0.159,0.357,0.271,0.661c0.046,0.126,0.145,0.377,0.225,0.562c0.086,0.179,0.258,0.595,0.397,0.926
	c0.139,0.324,0.364,0.846,0.509,1.144c0.139,0.304,0.251,0.569,0.251,0.582s0.073,0.179,0.159,0.37
	c0.231,0.509,0.397,0.879,0.635,1.442c0.119,0.271,0.265,0.615,0.331,0.76c0.192,0.423,0.668,1.627,0.767,1.951
	c0.053,0.165,0.126,0.357,0.159,0.43c0.093,0.198,0.529,1.673,0.608,2.05c0.033,0.179,0.093,0.45,0.126,0.595
	c0.179,0.78,0.741,4.027,0.926,5.323c0.364,2.566,0.503,8.279,0.238,9.688c-0.093,0.496-0.119,1.283-0.165,4.602
	c-0.04,3.227-0.066,4.034-0.139,4.12c-0.086,0.099-1.124,0.635-1.23,0.635c-0.026,0-0.317,0.132-0.655,0.291
	c-0.708,0.344-1.124,0.708-2.136,1.845c-2.301,2.592-6.13,7.988-7.109,10.031c-0.827,1.726-0.979,2.513-0.979,5.184
	c-0.007,1.633-0.106,3.71-0.258,5.217c-0.066,0.628-0.152,0.807-0.668,1.435c-0.602,0.721-1.442,2.143-1.878,3.174
	c-0.278,0.661-1.27,2.612-1.825,3.597c-0.06,0.112-0.251,0.469-0.43,0.8c-0.172,0.324-0.417,0.767-0.536,0.979
	c-0.126,0.212-0.225,0.397-0.225,0.41c0,0.02-0.324,0.608-1.005,1.818c-0.093,0.165-0.238,0.43-0.331,0.595s-0.238,0.43-0.331,0.595
	c-0.43,0.774-0.575,1.032-1.164,2.05c-0.344,0.602-0.714,1.256-0.827,1.455c-0.106,0.198-0.251,0.443-0.324,0.542
	c-0.066,0.093-0.119,0.185-0.119,0.205c0,0.02-0.231,0.417-0.516,0.879c-0.284,0.469-0.708,1.164-0.939,1.547
	c-0.714,1.184-1.726,2.645-2.295,3.32c-0.172,0.205-0.503,0.602-0.727,0.873c-0.231,0.271-0.536,0.727-0.681,1.018
	c-0.265,0.516-0.979,2.572-1.256,3.617c-0.284,1.058-0.41,1.528-0.469,1.785c-0.106,0.43-0.159,0.655-0.555,2.215
	c-0.337,1.349-0.463,1.878-0.906,3.703c-0.073,0.311-0.185,0.727-0.251,0.926c-0.066,0.198-0.364,1.124-0.661,2.05
	c-0.893,2.784-1.362,4.166-1.852,5.489c-0.119,0.311-0.238,0.648-0.271,0.76c-0.079,0.251-0.106,0.291-0.39,0.509
	c-0.37,0.271-0.754,0.82-1.19,1.693c-0.218,0.443-0.397,0.82-0.397,0.833c0,0.02-0.079,0.205-0.172,0.417
	c-0.298,0.648-0.615,1.713-0.661,2.222c-0.04,0.45-0.033,0.496,0.112,0.661c0.238,0.278,0.747,0.39,1.514,0.344l0.628-0.046
	l0.198,0.212c0.212,0.225,1.111,0.926,1.19,0.926c0.02,0,0.165,0.086,0.317,0.185c0.509,0.337,0.899,0.476,1.323,0.476
	c0.516,0,0.979-0.198,1.62-0.674c0.198-0.145,0.364-0.251,0.37-0.238c0.086,0.132,0.172,0.436,0.172,0.615
	c0,0.218-0.093,0.602-0.403,1.686c-0.04,0.126-0.099,0.344-0.132,0.476c-0.033,0.139-0.093,0.377-0.132,0.529
	c-0.311,1.243-0.132,2.354,0.469,2.929c0.159,0.152,0.198,0.245,0.198,0.469c0,0.615-0.225,0.873-1.19,1.349
	c-1.144,0.569-1.871,1.237-2.275,2.07c-0.317,0.661-0.417,0.992-0.569,1.865c-0.046,0.251-0.106,0.608-0.139,0.78
	c-0.033,0.172-0.06,0.483-0.06,0.688c0,0.39-0.046,0.476-1.104,2.123c-0.126,0.192-0.278,0.45-0.344,0.562
	c-0.331,0.575-0.78,1.276-1.752,2.724l-1.065,1.587v0.41c0,0.364,0.02,0.43,0.198,0.615c0.112,0.119,0.311,0.284,0.443,0.37
	c0.192,0.119,0.251,0.212,0.284,0.403c0.093,0.615,0.179,1.058,0.231,1.177c0.159,0.403,0.304,0.714,0.536,1.17
	c0.139,0.278,0.258,0.562,0.258,0.622s-0.311,0.741-0.688,1.508c-0.767,1.561-0.899,1.971-0.767,2.467
	c0.165,0.661,0.469,1.329,0.714,1.567c0.291,0.298,0.893,0.595,1.501,0.754c0.145,0.04,0.39,0.099,0.536,0.139
	c0.152,0.04,0.602,0.079,1.005,0.086c0.721,0.007,0.734,0,1.151-0.231c0.231-0.132,0.714-0.463,1.071-0.734
	c0.641-0.489,0.661-0.503,1.032-0.503c0.212,0,0.496,0.046,0.635,0.106c0.972,0.397,1.27,0.655,1.693,1.481l0.251,0.476
	l-0.337,0.542c-0.311,0.516-0.331,0.575-0.337,1.012c0,0.304,0.033,0.529,0.106,0.668c0.099,0.198,0.132,0.212,0.47,0.212
	c0.198,0,0.503-0.026,0.674-0.06c0.172-0.033,0.529-0.093,0.78-0.139c0.8-0.139,1.713-0.403,2.149-0.615
	c0.403-0.198,0.754-0.589,1.197-1.316c0.489-0.827,0.694-0.946,1.587-0.946c0.549,0,0.661,0.02,0.787,0.132
	c0.179,0.165,0.331,0.443,0.331,0.622c0,0.225,0.145,0.469,0.278,0.469c0.529,0,2.519-2.123,3.511-3.73
	c0.476-0.787,0.37-0.741,1.19-0.509c0.344,0.099,2.037,0.522,2.394,0.602c0.714,0.159,0.873,0.192,1.256,0.264
	c0.218,0.04,0.529,0.099,0.694,0.132c0.271,0.053,0.516,0.093,1.699,0.271c0.231,0.033,0.602,0.086,0.827,0.119
	c1.058,0.159,2.255,0.278,4.093,0.403c1.488,0.099,7.459,0.079,9.615-0.033c4.721-0.251,7.049-0.436,10.415-0.827
	c0.311-0.04,0.833-0.099,1.157-0.132c0.582-0.066,1.144-0.132,2.215-0.264c0.291-0.033,0.767-0.093,1.058-0.132
	c0.291-0.033,0.628-0.073,0.747-0.093c0.311-0.046,1.078-0.152,2.162-0.304c2.433-0.344,6.229-1.032,8.365-1.521
	c1.812-0.417,2.189-0.503,4.695-1.124c2.407-0.595,4.08-0.999,5.29-1.289c0.364-0.086,1.151-0.278,1.752-0.423
	c0.602-0.145,1.541-0.37,2.083-0.503c0.549-0.132,4.397-1.085,8.563-2.123c8.623-2.149,8.061-2.01,9.324-2.275
	c1.409-0.298,2.804-0.496,4.629-0.661c1.693-0.152,2.348-0.198,3.769-0.298c3.128-0.205,3.974-0.245,5.224-0.245
	c1.461,0.007,2.235,0.086,4.563,0.469c0.456,0.079,1.137,0.185,1.521,0.238c0.384,0.053,0.873,0.126,1.091,0.165
	c0.218,0.033,0.648,0.093,0.959,0.132c0.615,0.079,1.237,0.165,1.951,0.264c0.443,0.066,1.779,0.245,2.91,0.397
	c0.503,0.066,0.767,0.106,1.785,0.264c0.238,0.04,0.622,0.099,0.86,0.132c0.238,0.04,0.628,0.099,0.879,0.132
	c0.853,0.132,1.944,0.324,2.295,0.397c0.145,0.033,0.443,0.093,0.661,0.132c1.197,0.225,3.108,0.721,4.173,1.071l0.853,0.284
	l0.04,0.959c0.046,1.111,0.179,1.898,0.47,2.777c0.641,1.977,2.076,3.73,3.439,4.212c0.555,0.198,0.76,0.231,1.706,0.284
	c0.529,0.033,1.23,0.093,1.554,0.132c1.223,0.159,2.678-0.066,3.538-0.542c0.35-0.198,0.886-0.628,1.177-0.939
	c0.331-0.357,0.992-1.342,1.25-1.858c0.807-1.594,1.402-4.292,1.409-6.315c0-0.608-0.132-2.116-0.238-2.678
	c-0.099-0.536-0.179-0.913-0.35-1.686c-0.139-0.641-0.251-1.428-0.397-2.777c-0.066-0.582-0.106-1.018-0.271-2.711
	c-0.172-1.792-0.218-2.162-0.284-2.341c-0.079-0.212-0.384-0.37-0.727-0.37c-0.225,0-0.417-0.066-1.104-0.377
	c-0.476-0.218-1.468-0.549-1.647-0.549c-0.073,0-0.231-0.086-0.35-0.185c-0.787-0.668-1.342-0.813-5.449-1.428
	c-0.932-0.139-1.124-0.185-1.528-0.397c-0.251-0.132-0.569-0.357-0.701-0.489c-0.251-0.258-0.397-0.595-0.317-0.727
	c0.172-0.278,1.746-0.483,5.198-0.681c0.694-0.033,1.686-0.112,2.215-0.172c0.708-0.079,1.812-0.112,4.179-0.132
	c2.949-0.026,3.22-0.033,3.26-0.139c0.02-0.06,0.086-0.747,0.132-1.514c0.106-1.567,0.066-2.149-0.245-3.372
	c-0.06-0.251-0.093-0.278-0.311-0.311c-0.132-0.02-1.514-0.053-3.082-0.073c-4.84-0.066-8.405-0.291-12.101-0.767
	c-1.528-0.198-2.017-0.298-2.189-0.463c-0.152-0.139-0.357-0.668-0.357-0.913c0-0.073-0.06-0.245-0.139-0.384
	c-0.132-0.231-0.132-0.258-0.033-0.423c0.225-0.377,0.119-0.516-1.032-1.369c-0.641-0.476-0.979-0.813-0.979-0.985
	c0-0.053,0.046-0.271,0.099-0.483c0.093-0.364,0.093-0.403-0.04-0.708c-0.073-0.172-0.258-0.476-0.403-0.668
	c-0.317-0.41-0.516-0.959-0.516-1.435c0-0.304,0.026-0.357,0.251-0.575c0.132-0.132,0.516-0.417,0.84-0.628
	c0.668-0.443,1.23-0.628,2.248-0.747c0.337-0.04,3.22-0.099,6.679-0.132c6.13-0.066,6.355-0.073,7.968-0.324
	c1.137-0.185,2.605-0.278,4.563-0.291l2.083-0.013l0.364,0.278c0.906,0.701,1.666,0.893,4.034,1.005
	c1.706,0.079,1.726,0.086,6.91,1.865c1.547,0.529,2.143,0.708,2.81,0.853c0.165,0.033,0.496,0.106,0.734,0.159
	c0.238,0.053,0.78,0.132,1.197,0.179c0.846,0.093,1.528,0.026,2.004-0.198c0.145-0.073,0.469-0.212,0.727-0.311
	c0.893-0.357,1.977-1.217,2.275-1.805c0.192-0.377,0.337-1.051,0.337-1.613c0-0.509-0.106-1.6-0.198-1.997
	c-0.212-0.926-0.304-1.263-0.503-1.885c-0.126-0.384-0.264-0.767-0.304-0.86c-0.04-0.093-0.093-0.225-0.126-0.298
	c-0.212-0.549-0.364-0.866-0.893-1.918c-0.331-0.655-0.721-1.395-0.873-1.647c-0.152-0.245-0.278-0.463-0.278-0.483
	c0-0.073-2.05-3.121-2.48-3.69c-2.143-2.83-3.842-4.55-6.037-6.11c-0.939-0.661-1.289-0.866-1.805-1.038
	c-0.549-0.185-1.045-0.205-1.567-0.053c-0.436,0.126-0.119,0.139-10.177-0.37c-1.911-0.099-2.605-0.165-2.83-0.271
	c-0.397-0.192-0.251-0.317,0.827-0.747c0.344-0.139,0.727-0.298,0.853-0.35l0.218-0.106l-0.033-0.734
	c-0.033-0.76-0.159-2.209-0.218-2.473c-0.053-0.264-1.521-1.104-1.812-1.038c-0.165,0.04-0.258,0.073-1.521,0.549
	c-0.708,0.271-1.911,0.674-2.744,0.926c-0.443,0.139-3.28,0.853-3.968,1.005c-0.45,0.099-0.833,0.185-1.17,0.265
	c-0.39,0.086-1.508,0.304-2.07,0.397c-0.251,0.046-0.608,0.106-0.78,0.139c-0.661,0.126-1.118,0.06-2.328-0.324
	c-0.218-0.073-0.622-0.165-0.893-0.212c-0.628-0.112-2.116-0.112-2.586,0c-1.997,0.463-3.544,1.395-6.077,3.663
	c-0.304,0.278-0.582,0.503-0.608,0.503c-0.026,0-0.053-0.073-0.053-0.152c0-0.245-0.245-0.939-0.503-1.422
	c-0.681-1.276-1.6-2.136-2.956-2.751c-0.317-0.145-0.377-0.198-0.337-0.291c0.093-0.185,0.112-2.44,0.026-3.286
	c-0.152-1.58-0.298-2.143-1.058-4.1c-0.026-0.073-0.086-0.225-0.132-0.331c-0.046-0.112-0.106-0.258-0.132-0.331
	c-0.033-0.073-0.099-0.238-0.152-0.364c-0.06-0.126-0.198-0.469-0.311-0.76c-0.112-0.291-0.251-0.628-0.304-0.747
	c-0.053-0.112-0.132-0.311-0.185-0.43c-0.053-0.112-0.159-0.377-0.238-0.575c-0.079-0.198-0.212-0.516-0.304-0.714
	c-0.086-0.192-0.159-0.364-0.159-0.377c0-0.152-0.866-1.871-2.07-4.133c-0.628-1.177-1.369-2.678-1.369-2.777
	c0-0.06-0.026-0.132-0.053-0.165c-0.033-0.04-0.245-0.648-0.47-1.356c-0.231-0.708-0.443-1.349-0.469-1.422
	c-0.026-0.073-0.145-0.443-0.265-0.827c-0.112-0.384-0.231-0.767-0.264-0.86c-0.026-0.093-0.086-0.284-0.126-0.43
	c-0.179-0.661-0.344-1.276-0.41-1.521c-0.04-0.145-0.093-0.357-0.126-0.463c-0.026-0.112-0.145-0.589-0.258-1.058
	c-0.119-0.476-0.238-0.965-0.271-1.091c-0.066-0.258-0.304-1.276-0.397-1.686c-0.106-0.503-0.192-0.86-0.258-1.157
	c-0.04-0.165-0.119-0.536-0.179-0.827c-0.06-0.291-0.132-0.648-0.165-0.794c-0.033-0.145-0.086-0.417-0.119-0.595
	c-0.033-0.185-0.112-0.569-0.165-0.86c-0.06-0.291-0.139-0.708-0.179-0.926c-0.489-2.731-1.058-4.173-2.116-5.409
	c-0.218-0.251-0.542-0.688-0.721-0.972c-0.185-0.284-0.41-0.569-0.503-0.628c-0.225-0.145-0.893-0.192-1.481-0.099
	c-1.21,0.192-1.157,0.198-2.063-0.284c-1.342-0.701-4.569-1.964-7.512-2.929l-0.549-0.179l-1.501,0.06
	c-0.827,0.033-1.554,0.053-1.62,0.033c-0.139-0.026-0.132-0.073,0.046-0.767c0.053-0.218,0.132-0.648,0.179-0.959
	c0.073-0.542,0.265-1.475,0.384-1.885c0.033-0.112,0.185-0.708,0.337-1.323c0.145-0.622,0.377-1.541,0.503-2.05
	c0.384-1.501,0.489-1.997,0.622-2.81c0.04-0.271,0.099-0.661,0.132-0.86c0.033-0.198,0.093-0.602,0.132-0.893
	c0.04-0.291,0.099-0.708,0.132-0.926c0.033-0.218,0.093-0.635,0.132-0.926c0.364-2.605,0.496-3.128,1.422-5.555
	c0.344-0.893,1.223-2.705,1.733-3.571c0.185-0.311,0.575-1.078,1.818-3.538l0.516-1.025l0.377-0.079
	c0.212-0.046,0.522-0.079,0.694-0.086c0.165,0,0.522-0.079,0.794-0.172c0.959-0.337,1.6-0.423,2.189-0.298
	c0.152,0.033,0.456,0.099,0.674,0.139s0.516,0.099,0.661,0.132c0.145,0.033,0.443,0.093,0.661,0.132s0.516,0.099,0.661,0.132
	c0.972,0.205,1.032,0.212,1.137,0.119c0.139-0.112,0.304-0.522,0.403-0.979c0.179-0.833,0.212-1.091,0.212-1.541
	c0.007-0.899,0.185-1.852,0.661-3.452c0.331-1.111,0.344-1.223,0.271-1.812c-0.073-0.562-0.145-0.979-0.264-1.494
	c-0.033-0.145-0.093-0.43-0.139-0.628c-0.079-0.35-0.106-0.476-0.264-1.124c-0.198-0.807-0.192-0.873,0.344-2.81
	c0.278-1.005,0.694-2.738,0.767-3.174c0.238-1.428,0.377-4.444,0.284-6.018c-0.053-0.959-0.053-0.999,0.093-1.256
	c0.079-0.145,0.317-0.595,0.529-0.992c0.212-0.403,0.403-0.76,0.43-0.794c0.026-0.04,0.278-0.516,0.562-1.058
	c0.284-0.549,0.595-1.144,0.694-1.323c0.099-0.185,0.43-0.807,0.727-1.389c0.304-0.582,0.622-1.19,0.714-1.356
	c0.284-0.516,2.89-5.7,3.082-6.143c0.106-0.231,0.317-0.708,0.483-1.058c0.159-0.35,0.337-0.727,0.384-0.833
	c0.046-0.112,0.198-0.436,0.331-0.727c0.132-0.291,0.417-0.919,0.628-1.389c0.212-0.476,0.456-1.025,0.549-1.223
	c0.093-0.198,0.231-0.516,0.311-0.694c0.079-0.185,0.218-0.496,0.311-0.694s0.337-0.754,0.549-1.223
	c0.212-0.476,0.476-1.058,0.589-1.309c0.112-0.245,0.205-0.456,0.205-0.469s0.119-0.284,0.264-0.595
	c0.146-0.311,0.265-0.582,0.265-0.595c0-0.02,0.073-0.192,0.159-0.384c0.086-0.192,0.298-0.681,0.463-1.078
	c0.172-0.403,0.337-0.787,0.364-0.86c0.159-0.364,0.754-1.924,0.926-2.447c0.231-0.674,0.212-0.648,1.329-2.017
	c1.071-1.309,1.673-2.209,2.268-3.392c0.443-0.879,0.569-1.144,0.992-2.096c0.093-0.198,0.225-0.503,0.298-0.668
	c0.079-0.165,0.205-0.463,0.278-0.661c0.079-0.198,0.179-0.45,0.231-0.555c0.357-0.813,1.091-2.672,2.414-6.117
	c0.172-0.456,1.184-3.015,2.248-5.687c1.065-2.672,2.017-5.092,2.123-5.376c0.106-0.278,0.278-0.741,0.384-1.025
	c0.456-1.197,0.926-2.553,1.66-4.768c0.734-2.222,0.992-2.962,1.21-3.465c0.238-0.536,0.45-1.045,0.641-1.534
	c0.119-0.291,0.264-0.648,0.331-0.794s0.218-0.503,0.331-0.794c0.112-0.291,0.265-0.648,0.324-0.794
	c0.205-0.463,0.866-2.156,1.296-3.306c0.132-0.364,0.47-1.256,0.741-1.984s0.582-1.547,0.681-1.818
	c0.218-0.602,0.688-1.772,0.873-2.182c0.774-1.746,1.111-2.314,1.382-2.314c0.06,0,0.549,0.218,1.078,0.489
	c0.536,0.271,1.051,0.522,1.151,0.562c0.873,0.337,1.164,0.436,1.931,0.661c0.271,0.079,0.569,0.172,0.661,0.205
	c0.093,0.033,0.331,0.093,0.529,0.139c0.198,0.04,0.436,0.099,0.529,0.126c0.159,0.053,0.469,0.126,1.091,0.265
	c1.323,0.298,1.494,0.337,1.911,0.476c0.734,0.251,1.21,0.555,2.136,1.349c0.648,0.562,1.607,1.177,2.586,1.666
	c0.45,0.225,1.012,0.549,1.256,0.721c0.245,0.172,0.516,0.357,0.608,0.403c0.225,0.119,0.655,0.066,1.045-0.126
	c0.251-0.132,0.344-0.231,0.496-0.522c0.165-0.337,0.179-0.41,0.159-1.025c-0.026-0.78-0.086-1.012-0.41-1.633
	c-0.694-1.356-1.574-2.228-2.797-2.777c-1.752-0.787-2.552-1.256-3.022-1.779c-0.198-0.218-0.231-0.304-0.231-0.575
	c0-0.331,0.152-1.422,0.265-1.898c0.099-0.43,0.192-0.47,1.303-0.516c1.151-0.053,1.752-0.198,2.724-0.655l0.423-0.205l1.131,0.079
	c0.622,0.046,1.389,0.112,1.699,0.145c0.549,0.06,0.569,0.066,0.893,0.37c0.212,0.205,0.582,0.443,1.051,0.674
	c0.787,0.384,0.86,0.417,1.62,0.701c0.165,0.06,0.417,0.205,0.562,0.324c0.145,0.119,0.417,0.311,0.595,0.43
	c0.185,0.126,0.76,0.661,1.289,1.197c0.529,0.536,1.098,1.065,1.27,1.184c0.245,0.165,0.403,0.364,0.78,0.999
	c1.17,1.971,2.215,3.009,3.108,3.088c0.35,0.033,0.39,0.02,0.615-0.179c0.159-0.139,0.291-0.344,0.384-0.602
	c0.079-0.212,0.172-0.39,0.205-0.39c0.033,0,0.198,0.073,0.37,0.159c0.853,0.43,1.779,0.569,2.189,0.331
	c0.271-0.159,0.536-0.569,0.536-0.813c0-0.152-0.119-0.324-0.529-0.767c-0.489-0.529-0.926-1.091-0.926-1.19
	c0-0.026-0.086-0.172-0.198-0.331c-0.106-0.159-0.198-0.304-0.198-0.317c0-0.02-0.106-0.205-0.231-0.417
	c-0.291-0.476-0.291-0.555-0.013-0.555c0.245,0,0.76-0.145,0.959-0.271c0.079-0.046,0.192-0.198,0.251-0.337
	c0.106-0.238,0.106-0.265-0.013-0.483c-0.165-0.317-1.984-2.037-2.969-2.817c-1.223-0.972-4.464-3.445-4.794-3.67
	c-0.384-0.251-0.721-0.41-1.223-0.562c-0.145-0.04-0.337-0.099-0.43-0.126c-0.324-0.106-1.21-0.298-1.785-0.397
	c-0.238-0.04-0.575-0.099-0.76-0.132c-0.179-0.033-0.582-0.093-0.893-0.139s-0.648-0.126-0.76-0.179
	c-0.106-0.053-0.668-0.436-1.237-0.846c-1.177-0.84-1.673-1.104-2.308-1.21C308.137,69.976,308.137,69.976,307.126,70.088z"/>
</svg>
