<svg width="400" height="400" viewBox="0 0 400 400" fill="none" xmlns="http://www.w3.org/2000/svg">
<path fill-rule="evenodd" clip-rule="evenodd" d="M190.939 70.8382C184.144 72.3454 178.056 75.789 172.397 81.3273C164.917 88.6474 160.789 98.9173 166.205 96.7334C168.953 95.625 173.509 94.7822 176.846 94.763C178.778 94.7517 180.538 94.4534 180.758 94.0987C181.145 93.4728 192.979 93.5688 193.614 94.2026C193.789 94.3777 190.806 94.7777 186.985 95.0895C179.459 95.7064 170.731 97.0215 168.721 97.8406C168.029 98.123 167.086 98.4021 166.625 98.4608C166.163 98.5196 164.325 99.2167 162.54 100.009C160.753 100.802 158.961 101.45 158.557 101.45C158.151 101.45 157.82 101.85 157.82 102.338C157.82 102.826 157.494 103.024 157.094 102.777C154.722 101.311 153.207 105.896 152.927 115.382L152.645 124.949L155.569 127.873C157.176 129.481 159.095 130.796 159.833 130.796C161.053 130.796 161.175 137.455 161.175 204.003V277.21L163.481 279.401C166.389 282.167 173.694 284.694 183.393 286.292L190.939 287.536L184.162 287.178C169.611 286.411 159.498 281.184 159.498 274.432C159.498 270.182 158.486 269.866 155.142 273.069C149.182 278.779 152.261 296.437 159.707 299.249C160.976 299.729 162.013 300.671 162.013 301.344C162.013 302.017 162.451 303.63 162.987 304.928C163.522 306.226 163.9 307.572 163.825 307.918C163.751 308.263 164.026 308.546 164.438 308.546C164.849 308.546 165.431 309.523 165.73 310.717C166.437 313.537 177.983 325.083 180.803 325.79C181.997 326.091 182.974 326.646 182.974 327.026C182.974 329.934 206.489 331.176 212.739 328.598C214.122 328.027 215.538 327.62 215.883 327.695C216.229 327.769 216.511 327.525 216.511 327.154C216.511 326.781 217.927 325.851 219.656 325.087C226.219 322.187 237.466 307.695 237.472 302.131C237.473 300.926 238.24 300.045 239.779 299.481C249.223 296.022 250.242 274.101 241.137 270.297L238.311 269.117V200.376C238.311 162.568 238.621 131.634 238.999 131.634C239.378 131.634 241.263 130.284 243.191 128.635L246.695 125.635V115.658C246.695 105.689 246.694 105.68 244.391 104.214C243.122 103.407 241.896 102.55 241.665 102.308C241.435 102.067 240.492 101.451 239.57 100.941C238.647 100.43 237.753 99.2992 237.581 98.4258C237.411 97.5525 236.878 95.8951 236.398 94.7427C235.918 93.5903 235.586 92.3633 235.661 92.0176C235.735 91.6718 235.511 91.3894 235.162 91.3894C234.814 91.3894 234.002 90.1997 233.359 88.7479C227.62 75.78 207.313 67.207 190.939 70.8382ZM201.255 75.989C201.58 78.2599 199.055 79.3219 197.36 77.6272C196.321 76.5878 196.298 76.1596 197.222 75.0456C198.701 73.2628 200.939 73.787 201.255 75.989ZM193.504 77.5052C195.571 79.0395 194.617 80.8246 190.019 84.0242C183.363 88.6587 174.94 85.9471 179.758 80.7218C183.531 76.6296 190.218 75.0648 193.504 77.5052ZM225.228 85.5121C230.132 90.7556 234.327 99.8787 230.844 97.7253C230.365 97.4293 229.593 95.7787 229.129 94.0569C228.664 92.326 226.374 88.7795 224.009 86.1268C218.758 80.2348 219.799 79.7095 225.228 85.5121ZM220.449 99.3929C225.889 100.106 230.67 101.02 231.075 101.423C231.478 101.828 232.372 101.942 233.061 101.677C234.023 101.308 234.18 101.613 233.74 103C233.385 104.118 233.527 104.804 234.113 104.804C234.631 104.804 234.823 104.426 234.539 103.965C233.654 102.534 236.917 103.05 239.779 104.795C243.022 106.773 243.328 107.591 240.408 106.481C237.799 105.489 237.625 106.732 240.198 107.973C241.235 108.473 241.587 108.908 240.981 108.94C238.946 109.044 236.684 107.326 237.174 106.049C237.438 105.364 237.275 104.804 236.814 104.804C236.069 104.804 234.57 107.386 235.148 107.673C235.274 107.737 236.886 108.504 238.73 109.378C241.236 110.566 241.698 111.055 240.557 111.312C239.079 111.647 239.079 111.695 240.557 112.8C241.964 113.853 241.918 113.908 239.989 113.495L237.892 113.045L239.989 114.775C242.374 116.744 241.696 117.124 238.911 115.379C237.89 114.739 234.978 113.746 232.443 113.173C229.906 112.599 227.454 111.84 226.993 111.484C222.782 108.24 176.293 108.413 172.294 111.687C171.724 112.155 170.687 112.319 169.988 112.051C169.291 111.784 168.721 111.887 168.721 112.283C168.721 112.678 167.305 113.265 165.576 113.584C163.847 113.905 161.256 114.89 159.818 115.774C156.207 117.993 156.144 117.943 156.144 112.916C156.144 107.554 157.852 105.532 164.16 103.431C166.437 102.672 168.679 101.766 169.14 101.418C169.938 100.814 179.2 99.2438 185.489 98.6439C193.723 97.8598 211.687 98.245 220.449 99.3929ZM228.444 106.481C227.571 107.88 227.607 108.158 228.663 108.158C229.357 108.158 229.927 108 229.927 107.807C229.927 107.615 230.156 106.86 230.436 106.13C231.165 104.231 229.687 104.491 228.444 106.481ZM231.799 107.32C230.919 108.729 230.962 108.996 232.065 108.996C232.789 108.996 233.147 108.619 232.862 108.158C232.576 107.697 232.743 107.32 233.231 107.32C233.719 107.32 234.119 106.942 234.119 106.481C234.119 105.096 232.915 105.532 231.799 107.32ZM234.502 109.777C234.768 110.206 234.602 110.794 234.133 111.084C233.664 111.373 233.281 111.211 233.281 110.723C233.281 110.235 232.715 109.835 232.023 109.835C229.609 109.835 230.791 111.254 234.006 112.217C238.149 113.459 237.939 113.506 238.048 111.302C238.099 110.264 237.959 109.887 237.737 110.464C237.515 111.04 236.947 111.511 236.475 111.511C236.003 111.511 235.833 110.945 236.099 110.254C236.398 109.474 236.095 108.996 235.301 108.996C234.596 108.996 234.237 109.348 234.502 109.777ZM199.743 118.219C199.743 118.68 198.988 119.057 198.066 119.057C197.144 119.057 196.39 119.435 196.39 119.896C196.39 120.358 196.106 120.665 195.76 120.581C194.781 120.342 187.166 124.34 187.166 125.094C187.166 125.463 186.689 125.765 186.107 125.765C185.524 125.765 183.087 127.086 180.69 128.7C178.294 130.313 176.064 131.634 175.737 131.634C172.876 131.634 172.074 134.508 172.074 144.76C172.074 150.453 172.393 155.11 172.782 155.11C174.243 155.11 175.991 152.076 176.163 149.241C176.568 142.546 177.765 140.03 177.857 145.678C177.95 151.338 178.217 151.641 181.24 149.522C186.445 145.876 204.633 136.776 207.708 136.279C208.169 136.204 209.867 135.541 211.482 134.804C213.095 134.068 215.925 133.192 217.77 132.86C219.614 132.527 221.501 131.97 221.962 131.623C222.945 130.883 230.949 129.119 233.322 129.119C234.774 129.119 234.958 129.724 234.958 134.5C234.958 141.698 234.553 142.579 231.528 141.974C230.183 141.705 229.088 141.849 229.088 142.295C229.088 142.74 226.447 143.576 223.219 144.152C219.991 144.73 217.35 145.567 217.35 146.013C217.35 146.459 217.012 146.617 216.6 146.361C216.186 146.106 214.772 146.458 213.455 147.145C212.139 147.831 210.486 148.395 209.781 148.398C209.077 148.4 207.757 148.925 206.847 149.562C205.938 150.199 204.908 150.761 204.56 150.809C204.212 150.859 202.563 151.469 200.894 152.166C199.227 152.863 197.53 153.434 197.125 153.434C196.721 153.434 196.39 153.834 196.39 154.322C196.39 154.81 196.012 154.976 195.55 154.691C195.089 154.407 194.712 154.497 194.712 154.892C194.712 155.289 193.297 156.122 191.568 156.744C185.383 158.97 184.528 159.953 184.668 164.675C184.864 171.32 184.715 172.718 183.813 172.718C183.339 172.718 182.974 170.342 182.974 167.268C182.974 161.446 182.708 161.041 180.315 163.205C178.987 164.408 178.782 165.982 178.782 174.963V185.334L180.937 183.922C183.941 181.953 187.771 179.827 192.197 177.671C194.272 176.66 196.159 175.554 196.39 175.213C196.62 174.872 198.506 174.014 200.581 173.307C202.657 172.6 205.465 171.439 206.823 170.729C208.183 170.017 211.106 168.971 213.322 168.403C215.538 167.835 217.35 167.087 217.35 166.743C217.35 166.397 218.011 166.1 218.817 166.083C219.624 166.065 223.491 165.343 227.412 164.479L234.539 162.906L234.787 168.779C234.928 172.102 234.655 175.033 234.159 175.529C233.547 176.141 233.281 175.72 233.281 174.143C233.281 172.898 232.86 171.88 232.345 171.88C231.816 171.88 231.571 172.731 231.782 173.836C232.133 175.669 231.626 175.936 223.705 178.083C219.057 179.342 214.688 180.597 213.997 180.871C213.305 181.144 212.455 181.308 212.11 181.236C211.764 181.163 211.482 181.438 211.482 181.847C211.482 182.257 210.255 182.832 208.756 183.126C207.257 183.419 201.316 186.008 195.55 188.879L185.07 194.099L184.835 204.789C184.684 211.715 184.905 215.479 185.464 215.479C185.939 215.479 186.328 215.079 186.328 214.591C186.328 214.102 186.705 213.936 187.166 214.221C187.627 214.506 188.004 214.4 188.004 213.986C188.004 213.571 189.514 212.734 191.359 212.125C193.204 211.516 194.712 210.701 194.712 210.314C194.712 209.926 194.995 209.669 195.341 209.74C195.969 209.871 202.491 207.137 206.451 205.082C207.603 204.484 210.433 203.502 212.739 202.899C215.045 202.297 217.308 201.536 217.77 201.211C218.231 200.884 219.74 200.359 221.123 200.044C222.506 199.728 224.315 199.268 225.142 199.021C226.512 198.614 226.624 199.158 226.401 205.139C226.223 209.845 225.857 211.646 225.106 211.497C224.53 211.38 224.057 211.664 224.057 212.125C224.057 212.586 223.636 212.963 223.122 212.963C222.599 212.963 222.379 212.224 222.624 211.288C222.864 210.366 222.72 209.4 222.302 209.142C221.885 208.883 221.542 209.623 221.542 210.786C221.542 212.572 220.991 213.038 217.979 213.797C216.019 214.291 212.866 215.437 210.97 216.345C209.075 217.252 207.115 217.994 206.614 217.994C206.114 217.994 203.074 219.315 199.857 220.928C196.64 222.543 193.774 223.864 193.487 223.864C193.2 223.864 192.509 224.26 191.952 224.746C191.395 225.232 189.619 226.27 188.004 227.052C186.012 228.018 184.98 229.148 184.79 230.571C184.415 233.367 182.974 234.832 182.974 232.415C182.974 230.403 181.381 229.984 179.788 231.577C178.795 232.57 178.251 253.209 179.218 253.209C179.457 253.209 181.249 252.191 183.2 250.947C187.325 248.316 201.034 241.47 202.178 241.47C202.606 241.47 203.083 241.188 203.236 240.842C203.47 240.315 212.523 236.826 215.254 236.21C217.638 235.672 216.653 248.168 214.243 249.029C212.955 249.49 210.957 250.364 209.804 250.972C208.651 251.581 206.105 252.582 204.145 253.197C202.184 253.812 200.581 254.633 200.581 255.02C200.581 255.408 199.921 255.747 199.114 255.774C198.307 255.801 196.107 256.649 194.226 257.661C192.345 258.671 189.326 260.252 187.518 261.174C185.711 262.096 184.103 263.143 183.945 263.5C183.788 263.857 182.373 264.688 180.801 265.344C178.091 266.476 177.937 266.769 177.802 270.983C177.688 274.601 177.6 274.843 177.332 272.284C176.879 267.944 175.093 268.259 168.091 273.917L164.528 276.797L164.537 270.243L164.546 263.689L170.411 259.498L176.276 255.305L176.061 245.036C175.836 234.215 175.805 234.109 173.362 235.895C172.01 236.883 171.874 237.836 172.294 243.396C172.667 248.32 172.507 249.987 171.587 250.749C170.577 251.588 170.397 250.77 170.397 245.347C170.397 238.585 169.157 236.936 166.849 240.632C165.03 243.546 164.528 242.494 164.552 235.811C164.574 229.379 164.604 229.292 167.463 227.217C170.257 225.189 170.352 224.937 170.375 219.462C170.387 216.349 170.734 213.801 171.146 213.801C172.404 213.801 172.938 216.283 172.403 219.632C171.9 222.773 173.124 225.031 174.038 222.65C175.013 220.109 174.767 201.637 173.763 201.874C172.372 202.204 167.586 205.643 166.792 206.885C165.267 209.27 164.528 207.58 164.528 201.7V195.468L168.091 192.607C170.052 191.034 172.236 189.542 172.944 189.291C174.219 188.843 176.905 167.208 175.82 166.124C175.089 165.393 172.547 168.431 171.509 171.278C170.701 173.493 170.514 173.638 170.461 172.089C170.383 169.755 169.157 169.675 167.268 171.88C164.948 174.588 164.528 173.904 164.528 167.414C164.528 161.478 167.035 156.22 168.951 158.136C170 159.186 170.459 154.496 170.221 145.181L169.978 135.67L167.75 137.426C164.568 139.931 164.528 139.873 164.528 132.485V125.789L167.672 123.723C169.648 122.425 173.464 121.191 177.943 120.403C181.863 119.712 186.957 118.802 189.263 118.379C195.147 117.301 199.743 117.231 199.743 118.219ZM179.806 197.662C178.907 199.516 179.255 218.034 180.187 217.888C182.8 217.481 182.974 216.775 182.974 206.585C182.974 196.137 181.947 193.246 179.806 197.662ZM231.594 201.105C231.579 206.352 230.616 210.448 229.398 210.448C228.223 210.448 227.632 198.768 228.752 197.65C230.036 196.365 231.603 198.269 231.594 201.105ZM234.958 203.321C234.958 206.955 234.604 209.61 234.119 209.61C233.635 209.61 233.281 206.955 233.281 203.321C233.281 199.688 233.635 197.033 234.119 197.033C234.604 197.033 234.958 199.688 234.958 203.321ZM234.958 237.279C234.958 241.191 234.609 243.985 234.119 243.985C233.191 243.985 232.931 232.038 233.839 231.129C234.875 230.094 234.958 230.551 234.958 237.279ZM230.765 238.117C230.765 243.52 230.521 244.825 229.508 244.825C228.197 244.825 227.631 235.677 228.759 232.736C229.944 229.649 230.765 231.855 230.765 238.117ZM225.735 239.375C225.735 244.406 225.483 245.663 224.477 245.663C223.166 245.663 222.539 234.885 223.778 233.645C225.25 232.173 225.735 233.591 225.735 239.375ZM220.948 240.842C220.497 246.353 220.052 247.589 218.582 247.404C216.785 247.178 217.725 234.763 219.539 234.763C221.392 234.763 221.431 234.933 220.948 240.842ZM234.731 273.103C234.55 274.843 234.399 273.625 234.394 270.397C234.391 267.169 234.539 265.745 234.724 267.234C234.909 268.722 234.913 271.364 234.731 273.103ZM230.765 272.025C230.765 275.456 230.388 278.496 229.927 278.781C229.395 279.111 229.088 276.833 229.088 272.542C229.088 268.597 229.438 265.785 229.927 265.785C230.41 265.785 230.765 268.424 230.765 272.025ZM225.722 273.591C225.704 282.446 224.324 283.431 223.878 274.906C223.494 267.546 223.668 266.283 224.954 267.079C225.384 267.344 225.73 270.275 225.722 273.591ZM220.53 275.57C220.215 283.848 218.664 284.562 218.441 276.533C218.268 270.361 218.518 269.139 219.951 269.139C220.44 269.139 220.675 271.749 220.53 275.57ZM215.108 276.646C215.286 283.935 216.243 283.538 199.324 283.214C187.324 282.985 186.863 282.913 189.263 281.661C190.646 280.938 192.532 279.94 193.454 279.443C197.678 277.164 206.344 273.363 209.385 272.454C211.23 271.903 213.092 271.127 213.521 270.729C214.763 269.582 214.952 270.291 215.108 276.646ZM160.498 285.046C161.993 285.954 164.832 286.941 166.807 287.237C168.782 287.534 170.397 288.057 170.397 288.399C170.397 289.128 181.791 290.643 192.616 291.355C200.19 291.852 222.66 290.546 224.335 289.51C224.828 289.205 226.004 288.876 226.95 288.779C229.517 288.513 236.861 286.294 239.051 285.123C240.106 284.558 241.142 284.267 241.352 284.478C241.563 284.688 240.22 285.61 238.37 286.525C236.518 287.441 235.276 288.462 235.609 288.795C235.941 289.127 235.458 289.959 234.537 290.643C232.656 292.04 236.008 291.57 239.57 289.938C241.219 289.182 241.22 289.19 239.618 290.473C238.702 291.208 238.449 291.777 239.039 291.777C239.616 291.777 239.829 292.195 239.514 292.705C239.099 293.378 238.777 293.369 238.347 292.673C237.918 291.979 237.116 291.955 235.463 292.583C232.575 293.681 231.357 293.692 232.023 292.616C232.308 292.155 231.954 291.777 231.234 291.777C229.765 291.777 229.605 292.487 230.688 294.196C231.279 295.129 231.962 295.17 234.165 294.402C235.673 293.876 237.086 293.627 237.306 293.846C237.813 294.353 233.622 295.97 231.801 295.97C230.874 295.97 230.705 296.244 231.281 296.821C232.114 297.653 234.158 296.979 240.198 293.878C241.467 293.227 242.504 293.036 242.504 293.454C242.504 294.786 232.2 299.076 226.27 300.211C209.877 303.352 172.463 302.261 167.463 298.496C167.001 298.149 165.247 297.422 163.561 296.879C158.287 295.181 156.144 292.507 156.144 287.625C156.144 282.917 156.578 282.661 160.498 285.046ZM225.735 293.454C225.735 293.915 226.301 294.292 226.993 294.292C227.684 294.292 228.25 293.915 228.25 293.454C228.25 292.993 227.684 292.616 226.993 292.616C226.301 292.616 225.735 292.993 225.735 293.454ZM226.573 311.309C226.573 313.022 218.307 320.886 214.943 322.373C213.27 323.113 211.225 324.091 210.399 324.546C209.573 325 208.562 325.164 208.151 324.911C207.741 324.657 207.168 324.833 206.879 325.302C206.162 326.46 192.197 326.426 192.197 325.266C192.197 324.778 191.803 324.621 191.321 324.919C190.84 325.216 189.914 325.017 189.263 324.477C188.611 323.936 187.684 323.737 187.203 324.034C186.722 324.333 186.328 324.259 186.328 323.872C186.328 323.484 185.127 322.714 183.658 322.16C182.19 321.605 181.188 320.953 181.431 320.709C181.675 320.465 183.537 320.881 185.568 321.632C187.6 322.384 189.829 323.09 190.52 323.202C191.212 323.313 192.469 323.699 193.313 324.057C195.275 324.89 207.07 324.021 208.387 322.947C208.936 322.5 211.027 321.647 213.036 321.05C215.044 320.454 216.876 319.472 217.108 318.868C217.34 318.263 218.006 317.77 218.589 317.77C219.171 317.77 221.112 316.106 222.9 314.075C226.647 309.821 226.573 309.877 226.573 311.309Z" fill="#0000FF"/>
</svg>
