<svg width="400" height="400" viewBox="0 0 400 400" fill="none" xmlns="http://www.w3.org/2000/svg">
<path fill-rule="evenodd" clip-rule="evenodd" d="M293.349 95.9849C284.388 98.6415 279.737 101.703 276.029 107.386C271.913 113.694 271.748 114.004 270.065 118.511C269.143 120.986 268.025 122.049 245.94 141.472C237.368 149.01 219.632 163.321 208.115 171.992C200.74 177.544 199.643 178.603 199.643 180.179C199.643 180.972 199.972 181.622 200.374 181.622C202.001 181.622 220.359 167.96 227.228 161.637C228.343 160.611 234.185 155.665 240.209 150.648C246.233 145.631 255.358 137.786 260.488 133.215C269.208 125.443 272.563 123.702 270.169 128.191C268.382 131.541 263.472 136.994 258.87 140.743C251.922 146.399 249.35 148.551 246.079 151.443C237.65 158.894 229.799 165.395 229.231 165.395C227.647 165.395 219.822 172.106 220.554 172.837C221.829 174.114 226.286 171.755 233.231 166.127C236.755 163.27 241.379 159.77 243.506 158.348C245.633 156.926 247.677 155.269 248.05 154.666C248.423 154.062 252.423 150.409 256.94 146.546C265.336 139.366 267.723 136.711 272.821 128.886C274.421 126.432 276.499 123.728 277.44 122.879C280.201 120.386 279.698 118.827 276.642 120.407C275.263 121.121 273.997 121.568 273.829 121.401C273.261 120.832 275.376 114.696 276.704 113.066C277.429 112.174 278.916 110.065 280.007 108.38C282.386 104.707 286.448 102.114 289.82 102.114C291.175 102.114 293.21 101.383 294.345 100.49C298.862 96.9371 306.049 99.7555 303.964 104.262C303.481 105.306 301.895 106.729 300.44 107.425C298.985 108.12 297.184 109.673 296.438 110.877C293.87 115.025 291.051 117.528 288.939 117.539C285.606 117.557 283.208 118.44 283.208 119.651C283.208 120.479 284.46 120.773 287.99 120.773C293.104 120.773 293.847 120.308 299.63 113.477C301.558 111.197 302.202 110.92 304.497 111.372C305.952 111.659 308.996 112.106 311.262 112.365C318.221 113.164 318.495 115.04 312.532 121.082C308.624 125.043 307.791 126.322 308.412 127.412C309.643 129.571 307.481 130.316 306.085 128.214C304.272 125.483 299.897 125.818 297.151 128.899C291.897 134.796 289.517 136.984 288.822 136.553C288.412 136.299 288.076 136.405 288.076 136.789C288.076 137.172 286.883 137.916 285.424 138.444C283.966 138.971 280.224 141.71 277.108 144.53C271.957 149.194 264.335 154.848 263.199 154.848C262.836 154.848 256.924 159.02 251.973 162.77C243.05 169.528 238.547 172.697 237.864 172.697C237.4 172.697 236.613 173.458 236.115 174.389C235.617 175.32 235.015 175.886 234.777 175.649C234.539 175.411 232.47 176.577 230.177 178.241C227.886 179.905 225.098 181.857 223.983 182.576C222.867 183.296 221.224 184.568 220.332 185.402C217.795 187.771 211.573 192.168 210.756 192.168C210.35 192.168 209.301 193.081 208.423 194.197C207.545 195.312 206.334 196.225 205.732 196.225C202.097 196.225 199.643 200.277 199.643 206.282V212.138L203.318 214.729C205.339 216.154 207.148 217.319 207.338 217.319C207.528 217.319 210.124 219.145 213.109 221.375C216.093 223.606 218.823 225.432 219.173 225.432C219.524 225.432 220.342 225.963 220.991 226.613C221.64 227.262 223.255 228.449 224.578 229.25C225.902 230.05 230.781 233.348 235.422 236.579C261.698 254.867 270.261 262.238 276.718 272.121C282.388 280.8 283.045 282.145 283.603 286.202C284.324 291.444 288.349 298.941 291.247 300.439C292.468 301.071 293.943 302.16 294.522 302.858C296.21 304.893 308.302 304.652 310.571 302.539C312.63 300.621 314.467 300.149 321.269 299.794C328.374 299.422 330.657 297.034 329.836 290.83C329.534 288.55 328.96 286.339 328.559 285.915C326.977 284.242 330.396 277.758 332.009 279.371C332.235 279.597 333.941 278.476 335.803 276.882C339.379 273.822 340.653 267.786 338.234 265.368C337.503 264.636 337.597 264.063 338.64 262.91C339.653 261.79 340 259.883 340 255.42V249.431L336.248 245.987C333.907 243.838 332.669 242.094 332.954 241.351C333.867 238.973 327.769 234.688 325.995 236.462C324.843 237.614 314.967 237.053 312.931 235.72C311.71 234.92 309.237 234.356 306.946 234.356C304.705 234.356 302.263 233.812 301.216 233.078C300.214 232.376 297.383 231.594 294.928 231.34C292.471 231.086 290.27 230.566 290.032 230.184C289.796 229.802 288.785 229.489 287.785 229.489C286.785 229.489 285.62 229.168 285.196 228.775C284.772 228.383 282.964 227.606 281.18 227.05C279.395 226.494 277.387 225.598 276.718 225.061C276.049 224.524 273.675 223.424 271.444 222.616C269.214 221.808 266.881 220.746 266.26 220.257C265.64 219.767 263.268 218.437 260.987 217.303C252.921 213.291 225.588 195.865 225.623 194.758C225.632 194.45 227.002 193.183 228.666 191.942C230.329 190.702 233.151 188.581 234.935 187.228C236.721 185.875 239.046 184.151 240.104 183.397C241.161 182.644 244.519 180.13 247.564 177.812C250.609 175.493 254.217 173.019 255.579 172.314C256.942 171.61 258.057 170.72 258.057 170.337C258.057 169.955 258.697 169.427 259.477 169.164C260.926 168.678 263.816 166.97 264.548 166.168C265.492 165.133 277.967 158.093 278.856 158.093C279.391 158.093 279.949 157.78 280.098 157.399C280.685 155.891 286.246 155.569 287.64 156.961C288.726 158.048 290.033 158.223 294.413 157.871C298.127 157.571 300.703 157.793 302.576 158.575C304.349 159.314 308.372 159.716 314.011 159.716H322.711L327.596 156.558C330.283 154.822 333.532 151.993 334.817 150.271C336.1 148.549 337.404 146.951 337.714 146.719C339.174 145.621 340 141.1 340 134.189C340 123.133 333.86 114.662 323.774 111.799C321.766 111.228 319.369 110.093 318.448 109.277C317.416 108.361 315.521 107.792 313.507 107.792C309.988 107.792 308.359 105.874 308.359 101.731C308.359 95.9412 301.874 93.4584 293.349 95.9849ZM232.907 204.704C243.199 211.632 253.779 218.13 254.767 218.13C255.163 218.13 255.611 218.444 255.759 218.827C256.131 219.787 270.866 227.381 276.3 229.415C278.741 230.328 281.386 231.43 282.176 231.864C283.461 232.569 292.237 234.977 295.378 235.487C296.047 235.595 297.623 236.115 298.879 236.643C300.135 237.17 302.771 237.602 304.736 237.602C306.795 237.602 309.524 238.283 311.173 239.21C312.749 240.096 314.038 240.57 314.038 240.265C314.038 239.96 314.476 240.149 315.012 240.685C316.174 241.847 323.118 241.989 324.234 240.873C327.748 237.359 330.154 244.557 326.964 249.037C324.915 251.915 326.455 252.304 329.721 249.735C332.019 247.926 335.943 249.283 335.943 251.886C335.943 254.041 331.021 257.901 328.94 257.379C325.76 256.582 326.488 259.664 329.915 261.509C333.04 263.192 335.163 265.987 333.335 266.012C332.762 266.02 331.433 266.931 330.382 268.04C329.331 269.147 327.623 270.054 326.587 270.054C323.635 270.054 319.602 275.429 319.892 278.979C320.175 282.462 322.173 282.814 323.05 279.535C323.905 276.338 325.224 274.978 328.885 273.513C330.673 272.798 332.745 271.145 333.628 269.729L335.196 267.215L334.961 270.4C334.75 273.266 334.361 273.775 331.076 275.479C325.325 278.462 323.497 281.004 324.075 285.213C324.587 288.955 324.244 289.388 322.215 287.561C321.511 286.927 319.109 285.466 316.878 284.315C309.722 280.623 306.104 276.965 307.778 275.116C308.543 274.269 309.171 273.213 309.171 272.768C309.171 272.323 310.083 271.102 311.198 270.054C313.406 267.98 313.913 265.187 312.082 265.187C310.681 265.187 291.022 252.235 291.577 251.678C291.975 251.281 294.717 252.623 297.001 254.334C297.67 254.835 299.678 255.704 301.463 256.265C303.247 256.825 305.159 257.643 305.712 258.081C306.264 258.519 307.256 258.67 307.917 258.416C308.578 258.163 309.334 258.305 309.598 258.731C310.303 259.873 314.31 259.674 316.035 258.413C318.191 256.837 316.876 255.45 313.226 255.45C311.495 255.45 309.89 255.147 309.66 254.777C309.432 254.406 307.128 253.63 304.542 253.054C301.956 252.477 298.927 251.624 297.812 251.158C296.697 250.693 295.601 250.25 295.378 250.172C295.155 250.093 293.615 249.424 291.956 248.684C290.297 247.943 288.088 247.337 287.048 247.337C286.007 247.337 284.788 246.97 284.339 246.521C283.695 245.877 276.353 243.105 270.633 241.345C265.135 239.655 249.608 231.41 241.614 225.936C225.151 214.665 221.076 211.786 213.841 206.313C212.259 205.116 212.3 205.016 215.464 202.25C221.598 196.891 221.221 196.838 232.907 204.704ZM297.001 239.206C297.001 240.423 300.32 242.23 303.612 242.806C305.24 243.09 307.02 243.862 307.566 244.519C308.111 245.177 309.066 245.715 309.687 245.715C310.852 245.715 311.201 245.859 317.211 248.825C320.95 250.671 322.231 250.546 320.905 248.467C319.542 246.329 307.704 240.64 301.778 239.274C297.3 238.241 297.001 238.237 297.001 239.206ZM319.884 254.796C318.409 256.271 318.685 258.698 320.326 258.677C322.195 258.653 325.954 255.738 325.15 254.934C324.072 253.856 320.909 253.773 319.884 254.796ZM297.592 261.738C299.853 264.663 303.491 270.572 303.491 271.317C303.491 272.827 301.447 270.716 297.555 265.187C292.951 258.646 292.983 255.773 297.592 261.738Z" fill="#FF0000"/>
<path fill-rule="evenodd" clip-rule="evenodd" d="M96.9228 95.565C95.0424 96.3696 93.8333 98.5255 94.088 100.621C94.1776 101.362 93.8683 102.205 93.4014 102.495C92.9335 102.784 92.5509 103.672 92.5509 104.469C92.5509 106.822 89.8681 108.603 86.3249 108.603C84.0969 108.603 82.6024 109.117 81.5978 110.226C80.7909 111.118 79.4375 111.849 78.5924 111.849C67.7333 111.849 55.2671 134.585 61.8145 142.45C62.477 143.244 63.7309 145.304 64.6012 147.026C69.5885 156.892 88.0522 163.595 96.8637 158.739C97.8378 158.202 99.001 157.724 99.4471 157.678C99.8931 157.633 100.922 157.294 101.733 156.925C102.629 156.517 103.567 156.616 104.126 157.174C105.533 158.581 111.64 158.315 112.905 156.79C114.048 155.412 120.614 155.563 121.655 156.991C121.935 157.375 124.674 158.938 127.741 160.465C132.773 162.972 145.782 171.29 150.965 175.317C152.081 176.184 158.105 180.695 164.352 185.345C170.598 189.993 175.71 194.216 175.71 194.727C175.71 197.864 128.072 225.735 118.513 228.192C118.29 228.249 117.742 228.517 117.295 228.787C116.849 229.057 114.477 229.732 112.023 230.286C109.568 230.84 106.647 231.666 105.532 232.12C103.178 233.08 101.19 233.476 94.8401 234.25C92.1475 234.578 89.539 235.439 88.5606 236.324C86.7283 237.982 79.7392 239.013 77.3735 237.975C76.5732 237.624 75.6757 237.304 75.3783 237.266C75.081 237.227 74.5748 236.933 74.2523 236.611C73.135 235.494 69.3021 239.151 68.3728 242.221C67.8022 244.105 66.4815 245.941 64.9849 246.932C60.3824 249.977 58.9152 257.241 62.1173 261.129C62.7438 261.89 63.0859 264.726 63.0291 268.694L62.9384 275.041L65.7775 276.771C67.3397 277.725 68.7402 278.795 68.8899 279.151C69.0386 279.508 69.442 279.626 69.7853 279.414C70.1286 279.202 71.2262 279.897 72.2243 280.96C74.0325 282.884 73.4138 291.155 71.3672 292.42C70.86 292.734 71.541 294.503 73.6499 298.344C73.7406 298.508 77.0051 298.967 80.9035 299.362C86.4867 299.928 88.4021 300.465 89.9173 301.889C93.0669 304.848 102.846 305.023 106.564 302.186C108.089 301.024 109.753 300.073 110.264 300.073C111.826 300.073 115.24 293.825 116.591 288.493C121.631 268.602 131.994 258.662 184.634 223.219L197.616 214.479L197.853 208.192C198.068 202.468 197.271 200.081 196.134 203.045C195.894 203.672 194.622 204.421 193.308 204.71C191.994 204.998 188.339 207.405 185.186 210.06C182.034 212.713 179.235 214.884 178.967 214.884C178.698 214.884 177.494 215.797 176.292 216.913C175.088 218.028 173.786 218.941 173.397 218.941C173.008 218.941 170.975 220.377 168.879 222.132C166.783 223.887 164.077 225.572 162.866 225.876C161.655 226.18 160.215 227.047 159.668 227.802C158.285 229.711 140.593 240.035 138.706 240.035C137.858 240.035 135.272 240.948 132.96 242.063C130.648 243.18 128.26 244.092 127.654 244.092C127.048 244.092 125.618 245.026 124.476 246.168C122.5 248.144 122.323 248.177 120.861 246.854C119.422 245.551 119.229 245.55 117.819 246.825C116.991 247.574 115.744 247.969 115.049 247.702C114.352 247.436 111.47 248.185 108.643 249.369C102.152 252.088 93.9677 254.703 93.4791 254.215C93.2735 254.009 92.5859 254.274 91.9507 254.801C91.3145 255.328 89.3346 255.673 87.5493 255.568C84.8075 255.406 84.3505 255.602 84.5998 256.833C84.9857 258.742 92.5498 258.71 97.3732 256.781C101.465 255.143 102.286 255.12 102.286 256.643C102.286 257.885 94.8839 263.002 90.3196 264.914C87.323 266.17 87.029 267.259 89.175 269.147C89.996 269.869 91.1876 271.555 91.8228 272.894C92.458 274.232 93.4299 275.373 93.982 275.429C94.5329 275.485 95.5628 275.575 96.269 275.631C99.9182 275.92 89.3947 284.657 85.4 284.657C83.9143 284.657 82.1597 285.197 81.5004 285.856C80.1612 287.195 77.1362 285.974 77.1362 284.095C77.1362 281.842 75.0853 278.911 72.1522 276.969C67.9509 274.189 68.07 272.943 72.4714 273.628C76.2092 274.21 77.9474 275.814 77.9474 278.68C77.9474 280.796 79.3511 281.956 80.5089 280.798C83.1425 278.164 78.9401 271.413 73.8062 270.031C72.1598 269.588 70.6041 268.682 70.3483 268.017C70.0936 267.352 69.1436 266.809 68.2373 266.809C65.4747 266.809 66.0617 265.819 72.0658 260.356C74.4185 258.215 74.5059 256.686 72.2036 257.919C69.3819 259.428 63.2576 252.919 65.3369 250.621C67.4786 248.255 69.7131 247.788 71.435 249.345C73.393 251.118 74.5584 249.42 72.7534 247.425C71.3836 245.913 71.0819 243.475 72.0778 241.981C72.8518 240.823 77.0455 240.044 77.6085 240.956C78.5061 242.408 84.8851 241.642 88.6666 239.63C92.9128 237.37 98.5965 236.893 99.3038 238.739C99.7029 239.778 97.2726 241.191 95.5486 240.92C95.19 240.863 94.1044 241.371 93.1369 242.049C92.1705 242.726 90.8159 243.281 90.1272 243.281C88.6459 243.281 83.0168 246.166 80.9702 247.974C78.6646 250.012 80.6641 251.056 83.3611 249.223C85.3727 247.855 89.7697 245.596 90.9285 245.333C91.1516 245.282 92.5028 244.617 93.9306 243.855C95.3583 243.093 97.2059 242.469 98.0346 242.469C100.564 242.469 102.882 240.337 101.678 239.116C99.9827 237.397 100.944 236.412 105.126 235.585C110.992 234.425 119.271 231.855 119.776 231.036C120.026 230.631 120.911 230.3 121.74 230.3C122.57 230.3 124.465 229.69 125.952 228.946C127.438 228.201 129.202 227.317 129.871 226.98C135.017 224.39 144.607 219.169 147.095 217.602C148.76 216.554 150.664 215.697 151.327 215.697C151.989 215.697 153.731 214.662 155.197 213.399C156.662 212.136 158.409 210.859 159.078 210.562C160.579 209.896 168.05 205.03 174.241 200.686C176.785 198.902 182.697 194.779 187.378 191.523C196.446 185.219 198.779 182.867 197.366 181.453C196.529 180.616 193.261 182.458 189.552 185.859C187.129 188.08 183.157 186.888 181.675 183.492C181.518 183.132 180.054 182.108 178.42 181.216C175.448 179.591 158.973 168.708 146.192 159.927C139.305 155.196 133.418 150.616 124.274 142.881C121.505 140.539 118.92 138.622 118.528 138.622C118.137 138.622 117.335 138.147 116.745 137.565C116.156 136.985 114.056 135.865 112.078 135.079C109.983 134.246 107.129 132.111 105.234 129.957L101.983 126.264L97.6727 126.771C94.2706 127.171 93.3621 127.037 93.3621 126.137C93.3621 125.17 91.3844 123.206 86.2637 119.09C82.8998 116.387 85.2634 113.574 92.4121 111.771C99.0065 110.107 100.818 110.501 102.706 114.008C105.816 119.783 117.702 124.256 117.702 119.651C117.702 118.374 115.27 117.555 111.436 117.539C109.192 117.529 108.414 116.925 105.968 113.293C104.39 110.949 101.942 108.503 100.485 107.816C98.3997 106.832 97.7482 105.938 97.3568 103.526C96.5041 98.2795 100.851 96.7118 107.136 99.9981C109.361 101.161 112.009 102.116 113.022 102.118C116.503 102.129 125.815 111.655 125.815 115.207C125.815 119.575 146.555 139.473 172.036 159.55C176.735 163.252 183.133 168.378 186.257 170.943C193.727 177.076 196.385 178.715 197.33 177.769C198.133 176.966 194.352 172.752 190.719 170.4C188.52 168.976 165.989 151.158 163.873 149.169C163.161 148.5 160.973 146.674 159.012 145.113C157.052 143.551 153.427 140.447 150.957 138.217C148.488 135.985 144.299 132.334 141.65 130.103C135.888 125.252 131.886 121.069 130.821 118.791C130.392 117.873 129.028 114.951 127.79 112.298C124.253 104.715 115.804 97.5306 110.829 97.8728C109.949 97.9329 108.67 97.476 107.985 96.8572C106.416 95.4371 99.1934 94.5942 96.9228 95.565ZM121.758 120.74C121.758 121.169 123.224 123.015 125.017 124.843C126.809 126.672 129.937 130.692 131.971 133.777C135.51 139.149 137.422 141.128 142.53 144.707C143.805 145.599 145.768 147.26 146.893 148.397C148.016 149.535 150.215 151.413 151.776 152.572C153.338 153.73 156.877 156.907 159.642 159.631C162.406 162.355 165.027 164.583 165.466 164.583C165.905 164.583 166.747 165.058 167.336 165.636C169.169 167.437 177.234 172.484 179.26 173.097C182.225 173.996 180.83 172.46 173.836 167.124C170.405 164.506 163.895 159.12 159.369 155.157C154.843 151.194 148.236 145.531 144.687 142.573C141.139 139.614 135.012 133.317 131.073 128.578C124.667 120.87 121.758 118.424 121.758 120.74ZM77.6774 254.369C76.5175 255.528 77.2303 256.902 79.1839 257.275C81.6043 257.738 82.539 256.668 81.1626 255.009C80.123 253.757 78.5739 253.471 77.6774 254.369Z" fill="#0000FF"/>
</svg>
