<svg width="400" height="400" viewBox="0 0 400 400" fill="none" xmlns="http://www.w3.org/2000/svg">
<path fill-rule="evenodd" clip-rule="evenodd" d="M104.235 70.3675C103.98 70.7784 104.131 71.3368 104.567 71.6078C105.698 72.3061 106.427 71.3487 105.484 70.4054C104.956 69.8774 104.545 69.8655 104.235 70.3675ZM91.8476 74.7943C91.5928 75.769 91.9983 76.4444 93.1541 76.9714C94.5635 77.6132 96.6441 75.3874 95.497 74.4647C94.1851 73.4076 92.1631 73.5908 91.8476 74.7943ZM81.3471 76.4108C81.0804 76.8423 81.0381 77.3714 81.2539 77.5872C81.7808 78.1141 83.2141 77.186 83.2141 76.3187C83.2141 75.3798 81.9456 75.4426 81.3471 76.4108ZM103.323 81.2334C102.412 81.6063 102.853 84.448 103.822 84.448C105.795 84.448 106.678 83.508 105.962 82.169C105.203 80.7509 104.825 80.6175 103.323 81.2334ZM118.995 85.272C118.259 85.7003 116.926 85.8683 116.036 85.6439C114.551 85.272 114.419 85.5029 114.436 88.4433C114.452 91.3251 114.591 91.5756 115.81 90.925C116.554 90.5282 117.886 90.384 118.768 90.6063C120.239 90.9749 120.371 90.7364 120.353 87.731C120.343 85.928 120.335 84.4621 120.335 84.473C120.335 84.4838 119.732 84.8438 118.995 85.272ZM89.3474 86.431C89.0916 87.1596 88.1852 88.3273 87.3341 89.0255C86.1035 90.036 86.0265 90.2995 86.96 90.3125C87.604 90.3211 88.7305 90.9901 89.4624 91.7989C91.029 93.5293 92.0352 93.6898 92.0352 92.2077C92.0352 91.6243 92.6759 90.6984 93.4587 90.1498C94.8248 89.1936 94.7793 89.0689 92.3474 87.1293C90.037 85.285 89.7724 85.2243 89.3474 86.431ZM149.178 93.5998C144.934 95.0895 138.96 102.395 136.721 108.831C136.252 110.176 135.423 111.725 134.877 112.273C134.331 112.82 133.189 114.64 132.34 116.316C128.998 122.907 124.696 125.16 121.421 122.031C120.217 120.88 119.232 119.669 119.232 119.341C119.232 119.012 118.724 118.182 118.103 117.497C116.641 115.881 111.881 107.98 111.881 107.167C111.881 106.825 111.22 105.367 110.411 103.927C109.602 102.487 108.941 100.11 108.941 98.6456C108.941 96.0739 108.892 96.0251 107.545 97.2449C106.583 98.1155 105.989 98.2542 105.641 97.6915C105.274 97.0985 104.868 97.0941 104.168 97.6753C103.636 98.1165 102.343 98.2618 101.293 97.9984C99.7915 97.6211 99.3861 97.7891 99.3861 98.7877C99.3861 99.7157 98.9307 99.9684 97.6904 99.7309C95.4645 99.3059 94.9679 103.929 97.1775 104.507C98.3398 104.81 104.531 116.351 104.531 118.213C104.531 118.577 104.793 118.983 105.114 119.118C105.434 119.253 106.501 120.686 107.484 122.303C119.892 142.709 134.492 138.381 148.916 110.023C153.234 101.533 158.202 103.471 163.26 115.619C166.286 122.888 166.176 123.056 154.871 128.527C149.823 130.971 145.693 133.079 145.693 133.211C145.693 133.344 146.927 135.906 148.433 138.904C149.94 141.902 151.293 144.61 151.441 144.922C151.587 145.234 149.26 148.045 146.269 151.17C120.004 178.607 109.855 208.644 115.143 243.284C117.128 256.287 125.336 277.938 130.324 283.326C131.096 284.161 131.728 285.089 131.728 285.387C131.728 288.02 148.819 305.378 157.087 311.143C170.504 320.498 180.845 324.822 199.694 328.958C208.381 330.864 232.208 330.026 241.415 327.49C262.482 321.689 279.926 311.57 291.574 298.395C292.802 297.005 294.469 295.183 295.277 294.346C310.337 278.761 320.222 251.72 320.145 226.313C320.044 192.969 306.204 165.495 278.297 143.242C260.156 128.776 224.756 119.881 202.287 124.142C197.489 125.051 197.202 124.84 193.667 117.788C190.519 111.504 190.494 111.498 183.285 114.953C176.024 118.432 176.119 118.462 173.587 112.013C170.293 103.625 163.106 94.0042 160.134 94.0042C159.517 94.0042 158.833 93.7147 158.615 93.3623C158.003 92.3735 152.261 92.5177 149.178 93.5998ZM83.5361 98.4884C83.2456 98.9579 82.1158 99.1129 80.843 98.8581C78.9489 98.4798 78.7288 98.5947 79.2329 99.7027C79.5538 100.409 79.7783 102.061 79.7306 103.374C79.6514 105.55 79.775 105.69 81.1303 104.964C81.9478 104.527 83.4548 104.38 84.4783 104.637C86.0721 105.037 86.2564 104.913 85.7576 103.78C85.4367 103.053 85.2296 101.382 85.2969 100.068C85.4172 97.7154 84.5141 96.9055 83.5361 98.4884ZM267.053 141.943C310.3 162.243 327.279 213.901 306.844 263.007C300.991 277.069 294.594 284.027 289.85 281.488C285.161 278.978 286.852 271.118 296.427 250.937C314.171 213.538 300.611 167.852 264.739 144.179C254.16 137.197 254.375 137.377 257.421 138.056C258.836 138.372 263.171 140.121 267.053 141.943Z" fill="#FF0000"/>
</svg>
