<svg width="400" height="400" viewBox="0 0 400 400" fill="none" xmlns="http://www.w3.org/2000/svg">
<path style="fill:#FFEE00;" d="M122.126,286.271C106.95,301.445,92.471,315.921,78.388,330c80.852,0,162.429,0,244.103,0
	c-14.64-14.621-29.109-29.072-43.786-43.729C226.309,286.271,173.56,286.271,122.126,286.271z M100.806,323.026
	c-2.369,0.02-4.323-1.775-4.464-4.102c-0.148-2.424,1.777-4.503,4.245-4.586c2.506-0.085,4.545,1.784,4.614,4.227
	C105.268,320.981,103.274,323.004,100.806,323.026z M118.699,303.859c-2.363-0.046-4.269-1.911-4.332-4.24
	c-0.066-2.438,1.899-4.429,4.391-4.449c2.486-0.02,4.495,1.939,4.478,4.367C123.22,301.958,121.174,303.907,118.699,303.859z
	 M298.974,312.802c2.396-0.096,4.537,1.929,4.591,4.341c0.054,2.399-2.006,4.51-4.413,4.522c-2.295,0.011-4.317-1.9-4.446-4.204
	C294.573,315.065,296.556,312.899,298.974,312.802z M285.534,300.082c-0.105,2.444-2.19,4.315-4.674,4.194
	c-2.351-0.114-4.204-2.058-4.189-4.395c0.016-2.395,2.145-4.464,4.53-4.401C283.599,295.544,285.636,297.707,285.534,300.082z
	 M278.024,113.764c15.047-14.992,29.56-29.453,43.923-43.764c-81.234,0-162.811,0-244.311,0
	c14.459,14.442,28.851,28.819,43.813,43.764C173.536,113.764,226.285,113.764,278.024,113.764z M299.328,78.87
	c2.351,0.095,4.228,2.025,4.239,4.359c0.011,2.381-2.115,4.492-4.489,4.458c-2.384-0.035-4.452-2.192-4.378-4.567
	C294.777,80.673,296.849,78.771,299.328,78.87z M280.756,96.397c2.44-0.02,4.391,1.975,4.374,4.47
	c-0.017,2.481-2.019,4.462-4.446,4.4c-2.327-0.06-4.193-1.966-4.242-4.332C276.39,98.455,278.328,96.416,280.756,96.397z
	 M100.906,87.23c-2.404,0.096-4.531-1.918-4.585-4.339c-0.053-2.426,1.969-4.506,4.398-4.522c2.401-0.016,4.489,2.079,4.461,4.475
	C105.153,85.13,103.196,87.138,100.906,87.23z M114.372,101.013c-0.108-2.402,1.896-4.543,4.315-4.611
	c2.402-0.067,4.516,1.976,4.543,4.388c0.026,2.402-2.057,4.493-4.459,4.474C116.472,105.247,114.474,103.316,114.372,101.013z
	 M113.668,121.693c-14.93-14.978-29.343-29.438-43.774-43.915c0,81.446,0,163.023,0,244.338
	c14.454-14.447,28.955-28.94,43.774-43.752C113.668,226.255,113.668,173.512,113.668,121.693z M82.58,96.988
	c2.387-0.091,4.537,1.95,4.584,4.352c0.047,2.411-2,4.498-4.42,4.507c-2.422,0.007-4.474-2.064-4.44-4.483
	C78.335,99.065,80.28,97.076,82.58,96.988z M82.82,303.496c-2.381,0.053-4.509-2.028-4.517-4.419
	c-0.008-2.339,1.848-4.274,4.202-4.382c2.488-0.114,4.565,1.76,4.662,4.207C87.262,301.275,85.21,303.442,82.82,303.496z
	 M99.495,285.599c-2.417-0.078-4.411-2.228-4.295-4.63c0.117-2.426,2.29-4.385,4.69-4.229c2.298,0.15,4.201,2.197,4.169,4.483
	C104.023,283.621,101.881,285.676,99.495,285.599z M100.251,123.296c-2.316-0.099-4.173-2.046-4.192-4.397
	c-0.02-2.451,1.993-4.494,4.403-4.47c2.436,0.023,4.358,2.05,4.307,4.541C104.718,121.448,102.68,123.4,100.251,123.296z
	 M286.208,121.525c0,52.297,0,104.979,0,156.178c9.358,9.363,18.418,18.429,27.298,27.314
	c-0.528-0.776-0.823-1.708-0.765-2.678c0.138-2.31,2.157-4.205,4.459-4.187c2.411,0.02,4.46,2.131,4.398,4.534
	c-0.062,2.407-2.217,4.433-4.605,4.329c-0.826-0.036-1.598-0.319-2.255-0.766c5.175,5.178,10.292,10.298,15.368,15.378
	c0-80.858,0-162.37,0-243.978C315.434,92.314,300.918,106.822,286.208,121.525z M299.24,285.937
	c-2.429,0.061-4.518-1.948-4.538-4.367c-0.02-2.337,1.826-4.269,4.185-4.382c2.502-0.12,4.569,1.723,4.68,4.169
	C303.675,283.755,301.67,285.876,299.24,285.937z M299.088,123.358c-2.469-0.024-4.449-2.056-4.382-4.497
	c0.063-2.286,2.05-4.269,4.333-4.325c2.372-0.059,4.516,2.033,4.527,4.417C303.577,121.395,301.555,123.383,299.088,123.358z
	 M316.708,105.262c-2.425,0.106-4.515-1.87-4.572-4.323c-0.057-2.46,1.914-4.513,4.357-4.538c2.386-0.023,4.502,2.083,4.481,4.462
	C320.954,103.14,318.992,105.162,316.708,105.262z M149.608,267.902c-4.67-1.402-7.868-5.603-8.014-10.2c-4.201,0.414-8.227-1.859-9.932-5.81
	c-1.784-4.131-0.407-8.678,3.506-11.585c0.693-0.515,1.308-0.893,1.933-1.188c5.898-2.786,11.44-6.175,16.69-9.807v-58.581
	c-5.854-4.073-11.006-7.123-16.07-9.505c-1.14-0.536-2.269-1.265-3.268-2.108c-3.357-2.829-4.454-7.144-2.791-10.99
	c1.699-3.933,5.834-6.317,9.926-5.782c0.022-0.449,0.072-0.909,0.153-1.38c0.512-2.99,2.306-5.703,4.921-7.441
	c2.166-1.441,4.715-2.06,7.13-1.763v-7.634h-29.725v151.862h29.725v-7.693c-0.369,0.045-0.742,0.074-1.122,0.074
	C151.681,268.37,150.656,268.216,149.608,267.902z M166.44,219.852c0.294-0.232,0.599-0.448,0.829-0.609l1.436-1.043
	c-1.806-2.615-3.264-5.44-4.346-8.407v11.694C165.057,220.941,165.752,220.396,166.44,219.852z
	 M177.258,162.976l1.867,2.557c3.906-2.551,8.329-4.402,13.106-5.379
	c0.616-0.126,1.234-0.233,1.853-0.328v-35.81h-29.725v19.204c2.857,5.195,6.366,10.658,10.938,17.058
	C175.955,161.2,176.625,162.113,177.258,162.976z M191.552,245.503h-12.749l-0.003-8.676c-0.001-0.605-0.001-1.226-0.001-1.839
	c-0.645,0.862-1.293,1.732-1.937,2.61c-5.284,7.206-9.276,13.334-12.503,19.22v19.059h29.725v-30.423h-2.532V245.503z
	 M164.359,178.436v5.801c0.545-1.515,1.182-2.983,1.905-4.398l-1.733-1.276
	C164.474,178.522,164.415,178.478,164.359,178.436z M221.594,164.489c0.632-0.879,1.277-1.768,1.928-2.665c1.459-2.01,2.967-4.089,4.415-6.168
	c2.792-4.009,5.134-7.847,7.102-11.62v-20.019h-29.725v35.818c5.442,0.825,10.691,2.837,15.342,5.958L221.594,164.489z
	 M230.313,218.815l1.135,0.808c1.106,0.788,2.219,1.59,3.339,2.397c0.083,0.06,0.17,0.122,0.253,0.182
	v-12.18C233.911,213.154,232.338,216.088,230.313,218.815z M220.543,236.767l-0.004,8.739l-15.225-0.001v30.372h29.725V255.97
	c-4.093-7.827-9.308-14.975-14.494-21.62C220.545,235.157,220.545,235.971,220.543,236.767z
	 M234.685,178.027l-1.844,1.292c0.855,1.615,1.59,3.29,2.198,5.015v-6.553
	C234.916,177.867,234.795,177.951,234.685,178.027z M275.977,275.878V124.016h-29.725v7.704c2.141-0.286,4.372,0.146,6.36,1.346
	c3.426,2.067,5.22,5.923,4.652,9.717c3.455-0.286,6.659,0.942,9.13,3.54c3.639,3.828,3.615,9.479-0.057,13.146
	c-1.053,1.052-2.765,2.469-4.939,3.241c-5.446,1.936-10.504,4.567-15.146,7.415v59.772c4.988,3.085,9.824,5.469,14.677,7.22
	c1.756,0.633,3.405,1.595,4.765,2.78c2.22,1.931,3.454,4.646,3.385,7.447c-0.069,2.842-1.465,5.538-3.828,7.4
	c-1.717,1.352-4.363,2.703-8,2.495c0.562,3.933-1.307,7.832-4.861,9.841c-1.521,0.859-3.18,1.279-4.829,1.279
	c-0.438,0-0.875-0.04-1.309-0.099v7.619H275.977z M216.786,241.734c-1.843,0-3.455,0-5.21,0c0-4.365,0-8.661,0-13.044
	c-1.399,0.395-2.663,0.685-3.865,1.139c-0.312,0.118-0.603,0.748-0.61,1.147c-0.05,3.109-0.025,6.219-0.031,9.329
	c-0.001,0.452-0.038,0.904-0.061,1.427c-1.688,0-3.293,0-5.106,0c0-3.653,0-7.284,0-10.979c-1.53,0-2.852,0-4.326,0
	c0,3.614,0,7.21,0,10.93c-1.786,0-3.428,0-5.287,0c0-0.756,0-1.57,0-2.384c0-2.738-0.023-5.477,0.014-8.215
	c0.011-0.8-0.123-1.269-1.045-1.435c-1.126-0.203-2.214-0.618-3.461-0.983c0,4.401,0,8.698,0,13.065c-1.77,0-3.414,0-5.221,0
	c0-0.573,0-1.069,0-1.566c0-4.27-0.023-8.54,0.019-12.81c0.009-0.88-0.226-1.408-1.008-1.905
	c-11.672-7.429-17.64-21.114-15.133-34.59c2.532-13.607,12.985-24.251,26.54-27.025c19.5-3.99,38.435,9.842,40.244,29.657
	c1.243,13.622-4.118,24.296-15.428,31.963c-0.738,0.5-1.061,0.97-1.05,1.882c0.052,4.269,0.023,8.54,0.023,12.81
	C216.786,240.646,216.786,241.146,216.786,241.734z M171.082,197.77c0,5.554,4.417,9.996,9.955,10.009
	c5.578,0.014,10.127-4.531,10.079-10.068c-0.048-5.491-4.582-9.983-10.067-9.97C175.552,187.753,171.083,192.251,171.082,197.77z
	 M228.266,197.755c-0.009-5.531-4.472-10.01-9.979-10.015c-5.482-0.005-10.012,4.496-10.051,9.986
	c-0.04,5.536,4.516,10.073,10.093,10.053C223.87,207.759,228.275,203.314,228.266,197.755z M191.416,215.658
	c5.612,0,10.985,0,16.556,0c-2.802-4.508-5.5-8.847-8.282-13.321C196.898,206.834,194.214,211.155,191.416,215.658z
	 M146.786,251.928c-1.332,0.548-2.922,1.421-4.624,1.854c-2.977,0.759-5.899-0.765-7.032-3.39
	c-1.083-2.508-0.213-5.208,2.295-7.07c0.408-0.303,0.839-0.59,1.297-0.807c10.943-5.17,20.627-12.256,30.065-19.719
	c0.323-0.255,0.666-0.485,0.84-0.611c2.842,2.531,5.599,4.987,8.436,7.513c-1.357,1.818-2.807,3.731-4.226,5.667
	c-5.821,7.94-11.243,16.127-15.546,25.013c-1.736,3.585-4.332,4.887-7.589,3.91c-3.397-1.019-5.778-4.421-5.266-7.882
	C145.677,254.766,146.391,253.196,146.786,251.928z
	 M250.907,251.39c0.772,1.699,1.839,3.511,2.427,5.468c0.851,2.829-0.406,5.591-2.786,6.936
	c-2.411,1.363-5.317,0.992-7.414-1.094c-0.807-0.803-1.577-1.758-2.024-2.792c-4.555-10.533-11.19-19.733-18.216-28.69
	c-0.456-0.582-0.907-1.167-1.331-1.713c2.592-2.294,5.145-4.553,7.711-6.824c3.583,2.552,7.232,5.248,10.98,7.8
	c6.072,4.134,12.468,7.664,19.408,10.167c1.279,0.461,2.547,1.187,3.57,2.077c2.927,2.548,2.753,6.648-0.301,9.052
	c-2.435,1.917-5.21,2.069-8.053,1.22C253.434,252.567,252.069,251.868,250.907,251.39z
	 M175.071,166.338c-2.853,3.158-5.547,6.14-8.299,9.185c-2.916-2.146-5.978-4.46-9.103-6.687
	c-5.822-4.15-11.846-7.972-18.334-11.024c-0.871-0.41-1.707-0.957-2.443-1.578c-2.125-1.791-2.76-4.313-1.763-6.62
	c1.019-2.359,3.596-3.967,6.208-3.509c1.6,0.281,3.111,1.081,4.65,1.68c0.355,0.138,0.66,0.407,1.338,0.839
	c-1.451-2.407-2.287-4.557-1.863-7.031c0.677-3.95,4.755-6.862,8.468-6.002c2.024,0.469,3.286,1.819,4.144,3.613
	c3.936,8.231,8.879,15.849,14.169,23.254C173.212,163.812,174.203,165.148,175.071,166.338z
	 M250.935,148.496c1.546-0.516,3.541-1.402,5.63-1.824c2.682-0.541,5.167,0.191,7.112,2.237
	c2.17,2.282,2.239,5.663,0.011,7.888c-0.988,0.987-2.238,1.895-3.539,2.357c-9.856,3.503-18.502,9.1-26.848,15.241
	c-0.365,0.269-0.742,0.521-0.999,0.702c-2.569-2.831-5.076-5.594-7.64-8.419c2.066-2.872,4.262-5.847,6.375-8.88
	c3.793-5.445,7.174-11.125,9.854-17.219c0.562-1.278,1.459-2.499,2.468-3.471c2.059-1.986,5.013-2.22,7.321-0.828
	c2.25,1.357,3.5,4.059,2.695,6.733C252.759,145.055,251.643,146.945,250.935,148.496z"/>
</svg>
