<svg width="400" height="400" viewBox="0 0 400 400" fill="none" xmlns="http://www.w3.org/2000/svg">
<path fill-rule="evenodd" clip-rule="evenodd" d="M199.084 98.5264C192.134 110.19 185.815 124.793 183.536 134.457C181.975 141.081 182.513 141.01 176.215 135.42C163.021 123.706 155.659 118.938 144.561 114.913C142.536 114.178 139.485 112.885 137.782 112.039C133.982 110.151 134.163 110.145 133.52 112.159C133.228 113.07 132.821 114.313 132.615 114.922C130.604 120.842 133.544 139.157 138.083 148.989C140.038 153.223 140.006 154.957 138.005 153.295C137.215 152.641 131.686 152.469 116.804 152.638C95.7393 152.876 96.7609 152.742 92.0004 155.901C91.8624 155.993 92.609 157.33 93.6574 158.874C94.7068 160.418 95.5656 161.925 95.5656 162.223C95.5656 164.8 106.245 179.303 112.814 185.645C119.372 191.977 119.922 194.392 114.936 194.963C108.612 195.686 100.843 197.306 99.6173 198.156C98.8637 198.678 89.2265 202.458 84.4133 204.119C82.9399 204.629 81.0049 205.595 80.1124 206.268L78.4911 207.491L80.4797 209.855C84.454 214.578 91.22 219.208 106.433 227.617C114.435 232.04 114.579 232.517 109.028 236.201C106.708 237.741 104.304 239.422 103.687 239.936C95.7115 246.573 81.3266 257.43 79.1911 258.423C75.5544 260.115 75.6735 260.43 80.6455 262.251C82.9757 263.105 85.3793 264.007 85.9869 264.257C87.8871 265.038 88.3826 265.16 95.9339 266.697C99.9856 267.521 103.965 268.364 104.775 268.569C114.812 271.111 134.667 271.582 149.458 269.63C158.884 268.386 159.111 268.495 157.471 273.466C155.084 280.701 152.811 302.858 154.358 303.814C155.905 304.77 170.775 296.289 179.815 289.296C186.39 284.21 185.672 284.349 199.82 285.408C204.303 285.743 208.241 285.575 211.977 284.889C215.016 284.331 218.064 284.071 218.75 284.312C219.996 284.751 226.713 292.896 226.713 293.969C226.713 294.281 227.563 294.751 228.601 295.011C229.639 295.272 232.414 296.8 234.768 298.406C240.677 302.439 241.681 302.072 236.514 297.768C231.425 293.53 224.856 286.466 223.418 283.685C222.851 282.589 220.957 279.489 219.208 276.798C213.602 268.164 213.103 267.198 210.199 259.34C207.558 252.193 207.407 251.378 208.188 248.463C208.65 246.729 209.03 244.322 209.03 243.111C209.03 239.923 210.602 240.342 213.899 244.411C219.477 251.294 224.214 255.889 229.292 259.34C239.521 266.294 242.719 273.914 244.049 294.512C244.575 302.646 244.291 303.875 242.333 301.918C241.846 301.431 241.448 301.279 241.448 301.579C241.448 302.383 244.585 306.486 245.199 306.486C247.613 306.486 247.07 285.131 244.493 278.681C240.336 268.277 240.95 267.851 256.921 270.041C268.852 271.677 291.545 271.703 300.271 270.091C311.328 268.048 322.495 263.873 322.495 261.781C322.495 258.856 312.31 247.264 305.642 242.597C296.476 236.182 295.929 235.276 300.043 233.314C304.687 231.099 315.253 223.837 326.164 215.359C331.649 211.098 333.853 208.48 331.152 209.432C330.305 209.731 326.336 207.468 325.417 206.163C323.217 203.04 294.813 188.6 290.872 188.6C289.302 188.6 290.131 186.105 293.295 181.302C297.106 175.516 300.574 168.75 301.827 164.654C302.323 163.034 303.194 160.67 303.763 159.401C307.409 151.272 306.945 144.825 302.629 143.664C298.918 142.664 282.976 143.859 277.919 145.516C272.459 147.306 268.73 147.969 268.275 147.233C267.826 146.507 269.393 138.549 270.212 137.393C270.499 136.988 270.952 135.153 271.217 133.317C271.482 131.48 272.368 128.878 273.185 127.533C274.617 125.18 274.627 124.949 273.451 121.407L272.227 117.727L268.811 118.237C262.838 119.128 253.528 123.593 243.659 130.297C233.444 137.235 232.178 138.138 230.286 139.833C227.509 142.32 225.812 141.703 224.555 137.754C217.168 114.538 212.843 104.53 207.518 98.3239C202.543 92.5269 202.66 92.5239 199.084 98.5264ZM224.161 158.871C224.454 162.782 224.526 168.945 224.319 172.568C223.953 178.986 223.976 179.106 225.206 177.232C227.452 173.807 238.998 166.019 251.939 159.199C260.892 154.481 262.161 154.283 259.942 157.952C259.184 159.207 257.471 162.388 256.137 165.023C249.87 177.396 222.612 209.967 218.523 209.967C217.182 209.967 216.924 207.576 218.056 205.648C218.685 204.579 219.579 202.212 220.045 200.388C220.511 198.565 221.1 196.576 221.355 195.967C221.611 195.36 221.905 194.365 222.009 193.757C222.113 193.15 222.428 191.409 222.71 189.889C223.303 186.685 221.882 185.939 221.101 189.047C220.656 190.823 220.4 190.932 217.69 190.498C213.749 189.869 212.714 190.876 212.714 195.346C212.714 199.034 210.284 205.063 208.048 206.917C206.64 208.086 205.748 206.811 206.713 205.009C208.581 201.518 208.485 197.136 206.502 195.412C202.984 192.355 202.544 194.439 204.591 204.441C206.006 211.351 203.541 216.086 201.618 210.151C201.126 208.631 199.762 205.467 198.586 203.119C196.994 199.935 196.564 198.246 196.895 196.478C197.555 192.961 194.325 189.887 192.092 191.909C191.277 192.645 190.611 194.026 190.611 194.977C190.611 200.824 187.08 193.372 186.501 186.299C186.255 183.31 185.621 179.827 185.093 178.56C183.826 175.527 182.728 152.498 183.85 152.498C185.476 152.498 193.512 163.032 194.753 166.791C195.436 168.858 196.423 171.212 196.946 172.023C197.469 172.833 198.79 176.645 199.88 180.495C202.827 190.901 203.405 191.652 205.742 188.085C206.633 186.726 206.777 186.007 206.196 185.813C202.674 184.639 211.996 162.699 219.648 154.155C223.044 150.362 223.565 150.905 224.161 158.871ZM346.465 155.417C344.709 157.359 345.493 159.409 347.726 158.712C349.968 158.012 350.527 156.953 349.511 155.326C348.445 153.62 348.083 153.63 346.465 155.417ZM50.588 159.928C49.6736 161.637 49.6379 161.556 51.833 162.697C54.2475 163.951 55.4985 162.092 53.6647 159.976C51.9591 158.01 51.6176 158.005 50.588 159.928ZM150.4 161.249C150.619 161.604 152.38 162.276 154.312 162.742C159.994 164.114 172.823 170.93 176.632 174.601C180.04 177.887 181.041 180.011 183.225 188.6C183.689 190.424 185.043 194.297 186.235 197.205C189.669 205.596 189.039 209.56 185.095 204.389C182.411 200.871 176.517 199.578 176.628 202.533C176.692 204.214 179.507 206.506 180.498 205.683C181.392 204.942 182.091 205.47 184.585 208.773C187.604 212.772 192.818 217.449 195.203 218.298C195.979 218.574 196.31 219.197 196.046 219.885C195.806 220.509 195.977 221.018 196.426 221.018C196.875 221.018 197.242 221.35 197.242 221.755C197.242 222.161 196.745 222.493 196.136 222.493C195.528 222.493 195.071 222.243 195.118 221.94C195.335 220.569 194.954 219.998 194.404 220.865C193.943 221.593 192.561 221.116 188.544 218.84C185.653 217.202 182.973 215.861 182.589 215.861C181.716 215.861 179.384 221.836 179.696 223.273C179.936 224.378 178.639 224.507 176.428 223.601C175.719 223.31 175.138 223.384 175.138 223.767C175.138 224.997 183.057 228.386 185.96 228.398C189.649 228.413 190.236 228.863 192.038 233.067C194.068 237.804 193.996 238.237 191.271 237.692C189.749 237.387 188.279 237.651 186.873 238.482C183.903 240.236 183.545 239.337 185.73 235.609L187.611 232.4L183.604 232.461C178.692 232.537 178.399 232.8 179.927 235.755C181.675 239.132 181.767 239.087 170.717 240.267C158.05 241.619 127.222 236.047 125.93 232.173C125.189 229.95 140.529 225.127 149.35 224.811C151.174 224.745 155.743 224.32 159.505 223.867C163.266 223.412 167.616 223.212 169.173 223.421C170.73 223.629 172.46 223.511 173.018 223.158C173.8 222.662 173.704 222.512 172.608 222.503C171.824 222.498 169.668 221.788 167.819 220.927C157.779 216.258 152.95 213.751 148.858 211.085C146.359 209.457 142.398 206.964 140.056 205.546C135.742 202.933 128.721 196.997 128.721 195.962C128.721 192.754 163.38 194.079 167.957 197.464C169.982 198.961 170.056 198.963 171.776 197.61L173.531 196.23L171.066 194.264C165.962 190.191 148.614 165.229 148.614 161.959C148.614 160.552 149.702 160.119 150.4 161.249ZM331.663 161.6C331.235 162.065 330.097 162.967 329.134 163.607L327.383 164.768L329.442 167.468C331.17 169.733 331.813 170.093 333.445 169.703C337.001 168.856 337.243 168.179 335.259 164.629C333.125 160.811 332.713 160.463 331.663 161.6ZM65.4147 168.114C64.6205 169.453 63.586 170.985 63.1164 171.518C62.0868 172.685 62.0888 172.687 65.4713 174.089L68.1638 175.204L70.0413 172.566C72.1381 169.619 72.0984 169.41 69.0326 167.227L66.8583 165.679L65.4147 168.114ZM310.389 172.333C307.349 175.693 307.969 179.343 311.866 181.03C316.615 183.086 318.845 181.677 319.921 175.939C320.795 171.279 313.754 168.615 310.389 172.333ZM81.7793 176.284C78.64 177.685 78.8545 182.717 82.1884 185.911L84.1482 187.789L87.7064 186.168C91.2101 184.573 91.2597 184.503 90.8934 181.684C90.3126 177.216 85.7486 174.513 81.7793 176.284ZM277.114 190.7C277.32 191.032 277.108 192.54 276.644 194.05C275.617 197.399 271.014 201.223 258.763 208.907C256.568 210.284 235.994 220.804 234.979 221.068C234.688 221.144 234.117 221.303 233.712 221.422C221.311 225.067 213.889 222.674 217.827 216.301C218.762 214.788 219.165 213.302 218.858 212.501C218.446 211.427 218.613 211.288 219.77 211.746C224.132 213.477 225.807 212.579 227.383 207.667C228.607 203.848 233.968 199.381 239.238 197.788C239.441 197.727 240.821 197.134 242.305 196.471C243.789 195.808 246.939 195.095 249.304 194.885C251.67 194.677 256.862 193.568 260.841 192.42C267.901 190.385 276.366 189.49 277.114 190.7ZM217.872 199.935C217.872 200.409 217.362 201.525 216.739 202.414C216.116 203.303 214.6 206.06 213.369 208.54C212.138 211.022 210.979 212.898 210.792 212.71C210.353 212.271 213.359 204.148 214.663 202.251C215.212 201.452 215.661 200.219 215.661 199.511C215.661 198.67 216.044 198.371 216.767 198.648C217.374 198.881 217.872 199.461 217.872 199.935ZM193.111 200.817C193.857 202.764 193.625 203.336 192.084 203.336C191.003 203.336 190.611 202.845 190.611 201.493C190.611 199.436 192.395 198.954 193.111 200.817ZM216.767 213.651C216.41 214.227 215.986 214.27 215.495 213.779C215.09 213.374 214.998 212.653 215.292 212.177C215.649 211.6 216.073 211.558 216.564 212.049C216.969 212.454 217.061 213.175 216.767 213.651ZM189.853 222.482C194.008 224.601 194.178 225.439 190.449 225.439C185.931 225.439 181.912 222.404 185.269 221.527C185.978 221.341 186.655 221.151 186.772 221.104C186.889 221.057 188.276 221.676 189.853 222.482ZM259.426 224.756C263.518 225.586 267.53 226.692 268.342 227.213C269.152 227.734 271.593 228.747 273.766 229.465C275.94 230.183 278.591 231.226 279.661 231.784C280.729 232.341 282.018 232.8 282.524 232.803C283.835 232.809 283.666 234.038 282.28 234.57C281.639 234.816 280.001 235.017 278.639 235.017C277.278 235.017 275.959 235.349 275.709 235.755C275.459 236.16 274.291 236.491 273.115 236.491C271.94 236.491 268.098 237.162 264.581 237.982C261.063 238.803 258.014 239.303 257.805 239.094C257.596 238.885 257.049 239.026 256.59 239.407C251.001 244.046 204.471 234.174 209.275 229.369C209.867 228.777 218.532 230.614 219.042 231.439C219.577 232.306 222.293 232.239 222.293 231.359C222.293 230.968 221.566 230.26 220.678 229.785L219.065 228.921L220.76 227.549C222.759 225.93 225.076 225.819 226.969 227.254C228.844 228.675 230.257 227.937 231.539 224.868L232.626 222.266L242.305 222.756C247.628 223.026 255.333 223.925 259.426 224.756ZM210.559 224.168C210.468 225.049 209.458 224.878 209.141 223.929C208.978 223.443 209.244 223.178 209.73 223.339C210.216 223.501 210.589 223.875 210.559 224.168ZM216.03 225.439C215.673 226.016 215.25 226.059 214.758 225.567C214.353 225.162 214.262 224.441 214.556 223.966C214.912 223.389 215.336 223.346 215.827 223.837C216.233 224.243 216.324 224.964 216.03 225.439ZM195.107 230.815C194.162 231.76 193.203 231.03 193.903 229.897C194.174 229.458 194.734 229.307 195.146 229.562C195.649 229.874 195.637 230.286 195.107 230.815ZM200.076 233.923C200.749 234.594 199.287 235.57 197.61 235.57C195.558 235.57 194.673 234.72 195.436 233.484C195.861 232.797 199.274 233.121 200.076 233.923ZM201.989 246.622C201.949 254.015 201.797 254.815 199.706 258.64C195.279 266.739 193.247 270.025 192.305 270.603C191.778 270.928 191.348 271.528 191.348 271.937C191.348 276.918 165.365 298.767 158.82 299.289L156.35 299.486L156.557 296.17C156.863 291.302 158.277 282.653 158.907 281.803C159.207 281.398 159.853 279.428 160.343 277.424C162.246 269.63 167.262 263.01 173.843 259.607C176.28 258.347 185.352 251.457 189.137 247.991C193.213 244.259 200.485 238.702 201.294 238.702C201.742 238.702 202.014 241.806 201.989 246.622ZM238.501 286.961C238.501 287.636 238.858 288.07 239.294 287.925C239.73 287.779 240.086 287.345 240.086 286.961C240.086 286.576 239.73 286.142 239.294 285.997C238.858 285.851 238.501 286.285 238.501 286.961Z" fill="#FFEE00"/>
</svg>
