<svg width="400" height="400" viewBox="0 0 400 400" fill="none" xmlns="http://www.w3.org/2000/svg">
<path fill-rule="evenodd" clip-rule="evenodd" d="M202.896 100.992C201.691 104.131 202.958 109.218 205.185 110.19C206.407 110.724 207.907 111.425 208.518 111.748C209.129 112.071 211.129 114.99 212.963 118.235C218.611 128.231 221.855 133.071 229.024 142.194C236.011 151.088 253.016 166.009 262.821 171.853C265.187 173.263 268.353 175.152 269.858 176.051C273.987 178.517 287.701 185.154 288.729 185.183C289.224 185.197 290.963 185.852 292.592 186.639C294.222 187.427 296.119 188.081 296.809 188.095C297.497 188.109 298.272 188.463 298.53 188.881C298.789 189.299 299.392 189.58 299.871 189.505C300.349 189.43 301.24 189.553 301.852 189.777C306.647 191.541 313.257 193.322 316.615 193.755C320.973 194.316 324.379 195.716 323.507 196.589C322.873 197.223 307.824 204.417 307.132 204.416C306.877 204.416 304.334 205.556 301.482 206.949C294.542 210.341 284.828 214.787 284.359 214.787C283.996 214.787 279.12 216.992 269.63 221.448C262.438 224.824 254.394 228.546 249.63 230.703C247.186 231.81 243.819 233.382 242.15 234.197C239.711 235.387 238.253 235.588 234.743 235.224C232.338 234.975 229.453 234.726 228.333 234.672C227.213 234.618 226.296 234.321 226.296 234.009C226.296 233.699 224.63 233.216 222.593 232.935C220.557 232.656 218.712 232.139 218.496 231.787C218.278 231.436 217.645 231.323 217.088 231.537C216.531 231.751 215.856 231.569 215.587 231.134C215.318 230.698 214.639 230.343 214.079 230.343C213.518 230.343 212.121 229.986 210.974 229.55C209.827 229.114 208.889 228.804 208.889 228.862C208.889 228.919 207.975 228.618 206.858 228.193C203.608 226.958 202.931 227.669 203.231 231.996C203.5 235.869 204.696 237.673 207.037 237.731C207.648 237.746 209.092 238.252 210.247 238.854C211.401 239.456 213.735 240.302 215.432 240.732C217.129 241.163 219.185 241.833 220 242.221C221.264 242.822 226.403 243.849 237.204 245.657C238.994 245.956 240.967 245.386 245.072 243.385C248.087 241.916 250.928 240.713 251.387 240.713C251.846 240.713 253.805 239.894 255.741 238.893C261.93 235.693 271.884 231.084 272.606 231.084C272.992 231.084 276.646 229.454 280.727 227.461C284.809 225.469 289.815 223.095 291.852 222.184C293.889 221.274 297.722 219.493 300.37 218.229C303.019 216.963 305.352 215.902 305.555 215.869C305.759 215.836 308.125 214.746 310.813 213.446C313.501 212.147 315.938 211.084 316.231 211.084C316.523 211.084 318.583 210.25 320.81 209.231C323.037 208.213 325.182 207.38 325.577 207.38C325.972 207.38 326.296 207.046 326.296 206.639C326.296 206.232 326.583 205.898 326.935 205.898C327.286 205.898 329.869 204.834 332.675 203.534C335.482 202.233 337.944 201.121 338.148 201.064C338.352 201.006 339.458 200.57 340.604 200.095C341.751 199.62 343 199.232 343.379 199.232C344.388 199.232 350 194.013 350 193.075C350 191.033 345.993 188.12 343.185 188.12C341.626 188.12 339.772 187.819 339.064 187.452C338.357 187.083 333.961 186.402 329.295 185.936C324.629 185.471 320.384 184.736 319.86 184.3C319.336 183.866 318.415 183.7 317.811 183.931C317.208 184.163 316.544 184.077 316.336 183.741C316.129 183.405 314.552 182.905 312.831 182.63C311.111 182.355 309.353 181.866 308.926 181.544C308.498 181.221 306.148 180.532 303.704 180.012C301.259 179.492 298.926 178.814 298.518 178.505C298.111 178.196 296.444 177.521 294.815 177.004C289.89 175.443 276.702 168.732 266.428 162.56C253.618 154.863 232.854 133.69 226.294 121.636C218.242 106.837 217.188 105.383 213.124 103.469C211.201 102.564 209.189 101.407 208.651 100.898C207.335 99.6543 203.384 99.7182 202.896 100.992ZM323.704 215.877C317.438 218.853 309.969 222.22 309.64 222.215C309.435 222.212 307.182 223.33 304.634 224.699C302.086 226.067 299.167 227.432 298.148 227.734C297.13 228.035 292.629 230.037 288.149 232.181C283.667 234.325 278.5 236.745 276.667 237.56C274.833 238.373 271.754 239.749 269.823 240.617C267.892 241.484 265.976 242.195 265.563 242.195C265.152 242.195 264.815 242.529 264.815 242.936C264.815 243.343 264.411 243.676 263.917 243.676C263.422 243.676 260.339 244.974 257.064 246.561C247.471 251.209 243.049 253.163 240.895 253.704C239.784 253.982 238.691 254.507 238.468 254.87C237.91 255.773 232.419 255.704 231.852 254.788C231.6 254.38 230.164 254.041 228.66 254.035C227.157 254.028 223.926 253.503 221.481 252.868C219.037 252.233 214.87 251.239 212.222 250.659C209.574 250.081 206.779 249.241 206.012 248.795C204.028 247.642 203.361 249.043 203.335 254.417C203.323 256.861 203.113 259.606 202.87 260.515C202.183 263.077 204.648 263.572 220.911 264.13L235.558 264.635L240.001 262.575C242.445 261.443 249.111 258.271 254.814 255.528C267.997 249.187 272.902 246.948 275.039 246.295C275.977 246.008 278.759 244.636 281.221 243.243C283.684 241.852 285.854 240.713 286.045 240.713C286.525 240.713 292.179 238.091 305.029 231.909C311.054 229.011 316.148 226.639 316.347 226.639C316.548 226.639 321.154 224.472 326.584 221.824C332.014 219.176 336.837 217.01 337.303 217.01C337.768 217.01 338.148 216.51 338.148 215.899C338.148 214.378 326.895 214.361 323.704 215.877ZM316.667 237.678C314.582 238.346 305.143 242.828 284.35 253.025C276.556 256.846 269.668 259.972 269.041 259.972C268.414 259.972 267.79 260.223 267.655 260.528C267.347 261.22 257.829 265.898 256.73 265.898C256.288 265.898 255.926 266.232 255.926 266.639C255.926 267.047 255.601 267.38 255.204 267.38C254.331 267.38 245.549 271.274 241.625 273.401C238.956 274.848 237.848 274.915 220.884 274.673L202.962 274.417L203.214 278.861C203.352 281.306 203.756 283.61 204.111 283.982C205.437 285.365 236.788 284.933 239.259 283.497C241.919 281.95 245.709 280.427 246.482 280.594C246.787 280.66 247.037 280.38 247.037 279.972C247.037 279.565 247.391 279.232 247.823 279.232C248.257 279.232 250.506 278.361 252.824 277.297C257.328 275.229 261.208 273.495 266.852 271.027C268.788 270.18 271.255 269.013 272.337 268.434C273.418 267.855 274.689 267.38 275.16 267.38C275.632 267.38 277.914 266.509 280.231 265.445C282.548 264.381 285.861 262.882 287.593 262.112C289.324 261.343 292.241 260.047 294.074 259.232C295.907 258.417 298.908 257.084 300.741 256.269C302.574 255.454 305.574 254.121 307.408 253.306C311.021 251.7 315.535 249.713 319.629 247.927C321.056 247.305 323.889 246.056 325.926 245.152C331.633 242.618 335.328 241.037 337.963 239.999C342.212 238.327 340.575 237.75 331.574 237.75C326.736 237.75 321.819 237.601 320.648 237.417C319.477 237.233 317.685 237.35 316.667 237.678ZM334.815 245.543C331.148 247.344 326.482 249.458 324.444 250.243C322.407 251.028 318.241 252.832 315.186 254.254C312.13 255.675 307.796 257.672 305.555 258.692C303.314 259.711 298.891 261.749 295.725 263.221C292.558 264.693 289.642 265.898 289.243 265.898C288.844 265.898 288.519 266.189 288.519 266.543C288.519 266.897 287.019 267.607 285.185 268.121C283.352 268.634 281.852 269.308 281.852 269.618C281.852 269.929 280.974 270.403 279.9 270.672C278.827 270.942 275.708 272.269 272.969 273.623C270.23 274.977 266.691 276.508 265.105 277.025C263.519 277.542 262.056 278.179 261.851 278.443C261.648 278.705 259.315 279.857 256.667 281.003C254.019 282.149 249.018 284.485 245.556 286.193L239.259 289.298L239.032 293.26C238.716 298.756 239.247 298.956 245.993 295.875C254.038 292.199 257.58 290.595 261.481 288.862C263.315 288.047 266.315 286.714 268.148 285.898C269.981 285.084 272.982 283.75 274.815 282.936C283.186 279.216 285.518 278.159 290.37 275.894C293.222 274.562 296.723 272.968 298.148 272.351C299.574 271.733 302.574 270.401 304.815 269.389C307.056 268.377 310.556 266.807 312.592 265.898C316.995 263.937 322.183 261.565 330.741 257.602C339.716 253.445 339.79 253.412 342.037 252.599C343.976 251.897 344.074 251.628 344.074 247.028C344.074 241.08 343.949 241.06 334.815 245.543ZM203.812 290.168C203.619 290.48 203.366 292.531 203.25 294.727C202.969 300.006 203.125 300.052 220.663 299.803L234.814 299.603L235.034 294.602L235.253 289.602H219.707C211.157 289.602 204.004 289.857 203.812 290.168Z" fill="#FF0000"/>
<path fill-rule="evenodd" clip-rule="evenodd" d="M197.079 101.384C196.852 101.753 195.997 101.88 195.18 101.668C194.363 101.454 193.274 101.629 192.759 102.056C192.245 102.483 189.497 103.23 186.653 103.716C183.808 104.202 181.148 104.848 180.741 105.151C180.333 105.455 177.666 106.124 174.815 106.639C171.963 107.154 169.296 107.778 168.889 108.026C168.481 108.272 165.648 109.048 162.592 109.749C159.537 110.448 155.037 111.528 152.593 112.148C146.566 113.675 133.154 116.826 125.925 118.412C122.666 119.126 119.061 120.103 117.914 120.583C116.767 121.062 115.278 121.454 114.603 121.454C108.742 121.454 102.277 128.422 102.794 134.181C103.057 137.106 106.408 145.415 107.819 146.639C108.053 146.843 109.372 148.997 110.748 151.426C113.857 156.911 118.217 163.432 122.655 169.235C124.524 171.678 126.357 174.222 126.73 174.89C130.017 180.78 157.261 208.249 164.814 213.288C166.241 214.239 167.748 215.382 168.165 215.828C168.582 216.274 169.449 216.973 170.091 217.38C170.734 217.787 172.727 219.114 174.518 220.328C178.599 223.091 180.121 224.027 183.148 225.635C184.472 226.339 185.556 227.132 185.556 227.399C185.556 227.665 186.888 228.324 188.518 228.862C190.148 229.399 191.482 230.12 191.482 230.462C191.482 230.803 191.818 231.084 192.23 231.084C192.642 231.084 194.488 231.793 196.333 232.66C200.347 234.547 200.484 234.451 200.645 229.612C200.803 224.883 200.742 224.831 187.228 218.196C186.314 217.746 185.565 217.13 185.561 216.824C185.558 216.519 185.122 216.269 184.591 216.269C183.582 216.269 177.22 211.897 176.79 210.91C176.654 210.598 176.215 210.343 175.814 210.343C175.149 210.343 173.433 209.041 163.333 200.869C159.015 197.375 146.751 185.097 142.831 180.343C136.251 172.363 132.489 167.683 131.453 166.187C126.957 159.697 119.629 148.754 119.629 148.532C119.629 148.382 118.003 145.478 116.015 142.079C110.337 132.369 110.283 132.987 117.037 130.313C117.851 129.99 120.685 129.351 123.333 128.894C125.981 128.436 128.815 127.759 129.629 127.389C130.444 127.019 133.611 126.175 136.666 125.514C150.256 122.576 154.146 121.682 155.185 121.255C155.796 121.006 158.296 120.43 160.741 119.978C163.185 119.525 165.851 118.861 166.667 118.5C167.481 118.141 170.475 117.468 173.319 117.006C176.163 116.544 178.83 115.904 179.245 115.585C179.661 115.265 182.594 114.574 185.764 114.047C188.935 113.52 191.704 112.804 191.919 112.456C192.134 112.108 192.873 111.822 193.562 111.82C194.251 111.818 196.064 111.468 197.592 111.044L200.37 110.273V105.493C200.37 100.855 198.697 98.767 197.079 101.384ZM122.171 189.513C120.921 190.274 119.087 191.142 118.097 191.44C117.107 191.738 113.962 193.073 111.111 194.407C108.259 195.741 104.425 197.502 102.593 198.32C93.186 202.516 90.1147 203.904 87.4067 205.183C79.5991 208.871 71.2806 212.565 70.7825 212.565C69.5907 212.565 67.7771 215.375 67.7771 217.223C67.7771 219.035 70.9602 222.936 72.4384 222.936C72.7698 222.936 76.1066 224.706 79.8537 226.869C86.3486 230.618 89.8462 232.375 99.4444 236.711C107.232 240.231 108.368 240.713 108.856 240.713C109.122 240.713 110.75 241.356 112.473 242.14C114.197 242.926 116.596 243.805 117.803 244.095C119.011 244.384 120.333 244.857 120.741 245.145C121.148 245.433 123.147 246.09 125.185 246.605C127.222 247.119 129.889 247.965 131.111 248.484C132.333 249.003 134.666 249.662 136.296 249.951C137.926 250.239 139.592 250.743 140 251.07C140.407 251.396 142.74 252.072 145.185 252.571C147.629 253.07 149.796 253.736 150 254.05C150.203 254.365 152.704 254.965 155.555 255.385C161.608 256.276 162.693 256.513 163.729 257.16C164.15 257.425 166.651 257.875 169.285 258.163C171.919 258.449 174.488 259.013 174.995 259.415C175.502 259.818 176.76 259.986 177.791 259.789C178.821 259.592 179.82 259.683 180.012 259.991C180.203 260.301 183.778 260.797 187.957 261.094C192.137 261.393 196.28 261.911 197.164 262.246C199.652 263.187 200.262 261.708 200.396 254.4C200.517 247.859 200.068 245.158 198.858 245.158C198.521 245.158 197.306 244.801 196.159 244.365C195.012 243.929 193.907 243.524 193.704 243.465C193.5 243.406 192 242.603 190.37 241.682C188.741 240.762 186.158 239.463 184.629 238.798C183.101 238.134 181.852 237.292 181.852 236.929C181.852 236.566 181.421 236.269 180.895 236.269C175.465 236.269 144.018 209.514 130.434 193.337C125.614 187.596 125.442 187.517 122.171 189.513ZM119.222 257.661C118.834 258.019 117.184 258.73 115.556 259.239C113.926 259.749 112.259 260.412 111.851 260.713C111.444 261.014 109.777 261.681 108.148 262.195C106.518 262.708 104.851 263.375 104.444 263.676C104.037 263.978 102.421 264.638 100.854 265.143C99.2867 265.648 97.1207 266.522 96.0397 267.086C94.9587 267.65 93.5742 268.124 92.9624 268.139C92.3515 268.155 90.1845 268.987 88.1483 269.989C86.1111 270.991 83.8612 271.814 83.1476 271.817C82.4349 271.821 81.852 272.122 81.852 272.485C81.852 272.848 80.9347 273.373 79.8147 273.653C78.6938 273.932 76.7774 274.596 75.5556 275.128C74.3329 275.66 72.1659 276.504 70.7406 277.002C64.8615 279.059 56.6666 282.986 56.6666 283.746C56.6666 284.153 85.4154 284.349 128.605 284.235L200.545 284.047V279.242C200.545 273.682 200.307 273.507 192.556 273.379C190.09 273.339 187.758 273.017 187.37 272.664C186.983 272.31 182.499 271.605 177.407 271.097C172.314 270.589 167.815 269.917 167.407 269.605C167 269.294 163.666 268.614 160 268.094C156.333 267.575 153 266.897 152.593 266.589C152.185 266.281 149.685 265.637 147.037 265.158C144.389 264.678 141.889 264.038 141.481 263.733C141.074 263.43 138.741 262.774 136.296 262.277C133.852 261.78 131.185 261.069 130.37 260.696C124.18 257.867 120.177 256.777 119.222 257.661ZM55.7404 289.449L50 289.664V294.448V299.231H124.77C181.107 299.231 199.675 299.018 200.078 298.364C200.828 297.15 200.682 291.099 199.882 290.3C199.28 289.698 69.4679 288.931 55.7404 289.449Z" fill="#0000FF"/>
</svg>
