<svg width="400" height="400" viewBox="0 0 400 400" fill="none" xmlns="http://www.w3.org/2000/svg">
<path fill-rule="evenodd" clip-rule="evenodd" d="M133.881 88.7578C133.881 89.1836 133.42 89.5321 132.856 89.5321C130.888 89.5321 122.591 94.5394 115.293 100.132C111.246 103.233 106.412 106.908 104.549 108.301C100.807 111.096 95.4438 115.374 91.284 118.879C89.7937 120.135 87.1011 122.376 85.3019 123.858C74.7405 132.555 65.0652 145.58 66.0723 149.744C67.2182 154.486 76.3529 168.926 84.7833 179.322C106.478 206.078 143.348 244.671 156.728 254.631C158.005 255.583 160.933 258.054 163.233 260.125C172.34 268.321 184.823 275.209 191.209 275.562L195.453 275.796L195.677 269.406C195.892 263.301 194.875 260.964 193.191 263.69C192.215 265.269 183.381 262.251 181.166 259.582C180.613 258.915 179.746 258.369 179.241 258.369C178.735 258.369 176.58 256.889 174.451 255.078C172.323 253.268 168.88 250.392 166.8 248.689C156.226 240.027 151.065 235.334 139.994 224.316C133.346 217.701 125.854 210 123.343 207.203C120.832 204.406 116.128 199.179 112.89 195.585C96.5772 177.49 78.8587 154.323 77.6501 149.51C77.1847 147.657 83.701 139.54 85.2425 140.054C85.6129 140.178 87.5603 142.932 89.5683 146.175C95.1965 155.261 103.282 165.54 120.306 185.247C142.989 211.506 192.628 257.45 195.364 254.715C197.619 252.459 195.657 246.277 191.74 243.3C168.859 225.904 123.59 179.973 106.115 156.423C103.944 153.497 100.602 148.999 98.6884 146.428C96.7744 143.857 94.4482 139.925 93.5204 137.692L91.8329 133.631L93.6884 131.612C95.7047 129.418 108.814 118.602 111.999 116.505C113.081 115.793 114.178 114.91 114.437 114.542C115.758 112.667 132.411 101.204 134.706 100.59C141.299 98.8276 143.79 100.907 166.459 127.095C172.358 133.91 178.946 141.403 181.099 143.746C183.251 146.089 187.012 150.516 189.457 153.583C194.992 160.526 195.399 160.396 195.675 151.599L195.898 144.474L188.087 135.397C156.143 98.2766 152.872 94.8483 146.578 91.874C143.926 90.6206 141.532 89.2337 141.258 88.7901C140.62 87.7569 133.881 87.7277 133.881 88.7578ZM131.557 115.924C125.657 119.348 123.556 125.306 126.39 130.58C130.297 137.853 137.544 139.758 143.799 135.158C147.494 132.44 148.327 130.092 147.942 123.476C147.558 116.871 137.731 112.342 131.557 115.924ZM141.982 121.859C147.182 127.469 139.921 135.881 133.506 131.679C130.714 129.849 129.617 125.84 131.115 122.941C133.097 119.108 138.895 118.53 141.982 121.859Z" fill="#0000FF"/>
<path fill-rule="evenodd" clip-rule="evenodd" d="M197.388 153.364C197.388 156.95 197.184 160.417 196.934 161.068C196.64 161.833 198.215 164.128 201.388 167.554C204.086 170.47 210.768 177.997 216.233 184.281C221.7 190.566 228.67 198.393 231.723 201.674C234.776 204.956 238.456 209.147 239.9 210.987L242.526 214.334L224.797 232.144C204.029 253.008 205.342 252.04 201.292 249.482C199.587 248.407 198.048 247.527 197.871 247.527C197.692 247.527 197.521 253.626 197.49 261.081C197.453 269.684 197.716 274.634 198.211 274.634C198.639 274.634 207.532 266.182 217.974 255.852C228.415 245.523 237.267 236.963 237.645 236.83C239.3 236.25 243.082 239.267 245.427 243.041C250.127 250.602 256.481 259.921 257.532 260.794C258.104 261.269 258.573 262.012 258.573 262.445C258.573 263.851 267.21 274.053 275.197 282.085C283.902 290.836 289.248 294.593 301.169 300.339C316.573 307.762 316.205 307.518 316.91 310.785C320.161 325.877 337.307 328.947 344.316 315.692C346.574 311.423 346.562 307.499 344.274 302.344C343.276 300.095 341.988 297.035 341.413 295.545C340.837 294.054 339.797 291.962 339.101 290.898C333.536 282.381 331.782 279.913 328.648 276.18C326.682 273.839 324.604 271.4 324.032 270.761C322.167 268.68 311.655 259.274 309.147 257.444C306.89 255.796 293.404 244.478 291.41 242.558C290.931 242.096 289.028 240.499 287.183 239.007C279.298 232.637 258.065 212.768 252.18 206.252C248.668 202.363 243.006 196.198 239.598 192.552C236.19 188.905 231.66 183.98 229.53 181.608C227.4 179.236 222.699 174.06 219.085 170.107C215.471 166.153 211.948 161.989 211.257 160.853C210.566 159.717 208.454 157.407 206.562 155.72C204.67 154.033 202.139 151.346 200.938 149.749C197.821 145.603 197.388 146.043 197.388 153.364Z" fill="#FF0000"/>
</svg>
