<svg width="400" height="400" viewBox="0 0 400 400" fill="none" xmlns="http://www.w3.org/2000/svg">
<path fill-rule="evenodd" clip-rule="evenodd" d="M161.73 106.908C145.091 110.954 133.404 127.443 134.276 145.643C134.778 156.103 134.804 156.025 128.402 162.436C125.85 164.992 122.773 168.94 121.563 171.21C117.431 178.967 115.393 180.109 84.6542 191.881C66.3716 198.883 61.504 200.585 52.8145 203.011C49.3037 203.991 49.1737 205.455 51.8864 213.431C53.6945 218.745 54.4916 222.629 54.7351 227.31C54.9224 230.885 55.3982 240.554 55.7922 248.798C56.1871 257.041 56.927 266.667 57.4365 270.188C58.2623 275.903 58.2204 276.906 57.0416 279.521C55.565 282.793 55.7686 283.71 59.1403 288.974L61.3444 292.415L114.196 292.917C143.263 293.194 199.223 293.421 238.55 293.421H310.054L314.487 288.578C322.966 279.316 328.253 266.422 336.014 236.089C338.47 226.482 342.078 213.155 344.032 206.472C345.984 199.791 348.224 192.109 349.009 189.404C352.693 176.702 345.969 168.238 331.094 166.849C325.633 166.339 325.272 166.075 324.01 161.648C322.292 155.621 315.324 151.55 304.493 150.244C298.031 149.466 296.52 148.768 296.52 146.56C296.52 139.686 286.208 135.472 269.394 135.472H260.772L257.507 132.111C253.336 127.821 251.737 127.497 234.631 127.497C215.707 127.497 210.71 129.24 210.71 135.84C210.71 143.47 206.896 145.532 206.002 138.384C203.381 117.394 181.776 102.034 161.73 106.908ZM176.591 110.117C210.797 120.272 211.832 163.274 177.942 166.261C171.105 166.864 156.071 165.524 151.253 163.882C145.111 161.79 138.953 151.587 138.061 142.026C136.286 123.013 158.385 104.712 176.591 110.117ZM154.765 125.674C149.503 127.198 143.099 137.755 144.252 143.005C146.59 153.652 159.298 159.724 168.977 154.818C187.413 145.477 174.913 119.842 154.765 125.674ZM165.375 129.102C170.357 131.611 175.019 137.254 175.019 140.774C175.019 148.875 161.999 158.16 159.559 151.801C159.192 150.846 158.528 150.658 156.84 151.028C149.835 152.567 145.192 140.254 150.269 133.599C154.009 128.696 160.647 126.72 165.375 129.102ZM246.708 131.911L251.951 133.589L246.981 136.804C234.594 144.814 233.08 153.915 245.197 147.529C251.007 144.466 262.013 145.852 266.883 150.26C269.183 152.341 275.178 150.932 280.383 147.089C285.042 143.647 283.507 142.436 273.358 141.541L267.283 141.005L275.851 140.896C292.69 140.681 293.682 143.334 279.434 150.478C271.773 154.317 269.025 156.937 269.335 160.102C269.626 163.077 270.59 162.975 281.712 158.788C292.218 154.833 305.26 154.232 313.561 157.32C321.135 160.138 321.124 160.175 310.866 166.179C303.167 170.684 300.316 173.164 300.316 175.361C300.316 178.268 301.421 178.223 309.43 174.995C318.155 171.478 319.326 171.282 318.765 173.43C318.359 174.979 318.689 175.207 322.561 176.057C324.002 176.373 325.33 177.596 326.704 179.871C327.816 181.713 329.398 183.52 330.22 183.886C331.598 184.501 331.498 184.718 328.924 186.681C325.488 189.301 325.411 190.142 328.603 190.158C332.848 190.178 333.601 191.296 330.629 193.162C328.324 194.61 327.142 194.766 320.06 194.558C312.288 194.328 312.081 194.366 311.844 196.031C311.609 197.691 311.359 197.738 303.112 197.68C296.495 197.634 295.082 197.451 296.709 196.857C301.218 195.21 297.486 194.238 284.749 193.741C281.537 193.616 280.251 193.279 280.388 192.597C281.074 189.208 260.43 189.17 257.587 192.555C256.656 193.664 254.782 195.124 253.425 195.796C249.162 197.91 251.645 199.229 259.925 199.25C261.724 199.255 263.014 199.554 262.791 199.915C261.916 201.33 255.643 201.349 244.999 199.97C230.219 198.054 225.874 198.045 225.383 199.926C224.515 203.242 215.043 204.495 190.967 204.477C174.235 204.465 171.521 203.627 184.174 202.38C223.286 198.526 230.617 195.702 235.067 182.768C239.475 169.955 232.976 157.364 218.039 149.779C214.206 147.833 213.664 147.295 214.082 145.864C214.35 144.951 214.98 142.572 215.482 140.578L216.395 136.952L219.817 137.45C223.683 138.011 227.01 139.487 229.463 141.728C231.9 143.955 240.816 139.797 242.389 135.699C244.293 130.735 230.136 129.694 219.974 134.05C216.108 135.708 215.134 135.468 217.479 133.437C221.564 129.901 237.786 129.054 246.708 131.911ZM157.934 132.434C157.676 132.851 157.675 133.535 157.933 133.951C158.225 134.425 157.03 134.639 154.75 134.521L151.1 134.332L150.878 139.297C150.566 146.318 152.262 147.902 160.17 147.978C164.555 148.02 166.128 148.344 167.367 149.467C169.566 151.457 170.287 150.331 168.621 147.511C167.269 145.223 167.271 140.729 168.626 135.775C169.515 132.526 159.76 129.478 157.934 132.434ZM169.704 136.611C169.704 137.237 170.217 137.749 170.843 137.749C171.47 137.749 171.982 137.237 171.982 136.611C171.982 135.983 171.47 135.472 170.843 135.472C170.217 135.472 169.704 135.983 169.704 136.611ZM217.232 153.169C228.336 158.981 233.845 172.727 227.492 178.771C219.848 186.042 195.592 192.097 181.408 190.272C157.057 187.14 145.533 184.255 142.455 180.521C133.573 169.747 133.468 160.253 142.321 168.534C147.295 173.187 148.616 173.444 167.42 173.413C197.098 173.365 205.782 169.798 205.256 157.873C205.146 155.367 205.35 152.847 205.709 152.271C206.549 150.927 214.068 151.512 217.232 153.169ZM288.627 157.686C286.554 159.251 289.612 161.289 294.031 161.289C297.68 161.289 297.873 161.627 295.761 164.328C292.698 168.243 294.144 169.993 298.329 167.437C299.631 166.642 302.535 165.451 304.781 164.791C311.525 162.811 313.127 159.974 308.48 158.24C304.525 156.765 290.37 156.37 288.627 157.686ZM128.285 178.186C128.762 180.519 128.65 181.033 127.67 181.033C125.089 181.033 124.028 175.432 125.851 171.423L126.799 169.334L127.251 172.337C127.5 173.987 127.966 176.62 128.285 178.186ZM345.61 178.544C346.17 180.779 345.169 182.816 343.33 183.178C342.429 183.355 342.083 182.873 342.083 181.445C342.083 180.357 341.599 178.309 341.008 176.894C340.417 175.48 340.122 174.134 340.352 173.904C341.159 173.098 345.121 176.595 345.61 178.544ZM119.852 188.449C122.979 193.402 127.154 195.237 146.957 200.364C154.138 202.222 160.191 203.921 160.41 204.139C161.625 205.354 137.12 203.856 132.994 202.463L128.576 200.972L127.119 202.535C125.511 204.262 116.548 205.478 116.548 203.97C116.548 203.537 116.975 203.025 117.497 202.834C120.872 201.597 115.977 200.426 107.368 200.412C98.5081 200.398 98.194 200.455 96.8044 202.297C94.9328 204.776 70.5782 204.798 72.1111 202.318C73.3462 200.32 112.214 186.027 117.488 185.632C117.796 185.609 118.86 186.876 119.852 188.449ZM339.044 194.422C339.044 199.074 327.487 245.091 321.119 265.788C318.435 274.514 313.197 283.444 309.451 285.683C302.678 289.73 62.6316 288.178 62.6316 284.088C62.6316 283.561 68.6197 283.469 81.0472 283.804C216.759 287.465 295.279 287.666 302.093 284.368C313.965 278.62 331.451 234.757 331.451 210.72V205.334L328.603 205.341C325.631 205.348 287.586 207.091 262.728 208.359C221.06 210.485 59.8504 211.211 57.9236 209.281C57.1132 208.47 63.7286 208.385 94.9052 208.804C142.1 209.442 196.07 208.358 268.044 205.331C319.069 203.184 327.033 202.091 334.199 196.256C338.329 192.893 339.044 192.622 339.044 194.422ZM268.924 215.623C269.935 217.005 270.315 216.975 277.884 214.917C280.374 214.241 283.962 213.687 285.859 213.687L289.306 213.689L284.749 215.859C274.37 220.803 275.078 223.668 286.884 224.517C297.917 225.309 300.487 226.23 301.175 229.634C301.535 231.415 302.756 233.194 304.881 235.031L308.05 237.769L305.703 238.239C304.057 238.568 303.354 239.144 303.354 240.164C303.354 241.921 301.616 242.707 299.117 242.081C297.49 241.672 297.279 241.199 297.279 237.949C297.279 233.281 297.008 233.145 287.636 233.094C280.552 233.055 279.738 232.902 278.701 231.421C277.291 229.408 270.97 227.777 266.766 228.341L263.719 228.75L265.312 227.054C269.044 223.081 267.669 222.852 256.216 225.538C250.113 226.968 247.547 227.287 246.947 226.687C244.848 224.588 253.229 219.762 258.973 219.762C262.004 219.762 263.733 218.013 262.348 216.345C261.828 215.719 260.952 215.206 260.401 215.206C259.85 215.206 259.157 214.812 258.859 214.33C257.923 212.815 267.798 214.083 268.924 215.623ZM240.177 218.39C240.506 220.126 235.574 221.429 229.856 221.119L225.518 220.884L229.695 218.793C234.516 216.379 239.758 216.178 240.177 218.39ZM109.144 219.105C109.874 219.495 110.473 220.278 110.473 220.843C110.473 221.409 111.086 222.629 111.835 223.555L113.198 225.238L121.081 222.879C134.454 218.878 140.441 220.031 134.719 225.505C128.353 231.596 128.389 233.228 134.922 234.628C147.032 237.227 155.967 234.683 150.669 230.146C148.731 228.487 149.068 227.222 151.632 226.537C155.422 225.522 157.448 226.482 157.703 229.41C157.905 231.734 158.298 232.187 160.868 233.066C164.006 234.14 168.185 237.656 168.185 239.223C168.185 241.076 166.157 241.358 154.241 241.161C140.263 240.931 138.57 241.449 138.57 245.96C138.57 249.309 140.4 250.557 146.834 251.587C149.499 252.014 152.403 252.89 153.288 253.533C158.574 257.38 157.745 257.274 163.385 254.816C173.66 250.338 180.302 248.966 177.029 251.999C174.117 254.699 174.487 255.918 178.627 257.253C186.46 259.778 187.584 259.711 190.486 256.544C193.662 253.076 197.187 252.63 199.438 255.41C201.355 257.777 201.194 259.601 198.94 261.078C194.634 263.9 196.308 264.565 207.712 264.565C222.455 264.565 233.631 267.342 231.669 270.517C230.688 272.105 224.295 271.623 223.852 269.929C223.078 266.964 212.558 265.956 198.94 267.54C194.176 268.093 193.219 267.969 189.708 266.339C180.17 261.912 165.867 263.572 169.238 268.715C170.889 271.237 170.848 271.281 166.227 271.867C164.172 272.127 161.678 272.848 160.685 273.469C156.459 276.112 144.491 275.994 134.8 273.212C129.751 271.764 130.419 271.183 139.633 269.011C154.183 265.581 154.212 260.202 139.685 259.409C130.414 258.903 118.292 262.489 118.57 265.654C118.792 268.177 91.3954 266.058 89.1719 263.38C87.0108 260.777 98.9481 256.526 106.454 257.227C111.184 257.669 112.294 256.378 108.959 254.317C106.343 252.7 104.216 247.04 105.635 245.472C109.166 241.57 112.688 240.957 115.927 243.682C118.882 246.169 130.976 246.07 130.976 243.558C130.976 235.614 100.942 234.422 89.6272 241.917C85.2149 244.84 76.3013 246.097 76.3013 243.797C76.3013 243.137 75.6178 242.231 74.7818 241.784C72.3454 240.479 75.9432 234.95 79.2279 234.95C83.1326 234.95 84.7535 230.943 81.3573 229.686C79.9278 229.157 80.0792 228.897 83.0958 226.713C86.3446 224.359 90.5031 223.096 87.5019 225.375C85.4216 226.954 85.9271 228.585 88.9396 230.015C92.3962 231.655 95.9387 230.783 100.759 227.106C106.061 223.063 104.737 221.51 95.8548 221.357C93.4102 221.314 91.4885 220.936 91.4885 220.497C91.4885 218.034 105.133 216.958 109.144 219.105ZM309.809 247.859C310.08 248.297 309.376 248.613 308.145 248.606C306.488 248.597 306.266 248.43 307.152 247.859C308.61 246.916 309.226 246.916 309.809 247.859ZM218.115 252.134C219.054 252.386 219.823 253.092 219.823 253.703C219.823 254.925 217.286 254.606 212.257 252.752L209.572 251.763L212.988 251.72C214.868 251.695 217.174 251.883 218.115 252.134Z" fill="#0000FF"/>
</svg>
