<svg width="400" height="400" viewBox="0 0 400 400" fill="none" xmlns="http://www.w3.org/2000/svg">
<path fill-rule="evenodd" clip-rule="evenodd" d="M162.315 70.7101C154.084 72.44 139.715 83.7263 143.226 85.7035C146.587 87.5972 150.254 87.0724 150.254 84.6981C150.254 82.5235 152.427 79.3562 153.921 79.3562C154.205 79.3562 154.216 81.4879 153.948 84.0944C153.488 88.5434 154.533 90.6704 155.693 87.6483C156.458 85.6536 163.913 81.0397 164.592 82.1392C164.923 82.6744 164.326 83.717 163.262 84.4636C151.845 92.4735 146.903 105.399 151.708 114.682C154.425 119.931 169.478 117.189 172.998 110.805C173.521 109.856 174.271 108.845 174.666 108.555C175.061 108.266 175.269 106.135 175.126 103.823C174.833 99.0402 177.124 97.1269 178.168 101.283C178.761 103.65 180.41 104.315 180.41 102.189C180.41 101.477 180.992 100.896 181.702 100.896C183.779 100.896 183.224 104.591 180.625 108.058C177.722 111.93 169.614 118.129 167.45 118.129C166.578 118.129 165.621 118.522 165.323 119.004C165.025 119.486 164.447 119.673 164.04 119.421C163.631 119.169 163.053 119.356 162.756 119.838C162.458 120.32 161.087 120.713 159.71 120.713C156.772 120.713 155.883 122.077 155.041 127.884C154.708 130.168 153.689 132.785 152.777 133.699C149.963 136.512 151.589 142.254 155.198 142.254C157.837 142.254 160.795 136.757 160.317 132.737C159.947 129.609 160.115 128.756 161.101 128.756C162.273 128.756 162.713 129.783 163.378 134.068C163.607 135.542 164.187 135.748 167.388 135.492C172.548 135.08 171.778 137.102 166.138 138.779C152.588 142.805 145.827 157.929 150.358 174.076C151.718 178.923 152.061 181.931 151.697 185.828C151.358 189.454 151.576 191.777 152.403 193.37C153.277 195.056 153.322 195.67 152.572 195.661C151.04 195.641 149.769 194.579 149.093 192.75C148.216 190.382 147.363 191.74 147.154 195.84C146.758 203.596 154.29 209.981 160.815 207.419C162.72 206.67 164.611 206.264 165.02 206.518C166.39 207.364 165.781 208.634 163.609 209.46C161.138 210.399 161.015 210.961 162.774 213.286C165.853 217.357 163.242 217.389 158.756 213.336C155.1 210.034 152.202 209.54 148.33 211.56C145.693 212.936 144.284 211.893 145.994 209.832C147.775 207.686 146.054 207.288 142.68 209.066C133.981 213.653 129.839 223.6 134.265 229.277C137.196 233.035 137.768 236.853 135.258 235.889C131.513 234.453 129.247 222.59 131.628 216.891C133.557 212.275 133.397 211.402 130.502 210.767C127.604 210.129 116.901 195.893 117.321 193.234C117.488 192.174 116.458 191.233 113.894 190.101C111.877 189.211 108.442 186.813 106.26 184.772L102.292 181.061L100.049 183.413C98.1282 185.425 95.8561 189.574 95.6134 191.509C95.5728 191.825 95.25 192.374 94.8947 192.73C92.7782 194.847 95.6436 202.512 101.07 209.251C104.574 213.601 105.704 213.867 105.127 210.204C104.734 207.715 106.5 203.428 107.918 203.428C108.219 203.428 108.467 206.821 108.469 210.968C108.473 218.12 108.661 218.878 112.131 225.751C114.142 229.736 115.792 233.42 115.797 233.936C115.811 235.706 122.459 248.66 124.111 250.138C130.141 255.529 150.254 256.364 150.254 251.222C150.254 249.702 143.006 246.129 141.273 246.795C139.467 247.488 137.481 244.895 139.067 243.915C140.768 242.863 144.978 243.868 148.728 246.218C150.496 247.325 152.274 248.232 152.68 248.232C153.76 248.232 159.531 254.861 160.151 256.814C160.443 257.734 162.116 259.357 163.868 260.422C165.621 261.486 167.249 262.595 167.486 262.886C171.412 267.702 190.466 268.048 190.829 263.31C190.866 262.837 191.285 261.979 191.763 261.404C195.588 256.795 193.166 247.542 187.516 245.181C185.955 244.53 184.009 242.819 183.191 241.381C181.846 239.019 180.246 238.297 177.209 238.683C174.216 239.063 161.593 236.83 158.926 235.449C154.375 233.092 148.723 232.398 146.412 233.913C145.304 234.639 144.04 234.866 143.379 234.459C141.859 233.518 142.918 231.004 144.841 230.986C148.663 230.954 149.079 229.354 145.945 226.739C143.445 224.653 143.176 224.128 144.368 223.668C145.33 223.298 147.379 224.394 150.533 226.963C153.133 229.08 156.751 231.293 158.572 231.88C160.394 232.468 162.302 233.276 162.811 233.677C163.32 234.078 166.518 234.664 169.919 234.981C177.122 235.65 178.312 234.38 172.009 232.751C169.758 232.169 167.432 231.549 166.839 231.374C165.251 230.903 165.529 228.414 167.17 228.414C172.832 228.414 179.466 232.232 185.471 238.943C191.33 245.49 195.597 242.964 195.373 233.081C195.279 228.929 191.979 219.799 190.573 219.799C189.047 219.799 186.5 223.57 187.34 224.583C188.298 225.736 186.057 227.089 184.64 226.213C182.422 224.842 184.012 221.126 188.637 216.872C194.029 211.913 195.33 207.378 193.408 200.251C192.462 196.743 187.994 192.996 186.889 194.784C186.653 195.166 185.161 195.722 183.573 196.02C180.189 196.655 177.235 199.521 176.824 202.567C176.418 205.566 174.125 205.34 173.992 202.288C173.933 200.95 174.19 199.667 174.563 199.438C176.103 198.486 175.071 196.635 172.711 196.117C171 195.741 169.452 196.039 167.928 197.038C166.347 198.075 165.403 198.243 164.764 197.606C164.127 196.967 164.503 196.271 166.027 195.273C171.591 191.627 172.082 184.138 167.345 175.192C165.119 170.989 164.798 169.599 165.174 165.833C165.631 161.262 164.754 159.266 162.642 160.077C161.988 160.327 161.454 160.129 161.454 159.636C161.454 159.143 160.678 158.494 159.731 158.193C158.784 157.893 158.008 157.046 158.008 156.311C158.008 155.317 158.503 155.135 159.947 155.598C168.745 158.417 173.789 156.721 169.707 152.316C167.148 149.554 166.225 146.91 167.535 146.1C168.114 145.743 170.085 147.286 172.327 149.849C180.765 159.495 195.058 159.63 195.058 150.063C195.058 143.996 189.293 138.336 186.959 142.112C186.233 143.288 182.564 142.645 182.564 141.341C182.564 140.682 183.727 139.789 185.148 139.358C191.496 137.435 192.379 136.884 192.897 134.526C194.779 125.961 184.212 124.704 179.052 132.879C175.668 138.24 174.446 137.151 176.509 130.613C176.942 129.242 176.508 128.674 174.427 127.888C171.526 126.793 170.2 124.547 171.618 123.129C172.263 122.485 173.22 122.755 174.864 124.049C177.878 126.42 187.866 126 189.888 123.417C190.124 123.115 191.094 122.434 192.041 121.904C194.498 120.532 194.663 99.1738 192.246 95.4863C187.887 88.8348 173.451 93.9805 163.721 105.655C159.686 110.497 157.118 109.818 160.869 104.9C163.819 101.033 162.351 99.2051 157.491 100.697C154.83 101.513 154.495 101.451 154.744 100.185C154.971 99.031 156.073 98.7349 160.249 98.7047C165.36 98.6676 165.811 98.4853 171.363 94.222C171.837 93.8574 173.291 93.0865 174.593 92.5083C177.51 91.2126 177.538 90.4487 174.809 86.4338C173.625 84.69 172.656 82.9658 172.656 82.6024C172.656 82.2379 173.625 81.9407 174.809 81.9407C176.124 81.9407 176.963 82.4306 176.963 83.1981C176.963 84.9129 181.445 88.9509 182.78 88.4389C183.372 88.2114 183.856 88.4018 183.856 88.8604C183.856 90.6158 189.631 89.6998 191.916 87.5821C196.673 83.1737 192.345 73.2504 184.618 70.8471C181.21 69.787 167.12 69.7 162.315 70.7101ZM212.526 71.5379C205.284 73.3584 201.349 82.1938 208.197 81.2603C210.49 80.948 210.802 81.0838 209.92 82.0126C209.328 82.6361 208.844 83.7716 208.844 84.5356C208.844 85.2995 208.164 86.6753 207.335 87.5937C206.506 88.5132 205.263 90.4278 204.575 91.8489C203.885 93.2711 202.545 95.3192 201.596 96.4024C200.021 98.1997 199.977 98.6095 201.089 101.141C203.424 106.452 202.569 121.73 200.026 120.158C199.662 119.934 199.365 120.322 199.365 121.022C199.365 121.721 198.881 122.471 198.289 122.688C197.446 122.997 197.438 123.323 198.252 124.188C199.098 125.087 199.547 125.081 200.657 124.16C201.623 123.358 202.292 123.295 202.941 123.944C203.59 124.593 203.328 125.146 202.042 125.833C200.022 126.914 199.521 128.923 201.456 128.181C202.133 127.921 203.149 128.267 203.715 128.949C205.129 130.654 206.568 130.505 208.412 128.468C210.413 126.257 211.24 126.291 211.584 128.595C211.964 131.157 214.656 132.774 215.713 131.078C216.527 129.771 217.789 130.394 217.97 132.191C218.255 135.008 219.544 137.084 221.007 137.084C223.563 137.084 222.954 138.476 218.269 143.333C215.497 146.207 213.422 149.345 212.569 151.947C211.766 154.401 210.715 156.04 209.944 156.04C209.156 156.04 208.851 156.539 209.155 157.332C209.428 158.042 209.275 158.624 208.816 158.624C208.357 158.624 207.981 158.25 207.981 157.793C207.981 156.315 204.463 154.905 203.409 155.96C201.773 157.595 200.754 156.977 202.288 155.279C203.095 154.387 204.125 152.323 204.576 150.69C205.319 147.997 205.639 147.757 208.029 148.109C213.568 148.921 217.462 140.555 213.298 136.786C211.563 135.215 206.672 134.856 205.819 136.236C205.027 137.517 203.674 136.388 203.674 134.448C203.674 133.529 203.244 132.776 202.719 132.776C202.196 132.776 201.989 132.194 202.262 131.484C202.535 130.772 202.338 130.191 201.825 130.191C201.183 130.191 201.124 131.464 201.637 134.283C203.216 142.972 201.771 155.178 199.162 155.178C198.175 155.178 194.196 158.83 194.196 159.735C194.196 160.803 198.744 159.621 199.559 158.341C200.338 157.115 200.413 157.462 200.55 162.933C200.61 165.302 200.367 167.24 200.012 167.24C199.656 167.24 199.365 167.628 199.365 168.102C199.365 168.576 199.947 168.964 200.657 168.964C201.369 168.964 201.951 169.352 201.951 169.826C201.951 170.299 201.563 170.687 201.089 170.687C200.614 170.687 200.226 172.16 200.226 173.961C200.226 175.762 199.762 177.701 199.193 178.269C198.624 178.838 198.407 179.303 198.711 179.303C199.014 179.303 198.719 180.352 198.054 181.633C196.839 183.976 197.147 185.805 198.413 183.758C198.961 182.872 199.568 182.877 201.574 183.782L204.059 184.904L200.272 185.335C198.102 185.581 196.314 186.281 196.086 186.971C195.773 187.921 196.442 188.076 199.25 187.7C201.291 187.426 202.812 187.577 202.812 188.051C202.812 188.509 202.424 188.642 201.951 188.35C200.978 187.748 200.768 189.034 201.688 189.954C202.886 191.154 202.652 192.973 201.362 192.478C200.312 192.076 200.289 191.84 201.232 191.164C202.076 190.559 201.963 190.477 200.802 190.853C199.935 191.135 199.04 191.366 198.814 191.366C198.587 191.366 198.682 191.819 199.025 192.374C199.457 193.073 199.157 193.194 198.047 192.768C196.489 192.17 196.489 192.201 198.039 193.913C199.783 195.84 201.562 196.32 200.57 194.596C200.21 193.971 200.28 193.821 200.735 194.237C201.167 194.632 201.526 195.214 201.533 195.53C201.54 195.847 201.89 196.649 202.312 197.314C203.174 198.677 202.366 198.3 198.131 195.361C195.826 193.763 195.656 193.746 196.201 195.167C196.649 196.334 196.473 196.601 195.498 196.227C193.765 195.563 193.84 197.366 195.65 199.952C196.674 201.413 196.804 202.128 196.089 202.367C195.487 202.567 196.511 204.413 198.598 206.887C200.536 209.187 201.884 211.454 201.592 211.928C201.299 212.4 201.387 212.989 201.787 213.236C204.578 214.961 200.843 232.723 197.69 232.723C196.288 232.723 196.613 234.958 198.206 236.279C201.906 239.348 206.445 261.157 203.383 261.157C202.953 261.157 203.079 261.734 203.665 262.438C204.527 263.477 204.465 263.822 203.339 264.254C202.539 264.561 201.951 265.767 201.951 267.098C201.951 268.369 201.168 270.942 200.213 272.817C199.169 274.862 198.832 276.344 199.368 276.523C203.02 277.741 203.792 292.175 200.206 292.175C198.939 292.175 198.833 295.161 200.067 296.105C202.437 297.916 202.313 304.271 199.81 309.237C197.086 314.639 197.86 316.816 202.199 315.949C204.119 315.565 205.071 315.897 206.311 317.382C208.716 320.264 208.319 320.788 205.182 318.875C201.59 316.685 200.395 316.69 202.381 318.885C204.244 320.942 203.109 321.151 200.396 319.251C199.331 318.504 197.985 318.091 197.404 318.331C196.786 318.588 197.151 319.013 198.289 319.358C200.376 319.993 200.946 321.47 199.104 321.47C198.486 321.47 196.664 320.112 195.058 318.454C192.236 315.544 189.888 314.55 189.888 316.267C189.888 317.568 183.534 318.945 180.311 318.343C176.56 317.64 172.413 315.178 167.207 310.562C163.169 306.98 158.567 305.231 155.888 306.259C154.268 306.88 153.119 305.128 154.561 304.238C156.388 303.108 154.626 301.652 151.432 301.652C149.015 301.652 148.462 301.349 148.693 300.148C149.462 296.159 160.366 300.023 167.937 306.967C183.483 321.225 192.39 317.091 194.699 294.549C196.25 279.415 191.439 270.67 181.436 270.442C178.976 270.386 176.963 270.019 176.963 269.625C176.963 269.233 176.236 268.911 175.347 268.911C171.945 268.911 164.056 264.527 158.947 259.798L153.623 254.868L148.983 255.982C135.354 259.251 117.512 253.061 117.512 245.061C117.512 244.435 117.196 243.925 116.809 243.925C116.422 243.925 115.005 240.338 113.659 235.954C112.312 231.57 110.787 227.403 110.269 226.692C109.751 225.981 108.444 223.654 107.364 221.523C104.854 216.56 95.6773 206.422 94.4071 207.207C90.6524 209.528 91.4836 226.635 95.5472 230.699C96.2543 231.406 96.8337 232.382 96.8337 232.866C96.8337 234.134 106.863 247.857 111.69 253.195C113.944 255.688 115.789 258.112 115.789 258.58C115.789 260.092 113.252 259.487 112.142 257.709C110.661 255.339 110.061 255.544 109.445 258.629C109.136 260.169 108.538 261.037 108.01 260.711C107.51 260.402 107.317 259.474 107.579 258.648C108.159 256.82 103.847 248.408 97.1889 238.382C93.7302 233.172 92.9268 232.685 92.099 235.294C91.5394 237.056 93.8115 247.374 94.9412 248.2C95.7167 248.766 97.6951 253.164 97.6951 254.32C97.6951 254.784 96.7315 254.916 95.5403 254.618C91.0169 253.482 94.8193 264.345 101.331 271.163C103.943 273.898 104.421 274.822 103.422 275.205C102.711 275.478 101.669 275.147 101.106 274.47C98.8236 271.72 97.5419 276.567 99.5423 280.384C101.39 283.907 105.59 288.729 106.814 288.729C108.723 288.729 108.248 286.279 105.88 283.91C103.393 281.423 103.254 280.974 104.975 280.974C106.215 280.974 110.592 286.022 110.649 287.516C110.664 287.946 111.427 289.848 112.343 291.744C113.258 293.64 114.02 295.877 114.037 296.718C114.084 299.241 120.589 305.577 124.259 306.677C126.847 307.452 128.294 308.718 130.654 312.273C133.99 317.296 140.379 321.969 145.144 322.872L148.099 323.432L145.861 320.942C143.185 317.966 140.775 314.45 140.775 313.523C140.775 311.924 143.386 313.057 144.692 315.223C148.766 321.973 170.07 332.995 170.07 328.352C170.07 326.254 148.938 308.562 146.4 308.536C144.909 308.521 137.684 301.392 136.148 298.421C134.449 295.134 133.848 295.003 131.648 297.433C129.146 300.197 125.506 301.876 124.732 300.623C124.385 300.06 124.571 299.443 125.145 299.251C131.381 297.173 134.06 290.084 131.349 282.834C127.772 273.268 122.035 269.863 114.407 272.776C112.266 273.595 110.247 273.995 109.921 273.667C109.325 273.07 112.344 270.202 114.229 269.574C115.768 269.062 114.19 267.188 112.22 267.188C111.209 267.188 110.624 266.734 110.83 266.111C111.468 264.174 114.636 264.469 117.303 266.712C118.739 267.922 120.563 268.911 121.355 268.911C123.494 268.911 126.13 270.488 130.202 274.203C133.809 277.495 133.913 277.527 140.911 277.527C147.574 277.527 153.47 278.761 154.664 280.408C155.899 282.106 158.448 280.464 158.87 277.699C159.512 273.488 160.77 273.963 161.866 278.832C163.95 288.087 173.188 296.253 184.287 298.653C188.652 299.596 189.014 299.819 188.475 301.226C188.059 302.308 187.179 302.472 184.181 302.022L180.41 301.457V304.837C180.41 309.195 178.363 312.461 177.445 309.568C177.116 308.531 177.087 306.928 177.381 306.003C178.118 303.678 175.814 299.584 172.452 297.251C170.906 296.177 167.086 292.947 163.965 290.074C154.598 281.452 140.29 277.135 136.17 281.688C134.69 283.324 134.199 289.455 135.43 290.925C135.807 291.376 136.641 293.295 137.281 295.19C138.389 298.468 145.101 305.961 146.93 305.961C147.403 305.961 150.235 307.706 153.224 309.837C156.212 311.97 158.899 313.715 159.195 313.715C159.906 313.715 161.521 315.079 169.209 322.173C172.762 325.453 176.518 328.575 177.553 329.111C181.807 331.314 194.196 329.084 194.196 326.115C194.196 325.319 195.21 324.915 197.211 324.915C198.87 324.915 200.226 324.528 200.226 324.054C200.226 323.58 201.16 323.192 202.3 323.192C203.899 323.192 204.277 323.561 203.953 324.798C203.002 328.436 211.507 331.812 214.012 328.793C214.697 327.968 216.604 327.501 219.288 327.501C221.786 327.501 223.491 327.114 223.491 326.547C223.491 326.022 224.093 325.825 224.829 326.107C225.564 326.389 227.103 326.006 228.249 325.254C230.186 323.987 230.489 324.012 232.526 325.614C234.693 327.319 239.862 326.693 239.862 324.727C239.862 324.357 241.2 324.054 242.836 324.054C245.958 324.054 250.189 322.549 251.264 321.056C251.612 320.572 251.904 320.528 251.911 320.956C251.918 321.386 252.603 321.156 253.432 320.447C255.151 318.977 264.855 313.065 268.726 311.131C280.567 305.209 283.553 300.649 281.772 291.212L281.184 288.095L285.261 287.635C290.144 287.085 295.866 281.833 295.866 277.902C295.866 276.424 297.202 274.14 299.68 271.384C301.778 269.052 303.761 265.892 304.087 264.364C304.415 262.838 305.067 261.108 305.54 260.521C306.012 259.935 306.178 258.881 305.909 258.18C305.639 257.477 305.79 256.674 306.243 256.394C307.165 255.824 307.389 244.533 306.496 243.64C304.628 241.772 304.757 226.358 306.637 226.982C307.652 227.318 307.263 232.465 306.049 234.735C305.028 236.648 305.839 237.742 307.241 236.341C308.755 234.827 309.073 225.789 307.703 223.246C306.729 221.437 306.731 220.47 307.72 217.214C309.553 211.18 306.949 199.244 303.766 199.093C300.961 198.959 300.127 196.672 301.799 193.695C302.733 192.03 303.293 190.463 303.041 190.211C302.789 189.96 303.205 188.866 303.964 187.783C304.722 186.699 305.343 186.263 305.343 186.815C305.343 187.366 304.956 188.057 304.482 188.35C304.008 188.642 303.62 189.308 303.62 189.827C303.62 190.346 304.396 190.069 305.343 189.211C307.292 187.449 307.563 185.313 306.033 183.783C305.464 183.215 305.339 182.749 305.752 182.749C306.167 182.749 305.617 181.804 304.531 180.648C300.971 176.858 298.081 166.884 299.788 164.278C301.17 162.17 301.115 161.978 297.899 157.598C294.848 153.441 294.611 152.709 294.867 148.251C295.159 143.192 291.657 134.73 288.237 132.227C287.136 131.422 286.883 130.064 287.103 126.154C287.514 118.839 281.628 112.71 274.675 113.213C272.352 113.38 272.234 113.221 272.471 110.235C272.972 103.929 267.783 98.3111 261.458 98.3111C258.793 98.3111 257.955 97.9744 257.955 96.9051C257.955 92.5199 248.576 83.5858 242.177 81.8756C238.198 80.811 236.204 79.5327 236.863 78.4657C237.494 77.444 231.71 71.6017 230.066 71.6017C227.888 71.6017 228.408 73.0739 230.799 73.6742C232.866 74.1931 236.195 79.0009 235.186 80.0099C234.914 80.2816 234.692 80.1051 234.692 79.6163C234.692 77.8875 230.116 74.185 227.896 74.1177C226.658 74.0805 226.129 73.8541 226.721 73.6149C228.955 72.714 227.675 71.5646 224.567 71.6807C222.791 71.7469 219.979 71.5855 218.321 71.3208C216.662 71.056 214.054 71.1547 212.526 71.5379ZM224.365 75.2636C227.338 77.2826 230.792 82.8695 230.188 84.6795C229.996 85.2554 229.004 84.0015 227.981 81.8942C226.959 79.787 225.24 77.5148 224.161 76.8449C221.877 75.4261 211.428 74.7528 211.428 76.0241C211.428 76.4908 211.04 76.6325 210.567 76.3399C209.235 75.5167 209.545 74.3545 211.212 73.918C215.59 72.7744 221.608 73.3897 224.365 75.2636ZM231.246 78.165C231.246 78.8756 230.858 79.2181 230.383 78.9255C229.909 78.6317 229.521 77.8109 229.521 77.1003C229.521 76.3886 229.909 76.0473 230.383 76.3399C230.858 76.6325 231.246 77.4545 231.246 78.165ZM223.298 79.8357C226.014 81.7375 225.678 82.9426 222.844 81.4635C221.541 80.7843 219.967 80.2258 219.347 80.2223C218.726 80.22 218.459 79.8299 218.752 79.3562C219.513 78.1232 221.092 78.2904 223.298 79.8357ZM217.098 81.9407C220.164 81.9407 219.696 84.0119 215.735 87.9722C210.713 92.9948 207.667 92.4491 210.058 86.954C210.742 85.3819 211.528 83.3757 211.803 82.498C212.123 81.4774 212.793 81.0885 213.66 81.4205C214.405 81.7061 215.953 81.9407 217.098 81.9407ZM240.497 83.9121C240.361 84.3208 239.968 84.6261 239.625 84.5901C239.281 84.5541 238.395 84.5251 237.657 84.5251C236.917 84.5251 236.538 84.1629 236.812 83.7182C237.432 82.7151 240.836 82.8939 240.497 83.9121ZM224.706 84.8688C230.499 87.2883 227.752 90.8155 219.935 90.9932C214.992 91.1046 214.978 91.0826 218.321 88.2706C219.742 87.0747 220.906 85.548 220.906 84.8792C220.906 83.3757 221.131 83.3745 224.706 84.8688ZM249.059 87.5983C250.569 88.7489 252.69 90.9525 253.772 92.4932L255.74 95.2959L252.663 92.7103C247.031 87.9803 245.892 87.1235 245.892 87.6111C245.892 87.877 245.261 87.4637 244.489 86.6916C243.717 85.9195 242.574 85.4841 241.948 85.7244C241.24 85.9961 240.984 85.7082 241.271 84.9616C241.847 83.4593 245.058 84.546 249.059 87.5983ZM236.414 88.0778C236.414 89.6058 236.202 89.73 235.122 88.8337C234.412 88.2439 233.83 87.4207 233.83 87.0051C233.83 86.5894 234.412 86.2492 235.122 86.2492C235.865 86.2492 236.414 87.026 236.414 88.0778ZM239.848 89.4792C239.837 91.3264 239.65 91.5644 239 90.5566C237.91 88.8708 237.91 87.1107 239 87.1107C239.474 87.1107 239.856 88.1765 239.848 89.4792ZM232.322 89.1715C234.512 90.833 234.181 91.4727 231.246 91.2486C229.823 91.1406 228.66 90.9723 228.66 90.8748C228.66 88.3309 230.245 87.5937 232.322 89.1715ZM245.465 91.2718C245.2 91.5365 244.121 90.8562 243.068 89.759L241.154 87.7644L243.55 89.2772C244.868 90.1096 245.729 91.0071 245.465 91.2718ZM135.317 90.4556C126.646 96.1725 120.449 114.214 128.163 111.281C130.092 110.547 130.436 109.899 130.436 106.999C130.436 103.748 132.11 101.178 132.827 103.328C133.348 104.891 134.74 104.538 136.471 102.404C138.437 99.9795 139.672 101.006 138.331 103.949C137.78 105.158 137.329 109.397 137.329 113.368C137.329 117.977 136.938 121.002 136.249 121.729C134.476 123.597 130.413 133.387 129.945 136.914C129.732 138.52 130.041 138.847 131.567 138.637C133.084 138.427 133.508 138.866 133.738 140.886C134.361 146.354 128.403 153.247 120.22 156.521C117.84 157.474 116.353 158.803 115.383 160.845C112.864 166.154 111.546 163.946 113.773 158.145C114.259 156.874 113.995 156.732 112.054 157.219C110.333 157.651 109.757 157.472 109.757 156.506C109.757 154.216 113.532 152.543 118.317 152.712C122.504 152.86 123.045 152.636 126.277 149.403L129.745 145.935L128.833 141.293C127.669 135.376 127.974 132.517 130.337 127.188C134.309 118.231 133.955 113.82 129.263 113.82C126.673 113.82 121.813 116.278 121.249 117.874C120.948 118.724 120.026 120.196 119.2 121.144C116.981 123.69 116.224 128.119 117.898 128.762C120.154 129.627 119.418 131.368 114.927 135.791C112.557 138.125 110.619 140.334 110.619 140.7C110.619 141.067 109.483 143.214 108.094 145.472C103.486 152.963 102.364 173.62 106.165 180.945C108.872 186.161 119.041 189.698 117.147 184.766C116.904 184.131 117.08 183.612 117.539 183.612C117.998 183.612 118.373 183.105 118.373 182.488C118.373 181.869 119.536 179.529 120.959 177.288C124.024 172.454 124.176 170.134 121.703 165.942C119.246 161.78 120.773 159.902 123.499 163.733L125.39 166.388L127.979 163.799C130.567 161.21 133.021 160.397 133.021 162.127C133.021 162.631 131.854 164.025 130.428 165.226C128.797 166.598 127.478 168.82 126.876 171.212C126.349 173.305 124.705 176.848 123.223 179.085C117.285 188.049 120.406 199.078 131.382 207.915L134.483 210.412L138.064 208.979C144.792 206.286 146.541 181.992 140.182 179.552C138.679 178.976 138.73 176.719 140.246 176.719C141.649 176.719 143.914 179.934 144.691 183.028C145.686 186.99 148.327 188.594 149.06 185.678C150.158 181.302 148.013 174.362 143.601 168.017C138.649 160.896 137.424 158.63 137.125 156.041C136.744 152.741 138.7 153.199 139.781 156.662C140.698 159.604 144.295 164.656 145.474 164.656C145.733 164.656 145.945 163.267 145.945 161.57C145.945 159.872 146.955 155.558 148.188 151.984C150.709 144.682 150.29 142.018 146.386 140.534C143.601 139.475 143.595 137.945 146.376 137.945C148.186 137.945 148.531 137.54 148.531 135.409C148.531 133.826 149.196 132.407 150.306 131.63C153.456 129.424 153.676 121.498 150.654 119.12C148.226 117.21 145.353 117.297 144.02 119.321C143.392 120.274 143.255 119.967 143.016 117.091C142.968 116.519 143.899 115.825 145.084 115.547C147.151 115.061 147.262 114.696 147.827 106.46C148.151 101.742 148.687 96.5649 149.019 94.9558C150.155 89.4595 141.258 86.5383 135.317 90.4556ZM236.574 96.2782C240.314 96.6334 241.36 97.0305 241.004 97.9582C240.657 98.8649 241.327 99.1726 243.647 99.1726H246.755V106.427C246.755 115.653 246.45 116.406 242.721 116.406C240.343 116.406 239.794 116.712 240.024 117.909C240.274 119.206 246.208 119.77 247.411 118.612C247.957 118.086 249.545 99.0913 249.081 98.6281C248.797 98.3436 247.285 97.8084 245.721 97.438L242.877 96.7646L245.943 96.6764C250.901 96.5336 251.652 97.7411 252.249 106.797C252.54 111.226 252.55 116.268 252.272 117.997L251.766 121.144L232.994 121.446C219.963 121.656 214.043 121.458 213.635 120.8C213.242 120.162 214.358 119.852 217.05 119.852C219.877 119.852 220.938 119.536 220.67 118.774C220.416 118.052 218.761 117.773 215.644 117.928C207.14 118.349 207.433 118.753 208.343 107.827C209.35 95.729 210.68 95.3819 210.136 107.358L209.725 116.406H213.664C216.439 116.406 217.493 116.088 217.23 115.328C217.015 114.706 215.769 114.358 214.278 114.504L211.699 114.756L211.735 105.456L211.771 96.1574L212.583 104.173C213.389 112.127 213.412 112.187 215.643 111.928C218.015 111.651 218.877 109.082 216.598 109.082C215.809 109.082 215.073 107.907 214.709 106.066C213.814 101.541 213.9 96.5882 214.874 96.5882C215.349 96.5882 215.735 98.7302 215.735 101.348C215.735 106.102 218.271 108.987 220.977 107.314C222.415 106.426 221.798 105.245 219.613 104.697C217.729 104.223 217.46 103.687 217.46 100.411V96.6671L223.275 96.4117C226.474 96.2724 229.672 96.0796 230.383 95.9844C231.095 95.8892 233.88 96.0216 236.574 96.2782ZM207.071 99.3886C206.993 103.726 205.626 109.884 205.493 106.496C205.436 105.075 204.587 102.595 203.606 100.986C201.716 97.885 202.29 96.63 205.612 96.6009C206.751 96.5916 207.108 97.272 207.071 99.3886ZM230.271 98.0963C230.21 98.4516 230.249 101.94 230.359 105.851C230.492 110.573 230.24 112.959 229.61 112.959C229.023 112.959 228.66 110.971 228.66 107.762C228.66 103.097 227.227 100.244 225.698 101.866C224.355 103.292 226.47 114.618 228.127 114.873C229.131 115.028 229.869 115.592 229.765 116.127C229.441 117.805 231.878 119.119 234.784 118.833C238.775 118.441 239.119 116.406 235.194 116.406H232.107V108.651C232.107 104.386 232.112 100.605 232.116 100.25C232.122 99.8948 233.289 99.5813 234.709 99.5534C239.665 99.4571 239.813 97.4496 234.863 97.4496C232.4 97.4496 230.333 97.7399 230.271 98.0963ZM257.869 104.127C257.917 105.667 257.665 106.924 257.309 106.92C256.953 106.917 256.607 104.686 256.539 101.966C256.449 98.4249 256.609 97.6308 257.099 99.1726C257.475 100.358 257.821 102.587 257.869 104.127ZM268.653 102.54C271.286 105.449 268.864 104.605 266.087 101.646C264.28 99.7206 264.052 99.2051 265.288 99.8425C266.241 100.335 267.755 101.548 268.653 102.54ZM237.276 101.286C237.276 102.05 238.149 103.026 239.215 103.454C241.059 104.195 241.034 104.236 238.712 104.288C235.698 104.355 236.037 106.489 239.066 106.514C240.249 106.523 241.248 107.107 241.396 107.878C241.557 108.714 241.069 109.198 240.112 109.154C237.69 109.04 237.829 110.772 240.266 111.078C242.521 111.36 243.116 112.443 241.546 113.413C241.052 113.719 240.066 113.487 239.357 112.897C238.438 112.135 237.798 112.092 237.142 112.747C234.904 114.987 239.095 116.475 242.503 114.651C244.217 113.734 245.094 102.404 243.523 101.48C241.19 100.106 237.276 99.9853 237.276 101.286ZM264.379 105.143C264.651 105.581 264.092 106.19 263.138 106.493C262.182 106.796 261.402 107.599 261.402 108.277C261.402 109.578 260.366 109.912 259.383 108.93C258.769 108.316 262.095 104.343 263.224 104.343C263.587 104.343 264.107 104.703 264.379 105.143ZM270.88 107.84C270.88 108.759 270.492 109.513 270.018 109.513C269.544 109.513 269.157 108.52 269.157 107.308C269.157 106.056 269.529 105.333 270.018 105.635C270.492 105.927 270.88 106.92 270.88 107.84ZM268.294 109.513C268.294 110.536 266.797 110.536 264.417 109.513C262.973 108.892 263.147 108.762 265.495 108.712C267.034 108.678 268.294 109.038 268.294 109.513ZM263.125 111.663C264.912 111.932 267.387 112.837 270.516 114.362C274.169 116.143 280.543 126.745 277.961 126.745C277.591 126.745 276.801 125.679 276.204 124.375C273.97 119.495 273.023 118.129 271.876 118.129C271.158 118.129 270.898 117.599 271.213 116.78C271.602 115.764 271.331 115.558 270.114 115.944C269.097 116.266 268.311 115.968 267.993 115.138C267.715 114.413 267.064 113.82 266.548 113.82C266.031 113.82 265.848 114.208 266.14 114.682C266.917 115.939 266.129 115.75 262.802 113.882C261.176 112.967 259.667 112.396 259.453 112.61C259.238 112.825 258.523 112.346 257.862 111.544C256.767 110.215 256.889 110.149 259.247 110.778C260.669 111.158 262.414 111.556 263.125 111.663ZM205.997 115.963C205.639 118.161 205.869 119.169 206.854 119.719C207.937 120.326 207.739 120.588 205.834 121.065C203.34 121.692 201.787 121.036 203.359 120.02C203.869 119.69 204.554 117.967 204.881 116.19C205.63 112.113 206.655 111.904 205.997 115.963ZM279.809 115.87C284.967 118.025 287.63 123.371 285.851 128.003C285.36 129.285 285.176 129.279 283.69 127.935C282.217 126.601 282.19 126.328 283.404 124.988C284.613 123.65 284.605 123.459 283.313 122.963C282.155 122.52 282.087 122.174 282.951 121.133C283.818 120.088 283.756 119.852 282.616 119.852C281.848 119.852 281.218 119.489 281.218 119.046C281.218 118.602 279.861 117.749 278.203 117.15C276.544 116.55 275.187 115.75 275.187 115.37C275.187 114.37 276.582 114.521 279.809 115.87ZM263.807 120.401C262.9 121.308 261.835 121.582 260.823 121.169C259.333 120.563 259.341 120.49 260.971 119.82C264.113 118.528 265.413 118.794 263.807 120.401ZM281.054 123.842C280.807 125.036 280.444 124.672 279.648 122.437C278.655 119.65 278.679 119.529 279.98 120.828C280.752 121.6 281.235 122.957 281.054 123.842ZM267.432 121.103C267.432 122.203 265.336 125.883 264.71 125.883C263.761 125.883 263.794 125.524 264.986 122.907C265.837 121.041 267.432 119.863 267.432 121.103ZM272.073 122.837C273.815 125.494 273.811 125.883 272.051 125.883C270.307 125.883 268.335 123.334 268.914 121.827C269.552 120.16 270.523 120.472 272.073 122.837ZM242.446 123.298C242.446 123.772 241.864 124.16 241.154 124.16C240.443 124.16 239.862 123.772 239.862 123.298C239.862 122.824 240.443 122.436 241.154 122.436C241.864 122.436 242.446 122.824 242.446 123.298ZM218.321 124.16C218.321 124.634 217.739 125.022 217.029 125.022C216.317 125.022 215.735 124.634 215.735 124.16C215.735 123.685 216.317 123.298 217.029 123.298C217.739 123.298 218.321 123.685 218.321 124.16ZM227.614 124.896C227.895 125.74 227.497 125.903 226.178 125.485C225.12 125.149 224.353 125.281 224.353 125.798C224.353 126.288 223.707 126.443 222.919 126.14C221.954 125.771 221.689 125.92 222.107 126.598C222.5 127.232 222.126 127.606 221.101 127.606C218.384 127.606 218.193 126.54 220.644 125.057C223.437 123.368 227.076 123.285 227.614 124.896ZM235.553 125.123C235.553 125.541 234.584 125.883 233.399 125.883C232.214 125.883 230.963 125.912 230.621 125.947C230.277 125.983 229.884 125.678 229.748 125.268C229.611 124.859 230.861 124.488 232.526 124.443C234.191 124.399 235.553 124.705 235.553 125.123ZM241.585 126.871C241.585 127.187 240.809 127.242 239.862 126.994C238.913 126.746 238.137 126.004 238.137 125.344C238.137 124.361 238.447 124.339 239.862 125.221C240.809 125.813 241.585 126.555 241.585 126.871ZM254.711 125.163C253.947 125.927 254.06 126.456 255.185 127.372C256.266 128.253 256.374 128.696 255.585 129.025C253.956 129.703 254.297 131.163 256.016 130.874C256.846 130.736 257.443 131.061 257.343 131.598C257.243 132.134 257.825 132.522 258.635 132.459C259.446 132.397 260.01 132.838 259.888 133.44C259.734 134.203 260.325 134.37 261.836 133.991C263.666 133.531 263.913 133.686 263.415 134.983C262.958 136.177 263.149 136.397 264.267 135.968C265.06 135.664 265.709 135.775 265.709 136.215C265.709 136.655 264.454 136.934 262.922 136.834C256.568 136.422 248.734 124.16 254.825 124.16C255.372 124.16 255.329 124.546 254.711 125.163ZM260.539 128.143C260.539 130.054 260.341 130.237 259.247 129.329C258.537 128.739 257.955 127.722 257.955 127.07C257.955 126.417 258.537 125.883 259.247 125.883C260.068 125.883 260.539 126.709 260.539 128.143ZM269.47 128.032C269.198 128.74 268.628 129.105 268.205 128.843C266.988 128.091 267.305 126.745 268.698 126.745C269.467 126.745 269.77 127.25 269.47 128.032ZM241.63 130.741C242.633 133.38 242.375 133.887 240.415 133.135C238.889 132.549 238.423 128.468 239.882 128.468C240.368 128.468 241.155 129.49 241.63 130.741ZM250.898 132.129C251.2 135.775 250.14 136.302 248.296 133.422C245.704 129.37 245.697 128.331 248.267 128.627C250.318 128.862 250.667 129.327 250.898 132.129ZM264.848 131.263C264.848 131.744 264.277 131.651 263.556 131.052C262.845 130.462 262.264 129.593 262.264 129.119C262.264 128.638 262.835 128.731 263.556 129.329C264.266 129.919 264.848 130.79 264.848 131.263ZM282.05 129.472C283.713 129.662 291.568 137.547 291.523 138.982C291.504 139.596 290.437 138.897 289.154 137.428C285.871 133.672 282.424 131.646 278.376 131.096C276.463 130.835 274.72 130.09 274.504 129.438C274.197 128.513 274.84 128.371 277.45 128.79C279.285 129.085 281.355 129.392 282.05 129.472ZM236.217 130.892C236.427 131.521 236.034 131.714 235.194 131.392C234.444 131.104 233.83 130.49 233.83 130.027C233.83 128.895 235.789 129.604 236.217 130.892ZM230.47 131.062C232.176 131.536 234.271 132.697 235.127 133.642C236.643 135.318 235.847 136.136 234.218 134.577C233.045 133.455 224.985 131.235 223.706 131.682C223.114 131.889 222.628 131.638 222.628 131.124C222.628 129.958 226.387 129.928 230.47 131.062ZM274.325 130.842C274.325 131.201 273.186 131.998 271.794 132.614C270.402 133.23 269.09 134.391 268.879 135.193C268.528 136.524 268.485 136.519 268.395 135.146C268.274 133.338 271.221 130.191 273.033 130.191C273.744 130.191 274.325 130.484 274.325 130.842ZM279.496 133.935C279.496 134.572 278.747 135.77 277.832 136.599C276.23 138.048 276.185 138.03 276.615 136.086C276.969 134.479 276.872 134.332 276.137 135.361C275.11 136.798 274.911 136.224 275.711 134.139C276.346 132.481 279.496 132.312 279.496 133.935ZM241.154 135.361C241.446 135.834 242.391 136.222 243.253 136.222C244.114 136.222 245.329 136.835 245.95 137.584C246.96 138.801 246.717 138.881 243.686 138.333C239.495 137.575 239 137.301 239 135.74C239 134.319 240.361 134.079 241.154 135.361ZM286.582 137.3C287.687 140.441 285.953 141.996 284.559 139.113C283.244 136.396 283.251 136.222 284.682 136.222C285.519 136.222 286.375 136.707 286.582 137.3ZM254.509 138.808C253.5 139.459 253.73 139.645 255.559 139.655C257.392 139.666 257.781 139.981 257.348 141.111C256.929 142.204 257.143 142.418 258.236 141.999C259.034 141.693 259.678 141.86 259.678 142.373C259.678 142.883 260.228 143.088 260.899 142.831C261.572 142.573 262.334 142.92 262.596 143.6C263.261 145.334 259.773 145.22 257.07 143.42C253.008 140.715 251.595 137.935 254.293 137.959C255.582 137.969 255.613 138.094 254.509 138.808ZM208.68 141.127C208.851 142.321 208.305 143.343 207.172 143.949C205.531 144.826 205.397 144.663 205.397 141.79C205.397 138.247 208.188 137.683 208.68 141.127ZM232.107 140.55C232.765 140.783 228.436 142.07 226.671 142.168C225.813 142.215 225.342 141.883 225.622 141.429C225.901 140.976 226.7 140.824 227.396 141.091C228.091 141.358 228.66 141.182 228.66 140.699C228.66 139.968 230.258 139.899 232.107 140.55ZM237.923 140.262C237.094 140.48 235.736 140.48 234.907 140.262C234.077 140.047 234.757 139.869 236.414 139.869C238.074 139.869 238.752 140.047 237.923 140.262ZM285.705 148.779C296.441 162.606 296.401 162.382 289.08 168.314C286.889 170.088 281.93 174.174 278.062 177.391C274.193 180.608 269.929 183.793 268.584 184.469C267.24 185.143 264.344 186.972 262.147 188.531C255.857 192.997 253.167 192.374 251.105 185.973C249.493 180.97 250.389 180.541 253.429 184.856C256.896 189.774 257.383 189.752 264.092 184.384C267.114 181.965 270.943 179.26 272.602 178.372C277.194 175.913 279.744 173.439 279.184 171.982C278.604 170.468 276.911 170.235 276.911 171.669C276.911 172.823 275.556 173.977 269.154 178.274C266.547 180.025 263.021 182.524 261.318 183.826C259.616 185.129 257.873 186.194 257.443 186.19C256.645 186.184 252.785 180.968 252.785 179.896C252.785 178.572 255.373 179.42 256.232 181.026C257.513 183.419 257.633 183.374 265.318 177.607C269.088 174.779 272.947 171.904 273.895 171.22C275.307 170.199 275.417 169.768 274.508 168.833C273.592 167.891 273.017 168.178 271.215 170.482C270.013 172.017 268.648 173.272 268.18 173.272C267.712 173.272 265.328 174.798 262.881 176.664C257.407 180.838 253.837 179.419 257.471 174.514C258.653 172.917 258.763 172.912 259.85 174.377C260.906 175.801 261.377 175.599 266.369 171.576C269.328 169.192 272.136 167.24 272.607 167.24C273.738 167.24 273.697 166.095 272.525 164.921C271.846 164.243 270.709 164.928 268.432 167.389C265.253 170.823 260.754 173.773 259.939 172.958C258.916 171.935 261.208 167.656 262.915 167.404C263.909 167.257 265.186 166.578 265.752 165.897C266.319 165.214 267.275 164.656 267.877 164.656C269.549 164.656 270.189 162.083 268.662 161.496C267.9 161.204 266.61 161.767 265.628 162.821C263.396 165.218 262.264 165.143 262.264 162.601C262.264 161.342 263.125 159.98 264.489 159.087C266.543 157.742 266.61 157.511 265.352 156.12C264.601 155.29 263.987 153.964 263.987 153.172C263.987 151.473 262.221 151.284 260.604 152.809C259.885 153.488 259.583 153.527 259.786 152.916C260.231 151.584 271.767 142.854 272.334 143.422C272.586 143.672 271.021 145.127 268.856 146.653C266.692 148.179 265.121 149.752 265.366 150.149C266.19 151.483 267.637 150.886 271.05 147.802C272.917 146.115 274.879 144.879 275.409 145.056C276.53 145.429 277.428 147.57 276.346 147.288C275.041 146.948 269.157 151.008 269.157 152.248C269.157 153.804 271.654 153.823 272.25 152.271C273.039 150.212 278.448 147.755 279.616 148.923C280.783 150.091 279.224 152.593 277.328 152.593C276.726 152.593 276.01 153.174 275.737 153.886C275.464 154.596 274.619 155.178 273.859 155.178C273.031 155.178 272.589 155.754 272.755 156.614C273.171 158.76 274.962 158.97 275.604 156.949C275.913 155.975 276.599 155.178 277.128 155.178C277.659 155.178 278.931 154.39 279.956 153.426C281.632 151.852 281.935 151.811 282.94 153.022C284.284 154.641 282.298 156.585 278.418 157.45C275.567 158.085 275.03 161.21 277.773 161.21C278.72 161.21 279.498 160.918 279.501 160.563C279.505 160.208 280.892 158.974 282.584 157.821C287.244 154.646 288.259 157.114 283.77 160.703C281.942 162.166 280.425 163.848 280.401 164.44C280.336 166.036 280.976 165.793 284.671 162.824C286.654 161.231 288.57 160.339 289.361 160.642C291.307 161.39 290.999 162.518 288.542 163.637C287.358 164.177 286.388 164.973 286.388 165.406C286.388 165.838 285.419 166.435 284.235 166.733C281.829 167.336 281.294 168.964 283.5 168.964C285.257 168.964 292.426 163.193 292.401 161.797C292.392 161.238 289.969 158.207 287.017 155.064C284.065 151.923 280.567 147.948 279.244 146.234C277.871 144.455 276.082 143.115 275.079 143.115C274.055 143.115 273.471 142.666 273.68 142.038C273.877 141.446 274.459 140.961 274.972 140.961C275.485 140.961 276.204 140.662 276.57 140.297C277.81 139.057 279.055 140.215 285.705 148.779ZM242.446 141.392C242.446 141.866 241.864 142.254 241.154 142.254C240.443 142.254 239.862 141.866 239.862 141.392C239.862 140.918 240.443 140.531 241.154 140.531C241.864 140.531 242.446 140.918 242.446 141.392ZM290.669 145.126C290.718 147.964 288.55 146.087 288.269 143.049C288.01 140.24 288.06 140.182 289.319 141.823C290.047 142.77 290.654 144.256 290.669 145.126ZM221.603 145.485C217.328 149.941 215.172 154.757 214.955 160.327C214.696 166.988 214.012 166.917 214.012 160.23C214.012 153.512 216.819 147.169 221.105 144.193C225.045 141.457 225.165 141.771 221.603 145.485ZM249.462 146.439C251.763 148.74 253.648 151.125 253.648 151.738C253.648 152.35 252.473 151.23 251.036 149.248C249.6 147.265 247.177 144.882 245.652 143.951C244.125 143.021 243.417 142.258 244.077 142.257C244.737 142.255 247.16 144.137 249.462 146.439ZM241.841 144.28C245.886 145.97 250.58 151.528 249.283 153.092C248.733 153.755 247.939 154.084 247.519 153.826C247.098 153.565 246.755 153.958 246.755 154.696C246.755 156.252 247.906 156.405 250.236 155.158C255.267 152.466 254.216 166.236 249.016 171.148C244.196 175.702 243.752 175.788 242.575 172.41C242.079 170.989 241.266 169.826 240.767 169.826C239.483 169.826 239.692 171.683 241.2 173.678C242.419 175.291 242.252 175.454 237.942 176.885C232.899 178.559 230.383 178.826 230.383 177.687C230.383 177.272 229.252 176.707 227.869 176.431C216.593 174.176 213.417 156.4 222.741 147.744C227.576 143.257 235.817 141.763 241.841 144.28ZM237.851 144.551C237.535 144.867 237.276 145.869 237.276 146.777C237.276 149.012 239.358 148.215 239.706 145.848C239.972 144.037 239.027 143.375 237.851 144.551ZM230.722 146.201C231.01 146.951 231.246 147.921 231.246 148.355C231.246 148.79 231.826 149.147 232.538 149.147C233.248 149.147 233.83 148.79 233.83 148.355C233.83 146.54 232.698 144.838 231.492 144.838C230.667 144.838 230.389 145.331 230.722 146.201ZM257.773 146.186C258.876 146.958 260.428 147.302 261.41 146.989C263.957 146.181 263.473 147.686 260.784 148.934C258.847 149.835 258.342 149.806 257.756 148.762C257.371 148.073 256.455 146.908 255.72 146.173C253.99 144.443 255.296 144.451 257.773 146.186ZM293.013 148.931C292.797 149.761 292.62 149.082 292.62 147.424C292.62 145.765 292.797 145.087 293.013 145.915C293.23 146.744 293.23 148.102 293.013 148.931ZM223.706 149.361C223.903 149.955 224.795 150.58 225.689 150.753C227.094 151.026 227.158 150.881 226.158 149.677C224.791 148.03 223.194 147.825 223.706 149.361ZM244.169 149.577C243.273 150.657 243.398 150.87 244.926 150.87C245.977 150.87 246.755 150.32 246.755 149.577C246.755 148.867 246.414 148.285 245.998 148.285C245.582 148.285 244.759 148.867 244.169 149.577ZM220.906 153.051C220.906 153.777 221.585 154.59 222.414 154.858C230.979 157.626 236.633 163.683 232.839 166.028C231.687 166.74 231.983 169.511 233.33 170.629C235.108 172.106 236.323 169.497 235.77 165.382C235.508 163.425 235.754 161.574 236.376 160.824C237.758 159.16 236.808 157.763 234.297 157.763C233.187 157.763 230.263 156.405 227.799 154.747C222.947 151.483 220.906 150.98 220.906 153.051ZM255.234 154.101C255.158 154.456 255.4 155.442 255.771 156.292C256.377 157.681 255.825 159.439 255.061 158.552C254.174 157.523 253.72 153.454 254.493 153.454C254.975 153.454 255.309 153.745 255.234 154.101ZM219.183 155.934C219.183 157.036 221.716 158.963 222.342 158.337C222.967 157.712 221.04 155.178 219.938 155.178C219.523 155.178 219.183 155.518 219.183 155.934ZM263.436 156.47C263.163 157.181 262.594 157.763 262.171 157.763C261.748 157.763 261.402 157.181 261.402 156.47C261.402 155.76 261.971 155.178 262.666 155.178C263.437 155.178 263.738 155.683 263.436 156.47ZM171.272 159.351C167.405 161.781 166.394 170.205 169.65 172.863C171.497 174.37 173.517 181.711 173.517 186.915C173.517 193.047 178.194 196.741 181.62 193.316C181.969 192.966 182.712 192.67 183.271 192.658C186.516 192.59 193.541 189.269 194.391 187.402C196.486 182.805 190.065 173.052 184.411 172.242C183.404 172.098 182.449 171.283 182.286 170.433C181.852 168.155 185.481 168.889 189.388 171.869C194.661 175.891 197.154 171.489 193.713 164.236C192.399 161.466 185.602 158.314 184.127 159.791C183.828 160.088 183.121 159.949 182.556 159.48C180.364 157.659 174.077 157.587 171.272 159.351ZM204.874 160.85C205.196 161.689 205.004 162.084 204.374 161.874C203.086 161.444 202.377 159.486 203.51 159.486C203.972 159.486 204.586 160.1 204.874 160.85ZM210.402 164.4C208.3 166.636 207.119 166.267 207.119 163.373C207.119 161.913 207.674 161.247 209.058 161.041C211.867 160.625 212.488 162.179 210.402 164.4ZM249.339 162.071C249.339 162.545 250.115 162.933 251.062 162.933C252.011 162.933 252.785 162.545 252.785 162.071C252.785 161.596 252.011 161.21 251.062 161.21C250.115 161.21 249.339 161.596 249.339 162.071ZM204.408 164.073C205.052 164.847 205.074 165.495 204.478 166.091C203.883 166.687 204.01 167.31 204.878 168.03C205.581 168.612 205.949 169.627 205.697 170.284C205.42 171.008 206.373 172.17 208.118 173.233C209.702 174.199 210.416 174.977 209.705 174.963C206.72 174.904 203.47 170.727 202.524 165.733C201.971 162.82 202.78 162.109 204.408 164.073ZM219.397 164.412C218.805 164.625 218.321 165.349 218.321 166.02C218.321 167.37 219.868 167.6 221.593 166.505C222.999 165.613 221.098 163.801 219.397 164.412ZM212.665 167.151C212.927 167.574 212.507 168.165 211.73 168.463C210.053 169.107 209.31 168.575 210.1 167.298C210.793 166.178 212.02 166.107 212.665 167.151ZM216.598 168.934C216.598 170.967 221.2 176.423 223.543 177.166C224.462 177.457 225.214 178.091 225.214 178.574C225.214 179.905 218.258 174.509 216.462 171.784C214.717 169.139 214.414 167.24 215.735 167.24C216.21 167.24 216.598 168.003 216.598 168.934ZM246.755 168.859C246.755 169.864 247.119 170.687 247.565 170.687C249.058 170.687 249.333 169.171 248.037 168.095C246.969 167.208 246.755 167.336 246.755 168.859ZM254.509 169.771C254.509 171.242 248.103 176.852 244.6 178.447C241.147 180.021 230.288 181.8 231.412 180.608C231.74 180.26 233.683 179.843 235.727 179.682C242.283 179.165 251.207 174.304 252.379 170.611C252.911 168.933 254.509 168.304 254.509 169.771ZM296.362 172.8C295.929 175.105 295.359 175.856 294.045 175.856C292.054 175.856 292.436 173.174 294.814 170.467C296.596 168.437 297.051 169.124 296.362 172.8ZM224.552 171.549C223.323 173.518 224.084 173.748 226.29 172.072C228.064 170.727 228.234 169.826 226.713 169.826C226.116 169.826 225.144 170.601 224.552 171.549ZM214.012 171.588C214.012 172.083 215.005 173.482 216.22 174.695C219.34 177.816 218.174 178.223 214.504 175.294C211.297 172.736 210.504 170.687 212.72 170.687C213.431 170.687 214.012 171.092 214.012 171.588ZM202.737 173.918C202.247 180.194 202.609 181.026 205.827 181.026C207.486 181.026 208.844 181.38 208.844 181.814C208.844 182.588 202.272 182.188 200.884 181.33C200.493 181.089 200.401 179.662 200.678 178.158C200.954 176.656 201.242 174.553 201.318 173.488C201.393 172.421 201.786 171.549 202.189 171.549C202.591 171.549 202.839 172.614 202.737 173.918ZM230.383 174.995C230.383 176.106 230.819 176.716 231.46 176.503C232.052 176.305 232.538 175.627 232.538 174.995C232.538 174.363 232.052 173.685 231.46 173.488C230.819 173.274 230.383 173.885 230.383 174.995ZM285.101 175.851C284.241 176.802 283.141 177.58 282.658 177.58C282.175 177.58 282.689 176.612 283.801 175.429C286.171 172.906 287.404 173.306 285.101 175.851ZM290.101 176.072C289.135 177.138 287.613 178.939 286.721 180.072C285.827 181.206 284.029 183.39 282.727 184.925C281.423 186.46 280.357 187.974 280.357 188.289C280.357 188.605 279.388 189.762 278.203 190.859C277.018 191.957 276.05 193.296 276.05 193.833C276.05 194.372 275.662 194.812 275.187 194.812C273.764 194.812 274.205 193.471 276.413 191.089C277.561 189.85 278.75 188.048 279.055 187.085C279.362 186.122 279.904 185.335 280.261 185.335C280.617 185.335 282.929 182.814 285.397 179.734C287.865 176.654 290.329 174.133 290.872 174.133C291.415 174.133 291.067 175.006 290.101 176.072ZM208.59 177.58C209.087 177.58 209.933 178.108 210.468 178.754C211.261 179.709 211 179.849 209.067 179.5C206.111 178.968 204.535 177.767 204.535 176.049C204.535 174.9 204.741 174.914 206.111 176.154C206.978 176.938 208.094 177.58 208.59 177.58ZM300.175 178.011C300.175 178.721 299.593 179.303 298.882 179.303C298.171 179.303 297.589 178.721 297.589 178.011C297.589 177.3 298.171 176.719 298.882 176.719C299.593 176.719 300.175 177.3 300.175 178.011ZM293.788 180.807C292.847 181.748 292.202 180.25 292.877 178.694C293.518 177.218 293.565 177.219 293.921 178.724C294.127 179.591 294.068 180.528 293.788 180.807ZM279.835 180.666C280.643 182.775 280.467 182.982 279.065 181.58C277.6 180.116 277.414 179.303 278.541 179.303C278.965 179.303 279.547 179.916 279.835 180.666ZM218.293 183.991C218.278 184.493 217.696 184.15 217.001 183.231C216.306 182.311 215.748 181.148 215.763 180.646C215.778 180.145 216.36 180.486 217.056 181.407C217.752 182.326 218.308 183.49 218.293 183.991ZM298.811 180.688C302.142 181.966 299.93 185.739 296.372 184.846C294.308 184.327 294.273 184.213 295.57 182.235C297.092 179.911 296.957 179.976 298.811 180.688ZM224.353 181.867C224.353 182.715 231.241 186.196 232.921 186.196C234.303 186.196 234.01 187.489 232.271 189.063C229.907 191.202 220.376 185.296 221.999 182.698C223.113 180.917 224.353 180.478 224.353 181.867ZM304.482 183.18C304.482 183.836 304.094 184.61 303.62 184.904C303.13 185.207 302.759 184.465 302.759 183.18C302.759 181.896 303.13 181.154 303.62 181.457C304.094 181.749 304.482 182.525 304.482 183.18ZM289.898 184.473C291.023 184.473 290.893 187.378 289.715 188.556C288.981 189.29 288.311 189.063 287.058 187.651C285.757 186.186 285.489 186.102 285.858 187.272C286.12 188.103 285.982 188.781 285.55 188.781C283.802 188.781 284.04 187.25 286.224 184.46C288.034 182.146 288.591 181.832 288.815 182.993C288.972 183.807 289.459 184.473 289.898 184.473ZM234.312 184.112C235.842 185.359 235.85 185.432 234.406 184.974C233.537 184.698 232.255 184.473 231.554 184.473C230.854 184.473 230.521 184.085 230.814 183.612C231.554 182.413 232.371 182.531 234.312 184.112ZM247.954 184.112C248.721 186.11 248.596 187.058 247.565 187.058C247.063 187.058 246.875 186.697 247.148 186.255C247.421 185.814 247.25 185.21 246.769 184.912C245.688 184.244 245.614 182.749 246.662 182.749C247.085 182.749 247.667 183.363 247.954 184.112ZM245.03 188.354C245.03 190.668 244.65 191.237 242.877 191.576C240.469 192.037 239.448 185.075 241.799 184.229C243.608 183.579 245.03 185.396 245.03 188.354ZM276.807 187.058C273.793 190.809 273.434 190.991 271.957 189.513C271.21 188.768 271.728 187.918 274.057 186.067C278.644 182.422 280.109 182.949 276.807 187.058ZM209.155 185.141C209.381 185.509 208.629 186.713 207.482 187.816C205.326 189.892 204.729 189.053 206.288 186.139C207.214 184.41 208.44 183.984 209.155 185.141ZM215.222 185.861C215.612 186.878 215.387 187.109 214.383 186.723C213.628 186.433 212.654 186.196 212.219 186.196C211.784 186.196 211.428 185.808 211.428 185.335C211.428 183.915 214.648 184.362 215.222 185.861ZM223.497 188.273C225.846 189.889 228.261 191.387 228.861 191.602C229.461 191.815 229.677 192.288 229.339 192.651C229.001 193.014 226.735 192.033 224.301 190.471C221.868 188.909 219.332 187.632 218.668 187.632C217.378 187.632 217.092 186.851 218.033 185.908C218.864 185.078 218.828 185.062 223.497 188.273ZM238.512 186.967C238.775 187.392 238.351 187.984 237.57 188.284C236.293 188.774 236.316 188.954 237.79 190.069C238.966 190.96 239.084 191.319 238.204 191.338C237.351 191.357 237.609 192.04 239.044 193.567C240.882 195.524 240.923 195.707 239.41 195.21C238.035 194.759 238.119 194.987 239.849 196.396C242.593 198.633 241.544 199.81 238.688 197.697C236.342 195.962 235.583 194.091 235.565 190.002C235.55 186.587 237.217 184.87 238.512 186.967ZM300.17 188.997C300.173 191.163 299.898 191.365 296.943 191.352C292.37 191.334 291.084 190.378 292.527 188.068C294.376 185.106 300.164 185.808 300.17 188.997ZM210.567 190.504C210.567 190.978 210.233 191.366 209.827 191.366C209.421 191.366 208.691 193.014 208.207 195.028L207.327 198.69L207.223 194.165C207.132 190.182 207.325 189.642 208.844 189.642C209.791 189.642 210.567 190.03 210.567 190.504ZM219.183 190.37C219.183 190.771 218.367 191.836 217.371 192.737C216.375 193.639 215.014 195.431 214.348 196.718C212.634 200.034 210.261 199.047 211.054 195.348C212.057 190.674 212.987 189.642 216.198 189.642C217.839 189.642 219.183 189.971 219.183 190.37ZM248.817 191.006C249.138 191.846 248.947 192.24 248.316 192.03C247.029 191.601 246.319 189.642 247.451 189.642C247.914 189.642 248.529 190.256 248.817 191.006ZM285.993 190.562C286.305 191.067 286.384 191.658 286.167 191.874C285.567 192.475 282.941 191.285 282.941 190.412C282.941 189.333 285.305 189.449 285.993 190.562ZM271.501 194.001C271.38 195.592 270.783 195.451 268.16 193.205C266.116 191.454 267.02 190.354 269.556 191.508C270.718 192.038 271.566 193.125 271.501 194.001ZM224.144 192.363C224.901 193.12 224.556 194.111 222.718 196.456C221.384 198.158 219.822 200.449 219.248 201.545C218.406 203.149 217.959 203.339 216.968 202.517C214.961 200.851 215.54 198.48 218.852 194.814C222.242 191.062 222.653 190.873 224.144 192.363ZM234.631 195.358C234.708 196.606 231.412 197.502 230.741 196.417C230.463 195.966 230.912 194.564 231.741 193.298C233.266 190.973 234.409 191.788 234.631 195.358ZM293.282 192.658C294.466 193.335 296.308 193.903 297.374 193.92C299.599 193.955 299.791 194.69 298.16 196.921C297.216 198.212 296.321 198.393 293.206 197.921C287.467 197.054 286.69 196.325 288.646 193.642C290.537 191.048 290.485 191.06 293.282 192.658ZM247.644 199.016C247.13 200.926 246.155 203.041 245.48 203.717C244.804 204.393 244.426 205.12 244.638 205.332C245.388 206.082 240.83 209.638 239.707 209.179C238.923 208.859 239.106 208.547 240.292 208.178C241.24 207.883 242.756 206.112 243.662 204.243C244.567 202.373 245.556 200.844 245.861 200.844C246.164 200.844 246.45 199.513 246.497 197.886C246.542 196.26 246.901 194.418 247.293 193.794C248.485 191.897 248.699 195.097 247.644 199.016ZM253.648 195.137C253.648 195.79 253.114 196.767 252.462 197.307C251.51 198.098 251.278 197.864 251.278 196.121C251.278 194.854 251.77 193.951 252.462 193.951C253.114 193.951 253.648 194.485 253.648 195.137ZM263.556 195.674C263.848 196.147 263.67 196.535 263.159 196.535C262.585 196.535 262.449 197.406 262.803 198.818C263.206 200.424 263.083 200.92 262.389 200.491C261.207 199.759 261.053 194.812 262.212 194.812C262.658 194.812 263.263 195.2 263.556 195.674ZM268.685 195.812C270.99 196.862 271.351 197.903 270.098 199.881C269.023 201.579 266.163 199.356 266.072 196.751C265.992 194.487 265.872 194.53 268.685 195.812ZM229.218 197.902C230.13 199.294 230.355 200.343 229.816 200.702C226.942 202.613 224.641 205.024 223.721 207.09C222.466 209.909 221.69 210.052 220.243 207.733C219.325 206.264 219.487 205.497 221.327 202.581C222.517 200.696 223.491 198.778 223.491 198.318C223.491 197.494 225.915 195.751 227.132 195.7C227.477 195.685 228.416 196.677 229.218 197.902ZM281.218 197.059C281.218 197.967 280.751 198.263 279.855 197.92C279.107 197.632 278.137 197.397 277.702 197.397C277.266 197.397 276.911 197.009 276.911 196.535C276.911 196.061 277.881 195.674 279.065 195.674C280.468 195.674 281.218 196.155 281.218 197.059ZM257.499 200.245C256.76 204.184 251.94 209.493 249.223 209.36C247.762 209.288 247.613 209.148 248.692 208.865C249.522 208.649 250.2 208.09 250.2 207.623C250.2 207.155 250.588 207.012 251.062 207.306C251.536 207.598 251.923 207.275 251.923 206.587C251.923 205.899 252.499 205.115 253.202 204.846C253.933 204.565 254.261 203.784 253.967 203.021C253.58 202.01 253.846 201.824 255.059 202.253C256.332 202.704 256.453 202.592 255.642 201.716C254.85 200.86 254.926 200.147 255.974 198.546C257.712 195.893 258.212 196.448 257.499 200.245ZM236.773 198.813C237.073 199.591 237.113 200.431 236.866 200.68C236.618 200.927 236.414 200.652 236.414 200.067C236.414 199.396 235.779 199.205 234.692 199.551C232.841 200.138 232.251 198.692 234.045 197.968C235.858 197.236 236.21 197.344 236.773 198.813ZM290.018 199.057C292.523 199.969 295.321 200.841 296.235 200.995C297.689 201.24 297.742 201.442 296.666 202.603C295.989 203.334 294.995 204.691 294.458 205.619C293.356 207.521 288.297 207.841 286.271 206.139C285.625 205.596 284.127 204.408 282.941 203.501L280.788 201.851L282.876 199.625C285.363 196.973 284.488 197.042 290.018 199.057ZM276.536 201.496C275.019 202.926 274.969 202.922 275.496 201.419C275.8 200.551 276.05 199.407 276.05 198.877C276.05 198.209 276.368 198.232 277.089 198.953C277.901 199.766 277.781 200.322 276.536 201.496ZM207.939 202.187C206.669 203.717 205.397 203.004 205.397 200.762C205.397 199.309 205.657 199.198 207.175 200.011C208.592 200.769 208.747 201.213 207.939 202.187ZM202.912 202.755C203.411 203.687 203.569 205.447 203.264 206.666L202.708 208.883L201.188 206.371C198.726 202.303 198.413 200.119 200.363 200.63C201.266 200.866 202.413 201.822 202.912 202.755ZM273.536 201.489C273.659 204.075 274.078 206.377 274.752 208.167C275.281 209.576 275.124 209.521 273.896 207.87C272.114 205.477 271.164 199.982 272.533 199.982C273.045 199.982 273.496 200.66 273.536 201.489ZM261.892 201.801C262.217 202.329 262.104 203.007 261.641 203.31C261.178 203.611 260.426 204.998 259.969 206.39C258.637 210.458 257.146 210.162 258.243 206.048C258.755 204.133 259.504 202.567 259.907 202.567C260.311 202.567 260.402 202.179 260.109 201.705C259.816 201.231 259.965 200.844 260.438 200.844C260.912 200.844 261.566 201.274 261.892 201.801ZM215.273 204.793C216.44 206.574 216.455 206.875 215.376 206.875C214.682 206.875 213.874 206.487 213.582 206.014C213.289 205.539 212.296 205.151 211.377 205.151C209.5 205.151 209.228 204.25 210.671 202.806C211.951 201.527 213.6 202.239 215.273 204.793ZM241.585 202.433C241.585 204.293 238.183 206.261 236.861 205.165C235.141 203.737 235.207 202.784 237.061 202.298C239.661 201.619 241.585 201.676 241.585 202.433ZM305.642 205.582C306.369 207.715 306.637 209.46 306.237 209.46C305.465 209.46 303.62 204.814 303.62 202.868C303.62 200.743 304.305 201.662 305.642 205.582ZM234.08 205.422L236.258 208.276L233.751 207.908C231.756 207.616 231.239 207.868 231.214 209.146C231.165 211.682 227.495 215.651 225.802 215.001C223.938 214.286 223.957 211.734 225.85 208.3C229.475 201.725 230.885 201.233 234.08 205.422ZM268.726 203.428C270.304 204.106 270.268 204.172 268.294 204.216C267.11 204.242 265.559 203.888 264.848 203.428C263.152 202.332 266.175 202.332 268.726 203.428ZM282.578 205.216C284.08 206.673 286.758 208.362 288.525 208.97L291.739 210.075L289.146 211.921C285.28 214.675 280.357 213.304 280.357 209.474C280.357 208.586 279.388 207.099 278.203 206.167C275.241 203.838 275.277 203.738 279.455 202.666C279.668 202.612 281.074 203.759 282.578 205.216ZM248.837 204.175C249.091 204.586 248.5 205.644 247.523 206.528C245.758 208.124 245.755 208.12 246.821 205.781C247.995 203.203 248.157 203.074 248.837 204.175ZM267.114 206.875C269.366 206.875 267.554 208.384 264.821 208.785C262.808 209.081 262.3 208.885 262.657 207.953C262.914 207.283 263.125 206.156 263.125 205.451C263.125 204.343 263.311 204.353 264.479 205.52C265.223 206.266 266.41 206.875 267.114 206.875ZM302.899 208.184C303.266 209.552 303.335 211.591 303.053 212.714C302.247 215.924 300.674 213.519 300.637 209.018C300.602 204.756 301.859 204.292 302.899 208.184ZM211.115 207.3C212.472 208.008 214.5 208.59 215.621 208.592C217.314 208.597 217.572 208.927 217.14 210.537C216.855 211.603 216.615 212.96 216.61 213.552C216.589 215.409 209.228 214.207 205.953 211.812C202.01 208.929 206.58 204.935 211.115 207.3ZM298.452 209.316C298.452 211.581 297.635 212.087 295.817 210.953C294.642 210.219 294.47 209.672 295.154 208.849C296.508 207.218 298.452 207.493 298.452 209.316ZM271.741 209.757C271.741 212.046 274.87 213.998 276.847 212.94C278.518 212.046 282.817 213.873 282.915 215.518C282.983 216.671 277.466 217.972 275.95 217.161C273.049 215.608 268.898 208.598 270.88 208.598C271.353 208.598 271.741 209.119 271.741 209.757ZM238.137 211.183C238.137 211.656 237.557 212.044 236.845 212.044C236.135 212.044 235.553 211.656 235.553 211.183C235.553 210.709 236.135 210.321 236.845 210.321C237.557 210.321 238.137 210.709 238.137 211.183ZM269.157 211.552C269.157 212.23 270.455 214.161 272.042 215.843C274.601 218.556 274.747 218.954 273.335 219.352C272.459 219.598 271.006 220.006 270.109 220.259C268.841 220.616 268.072 219.883 266.663 216.971C264.456 212.413 264.406 211.425 266.356 210.916C268.942 210.239 269.157 210.287 269.157 211.552ZM306.329 214.625C305.975 216.333 305.443 217.209 305.098 216.652C304.295 215.352 305.383 210.011 306.266 210.913C306.644 211.299 306.672 212.968 306.329 214.625ZM219.186 218.488C218.576 222.052 217.753 224.969 217.359 224.969C216.964 224.969 216.807 223.903 217.009 222.599C217.212 221.296 217.605 218.521 217.881 216.435C218.416 212.395 219.059 210.773 219.825 211.538C220.082 211.796 219.796 214.923 219.186 218.488ZM241.198 215.922C240.594 218.291 239.66 220.191 239.12 220.143C238.58 220.096 237.557 219.999 236.845 219.929C234.825 219.727 235.298 218.365 238.69 214.609C242.48 210.413 242.585 210.469 241.198 215.922ZM247.236 212.703C249.76 214.453 248.166 221.517 245.246 221.519C241.963 221.523 241.503 219.369 243.802 214.762C245.21 211.937 245.704 211.642 247.236 212.703ZM254.509 216.18C254.509 218.455 254.973 220.781 255.542 221.35C256.347 222.154 256.066 222.384 254.28 222.384C249.261 222.384 248.864 212.638 253.862 212.113C254.218 212.075 254.509 213.905 254.509 216.18ZM263.125 212.906C263.125 213.38 263.025 213.768 262.903 213.768C262.783 213.768 261.425 214.128 259.888 214.569C257.424 215.275 257.094 215.173 257.094 213.708C257.094 212.381 257.704 212.044 260.109 212.044C261.768 212.044 263.125 212.432 263.125 212.906ZM297.429 216.137C297.729 219.259 296.145 220.053 295.71 216.998C295.258 213.81 290.643 214.307 288.932 217.728C287.671 220.25 283.804 220.679 283.804 218.296C283.804 213.639 296.986 211.551 297.429 216.137ZM208.427 214.964C209.327 215.622 210.564 215.968 211.176 215.734C211.789 215.499 212.29 215.691 212.29 216.16C212.29 216.629 213.161 217.258 214.228 217.559C217.363 218.44 213.699 220.66 209.109 220.66H205.397V217.214C205.397 213.491 205.9 213.117 208.427 214.964ZM234.406 215.127C234.693 215.874 234.372 217.041 233.693 217.72C232.055 219.358 228.956 217.348 229.786 215.185C230.478 213.378 233.719 213.337 234.406 215.127ZM223.057 220.667C222.347 222.038 221.767 223.761 221.767 224.495C221.767 225.23 221.366 225.83 220.876 225.83C220.387 225.83 220.126 224.958 220.301 223.891C220.778 220.953 222.786 217.211 223.613 217.72C224.016 217.97 223.765 219.296 223.057 220.667ZM304.064 222.355C303.202 224.266 302.21 225.83 301.859 225.83C300.795 225.83 300.008 222.869 300.986 222.544C301.488 222.377 301.897 221.649 301.897 220.927C301.897 220.162 302.396 219.805 303.092 220.073C303.956 220.405 304.163 220.012 303.836 218.657C303.474 217.147 303.604 216.987 304.509 217.832C305.428 218.69 305.347 219.511 304.064 222.355ZM229.863 219.915L232.007 220.892L229.539 223.362C225.48 227.419 222.505 226.096 224.924 221.307C226.259 218.661 226.785 218.512 229.863 219.915ZM281.54 222.168C281.181 224.847 280.652 227.503 279.953 230.139C279.032 233.603 274.046 242.14 273.218 241.668C270.286 239.996 270.183 239.529 272.28 237.432C274.855 234.857 280.357 223.596 280.357 220.9C280.357 219.821 280.72 218.937 281.165 218.937C281.609 218.937 281.777 220.392 281.54 222.168ZM262.973 221.809C263.126 222.599 262.724 223.246 262.08 223.246C261.436 223.246 260.91 222.465 260.91 221.512C260.91 219.476 262.567 219.715 262.973 221.809ZM277.169 221.737C276.721 222.33 276.274 224.151 276.175 225.785C275.962 229.298 275.507 229.941 274.176 228.61C273.44 227.873 273.462 227.302 274.264 226.335C274.854 225.626 275.107 224.675 274.828 224.222C274.039 222.946 275.225 220.66 276.678 220.66C277.582 220.66 277.733 220.991 277.169 221.737ZM287.25 222.52C287.25 222.967 288.581 223.889 290.207 224.569C293.627 225.998 294.505 227.09 293.77 229.004C293.293 230.249 293.106 230.247 291.699 228.973C290.848 228.203 288.821 227.342 287.193 227.058C282.089 226.169 281.754 225.969 282.951 224.527C283.536 223.823 283.726 223.246 283.373 223.246C283.019 223.246 283.195 222.687 283.761 222.004C284.825 220.723 287.25 221.081 287.25 222.52ZM297.454 223.997C305.08 235.096 307.525 259.615 301.718 266.757C301.332 267.231 300.242 268.653 299.294 269.919C297.464 272.366 290.27 276.813 289.457 276C288.347 274.89 289.148 274.126 291.981 273.595C293.636 273.283 294.776 272.684 294.516 272.263C294.254 271.841 294.639 271.495 295.368 271.495C296.098 271.495 296.939 270.526 297.236 269.342C297.533 268.158 298.122 267.188 298.544 267.188C298.967 267.188 299.313 266.606 299.313 265.895C299.313 265.184 299.726 264.602 300.233 264.602C300.76 264.602 300.919 263.869 300.605 262.88C300.212 261.638 300.45 261.157 301.46 261.157C302.268 261.157 302.61 260.751 302.269 260.199C301.943 259.672 302.211 258.896 302.865 258.476C303.692 257.942 303.764 257.514 303.105 257.064C301.885 256.23 301.88 253.151 303.098 252.361C303.761 251.93 303.723 251.436 302.967 250.681C301.69 249.402 301.535 247.907 302.759 248.663C303.233 248.955 303.62 248.785 303.62 248.283C303.62 247.782 303.136 247.365 302.544 247.358C301.823 247.348 301.895 247.063 302.759 246.496C303.893 245.751 303.897 245.548 302.785 244.833C302.087 244.384 301.793 243.741 302.131 243.404C302.468 243.067 302.312 242.27 301.785 241.634C301.079 240.783 301.08 240.478 301.792 240.478C302.324 240.478 302.759 240.09 302.759 239.616C302.759 239.142 302.177 238.755 301.467 238.755C300.756 238.755 300.175 238.367 300.175 237.893C300.175 237.419 300.659 237.026 301.251 237.018C302.016 237.008 301.978 236.782 301.117 236.239C300.452 235.817 299.793 234.404 299.654 233.098C299.515 231.793 298.899 230.415 298.284 230.035C297.67 229.656 297.086 228.293 296.987 227.006C296.882 225.637 295.808 223.855 294.398 222.71C292.191 220.919 292.153 220.796 293.943 221.243C295.018 221.511 296.599 222.751 297.454 223.997ZM233.724 224.426C233.157 225.672 232.464 226.693 232.184 226.694C230.424 226.7 231.589 231.869 233.836 234.021C236.273 236.356 238.492 236.84 251.329 237.839C251.712 237.869 251.802 238.254 251.529 238.697C250.939 239.651 242.783 239.168 237.151 237.843C232.302 236.703 229.08 233.645 229.805 230.871C230.083 229.807 229.902 228.444 229.403 227.841C228.728 227.028 229.224 226.08 231.329 224.157C234.594 221.174 235.176 221.239 233.724 224.426ZM273.464 223.337C273.464 227.424 265.646 235.182 264.509 232.221C262.789 227.74 264.906 223.246 268.736 223.246C269.859 223.246 271.021 222.851 271.318 222.37C271.937 221.369 273.464 222.058 273.464 223.337ZM214.715 223.891C214.498 225.035 213.415 225.464 210.237 225.666C202.336 226.169 201.406 224.107 209.112 223.17C211.57 222.871 213.901 222.572 214.291 222.505C214.681 222.439 214.872 223.062 214.715 223.891ZM237.451 227.533C236.236 229.659 236.169 230.398 237.068 231.842C238.665 234.408 236.715 233.983 235.02 231.395C233.253 228.699 234.529 224.969 237.218 224.969C238.86 224.969 238.868 225.058 237.451 227.533ZM242.004 228.17C240.76 231.787 239 232.949 239 230.154C239 227.651 240.522 224.969 241.944 224.969C242.906 224.969 242.916 225.515 242.004 228.17ZM247.966 229.277C245.497 234.192 244.169 234.775 244.169 230.943C244.169 227.183 245.604 224.969 248.041 224.969H250.13L247.966 229.277ZM255.027 226.907C254.249 227.973 252.83 230.558 251.876 232.65C250.521 235.62 249.913 236.226 249.101 235.414C248.288 234.603 248.331 234.208 249.294 233.612C249.972 233.193 250.663 231.84 250.829 230.603C251.182 227.961 253.522 224.969 255.236 224.969C256.208 224.969 256.167 225.346 255.027 226.907ZM304.267 228.846C304.267 230.031 303.969 231 303.605 231C302.685 231 301.788 228.428 302.376 227.475C303.294 225.991 304.267 226.696 304.267 228.846ZM293.282 232.738C293.282 233.841 291.812 233.831 291.128 232.723C290.352 231.469 288.428 231.668 286.941 233.155C285.155 234.941 281.218 233.453 281.218 230.993C281.218 227.966 284.532 227.482 289.189 229.829C291.44 230.963 293.282 232.271 293.282 232.738ZM274.325 230.597C274.325 231.323 273.647 232.195 272.818 232.535C271.988 232.875 271.31 233.735 271.31 234.446C271.31 235.169 270.619 235.681 269.743 235.609C268.661 235.52 268.333 235.891 268.686 236.809C269.109 237.912 268.973 237.951 267.881 237.046C266.728 236.089 266.911 235.551 269.369 232.688C272.328 229.24 274.325 228.397 274.325 230.597ZM256.865 231.605C257.034 232.116 256.167 233.643 254.935 234.998L252.697 237.462L253.274 234.446C254.113 230.053 255.88 228.654 256.865 231.605ZM262.264 231C262.264 231.474 261.704 231.862 261.021 231.862C260.339 231.862 259.541 231.474 259.247 231C258.955 230.526 259.513 230.139 260.49 230.139C261.465 230.139 262.264 230.526 262.264 231ZM209.471 232.491C207.683 232.677 204.968 232.674 203.439 232.484C201.909 232.293 203.372 232.14 206.689 232.144C210.006 232.148 211.257 232.304 209.471 232.491ZM242.446 234.121C242.446 235.266 242.213 235.325 241.154 234.446C240.443 233.856 239.862 233.227 239.862 233.048C239.862 232.869 240.443 232.723 241.154 232.723C241.864 232.723 242.446 233.352 242.446 234.121ZM260.861 233.407C261.228 234.001 258.217 239.616 257.532 239.616C257.392 239.616 257.047 239.015 256.765 238.279C256.429 237.405 256.598 237.156 257.25 237.559C257.917 237.971 258.065 237.699 257.697 236.741C257.394 235.952 257.564 235.307 258.075 235.307C258.584 235.307 258.778 234.726 258.505 234.015C257.992 232.678 260.077 232.139 260.861 233.407ZM214.012 234.446C214.012 234.92 212.365 235.256 210.351 235.195L206.689 235.081L209.705 234.446C211.363 234.098 213.012 233.761 213.367 233.698C213.722 233.636 214.012 233.972 214.012 234.446ZM298.041 237.127C298.727 240.246 297.158 242.641 296.175 239.976C295.839 239.067 295.023 237.998 294.36 237.599C293.352 236.993 293.396 236.609 294.626 235.251C296.446 233.239 297.288 233.701 298.041 237.127ZM283.033 235.555C283.794 236.134 284.375 237.575 284.325 238.757C284.264 240.21 284.861 241.18 286.173 241.757C288.121 242.614 288.576 244.296 287.569 246.919C287.111 248.115 286.877 248.03 286.048 246.367C285.51 245.287 283.429 243.301 281.426 241.956C277.8 239.521 277.789 239.498 279.093 236.978C280.539 234.18 281.006 234.011 283.033 235.555ZM272.984 243.925C273.783 243.925 274.325 244.675 274.325 245.781C274.325 247.602 274.291 247.606 272.55 246.031C271.03 244.655 270.659 244.605 269.979 245.681C269.125 247.03 268.737 245.893 269.118 243.161C269.232 242.346 268.794 242.155 267.739 242.56C266.889 242.887 266.458 242.888 266.782 242.564C267.107 242.24 266.956 241.197 266.448 240.248C265.693 238.836 265.369 238.739 264.674 239.715C264.012 240.644 263.932 240.574 264.309 239.4C264.575 238.571 264.483 237.893 264.103 237.893C263.723 237.893 263.412 237.318 263.412 236.616C263.412 235.908 265.247 237.253 267.528 239.631C269.792 241.993 272.247 243.925 272.984 243.925ZM231.287 238.375C234.719 242.509 231.984 245.558 227.896 242.154C225.91 240.5 225.893 240.385 227.384 238.737C229.245 236.68 229.835 236.625 231.287 238.375ZM293.881 239.685C295.421 242.805 296.156 245.097 295.98 246.228C295.892 246.785 296.219 247.487 296.705 247.787C297.866 248.505 297.854 254.264 296.69 254.264C296.196 254.264 295.887 254.748 296.003 255.341C297.157 261.179 284.482 268.831 274.325 268.429C264.409 268.037 263.578 267.931 265.279 267.29C266.226 266.934 269.038 266.696 271.525 266.764C274.013 266.832 276.05 266.522 276.05 266.075C276.05 265.629 276.851 265.473 277.831 265.73C280.349 266.388 284.666 264.698 284.666 263.054C284.666 261.98 284.895 261.903 285.699 262.708C287.281 264.29 288.29 263.938 287.681 262.018C287.367 261.03 287.526 260.295 288.053 260.295C288.56 260.295 288.973 260.683 288.973 261.157C288.973 261.63 289.403 262.018 289.927 262.018C290.452 262.018 290.658 261.436 290.385 260.726C290.112 260.015 290.264 259.434 290.724 259.434C291.182 259.434 291.559 258.829 291.559 258.09C291.559 257.328 291.971 257.001 292.512 257.336C293.154 257.733 293.276 257.326 292.884 256.094C292.449 254.721 292.667 254.264 293.76 254.264C294.912 254.264 295.006 254.01 294.213 253.055C293.442 252.126 293.467 251.75 294.322 251.431C295.123 251.131 294.951 250.632 293.712 249.651C292.044 248.331 292.042 248.287 293.64 248.26C294.548 248.245 295.001 247.942 294.646 247.587C294.29 247.23 293.579 246.94 293.066 246.94C292.552 246.94 291.953 246.401 291.734 245.743C291.491 245.016 291.718 244.783 292.307 245.147C292.844 245.478 293.269 245.435 293.254 245.052C293.206 243.845 290.98 241.339 289.955 241.339C289.415 241.339 288.973 240.951 288.973 240.478C288.973 240.004 289.361 239.616 289.834 239.616C290.309 239.616 290.696 239.002 290.696 238.252C290.696 236.323 292.656 237.206 293.881 239.685ZM221.311 240.223C224.144 242.285 224.101 243.661 221.262 241.8C220.036 240.998 218.776 240.596 218.463 240.911C217.773 241.599 220.781 243.925 222.363 243.925C222.983 243.925 223.491 244.312 223.491 244.786C223.491 245.851 223.281 245.853 220.53 244.807C217.406 243.619 217.698 245.281 220.906 246.94C222.328 247.675 223.491 248.667 223.491 249.146C223.491 249.724 222.93 249.717 221.824 249.124C219.804 248.043 219.183 248.003 219.183 248.955C219.183 249.354 220.152 250.121 221.336 250.66C222.522 251.2 223.491 252.085 223.491 252.628C223.491 253.356 223.174 253.35 222.274 252.604C221.387 251.867 220.899 251.854 220.465 252.557C220.121 253.114 220.63 253.717 221.681 253.991C224.385 254.699 223.867 256.101 221.121 255.505L218.752 254.989L220.906 256.761C222.091 257.736 223.351 258.542 223.706 258.552C224.061 258.563 224.353 258.947 224.353 259.406C224.353 259.866 223.771 260.018 223.059 259.745C222.349 259.472 221.767 259.637 221.767 260.11C221.767 260.584 222.349 261.195 223.059 261.468C223.771 261.741 224.353 262.412 224.353 262.958C224.353 263.692 224.05 263.702 223.196 262.992C222.56 262.465 221.767 262.306 221.434 262.639C221.101 262.972 221.718 263.948 222.805 264.808L224.783 266.371L222.198 265.873L219.613 265.375L221.983 266.74C223.286 267.49 224.353 268.501 224.353 268.988C224.353 269.473 223.49 269.266 222.437 268.529C219.114 266.201 218.618 267.122 221.767 269.773C225.223 272.682 224.391 273.163 220.26 270.643C218.388 269.503 217.462 269.29 217.468 270C217.472 270.586 219.056 271.729 220.986 272.539C222.928 273.355 224.25 274.41 223.947 274.901C223.606 275.451 222.464 275.096 220.929 273.962C217.98 271.781 213.698 272.256 214.621 274.662C214.971 275.576 214.828 275.877 214.219 275.5C213.697 275.178 213.021 275.318 212.717 275.81C211.977 277.006 203.023 276.667 201.975 275.404C201.418 274.731 201.911 273.333 203.488 271.117C206.337 267.11 206.793 253.342 204.366 244.619C203.616 241.922 203.142 239.573 203.314 239.402C204.566 238.149 219.39 238.825 221.311 240.223ZM256.042 240.619C255.477 242.312 252.16 244.143 251.524 243.113C251.214 242.611 251.565 242.2 252.304 242.2C253.043 242.2 253.648 241.619 253.648 240.908C253.648 240.198 254.261 239.616 255.012 239.616C255.762 239.616 256.225 240.068 256.042 240.619ZM236.239 242.162C235.05 244.065 234.213 243.828 234.989 241.807C235.27 241.075 235.902 240.478 236.395 240.478C236.962 240.478 236.904 241.096 236.239 242.162ZM244.169 242.2C245.13 242.822 244.635 243.04 242.231 243.049C240.454 243.056 239 242.674 239 242.2C239 241.103 242.472 241.103 244.169 242.2ZM282.044 244.653C285.948 248.367 286.26 249.72 283.882 252.658L282.237 254.688L279.176 251.539C276.569 248.852 276.303 248.233 277.375 247.343C279.067 245.938 278.963 243.933 277.126 242.538C275.722 241.473 275.72 241.392 277.09 241.367C277.899 241.352 280.128 242.83 282.044 244.653ZM259.147 250.277C259.147 253.395 258.731 254.78 257.525 255.661C255.048 257.474 254.564 257.101 255.65 254.219C256.479 252.025 256.383 251.137 255.074 248.857C253.525 246.155 253.529 246.104 255.454 244.545C258.021 242.466 259.146 244.213 259.147 250.277ZM249.77 244.786C247.376 245.815 245.688 245.815 246.324 244.786C246.616 244.312 247.899 243.951 249.174 243.985C251.244 244.038 251.308 244.124 249.77 244.786ZM265.727 245.238C267.392 247.244 266.204 247.621 264.422 245.652C263.562 244.703 263.259 243.925 263.747 243.925C264.236 243.925 265.128 244.516 265.727 245.238ZM242.734 245.766C243.609 245.039 244.195 244.99 244.578 245.612C245.248 246.695 244.276 247.107 238.575 248.157C235.476 248.728 234.095 248.669 233.634 247.944C232.674 246.435 232.84 245.662 234.045 246.033C238.474 247.397 239.862 247.361 239.874 245.879C239.885 244.631 240.03 244.579 240.671 245.592C241.298 246.583 241.708 246.618 242.734 245.766ZM250.601 248.19C248.68 248.969 246.88 250.891 245.495 253.641C244.323 255.969 242.585 256.492 241.906 254.722C240.913 252.134 246.521 247.48 250.631 247.48C252.331 247.48 252.33 247.49 250.601 248.19ZM290.187 250.171C289.076 256.849 288.981 257.066 287.646 255.957C285.998 254.59 286.059 252.934 287.866 249.873C289.814 246.578 290.766 246.699 290.187 250.171ZM266.93 250.897C264.997 253.033 262.302 254.59 261.656 253.943C261.403 253.691 261.778 252.903 262.489 252.191C263.199 251.481 263.966 251.084 264.192 251.31C264.417 251.535 265.093 251.129 265.692 250.407C266.292 249.684 267.183 249.094 267.672 249.094C268.162 249.094 267.827 249.905 266.93 250.897ZM274.365 250.816C275.074 249.737 275.634 249.985 277.785 252.339C280.987 255.841 280.982 256.286 277.71 258.616L275.063 260.501L273.638 258.459C272.854 257.337 271.383 255.642 270.369 254.694C267.985 252.465 269.281 249.486 271.922 251.122C273.18 251.901 273.696 251.837 274.365 250.816ZM233.481 252.658C234.384 253.67 236.286 255.012 237.707 255.639C240.216 256.747 240.228 256.782 238.137 256.81C232.38 256.887 225.972 253.363 228.716 251.626C230.619 250.422 231.695 250.655 233.481 252.658ZM239.339 253.043C239.661 253.883 239.468 254.276 238.839 254.066C237.551 253.637 236.842 251.679 237.974 251.679C238.437 251.679 239.051 252.292 239.339 253.043ZM270.997 258.14C272.519 260.379 272.986 261.706 272.326 261.926C271.768 262.113 270.341 262.657 269.157 263.135C264.925 264.843 263.987 264.727 263.987 262.494C263.987 261.34 263.599 260.157 263.125 259.864C262.651 259.571 262.264 258.556 262.264 257.608C262.264 256.66 262.611 256.099 263.034 256.362C263.458 256.624 264.039 256.231 264.323 255.491C265.21 253.179 268.513 254.49 270.997 258.14ZM285.354 256.16C285.923 256.727 286.364 257.988 286.334 258.959C286.282 260.626 286.235 260.616 285.5 258.787C285.072 257.721 284.321 256.848 283.831 256.848C283.342 256.848 282.941 256.46 282.941 255.987C282.941 254.819 284.097 254.901 285.354 256.16ZM251.923 257.279C250.758 258.685 245.892 259.076 245.892 257.764C245.892 257.321 247.153 256.802 248.692 256.61C250.233 256.418 251.832 256.2 252.245 256.125C252.658 256.049 252.513 256.568 251.923 257.279ZM231.313 257.747C232.682 258.479 232.819 258.965 232.057 260.387C230.947 262.462 228.66 261.169 228.66 258.466C228.66 256.603 229.004 256.51 231.313 257.747ZM260.94 260.8C261.743 262.026 262.273 263.124 262.116 263.241C257.302 266.813 256.232 266.992 256.232 264.223C256.232 263.066 255.844 261.88 255.371 261.587C254.039 260.764 254.349 259.601 256.016 259.165C258.93 258.404 259.492 258.591 260.94 260.8ZM282.941 261.222C282.941 261.844 277.632 263.724 275.834 263.736C274.329 263.748 275.354 261.911 277.258 261.188C278.396 260.755 279.594 259.971 279.919 259.444C280.553 258.42 282.941 259.824 282.941 261.222ZM299.116 259.595C298.928 260.157 298.313 260.771 297.75 260.959C297.121 261.169 296.928 260.775 297.25 259.936C297.851 258.37 299.632 258.044 299.116 259.595ZM239.862 261.013C239.862 261.881 239.57 262.883 239.215 263.238C238.86 263.594 238.569 264.305 238.569 264.818C238.569 266.716 236.61 266.321 235.177 264.135C233.237 261.174 234.004 259.434 237.249 259.434C239.208 259.434 239.862 259.828 239.862 261.013ZM245.892 264.602V268.911H242.354C239.31 268.911 238.906 268.7 239.466 267.403C239.823 266.574 240.541 264.635 241.061 263.095C242.722 258.174 245.892 259.164 245.892 264.602ZM253.252 262.665C253.526 263.967 253.879 265.687 254.034 266.486C254.348 268.089 252.878 268.911 249.699 268.911C247.774 268.911 247.616 268.585 247.616 264.602C247.616 259.356 252.221 257.772 253.252 262.665ZM296.782 266.226C295.595 268.441 294.506 268.545 293.391 266.551C292.197 264.419 294.893 261.687 296.596 263.301C297.495 264.153 297.537 264.815 296.782 266.226ZM232.642 266.327C233.296 266.327 233.83 266.814 233.83 267.412C233.83 268.009 234.815 269.56 236.019 270.858C237.67 272.638 237.876 273.218 236.861 273.218C236.122 273.218 235.075 272.25 234.535 271.065C233.995 269.881 233.325 268.909 233.045 268.906C231.426 268.892 227.596 264.765 228.239 263.726C228.802 262.816 229.229 262.972 230.206 264.445C230.893 265.479 231.99 266.327 232.642 266.327ZM292.406 269.126C292.414 269.956 292.006 270.634 291.501 270.634C290.972 270.634 290.813 269.899 291.128 268.911C291.453 267.884 291.282 267.188 290.704 267.188C290.17 267.188 289.998 266.759 290.322 266.234C291.051 265.054 292.388 266.907 292.406 269.126ZM259.678 269.342C258.566 270.526 257.237 271.465 256.728 271.428C256.176 271.388 256.217 271.19 256.83 270.942C257.395 270.711 257.621 269.903 257.329 269.144C257.03 268.362 257.161 267.989 257.635 268.282C258.093 268.565 259.031 268.441 259.72 268.005C261.813 266.681 261.8 267.082 259.678 269.342ZM288.489 271.233C288.989 272.892 288.657 273.198 285.785 273.718C283.984 274.044 281.465 274.84 280.184 275.488C277.122 277.038 275.277 277.092 276.781 275.588C277.374 274.996 278.13 274.479 278.461 274.439C280.637 274.179 283.935 272.096 285.179 270.197C286.721 267.845 287.545 268.104 288.489 271.233ZM282.941 269.674C282.941 270.608 279.751 272.754 277.126 273.584C273.832 274.626 274.987 272.797 278.849 270.857C283.244 268.65 282.941 268.737 282.941 269.674ZM230.865 271.9C232.308 272.991 232.34 273.169 231.1 273.192C228.889 273.234 226.893 272.264 227.423 271.405C228.095 270.321 228.937 270.441 230.865 271.9ZM268.822 272.816C269.608 274.015 269.972 275.275 269.629 275.615C268.982 276.26 265.709 272.741 265.709 271.4C265.709 269.896 267.417 270.671 268.822 272.816ZM250.081 273.145C248.962 274.052 247.895 274.643 247.709 274.458C247.079 273.833 249.542 271.495 250.832 271.495C251.706 271.495 251.466 272.021 250.081 273.145ZM255.494 273.124C254.764 273.586 254.653 274.068 255.198 274.405C256.208 275.029 255.542 278.389 254.408 278.389C253.526 278.389 253.368 273.785 254.221 272.932C254.537 272.616 255.216 272.363 255.729 272.371C256.242 272.378 256.137 272.717 255.494 273.124ZM219.253 274.081C219.688 274.081 220.044 274.469 220.044 274.943C220.044 276.19 218.893 276.001 216.978 274.441C215.448 273.194 215.439 273.121 216.884 273.58C217.751 273.855 218.818 274.081 219.253 274.081ZM237.005 275.268C236.755 275.921 236.985 276.891 237.516 277.423C238.048 277.954 238.114 278.388 237.664 278.39C237.214 278.39 236.785 279.444 236.709 280.733C236.635 282.02 236.172 283.209 235.681 283.372C235.19 283.535 235.002 284.226 235.263 284.907C235.524 285.587 235.308 286.143 234.783 286.143C234.26 286.143 233.83 286.772 233.83 287.541C233.83 288.655 233.58 288.732 232.599 287.917C231.54 287.039 231.592 286.51 232.964 284.15C233.842 282.64 234.687 280.048 234.841 278.389C234.996 276.731 235.51 275.088 235.984 274.741C237.255 273.806 237.514 273.941 237.005 275.268ZM244.478 277.47C243.732 278.294 242.299 275.878 242.928 274.859C243.428 274.05 243.763 274.2 244.21 275.43C244.543 276.346 244.662 277.265 244.478 277.47ZM232.461 277.527C233.294 277.527 233.82 277.988 233.633 278.55C233.041 280.325 231.415 280.282 229.576 278.443C227.354 276.221 227.172 274.108 229.374 276.101C230.241 276.885 231.63 277.527 232.461 277.527ZM274.216 283.13C278.161 287.283 280.348 290.287 280.329 291.531C280.304 293.412 280.266 293.42 279.046 291.806C278.355 290.894 277.526 290.41 277.204 290.733C276.881 291.055 277.44 292.197 278.447 293.268C281.093 296.085 279.694 298.236 276.553 296.179C274.02 294.52 273.637 295.155 275.757 297.497C276.543 298.366 276.937 299.329 276.63 299.635C276.324 299.942 275.264 299.164 274.276 297.906C273.286 296.649 272.045 295.62 271.517 295.62C270.989 295.62 271.668 296.78 273.025 298.197C275.985 301.286 275.236 302.807 272.172 299.929C269.647 297.557 268.167 298.27 270.429 300.77C271.688 302.159 271.777 302.725 270.907 303.773C269.97 304.902 269.622 304.823 268.148 303.143C266.97 301.802 266.325 301.549 266.011 302.303C265.764 302.899 265.208 303.167 264.775 302.899C263.445 302.078 263.902 303.955 265.316 305.129C266.238 305.894 266.369 306.507 265.747 307.13C265.123 307.753 264.531 307.711 263.814 306.994C262.308 305.488 260.997 305.727 262.281 307.274C262.88 307.996 263.117 308.84 262.808 309.15C262.498 309.459 261.699 308.965 261.033 308.053C260.365 307.14 259.539 306.675 259.195 307.018C258.852 307.361 259.061 308.233 259.661 308.955C260.261 309.677 260.427 310.268 260.032 310.268C259.636 310.268 258.46 309.202 257.419 307.899C256.377 306.596 255.228 305.825 254.864 306.185C254.501 306.545 255.265 307.948 256.563 309.303C258.496 311.321 258.683 311.859 257.595 312.275C256.727 312.61 255.455 311.72 253.915 309.7C252.621 308.004 251.418 307.046 251.243 307.572C251.068 308.098 251.737 309.561 252.728 310.823C253.721 312.084 254.3 313.348 254.016 313.631C253.731 313.914 252.785 313.265 251.912 312.188C251.039 311.112 250.095 310.603 249.814 311.059C249.533 311.514 249.986 312.268 250.822 312.735C251.656 313.203 252.047 313.88 251.687 314.239C251.328 314.599 250.574 314.434 250.014 313.873C249.453 313.312 248.606 312.854 248.133 312.854C247.654 312.854 247.731 313.313 248.305 313.887C249.979 315.56 249.49 316.441 247.485 315.368C245.93 314.536 245.713 314.589 246.138 315.697C246.432 316.463 246.08 317.236 245.299 317.536C243.853 318.09 241.585 316.662 241.585 315.199C241.585 314.71 242.36 315.011 243.307 315.869C244.255 316.727 245.03 316.994 245.03 316.463C245.03 315.333 242.035 313.551 241.327 314.26C240.781 314.806 237.479 308.802 235.817 304.238C234.157 299.686 234.393 297.607 236.63 297.039C237.696 296.769 241.15 294.4 244.306 291.776C247.462 289.151 250.328 287.004 250.678 287.004C251.026 287.004 252.128 286.192 253.125 285.199C263.036 275.334 266.489 274.995 274.216 283.13ZM294.143 278.197C294.143 282.713 288.099 286.596 282.398 285.74C280.328 285.43 278.634 284.853 278.634 284.459C278.634 283.37 281.094 282.66 281.665 283.584C282.168 284.398 285.246 284.199 288.622 283.135C289.615 282.822 290.947 281.239 291.584 279.616C292.83 276.44 294.143 275.712 294.143 278.197ZM220.272 278.133C219.212 278.339 217.273 278.343 215.963 278.146C214.653 277.947 215.521 277.78 217.89 277.773C220.26 277.767 221.332 277.929 220.272 278.133ZM242.821 279.984C242.488 280.765 242.274 282.471 242.345 283.773C242.416 285.077 242.079 286.143 241.598 286.143C240.648 286.143 240.4 281.093 241.244 278.895C241.53 278.148 242.138 277.767 242.595 278.049C243.052 278.332 243.153 279.202 242.821 279.984ZM250.981 279.778C249.721 281.297 249.109 280.852 249.839 278.948C250.138 278.171 250.747 277.763 251.194 278.039C251.68 278.34 251.593 279.041 250.981 279.778ZM280.05 279.307C278.807 280.284 277.344 280.81 276.801 280.475C276.182 280.093 276.744 279.453 278.3 278.766C282.001 277.131 282.586 277.312 280.05 279.307ZM289.99 278.841C290.046 280.599 285.54 283.127 284.04 282.18C282.239 281.045 281.451 278.897 283.027 279.422C283.666 279.635 285.168 279.299 286.365 278.674C288.714 277.449 289.948 277.506 289.99 278.841ZM245.578 285.388L244.309 288.297L244.24 285.553C244.201 284.044 244.632 281.717 245.198 280.383L246.225 277.958L246.536 280.218C246.707 281.462 246.276 283.788 245.578 285.388ZM255.877 280.593C254.985 281.246 253.924 281.576 253.52 281.326C252.105 280.452 252.807 279.68 255.143 279.544C257.347 279.416 257.394 279.485 255.877 280.593ZM264.118 282.649C260.878 285.421 260.933 286.653 264.554 292.39C267.675 297.336 275.441 294.153 274.025 288.509C273.621 286.9 267.961 279.988 267.176 280.147C267.081 280.166 265.704 281.292 264.118 282.649ZM250.865 282.858C250.332 284.456 248.478 284.721 248.478 283.2C248.478 282.449 249.092 281.836 249.842 281.836C250.592 281.836 251.053 282.295 250.865 282.858ZM269.601 285.067C272.073 287.874 272.223 288.979 270.343 290.54C269.124 291.55 268.575 291.26 266.076 288.284L263.207 284.867L265.105 283.813C267.562 282.446 267.208 282.348 269.601 285.067ZM211.656 284.165C210.596 284.369 208.657 284.375 207.347 284.176C206.037 283.979 206.905 283.812 209.274 283.805C211.643 283.799 212.714 283.96 211.656 284.165ZM211.428 286C211.428 286.395 210.071 286.718 208.412 286.718C206.754 286.718 205.397 286.395 205.397 286C205.397 285.604 206.754 285.282 208.412 285.282C210.071 285.282 211.428 285.604 211.428 286ZM239.83 287.398C240.403 288.088 240.607 289.08 240.283 289.604C239.715 290.524 237.368 288.307 237.304 286.79C237.259 285.712 238.724 286.065 239.83 287.398ZM231.041 290.367C230.486 290.557 229.276 291.415 228.353 292.276C227.43 293.135 226.316 293.615 225.875 293.343C225.435 293.071 226.366 291.768 227.944 290.448C229.899 288.813 231.012 288.363 231.433 289.034C231.773 289.576 231.597 290.176 231.041 290.367ZM211.631 293.347C211.376 295.401 210.961 296.26 210.549 295.593C210.181 294.998 210.274 293.384 210.753 292.006C211.879 288.78 212.148 289.192 211.631 293.347ZM223.491 290.452C223.491 290.925 222.716 291.313 221.767 291.313C220.82 291.313 220.044 290.925 220.044 290.452C220.044 289.978 220.82 289.59 221.767 289.59C222.716 289.59 223.491 289.978 223.491 290.452ZM250.793 292.006C247.645 295.292 247.845 296.454 252.434 301.559C256.973 306.607 257.071 306.637 260.169 303.974C263.406 301.189 263.156 298.181 259.297 293.471C255.6 288.96 253.978 288.681 250.793 292.006ZM205.77 292.215C204.854 292.547 203.922 292.654 203.698 292.451C202.998 291.812 205.702 290.539 206.591 291.088C207.056 291.375 206.686 291.882 205.77 292.215ZM235.122 292.964C235.122 294.347 234.878 295.721 234.58 296.02C233.853 296.745 232.776 292.321 233.424 291.274C234.384 289.72 235.122 290.455 235.122 292.964ZM217.46 293.2C217.46 294.343 214.663 293.697 214.25 292.458C214.037 291.816 214.559 291.617 215.687 291.912C216.662 292.166 217.46 292.747 217.46 293.2ZM259.678 298.283C259.678 301.359 256.768 301.032 253.91 297.633C251.345 294.584 251.252 294.254 252.555 292.815C254.153 291.049 259.678 295.291 259.678 298.283ZM224.353 294.742C224.353 295.15 223.189 295.74 221.767 296.052C220.346 296.363 219.183 296.977 219.183 297.413C219.183 297.848 218.601 298.206 217.89 298.206C217.18 298.206 216.598 298.641 216.598 299.173C216.598 299.841 216.199 299.808 215.305 299.068C214.119 298.084 213.93 298.158 214.057 299.555C214.141 300.476 209.863 303.375 208.42 303.375C207.626 303.375 207.131 303.842 207.321 304.412C207.763 305.733 204.605 309.406 203.028 309.406C202.136 309.406 202.272 308.789 203.568 306.969C208.898 299.484 224.353 290.392 224.353 294.742ZM276.05 293.917C276.05 294.411 276.648 295.043 277.379 295.323C279.399 296.099 279.637 295.262 277.733 294.073C276.667 293.408 276.05 293.351 276.05 293.917ZM205.925 297.547C204.428 298.533 203.674 298.321 203.674 296.914C203.674 296.202 203.188 295.582 202.596 295.535C202.004 295.488 202.488 295.172 203.674 294.836C205.992 294.174 207.778 296.324 205.925 297.547ZM231.246 296.914C231.246 300.845 229.984 300.844 229.85 296.913C229.793 295.255 230.085 293.897 230.496 293.897C230.908 293.897 231.246 295.255 231.246 296.914ZM227.636 300.706C227.884 304.091 226.794 306.822 225.195 306.822C224.166 306.822 223.676 298.782 224.629 297.531C226.101 295.6 227.358 296.928 227.636 300.706ZM239.547 299.13C235.645 302.199 239.226 312.854 244.161 312.854C250.199 312.854 251.319 308.739 247.061 302.18C243.588 296.83 242.851 296.531 239.547 299.13ZM221.826 300.576C221.86 300.931 222.033 302.345 222.213 303.717C222.451 305.545 222.282 305.958 221.584 305.259C220.374 304.049 219.895 299.929 220.965 299.929C221.406 299.929 221.794 300.22 221.826 300.576ZM245.876 303.544C247.741 307.405 247.213 309.08 244.412 308.191C242.084 307.452 239.361 301.639 240.888 300.67C243.033 299.309 244.136 299.945 245.876 303.544ZM268.415 301.578C269.533 302.486 270.601 303.077 270.787 302.891C271.417 302.265 268.953 299.929 267.662 299.929C266.789 299.929 267.028 300.455 268.415 301.578ZM279.496 301.221C279.496 301.932 279.108 302.513 278.634 302.513C278.16 302.513 277.773 301.932 277.773 301.221C277.773 300.511 278.16 299.929 278.634 299.929C279.108 299.929 279.496 300.511 279.496 301.221ZM230.678 304.065C231.016 305.841 230.901 306.711 230.37 306.383C229.903 306.095 229.521 304.653 229.521 303.181C229.521 299.927 229.952 300.255 230.678 304.065ZM221.067 306.877C223.969 307.854 227.544 308.59 229.009 308.512C233.059 308.297 233.557 308.504 231.676 309.618C229.339 311.001 226.318 311.358 225.681 310.327C225.394 309.863 224.563 309.711 223.836 309.989C222.361 310.555 218.753 308.912 216.409 306.606C214.477 304.708 214.663 304.718 221.067 306.877ZM210.567 307.683C210.567 308.157 210.156 308.545 209.654 308.545C209.152 308.545 209.007 308.976 209.334 309.503C209.659 310.03 209.404 310.783 208.767 311.177C207.914 311.704 208.256 312.138 210.068 312.828C211.421 313.342 212.314 313.977 212.052 314.24C211.79 314.502 210.792 314.297 209.835 313.785C207.429 312.497 206.715 312.62 207.95 314.107C208.523 314.798 208.727 315.791 208.404 316.313C207.506 317.766 205.46 314.508 206.258 312.895C206.621 312.162 207.418 310.494 208.026 309.192C209.118 306.859 210.567 305.999 210.567 307.683ZM215.235 311.393C213.591 312.314 212.168 310.728 212.906 308.802C213.278 307.834 213.675 307.89 215.013 309.102C216.521 310.466 216.541 310.663 215.235 311.393ZM262.694 312.854C262.401 313.327 261.76 313.715 261.269 313.715C260.777 313.715 259.25 314.517 257.873 315.497C256.497 316.477 255.371 316.874 255.371 316.378C255.371 315.884 256.824 314.711 258.602 313.773C262.225 311.861 263.483 311.578 262.694 312.854ZM234.521 317.774C232.169 322.655 226.7 325.346 219.14 325.346C212.505 325.346 208.135 323.614 210.019 321.731C210.372 321.378 210.983 321.611 211.378 322.251C211.774 322.891 212.528 323.147 213.055 322.821C213.582 322.496 214.012 322.655 214.012 323.174C214.012 324.29 218.488 323.989 219.332 322.817C219.676 322.34 220.468 322.471 221.271 323.138C222.371 324.05 222.628 324.054 222.628 323.154C222.628 322.543 222.88 322.295 223.188 322.603C223.495 322.91 224.486 322.309 225.391 321.266C226.752 319.695 227.165 319.583 227.801 320.61C228.222 321.292 228.878 321.517 229.259 321.111C229.641 320.704 229.468 320.199 228.876 319.987C228.284 319.776 227.799 319.206 227.799 318.72C227.799 318.236 228.4 318.07 229.136 318.352C229.974 318.674 230.255 318.512 229.89 317.92C229.491 317.276 229.953 317.182 231.345 317.624C233.085 318.176 233.229 318.083 232.323 316.991C231.738 316.287 231.511 315.459 231.819 315.151C232.127 314.844 232.955 315.07 233.659 315.654C234.752 316.561 234.853 316.402 234.344 314.57C233.847 312.78 233.906 312.675 234.695 313.934C235.4 315.057 235.354 316.045 234.521 317.774ZM218.321 314.369C218.321 314.729 217.563 315.497 216.638 316.075C214.881 317.171 213.446 316.191 214.443 314.577C215.063 313.575 218.321 313.4 218.321 314.369ZM239.848 316.621C239.856 317.034 239.283 316.893 238.579 316.308C237.873 315.722 237.534 314.857 237.824 314.387C238.358 313.523 239.822 315.138 239.848 316.621ZM225.212 317.046C225.213 317.847 224.594 318.057 223.275 317.704C222.209 317.419 220.829 317.18 220.209 317.173C219.588 317.167 219.286 316.829 219.538 316.423C220.294 315.199 225.209 315.74 225.212 317.046ZM222.628 319.846C222.628 320.266 221.66 320.608 220.475 320.608C219.232 320.608 218.321 320.111 218.321 319.435C218.321 318.648 219.03 318.397 220.475 318.674C221.66 318.9 222.628 319.428 222.628 319.846ZM237.737 319.953C236.108 320.865 235.097 320.321 235.926 318.979C236.225 318.495 237.082 318.332 237.829 318.619C239.043 319.086 239.033 319.228 237.737 319.953ZM245.5 322.269C244.652 323.641 243.288 322.524 243.89 320.953C244.222 320.089 244.691 319.923 245.243 320.475C245.707 320.939 245.822 321.747 245.5 322.269ZM239.862 322.29C240.736 322.478 237.133 324.194 235.085 324.566C232.841 324.972 232.714 324.859 233.409 323.047C233.766 322.116 237.181 321.716 239.862 322.29ZM208.599 325.706C209.277 326.792 210.235 327.2 211.391 326.898C212.387 326.638 213.151 326.856 213.151 327.4C213.151 327.929 212.269 328.363 211.189 328.363C209.043 328.363 205.397 326.162 205.397 324.867C205.397 323.437 207.53 323.997 208.599 325.706Z" fill="#FF0000"/>
</svg>
