<svg width="400" height="400" viewBox="0 0 400 400" fill="none" xmlns="http://www.w3.org/2000/svg">
<path fill-rule="evenodd" clip-rule="evenodd" d="M296.568 75.8674C292.962 79.0692 285.57 85.8213 280.141 90.8717C274.713 95.9221 264.188 105.571 256.753 112.311C242.301 125.416 241.286 126.625 243.645 127.949C246.339 129.462 254.94 137.904 256.718 140.781C258.842 144.219 260.145 144.303 262.691 141.168C264.866 138.488 284.028 117.534 301.033 99.2343C318.3 80.657 318.517 80.1569 312.1 73.7397C306.685 68.3237 304.769 68.5868 296.568 75.8674ZM210.556 132.492C205.26 133.9 198.35 137.849 192.723 142.682C173.039 159.591 160.957 166.041 137.016 172.424C134.691 173.044 132.513 173.468 132.174 173.367C131.835 173.266 129.363 173.781 126.68 174.511C123.257 175.441 116.883 175.922 105.319 176.121C96.252 176.277 88.5648 176.438 88.2356 176.479C83.1203 177.11 82.6578 182.614 86.7378 194.303C98.8694 229.058 127.27 263.721 160.261 284.036C168.287 288.977 183.179 296.582 184.832 296.582C185.523 296.582 186.885 297.139 187.856 297.82C188.829 298.502 189.855 298.827 190.138 298.545C190.42 298.264 191.135 298.432 191.728 298.922C193.69 300.544 203.272 302.611 204.867 301.758C209.335 299.367 209.565 298.418 209.771 281.563C210.205 246.147 220.204 218.966 241.513 195.277C257.677 177.309 258.264 157.772 243.098 142.606C234.641 134.149 220.664 129.804 210.556 132.492ZM204.345 181.396C213.107 190.104 220.276 197.465 220.276 197.753C220.276 198.043 218.546 200.903 216.432 204.11C204.078 222.847 196.156 249.31 195.455 274.183C195.155 284.788 194.959 285.027 188.606 282.601C182.489 280.265 182.125 279.476 181.604 267.44C181.032 254.194 180.498 254.392 171.956 271.013C170.515 273.817 168.774 273.056 157.726 264.786C149.212 258.414 149.338 258.798 153.11 250.724C156.909 242.594 160.705 235.871 166.008 227.886C170.621 220.938 170.07 219.69 164.679 224.877C156.962 232.304 139.166 245.865 137.137 245.865C135.848 245.865 128.824 238.161 121.572 228.79L117.188 223.126L124.144 218.494C131.752 213.427 144.107 202.439 143.226 201.522C142.922 201.206 140.26 201.686 137.309 202.591C111.624 210.457 105.312 208.851 102.277 193.68L101.777 191.184L112.634 190.605C123.316 190.037 135.211 188.416 140.609 186.794C142.119 186.341 143.356 186.179 143.356 186.436C143.356 186.692 143.831 186.517 144.412 186.046C144.994 185.573 147.942 184.517 150.963 183.698C158.402 181.681 173.416 174.803 181.285 169.808C184.831 167.556 187.886 165.68 188.073 165.639C188.261 165.598 195.582 172.688 204.345 181.396ZM234.485 264.308C221.915 267.493 217.379 283.594 226.489 292.692C238.409 304.593 257.453 295.287 255.475 278.527C254.37 269.162 243.742 261.963 234.485 264.308ZM291.538 285.273C287.884 287.075 285.248 292.389 286.259 295.914C288.593 304.052 299.784 305.53 303.573 298.201C307.635 290.347 299.333 281.43 291.538 285.273ZM254.871 305.705C247.144 310.671 245.863 319.909 252.027 326.221C258.037 332.376 270.323 330.736 273.847 323.309C279.637 311.108 266.061 298.512 254.871 305.705Z" fill="#0000FF"/>
</svg>
