<svg width="400" height="400" viewBox="0 0 400 400" fill="none" xmlns="http://www.w3.org/2000/svg">
<path fill-rule="evenodd" clip-rule="evenodd" d="M223.874 89.5888C218.02 91.0479 213.015 93.1029 208.816 95.7715C207.177 96.8137 206.416 96.8267 204.009 95.8516C191.013 90.5909 174.682 89.3179 163.571 92.699C160.687 93.5763 158.032 94.2264 157.671 94.1428C157.31 94.0592 157.016 94.383 157.016 94.8647C157.016 95.3452 156.598 95.7385 156.087 95.7385C153.723 95.7385 144.94 100.941 140.27 105.109L135.101 109.721H127.917C101.958 109.721 80.6057 127.054 73.071 154.242C69.2259 168.116 68.9586 185.291 72.4574 193.665C73.1511 195.324 73.681 196.934 73.6351 197.245C73.5892 197.554 74.191 198.538 74.9706 199.429C75.7502 200.321 77.0385 202.451 77.8323 204.165C81.0226 211.041 91.0692 221.416 101.52 228.625C103.922 230.283 106.086 231.874 106.326 232.16C106.566 232.447 110.315 235.088 114.655 238.029C126.905 246.332 128.481 248.791 131.127 263.742C131.359 265.057 132.141 269.186 132.864 272.919C133.587 276.652 134.432 282.358 134.742 285.596C135.05 288.836 135.683 291.72 136.145 292.006C136.607 292.292 136.753 293.26 136.468 294.158C134.239 301.183 141.23 306.807 156.223 310.047C167.311 312.445 216.861 313.013 230.24 310.898C234.223 310.268 239.139 309.576 241.166 309.358C243.191 309.14 247.798 308.329 251.403 307.554C260.014 305.702 259.516 305.82 261.017 305.283C261.738 305.025 264.097 304.339 266.26 303.757C273.906 301.701 282.576 297.568 285.436 294.617C288.631 291.321 288.594 292.49 285.983 277.522C284.611 269.654 283.843 243.687 284.819 238.132C285.947 231.699 292.794 221.919 307.433 205.826C314.222 198.361 321.834 187.252 326.432 178.099C338.983 153.108 316.555 110.054 288.317 104.94C282.971 103.972 280.16 102.723 275.646 99.3151C273.04 97.3472 270.453 95.7385 269.896 95.7385C269.339 95.7385 268.883 95.417 268.883 95.0248C268.883 93.9873 260.603 90.7523 254.026 89.2213C246.427 87.4525 231.73 87.6315 223.874 89.5888ZM250.166 92.2291C250.64 92.7025 252.193 93.2395 253.618 93.4232C255.044 93.6058 257.317 94.2017 258.67 94.7469C260.023 95.2922 261.425 95.7385 261.784 95.7385C268.545 95.7385 286.511 114.899 285.622 121.162C285.514 121.926 285.895 123.696 286.47 125.095C287.046 126.493 287.429 128.158 287.323 128.795C287.217 129.431 287.529 130.434 288.018 131.022C288.505 131.61 288.731 133.941 288.521 136.201C288.067 141.035 289.509 141.75 290.377 137.122C291.096 133.286 289.252 119.851 287.547 116.504C286.875 115.186 286.258 113.811 286.175 113.445C286.091 113.08 285.313 112.017 284.445 111.086C276.83 102.914 297.514 111.059 307.204 120.048C309.44 122.123 312.155 124.43 313.236 125.174C314.317 125.918 315.203 127.024 315.203 127.631C315.203 128.238 315.816 129.244 316.568 129.867C317.318 130.49 319.101 133.586 320.529 136.747C321.958 139.909 323.512 143.188 323.985 144.034C324.458 144.882 324.598 146.553 324.298 147.749C323.974 149.042 324.128 149.924 324.679 149.924C325.2 149.924 325.461 151.069 325.276 152.534C325.095 153.97 325.311 155.369 325.755 155.645C326.93 156.37 326.771 163.907 325.58 163.907C324.957 163.907 324.787 164.854 325.115 166.495C325.4 167.919 325.252 169.318 324.788 169.605C324.323 169.892 323.942 170.892 323.942 171.827C323.942 177.068 312.599 195.493 309.113 195.916C308.617 195.976 307.225 196.074 306.021 196.134C304.815 196.194 302.947 197.263 301.869 198.509C300.791 199.755 298.728 202.084 297.286 203.682C293.594 207.774 290.015 211.804 285.706 216.722C281.074 222.008 281.02 220.784 285.488 211.764C289.388 203.888 289.313 204.109 288.118 204.109C287.293 204.109 280.244 218.077 280.244 219.712C280.244 220.413 278.322 225.251 275.68 231.201C274.38 234.13 273.975 235.62 273.82 238.046C273.704 239.854 273.344 240.036 270.631 239.669C258.735 238.056 250.582 237.224 242.373 236.78L232.905 236.268L233.479 233.953C233.795 232.68 234.984 230.066 236.123 228.143C237.262 226.22 240.192 220.609 242.633 215.674C245.074 210.738 248.832 204.385 250.985 201.554C253.138 198.724 254.899 196.106 254.899 195.736C254.899 194.15 250.073 199.801 246.407 205.681C242.592 211.799 242.388 211.977 241.391 210.051C240.183 207.716 241.431 203.784 243.166 204.451C243.865 204.718 244.442 203.457 244.842 200.792C245.177 198.555 246.553 194.748 247.901 192.333C249.247 189.917 251.078 186.564 251.968 184.883C252.86 183.201 253.787 181.628 254.03 181.386C255.951 179.484 259.178 174.394 258.462 174.394C257.389 174.394 249.196 185.8 247.161 190.126C246.37 191.809 245.428 193.316 245.067 193.476C244.707 193.636 244.411 194.091 244.411 194.487C244.411 194.882 243.292 197.702 241.924 200.751C240.557 203.799 239.474 206.548 239.52 206.858C239.568 207.168 238.967 208.151 238.187 209.042C235.974 211.573 229.343 227.881 228.253 233.479C227.723 236.192 227.721 236.193 220.554 236.75C207.702 237.751 201.571 237.504 202.145 236.009C202.43 235.267 202.166 234.698 201.535 234.698C200.924 234.698 200.681 234.439 200.998 234.123C201.314 233.806 201.138 233.024 200.608 232.386C200.078 231.747 199.872 230.629 200.151 229.902C200.43 229.175 200.255 228.58 199.76 228.58C199.267 228.58 199.105 228.186 199.402 227.706C199.7 227.226 199.566 226.832 199.104 226.832C198.644 226.832 197.795 224.865 197.218 222.462C196.642 220.058 195.84 218.093 195.437 218.093C195.034 218.093 194.73 217.404 194.763 216.563C194.82 215.087 194.495 213.675 191.704 203.235C189.851 196.306 187.725 186.776 187.071 182.479C186.504 178.747 184.983 177.283 184.983 180.469C184.983 182.331 186.562 190.646 187.316 192.747C187.574 193.469 187.905 195.48 188.052 197.219C188.198 198.957 188.702 201.12 189.173 202.026C189.644 202.932 190.682 206.818 191.479 210.664C192.275 214.509 193.353 219.425 193.873 221.588C194.392 223.751 195.126 227.29 195.502 229.454C195.877 231.617 196.447 234.42 196.769 235.683L197.354 237.98L188.327 239.022C178.873 240.114 172.089 241.163 168.222 242.134C166.179 242.646 165.86 242.407 165.322 239.956C164.989 238.44 164.141 236.98 163.438 236.71C162.735 236.441 162.357 235.706 162.597 235.078C162.838 234.449 162.331 233.025 161.467 231.913C160.605 230.801 158.812 227.138 157.481 223.773C156.15 220.408 152.972 213.526 150.419 208.478C147.864 203.432 145.205 197.925 144.508 196.244C143.812 194.561 142.211 190.912 140.953 188.135C139.692 185.358 138.662 182.704 138.662 182.237C138.662 181.769 138.269 181.386 137.788 181.386C137.308 181.386 136.914 181.761 136.914 182.219C136.914 183.725 138.927 187.504 139.728 187.504C140.16 187.504 140.29 187.867 140.015 188.311C139.741 188.755 140.264 190.426 141.176 192.025C142.089 193.624 144.703 199.652 146.987 205.42C149.27 211.188 151.478 216.282 151.892 216.737C152.938 217.889 152.841 222.462 151.772 222.462C151.291 222.462 151.632 223.197 152.529 224.093C153.426 224.99 154.891 227.645 155.786 229.993C156.68 232.34 158.434 236.263 159.682 238.709L161.953 243.157L157.954 244.352C155.756 245.009 153.29 245.576 152.474 245.611C151.659 245.646 150.708 245.957 150.362 246.304C149.419 247.247 148.276 247.062 148.276 245.967C148.276 243.979 130.416 223.336 128.697 223.336C128.226 223.336 128.451 223.828 129.197 224.429C131.117 225.976 137.229 235.548 136.66 236.117C136.4 236.377 132.16 232.62 127.238 227.77C116.362 217.053 114.491 216.849 124.746 227.499C133.603 236.696 138.662 242.318 138.662 242.963C138.662 244.267 136.346 242.968 130.16 238.198C126.425 235.317 122.877 232.957 122.276 232.955C121.675 232.951 121.183 232.557 121.183 232.076C121.183 231.595 120.593 231.201 119.872 231.201C119.152 231.201 118.562 230.875 118.562 230.476C118.562 230.077 117.479 229.191 116.158 228.509C114.837 227.827 113.361 226.982 112.881 226.63C103.49 219.764 97.5463 215.212 95.5596 213.364C94.2041 212.103 92.7591 211.28 92.3481 211.534C91.2741 212.197 86.9297 210.095 85.1291 208.043C83.3096 205.966 77.0715 196.06 77.0574 195.224C77.0527 194.903 76.7806 194.373 76.4532 194.046C76.1259 193.719 76.0693 192.899 76.3284 192.225C76.5863 191.551 76.3755 190.999 75.8585 190.999C75.3415 190.999 75.1449 190.409 75.4216 189.689C75.6984 188.968 75.4593 188.378 74.8905 188.378C74.2675 188.378 73.9307 187.247 74.0438 185.537C74.1474 183.975 73.9248 181.974 73.5503 181.089C73.1746 180.205 73.157 176.273 73.5091 172.35C73.86 168.427 74.1309 164.449 74.1097 163.511C74.0885 162.571 74.4948 161.293 75.0118 160.67C75.5288 160.047 75.6583 159.537 75.3003 159.537C74.9423 159.537 75.1048 158.988 75.6607 158.318C76.2177 157.648 76.5969 156.763 76.5027 156.352C76.4097 155.941 76.6299 154.818 76.9926 153.856C77.3553 152.895 78.4588 149.945 79.4457 147.301C83.7901 135.667 92.7709 124.755 101.099 120.99C103.494 119.909 105.452 118.677 105.452 118.254C105.452 117.83 105.845 117.727 106.326 118.025C106.806 118.321 107.2 118.204 107.2 117.763C107.2 116.212 121.362 113.093 127.095 113.38L132.569 113.654L128.187 120.111C125.777 123.663 123.805 127.073 123.805 127.687C123.805 128.302 123.567 129.428 123.275 130.187C122.983 130.948 123.179 131.57 123.712 131.57C124.244 131.57 124.68 131.115 124.68 130.561C124.68 125.771 142.58 106.771 152.117 101.437C161.393 96.2508 181.701 92.7461 188.478 95.1638C189.199 95.4205 192.936 96.4616 196.781 97.4779C200.626 98.4942 207.214 101.067 211.42 103.197C219.792 107.436 221.607 107.083 214.696 102.56C212.294 100.986 210.334 99.4964 210.343 99.2479C210.365 98.5496 219.163 94.9436 222.362 94.3206C223.934 94.0144 225.41 93.4585 225.64 93.0852C225.871 92.7119 226.846 92.6118 227.807 92.8627C228.784 93.1182 229.554 92.8897 229.554 92.3445C229.554 91.0997 248.929 90.9914 250.166 92.2291ZM218.219 143.277C217.619 145.418 217.304 147.69 217.518 148.328C217.733 148.965 218.41 147.4 219.023 144.852C220.389 139.172 219.729 137.881 218.219 143.277ZM121.186 151.452C121.189 155.916 124.363 171.947 126.036 175.949C126.783 177.738 127.346 179.202 127.286 179.202C127.149 179.202 128.538 182.916 131.37 190.126C132.598 193.25 134.406 197.183 135.388 198.865C138.903 204.888 146.024 215.392 146.36 215.056C146.654 214.762 139.417 201.061 136.886 197.117C133.189 191.358 125.553 170.967 125.553 166.859C125.553 166.197 125.258 165.652 124.898 165.649C124.537 165.646 124.141 163.598 124.019 161.099C123.896 158.601 123.447 156.207 123.02 155.78C122.594 155.354 122.451 153.469 122.704 151.59C123.003 149.362 122.818 148.176 122.172 148.176C121.612 148.176 121.184 149.595 121.186 151.452ZM216.445 152.254C216.445 153.215 216.171 154.275 215.836 154.61C215.503 154.944 215.152 155.698 215.058 156.286C214.965 156.872 214.27 159.711 213.516 162.595C212.763 165.48 211.929 169.61 211.663 171.773C211.398 173.935 210.793 177.869 210.319 180.512C209.362 185.858 208.78 190.611 208.125 198.428C207.437 206.646 204.792 210.896 201.595 208.921C200.358 208.157 200.495 203.803 201.796 202.503C203.177 201.121 203.203 198.681 201.848 197.554C201.204 197.019 200.572 192.619 200.214 186.193C199.892 180.425 199.335 175.312 198.975 174.831C198.616 174.351 198.446 171.707 198.6 168.957C198.753 166.207 198.49 163.715 198.013 163.421C197.446 163.071 197.319 168.12 197.646 178.036C198.441 202.186 199.072 211.101 199.986 211.101C200.455 211.101 200.74 211.985 200.62 213.068C200.187 216.945 206.27 235.549 207.552 234.268C207.826 233.995 208.338 226.409 208.692 217.411C209.045 208.412 209.598 199.674 209.921 197.991C210.245 196.31 210.615 194.146 210.743 193.184C210.873 192.223 211.056 191.436 211.152 191.436C211.247 191.436 211.486 189.863 211.683 187.941C212.247 182.42 214.68 166.777 216.204 158.874C216.969 154.904 217.337 151.397 217.02 151.081C216.703 150.765 216.445 151.292 216.445 152.254ZM134.338 174.394C134.316 175.956 135.771 178.452 136.358 177.864C136.586 177.637 136.228 176.468 135.564 175.267C134.863 174.001 134.347 173.635 134.338 174.394ZM277.433 193.84C272.428 199.567 267.825 205.991 265.052 211.117C264.146 212.791 262.913 214.563 262.312 215.057C261.266 215.914 253.151 232.016 253.151 233.235C253.151 235.09 255.169 233.209 257.676 229.017C259.258 226.373 260.853 224.211 261.221 224.211C261.59 224.211 261.891 223.621 261.891 222.899C261.891 222.178 262.285 221.588 262.765 221.588C263.246 221.588 263.639 221.016 263.639 220.316C263.639 219.615 264.725 217.158 266.051 214.853C267.378 212.55 269.043 209.484 269.751 208.041C270.817 205.871 275.514 198.902 281.88 190.046C284.369 186.583 282.029 188.581 277.433 193.84ZM112.565 216.27C113.7 217.189 114.825 217.747 115.064 217.509C115.576 216.999 112.477 214.596 111.306 214.596C110.863 214.596 111.431 215.349 112.565 216.27ZM259.706 240.418C264.513 241.196 268.838 241.933 269.32 242.058C269.8 242.182 271.767 242.594 273.689 242.974C278.058 243.838 279.37 244.857 279.37 247.392C279.37 249.356 279.312 249.367 275.298 248.158C273.059 247.485 269.978 246.934 268.452 246.934C266.927 246.934 265.424 246.679 265.113 246.368C264.802 246.057 263.459 245.707 262.127 245.589C229.698 242.709 220.904 242.86 185.857 246.9C168.609 248.887 148.185 253.821 139.754 258.035C134.696 260.564 134.596 260.553 134.16 257.425C133.745 254.455 140.244 251.243 153.574 247.826C159.072 246.418 163.767 245.2 164.008 245.121C164.248 245.042 164.798 245.045 165.23 245.125C165.662 245.206 166.646 245.003 167.415 244.676C168.185 244.349 169.71 243.961 170.804 243.816C171.898 243.67 174.848 243.163 177.359 242.687C179.87 242.211 182.513 241.793 183.234 241.759C183.956 241.725 190.052 241.123 196.781 240.422C203.51 239.722 211.375 238.98 214.26 238.775C224.406 238.051 251.037 239.014 259.706 240.418ZM262.328 247.759C268.577 248.675 274.919 249.87 276.42 250.411L279.151 251.397L279.78 262.774C280.527 276.277 281.049 275.448 272.933 273.643C269.34 272.843 263.124 271.988 259.12 271.742C255.116 271.496 250.857 270.991 249.655 270.62C247.163 269.85 224.264 270.128 212.512 271.07C208.186 271.416 203.477 271.642 202.047 271.572C198.959 271.42 172.109 275.22 164.008 276.955C159.193 277.986 155.201 278.995 149.36 280.656C148.753 280.829 148.163 280.922 148.048 280.864C147.934 280.807 146.13 281.631 144.04 282.697C139.937 284.79 139.344 284.668 139.022 281.666C138.471 276.509 137.601 271.935 136.449 268.139C134.64 262.18 134.625 262.211 140.629 259.725C168.814 248.057 226.022 242.433 262.328 247.759ZM262.328 273.647C273.383 274.805 280.517 277.03 281.369 279.587C282.365 282.574 281.703 283.335 279.15 282.135C264.514 275.254 199.306 275.086 172.747 281.86C171.064 282.289 166.935 283.293 163.571 284.09C155.203 286.072 145.019 289.726 143.813 291.18C142.226 293.093 140.652 292.576 140.153 289.976C139.498 286.568 140.396 285.875 148.959 283.176C153.151 281.855 157.366 280.479 158.327 280.119C164.024 277.98 195.754 273.448 206.825 273.191C210.908 273.095 214.447 272.805 214.691 272.543C215.192 272.006 255.605 272.941 262.328 273.647Z" fill="#0000FF"/>
</svg>
