<svg width="400" height="400" viewBox="0 0 400 400" fill="none" xmlns="http://www.w3.org/2000/svg">
<path fill-rule="evenodd" clip-rule="evenodd" d="M191.158 89.4693C189.315 89.8282 178.96 92.8124 176.207 93.7778C175.273 94.1056 170.38 95.6263 165.334 97.158C154.738 100.374 137.008 105.855 128.635 108.505C116.794 112.252 113.592 114.347 109.77 120.848L107.906 124.019L107.567 162.903C107.162 209.213 108.717 204.008 95.2127 204.22C74.7581 204.539 60.0384 216.364 60.0003 232.505C59.9442 256.62 103.815 257.457 115.324 233.561L117.021 230.039L117.663 193.912C118.449 149.804 117.688 152.128 132.854 147.488C136.7 146.311 145.047 143.703 151.401 141.691C157.755 139.679 167.542 136.61 173.149 134.87C178.756 133.13 184.654 131.278 186.255 130.751C196.765 127.303 197.574 129.714 197.175 163.3C196.887 187.537 197.477 186.01 188.791 184.998C168.836 182.672 151.908 192.929 148.886 209.178C144.121 234.8 187.745 240.127 203.879 215.893L207.13 211.01L207.31 152.736L207.492 94.4604L205.169 91.9263C202.789 89.328 197.052 88.3225 191.158 89.4693ZM322.664 148.256C320.054 148.88 315.949 150.109 295.819 156.299C290.773 157.851 283.127 160.192 278.829 161.501C248.252 170.814 245.202 172.264 241.178 179.408L239.072 183.145L238.719 221.884C238.308 266.958 238.762 264.394 231.465 262.834C221.823 260.771 208.008 265.264 199.769 273.143C185.912 286.394 188.99 302.389 206.774 309.548C219.778 314.783 241.384 304.715 247.602 290.525C248.674 288.081 248.825 284.239 249.101 252.467C249.32 227.175 249.639 216.554 250.224 215.115C252.201 210.238 253.655 209.631 291.741 197.748C297.909 195.823 306.166 193.222 310.092 191.966C328.961 185.929 328.102 184.713 328.097 217.467C328.092 244.69 328.054 244.975 324.503 244.347C306.205 241.106 288.926 247.79 282.389 260.638C267.046 290.789 316.415 302.856 336.145 273.779L340 268.097L339.997 210.978L339.994 153.858L337.446 151.382C333.44 147.491 329.424 146.641 322.664 148.256Z" fill="#0000FF"/>
</svg>
