<svg width="400" height="400" viewBox="0 0 400 400" fill="none" xmlns="http://www.w3.org/2000/svg">
<path fill-rule="evenodd" clip-rule="evenodd" d="M255.166 87.7618C247.395 97.5298 239.762 107.187 238.206 109.22L235.377 112.918H181.312C118.844 112.918 123.518 112.052 131.707 122.122C134.694 125.794 140.429 132.878 144.452 137.863C148.473 142.848 154.855 150.695 158.631 155.301C165.531 163.713 169.835 169.414 184.705 189.846L192.752 200.902L192.274 253.133L191.796 305.363L189.511 308.661C186.501 313.005 180.432 317.661 175.486 319.42C173.298 320.199 170.928 321.048 170.22 321.307C169.511 321.566 168.602 321.702 168.198 321.611C167.794 321.519 167.022 321.794 166.481 322.219C165.94 322.645 163.373 323.264 160.777 323.593C155.684 324.24 148.76 326.911 148.76 328.228C148.76 330.25 242.257 330.72 242.929 328.7C243.415 327.242 237.745 324.911 231.326 323.933C228.169 323.453 225.218 322.71 224.769 322.282C224.321 321.855 223.355 321.504 222.624 321.504C219.996 321.503 210.923 316.511 207.423 313.142C200.523 306.5 200.911 310.496 201.614 253.073L202.24 201.981L205.283 198.008C206.958 195.823 211.41 189.98 215.177 185.022C221.776 176.338 235.482 159.073 259.437 129.268C273.21 112.129 273.406 112.918 255.407 112.918H243.068L247.202 107.611C249.476 104.692 256.261 96.1198 262.28 88.561C274.138 73.6724 275.646 70 269.904 70C269.569 70 262.938 77.9926 255.166 87.7618ZM215.876 74.3248C212.742 77.2442 214.258 82.0166 218.316 82.0166C222.522 82.0166 224.183 77.8457 221.176 74.8383C218.456 72.1179 218.264 72.0994 215.876 74.3248ZM177.236 78.8531C174.901 81.3388 174.863 83.7238 177.119 86.1471C179.767 88.989 184.218 88.6964 186.47 85.5329C190.746 79.5275 182.325 73.4365 177.236 78.8531ZM200.263 90.3446C193.206 92.9032 191.221 101.245 196.429 106.452C201.517 111.541 208.486 110.017 211.77 103.097C214.887 96.527 207.079 87.874 200.263 90.3446ZM158.434 124.292C159.214 124.883 163.48 131.738 167.912 139.528C172.346 147.319 177.189 155.737 178.675 158.236C180.162 160.735 181.378 162.917 181.378 163.084C181.378 163.25 182.959 165.989 184.891 169.169C189.589 176.904 191.719 180.731 191.322 180.731C190.976 180.731 179.361 165.159 161.23 140.387C155.184 132.125 149.857 124.883 149.393 124.292C148.743 123.465 149.519 123.219 152.783 123.219C155.11 123.219 157.654 123.702 158.434 124.292Z" fill="#0000FF"/>
</svg>
