<svg width="400" height="400" viewBox="0 0 400 400" fill="none" xmlns="http://www.w3.org/2000/svg">
<path fill-rule="evenodd" clip-rule="evenodd" d="M261.237 72.5361C258.675 75.5284 257.501 78.7836 256.684 85.1566C256.213 88.8207 255.446 89.3356 253.005 87.6296C245.966 82.7084 233.589 80.9483 233.589 84.8688C233.589 86.1291 242.462 94.5153 245.358 95.992C247.047 96.8542 248.258 98.002 248.259 98.7409C248.259 99.4386 249.094 100.979 250.114 102.164C253.085 105.62 253.234 107.59 250.69 109.828C244.062 115.658 245.303 124.579 252.74 124.579C257.1 124.579 258.467 118.022 254.428 116.487C252.351 115.697 252.684 114.311 254.95 114.311C261.604 114.311 259.969 131.424 252.956 135.2C251.403 136.036 249.447 138.142 248.045 140.486C245.261 145.142 244.444 145.28 242.061 141.506C238.417 135.735 228.748 131.629 230.266 136.497C232.762 144.509 232.548 146.455 229.486 143.59C223.375 137.874 226.782 121.645 234.093 121.645C236.157 121.645 236.332 122.84 234.36 123.467C230.412 124.721 233.063 130.469 237.568 130.423C240.108 130.397 241.75 129.366 243.004 127.011C246.565 120.325 237.545 113.634 229.668 117.119C225.584 118.926 225.522 118.86 225.522 112.747C225.522 100.238 217.312 91.43 205.65 91.4289C190.999 91.4257 184.012 109.485 196.625 114.755C207.485 119.293 217.088 107.953 208.502 100.727C205.881 98.5224 202.584 98.3763 200.585 100.376C197.072 103.888 200.615 109.316 204.918 107.013C207.231 105.775 206.955 108.08 204.605 109.621C200.656 112.207 195.451 109.875 195.451 105.518C195.451 98.8447 204.355 94.1605 211.427 97.1138C218.338 100.001 220.612 104.189 220.66 114.12C220.706 123.223 220.39 123.694 215.425 121.931C208.877 119.605 201.687 123.721 200.805 130.302C199.823 137.621 210.823 140.121 213.306 133.144C214.267 130.442 212.517 128.817 209.244 129.37C205.568 129.991 205.627 128.53 209.354 126.635C212.454 125.061 216.411 126.752 218.847 130.693C221.339 134.724 220.946 136.063 217.108 136.639C209.999 137.706 208.001 147.315 214.887 147.315C217.706 147.315 218.921 146.166 218.921 143.502C218.921 140.66 219.305 140.822 225.369 146.218C228.311 148.835 231.695 151.481 232.887 152.099C235.713 153.56 235.836 153.197 229.784 161.25C212.984 183.608 205.49 197.172 198.654 217.596C191.244 239.736 189.729 241.583 183.709 235.828C173.885 226.436 160.573 231.213 156.928 245.437C155.456 251.186 156.192 254.462 161.326 265.016C168.617 280.004 168.501 283.001 160.626 283.001C156.404 283.001 154.993 284.073 152.002 289.556C149.862 293.478 149.136 291.666 149.68 283.764C150.279 275.079 149.168 272.419 143.233 268.331C136.192 263.483 134.581 261.065 135.623 256.915C136.263 254.367 140.867 252.305 142.429 253.867C143.333 254.771 143.171 255.038 141.225 255.844C137.048 257.574 139.077 263.198 143.879 263.198C148.011 263.198 150.001 256.377 147.26 251.602C146.042 249.48 146.061 249.347 147.943 246.501C149.007 244.894 150.107 242.357 150.387 240.863C150.667 239.369 151.381 237.759 151.973 237.286C159.033 231.653 156.143 226.445 148.244 230.564C145.178 232.163 143.627 231.929 140.469 229.392C134.632 224.702 129.649 227.613 133.832 233.27C135.185 235.099 135.334 235.971 134.896 239.476C134.325 244.047 135.237 244.329 139.919 241.03C142.421 239.267 144.111 239.783 144.111 242.308C144.111 245.43 142.205 248.286 139.802 248.768C134.385 249.851 130.315 256.31 131.574 261.827C132.419 265.53 132.599 265.744 138.583 270.169C142.746 273.248 144.013 274.624 144.382 276.471C145.001 279.572 144.72 279.737 141.192 278.325C136.882 276.601 134.293 276.7 135.284 278.551C137.458 282.613 135.709 285.201 130.788 285.201C127.305 285.201 124.992 283.393 126.126 281.558C127.099 279.985 126.577 269.089 125.364 265.657L124.107 262.098L126.775 256.878C130.565 249.462 130.202 245.322 125.221 239.137C122.731 236.048 122.343 233.991 124.693 236.34C126.805 238.453 130.407 236.411 130.034 233.312C129.432 228.301 123.628 227.615 119.545 232.072C116.714 235.164 116.037 235.199 114.017 232.362C111.461 228.772 111.179 222.243 113.464 219.585C115.601 217.101 117.106 217.613 116.504 220.619C115.837 223.956 118.372 224.906 121.322 222.425C125.644 218.787 122.91 212.634 116.974 212.641C107.225 212.65 103.068 227.262 110.43 235.646C112.692 238.223 112.748 238.441 111.863 241.124C109.819 247.318 114.953 251.922 119.047 247.565C121.146 245.329 121.063 244.129 118.808 244.129C116.764 244.129 116.277 242.353 118.127 241.643C120.775 240.626 125.041 245.315 125.041 249.241C125.041 252.135 124.284 253.589 119.742 259.411C115.362 265.024 112.987 269.601 111.506 275.289C110.16 280.458 110.109 280.516 107.809 279.469C105.488 278.411 105.508 277.573 107.978 272.271C111.863 263.929 110.097 254.942 103.286 248.389C91.9635 237.499 71.2943 248.578 79.752 261.005C86.8843 271.485 101.83 266.705 97.8269 255.224C95.9067 249.713 87.6362 250.202 87.6362 255.826C87.6362 258.39 89.2611 259.812 91.666 259.352C93.8923 258.926 94.0784 259.905 91.9851 261.026C86.8789 263.757 80.6942 256.204 84.7315 252.167C95.0434 241.856 110.222 257.032 103.31 270.739C100.806 275.703 100.66 275.777 94.51 275.236C86.7123 274.552 85.9529 274.943 87.7747 278.711C89.5564 282.401 89.3714 282.571 82.2596 283.746C74.2325 285.072 73.2319 286.012 74.41 291.123C77.6705 305.264 92.896 317.927 115.14 324.998C120.602 326.734 122.629 327.211 132.962 329.194C142.158 330.96 160.336 329.709 171.226 326.564C182.282 323.37 190.445 316.279 193.858 306.904C195.048 303.635 195.586 300.999 197.344 289.785C197.791 286.932 197.495 286.969 201.756 289.234C210.491 293.879 219.332 286.916 213.733 279.798C210.577 275.786 204.737 278.393 206.373 283.086C207.372 285.953 207.162 286.227 204.794 285.147C199.825 282.883 201.141 274.687 207.408 268.882C210.113 266.375 210.114 266.375 212.733 269.131C219.929 276.7 232.738 273.056 230.918 263.956C229.386 256.299 217.566 255.071 218.331 262.65C218.676 266.079 221.096 267.306 223.611 265.327C225.782 263.621 227.031 263.996 225.79 265.984C221.747 272.454 213.795 267.63 213.79 258.703C213.786 254.063 214.358 253.297 218.383 252.544C224.741 251.357 227.721 244.795 223.722 240.795C220.654 237.728 214.52 238.727 214.52 242.295C214.52 244.233 216.881 245.972 218.611 245.308C220.229 244.687 219.84 246.178 218.149 247.082C213.838 249.39 210.251 245.139 211.896 239.672C215.504 227.683 224.655 211.007 230.987 204.88C245.344 190.987 255.793 188.528 258.555 198.392C259.561 201.987 259.244 222.873 257.849 244.862C256.556 265.218 255.568 291.069 255.395 309.038L255.225 326.64L256.916 326.879C260.231 327.35 260.485 326.38 260.971 311.42C261.903 282.702 264.105 254.683 266.99 234.819C268.763 222.603 268.423 222.665 281.123 232.266C287.279 236.921 287.859 247.795 281.949 247.795C280.812 247.795 279.652 247.423 279.37 246.967C279.058 246.46 279.254 246.28 279.877 246.501C282.675 247.498 284.377 244.273 282.703 241.146C280.674 237.354 272.489 241.825 273.52 246.164C274.82 251.641 280.264 254.729 285.065 252.713C292.392 249.636 292.218 236.816 284.743 228.947C282.588 226.678 282.553 226.538 283.721 224.755C287.172 219.488 280.574 211.868 276.083 215.933C274.509 217.357 275.033 219.659 277.051 220.187C278.322 220.519 278.418 220.767 277.639 221.706C276.27 223.356 274.183 221.956 272.333 218.147C270.627 214.635 271.693 208.832 274.76 204.932C277.349 201.64 281.996 202.173 281.996 205.762V207.783L280.876 206.184C279.155 203.728 276.165 205.27 276.14 208.627C276.112 212.451 282.736 214.097 285.635 210.985C290.669 205.583 285.029 196.839 276.862 197.384C274.081 197.57 273.021 192.833 275.487 191.235C277.012 190.245 286.334 191.302 289.988 192.877L293.213 194.268L296.223 192.497C304.767 187.471 309.944 168.532 302.245 170.464C298.941 171.294 292.066 154.972 294.49 152.053C296.01 150.22 300.341 148.668 302.566 149.157C305.408 149.781 305.374 150.823 302.525 150.405C296.517 149.522 296.585 157.176 302.599 158.677C305.375 159.369 308.86 156.235 309.495 152.475C310.533 146.333 305.764 142.261 298.979 143.494C294.709 144.27 292.998 143.574 292.998 141.064C292.998 139.479 293.237 139.333 295.196 139.724C297.937 140.273 299.183 139.285 301.488 134.737C302.464 132.81 304.279 130.077 305.521 128.662C306.985 126.996 307.63 125.622 307.357 124.758C307.124 124.025 307.628 121.458 308.476 119.052C309.326 116.646 310.286 112.809 310.612 110.524C311.701 102.88 314.942 98.7128 318.348 100.575C320.005 101.48 320.84 102.575 320.857 103.86C320.875 105.345 319.298 104.907 318.88 103.309C318.418 101.543 318.017 101.499 315.897 102.985C310.973 106.434 317.536 112.138 323.04 109.192C326.24 107.48 326.372 100.065 323.253 97.2426C316.845 91.4441 308.421 96.4377 306.523 107.16C305.942 110.443 305.39 110.555 302.92 107.893C298.314 102.93 297.632 94.8063 301.486 90.7852C304.385 87.7583 306.348 87.8221 304.706 90.8891C302.838 94.3812 308.089 96.9537 310.853 93.9009C316.9 87.2185 305.59 79.3548 299.083 85.7169C291.809 92.8288 292.804 104.534 301.415 113.145C305.382 117.112 304.076 121.311 298.303 123.141C296.797 123.618 292.856 125.467 289.545 127.25L283.524 130.49L282.453 128.817C281.864 127.898 280.994 125.661 280.52 123.845C280.046 122.03 278.988 118.977 278.17 117.061C276.493 113.134 276.95 111.881 280.376 111.025C283.704 110.195 287.018 107.155 287.936 104.09C290.379 95.9357 282.294 89.9576 274.912 94.4591C272.573 95.8849 270.302 94.9892 270.245 92.6167C270.235 92.2457 269.607 91.1314 268.846 90.1426C267.75 88.7168 267.545 87.556 267.856 84.5421C269.198 71.5473 266.41 66.492 261.237 72.5361ZM273.049 102.171C275.475 104.179 277.729 104.803 279.325 103.911C280.741 103.118 280.955 99.2028 279.613 98.6608C279.108 98.4574 279.372 98.2649 280.199 98.2335C283.234 98.1167 284.481 101.538 282.401 104.281C281.325 105.702 271.723 109.911 269.557 109.911C268.476 109.911 268.192 110.873 267.773 115.961C267.498 119.289 267.083 123.227 266.848 124.71C266.491 126.974 266.739 127.725 268.387 129.372C270.697 131.683 270.65 131.759 265.882 133.373C260.772 135.103 260.373 134.237 262.927 126.97C265.831 118.706 264.532 113.003 259.107 110.198C256.705 108.956 256.759 109.524 258.254 101.109C259.023 96.7796 259.467 96.6324 265.568 98.6835C268.594 99.7015 271.96 101.271 273.049 102.171ZM279.795 143.905C279.795 145.66 280.138 148.08 280.558 149.283C282.396 154.557 277.846 157.55 271.716 155.098C266.664 153.076 255.354 154.268 253.665 157.001C253.079 157.951 254.747 159.025 256.833 159.039C257.717 159.045 258.644 159.381 258.893 159.783C259.187 160.259 255.722 160.517 249.035 160.517C237.745 160.517 236.996 160.176 240.741 156.742C242.826 154.831 247.248 154.347 250.941 155.625C252.366 156.118 252.601 155.819 253.28 152.65C255.569 141.977 262.284 138.225 266.555 145.233C267.511 146.801 268.001 147.04 269.058 146.449C269.78 146.045 270.553 145.896 270.776 146.119C271.393 146.737 274.814 144.75 276.806 142.618C279.264 139.987 279.795 140.215 279.795 143.905ZM291.292 165.468C292.843 169.167 293.366 173.404 292.348 174.034C291.899 174.312 291.531 175.466 291.531 176.6C291.531 177.917 290.423 180.052 288.465 182.511L285.4 186.36L281.737 185.926C276.453 185.301 276.406 185.149 278.687 175.955C281.724 163.713 288.271 158.265 291.292 165.468ZM275.258 165.381C275.958 166.631 274.591 172.404 273.196 174.084C272.79 174.574 269.744 175.56 266.43 176.277C236.85 182.668 216.698 205.636 203.682 247.795C202.499 251.628 200.619 257.734 199.505 261.364C191.021 289.01 177.979 305.259 162.023 308.066C159.357 308.535 159.274 302.996 161.911 300.64C163.138 299.543 164.827 296.749 165.73 294.321C167.381 289.884 167.602 289.681 173.814 286.887C176.364 285.74 177.299 284.561 180.962 277.866C187.51 265.899 188.501 263.382 199.582 230.56C206.024 211.479 213.306 195.322 221.067 182.886C226.679 173.895 226.566 173.961 229.331 178.08C233.864 184.833 244.417 185.384 246.89 178.998C248.161 175.715 247.953 172.351 246.387 170.838C242.303 166.895 233.551 169.464 235.617 173.999C236.495 175.925 238.941 176.615 239.823 175.186C240.626 173.888 243.256 174.324 242.989 175.711C241.743 182.184 233.162 177.543 232.912 170.261C232.795 166.852 245.296 164.037 253.26 165.679C260.159 167.103 270.016 166.944 271.575 165.386C273.101 163.858 274.406 163.857 275.258 165.381ZM178.108 237.859C181.922 241.393 179.04 248.15 173.93 247.654C170.808 247.351 170.947 245.589 174.181 244.475C178.379 243.03 176.965 238.261 172.339 238.261C163.98 238.261 163.91 251.029 172.261 252.595C176.148 253.324 178.303 252.516 182.205 248.866C188.081 243.37 190.589 244.846 188.045 252.302C185.474 259.833 185.819 259.527 179.84 259.551C175.122 259.57 174.235 259.808 171.667 261.752C167.78 264.693 167.184 264.545 164.915 260.08C159.498 249.418 160.267 243.719 167.874 238.154C171.575 235.445 175.385 235.336 178.108 237.859ZM208.653 256.267C208.653 259.001 206.89 263.198 205.742 263.198C205.01 263.198 205.205 261.589 206.523 256.78C207.562 252.987 208.653 252.724 208.653 256.267ZM181.567 265.494C182.365 266.985 182.283 267.034 179.799 266.569C176.235 265.899 175.032 267.91 176.786 271.608C178.823 275.901 174.546 284.258 171.927 281.101C170.391 279.25 170.088 270.288 171.494 268.28C174.393 264.141 180.011 262.587 181.567 265.494ZM93.9399 289.968C95.0282 290.977 96.2831 291.803 96.7278 291.807C97.1735 291.809 98.4576 292.29 99.5827 292.878C101.045 293.64 102.145 293.747 103.445 293.253C105.245 292.569 105.252 292.582 104.185 294.647C102.89 297.15 104.28 299.142 108.569 300.935C110.518 301.748 111.061 302.376 110.921 303.651C110.705 305.629 112.789 306.346 114.538 304.894C115.492 304.102 115.622 302.885 115.266 298.05L114.833 292.168L116.312 294.002C120.148 298.759 121.318 299.827 123.221 300.305C126.1 301.028 128.094 298.557 125.846 297.052C123.168 295.26 127.023 289.637 130.945 289.613C133.026 289.6 134.576 290.803 134.576 292.429C134.576 293.98 138.133 298.402 139.38 298.402C141.053 298.402 140.624 299.551 138.61 300.47C135.802 301.748 135.887 305.034 138.809 308.12C141.276 310.726 143.062 310.676 144.466 307.959C146.924 303.207 149.978 303.974 149.978 309.342C149.978 312.32 149.058 312.504 133.604 312.614C120.536 312.708 118.789 312.466 106.705 308.9C92.1268 304.598 80.3026 296.431 80.3026 290.663C80.3026 287.42 90.6231 286.894 93.9399 289.968Z" fill="#0000FF"/>
</svg>
