<svg width="400" height="400" viewBox="0 0 400 400" fill="none" xmlns="http://www.w3.org/2000/svg">
<path fill-rule="evenodd" clip-rule="evenodd" d="M194.418 71.3244C194.134 72.064 193.902 73.9761 193.902 75.5734V78.4782H184.088C177.445 78.4782 173.532 78.8549 171.98 79.645C170.718 80.2873 166.243 81.0602 162.038 81.3613C157.831 81.6636 152.975 82.2407 151.246 82.6437C149.517 83.0479 147.902 83.1772 147.656 82.9311C147.41 82.6849 146.721 82.8693 146.126 83.3398C145.531 83.8104 143.514 84.431 141.645 84.7184C122.024 87.7309 107.962 96.8484 117.853 100.145C119.254 100.613 120.975 101.371 121.676 101.831C122.378 102.292 123.143 102.707 123.376 102.755C123.879 102.857 126.425 103.797 129.152 104.887C130.224 105.317 131.977 105.668 133.046 105.668C134.114 105.668 135.262 105.943 135.598 106.277C135.932 106.613 137.047 106.93 138.076 106.982C139.104 107.034 140.519 107.307 141.22 107.588C142.972 108.291 158.053 109.917 162.82 109.917C164.96 109.917 166.711 110.307 166.711 110.782C166.711 111.316 170.526 111.667 176.695 111.7C182.186 111.729 190.886 111.782 196.026 111.82C219.19 111.986 232.139 111.639 232.139 110.854C232.139 110.398 233.382 109.905 234.9 109.758L237.662 109.492L228.315 100.046C223.174 94.8504 218.108 90.1537 217.057 89.6075C216.005 89.0613 215.145 88.0858 215.145 87.44C215.145 86.7954 214.782 86.1393 214.339 85.9836C213.894 85.8279 210.128 82.3597 205.97 78.2779C201.811 74.1948 198.16 71.1045 197.855 71.4091C197.55 71.7136 197.301 71.5167 197.301 70.9717C197.301 69.4935 195.012 69.774 194.418 71.3244ZM215.994 79.3278C215.994 79.795 216.307 80.1774 216.689 80.1774C217.545 80.1774 231.829 91.4887 234.51 94.2893C235.58 95.4069 236.746 96.3217 237.1 96.3217C237.454 96.3217 240.515 99.0456 243.904 102.374L250.066 108.425L254.485 107.867C256.916 107.559 259.574 107.296 260.392 107.285C261.21 107.272 261.878 106.968 261.878 106.607C261.878 106.246 262.398 105.952 263.034 105.952C265.793 105.952 275.048 103.571 277.86 102.136C279.55 101.275 281.383 100.571 281.936 100.571C282.884 100.571 283.964 98.8487 284.444 96.5713C284.838 94.7004 279.431 91.9456 269.951 89.1907C268.082 88.6469 265.787 87.7824 264.853 87.2694C262.886 86.1909 253.219 84.4253 249.276 84.4253C247.795 84.4253 246.584 84.0257 246.584 83.5368C246.584 83.0387 244.998 82.7021 242.972 82.7708C240.987 82.8395 237.301 82.4742 234.785 81.9601C232.267 81.4472 228.061 81.0144 225.438 80.9995C222.597 80.9835 220.001 80.4682 219.018 79.7251C217.098 78.2721 215.994 78.1267 215.994 79.3278ZM285.696 103.089C284.549 104.477 282.455 105.866 281.042 106.177C279.629 106.487 277.703 107.241 276.761 107.852C275.82 108.463 272.372 109.409 269.101 109.955C265.83 110.5 262.33 111.334 261.323 111.806C260.315 112.279 259.073 112.408 258.561 112.092C258.05 111.776 257.63 111.921 257.63 112.416C257.63 112.911 256.275 113.316 254.617 113.316H251.604L252.18 122.025C252.498 126.816 253.039 131.118 253.384 131.585C253.971 132.381 254.489 141.023 255.599 168.521C255.853 174.816 256.252 180.276 256.486 180.655C256.72 181.032 256.905 192.27 256.897 205.627C256.886 222.95 257.171 230.379 257.893 231.545C258.555 232.612 258.611 233.389 258.055 233.789C257.565 234.14 257.195 239.084 257.182 245.446L257.158 256.493L254.06 257.955L250.964 259.418L250.363 267.09C250.034 271.309 249.461 274.761 249.091 274.761C248.721 274.761 248.153 277.235 247.829 280.26C247.092 287.152 246.325 287.797 239.394 287.355C230.187 286.768 225.498 277.167 232.35 272.931C233.653 272.126 231.582 269.662 229.601 269.662C226.084 269.662 222.805 264.399 224.435 261.367C225.594 259.212 227.041 252.363 227.041 249.035C227.041 247.451 227.288 245.906 227.593 245.603C227.896 245.299 228.246 243.802 228.369 242.274C228.594 239.506 230.261 231.296 231.089 228.877C231.328 228.176 231.44 226.341 231.338 224.798C231.235 223.256 231.543 221.523 232.022 220.945C232.5 220.37 233.353 214.844 233.918 208.668C234.481 202.491 235.314 197.438 235.767 197.438C236.265 197.438 236.451 194.256 236.238 189.378C236.044 184.945 236.225 181.205 236.641 181.067C237.481 180.787 238.837 149.146 238.897 128.398L238.936 115.016H233.463C230.453 115.016 227.754 115.397 227.466 115.865C226.749 117.024 173.8 117.024 173.084 115.865C172.795 115.397 170.328 115.016 167.601 115.016C160.664 115.016 138.435 112.592 137.866 111.773C137.607 111.402 135.024 110.667 132.126 110.142C129.227 109.616 125.595 108.63 124.054 107.951C122.513 107.272 119.913 106.228 118.278 105.63C116.641 105.033 114.514 103.841 113.549 102.982C111.062 100.767 110.635 101.002 110.595 104.607C110.567 107.152 108.261 125.87 106.016 141.781C103.154 162.066 101.24 176.898 100.865 181.718C100.611 184.989 100.061 188.43 99.6441 189.366C99.2274 190.3 98.2553 196.8 97.4835 203.811C96.7118 210.82 95.7477 217.32 95.3401 218.255C94.9325 219.19 94.1436 224.543 93.5872 230.151C93.0318 235.759 92.2372 240.774 91.8227 241.295C91.4082 241.816 91.0865 243.536 91.1083 245.118C91.1712 249.854 88.2744 270.047 87.4512 270.609C87.031 270.895 86.7745 272.425 86.881 274.008C86.9863 275.591 86.8661 277.459 86.6131 278.16C84.7994 283.179 84.4135 295.462 85.9753 298.439C87.7683 301.857 93.2677 307.9 94.5844 307.9C95.047 307.9 96.7439 308.951 98.3549 310.236C99.9647 311.522 101.57 312.606 101.92 312.646C102.576 312.722 104.493 313.401 107.909 314.767C108.982 315.196 110.607 315.548 111.52 315.548C112.432 315.548 113.179 316.103 113.179 316.782C113.179 317.965 117.893 319.781 120.989 319.791C121.779 319.793 122.629 320.123 122.876 320.524C123.123 320.924 127.448 321.941 132.485 322.784C137.523 323.626 142.027 324.594 142.494 324.935C142.961 325.277 147.55 326.028 152.691 326.605C157.831 327.181 163.215 327.939 164.653 328.289C166.091 328.638 169.628 328.745 172.513 328.525C175.999 328.259 177.757 328.438 177.757 329.058C177.757 330.344 183.953 330.239 185.341 328.93C186.17 328.148 186.562 328.128 186.829 328.848C187.316 330.165 221.942 330.467 221.942 329.154C221.942 328.645 222.935 328.44 224.244 328.677C225.512 328.907 226.818 328.653 227.153 328.11C227.567 327.442 228.121 327.398 228.888 327.975C229.838 328.689 235.081 328.939 235.75 328.303C235.867 328.192 240.463 327.611 245.962 327.014C251.46 326.416 256.53 325.454 257.227 324.876C257.99 324.243 259.67 324.015 261.446 324.303C263.069 324.567 264.584 324.48 264.813 324.109C265.042 323.739 268.108 322.972 271.626 322.404C275.144 321.836 278.024 321.066 278.024 320.693C278.024 320.32 279.92 319.763 282.237 319.455C284.555 319.149 286.68 318.526 286.96 318.071C287.241 317.618 288.404 317.247 289.545 317.247C290.685 317.247 291.618 316.864 291.618 316.397C291.618 315.93 292.288 315.529 293.106 315.506C293.923 315.484 295.771 314.815 297.213 314.019C298.653 313.224 301.329 311.82 303.16 310.897C310.478 307.212 313.616 303.855 315.736 297.443C316.319 295.68 313.679 271.153 312.837 270.513C312.53 270.278 311.792 265.308 311.195 259.466C310.6 253.624 309.889 248.467 309.614 248.007C309.339 247.547 309.221 245.931 309.352 244.418C309.482 242.904 309.274 241.177 308.888 240.582C308.503 239.985 307.346 233.189 306.316 225.477C305.287 217.767 303.465 204.574 302.267 196.162C299.384 175.923 299.442 176.341 298.866 171.946C298.59 169.842 297.199 159.71 295.773 149.428C294.349 139.148 293.061 129.206 292.912 127.336C292.762 125.467 292.421 123.364 292.153 122.663C291.885 121.961 291.177 116.832 290.58 111.261C289.398 100.235 288.834 99.2906 285.696 103.089Z" fill="#FFEE00"/>
</svg>
