<svg width="400" height="400" viewBox="0 0 400 400" fill="none" xmlns="http://www.w3.org/2000/svg">
<path fill-rule="evenodd" clip-rule="evenodd" d="M143.994 82.3953C141.934 82.5591 139.686 82.9271 138.999 83.2144C138.311 83.5005 137.253 83.6531 136.647 83.5532C136.04 83.4534 135.103 83.7193 134.565 84.1457C134.026 84.5709 131.525 85.3922 129.006 85.9701C126.487 86.5479 124.052 87.2683 123.593 87.5713C123.135 87.8742 121.262 88.6226 119.43 89.2364C114.468 90.8981 101.353 98.5381 95.7352 103.041C84.4227 112.106 71.2859 129.333 72.2991 133.774C72.3933 134.19 71.9939 134.825 71.4104 135.186C69.7879 136.188 69.9652 148.257 71.6561 151.816C76.1039 161.184 77.6232 164.178 79.4734 167.218L81.538 170.609L78.9236 175.545C70.6037 191.254 70.2996 192.12 70.3243 200.048C70.3422 205.786 70.6968 207.754 72.197 210.445C73.2158 212.27 74.0495 214.042 74.0495 214.383C74.0495 214.725 75.369 217.067 76.9813 219.589C78.5948 222.11 79.8818 224.272 79.8426 224.393C79.8022 224.513 80.0311 225.293 80.3508 226.126C80.6706 226.958 80.5236 228.457 80.0255 229.457C79.5273 230.457 78.5612 232.585 77.879 234.189C77.1968 235.791 76.086 238.04 75.4116 239.184C69.5602 249.113 68.3921 259.52 72.2138 267.658C73.2225 269.809 74.0495 271.828 74.0495 272.144C74.0495 277.681 95.2718 297.766 100.071 296.769C100.414 296.698 100.695 296.964 100.695 297.359C100.695 303.025 133.931 298.881 137.583 292.76C137.949 292.146 138.708 291.644 139.272 291.644C139.834 291.644 140.904 290.988 141.651 290.186C148.756 282.562 158.02 280.132 164.438 284.208C166.191 285.321 168.216 286.606 168.94 287.064C169.663 287.522 170.997 288.574 171.905 289.403C172.813 290.231 176.178 292.952 179.384 295.45C182.589 297.948 185.674 300.369 186.237 300.83C188.077 302.34 201.211 308.922 204.491 309.98C206.253 310.548 208.147 311.371 208.699 311.808C209.251 312.246 210.069 312.378 210.516 312.102C210.961 311.826 211.529 311.928 211.777 312.328C212.024 312.728 214.579 313.54 217.454 314.132C220.33 314.723 223.079 315.512 223.563 315.883C226.602 318.221 257.912 318.178 260.986 315.833C261.445 315.483 264.255 314.733 267.232 314.167C270.208 313.6 274.216 312.422 276.137 311.549C278.059 310.677 280.008 309.962 280.468 309.962C283.703 309.962 300.746 299.516 309.946 291.895C317.446 285.68 327.186 271.389 327.186 266.594C327.186 265.716 327.537 264.998 327.967 264.998C329.733 264.998 330.504 252.268 328.843 250.532C328.46 250.133 328.346 249.29 328.588 248.659C328.831 248.028 328.614 247.512 328.107 247.512C327.6 247.512 327.186 247.082 327.186 246.556C327.186 246.031 325.278 241.746 322.949 237.034C318.047 227.12 317.913 228.668 324.899 214.252C328.949 205.894 329.927 203.079 329.961 199.68C330.005 195.268 329.631 194.251 322.863 180.412C318.144 170.767 318.15 170.442 323.15 161.618C324.911 158.51 326.352 155.669 326.352 155.305C326.352 154.94 327.16 153.149 328.145 151.324C330.112 147.685 330.675 139.089 329.054 137.467C328.556 136.969 328.346 136.045 328.588 135.414C328.831 134.782 328.614 134.266 328.107 134.266C327.6 134.266 327.186 133.7 327.186 133.007C327.186 124.964 306.64 101.473 301.163 103.254C300.82 103.365 300.539 103.109 300.539 102.684C300.539 102.259 298.385 101.45 295.752 100.887C293.118 100.323 290.607 99.5468 290.173 99.162C289.057 98.1723 278.264 98.2856 277.641 99.2932C277.357 99.751 276.486 100.126 275.705 100.126C273.936 100.126 263.704 105.037 262.874 106.285C262.537 106.791 262.255 106.911 262.249 106.553C262.242 106.194 260.235 107.412 257.789 109.258C255.342 111.105 253.06 112.616 252.716 112.616C252.371 112.616 251.137 113.366 249.972 114.281C243.724 119.197 234.07 115.855 221.714 104.497C220.095 103.009 218.562 101.792 218.307 101.792C218.052 101.792 216.685 100.929 215.268 99.8745C212.878 98.096 209.77 96.1852 203.531 92.6586C202.158 91.8821 199.16 90.557 196.871 89.7144C194.58 88.8717 192.332 87.9124 191.874 87.5825C191.416 87.2537 188.793 86.5278 186.045 85.9701C183.297 85.4136 180.65 84.6349 180.163 84.241C177.948 82.4514 156.848 81.3753 143.994 82.3953ZM170.224 113.553C170.682 113.837 172.931 114.34 175.221 114.669C177.51 114.998 181.362 116.171 183.78 117.273C186.198 118.376 188.601 119.278 189.119 119.278C189.638 119.278 191.969 120.49 194.299 121.971C199.781 125.456 199.449 125.207 204.784 129.855C216.577 140.133 223.747 144.534 230.404 145.582C232.361 145.891 234.163 146.468 234.409 146.866C234.992 147.809 248.679 147.809 249.261 146.867C249.507 146.468 251.524 145.903 253.744 145.608C255.963 145.314 258.485 144.556 259.348 143.926C260.211 143.294 261.402 142.964 261.993 143.191C262.584 143.418 263.069 143.189 263.069 142.683C263.069 142.175 263.476 141.76 263.973 141.76C265.087 141.76 271.449 137.259 275.306 133.742C280.08 129.389 287.407 129.225 293.472 133.337L296.792 135.589L297.038 142.15L297.283 148.709L292.903 153.146C290.494 155.585 288.041 157.581 287.453 157.581C286.865 157.581 286.384 157.903 286.384 158.296C286.384 159.775 268.828 169.239 266.085 169.239C265.396 169.239 264.597 169.62 264.309 170.085C264.021 170.551 263.421 170.706 262.975 170.43C262.528 170.154 261.667 170.339 261.063 170.841C258.01 173.375 225.745 173.446 222.709 170.926C222.104 170.424 221.29 170.086 220.897 170.175C219.955 170.388 218.087 169.651 210.609 166.115C202.894 162.467 198.262 159.198 187.454 149.774C182.435 145.397 177.745 142.678 171.473 140.511C171.244 140.432 170.307 140.026 169.392 139.607C166.874 138.456 145.95 138.639 144.767 139.821C144.231 140.359 143.275 140.599 142.644 140.357C142.013 140.115 141.497 140.332 141.497 140.839C141.497 141.345 140.899 141.76 140.168 141.76C138.698 141.76 133.746 144.315 133.308 145.299C133.155 145.643 132.654 145.924 132.193 145.924C131.731 145.924 129.403 147.59 127.019 149.627C121.356 154.465 115.879 156.357 111.311 155.053C110.968 154.956 110.406 154.819 110.063 154.749C105.554 153.841 103.193 149.258 103.193 141.411V135.311L106.768 132.015C111.655 127.512 121.285 121.33 126.652 119.253C129.091 118.31 132.212 117.025 133.586 116.4C134.96 115.774 138.238 114.998 140.872 114.676C143.505 114.353 145.659 113.814 145.659 113.476C145.659 112.74 169.03 112.814 170.224 113.553ZM173.971 170.959C176.948 171.439 179.71 172.158 180.109 172.553C180.509 172.949 181.352 173.074 181.983 172.832C182.614 172.59 183.131 172.806 183.131 173.313C183.131 173.82 183.697 174.236 184.389 174.236C188.477 174.236 200.724 181.851 209.093 189.599C217.235 197.135 228.854 203.034 234.949 202.725C235.741 202.685 236.607 203.004 236.871 203.432C237.554 204.535 248.081 204.432 248.081 203.323C248.081 202.806 248.794 202.66 249.785 202.976C250.723 203.273 251.942 203.16 252.491 202.724C253.042 202.288 255.46 201.471 257.864 200.907C260.268 200.343 262.236 199.544 262.236 199.133C262.236 198.72 262.704 198.38 263.276 198.375C264.128 198.37 271.988 192.796 276.149 189.249C276.702 188.776 277.709 188.39 278.389 188.39C279.068 188.39 279.856 188.017 280.139 187.558C281.21 185.824 289.237 186.612 292.114 188.735C296.619 192.058 297.153 193.268 297.182 200.204L297.208 206.607L291.825 211.422C286.539 216.15 283.027 218.57 277.225 221.484C275.621 222.288 274.122 223.174 273.893 223.451C273.664 223.728 271.978 224.412 270.147 224.971C268.314 225.531 266.253 226.209 265.567 226.478C264.88 226.746 264.13 227.031 263.901 227.111C263.673 227.189 262.923 227.495 262.236 227.789C255.099 230.837 224.699 230.507 220.809 227.339C220.237 226.872 219.769 226.733 219.769 227.028C219.769 227.324 218.925 227.031 217.895 226.379C216.865 225.726 214.804 224.939 213.315 224.628C211.827 224.318 210.609 223.769 210.609 223.41C210.609 223.051 208.873 222.094 206.751 221.284C204.628 220.473 202.247 219.205 201.459 218.464C200.67 217.724 198.814 216.182 197.334 215.036C195.854 213.892 191.585 210.429 187.846 207.343C184.107 204.256 180.581 201.727 180.008 201.722C179.436 201.718 178.967 201.339 178.967 200.881C178.967 200.423 178.638 200.048 178.237 200.048C177.834 200.048 176.054 199.415 174.282 198.641C172.508 197.868 170.869 197.18 170.641 197.113C170.412 197.046 169.475 196.664 168.559 196.265C166.333 195.295 149.015 195.267 146.909 196.229C145.993 196.647 145.056 197.054 144.827 197.132C144.598 197.209 143.356 197.71 142.067 198.245C140.777 198.779 139.236 199.216 138.64 199.216C138.045 199.216 136.664 199.881 135.572 200.695C134.479 201.508 132.555 202.696 131.296 203.334C130.037 203.971 129.006 204.805 129.006 205.185C129.006 205.565 128.605 205.877 128.115 205.877C127.625 205.877 125.451 207.371 123.286 209.197C119.523 212.371 111.52 213.954 111.52 211.524C111.52 211.167 110.909 210.874 110.161 210.874C101.943 210.874 99.494 196.253 106.533 189.214C112.997 182.751 123.594 176.295 133.17 172.986C133.399 172.907 134.148 172.613 134.835 172.333C140.204 170.141 163.792 169.314 173.971 170.959ZM180.216 228.713C197.001 236.37 200.589 238.592 210.009 247.157C213.774 250.582 217.885 253.84 219.144 254.398C220.404 254.955 221.434 255.651 221.434 255.943C221.434 256.235 223.209 256.92 225.378 257.467C227.547 258.013 229.826 258.877 230.441 259.387C232.054 260.727 250.578 261.343 250.578 260.057C250.578 259.514 250.989 259.325 251.49 259.634C251.992 259.944 253.209 259.814 254.197 259.345C255.183 258.875 257.67 257.863 259.722 257.094C261.774 256.327 265.284 254.354 267.521 252.711C278.72 244.491 280.838 243.352 284.926 243.35C287.102 243.349 288.881 243.723 288.881 244.18C288.881 244.638 289.593 245.013 290.461 245.013C291.33 245.013 293.242 246.382 294.71 248.056C300.83 255.024 295.671 267.677 284.19 273.86C282.649 274.69 281.387 275.658 281.387 276.012C281.387 276.366 280.977 276.656 280.475 276.656C279.974 276.656 278.526 277.394 277.258 278.296C275.991 279.198 274.716 279.698 274.424 279.406C274.132 279.114 273.893 279.245 273.893 279.696C273.893 280.149 272.019 281.028 269.73 281.651C267.44 282.275 265.567 283.041 265.567 283.353C265.567 284.513 252.325 286.038 242.252 286.038C231.318 286.038 218.937 284.485 218.937 283.113C218.937 282.67 218.419 282.504 217.789 282.746C217.157 282.989 216.314 282.886 215.915 282.52C215.516 282.153 213.784 281.403 212.066 280.854C210.35 280.306 208.944 279.511 208.944 279.088C208.944 278.666 208.468 278.321 207.887 278.321C206.681 278.321 197.667 271.816 189.251 264.871C182.558 259.348 175.643 255.389 171.266 254.571C169.548 254.25 168.143 253.611 168.143 253.15C168.143 252.69 167.206 252.493 166.06 252.711C164.916 252.93 163.979 252.787 163.979 252.392C163.979 251.998 160.793 251.675 156.901 251.675C152.891 251.675 149.823 252.025 149.823 252.481C149.823 252.925 149.257 253.07 148.563 252.804C147.871 252.539 146.841 252.689 146.274 253.139C145.708 253.588 143.746 254.439 141.917 255.029C137.201 256.55 132.022 259.427 125.883 263.933C122.965 266.076 120.131 267.935 119.586 268.064C119.042 268.193 117.54 268.541 116.247 268.838C114.955 269.136 113.082 268.981 112.084 268.495C111.087 268.009 108.871 267.183 107.16 266.661C102.999 265.388 102.835 264.971 103.079 256.279L103.29 248.761L106.557 245.846C114.936 238.373 128.674 230.025 132.594 230.025C133.292 230.025 133.989 229.649 134.143 229.188C135.076 226.387 174.231 225.983 180.216 228.713Z" fill="#0000FF"/>
</svg>
