<svg width="400" height="400" viewBox="0 0 400 400" fill="none" xmlns="http://www.w3.org/2000/svg">
<path fill-rule="evenodd" clip-rule="evenodd" d="M229.942 102.061C228.153 102.68 226.325 103.483 225.879 103.844C225.432 104.206 223.319 105.015 221.18 105.644C219.043 106.272 216.805 107.204 216.209 107.714C215.612 108.223 214.017 109.202 212.663 109.888C211.309 110.575 209.846 111.423 209.41 111.773C208.976 112.123 206.675 114.027 204.296 116.005C199.973 119.598 198.047 120.062 195.634 118.087C191.372 114.596 187.303 111.706 186.653 111.706C186.212 111.706 185.853 111.43 185.853 111.092C185.853 110.755 184.633 109.954 183.143 109.31C181.652 108.667 179.944 107.801 179.348 107.386C177.837 106.334 172.596 104.181 171.94 104.344C171.642 104.418 171.397 104.218 171.397 103.901C171.397 103.583 170.219 102.897 168.778 102.376C165.819 101.306 164.924 101.947 164.904 105.15C164.891 107.18 159.15 112.933 156.464 113.607C155.535 113.84 154.774 114.267 154.774 114.556C154.774 114.846 152.891 115.606 150.591 116.245C138.829 119.516 123.366 130.118 114.893 140.723C113.827 142.055 112.153 144.129 111.172 145.331C110.191 146.532 108.647 148.971 107.741 150.751C106.835 152.531 105.421 154.964 104.598 156.156C103.775 157.349 103.199 158.324 103.319 158.324C103.437 158.324 103.029 159.533 102.412 161.011C101.794 162.489 101.289 164.034 101.289 164.445C101.289 164.855 100.964 165.19 100.566 165.19C100.169 165.19 99.8436 165.901 99.8436 166.77C99.8436 168.468 97.9328 176.191 96.9257 178.562C96.1096 180.482 95.607 184.111 94.7714 194.101C94.3896 198.673 93.9124 203.226 93.7098 204.22C93.5082 205.213 92.7485 210.417 92.023 215.784C91.2964 221.151 90.453 226.095 90.1491 226.771C89.8453 227.448 89.7937 228.32 90.0342 228.709C90.2748 229.098 90.1881 229.592 89.8433 229.805C89.4976 230.018 88.8129 232.724 88.323 235.818C87.8322 238.911 87.1748 242.093 86.8612 242.888C86.5476 243.683 85.7148 246.773 85.0107 249.754C84.3056 252.735 83.5089 255.5 83.2401 255.898C82.9703 256.295 82.3314 258.084 81.8201 259.873C79.9589 266.375 75.0192 273.606 72.4363 273.606C72.1325 273.606 68.6604 276.403 64.7228 279.823C60.7843 283.243 56.7483 286.568 55.7549 287.214C54.7615 287.86 53.7856 288.591 53.5869 288.839C53.3883 289.087 52.4932 289.675 51.5992 290.146C47.0723 292.53 52.6588 294.829 62.0601 294.451L69.3646 294.158L76.1119 287.315C84.2179 279.093 85.3594 277.525 89.4294 269.009C92.8323 261.888 93.7137 261.823 90.7949 268.907C89.8131 271.292 89.0057 273.732 89.0019 274.328C88.9892 276.303 84.2949 282.915 78.3198 289.377C75.3932 292.543 76.2259 293.853 81.602 294.543C88.5363 295.433 91.0364 294.754 93.1342 291.414C94.1676 289.768 95.9372 287.068 97.0669 285.412C98.1967 283.758 99.121 282.078 99.121 281.678C99.121 281.28 99.3644 280.845 99.6634 280.712C100.538 280.324 103.852 274.905 104.894 272.16C105.845 269.657 106.385 263.8 107.719 241.566C108.097 235.275 108.622 229.583 108.886 228.918C109.373 227.693 110.071 221.843 111.441 207.472C111.859 203.099 112.508 198.546 112.883 197.354C113.407 195.686 113.461 196.104 113.118 199.16C112.873 201.347 112.397 209.641 112.06 217.591C111.724 225.541 111.28 233.185 111.075 234.576C110.868 235.967 110.395 241.659 110.021 247.225C108.857 264.564 108.493 267.285 106.49 273.593C104.39 280.201 103.933 280.978 99.3615 285.726C94.3175 290.965 93.7692 292.111 95.6752 293.445C99.5047 296.128 103.284 294.71 107.56 288.986C108.683 287.483 110.954 284.57 112.608 282.511C114.262 280.453 115.845 278.014 116.127 277.09C116.409 276.167 117.267 274.012 118.036 272.3C118.803 270.589 119.757 266.524 120.156 263.266C120.555 260.009 121.065 256.204 121.289 254.814C121.512 253.422 121.793 242.305 121.913 230.111C122.126 208.451 123.487 191.989 125.213 190.162C126.356 188.954 123.686 253.825 122.36 259.511C121.989 261.101 121.16 264.842 120.519 267.823C118.814 275.744 115.067 282.607 108.186 290.41C103.398 295.84 114.297 296.171 119.901 290.765C121.192 289.519 122.25 288.854 122.25 289.287C122.25 289.72 121.762 290.262 121.165 290.49C119.294 291.208 119.87 293.762 122.026 294.303C126.164 295.342 130.241 291.276 133.643 282.717C134.291 281.084 135.309 279.261 135.903 278.665C136.866 277.701 136.934 277.701 136.525 278.665C136.271 279.261 135.197 281.862 134.138 284.446C133.079 287.031 131.923 289.453 131.567 289.831C130.472 290.998 130.802 294.565 132.007 294.565C132.603 294.565 133.091 294.891 133.091 295.288C133.091 295.72 135.902 296.011 140.081 296.011C144.914 296.011 147.423 296.313 148.212 296.989C149.08 297.733 150.648 297.842 154.75 297.442C158.222 297.104 160.586 297.192 161.379 297.687C162.259 298.236 163.397 298.215 165.36 297.613C167.146 297.064 168.355 297.016 168.813 297.475C169.787 298.448 173.818 298.361 174.836 297.343C175.47 296.709 175.941 296.729 176.781 297.426C177.483 298.008 178.753 298.172 180.245 297.872C182.964 297.325 183.104 297.323 189.828 297.77C192.611 297.954 195.375 298.094 195.971 298.079C196.568 298.065 204.211 297.931 212.956 297.781C221.702 297.631 230.971 297.332 233.555 297.117C236.139 296.901 239.259 296.646 240.489 296.548C241.719 296.452 243.182 295.999 243.741 295.542C244.3 295.085 248.662 294.329 253.432 293.861C263.391 292.883 262.275 292.888 267.873 293.79C274.45 294.849 276.606 291.152 271.339 287.845C269.701 286.817 263.813 277.192 262.702 273.726C262.107 271.871 261.434 269.865 261.206 269.269C260.978 268.673 260.854 267.906 260.931 267.566C261.008 267.226 260.752 266.564 260.362 266.095C259.973 265.625 259.296 262.357 258.858 258.831C258.419 255.306 257.751 251.843 257.372 251.136C256.521 249.545 256.476 247.586 257.292 247.586C257.626 247.586 258.312 249.456 258.817 251.742C259.321 254.028 260.305 257.199 261.004 258.788C261.702 260.379 262.505 262.65 262.787 263.837C263.07 265.023 264.089 267.716 265.052 269.821C266.015 271.925 266.803 274.046 266.803 274.533C266.803 275.019 267.968 277.042 269.392 279.028C270.816 281.014 272.651 283.941 273.47 285.531C275.673 289.806 279.799 294.565 281.303 294.565C282.026 294.565 282.813 294.882 283.052 295.268C283.631 296.205 292.687 295.713 293.712 294.688C294.726 293.673 293.628 291.092 290.5 287.142C289.271 285.593 287.721 283.295 287.053 282.037C279.654 268.107 279.256 266.466 276.586 238.912C275.349 226.138 274.989 218.198 275.62 217.568C275.859 217.329 276.257 220.652 276.505 224.952C276.755 229.251 277.282 235.208 277.679 238.19C278.643 245.441 278.764 246.205 279.271 248.309C279.511 249.302 280.105 252.23 280.591 254.814C281.077 257.397 281.713 259.836 282.004 260.234C282.296 260.632 282.909 262.733 283.367 264.902C283.824 267.072 284.794 270.163 285.522 271.769C286.249 273.375 287.497 276.153 288.295 277.941C290.871 283.72 301.005 296.733 302.929 296.733C303.669 296.733 305.109 294.399 305.109 293.197C305.109 292.79 303.158 290.127 300.773 287.279C298.387 284.432 296.436 281.653 296.436 281.106C296.436 280.558 296.182 280.11 295.872 280.11C295.289 280.11 293.391 275.686 293.798 275.279C293.924 275.153 295.301 276.921 296.857 279.207C298.415 281.492 300.202 283.933 300.829 284.63C301.456 285.328 303.227 287.634 304.765 289.755C308.877 295.429 314.793 298.325 317.251 295.867C318.647 294.471 318.258 292.507 316.24 290.766C310.695 285.979 300.773 270.623 300.773 266.828C300.773 266.21 300.265 264.209 299.644 262.381C298.445 258.849 298.634 256.094 299.866 259.15C305.325 272.686 307.688 276.823 315.769 286.989C321.334 293.99 329.684 297.188 329.684 292.32C329.684 291.506 330.197 290.943 330.948 290.931C332.259 290.908 331.361 289.971 325.078 284.809C322.321 282.541 314.505 272.713 314.505 271.512C314.505 271.13 314.099 270.385 313.602 269.856C312.376 268.552 308.215 259.987 307.608 257.517C307.338 256.42 306.828 255.343 306.475 255.125C306.121 254.907 305.832 254.403 305.832 254.005C305.832 252.496 307.208 254.221 308.058 256.796C309.401 260.862 317.588 274.003 320.866 277.35C321.542 278.04 323.07 279.871 324.263 281.419C325.455 282.967 327.496 285.013 328.798 285.967C330.1 286.919 331.868 288.277 332.726 288.984C333.584 289.69 335.039 290.457 335.96 290.688C336.881 290.919 337.634 291.362 337.634 291.673C337.634 292.501 347.956 292.339 349.017 291.494C350.887 290.005 350.016 288.147 347.029 287.252C345.44 286.776 344.139 286.093 344.139 285.735C344.139 285.377 343.842 285.268 343.477 285.492C343.114 285.717 342.707 285.655 342.575 285.355C342.441 285.054 340.445 283.835 338.139 282.646C334.087 280.554 331.82 278.529 328.436 273.967C326.532 271.402 315.647 255.337 315.458 254.814C313.88 250.439 311.487 240.827 310.869 236.383C310.428 233.203 309.944 229.95 309.794 229.155C309.643 228.36 309.017 223.644 308.401 218.675C307.786 213.706 307.063 208.665 306.795 207.472C306.528 206.28 306.205 204.816 306.078 204.22C305.95 203.623 305.347 199.883 304.737 195.908C304.127 191.933 303.3 188.098 302.899 187.386C302.497 186.674 302.354 185.793 302.579 185.428C302.805 185.063 302.658 184.181 302.253 183.47C301.848 182.758 301.053 179.574 300.488 176.393C299.36 170.048 296.33 158.535 295.637 157.962C295.396 157.764 294.78 156.3 294.266 154.71C293.223 151.481 289.219 144 288.335 143.628C288.02 143.496 287.763 143.031 287.763 142.597C287.763 138.527 267.159 117.771 262.978 117.63C262.664 117.619 260.376 116.631 257.892 115.433C255.41 114.236 252.496 113.035 251.418 112.764C250.339 112.494 249.456 111.981 249.456 111.628C249.456 111.273 249.212 111.036 248.914 111.1C248.616 111.164 247.457 110.839 246.338 110.377C245.219 109.916 244.02 109.538 243.674 109.538C243.164 109.538 241.188 108.817 238.615 107.694C238.416 107.607 237.522 107.298 236.627 107.007C235.311 106.579 235.001 105.943 235.001 103.671C235.001 100.501 234.709 100.408 229.942 102.061ZM241.867 112.023C248.169 113.525 266.077 123.254 262.563 123.266C262.021 123.268 258.118 121.623 253.891 119.61C249.663 117.598 244.338 115.076 242.057 114.009C239.776 112.941 237.907 111.621 237.902 111.076C237.895 110.383 238.166 110.298 238.796 110.795C239.292 111.187 240.674 111.739 241.867 112.023ZM168.288 112.278C168.846 112.634 167.823 113.571 165.397 114.925L161.64 117.019L164.17 114.465C167.043 111.564 167.109 111.528 168.288 112.278ZM234.716 115.5C236.699 117.19 239.118 119.159 240.094 119.878C241.069 120.596 240.241 120.311 238.253 119.246C236.265 118.18 233.094 116.49 231.206 115.488C227.46 113.503 226.841 112.428 229.443 112.428C230.361 112.428 232.734 113.81 234.716 115.5ZM177.512 116.293C178.372 116.922 178.567 117.438 178.062 117.751C177.631 118.017 177.069 117.894 176.813 117.479C176.534 117.027 174.986 117.857 172.968 119.538C171.111 121.087 168.289 123.021 166.7 123.836C165.109 124.652 162.184 126.484 160.197 127.908C158.211 129.333 156.253 130.498 155.847 130.498C155.441 130.498 153.913 131.311 152.45 132.304C150.987 133.299 149.413 134.112 148.949 134.112C148.485 134.112 149.851 132.931 151.983 131.486C154.114 130.042 156.509 128.301 157.303 127.619C158.099 126.935 159.237 126.199 159.834 125.982C160.43 125.764 163.954 123.277 167.666 120.454C174.819 115.012 175.415 114.76 177.512 116.293ZM221.417 119.371C223.985 120.7 223.433 120.285 231.026 126.591C234.206 129.233 238.195 133.063 239.889 135.102C241.584 137.141 243.353 139.268 243.821 139.829C244.289 140.39 245.23 143.317 245.913 146.334C246.597 149.351 247.399 152.602 247.697 153.558C248.064 154.735 247.986 155.142 247.457 154.815C247.027 154.549 246.113 152.628 245.425 150.546C244.738 148.464 243.771 146.11 243.277 145.314C242.783 144.519 242.139 143.07 241.846 142.094C239.773 135.183 229.646 125.467 219.814 120.957C217.888 120.074 216.471 119.094 216.665 118.78C217.216 117.888 218.97 118.106 221.417 119.371ZM184.209 121.59C184.348 122.008 183.446 122.77 182.205 123.284C180.963 123.798 179.526 124.64 179.012 125.155C178.498 125.669 177.143 126.31 176.002 126.58C173.742 127.112 176.591 124.56 180.612 122.446C181.507 121.977 182.239 121.292 182.239 120.926C182.239 120.053 183.881 120.607 184.209 121.59ZM215.443 125.258C217.618 126.351 220.908 128.79 222.754 130.678C224.601 132.566 226.457 134.112 226.881 134.112C227.818 134.112 230.933 139.558 232.141 143.304C232.625 144.808 233.268 146.362 233.571 146.76C234.153 147.526 236.455 157.56 236.888 161.215C237.029 162.407 237.623 168.559 238.209 174.884C238.795 181.21 239.498 187.39 239.772 188.617C240.044 189.845 240.346 193.288 240.441 196.269C240.535 199.251 241 204.455 241.472 207.833C241.944 211.213 242.646 221.946 243.03 231.685C243.884 253.315 245.319 265.054 247.269 266.378C247.562 266.577 248.214 268.04 248.718 269.63C250.181 274.239 252.978 280.086 254.97 282.697C257.579 286.118 256.83 286.615 249.08 286.615C235.081 286.615 233.664 285.449 229.314 270.353C228.054 265.983 227.512 263.136 225.937 252.645C224.488 242.988 224.015 233.91 223.455 204.943C223.098 186.458 222.652 170.033 222.463 168.443C221.784 162.732 219.911 153.519 219.258 152.678C218.892 152.206 217.977 150.031 217.225 147.844C216.474 145.658 215.661 143.706 215.418 143.507C215.175 143.309 214.424 141.468 213.749 139.416C212.522 135.687 206.651 129.092 204.495 129.021C203.436 128.986 209.677 123.275 210.777 123.272C211.168 123.271 213.268 124.164 215.443 125.258ZM191.908 127.769C192.559 128.809 191.962 129.705 188.299 133.19C184.313 136.979 179.355 143.728 179.343 145.377C179.341 145.741 178.881 146.915 178.322 147.987C176.866 150.778 175.011 157.461 175.011 159.917C175.011 161.068 174.739 162.319 174.406 162.697C171.982 165.441 169.179 194.428 169.76 210.725C170.245 224.3 170.1 269.413 169.544 277.941C168.933 287.322 168.771 287.817 166.118 288.423C164.847 288.713 163.158 289.098 162.363 289.277C155.879 290.738 144.597 290.269 145.925 288.594C146.315 288.101 147.045 285.91 147.547 283.724C148.048 281.537 148.701 279.424 148.998 279.026C149.713 278.068 151.882 269.232 151.882 267.278C151.882 266.432 152.158 265.571 152.493 265.362C153.717 264.606 154.942 242.758 155.159 217.825C155.281 203.783 155.546 191.156 155.749 189.764C156.35 185.634 158.462 175.033 158.918 173.864C159.15 173.268 159.277 172.501 159.2 172.161C159.123 171.821 159.353 171.171 159.712 170.716C160.451 169.778 163.056 162.088 162.781 161.657C162.681 161.503 162.9 161.177 163.264 160.935C163.629 160.691 164.308 158.564 164.773 156.208C165.759 151.212 171.276 139.39 174.125 136.169C175.975 134.078 183.788 128.33 184.781 128.33C185.03 128.33 185.739 127.824 186.357 127.206C187.762 125.8 190.874 126.116 191.908 127.769ZM162.95 135.955C159.298 139.338 155.575 143.316 154.677 144.795C153.779 146.273 152.816 147.646 152.537 147.844C152.258 148.043 151.537 149.344 150.932 150.735C150.327 152.127 149.806 152.762 149.774 152.146C149.524 147.403 156.801 137.353 163.901 132.636C170.472 128.269 170.192 129.245 162.95 135.955ZM207.859 133.475C209.672 135.63 211.948 139.443 212.338 140.978C212.892 143.161 214.98 148.319 215.623 149.093C219.858 154.195 223.749 206.412 220.514 214.735C219.154 218.237 217.174 247.517 218.051 251.162C218.285 252.136 218.091 254.9 217.619 257.306C216.382 263.601 219.884 283.566 222.851 287.141C223.392 287.794 223.353 288.375 222.714 289.145C221.691 290.378 219.406 290.586 218.739 289.506C218.493 289.108 217.458 288.783 216.439 288.783C214.921 288.783 214.741 288.598 215.438 287.758C216.104 286.954 216.048 286.597 215.176 286.109C212.622 284.68 211.867 225.442 214.14 204.943C215.312 194.373 217.935 176.234 218.765 172.96C219.064 171.781 218.974 170.972 218.546 170.972C217.663 170.972 216.954 173.428 216.942 176.531C216.936 177.799 216.655 179.009 216.317 179.217C215.979 179.427 215.292 183.104 214.79 187.392C214.289 191.678 213.541 195.603 213.127 196.114C212.399 197.014 211.999 200.64 210.432 220.482C210.024 225.649 209.38 231.342 209 233.13C208.622 234.919 207.945 243.051 207.496 251.199C207.048 259.349 206.413 267.828 206.084 270.042C205.41 274.607 205.545 281.638 206.409 286.977C206.956 290.361 206.915 290.517 205.766 289.427C203.928 287.687 203.182 283.775 202.402 271.798C202.013 265.836 201.628 259.928 201.544 258.669C201.46 257.412 201.149 256.138 200.851 255.839C200.553 255.54 200.308 254.536 200.308 253.609C200.308 252.529 199.882 251.922 199.126 251.922C198.124 251.922 198.023 252.446 198.465 255.355C198.753 257.244 199.226 264.497 199.517 271.476C199.808 278.453 200.299 284.57 200.607 285.069C201.511 286.531 200.432 289.369 198.77 289.896C195.704 290.87 195.229 281.872 196.802 252.645C197.219 244.893 197.659 236.34 197.781 233.637C197.902 230.935 198.2 227.926 198.446 226.951C198.771 225.653 198.597 225.18 197.792 225.18C197.189 225.18 196.686 225.749 196.676 226.445C196.667 227.14 196.316 233.402 195.898 240.358C194.786 258.866 194.625 261.917 194.074 275.006C193.715 283.547 193.385 286.391 192.903 285.124C192.198 283.275 192.796 242.439 193.584 238.551C193.827 237.359 194.123 234.919 194.244 233.13C194.497 229.394 195.632 216.719 196.706 205.665C197.11 201.491 197.565 196.613 197.714 194.824C197.864 193.034 198.193 190.758 198.445 189.764C199.138 187.024 199.62 163.745 198.984 163.745C198.678 163.745 197.861 168.217 197.168 173.683C196.476 179.149 195.729 184.922 195.509 186.512C195.288 188.103 194.993 190.704 194.853 192.294C192.907 214.338 192.133 221.416 191.545 222.515C191.159 223.235 191.043 224.455 191.288 225.225C191.532 225.995 191.412 226.625 191.021 226.625C190.63 226.625 190.174 226.219 190.009 225.722C189.842 225.225 189.484 233.27 189.211 243.6C188.937 253.93 188.418 263.362 188.057 264.561C186.378 270.125 185.949 272.493 186.495 273.2C187.173 274.079 186.402 288.474 185.636 289.241C185.358 289.519 185.13 289.162 185.13 288.447C185.13 287.344 184.684 287.207 182.179 287.543L179.229 287.939L179.683 284.567C179.933 282.712 180.268 279.08 180.426 276.496C181.06 266.205 183.79 247.485 189.068 217.23C192.148 199.571 193.568 186.873 192.462 186.873C191.59 186.873 190.938 189.447 190.906 193.017C190.892 194.607 190.245 199.974 189.47 204.943C188.695 209.912 187.554 217.23 186.932 221.204C186.311 225.18 185.59 228.92 185.33 229.517C185.07 230.113 184.822 231.089 184.778 231.685C184.513 235.26 183.448 241.081 183.059 241.081C182.807 241.082 182.865 237.748 183.188 233.674C183.513 229.599 183.91 224.475 184.073 222.289C184.235 220.103 184.696 216.199 185.096 213.615C186.059 207.4 186.072 204.207 185.13 205.665C183.364 208.398 185.269 180.993 187.567 170.611C189.201 163.227 190.33 159.021 190.851 158.374C191.193 157.949 191.684 155.813 191.941 153.626C192.461 149.217 195.932 137.725 196.744 137.725C198.473 137.725 199.022 142.377 197.809 146.76C197.26 148.747 196.635 151.837 196.422 153.626L196.035 156.878L197.362 153.942C198.091 152.327 198.925 149.927 199.215 148.606C199.821 145.849 201.002 146.859 201.02 150.151C201.026 151.22 201.342 152.287 201.723 152.523C202.103 152.758 202.397 153.834 202.377 154.915C202.356 155.995 202.708 160.457 203.158 164.829C203.711 170.203 203.792 178.402 203.407 190.125C203.093 199.666 203.094 209.098 203.408 211.086C203.721 213.074 204.163 218.359 204.389 222.831C205.138 237.624 205.928 231.295 206.372 206.93C206.613 193.712 207.008 177.638 207.248 171.208C207.68 159.663 206.817 149.824 205.291 148.881C204.923 148.654 204.8 148.177 205.019 147.824C205.237 147.469 205.102 146.598 204.717 145.886C203.931 144.432 202.476 138.428 202.476 136.64C202.476 134.724 203.771 136.116 204.323 138.626C204.604 139.908 205.243 141.612 205.743 142.413C206.242 143.213 207.054 145.658 207.549 147.844C208.043 150.031 208.767 152.222 209.157 152.714C209.547 153.206 209.681 154.089 209.455 154.678C209.229 155.267 209.356 155.941 209.736 156.175C211.267 157.121 209.957 142.594 208.301 140.255C208.02 139.857 207.373 138.069 206.865 136.28C206.357 134.491 205.609 132.621 205.204 132.124C204.702 131.509 204.706 131.22 205.215 131.22C205.626 131.22 206.816 132.235 207.859 133.475ZM191.909 133.569C191.616 134.066 190.556 135.773 189.556 137.364C185.617 143.622 181.201 153.033 181.464 154.605C181.52 154.945 181.272 155.596 180.91 156.052C180.549 156.506 179.858 159.64 179.374 163.015C178.89 166.391 178.29 169.481 178.038 169.882C177.787 170.283 177.499 170.936 177.398 171.333C177.297 171.732 176.714 173.845 176.102 176.032C175.49 178.218 174.959 183.097 174.922 186.873C174.884 190.649 174.567 194.281 174.218 194.942C173.221 196.827 172.484 210.725 173.38 210.725C173.813 210.725 174.356 207.872 174.653 204.039C174.938 200.362 175.605 194.914 176.137 191.933C178.879 176.532 180.023 171.105 181.013 168.804C181.612 167.412 182.32 164.648 182.586 162.661C182.851 160.673 183.261 158.559 183.495 157.962C183.73 157.366 183.963 156.716 184.013 156.517C184.549 154.416 186.893 148.123 187.244 147.844C187.495 147.646 188.309 146.1 189.054 144.411C190.316 141.551 192.428 139.819 191.258 142.604C190.966 143.3 190.144 146.146 189.432 148.928C188.719 151.711 187.967 154.638 187.76 155.433C187.554 156.228 186.833 159.318 186.158 162.299C185.484 165.28 184.652 168.079 184.308 168.517C183.966 168.955 183.479 171.395 183.226 173.938C182.974 176.481 182.298 179.103 181.724 179.767C180.982 180.62 180.88 181.357 181.373 182.296C183.109 185.61 183.011 206.558 181.168 225.541C181.014 227.132 180.53 232.173 180.093 236.744C179.656 241.316 178.962 248.471 178.552 252.645C178.141 256.819 177.701 262.023 177.575 264.209C176.279 286.685 176.14 287.338 172.637 287.338C170.656 287.338 170.547 287.199 171.078 285.35C171.392 284.257 171.713 261.572 171.791 234.938C171.881 204.071 172.208 185.366 172.692 183.352C173.11 181.613 173.281 179.742 173.07 179.195C172.86 178.648 172.948 177.631 173.264 176.935C173.929 175.472 176.463 162.622 176.5 160.526C176.513 159.749 176.788 158.774 177.109 158.358C177.431 157.942 178.086 155.976 178.566 153.988C180.254 146.994 183.098 142.044 189.464 135.015C191.601 132.655 192.904 131.885 191.909 133.569ZM257.217 137.906C259.966 140.762 262.181 146.488 263.155 153.265C264.234 160.763 263.987 163.654 262.723 158.324C262.157 155.939 261.215 152.956 260.628 151.696C260.042 150.436 259.346 148.323 259.082 147.002C258.817 145.68 257.521 142.565 256.203 140.078C253.531 135.044 253.835 134.393 257.217 137.906ZM277.639 145.297C278.57 148.12 279.159 156.517 278.426 156.517C277.881 156.517 276.198 148.474 276.198 145.87C276.198 145.075 275.548 143.598 274.753 142.587C272.746 140.036 272.944 139.3 275.093 141.319C276.076 142.242 277.221 144.032 277.639 145.297ZM149.715 163.383C149.204 163.999 148.623 164.34 148.424 164.141C148.225 163.942 148.481 163.276 148.992 162.661C149.502 162.045 150.083 161.704 150.282 161.903C150.481 162.102 150.225 162.768 149.715 163.383ZM147.165 172.599C146.885 174.288 146.45 175.996 146.198 176.393C145.662 177.238 143.186 187.453 143.133 189.041C143.113 189.638 142.801 190.776 142.439 191.572C142.077 192.366 141.278 197.082 140.664 202.051C139.063 215.001 139.049 215.134 138.183 226.264C137.438 235.857 136.255 248.551 135.592 254.091C135.425 255.482 135.024 259.06 134.701 262.041C134.379 265.022 133.52 268.763 132.794 270.353C128.889 278.898 127.846 280.82 125.172 284.405C121.957 288.715 121.289 287.913 123.941 282.925C124.873 281.174 126.053 278.442 126.565 276.855C127.078 275.266 127.723 273.642 127.999 273.244C128.275 272.847 128.913 271.081 129.418 269.321C129.922 267.56 130.794 265.421 131.355 264.565C131.916 263.708 132.888 259.456 133.516 255.116C135.142 243.877 135.174 243.535 135.961 229.155C136.352 222 137.011 213.381 137.424 210.002C138.401 202.001 138.537 201.174 139.087 199.883C139.341 199.287 140.057 196.034 140.679 192.656C142.28 183.957 144.025 176.643 145.163 173.864C145.408 173.268 145.544 172.501 145.467 172.161C145.323 171.523 146.74 169.527 147.337 169.527C147.522 169.527 147.444 170.909 147.165 172.599ZM263.923 210.002C264.307 219.343 264.82 228.45 265.063 230.239C265.358 232.404 265.264 233.25 264.784 232.769C262.873 230.855 261.079 201.996 262.179 190.849C262.922 183.313 262.749 181.419 263.923 210.002ZM275.109 206.569C275.472 211.092 275.419 213.615 274.962 213.615C274.145 213.615 273.26 200.493 273.427 190.849L273.539 184.344L274.041 191.933C274.317 196.106 274.798 202.693 275.109 206.569ZM104.302 188.857C103.843 190.35 103.151 194.622 102.765 198.351C102.122 204.573 101.289 207.993 101.289 204.417C101.289 200.501 102.898 187.919 103.555 186.69C104.736 184.486 105.217 185.883 104.302 188.857ZM180.082 187.777C180.089 189.373 180.292 189.811 180.716 189.143C181.284 188.246 181.005 185.428 180.347 185.428C180.196 185.428 180.076 186.485 180.082 187.777ZM222.018 233.13C222.438 238.497 222.947 244.189 223.151 245.778C223.354 247.369 223.611 252.898 223.722 258.066C223.977 270.038 225.002 275.225 228.449 282.003C231.353 287.715 230.834 290.714 227.661 286.555C226.927 285.595 226.022 284.436 225.648 283.981C224.864 283.027 222.587 275.558 222.264 272.883C222.145 271.888 221.693 268.149 221.26 264.57C220.827 260.993 220.631 255.032 220.824 251.323C221.016 247.614 220.867 242.735 220.492 240.481C219.901 236.925 220.38 220.701 221.019 222.651C221.149 223.048 221.599 227.764 222.018 233.13ZM182.737 245.96C182.555 246.655 182.406 246.086 182.406 244.694C182.406 243.304 182.555 242.734 182.737 243.429C182.919 244.126 182.919 245.264 182.737 245.96ZM227.018 268.662C227.056 270.082 229.193 276.759 231.317 282.098C232.148 284.184 232.698 285.893 232.539 285.893C231.045 285.893 225.722 271.317 225.149 265.654L224.893 263.125L225.939 265.293C226.515 266.486 227 268.002 227.018 268.662ZM172.843 283.682C172.843 285.1 174.065 286.357 174.764 285.658C175.332 285.09 174.294 282.278 173.517 282.278C173.146 282.278 172.843 282.909 172.843 283.682ZM239.701 288.064C239.969 288.499 242.743 288.676 246.61 288.506C252.492 288.246 253.07 288.339 253.07 289.544C253.07 291.098 251.477 292.318 251.065 291.08C250.555 289.549 248.842 290.125 249.251 291.69C249.591 292.99 249.432 293.074 247.812 292.459C246.486 291.955 245.628 292.043 244.652 292.782C242.758 294.218 242.305 294.082 242.764 292.216C243.163 290.602 243.152 290.602 241.194 292.397C239.348 294.087 239.161 294.122 238.296 292.939C237.788 292.244 237.001 291.675 236.548 291.675C235.421 291.675 235.515 292.291 236.842 293.619C238.154 294.931 238.15 294.935 235.442 295.587C233.388 296.081 233.36 296.048 233.77 293.52C234.279 290.385 233.605 290.238 231.963 293.125C230.449 295.784 229.746 295.826 227.816 293.371C226.986 292.317 226.098 291.664 225.841 291.921C225.583 292.178 225.945 293.021 226.644 293.793C228.088 295.389 227.615 296.733 225.608 296.733C224.461 296.733 224.302 296.312 224.583 294.023C224.881 291.596 224.828 291.483 224.066 292.939C223.046 294.889 222.302 294.993 221.365 293.318C220.634 292.013 224.246 289.75 225.663 290.626C226.01 290.841 227.607 290.663 229.212 290.23C230.963 289.759 232.586 289.701 233.273 290.085C235.224 291.177 238.001 290.266 237.502 288.696C237.04 287.238 238.867 286.714 239.701 288.064ZM259.937 289.99C261.129 291.007 261.617 291.684 261.021 291.495C260.424 291.305 259.204 290.921 258.31 290.64C257.321 290.331 256.684 290.434 256.684 290.902C256.684 291.327 256.196 291.675 255.6 291.675C254.953 291.675 254.516 291.01 254.516 290.025C254.516 287.69 257.219 287.673 259.937 289.99ZM175.625 290.17C176.406 290.589 178.009 290.529 179.953 290.01C182.441 289.346 183.157 289.376 183.644 290.163C184.079 290.866 185.129 291.011 187.399 290.679C189.532 290.368 191.189 290.555 192.526 291.259C193.692 291.872 194.674 292.02 194.923 291.616C195.175 291.21 195.808 291.193 196.485 291.572C197.231 291.989 198.352 291.804 199.726 291.039C201.684 289.946 201.89 289.954 202.782 291.145C203.331 291.879 204.22 292.238 204.87 291.987C205.493 291.749 206.581 291.877 207.289 292.274C208.248 292.809 209.083 292.631 210.571 291.572L212.568 290.15L214.025 292.539C216.138 296.006 215.203 297.792 212.869 294.747C212.208 293.885 211.722 293.735 211.344 294.276C210.789 295.07 207.998 296.733 207.222 296.733C206.997 296.733 206.813 295.921 206.813 294.927C206.813 292.772 205.392 292.51 204.854 294.565C204.43 296.189 202.476 296.559 202.476 295.015C202.476 293.818 200.457 292.007 199.826 292.638C199.581 292.883 199.767 293.552 200.24 294.122C201.288 295.384 200.392 296.107 197.335 296.463C195.402 296.688 195.312 296.574 195.666 294.368C196.04 292.042 196.037 292.04 194.834 293.662C193.305 295.722 191.803 295.748 191.505 293.719C191.113 291.059 189.466 291.257 189.466 293.964C189.466 296.052 189.226 296.372 187.66 296.372C185.551 296.372 185.48 296.142 186.945 294.051C187.674 293.009 187.783 292.335 187.271 292.02C186.048 291.263 184.215 292.298 184.671 293.487C184.929 294.159 184.659 294.565 183.956 294.565C183.334 294.565 182.657 293.915 182.448 293.12C182.067 291.662 180.071 291.055 180.071 292.397C180.071 292.795 180.361 293.12 180.717 293.12C182.05 293.12 182.243 295.488 180.986 296.441C178.868 298.049 178.515 297.616 179.012 294.023L179.488 290.59L178.213 292.397C177.51 293.391 176.806 294.362 176.647 294.555C176.488 294.748 175.752 294.102 175.011 293.12C173.458 291.06 172.088 291.744 173.437 293.905C174.518 295.636 173.99 296.733 172.078 296.733C170.493 296.733 170.372 296.179 171.38 293.528C172.249 291.24 171.238 291.098 169.757 293.3L168.664 294.927L166.779 293.175C164.869 291.4 163.886 292.546 165.733 294.394C166.437 295.098 164.112 296.733 162.409 296.733C162.287 296.733 162.221 295.433 162.263 293.843C162.304 292.252 162.547 290.951 162.802 290.951C163.057 290.951 164.283 290.749 165.525 290.5C167.313 290.142 167.784 290.293 167.784 291.223C167.784 292.804 168.729 292.702 170.313 290.951C171.723 289.394 173.645 289.11 175.625 290.17ZM161.279 292.759C161.279 294.73 159.367 295.256 157.821 293.71C157.351 293.24 156.727 293.095 156.433 293.388C156.14 293.681 156.369 294.211 156.942 294.565C157.516 294.92 157.751 295.443 157.467 295.727C156.868 296.326 152.14 296.255 151.133 295.633C150.02 294.945 152.642 291.589 153.966 292.006C154.608 292.208 156.111 292.082 157.303 291.725C160.742 290.696 161.279 290.835 161.279 292.759ZM219.42 292.558C220.919 294.698 220.839 295.288 219.051 295.288C217.851 295.288 217.654 294.982 218.051 293.734C218.443 292.497 218.305 292.27 217.376 292.626C216.628 292.914 216.209 292.694 216.209 292.013C216.209 290.412 218.147 290.74 219.42 292.558ZM149.139 292.397C151.011 292.397 151.204 292.558 150.437 293.481C149.286 294.868 143.932 294.968 143.932 293.602C143.932 292.233 144.776 291.566 145.942 292.014C146.492 292.224 147.93 292.397 149.139 292.397Z" fill="#FFEE00"/>
</svg>
