<svg width="400" height="400" viewBox="0 0 400 400" fill="none" xmlns="http://www.w3.org/2000/svg">
<path fill-rule="evenodd" clip-rule="evenodd" d="M240.667 70.4234C218.395 73.9272 199.006 84.9619 186.518 101.241C182.427 106.575 182.93 106.678 175.342 98.9408C167.145 90.5837 161.149 86.6321 149.612 81.9853C146.512 80.7365 136.334 79.0375 130.75 78.8369C126.95 78.7013 115.903 81.7799 112.351 83.9665C110.635 85.0219 107.528 86.7029 105.446 87.7019C103.363 88.7009 101.659 89.802 101.659 90.149C101.659 90.4972 100.487 91.3005 99.0544 91.9345C94.3188 94.0298 84.2446 105.08 79.6386 113.231C74.5259 122.278 71.8915 134.368 72.0044 148.27C72.0848 158.18 72.361 160.698 74.5487 171.413C77.1999 184.396 87.2981 211.342 93.6872 222.481C94.1951 223.368 96.0454 226.776 97.7985 230.056C99.5503 233.334 101.538 236.65 102.212 237.423C102.888 238.197 103.441 239.278 103.441 239.827C103.441 242.362 125.631 277.351 127.276 277.411C127.89 277.434 128.403 278.153 128.416 279.012C128.43 279.869 132.814 286.586 138.157 293.937C143.502 301.288 150.399 311.005 153.486 315.531C157.921 322.032 159.943 324.183 163.119 325.778C165.33 326.889 167.619 328.399 168.206 329.135C169.059 330.205 169.617 330.261 170.999 329.418C171.948 328.84 174.279 328.089 176.176 327.751C178.074 327.412 181.632 326.343 184.083 325.376C186.534 324.408 190.143 323.015 192.103 322.28C203.686 317.94 207.462 315.223 235.69 290.928C250.374 278.29 267.259 259.638 271.58 251.279C272.335 249.818 275.443 245.587 278.487 241.874C292.684 224.558 300.908 212.172 308.564 196.575C315.598 182.245 317.129 186.067 310.443 201.265C302.282 219.817 305.652 221.511 314.914 203.512C326.816 180.39 331.812 138.373 324.082 126.417C323.448 125.435 322.638 123.452 322.282 122.01C319.396 110.306 305.283 91.9309 292.655 83.4381C285.938 78.9198 276.327 74.1709 275.25 74.8361C274.787 75.1219 273.935 74.716 273.355 73.9332C271.444 71.3576 249.621 69.015 240.667 70.4234ZM252.251 94.2567C255.436 94.9291 258.329 95.3074 258.678 95.0972C259.029 94.8871 260.095 95.4959 261.05 96.4504C262.004 97.405 264.324 98.9035 266.206 99.7801C271.165 102.091 281.272 112.487 283.741 117.816C284.891 120.299 286.229 122.848 286.713 123.481C289.657 127.328 292.484 153.363 290.049 154.2C289.431 154.412 289.111 152.839 289.158 149.829C289.464 130.119 281.557 117.167 266.684 113.017C258.322 110.684 258.186 112.038 266.002 119.789C278.034 131.719 280.766 142.045 277.066 161.612C275.982 167.346 272.313 179.237 270.054 184.334C269.186 186.294 267.385 190.505 266.052 193.69C258.575 211.563 252.599 220.345 232.099 243.59C221.118 256.042 200.719 275.18 189.834 283.244C188.511 284.224 184.693 287.332 181.35 290.15C178.007 292.968 174.663 295.273 173.921 295.273C172.286 295.273 160.719 283.27 145.373 265.645C143.773 263.807 141.904 262.304 141.219 262.304C140.535 262.304 139.975 261.778 139.975 261.137C139.975 260.494 138.27 257.938 136.188 255.456C134.105 252.973 129.859 247.884 126.753 244.147C123.647 240.411 120.78 237.354 120.383 237.354C119.388 237.354 115.093 229.944 115.607 229.113C116.882 227.05 126.62 233.753 138.893 245.14C142.466 248.454 145.974 251.294 146.691 251.453C147.408 251.611 147.995 252.236 147.995 252.838C147.995 254.01 156.386 262.289 165.715 270.323C168.847 273.019 171.958 275.758 172.629 276.41C178.95 282.54 171.575 271.079 164.145 263.222C163.349 262.381 161.412 260.092 159.84 258.136C158.268 256.18 155.361 252.908 153.38 250.866C151.398 248.824 149.777 246.901 149.777 246.592C149.777 246.284 147.271 243.13 144.208 239.585C141.145 236.038 137.872 232.069 136.936 230.765C136 229.461 134.296 227.382 133.149 226.145C132.002 224.908 131.064 223.591 131.064 223.219C131.064 222.845 130.356 221.763 129.491 220.814C126.734 217.788 119.48 207.219 119.48 206.228C119.48 205.704 119.126 205.275 118.692 205.275C118.26 205.275 117.683 204.573 117.409 203.715C117.135 202.858 115.448 199.549 113.659 196.363C107.369 185.166 106.419 183.14 103.62 174.978C94.4941 148.372 94.3416 133.298 103.025 116.166C110.502 101.414 131.802 90.6485 145.99 94.4512C150.093 95.5511 148.271 97.4026 143.627 96.8527C138.216 96.2115 129.659 97.2153 128.167 98.6646C127.555 99.2614 125.651 100.635 123.936 101.718C117.823 105.578 112.423 111.711 115.138 111.711C116.67 111.711 123.614 107.598 129.051 103.469L133.722 99.9218L141.099 100.419C149.881 101.011 149.163 100.781 163.005 107.437C169.056 110.346 174.57 112.511 175.258 112.247C177.324 111.455 176.702 114.261 173.928 118.249C171.343 121.966 169.374 131.547 170.99 132.546C171.388 132.791 174.897 130.531 178.789 127.524C182.912 124.339 186.795 122.031 188.093 121.995C189.633 121.952 190.247 121.486 190.082 120.487C189.858 119.133 195.498 113.593 204.833 105.996C217.631 95.5799 236.442 90.9235 252.251 94.2567Z" fill="#0000FF"/>
</svg>
