<svg width="400" height="400" viewBox="0 0 400 400" fill="none" xmlns="http://www.w3.org/2000/svg">
<path fill-rule="evenodd" clip-rule="evenodd" d="M210.635 70.8691C210.489 71.2055 207.866 72.6935 204.805 74.1762C201.744 75.6589 198.954 77.3527 198.604 77.9387C198.255 78.5247 197.505 79.0035 196.94 79.0035C195.963 79.0035 189.302 86.2809 189.302 87.349C189.302 87.6275 188.379 89.0663 187.25 90.5458C186.122 92.0263 185.127 93.7019 185.042 94.2696C184.955 94.8374 184.643 95.6891 184.347 96.1616C183.085 98.1767 181.259 104.741 181.415 106.696C181.508 107.862 181.174 109.825 180.673 111.056C179.029 115.092 180.126 130.474 182.211 132.629C182.613 133.044 182.944 133.939 182.947 134.616C182.949 135.294 183.484 136.87 184.135 138.118C184.786 139.366 185.136 140.683 184.912 141.044C184.689 141.406 184.812 141.891 185.187 142.123C186.126 142.702 186.161 149.948 185.231 151.069C184.816 151.571 184.546 152.285 184.63 152.659C184.794 153.38 184.18 155.249 182.712 158.507C182.219 159.6 181.795 160.888 181.77 161.368C181.745 161.849 180.747 163.524 179.55 165.092C178.355 166.659 177.376 168.308 177.376 168.754C177.376 169.997 173.567 175.334 171.795 176.576C170.929 177.182 170.217 178.105 170.21 178.626C170.205 179.148 168.412 181.544 166.225 183.949C164.039 186.354 162.036 189.126 161.776 190.11C161.517 191.093 161.01 191.899 160.651 191.899C159.909 191.899 154.507 199.98 155.116 200.18C155.334 200.252 154.403 201.727 153.047 203.458C151.692 205.191 150.365 207.503 150.1 208.599C149.834 209.694 148.184 211.99 146.434 213.7L143.25 216.809L135.283 215.794C127.348 214.783 123.57 212.658 121.63 208.111C119.828 203.889 112.403 201.8 109.36 204.658C108.187 205.759 106.243 206.388 103.346 206.603C99.6371 206.877 98.7126 207.303 96.4211 209.798C94.9662 211.383 92.1048 213.558 90.0607 214.634C82.5969 218.56 78.6556 224.403 78.9116 231.162C79.0852 235.759 80.3825 236.953 80.3825 232.516C80.3825 228.452 84.4053 220.759 86.0123 221.752C86.9829 222.352 85.9073 227.156 84.6324 227.913C83.4133 228.638 83.0812 238.806 84.2767 238.806C84.6699 238.806 85.2431 236.301 85.5505 233.241C86.0262 228.5 86.3336 227.675 87.6192 227.675C89.2872 227.675 89.3944 228.131 89.4726 235.548C89.5079 238.974 89.8636 240.755 90.56 240.995C91.3752 241.274 91.5552 239.443 91.4116 232.326C91.2777 225.704 91.5306 222.774 92.3619 221.315C92.9843 220.222 93.5082 218.97 93.5264 218.533C93.5875 217.077 96.4468 213.371 97.1656 213.816C98.268 214.497 97.9498 219.159 96.6857 220.829C95.9722 221.772 95.563 224.161 95.5865 227.251C95.6079 230.029 95.0755 233.484 94.3642 235.187C92.769 239.005 92.7358 243.871 94.2956 245.165C94.9512 245.711 95.488 246.783 95.488 247.551C95.488 248.318 95.97 249.347 96.5603 249.835C97.6777 250.764 98.2005 255.501 97.1838 255.501C96.8635 255.501 96.2036 255.103 95.7161 254.616C93.7803 252.68 93.2136 254.803 94.8902 257.71C100.533 267.491 104.041 268.457 99.8696 259.078C99.2868 257.767 98.643 254.316 98.4394 251.41C98.2359 248.505 97.8095 245.705 97.4913 245.19C96.5989 243.747 96.4853 236.262 97.321 234.035C100.977 224.298 103.235 222.043 104.43 226.934C104.798 228.435 105.312 230.199 105.574 230.855C105.837 231.511 105.974 233.032 105.877 234.234C105.782 235.437 106.049 236.42 106.471 236.42C106.892 236.42 107.472 237.673 107.759 239.203C108.046 240.733 108.622 241.986 109.04 241.986C109.458 241.986 109.798 242.386 109.798 242.876C109.798 244.453 114.135 250.672 115.256 250.702C116.504 250.735 115.788 243.386 114.498 242.913C114.1 242.768 113.774 241.425 113.774 239.932C113.774 237.166 112.507 236.246 111.676 238.409C111.097 239.92 109.798 239.964 109.798 238.473C109.798 237.851 109.286 236.331 108.66 235.094C108.033 233.855 107.104 230.696 106.596 228.073C106.089 225.449 105.348 222.48 104.953 221.477C103.995 219.045 104.04 215.964 105.042 215.344C105.486 215.069 105.669 214.553 105.448 214.195C105.227 213.837 105.579 213.102 106.23 212.562C106.881 212.022 107.414 211.166 107.414 210.662C107.414 208.957 112.295 205.343 113.906 205.854C114.738 206.117 117.313 208.274 119.627 210.643C121.942 213.014 124.211 214.954 124.67 214.954C125.129 214.954 125.942 215.481 126.478 216.126C127.012 216.77 128.755 217.531 130.351 217.815C134.134 218.49 141.6 221.861 141.6 222.894C141.6 223.337 142.137 223.699 142.793 223.699C143.449 223.699 143.985 224.236 143.985 224.893C143.985 225.549 144.522 226.085 145.178 226.085C146.816 226.085 146.681 223.962 144.979 222.959C143.765 222.244 143.741 222.037 144.781 221.342C146.532 220.17 149.214 220.348 150.345 221.712C152.1 223.827 152.731 222.999 152.731 218.579C152.731 216.2 153.099 214.027 153.546 213.749C153.995 213.472 154.307 212.825 154.238 212.31C153.978 210.357 156.293 206.209 157.644 206.209C158.856 206.209 159.022 207.052 158.972 212.974C158.935 217.512 159.286 220.324 160.038 221.52C160.657 222.501 161.653 224.912 162.255 226.88C162.856 228.848 163.822 231.023 164.4 231.713C164.978 232.403 165.452 233.903 165.452 235.045C165.452 236.187 165.751 237.306 166.116 237.532C167.701 238.512 165.874 243.575 163.935 243.575C161.664 243.575 160.681 241.839 160.681 237.824C160.681 232.846 157.565 227.675 154.566 227.675C151.573 227.675 150.345 230.673 150.345 237.982C150.345 247.62 146.897 250.076 142.7 243.43C140.502 239.947 140.841 237.367 143.434 237.833C144.109 237.953 144.862 237.726 145.109 237.326C145.869 236.096 143.774 235.069 139.524 234.593C134.771 234.059 128.362 230.26 122.321 224.396C119.949 222.094 119.34 220.909 119.34 218.601C119.34 215.715 117.055 213.458 116.332 215.628C116.122 216.258 115.116 216.421 113.409 216.101C111.029 215.654 110.767 215.806 110.359 217.867C109.705 221.157 110.684 232.483 111.575 231.934C111.986 231.679 112.15 230.809 111.938 230C111.727 229.191 112.035 228.128 112.626 227.639C113.724 226.727 116.955 227.293 116.955 228.396C116.955 228.735 118.386 229.483 120.137 230.061C123.538 231.184 137.626 244.446 137.626 246.527C137.626 254.101 151.009 252.661 152.473 244.93C152.737 243.529 153.293 241.95 153.708 241.422C154.123 240.893 154.251 239.463 153.995 238.241C153.738 237.021 153.875 235.486 154.299 234.83C155.694 232.673 157.809 235.012 158.684 239.681C159.633 244.75 164.656 250.845 164.656 246.93C164.656 246.589 165.736 245.902 167.055 245.404C168.631 244.808 169.862 243.522 170.643 241.652C171.986 238.439 172.724 238.186 174.761 240.237C175.545 241.025 178.51 243.208 181.352 245.089C189.458 250.455 192.543 256.201 188.205 257.85C185.574 258.85 185.542 259.954 188.126 260.602C194.272 262.144 194.751 254.077 188.844 248.518C185.194 245.084 179.167 240.396 178.403 240.396C177.469 240.396 171.12 233.878 169.771 231.534C169.179 230.505 168.282 228.768 167.779 227.675C167.274 226.582 166.316 224.654 165.65 223.392C164.333 220.9 164.671 210.032 166.15 207.236C166.565 206.453 167.319 203.755 167.825 201.241C168.331 198.726 169.077 196.668 169.483 196.668C169.889 196.668 170.221 195.675 170.221 194.46C170.221 193.247 170.729 191.528 171.349 190.642C171.97 189.756 173.553 187.083 174.869 184.701C176.184 182.319 177.806 180.026 178.472 179.603C180.635 178.236 180.972 180.003 179.153 183.166C176.983 186.934 176.927 188.313 178.883 189.683C180.203 190.608 180.324 191.377 179.855 195.895C179.216 202.075 179.642 208.762 180.636 208.147C181.03 207.904 181.352 205.608 181.352 203.047C181.352 198.149 183.059 190.048 184.983 185.816C185.609 184.438 186.123 182.76 186.123 182.087C186.123 181.413 186.511 180.621 186.986 180.328C187.462 180.034 187.674 179.119 187.459 178.294C187.243 177.469 187.344 176.623 187.682 176.414C189.53 175.271 189.05 140.84 187.153 138.489C186.687 137.911 186.044 136.187 185.724 134.656C185.405 133.126 184.786 131.43 184.35 130.888C181.373 127.193 181.581 111.6 184.607 111.6C185.003 111.6 185.327 111.219 185.327 110.753C185.327 110.286 186.221 108.731 187.315 107.298C189.729 104.134 189.889 101.604 187.712 101.035C186.045 100.599 185.502 97.7675 186.918 96.8922C187.355 96.6222 187.722 95.6173 187.734 94.6585C187.769 91.871 197.155 80.498 200.685 78.966C201.639 78.5514 202.957 77.9097 203.613 77.5391C207.106 75.5668 208.542 75.029 210.313 75.029C211.386 75.029 212.485 74.6712 212.755 74.2341C213.377 73.2281 220.603 73.1981 223.829 74.1869C225.173 74.5983 228.06 75.224 230.246 75.5786C233.783 76.1506 234.221 76.4399 234.221 78.2054C234.221 80.3919 225.733 82.361 223.958 80.5859C222.83 79.4578 216.682 79.6131 215.701 80.7948C214.813 81.865 216.224 84.569 217.669 84.569C218.968 84.569 225.078 90.1933 225.078 91.3889C225.078 93.1608 222.969 92.7345 217.928 89.9416C215.368 88.5242 213.06 87.5783 212.797 87.8407C212.18 88.4578 213.124 90.9293 213.977 90.9293C214.337 90.9293 216.722 92.2706 219.279 93.9108C221.836 95.5509 224.634 97.3443 225.496 97.896C226.36 98.4477 228.497 99.6069 230.246 100.47C233.454 102.054 236.271 103.711 237.004 104.446C237.223 104.666 238.413 105.367 239.649 106.005C242.96 107.712 252.001 117.611 252.566 120.145C252.835 121.349 253.557 123.461 254.172 124.838C255.955 128.832 255.686 137.836 253.785 137.836C252.192 137.836 250.969 135.903 251.222 133.784C251.346 132.75 249.043 129.797 248.881 130.783C248.854 130.946 248.764 133.762 248.681 137.042C248.458 145.879 245.169 149.622 244.512 141.787C244.347 139.833 244.048 137.339 243.846 136.247C243.644 135.153 243.244 132.828 242.956 131.079C242.376 127.543 240.559 123.362 238.294 120.345L236.802 118.358L237.301 121.141C239.285 132.207 238.253 143.402 235.251 143.402C234.155 143.402 233.824 142.767 233.824 140.666C233.824 139.162 233.431 137.688 232.953 137.392C232.474 137.095 232.235 135.806 232.422 134.527C232.61 133.248 232.466 132.017 232.101 131.792C231.737 131.566 231.439 130.264 231.439 128.897C231.439 127.532 230.766 124.958 229.944 123.181C229.123 121.403 228.214 119.411 227.926 118.755C226.477 115.461 225.324 114.137 224.4 114.708C223.629 115.185 223.674 115.822 224.604 117.633C225.609 119.591 226.173 120.943 227.066 123.526C227.142 123.744 227.411 124.46 227.664 125.116C228.554 127.424 229.04 134.062 228.546 137.155C228.037 140.335 226.427 140.999 226.09 138.169C224.394 123.934 216.691 109.673 208.198 105.042C199.067 100.063 197.676 105.408 205.838 114.102C210.297 118.851 213.949 124.353 213.949 126.323C213.949 126.898 214.338 127.498 214.813 127.657C215.289 127.815 216.007 129.704 216.408 131.853C216.81 134.002 217.416 135.96 217.756 136.203C218.096 136.445 218.45 137.539 218.544 138.631C219.044 144.529 219.448 150.404 219.479 152.253C219.502 153.701 220.034 154.482 221.201 154.788C222.814 155.21 222.866 155.546 222.366 162.234C221.889 168.621 221.951 169.104 223.063 167.697C223.734 166.848 224.284 165.622 224.284 164.97C224.284 163.474 226.09 158.241 226.789 157.711C227.079 157.492 227.634 156.085 228.022 154.585C228.411 153.085 229.179 151.708 229.73 151.523C230.839 151.154 230.929 163.008 229.822 163.691C229.499 163.892 228.998 165.311 228.71 166.846C228.422 168.382 227.846 169.638 227.428 169.638C227.01 169.638 226.668 170.126 226.668 170.723C226.668 171.32 225.927 172.751 225.021 173.903C222.381 177.259 224.431 176.32 228.259 172.42C234.292 166.273 235.831 168.628 230.047 175.155C229.064 176.266 228.259 177.548 228.259 178.003C228.259 178.458 225.576 181.946 222.296 185.754C219.017 189.561 216.333 193.234 216.333 193.914C216.333 194.595 215.262 195.762 213.953 196.507C211.446 197.934 210.749 199.849 212.737 199.849C213.383 199.849 214.497 198.954 215.214 197.862C216.484 195.923 219.513 195.083 219.513 196.668C219.513 198.777 221.199 197.009 223.116 192.892C225.283 188.237 231.739 180.768 233.595 180.768C234.992 180.768 234.887 182.736 233.426 183.949C232.77 184.493 232.234 185.53 232.234 186.254C232.234 186.977 231.691 188.345 231.026 189.293C230.363 190.24 229.883 191.304 229.96 191.657C230.038 192.008 229.82 192.942 229.475 193.732C229.131 194.52 229.191 195.932 229.609 196.868C230.145 198.067 230.026 199.252 229.208 200.891C228.316 202.682 228.239 203.833 228.874 205.902C229.327 207.379 229.506 210.021 229.272 211.772C228.973 214.002 229.139 214.954 229.83 214.954C230.401 214.954 230.612 215.483 230.331 216.212C230.066 216.903 230.386 218.235 231.041 219.171C231.697 220.107 232.234 221.66 232.234 222.62C232.234 223.581 232.739 225.379 233.358 226.617C235.781 231.472 238.594 237.949 238.594 238.67C238.594 239.089 239.131 239.636 239.786 239.888C240.443 240.14 240.979 240.836 240.979 241.435C240.979 242.034 242.967 244.638 245.396 247.223L249.812 251.923L249.304 248.743C249.024 246.994 248.288 244.998 247.67 244.308C246.215 242.686 246.247 241.631 247.79 240.351C249.75 238.725 255.011 245.085 256.033 250.316C257.699 258.844 257.337 261.244 254.494 260.502C250.437 259.44 254.845 266.775 261.805 272.668C263.918 274.457 268.773 277.495 272.593 279.418C276.412 281.342 279.717 283.101 279.936 283.328C280.154 283.555 282.301 284.753 284.706 285.991C292.691 290.099 294.599 291.475 300.408 297.313C309.096 306.045 308.043 308.93 298.979 301.227C296.158 298.828 293.467 296.86 293 296.854C292.534 296.848 290.092 295.789 287.574 294.501C285.056 293.213 280.965 291.715 278.484 291.171C276.003 290.628 273.744 289.844 273.462 289.431C273.172 289.001 267.016 288.702 259.151 288.733C246.099 288.787 245.127 288.684 241.196 286.839C232.623 282.814 221.899 274.193 221.899 271.325C221.899 270.595 220.378 268.673 218.52 267.054C216.661 265.435 214.375 263.426 213.439 262.589C212.502 261.751 211.42 261.067 211.035 261.067C209.979 261.067 198.047 248.852 198.047 247.772C198.047 247.256 197.601 246.548 197.054 246.199C196.507 245.85 195.676 244.87 195.208 244.02C194.74 243.172 193.92 242.332 193.385 242.154C192.135 241.737 193.027 245.822 194.576 247.613C195.174 248.304 195.663 249.321 195.663 249.874C195.663 250.425 196.378 251.787 197.252 252.899C198.127 254.011 198.842 255.409 198.842 256.006C198.842 256.603 199.134 257.091 199.489 257.091C199.845 257.091 200.627 258.343 201.228 259.874C201.828 261.404 202.62 262.656 202.986 262.656C203.352 262.656 203.992 263.551 204.408 264.644C204.823 265.738 205.53 266.632 205.978 266.632C206.426 266.632 206.793 267.347 206.793 268.222C206.793 269.281 206.263 269.812 205.203 269.812C202.709 269.812 203.299 271.208 207.588 275.452C210.843 278.672 211.563 279.887 211.563 282.152C211.563 287.042 206.968 284.686 201.103 276.788C196.059 269.998 193.317 267.708 189.451 267.054C184.042 266.14 178.454 260.075 181.365 258.276C181.81 258.002 181.953 257.42 181.683 256.985C180.987 255.857 178.171 258.598 178.171 260.406C178.171 262.896 181.904 268.466 183.083 267.737C183.443 267.515 183.737 267.712 183.737 268.175C183.737 268.638 184.728 269.017 185.937 269.017C188.431 269.017 193.689 272.303 196.048 275.335C208.039 290.747 218.016 291.073 215.633 275.973C215.391 274.443 218.836 275.671 222.748 278.51C225.123 280.232 228.586 282.748 230.445 284.1C232.302 285.451 234.449 286.783 235.215 287.059C235.98 287.335 237.68 288.308 238.992 289.221C241.204 290.76 242.285 290.863 253.888 290.648C261.562 290.505 267.709 290.769 269.788 291.328C271.652 291.83 273.26 292.227 273.362 292.208C273.906 292.113 283.85 295.175 285.156 295.84C286.002 296.271 288.829 297.657 291.437 298.919C302.823 304.43 310.977 316.309 311.174 327.671C311.2 329.164 311.583 330.15 312.074 329.982C313.112 329.626 312.716 314.389 311.634 313.043C311.238 312.551 311.151 311.532 311.442 310.776C311.732 310.021 311.649 309.17 311.256 308.887C310.865 308.603 309.293 305.906 307.762 302.894C304.53 296.532 298.916 291.1 291.067 286.735C288.224 285.155 285.72 283.644 285.501 283.38C285.283 283.114 284.209 282.456 283.116 281.916C282.023 281.378 279.34 279.866 277.154 278.558C274.967 277.249 272.641 275.966 271.986 275.706C268.972 274.51 267.183 273.441 264.955 271.505C263.632 270.355 261.631 268.771 260.51 267.986C258.208 266.374 257.922 264.481 259.638 262.212C261.167 260.189 261.187 253.082 259.672 250.199C259.021 248.961 257.444 245.618 256.167 242.771C253.153 236.051 251.099 234.082 248.687 235.603C243.855 238.648 242.982 238.892 242.721 237.27C242.585 236.429 241.959 235.314 241.329 234.791C240.699 234.268 240.184 233.034 240.184 232.048C240.184 231.061 239.704 229.856 239.117 229.369C236.631 227.305 237.869 217.117 240.772 215.743C243.596 214.407 248.93 209.691 248.93 208.53C248.93 207.226 247.681 207.751 244.922 210.213C239.826 214.764 236.209 213.929 236.209 208.204C236.209 206.845 235.787 205.311 235.271 204.794C234.59 204.113 234.563 203.363 235.173 202.052C235.636 201.058 236.443 198.392 236.967 196.125C237.491 193.858 239.153 189.743 240.663 186.982C242.171 184.221 243.614 181.346 243.869 180.595C244.305 179.306 247.084 177.863 247.784 178.562C247.962 178.74 247.756 180.112 247.326 181.611C246.897 183.109 246.544 185.778 246.544 187.543C246.544 189.306 246.038 191.474 245.417 192.358C244.798 193.243 244.034 195.381 243.721 197.106L243.151 200.246L249.202 193.886C252.53 190.388 255.261 187.192 255.271 186.782C255.282 186.373 256.075 185.203 257.033 184.182C258.63 182.483 258.67 182.217 257.511 181.059C253.54 177.087 267.801 165.155 278.921 163.146C284.405 162.156 285.215 161.706 296.056 153.625C305.554 146.545 314.122 150.334 314.122 161.614C314.122 162.915 314.48 164.2 314.917 164.47C315.354 164.74 315.714 168.071 315.717 171.871C315.721 176.445 316.123 179.55 316.91 181.058C317.831 182.824 318.098 186.448 318.098 197.204C318.098 206.248 318.374 210.903 318.893 210.581C319.33 210.311 319.698 207.338 319.712 203.976C319.729 199.864 320.12 197.356 320.906 196.318C322.333 194.431 322.512 184.705 321.144 183.338C319.157 181.351 318.071 176.168 318.064 168.644C318.06 164.38 317.737 160.892 317.346 160.892C316.954 160.892 316.383 159.73 316.076 158.308C314.189 149.549 308.399 144.99 302.014 147.234C298.333 148.528 289.891 153.656 288.681 155.333C286.471 158.397 280.652 160.411 270.109 161.761C266.671 162.201 263.006 163.12 261.965 163.803C260.798 164.567 259.307 164.85 258.078 164.542C256.019 164.026 255.491 162.944 256.88 162.084C257.886 161.463 257.912 145.803 256.91 144.217C256.421 143.445 256.492 142.844 257.12 142.452C258.596 141.53 258.211 125.101 256.656 122.651C255.991 121.602 255.204 119.58 254.907 118.16C254.611 116.738 254.121 115.576 253.817 115.576C253.514 115.576 252.577 114.295 251.733 112.727C250.014 109.537 237.452 97.2897 235.898 97.2897C235.347 97.2897 234.1 96.4423 233.126 95.4063L231.356 93.5219L232.91 90.4365C238.434 79.4599 238.649 76.2803 234.148 72.1086C232.119 70.2285 211.387 69.1357 210.635 70.8691ZM187.911 112.958C186.718 115.524 186.606 121.417 187.711 123.337C188.148 124.097 188.88 125.613 189.337 126.706C191.215 131.207 192.368 132.698 192.901 131.311C193.175 130.595 193.014 129.291 192.544 128.41C191.37 126.216 191.467 123.526 192.721 123.526C194.239 123.526 195.663 125.208 195.663 127.001C195.663 127.863 196.165 129.133 196.779 129.823C197.395 130.515 198.088 133.568 198.325 136.629C198.56 139.681 199.041 142.276 199.394 142.394C200.117 142.635 200.171 162.568 199.451 163.731C198.279 165.627 197.841 170.634 198.876 170.288C199.452 170.098 200.216 169.336 200.575 168.597C200.933 167.858 201.522 166.648 201.88 165.909C202.24 165.17 203.01 164.406 203.59 164.212C204.86 163.789 204.038 181.774 202.767 182.226C202.358 182.372 202.023 183.634 202.023 185.031C202.023 186.427 201.45 188.388 200.749 189.388C200.048 190.388 199.678 191.409 199.926 191.657C200.174 191.904 199.852 192.856 199.212 193.77C198.571 194.684 198.047 196.175 198.047 197.084C198.047 197.992 197.685 199.098 197.243 199.54C195.777 201.007 193.321 206.432 193.785 207.182C194.365 208.122 197.252 205.071 197.252 203.516C197.252 202.873 197.7 201.875 198.247 201.297C198.793 200.719 199.721 199.173 200.308 197.862C203.164 191.478 206.771 184.957 208.017 183.923C208.632 183.412 209.365 181.688 209.644 180.092C209.923 178.496 210.666 176.37 211.295 175.368C213.858 171.285 214.132 143.402 211.61 143.402C211.312 143.402 210.589 141.524 210.002 139.228C209.415 136.932 208.662 134.518 208.326 133.861C207.991 133.205 207.299 130.08 206.788 126.917C205.645 119.851 202.811 116.692 198.365 117.526C195.978 117.973 195.58 117.729 193.295 114.408C190.443 110.264 189.304 109.957 187.911 112.958ZM288.052 165.265C286.321 167.233 284.294 168.842 283.549 168.842C282.466 168.842 282.297 169.308 282.705 171.167C283.168 173.272 282.93 173.626 280.184 174.915C273.097 178.245 267.215 186.617 267.215 193.378C267.215 196.12 265.227 198.178 263.879 196.831C262.724 195.675 262.745 190.335 263.913 188.152C266.417 183.474 263.283 183.584 258.731 188.335C256.838 190.31 255.29 192.413 255.29 193.008C255.29 193.602 254.754 194.534 254.097 195.078C252.778 196.173 252.456 199.849 253.679 199.849C254.106 199.849 254.997 198.798 255.661 197.515C257.779 193.419 258.931 194.119 261.143 200.843C262.606 205.292 269.04 200.038 270.326 193.341C272.019 184.533 274.199 181.207 280.462 177.877C285.383 175.26 292.075 177.143 290.323 180.652C289.964 181.372 289.086 183.213 288.371 184.744C287.657 186.273 286.365 188.599 285.5 189.91C284.636 191.223 283.692 192.833 283.401 193.489C283.111 194.144 282.323 195.324 281.648 196.108C280.655 197.262 280.335 200.85 279.98 214.87C279.645 227.999 279.269 232.527 278.432 233.536C276.211 236.209 278.076 235.442 281.687 232.197C283.726 230.366 285.636 227.884 285.931 226.681C286.226 225.479 286.735 224.494 287.061 224.494C287.386 224.494 287.858 221.058 288.109 216.857C288.604 208.545 291.065 203.393 292.939 206.743C293.97 208.584 294.469 232.428 293.519 234.433C293.104 235.307 292.385 238.17 291.922 240.793C290.78 247.254 288.908 253.873 287.869 255.125C287.253 255.868 287.283 256.321 287.976 256.749C289.01 257.389 290.244 256.038 293.376 250.84C294.428 249.094 296.216 246.665 297.351 245.442C301.259 241.227 304.874 231.533 304.702 225.724C304.677 224.869 304.956 223.796 305.324 223.34C305.691 222.882 306.458 218.108 307.028 212.733C307.998 203.595 308.172 202.974 309.703 203.193C310.603 203.321 311.369 203.784 311.404 204.222C311.44 204.659 311.761 206.054 312.117 207.322C312.537 208.818 312.425 210.172 311.802 211.172C311.246 212.062 310.916 214.873 311.023 217.809C311.124 220.612 310.968 223.143 310.677 223.435C309.946 224.167 310.006 230.861 310.743 230.83C311.697 230.789 315.712 223.749 315.712 222.117C315.712 221.301 316.227 220.118 316.857 219.488C318.354 217.992 318.83 212.457 317.501 211.991C316.893 211.777 316.503 212.361 316.495 213.497C316.477 216.195 315.212 217.952 314.092 216.832C313.174 215.914 313.346 210.47 314.741 196.271C315.35 190.081 315.25 188.687 314.005 185.936L312.567 182.755L312.55 186.088C312.54 187.92 312.175 189.641 311.738 189.91C311.3 190.182 310.943 191.048 310.943 191.838C310.943 192.628 310.305 194.127 309.527 195.171C307.491 197.898 305.128 205.168 305.64 207.126C305.88 208.044 305.567 209.573 304.944 210.523C304.197 211.666 303.758 214.88 303.65 220.015C303.55 224.862 303.106 228.283 302.471 229.118C301.91 229.855 301.441 231.552 301.427 232.889C301.413 234.227 300.877 236.016 300.235 236.865C299.592 237.713 299.055 238.958 299.041 239.631C299.01 241.149 294.584 246.537 293.909 245.877C293.312 245.294 295.273 236.574 296.528 234.228C297.022 233.305 297.427 231.533 297.427 230.289C297.427 229.046 297.983 227.234 298.664 226.262C299.345 225.29 299.533 224.494 299.082 224.494C297.384 224.494 296.138 220.197 296.66 216.147C296.943 213.96 296.88 211.127 296.521 209.849C296.109 208.38 296.192 207.137 296.746 206.47C297.386 205.697 297.368 205.109 296.676 204.275C295.511 202.872 297.278 199.834 300.656 197.429C303.555 195.365 305.85 191.472 306.431 187.633C306.887 184.625 306.864 184.589 305.342 185.968C304.487 186.742 303.787 188.104 303.787 188.997C303.787 191.831 299.909 195.078 296.523 195.078C294.071 195.078 293.189 195.543 291.624 197.662C289.616 200.381 286.758 207.004 287.592 207.004C287.861 207.004 287.635 207.541 287.091 208.197C286.375 209.06 286.339 209.676 286.961 210.425C287.586 211.178 287.505 212.07 286.66 213.696C286.023 214.925 285.501 217.803 285.501 220.09C285.501 223.897 284.02 226.88 282.13 226.88C281.433 226.88 282.017 210.587 282.941 204.222C283.85 197.962 285.414 193.865 288.737 189.035C293.26 182.462 294.579 175.324 292.168 170.489C291.291 168.731 291.042 166.93 291.383 164.801C292.007 160.894 291.884 160.911 288.052 165.265ZM174.992 191.501C174.992 192.594 175.35 193.489 175.787 193.489C176.224 193.489 176.582 192.594 176.582 191.501C176.582 190.408 176.224 189.513 175.787 189.513C175.35 189.513 174.992 190.408 174.992 191.501ZM173.54 195.947C172.129 198.207 171.268 208.594 172.491 208.594C173.034 208.594 173.402 207.212 173.402 205.169C173.402 203.285 173.927 201.049 174.569 200.199C175.786 198.59 176.232 194.284 175.182 194.284C174.85 194.284 174.112 195.032 173.54 195.947ZM208.873 203.139C207.328 205.344 207.249 206.209 208.589 206.209C210.059 206.209 211.864 203.013 210.925 202.073C210.431 201.579 209.699 201.958 208.873 203.139ZM218.52 204.279C217.666 205.144 217.782 210.798 218.663 211.343C219.782 212.034 220.011 210.936 219.542 207.127C219.307 205.228 218.848 203.946 218.52 204.279ZM248.49 205.483C247.67 206.809 249.513 208.329 250.61 207.232C251.527 206.315 250.953 204.62 249.725 204.62C249.339 204.62 248.783 205.008 248.49 205.483ZM206.167 211.005C204.993 212.885 204.891 218.643 206.019 219.34C206.468 219.618 206.769 220.265 206.688 220.778C206.481 222.104 207.625 224.494 208.468 224.494C208.859 224.494 209.178 223.959 209.178 223.302C209.178 222.646 208.86 222.11 208.471 222.11C208.081 222.11 207.791 219.434 207.825 216.164C207.893 209.609 207.602 208.705 206.167 211.005ZM179.507 210.768C178.869 211.838 179.934 219.713 180.657 219.265C181.589 218.69 181.549 211.195 180.612 210.616C180.205 210.364 179.708 210.432 179.507 210.768ZM218.731 217.141C218.76 218.554 220.119 219.879 220.654 219.015C220.953 218.53 220.976 217.777 220.706 217.339C220.133 216.412 218.713 216.269 218.731 217.141ZM81.4678 241.583C81.1592 242.386 80.3965 242.614 79.1077 242.291C76.4948 241.635 76.2334 249.392 78.7659 252.432L80.33 254.309L80.3568 251.858C80.3708 250.509 80.6514 249.138 80.9793 248.81C81.3071 248.482 81.606 247.975 81.6435 247.684C81.682 247.391 81.9199 246.617 82.1738 245.961C83.2601 243.152 83.5493 240.396 82.7576 240.396C82.2991 240.396 81.7185 240.929 81.4678 241.583ZM89.9236 244.37C89.9236 245.246 90.2814 245.961 90.7185 245.961C91.1556 245.961 91.5134 245.246 91.5134 244.37C91.5134 243.496 91.1556 242.781 90.7185 242.781C90.2814 242.781 89.9236 243.496 89.9236 244.37ZM90.7431 248.943C90.7731 249.645 92.7315 252.322 93.2168 252.322C93.401 252.322 93.626 251.427 93.716 250.333C93.8414 248.825 93.4996 248.346 92.2998 248.346C91.4299 248.346 90.7292 248.614 90.7431 248.943Z" fill="#FF0000"/>
</svg>
