<svg width="400" height="400" viewBox="0 0 400 400" fill="none" xmlns="http://www.w3.org/2000/svg">
<path fill-rule="evenodd" clip-rule="evenodd" d="M224.714 73.1883C224.351 74.1323 223.527 74.2107 220.677 73.5711C216.385 72.6066 215.097 73.6984 211.078 81.7109C209.687 84.4851 208.316 86.9434 208.031 87.1752C207.745 87.4069 207.246 88.451 206.92 89.4939C206.594 90.5379 205.974 91.391 205.542 91.391C205.109 91.391 204.757 91.8648 204.758 92.4453C204.76 93.5075 201.362 100.726 200.492 101.507C200.234 101.739 199.486 103.257 198.828 104.88C198.171 106.503 196.675 109.295 195.504 111.085C194.333 112.876 193.501 114.54 193.657 114.785C193.812 115.03 193.623 115.463 193.235 115.747C192.415 116.348 190.587 119.62 186.001 128.704C184.184 132.302 182.391 135.056 182.016 134.824C181.641 134.592 181.085 135.727 180.782 137.346C180.479 138.965 179.929 140.29 179.56 140.29C179.192 140.29 178.389 141.806 177.777 143.661C177.165 145.516 176.156 147.034 175.535 147.034C174.913 147.034 174.404 147.708 174.404 148.533C174.404 149.356 173.815 150.874 173.092 151.904C172.371 152.935 172.067 153.778 172.418 153.778C172.768 153.778 172.598 154.236 172.039 154.796C170.944 155.891 170.96 155.904 151.69 137.071C142.491 128.081 140.682 126.659 140.682 128.425C140.682 128.854 140.065 129.328 139.311 129.478C138.405 129.658 143.232 134.749 153.56 144.504C167.788 157.942 170.853 161.19 168.543 160.383C167.664 160.074 140.925 133.768 132.392 124.814C129.456 121.733 126.876 119.213 126.661 119.213C126.445 119.213 125.407 118.209 124.353 116.984C123.298 115.759 121.952 114.917 121.363 115.114C120.261 115.481 122.37 118.08 131.209 127.243C135.094 131.271 135.521 132.046 134.636 133.463C133.614 135.1 136.608 140.405 139.581 142.228C140.187 142.599 140.682 143.452 140.682 144.125C140.682 144.797 141.074 145.347 141.553 145.347C142.574 145.347 148.27 150.877 148.27 151.868C148.27 152.238 151.683 156.134 155.857 160.522C163.658 168.728 164.239 169.724 162.33 171.633C161.718 172.246 161.138 173.027 161.041 173.369C160.432 175.52 155.213 185.616 154.171 186.658C153.489 187.341 150.936 191.905 149.458 195.089C148.705 196.712 147.56 198.343 146.914 198.714C146.269 199.084 145.741 199.885 145.741 200.492C145.741 201.612 140.898 211.176 139.939 211.95C139.33 212.443 137.232 216.033 134.766 220.803C133.807 222.657 132.087 225.692 130.943 227.547C129.8 229.401 128.405 231.962 127.844 233.238C127.283 234.513 126.504 235.557 126.115 235.557C125.726 235.557 125.617 235.896 125.874 236.311C126.131 236.726 125.809 237.27 125.159 237.518C124.511 237.767 123.724 239.135 123.412 240.557C123.1 241.98 122.565 243.144 122.224 243.144C121.883 243.144 120.966 244.377 120.187 245.884C119.409 247.391 117.641 250.52 116.261 252.839C114.879 255.158 113.165 258.288 112.45 259.794C111.736 261.301 110.868 262.534 110.52 262.534C109.883 262.534 108.756 264.389 106.808 268.647C106.224 269.922 105.26 270.965 104.666 270.965C104.073 270.965 103.587 271.672 103.587 272.538C103.587 273.403 102.801 275.11 101.84 276.331C100.879 277.554 100.404 278.565 100.786 278.578C101.167 278.592 100.815 278.991 100.004 279.463C99.1928 279.936 98.5282 280.706 98.5282 281.174C98.5282 281.641 98.9077 281.79 99.3712 281.504C100.801 280.62 102.107 281.925 101.057 283.189C100.417 283.961 100.405 284.472 101.016 284.85C101.502 285.151 101.901 284.794 101.901 284.056C101.901 283.319 102.435 282.51 103.089 282.259C103.743 282.008 104.491 280.951 104.753 279.912C105.014 278.871 105.997 277.134 106.936 276.049C107.877 274.966 108.646 273.568 108.646 272.944C108.646 272.319 109.132 271.809 109.726 271.809C110.32 271.809 111.32 270.069 111.947 267.944C112.574 265.819 113.583 263.89 114.187 263.659C114.792 263.427 115.523 262.161 115.811 260.848C116.099 259.535 116.808 258.278 117.384 258.058C117.961 257.837 118.947 256.097 119.576 254.193C120.204 252.289 121.032 250.732 121.415 250.732C121.798 250.732 122.693 249.498 123.403 247.992C125.333 243.893 127.509 240.271 128.457 239.574C128.921 239.233 128.997 238.949 128.625 238.941C128.254 238.934 128.963 237.6 130.201 235.978C131.438 234.355 132.122 233.021 131.719 233.014C131.317 233.007 131.367 232.722 131.831 232.381C132.296 232.041 133.244 230.624 133.939 229.233C134.634 227.842 135.506 226.324 135.879 225.86C136.746 224.782 139.257 220.12 141.443 215.533C142.383 213.563 143.499 211.95 143.925 211.95C144.672 211.95 146.019 208.822 145.832 207.524C145.782 207.176 146.12 206.892 146.584 206.892C147.047 206.892 147.427 206.374 147.427 205.741C147.427 205.107 148.199 203.608 149.143 202.408C150.086 201.208 151.281 199.014 151.798 197.531C152.315 196.049 153.44 194.133 154.297 193.275C155.155 192.418 155.857 191.148 155.857 190.451C155.857 189.756 156.161 189.187 156.531 189.187C156.901 189.187 157.685 187.859 158.271 186.237C158.859 184.613 159.716 183.286 160.176 183.286C160.638 183.286 160.781 182.907 160.495 182.442C160.207 181.979 160.375 181.599 160.866 181.599C161.357 181.599 161.759 181.165 161.759 180.634C161.759 179.002 166.33 172.329 167.449 172.327C168.029 172.327 168.504 172.802 168.504 173.383C168.504 173.965 170.396 176.336 172.709 178.652C179.721 185.674 180.019 186.365 177.205 189.062C174.992 191.184 173.003 194.513 172.905 196.259C172.882 196.671 172.46 197.256 171.969 197.561C169.411 199.141 169.411 219.701 171.969 221.281C172.46 221.586 172.735 222.054 172.58 222.323C171.552 224.101 190.015 242.301 192.846 242.301C193.347 242.301 194.42 243.344 195.232 244.619C196.043 245.894 196.943 247.127 197.233 247.359C197.521 247.591 198.008 248.349 198.314 249.045C198.62 249.741 198.668 248.985 198.42 247.363C197.99 244.544 194.831 240.614 192.997 240.614C192.516 240.614 191.649 239.855 191.071 238.928C190.492 238.001 189.629 237.242 189.155 237.242C187.757 237.242 176.934 227.102 176.934 225.793C176.934 225.135 176.555 224.596 176.091 224.596C175.628 224.596 175.248 224.027 175.248 223.332C175.248 222.636 174.918 222.067 174.514 222.067C172.801 222.067 170.276 204.929 171.846 203.959C172.204 203.738 172.741 202.031 173.04 200.166C173.556 196.94 174.292 196.1 175.522 197.33C175.827 197.634 175.622 198.432 175.067 199.101C173.136 201.427 172.556 216.709 174.354 217.821C174.926 218.173 175.324 218.609 175.242 218.789C174.361 220.71 186.77 235.557 189.257 235.557C189.799 235.557 190.481 236.179 190.775 236.941C191.067 237.704 191.558 238.074 191.867 237.765C192.592 237.04 199.697 243.993 199.697 245.426C199.697 246.026 200.101 246.516 200.597 246.516C201.139 246.516 201.264 247.25 200.911 248.36C200.415 249.924 200.85 249.755 203.797 247.232C207.03 244.464 213.186 242.795 213.186 244.686C213.186 245.042 214.555 245.83 216.227 246.434C219.273 247.535 225.22 252.989 227.427 256.704C234.745 269.023 235.373 274.906 229.9 279.851C228.123 281.456 227.065 282.768 227.549 282.768C228.945 282.768 235.106 289.243 235.106 290.711C235.106 291.443 235.507 292.041 235.999 292.041C236.49 292.041 236.657 292.421 236.371 292.884C235.441 294.389 234.622 293.786 233.544 290.802C232.961 289.193 231.367 287.08 230.002 286.108C226.973 283.952 226.722 285.098 229.626 287.827C230.785 288.915 231.733 290.309 231.733 290.925C231.733 291.539 232.135 292.041 232.626 292.041C233.117 292.041 233.285 292.421 232.998 292.884C232.711 293.349 232.849 293.729 233.303 293.729C233.992 293.729 235.305 297.434 235.48 299.871C235.506 300.236 235.972 300.808 236.515 301.145C237.057 301.48 237.762 302.794 238.081 304.064C238.4 305.334 238.981 306.374 239.373 306.374C239.765 306.374 240.717 307.705 241.49 309.333C242.88 312.264 248.394 317.334 250.192 317.334C250.705 317.334 251.124 317.708 251.124 318.166C251.124 318.987 256.565 321.808 258.387 321.932C258.904 321.967 259.947 322.511 260.706 323.141C261.868 324.105 262.086 324.104 262.097 323.128C262.108 322.185 262.252 322.194 262.875 323.18C263.942 324.866 278.573 325.098 281.288 323.472C282.344 322.839 283.578 322.55 284.027 322.829C284.478 323.108 284.848 322.976 284.848 322.536C284.848 322.097 286.13 321.497 287.698 321.202C289.267 320.908 292.111 319.536 294.021 318.152C295.931 316.769 297.493 315.844 297.493 316.097C297.493 317.702 318.544 296.578 318.594 294.921C318.606 294.498 319.744 292.66 321.122 290.838C322.5 289.016 323.629 287.025 323.629 286.411C323.629 285.799 323.947 285.297 324.336 285.297C324.726 285.297 325.553 283.685 326.174 281.714C326.796 279.744 327.613 277.717 327.989 277.211C328.365 276.704 328.402 276.02 328.072 275.689C327.741 275.359 328.006 274.759 328.659 274.355C330.545 273.189 330.405 257.094 328.476 253.342C327.665 251.763 327 250.035 327 249.501C327 248.317 323.936 244.096 319.948 239.785C318.318 238.022 317.214 236.349 317.496 236.068C317.778 235.787 317.233 235.557 316.284 235.557C315.337 235.557 314.089 234.987 313.511 234.291C312.934 233.596 311.966 233.027 311.36 233.027C310.755 233.027 309.759 232.539 309.145 231.943C308.533 231.346 306.419 230.383 304.449 229.801C302.478 229.22 300.866 228.456 300.866 228.104C300.866 227.752 299.499 226.97 297.829 226.366C296.159 225.763 294.042 224.517 293.123 223.597C292.203 222.678 291.198 222.182 290.889 222.494C289.775 223.618 299.773 230.227 301.919 229.784C302.268 229.713 302.552 229.973 302.552 230.363C302.552 230.752 304.089 231.578 305.967 232.197C309.356 233.316 310.728 234.406 309.851 235.283C308.225 236.908 287.509 223.899 288.687 221.991C288.909 221.633 288.704 221.102 288.233 220.811C287.762 220.52 287.376 220.69 287.376 221.19C287.376 221.721 286.56 221.895 285.417 221.607C283.388 221.098 280.668 223.228 281.845 224.404C282.181 224.74 282.995 224.277 283.655 223.376C284.514 222.201 285.112 221.995 285.764 222.647C288.654 225.537 274.952 227.72 269.094 225.303C267.789 224.764 266.437 224.385 266.089 224.46C265.741 224.535 265.457 224.217 265.457 223.753C265.457 223.29 264.885 222.91 264.188 222.91C262.257 222.91 252.765 213.611 251.278 210.264C248.853 204.806 250.264 197.932 254.114 196.455C256.351 195.596 255.382 194.246 252.531 194.246C250.079 194.246 249.275 193.628 246.214 189.398C244.285 186.732 242.325 184.092 241.857 183.532C241.39 182.972 241.008 182.302 241.008 182.043C241.008 181.786 239.3 179.818 237.214 177.671C235.127 175.524 233.42 174.04 233.42 174.372C233.42 174.705 232.421 174.191 231.198 173.23C229.977 172.269 228.459 171.483 227.826 171.483C227.194 171.483 226.676 171.151 226.676 170.746C226.676 168.562 208.857 168.045 204.723 170.108C202.709 171.113 200.121 170.577 201.509 169.444C205.858 165.892 230.89 167.712 230.89 171.578C230.89 171.99 231.595 172.326 232.455 172.326C233.958 172.326 240.916 179.158 243.537 183.208C245.945 186.931 249.501 191.181 251.206 192.375C254.405 194.616 253.73 192.794 249.901 188.854C247.804 186.694 245.473 183.705 244.722 182.21C236.622 166.078 212.554 159.656 197.266 169.547C191.646 173.184 190.368 174.573 191.038 176.32C191.468 177.439 191.665 177.453 192.456 176.414C195.091 172.952 201.383 169.475 201.383 171.483C201.383 171.946 200.978 172.326 200.484 172.326C199.121 172.326 193.794 176.608 193.804 177.695C193.811 178.564 224.354 208.578 225.229 208.578C225.436 208.578 230.183 213.13 235.776 218.694C241.37 224.259 246.28 228.812 246.688 228.812C247.096 228.812 250.054 231.632 253.263 235.078C257.541 239.671 259.374 241.115 260.132 240.485C261.6 239.267 263.091 240.455 262.487 242.36C261.638 245.035 273.451 256.067 275.701 254.702C277.387 253.68 283.681 259.325 282.673 260.955C282.472 261.281 282.595 261.674 282.945 261.83C283.296 261.985 285.003 264.286 286.74 266.942C288.477 269.598 292.029 273.771 294.631 276.215C297.235 278.66 300.268 281.989 301.371 283.611C302.474 285.234 304.002 287.426 304.768 288.481C305.534 289.538 305.973 290.587 305.745 290.816C305.518 291.043 304.328 289.782 303.103 288.013C301.877 286.244 297.931 281.768 294.336 278.066C290.74 274.364 286.849 269.743 285.691 267.8C284.226 265.345 283.004 264.259 281.686 264.244C280.049 264.223 279.789 263.772 279.789 260.952C279.789 254.619 277.943 254.809 271.063 261.846C267.678 265.309 264.273 268.387 263.496 268.685C261.646 269.393 261.702 271.201 263.626 272.942C265.348 274.5 267.142 274.782 267.142 273.495C267.142 271.628 268.902 272.806 269.349 274.97C269.721 276.782 270.835 277.748 274.444 279.396C277.332 280.714 282.222 284.424 287.499 289.301C292.14 293.591 296.477 297.1 297.136 297.1C297.796 297.1 298.336 297.457 298.336 297.893C298.336 299.713 296.753 299.398 293.844 296.999C292.141 295.596 290.746 294.76 290.743 295.142C290.739 295.523 288.558 293.515 285.895 290.677C279.757 284.139 268.949 276.99 266.089 277.58C265.741 277.651 265.457 277.33 265.457 276.866C265.457 276.403 265.117 276.023 264.702 276.023C263.564 276.023 258.712 271.271 258.712 270.156C258.712 269.618 259.133 269.44 259.649 269.759C263.517 272.149 260.787 267.362 255.158 261.884C250.26 257.117 248.324 255.708 247.813 256.534C247.307 257.353 246.957 257.393 246.52 256.686C245.776 255.482 247.429 252.898 251.426 249.016L254.495 246.036L225.62 217.38C209.74 201.62 190.865 182.911 183.679 175.807C176.491 168.701 171.08 163.019 171.655 163.181C172.229 163.342 181.924 172.673 193.199 183.918C204.474 195.162 214.153 204.362 214.707 204.362C215.262 204.362 215.719 204.837 215.723 205.416C215.728 205.996 216.92 207.411 218.376 208.56C219.83 209.709 228.727 218.4 238.146 227.871C252.828 242.635 255.457 244.939 256.57 244.014C258.869 242.107 260.876 244.286 226.197 211.054C219.211 204.36 208.832 194.519 203.134 189.187C186.41 173.539 172.993 160.211 175.037 161.278C176.08 161.823 176.934 162.621 176.934 163.052C176.934 163.483 177.693 164.242 178.62 164.738C181.147 166.09 180.682 165.236 176.846 161.476L173.384 158.082L175.159 155.59C176.136 154.218 176.934 152.68 176.934 152.172C176.934 151.665 177.335 151.249 177.827 151.249C178.318 151.249 178.485 150.869 178.199 150.406C177.912 149.942 178.049 149.563 178.503 149.563C178.957 149.563 179.579 148.425 179.884 147.034C180.19 145.643 180.98 144.504 181.637 144.504C182.296 144.504 182.836 144.018 182.836 143.423C182.836 142.827 184.15 139.887 185.757 136.888C187.364 133.89 189.356 130.109 190.183 128.486C191.011 126.863 191.878 125.346 192.109 125.114C192.341 124.881 193.286 123.175 194.209 121.32C195.132 119.465 196.101 117.758 196.365 117.527C196.627 117.294 197.368 115.777 198.011 114.154C198.654 112.532 199.391 111.014 199.649 110.782C200.983 109.584 206.798 98.0868 206.579 97.0815C206.504 96.7338 206.76 96.4498 207.149 96.4498C207.539 96.4498 208.358 94.9321 208.97 93.0769C209.583 91.2229 210.402 89.7052 210.792 89.7052C211.181 89.7052 211.5 89.136 211.5 88.4407C211.5 87.7443 211.88 87.1752 212.343 87.1752C212.807 87.1752 213.186 86.6333 213.186 85.971C213.186 85.3087 213.66 84.2658 214.239 83.6523C214.82 83.04 215.294 81.9699 215.294 81.2746C215.294 80.5782 216.147 79.8886 217.191 79.7398C218.467 79.5592 219.088 79.9034 219.088 80.7941C219.088 82.6674 222.169 82.4538 224.34 80.4305C225.449 79.399 225.721 78.7447 225.044 78.7447C224.28 78.7447 224.196 78.4209 224.769 77.6915C225.983 76.1499 226.836 72 225.938 72C225.516 72 224.965 72.5351 224.714 73.1883ZM104.965 98.5651C104.697 99.2649 104.181 99.7886 103.821 99.7296C101.883 99.4115 101.805 100.032 103.548 101.888C104.79 103.21 105.597 105.262 105.786 107.58C105.969 109.81 105.806 110.764 105.362 110.06C104.859 109.262 104.466 109.198 104.064 109.848C103.747 110.362 103.889 110.782 104.38 110.782C104.871 110.782 105.273 111.329 105.273 111.996C105.273 112.664 105.693 113.471 106.207 113.788C106.835 114.177 106.954 113.779 106.571 112.574C105.799 110.139 107.636 110.235 108.619 112.678C109.039 113.722 109.406 114.08 109.435 113.473C109.477 112.602 109.851 112.626 111.228 113.59C112.847 114.724 113.23 114.531 116.708 110.812C120.316 106.955 121.511 104.967 119.462 106.233C118.803 106.64 118.651 106.387 119.002 105.471C119.629 103.837 116.005 100.665 113.513 100.665C112.605 100.665 110.897 99.9056 109.718 98.9786C107.161 96.9667 105.63 96.8338 104.965 98.5651ZM116.233 99.7852C116.233 100.236 116.991 101.011 117.919 101.507C118.846 102.004 119.605 102.108 119.605 101.74C119.605 101.372 118.846 100.596 117.919 100.017C116.985 99.4342 116.233 99.3308 116.233 99.7852ZM133.937 102.272C133.937 102.692 133.231 102.851 132.367 102.625C130.687 102.187 129.201 104.459 130.602 105.325C131.045 105.598 131.409 106.686 131.409 107.74C131.409 110.231 132.236 111.001 133.649 109.828C134.482 109.137 134.78 109.139 134.78 109.836C134.78 110.356 135.539 110.782 136.466 110.782C138.497 110.782 138.847 105.445 136.979 102.983C135.794 101.421 133.937 100.987 133.937 102.272ZM118.236 110.992C114.073 115.744 114.089 115.55 117.58 119.414C120.397 122.533 120.608 123.033 119.216 123.301C116.932 123.742 115.311 125.613 115.895 127.134C116.344 128.304 116.124 128.303 113.752 127.119C109.448 124.972 106.471 129.664 109.309 134.125C111.22 137.131 117.077 134.198 115.802 130.874C115.054 128.926 121.062 123.874 122.603 125.153C123.273 125.708 123.821 126.578 123.821 127.084C123.821 127.591 124.583 128.777 125.515 129.721C126.448 130.665 127.94 132.385 128.833 133.545C130.282 135.426 130.595 135.516 131.751 134.382C133.063 133.095 132.717 128.942 131.368 129.775C130.986 130.012 129.607 128.778 128.302 127.034C126.996 125.292 124.258 122.314 122.218 120.418C118.263 116.745 117.492 111.731 121.089 113.077C122.796 113.715 131.135 120.739 135.647 125.34C138.927 128.684 142.65 128.079 139.815 124.663C138.945 123.615 138.952 122.977 139.854 121.293C141.105 118.956 140.58 117.904 138.552 118.682C137.617 119.041 137.368 119.753 137.753 120.967C138.487 123.28 136.271 122.167 132.725 118.442C131.364 117.011 129.773 115.84 129.191 115.84C128.608 115.84 127.635 115.176 127.026 114.365C126.018 113.019 120.941 109.095 120.207 109.095C120.038 109.095 119.151 109.949 118.236 110.992ZM128.362 111.427C127.845 111.767 127.677 112.757 127.987 113.623C128.501 115.063 128.678 115.008 129.999 112.992C131.446 110.783 130.585 109.96 128.362 111.427ZM140.78 111.928C140.055 112.801 140.025 113.327 140.675 113.728C141.181 114.04 141.373 114.991 141.104 115.84C140.538 117.623 141.142 118.13 144.547 118.726C148.181 119.364 149.008 118.467 148.376 114.575C147.766 110.822 143.06 109.181 140.78 111.928ZM169.771 157.006C169.31 157.468 141.525 130.808 141.525 129.906C141.525 129.519 147.958 135.381 155.821 142.932C163.683 150.483 169.961 156.817 169.771 157.006ZM166.511 163.64C166.038 164.112 157.589 155.818 144.426 141.962C131.82 128.691 136.172 132.167 151.637 147.72C160.08 156.213 166.773 163.377 166.511 163.64ZM124.197 134.462C123.885 134.965 123.989 135.736 124.428 136.175C125.569 137.317 128.018 136.162 127.471 134.739C126.928 133.326 125 133.161 124.197 134.462ZM144.547 144.033C160.493 160.825 165.075 165.919 164.63 166.364C164.383 166.61 161.265 163.608 157.701 159.691C154.136 155.775 149.039 150.376 146.372 147.694C143.706 145.012 141.525 142.599 141.525 142.331C141.525 142.063 139.977 140.355 138.084 138.537C136.191 136.719 134.991 135.231 135.415 135.231C135.84 135.231 139.95 139.192 144.547 144.033ZM116.323 137.878C114.793 141.842 120.353 147.358 122.771 144.275C123.869 142.876 124.758 137.919 123.997 137.447C121.257 135.754 117.051 135.99 116.323 137.878ZM214.318 211.368C228.619 225.831 242.437 240.13 245.025 243.144C247.613 246.158 240.275 239.14 228.718 227.547C188.175 186.88 169.347 167.503 169.347 166.448C169.347 165.863 173.615 169.814 178.831 175.228C184.047 180.643 200.016 196.905 214.318 211.368ZM180.306 166.395C180.306 166.842 181.142 167.656 182.163 168.202C183.185 168.748 185.276 170.527 186.811 172.155C188.346 173.782 189.827 174.889 190.103 174.614C190.72 173.996 182.416 165.581 181.19 165.581C180.704 165.581 180.306 165.947 180.306 166.395ZM182.372 184.063C187.914 189.896 196.356 198.698 201.131 203.625C205.907 208.552 209.813 212.785 209.813 213.032C209.813 213.28 214.366 218.164 219.929 223.887C225.492 229.609 230.044 234.532 230.045 234.826C230.046 235.119 231.47 236.68 233.209 238.294C239.304 243.952 246.387 251.535 245.969 251.953C245.542 252.38 230.52 236.737 188.973 192.6C183.974 187.29 177.168 180.086 173.846 176.592C170.526 173.097 167.99 169.945 168.212 169.587C168.433 169.228 169.443 169.953 170.455 171.197C171.469 172.442 176.831 178.231 182.372 184.063ZM179.104 191.982C177.91 193.546 176.934 195.265 176.934 195.801C176.934 196.336 176.555 196.774 176.091 196.774C174.211 196.774 175.29 194.289 179.247 189.504C181.62 186.633 181.492 188.851 179.104 191.982ZM257.026 195.089C257.026 196.016 256.595 196.774 256.071 196.774C252.491 196.774 250.748 204.871 253.111 210.525C254.363 213.522 262.406 221.224 264.283 221.224C264.928 221.224 265.457 221.666 265.457 222.207C265.457 222.749 265.696 222.951 265.988 222.659C266.281 222.366 267.314 222.682 268.284 223.361C270.173 224.685 272.206 224.998 272.194 223.964C272.186 223.207 268.104 221.224 266.553 221.224C265.95 221.224 265.457 220.845 265.457 220.381C265.457 219.917 264.956 219.537 264.343 219.537C257.004 219.537 250.172 202.049 256.177 198.633C258.603 197.253 259.848 193.403 257.869 193.403C257.405 193.403 257.026 194.162 257.026 195.089ZM146.794 215.037C145.6 215.519 145.344 217.851 146.485 217.851C146.895 217.851 147.428 217.093 147.671 216.166C147.913 215.239 148.053 214.509 147.98 214.546C147.907 214.583 147.373 214.803 146.794 215.037ZM257.455 222.924C257.747 223.395 258.338 223.562 258.77 223.295C259.202 223.028 259.555 223.212 259.555 223.703C259.555 224.194 260.083 224.596 260.73 224.596C261.375 224.596 262.12 225.158 262.384 225.847C262.647 226.534 263.361 226.907 263.968 226.673C264.586 226.435 265.718 227.341 266.537 228.728C267.342 230.091 269.1 231.693 270.442 232.287C271.783 232.88 273.509 234.428 274.274 235.726C275.041 237.023 276.207 238.085 276.865 238.085C277.524 238.085 279.263 238.816 280.732 239.709L283.401 241.333L280.541 241.607C277.533 241.897 274.766 240.907 273.635 239.14C273.263 238.559 272.558 238.085 272.065 238.085C271.008 238.085 262.996 231.592 261.396 229.439C258.889 226.065 250.703 223.002 250.703 225.439C250.703 226.135 251.357 226.708 252.157 226.714C254.133 226.726 256.351 229.079 255.782 230.559C255.071 232.411 251.274 232.297 250.673 230.407C250.395 229.53 249.813 228.812 249.382 228.812C248.08 228.812 248.496 225.26 249.991 223.609C251.495 221.947 256.565 221.481 257.455 222.924ZM273.887 223.779C273.887 224.866 276.289 225.848 277.061 225.077C277.375 224.762 277.074 224.152 276.392 223.72C274.76 222.689 273.887 222.709 273.887 223.779ZM286.99 232.24C288.318 234.39 287.679 238.943 285.803 240.69L283.897 242.467L284.466 239.433C284.912 237.054 284.764 236.4 283.78 236.4C282.035 236.4 280.343 234.151 280.933 232.616C281.495 231.151 286.138 230.862 286.99 232.24ZM315.147 237.951C318.787 240.588 323.235 245.505 322.577 246.163C322.347 246.393 320.006 244.48 317.376 241.912C314.745 239.343 312.231 237.242 311.788 237.242C311.345 237.242 310.982 236.863 310.982 236.4C310.982 235.131 311.539 235.337 315.147 237.951ZM230.469 246.857C230.469 249.698 230.963 251.058 232.576 252.655C237.633 257.659 240.833 261.5 241.378 263.216C241.7 264.232 242.437 265.064 243.014 265.064C243.592 265.064 244.586 266.391 245.223 268.014C245.86 269.638 246.689 270.965 247.066 270.965C248.706 270.965 247.711 277.667 245.759 279.773C243.768 281.922 237.635 282.954 237.635 281.142C237.635 280.712 237.108 279.831 236.463 279.187C235.462 278.185 235.517 277.715 236.849 275.965C238.741 273.477 241.419 274.55 241.445 277.806C241.459 279.634 241.92 279.909 244.324 279.522C246.745 279.133 245.515 274.548 241.658 269.581C239.445 266.733 237.635 264.027 237.635 263.567C237.635 263.108 236.881 262.534 235.959 262.293C235.037 262.051 233.905 260.86 233.443 259.644C232.981 258.427 232.05 257.221 231.377 256.963C230.702 256.704 229.908 255.386 229.61 254.033C229.314 252.681 228.802 251.575 228.474 251.575C227.199 251.575 227.524 246.221 228.891 244.711C229.671 243.848 230.345 243.144 230.389 243.144C230.433 243.144 230.469 244.814 230.469 246.857ZM236.082 244.619C237.684 246.527 237.576 248.212 235.779 249.345C233.98 250.48 233.445 249.944 232.592 246.161C231.815 242.718 233.765 241.857 236.082 244.619ZM258.323 245.123C256.828 246.216 256.841 246.332 258.654 248.144C260.959 250.449 260.243 251.616 257.853 249.453C256.174 247.933 256.073 247.967 252.778 251.184L249.417 254.467L255.941 261.03C262.568 267.695 264.26 268.652 265.179 266.256C265.53 265.341 263.74 262.954 259.508 258.693C256.106 255.269 253.525 252.265 253.772 252.018C254.019 251.771 257.118 254.503 260.658 258.089C266.766 264.278 267.155 264.527 268.289 262.975C269.835 260.861 269.391 259.856 264.931 255.396C262.902 253.367 261.241 251.453 261.241 251.142C261.241 250.831 262.914 252.223 264.959 254.238C271.278 260.459 272.934 261.108 273.032 257.407C273.044 256.911 260.631 243.987 260.141 243.987C259.996 243.987 259.178 244.498 258.323 245.123ZM204.602 248.27C203.063 249.585 201.141 250.678 200.33 250.698C198.564 250.739 198.349 253.12 200.051 253.773C200.743 254.039 202.743 252.782 204.79 250.795C208.18 247.505 213.186 245.959 213.186 248.202C213.186 248.666 213.704 249.045 214.337 249.045C214.97 249.045 216.474 249.821 217.679 250.769C218.885 251.718 220.17 252.423 220.533 252.339C220.898 252.254 221.581 252.902 222.051 253.776C222.522 254.652 223.973 256.948 225.277 258.878C226.58 260.81 227.729 262.952 227.83 263.642C227.931 264.33 228.515 265.498 229.128 266.236C230.911 268.384 230.663 275.626 228.733 277.8C227.644 279.026 227.499 279.513 228.301 279.258C228.964 279.046 229.774 278.327 230.101 277.659C232.736 272.277 232.85 271.786 231.893 269.911C231.361 268.867 230.743 266.919 230.521 265.581C230.049 262.729 226.089 256.618 222.038 252.485C219.483 249.879 215.048 246.62 214.628 247.041C214.36 247.309 213.642 247.212 213.032 246.827C210.669 245.334 207.373 245.899 204.602 248.27ZM324.932 248.835C325.285 249.646 325.647 250.69 325.737 251.153C325.827 251.617 325.988 252.186 326.094 252.418C327.476 255.439 327.892 271.19 326.661 273.916C326.241 274.843 325.856 275.981 325.804 276.445C325.627 278.032 319.835 289.48 319.203 289.496C318.001 289.527 318.582 287.733 321.562 282.211C323.208 279.163 324.35 276.464 324.099 276.213C323.848 275.962 324.061 275.253 324.573 274.636C325.085 274.021 325.293 272.966 325.035 272.295C324.777 271.623 324.89 270.954 325.284 270.809C327.325 270.055 326.348 256.276 323.925 251.63C323.304 250.441 322.794 248.992 322.79 248.413C322.783 246.856 324.193 247.134 324.932 248.835ZM278.399 267.794C277.884 268.629 277.119 268.588 275.628 267.644C274.621 267.007 274.604 266.653 275.528 265.54C276.695 264.134 279.366 266.23 278.399 267.794ZM274.62 269.567C275.905 271.116 274.77 272.042 273.175 270.748C272.093 269.869 271.975 269.939 272.439 271.176C272.808 272.162 272.581 272.652 271.752 272.652C270.257 272.652 270.13 270.844 271.526 269.448C272.826 268.148 273.462 268.172 274.62 269.567ZM96.8424 283.611C96.1732 284.024 95.9063 284.643 96.2482 284.984C96.5902 285.326 97.3127 285.164 97.8534 284.623C99.1281 283.349 98.4169 282.639 96.8424 283.611ZM224.304 283.664C224.507 284.272 225.17 284.937 225.779 285.139C226.412 285.35 226.728 285.034 226.517 284.402C226.314 283.793 225.65 283.129 225.042 282.926C224.409 282.716 224.093 283.032 224.304 283.664ZM94.3135 288.248C93.8728 289.407 93.123 290.356 92.6481 290.356C92.1721 290.356 91.7836 290.903 91.7836 291.572C91.7836 292.241 91.1145 293.285 90.2954 293.891C87.6416 295.855 86.4317 299.629 88.4561 299.629C89.3877 299.629 90.3772 300.221 90.6544 300.942C91.1803 302.314 91.7609 301.602 94.4726 296.257C95.0611 295.099 96.0244 293.847 96.614 293.475C97.2036 293.105 97.6853 292.404 97.6853 291.92C97.6853 291.435 98.4703 289.935 99.4291 288.589C101.199 286.102 100.446 285.096 98.5362 287.396C97.4479 288.707 95.612 288.291 96.4572 286.925C96.7231 286.493 96.5311 286.141 96.0278 286.141C95.5257 286.141 94.7543 287.088 94.3135 288.248ZM318.57 291.095C318.57 291.503 318.001 292.307 317.305 292.884C316.61 293.463 316.041 294.264 316.041 294.665C316.041 296.391 302.758 310.562 301.124 310.579C300.57 310.585 299.527 311.433 298.806 312.463C298.084 313.493 297.493 314.043 297.493 313.685C297.493 313.326 296.121 314.079 294.443 315.36C292.766 316.639 290.963 317.77 290.438 317.873C288.954 318.164 283.631 320.236 283.161 320.706C281.888 321.978 264.288 322.376 261.662 321.191C260.735 320.773 259.787 320.37 259.555 320.296C256.558 319.339 251.967 316.982 251.967 316.399C251.967 315.986 251.508 315.648 250.948 315.648C247.979 315.648 235.97 298.937 235.954 294.782C235.943 292.414 237.374 294.083 240.164 299.697C245.263 309.955 245.62 310.552 246.656 310.571C247.213 310.582 248.002 311.186 248.41 311.917C248.819 312.646 250.071 313.774 251.192 314.423C253.685 315.865 258.902 318.438 259.766 318.653C260.114 318.738 260.683 318.902 261.031 319.014C261.378 319.128 261.987 319.162 262.384 319.091C262.78 319.019 263.664 319.425 264.347 319.991C265.897 321.279 279.07 321.026 279.893 319.695C280.206 319.188 281.023 318.989 281.709 319.253C282.395 319.517 283.287 319.404 283.69 319.004C284.094 318.605 285.533 318.079 286.887 317.836C288.24 317.593 289.656 316.906 290.035 316.311C290.413 315.714 290.729 315.526 290.736 315.891C290.742 316.258 291.223 316.17 291.802 315.697C292.382 315.223 295.322 312.955 298.336 310.654C305.667 305.062 310.553 300.054 314.645 293.939C316.88 290.598 318.57 289.374 318.57 291.095ZM307.974 294.222C309.165 298.963 306.311 301.781 301.275 300.837C299.659 300.533 298.336 299.988 298.336 299.626C298.336 298.584 300.758 297.931 301.31 298.824C302.097 300.097 305.608 299.762 306.824 298.297C307.691 297.251 307.714 296.616 306.927 295.358C305.737 293.452 305.63 292.041 306.675 292.041C307.089 292.041 307.673 293.023 307.974 294.222ZM85.0389 301.738C85.0389 302.433 84.7174 303.002 84.3244 303.002C83.7666 303.002 81.098 308.257 80.4709 310.59C80.4084 310.821 79.2485 313.288 77.8921 316.07C76.5357 318.852 75.503 321.413 75.5962 321.76C75.6893 322.108 75.386 322.392 74.9225 322.392C74.459 322.392 74.0796 322.935 74.0796 323.598C74.0796 324.262 73.2298 324.925 72.1915 325.074C69.9387 325.396 69.1639 328.079 71.1088 328.824C72.6993 329.435 75.7916 326.824 77.5081 323.42C78.1443 322.159 79.7098 319.759 80.9867 318.084C82.2636 316.411 83.1667 314.893 82.9941 314.712C82.8214 314.532 83.2826 313.826 84.0199 313.147C85.2082 312.049 85.2968 312.073 84.8049 313.357C84.4027 314.406 84.6811 314.804 85.8183 314.804C87.4553 314.804 88.7629 316.926 87.9426 318.253C87.261 319.358 84.7106 319.197 83.4871 317.974C82.6532 317.14 82.2784 317.183 81.6444 318.184C80.3721 320.197 80.6947 321.674 82.5101 322.148C83.4371 322.391 84.196 322.925 84.196 323.334C84.196 325.007 87.4098 323.983 87.8665 322.165C88.1301 321.113 89.1389 319.401 90.1079 318.36C91.077 317.321 91.6382 316.095 91.3553 315.637C91.0724 315.179 91.4553 314.804 92.2051 314.804C92.9912 314.804 93.3241 314.408 92.9901 313.867C92.672 313.352 92.7878 312.688 93.2479 312.392C93.7092 312.096 94.3522 311.001 94.6782 309.957C95.4212 307.573 93.8784 307.428 92.4311 309.747C91.8517 310.674 90.7112 311.433 89.8944 311.433C87.9074 311.433 87.7438 305.124 89.7126 304.369C90.7362 303.977 90.8202 303.508 90.1045 302.172C89.0242 300.154 85.0389 299.812 85.0389 301.738ZM312.773 304.541C311.725 306.013 311.214 307.217 311.638 307.217C312.894 307.217 315.399 304.028 315.024 302.904C314.823 302.301 313.88 302.986 312.773 304.541ZM315.21 305.742C315.237 307.864 316.602 309.168 317.191 307.634C317.488 306.857 317.519 305.877 317.259 305.455C316.562 304.329 315.196 304.521 315.21 305.742Z" fill="#FFEE00"/>
</svg>
