<svg width="400" height="400" viewBox="0 0 400 400" fill="none" xmlns="http://www.w3.org/2000/svg">
<path fill-rule="evenodd" clip-rule="evenodd" d="M163.082 70.8384C163.082 71.2985 164.217 73.8655 165.605 76.5405L168.129 81.4042L164.936 81.9327C159.933 82.7604 156.076 82.5742 154.222 81.415C152.898 80.5886 151.987 80.5922 150.154 81.427C148.856 82.0192 144.313 82.7508 140.061 83.0547C118.984 84.5586 118.393 84.7832 122.748 89.6565C125.647 92.9021 129.825 93.9267 140.521 94.0156C144.046 94.0444 147.179 94.4697 147.482 94.9598C148.293 96.2715 150.279 96.0457 151.863 94.4625C152.773 93.552 153.722 93.3381 154.62 93.8414C156.133 94.6871 151.568 98.6463 137.154 108.99C127.007 116.27 126.765 116.597 129.74 118.937C131.051 119.968 132.97 120.843 134.008 120.882C135.045 120.92 135.383 121.157 134.76 121.408C132.353 122.376 131.049 126.453 132.378 128.853C133.051 130.068 133.615 131.765 133.633 132.623C133.65 133.481 134.066 134.183 134.556 134.183C135.704 134.183 135.691 132.739 134.524 130.559C133.696 129.01 133.913 128.835 136.658 128.835C138.622 128.835 139.907 129.338 140.255 130.244C141.083 132.401 140.946 132.568 138.879 131.911C137.392 131.439 137.077 131.607 137.481 132.659C138.731 135.916 134.891 137.158 132.773 134.183C130.176 130.536 129.363 131.444 131.757 135.318C133.675 138.422 133.013 140.801 130.5 139.837C129.694 139.528 129.485 139.956 129.819 141.234C130.133 142.431 129.798 143.268 128.863 143.628C128.072 143.932 127.424 144.676 127.424 145.283C127.424 147.299 124.324 149.446 123.133 148.256C122.539 147.661 122.076 147.588 122.076 148.089C122.076 148.579 122.551 149.456 123.131 150.035C124.908 151.813 123.099 152.406 121.185 150.674C118.725 148.448 118.09 149.441 120.392 151.912C123.372 155.111 121.514 155.249 117.619 152.119C115.657 150.543 114.054 149.656 114.054 150.149C114.054 150.641 115.457 152.165 117.173 153.534C118.89 154.902 120.293 156.551 120.293 157.198C120.293 158.363 119.748 158.04 112.939 152.842C111.59 151.814 110.487 151.362 110.487 151.841C110.487 152.32 112.474 154.227 114.903 156.079C119.557 159.628 120.295 162.318 115.722 159.062C114.258 158.019 112.785 157.44 112.449 157.775C112.114 158.111 112.438 158.729 113.169 159.148C117.67 161.733 117.733 161.903 116.056 166.899C114.652 171.079 114.289 171.482 112.36 171.003C110.881 170.635 110.416 170.787 110.852 171.493C111.199 172.055 112.062 172.514 112.768 172.514C113.475 172.514 114.054 172.915 114.054 173.405C114.054 173.896 113.664 174.297 113.19 174.297C112.714 174.297 112.518 174.799 112.754 175.411C113.059 176.207 111.968 176.526 108.95 176.526C103.752 176.526 103.054 178.201 106.415 182.607C109.12 186.154 109.221 186.742 107.144 186.883C106.287 186.941 106.787 187.244 108.259 187.557C111.611 188.27 112.616 191.969 109.667 192.74C108.647 193.007 107.813 193.606 107.813 194.072C107.813 194.539 108.616 194.666 109.596 194.354C111.668 193.696 112.085 195.476 110.041 196.261C109.306 196.543 108.705 197.12 108.705 197.541C108.705 197.964 109.306 198.079 110.041 197.797C112.038 197.031 111.656 199.046 109.596 200.149C108.616 200.674 107.813 201.504 107.813 201.994C107.813 202.555 108.504 202.515 109.675 201.888C111.251 201.045 111.491 201.129 111.235 202.43C111.069 203.279 107.571 205.834 103.418 208.138C98.7526 210.728 95.5442 213.13 94.9592 214.475C94.4403 215.666 93.1094 217.372 92.0007 218.264C89.6871 220.129 89.2931 224.317 91.2763 225.963C91.9862 226.551 93.0505 228.507 93.6403 230.305C95.2523 235.225 96.6409 236.935 101.32 239.754L105.584 242.324V250.26C105.584 259.072 107.115 261.594 112.493 261.637C114.687 261.655 114.945 261.978 114.945 264.709C114.945 270.999 118.498 273.467 127.042 273.109C133.932 272.819 134.327 272.9 133.505 274.436C133.023 275.337 132.846 276.291 133.113 276.557C133.38 276.824 134.075 275.995 134.658 274.716C136.602 270.447 142.721 271.582 141.154 275.921C140.888 276.656 140.494 278.461 140.279 279.932L139.888 282.605L141.145 279.933L142.403 277.26L143.02 281.38C143.481 284.442 144.017 285.472 145.114 285.39C148.496 285.139 146.741 299.929 143.016 303.09C139.598 305.988 137.521 313.449 139.029 317.413C144.252 331.151 217.577 334.811 241.267 322.517C249.161 318.42 249.985 309.755 243.087 303.361C239.178 299.738 238.279 295.396 239.941 288.166C240.398 286.172 240.373 284.205 239.877 283.32C239.278 282.249 239.566 281.124 240.903 279.315C242.344 277.367 242.523 276.56 241.699 275.736C241.114 275.151 240.636 273.548 240.636 272.177C240.636 269.799 241.362 269.263 244.068 269.634C244.73 269.725 245.007 269.372 244.684 268.848C243.638 267.156 245.119 265.92 246.677 267.186C247.887 268.168 248.019 268.121 247.55 266.872C247.227 266.007 247.893 264.191 249.167 262.465C250.359 260.849 251.333 260.007 251.333 260.592C251.333 261.178 251.714 261.658 252.178 261.658C252.693 261.658 252.661 260.619 252.098 259.002C251.589 257.541 251.36 255.837 251.592 255.213C251.985 254.153 252.466 255.029 254.876 261.212C255.354 262.437 256.135 263.44 256.611 263.44C257.087 263.44 256.478 261.184 255.258 258.426C252.087 251.258 253.175 250.299 256.649 257.2C259.948 263.75 260.063 263.921 260.735 263.249C261.004 262.981 259.8 260.174 258.061 257.01C256.321 253.846 254.899 250.99 254.899 250.663C254.899 249.076 256.439 250.439 258.269 253.641C259.386 255.599 260.709 257.2 261.208 257.2C261.708 257.2 260.87 255.39 259.347 253.176L256.578 249.152L258.481 246.479C259.527 245.01 260.75 244.034 261.197 244.31C261.644 244.586 261.769 244.186 261.475 243.419C261.072 242.369 261.33 242.175 262.523 242.633C263.547 243.026 263.895 242.9 263.511 242.278C262.605 240.812 263.882 238.316 265.266 238.847C265.937 239.105 266.487 238.961 266.487 238.526C266.487 238.093 265.986 237.535 265.374 237.288C264.618 236.983 264.69 236.825 265.596 236.799C266.331 236.778 267.936 237.333 269.162 238.035C271.799 239.541 272.727 239.673 272.727 238.538C272.727 238.079 271.323 237.196 269.608 236.575C266.652 235.508 265.387 234.023 267.431 234.023C267.95 234.023 268.128 233.622 267.824 233.132C267.521 232.641 267.649 232.24 268.106 232.24C268.564 232.24 269.167 231.102 269.445 229.711C269.939 227.24 270.069 227.188 275.127 227.459C278.923 227.662 279.71 227.529 278.076 226.957C276.85 226.529 274.744 226.138 273.397 226.089C271.075 226.005 270.129 224.826 271.638 223.894C272.657 223.265 281.986 226.589 282.361 227.714C282.538 228.241 284.277 228.674 286.225 228.674C288.361 228.674 289.551 228.321 289.219 227.783C288.915 227.291 289.553 226.891 290.641 226.891C301.35 226.891 314.504 183.381 306.761 173.577C305.718 172.257 304.04 169.395 303.033 167.217C300.247 161.193 290.827 146.154 285.009 138.441C280.433 132.375 279.945 131.345 280.916 129.792C281.893 128.227 281.545 127.583 277.818 124.062C275.508 121.881 273.619 119.724 273.619 119.267C273.619 118.812 272.516 117.871 271.167 117.18C269.819 116.488 265.196 112.728 260.894 108.825C241.538 91.2625 220.604 80.9778 199.185 78.5057C191.44 77.6132 184.175 76.1946 180.036 74.7676C174.187 72.752 164.634 70 163.484 70C163.263 70 163.082 70.3772 163.082 70.8384ZM178.749 76.7435C182.09 78 187.853 79.3393 191.557 79.7177L198.293 80.406L186.856 80.7736L175.419 81.1423L172.297 78.5658C169.941 76.621 169.466 75.8054 170.363 75.2372C172.007 74.1946 171.953 74.185 178.749 76.7435ZM204.756 81.3117C203.899 81.5363 202.494 81.5363 201.636 81.3117C200.778 81.0871 201.481 80.9033 203.196 80.9033C204.912 80.9033 205.614 81.0871 204.756 81.3117ZM202.75 83.3201C204.712 83.7261 205.692 84.1033 204.929 84.1598C204.166 84.2162 202.16 85.2949 200.472 86.5562C195.447 90.3087 193.902 90.9946 194.607 89.1568C195.016 88.0925 194.361 86.7988 192.522 85.0426L189.841 82.4805L194.512 82.5309C197.082 82.5598 200.789 82.9141 202.75 83.3201ZM176.454 83.7081C176.454 83.8931 175.852 84.5441 175.115 85.1544C174.021 86.0637 173.778 86.0024 173.778 84.818C173.778 84.0216 174.38 83.3718 175.115 83.3718C175.852 83.3718 176.454 83.5231 176.454 83.7081ZM148.343 87.1868C147.938 88.7976 146.983 89.5964 144.957 90.0168C135.414 92 123.261 91.4547 127.525 89.236C128.695 88.627 129.561 87.6829 129.448 87.1387C129.217 86.0324 133.901 85.242 142.578 84.9225C149.554 84.6655 149.028 84.4589 148.343 87.1868ZM168.596 87.1604C168.909 90.4 160.553 93.3802 156.796 91.3694C155.687 90.776 155.042 90.8541 154.675 91.624C154.385 92.233 154.347 91.7285 154.59 90.5033C154.834 89.2769 155.04 87.3718 155.047 86.2691C155.058 84.37 155.411 84.2631 161.688 84.2631H168.318L168.596 87.1604ZM213.199 87.7514C213.427 89.6889 213.073 89.8955 208.99 90.221C201.559 90.812 200.466 92.8769 207.159 93.6805C212.218 94.2883 214.16 95.7562 212.75 97.9075C212.02 99.0234 211.187 100.723 210.903 101.683C210.617 102.643 210.54 101.96 210.732 100.165C211.042 97.2625 210.823 96.8372 208.753 96.3171C207.472 95.9952 205.238 94.8877 203.788 93.8559L201.153 91.9784L203.172 90.3423C204.283 89.4426 206.76 88.4565 208.675 88.1502C211.708 87.6649 212.082 87.3502 211.587 85.7057C211.185 84.3688 211.3 84.0829 211.985 84.7279C212.516 85.2276 213.063 86.5886 213.199 87.7514ZM172.718 88.4973C172.356 90.376 170.774 90.2571 170.371 88.3207C170.202 87.5135 170.694 86.9369 171.55 86.9369C172.468 86.9369 172.905 87.5219 172.718 88.4973ZM221.093 90.8757L219.073 93.0258L222.775 98.0372C225.382 101.565 227.254 103.204 229.1 103.572C230.542 103.861 231.722 104.671 231.722 105.373C231.722 107.509 226.683 104.023 222.162 98.758C219.955 96.1886 217.84 94.2787 217.46 94.5141C217.081 94.7484 216.242 94.2426 215.597 93.3898C214.637 92.1201 214.636 92.0264 215.593 92.8733C216.51 93.6841 217.347 93.242 219.458 90.8384C220.94 89.1496 222.369 87.9844 222.633 88.2475C222.896 88.5117 222.202 89.6937 221.093 90.8757ZM224.178 91.3574C222.105 93.6469 226.705 100.062 231.04 100.93C233.118 101.345 233.401 101.632 232.33 102.232C228.479 104.387 219.511 94.5453 222.408 91.3429C223.27 90.3904 224.377 89.6108 224.867 89.6108C225.357 89.6108 225.047 90.3964 224.178 91.3574ZM228.568 92.3399C228.311 92.758 227.512 92.8745 226.796 92.5994C226.079 92.3243 225.703 91.7574 225.961 91.3393C226.219 90.9225 227.017 90.806 227.734 91.0811C228.451 91.3562 228.826 91.9231 228.568 92.3399ZM174.048 92.5922C174.378 93.4535 173.895 93.6733 172.329 93.3742C169.991 92.9273 166.647 95.2541 166.647 97.3261C166.647 98.7279 168.078 98.9249 168.876 97.6348C169.52 96.5922 173.177 96.4384 174.151 97.4114C174.518 97.779 175.087 98.0829 175.413 98.0865C175.74 98.0901 176.999 98.7916 178.211 99.6469L180.415 101.2H175.924C168.738 101.2 161.133 102.925 157.305 105.422C155.353 106.696 153.172 107.737 152.458 107.737C151.744 107.737 147.986 110.277 144.109 113.383C137.883 118.369 133.418 120.7 135.001 118.137C135.305 117.647 135.149 117.246 134.655 117.246C132.383 117.246 135.866 112.077 140.146 109.099C142.709 107.315 147.715 103.419 151.268 100.44C159.163 93.8222 159.967 93.3814 165.918 92.3916C172.796 91.2469 173.538 91.2661 174.048 92.5922ZM185.16 93.7033C187.219 93.2384 187.342 93.3057 185.962 94.1417C184.21 95.2036 178.636 94.5466 177.79 93.1784C177.512 92.7267 178.508 92.7844 180.004 93.3057C181.5 93.827 183.82 94.006 185.16 93.7033ZM203.036 99.2096C204.174 99.9724 205.909 102.308 206.893 104.4C208.657 108.153 211.706 110.114 215.777 110.114C216.667 110.114 217.81 110.886 218.315 111.831C218.82 112.775 220.855 114.263 222.838 115.138C225.915 116.496 226.584 117.296 227.424 120.628C228.636 125.444 229.478 125.789 235.645 123.995C238.347 123.21 240.875 122.621 241.264 122.687C244.076 123.158 245.186 122.484 244.715 120.589C244.442 119.486 244.449 119.085 244.73 119.697C245.318 120.979 247.768 121.218 247.768 119.994C247.768 119.545 247.266 118.947 246.653 118.665C246.04 118.384 246.442 118.377 247.544 118.651C249.622 119.166 250.184 118.237 248.696 116.748C248.151 116.203 248.182 115.411 248.78 114.563C249.575 113.437 249.645 113.463 249.239 114.735C248.886 115.841 249.448 116.386 251.384 116.811C253.048 117.177 254.008 117.948 254.008 118.921C254.008 122.247 259.692 124.187 260.821 121.246C261.547 119.354 259.377 116.867 258.109 118.137C257.415 118.83 257.517 119.339 258.472 119.944C259.547 120.623 259.435 120.787 257.891 120.798C255.669 120.813 254.588 118.805 256.038 117.354C256.588 116.805 258.462 116.382 260.202 116.417C262.235 116.458 262.833 116.697 261.873 117.086C260.018 117.838 261.572 120.418 264.19 120.93C266.827 121.446 262.014 126.569 257.144 128.43C253.509 129.817 253.085 129.822 251.757 128.494C250.428 127.165 250.565 127.051 253.499 127.051C255.249 127.051 256.682 126.65 256.682 126.16C256.682 125.194 246.831 124.947 243.533 125.831C240.01 126.775 241.381 127.736 245.762 127.392L249.996 127.061L245.093 128.356C242.397 129.068 240.103 129.667 239.996 129.688C239.888 129.708 240.058 129.055 240.373 128.234C240.833 127.034 240.61 126.884 239.231 127.467C234.684 129.387 221.827 128.83 214.917 126.412C213.799 126.02 213.686 126.157 214.446 126.983C214.995 127.581 217.402 128.607 219.795 129.264C226.906 131.216 221.5 130.776 213.596 128.759C206.478 126.942 202.984 125.474 207.897 126.364C209.257 126.61 210.572 126.485 210.819 126.085C212.091 124.028 196.194 124.078 188.956 126.154C186.526 126.85 185.807 126.7 184.593 125.24C183.793 124.277 181.735 123.232 180.019 122.917L176.899 122.341L179.351 124.315C182.164 126.581 182.491 127.926 180.242 127.982C179.383 128.004 177.077 128.634 175.115 129.383C173.155 130.132 170.748 130.878 169.768 131.043C168.786 131.206 166.944 131.745 165.67 132.241C163.523 133.077 163.387 132.987 163.772 130.969C164.163 128.926 164.042 128.853 161.72 129.736C159.632 130.529 159.412 130.479 160.294 129.416C160.868 128.726 169.051 125.103 178.478 121.366C195.939 114.443 201.413 111.757 201.413 110.107C201.413 109.598 200.325 109.893 198.996 110.763C197.667 111.631 196.873 111.865 197.232 111.283C198.279 109.583 196.898 103.258 195.047 101.27C193.845 99.9796 193.507 98.7267 193.89 96.9802C194.98 92.012 195.069 91.97 198.08 94.9574C199.668 96.5333 201.899 98.4469 203.036 99.2096ZM234.927 95.0895C236.613 96.9886 236.611 96.9946 234.669 95.976C232.502 94.8396 231.167 93.1772 232.422 93.1772C232.866 93.1772 233.992 94.0372 234.927 95.0895ZM158.327 95.5544C157.184 96.6967 157.748 99.1544 159.521 100.759C161.431 102.488 163.236 101.889 161.463 100.115C160.882 99.5351 160.408 98.1381 160.408 97.0102C160.408 95.0018 159.509 94.3724 158.327 95.5544ZM186.259 97.8234C186.259 98.2102 184.956 98.5201 183.362 98.5117C181.276 98.5021 180.823 98.2715 181.745 97.6889C183.258 96.7303 186.259 96.8204 186.259 97.8234ZM192.313 103.206C193.465 105.502 193.643 106.671 193.496 110.961C193.341 115.45 191.638 113.183 191.485 108.287C191.418 106.106 190.754 103.618 190.009 102.76C188.824 101.392 188.82 101.2 189.981 101.2C190.711 101.2 191.759 102.102 192.313 103.206ZM188.92 106.018C188.912 106.555 188.48 106.393 187.96 105.658C187.249 104.651 186.903 104.596 186.563 105.434C185.903 107.057 182.693 106.811 182.693 105.138C182.693 104.36 182.192 103.893 181.579 104.097C180.966 104.302 180.464 105.037 180.464 105.731C180.464 106.426 179.935 107.331 179.288 107.742C178.325 108.354 178.343 108.677 179.387 109.524C182.718 112.229 181.739 113.229 175.568 113.423C167.972 113.664 163.386 115.183 150.402 121.759C139.369 127.347 138.169 127.805 139.826 125.809C140.619 124.853 140.552 124.261 139.537 123.246C138.057 121.766 139.489 119.998 144.808 116.73C146.278 115.827 149.688 113.438 152.385 111.421C159.485 106.112 159.408 106.135 159.32 109.26C159.225 112.599 161.402 115.064 163.675 114.192C165.202 113.607 165.185 113.479 163.406 112.065C160.383 109.66 160.159 105.923 162.994 105.157C174.357 102.086 188.968 102.572 188.92 106.018ZM222.408 106.742C222.449 109.856 222.317 110.085 221.293 108.686C220.655 107.814 220.133 106.383 220.133 105.509C220.133 104.169 219.771 104.056 217.847 104.788C214.488 106.065 213.005 105.708 216.062 104.359C220.905 102.223 222.356 102.768 222.408 106.742ZM238.564 106.435C238.12 106.616 237.407 106.215 236.981 105.542C235.661 103.458 236.1 102.906 237.776 104.543C238.654 105.401 239.01 106.252 238.564 106.435ZM247.174 105.88C246.79 106.492 246.587 107.674 246.724 108.506C247.273 111.85 239.179 121.435 237.351 119.606C237.042 119.297 236.18 119.542 235.435 120.15C233.272 121.918 235.148 119.079 239.178 114.486C242.255 110.98 242.47 110.865 241.187 113.407C239.591 116.571 240.542 118.06 242.631 115.665C245.8 112.03 247.459 105.999 244.647 108.332C243.912 108.942 243.31 109.156 243.31 108.806C243.31 108.239 246.911 104.87 247.597 104.795C247.748 104.78 247.559 105.267 247.174 105.88ZM175.264 108.035C174.239 109.059 174.616 110.114 176.008 110.114C176.743 110.114 177.345 109.512 177.345 108.777C177.345 107.385 176.29 107.009 175.264 108.035ZM255.79 109.731C255.79 109.976 255.049 109.78 254.144 109.296C253.011 108.689 252.177 108.735 251.47 109.443C250.732 110.18 250.442 110.19 250.442 109.475C250.442 108.056 252.402 107.542 254.23 108.483C255.088 108.925 255.79 109.486 255.79 109.731ZM187.454 109.446C187.794 110.285 188.14 110.229 188.851 109.223C189.617 108.139 189.8 108.334 189.811 110.244C189.823 112.334 189.432 112.639 186.367 112.931C183.883 113.168 183.005 112.943 183.248 112.133C183.432 111.514 183.772 110.404 184.002 109.668C184.509 108.048 186.826 107.899 187.454 109.446ZM210.327 110.902C210.327 111.449 210.953 111.897 211.717 111.897C212.481 111.897 212.861 112.296 212.56 112.782C211.974 113.73 213.429 116.948 214.276 116.577C215.518 116.032 216.624 116.434 216.122 117.246C215.819 117.736 216.296 118.149 217.184 118.165C218.707 118.19 218.705 118.245 217.129 119.16C215.787 119.94 215.7 120.275 216.683 120.883C217.354 121.299 217.906 122.154 217.907 122.784C217.908 123.415 218.582 123.936 219.404 123.942C220.227 123.95 221.195 124.25 221.556 124.611C222.627 125.682 223.699 125.363 223.699 123.976C223.699 123.265 224.401 122.239 225.258 121.695C226.375 120.989 226.503 120.575 225.704 120.24C225.091 119.982 224.59 118.978 224.59 118.007C224.59 116.823 224.078 116.327 223.03 116.499C222.172 116.64 220.924 116.413 220.257 115.995C219.507 115.526 218.781 115.656 218.362 116.335C217.878 117.118 217.506 117.152 217.072 116.449C216.737 115.906 216.688 115.098 216.963 114.652C217.675 113.5 216.691 111.319 215.414 111.219C214.824 111.172 213.436 110.859 212.333 110.52C211.084 110.138 210.327 110.282 210.327 110.902ZM236.571 113.225C234.325 116.171 232.596 116.639 232.627 114.296C232.636 113.557 232.866 113.589 233.381 114.401C233.941 115.284 234.479 115.025 235.581 113.341L237.042 111.111L233.714 110.763C230.715 110.448 230.809 110.399 234.664 110.264L238.944 110.114L236.571 113.225ZM256.774 114.836C256.057 115.553 255.79 115.538 255.79 114.777C255.79 114.183 255.169 113.974 254.344 114.291C253.133 114.756 253.165 114.535 254.536 112.933C255.977 111.252 256.269 111.192 256.965 112.436C257.46 113.32 257.388 114.221 256.774 114.836ZM263.368 114.572C265.282 116.532 266.649 118.137 266.403 118.137C266.158 118.137 264.391 116.532 262.476 114.572C260.56 112.61 259.195 111.005 259.44 111.005C259.685 111.005 261.453 112.61 263.368 114.572ZM230.986 115.139C230.723 117.389 230.914 118.191 231.61 117.761C232.986 116.911 232.876 117.7 231.455 118.879C230.222 119.904 229.303 114.538 230.407 112.752C231.282 111.337 231.381 111.747 230.986 115.139ZM202.305 115.295C202.305 115.693 203.154 116.93 204.192 118.043C205.58 119.535 205.816 120.332 205.083 121.064C203.292 122.855 204.04 123.805 205.909 122.113C207.839 120.368 207.939 116.64 206.048 117.031C205.433 117.158 204.697 116.657 204.413 115.917C203.872 114.508 202.305 114.046 202.305 115.295ZM193.404 116.995C193.396 117.593 192.811 117.858 192.103 117.587C191.213 117.246 190.858 117.667 190.956 118.953C191.033 119.975 191.384 120.811 191.738 120.811C192.09 120.811 192.623 121.581 192.922 122.521C193.381 123.968 193.889 124.109 196.223 123.44C199.759 122.426 200.339 121.805 198.713 120.777C197.992 120.321 197.802 119.935 198.293 119.92C198.784 119.905 198.583 119.504 197.847 119.028C196.956 118.453 196.881 118.16 197.625 118.151C198.237 118.143 198.739 117.736 198.739 117.246C198.739 116.756 197.937 116.354 196.956 116.354C195.975 116.354 195.167 116.855 195.16 117.469C195.15 118.211 194.858 118.137 194.282 117.246C193.735 116.4 193.412 116.308 193.404 116.995ZM237.664 116.949C236.582 118.031 237.048 118.981 238.408 118.46C239.143 118.178 239.745 117.588 239.745 117.151C239.745 116.216 238.516 116.096 237.664 116.949ZM272.727 125.3C272.727 126.566 272.301 126.372 270.414 124.247C268.725 122.345 268.726 122.34 270.721 123.387C271.825 123.966 272.727 124.826 272.727 125.3ZM162.965 125.05C161.675 125.906 158.266 128.165 155.388 130.07C152.51 131.975 149.022 134.482 147.636 135.641C145.004 137.843 143.47 138.318 143.47 136.933C143.47 135.781 151.585 129.964 158.061 126.473C163.891 123.33 166.855 122.471 162.965 125.05ZM210.189 130.298C218.263 133.058 220.825 133.54 227.264 133.509C235.944 133.468 238.727 134.938 247.399 144.149C285.598 184.722 266.969 251.929 213.447 266.639C197.312 271.074 163.923 267.474 166.198 261.544C166.683 260.279 167.412 260.303 173.601 261.784C208.969 270.248 247.35 251.896 258.999 220.949C263.775 208.26 264.771 203.159 262.818 201.392C260.243 199.062 258.602 201.187 256.066 210.138C244.23 251.888 195.44 272.905 157.049 252.788C146.404 247.211 147.457 249.712 158.396 255.993L163.281 258.798L160.538 259.401C157.571 260.052 153.722 257.899 145.036 250.729L140.809 247.24L144.368 242.269C149.506 235.094 148.635 229.522 142.792 232.184C140.497 233.23 140.451 233.205 141.82 231.646C143.866 229.315 146.147 224.584 146.13 222.702C146.098 218.818 144.836 218.698 138.96 222.018C135.826 223.79 133.145 224.909 133.004 224.506C132.861 224.102 132.372 223.182 131.915 222.46C130.714 220.559 129.782 221.96 130.881 224.014C131.652 225.454 131.437 225.916 129.62 226.745C127.59 227.67 127.327 227.5 126.002 224.419C112.878 193.911 122.702 156.185 148.902 136.491C154.205 132.505 154.255 132.489 155.989 134.221C158.309 136.542 160.983 136.422 169.165 133.632C190.918 126.214 196.834 125.733 210.189 130.298ZM142.646 129.08C142.535 130.145 141.312 129.939 140.929 128.789C140.733 128.202 141.054 127.88 141.643 128.077C142.231 128.273 142.683 128.724 142.646 129.08ZM266.481 131.951C267.751 132.735 271.101 129.808 270.341 128.578C270.01 128.043 270.221 127.941 270.85 128.33C272.039 129.064 271.069 130.705 267.852 133.401C266.198 134.788 265.968 134.738 263.841 132.521C261.884 130.484 261.762 130.032 262.922 129.126C263.99 128.291 264.38 128.407 264.866 129.703C265.198 130.596 265.926 131.607 266.481 131.951ZM125.641 130.203C125.641 130.465 126.289 131.668 127.082 132.877C129.143 136.024 130.51 135.6 128.619 132.4C127.222 130.034 125.641 128.867 125.641 130.203ZM271.836 133.291C270.789 134.763 269.595 135.965 269.181 135.965C268.768 135.965 269.488 134.763 270.778 133.291C272.068 131.821 273.263 130.617 273.433 130.617C273.602 130.617 272.884 131.821 271.836 133.291ZM121.214 131.689C121.155 132.935 123.272 136.858 124.002 136.858C124.414 136.858 124.75 136.501 124.75 136.065C124.75 135.112 121.257 130.79 121.214 131.689ZM260.778 132.538C261.172 133.175 261.023 133.325 260.385 132.931C258.534 131.787 259.306 134.047 261.226 135.391L263.096 136.702L261.285 137.671C259.022 138.882 258.195 138.906 258.915 137.741C259.831 136.259 258.455 133.293 256.845 133.278C255.55 133.266 255.527 133.146 256.682 132.4C258.479 131.238 260.007 131.29 260.778 132.538ZM243.007 135.862C255.236 145.677 269.351 168.014 268.036 175.473C267.704 177.356 267.672 177.361 267.027 175.635C266.659 174.653 265.386 171.236 264.197 168.041C259.83 156.306 250.756 144.049 240.338 135.815C237.962 133.936 236.621 132.4 237.356 132.4C238.091 132.4 240.635 133.958 243.007 135.862ZM254.293 134.971C254.01 136.052 254.586 137.162 255.912 138.09C257.043 138.883 257.496 139.532 256.916 139.532C255.786 139.532 251.333 135.096 251.333 133.969C251.333 133.596 252.098 133.291 253.033 133.291C254.258 133.291 254.61 133.76 254.293 134.971ZM277.691 135.297C277.485 136.4 277.236 137.303 277.137 137.303C276.844 137.303 276.378 141.484 276.217 145.572C276.134 147.67 275.37 150.278 274.52 151.367C273.669 152.456 272.69 154.251 272.344 155.354C271.315 158.639 268.27 155.767 268.27 151.511C268.27 150.793 267.769 149.307 267.156 148.21C266.544 147.115 265.961 146.07 265.861 145.888C265.762 145.707 265.006 146.234 264.181 147.059C263.119 148.12 262.402 148.282 261.732 147.612C260.368 146.25 262.247 144.637 265.327 144.525C267.006 144.464 268.112 143.779 268.701 142.437C269.183 141.339 270.133 140.537 270.812 140.655C271.49 140.772 272.499 140.111 273.055 139.186C273.967 137.665 277.311 133.618 277.848 133.385C277.967 133.333 277.896 134.193 277.691 135.297ZM145.384 140.931C126.434 158.476 116.594 192.428 124.282 213.743C126.995 221.264 128.987 218.891 126.834 210.704C120.714 187.429 130.958 154.019 148.514 140C154.694 135.064 154.684 135.074 153.117 135.074C152.343 135.074 148.863 137.709 145.384 140.931ZM230.831 135.503C230.831 135.738 233.75 138.847 237.317 142.411C247.515 152.601 256.43 170.647 258.51 185.315C259.513 192.384 261.118 194.917 263.607 193.357C270.296 189.17 259.139 159.804 245.699 146.222C237.902 138.344 230.831 133.244 230.831 135.503ZM119.416 137.335C119.44 138.87 121.07 140.835 121.752 140.153C122.117 139.787 121.738 138.811 120.909 137.982C120.08 137.153 119.407 136.862 119.416 137.335ZM115.869 140.199C115.933 141.568 120.284 146.204 120.259 144.88C120.245 144.144 119.481 142.64 118.56 141.538C116.866 139.505 115.81 138.981 115.869 140.199ZM196.664 140.199C196.446 140.568 195.992 143.476 195.656 146.663C194.833 154.464 194.321 156.177 193.293 154.58C192.625 153.545 192.359 153.562 191.621 154.686C190.992 155.646 190.739 154.575 190.73 150.897C190.723 148.078 190.315 145.772 189.824 145.772C189.327 145.772 188.933 148.205 188.933 151.29C188.933 156.334 188.82 156.661 187.625 155.079C186.348 153.392 186.315 153.398 186.288 155.354C186.253 157.816 183.226 158.123 181.873 155.801C181.064 154.411 180.962 154.464 180.938 156.274C180.904 158.789 178.717 159.751 176.72 158.129C175.42 157.07 175.302 157.112 175.801 158.446C177.174 162.109 174.751 160.448 172.873 156.436C171.733 154.002 170.467 152.012 170.061 152.012C168.882 152.012 169.193 153.087 171.581 157.265C172.813 159.419 173.711 161.273 173.577 161.386C171.429 163.189 167.651 164.255 166.679 163.331C165.784 162.481 165.685 162.716 166.194 164.491C166.676 166.172 165.167 165.082 160.055 160.056C152.028 152.167 150.962 152.679 158.635 160.738C163.537 165.887 166.064 170.011 162.508 167.059C161.204 165.977 161.112 166.065 161.676 167.841C162.508 170.461 162.247 170.392 157.664 166.765C152.469 162.655 151.861 163.653 156.878 168.058C159.613 170.458 160.375 171.559 159.321 171.584C158.273 171.611 157.966 172.085 158.349 173.084C158.743 174.109 157.141 173.554 152.972 171.224C149.708 169.398 147.036 168.302 147.036 168.787C147.036 169.272 149.274 170.933 152.009 172.477C156.405 174.957 156.848 175.458 155.826 176.795C155.191 177.628 154.62 178.414 154.557 178.543C154.493 178.673 152.988 178.171 151.213 177.429C147.586 175.914 146.145 175.737 146.145 176.808C146.145 178.166 155.956 180.751 157.198 179.72C158.265 178.835 165.756 181.547 165.756 182.818C165.756 183.069 164.953 182.844 163.973 182.32C161.776 181.145 161.62 182.141 163.751 183.744C164.744 184.491 163.205 184.287 159.515 183.18C152.714 181.14 153.276 181.225 153.276 182.238C153.276 182.682 155.244 183.551 157.649 184.167C163.312 185.619 162.529 188.272 156.534 187.941L152.831 187.738L156.396 188.972C159.381 190.005 159.598 190.228 157.733 190.345C156.508 190.422 156.008 190.687 156.624 190.935C158.359 191.635 156.988 193.017 154.56 193.017C151.826 193.017 151.696 194.559 154.39 195.019C155.494 195.206 152.276 195.688 147.239 196.088C142.204 196.488 137.836 197.216 137.533 197.706C136.409 199.523 156.195 197.518 158.154 195.616C159.296 194.507 159.502 193.909 158.743 193.909C157.992 193.909 158.32 192.996 159.66 191.354C160.807 189.948 162.254 188.043 162.878 187.12C163.853 185.672 163.877 185.748 163.046 187.668L162.082 189.897L164.142 187.572C165.275 186.293 167.744 183.365 169.627 181.063C177.095 171.944 187.735 167.581 197.511 169.632C201.837 170.539 215.676 177.917 215.676 179.317C215.676 179.556 215.275 179.503 214.785 179.2C212.908 178.04 214.005 180.345 216.344 182.473C221.267 186.953 224.672 191.235 223.312 191.235C222.587 191.235 220.872 189.772 219.502 187.983C213.965 180.751 210.843 177.811 206.46 175.7C201.244 173.187 195.129 172.353 194.524 174.075C194.295 174.728 194.88 175.189 195.938 175.189C196.93 175.189 197.954 175.532 198.213 175.951C198.473 176.371 197.71 176.527 196.518 176.299C190.569 175.163 179.245 180.758 166.329 191.216C159.495 196.75 159.678 198.386 166.575 193.429C169.066 191.64 171.105 190.376 171.105 190.621C171.105 192.514 161.29 197.822 157.424 198.019C153.065 198.243 151.617 198.788 152.649 199.82C152.959 200.129 154.807 199.977 156.756 199.482C159.638 198.751 160.393 198.828 160.802 199.892C161.425 201.515 160.577 203.033 159.44 202.33C158.975 202.043 158.866 201.372 159.195 200.838C159.596 200.189 159.084 200.058 157.65 200.441C156.47 200.757 153.198 201.474 150.379 202.035C147.56 202.596 145.254 203.404 145.254 203.831C145.254 204.902 146.701 204.793 152.343 203.291C155.017 202.579 157.406 202.199 157.652 202.446C157.9 202.692 157.216 203.126 156.134 203.408C155.053 203.691 154.168 204.276 154.168 204.71C154.168 205.761 155.679 205.705 157.792 204.574C158.831 204.018 159.515 203.989 159.515 204.5C159.515 204.967 159.014 205.528 158.402 205.747C157.789 205.965 157.579 206.458 157.935 206.84C158.29 207.222 159.203 207.019 159.962 206.389C160.72 205.759 161.55 205.451 161.804 205.706C162.058 205.959 160.795 207.035 158.996 208.097C154.683 210.641 155.668 211.481 160.234 209.152C165.813 206.305 167.363 208.866 162.148 212.316C160.096 213.676 158.893 214.947 159.477 215.141C160.061 215.336 162.091 214.249 163.986 212.724C167.656 209.775 169.371 209.084 167.538 211.291C166.223 212.877 167.597 213.105 169.143 211.559C169.732 210.971 170.213 210.796 170.213 211.171C170.213 211.546 169 212.872 167.519 214.119C166.037 215.367 164.378 217.246 163.832 218.297C162.761 220.356 165.225 218.518 169.933 213.743C172.708 210.929 177.214 212.579 175.078 215.628C173.581 217.765 173.368 219.228 174.67 218.423C175.81 217.719 175.805 218.532 174.657 220.678C174.144 221.636 173.193 222.154 172.462 221.873C171.35 221.446 161.299 235.116 161.299 237.057C161.299 238.893 163.26 236.641 167.435 230.012C172.528 221.924 173.244 221.147 172.362 224.663C171.469 228.222 172.673 227.254 175.101 222.464C177.551 217.629 177.807 216.694 176.454 217.532C175.033 218.41 175.423 216.529 176.92 215.287C178.068 214.333 178.194 214.418 177.738 215.845C177.222 217.458 177.26 217.457 178.608 215.801C180.386 213.619 180.479 215.246 178.711 217.584C177.187 219.598 177.004 220.651 178.176 220.651C178.634 220.651 179.272 219.819 179.595 218.801C179.918 217.784 180.343 217.112 180.54 217.311C180.737 217.508 179.918 220.172 178.719 223.231C177.519 226.291 176.983 228.646 177.526 228.465C178.069 228.285 179.541 225.208 180.796 221.629C182.051 218.049 183.226 215.566 183.407 216.109C183.589 216.652 184.104 216.87 184.552 216.593C185 216.316 185.368 216.514 185.368 217.033C185.368 217.552 184.813 217.977 184.134 217.977C183.457 217.977 182.67 218.863 182.386 219.944C181.664 222.708 182.469 223.12 183.586 220.559L184.517 218.423L184.093 220.651C182.799 227.457 182.526 230.841 183.335 230.012C183.813 229.521 184.703 226.211 185.312 222.657C186.378 216.446 189.029 213.124 188.87 218.201C188.813 220.054 188.756 220.075 188.129 218.471C187.5 216.864 187.407 216.896 186.867 218.917C186.021 222.077 186.129 223.511 187.165 222.871C187.663 222.563 187.84 221.938 187.557 221.481C187.276 221.025 187.395 220.651 187.823 220.651C188.251 220.651 188.427 223.058 188.214 226C187.955 229.584 188.157 231.349 188.826 231.349C189.47 231.349 189.878 228.74 189.974 223.994C190.057 219.95 190.282 218.153 190.475 220.001C190.669 221.85 191.123 223.18 191.487 222.955C193.178 221.91 191.181 213.969 189.156 213.681C185.596 213.175 187.027 211.737 191.091 211.737C194.781 211.737 195.07 211.915 195.645 214.53C196.111 216.653 196.463 217.027 197.112 216.09C197.708 215.229 197.783 215.497 197.363 216.979C196.703 219.307 198.535 229.335 199.758 230.09C200.882 230.786 200.693 228.629 199.195 223.69C197.708 218.789 197.49 216.352 198.842 219.738C199.475 221.325 199.92 221.625 200.428 220.804C200.9 220.038 201.802 221.226 203.154 224.39C204.265 226.992 205.342 228.681 205.55 228.145C205.757 227.608 205.135 225.324 204.168 223.067C202.649 219.526 202.605 219.04 203.84 219.514C204.792 219.879 205.055 219.714 204.627 219.02C204.272 218.447 204.307 217.977 204.705 217.977C205.102 217.977 206.385 219.783 207.556 221.989C208.726 224.195 210.03 226 210.451 226C211.43 226 211.44 224.823 210.47 223.727C208.214 221.175 205.555 215.79 207.19 217.086C208.713 218.292 208.823 218.278 208.323 216.937C207.452 214.611 210.315 214.089 212.529 216.169C213.587 217.164 214.825 217.977 215.279 217.977C215.733 217.977 214.978 216.933 213.603 215.659C212.228 214.383 211.336 213.105 211.622 212.819C211.909 212.533 213.733 213.851 215.676 215.749C217.619 217.646 219.449 218.959 219.742 218.666C220.036 218.372 218.739 216.704 216.862 214.959C214.983 213.213 213.998 211.774 214.671 211.761C215.657 211.742 215.679 211.478 214.785 210.4C213.105 208.376 214.311 208.783 218.539 211.666C220.639 213.098 222.557 214.067 222.803 213.821C223.22 213.404 222.325 212.598 217.941 209.445C214.833 207.208 217.636 205.718 221.491 207.557C225.119 209.287 225.482 209.351 225.482 208.28C225.482 207.849 224.178 206.978 222.584 206.342C218.793 204.834 218.814 204.858 220.061 203.356C220.894 202.351 221.715 202.264 223.735 202.969C227.109 204.145 229.394 203.351 226.246 202.096C223.752 201.102 216.225 199.778 218.128 200.668C219.717 201.411 219.512 202.871 217.905 202.253C216.009 201.527 216.247 200.065 218.35 199.516C219.33 199.259 220.133 198.643 220.133 198.147C220.133 197.58 221.788 197.464 224.59 197.835C227.447 198.215 229.047 198.096 229.047 197.505C229.047 196.998 227.71 196.583 226.076 196.583C224.442 196.583 222.84 196.32 222.518 195.996C221.416 194.894 223.913 193.017 226.482 193.017C227.893 193.017 229.047 192.616 229.047 192.126C229.047 191.636 228.446 191.235 227.71 191.235C226.975 191.235 226.373 190.633 226.373 189.897C226.373 189.162 225.872 188.529 225.258 188.49C224.646 188.45 225.25 188.016 226.601 187.522C229.861 186.332 228.876 184.912 225.47 185.89C223.399 186.483 222.808 186.369 222.808 185.378C222.808 184.676 222.105 184.075 221.248 184.04C220.39 184.006 221.262 183.401 223.186 182.696C228.033 180.92 228.385 180.222 224.074 180.933C218.902 181.787 217.061 179.593 221.493 177.855C223.196 177.186 224.59 176.312 224.59 175.914C224.59 174.905 224.192 174.983 220.6 176.696C216.003 178.888 214.127 176.936 217.923 173.91C219.383 172.746 220.903 171.994 221.3 172.239C221.698 172.484 221.32 173.2 220.46 173.828C219.109 174.816 219.447 174.956 222.944 174.858C227.142 174.739 229.939 173.212 229.939 171.038C229.939 170.346 231.342 168.951 233.059 167.939C234.775 166.926 236.178 165.737 236.178 165.295C236.178 164.056 235.054 164.365 232.613 166.274C229.131 168.998 223.78 166.661 226.608 163.65C227.507 162.694 227.286 162.578 225.402 163.02C221.237 163.998 219.209 161.578 221.846 158.772C223.033 157.509 223.716 156.189 223.365 155.838C223.016 155.488 221.793 156.375 220.648 157.81C217.855 161.313 212.672 159.85 215.181 156.267C217.359 153.158 216.737 152.171 214.401 155.028C211.274 158.852 206.9 157.835 209.001 153.774C209.817 152.197 209.993 151.12 209.437 151.12C208.922 151.12 208.12 152.123 207.654 153.349C207.046 154.947 206.142 155.577 204.458 155.577C201.977 155.577 202.004 155.81 203.739 149.56C204.045 148.456 203.9 147.554 203.416 147.554C202.932 147.554 202.045 149.309 201.445 151.455C200.229 155.793 195.334 157.739 196.398 153.459C197.912 147.374 198.104 137.775 196.664 140.199ZM266.403 142.967C265.085 143.42 264.416 142.502 265.173 141.278C265.652 140.503 266.013 140.545 266.57 141.441C267.012 142.153 266.942 142.782 266.403 142.967ZM106.031 141.956C106.031 143.035 112.133 148.881 112.684 148.328C112.927 148.087 111.529 146.375 109.578 144.526C107.627 142.676 106.031 141.521 106.031 141.956ZM135.711 147.279C130.45 153.623 125.413 162.472 122.954 169.693C121.759 173.206 120.297 176.081 119.706 176.081C118.246 176.081 122.118 164.727 125.879 157.987C129.896 150.784 137.501 141.256 138.47 142.211C138.933 142.667 137.778 144.787 135.711 147.279ZM283.274 145.683C284.271 147.595 284.856 149.391 284.575 149.673C284.293 149.954 284.54 150.762 285.124 151.464C285.866 152.359 285.897 152.923 285.228 153.336C284.702 153.661 284.383 153.524 284.517 153.032C284.652 152.539 284.073 151.607 283.232 150.96C281.843 149.892 279.877 142.205 280.992 142.205C281.25 142.205 282.277 143.771 283.274 145.683ZM182.282 149.803C183.572 156.663 184.521 158.241 184.371 153.274C184.222 148.362 183.309 144.638 182.159 144.256C181.464 144.024 181.5 145.64 182.282 149.803ZM210.839 146.536C209.227 149.652 209.131 150.228 210.219 150.228C211.195 150.228 213.425 145.007 212.742 144.323C212.467 144.048 211.61 145.044 210.839 146.536ZM165.756 145.371C165.756 146.559 168.611 151.236 169.061 150.786C169.745 150.102 167.514 144.88 166.539 144.88C166.109 144.88 165.756 145.1 165.756 145.371ZM175.115 149.115C175.464 149.972 176.379 152.472 177.147 154.669C177.915 156.866 178.708 158.172 178.909 157.57C179.436 155.987 176.478 147.554 175.394 147.554C174.875 147.554 174.754 148.229 175.115 149.115ZM268.398 157.192C269.864 160.344 270.414 160.846 271.457 159.98C272.482 159.128 272.727 159.255 272.727 160.638C272.727 161.581 273.144 162.769 273.652 163.277C274.205 163.829 274.335 165.726 273.973 167.983L273.369 171.765L270.933 165.503C269.592 162.059 267.22 156.913 265.66 154.066C263.76 150.601 263.449 149.628 264.718 151.12C265.759 152.346 267.416 155.078 268.398 157.192ZM282.978 152.903C283.287 153.401 282.603 153.795 281.427 153.795C280.271 153.795 278.934 154.095 278.458 154.462C277.983 154.83 278.348 154.43 279.27 153.571C281.177 151.798 282.184 151.617 282.978 152.903ZM294.122 155.08C294.122 155.261 293.376 155.216 292.466 154.978C291.125 154.627 290.705 155.193 290.257 157.958C289.951 159.835 289.144 163.377 288.462 165.828C287.643 168.774 287.494 171.008 288.022 172.416C288.786 174.446 288.414 176.018 287.409 175.013C285.687 173.291 286.13 169.713 289.734 156.234C290.5 153.366 294.122 152.413 294.122 155.08ZM163.082 155.19C163.082 155.469 164.169 157.174 165.497 158.979C166.826 160.786 168.029 162.43 168.171 162.634C168.314 162.838 168.673 162.762 168.971 162.464C169.581 161.855 164.79 154.734 163.751 154.705C163.382 154.694 163.082 154.913 163.082 155.19ZM291.965 164.239C290.084 169.763 290.177 171.037 292.691 174.024C294.784 176.511 294.794 176.602 293.182 178.593C292.263 179.727 291.771 181.294 292.069 182.141C292.511 183.401 292.391 183.462 291.362 182.505C290.307 181.523 290.356 180.944 291.694 178.611C293.246 175.909 293.237 175.845 291.021 173.79C288.257 171.23 288.197 168.747 290.737 162.073C293.046 156.006 294.123 157.905 291.965 164.239ZM107.813 159.08C107.813 159.917 110.594 161.817 111.818 161.817C112.802 161.817 111.335 160.073 109.547 159.116C108.415 158.511 107.813 158.499 107.813 159.08ZM282.085 163.455C281.538 164.001 277.185 160.026 277.185 158.98C277.185 158.572 278.389 159.311 279.86 160.621C281.33 161.932 282.332 163.207 282.085 163.455ZM120.342 166.322C117.638 173.302 114.945 184.828 114.945 189.414C114.945 190.906 114.535 192.126 114.035 192.126C113.537 192.126 113.311 191.223 113.535 190.12C113.758 189.017 114.181 186.309 114.473 184.103C115.329 177.652 117.697 168.875 119.979 163.685C123.078 156.645 123.342 158.573 120.342 166.322ZM196.168 163.823C196.246 165.332 196.372 165.443 196.679 164.269C197.141 162.503 200.529 162.108 200.508 163.823C200.5 164.436 200.064 165.539 199.539 166.274C198.772 167.349 198.671 167.217 199.024 165.606C199.266 164.502 199.1 163.6 198.655 163.6C198.211 163.6 197.847 164.202 197.847 164.937C197.847 165.672 197.083 166.274 196.148 166.274C194.887 166.274 194.569 165.814 194.915 164.491C195.175 163.494 194.942 162.709 194.385 162.709C193.839 162.709 193.358 163.611 193.32 164.715C193.281 165.817 193.043 166.205 192.79 165.576C192.105 163.87 193.148 161.817 194.7 161.817C195.49 161.817 196.108 162.661 196.168 163.823ZM204.695 163.861C205.848 163.417 205.913 163.638 205.083 165.189C203.517 168.115 203.956 168.722 205.87 166.274C206.83 165.049 207.622 164.535 207.633 165.132C207.645 165.766 208.257 165.987 209.101 165.662C210.39 165.168 210.379 165.367 208.999 167.474C207.279 170.099 206.545 170.551 207.33 168.503C207.613 167.767 207.434 167.165 206.932 167.165C206.43 167.165 205.877 167.59 205.705 168.108C205.532 168.627 204.685 168.781 203.825 168.449C202.606 167.982 202.486 167.576 203.282 166.616C203.977 165.78 203.998 165.383 203.35 165.383C202.823 165.383 201.984 166.085 201.484 166.943C200.219 169.116 200.297 167.743 201.602 164.878C202.196 163.574 202.825 162.931 202.996 163.449C203.169 163.968 203.933 164.153 204.695 163.861ZM98.4535 164.491C98.7562 164.981 99.5814 165.383 100.289 165.383C100.995 165.383 101.573 164.981 101.573 164.491C101.573 164.001 100.747 163.6 99.7376 163.6C98.7286 163.6 98.1496 164.001 98.4535 164.491ZM109.989 164.966C110.941 165.685 112.345 166.262 113.109 166.246C114.22 166.223 114.152 165.956 112.768 164.909C111.817 164.189 110.413 163.613 109.649 163.629C108.538 163.65 108.606 163.92 109.989 164.966ZM181.775 168.058C181.775 169.246 181.679 169.246 180.91 168.058C180.435 167.321 180.046 166.118 180.046 165.383C180.046 164.195 180.142 164.195 180.91 165.383C181.386 166.118 181.775 167.321 181.775 168.058ZM219.242 167.122C219.977 167.622 220.122 168.036 219.563 168.043C219.005 168.05 217.601 167.232 216.444 166.223C214.309 164.365 215.96 164.895 219.242 167.122ZM281.585 166.571C280.82 167.142 279.871 168.413 279.477 169.395C278.982 170.625 278.624 170.812 278.323 169.999C277.847 168.718 281.62 164.173 282.461 165.014C282.744 165.297 282.35 165.998 281.585 166.571ZM105.138 166.191C105.138 167.093 113.225 170.075 113.884 169.414C114.241 169.058 106.606 165.383 105.511 165.383C105.306 165.383 105.138 165.747 105.138 166.191ZM95.3328 167.062C95.3328 167.966 99.0349 169.11 99.7256 168.419C100.302 167.843 97.9382 166.306 96.4475 166.288C95.8349 166.28 95.3328 166.628 95.3328 167.062ZM178.236 170.03C178.236 170.436 177.233 171.226 176.008 171.785C174.781 172.344 173.778 173.207 173.778 173.705C173.778 174.202 172.775 173.666 171.55 172.514C169.007 170.125 168.542 170.998 170.875 173.781C171.977 175.096 171.712 175.001 169.962 173.453C167.837 171.574 167.693 171.162 168.918 170.476C169.895 169.929 170.881 170.168 172.06 171.235C173.905 172.905 174.493 171.802 172.709 170.018C171.897 169.207 171.889 168.699 172.673 167.915C173.458 167.13 174.139 167.399 175.496 169.028C177.459 171.386 177.872 170.816 176.404 167.775C175.495 165.894 175.511 165.887 176.85 167.559C177.613 168.511 178.236 169.623 178.236 170.03ZM212.361 167.834C211.849 169.2 211.963 169.242 213.28 168.171C215.74 166.169 214.987 168.454 212.413 170.799C210.466 172.574 210.148 172.664 210.641 171.301C211.09 170.055 210.903 169.771 209.889 170.16C208.729 170.604 208.742 170.368 209.981 168.476C211.639 165.946 213.23 165.517 212.361 167.834ZM301.323 175.487C301.954 177.641 301.872 177.855 300.767 176.938C300.054 176.346 299.471 174.884 299.471 173.69C299.471 172.468 299.081 171.759 298.578 172.068C298.049 172.396 297.717 171.425 297.76 169.67L297.833 166.72L299.208 169.84C299.963 171.556 300.916 174.097 301.323 175.487ZM172.887 168.73C172.887 169.22 173.489 170.121 174.224 170.732C174.97 171.35 175.562 171.447 175.562 170.95C175.562 170.46 174.96 169.559 174.224 168.949C173.478 168.329 172.887 168.233 172.887 168.73ZM216.122 170.732C214.421 172.611 215.455 173.27 217.266 171.459C217.846 170.879 218.523 170.607 218.771 170.854C219.017 171.102 218.021 172.19 216.557 173.273C214.355 174.901 213.893 174.997 213.893 173.826C213.893 172.944 213.472 172.652 212.779 173.051C212.166 173.404 212.637 172.626 213.825 171.321C215.014 170.016 216.38 168.949 216.861 168.949C217.341 168.949 217.01 169.751 216.122 170.732ZM102.91 173.405C105.413 174.482 108.923 174.482 108.259 173.405C107.956 172.915 106.228 172.543 104.417 172.577C101.766 172.627 101.473 172.788 102.91 173.405ZM169.389 174.96C171.348 177.176 171.362 177.246 169.539 175.708C168.433 174.775 167.258 174.28 166.93 174.609C166.601 174.938 167.105 175.833 168.05 176.598C169.251 177.571 168.897 177.511 166.87 176.396C163.774 174.694 163.303 173.825 165.088 173.105C166.959 172.35 167.157 172.435 169.389 174.96ZM183.303 175.589C179.566 176.921 179.834 176.723 169.991 185.426C166.192 188.786 163.274 191.724 163.507 191.957C163.739 192.189 166.17 190.417 168.908 188.018C176.004 181.802 180.516 178.996 185.96 177.413C190.796 176.007 192.354 174.265 188.711 174.336C187.607 174.358 185.174 174.921 183.303 175.589ZM228.156 176.204C225.95 177.231 224.583 178.238 225.12 178.441C226.159 178.835 234.396 175.58 234.396 174.775C234.396 173.839 232.109 174.363 228.156 176.204ZM165.297 177.082C167.063 178.124 168.282 179.2 168.008 179.474C167.734 179.748 167.035 179.498 166.455 178.918C165.19 177.654 163.973 177.545 163.973 178.694C163.973 179.152 164.805 179.79 165.823 180.113C166.84 180.436 167.482 180.893 167.246 181.127C166.739 181.634 159.515 178.061 159.515 177.303C159.515 177.016 160.163 177.028 160.952 177.332C161.98 177.726 162.242 177.5 161.872 176.536C161.199 174.783 161.476 174.828 165.297 177.082ZM111.274 178.67C112.169 179.237 112.332 180.376 111.87 182.835L111.235 186.219L109.431 183.371C106.964 179.473 108.073 176.643 111.274 178.67ZM286.584 181.898C287.888 183.846 288.464 184.969 287.864 184.395C287.264 183.821 286.216 183.565 285.535 183.826C284.648 184.166 284.469 183.851 284.903 182.718C285.316 181.642 285.18 181.341 284.478 181.774C283.801 182.192 283.63 181.932 283.98 181.019C284.357 180.035 284.118 179.778 283.168 180.142C282.428 180.426 281.56 180.234 281.24 179.717C280.886 179.144 281.199 178.983 282.042 179.306C282.845 179.614 283.424 179.361 283.424 178.702C283.424 177.287 283.655 177.52 286.584 181.898ZM289.634 179.703C288.888 181.096 288.935 181.894 289.825 182.993C290.673 184.04 290.693 184.259 289.893 183.779C289.282 183.413 288.339 182.284 287.798 181.271C287.025 179.827 287.057 179.582 287.944 180.13C288.747 180.626 288.91 180.398 288.506 179.347C288.132 178.368 288.395 177.863 289.279 177.863C290.356 177.863 290.426 178.223 289.634 179.703ZM238.92 179.536C237.142 180.034 235.085 182.32 236.418 182.32C237.845 182.32 242.419 180.215 242.419 179.558C242.419 178.664 242.048 178.662 238.92 179.536ZM279.441 179.601C279.153 180.067 279.732 180.883 280.725 181.415C281.72 181.947 282.527 182.87 282.52 183.465C282.511 184.149 282.182 184.054 281.628 183.212C280.87 182.056 280.639 182.049 279.927 183.154C279.286 184.15 278.824 184.202 277.84 183.385C277.144 182.807 276.311 182.599 275.989 182.923C275.666 183.244 275.401 183.063 275.401 182.519C275.401 181.975 276.294 180.906 277.383 180.142C279.666 178.543 280.177 178.408 279.441 179.601ZM95.3328 180.537C95.3328 181.027 97.1382 181.428 99.3448 181.428C101.55 181.428 103.356 181.027 103.356 180.537C103.356 180.047 101.55 179.646 99.3448 179.646C97.1382 179.646 95.3328 180.047 95.3328 180.537ZM203.642 181.351C205.603 182.267 208.01 183.664 208.99 184.454C210.026 185.289 208.718 184.96 205.87 183.669C203.174 182.447 199.663 181.443 198.07 181.438C196.476 181.433 195.173 181.027 195.173 180.537C195.173 179.104 199.778 179.546 203.642 181.351ZM158.178 181.428C158.482 181.918 159.332 182.32 160.067 182.32C160.802 182.32 161.156 181.918 160.854 181.428C160.55 180.938 159.7 180.537 158.965 180.537C158.23 180.537 157.876 180.938 158.178 181.428ZM229.323 182.185C224.174 183.823 221.691 185.607 225.927 184.625C233.142 182.95 235.297 182.166 234.816 181.387C234.527 180.92 234.214 180.577 234.121 180.625C234.027 180.673 231.869 181.374 229.323 182.185ZM138.122 182.097C138.122 183.05 143.449 184.42 144.207 183.664C144.935 182.935 143.977 182.377 140.953 181.772C139.282 181.438 138.122 181.571 138.122 182.097ZM118.691 191.987C118.24 202.95 119.851 212.962 123.566 222.274C125.635 227.461 125.788 230.843 123.814 227.757C118.731 219.811 114.797 193.624 117.29 184.326C118.502 179.799 119.066 182.882 118.691 191.987ZM102.464 184.103C102.464 184.593 103.267 184.995 104.247 184.995C105.228 184.995 106.031 184.593 106.031 184.103C106.031 183.612 105.228 183.212 104.247 183.212C103.267 183.212 102.464 183.612 102.464 184.103ZM146.145 184.001C146.145 184.436 148.001 185.07 150.27 185.41C152.539 185.751 154.946 186.24 155.619 186.499C156.291 186.757 156.842 186.557 156.842 186.055C156.842 185.553 154.816 184.708 152.341 184.177C146.884 183.007 146.145 182.985 146.145 184.001ZM182.693 183.569C182.693 183.766 181.354 184.716 179.718 185.682C178.084 186.646 175.676 188.137 174.371 188.992C173.065 189.847 171.996 190.312 171.996 190.023C171.996 189.735 174.097 188.084 176.664 186.356C180.97 183.455 182.693 182.659 182.693 183.569ZM270.93 194.578C270.939 198.895 270.576 201.932 270.054 201.932C269.519 201.932 269.167 198.449 269.175 193.24C269.185 187.3 269.463 184.972 270.054 185.886C270.528 186.621 270.923 190.532 270.93 194.578ZM299.64 188.286C298.646 189.662 295.914 192.593 293.568 194.8C290.197 197.972 290.461 197.546 294.833 192.762C297.873 189.434 300.362 186.258 300.362 185.705C300.362 185.151 300.606 184.942 300.905 185.24C301.203 185.539 300.634 186.909 299.64 188.286ZM190.416 188.945C190.122 189.714 189.166 190.297 188.293 190.239C186.827 190.144 186.831 190.103 188.348 189.713C189.497 189.416 189.847 188.741 189.512 187.459C189.169 186.151 189.308 185.903 189.992 186.589C190.521 187.117 190.712 188.178 190.416 188.945ZM280.087 188.581C281.153 189.575 282.528 190.193 283.142 189.958C283.757 189.723 284.496 189.914 284.786 190.382C285.559 191.632 288.771 191.422 288.786 190.12C288.796 189.366 289.069 189.429 289.63 190.317C290.612 191.87 291.491 191.224 291.673 188.818C291.771 187.511 292.311 187.189 293.891 187.492C298.205 188.316 293.458 192.089 288.076 192.113C283.974 192.131 273.061 186.902 276.999 186.806C277.632 186.79 279.023 187.589 280.087 188.581ZM94.6649 188.353C92.307 188.742 91.9454 190.35 94.2193 190.329C96.1496 190.312 98.4727 188.92 97.4337 188.402C97.0133 188.193 95.7676 188.172 94.6649 188.353ZM228.379 188.259C225.889 189.264 227.535 189.88 231.944 189.592C238.108 189.19 239.742 187.646 233.906 187.739C231.479 187.778 228.992 188.012 228.379 188.259ZM210.66 190.384C212.928 191.389 214.753 192.692 214.714 193.282C214.66 194.107 214.544 194.109 214.211 193.29C213.487 191.51 211.219 193.066 211.219 195.341C211.219 196.514 210.875 197.474 210.456 197.474C210.037 197.474 209.321 198.778 208.866 200.371C206.803 207.577 178.515 208.135 174.93 201.04C173.58 198.368 173.425 193.341 174.67 192.572C175.161 192.268 175.562 192.866 175.562 193.9C175.562 201.888 188.445 207.688 196.678 203.404C201.193 201.056 205.87 194.432 205.87 190.387C205.87 188.16 205.631 188.16 210.66 190.384ZM273.342 192.794C273.118 193.653 272.934 192.95 272.934 191.235C272.934 189.518 273.118 188.817 273.342 189.675C273.566 190.532 273.566 191.936 273.342 192.794ZM302.145 189.084C302.145 189.371 299.674 192.179 296.655 195.323C290.056 202.195 290.741 202.954 297.59 196.36L302.451 191.681L299.464 195.576C295.374 200.911 280.058 211.379 278.578 209.852C277.655 208.9 277.77 206.079 278.745 205.738C279.457 205.49 279.664 205.86 279.318 206.76C278.957 207.701 279.274 208.172 280.27 208.172C281.285 208.172 281.604 207.673 281.267 206.611C280.888 205.416 281.942 204.44 285.769 202.436C288.517 200.997 293.226 197.325 296.233 194.274C302.075 188.347 302.145 188.286 302.145 189.084ZM143.47 190.342C143.47 190.835 145.764 191.228 148.596 191.22C152.234 191.211 153.334 190.956 152.385 190.342C150.619 189.202 143.47 189.202 143.47 190.342ZM97.1154 193.017C97.1154 193.508 97.6943 193.909 98.4006 193.909C99.107 193.909 99.9334 193.508 100.236 193.017C100.539 192.527 99.961 192.126 98.9508 192.126C97.9418 192.126 97.1154 192.527 97.1154 193.017ZM223.699 194.8C223.699 195.29 224.301 195.691 225.036 195.691C225.771 195.691 226.373 195.29 226.373 194.8C226.373 194.31 225.771 193.909 225.036 193.909C224.301 193.909 223.699 194.31 223.699 194.8ZM227.71 194.8C228.014 195.29 231.145 195.664 234.671 195.629C239.081 195.586 240.526 195.327 239.299 194.8C236.735 193.699 227.029 193.699 227.71 194.8ZM100.458 195.837C99.1106 196.329 98.0079 197.099 98.0079 197.548C98.0079 198.615 98.1196 198.601 101.909 197.016C106.912 194.926 105.684 193.928 100.458 195.837ZM183.571 195.915C183.548 197.838 182.046 199.514 180.952 198.837C180.189 198.365 180.321 197.726 181.436 196.495C183.237 194.506 183.59 194.41 183.571 195.915ZM185.454 199.898C184.306 201.872 184.052 199.59 185.118 196.878C185.705 195.387 185.787 195.379 186.069 196.777C186.24 197.62 185.962 199.025 185.454 199.898ZM190.715 197.847C190.715 198.543 190.959 199.745 191.257 200.521C191.645 201.533 191.267 201.932 189.92 201.932C188.427 201.932 188.042 201.383 188.042 199.258C188.042 197.474 188.487 196.583 189.378 196.583C190.115 196.583 190.715 197.152 190.715 197.847ZM305.71 199.867C305.71 200.823 305.23 200.766 303.454 199.602C302.213 198.789 300.997 198.324 300.751 198.571C300.506 198.816 301.322 199.681 302.563 200.494C303.804 201.307 304.819 202.393 304.819 202.907C304.819 203.421 304.198 203.22 303.437 202.46C302.678 201.701 301.393 200.709 300.583 200.255C299.365 199.574 299.308 199.19 300.249 198.056C301.596 196.434 305.71 197.797 305.71 199.867ZM115.443 205.576C115.963 208.974 116.057 211.423 115.651 211.019C115.246 210.613 114.593 207.606 114.199 204.336C113.269 196.615 114.218 197.559 115.443 205.576ZM173.781 204.06C183.628 208.545 197.721 208.973 208.099 205.103C209.524 204.572 209.613 204.631 208.545 205.399C202.966 209.414 185.587 210.778 177.79 207.815C170.128 204.902 161.895 199.834 163.727 199.158C164.691 198.801 166.008 199.208 167.096 200.201C168.078 201.096 171.087 202.832 173.781 204.06ZM221.917 199.166C221.917 199.94 225.201 200.838 233.857 202.431C236.24 202.87 237.143 202.77 236.738 202.115C236.414 201.589 233.848 200.716 231.037 200.173C228.227 199.631 225.025 198.995 223.921 198.759C222.819 198.524 221.917 198.708 221.917 199.166ZM216.088 202.769C216.373 203.23 215.895 203.577 215.027 203.541C214.158 203.505 212.646 203.759 211.664 204.102C210.494 204.514 210.647 204.259 212.11 203.362C214.745 201.745 215.395 201.648 216.088 202.769ZM102.242 204.225C98.9352 206.018 99.0937 207.685 102.408 205.972C105.016 204.623 106.785 202.79 105.414 202.859C105.018 202.878 103.59 203.493 102.242 204.225ZM222.808 204.514C222.808 205.32 223.906 205.814 233.865 209.49C239.201 211.458 241.93 211.843 240.511 210.424C239.481 209.393 222.808 203.827 222.808 204.514ZM284.093 204.329C282.504 204.744 282.1 205.659 283.075 206.633C283.708 207.266 286.99 205.387 286.99 204.392C286.99 203.678 286.616 203.67 284.093 204.329ZM168.798 206.036C169.571 206.333 169.938 207.003 169.616 207.526C169.244 208.126 169.59 208.259 170.559 207.887C171.59 207.492 171.881 207.637 171.451 208.333C171.007 209.05 171.335 209.166 172.518 208.716C173.763 208.241 173.96 208.333 173.246 209.052C172.021 210.288 167.303 208.383 168.159 206.998C168.504 206.44 168.13 206.314 167.193 206.673C166.284 207.021 165.884 206.902 166.208 206.378C166.848 205.344 166.957 205.33 168.798 206.036ZM270.054 207.001C270.054 213.904 262.914 231.407 256.36 240.569C249.602 250.016 232.362 264.493 229.775 262.893C229.317 262.61 231.923 260.423 235.565 258.031C251.678 247.454 265.634 226.473 267.992 209.285C268.493 205.641 270.054 203.91 270.054 207.001ZM150.826 208.515C146.599 210.296 143.075 212.628 144.611 212.628C146.079 212.628 156.842 207.783 156.842 207.122C156.842 206.107 156.176 206.261 150.826 208.515ZM218.554 208.338C218.999 209.671 221.024 210.405 221.024 209.232C221.024 208.754 220.39 208.119 219.613 207.821C218.744 207.487 218.337 207.687 218.554 208.338ZM112.27 209.032C112.27 210.562 106.771 216.207 105.841 215.631C104.617 214.875 103.386 217.011 103.37 219.923C103.348 223.529 95.7736 224.203 94.6073 220.702C94.3874 220.043 94.6229 219.767 95.1346 220.083C95.7136 220.441 95.8697 219.932 95.5526 218.72C95.1598 217.218 95.3616 216.906 96.4535 217.325C97.2631 217.636 98.0691 217.318 98.355 216.575C98.6265 215.867 99.3436 215.391 99.9478 215.517C100.552 215.644 101.114 215.247 101.198 214.634C101.282 214.022 101.4 213.319 101.461 213.074C101.523 212.829 101.595 212.328 101.621 211.96C101.709 210.717 106.093 208.963 107.776 209.497C108.694 209.789 109.704 209.61 110.019 209.099C110.741 207.932 112.27 207.886 112.27 209.032ZM204.978 210.846C204.978 211.336 204.678 211.673 204.311 211.595C203.943 211.518 202.912 211.772 202.022 212.16C201.02 212.596 199.999 212.434 199.347 211.735C198.511 210.837 198.708 210.703 200.299 211.087C201.402 211.353 202.305 211.207 202.305 210.763C202.305 210.318 202.906 209.954 203.642 209.954C204.377 209.954 204.978 210.356 204.978 210.846ZM210.706 211.623C209.763 212.541 208.635 213.086 208.201 212.834C207.768 212.581 208.369 211.844 209.538 211.196C212.457 209.578 212.713 209.672 210.706 211.623ZM223.816 210.752C224.005 211.321 225.913 212.831 228.055 214.109C230.196 215.386 231.794 215.965 231.604 215.397C231.414 214.828 229.507 213.317 227.365 212.04C225.224 210.763 223.627 210.184 223.816 210.752ZM183.017 212.178C182.736 212.911 182.147 213.288 181.709 213.016C180.45 212.239 180.778 210.846 182.219 210.846C183.014 210.846 183.328 211.368 183.017 212.178ZM154.168 214.114C149.243 217.01 149.294 216.967 149.937 217.61C150.503 218.175 158.3 213.875 159.123 212.544C159.987 211.145 158.313 211.675 154.168 214.114ZM215.702 212.406C215.744 213.473 226.399 220.923 227.01 220.312C227.314 220.008 227.394 219.655 227.19 219.528C226.986 219.401 225.137 217.996 223.083 216.408C221.028 214.819 218.922 213.52 218.403 213.52C217.883 213.52 217.459 213.12 217.459 212.628C217.459 212.138 217.058 211.737 216.568 211.737C216.078 211.737 215.687 212.038 215.702 212.406ZM282.856 213.074C282.574 213.81 282.786 214.412 283.329 214.412C283.872 214.412 284.323 213.91 284.33 213.297C284.339 212.542 284.648 212.614 285.29 213.52C286.064 214.616 286.323 214.639 286.72 213.642C287.13 212.619 287.324 212.619 287.955 213.637C288.566 214.628 288.912 214.579 289.852 213.368C290.921 211.993 291.203 212 293.863 213.464L296.723 215.039L294.267 217.392C292.917 218.686 289.925 220.387 287.619 221.172C282.831 222.805 282.146 224.217 286.144 224.217C289.968 224.217 293.454 222.185 295.974 218.485C298.493 214.787 300.421 214.129 298.117 217.755C295.415 222.008 292.969 224.234 290.211 224.949C286.799 225.833 282.533 225.22 282.533 223.847C282.533 223.265 280.528 221.941 278.076 220.906C270.337 217.635 272.587 213.244 282.729 211.827C283.081 211.778 283.138 212.339 282.856 213.074ZM116.353 227.969C115.484 228.547 113.562 228.333 109.346 227.186C108.076 226.841 107.869 226.165 108.311 223.811C108.679 221.845 108.452 220.487 107.627 219.715C106.587 218.744 106.886 218.108 109.515 215.699L112.638 212.836L114.969 220.087C116.538 224.967 116.989 227.544 116.353 227.969ZM164.419 213.63C163.929 214.132 161.722 216.077 159.515 217.953C157.31 219.828 155.74 221.605 156.027 221.9C156.588 222.479 166.492 214.411 166.589 213.297C166.671 212.36 165.481 212.543 164.419 213.63ZM169.804 215.417C167.774 217.569 167.496 218.291 168.468 218.893C169.477 219.516 169.399 219.98 168.034 221.488C167.119 222.499 166.801 223.326 167.324 223.326C168.468 223.326 175.081 214.525 174.428 213.873C174.178 213.623 173.083 214.667 171.996 216.195C170.909 217.721 169.793 218.746 169.518 218.471C169.243 218.196 169.956 216.971 171.105 215.749C172.253 214.527 173.006 213.342 172.779 213.115C172.552 212.888 171.213 213.924 169.804 215.417ZM201.753 215.795C202.045 216.556 201.921 216.955 201.479 216.681C201.036 216.407 200.512 216.667 200.315 217.258C200.093 217.924 199.73 217.739 199.358 216.771C199 215.838 199.113 215.429 199.64 215.755C200.126 216.054 200.522 215.875 200.522 215.355C200.522 213.98 201.142 214.201 201.753 215.795ZM192.926 220.205C193.129 223.147 193.317 226.657 193.342 228.006C193.369 229.354 193.753 230.458 194.196 230.458C195.111 230.458 194.522 221.576 193.339 217.532C192.744 215.502 192.645 216.145 192.926 220.205ZM209.472 215.763C209.533 217.247 214.707 222.808 215.39 222.126C215.744 221.773 214.548 219.999 212.735 218.185C210.921 216.371 209.452 215.282 209.472 215.763ZM194.371 217.256C194.637 220.754 195.885 222.917 195.975 220.036C196.025 218.471 195.663 216.943 195.173 216.64C194.683 216.338 194.321 216.614 194.371 217.256ZM120.23 223.772C120.23 224.262 119.657 223.66 118.956 222.435C118.255 221.208 117.682 219.804 117.682 219.314C117.682 218.824 118.255 219.426 118.956 220.651C119.657 221.878 120.23 223.282 120.23 223.772ZM209.436 219.249C209.436 220.314 218.503 233.132 219.256 233.132C220.641 233.132 220.424 232.735 215.125 225.607C210.528 219.421 209.436 218.201 209.436 219.249ZM219.242 222.881C221.407 225.086 223.58 226.891 224.07 226.891C224.56 226.891 223.19 225.086 221.024 222.881C218.86 220.674 216.687 218.869 216.196 218.869C215.706 218.869 217.077 220.674 219.242 222.881ZM98.3922 224.456C101.436 225.001 105.138 223.568 105.138 221.845C105.138 221.189 105.539 220.651 106.031 220.651C108.06 220.651 106.705 223.278 103.787 224.999C99.9946 227.236 92.5268 225.329 91.901 221.964C91.5862 220.268 91.6487 220.273 93.6763 222.097C94.8331 223.139 96.9544 224.199 98.3922 224.456ZM162.252 223.708C160.637 225.374 159.471 227.202 159.661 227.771C159.849 228.339 161.339 227.144 162.97 225.115C166.655 220.529 166.2 219.635 162.252 223.708ZM204.993 221.342C204.97 223.183 211.459 235.458 211.852 234.32C212.049 233.747 211 230.938 209.523 228.079C206.105 221.468 205.011 219.84 204.993 221.342ZM228.156 221.344C228.156 222.169 230.356 224.315 232.39 225.472C234.69 226.78 233.396 224.262 230.831 222.435C229.359 221.387 228.156 220.896 228.156 221.344ZM173.906 227.912C172.331 231.415 171.193 234.724 171.38 235.266C171.644 236.038 178.236 223.153 178.236 221.863C178.236 219.95 176.218 222.768 173.906 227.912ZM151.649 224.497C150.582 225.632 149.71 226.866 149.71 227.24C149.71 228.095 154.942 224.011 155.01 223.103C155.105 221.816 153.569 222.453 151.649 224.497ZM142.879 226.223C142.497 226.836 142.094 227.939 141.987 228.674C141.666 230.869 135.339 235.672 130.216 237.613C127.584 238.61 123.759 240.794 121.718 242.467C119.678 244.139 116.885 245.935 115.512 246.457C113.32 247.29 112.556 249.852 114.61 249.482C115.04 249.405 116.156 249.205 117.091 249.037C118.308 248.818 118.98 249.416 119.453 251.139C120.329 254.323 119.088 254.669 113.83 252.71C111.216 251.736 109.793 251.526 110.11 252.16C110.392 252.726 109.79 252.241 108.772 251.085C106.435 248.426 106.419 244.745 108.723 240.227C110.423 236.894 111.794 235.387 110.922 237.811C110.701 238.425 111.89 239.605 113.566 240.437C115.795 241.544 116.717 241.663 117.004 240.883C117.304 240.067 117.674 240.079 118.577 240.931C119.912 242.191 121.185 242.393 121.185 241.347C121.185 240.962 119.986 239.94 118.521 239.074C115.967 237.565 115.881 237.566 116.416 239.105C116.876 240.424 116.604 240.356 114.88 238.712C112.413 236.363 112.762 235.932 119.366 233.171C122.593 231.823 124.347 231.474 124.566 232.135C124.749 232.684 125.31 233.132 125.811 233.132C126.313 233.132 126.512 232.58 126.253 231.905C125.975 231.181 126.682 230.269 127.983 229.677C131.178 228.221 131.459 228.436 129.083 230.519L126.978 232.364L129.43 231.839C130.844 231.536 131.882 231.7 131.882 232.223C131.882 232.723 132.446 233.132 133.136 233.132C133.95 233.132 134.225 232.507 133.923 231.349C133.662 230.352 133.895 229.566 134.452 229.566C134.999 229.566 135.447 229.138 135.447 228.614C135.447 228.042 134.647 227.904 133.442 228.269C131.807 228.763 131.641 228.658 132.548 227.707C133.161 227.064 135.166 226.581 137.006 226.633C138.845 226.686 140.952 226.377 141.687 225.946C143.506 224.881 143.691 224.924 142.879 226.223ZM203.787 234.472C205.511 239.622 207.275 243.617 207.706 243.35C208.138 243.084 207.756 240.977 206.858 238.667C205.961 236.358 204.536 232.363 203.693 229.789C202.851 227.214 201.822 225.109 201.406 225.109C200.99 225.109 202.062 229.323 203.787 234.472ZM105.807 227.957C105.676 228.579 107.315 229.354 109.756 229.825C114.512 230.74 116.007 232.771 112.816 233.984C111.664 234.423 109.936 235.78 108.975 237.001C107.77 238.533 106.844 238.983 105.985 238.452C105.26 238.004 104.52 238.041 104.211 238.539C103.919 239.01 102.104 237.959 100.176 236.203C98.2481 234.446 97.1718 233.261 97.7844 233.569C99.2211 234.291 99.1646 233.111 97.6679 231.14C97.0217 230.29 96.2325 229.855 95.913 230.174C95.5946 230.494 95.3328 230.311 95.3328 229.771C95.3328 229.213 96.8343 228.807 98.7922 228.834C100.695 228.86 103.002 228.446 103.919 227.914C106.038 226.682 106.074 226.682 105.807 227.957ZM190.715 232.633C190.715 235.936 191.103 238.481 191.608 238.481C192.102 238.481 192.499 236.12 192.499 233.184C192.499 230.272 192.098 227.64 191.608 227.337C191.048 226.991 190.715 228.962 190.715 232.633ZM179.756 229.284C179.35 229.954 176.454 239.333 176.454 239.98C176.454 242.19 178.354 239.005 179.524 234.835C180.875 230.018 180.992 227.246 179.756 229.284ZM270.945 229.566C270.945 230.056 271.547 230.458 272.282 230.458C273.017 230.458 273.619 230.056 273.619 229.566C273.619 229.075 273.017 228.674 272.282 228.674C271.547 228.674 270.945 229.075 270.945 229.566ZM184.996 231.571C183.975 236.627 183.764 240.263 184.492 240.263C185.199 240.263 185.667 238.357 186.621 231.571C186.775 230.469 186.565 229.566 186.152 229.566C185.739 229.566 185.219 230.469 184.996 231.571ZM196.372 231.126C196.607 231.984 197.054 234.19 197.364 236.029C197.674 237.867 198.338 239.372 198.839 239.372C199.34 239.372 199.557 238.669 199.322 237.811C199.087 236.954 198.641 234.747 198.331 232.908C198.02 231.07 197.357 229.566 196.856 229.566C196.354 229.566 196.136 230.268 196.372 231.126ZM285.654 232.24C285.956 232.73 286.783 233.132 287.489 233.132C288.195 233.132 288.773 232.73 288.773 232.24C288.773 231.75 287.948 231.349 286.938 231.349C285.929 231.349 285.35 231.75 285.654 232.24ZM274.51 232.932C274.51 234.113 277.941 234.963 278.574 233.939C278.848 233.496 278.681 233.132 278.201 233.132C277.722 233.132 276.696 232.888 275.92 232.591C275.145 232.293 274.51 232.447 274.51 232.932ZM271.836 235.805C273.565 236.923 274.51 236.923 274.51 235.805C274.51 235.315 273.608 234.92 272.505 234.929C270.882 234.939 270.755 235.108 271.836 235.805ZM286.99 236.697C288.735 237.825 290.556 237.825 290.556 236.697C290.556 236.207 289.453 235.811 288.105 235.82C286.194 235.831 285.948 236.024 286.99 236.697ZM140.226 238.035C140.911 239.819 142.539 239.725 144.106 237.811C146.319 235.112 144.311 238.55 138.377 247.617C132.47 256.644 131.907 257.151 130.151 255.034C129.304 254.014 129.46 253.562 130.933 252.774C132.331 252.025 132.773 252.054 132.773 252.89C132.773 253.721 133.046 253.701 133.888 252.81C134.7 251.95 134.725 251.527 133.981 251.252C133.422 251.044 133.168 250.085 133.42 249.121C133.741 247.896 133.512 247.503 132.658 247.817C128.458 249.363 128.926 246.401 133.634 241.632C138.896 236.304 139.447 236.002 140.226 238.035ZM277.631 237.589C277.933 238.079 278.783 238.481 279.519 238.481C280.254 238.481 280.607 238.079 280.305 237.589C280.002 237.098 279.151 236.697 278.416 236.697C277.681 236.697 277.327 237.098 277.631 237.589ZM191.381 239.951C191.018 240.514 190.75 241.918 190.786 243.07C190.822 244.223 190.57 247.417 190.225 250.169C189.769 253.828 189.907 255.362 190.739 255.878C192.454 256.937 194.482 253.642 193.768 250.96C193.441 249.735 192.92 246.525 192.607 243.828C192.295 241.132 191.744 239.387 191.381 239.951ZM269.162 240.201C269.162 241.037 271.943 242.937 273.167 242.937C274.151 242.937 272.684 241.194 270.896 240.237C269.764 239.631 269.162 239.618 269.162 240.201ZM264.705 241.06C264.705 241.497 265.339 242.099 266.115 242.396C268.295 243.232 268.583 243.051 267.378 241.6C266.15 240.118 264.705 239.826 264.705 241.06ZM180.998 243.962C179.535 248.157 179.74 250.252 181.579 249.903C182.754 249.681 183.205 248.565 183.411 245.38C183.721 240.556 182.446 239.807 180.998 243.962ZM278.076 241.588C278.076 241.975 284.032 244.72 284.87 244.72C286.35 244.72 284.634 243.088 282.247 242.225C279.034 241.063 278.076 240.917 278.076 241.588ZM200.213 242.937C198.3 248.908 199.363 253.86 201.857 250.593C203.127 248.929 202.928 245.899 201.353 242.937C200.72 241.749 200.594 241.749 200.213 242.937ZM127.79 244.591C128.646 245.975 123.965 249.64 122.813 248.488C122.044 247.719 122.324 247.022 123.939 245.677C126.33 243.685 127.097 243.469 127.79 244.591ZM265.596 245.166C266.206 245.902 267.107 246.503 267.597 246.503C268.094 246.503 267.998 245.911 267.378 245.166C266.768 244.43 265.869 243.828 265.377 243.828C264.88 243.828 264.977 244.42 265.596 245.166ZM277.185 244.717C277.185 245.797 279.685 246.974 280.42 246.239C280.685 245.974 280.067 245.308 279.043 244.76C277.754 244.071 277.185 244.058 277.185 244.717ZM270.945 245.153C270.945 245.906 278.092 250.351 278.556 249.886C278.801 249.642 277.466 248.38 275.592 247.081C272.308 244.805 270.945 244.239 270.945 245.153ZM264.705 247.052C264.705 248.204 269.89 253.204 270.476 252.617C270.719 252.374 269.52 250.82 267.811 249.164C266.103 247.509 264.705 246.559 264.705 247.052ZM129.704 249.55C130.655 250.245 131.133 251.115 130.766 251.481C130.399 251.849 130.097 251.581 130.093 250.885C130.091 250.191 129.477 250.795 128.73 252.228C127.408 254.76 127.991 256.248 130.321 256.296C130.689 256.303 130.99 256.71 130.99 257.2C130.99 258.575 127.777 258.255 126.533 256.754C125.923 256.019 125.753 255.417 126.157 255.417C126.559 255.417 126.408 254.936 125.82 254.347C124.273 252.801 124.503 251.427 126.087 252.744C126.93 253.443 127.424 253.503 127.424 252.905C127.424 252.383 127.041 251.72 126.572 251.429C125.662 250.867 126.301 248.286 127.35 248.286C127.693 248.286 128.753 248.855 129.704 249.55ZM151.893 257.732C155.907 260.398 158.415 264.082 154.774 261.966C147.654 257.827 138.771 250.291 139.541 249.044C139.823 248.587 141.613 249.622 143.517 251.342C145.422 253.062 149.19 255.938 151.893 257.732ZM264.264 251.857C265.154 252.841 266.075 253.452 266.312 253.216C266.911 252.616 264.688 250.069 263.566 250.069C263.06 250.069 263.374 250.873 264.264 251.857ZM125.607 257.269C128.432 259.957 129.166 261.164 128.426 261.904C127.875 262.455 127.434 263.527 127.445 264.287C127.46 265.355 127.814 265.246 129.005 263.805C132.163 259.983 135.969 259.353 138.502 262.233C141.487 265.628 141.509 265.582 135.893 267.492C133.197 268.408 130.99 269.391 130.99 269.675C130.99 269.959 130.087 270.256 128.984 270.334C127.882 270.412 125.681 270.715 124.094 271.008C116.484 272.41 113.441 262.208 119.536 255.72C121.918 253.184 121.091 252.973 125.607 257.269ZM262.941 254.132C262.915 255.421 265.34 258.645 265.908 258.077C266.159 257.825 265.599 256.622 264.664 255.404C263.727 254.185 262.952 253.613 262.941 254.132ZM277.566 254.991C279.398 256.377 280.421 256.156 279.449 254.585C279.126 254.063 278.184 253.647 277.354 253.663C276.032 253.688 276.057 253.85 277.566 254.991ZM273.786 256.364C274.001 257.008 274.702 257.709 275.346 257.924C276.015 258.148 276.349 257.813 276.126 257.145C275.912 256.501 275.209 255.799 274.566 255.584C273.897 255.361 273.563 255.696 273.786 256.364ZM120.293 258.15C120.293 258.673 120.708 259.876 121.216 260.824C121.891 262.088 121.851 262.549 121.06 262.549C120.468 262.549 120.924 263.552 122.076 264.777C124.541 267.401 125.249 267.532 126.027 265.504C126.403 264.524 125.816 263.27 124.339 261.902C123.095 260.747 122.076 259.217 122.076 258.501C122.076 257.786 121.675 257.2 121.185 257.2C120.694 257.2 120.293 257.628 120.293 258.15ZM147.628 265.904C145.816 267.717 141.687 264.995 141.687 261.988V259.849L145.297 262.238C148.431 264.311 148.738 264.795 147.628 265.904ZM160.309 263.744C159.489 265.545 159.497 266.354 160.345 267.377C161.228 268.441 160.9 269.815 158.624 274.585L155.811 280.479L152.797 277.283L149.783 274.088L153.484 268.694C158.429 261.488 162.773 258.339 160.309 263.744ZM242.708 266.655C238.533 269.938 236.586 270.536 235.535 268.854C234.685 267.494 235.198 266.841 239.151 264.24L243.756 261.212L244.045 263.294C244.216 264.521 243.668 265.899 242.708 266.655ZM225.482 265.115C225.482 266.213 216.417 269.455 208.99 271.014C201.818 272.519 190.715 272.792 190.715 271.463C190.715 270.961 193.222 270.572 196.452 270.572C202.893 270.572 211.913 268.849 219.242 266.221C224.98 264.162 225.482 264.073 225.482 265.115ZM173.954 267.885C177.237 268.795 182.15 269.819 184.874 270.159C189.956 270.794 191.759 272.366 187.374 272.339C180.988 272.299 163.627 267.395 164.554 265.894C164.825 265.458 165.706 265.355 166.515 265.666C167.323 265.976 170.671 266.975 173.954 267.885ZM249.562 266.634C249.583 269.432 250.592 272.366 251.369 271.887C251.768 271.641 251.734 270.186 251.296 268.656C250.317 265.245 249.547 264.346 249.562 266.634ZM256.682 265.713C256.682 266.901 259.537 271.58 259.987 271.129C260.671 270.446 258.44 265.223 257.465 265.223C257.034 265.223 256.682 265.444 256.682 265.713ZM233.505 272.494C233.505 272.873 232.747 273.588 231.822 274.084C229.86 275.134 228.336 270.685 230.243 269.476C231.214 268.861 233.505 270.98 233.505 272.494ZM147.747 272.567C146.833 273.21 146.825 273.476 147.704 273.834C148.318 274.083 148.819 274.823 148.819 275.48C148.819 276.137 149.858 277.909 151.126 279.417C152.396 280.926 153.296 282.16 153.126 282.16C152.957 282.16 151.518 282.533 149.929 282.989C145.853 284.157 144.178 282.299 144.449 276.911C144.726 271.389 145.825 269.198 147.586 270.658C148.649 271.541 148.681 271.909 147.747 272.567ZM247.22 273.404C248.188 278.249 249.634 278.304 248.898 273.469C248.655 271.875 248.051 270.572 247.555 270.572C247.017 270.572 246.882 271.715 247.22 273.404ZM226.311 275.554C226.467 277.978 222.103 278.568 221.509 276.204C221.195 274.951 221.058 273.833 221.204 273.718C224.294 271.291 226.076 271.933 226.311 275.554ZM171.161 274.682C173.082 275.105 173.388 275.588 173.077 277.709L172.706 280.234L169.008 278.954C166.975 278.25 164.791 277.486 164.158 277.255C162.005 276.476 164.691 272.985 166.946 273.629C168.008 273.933 169.905 274.406 171.161 274.682ZM220.07 277.087C220.01 278.971 219.98 278.977 219.242 277.258C218.187 274.804 218.187 273.932 219.242 274.583C219.732 274.887 220.105 276.013 220.07 277.087ZM243.31 275.921C243.31 276.901 243.711 277.703 244.201 277.703C244.693 277.703 245.093 276.901 245.093 275.921C245.093 274.939 244.693 274.137 244.201 274.137C243.711 274.137 243.31 274.939 243.31 275.921ZM216.076 277.396C216.739 280.034 215.575 281.232 212.333 281.255C211.19 281.263 210.327 280.726 210.327 280.005C210.327 279.309 210.096 278.136 209.812 277.396C209.443 276.435 210.014 275.945 211.817 275.675C213.204 275.466 214.596 275.236 214.911 275.163C215.226 275.088 215.75 276.094 216.076 277.396ZM177.067 280.155C176.844 281.013 176.66 280.31 176.66 278.595C176.66 276.878 176.844 276.177 177.067 277.034C177.292 277.892 177.292 279.296 177.067 280.155ZM179.174 279.976C178.743 281.422 178.355 281.936 178.313 281.118C178.227 279.458 179.179 276.566 179.654 277.04C179.822 277.21 179.607 278.53 179.174 279.976ZM208.735 279.486C209.029 281.49 208.774 282.163 207.722 282.172C206.948 282.179 205.413 282.426 204.311 282.722C202.045 283.329 201.202 278.297 203.419 277.402C206.562 276.133 208.345 276.834 208.735 279.486ZM190.003 278.465C189.365 278.87 188.777 280.085 188.696 281.166C188.46 284.299 184.123 283.413 183.748 280.155C183.479 277.814 183.639 277.703 187.314 277.717C189.681 277.725 190.715 278.013 190.003 278.465ZM197.306 279.114C198.476 282.161 197.893 283.051 194.727 283.051C191.855 283.051 191.608 282.84 191.608 280.377C191.608 277.327 196.228 276.303 197.306 279.114ZM227.264 281.58C227.264 282.778 218.485 286.157 217.619 285.291C216.929 284.602 217.532 284.225 222.373 282.314C224.819 281.349 226.92 280.519 227.042 280.469C227.165 280.418 227.264 280.918 227.264 281.58ZM129.858 281.808C129.5 282.165 129.208 283.073 129.208 283.825C129.208 284.828 129.471 284.927 130.199 284.199C130.744 283.654 131.037 282.746 130.849 282.183C130.661 281.618 130.214 281.45 129.858 281.808ZM231.24 284.525C228.778 286.326 227.658 285.97 229.475 283.964C230.351 282.995 231.477 282.454 231.975 282.763C232.516 283.097 232.218 283.81 231.24 284.525ZM170.08 284.03C171.623 284.568 172.887 285.371 172.887 285.813C172.887 286.889 172.467 286.837 168.848 285.326C163.911 283.263 164.899 282.223 170.08 284.03ZM133.314 285.353C132.538 287.377 132.647 288.583 133.557 288.02C134.614 287.367 135.464 283.944 134.568 283.944C134.176 283.944 133.611 284.578 133.314 285.353ZM237.572 286.509C236.842 287.921 235.537 289.347 234.673 289.679C233.423 290.159 233.507 289.85 235.085 288.169C236.177 287.008 237.07 285.581 237.07 284.999C237.07 284.418 237.482 283.944 237.985 283.944C238.514 283.944 238.339 285.023 237.572 286.509ZM163.727 286.324C163.948 286.989 163.407 287.194 162.241 286.889C161.233 286.625 160.408 286.025 160.408 285.557C160.408 284.374 163.3 285.043 163.727 286.324ZM207.208 286.617C207.511 287.108 207.189 287.509 206.493 287.509C205.798 287.509 203.366 287.763 201.091 288.076C198.39 288.446 196.956 288.311 196.956 287.687C196.956 286.819 199.335 286.261 204.703 285.869C205.777 285.79 206.904 286.127 207.208 286.617ZM185.368 287.509C185.368 287.999 184.79 288.4 184.082 288.4C183.376 288.4 182.551 287.999 182.247 287.509C181.944 287.019 182.522 286.617 183.532 286.617C184.541 286.617 185.368 287.019 185.368 287.509ZM191.608 287.509C191.608 287.999 190.628 288.4 189.431 288.4C188.235 288.4 187.007 287.999 186.705 287.509C186.383 286.989 187.29 286.617 188.88 286.617C190.38 286.617 191.608 287.019 191.608 287.509ZM220.1 288.365C218.146 289.51 211.095 290.214 211.721 289.201C212.003 288.745 212.58 288.585 213.001 288.846C213.424 289.108 214.022 288.913 214.33 288.414C214.637 287.916 216.371 287.521 218.18 287.536C220.558 287.556 221.09 287.785 220.1 288.365ZM175.115 289.291C175.419 289.781 174.842 290.183 173.831 290.183C172.822 290.183 171.996 289.781 171.996 289.291C171.996 288.801 172.574 288.4 173.28 288.4C173.987 288.4 174.813 288.801 175.115 289.291ZM204.463 290.07C204.978 290.905 198.7 292.223 197.92 291.444C197.19 290.714 199.866 289.32 202.03 289.306C203.103 289.297 204.199 289.642 204.463 290.07ZM166.647 291.074C166.647 291.565 165.822 291.966 164.811 291.966C163.802 291.966 163.225 291.565 163.527 291.074C163.83 290.584 164.657 290.183 165.363 290.183C166.069 290.183 166.647 290.584 166.647 291.074ZM188.487 291.074C188.798 291.578 188.068 291.966 186.81 291.966C185.584 291.966 184.333 291.565 184.031 291.074C183.72 290.571 184.449 290.183 185.708 290.183C186.934 290.183 188.184 290.584 188.487 291.074ZM196.926 292.828C199.413 295.259 200.801 299.034 198.739 297.76C198.248 297.457 197.847 296.661 197.847 295.989C197.847 295.319 196.779 293.929 195.475 292.902L193.101 291.035L191.02 292.99C188.602 295.261 189.011 296.544 191.449 294.338C193.66 292.338 193.839 292.395 196.602 296.018C198.485 298.488 198.778 299.415 197.937 300.252C197.096 301.09 196.476 300.836 195.114 299.097C193.389 296.896 193.352 296.89 192.079 298.651C191.369 299.632 190.43 300.836 189.99 301.326C189.511 301.861 189.656 302.931 190.351 304C191.433 305.66 191.302 305.787 188.44 305.85C186.235 305.898 185.35 305.521 185.305 304.513C185.26 303.49 185.035 303.592 184.476 304.891C183.887 306.263 183.696 306.34 183.648 305.224C183.613 304.425 184.264 303.222 185.093 302.549C186.117 301.718 186.386 301.683 185.932 302.44C184.941 304.09 186.736 303.792 188.156 302.072C189.109 300.917 189.133 300.508 188.265 300.215C186.319 299.56 187.046 295.293 189.545 292.684C192.565 289.532 193.573 289.551 196.926 292.828ZM222.808 291.074C222.808 291.565 222.005 291.966 221.024 291.966C220.044 291.966 219.242 291.565 219.242 291.074C219.242 290.584 220.044 290.183 221.024 290.183C222.005 290.183 222.808 290.584 222.808 291.074ZM212.789 292.578C211.937 292.801 210.332 292.81 209.223 292.596C208.115 292.383 208.811 292.201 210.773 292.191C212.735 292.18 213.642 292.356 212.789 292.578ZM156.558 296.954C157.072 298.584 155.399 299.911 153.467 299.405C151.499 298.89 150.646 296.423 152.437 296.423C152.957 296.423 153.137 296.028 152.838 295.544C152.493 294.985 153.026 294.936 154.299 295.405C155.401 295.814 156.419 296.511 156.558 296.954ZM180.464 296.423C181.666 296.939 181.811 297.214 180.91 297.265C180.118 297.311 179.937 297.608 180.464 297.996C180.954 298.357 181.417 299.976 181.493 301.595L181.628 304.538L179.264 303.039C177.963 302.215 175.896 300.64 174.67 299.539C173.445 298.437 171.84 297.688 171.105 297.872C170.369 298.055 170.971 297.622 172.442 296.908C175.459 295.446 177.853 295.301 180.464 296.423ZM212.11 296.395C212.11 296.87 212.671 297.043 213.357 296.78C214.043 296.517 214.831 296.668 215.107 297.115C215.878 298.363 213.944 304.448 212.852 304.21C212.321 304.095 211.685 304.557 211.437 305.239C211.13 306.087 211.375 306.256 212.217 305.777C213.067 305.293 213.172 305.369 212.556 306.024C212.066 306.547 209.658 307.218 207.208 307.517C203.411 307.981 202.999 307.892 204.43 306.923C209.088 303.762 214.785 298.956 214.785 298.185C214.785 296.617 213.381 297.266 210.717 300.065C206.034 304.985 204.978 305.092 204.978 300.645V296.781L208.321 297.004C211.527 297.217 211.554 297.196 208.99 296.484L206.315 295.743L209.213 295.637C210.807 295.58 212.11 295.921 212.11 296.395ZM231.722 297.367C231.722 297.886 232.184 298.025 232.751 297.675C233.374 297.29 233.538 297.429 233.168 298.029C232.832 298.574 231.967 298.794 231.248 298.518C229.77 297.951 229.466 296.423 230.831 296.423C231.321 296.423 231.722 296.848 231.722 297.367ZM168.431 298.613C168.431 298.226 168.678 298.157 168.982 298.46C169.286 298.764 168.928 299.618 168.188 300.358C166.988 301.558 166.797 301.466 166.421 299.502C166.081 297.72 166.232 297.492 167.215 298.308C167.883 298.861 168.431 298.999 168.431 298.613ZM194.282 301.898C194.282 303.679 193.903 304.455 193.167 304.186C192.554 303.962 192.21 303.225 192.402 302.551C192.594 301.878 192.719 300.615 192.679 299.747C192.64 298.878 192.983 298.4 193.445 298.685C193.905 298.969 194.282 300.416 194.282 301.898ZM219.746 299.193C220.139 299.828 220.554 299.863 220.914 299.291C221.266 298.729 221.847 298.81 222.496 299.509C223.293 300.369 222.962 300.629 221.007 300.686C219.595 300.726 218.279 300.198 218.004 299.481C217.43 297.986 218.855 297.75 219.746 299.193ZM176.99 303.269C179.002 304.896 181.084 306.228 181.617 306.228C182.152 306.228 182.874 306.691 183.222 307.257C183.688 308.008 182.809 308.102 179.932 307.604C177.774 307.23 175.539 306.901 174.969 306.873C173.692 306.812 171.782 302.84 172.482 301.705C172.763 301.252 172.568 300.881 172.049 300.881C171.53 300.881 171.105 300.455 171.105 299.936C171.105 298.783 172.251 299.433 176.99 303.269ZM184.87 301.253C183.004 302.619 182.157 302.469 183.102 300.939C183.425 300.417 184.344 299.989 185.144 299.989C186.361 299.989 186.317 300.196 184.87 301.253ZM202.323 303.13C202.942 303.878 203.202 304.738 202.898 305.04C202.595 305.344 202.093 304.933 201.784 304.127C201.476 303.323 200.815 302.663 200.317 302.663C199.718 302.663 199.71 303.04 200.291 303.778C202.541 306.629 201.258 307.624 195.024 307.857C191.674 307.983 188.933 307.768 188.932 307.38C188.932 306.992 191.345 306.748 194.296 306.837C197.431 306.933 199.448 306.655 199.148 306.169C198.866 305.712 198.056 305.337 197.35 305.337C195.774 305.337 195.639 302.984 197.179 302.362C199.316 301.499 201.203 301.781 202.323 303.13ZM170.659 304.446C170.962 304.936 170.408 305.337 169.426 305.337C168.446 305.337 167.396 304.936 167.093 304.446C166.79 303.956 167.345 303.554 168.325 303.554C169.305 303.554 170.356 303.956 170.659 304.446ZM218.796 304.446C218.493 304.936 217.667 305.337 216.96 305.337C216.254 305.337 215.676 304.936 215.676 304.446C215.676 303.956 216.502 303.554 217.512 303.554C218.521 303.554 219.099 303.956 218.796 304.446ZM157.64 308.089C159.652 308.692 161.299 309.566 161.299 310.031C161.299 310.496 160.723 310.656 160.017 310.384C159.312 310.114 157.106 309.455 155.114 308.918C153.123 308.382 151.493 307.515 151.493 306.991C151.493 306.466 152.054 306.254 152.737 306.515C153.422 306.778 155.628 307.486 157.64 308.089ZM234.396 306.927C234.396 307.896 226.663 310.679 225.95 309.966C225.509 309.526 229.488 307.75 234.174 306.298C234.296 306.26 234.396 306.543 234.396 306.927ZM150.529 314.506C149.523 318.012 149.44 318.063 146.67 316.8C144.389 315.761 144.043 312.65 145.865 309.558C147.094 307.473 151.274 311.908 150.529 314.506ZM182.47 312.404C185.429 312.5 184.914 314.251 181.926 314.251C176.83 314.251 171.105 313.093 171.105 312.061C171.105 311.297 172.397 311.189 175.784 311.672C178.359 312.038 181.368 312.368 182.47 312.404ZM241.527 312.565C241.527 313.965 241.924 314.304 243.088 313.899C244.151 313.529 243.973 313.929 242.529 315.153C240.515 316.86 236.431 318.407 235.802 317.702C234.039 315.719 234.623 313.57 237.286 312.245C241.138 310.328 241.527 310.357 241.527 312.565ZM215.676 312.347C215.676 313.175 209.305 314.251 204.409 314.251C200.572 314.251 200.497 312.696 204.311 312.222C209.939 311.523 215.676 311.587 215.676 312.347ZM159.079 314.442C162.159 315.266 162.99 315.852 162.557 316.894C162.245 317.647 161.786 318.965 161.539 319.823C161.018 321.636 160.288 321.711 155.656 320.425C153.172 319.736 152.383 319.11 152.759 318.129C153.043 317.387 153.276 316.011 153.276 315.07C153.276 313.061 153.73 313.011 159.079 314.442ZM233.006 316.585C233.688 319.308 233.888 319.056 230.028 320.359C225.709 321.819 225.007 321.67 223.809 319.039C222.545 316.266 222.351 316.502 226.819 315.354C232.102 313.994 232.368 314.047 233.006 316.585ZM171.775 317.663C172.578 318.172 172.15 318.919 170.251 320.323C166.582 323.036 165.651 322.841 166.781 319.6C167.703 316.957 169.541 316.244 171.775 317.663ZM218.526 319.052C219.811 321.35 218.714 323.687 217.012 322.274C216.288 321.673 215.942 320.782 216.243 320.296C216.575 319.757 217.091 319.885 217.556 320.62C217.978 321.284 218.323 321.427 218.323 320.937C218.323 320.447 217.935 319.444 217.459 318.709C216.831 317.737 216.59 317.69 216.581 318.538C216.574 319.192 216.115 319.426 215.538 319.069C214.9 318.675 214.751 318.825 215.145 319.462C216.054 320.933 214.317 320.739 213.064 319.229C212.231 318.226 212.345 317.892 213.624 317.607C216.258 317.017 217.609 317.416 218.526 319.052ZM178.236 320.937C178.236 323.61 177.948 324.042 176.23 323.952C173.598 323.814 168.526 322.517 170.085 322.38C170.749 322.322 172.485 321.272 173.942 320.046C177.475 317.073 178.236 317.231 178.236 320.937ZM214.869 322.38C216.275 322.499 211.634 323.789 209.213 323.952C208.001 324.034 207.654 323.353 207.654 320.893V317.726L210.635 320C212.275 321.252 214.18 322.322 214.869 322.38ZM190.146 320.042C190.428 320.78 190.192 321.383 189.619 321.383C188.839 321.383 188.846 321.653 189.646 322.453C191.471 324.278 190.848 324.86 187.221 324.715L183.727 324.575L186.33 322.992C190.134 320.679 189.926 318.529 186.097 320.579C184.69 321.331 183.973 321.263 182.99 320.279C181.881 319.17 182.234 318.981 185.672 318.852C188.476 318.746 189.781 319.093 190.146 320.042ZM192.3 321.228C192.136 322.216 192.575 322.633 193.599 322.461C194.673 322.282 194.984 322.621 194.618 323.576C193.98 325.237 192.857 325.343 191.889 323.834C190.94 322.357 190.88 318.705 191.813 319.282C192.217 319.53 192.436 320.406 192.3 321.228ZM203.974 320.217C203.3 321.046 203.207 321.452 203.763 321.118C204.353 320.765 204.978 321.287 205.261 322.366C205.711 324.085 205.632 324.118 204.178 322.802C203.316 322.022 202.04 321.377 201.342 321.369C200.295 321.359 200.307 321.206 201.413 320.491C202.148 320.017 202.297 319.622 201.745 319.615C200.097 319.592 198.062 322.487 199.407 322.939C201.41 323.613 200.58 324.565 197.807 324.776C195.398 324.96 195.193 324.793 195.992 323.301C196.488 322.375 196.666 321.391 196.39 321.114C195.138 319.862 197.412 318.709 201.129 318.709C204.838 318.709 205.089 318.842 203.974 320.217Z" fill="#0000FF"/>
</svg>
