<svg width="400" height="400" viewBox="0 0 400 400" fill="none" xmlns="http://www.w3.org/2000/svg">
<path fill-rule="evenodd" clip-rule="evenodd" d="M314.351 78.0372C310.947 78.4698 305.971 78.9799 303.297 79.1693C299.381 79.447 261.729 83.1997 250.677 84.414C249.217 84.5749 245.238 85.0051 241.833 85.3721L235.642 86.0371L216.318 105.247L196.994 124.457L199.77 137.601C202.905 152.449 202.267 151.254 210.736 158.104C214.22 160.92 217.629 163.755 218.31 164.402C218.993 165.05 221.58 167.078 224.06 168.91C230.17 173.424 230.717 174.22 231.649 179.948C232.095 182.681 232.643 185.216 232.868 185.582C233.095 185.947 234.131 191.612 235.174 198.171C238.53 219.295 239.975 221.995 247.204 220.639C248.823 220.335 254.445 219.985 259.698 219.861C264.951 219.737 275.814 219.198 283.84 218.663C291.867 218.128 302.483 217.673 307.435 217.652C319.503 217.602 320.515 216.384 317.397 205.675C316.972 204.215 316.226 199.838 315.739 195.947C313.488 177.969 312.981 174.577 312.237 172.511C311.8 171.295 310.972 166.32 310.395 161.456C309.819 156.593 308.929 150.423 308.418 147.748C307.906 145.074 307.504 141.89 307.525 140.673C307.546 139.457 307.244 138.064 306.856 137.578C304.861 135.083 303.904 117.872 305.608 115.141C308.317 110.799 321.051 92.0683 325.612 85.7189C332.235 76.494 331.331 75.8767 314.351 78.0372ZM314.244 85.384C314.129 86.3267 308.603 89.6837 308.603 88.8113C308.603 88.5182 308.04 88.7458 307.353 89.3166C305.031 91.2436 293.708 91.6559 293.011 89.8386C292.344 88.1011 293.807 86.9511 298.868 85.2291C302.5 83.9933 314.402 84.1125 314.244 85.384ZM258.853 90.0293C259.396 91.6607 248.631 95.5707 243.596 95.5707C238.016 95.5707 236.87 94.4862 240.164 92.3281C244.655 89.3858 258.087 87.7329 258.853 90.0293ZM326.196 95.2394C322.648 99.508 324.919 119.891 328.944 119.891C331.682 119.891 333.702 102.687 331.252 100.236C330.955 99.9394 330.712 99.029 330.712 98.2126C330.712 95.4848 327.662 93.4757 326.196 95.2394ZM296.043 105.867C297.285 106.199 297.974 106.969 297.812 107.845C297.131 111.541 278.251 116.006 275.391 113.147C271.573 109.329 287.718 103.637 296.043 105.867ZM236.833 110.268C242.678 111.437 236.571 115.847 226.628 117.637C213.825 119.942 214.168 113.72 226.997 110.965C233.319 109.608 233.476 109.597 236.833 110.268ZM309.233 121.031C306.081 128.175 309.102 145.095 313.529 145.095C315.372 145.095 318.338 137.76 318.298 133.305C318.19 120.925 312.612 113.373 309.233 121.031ZM161.684 125.964C158.461 127.488 154.681 129.238 153.283 129.856C151.885 130.473 145.369 133.514 138.803 136.616C132.236 139.717 123.78 143.69 120.01 145.443C108.372 150.859 100.969 154.332 83.2578 162.687C73.866 167.118 65.9686 170.742 65.7065 170.742C65.4443 170.742 64.0536 171.581 62.6152 172.604L59.9994 174.467L60.5524 184.764C60.8563 190.428 61.2877 199.838 61.5117 205.675C62.3816 228.352 62.6307 233.106 64.4111 260.948C66.6777 296.412 66.611 295.63 67.4964 297.041C68.1804 298.13 71.8354 300.043 73.8017 300.34C74.2879 300.414 75.2829 300.712 76.0123 301.001C76.7416 301.291 79.9258 302.21 83.0874 303.044C86.2489 303.878 89.2341 304.861 89.7203 305.231C90.2066 305.599 93.9878 306.764 98.1218 307.82C102.256 308.876 106.037 310.039 106.523 310.406C107.009 310.773 110.99 311.997 115.367 313.127C119.745 314.256 123.724 315.458 124.21 315.796C124.697 316.136 127.881 317.132 131.286 318.012C134.69 318.89 137.973 319.991 138.582 320.456C139.19 320.922 139.687 321.032 139.687 320.702C139.687 320.371 140.572 320.721 141.653 321.478C143.845 323.013 147.369 323.253 150.463 322.076C151.59 321.649 152.748 321.349 153.039 321.413C153.328 321.477 154.124 321.066 154.807 320.502C155.49 319.937 158.635 318.808 161.797 317.991C164.958 317.174 167.943 316.179 168.429 315.779C168.916 315.38 171.901 314.388 175.062 313.575C178.224 312.762 182.005 311.555 183.464 310.893C184.923 310.232 189.102 308.816 192.75 307.749C196.397 306.681 199.781 305.512 200.267 305.152C200.753 304.791 203.539 303.833 206.458 303.022C209.376 302.211 212.361 301.302 213.091 301.002C213.82 300.702 214.616 300.388 214.859 300.303C215.102 300.219 215.898 299.905 216.628 299.605C217.358 299.304 220.342 298.395 223.261 297.585C226.179 296.773 228.965 295.803 229.451 295.428C229.938 295.052 233.49 293.867 237.346 292.792C241.202 291.717 244.982 290.48 245.748 290.044C246.513 289.606 248.266 288.848 249.642 288.359C254.392 286.671 255.879 287.597 213.091 265.569C188.442 252.879 188.635 253.01 187.866 248.389C187.519 246.298 187.059 243.791 186.844 242.819C186.266 240.201 184.954 230.629 183.936 221.594C183.442 217.217 182.629 212.042 182.128 210.097C181.628 208.151 180.212 198.998 178.982 189.756C177.753 180.515 176.574 171.759 176.361 170.3C176.149 168.841 175.58 164.463 175.096 160.572C172.948 143.311 169.72 125.331 168.564 124.194C167.803 123.446 166.063 123.893 161.684 125.964ZM322.914 135.806C319.237 140.479 320.752 158.194 324.967 159.81C330.006 161.744 331.55 141.148 326.782 135.606L324.843 133.352L322.914 135.806ZM181.452 145.689C180.141 146.215 177.758 151.509 178.062 153.217C181.126 170.441 194.899 184.035 197.347 172.25C199.024 164.18 188.101 143.781 182.844 145.165C182.699 145.204 182.072 145.438 181.452 145.689ZM154.836 147.365C163.584 151.889 159.893 168.97 149.138 173.728C144.05 175.979 143.098 176.071 140.01 174.606C129.295 169.521 135.03 150.048 148.146 146.973C150.061 146.524 151.746 146.118 151.891 146.069C152.038 146.02 153.362 146.603 154.836 147.365ZM333.304 150.957C330.432 156.325 332.661 174.28 336.2 174.28C339.991 174.28 341.511 156.096 338.102 151.529C335.701 148.313 334.778 148.203 333.304 150.957ZM265.927 166.655C270.69 171.696 271.178 176.611 267.314 180.643C259.348 188.959 242.735 176.673 248.571 166.782C252.281 160.495 260.053 160.439 265.927 166.655ZM217.725 175.152C214.155 180.869 221.051 200.173 227.383 202.182C235.583 204.785 233.034 185.686 223.865 175.828C221.191 172.951 219.234 172.737 217.725 175.152ZM319.206 178.038C316.122 183.096 317.277 198.962 320.892 201.195C325.621 204.119 328.419 183.874 324.179 177.403C322.25 174.459 321.316 174.578 319.206 178.038ZM186.264 180.307C180.212 186.995 189.644 212.308 198.189 212.308C202.961 212.308 204.713 202.223 201.211 194.903C200.555 193.532 199.291 190.83 198.403 188.901C194.984 181.474 189.027 177.255 186.264 180.307ZM222.996 206.294C219.51 209.779 223.937 226.016 230.121 232.427C233.529 235.961 235.261 236.049 237.187 232.789C241.98 224.675 228.946 200.343 222.996 206.294ZM191.34 216.825C185.578 223.197 193.85 246.845 202.599 249.015C212.178 251.391 209.665 228.216 199.246 218.097C195.533 214.492 193.713 214.199 191.34 216.825ZM228.874 239.945C224.476 248.029 233.818 270.334 240.861 268.567C245.147 267.491 245.008 258.123 240.559 248.289C236.342 238.965 231.346 235.398 228.874 239.945ZM96.998 245.581C104.142 250.054 103.359 263.885 95.5656 270.926C84.1194 281.267 72.7339 268.771 80.1117 253.966C84.1122 245.939 91.6163 242.211 96.998 245.581ZM191.486 268.15C196.762 273.427 168.687 280.147 162.463 275.097L160.47 273.48L162.522 271.291C164.322 269.372 166.702 268.417 173.736 266.786C178.06 265.785 190.042 266.705 191.486 268.15ZM226.357 284.979C230.817 286.123 230.907 288.051 226.577 289.775C224.754 290.502 222.305 291.576 221.137 292.162C218.254 293.609 203.797 293.573 202.339 292.116C200.386 290.163 211.52 283.751 214.099 285.345C214.509 285.599 215.544 285.382 216.4 284.861C217.794 284.012 222.823 284.072 226.357 284.979ZM122.17 290.431C133.531 292.433 120.757 299.861 105.952 299.861C91.8165 299.861 91.8511 294.935 106.013 291.279C113.032 289.467 115.859 289.318 122.17 290.431ZM164.568 306.191C169.027 307.527 168.885 308.827 164.018 311.258C157.233 314.646 140.514 314.853 140.586 311.548C140.673 307.491 156.847 303.878 164.568 306.191Z" fill="#0000FF"/>
</svg>
