<svg width="400" height="400" viewBox="0 0 400 400" fill="none" xmlns="http://www.w3.org/2000/svg">
<path fill-rule="evenodd" clip-rule="evenodd" d="M255.654 179.816C247.65 182.898 212.493 186.907 211.211 184.884L211.229 168.988C211.256 165.256 211.272 160.982 211.272 156.438V129.649L212.733 130.091C213.537 130.334 214.473 130.792 214.813 131.109C215.152 131.426 216.044 131.686 216.794 131.686C217.545 131.686 218.509 132.036 218.936 132.463C219.363 132.891 221.396 133.488 223.451 133.788C225.507 134.089 228.285 134.5 229.625 134.703C234.281 135.405 232.42 132.725 226.02 129.51C218.641 125.803 238.035 116.249 246.733 119.306C256.994 122.913 270.295 138.678 270.412 147.374C270.424 148.214 270.862 149.47 271.387 150.163C271.912 150.857 272.341 152.703 272.341 154.267C272.341 155.83 272.684 157.747 273.104 158.527C275.548 163.072 274.802 175.203 272.078 175.218C271.687 175.22 270.606 175.619 269.675 176.105C268.746 176.589 266.633 177.189 264.981 177.436C263.329 177.685 261.806 178.163 261.598 178.499C261.39 178.837 260.379 179.112 259.352 179.112C258.324 179.112 256.66 179.429 255.654 179.816ZM276.304 184.554C275.882 185.064 274.753 185.678 273.797 185.917C272.84 186.158 270.586 187.028 268.789 187.852C258.749 192.451 252.411 193.363 229.989 193.436C216.336 193.481 211.266 193.702 211.037 194.263V223.687C217.349 223.763 223.035 223.675 227.189 223.374C232.906 222.959 239.467 222.624 241.769 222.63C245.992 222.64 254.815 221.406 262.595 219.72C264.918 219.217 267.695 218.658 268.768 218.479C269.84 218.3 272.47 217.715 274.615 217.18C276.759 216.644 279.804 215.887 281.383 215.497C284.377 214.758 287.933 212.945 287.933 212.158C287.933 209.724 283.82 208.672 280.744 210.318C276.286 212.704 274.35 204.954 278.403 200.948C283.608 195.803 284.492 193.404 281.18 193.404C277.226 193.404 274.376 187.731 277.008 185.1C277.43 184.676 277.618 184.172 277.425 183.98C277.232 183.786 276.728 184.045 276.304 184.554ZM292.949 217.117L290.542 220.691L293.298 220.702C294.813 220.708 298.685 221.146 301.901 221.674C305.117 222.203 310.817 222.641 314.57 222.648C318.321 222.656 323.349 223.077 325.74 223.584C328.132 224.091 334.856 224.827 340.683 225.218C352.802 226.034 354.208 226.258 354.176 227.362C354.135 228.776 335.98 243.429 334.271 243.429C333.797 243.429 333.41 243.722 333.41 244.079C333.41 244.436 333.039 244.729 332.586 244.729C332.133 244.729 330.636 245.493 329.259 246.43C326.036 248.62 315.919 253.88 311.321 255.756C306.795 257.603 303.669 258.981 301.476 260.095C300.527 260.577 299.318 260.97 298.789 260.97C298.259 260.97 296.99 261.407 295.966 261.941C294.943 262.475 293.505 262.913 292.773 262.916C292.04 262.918 291.163 263.181 290.824 263.5C290.485 263.82 288.818 264.405 287.121 264.8C285.423 265.194 282.646 265.844 280.949 266.243C279.252 266.641 277.542 267.226 277.148 267.541C276.755 267.856 275 268.288 273.249 268.499C271.5 268.71 268.751 269.258 267.143 269.715C264.193 270.556 257.568 271.725 245.054 273.612C241.303 274.178 235.163 274.649 231.412 274.658C220.836 274.686 211.897 275.555 211.221 276.622V281.566C222.43 281.478 232.457 281.041 233.881 280.264C235.474 279.395 238.062 279.002 243.951 278.736C248.31 278.538 253.318 277.969 255.08 277.47C256.842 276.971 259.674 276.562 261.372 276.562C263.071 276.562 265.27 276.255 266.26 275.878C267.25 275.502 269.973 274.926 272.311 274.597C274.65 274.268 278.464 273.538 280.786 272.974C283.109 272.408 286.181 271.691 287.614 271.38C291.506 270.533 302.305 266.939 304.275 265.835C305.223 265.304 306.449 264.869 306.998 264.869C307.547 264.869 310.425 263.732 313.394 262.343C316.363 260.953 320.4 259.151 322.365 258.336C324.331 257.521 326.401 256.465 326.964 255.988C327.528 255.513 328.187 255.123 328.426 255.123C330.866 255.123 356.148 233.774 356.148 231.714C356.148 231.44 357.296 229.509 358.699 227.422C360.103 225.334 361.132 223.508 360.986 223.363C360.335 222.711 346.018 220.902 329.837 219.429C326.621 219.135 323.166 218.569 322.161 218.169C321.155 217.769 318.487 217.442 316.233 217.442C313.979 217.442 310.891 217.004 309.372 216.468C307.853 215.932 305.258 215.491 303.605 215.489C301.953 215.487 299.764 215.048 298.74 214.515C295.955 213.062 295.561 213.238 292.949 217.117ZM211.037 231.659V262.97C211.048 263.002 211.059 263.039 211.07 263.081C211.233 263.707 211.233 264.731 211.07 265.355C211.059 265.398 211.048 265.435 211.037 265.467V269.121C228.874 267.797 239.234 266.63 240.654 265.752C241.05 265.507 243.299 265.085 245.65 264.815C248.003 264.544 251.389 263.99 253.176 263.584C264.019 261.119 281.869 255.587 283.06 254.323C283.506 253.85 283.447 253.782 282.875 254.106C282.415 254.366 280.369 254.841 278.327 255.163C276.285 255.484 271.837 256.366 268.443 257.123C265.049 257.88 259.494 258.753 256.099 259.062C252.704 259.373 248.319 259.908 246.354 260.251C242.16 260.984 229.623 261.097 225.889 260.435C221.788 259.707 222.476 258.154 227.158 257.569C229.285 257.303 231.917 256.812 233.005 256.477C234.094 256.143 238.347 255.252 242.456 254.498C246.566 253.745 251.389 252.733 253.176 252.249C256.482 251.355 260.386 250.353 272.341 247.329C273.949 246.921 275.787 246.307 276.426 245.963C277.064 245.618 279.937 244.578 282.809 243.652C288.694 241.754 289.023 240.28 283.224 241.79C281.205 242.316 276.249 243.042 272.211 243.405C268.174 243.768 262.385 244.349 259.347 244.698C247.032 246.112 244.728 243.144 256.099 240.515C260.962 239.391 273.499 235.342 274.158 234.682C275.075 233.765 272.878 233.374 264.677 232.994C259.78 232.767 254.778 232.199 253.561 231.734C251.798 231.06 246.767 230.992 228.873 231.402C222.496 231.548 216.568 231.636 211.037 231.659Z" fill="#FF0000"/>
<path fill-rule="evenodd" clip-rule="evenodd" d="M187.883 118.77C186.99 119.093 184.213 120.058 181.712 120.911C173.393 123.754 171.633 124.527 166.409 127.63C163.556 129.325 160.45 131.115 159.506 131.608C156.797 133.026 147.177 142.571 146.038 144.973C144.884 147.404 144.752 152.348 145.437 167.323L145.863 176.649L148.827 177.918C152.631 179.549 172.061 183.39 180.81 184.242C191.953 185.326 206.785 185.722 210 185.121L210.442 129.104L207.519 127.392C205.912 126.45 202.371 123.962 199.651 121.865C194.453 117.855 192.108 117.238 187.883 118.77ZM197.847 193.404C207.606 193.404 210.635 193.596 210.674 194.217L210.632 223.682C191.884 223.436 167.826 221.76 161.897 219.902C160.647 219.51 157.87 218.972 155.725 218.703C151.367 218.16 142.296 215.85 139.808 214.652C132.487 211.123 131.498 209.957 135.285 209.317C138.499 208.774 140.15 206.649 139.578 203.79C139.232 202.06 139.471 201.669 141.745 200.234C146.52 197.22 146.705 195.393 142.732 190.516C137.004 183.484 139.514 183.062 156.375 188.219C158.518 188.874 163.342 189.881 167.094 190.456C170.846 191.032 176.425 191.93 179.494 192.453C183.092 193.067 189.607 193.404 197.847 193.404ZM210.632 281.57C197.196 281.661 182.259 281.252 178.464 280.33C175.963 279.723 171.139 279.03 167.744 278.79C164.349 278.55 159.976 277.951 158.025 277.458C156.074 276.966 153.35 276.562 151.972 276.562C150.594 276.562 148.917 276.268 148.246 275.909C147.573 275.548 145.327 274.988 143.253 274.663C131.649 272.843 115.74 267.173 99.8533 259.194C86.1252 252.3 67.7179 234.934 61.8715 223.363L61.7923 223.207C61.2426 222.121 60.8504 221.347 61.0551 220.793C61.5648 219.412 65.7775 219.4 80.4836 219.356L81.3377 219.354C91.8786 219.322 102.111 219.001 104.076 218.64C106.041 218.279 112.366 217.837 118.132 217.659L128.615 217.333L134.049 219.936C152.269 228.659 171.457 231.801 210.632 231.66V269.151C202.965 269.718 193.936 270.313 183.658 270.926C158.6 272.422 165.784 274.354 201.364 275.687C207.728 275.926 210.625 276.269 210.632 276.786V281.57Z" fill="#0000FF"/>
</svg>
