<svg width="400" height="400" viewBox="0 0 400 400" fill="none" xmlns="http://www.w3.org/2000/svg">
<path fill-rule="evenodd" clip-rule="evenodd" d="M53.7057 108.746C53.4713 109.126 53.362 112.63 53.4628 116.532C53.6187 122.519 53.4182 123.88 52.1762 125.254C48.4415 129.388 49.8426 135.623 53.8711 132.801C57.364 130.355 56.7499 136.789 52.7786 144.249C49.3515 150.687 51.7095 154.438 55.7496 148.973C59.2923 144.181 60.6776 154.193 58.0312 165.466C55.2766 177.198 57.1158 181.144 61.1485 172.155C62.4246 169.312 63.8215 167.205 64.2542 167.472C65.6342 168.325 67.4671 176.135 68.1289 183.979C69.0433 194.819 70.8825 195.782 74.5376 187.335C77.2201 181.136 76.956 178.052 73.0155 169.572C68.882 160.671 68.9499 158.633 73.6201 151.405C78.879 143.27 77.5553 140.704 71.3577 147.018C67.2369 151.217 66.2876 151.38 65.1378 148.082C63.6051 143.683 64.0718 140.087 66.6132 136.728C70.1655 132.034 69.8473 130.692 65.2577 131.013C60.5333 131.344 59.5363 128.169 63.0514 123.99C66.2049 120.242 65.2566 116.088 61.4031 116.779C59.4695 117.126 58.744 116.413 57.9304 113.368C56.6989 108.763 54.9074 106.803 53.7057 108.746ZM338.507 153.858C338.322 154.156 338.397 155.823 338.675 157.56C339.717 164.076 337.11 167.407 332.739 165.146C328.155 162.776 326.62 164.499 329.046 169.295C330.722 172.607 331.142 176.703 330.065 179.23L329.085 181.53L326.072 177.852C320.698 171.295 318.594 173.49 321.673 182.44C323.85 188.766 323.944 188.498 317.27 194.853C310.123 201.657 308.815 203.851 309.555 207.791L310.094 210.664L307.664 207.965C304.968 204.974 303.301 205.22 301.416 208.887C299.437 212.734 301.327 226.128 303.848 226.128C306.615 226.128 320.099 210.405 320.099 207.18C320.099 205.814 326.245 197.002 327.198 197.002C327.493 197.002 328.763 200.102 330.018 203.89C334.134 216.313 337.889 213.448 335.322 199.844C333.507 190.228 333.572 187.508 335.679 184.831C337.126 182.99 337.417 182.869 337.42 184.105C337.434 188.518 341.543 196.215 343.885 196.215C344.878 196.215 344.219 189.144 342.38 180.054C340.702 171.761 343.528 164.728 346.19 170.571C348.315 175.233 350.016 171.283 349.999 161.727C349.993 157.966 349.726 154.491 349.408 154.004C348.788 153.052 339.09 152.923 338.507 153.858ZM77.1734 186.446C75.2239 194.217 80.6355 206.953 84.3225 203.268C87.1885 200.402 86.4916 190.783 83.1059 186.479C80.9219 183.703 77.8661 183.686 77.1734 186.446ZM92.3604 193.696C90.6124 195.627 88.6756 201.349 88.6756 204.58C88.6756 206.387 88.3075 207.236 87.5226 207.236C82.5522 207.236 83.9937 220.659 89.3756 224.491C93.2631 227.259 94.9729 225.852 94.9729 219.882C94.9729 217.791 95.4895 216.164 96.4642 215.19C98.2971 213.357 99.6961 207.157 99.6961 200.864C99.6961 194.067 95.6252 190.09 92.3604 193.696ZM107.127 197.864C106.835 198.34 105.918 201.433 105.092 204.74C104.233 208.179 102.268 212.95 100.504 215.882C93.3787 227.731 92.5577 237.934 98.7309 237.934C104.444 237.934 108.982 228.053 105.976 222.161C103.898 218.084 104.778 218.218 108.787 222.585C114.043 228.309 114.195 228.095 115.448 213.23C116.386 202.117 116.06 198.965 113.852 197.783C111.903 196.74 107.791 196.79 107.127 197.864ZM124.324 199.088C117.863 201.709 117.554 217.171 123.714 229.638C131.327 245.045 137.503 243.29 137.45 225.734C137.391 205.949 132.397 195.813 124.324 199.088ZM144.755 206.054C139.591 209.769 138.182 226.12 142.282 234.786C146.688 244.101 155.702 254.46 157.239 251.973C159.553 248.229 161.834 217.518 160.1 213.428C157.713 207.79 148.5 203.363 144.755 206.054ZM291.802 213.501C287.42 216.407 285.935 219.081 286.634 222.805L287.159 225.605L285.037 223.082C277.261 213.842 270 216.576 268.907 229.158C268.53 233.492 267.665 238.958 266.983 241.303C264.414 250.139 266.898 249.717 277.97 239.435C284.577 233.299 285.007 233.034 285.729 234.649C288.598 241.081 300.416 226.568 299.281 218.007C298.295 210.569 297.207 209.915 291.802 213.501ZM163.175 221.881C162.589 230.647 163.391 236.962 165.773 242.348C167.767 246.856 167.807 248.168 165.954 248.168C160.711 248.168 154.363 269.389 157.418 276.7C158.709 279.789 167.206 285.95 170.175 285.95C173.832 285.95 183.921 270.128 183.921 264.392C183.921 261.415 185.26 259.188 187.051 259.188C189.456 259.188 189.413 259.925 186.49 268.634C182.042 281.893 182.738 284.496 192.186 289.959C202.793 296.09 214.223 284.417 214.225 267.453L214.226 259.582H216.575C219.538 259.582 220.02 261.768 220.085 275.505C220.168 293.192 226.137 297.44 235.513 286.486C243.153 277.56 238.2 254.829 228.94 256.322L226.336 256.742L230.834 251.884C237.329 244.869 240.993 233.029 239.296 224.543C237.612 216.126 213.19 214.595 205.202 222.404L202.641 224.908L202.99 235.16C203.26 243.052 203.742 246.571 205.091 250.444C207.202 256.516 206.955 256.864 200.131 257.413C194.628 257.854 193.679 257.164 196.103 254.486C198.537 251.797 199.767 232.713 198.029 224.61C196.445 217.227 192.419 215.534 174.273 214.623L163.696 214.093L163.175 221.881ZM252.108 220.163C245.194 222.709 242.763 226.795 241.379 238.197C240.915 242.021 239.668 247.865 238.608 251.184C235.059 262.296 236.134 263.975 244.237 259.985C268.325 248.127 275.558 211.531 252.108 220.163ZM114.475 228.509C105.248 234.62 103.13 238.976 106.066 245.8C109.309 253.34 114.79 249.294 119.371 235.977C122.663 226.409 121.144 224.091 114.475 228.509ZM293.689 235.978C291.029 241.416 290.313 246.639 292.033 248.067C296.419 251.707 302.827 238.573 299.195 233.387C297.289 230.665 295.989 231.277 293.689 235.978ZM120.804 241.674C110.439 252.355 111.374 265.074 122.91 270.314C127.205 272.265 127.536 272.203 130.732 268.83C132.599 266.86 133.532 266.297 133.536 267.138C133.561 271.547 143.058 278.88 147.143 277.642C155.067 275.24 156.606 265.642 150.941 253.955C144.329 240.312 138.888 239.055 133.902 250.019L132.06 254.071L132.014 250.821C131.943 245.757 127.922 237.934 125.388 237.934C124.862 237.934 122.799 239.617 120.804 241.674ZM279.412 240.806C277.452 243.797 277.021 252.296 278.7 254.856C280.656 257.842 284.251 257.562 286.26 254.268C290.9 246.656 284.204 233.492 279.412 240.806ZM267.292 251.791C264.492 255.164 265.78 271.782 268.841 271.782C269.884 271.782 275.571 266.955 278.408 263.662L280.995 260.658L275.778 255.594C270.317 250.291 269.019 249.71 267.292 251.791ZM253.584 260.171C243.597 272.12 240.861 279.704 245.033 283.876C247.958 286.801 248.746 286.566 254.551 281.031C261.803 274.115 262.88 271.4 261.87 262.585C261.433 258.768 261.073 255.026 261.069 254.268C261.057 251.77 259.738 252.809 253.584 260.171Z" fill="#FF0000"/>
</svg>
