<svg width="400" height="400" viewBox="0 0 400 400" fill="none" xmlns="http://www.w3.org/2000/svg">
<path fill-rule="evenodd" clip-rule="evenodd" d="M153.009 72.3866C150.184 76.1255 147.325 81.7825 146.689 84.8951C146.134 87.6073 144.37 88.9069 143.785 87.0358C143.595 86.4262 143.207 84.8739 142.923 83.5843C142.281 80.6641 136.296 75.0239 133.178 74.4009C131.495 74.0643 130.851 73.4413 130.851 72.1529C130.851 70.6631 130.646 70.5401 129.606 71.4035C128.92 71.9717 128.36 72.7647 128.36 73.1651C128.36 73.5666 128.92 73.8943 129.606 73.8943C130.29 73.8943 130.851 74.3294 130.851 74.8617C130.851 75.3952 131.069 75.6122 131.336 75.3449C132.131 74.5497 135.83 78.2204 135.83 79.804C135.83 80.6082 136.197 81.4918 136.643 81.768C137.174 82.0968 137.174 82.8339 136.643 83.8919C136.197 84.7844 135.458 86.2562 135 87.1622C134.544 88.0692 134.17 90.475 134.17 92.5083C134.17 94.5415 133.797 96.4362 133.34 96.7191C132.884 97.001 132.51 98.1149 132.51 99.1942C132.51 100.273 131.568 102.278 130.415 103.648C129.171 105.126 128.66 106.351 129.16 106.66C129.695 106.991 129.53 107.901 128.707 109.157C125.833 113.542 126.753 126.225 130.222 130.065C131.12 131.058 131.588 132.302 131.262 132.829C130.038 134.809 138.548 138.577 144.338 138.618C145.594 138.627 146.621 139.016 146.621 139.482C146.621 140.759 150.878 146.934 151.76 146.934C152.182 146.934 152.281 146.533 151.978 146.043C151.675 145.552 152.276 144.247 153.315 143.141C155.189 141.146 154.965 139.087 153.081 140.972C151.525 142.528 150.774 142.126 150.964 139.839C151.067 138.589 152.506 136.449 154.482 134.605C158.301 131.043 159.901 128.574 159.901 126.244C159.901 125.352 160.274 124.391 160.731 124.109C161.187 123.826 161.56 122.147 161.56 120.374C161.56 118.602 161.187 116.921 160.731 116.639C160.274 116.356 159.901 115.049 159.901 113.734C159.901 112.418 159.527 111.111 159.071 110.829C158.615 110.546 158.241 109.554 158.241 108.623C158.241 107.692 157.724 105.753 157.093 104.314C155.395 100.443 153.282 91.458 153.025 87.0123C152.9 84.8694 152.552 82.8674 152.248 82.5654C151.945 82.2623 151.997 81.4012 152.363 80.6518C153.632 78.047 155.871 70.4182 155.481 70.0279C155.265 69.812 154.152 70.8734 153.009 72.3866ZM152.927 149.292C152.152 150.545 153.123 155.234 154.156 155.234C155.058 155.234 155.069 152.176 154.175 149.894C153.734 148.765 153.362 148.587 152.927 149.292ZM157.841 161.848C157.234 162.829 161.374 171.834 162.429 171.834C163.302 171.834 162.154 168.126 160.043 164.121C159.129 162.388 158.139 161.366 157.841 161.848ZM165.005 177.644C165.483 179.013 166.166 180.134 166.525 180.134C166.883 180.134 167.372 180.881 167.611 181.794C168.052 183.479 169.86 184.145 169.86 182.624C169.86 182.167 169.465 181.794 168.981 181.794C168.498 181.794 168.334 181.421 168.615 180.963C168.897 180.507 168.77 180.134 168.33 180.134C167.892 180.134 167.143 179.013 166.665 177.644C166.187 176.274 165.423 175.154 164.967 175.154C164.423 175.154 164.435 176.009 165.005 177.644ZM169.03 184.956C169.03 185.401 169.622 185.993 170.345 186.27C171.153 186.581 171.532 186.396 171.331 185.788C170.917 184.548 169.03 183.865 169.03 184.956ZM171.533 188.227C171.561 189.589 173.131 191.249 173.758 190.579C174.125 190.187 173.956 189.699 173.383 189.495C172.81 189.29 172.551 188.78 172.81 188.363C173.067 187.946 172.883 187.604 172.399 187.604C171.916 187.604 171.527 187.884 171.533 188.227ZM174.011 192.482C174.011 192.883 174.571 193.676 175.256 194.244C176.607 195.365 176.776 195.097 175.997 193.067C175.464 191.677 174.011 191.25 174.011 192.482ZM176.5 196.417C176.5 196.699 177.527 198.191 178.783 199.732C180.038 201.273 182.129 203.843 183.43 205.444C184.73 207.044 186.204 208.354 186.705 208.354C187.206 208.354 186.422 207.122 184.964 205.617C183.504 204.112 182.311 202.593 182.311 202.242C182.311 201.23 178.042 195.905 177.232 195.905C176.829 195.905 176.5 196.135 176.5 196.417ZM226.301 199.719C225.16 200.285 222.503 200.924 220.398 201.138C216.081 201.575 213.548 202.995 210.54 206.664C209.403 208.051 207.855 209.184 207.101 209.184C206.346 209.184 205.527 209.708 205.281 210.349C204.679 211.916 205.539 214.994 206.579 214.994C207.074 214.994 207.018 215.47 206.442 216.165C205.766 216.979 205.739 217.502 206.353 217.883C206.84 218.182 207.022 218.776 206.761 219.201C206.498 219.626 206.618 219.974 207.029 219.974C208.669 219.974 210.084 226.585 208.733 227.936C207.614 229.057 206.983 228.696 202.87 224.583C198.816 220.529 195.328 218.365 196.869 220.859C197.17 221.346 196.726 222.268 195.882 222.908C194.136 224.23 191.44 224.505 191.44 223.361C191.44 222.602 186.194 221.109 180.651 220.291C177.042 219.758 168.865 220.694 169.411 221.578C169.632 221.937 171.865 222.47 174.371 222.766C178.596 223.262 182.99 224.664 183.97 225.828C184.199 226.099 185.04 226.562 185.838 226.856C189.097 228.058 186.495 233.061 183.076 232.166C180.606 231.521 175.054 234.151 170.654 238.051C168.58 239.889 165.995 241.523 164.909 241.682C161.993 242.107 161.81 243.896 164.705 243.669C166.021 243.565 167.489 243.239 167.969 242.942C168.448 242.646 170.034 242.82 171.492 243.328C173.506 244.03 174.608 244.005 176.073 243.221C177.135 242.653 178.412 242.441 178.912 242.75C179.412 243.06 179.821 242.858 179.821 242.305C179.821 241.679 180.451 241.866 181.481 242.799C183.847 244.941 183.675 245.399 178.395 251.024C173.653 256.075 170.169 258.685 165.088 260.994C161.234 262.745 161.629 264.314 165.503 262.645C167.215 261.907 173.787 260.798 180.107 260.18C186.428 259.562 192.09 258.648 192.691 258.149C193.484 257.491 193.944 257.505 194.375 258.202C194.824 258.927 195.113 258.926 195.563 258.199C196.543 256.614 203.891 256.117 203.891 257.636C203.891 258.323 203.517 259.117 203.061 259.399C201.847 260.149 202.047 261.474 203.374 261.474C204.002 261.474 204.979 262.03 205.543 262.71C206.107 263.389 206.905 263.738 207.315 263.484C207.726 263.23 209.234 263.608 210.668 264.323C212.102 265.039 214.343 265.624 215.65 265.624C216.955 265.624 218.672 265.962 219.465 266.373C220.257 266.785 222.586 267.565 224.641 268.107C230.072 269.537 240.043 274.87 244.842 278.911C249.367 282.722 256.18 290.161 256.18 291.292C256.18 291.626 257.272 293.551 258.606 295.57C259.941 297.587 261.277 300.36 261.576 301.729C261.875 303.099 262.514 305.152 262.996 306.294C263.478 307.435 264.163 309.116 264.517 310.029C264.872 310.942 265.888 313.369 266.778 315.424C267.667 317.479 268.859 320.839 269.428 322.894C271.014 328.616 272.105 330.956 272.575 329.646C272.799 329.022 272.509 328.22 271.931 327.862C271.352 327.504 271.114 326.599 271.401 325.85C271.689 325.101 271.592 323.849 271.189 323.068C270.784 322.288 269.997 319.968 269.442 317.914C268.886 315.86 267.949 313.059 267.359 311.69C266.769 310.32 265.836 307.518 265.286 305.464C264.093 301.014 263.917 300.326 263.686 299.239C263.589 298.783 263.235 298.036 262.9 297.58C262.564 297.122 261.807 295.069 261.218 293.014C260.627 290.96 259.44 287.921 258.578 286.261C257.716 284.601 257.01 282.679 257.01 281.988C257.01 281.297 255.89 278.602 254.521 275.999C253.151 273.396 252.019 270.65 252.004 269.897C251.99 269.145 251.429 267.804 250.759 266.918C250.089 266.032 249.54 264.466 249.54 263.44C249.54 262.413 249.167 261.341 248.71 261.06C248.254 260.777 247.881 259.469 247.881 258.154C247.881 256.839 247.524 255.541 247.087 255.272C246.65 255.002 246.497 254.251 246.745 253.602C246.994 252.954 246.903 251.948 246.544 251.366C245.421 249.55 245.247 243.972 246.275 242.734C247.023 241.833 247.025 241.278 246.282 240.383C245.599 239.56 245.576 239.048 246.202 238.661C246.693 238.357 246.991 237.622 246.865 237.027C246.739 236.432 248.238 233.425 250.197 230.345C254.271 223.938 254.29 222.553 250.239 227.144C248.714 228.873 246.242 231.407 244.746 232.773C241.53 235.713 237.921 241.593 237.921 243.895C237.921 244.792 237.361 245.742 236.675 246.004C235.795 246.342 235.43 245.932 235.43 244.599C235.43 243.563 235.081 242.362 234.654 241.928C233.384 240.636 232.727 229.946 233.837 228.61C234.369 227.969 234.577 227.444 234.301 227.444C232.866 227.444 239.348 216.96 243.657 212.312C248.802 206.761 245.61 207.985 239.111 214.054C235.625 217.31 232.268 219.974 231.653 219.974C230.167 219.974 225.48 225.028 225.474 226.637C225.468 228.474 223.008 231.709 222.059 231.123C221.617 230.849 221.47 229.94 221.735 229.104C222.001 228.267 221.829 227.343 221.355 227.049C220.241 226.362 220.223 216.088 221.334 215.401C221.798 215.113 221.995 214.582 221.77 214.22C221.546 213.856 222.1 212.033 223.001 210.167C223.903 208.301 224.641 206.357 224.641 205.848C224.641 205.34 225.626 203.631 226.832 202.051C229.34 198.761 229.227 198.267 226.301 199.719ZM187.48 210.169C187.894 211.409 189.781 212.093 189.781 211.002C189.781 210.556 189.189 209.964 188.466 209.687C187.658 209.377 187.279 209.563 187.48 210.169Z" fill="#FF0000"/>
</svg>
