<svg width="400" height="400" viewBox="0 0 400 400" fill="none" xmlns="http://www.w3.org/2000/svg">
<path fill-rule="evenodd" clip-rule="evenodd" d="M124.507 137.297C116.289 140.213 100.409 149.701 93.3766 155.896C91.9795 157.127 88.7385 159.533 86.1751 161.243C74.8324 168.805 57.8584 182.261 54.0282 186.726C46.9998 194.92 49.3593 202.644 59.6204 205.03C65.9787 206.509 67.2622 207.574 71.0143 214.489C89.4999 248.554 121.982 257.436 144.763 234.655C151.896 227.522 157.935 212.755 156.345 206.336C155.188 201.666 175.292 204.1 181.58 209.391C184.254 211.641 185.831 214.782 187.755 221.684C194.147 244.63 209.235 258.342 234.036 263.746C249.873 267.195 270.181 256.522 278.772 240.235C281.497 235.069 281.831 234.927 288.924 235.919C299.404 237.385 301.518 235.341 320.41 205.451C328.214 193.104 335.67 181.202 336.978 179.002C338.285 176.804 340.093 174.521 340.993 173.931C343.218 172.474 349.534 159.119 349.925 155.046C350.591 148.114 346.756 149.039 341.161 157.159C333.933 167.649 327.979 175.826 323.088 181.978C320.208 185.601 313.878 193.997 309.02 200.635C298.138 215.503 298.839 214.875 292.955 215.047C285.906 215.253 284.218 213.888 281.005 205.372C268.371 171.887 223.925 160.81 198.468 184.8C191.625 191.25 189.557 192.004 183.607 190.223C179.6 189.023 168.527 187.483 160.586 187.019C153.247 186.591 153.071 186.542 151.467 184.447C143.734 174.351 141.062 171.415 136.446 167.942C130.36 163.36 122.069 159.176 115.623 157.431C113.125 156.755 111.081 155.942 111.081 155.625C111.081 153.123 128.011 143.385 133.417 142.776C138.088 142.249 138.943 142.632 150.513 150.419C156.37 154.36 162.561 158.292 164.27 159.155C165.98 160.019 170.007 162.43 173.221 164.516C179.855 168.819 180.237 168.792 182.905 163.821L184.618 160.631L182.992 158.901C181.88 157.717 178.57 156.27 172.509 154.319C164.316 151.681 162.891 150.947 153.523 144.543C137.824 133.813 135.77 133.3 124.507 137.297ZM114.035 167.102C146.369 180.226 158.112 224.995 132.379 237.039C111.098 247.001 78.1218 221.574 76.0555 193.61C75.4504 185.415 76.4725 184.098 96.5385 167.232C100.468 163.929 106.114 163.887 114.035 167.102ZM236.454 181.617C275.902 189.848 289.327 247.317 253.162 253.138C222.715 258.04 194.491 236.457 195.467 209.02C196.216 187.977 213.038 176.73 236.454 181.617Z" fill="#0000FF"/>
</svg>
