<svg width="400" height="400" viewBox="0 0 400 400" fill="none" xmlns="http://www.w3.org/2000/svg">
<path style="fill:#0000FF;" d="M349.394,198.63c-1.336-2.804-10.53-9.6-24.34-17.99c-2.707-1.645-8.385-4.347-14.111-6.864
	c3.327-4.516,5.98-10.66,6.436-15.168l0.457-4.516l-1.749-1.761c-4.293-4.319-17.826-6.464-28.606-4.534
	c-1.231,0.22-2.549,0.295-2.928,0.164s-2.793,0.239-5.364,0.822c-2.572,0.582-4.998,0.946-5.391,0.808
	c-0.394-0.136-3.518,0.499-6.941,1.412c-3.423,0.913-6.735,1.591-7.361,1.507c-0.625-0.085-2.125,0.219-3.333,0.671
	c-6.508,2.441-20.081,6.02-21.85,5.762c-3.576-0.521-11.441-4.712-13.092-6.978c-0.836-1.149-2.42-3.229-3.52-4.624
	c-1.099-1.396-3.434-4.417-5.191-6.716c-4.766-6.235-7.571-9.068-12.946-13.067c-4.231-3.149-7.378-7.486-12.949-17.846
	c-1.585-2.948-5.325-8.208-7.122-10.018c-1.007-1.015-1.914-2.061-2.012-2.326c-3.201-8.538-28.837-12.812-32.861-5.478
	c-0.741,1.352-0.783,2.365-0.186,4.584l0.767,2.847l5.075,2.176c3.975,1.704,5.199,2.501,5.644,3.675
	c0.526,1.391,1.86,11.096,2.113,15.363c0.163,2.749,0.692,6.037,1.458,9.331c-0.796-0.591-1.603-1.177-2.438-1.748
	c-25.987-17.824-76.426-43.076-86.414-43.262c-3.239-0.06-3.849,0.145-5.171,1.735c-2.773,3.335-1.207,6.715,2.538,5.473
	c2.58-0.856,3.8-0.201,1.988,1.068c-2.161,1.513,5.205,9.035,12.656,12.923c20.061,10.468,27.868,15.382,39.848,25.087
	c10.203,8.266,32.41,35.69,30.351,37.482c-0.209,0.181-0.94-0.802-1.626-2.185c-2.586-5.216-26.01-31.305-32.552-36.255
	c-14.782-11.183-23.649-16.647-33.634-20.725c-7.052-2.88-6.904-2.918-14.571,3.753c-14.343,12.484-20.703,21.841-20.458,30.1
	c0.151,5.071,3.46,16.09,4.548,15.143c0.164-0.143-0.001-2.19-0.368-4.549c-1.715-11.017-0.144-13.395,7.911-11.98
	c11.474,2.014,25.962,13.042,46.092,35.083c17.181,18.811,17.508,19.613,10.733,26.223l-4.026,3.928l4.187-0.491
	c6.829-0.802,8.767-1.853,19.38-10.523l9.527-7.783l5.227,1.601c4.442,1.361,8.418,1.974,11.937,1.969
	c-0.354,3.115-1.897,4.038-8.584,8.211c-2.397,1.496-5.946,3.858-7.889,5.251c-1.941,1.392-5.121,3.67-7.064,5.061
	c-6.735,4.821-15.658,11.717-17.484,13.512c-0.779,0.767-2.062,2.008-2.849,2.758c-8.508,8.105-13.675,15.288-14.364,19.967
	l-0.391,2.665l1.695,1.303c6.559,5.042,15.921,6.123,29.744,3.435c2.756-0.537,5.56-0.943,6.232-0.904
	c0.672,0.039,1.557-0.111,1.966-0.333c0.41-0.221,2.854-0.875,5.428-1.455c17.036-3.827,23.121-5.811,58.55-19.093
	c18.64-6.988,28.446-10.762,34.853-13.51c-5.675,16.33-12.041,31.92-13.538,32.429c-0.432,0.146-1.994,2.511-3.47,5.255
	c-1.476,2.743-2.725,4.973-2.774,4.955c-0.05-0.018-1.038-1.015-2.196-2.216c-6.946-7.207-18.716-4.438-17.609,4.143
	c0.918,7.115,7.332,13.9,19.655,20.787c5.853,3.271,34.344,13.426,40.106,14.295c2.352,0.355,3.008,0.674,5.417,2.641
	c3.349,2.734,7.424,5.349,11.19,7.183c1.557,0.758,2.866,1.538,2.908,1.734c0.086,0.4,10.381,3.952,11.591,4
	c0.431,0.017,2.589,0.32,4.796,0.674c8.48,1.358,16.422-0.285,20.597-4.26c1.09-1.037,2.188-1.812,2.443-1.722
	s0.801-0.788,1.212-1.952c0.413-1.164,0.544-2.19,0.29-2.28s-0.586-1.101-0.739-2.247c-0.679-5.072-3.684-7.185-11.773-8.277
	c-4.7-0.633-4.801-0.703-4.227-2.955c0.221-0.87,0.857-3.663,1.413-6.206c1.541-7.046,5.847-17.472,17.373-42.064
	c7.608-16.232,14.132-28.602,18.622-35.312C350.412,201.239,350.508,200.969,349.394,198.63z M90.658,102.073
	c-9.183-4.001-17.026-8.503-16.146-9.268c0.112-0.097,1.176,0.406,2.365,1.118c1.189,0.713,5.965,3.082,10.614,5.268
	C97.067,103.69,99.544,105.945,90.658,102.073z M102.728,108.199c-3.444-1.801-3.957-2.278-2.491-2.311
	c1.377-0.032,10.195,3.874,10.152,4.498C110.339,111.103,105.812,109.811,102.728,108.199z M148.088,130.907
	c-0.462,0.076-1.289-0.377-1.838-1.007c-3.503-4.026-5.862-2.842-3.287,1.648l1.758,3.065l-5.671-4.804
	c-7.392-6.263-14.501-11.589-18.41-13.791c-5.156-2.905-4.34-2.897,2.592,0.029C135.214,121.103,150.853,130.454,148.088,130.907z
	 M134.572,224.719c-3.648,4.996-4.748,7.843-5.351,13.858c-0.579,5.774-2.011,7.477-4.993,5.937
	c-3.959-2.044-0.069-11.711,8.037-19.973c1.427-1.454,2.871-2.976,3.212-3.384c0.84-1.006,1.343-1.196,1.57-0.592
	C137.151,220.842,136.037,222.712,134.572,224.719z M265.695,159.001c3.389-1.037,6.761-2.082,7.492-2.321
	c0.732-0.24,1.619-0.382,1.973-0.316c0.353,0.068,2.235-0.29,4.182-0.794c3.26-0.844,8.722-1.588,14.49-1.975
	c15.309-1.027,20.217,5.746,10.966,15.13c-0.593,0.602-1.183,1.205-1.703,1.738c-4.48-1.803-7.94-3.01-8.415-2.783
	c-0.172,0.081-1.41-0.104-2.751-0.414c-12.525-2.894-15.269-3.45-19.749-4.004c-12.949-1.602-15.012-0.859-15.247,5.507
	c-0.154,4.167-0.812,9.225-1.899,14.83c-1.566-3.568-5.887-10.363-8.843-13.649C242.801,166.182,243.511,165.785,265.695,159.001z
	 M241.396,178.963c3.028-2.406,3.328-2.5,4.331-1.36c5.366,6.095,5.673,8.538,1.422,11.356c-3.123,2.071-3.329,1.968-5.872-2.895
	C238.732,181.202,238.734,181.075,241.396,178.963z M225.061,204.316c5.843-2.19,14.082-6.387,14.716-7.497
	c0.385-0.674,0.049-1.874-1.468-5.242c-1.815-4.029-2.695-5.332-5.383-7.98c-1.046-1.029-2.47-0.834-3.038,0.415
	c-0.564,1.239-16.752,7.337-18.181,6.848c-2.394-0.817,1.304-2.772,19.214-10.155l2.416-0.996l1.648,2.519
	c2.476,3.784,6.975,14.092,6.639,15.214c-1.333,4.459-19.532,12.561-20.773,9.249C220.653,206.164,221.687,205.581,225.061,204.316z
	 M221.507,192.508l4.649-1.743c3.366-1.262,4.896-1.603,5.541-1.234c0.536,0.307,1.324,1.857,1.978,3.889l1.087,3.378l-5.05,2.063
	l-5.051,2.063l-1.577-4.208L221.507,192.508z M160.563,91.284c7.375-0.178,9.713,1.062,13.003,6.894
	c1.149,2.033,2.462,4.095,2.922,4.58c0.459,0.486,1.916,2.626,3.237,4.759c1.322,2.133,3.55,5.465,4.952,7.402
	c2.953,4.083,4.573,7.394,4.815,9.844c0.095,0.95,0.521,3.472,0.95,5.604c0.43,2.132,0.641,4.277,0.471,4.766
	c-0.875,2.52,1.586,0.795,3.52-2.467c1.355-2.286,1.418-2.219,4.834,5.245c4.657,10.174,6.921,14.318,9.563,17.505
	c1.449,1.748,2.251,3.09,1.977,3.312c-2.983,2.414-1.87,3.346,6.315,5.291c11.024,2.618,21.779,8.229,18.286,9.539
	c-0.528,0.198-1.071,0.602-1.206,0.899c-0.32,0.706-6.183,4.152-8.892,5.228c-1.168,0.464-2.213,1.039-2.321,1.277
	c-0.249,0.547-5.974,2.744-7.171,2.751c-0.491,0.003-1.771,0.173-2.844,0.378c-5.351,1.025-13.444-1.287-12.972-3.704
	c0.191-0.968,0.878-1.832,4.313-5.427c0.41-0.428,1.446-1.042,2.302-1.363c6.188-2.32,1.128-7.078-8.838-8.308
	c-13.082-1.615-16.379-6.738-11.394-17.701c2.964-6.519,3.1-7.974,0.959-10.25c-2.898-3.082-7.91-9.403-9.02-11.374
	c-0.611-1.086-1.492-2.369-1.956-2.851c-3.406-3.535-8.444-16.588-8.082-20.938c0.339-4.073,0.671-3.812-8.7-6.866
	C150.786,92.437,151.01,91.513,160.563,91.284z M205.367,207.141c-5.434,0.401-10.737-0.323-12.501-1.706
	c-2.726-2.136-2.589-2.355,2.928-4.635c2.773-1.148,5.625-2.36,6.337-2.696c0.711-0.336,1.666-0.442,2.119-0.234
	c0.467,0.211,0.941,1.091,1.092,2.019c0.147,0.904,0.909,2.442,1.693,3.415C209.348,206.181,209.049,206.869,205.367,207.141z
	 M159.479,152.407l-2.81-4.472l2.568,2.847c1.426,1.58,2.64,3.095,3.654,4.555c-0.021,1.092-0.059,2.136-0.103,2.959
	C161.932,156.512,160.835,154.566,159.479,152.407z M164.555,124.423c0.111-0.244-0.506-2.328-1.37-4.633
	c-2.241-5.976-1.177-4.829,2.063,2.225c8.033,17.49,9.521,22.924,8.177,29.827c-0.474,2.43-1.551,3.218-1.677,1.226
	c-0.373-5.88-2.04-12.958-5.113-21.709C165.38,127.787,164.444,124.667,164.555,124.423z M156.953,136.25
	c1.057,0.723,3.499,3.087,6.164,5.839c0.165,0.808,0.24,1.532,0.249,2.332C159.16,139.714,155.565,135.298,156.953,136.25z
	 M161.06,175.873c-5.098,4.438-5.008,4.453-6.527-1.095c-0.665-2.432-0.712-3.536-0.132-3.119c0.495,0.354,1.137,1.617,1.426,2.808
	c0.716,2.936,1.473,2.986,4.558,0.301c1.482-1.289,2.591-2.585,3.356-3.95c0.099,0.593,0.199,1.237,0.295,1.926
	C163.23,173.803,162.242,174.845,161.06,175.873z M177.692,192.088c-3.023,1.552-5.39-3.722-5.573-12.426
	c-0.028-1.304-0.213-4.729-0.412-7.612c-0.709-10.3-0.426-10.628,2.84-3.324c1.23,2.752,2.583,5.465,3.005,6.026
	c0.64,0.852,0.491,1.306-0.894,2.727l-1.661,1.705l1.995,6.118C178.983,191.409,178.984,191.424,177.692,192.088z M224.206,213.25
	c-7.123,2.161-15.706,4.319-16.376,4.119c-0.37-0.111-1.909,0.087-3.42,0.44c-3.704,0.864-13.763,2.032-16.667,1.935
	c-4.98-0.167-8.791-0.529-8.909-0.846c-0.169-0.449,8.102-2.677,8.952-2.411c0.373,0.116,3.615-0.556,7.205-1.493
	c3.593-0.936,6.821-1.643,7.176-1.571c0.356,0.071,1.719-0.236,3.03-0.682c5.417-1.849,8.081-2.305,10.179-1.747
	c6.51,1.734,22.707-5.615,30.306-13.749c2.813-3.011,6.238-6.594,7.611-7.96c0.26-0.259,0.489-0.499,0.702-0.729
	c-1.041,4.605-2.332,9.489-3.846,14.489c-0.017,0.054-0.033,0.109-0.05,0.163C241.904,206.962,231.65,210.99,224.206,213.25z
	 M236.539,250.304c14.998-30.179,28.413-77.696,23.621-83.667c-1.417-1.765,1.39-3.103,5.818-2.771
	c14.026,1.052,35.561,7.43,52.375,15.513c8.785,4.223,22.738,12.814,23.465,14.448c0.407,0.918-2.371-0.458-13.287-6.576
	c-14.926-8.364-20.669-10.876-29.563-12.933c-7.775-1.796-9.332-0.853-11.535,6.993c-1.314,4.681-17.486,50.366-19.07,53.87
	c-0.453,1.004-1.456,3.507-2.228,5.563c-1.312,3.494-7.612,17.243-7.979,17.419c-0.19,0.09-5.2-1.538-6.875-2.235l-1.103-0.46
	l2.43-5.888c12.122-29.364,25.699-68.342,26.335-75.608c0.268-3.05,0.299-3.122,1.719-3.853c1.768-0.911,1.209-1.16-2.122-0.947
	c-2.43,0.156-2.554,0.236-2.793,1.79c-1.099,7.167-5.858,23.901-13.027,45.804c-1.11,3.392-2.019,6.286-2.021,6.431
	c-0.016,1.412-10.782,29.675-11.918,31.284c-0.301,0.425-1.018,0.474-1.997,0.135c-0.841-0.292-3.634-1.09-6.21-1.773l-4.682-1.244
	L236.539,250.304z M229.987,282.549c-0.039,2.019-15.533-7.902-20.47-13.107c-8.479-8.937,1.49-18.251,11.614-10.849
	c1.028,0.752,1.864,1.677,1.858,2.055c-0.01,0.499-0.289,0.489-1.019-0.036c-5.629-4.044-9.566-4.557-11.354-1.48
	c-2.123,3.656,0.207,5.932,9.46,9.234c6.08,2.17,11.372,5.299,10.612,6.273c-0.157,0.202-0.383,0.256-0.501,0.119
	c-0.117-0.137-0.595-0.117-1.062,0.044c-0.938,0.324-5.053,0.294-5.017-0.037c0.013-0.115-0.357-0.077-0.823,0.084
	c-0.466,0.161-1.749,0.15-2.852-0.025c-1.887-0.299-1.946-0.268-1.015,0.521c1.068,0.905,5.618,1.591,11.343,1.708
	c3.526,0.073,8.334,1.132,8.102,1.786c-0.226,0.635-3.256,1.863-6.232,2.525C231.182,281.687,229.993,282.219,229.987,282.549z
	 M280.184,306.353c-2.652-0.941-8.375-5.462-8.056-6.364c0.26-0.735,2.687-0.065,3.158,0.872c0.163,0.323,1.514,1.485,3.004,2.585
	C280.855,305.337,281.915,306.967,280.184,306.353z M311.92,295.117c3.497,0.49,8.055,2.263,9.915,3.858
	c2.324,1.992,1.795,6.548-1.135,9.78c-1.771,1.953-2.652,1.591-1.352-0.555c4.532-7.483,0.031-10.108-20.262-11.813
	c-6.222-0.522-13.041-1.115-15.153-1.317c-2.112-0.202-4.332-0.325-4.932-0.275c-1.381,0.117-12.505-1.466-17.39-2.474
	c-13.361-2.758-16.321-3.494-22.495-5.598c-4.335-1.477-2.185-1.8,2.741-0.412c2.692,0.758,5.749,1.543,6.795,1.745
	c4.763,0.917,18.96,3.087,24.025,3.672c6.296,0.728,11.838,1.342,12.99,1.44c0.424,0.037,2.256,0.244,4.072,0.463
	c1.815,0.218,4.314,0.395,5.552,0.394c1.238-0.001,2.214,0.102,2.169,0.229c-0.045,0.126,0.448,0.151,1.094,0.052
	C300.113,294.071,307.75,294.534,311.92,295.117z M307.819,284.265l-1.393-0.738l-1.413,4.688l-1.413,4.689l-1.582-0.009
	c-0.871-0.006-1.657-0.036-1.747-0.068c-0.09-0.032,0.625-2.285,1.59-5.008c2.039-5.748,2.141-5.501-3.278-7.996
	c-1.739-0.8-5.1-2.379-7.467-3.507c-8.498-4.052-25.124-10.999-33.054-13.814c-9.147-3.247-8.109-3.369-10.636,1.255
	c-6.747,12.343-8.062,13.924-10.502,12.621c-2.557-1.364-2.573-1.493-0.597-4.668c9.343-15.012,8.783-13.931,7.367-14.217
	c-0.892-0.18-1.349,0.147-2.138,1.533c-9.29,16.305-8.586,15.676-13.347,11.965c-4.209-3.281-4.196-2.756-0.251-9.799
	c1.878-3.353,3.586-6.234,3.796-6.403c0.211-0.169,0.001-0.567-0.466-0.884c-1.15-0.78-0.595-2.083,0.828-1.945
	c4.584,0.447,40.789,13.075,51.24,17.872c4.912,2.254,11.571,5.438,15.391,7.358c5.971,3,10.994,6.326,10.72,7.098
	C309.277,284.82,308.856,284.812,307.819,284.265z M346.031,204.557c-0.319,0.432-0.919,1.381-1.333,2.108
	c-4.145,7.266-6.854,12.136-7.381,13.267c-0.349,0.749-1.311,2.553-2.136,4.007c-3.143,5.541-12.257,23.6-15.296,30.313
	c-0.738,1.631-1.916,4.191-2.617,5.69c-2.428,5.191-3.864,8.723-6.087,14.983c-2.53,7.121-2.5,7.074-4.06,6.159
	c-1.108-0.649-1.108-0.759-0.009-2.976c0.627-1.267,2.283-4.877,3.678-8.022c2.712-6.116,3.197-7.147,13.98-29.721
	c0.356-0.747,1.279-2.684,2.051-4.303c0.77-1.619,2.971-6.081,4.888-9.914c4.188-8.375,6.927-13.915,8.243-16.667
	c2.731-5.715,3.386-6.781,4.269-6.949c1.149-0.219,1.283-0.175,1.897,0.607C346.393,203.492,346.356,204.117,346.031,204.557z
	 M103.713,202.692c-1.468-0.989-1.541-1.128-0.422-0.799c9.855,2.893,16.295,1.367,15.704-3.72
	c-0.617-5.3-22.376-27.143-32.55-32.676l-1.449-0.788l-0.315,3.998c-0.903,11.464-13.428,9.265-25.467-4.469
	c-3.298-3.762-3.825-4.181-3.743-2.967c0.247,3.666,15.231,22.135,23.047,28.404c2.223,1.783,4.436,3.269,4.916,3.302
	c0.48,0.033,1.987,1.339,3.347,2.902c2.08,2.389,2.652,2.751,3.602,2.281c1.187-0.589,2.756,0.192,4.603,2.294
	c2.481,2.82,9.812,5.658,10.328,3.997C105.41,204.142,104.688,203.35,103.713,202.692z"/>
</svg>
