<svg width="400" height="400" viewBox="0 0 400 400" fill="none" xmlns="http://www.w3.org/2000/svg">
<path fill-rule="evenodd" clip-rule="evenodd" d="M83.7144 104.083C83.7144 104.986 93.849 105.18 137.916 105.121C199.556 105.039 200.928 105.162 201.072 110.813C201.087 111.397 201.661 112.617 202.347 113.526C203.034 114.433 203.595 116.368 203.595 117.827C203.595 119.285 204.157 121.22 204.844 122.128C206.611 124.465 206.611 140.946 204.844 143.283C204.157 144.191 203.595 146.361 203.595 148.106C203.595 150.382 202.804 152.317 200.795 154.958C195.519 161.889 198.976 161.526 137.866 161.572C108.028 161.595 83.8049 161.922 84.0386 162.3C84.4499 162.966 123.591 163.039 269.67 162.65L339.571 162.463L342.535 159.861C352.029 151.525 352.621 116.263 343.429 106.625L340.002 103.032L211.859 103.002C106.975 102.979 83.7144 103.175 83.7144 104.083ZM97.0649 132.917L97.2379 150.985L143.828 151.193L190.417 151.401L192.33 148.441C193.382 146.814 194.243 144.759 194.243 143.875C194.243 142.99 194.817 141.789 195.518 141.207C196.468 140.419 196.793 138.314 196.793 132.966C196.793 127.714 196.45 125.44 195.518 124.507C194.817 123.806 194.243 122.354 194.243 121.282C194.243 120.209 193.45 118.323 192.481 117.091L190.719 114.851L143.806 114.85H96.893L97.0649 132.917ZM50.1131 170.145C49.1484 171.705 53.3187 171.838 104.967 171.895C167.936 171.964 162.41 171.161 168.114 181.072C172.794 189.205 172.794 211.39 168.114 219.524C162.848 228.674 168.394 227.93 105.405 227.93C69.7865 227.93 50.4728 228.227 50.1303 228.781C49.7797 229.348 92.6071 229.56 178.387 229.418L307.168 229.205L309.158 226.702C311.832 223.337 314.059 218.592 314.095 216.183C314.111 215.101 314.559 213.403 315.089 212.411C316.463 209.845 316.574 190.691 315.227 188.921C314.649 188.164 314.166 186.102 314.151 184.34C314.121 180.869 311.549 176.155 307.78 172.665C305.672 170.714 304.814 170.535 297.264 170.484C199.467 169.819 50.4407 169.614 50.1131 170.145ZM61.6087 199.448V217.727H108.267C144.557 217.727 155.12 217.491 155.803 216.665C161.918 209.273 161.455 190.103 154.997 183.295L153.008 181.197L107.308 181.182L61.6087 181.168V199.448ZM72.6621 238.149C69.8724 239.02 65.2577 238.925 128.621 239.311L183.306 239.646L185.323 241.541C195.209 250.827 195.679 284.225 186.043 292.651C182.827 295.465 178.766 295.925 157.683 295.872C129.562 295.798 128.776 295.824 128.776 296.797C128.776 297.36 162.217 297.647 227.398 297.647H326.022L329.376 294.618C335.894 288.728 336.654 285.885 336.654 267.383C336.654 257.083 336.319 250.711 335.739 249.953C335.235 249.297 334.182 247.025 333.399 244.904C330.745 237.707 342.982 238.356 201.045 237.895C131.603 237.669 73.8307 237.784 72.6621 238.149ZM83.9103 267.192L84.1394 286.17L127.501 286.397C175.808 286.649 175.363 286.678 178.683 283.164C184.451 277.062 184.337 255.695 178.514 251.252L175.731 249.131L130.707 249.291C105.944 249.379 85.2336 249.173 84.6825 248.833C83.9241 248.364 83.7373 252.805 83.9103 267.192ZM81.1722 295.77C76.7338 295.905 72.7355 296.384 72.2875 296.832C71.7662 297.353 81.6797 297.647 99.6988 297.647C117.95 297.647 127.926 297.347 127.926 296.797C127.926 296.265 122.13 295.915 112.41 295.862C103.876 295.815 95.1711 295.72 93.0665 295.649C90.963 295.579 85.6093 295.633 81.1722 295.77Z" fill="#FFEE00"/>
</svg>
