<svg width="400" height="400" viewBox="0 0 400 400" fill="none" xmlns="http://www.w3.org/2000/svg">
<path fill-rule="evenodd" clip-rule="evenodd" d="M194.271 72.1961C193.236 73.5135 192.388 75.3403 192.388 76.2561C192.388 79.317 185.239 99.9709 183.018 103.328C181.811 105.151 179.914 108.426 178.801 110.608C177.689 112.79 173.884 117.428 170.348 120.915C160.241 130.884 161.081 134.005 174.276 135.519C184.295 136.669 185.559 138.136 184.148 146.972C183.715 149.685 183.272 176.467 183.163 206.486C182.912 275.787 182.974 271.776 182.113 273.107C177.288 280.562 154.547 266.249 146.734 250.842C141.505 240.528 136.438 217.788 135.955 202.462C135.931 201.711 135.57 200.281 135.151 199.281C134.734 198.282 133.539 193.9 132.496 189.542C131.186 184.066 129.494 179.91 127.015 176.075C120.217 165.556 120.258 162.868 127.297 158.024C138.098 150.594 136.313 147.048 118.133 139.822C111.524 137.194 103.959 133.536 101.322 131.691C98.686 129.846 93.8056 126.436 90.4778 124.112C77.6488 115.153 72.051 113.153 68.9754 116.428L66.9993 118.53L68.8677 122.397C69.8961 124.523 72.0792 128.381 73.7186 130.971C79.1891 139.603 85.1714 159.01 85.1714 168.122C85.1714 183.951 90.5402 189.218 99.821 182.495C107.006 177.29 110.62 185.605 110.615 207.329C110.614 214.943 111.132 222.305 111.928 225.955C112.651 229.276 113.882 235.561 114.663 239.925C120.945 275.028 141.481 300.896 168.555 307.808C172.589 308.839 177.146 310.396 178.681 311.27L181.473 312.86L181.479 321.217L181.485 329.575L194.887 329.849C217.363 330.308 217.13 330.418 217.029 319.35C216.949 310.737 218.029 309.637 230.551 305.586C243.996 301.235 259.004 289.281 269.622 274.466C281.995 257.2 284.788 246.91 285.9 214.486C287.013 182.005 290.932 172.691 299.864 181.305C309.766 190.855 315.053 190.207 315.053 179.442C315.053 175.977 315.454 171.664 315.944 169.857C316.434 168.05 317.679 162.073 318.709 156.576C320.611 146.437 325.975 133.462 331.779 124.96C338.35 115.338 328.617 116 314.145 126.161C301.196 135.251 293.175 137.837 273.163 139.368C258.637 140.479 257.156 144.916 269.014 151.799C274.957 155.249 274.993 155.863 269.867 166.85C263.071 181.412 262.979 181.738 258.758 206.096C256.751 217.673 256.668 218.073 254.75 225.178C249.129 246.002 232.191 265.419 216.996 268.458C213.299 269.197 213.39 270.335 212.872 216.999C212.326 160.936 211.984 145.706 211.175 141.584C210.112 136.173 211.623 135.249 222.025 134.939C238.818 134.441 241.324 130.469 230.153 122.061C216.709 111.943 208.768 99.0637 204.556 80.5438C202.33 70.7538 198.104 67.3243 194.271 72.1961Z" fill="#FF0000"/>
</svg>
