<svg width="400" height="400" viewBox="0 0 400 400" fill="none" xmlns="http://www.w3.org/2000/svg">
<path fill-rule="evenodd" clip-rule="evenodd" d="M195.341 72.6635C193.365 74.9492 178.515 92.7309 155.497 120.373C146.758 130.868 136.897 142.652 133.587 146.557C123.607 158.331 91.018 197.424 85.796 203.887C83.1109 207.211 78.6173 212.691 75.8102 216.065C69.7402 223.363 69.623 224.354 74.2948 228.799L77.8817 232.211H90.7154H103.548V276.177C103.548 335.606 100.1 329.848 135.7 329.848H161.798L164.201 327.34C168.026 323.349 168.344 320.501 168.344 290.255C168.344 274.574 168.739 259.664 169.221 257.12C174.51 229.234 212.856 222.906 226.819 247.615C230.567 254.246 230.689 255.465 230.958 288.573C231.217 320.608 231.519 323.178 235.507 327.34L237.909 329.848H263.684H289.457L292.255 326.704C296.021 322.47 296.093 321.554 296.048 278.81C296.026 258.796 296.043 240.123 296.084 237.316L296.159 232.211H308.869H321.58L325.29 229.035C327.389 227.24 329.001 225.075 329.001 224.055C329.001 222.646 313.011 202.519 297.298 184.148C296.269 182.946 296.015 176.175 295.88 146.385C295.695 105.594 295.808 106.313 289.227 104.341C282.413 102.299 269.158 103.567 266.038 106.558L263.318 109.166V125.42C263.318 134.361 262.974 141.676 262.555 141.676C262.135 141.676 253.911 132.189 244.278 120.594C198.262 65.2062 200.171 67.0756 195.341 72.6635Z" fill="#0000FF"/>
</svg>
