<svg width="400" height="400" viewBox="0 0 400 400" fill="none" xmlns="http://www.w3.org/2000/svg">
<path style="fill-rule:evenodd;clip-rule:evenodd;fill:#0000FF;" d="
	M241.616,255.989c23.059,19.896,46.581,39.241,70.882,57.663c3.396,0.879,7.477-0.964,10.386-3.168
	c-2.805,6.249-7.595,9.014-11.594,11.158C287.132,300.27,263.965,278.356,241.616,255.989z M139.703,83.721
	c19.371-1.661,39.376,4.071,55.421,17.585c16.046,13.515,25.097,32.252,26.756,51.625c1.659,19.369-4.073,39.376-17.586,55.421
	c-13.515,16.046-32.254,25.095-51.625,26.755c-19.37,1.659-39.374-4.072-55.421-17.587c-16.046-13.514-25.096-32.254-26.755-51.623
	c-1.659-19.371,4.073-39.376,17.586-55.421C101.595,94.428,120.333,85.379,139.703,83.721L139.703,83.721z M114.752,221.444
	c-1.648-1.537-3.234-3.157-4.751-4.854c-12.837-14.361-20.833-34.252-20.946-56.267c-0.114-22.012,7.678-41.983,20.365-56.476
	c1.089-1.245,2.216-2.449,3.376-3.611c-4.767,2.951-9.158,6.451-13.081,10.413c-12.696,12.827-20.499,30.498-20.398,49.972
	s8.085,37.065,20.912,49.76C104.558,214.664,109.437,218.39,114.752,221.444L114.752,221.444z M77.799,101.815
	c15.904-18.883,37.959-29.534,60.758-31.487c22.799-1.953,46.344,4.792,65.228,20.696c18.883,15.905,29.534,37.959,31.487,60.759
	c1.358,15.842-1.488,32.044-8.685,46.791l6.138,5.169l-7.095,8.425l6.571,5.535l-13.684,16.25l-6.573-5.536l-7.096,8.425
	l-6.06-5.103c-13.385,9.751-28.996,15.391-44.972,16.76c-22.8,1.953-46.345-4.794-65.229-20.697
	c-18.884-15.904-29.534-37.958-31.487-60.757C55.149,144.244,61.893,120.701,77.799,101.815z M242.716,219.143l-8.89,10.555
	l-0.106,0.127l-0.074,0.088l-0.108,0.127l-0.074,0.085l-0.106,0.129l-0.072,0.085l-0.106,0.125l-0.075,0.088L233,230.678
	l-0.074,0.088l-0.106,0.125l-0.074,0.088l-0.106,0.127l-0.074,0.087l-0.106,0.127l-0.074,0.085l-0.106,0.127l-0.074,0.088
	l-0.106,0.127l-0.074,0.086l-0.108,0.127l-0.072,0.088l-0.106,0.125l-0.075,0.088l-0.106,0.127l-0.074,0.085l-0.106,0.127
	l-0.074,0.088l-0.106,0.125l-8.89,10.556c28.658,30.094,58.117,59.236,89.049,86.631c4.61-1.33,11.886-8.597,17.49-14.944
	l0.039,0.031c0.422-0.504,0.859-1.026,1.303-1.567c0.456-0.529,0.897-1.047,1.322-1.55l-0.037-0.03
	c5.3-6.604,11.224-15.009,11.75-19.778C310.973,266.338,277.244,242.264,242.716,219.143L242.716,219.143"/>
</svg>
