<svg width="400" height="400" viewBox="0 0 400 400" fill="none" xmlns="http://www.w3.org/2000/svg">
<path fill-rule="evenodd" clip-rule="evenodd" d="M199.571 198.618C198.505 199.683 199.008 215.854 200.135 216.745C202.272 218.435 228.235 238.313 232.882 241.818C237.57 245.354 249.597 253.547 254.84 256.777C259.381 259.575 268.914 265.41 270.122 266.13C274.362 268.66 287.696 275.884 287.696 275.65C287.696 275.494 289.673 276.477 292.089 277.836C294.506 279.195 297.686 280.781 299.158 281.359C300.628 281.937 302.348 282.813 302.978 283.304C303.608 283.796 305.327 284.647 306.799 285.194C318.119 289.405 324.139 292.902 327.329 297.124C334.651 306.811 340.048 306.614 346.637 296.418C353.508 285.788 349.498 276.86 337.821 276.791C335.481 276.778 333.874 276.148 331.476 274.307C329.711 272.953 324.211 268.749 319.256 264.967C314.299 261.184 309.853 257.746 309.375 257.325C308.897 256.905 303.736 253.383 297.91 249.498C280.588 237.95 276.9 235.549 276.484 235.549C276.267 235.549 272.942 233.603 269.094 231.224C265.246 228.845 260.541 226.13 258.637 225.191C256.734 224.251 253.468 222.475 251.379 221.243C249.291 220.012 247.238 218.903 246.817 218.779C243.705 217.867 240.849 216.569 223.335 208.106C216.304 204.709 210.086 201.929 209.518 201.929C208.95 201.929 208.228 201.671 207.913 201.355C207.597 201.04 207.109 200.752 206.829 200.714C206.549 200.676 205.042 200.074 203.48 199.376C200.239 197.93 200.255 197.933 199.571 198.618Z" fill="#FF0000"/>
<path fill-rule="evenodd" clip-rule="evenodd" d="M112.43 97.8185L107.939 101.325L108.433 106.641C108.974 112.464 108.339 114.059 105.479 114.059C101.625 114.059 98.6171 117.211 98.1651 121.725C97.8799 124.568 96.8925 127.365 95.0711 130.486C93.5998 133.008 91.7249 136.218 90.9053 137.619C84.6257 148.353 81.9672 151.99 79.3633 153.409C75.2964 155.626 74.7857 156.814 75.9491 161.355C77.1548 166.06 77.0158 166.298 71.6062 168.738C66 171.268 65.3452 172.221 65.3452 177.856C65.3452 186.105 72.9416 194.23 87.5045 201.561C88.9748 202.302 91.5962 203.878 93.329 205.063C95.0608 206.248 96.6948 207.002 96.9584 206.738C97.222 206.475 97.4371 206.66 97.4371 207.15C97.4371 207.64 97.9067 208.042 98.4801 208.042C99.0547 208.042 100.374 208.71 101.412 209.527C110.62 216.771 124.562 211.588 124.562 200.921C124.562 194.283 124.984 193.524 128.667 193.524C133.048 193.524 136.405 189.836 134.572 187.039C132.216 183.442 136.508 179.098 139.889 181.656C140.706 182.274 143.023 182.789 145.04 182.803C151.053 182.842 154.707 185.514 157.776 192.114C160.338 197.629 165.505 200.173 173.256 199.737C175.591 199.606 177.148 200.304 181.907 203.618C185.099 205.841 188.295 208.004 189.009 208.424C189.722 208.844 191.383 209.962 192.7 210.907C196.566 213.683 196.769 213.369 196.769 204.619V196.611L193.904 195.057C185.067 190.263 181.89 187.731 179.603 183.66C176.29 177.765 174.379 176.572 168.326 176.618C161.804 176.667 156.25 173.983 152.714 169.073C151.352 167.181 149.482 164.865 148.559 163.925L146.882 162.216L149.039 159.103C150.225 157.391 152.253 155.549 153.543 155.009C157.939 153.172 158.918 149.143 156.075 144.59C154.894 142.697 156.395 141.033 160.212 140.006C170.307 137.287 171.02 124.487 161.501 116.849C157.951 114.001 158.039 114.062 152.069 110.249C149.128 108.37 146.549 106.654 146.339 106.434C146.129 106.215 144.753 105.398 143.283 104.618C141.811 103.838 138.079 101.857 134.987 100.215C131.895 98.5732 128.496 96.547 127.434 95.7109C123.748 92.8115 117.766 93.6517 112.43 97.8185ZM128.926 266.263C128.207 266.556 112.838 266.78 94.7735 266.76L61.9279 266.725L58.6321 270.43C54.3345 275.261 53.8845 276.518 53.8845 283.681C53.8845 289.179 53.7219 289.816 51.9736 291.191C48.4369 293.974 49.9236 298.969 54.2892 298.969C54.9873 298.969 56.6429 299.742 57.969 300.687C59.9798 302.121 61.7312 302.479 68.5359 302.839C73.9486 303.126 77.1373 303.64 78.0125 304.367C80.1263 306.123 137.068 305.895 139.281 304.123C139.811 303.698 144.281 303.193 149.214 303.001C156.342 302.723 158.598 302.358 160.207 301.226C161.32 300.441 163.134 299.574 164.236 299.297C168.248 298.29 169.543 294.449 166.84 291.572C165.596 290.248 165.138 288.709 165.009 285.41C164.743 278.686 163.96 275.355 162.138 273.18C156.115 265.994 157.551 266.644 147.028 266.353C141.817 266.209 135.906 266.01 133.893 265.911C131.879 265.811 129.644 265.97 128.926 266.263Z" fill="#0000FF"/>
</svg>
