<svg width="400" height="400" viewBox="0 0 400 400" fill="none" xmlns="http://www.w3.org/2000/svg">
<path fill-rule="evenodd" clip-rule="evenodd" d="M134.107 84.3333C133.663 84.4812 131.301 85.2025 128.859 85.9368C125.39 86.9779 123.933 87.9482 122.199 90.373L119.979 93.4767V108.438C119.979 117.085 120.304 123.599 120.752 123.876C121.176 124.138 121.31 124.91 121.047 125.592C120.786 126.273 120.966 127.624 121.449 128.594C121.931 129.563 123.1 133.08 124.048 136.41C124.996 139.741 126.293 143.283 126.931 144.281C127.568 145.28 127.855 146.098 127.568 146.098C127.282 146.098 127.424 146.552 127.885 147.107C128.345 147.663 129.669 150.63 130.825 153.703C131.981 156.777 133.222 159.683 133.581 160.162C133.94 160.642 134.901 162.85 135.717 165.069C136.534 167.29 137.73 170.378 138.374 171.931C139.018 173.486 139.471 174.899 139.381 175.071C139.291 175.243 139.523 175.606 139.899 175.878C140.274 176.15 141.425 178.552 142.457 181.216C143.49 183.88 145.394 188.323 146.688 191.088C147.983 193.855 149.042 196.506 149.042 196.981C149.042 197.457 149.661 199.009 150.417 200.43C151.173 201.851 151.703 203.467 151.593 204.023C151.483 204.578 151.759 205.031 152.205 205.031C152.652 205.031 153.404 206.472 153.878 208.231C154.352 209.991 155.546 211.996 156.533 212.687C157.52 213.377 158.357 214.209 158.397 214.533C158.435 214.858 158.683 215.668 158.947 216.334C159.212 217 160.205 221.177 161.152 225.618C162.1 230.058 163.088 234.236 163.348 234.902C163.608 235.568 163.877 236.477 163.946 236.921C164.014 237.364 164.31 238.273 164.604 238.939C165.852 241.767 168.614 256.718 168.798 261.638C168.907 264.576 169.312 267.482 169.696 268.096C170.081 268.71 170.291 269.849 170.163 270.626C170.036 271.402 170.292 272.039 170.735 272.039C171.177 272.039 171.768 272.765 172.05 273.653C172.594 275.366 178.105 276.101 178.105 274.46C178.105 274.016 178.762 273.653 179.566 273.653C184.294 273.653 185.042 263.587 180.668 258.831C179.653 257.727 178.409 253.898 177.221 248.222C176.198 243.339 175.091 239.228 174.76 239.089C174.43 238.948 174.362 238.309 174.608 237.665C174.855 237.022 174.7 236.047 174.265 235.498C173.83 234.948 172.506 229.957 171.324 224.407C170.141 218.857 168.789 213.631 168.318 212.794C167.678 211.657 167.736 211.104 168.545 210.599C169.757 209.845 169.7 193.079 168.481 191.856C168.119 191.493 168.006 189.564 168.23 187.57C168.455 185.576 168.258 183.149 167.793 182.177C167.328 181.204 166.161 169.146 165.199 155.382C164.236 141.617 163.242 129.811 162.988 129.144C162.734 128.478 162.609 127.097 162.71 126.074C162.811 125.052 162.461 123.694 161.932 123.058C161.403 122.42 161.165 121.394 161.402 120.776C161.639 120.158 161.544 119.337 161.19 118.95C160.837 118.563 159.776 115.811 158.833 112.835C157.891 109.859 156.028 105.575 154.696 103.313C153.362 101.052 152.268 98.9464 152.262 98.6331C152.226 96.3627 144.818 85.9705 142.557 85.0208C140.179 84.02 136.046 83.6838 134.107 84.3333ZM130.474 98.8702C130.896 99.9798 131.675 100.888 132.203 100.888C132.732 100.888 132.943 101.111 132.671 101.383C132.399 101.654 133.247 103.773 134.555 106.09C135.863 108.407 136.932 110.683 136.932 111.149C136.932 111.613 137.545 113.401 138.293 115.119C139.043 116.839 139.568 118.576 139.461 118.979C139.356 119.383 139.592 119.928 139.986 120.19C140.746 120.697 143.662 131.923 144.619 138.025C144.932 140.023 145.537 142.091 145.964 142.619C146.39 143.147 146.655 144.237 146.555 145.041C146.454 145.845 146.576 147.047 146.824 147.713C148.844 153.127 150.57 176.235 149.025 177.19C147.838 177.924 144.198 174.23 144.198 172.29C144.198 171.65 143.875 171.124 143.479 171.124C143.083 171.124 142.214 169.762 141.547 168.097C140.881 166.432 139.061 162.345 137.503 159.015C135.946 155.684 134.047 151.053 133.287 148.722C132.525 146.391 131.643 144.484 131.325 144.484C131.008 144.484 129.745 140.033 128.519 134.594C127.293 129.155 126.091 124.16 125.848 123.494C125.606 122.827 125.481 121.139 125.573 119.74C125.665 118.342 125.352 116.958 124.878 116.665C123.38 115.74 123.794 101.917 125.401 99.1966C127.105 96.3127 129.445 96.1626 130.474 98.8702ZM334.279 124.981C333.858 125.354 329.335 126.666 324.229 127.895C319.122 129.124 314.435 130.544 313.811 131.05C313.188 131.556 312.461 131.922 312.197 131.865C309.203 131.211 298.922 137.401 286.285 147.463C283.843 149.409 278.848 153.387 275.185 156.305C271.521 159.224 268.524 161.936 268.524 162.332C268.524 162.728 268.117 163.051 267.619 163.051C267.122 163.051 262.596 166.503 257.564 170.721C252.53 174.939 248.177 178.39 247.888 178.39C247.599 178.39 246.648 179.298 245.775 180.409C244.902 181.519 243.696 182.427 243.094 182.427C242.493 182.427 241.285 183.335 240.413 184.445C239.539 185.556 238.496 186.464 238.095 186.464C236.633 186.464 230.476 193.101 230.904 194.216C231.142 194.836 230.933 195.344 230.441 195.344C229.948 195.344 227.325 196.744 224.613 198.456C221.901 200.168 218.865 201.828 217.865 202.143C216.866 202.46 216.049 203.118 216.049 203.606C216.049 204.094 215.844 204.287 215.593 204.037C215.341 203.786 213.26 204.815 210.969 206.324C208.677 207.834 206.339 209.068 205.775 209.068C205.209 209.068 204.747 209.452 204.747 209.923C204.747 210.393 204.383 210.553 203.939 210.279C203.496 210.005 203.132 210.16 203.132 210.624C203.132 211.089 201.865 211.998 200.316 212.645C198.767 213.293 195.885 214.932 193.914 216.29C191.942 217.646 189.304 218.767 188.051 218.781C184.942 218.814 176.897 224.328 176.895 226.425C176.891 234.168 185.309 237.913 189.597 232.076C189.993 231.538 190.203 231.538 190.227 232.076C190.248 232.52 190.635 232.248 191.088 231.471C191.54 230.694 192.437 230.058 193.081 230.058C193.725 230.058 194.265 229.604 194.282 229.049C194.31 228.083 197.893 225.58 203.939 222.304C205.494 221.463 207.032 220.41 207.359 219.966C207.684 219.523 207.957 219.446 207.963 219.797C207.97 220.147 208.43 220.048 208.985 219.575C210.321 218.439 223.299 210.683 223.865 210.683C224.107 210.683 226.908 209.061 230.089 207.079C233.942 204.677 236.431 203.62 237.548 203.912C239.695 204.473 245.92 202.818 245.92 201.685C245.92 201.211 246.42 201.014 247.032 201.249C247.644 201.484 248.462 201.384 248.848 201.026C249.235 200.668 252.459 199.365 256.011 198.129C259.563 196.894 263.196 195.457 264.085 194.936C264.972 194.415 267.788 193.31 270.341 192.481C272.894 191.652 274.983 190.663 274.983 190.286C274.983 189.907 275.362 189.832 275.826 190.118C276.289 190.405 277.469 190.131 278.45 189.51C279.429 188.89 283.318 187.352 287.093 186.092C290.866 184.833 294.136 183.584 294.358 183.317C294.804 182.778 301.368 180.274 305.459 179.08C306.901 178.659 308.083 177.953 308.083 177.51C308.083 177.067 308.536 176.779 309.091 176.87C309.647 176.961 311.123 176.613 312.373 176.098C313.623 175.582 314.939 175.161 315.297 175.161C315.655 175.161 318.731 173.344 322.132 171.124C325.533 168.905 328.501 167.088 328.726 167.088C328.952 167.088 330.505 165.725 332.179 164.061C333.852 162.395 338.356 158.063 342.19 154.433C349.964 147.072 351.015 144.712 349.281 138.518C348.273 134.922 343.312 127.693 341.182 126.719C340.516 126.416 339.158 125.747 338.166 125.233C336.014 124.123 335.301 124.076 334.279 124.981ZM333.916 132.777C334.721 133.747 334.707 134.27 333.842 135.401C331.563 138.384 324.399 145.291 323.586 145.291C323.116 145.291 321.978 146.248 321.057 147.418C320.138 148.587 319.384 149.315 319.384 149.034C319.384 148.754 316.875 150.316 313.806 152.505C310.738 154.693 306.833 157.188 305.128 158.047C303.422 158.907 297.003 162.201 290.861 165.367C284.719 168.534 279.361 171.124 278.954 171.124C278.549 171.124 275.909 172.214 273.09 173.547C268.271 175.824 262.873 176.761 262.873 175.322C262.873 173.604 265.051 170.445 267.727 168.279C269.361 166.958 274.964 162.197 280.179 157.699C285.396 153.201 290.628 149.023 291.808 148.416C292.989 147.808 294.245 146.856 294.6 146.302C294.956 145.746 295.6 145.291 296.033 145.291C296.466 145.291 299.082 143.866 301.846 142.123C304.61 140.382 308.869 138.172 311.309 137.213C313.75 136.253 316.146 135.139 316.631 134.736C317.117 134.332 317.774 134.261 318.09 134.578C318.406 134.893 318.918 134.777 319.227 134.319C320.87 131.88 332.186 130.693 333.916 132.777ZM225.333 202.233C224.002 203.328 221.279 204.992 219.284 205.934C217.287 206.876 214.137 208.692 212.28 209.969C210.424 211.246 208.033 212.622 206.967 213.028C205.901 213.433 202.73 215.251 199.919 217.067C197.108 218.884 194.359 220.37 193.809 220.37C193.26 220.37 192.601 220.915 192.345 221.582C191.85 222.871 190.215 223.265 190.215 222.095C190.215 221.086 200.661 214.226 201.719 214.54C202.052 214.638 202.325 214.335 202.325 213.865C202.325 213.394 202.688 213.234 203.132 213.508C203.576 213.783 203.939 213.711 203.939 213.349C203.939 212.988 205.012 212.217 206.324 211.636C207.636 211.056 210.088 209.637 211.773 208.485C213.459 207.333 216.906 205.359 219.432 204.098C221.958 202.837 224.25 201.441 224.525 200.997C224.8 200.552 225.639 200.201 226.389 200.217C227.399 200.238 227.124 200.765 225.333 202.233ZM294.358 208.792C293.693 209.014 292.603 209.407 291.936 209.663C291.27 209.92 290.271 210.057 289.716 209.967C289.161 209.878 288.707 210.183 288.707 210.647C288.707 211.111 288.145 211.49 287.458 211.49C286.771 211.49 284.444 213.254 282.288 215.411C274.73 222.968 274.217 231.02 280.853 237.929C284.105 241.317 284.408 241.244 284.199 237.122C284.103 235.236 284.303 233.327 284.645 232.884C284.985 232.44 285.912 230.078 286.705 227.636C288.768 221.283 296.439 213.788 302.762 211.95C305.244 211.228 307.275 210.334 307.275 209.963C307.275 208.745 297.229 207.835 294.358 208.792ZM303.238 213.538C296.901 215.508 287.9 224.946 287.9 229.622C287.9 230.307 287.494 230.866 286.998 230.866C286.494 230.866 286.283 231.577 286.519 232.479C286.751 233.367 286.612 234.297 286.209 234.545C282.885 236.6 286.416 243.272 291.263 244.095C291.559 244.145 292.074 244.458 292.407 244.791C293.294 245.679 303.867 245.532 304.427 244.625C304.69 244.201 305.409 244.046 306.024 244.283C308.074 245.069 316.836 239.053 320.51 234.338C323.28 230.783 323.871 226.216 321.673 225.347C321.297 225.198 321.192 224.748 321.441 224.345C322.047 223.365 317.632 217.041 314.504 214.409C311.663 212.018 308.837 211.799 303.238 213.538ZM163.74 221.463C163.61 222.194 163.883 222.793 164.346 222.793C164.809 222.793 165.188 223.47 165.188 224.298C165.188 225.995 169.002 243.528 169.778 245.397C170.054 246.063 170.202 247.244 170.106 248.021C170.009 248.798 170.27 249.434 170.686 249.434C171.101 249.434 171.686 250.978 171.986 252.865C172.286 254.752 172.736 257.113 172.984 258.112C173.233 259.112 173.08 259.929 172.645 259.929C172.209 259.929 171.202 256.825 170.405 253.032C169.609 249.238 168.67 245.957 168.32 245.74C167.969 245.523 167.9 244.775 168.167 244.079C168.434 243.382 168.296 242.576 167.86 242.288C167.424 242 166.238 237.768 165.225 232.884C164.211 227.999 163.17 223.647 162.911 223.21C162.071 221.798 162.201 219.509 163.102 219.826C163.583 219.996 163.871 220.732 163.74 221.463ZM185.228 224.059C184.823 226.03 180.769 228.202 179.628 227.06C178.925 226.357 179.366 225.721 181.429 224.464C184.705 222.466 185.577 222.373 185.228 224.059ZM58.6233 232.243C52.7706 234.385 47.8884 248.35 50.9333 254.238C52.0701 256.436 65.7726 267.194 67.436 267.194C67.8733 267.194 68.5216 267.648 68.8763 268.204C69.7281 269.534 77.4747 273.653 79.1271 273.653C79.8386 273.653 80.4205 274.016 80.4205 274.46C80.4205 274.904 80.6936 275.209 81.0265 275.137C81.3594 275.065 82.7214 275.457 84.054 276.007C86.8987 277.182 100.195 280.08 102.824 280.099C103.822 280.106 104.64 280.501 104.64 280.976C104.64 281.452 105.457 281.736 106.457 281.607C107.456 281.478 108.636 281.587 109.08 281.85C109.525 282.112 114.429 283.125 119.979 284.101C125.529 285.075 130.797 286.195 131.686 286.586C132.573 286.979 137.477 288.062 142.584 288.994C158.502 291.897 160.697 292.363 162.51 293.218C163.479 293.676 164.842 293.832 165.537 293.565C166.233 293.297 166.804 293.431 166.804 293.861C166.804 294.291 167.712 294.643 168.821 294.643C169.931 294.643 170.839 294.305 170.839 293.89C170.839 292.872 173.827 293.346 177.474 294.943C179.124 295.667 180.806 296.257 181.21 296.257C181.615 296.257 183.352 296.87 185.071 297.617C186.791 298.365 188.651 298.894 189.206 298.793C189.762 298.692 190.215 298.942 190.215 299.35C190.215 299.758 192.849 300.913 196.068 301.919C199.288 302.923 202.65 304.191 203.542 304.736C204.433 305.28 207.851 306.592 211.138 307.651C214.719 308.804 217.246 310.085 217.445 310.849C217.768 312.085 227.127 315.633 230.061 315.633C231.596 315.633 234.617 309.486 234.617 306.361C234.617 303.043 223.898 298.135 221.322 300.273C220.502 300.954 220.085 300.999 220.085 300.409C220.085 299.918 219.087 299.27 217.865 298.966C216.644 298.664 214.374 297.862 212.82 297.186C211.266 296.511 209.664 296.044 209.261 296.15C208.858 296.256 208.313 296.041 208.05 295.671C207.787 295.302 204.484 293.949 200.71 292.663C196.936 291.378 193.122 289.887 192.233 289.35C191.345 288.812 187.391 287.363 183.445 286.131C178.935 284.721 176.145 283.412 175.928 282.605C175.566 281.249 166.946 275.365 164.314 274.677C163.464 274.454 162.766 273.951 162.766 273.558C162.766 273.167 162.248 272.846 161.613 272.846C160.979 272.846 159.979 272.387 159.393 271.825C158.807 271.264 155.965 269.562 153.079 268.042C150.193 266.522 147.352 264.801 146.764 264.218C146.178 263.635 145.317 263.157 144.852 263.157C144.386 263.157 141.787 261.795 139.075 260.131C134.512 257.328 131.546 255.678 123.468 251.452C121.771 250.563 120.201 249.656 119.978 249.434C119.529 248.985 116.153 247.131 109.484 243.673C107.042 242.406 104.681 241.083 104.237 240.732C102.832 239.625 95.4699 236.716 92.5305 236.108C90.976 235.786 89.2724 235.175 88.7437 234.75C88.215 234.325 87.1261 234.06 86.3221 234.16C85.5182 234.261 84.3161 234.123 83.6504 233.854C80.5522 232.602 61.0688 231.349 58.6233 232.243ZM274.492 234.236C274.16 234.772 274.317 235.353 274.84 235.527C275.362 235.701 275.79 236.533 275.79 237.375C275.79 240.556 278.68 245.937 282.377 249.635C286.028 253.29 288.515 254.631 287.616 252.461C287.385 251.906 286.728 249.999 286.155 248.222C285.105 244.972 282.915 242.001 278.817 238.271C277.597 237.159 276.597 235.786 276.597 235.22C276.597 233.74 275.201 233.088 274.492 234.236ZM318.029 238.939C311.84 244.765 297.132 248.816 292.263 246.038C289.323 244.359 284.202 245.18 286.88 246.901C287.321 247.183 287.955 248.323 288.288 249.434C289.486 253.42 292.486 256.525 294.728 256.096C295.862 255.88 297.36 256.176 298.057 256.754C299.082 257.605 299.447 257.609 299.961 256.777C300.311 256.212 301.464 255.834 302.524 255.94C308.194 256.505 318.519 249.402 319.903 243.984C320.159 242.985 320.713 242.167 321.135 242.167C321.557 242.167 321.678 241.805 321.403 241.36C321.128 240.916 321.241 240.553 321.654 240.553C322.29 240.553 323.707 234.906 323.195 234.413C323.097 234.32 320.772 236.356 318.029 238.939ZM80.2867 238.178C80.4347 238.597 81.0961 238.939 81.7575 238.939C83.7407 238.939 96.8471 242.292 98.5855 243.244C99.4732 243.731 100.382 244.158 100.603 244.194C100.825 244.23 102.537 245.06 104.407 246.039C106.275 247.018 108.217 247.819 108.722 247.819C109.226 247.819 110.603 248.489 111.781 249.307C112.96 250.125 115.923 251.85 118.365 253.142C120.807 254.432 122.926 255.763 123.075 256.099C123.224 256.435 123.681 256.503 124.09 256.25C124.499 255.997 125.052 256.357 125.318 257.052C125.585 257.746 126.271 258.314 126.842 258.314C127.975 258.314 140.22 266.85 141.118 268.265C143.213 271.57 135.99 270.768 114.731 265.337C114.288 265.223 113.561 264.914 113.117 264.649C112.673 264.383 108.981 263.196 104.911 262.009C100.843 260.822 95.6679 258.959 93.4117 257.872C91.1555 256.783 88.9091 255.892 88.4206 255.892C83.8495 255.892 62.5156 241.133 63.8841 238.918C65.3179 236.599 79.5002 235.959 80.2867 238.178ZM244.305 238.535C244.858 239.201 245.734 239.746 246.251 239.746C246.769 239.746 248.524 240.425 250.151 241.255C252.361 242.381 254.911 242.77 260.212 242.79C265.064 242.807 266.738 242.594 265.497 242.114C264.498 241.728 263.68 241.072 263.68 240.655C263.68 239.137 256.079 237.324 249.713 237.324C244.104 237.324 243.426 237.475 244.305 238.535ZM233.85 244.388C226.891 251.198 224.967 261.755 228.983 271.092C231.619 277.218 233.063 278.054 232.488 273.122C231.293 262.883 237.17 252.189 247.518 245.77C251.093 243.553 251.112 243.52 249.133 242.783C248.031 242.374 246.102 241.523 244.845 240.892C240.762 238.844 238.916 239.43 233.85 244.388ZM255.607 244.764C255.607 244.988 256.879 246.52 258.433 248.167C259.987 249.815 261.258 251.683 261.258 252.317C261.258 252.951 261.643 253.47 262.113 253.47C262.583 253.47 262.744 253.833 262.469 254.277C262.195 254.721 262.293 255.084 262.687 255.084C266.476 255.084 265.549 275.936 261.584 279.902C260.095 281.39 260.144 282.533 261.697 282.533C263.278 282.533 270.946 275.414 270.946 273.946C270.946 273.341 271.331 272.846 271.801 272.846C272.272 272.846 272.451 272.513 272.2 272.107C271.949 271.701 272.079 271.247 272.489 271.098C275.227 270.104 275.146 251.049 272.403 251.049C271.993 251.049 271.882 250.685 272.157 250.241C272.432 249.796 272.296 249.434 271.855 249.434C271.416 249.434 270.823 248.702 270.539 247.808C270.255 246.913 269.716 246.37 269.342 246.601C268.968 246.833 268.533 246.634 268.375 246.161C268.095 245.322 255.607 243.956 255.607 244.764ZM247.534 247.725C238.334 253.543 234.419 260.627 234.376 271.53C234.338 281.093 237.554 283.948 249.26 284.751L255.583 285.184L258.302 282.218C265.935 273.883 265.168 257.975 256.678 248.578C253.265 244.799 252.303 244.71 247.534 247.725ZM174.876 267.033C174.876 267.832 175.313 268.922 175.845 269.455C176.598 270.209 176.597 270.641 175.839 271.398C174.591 272.646 172.88 270.982 172.135 267.8C171.7 265.94 171.88 265.58 173.246 265.58C174.278 265.58 174.876 266.113 174.876 267.033ZM187.858 290.31C191.152 291.479 194.211 292.702 194.656 293.028C195.1 293.354 198.55 294.626 202.325 295.854C206.099 297.083 209.551 298.372 209.994 298.718C210.438 299.065 210.983 299.337 211.205 299.323C211.427 299.309 213.015 299.884 214.735 300.602C216.454 301.321 218.34 301.909 218.926 301.909C219.511 301.909 220.246 302.322 220.559 302.828C221.305 304.037 215.633 303.014 212.82 301.433C210.9 300.354 206.727 298.775 189.493 292.604C185.321 291.11 181.524 289.505 181.057 289.036C179.705 287.685 181.305 287.985 187.858 290.31ZM231.281 305.517C233.236 307.43 231.594 308.264 228.573 306.894C225.092 305.317 224.633 303.077 227.957 303.893C229.178 304.192 230.674 304.923 231.281 305.517Z" fill="#0000FF"/>
</svg>
