<svg width="400" height="400" viewBox="0 0 400 400" fill="none" xmlns="http://www.w3.org/2000/svg">
<path style="fill:#FF0000;" d="M141.517,238.897c-10.169,12.803-22.052,21.084-37.676,23.725
	c-20.591,3.481-42.183-9.279-50.064-29.588c-8.17-21.054-1.884-41.608,16.169-53.079c10.111-6.424,20.766-8.143,32.138-3.896
	c3.795,1.417,7.52,3.022,13.17,5.306c-1.597-3.693-2.176-5.997-3.451-7.816c-6.644-9.479-15.664-15.899-26.488-19.903
	c-4.503-1.666-8.972-3.426-13.168-5.718c20.704,0.184,35.412,10.39,44.558,28.281c4.03,7.884,6.687,16.653,8.75,25.31
	c3.075,12.906-3.274,25.312-14.676,30.935c-13.273,6.545-28.748-1.51-30.557-15.906c-1.095-8.714,6.225-17.275,14.919-17.448
	c5.611-0.112,9.794,2.927,11.968,8.438c1.735,4.398,0.895,8.115-2.776,10.996c-1.405,1.103-3.203,2.112-4.926,2.325
	c-4.265,0.526-7.307-1.727-8.625-5.613c-0.473-1.394,0.088-3.941,1.144-4.896c3.118-2.819,6.162-1.525,8.777,1.24
	c0.512,0.541,1.108,1.003,1.979,1.781c1.667-4.952-0.085-8.161-4.552-9.757c-3.984-1.424-8.144-0.129-9.73,3.428
	c-1.692,3.796-3.178,9.053-1.783,12.463c1.397,3.414,6.144,6.822,9.979,7.64c13.1,2.794,23.751-11.049,18.861-23.756
	c-5.174-13.448-22.147-18.776-34.738-10.904c-11.844,7.405-16.409,22.606-10.632,35.406c6.183,13.703,19.293,21.454,34.326,20.297
	c14.877-1.145,30.073-12.578,33.611-25.851c0.805-3.019,0.675-6.807-0.414-9.725c-10.042-26.907-19.64-54.017-30.883-80.427
	c-9.061-21.286-25.715-34.47-49.311-37.8c-2.53-0.357-5.003-1.113-7.415-2.358c8.958-2.337,17.552-2.365,26.242,1.784
	c18.916,9.033,33.372,22.595,42.951,41.119c4.45,8.604,7.964,17.686,12.075,26.47c4.269,9.121,8.854,18.095,13.087,27.232
	c2.154,4.648,3.841,9.512,5.914,14.719c1.456-2.908,2.92-6.193,4.692-9.303c4.055-7.118,7.806-14.47,12.507-21.147
	c7.724-10.971,18.414-16.62,32.146-17.874c33.652-3.073,66.265-11.477,98.825-20.188c9.617-2.573,19.838-3.515,29.831-3.882
	c8.68-0.319,15.585,4.268,21.73,13.76c-3.033-1.288-4.216-1.506-5.021-2.176c-10.671-8.871-22.661-9.241-34.934-4.711
	c-12.623,4.66-24.946,10.127-37.415,15.207c-24.983,10.178-50.352,19.156-76.939,24.265c-6.237,1.198-12.696,1.608-18.708,3.481
	c-4.054,1.263-8.724,3.617-11.016,6.93c-10.65,15.397-17.277,32.351-15.206,51.503c2.464,22.799,23.499,49.889,55.565,48.072
	c32.346-1.834,52.568-36.896,36.389-63.222c-10.757-17.503-34.054-21.914-49.749-9.419c-13.803,10.989-12.401,33.18,2.657,42.04
	c12.54,7.378,28.757-0.579,29.375-14.465c0.082-1.836-0.054-3.787-0.597-5.527c-2.041-6.552-9.264-10.723-15.904-9.387
	c-6.314,1.27-7.761,3.847-7.609,13.493c1.98-1.882,3.712-4.289,6.061-5.587c3.737-2.066,7.863-1.061,9.783,2.501
	c1.064,1.973,0.416,5.854-0.923,7.942c-4.073,6.351-12.183,6.45-17.227,0.714c-3.986-4.532-4.623-11.335-1.569-16.734
	c3.207-5.668,10.695-9.171,17.24-8.065c12.354,2.088,20.647,16.412,16.376,28.288c-6.388,17.763-29.188,24.278-44.766,12.792
	c-15.7-11.576-19.981-34.745-9.456-51.178c15.633-24.409,49.352-30.358,73.036-12.885c27.175,20.048,31.167,57.653,8.972,85.526
	c-13.172,16.541-30.961,25.95-51.612,25.429c-33.251-0.838-62.313-25.738-65.241-59.462
	C141.239,246.377,141.517,242.625,141.517,238.897z
	 M302.335,190.113c-19.53-21.481-43.494-20.813-70.248-13.744c23.33-16.046,55.397-11.852,69.688,7.72
	c0.816,1.118,1.299,2.478,1.938,3.725C303.254,188.58,302.794,189.346,302.335,190.113z"/>
</svg>
