<svg width="400" height="400" viewBox="0 0 400 400" fill="none" xmlns="http://www.w3.org/2000/svg">
<path fill-rule="evenodd" clip-rule="evenodd" d="M195.169 58.9702C174.543 88.6562 167.324 105.429 167.356 123.586C167.381 136.769 169.357 144.1 180.095 170.803C189.65 194.567 193.72 207.552 192.56 210.572C192.093 211.792 185.326 211.844 184.984 210.63C184.851 210.156 184.196 206.2 183.53 201.839C179.566 175.913 164.843 153.694 148.728 149.317C132.494 144.908 119.294 146.158 108.74 153.104C81.6683 170.92 91.246 215.628 122.133 215.628C145.624 215.628 152.025 184.605 130.986 172.731C125.537 169.656 125.843 168.542 132.759 166.295C149.628 160.814 172.395 183.682 173.656 207.372L173.893 211.837L168.895 212.04C166.146 212.15 163.896 212.306 163.896 212.384C163.896 212.463 164.54 214.218 165.326 216.286C166.868 220.344 166.709 223.624 164.827 226.543C163.227 229.026 164.089 230.108 167.666 230.108C170.995 230.108 172.06 232.113 169.929 234.368C169.455 234.87 167.862 236.779 166.389 238.612C162.855 243.007 162.233 243.146 159.359 240.187C155.589 236.305 152.098 234.932 146.013 234.94C123.179 234.969 122.104 268.481 144.888 269.943C163.855 271.16 180.23 255.643 184.196 232.693L184.642 230.108H189.437H194.232L194.218 233.382C194.199 237.597 192.063 247.233 189.72 253.674C183.073 271.949 183.118 271.78 183.096 279.239C183.059 291.106 187.483 299.675 198.577 309.227C201.688 311.905 203.03 311.508 207.736 306.521C221.8 291.616 223.776 280.262 215.814 260.099C213.175 253.416 212.676 251.913 210.448 243.943C209.368 240.08 209.003 230.404 209.918 229.91C211.141 229.252 217.905 230.511 218.383 231.487C218.662 232.055 219.41 234.692 220.045 237.346C226.964 266.264 260.909 281.677 272.428 261.133C282.798 242.642 259.777 225.821 243.594 240.065C240.308 242.958 238.415 242.034 233.946 235.354C231.356 231.482 231.571 230.377 235.017 229.826C238.954 229.197 239.1 229.023 237.972 226.323C236.718 223.32 236.709 219.506 237.946 215.393L238.912 212.182H234.133C228.396 212.182 228.215 211.923 229.413 205.452C233.972 180.838 251.461 163.146 268.35 166.062C276.542 167.476 277.476 169.567 271.53 173.18C245.036 189.274 264.947 226.179 293.034 213.036C321.648 199.646 312.598 152.81 280.359 147.438C247.631 141.985 223.509 165.025 218.711 206.321C218.122 211.398 217.523 212.182 214.227 212.182C207.843 212.182 209.345 204.833 222.332 172.537C234.926 141.217 234.911 141.274 234.911 123.5C234.911 107.24 234.491 105.431 227.39 91.1731C220.059 76.4506 203.347 50.7521 201.179 50.8681C200.961 50.8803 198.256 54.5261 195.169 58.9702Z" fill="#0000FF"/>
</svg>
