<svg width="400" height="400" viewBox="0 0 400 400" fill="none" xmlns="http://www.w3.org/2000/svg">
<path fill-rule="evenodd" clip-rule="evenodd" d="M233.198 118.769C230.824 120.274 230.038 121.262 229.362 123.587C228.894 125.195 227.951 127.708 227.266 129.17C226.58 130.632 225.18 133.771 224.155 136.147C220.019 145.73 217.45 149.396 213.715 151.048C210.517 152.462 205.284 155.847 201.355 159.042C200.435 159.791 196.729 163.637 193.12 167.59C187.028 174.263 182.65 177.47 180.53 176.814C180.218 176.717 179.614 176.927 179.189 177.28C178.144 178.146 152.108 178.108 151.059 177.238C150.617 176.87 150 176.728 149.687 176.921C149.376 177.114 147.942 177.004 146.502 176.677C145.062 176.35 139.847 175.312 134.912 174.371C129.978 173.431 125.43 172.375 124.804 172.025C124.179 171.676 123.238 171.555 122.712 171.756C122.186 171.959 121.559 171.804 121.317 171.413C118.854 167.427 106.746 173.59 107.912 178.238C108.845 181.954 125.542 197.285 128.656 197.285C129.121 197.285 129.96 197.745 130.522 198.306C131.083 198.868 131.697 199.329 131.886 199.331C132.075 199.334 133.357 199.809 134.734 200.386C136.111 200.964 138.734 201.864 140.561 202.386C142.388 202.909 144.332 203.512 144.88 203.726C145.428 203.94 146.326 204.197 146.874 204.296C147.423 204.395 148.619 204.691 149.532 204.952C150.446 205.214 154.259 205.902 158.005 206.479C161.752 207.058 164.817 207.696 164.817 207.898C164.817 208.479 151.482 215.068 148.536 215.942C147.073 216.377 145.578 216.909 145.213 217.125C144.847 217.342 144.249 217.544 143.884 217.574C143.518 217.604 142.771 217.812 142.223 218.035C138.15 219.693 125.962 221.46 110.656 222.615C93.9854 223.872 75.073 226.956 74.0683 228.581C73.8561 228.924 73.4128 229.038 73.0824 228.835C72.752 228.63 70.9037 229.17 68.9749 230.035C67.046 230.899 64.4214 232.014 63.1418 232.513C55.5536 235.474 48.5528 242.245 50.2577 244.976C51.8499 247.528 60.75 252.496 67.7938 254.764C69.8041 255.411 71.8297 256.243 72.2953 256.612C72.7609 256.982 73.3314 257.094 73.5633 256.863C73.7952 256.631 74.3137 256.715 74.7166 257.049C78.3326 260.05 115.247 260.216 122.95 257.267C123.499 257.056 124.383 256.96 124.916 257.05C125.449 257.141 126.944 256.908 128.239 256.531C129.534 256.154 133.882 255.355 137.903 254.756C149.063 253.094 159.826 250.266 165.149 247.597C177.389 241.461 180.175 239.813 189.832 232.993C194.982 229.358 203.36 221.22 203.36 219.856C203.36 217.296 204.591 220.031 204.942 223.369C205.849 231.997 209.346 241.121 214.281 247.727C215.844 249.82 226.212 259.753 226.834 259.753C227.2 259.753 228.872 260.632 230.548 261.706C232.225 262.782 235.84 264.596 238.581 265.74C241.323 266.882 244.462 268.209 245.559 268.688C246.655 269.168 250.094 270.378 253.201 271.378C256.307 272.378 259.548 273.633 260.402 274.17C261.257 274.705 262.126 274.972 262.335 274.763C262.544 274.555 263.041 274.652 263.44 274.98C263.839 275.309 267.156 276.368 270.811 277.335C274.467 278.302 278.071 279.396 278.822 279.766C279.574 280.136 280.471 280.373 280.817 280.291C281.161 280.209 281.893 280.334 282.441 280.568C288.471 283.142 320.158 284.62 329.312 282.754C338.375 280.905 348.895 274.626 348.895 271.066C348.895 269.169 345.604 264.484 343.465 263.338C342.856 263.01 340.313 261.607 337.817 260.218C333.458 257.793 324.027 253.785 322.646 253.771C322.28 253.766 321.105 253.306 320.033 252.747C318.961 252.188 314.646 250.814 310.444 249.692C306.242 248.571 302.334 247.391 301.76 247.071C301.186 246.75 296.23 245.266 290.747 243.774C279.123 240.609 279.732 240.779 278.453 240.334C271.487 237.905 265.429 235.55 265.163 235.166C264.98 234.904 263.335 234.033 261.507 233.231C256.451 231.014 248.059 225.451 248.752 224.775C248.823 224.706 252.171 225.092 256.191 225.632C269.346 227.405 280.9 226.17 290.747 221.94C291.479 221.627 295.067 220.564 298.722 219.58C302.377 218.596 306.265 217.386 307.361 216.892C308.458 216.397 311.666 214.946 314.491 213.667C321.38 210.545 338.263 196.247 338.263 193.532C338.263 193.372 339.407 191.684 340.807 189.781C347.983 180.022 351.743 169.181 349.208 165.561C347.504 163.128 338.159 163.012 333.721 165.369C333.112 165.692 329.623 167.073 325.968 168.436C322.314 169.8 318.725 171.28 317.994 171.725C317.263 172.169 314.422 173.367 311.681 174.385C308.94 175.404 306.098 176.595 305.368 177.032C303.902 177.909 292.014 182.087 289.418 182.637C289.053 182.715 288.448 183.033 288.073 183.344C284.349 186.434 259.243 187.57 250.21 185.056C243.538 183.199 236.527 176.998 237.316 173.651C237.397 173.309 237.305 172.581 237.11 172.033C236.916 171.484 236.233 169.242 235.592 167.049C234.95 164.856 233.716 161.454 232.848 159.49C229.938 152.898 231.882 148.973 246.327 132.276C252.829 124.76 252.771 124.989 248.718 122.856C246.984 121.942 244.113 120.224 242.338 119.035C238.384 116.388 237.015 116.348 233.198 118.769ZM223.961 149.791C223.961 150.716 224.425 151.652 224.992 151.87C225.739 152.156 225.909 152.785 225.609 154.15C225.322 155.461 225.69 157.018 226.821 159.27C231.219 168.027 232.815 183.534 231.343 203.223C230.547 213.856 231.66 217.18 239.199 226.711C241.719 229.897 242.499 230.486 243.783 230.173C244.885 229.905 246.249 230.458 248.531 232.098C253.444 235.627 260.976 239.741 266.492 241.908C269.233 242.986 272.39 244.288 273.508 244.803C274.624 245.317 279.463 246.8 284.258 248.1C289.053 249.399 294.419 251.21 296.182 252.123C297.944 253.037 301.928 254.246 305.035 254.81C308.142 255.375 311.133 256.027 311.681 256.261C312.229 256.495 312.977 256.72 313.342 256.761C315.614 257.016 327.725 261.271 328.562 262.109C329.12 262.666 329.738 263.108 329.937 263.09C331.369 262.96 342.914 270.033 342.914 271.041C342.914 271.65 336.927 273.431 330.288 274.796C324.338 276.021 312.598 276.366 305.128 275.538C296.814 274.616 279.14 271.202 278.04 270.306C277.629 269.971 276.807 269.884 276.212 270.112C275.615 270.341 275.131 270.198 275.131 269.792C275.131 269.387 274.62 269.056 273.995 269.056C272.19 269.056 260.202 265.542 259.956 264.94C259.833 264.641 259.446 264.573 259.096 264.79C258.746 265.006 258.098 264.888 257.658 264.527C257.216 264.166 254.165 263.059 250.875 262.065C216.255 251.608 206.764 230.016 216.437 183.717C218.046 176.012 219.349 168.969 219.332 168.066C219.315 167.163 219.912 165.123 220.661 163.531C222.795 158.989 223.073 156.748 221.501 156.748C217.826 156.748 214.292 165.088 214.997 172.1C215.279 174.907 215.175 177.047 214.716 177.905C214.131 178.999 211.488 187.909 210.348 192.633C210.216 193.182 210.039 193.78 209.955 193.963C209.872 194.146 209.746 194.594 209.676 194.96C209.606 195.325 209.203 196.466 208.78 197.495C208.358 198.524 208.012 199.639 208.012 199.972C208.012 200.627 204.576 208.035 204.018 208.583C203.833 208.765 202.868 210.168 201.875 211.701C199.464 215.421 191.4 223.341 187.35 225.966C185.556 227.127 184.089 228.345 184.089 228.67C184.089 228.996 183.788 229.075 183.42 228.848C183.052 228.621 182.571 228.903 182.351 229.474C182.132 230.045 181.717 230.513 181.427 230.513C181.138 230.513 178.853 231.759 176.348 233.283C170.983 236.548 161.796 240.826 160.663 240.586C160.389 240.529 160.165 240.812 160.165 241.216C160.165 241.621 159.717 241.78 159.169 241.569C158.62 241.359 158.171 241.405 158.171 241.673C158.171 242.391 150.754 244.329 143.552 245.492C140.079 246.053 136.64 246.778 135.91 247.103C128.561 250.374 72.4457 252.092 72.4457 249.046C72.4457 248.716 78.0774 248.651 85.4041 248.897C97.0184 249.285 98.3625 249.22 98.3625 248.267C98.3625 246.655 97.1124 246.175 92.3816 245.969C90.0059 245.866 85.5205 245.338 82.4132 244.795C79.3068 244.252 74.7641 243.807 72.3195 243.805L67.8735 243.803L67.6675 246.14L67.4615 248.476L65.1351 247.236C63.8564 246.553 61.2434 245.479 59.3289 244.848C57.4135 244.218 55.6977 243.459 55.5142 243.162C55.0951 242.484 59.5053 239.059 60.0694 239.623C60.2969 239.852 60.484 239.671 60.484 239.223C60.484 238.775 60.7822 238.593 61.1485 238.819C61.5138 239.046 61.8129 238.942 61.8129 238.589C61.8129 238.027 71.133 234.287 74.7713 233.388C87.7771 230.175 117.403 228.434 128.81 230.214C131.974 230.707 134.912 228.875 134.912 226.41C134.912 225.743 135.067 225.196 135.256 225.196C136.894 225.196 148.624 222.255 148.929 221.768C149.145 221.422 149.593 221.211 149.925 221.297C150.258 221.384 151.602 220.988 152.913 220.414C154.224 219.842 155.999 219.15 156.859 218.878C159.272 218.112 166.918 212.977 169.095 210.66C171.454 208.148 172.127 208.056 172.127 210.244C172.127 212.435 172.676 212.434 180.101 210.231C184.918 208.802 186.787 206.02 189.017 196.96C189.106 196.599 188.781 194.98 188.295 193.366C187.011 189.102 187.199 185.025 188.827 181.808C191.736 176.06 193.496 174.449 194.837 176.31C195.595 177.362 197.232 175.452 199.524 170.845C202.388 165.088 209.001 158.596 211.772 158.822C211.998 158.84 212.366 158.569 212.59 158.22C212.814 157.869 214.408 156.943 216.134 156.161C219.136 154.801 222.632 150.921 222.632 148.951C222.632 148.488 222.931 148.11 223.297 148.11C223.662 148.11 223.961 148.866 223.961 149.791ZM341.673 172.252C340.965 173.41 339.723 175.553 338.913 177.014C335.594 182.987 325.555 195.956 324.25 195.956C323.474 195.956 323.459 194.819 324.228 194.344C324.709 194.046 325.725 190.64 325.332 190.64C324.318 190.64 317.885 192.951 317.591 193.421C317.369 193.775 317.603 195.271 318.111 196.744C319.162 199.797 318.755 200.659 315.646 201.946C314.561 202.396 313.674 203.026 313.674 203.347C313.674 203.668 313.393 203.931 313.048 203.931C312.704 203.931 310.522 205.123 308.199 206.579C305.876 208.035 302.968 209.428 301.735 209.675L299.493 210.123L301.434 207.692C302.501 206.354 303.566 205.26 303.802 205.26C304.036 205.26 304.388 204.844 304.583 204.336C304.997 203.258 300.433 204.252 296.367 206.126C293.745 207.335 287.143 209.436 281.776 210.768C278.269 211.64 278.129 211.759 278.318 213.699C278.571 216.285 278.184 216.382 267.393 216.448C255.873 216.517 241.041 214.077 239.953 211.933C239.282 210.61 237.665 196.651 238.129 196.187C238.522 195.793 243.117 197.236 244.366 198.146C244.808 198.466 245.494 198.528 245.891 198.282C246.289 198.037 247.014 198.167 247.503 198.574C248.571 199.46 250.197 199.518 270.034 199.375C271.8 199.363 273.604 199.055 274.041 198.691C274.479 198.328 275.726 198.052 276.812 198.079C279.464 198.142 283.961 196.196 283.607 195.135C283.453 194.673 282.454 194.324 281.389 194.359C277.525 194.488 266.785 195.342 265.163 195.65C255.384 197.509 241.136 194.622 238.234 190.193C236.626 187.738 236.856 187.746 247.616 190.503C264.671 194.874 283.572 193.415 297.581 186.647C299.087 185.919 300.577 185.324 300.891 185.324C301.206 185.324 303.09 184.519 305.077 183.534C307.065 182.549 308.839 181.722 309.023 181.694C309.206 181.667 310.7 181.003 312.345 180.218C328.483 172.515 330.967 171.905 325.637 176.952C319.008 183.227 324.032 182.14 332.061 175.561C338.454 170.323 344.017 168.407 341.673 172.252ZM121.621 177.017C124.728 177.564 127.355 178.012 127.46 178.013C127.564 178.013 127.34 178.592 126.961 179.299C125.868 181.341 126.109 181.742 128.945 182.591C132.108 183.539 133.21 183.123 132.256 181.34C131.044 179.076 131.436 178.59 134.082 179.069C137.853 179.752 139.953 181.059 140.88 183.299C141.877 185.704 149.532 186.545 149.532 184.249C149.532 183.32 150.134 183.239 154.018 183.65C159.395 184.22 159.232 184.096 158.356 186.948C157.97 188.207 157.811 189.394 158.004 189.586C158.692 190.275 162.305 187.096 162.955 185.231C163.676 183.162 168.549 182.737 178.108 183.91L181.763 184.358L179.769 185.402C177.698 186.487 173.589 187.628 169.303 188.31C164.558 189.065 167.139 191.489 173.197 191.969L177.391 192.301L174.416 195.49L171.439 198.678L167.298 198.274C150.238 196.61 147.458 196.149 142.555 194.168C137.604 192.169 131.262 189.056 130.396 188.201C129.922 187.733 128.535 186.876 127.316 186.298C123.482 184.478 114 176.011 115.807 176.021C115.898 176.021 118.515 176.469 121.621 177.017ZM316.997 181.152C316.449 181.358 315.253 181.833 314.339 182.207C313.425 182.581 312.454 182.949 312.18 183.025C311.905 183.101 311.457 183.236 311.182 183.326C310.908 183.414 310.459 183.452 310.185 183.409C309.911 183.365 309.687 183.629 309.687 183.995C309.687 184.36 309.32 184.659 308.873 184.659C307.66 184.659 298.786 188.18 298.316 188.847C298.092 189.165 297.643 189.426 297.319 189.428C296.994 189.43 295.729 189.849 294.507 190.36C293.286 190.87 291.123 191.637 289.699 192.063C286.222 193.104 284.175 195.96 286.911 195.949C288.8 195.942 294.354 194.461 296.728 193.333C297.46 192.985 301.214 191.49 305.07 190.01C311.627 187.494 320.985 182.297 320.985 181.172C320.985 180.603 318.491 180.59 316.997 181.152ZM202.052 191.518C200.362 193.309 195.602 201.016 190.48 210.254C188.801 213.278 186.6 215.892 185.728 215.892C185.218 215.892 184.48 216.491 184.089 217.222C183.697 217.953 183.066 218.551 182.685 218.551C181.851 218.551 174.898 223.822 170.908 227.48C168.548 229.643 158.609 234.642 155.181 235.389C154.816 235.469 154.203 235.731 153.82 235.97C153.437 236.21 149.4 237.333 144.848 238.466C140.297 239.6 136.125 240.716 135.577 240.945C135.028 241.175 134.381 241.388 134.137 241.42C133.001 241.567 129.596 244.615 129.596 245.485C129.596 246.66 131.414 246.729 136.317 245.74C138.285 245.343 140.345 244.948 140.893 244.862C141.442 244.777 142.339 244.541 142.887 244.34C143.435 244.138 145.678 243.463 147.871 242.839C151.68 241.755 163.144 236.317 166.759 233.879C167.701 233.244 171.157 230.956 174.439 228.794C189.568 218.83 191.787 216.756 195.347 209.243C196.473 206.87 198.704 203.134 200.306 200.941C205.205 194.232 206.602 186.693 202.052 191.518ZM159.856 193.703C159.015 194.543 158.957 194.97 159.586 195.726C160.619 196.972 163.081 196.608 163.355 195.17C163.685 193.437 161.174 192.384 159.856 193.703ZM226.113 198.722C224.391 200.444 225.598 201.937 228.712 201.937C229.759 201.937 229.987 201.56 229.82 200.11C229.587 198.082 227.524 197.31 226.113 198.722ZM259.644 205.055C258.211 207.397 258.908 209.594 261.268 210.177C265.324 211.179 266.164 210.415 264.283 207.434C262.801 205.086 260.384 203.846 259.644 205.055ZM216.406 215.132C214.992 216.695 215.509 218.029 218.376 220.216C221.384 222.51 222.108 221.02 220.019 216.836C218.376 213.548 218 213.371 216.406 215.132ZM219.601 229.593C219.842 230.549 220.207 232.174 220.413 233.202C220.87 235.492 222.997 237.896 224.167 237.446C227.297 236.246 227.139 230.037 223.961 229.349C223.779 229.309 222.787 228.957 221.758 228.566C219.184 227.587 219.107 227.624 219.601 229.593ZM223.032 241.54C222.549 242.799 226.882 247.453 227.932 246.804C229.159 246.046 228.648 244.085 226.749 242.267C224.617 240.223 223.613 240.027 223.032 241.54ZM290.197 263.837C289.658 265.899 290.033 266.249 294.012 267.406C300.178 269.199 305.881 269.764 306.951 268.689C307.559 268.078 304.467 265.774 302.459 265.341C301.5 265.134 300.118 264.711 299.387 264.4C298.656 264.089 296.862 263.649 295.399 263.419C293.938 263.191 292.255 262.862 291.661 262.689C290.954 262.483 290.447 262.88 290.197 263.837Z" fill="#0000FF"/>
</svg>
