<svg width="400" height="400" viewBox="0 0 400 400" fill="none" xmlns="http://www.w3.org/2000/svg">
<path style="fill-rule:evenodd;clip-rule:evenodd;fill:#0000FF;" d="M337.268,166.37c-11.33-8.87-38.106-8.705-28.885,24.128
	c5.635-6.828,11.685-9.447,14.33-6.931c15.128,14.366-19.685,27.086-34.944,0.193c3.178-31.272,2.291-78.827-31.694-92.263
	c-32.238-39.946-96.423-7.107-80.778,43.484c-3.799,2.934-7.604,6.745-10.071,10.18c-27.682-5.978-60.688,3.583-71.587,29.054
	c-16.184,6.681-34.75,28.88-43.64,45.958c9.217,21.193,32.176,41.198,43.633,44.139c3.928,6.775,4.874,10.787,4.285,15.197
	c-41.852,12.886-26.023,52.117,8.883,46.194c22.517-5.113,41.534-18.135,61.592-23.909c12.858-3.704,26.148-3.77,40.62,4.016
	c0.272-16.881-10.753-28.747-16.724-38.474c-6.848-11.149-2.335-22.086,3.668-32.797c9.58-17.086,23.094-32.068,6.15-64.441
	c-4.03-7.316-10.104-13.13-17.365-17.443c0.51-4.18,0.693-8.456,0.408-12.831c14.694,7.162,27.84,21.668,44.274,12.337
	c10.005,23.687-5.797,63.096,24.686,71.618c3.071,9.799,30.436,28.749,60.307,4.496C343.404,223.472,364.739,188.45,337.268,166.37z
	 M176.646,138.484c0.821,0.321,2.374,0.953,3.883,1.981c-0.183,3.147-1.07,6.77-1.593,10.036c-3.231-1.522-6.524-2.738-9.957-3.716
	C170.696,144.206,173.845,140.558,176.646,138.484z M158.625,200.366c8.355,0,15.13,6.774,15.13,15.126
	c0,8.354-6.775,15.132-15.13,15.132c-8.352,0-15.129-6.777-15.129-15.132C143.496,207.14,150.273,200.366,158.625,200.366z
	 M94.179,259.658c-11.273-4.566-30.765-20.354-39.08-39.476c6.666-15.495,25.897-33.849,39.184-41.967
	c3.197,13.048,28.03,24.931,49.167,27.85c-1.834,2.884-2.901,6.303-2.901,9.973c0,5.3,2.218,10.078,5.772,13.469
	C125.133,235.136,98.428,249.327,94.179,259.658z M107.395,320.736c-32.477,5.512-43.808-24.652-8.268-37.699
	c-0.048,0.781-0.123,1.522-0.219,2.237c-0.04-0.022-3.67,1.594-7.07,4.027c-2.11,1.51-11.224,8.26-10.129,14.071
	c0.708,3.758,4.803,5.959,6.74,7.009c0.654,0.354,3.198,1.675,8.533,2.102c5.58,0.447,10.002-0.421,12.658-1.017
	c5.496-1.233,11.172-3.036,19.122-6.426c8.523-3.634,10.567-5.215,21.584-10.171c4.732-2.129,8.656-3.772,11.238-4.831
	c0.588,1.209,1.29,2.508,2.119,3.865c0.757,1.24,1.565,2.428,2.423,3.56C147.02,303.054,129.002,315.827,107.395,320.736z
	 M199.934,287.079c2.102,3.83,3.801,7.837,4.579,12.042c-12.644-5.288-24.002-5.232-34.913-2.587
	c-1.716-2.45-3.243-5.043-4.575-7.749C176.03,285.005,187.341,283.417,199.934,287.079z M313.902,224.428
	c1.399-2.721,6.018-12.261,6.051-18.986c-8.078,20.687-23.307,38.325-49.796,26.614c-18.247-8.068-15.083-28.894-12.203-45.064
	c-5.946,9.182-6.834,22.03-4.107,32.062c-36.1-12.306,8.899-67.375-46.386-92.097c6.79,5.628,15.581,12.583,20.069,22.414
	c-13.324,4.94-26.166-5.237-38.233-11.532c3.269-1.838,9.064-3.538,12.897-2.994c-6.041-3.873-14.724,2.445-18.728,2.56
	c8.635-28.588,42.67-32.762,62.654-24.096c-21.327-12.205-58.162-4.181-65.07,23.734c-1.071-0.38-1.935-1.102-2.243-2.401l0,0
	c-13.033-44.642,36.785-73.473,70.619-45.766c-9.451-1.254-20.39,0.514-28.289,6.134c56.538-14.61,66.693,37.228,63.702,84.503
	c-7.095-8.615-6.602-34.604-22.946-41.366c8.675,9.514,11.854,23.454,15.641,34.516c5.353,15.585,20.187,33.077,38.455,30.685
	c13.715-1.794,21.366-19.907,14.42-30.162c0.807,5.879,0.33,8.128-1.786,13.487c-1.908-8.037-10.044-13.786-18.3-2.816
	c-2.968-23.278,14.595-20.227,22.484-15.34C360.775,185.802,340.755,219.981,313.902,224.428z
	 M158.627,207.938c-4.173,0-7.555,3.383-7.555,7.557
	c0,4.173,3.382,7.555,7.555,7.555c4.171,0,7.552-3.382,7.552-7.555C166.179,211.321,162.798,207.938,158.627,207.938z
	 M158.125,220.085c-2.812,0-5.093-2.28-5.093-5.093c0-2.811,2.281-5.09,5.093-5.09c2.814,0,5.092,2.279,5.092,5.09
	C163.217,217.805,160.939,220.085,158.125,220.085z
	 M63.718,221.298c5.733,11.875,16.501,23.019,25.613,30.219c1.66-1.919,3.877-3.905,6.51-5.892
	c-6.971-6.664-13.645-17.934-15.285-24.328L63.718,221.298L63.718,221.298
	 M87.391,221.298c3.328,8.53,8.009,15.594,12.612,21.406c2.598-1.705,5.45-3.391,8.472-5.012c-3.536-4.747-6.514-10.886-7.989-16.394
	H87.391L87.391,221.298
	 M108.718,221.298c0.764,5.117,2.347,9.795,5.033,13.699c2.947-1.428,5.991-2.781,9.061-4.032c-1.305-3.063-2.35-6.375-2.913-9.668
	H108.718L108.718,221.298
	 M126.801,221.298c0.389,2.664,1.08,5.123,1.929,7.404c3.048-1.092,6.076-2.061,9.003-2.871c-0.382-1.481-0.682-3.001-0.905-4.533
	H126.801L126.801,221.298
	 M109.276,216.204c1.268-4.678,2.702-8.66,5.199-12.887c2.928,1.194,5.967,2.258,9.042,3.171c-1.244,3.068-2.057,6.403-2.606,9.716
	H109.276L109.276,216.204
	 M126.898,216.204c0.618-2.835,1.256-5.361,2.374-8.194c3.167,0.731,6.323,1.288,9.397,1.647c-0.685,2.098-1.186,4.307-1.525,6.547
	L126.898,216.204L126.898,216.204
	 M63.69,216.204c6.528-10.808,17.692-22.611,26.956-29.613c1.695,2.583,4.144,5.072,7.136,7.406
	c-7.247,6.3-14.712,16.642-17.17,22.207H63.69L63.69,216.204
	 M87.592,216.204c3.981-7.592,8.906-13.624,14.174-19.391c2.301,1.478,4.809,2.877,7.463,4.165
	c-3.082,4.109-6.619,10.048-8.115,15.227H87.592L87.592,216.204 M158.627,200.966c-1.744,0-3.159,1.411-3.159,3.153
	c0,1.746,1.415,3.157,3.159,3.157c1.742,0,3.153-1.41,3.153-3.157C161.78,202.377,160.369,200.966,158.627,200.966z M158.22,205.462
	c-0.831,0-1.505-0.676-1.505-1.506c0-0.83,0.674-1.506,1.505-1.506c0.831,0,1.503,0.676,1.503,1.506
	C159.723,204.786,159.051,205.462,158.22,205.462z M166.662,204.296c-1.742,0-3.153,1.418-3.153,3.158
	c0,1.745,1.411,3.157,3.153,3.157c1.746,0,3.157-1.411,3.157-3.157C169.819,205.714,168.409,204.296,166.662,204.296z
	 M166.258,208.794c-0.828,0-1.501-0.672-1.501-1.504c0-0.83,0.673-1.503,1.501-1.503c0.832,0,1.508,0.673,1.508,1.503
	C167.765,208.122,167.09,208.794,166.258,208.794z M169.996,212.337c-1.742,0-3.157,1.414-3.157,3.155
	c0,1.744,1.415,3.157,3.157,3.157c1.743,0,3.157-1.413,3.157-3.157C173.152,213.75,171.739,212.337,169.996,212.337z
	 M169.593,216.833c-0.833,0-1.505-0.674-1.505-1.504c0-0.831,0.672-1.503,1.505-1.503c0.829,0,1.503,0.672,1.503,1.503
	C171.097,216.159,170.422,216.833,169.593,216.833z M166.66,220.381c-1.741,0-3.151,1.414-3.151,3.157
	c0,1.743,1.41,3.154,3.151,3.154c1.744,0,3.159-1.411,3.159-3.154C169.819,221.795,168.404,220.381,166.66,220.381z
	 M166.257,224.877c-0.829,0-1.504-0.674-1.504-1.507c0-0.83,0.675-1.504,1.504-1.504c0.833,0,1.507,0.674,1.507,1.504
	C167.763,224.204,167.09,224.877,166.257,224.877z M158.627,223.711c-1.744,0-3.159,1.413-3.159,3.156
	c0,1.742,1.415,3.154,3.159,3.154c1.742,0,3.153-1.412,3.153-3.154C161.78,225.123,160.369,223.711,158.627,223.711z
	 M158.22,228.207c-0.831,0-1.505-0.672-1.505-1.505c0-0.831,0.674-1.504,1.505-1.504c0.831,0,1.503,0.673,1.503,1.504
	C159.723,227.535,159.051,228.207,158.22,228.207z M150.579,220.381c-1.741,0-3.152,1.414-3.152,3.157
	c0,1.743,1.411,3.154,3.152,3.154c1.745,0,3.159-1.411,3.159-3.154C153.737,221.795,152.324,220.381,150.579,220.381z
	 M150.175,224.877c-0.83,0-1.505-0.674-1.505-1.507c0-0.83,0.675-1.504,1.505-1.504c0.831,0,1.506,0.674,1.506,1.504
	C151.682,224.204,151.006,224.877,150.175,224.877z M150.579,204.296c-1.741,0-3.152,1.415-3.152,3.158
	c0,1.741,1.411,3.154,3.152,3.154c1.745,0,3.159-1.414,3.159-3.154C153.737,205.711,152.324,204.296,150.579,204.296z
	 M150.175,208.792c-0.83,0-1.505-0.675-1.505-1.504c0-0.831,0.675-1.503,1.505-1.503c0.831,0,1.506,0.672,1.506,1.503
	C151.682,208.117,151.006,208.792,150.175,208.792z M147.25,212.339c-1.742,0-3.154,1.414-3.154,3.156
	c0,1.743,1.413,3.159,3.154,3.159c1.745,0,3.156-1.415,3.156-3.159C150.405,213.752,148.995,212.339,147.25,212.339z
	 M146.844,216.834c-0.83,0-1.504-0.672-1.504-1.504c0-0.83,0.674-1.504,1.504-1.504c0.832,0,1.51,0.674,1.51,1.504
	C148.354,216.162,147.676,216.834,146.844,216.834z"/>
</svg>
