<svg width="400" height="400" viewBox="0 0 400 400" fill="none" xmlns="http://www.w3.org/2000/svg">
<path fill-rule="evenodd" clip-rule="evenodd" d="M204.839 105.101C202.171 106.42 199.805 107.734 199.582 108.021C199.36 108.308 198.632 108.664 197.965 108.812C197.297 108.959 194.75 110.27 192.304 111.724C189.857 113.179 185.581 115.396 182.801 116.653C180.021 117.908 177.747 119.159 177.747 119.431C177.747 119.703 176.977 119.983 176.038 120.054C175.098 120.125 173.734 120.721 173.006 121.378C171.629 122.619 155.178 131.115 154.061 131.162C153.712 131.176 153.08 131.734 152.658 132.401C152.236 133.068 151.881 133.25 151.867 132.806C151.85 132.266 151.644 132.266 151.248 132.806C150.559 133.744 137.109 140.488 135.928 140.488C135.491 140.488 134.464 141.229 133.644 142.134C132.825 143.04 131.676 143.598 131.092 143.373C130.508 143.149 130.031 143.251 130.031 143.6C130.031 143.95 125.573 146.388 120.124 149.021C114.675 151.654 110.094 154.089 109.945 154.432C109.796 154.775 109.341 154.851 108.935 154.599C108.527 154.347 108.195 154.466 108.195 154.863C108.195 155.259 103.555 157.732 97.8835 160.357C92.2124 162.982 87.45 165.412 87.3007 165.755C87.1514 166.097 86.6741 166.158 86.2393 165.89C85.8045 165.621 84.8346 165.93 84.0837 166.579C83.334 167.226 79.2626 168.927 75.0364 170.358C59.4592 175.635 49.7406 183.815 51.4504 190.21C52.3081 193.417 54.1509 193.965 53.5232 190.827C53.169 189.06 53.5265 187.924 54.9454 186.3L56.8405 184.133L63.5121 185.12C67.1813 185.663 70.1837 186.418 70.1837 186.799C70.1837 187.18 70.5171 187.284 70.9247 187.033C71.3323 186.781 72.6967 187.002 73.9576 187.524C75.2184 188.046 76.4313 188.529 76.6537 188.599C76.876 188.667 77.9679 189.124 79.0806 189.613C80.1921 190.104 83.1945 191.26 85.7522 192.184C88.3099 193.109 92.3137 194.576 94.648 195.445C96.9834 196.313 99.8985 197.263 101.126 197.557C102.354 197.849 103.561 198.418 103.81 198.821C104.059 199.223 104.602 199.344 105.016 199.088C105.43 198.832 105.768 198.93 105.768 199.306C105.768 199.681 106.496 200.066 107.386 200.162C108.276 200.257 109.732 200.413 110.621 200.509C111.511 200.604 112.238 200.899 112.238 201.164C112.238 201.43 114.15 202.108 116.485 202.671C125.82 204.921 142.466 210.218 142.838 211.056C142.987 211.392 143.442 211.462 143.848 211.21C144.256 210.959 144.588 211.178 144.588 211.696C144.588 212.215 145.122 212.434 145.775 212.184C146.429 211.933 147.182 212.082 147.449 212.515C147.716 212.947 148.314 213.066 148.778 212.78C149.241 212.493 149.854 212.618 150.137 213.058C150.58 213.743 158.936 216.964 169.861 220.661C171.529 221.225 172.894 221.887 172.895 222.131C172.895 222.375 173.791 222.627 174.887 222.69C175.982 222.753 177.463 223.39 178.177 224.105C178.892 224.818 180.452 225.617 181.645 225.878C182.837 226.139 185.267 226.905 187.047 227.581C188.826 228.256 193.739 229.868 197.965 231.163C202.19 232.458 206.194 233.753 206.861 234.042C207.528 234.331 208.256 234.603 208.478 234.649C208.701 234.694 209.338 235.02 209.894 235.373C210.45 235.726 211.268 235.79 211.714 235.516C212.158 235.24 212.522 235.443 212.522 235.964C212.522 238.007 219.895 235.933 222.96 233.028C224.559 231.512 226.231 230.263 226.675 230.251C227.12 230.24 229.432 228.417 231.815 226.2C234.197 223.985 236.299 222.171 236.485 222.171C236.787 222.171 246.937 213.546 260.642 201.643C266.402 196.641 276.984 188.204 277.497 188.204C277.696 188.204 279.028 187.112 280.456 185.778C281.884 184.443 283.396 183.351 283.815 183.351C286.076 183.351 307.447 167.689 316.85 159.141C319.295 156.917 321.713 155.086 322.221 155.072C322.73 155.058 323.346 154.525 323.59 153.888C323.834 153.252 325.966 151.21 328.327 149.349C333.554 145.231 350.01 129.466 350.001 128.586C349.996 128.238 347.931 127.868 345.41 127.764C342.891 127.661 337.526 126.878 333.489 126.026C329.452 125.175 324.429 124.238 322.327 123.945C320.225 123.651 318.313 123.103 318.08 122.725C317.847 122.348 316.927 122.23 316.036 122.464C315.144 122.697 313.887 122.449 313.241 121.913C312.595 121.378 311.712 121.159 311.279 121.427C310.846 121.694 310.262 121.544 309.983 121.092C309.704 120.64 308.45 120.27 307.195 120.27C305.942 120.27 302.416 119.763 299.359 119.143C296.301 118.524 289.251 117.229 283.691 116.268C278.131 115.307 269.943 113.836 265.494 113.001C261.047 112.165 255.587 111.241 253.363 110.948C251.14 110.654 248.87 110.043 248.319 109.59C247.769 109.138 246.767 108.978 246.095 109.236C245.422 109.494 244.871 109.354 244.871 108.922C244.871 108.492 243.648 108.138 242.153 108.138C240.658 108.138 235.837 107.453 231.438 106.615C227.039 105.777 220.86 104.696 217.709 104.214C214.556 103.731 211.462 103.194 210.834 103.021C210.205 102.847 207.508 103.783 204.839 105.101ZM217.115 131.722C216.245 132.208 215.941 133.25 216.161 134.988C216.339 136.392 216.309 137.824 216.095 138.17C215.434 139.238 213.211 137.923 213.668 136.733C213.983 135.912 213.455 135.663 211.692 135.797C210.369 135.897 209.287 136.267 209.287 136.616C209.287 136.967 208.72 137.254 208.026 137.254C207.308 137.254 207.004 137.64 207.32 138.152C207.627 138.648 209.005 138.877 210.401 138.664C213.675 138.164 214.974 138.672 214.38 140.218C213.894 141.484 215.346 142.88 217.172 142.902C217.728 142.909 218.183 142.55 218.183 142.106C218.183 141.661 217.434 141.297 216.517 141.297C215.602 141.297 215.068 140.949 215.331 140.523C215.593 140.098 216.334 139.952 216.977 140.199C217.71 140.48 218.503 139.863 219.102 138.546C220.053 136.462 221.418 135.7 221.418 137.254C221.418 137.699 220.993 138.063 220.474 138.063C219.956 138.063 219.803 138.335 220.137 138.667C221.309 139.84 223.041 136.348 222.13 134.646C221.667 133.78 221.482 132.875 221.722 132.637C222.485 131.874 224.777 133.164 224.23 134.048C223.941 134.515 224.14 135.423 224.673 136.065C225.26 136.771 225.421 138.116 225.082 139.465C224.473 141.893 225.179 141.557 226.594 138.747C227.666 136.614 228.695 136.205 230.314 137.267C231.196 137.845 231.27 138.229 230.585 138.674C229.879 139.133 229.911 139.651 230.71 140.745C231.396 141.682 231.968 141.892 232.315 141.332C232.61 140.853 233.191 140.672 233.605 140.928C234.019 141.184 234.358 140.864 234.358 140.218C234.358 139.573 234.927 138.825 235.622 138.558C236.318 138.293 236.68 137.74 236.429 137.332C235.703 136.159 236.836 134.018 238.183 134.018C239.156 134.018 239.21 134.257 238.445 135.18C237.727 136.045 237.71 136.77 238.38 138.022C238.875 138.946 238.991 139.655 238.639 139.596C237.113 139.34 235.975 139.742 235.975 140.536C235.975 141.007 236.339 141.167 236.784 140.893C237.229 140.618 237.593 140.778 237.593 141.249C237.593 141.721 237.229 142.106 236.784 142.106C236.339 142.106 235.975 142.61 235.975 143.226C235.975 143.842 235.065 144.942 233.954 145.671C232.841 146.399 231.931 146.645 231.931 146.216C231.931 145.787 232.295 145.212 232.741 144.937C234.116 144.086 233.633 142.914 231.906 142.914C231.003 142.914 230.054 143.46 229.797 144.128C229.542 144.795 228.804 145.341 228.158 145.341C227.512 145.341 227.193 145.002 227.449 144.588C228.162 143.434 226.25 142.611 225.229 143.632C223.933 144.929 222.783 144.74 223.329 143.319C223.889 141.857 223.157 139.68 222.105 139.68C221.688 139.68 221.406 140.134 221.478 140.691C221.733 142.647 221.296 144.95 220.871 143.892C220.561 143.118 220.174 143.079 219.376 143.74C218.576 144.404 217.633 144.29 215.708 143.293C213.698 142.254 212.977 142.179 212.496 142.957C212.155 143.508 211.317 143.745 210.634 143.482C208.93 142.828 208.441 144.717 210.015 145.875C211.081 146.66 210.761 146.908 208.064 147.394C203.377 148.238 202.011 149.206 205.68 149.083C208.058 149.005 208.999 149.369 209.649 150.621C210.253 151.787 211.185 152.207 212.87 152.074L215.239 151.885L213.274 153.766C212.193 154.8 211.067 155.509 210.771 155.341C210.476 155.173 210.112 155.351 209.962 155.737C209.813 156.122 207.874 157.398 205.655 158.572C203.434 159.746 202.251 160.707 203.026 160.707C204.849 160.707 204.801 161.149 202.76 163.191C199.549 166.402 196.794 165.795 198.945 162.35C200.282 160.209 199.404 159.597 194.698 159.387C190.244 159.188 190.149 159.246 191.957 161.054C193.112 162.209 193.108 162.324 191.909 162.324C191.183 162.324 190.794 162.654 191.044 163.058C191.292 163.46 192.219 163.601 193.101 163.37C195.743 162.679 198.029 163.923 195.741 164.806C194.739 165.191 193.921 165.871 193.921 166.317C193.921 166.762 194.43 166.931 195.052 166.692C195.674 166.453 196.424 166.646 196.717 167.121C197.393 168.214 201.2 168.261 201.2 167.177C201.2 166.732 202.088 166.368 203.174 166.368C204.26 166.368 205.372 166.732 205.648 167.177C206.449 168.474 207.668 168.11 207.682 166.57C207.691 165.513 207.864 165.421 208.363 166.208C208.73 166.788 209.362 167.2 209.765 167.124C210.17 167.047 210.682 167.058 210.904 167.149C214.247 168.498 216.74 166.427 214.486 164.174C213.326 163.012 212.286 162.72 208.277 162.428C207.497 162.371 206.861 161.918 206.861 161.422C206.861 160.877 207.725 160.684 209.037 160.935C210.284 161.172 212.011 160.828 213.081 160.127C214.868 158.957 214.948 158.995 214.948 161.019C214.948 162.214 215.405 163.133 216 163.133C217.838 163.133 219.065 164.9 218.065 166.106C217.413 166.891 217.431 167.177 218.131 167.177C218.658 167.177 218.878 167.516 218.622 167.93C218.366 168.344 218.527 168.911 218.978 169.191C220.504 170.134 219.815 171.22 217.692 171.22C216.15 171.22 215.709 171.547 216.049 172.434C216.59 173.844 214.887 174.071 213.579 172.763C212.46 171.644 209.024 173.299 209.533 174.713C210.204 176.576 208.49 178.707 207.188 177.627C206.161 176.774 206.16 176.485 207.181 175.35C209.586 172.681 209.704 169.603 207.4 169.603C206.267 169.603 205.11 169.233 204.831 168.781C204.552 168.329 203.967 168.18 203.53 168.449C203.084 168.724 203.463 169.569 204.395 170.377C205.306 171.168 206.052 172.083 206.052 172.412C206.052 173.762 200.993 179.276 200.202 178.786C199.638 178.438 199.527 178.978 199.878 180.375C200.329 182.172 200.03 182.688 197.899 183.791C194.509 185.543 193.893 184.646 197.131 182.676C201.076 180.277 198.818 179.945 194.057 182.222C191.741 183.331 189.44 183.986 188.941 183.677C188.43 183.361 189.936 182.336 192.393 181.328C194.791 180.344 196.661 179.123 196.55 178.614C196.438 178.106 196.736 177.69 197.21 177.69C197.725 177.69 197.851 176.989 197.522 175.951C197.082 174.568 197.237 174.314 198.276 174.712C199.711 175.263 200.088 174.055 198.741 173.222C198.278 172.936 198.12 172.005 198.39 171.152C198.889 169.582 198.733 169.524 193.314 169.266C192.536 169.229 191.53 168.481 191.078 167.604C190.112 165.728 186.238 165.385 186.238 167.176C186.238 168.623 189.313 170.25 193.314 170.92C196.202 171.403 197.616 172.838 195.206 172.838C194.043 172.838 193.921 174.141 194.931 175.756C195.26 176.281 194.344 177.27 192.717 178.147C189.565 179.843 187.835 179.111 190.533 177.221C193.111 175.416 192.706 174.165 190.08 175.82L187.855 177.223L189.473 175.233C190.363 174.137 191.376 173.031 191.726 172.772C192.076 172.514 190.394 171.829 187.988 171.253C182.648 169.971 176.534 171.908 177.39 174.608C177.733 175.688 177.525 175.938 176.586 175.577C175.761 175.26 175.32 175.543 175.32 176.391C175.32 177.132 175.985 177.69 176.87 177.69C177.723 177.69 178.633 178.146 178.892 178.701C179.269 179.509 179.459 179.508 179.837 178.696C180.097 178.138 180.661 177.897 181.09 178.162C182.095 178.783 180.367 180.926 178.86 180.926C178.248 180.926 177.747 180.54 177.747 180.069C177.747 179.598 177.408 179.422 176.994 179.678C176.579 179.934 176.012 179.774 175.733 179.321C175.454 178.869 174.337 178.499 173.25 178.499C172.085 178.499 171.277 178.029 171.277 177.351C171.277 175.908 173.9 171.232 174.714 171.225C175.047 171.223 175.32 170.866 175.32 170.432C175.32 169.583 170.345 170.278 169.659 171.223C169.039 172.077 164.807 172.955 164.807 172.23C164.807 170.795 177.121 165.56 180.494 165.56C181.542 165.56 182.9 164.953 183.51 164.212C184.686 162.784 181.252 162.9 177.403 164.418C176.136 164.918 175.951 164.764 176.402 163.588C176.815 162.513 176.644 162.264 175.734 162.613C175.061 162.871 174.511 162.721 174.511 162.28C174.511 161.837 175.471 161.11 176.645 160.664C177.818 160.218 178.57 159.643 178.314 159.388C178.059 159.133 176.182 159.758 174.143 160.776C170.34 162.674 169.687 164.327 172.719 164.371C173.658 164.384 174.688 164.656 175.007 164.977C175.327 165.297 174.919 165.56 174.099 165.56C172.728 165.56 165.936 169.734 162.007 172.991C157.614 176.633 156.885 177.424 156.554 178.915C156.356 179.799 156.676 181.501 157.263 182.699C158.678 185.587 157.209 186.467 155.451 183.785C154.07 181.679 154.392 176.073 155.892 176.073C156.287 176.073 156.815 175.436 157.066 174.657C157.317 173.879 160.236 171.657 163.553 169.721C169.131 166.463 169.551 166.031 169.141 163.979C168.722 161.888 174.54 157.232 175.887 158.579C176.407 159.097 182.194 155.087 182.194 154.209C182.194 152.903 187.927 148.058 191.335 146.485C193.179 145.633 194.697 144.527 194.709 144.027C194.721 143.527 195.621 143.117 196.71 143.117C199.799 143.117 205.59 138.548 204.084 137.299C203.184 136.551 202.554 136.54 201.444 137.251C200.12 138.099 200.116 138.144 201.402 137.744C202.18 137.502 202.817 137.657 202.817 138.088C202.817 138.518 202.721 138.871 202.603 138.871C202.486 138.871 200.457 139.577 198.096 140.44C193.918 141.967 191.012 141.924 191.986 140.349C192.25 139.92 192.931 139.747 193.498 139.965C194.065 140.182 195.458 139.878 196.594 139.289C197.73 138.7 198.886 138.444 199.164 138.722C199.441 138.999 199.464 138.691 199.214 138.038C198.758 136.845 206.764 132.84 207.67 133.808C207.892 134.046 207.71 134.378 207.265 134.547C205.549 135.198 204.096 136.376 204.505 136.785C205.315 137.594 214.198 132.911 213.804 131.884C213.587 131.318 214.19 130.757 215.196 130.59C217.59 130.193 218.688 130.841 217.115 131.722ZM211.249 132.788C209.231 134.315 208.412 134.324 208.993 132.81C209.248 132.145 209.758 131.788 210.125 132.014C210.492 132.242 211.036 132.034 211.334 131.552C211.632 131.071 212.085 130.886 212.341 131.143C212.599 131.399 212.107 132.14 211.249 132.788ZM220.003 133.746C219.447 133.969 218.992 134.669 218.992 135.299C218.992 135.929 218.706 136.444 218.356 136.444C218.007 136.444 217.721 135.717 217.721 134.827C217.721 133.719 218.239 133.229 219.367 133.274C220.273 133.309 220.558 133.521 220.003 133.746ZM192.304 137.868C192.304 138.205 191.556 138.949 190.642 139.52C189.429 140.277 189.131 141.028 189.536 142.305C190.049 143.921 189.991 143.953 188.771 142.732C187 140.961 187.108 140.012 189.248 138.513C191.209 137.14 192.304 136.909 192.304 137.868ZM247.964 139.949C248.122 140.766 247.702 141.297 246.898 141.297C245.939 141.297 245.714 141.746 246.084 142.914C246.379 143.843 246.23 144.533 245.734 144.533C245.26 144.533 244.871 144.147 244.871 143.676C244.871 143.204 244.532 143.029 244.118 143.285C243.704 143.541 243.137 143.38 242.857 142.928C241.904 141.384 241.074 142.103 241.005 144.533C240.967 145.866 241.246 146.958 241.625 146.958C242.003 146.958 242.952 147.204 243.732 147.503C244.815 147.918 245.032 147.735 244.649 146.736C244.287 145.795 244.491 145.556 245.365 145.892C246.16 146.197 246.742 145.76 247.035 144.637C247.499 142.868 249.724 142.194 249.724 143.822C249.724 144.436 250.132 144.392 250.98 143.688C253.563 141.544 261.668 143.503 259.593 145.768C259.28 146.109 259.934 146.108 261.047 145.766C262.158 145.425 264.493 145.098 266.233 145.04C268.089 144.979 269.549 144.486 269.764 143.847C270.048 142.999 269.777 142.946 268.542 143.607C267.4 144.218 266.687 144.189 266.002 143.504C265.297 142.799 264.677 142.783 263.614 143.447C262.535 144.122 261.814 144.076 260.705 143.265C258.559 141.696 262.847 140.706 266.242 141.988C267.86 142.599 268.82 142.642 268.997 142.111C269.394 140.918 270.751 141.118 270.751 142.37C270.751 143.093 271.513 143.332 273.081 143.102C277.516 142.45 276.998 144.567 271.515 149.486C268.666 152.042 266.147 153.946 265.917 153.716C265.47 153.269 269.862 149.032 273.144 146.743C274.584 145.739 274.889 145.111 274.249 144.472C273.609 143.832 273.04 144.052 272.187 145.267C271.54 146.192 270.768 146.706 270.471 146.408C269.679 145.617 264.204 152.037 264.655 153.226C264.866 153.783 264.585 154.237 264.032 154.237C262.113 154.237 260.034 157.466 261.115 158.768C262.305 160.202 261.735 160.921 259.949 160.235C257.95 159.468 258.34 157.372 261.106 154.017C263.563 151.035 263.226 150.233 259.833 150.992C259.388 151.091 258.587 151.243 258.052 151.331C257.518 151.419 256.357 152.144 255.475 152.942C253.922 154.348 251.658 154.069 252.576 152.585C253.382 151.28 258.136 149.588 261.381 149.451C264.825 149.305 265.898 148.893 265.898 147.719C265.898 146.533 260.899 146.835 258.326 148.177C255.549 149.624 255.109 149.676 255.854 148.471C256.197 147.916 255.977 147.705 255.296 147.932C254.678 148.138 254.172 148.715 254.172 149.215C254.172 150.768 251.032 152.548 249.117 152.08C247.637 151.719 247.277 151.991 247.188 153.543L247.077 155.45L246.725 153.618C246.532 152.611 246.033 151.998 245.617 152.255C244.646 152.854 242.196 150.442 242.793 149.476C243.429 148.447 240.721 147.55 239.791 148.481C239.307 148.965 239.488 149.913 240.282 151.045C241.45 152.714 241.413 152.954 239.769 154.391L237.997 155.939L241.03 155.655C243.124 155.459 244.063 155.696 244.063 156.421C244.063 157 243.426 157.478 242.647 157.485C241.492 157.494 241.444 157.631 242.385 158.227C244.343 159.465 244.251 162.156 242.231 162.794C241.237 163.108 239.948 164.041 239.367 164.867C238.786 165.693 237.554 166.368 236.631 166.368C235.707 166.368 234.27 167.154 233.436 168.115C232.604 169.076 231.705 169.645 231.44 169.381C230.671 168.612 232.994 165.99 234.704 165.693C235.561 165.545 237.413 164.545 238.819 163.473C240.224 162.401 241.616 161.764 241.91 162.058C242.205 162.354 242.445 162.169 242.445 161.651C242.445 160.147 239.879 160.557 237.952 162.367C236.139 164.07 231.931 163.913 231.931 162.142C231.931 161.694 232.717 161.532 233.677 161.784C234.778 162.071 236.198 161.621 237.518 160.564C239.475 159 239.493 158.926 237.795 159.448C236.444 159.864 235.975 159.68 235.975 158.74C235.975 158.042 236.345 157.471 236.797 157.471C237.249 157.471 237.538 156.417 237.44 155.126C237.342 153.836 237.788 152.146 238.432 151.37C239.498 150.086 239.44 150.012 237.789 150.535C235.538 151.25 235.414 150.124 237.593 148.763C239.695 147.451 239.661 146.15 237.525 146.15C236.519 146.15 235.99 145.742 236.211 145.138C236.416 144.583 236.955 144.207 237.411 144.303C237.867 144.4 238.469 143.566 238.749 142.45C239.029 141.335 239.627 140.651 240.078 140.93C240.53 141.209 241.412 141.01 242.041 140.488C242.669 139.968 243.566 139.777 244.033 140.066C244.501 140.354 245.108 140.007 245.381 139.293C245.993 137.7 247.607 138.111 247.964 139.949ZM252.843 141.386C251.098 142.491 250.243 142.217 251.334 140.901C251.884 140.24 252.695 139.921 253.137 140.194C253.625 140.496 253.51 140.964 252.843 141.386ZM339.86 143.945C337.615 146.27 333.885 149.915 331.57 152.045C327.406 155.879 326.792 156.667 327.97 156.66C328.694 156.654 336.866 148.906 341.823 143.521C346.629 138.302 344.962 138.662 339.86 143.945ZM205.244 141.243C204.131 141.494 203.185 142.157 203.14 142.713C202.967 144.876 202.759 145.171 200.998 145.737C199.35 146.265 199.322 146.359 200.698 146.72C201.534 146.939 202.45 146.744 202.732 146.287C203.014 145.83 203.943 145.522 204.795 145.602C205.733 145.689 206.526 145.104 206.804 144.12C207.104 143.062 207.902 142.528 209.085 142.594C210.086 142.648 210.904 142.243 210.904 141.693C210.904 140.643 208.663 140.464 205.244 141.243ZM227.08 141.211C227.08 142.108 229.567 143.122 230.204 142.485C230.461 142.229 230.136 141.68 229.482 141.265C227.97 140.31 227.08 140.289 227.08 141.211ZM255.385 144.877C255.385 145.628 256.076 146.15 257.07 146.15C259.04 146.15 258.763 144.26 256.733 143.867C255.936 143.712 255.385 144.124 255.385 144.877ZM250.735 145.947C248.398 147.499 248.414 148.576 250.776 148.576C252.561 148.576 254.577 147.249 254.577 146.075C254.577 144.868 252.465 144.798 250.735 145.947ZM345.587 146.351C344.741 148.979 343.537 156.218 343.537 158.677C343.537 160.186 343.208 161.623 342.805 161.873C342.402 162.123 342.274 163.099 342.521 164.045C342.811 165.155 342.499 166.028 341.637 166.51C340.903 166.921 340.303 167.625 340.303 168.074C340.303 168.523 340.672 168.661 341.124 168.381C341.668 168.046 341.772 169.472 341.431 172.58C340.881 177.577 330.414 189.428 321.559 195.078C316.346 198.404 309.939 203.295 306.628 206.476C304.466 208.555 299.583 212.9 295.778 216.134C284.498 225.719 256.16 254.236 229.206 283.125C218.83 294.246 217.215 294.924 216.716 288.372C216.607 286.938 216.094 285.253 215.575 284.628C214.337 283.137 242.796 254.854 270.324 230.22C280.986 220.677 290.994 211.717 292.562 210.307C294.129 208.897 295.225 207.556 294.998 207.329C294.089 206.42 233.334 261.874 228.356 268.155C225.624 271.602 216.151 280.4 215.414 280.175C212.942 279.417 211.436 273.571 211.065 263.295L210.692 252.955L215.853 247.612C222.638 240.586 223.829 238.2 217.449 244.411C213.387 248.367 212.324 249.04 211.697 248.05C211.275 247.383 210.924 247.211 210.917 247.668C210.911 248.124 210.536 251.443 210.083 255.043C209.132 262.636 209.871 269.398 212.978 281.507C215.478 291.253 215.499 291.236 206.669 286.771C205.898 286.381 204.907 286.062 204.469 286.062C204.031 286.062 201.653 285.168 199.185 284.077C196.716 282.985 194.518 282.083 194.3 282.071C194.082 282.06 192.726 281.435 191.284 280.683C188.738 279.355 184.633 277.792 172.085 273.378C168.749 272.204 165.897 270.935 165.748 270.559C165.599 270.184 165.144 270.082 164.737 270.334C164.33 270.585 163.998 270.367 163.998 269.848C163.998 269.329 163.452 269.114 162.785 269.371C162.117 269.627 161.571 269.558 161.571 269.219C161.571 268.88 160.207 268.198 158.538 267.703C155.222 266.719 141.587 261.758 137.714 260.126C136.38 259.564 135.106 259.068 134.884 259.024C134.661 258.98 134 258.64 133.415 258.269C132.828 257.897 132.148 257.795 131.903 258.04C131.657 258.286 130.928 257.96 130.283 257.313C129.637 256.668 128.133 255.93 126.941 255.673C125.749 255.417 121.559 253.961 117.63 252.438C113.702 250.914 109.997 249.669 109.399 249.669C108.8 249.669 107.83 249.187 107.241 248.599C106.654 248.012 105.904 247.455 105.577 247.361C104.76 247.13 98.8872 244.603 93.1441 242.012C90.5243 240.829 87.1983 239.345 85.7522 238.713C84.3071 238.08 83.1236 237.194 83.1236 236.742C83.1236 236.289 82.8512 235.993 82.5177 236.083C81.914 236.246 78.3112 234.488 70.588 230.265C68.3648 229.049 65.186 227.614 63.5251 227.075C60.2722 226.023 57.2448 222.85 57.2448 220.497C57.2448 219.696 56.8198 218.017 56.301 216.765C55.7823 215.513 55.2963 214.306 55.22 214.084C55.1448 213.861 54.8004 213.037 54.4549 212.252C54.1095 211.466 54.0114 210.12 54.237 209.258C54.4626 208.397 54.37 207.583 54.0332 207.451C53.6954 207.318 52.6579 205.754 51.7283 203.974L50.037 200.74L50.001 203.731C49.9542 207.652 53.715 226.099 54.8375 227.451C55.317 228.029 58.1471 229.471 61.1276 230.655C64.1071 231.839 69.2225 234.467 72.494 236.496C78.2927 240.092 87.7813 245 88.1813 244.612C88.2914 244.505 89.501 245.216 90.8698 246.19C92.2396 247.165 94.7864 248.493 96.5311 249.14C104.186 251.983 112.752 255.598 114.145 256.573C114.978 257.156 116.163 257.44 116.779 257.203C117.396 256.967 117.899 257.206 117.899 257.736C117.899 258.266 118.352 258.548 118.903 258.365C119.456 258.181 120.346 258.468 120.882 259.005C121.841 259.965 129.998 262.818 139.129 265.387C141.687 266.108 143.779 267.067 143.779 267.518C143.779 267.97 144.234 268.268 144.791 268.181C145.346 268.092 148.167 269.131 151.058 270.486C153.949 271.842 157.827 273.359 159.675 273.856C162.955 274.739 169.653 277.683 173.702 280.024C174.815 280.667 176.179 281.026 176.735 280.822C177.291 280.618 177.747 280.77 177.747 281.16C177.747 281.55 179.839 282.603 182.397 283.499C184.954 284.395 189.595 286.1 192.708 287.286C195.822 288.472 199.405 289.758 200.671 290.144C201.937 290.53 203.406 291.204 203.935 291.643C204.463 292.081 207.612 293.385 210.932 294.538C214.253 295.692 217.612 296.992 218.394 297.427C219.402 297.986 220.349 297.868 221.63 297.022C224.564 295.085 249.724 267.86 249.724 266.622C249.724 266.295 250.542 265.482 251.544 264.814C255.26 262.335 282.074 234.785 282.074 233.446C282.074 233.028 282.562 232.684 283.158 232.684C283.755 232.684 286.484 230.35 289.224 227.498C291.964 224.645 294.204 222.475 294.204 222.677C294.204 222.879 295.024 222.254 296.024 221.291C297.025 220.326 300.028 217.914 302.696 215.927C305.365 213.941 308.588 211.061 309.86 209.527C311.131 207.992 314.77 204.978 317.947 202.829C321.124 200.679 324.451 198.098 325.341 197.093C326.23 196.089 330.825 191.708 335.55 187.359C343.087 180.422 343.997 179.305 342.961 178.269C342.096 177.405 341.996 176.679 342.587 175.569C343.811 173.273 347.368 145.341 346.436 145.341C346.148 145.341 345.767 145.796 345.587 146.351ZM189.052 149.808C187.489 151.691 188.605 152.047 190.277 150.198C191.084 149.306 191.37 148.576 190.91 148.576C190.451 148.576 189.615 149.13 189.052 149.808ZM203.388 151.07C201.846 151.986 198.962 152.657 195.358 152.94C192.177 153.191 191.792 153.992 193.815 156.146C195.564 158.008 199.711 158.487 201.972 157.09C202.436 156.802 202.817 156.953 202.817 157.425C202.817 157.895 203.197 158.281 203.661 158.281C204.126 158.281 204.398 157.644 204.268 156.866C204.08 155.747 204.51 155.507 206.311 155.718C208.45 155.969 208.574 155.819 208.332 153.291C208.05 150.353 206.086 149.47 203.388 151.07ZM223.556 157.141C223.7 159.546 223.612 159.546 221.027 157.151C219.635 155.862 218.335 155.354 217.144 155.634C215.416 156.042 215.407 156.014 216.9 154.859C219.196 153.082 223.399 154.524 223.556 157.141ZM183.405 156.262C181.701 158.075 181.66 158.281 182.997 158.281C183.815 158.281 184.249 158.044 183.959 157.754C183.669 157.465 184.063 156.766 184.834 156.203C185.605 155.64 186.026 154.968 185.768 154.711C185.511 154.454 184.448 155.151 183.405 156.262ZM233.569 157.121C234.65 159.964 234.562 160.707 233.145 160.707C232.477 160.707 231.931 160.304 231.931 159.81C231.931 159.259 231.155 159.109 229.91 159.421C227.877 159.932 227.011 158.744 228.898 158.037C229.599 157.774 229.413 157.264 228.292 156.377C226.741 155.149 226.799 155.096 229.728 155.072C232.272 155.05 232.912 155.391 233.569 157.121ZM272.368 155.729C272.368 156.105 271.669 157.045 270.814 157.819C269.062 159.406 262.07 160.705 262.949 159.282C263.243 158.808 263.052 158.276 262.526 158.1C261.446 157.74 262.321 155.854 263.568 155.854C264.013 155.854 264.168 156.192 263.913 156.605C262.876 158.281 266.928 158.43 269.028 156.794C271.342 154.991 272.368 154.663 272.368 155.729ZM249.724 156.201C249.724 156.391 249.152 157.119 248.453 157.819C247.754 158.518 247.572 159.09 248.049 159.09C248.525 159.09 248.915 159.454 248.915 159.898C248.915 161.194 247.518 160.83 246.966 159.392C246.452 158.052 247.725 155.854 249.015 155.854C249.405 155.854 249.724 156.01 249.724 156.201ZM179.633 160.476C179.633 161.048 180.301 161.516 181.116 161.516C181.931 161.516 182.598 161.048 182.598 160.476C182.598 159.904 181.931 159.436 181.116 159.436C180.301 159.436 179.633 159.904 179.633 160.476ZM228.213 163.621C228.497 164.362 229.227 164.72 229.916 164.456C231.282 163.932 231.575 165.185 230.276 165.988C229.809 166.276 229.537 167.298 229.669 168.259C229.828 169.413 229.525 169.925 228.78 169.765C228.157 169.632 226.262 170.078 224.569 170.756C222.79 171.467 221.293 171.672 221.026 171.241C220.468 170.338 223.76 168.398 225.462 168.625C227.092 168.844 229.212 167.422 228.428 166.638C228.082 166.293 227.547 166.364 227.238 166.796C226.928 167.228 226.139 167.699 225.484 167.843C224.553 168.048 224.601 167.765 225.706 166.545C226.51 165.657 226.899 164.411 226.608 163.655C226.328 162.923 226.462 162.324 226.906 162.324C227.351 162.324 227.939 162.908 228.213 163.621ZM223.844 166.859C223.844 167.682 223.399 167.988 222.631 167.694C221.964 167.437 221.418 167.641 221.418 168.146C221.418 168.65 221.146 168.792 220.813 168.459C220.48 168.126 220.914 167.337 221.776 166.706C223.745 165.267 223.844 165.274 223.844 166.859ZM310.816 171.22C307.275 174.229 304.228 177.139 304.046 177.686C303.66 178.842 313.091 171.558 315.976 168.469C319.741 164.441 317.2 165.795 310.816 171.22ZM177.747 169.199C176.654 170.515 176.915 170.681 178.893 169.921C179.597 169.651 180.172 169.105 180.172 168.708C180.172 167.589 178.862 167.854 177.747 169.199ZM214.466 169.721C212.938 171.443 212.939 171.449 214.701 170.525C216.667 169.494 217.877 167.986 216.739 167.986C216.337 167.986 215.314 168.766 214.466 169.721ZM331.021 171.607C329.252 173.121 327.978 174.532 328.191 174.744C328.403 174.957 330.215 173.717 332.215 171.987C334.217 170.258 335.49 168.845 335.046 168.849C334.601 168.852 332.79 170.093 331.021 171.607ZM336.663 170.411C335.853 171.307 335.373 172.222 335.595 172.444C335.817 172.666 336.662 172.116 337.471 171.22C338.282 170.325 338.763 169.411 338.541 169.189C338.318 168.966 337.474 169.517 336.663 170.411ZM221.418 173.66C221.418 174.112 220.054 175.113 218.385 175.884C216.717 176.655 215.125 177.597 214.847 177.979C214.569 178.36 214.117 178.307 213.841 177.861C213.361 177.086 215.506 175.678 216.763 175.943C217.093 176.012 217.818 175.343 218.372 174.453C219.427 172.763 221.418 172.244 221.418 173.66ZM188.215 174.253C188.12 175.543 183.52 178.527 182.979 177.651C182.672 177.155 183.195 176.574 184.181 176.317C185.23 176.042 185.756 175.42 185.5 174.753C185.23 174.048 185.653 173.647 186.667 173.647C187.544 173.647 188.24 173.919 188.215 174.253ZM181.385 175.264C181.111 175.709 180.34 176.073 179.672 176.073C179.005 176.073 178.685 175.709 178.959 175.264C179.234 174.82 180.005 174.456 180.673 174.456C181.34 174.456 181.66 174.82 181.385 175.264ZM326.958 178.949C324.29 181.418 322.488 183.329 322.956 183.193C324.221 182.827 332.926 175.764 332.978 175.062C333.08 173.706 331.574 174.678 326.958 178.949ZM298.306 181.812C295.892 183.982 294.082 185.925 294.286 186.128C294.489 186.331 296.645 184.735 299.08 182.581C301.513 180.428 303.323 178.484 303.101 178.264C302.878 178.043 300.721 179.64 298.306 181.812ZM310.541 185.131C310.007 185.665 309.57 186.393 309.57 186.748C309.57 187.939 310.788 187.412 311.809 185.778C312.914 184.007 312.087 183.585 310.541 185.131ZM164.2 186.701C166.162 186.402 165.986 187.919 163.998 188.438C163.108 188.671 162.381 188.571 162.381 188.216C162.381 187.861 161.456 187.339 160.325 187.054C159.195 186.771 158.489 186.185 158.757 185.752C159.062 185.257 159.903 185.328 161.014 185.942C161.987 186.478 163.421 186.82 164.2 186.701ZM291.778 186.991C291.206 187.68 290.921 188.425 291.143 188.648C291.365 188.87 292.016 188.489 292.587 187.8C293.159 187.111 293.445 186.366 293.222 186.143C293 185.921 292.349 186.303 291.778 186.991ZM175.32 188.608C175.32 189.275 174.774 189.821 174.107 189.821C172.844 189.821 172.503 188.865 173.433 187.934C174.364 187.004 175.32 187.345 175.32 188.608ZM305.927 189.018C303.765 191.407 304.922 191.783 307.147 189.414C308.19 188.303 308.673 187.396 308.22 187.396C307.766 187.396 306.734 188.126 305.927 189.018ZM282.883 193.638C279.101 196.467 273.824 200.577 271.155 202.773C268.487 204.969 264.542 207.923 262.388 209.336C260.235 210.751 258.285 212.397 258.056 212.995C257.826 213.594 257.294 214.084 256.873 214.084C256.134 214.084 245.307 222.385 243.658 224.216C243.214 224.709 240.393 227.225 237.391 229.806C234.389 232.388 231.931 234.851 231.931 235.279C231.931 235.709 235.298 233.176 239.413 229.653C243.528 226.13 253.626 217.89 261.855 211.341C270.084 204.793 277.453 198.913 278.232 198.275C279.011 197.637 279.647 197.376 279.647 197.693C279.647 198.009 280.214 197.46 280.906 196.471C281.599 195.483 282.599 194.66 283.13 194.644C284.272 194.608 290.703 189.249 290.141 188.802C289.93 188.632 286.663 190.809 282.883 193.638ZM301.466 192.671C299.904 194.554 301.02 194.91 302.691 193.061C303.499 192.169 303.784 191.439 303.325 191.439C302.866 191.439 302.03 191.993 301.466 192.671ZM295.417 197.441C293.639 198.95 292.365 200.37 292.588 200.597C292.81 200.825 294.63 199.596 296.631 197.866C298.633 196.137 299.906 194.717 299.461 194.71C299.017 194.704 297.197 195.933 295.417 197.441ZM63.4652 197.617C63.6952 198.217 64.1681 198.532 64.5157 198.317C64.8634 198.103 65.5652 198.428 66.0741 199.042C68.3953 201.839 83.1236 205.687 83.1236 203.497C83.1236 203.053 82.6692 202.765 82.1134 202.855C81.5565 202.947 80.0777 202.598 78.8256 202.082C77.5734 201.566 76.0641 201.144 75.4723 201.144C74.8795 201.144 71.8423 200.105 68.7212 198.835C64.944 197.297 63.1862 196.89 63.4652 197.617ZM88.3807 206.087C91.0496 206.938 93.7795 207.869 94.4464 208.157C95.1133 208.445 95.9328 208.621 96.2663 208.551C96.5998 208.481 96.8722 208.744 96.8722 209.137C96.8722 209.53 97.7822 210.026 98.8949 210.238C100.006 210.451 100.916 210.328 100.916 209.966C100.916 209.263 86.2153 204.323 84.5294 204.459C83.9791 204.504 85.7119 205.236 88.3807 206.087ZM282.474 208.427C280.311 210.817 281.469 211.192 283.694 208.824C284.737 207.713 285.219 206.804 284.766 206.804C284.312 206.804 283.281 207.535 282.474 208.427ZM102.534 210.721C102.534 211.095 104.028 211.849 105.853 212.396C107.678 212.943 109.68 213.585 110.3 213.824C110.922 214.061 111.429 213.888 111.429 213.438C111.429 212.987 109.727 212.038 107.647 211.329C103.334 209.859 102.534 209.764 102.534 210.721ZM273.869 216.266C270.589 219.291 264.815 224.307 261.038 227.412C257.262 230.518 253.99 233.25 253.768 233.483C253.545 233.717 249.765 236.818 245.369 240.373C236.041 247.916 236.061 247.898 233.954 250.407C233.048 251.485 235.004 250.447 238.401 248.047C241.738 245.69 244.649 243.543 244.871 243.277C245.094 243.011 246.913 241.463 248.915 239.835C250.917 238.207 253.849 235.661 255.43 234.174C257.011 232.688 260.465 229.652 263.106 227.427C265.747 225.204 270.458 221.05 273.575 218.197C276.693 215.344 279.583 212.711 279.998 212.347C280.413 211.982 280.546 211.477 280.293 211.225C280.04 210.972 277.149 213.241 273.869 216.266ZM66.1406 212.38C66.1406 213.277 68.6286 214.291 69.2661 213.655C69.5222 213.398 69.1974 212.848 68.5436 212.434C67.0309 211.478 66.1406 211.458 66.1406 212.38ZM112.754 213.838C112.174 214.418 123.033 218.734 126.998 219.499C128.221 219.736 129.222 220.193 129.222 220.517C129.222 220.841 130.715 221.553 132.542 222.101C134.367 222.648 136.368 223.291 136.989 223.528C137.61 223.767 138.118 223.601 138.118 223.161C138.118 222.721 137.482 222.167 136.702 221.932C130.769 220.135 117.906 215.474 116.157 214.486C113.707 213.103 113.523 213.068 112.754 213.838ZM75.845 214.802C75.845 215.633 81.4454 216.841 82.1287 216.158C82.3793 215.906 81.8181 215.701 80.8798 215.701C79.9426 215.701 78.9509 215.337 78.6763 214.893C78.0573 213.891 75.845 213.82 75.845 214.802ZM89.9979 218.127C90.8883 218.51 92.1611 218.822 92.8292 218.822C93.5931 218.822 93.4438 218.565 92.4249 218.127C91.5345 217.745 90.2606 217.432 89.5936 217.432C88.8297 217.432 88.979 217.689 89.9979 218.127ZM98.0851 220.398C98.5309 220.852 101.078 221.956 103.747 222.851C116.214 227.034 121.009 228.889 126.189 231.533C130.451 233.708 130.839 233.811 130.839 232.777C130.839 232.383 129.475 231.424 127.807 230.645C126.139 229.867 122.164 228.003 118.974 226.503C110.786 222.652 96.08 218.354 98.0851 220.398ZM138.927 223.69C138.927 224.434 140.925 225.328 147.014 227.31C151.11 228.644 158.327 231.404 161.975 233.033C163.31 233.628 165.676 234.511 167.232 234.995C168.79 235.479 172.543 236.649 175.574 237.597C181.138 239.337 183.32 239.39 179.969 237.702C178.969 237.198 172.692 234.972 166.019 232.755C153.015 228.433 150.398 227.467 144.319 224.736C140.059 222.822 138.927 222.603 138.927 223.69ZM65.332 224.586C65.332 225.145 67.2336 226.214 68.2286 226.214C69.3315 226.214 68.2962 224.715 66.9492 224.363C66.06 224.131 65.332 224.231 65.332 224.586ZM76.6537 228.641C79.4195 229.526 81.5456 229.526 79.4849 228.641C78.5945 228.259 77.1397 227.957 76.2493 227.97C74.9492 227.989 75.0288 228.12 76.6537 228.641ZM84.7409 230.034C85.4089 230.285 86.8648 230.862 87.9764 231.318C89.088 231.772 90.241 232.175 90.5374 232.213C90.8338 232.25 91.3493 232.554 91.6827 232.887C92.499 233.702 93.6378 233.656 93.6378 232.808C93.6378 232.104 86.0922 229.399 84.4466 229.513C83.941 229.549 84.0739 229.782 84.7409 230.034ZM94.4464 233.068C94.4464 233.477 98.9145 235.92 99.6631 235.92C100.893 235.92 99.8582 234.448 98.047 233.623C95.8914 232.641 94.4464 232.418 94.4464 233.068ZM133.265 234.302C135.449 236.01 136.501 236.316 136.501 235.241C136.501 234.583 132.961 232.666 131.813 232.703C131.5 232.713 132.154 233.432 133.265 234.302ZM104.151 236.641C104.151 237.039 104.726 237.585 105.43 237.855C107.168 238.522 107.386 238.481 107.386 237.489C107.386 237.018 107.022 236.858 106.578 237.133C106.132 237.407 105.768 237.247 105.768 236.776C105.768 236.305 105.405 235.92 104.959 235.92C104.515 235.92 104.151 236.245 104.151 236.641ZM113.048 240.772C114.604 241.624 116.424 242.321 117.091 242.321C117.758 242.321 117.03 241.624 115.474 240.772C113.916 239.919 112.097 239.222 111.429 239.222C110.762 239.222 111.49 239.919 113.048 240.772ZM212.217 242.825C211.94 243.548 211.744 244.746 211.782 245.488C211.821 246.23 212.173 245.764 212.565 244.452C213.327 241.9 213.057 240.636 212.217 242.825ZM119.517 243.245C119.517 243.717 119.881 243.877 120.326 243.603C120.771 243.327 121.135 243.509 121.135 244.007C121.135 244.504 121.499 244.686 121.944 244.411C122.388 244.137 122.752 244.319 122.752 244.816C122.752 245.313 123.165 245.464 123.67 245.153C124.263 244.786 123.905 244.207 122.66 243.516C120.287 242.201 119.517 242.135 119.517 243.245ZM191.495 243.245C191.495 243.717 191.859 243.877 192.304 243.603C192.748 243.327 193.112 243.509 193.112 244.007C193.112 244.504 193.476 244.686 193.921 244.411C194.366 244.137 194.73 244.297 194.73 244.768C194.73 245.239 195.094 245.624 195.538 245.624C197.08 245.624 196.337 244.262 194.287 243.328C191.757 242.175 191.495 242.167 191.495 243.245ZM127.605 246.303C127.605 246.891 131.058 248.859 132.09 248.859C133.254 248.859 132.15 247.361 130.397 246.563C127.942 245.445 127.605 245.413 127.605 246.303ZM170.468 246.347C170.468 246.744 171.043 247.29 171.747 247.56C173.486 248.227 173.702 248.186 173.702 247.194C173.702 246.723 173.338 246.563 172.894 246.837C172.449 247.112 172.085 246.952 172.085 246.481C172.085 246.01 171.721 245.624 171.277 245.624C170.832 245.624 170.468 245.949 170.468 246.347ZM133.265 248.772C133.265 249.43 138.972 252.1 140.359 252.09C141.109 252.085 134.687 248.11 133.872 248.076C133.539 248.062 133.265 248.375 133.265 248.772ZM164.807 249.581C164.807 249.979 165.382 250.525 166.086 250.794C168.065 251.554 168.26 251.389 166.944 250.073C165.569 248.698 164.807 248.522 164.807 249.581ZM181.79 250.881C182.902 251.517 184.176 252.037 184.621 252.037C185.065 252.037 184.519 251.517 183.408 250.881C182.295 250.245 181.021 249.725 180.577 249.725C180.132 249.725 180.678 250.245 181.79 250.881ZM174.107 253.088C175.442 253.564 176.801 254.355 177.128 254.844C177.454 255.333 177.727 255.416 177.733 255.028C177.741 254.64 178.253 254.744 178.874 255.259C179.495 255.773 180.313 256.123 180.694 256.036C181.075 255.948 182.41 256.3 183.662 256.816C186.422 257.955 186.642 257.967 186.642 256.978C186.642 256.55 185.096 255.804 183.205 255.319C181.314 254.835 178.396 253.911 176.719 253.266C175.042 252.622 173.222 252.123 172.675 252.159C172.129 252.194 172.773 252.612 174.107 253.088ZM229.505 253.307C228.944 253.984 228.856 254.52 229.307 254.52C229.753 254.52 230.569 253.974 231.123 253.307C231.685 252.631 231.772 252.094 231.321 252.094C230.876 252.094 230.059 252.64 229.505 253.307ZM144.615 254.149C145.172 254.82 145.815 255.181 146.044 254.952C146.274 254.722 146.95 254.94 147.547 255.436C148.143 255.93 148.632 256.064 148.632 255.733C148.632 255.402 149.178 255.584 149.845 256.139C150.512 256.692 151.058 256.893 151.058 256.583C151.058 256.275 151.63 256.594 152.329 257.294C153.73 258.694 155.102 258.965 155.102 257.842C155.102 257.053 154.389 256.715 147.937 254.45C144.419 253.216 143.794 253.159 144.615 254.149ZM191.938 254.854C192.796 255.481 193.843 255.782 194.263 255.523C194.683 255.262 194.323 254.774 193.463 254.437C190.931 253.446 190.263 253.628 191.938 254.854ZM187.451 257.756C187.451 258.2 187.997 258.564 188.664 258.564C189.332 258.564 189.877 258.2 189.877 257.756C189.877 257.311 189.332 256.947 188.664 256.947C187.997 256.947 187.451 257.311 187.451 257.756ZM158.337 259.192C158.337 259.632 158.973 260.176 159.752 260.4C160.53 260.624 161.804 261.069 162.582 261.389C163.37 261.714 163.998 261.617 163.998 261.171C163.998 260.731 163.36 260.187 162.582 259.964C161.804 259.739 160.53 259.294 159.752 258.974C158.964 258.649 158.337 258.746 158.337 259.192ZM193.921 259.373C193.921 259.818 194.467 260.182 195.134 260.182C195.801 260.182 196.347 259.818 196.347 259.373C196.347 258.928 195.801 258.564 195.134 258.564C194.467 258.564 193.921 258.928 193.921 259.373ZM197.155 260.095C197.155 260.818 199.058 261.799 200.457 261.799C200.865 261.799 201.2 261.397 201.2 260.904C201.2 260.412 200.654 260.219 199.987 260.474C199.32 260.73 198.774 260.587 198.774 260.157C198.774 259.725 198.41 259.373 197.965 259.373C197.519 259.373 197.155 259.698 197.155 260.095ZM203.249 261.753C202.83 262.433 207.454 264.711 208.048 264.117C208.228 263.937 207.313 263.182 206.017 262.438C204.722 261.695 203.476 261.387 203.249 261.753ZM166.828 262.978C170.962 264.762 173.495 265.117 170.064 263.43C168.284 262.556 166.282 261.862 165.615 261.886C164.948 261.911 165.494 262.403 166.828 262.978ZM184.94 263.49C186.896 264.359 188.64 264.924 188.815 264.748C189.165 264.398 182.933 261.764 181.976 261.857C181.651 261.888 182.985 262.623 184.94 263.49ZM191.124 265.896C191.417 266.371 191.85 266.565 192.087 266.33C192.322 266.094 193.277 266.433 194.208 267.084C196.14 268.438 197.155 268.595 197.155 267.54C197.155 267.138 196.01 266.411 194.609 265.921C191.406 264.805 190.445 264.799 191.124 265.896ZM203.625 269.8C203.625 270.697 206.113 271.711 206.751 271.075C207.008 270.818 206.683 270.269 206.028 269.854C204.517 268.899 203.625 268.878 203.625 269.8Z" fill="#0000FF"/>
</svg>
