<svg width="400" height="400" viewBox="0 0 400 400" fill="none" xmlns="http://www.w3.org/2000/svg">
<path fill-rule="evenodd" clip-rule="evenodd" d="M207.326 55.6885C203.164 56.4399 199.344 57.4687 198.838 57.9747C198.332 58.4808 195.403 58.8949 192.328 58.8949C187.626 58.8949 186.664 59.1824 186.265 60.7045C185.768 62.6073 183.364 63.6029 179.211 63.6233C173.635 63.6527 163.314 69.0955 164.672 71.2923C164.923 71.6987 166.511 71.6629 168.199 71.2118C170.737 70.5319 170.963 70.5856 169.505 71.5185C156.663 79.7345 152.095 88.4323 158.367 92.7275C164.902 97.2003 210.563 94.1243 226.672 88.1256L228.967 87.2719L224.797 83.0227C212.842 70.8412 227.509 58.9588 254.618 58.8642C262.045 58.8386 263.026 58.6559 261.588 57.5645C257.243 54.2674 221.96 53.0482 207.326 55.6885ZM265.633 59.2783C265.633 59.6016 268.086 61.4112 271.086 63.3C285.092 72.1166 286.224 76.192 276.791 83.8329C263.355 94.716 236.889 100.192 192.594 101.253C154.79 102.159 153.573 101.743 152.774 87.7179L152.3 79.3831L148.77 84.5498C143.013 92.9767 142.302 96.1728 141.667 116.504L141.098 134.754L134.212 139.047C81.6148 171.828 131.726 221.211 199.72 203.603C245.001 191.876 322.428 160.009 332.368 149.007C335.591 145.439 335.957 144.555 335.465 141.526C334.434 135.171 329.123 133.631 326.865 139.034C325.309 142.757 323.387 143.485 323.732 140.219C324.145 136.325 308.544 137.242 296.93 141.797C265.66 154.059 252.55 158.011 230.01 161.966C210.811 165.335 158.465 163.475 158.465 159.424C158.465 159.014 160.278 159.152 162.495 159.733C170.854 161.921 222.891 161.117 234.81 158.615C261.736 152.963 276.495 148.358 290.791 141.153C300.889 136.064 300.787 136.267 300.787 121.181C300.787 92.9562 296.507 76.7172 287.021 68.9434C281.196 64.1703 265.633 57.1377 265.633 59.2783ZM319.691 145.599C319.691 145.819 318.09 146.52 316.135 147.157C314.178 147.793 306.87 150.832 299.893 153.908C285.525 160.246 280.586 160.822 293.58 154.646C307.009 148.264 319.691 143.869 319.691 145.599ZM149.929 155.317C153.3 156.941 154.581 157.965 153.55 158.21C152.672 158.419 150.632 157.907 149.017 157.071C145.031 155.011 144.238 155.809 144.238 161.881C144.238 174.419 150.718 179.611 170.159 182.653L177.906 183.865L172.217 183.966C151.455 184.336 142.346 177.503 142.343 161.558C142.342 151.525 142.237 151.611 149.929 155.317ZM279.975 161.654C278.67 163.227 265.702 169.294 265.046 168.638C264.291 167.883 270.149 164.073 274.96 162.191C280.333 160.09 281.366 159.98 279.975 161.654ZM246.191 177.501C228.854 185.989 203.143 194.388 205.331 190.849C205.697 190.257 207.01 189.773 208.25 189.773C216.171 189.773 217.146 185.979 209.607 184.487L204.462 183.469L215.368 181.801C229.584 179.627 242.474 176.857 248.75 174.627C257.027 171.686 256.222 172.591 246.191 177.501ZM132.858 188.274C136.419 190.297 136.747 190.701 134.838 190.71C132.318 190.722 124.673 186.169 121.851 182.974C120.224 181.131 120.458 181.171 124.323 183.395C126.67 184.745 130.511 186.941 132.858 188.274ZM275.482 185.605C267.89 198.56 275.458 208.256 285.027 197.834C289.268 193.213 291.366 192.69 298.114 194.564C302.279 195.72 302.194 195.444 299.775 199.957C295.943 207.106 298.398 212.535 305.465 212.535C309.695 212.535 312.617 210.33 313.605 206.394C314.424 203.134 314.791 203.276 320.29 208.978C330.109 219.161 330.865 221.613 324.047 221.194C317.004 220.761 313.404 228.076 317.868 233.751C321.329 238.151 322.914 238.462 328.21 235.778L332.968 233.366L332.925 236.466C332.899 238.169 332.356 242.338 331.714 245.728L330.55 251.892L326.491 251.806C321.401 251.699 319.675 250.019 318.067 243.612C313.426 225.108 305.041 216.834 280.807 206.844C268.296 201.686 263.203 199.025 256.344 194.063C251.642 190.66 239.226 193.784 238.298 198.605C237.11 204.779 253.253 214.331 271.668 218.35C287.115 221.722 295.38 227.498 301.636 239.299L303.971 243.704L302.321 258.704C298.612 292.45 302.162 301.784 322.592 311.993C334.527 317.957 342.468 311.282 334.862 301.678C325.923 290.391 325.992 284.193 335.353 258.057C347.74 223.469 330.415 194.434 290.977 183.69C278.821 180.379 278.523 180.416 275.482 185.605ZM215.838 183.14C215.118 184.306 217.729 185.442 219.132 184.575C219.686 184.232 219.896 183.554 219.596 183.069C218.871 181.897 216.58 181.942 215.838 183.14ZM262.177 191.207C261.406 193.217 263.541 195.464 266.223 195.464C267.762 195.464 268.477 194.922 268.477 193.756C268.477 190.233 263.348 188.158 262.177 191.207ZM279.691 195.779C279.897 196.845 279.357 197.36 278.031 197.36C276.95 197.36 276.065 196.79 276.065 196.095C276.065 193.19 279.137 192.922 279.691 195.779ZM190.71 195.571C185.882 196.825 159.221 197.778 155.996 196.813C153.639 196.108 154.192 195.91 159.887 195.42C171.051 194.46 194.544 194.575 190.71 195.571ZM286.438 201.7C284.129 204.482 289.274 206.119 292.626 203.668C293.587 202.965 294.071 201.898 293.699 201.297C292.71 199.697 287.877 199.965 286.438 201.7ZM307.395 204.513C308.272 205.568 308.321 206.264 307.575 207.01C306.08 208.505 303.569 207.23 303.569 204.977C303.569 202.698 305.677 202.442 307.395 204.513ZM209.677 205.815C197.467 209.816 194.793 214.671 205.768 212.917C210.295 212.193 211.532 213.636 212.236 220.463L212.774 225.678L209.092 226.288C195.594 228.52 194.433 241.934 207.737 241.934C211.344 241.934 212.523 242.283 212.523 243.346C212.523 245.821 208.911 254.375 206.235 258.235L203.648 261.967L199.951 257.641C195.959 252.97 194.203 252.448 191.058 254.996C185.256 259.695 185.345 265.758 191.261 268.763L195.606 270.972L186.756 274.009C175.741 277.791 173.377 277.922 174.183 274.712C174.544 273.276 174.12 271.31 173.065 269.525C172.131 267.944 171.559 266.504 171.792 266.326C172.025 266.147 174.459 264.388 177.202 262.417C187.123 255.287 192.81 245.768 194.493 233.476C196.605 218.045 194.135 211.226 186.627 211.77L182.649 212.06L181.982 221.544C180.343 244.822 178.336 247.345 153.722 257.033C124.733 268.444 120.719 272.899 119.898 294.57C119.445 306.558 120.296 309.198 125.054 310.563C128.835 311.648 130.872 310.087 134.854 303.058C141.996 290.449 145.276 288.619 165.459 285.99C209.403 280.267 229.401 253.029 218.996 213.074C216.477 203.401 216.646 203.533 209.677 205.815ZM313.47 214.905C311.648 216.313 311.648 216.342 313.47 217.75C316.594 220.164 321.564 218.207 320.348 215.042C319.601 213.094 315.91 213.02 313.47 214.905ZM197.996 216.693C197.208 218.744 200.104 222.166 202.344 221.834C205.1 221.428 205.399 219.636 203.098 217.336C200.836 215.074 198.719 214.807 197.996 216.693ZM324.433 228.657C324.433 229.71 323.8 230.554 323.01 230.554C321.295 230.554 321.176 229.447 322.725 227.898C324.256 226.367 324.433 226.446 324.433 228.657ZM208.203 232.365C209.021 233.689 207.739 236.243 206.256 236.243C205.53 236.243 204.936 235.461 204.936 234.505C204.936 231.805 207.014 230.443 208.203 232.365ZM199.242 246.683C197.755 249.461 200.267 253.315 203.565 253.315C206.778 253.315 207.501 250.871 205.202 247.787C202.776 244.536 200.606 244.133 199.242 246.683ZM194.709 261.076C193.261 262.524 192.191 261.456 192.995 259.361C193.469 258.126 193.881 258.003 194.724 258.846C195.567 259.69 195.564 260.22 194.709 261.076ZM323.293 266.641C323.611 270.413 320.848 273.878 318.304 272.901C316.787 272.32 316.164 264.744 317.522 263.387C319.542 261.368 323.014 263.326 323.293 266.641ZM161.121 274.734C161.511 278.735 159.385 280.407 155.363 279.259C151.212 278.073 150.715 274.846 154.376 272.836C158.44 270.605 160.783 271.263 161.121 274.734ZM142.272 282.325C141.015 283.839 138.549 284.129 138.549 282.762C138.549 281.585 141.602 279.887 142.605 280.506C143.032 280.771 142.882 281.589 142.272 282.325ZM319.513 285.501C319.75 286.212 319.395 286.568 318.683 286.33C317.998 286.103 317.252 285.355 317.023 284.671C316.787 283.959 317.142 283.604 317.854 283.841C318.537 284.069 319.285 284.816 319.513 285.501Z" fill="#FF0000"/>
</svg>
