<svg width="400" height="400" viewBox="0 0 400 400" fill="none" xmlns="http://www.w3.org/2000/svg">
<path fill-rule="evenodd" clip-rule="evenodd" d="M176.773 71.8919C167.593 78.1303 160.681 104.455 164.686 117.923C167.802 128.402 182.294 145.851 192.958 151.965C194.41 152.796 194.524 152.916 199.967 159.363C212.23 173.886 212.081 192.814 199.55 212.294C197.613 215.304 189.788 222.919 188.631 222.919C187.729 222.919 180.509 234.908 178.025 240.533C173.927 249.816 172.441 256.895 172.422 267.24L172.405 276.66L164.123 276.15C154.925 275.583 152.61 276.187 145.683 280.951C142.395 283.214 142.292 283.233 137.969 282.382C134.659 281.732 131.647 281.723 125.663 282.348C121.305 282.803 115.094 283.18 111.861 283.185C105.028 283.196 104.655 283.367 103.46 287.029C101.682 292.485 106.042 298.051 113.663 300.051C123.442 302.618 133.434 304.486 139.416 304.866C153.816 305.778 157.282 306.485 168.928 310.881L180.196 315.135H189.381C197.317 315.135 199.266 314.884 203.709 313.298C210.839 310.751 221.115 310.753 229.06 313.302C233.683 314.785 236.109 315.075 244.123 315.102L253.675 315.135L261.219 311.575C270.634 307.131 274.947 305.97 282.07 305.958C296.498 305.937 306.744 304.068 309.139 301.021C315.89 292.439 302.425 285.509 280.862 286.468C268.509 287.019 265.44 286.568 257.394 283.02C250.825 280.125 246.28 279.629 241.836 281.328C222.656 288.652 220.423 254.73 238.745 234.375C256.173 215.011 261.55 190.9 254.022 165.857C248.308 146.848 237.872 136.303 207.808 119.161C191.139 109.657 186.64 102.528 187.501 86.9828C188.315 72.2658 184.376 66.7253 176.773 71.8919ZM184.214 105.194C186.583 109.635 194.087 118.579 195.444 118.579C195.884 118.579 196.768 119.05 197.406 119.624C198.043 120.199 204.129 123.676 210.928 127.352C240.638 143.411 252.647 160.983 251.616 186.889C251.016 201.995 241.89 223.797 233.461 230.267C227.067 235.176 220.977 251.957 220.977 264.668C220.977 270.289 221.398 274.066 222.446 277.85C225.941 290.459 222.917 292.971 209.992 288.2C186.706 279.604 186.199 252.797 208.717 220.714C229.954 190.456 227.187 164.169 200.053 138.418C188.065 127.042 186.72 125.193 190.431 125.193C194.108 125.193 195.502 121.161 192.906 118.032C191.848 116.757 187.518 116.873 186.18 118.212C183.787 120.604 180.807 115.024 180.025 106.689C179.304 98.9991 180.652 98.5179 184.214 105.194ZM207.193 134C204.294 138.641 209.255 145.551 214.33 143.94C218.316 142.674 218.593 138.113 214.921 134.194C212.885 132.02 208.498 131.91 207.193 134ZM213.899 137.768C215.098 139.48 214.751 141.358 213.235 141.358C211.803 141.358 209.955 139.257 209.955 137.632C209.955 135.694 212.509 135.783 213.899 137.768ZM231.495 158.235C227.967 159.717 226.921 168.766 229.848 172.487C233.394 176.996 242.19 174.67 242.823 169.057C243.635 161.846 237.302 155.795 231.495 158.235ZM238.411 163.053C242.682 167.325 241.133 172.452 235.696 172.043C230.844 171.678 228.287 165.576 231.598 162.265C234.026 159.838 235.347 159.989 238.411 163.053ZM238.883 182.122C238.283 183.687 240.004 185.563 241.797 185.296C244.148 184.947 244.045 183.428 241.584 182.156C239.548 181.102 239.276 181.099 238.883 182.122ZM235.427 185.935C234.721 186.641 236.36 189.119 237.535 189.119C238.127 189.119 238.611 188.635 238.611 188.043C238.611 186.868 236.135 185.228 235.427 185.935ZM229.95 198.273C226.404 202.779 227.452 210.649 231.904 212.951C238.85 216.543 245.213 212.665 244.138 205.495C243.031 198.115 233.779 193.404 229.95 198.273ZM239.649 201.666C243.25 205.946 241.669 211.163 236.771 211.163C231.944 211.163 229.251 206.468 231.186 201.427C232.357 198.379 236.993 198.511 239.649 201.666ZM219.324 220.039C216.831 221.49 217.759 223.036 220.794 222.487C224.21 221.87 224.345 221.75 223.196 220.365C222.122 219.071 221.128 218.987 219.324 220.039ZM211.156 230.32C208.155 232.681 208.28 240.461 211.368 243.549C216.349 248.53 223.916 245.035 223.916 237.753C223.916 230.878 216.178 226.371 211.156 230.32ZM217.943 232.548C222.043 233.978 222.917 237.813 219.841 240.888C215.928 244.801 212.159 243.015 212.159 237.247C212.159 231.947 213.378 230.956 217.943 232.548ZM202.607 249.371C202.607 249.776 203.434 250.106 204.444 250.106C205.454 250.106 206.281 249.776 206.281 249.371C206.281 248.967 205.454 248.637 204.444 248.637C203.434 248.637 202.607 248.967 202.607 249.371ZM203.342 253.464C203.342 254.23 203.877 254.538 204.937 254.382C207.29 254.036 207.542 252.311 205.24 252.311C204.005 252.311 203.342 252.714 203.342 253.464ZM203.562 263.516C197.91 269.722 200.071 279.031 207.384 279.977C213.245 280.736 216.839 277.582 216.751 271.759C216.64 264.469 207.752 258.915 203.562 263.516ZM211.24 265.931C214.827 268.443 215.193 275.609 211.812 277.151C207.777 278.989 203.342 275.221 203.342 269.954C203.342 264.919 207.078 263.015 211.24 265.931ZM91.328 300.235C86.6828 306.869 94.716 313.298 107.65 313.298C115.66 313.298 119.943 307.7 115.211 303.417C111.317 299.893 93.2539 297.486 91.328 300.235ZM105.982 305.502L109.656 307.169L106.964 308.065C104.23 308.976 100.446 308.063 97.781 305.851C94.7734 303.355 100.694 303.103 105.982 305.502ZM267.874 314.061C263.52 316.601 265.061 322.934 270.383 324.367C281.827 327.448 292.019 319.522 282.716 314.776C279.55 313.161 270.189 312.709 267.874 314.061ZM199.571 318.171C196.599 321.574 197.326 325.058 201.593 327.85C208.907 332.638 220.315 328.798 217.45 322.512C215.544 318.328 202.253 315.1 199.571 318.171ZM209.638 322.932C210.33 324.051 208.509 325.108 206.288 324.877C205.227 324.767 204.354 324.147 204.212 323.401C203.928 321.904 208.746 321.488 209.638 322.932Z" fill="#FF0000"/>
</svg>
