<svg width="400" height="400" viewBox="0 0 400 400" fill="none" xmlns="http://www.w3.org/2000/svg">
<path fill-rule="evenodd" clip-rule="evenodd" d="M190.147 73.3484C189.684 73.9254 188.359 76.2821 187.202 78.5867C186.046 80.8903 183.173 85.9152 180.819 89.7511C178.463 93.5869 176.537 97.0422 176.537 97.4296C176.537 97.8157 175.217 100.137 173.604 102.587C171.991 105.036 170.671 107.301 170.671 107.619C170.671 107.938 168.489 111.906 165.823 116.437C163.157 120.969 160.324 126.373 159.529 128.446C158.734 130.52 157.168 133.726 156.05 135.569C154.932 137.413 152.629 141.373 150.93 144.369C149.232 147.365 147.134 150.837 146.268 152.086C145.402 153.335 144.694 154.795 144.694 155.329C144.694 156.276 142.878 159.409 137.417 167.883C135.95 170.161 134.493 172.872 134.178 173.909C133.862 174.945 132.773 176.925 131.757 178.307C130.74 179.69 126.607 187.232 122.574 195.067C118.54 202.902 114.702 209.908 114.045 210.635C113.388 211.364 112.849 212.437 112.849 213.02C112.849 213.604 112.002 215.272 110.966 216.725C108.551 220.115 107.601 221.809 101.657 233.324C98.9581 238.554 95.8472 244.032 94.7439 245.5C93.6407 246.967 92.7374 248.497 92.7374 248.901C92.7374 249.305 91.4411 251.789 89.8557 254.42C88.2714 257.052 86.7165 260.017 86.4026 261.009C86.0876 262 84.5236 264.854 82.9258 267.351C81.328 269.849 77.8546 276.1 75.2067 281.245C72.5576 286.388 69.5788 291.918 68.5862 293.53C67.5937 295.144 66.373 297.405 65.875 298.555C65.3771 299.705 64.1067 301.779 63.0521 303.164C61.9985 304.548 60.8535 306.625 60.508 307.776C59.153 312.306 54.0073 320.457 52.0289 321.209C50.5 321.791 50.0009 322.605 50.0009 324.515V327.051H200H350.001V324.555C350.001 322.877 349.37 321.647 348.074 320.798C346.243 319.599 339.106 309.621 339.106 308.26C339.106 307.905 337.091 304.541 334.627 300.782C332.163 297.024 329.618 292.96 328.971 291.752C324.98 284.297 320.427 276.773 319.378 275.903C318.706 275.346 318.157 274.437 318.157 273.885C318.157 273.332 317.036 271.398 315.667 269.588C314.297 267.777 313.166 265.955 313.152 265.537C313.14 265.12 312.241 263.611 311.154 262.185C310.069 260.759 308.896 258.693 308.548 257.593C308.2 256.493 306.638 253.918 305.076 251.871C303.513 249.825 302.235 247.642 302.235 247.023C302.235 246.401 301.35 244.827 300.268 243.525C299.186 242.222 297.771 240.158 297.125 238.939C296.479 237.719 294.776 235.08 293.339 233.074C291.904 231.066 289.62 227.351 288.263 224.816C286.02 220.619 281.703 213.627 277.846 207.94C277.02 206.724 274.613 202.387 272.494 198.302C270.376 194.218 266.407 187.671 263.674 183.754C260.942 179.837 258.696 176.365 258.683 176.039C258.659 175.431 255.671 170.665 253.032 167.029C252.21 165.897 250.405 162.822 249.023 160.198C247.64 157.574 245.504 154.163 244.277 152.621C243.048 151.077 240.782 147.365 239.24 144.369C237.698 141.373 234.626 136.093 232.411 132.637C230.198 129.18 225.488 121.45 221.945 115.458C218.403 109.467 213.866 102.364 211.864 99.6755C209.863 96.9869 207.461 93.028 206.528 90.8769C205.595 88.7258 203.978 86.0236 202.935 84.8707C201.892 83.7189 199.79 80.4194 198.264 77.5389C195.402 72.1357 192.376 70.5729 190.147 73.3484ZM195.012 97.6509C195.471 98.6875 196.979 101.044 198.361 102.888C199.744 104.732 202.007 108.314 203.389 110.849C204.771 113.384 207.4 117.72 209.23 120.485C211.062 123.251 212.808 126.079 213.111 126.77C213.415 127.462 214.856 129.724 216.314 131.799C217.772 133.873 220.412 138.209 222.182 141.435C223.953 144.661 226.265 148.244 227.321 149.396C228.377 150.549 229.821 152.88 230.53 154.577C231.239 156.274 232.222 157.911 232.714 158.215C233.206 158.52 234.471 160.714 235.525 163.091C236.577 165.468 238.065 167.931 238.832 168.563C239.598 169.196 240.224 169.99 240.224 170.329C240.224 171.777 253.944 194.572 257.905 199.705C259.163 201.334 261.101 204.351 262.212 206.409C263.324 208.467 267.316 215.182 271.083 221.33C274.851 227.478 277.934 232.823 277.934 233.207C277.934 233.591 278.825 234.971 279.914 236.274C281.003 237.577 282.177 239.585 282.522 240.737C282.867 241.889 284.009 243.775 285.059 244.927C287.163 247.237 290.829 254.099 290.262 254.666C289.777 255.152 280.605 244.801 277.671 240.457C276.373 238.538 274.528 236.13 273.57 235.11C272.613 234.088 271.034 231.982 270.062 230.428C267.928 227.016 256.953 214.355 246.065 202.745C241.673 198.061 236.858 192.454 235.365 190.285C233.874 188.117 231.865 185.79 230.901 185.116C229.937 184.44 227.278 181.322 224.992 178.186C222.705 175.049 217.66 168.892 213.78 164.501C197.827 146.451 192.458 140.104 192.458 139.29C192.458 138.817 190.827 136.655 188.833 134.486C177.931 122.627 177.772 122.036 183.096 113.06C185.321 109.309 188.231 103.883 189.562 101.002C192.115 95.4772 193.635 94.5422 195.012 97.6509ZM184.18 138.008C188.042 142.576 192.664 148.233 194.453 150.578C196.24 152.924 200.199 157.483 203.251 160.709C208.408 166.161 214.522 173.544 219.103 179.849C220.161 181.306 223.769 185.513 227.119 189.201C233.069 195.748 240.199 203.852 254.329 220.129C262.691 229.759 262.958 232.045 254.862 224.683C251.648 221.759 247.324 218.081 245.25 216.507C241.425 213.603 236.609 209.309 221.149 195.018C216.419 190.645 211.437 186.392 210.077 185.565C208.718 184.739 203.678 180.504 198.878 176.157C194.079 171.808 187.183 165.865 183.554 162.949C179.924 160.032 174.994 156.072 172.597 154.15C167.963 150.433 167.274 148.516 169.452 145.407C170.165 144.389 170.886 142.455 171.057 141.107C171.227 139.76 171.776 137.893 172.276 136.959C172.776 136.025 173.185 134.695 173.185 134.003C173.185 126.669 175.219 127.411 184.18 138.008ZM175.254 163.642C178.363 166.177 183.527 170.6 186.729 173.47C189.93 176.34 194.32 180.104 196.485 181.834C198.649 183.565 203.67 187.816 207.644 191.281C211.617 194.745 218.203 200.409 222.277 203.866C232.975 212.942 236.872 216.55 236.872 217.38C236.872 219.025 234.043 217.878 227.88 213.733C221.52 209.454 218.364 207.684 202.934 199.729C198.785 197.591 193.341 194.389 190.835 192.614C188.328 190.838 183.085 187.716 179.184 185.676C165.532 178.535 162.866 176.479 163.453 173.543C163.736 172.13 163.967 168.409 163.967 165.274C163.967 161.141 164.339 159.2 165.322 158.217C166.87 156.669 166.358 156.39 175.254 163.642ZM155.587 167.064C155.587 169.106 153.629 168.818 153.221 166.716C153.061 165.888 153.488 165.319 154.269 165.319C155.046 165.319 155.587 166.035 155.587 167.064ZM153.469 172.651C153.126 173.457 152.402 175.336 151.858 176.825C151.314 178.315 150.612 179.792 150.296 180.107C149.979 180.423 149.721 181.366 149.721 182.201C149.721 183.038 148.542 186.274 147.101 189.394C142.954 198.375 139.743 206.963 138.034 213.662C137.658 215.132 136.552 217.627 135.575 219.207C134.599 220.788 133.799 223.001 133.799 224.126C133.799 225.251 133.246 226.903 132.57 227.798C131.892 228.692 131.326 230.39 131.312 231.568C131.297 232.748 130.731 234.446 130.055 235.34C129.378 236.234 128.8 237.72 128.771 238.643C128.742 239.564 128.165 241.05 127.488 241.945C126.811 242.84 126.257 244.635 126.257 245.936C126.257 247.237 125.919 248.957 125.505 249.757C123.806 253.044 122.095 258.187 121.251 262.539C120.757 265.081 119.797 268.235 119.116 269.548C118.434 270.861 117.878 273.247 117.878 274.851C117.878 276.456 117.312 278.865 116.621 280.203C115.93 281.542 114.798 283.732 114.106 285.071C113.415 286.409 112.838 288.201 112.823 289.051C112.809 289.901 112.243 291.33 111.565 292.224C110.889 293.119 110.336 294.679 110.336 295.689C110.336 296.701 109.772 298.61 109.084 299.93C108.396 301.25 107.83 302.967 107.827 303.746C107.824 304.525 107.445 305.397 106.983 305.682C106.523 305.966 106.145 307.181 106.145 308.383C106.145 309.583 105.519 311.988 104.751 313.726L103.356 316.888L89.0393 317.152C70.804 317.49 70.3376 317.33 74.6184 312.24C77.2934 309.06 79.02 305.962 88.7852 286.826C93.372 277.839 97.7826 269.543 98.5866 268.391C99.3917 267.238 103.167 260.262 106.975 252.889C110.784 245.514 114.393 238.538 114.995 237.385C116.895 233.748 122.068 222.454 122.068 221.941C122.068 221.67 123.23 219.85 124.651 217.895C126.072 215.94 127.76 213.209 128.404 211.827C129.048 210.443 131.263 206.673 133.327 203.447C135.391 200.221 137.096 197.328 137.116 197.019C137.135 196.709 138.943 193.309 141.132 189.462C143.321 185.616 146.386 179.929 147.943 176.826C150.564 171.605 155.491 167.882 153.469 172.651ZM178.213 191.965C182.743 194.871 187.099 197.258 202.095 205.054C211.038 209.704 213.67 211.876 211.411 212.744C210.603 213.053 209.517 212.879 208.994 212.357C208.473 211.835 207.084 211.408 205.908 211.407C204.733 211.407 201.132 210.093 197.906 208.488C194.68 206.883 190.861 205.563 189.419 205.556C187.978 205.548 186.328 204.976 185.754 204.285C185.166 203.576 183.339 203.028 181.565 203.028C179.834 203.028 177.988 202.51 177.462 201.876C176.937 201.243 174.649 200.546 172.379 200.327C165.904 199.705 163.967 197.994 163.967 192.897C163.967 190.573 163.573 187.934 163.09 187.033C160.771 182.7 166.871 184.69 178.213 191.965ZM156.425 185.066C156.425 186.383 154.563 188.766 153.869 188.337C152.339 187.391 152.997 184.592 154.749 184.592C155.671 184.592 156.425 184.805 156.425 185.066ZM153.882 196.533C153.865 198.492 153.313 201.037 152.654 202.19C151.995 203.342 151.443 206.284 151.427 208.726C151.41 211.168 150.896 214.186 150.284 215.43C149.671 216.674 149.098 219.926 149.008 222.658C148.918 225.388 148.383 228.181 147.817 228.863C147.191 229.616 146.901 231.871 147.077 234.608C147.276 237.724 146.953 239.743 146.03 241.153C145.161 242.478 144.694 245.054 144.694 248.509C144.694 251.886 144.244 254.418 143.463 255.452C142.663 256.508 142.223 259.113 142.206 262.884C142.191 266.078 141.835 269.849 141.413 271.264C139.552 277.523 138.641 281.75 138.06 286.826C137.716 289.822 136.995 293.097 136.455 294.104C135.916 295.11 135.475 298.852 135.475 302.418C135.475 310.945 134.605 311.967 127.35 311.967C123.391 311.967 121.409 312.389 119.73 313.594C116.424 315.962 110.701 316.254 110.918 314.044C111.364 309.507 112.523 306.028 115.885 299.119C116.52 297.815 117.04 295.721 117.04 294.469C117.04 293.215 117.43 291.799 117.908 291.321C118.386 290.843 118.974 289.354 119.216 288.011C119.456 286.668 120.008 285.212 120.442 284.774C120.875 284.335 121.229 283.286 121.229 282.443C121.229 280.422 124.275 271.44 126.317 267.437C127.206 265.694 127.933 263.618 127.933 262.826C127.933 261.502 132.181 249.818 133.903 246.405C134.307 245.604 134.65 244.097 134.664 243.053C134.679 242.01 135.245 240.425 135.921 239.529C136.597 238.635 137.152 237.079 137.152 236.07C137.152 235.063 137.718 233.769 138.409 233.196C139.1 232.622 139.665 231.028 139.665 229.653C139.665 228.278 140.608 225.277 141.76 222.983C142.913 220.689 143.856 218.12 143.856 217.273C143.856 216.426 144.392 214.666 145.049 213.361C145.705 212.056 146.687 209.292 147.23 207.217C147.773 205.144 148.744 202.445 149.388 201.223C150.032 200 150.559 198.239 150.559 197.311C150.559 194.738 151.449 192.972 152.744 192.972C153.563 192.972 153.902 194.034 153.882 196.533ZM173.235 206.888C176.204 208.089 179.952 209.391 181.565 209.782C192.2 212.356 194.851 213.7 192.352 215.245C190.793 216.208 183.288 215.665 179.231 214.296C177.256 213.629 173.574 213.084 171.047 213.084C166.646 213.084 166.397 212.964 165.091 210.227C162.335 204.447 164.755 203.455 173.235 206.888ZM160.196 257.069C160.196 295.561 160.033 301.385 158.94 301.915C156.66 303.021 151.839 304.578 150.559 304.623C149.868 304.646 148.252 305.401 146.968 306.299C145.684 307.198 144.082 307.721 143.406 307.462C142.006 306.925 141.765 304.779 143.017 304.006C143.479 303.72 143.856 300.728 143.856 297.354C143.856 293.798 144.383 289.958 145.113 288.213C145.804 286.559 146.369 283.141 146.369 280.618C146.369 278.096 146.747 275.799 147.207 275.514C147.668 275.229 148.059 272.285 148.074 268.969C148.093 265.335 148.579 262.113 149.302 260.849C150.007 259.617 150.523 256.337 150.556 252.889C150.593 249.105 151.049 246.444 151.843 245.395C152.682 244.286 153.081 241.622 153.099 237.016C153.117 232.41 153.517 229.745 154.357 228.636C155.131 227.613 155.587 225.086 155.587 221.825C155.587 218.962 156.189 215.2 156.932 213.422C159.876 206.375 160.196 210.651 160.196 257.069ZM185.546 220.335C192.987 220.916 193.852 221.538 189.987 223.536C187.391 224.879 170.682 225.441 170.659 224.187C170.653 223.841 170.421 222.71 170.142 221.673C169.564 219.513 172.124 219.291 185.546 220.335ZM229.33 226.768C229.33 228.937 219.977 239.91 219.456 238.35C219.071 237.195 224.253 227.297 225.978 225.892C227.956 224.282 229.33 224.641 229.33 226.768ZM242.948 229.682C245.16 231.582 244.737 232.35 238.464 237.804C235.283 240.569 228.517 246.697 223.428 251.422C218.337 256.146 213.624 260.012 212.952 260.012C210.965 260.012 211.553 257.982 214.304 255.349C215.719 253.995 218.445 250.814 220.362 248.279C222.279 245.744 225.787 241.408 228.156 238.643C230.525 235.877 233.073 232.415 233.821 230.951C235.69 227.282 239.532 226.748 242.948 229.682ZM179.888 232.46C179.888 232.865 178.947 233.196 177.794 233.196C175.615 233.196 174.83 231.134 176.747 230.445C177.902 230.029 179.888 231.304 179.888 232.46ZM257.254 235.925C264.773 239.407 263.588 241.304 249.442 248.428C248.29 249.009 243.156 252.041 238.034 255.166C232.912 258.292 228.351 260.849 227.898 260.849C227.446 260.849 226.383 261.615 225.535 262.551C224.688 263.488 221.895 265.444 219.33 266.899C216.764 268.354 213.633 270.295 212.372 271.212C208.972 273.684 208.563 272.21 211.837 269.287C213.393 267.897 218.814 262.845 223.883 258.059C244.877 238.242 250.961 232.906 251.956 233.439C252.186 233.564 254.571 234.682 257.254 235.925ZM278.288 250.849C284.319 255.7 286.12 258.335 283.409 258.335C282.733 258.335 280.942 258.861 279.429 259.503C277.914 260.146 275.545 261.151 274.162 261.736C272.78 262.321 270.862 262.718 269.901 262.62C268.94 262.522 267.667 263.025 267.074 263.74C266.481 264.455 264.933 265.039 263.635 265.039C262.335 265.039 261.058 265.385 260.796 265.81C260.534 266.233 257.687 267.395 254.47 268.391C251.252 269.387 248.405 270.548 248.143 270.973C247.881 271.396 246.777 271.743 245.69 271.743C244.602 271.743 242.644 272.295 241.34 272.97C237.41 275.002 221.985 280.96 220.654 280.96C219.971 280.96 217.591 281.76 215.363 282.737C213.136 283.713 210.182 284.812 208.799 285.177C205.556 286.034 200.819 287.69 198.965 288.615C197.062 289.564 194.973 289.542 194.973 288.574C194.973 287.702 200.934 283.993 207.123 281.018C209.428 279.91 212.257 278.291 213.408 277.419C215.86 275.565 225.145 269.694 228.852 267.655C232.1 265.869 245.82 257.015 248.604 254.909C249.756 254.037 252.793 252.244 255.353 250.925C257.913 249.606 261.63 247.351 263.614 245.915C267.953 242.772 268.46 242.943 278.288 250.849ZM168.951 248.069C169.431 249.798 169.839 252.155 169.858 253.308C169.877 254.459 170.431 256.345 171.09 257.497C171.749 258.65 172.301 260.647 172.317 261.938C172.334 263.229 172.873 265.303 173.515 266.547C174.157 267.792 174.95 271.826 175.277 275.514C175.604 279.201 176.398 283.053 177.042 284.074C179.212 287.514 178.522 290.621 174.9 293.721C171.328 296.779 167.537 299.057 166.968 298.488C166.661 298.179 166.214 258.205 166.409 248.488C166.498 244.085 167.786 243.873 168.951 248.069ZM187.43 253.658C187.43 253.851 187.676 254.648 187.977 255.432C188.449 256.66 188.277 256.722 186.72 255.889C184.641 254.777 184.331 253.308 186.173 253.308C186.866 253.308 187.43 253.465 187.43 253.658ZM181.571 261.058C182.654 263.478 184.987 268.633 186.754 272.513C190.117 279.891 190.224 282.17 187.256 283.111C184.726 283.914 182.712 280.846 182.141 275.32C181.885 272.828 181.307 270.344 180.856 269.799C180.407 269.255 179.774 267.392 179.45 265.659C179.126 263.924 178.526 262.299 178.118 262.048C177.251 261.511 177.117 258.033 177.934 257.218C179.044 256.108 179.635 256.732 181.571 261.058ZM194.409 262.509C198.401 267.821 198.639 269.603 195.707 272.255C193.692 274.079 193.061 273.421 191.21 267.553C190.409 265.018 189.217 262.085 188.558 261.035C187.9 259.984 187.587 258.759 187.864 258.311C188.962 256.535 190.808 257.719 194.409 262.509ZM297.724 271.534C305.451 279.618 305.694 280.337 300.91 280.99C299.104 281.237 297.133 281.744 296.531 282.117C295.348 282.849 288.881 284.049 280.866 285.021C278.101 285.356 275.015 286.089 274.009 286.648C273.001 287.207 269.778 287.664 266.844 287.664C263.866 287.664 261.073 288.101 260.522 288.652C259.978 289.194 256.314 289.809 252.377 290.015C248.44 290.222 245.017 290.72 244.767 291.123C244.519 291.525 241.792 291.867 238.708 291.881C235.111 291.899 232.518 292.349 231.474 293.139C230.513 293.866 228.006 294.368 225.344 294.368C222.866 294.368 220.157 294.734 219.324 295.18C218.49 295.626 215.215 296.368 212.047 296.828C204.257 297.958 195.307 299.768 191.019 301.079C188.144 301.958 187.243 301.959 186.19 301.086C184.634 299.795 185.92 297.721 188.276 297.721C189.088 297.721 190.834 297.157 192.154 296.469C193.474 295.78 195.15 295.214 195.88 295.212C196.61 295.208 197.465 294.948 197.781 294.633C198.611 293.801 204.357 291.882 206.056 291.867C206.851 291.86 208.71 291.12 210.187 290.222C211.663 289.324 213.18 288.78 213.557 289.014C213.935 289.247 215.082 288.85 216.107 288.132C217.132 287.414 218.808 286.826 219.83 286.826C220.853 286.826 221.922 286.449 222.207 285.989C222.493 285.528 223.552 285.149 224.561 285.145C225.571 285.143 227.477 284.577 228.797 283.888C230.118 283.2 232.214 282.637 233.456 282.637C234.698 282.637 236.446 282.083 237.34 281.406C238.235 280.73 239.958 280.164 241.169 280.15C242.38 280.135 243.84 279.557 244.414 278.866C244.987 278.175 246.201 277.609 247.111 277.609C248.02 277.609 249.765 277.095 250.989 276.468C252.212 275.841 254.532 274.859 256.146 274.288C257.758 273.717 263.153 271.779 268.132 269.981C273.112 268.185 278.062 266.714 279.133 266.714C280.204 266.714 281.549 266.15 282.123 265.458C285.195 261.757 290.267 263.732 297.724 271.534ZM312.231 287.358C313.186 288.573 313.967 290.046 313.967 290.632C313.967 291.217 315.192 293.192 316.691 295.02C318.188 296.847 320.545 300.152 321.928 302.362C323.31 304.573 325.461 308.004 326.707 309.987C327.953 311.97 328.632 313.802 328.217 314.059C327.801 314.315 294.162 314.728 253.465 314.973C212.768 315.218 176.011 315.759 171.783 316.173C158.374 317.489 138.828 317.999 138.828 317.033C138.828 316.551 139.51 316.156 140.343 316.156C141.177 316.156 142.591 315.603 143.485 314.926C144.38 314.249 146.315 313.683 147.787 313.668C149.257 313.655 150.694 313.264 150.98 312.802C151.327 312.24 152.02 312.24 153.069 312.802C155.363 314.03 160.782 313.78 162.66 312.359C163.556 311.682 165.89 311.129 167.849 311.129C169.807 311.129 171.643 310.752 171.928 310.29C172.213 309.829 174.158 309.452 176.25 309.452C178.342 309.452 181.243 308.908 182.695 308.242C184.148 307.575 187.787 306.845 190.783 306.617C199.439 305.957 206.136 304.854 208.116 303.76C209.123 303.204 212.376 302.748 215.346 302.748C218.316 302.748 222.1 302.182 223.754 301.491C225.408 300.8 228.377 300.222 230.351 300.207C232.325 300.193 234.671 299.628 235.565 298.951C236.516 298.232 239.021 297.721 241.592 297.721C244.012 297.721 246.224 297.344 246.509 296.883C246.794 296.421 249.173 296.042 251.796 296.04C254.418 296.036 257.645 295.47 258.965 294.783C260.286 294.094 263.35 293.53 265.776 293.53C268.496 293.53 270.553 293.089 271.143 292.379C271.795 291.592 273.252 291.356 275.737 291.636C278.362 291.932 280.016 291.627 281.672 290.542C283.907 289.078 285.677 288.695 300.559 286.459C310.62 284.949 310.315 284.925 312.231 287.358Z" fill="#0000FF"/>
</svg>
