<svg width="400" height="400" viewBox="0 0 400 400" fill="none" xmlns="http://www.w3.org/2000/svg">
<path fill-rule="evenodd" clip-rule="evenodd" d="M198.249 71.7841C196.114 75.7746 197.033 82.0433 199.854 82.7191C206.699 84.3607 211.316 89.3926 211.316 95.2125C211.316 97.0785 212.214 99.3102 213.655 101.022C214.942 102.552 215.994 104.739 215.994 105.885C215.994 107.913 220.544 113.091 224.205 115.23C225.203 115.813 227.754 117.448 229.876 118.863C232.291 120.473 234.989 121.436 237.086 121.436C240.564 121.436 249.482 123.915 251.035 125.314C253.22 127.281 269.062 126.202 273.628 123.775C276.047 122.489 278.661 121.436 279.435 121.436C285.423 121.436 300.837 108.773 306.738 99.0063C308.854 95.5051 311.407 91.8979 312.412 90.9876C315.032 88.616 314.797 84.4099 311.96 82.8906C296.812 74.7785 295.368 74.51 266.988 74.51C246.857 74.51 237.096 75.2173 233.304 76.9497C224.441 80.9981 218.701 80.8884 213.655 76.5702C210.633 73.983 204.689 70.8473 203.823 71.3819C203.384 71.6542 202.76 71.4487 202.436 70.9255C201.484 69.3848 199.293 69.8336 198.249 71.7841ZM284.114 81.7521C291.978 84.0518 300.168 93.4146 296.37 95.7623C295.906 96.0485 295.526 97.3206 295.526 98.589C295.526 101.127 288.658 109.273 286.518 109.273C285.811 109.273 285.231 109.588 285.227 109.974C285.217 111.231 279.533 113.951 276.916 113.951C275.511 113.951 273.546 114.569 272.547 115.325C269.891 117.334 243.798 117.34 239.949 115.331C238.456 114.553 237.042 114.112 236.805 114.349C236.077 115.077 228.851 110.21 224.649 106.163C218.122 99.8763 220.744 87.7523 228.631 87.7523C229.717 87.7523 231.392 87.1786 232.35 86.4776C233.308 85.7779 234.786 85.3858 235.634 85.6077C236.483 85.8296 237.726 85.3505 238.396 84.5423C239.322 83.4265 241.457 83.0734 247.274 83.0734C251.924 83.0734 255.564 82.6145 256.536 81.9047C258.242 80.6577 279.963 80.5379 284.114 81.7521Z" fill="#FF0000"/>
<path fill-rule="evenodd" clip-rule="evenodd" d="M186.891 75.1997C179.717 80.9528 175.758 81.4079 165.468 77.6646C164.696 77.3834 163.854 77.0808 163.597 76.9925C163.339 76.903 162.497 76.5777 161.726 76.2676C155.661 73.838 106.971 73.838 100.906 76.2676C100.135 76.5777 99.2232 76.8665 98.879 76.9106C98.5361 76.956 97.9397 77.3077 97.5539 77.6936C97.1681 78.0794 96.2439 78.3958 95.5013 78.3958C92.3291 78.3958 85 84.2687 85 86.8105C85 89.5175 92.2862 99.7817 100.074 108.046L104.65 112.903V121.707C104.65 130.159 104.771 130.678 107.674 134.629L110.7 138.746L110.961 169.156C111.113 186.852 110.832 201.521 110.287 204.243C109.771 206.816 109.138 212.052 108.88 215.879C108.621 219.704 108.043 223.073 107.593 223.364C107.144 223.654 107.403 226.39 108.17 229.443C109.34 234.104 109.377 235.987 108.394 241.191C107.751 244.599 107.444 249.048 107.711 251.078C108.639 258.13 110.403 273.497 110.552 275.822C110.936 281.826 108.005 298.152 105.932 301.552C103.103 306.195 105.42 319.413 109.945 324.446C124.204 340.305 139.676 319.409 130.362 296.875C127.658 290.334 126.935 283.751 127.532 271.143C128.141 258.306 128.358 244.144 128.062 236.523C127.972 234.207 128.19 230.469 128.547 228.216C129.194 224.131 128.237 219.268 125.67 213.599C123.631 209.096 123.193 202.369 122.775 169.08L122.379 137.659L125.221 134.085C129.023 129.301 133.491 126.116 136.41 126.109C137.725 126.106 140.045 125.456 141.563 124.663C143.082 123.871 145.187 123.306 146.242 123.407C147.296 123.508 149.343 123.106 150.792 122.513C152.24 121.922 154.886 121.436 156.67 121.436C158.454 121.436 161.381 120.823 163.175 120.073C164.97 119.324 166.641 118.694 166.89 118.674C174.192 118.081 183.68 106.372 187.518 93.2179C188.53 89.7444 190.154 86.8647 192.236 84.8474C195.644 81.5441 196.769 74.515 194.286 72.0325C192.743 70.4893 192.786 70.4716 186.891 75.1997ZM149.357 82.0976C151.271 82.6284 154.385 83.0659 156.279 83.0684C158.171 83.0709 160.379 83.7328 161.183 84.5372C161.988 85.3416 163.09 85.7262 163.631 85.3921C164.172 85.058 165.122 85.1866 165.743 85.6783C166.364 86.17 168.444 87.079 170.366 87.6981C182.953 91.7516 179.593 105.841 164.226 113.434L157.498 116.757H140.754C118.53 116.757 110.674 113.4 103.244 100.721C98.4516 92.5447 100.534 87.5392 110.818 82.5199C114.959 80.4976 142.512 80.1963 149.357 82.0976ZM124.94 304.055C129.911 308.726 126.139 316.055 118.762 316.055C113.594 316.055 111.531 314.377 111.066 309.798C110.386 303.094 119.78 299.206 124.94 304.055Z" fill="#0000FF"/>
</svg>
