<svg width="400" height="400" viewBox="0 0 400 400" fill="none" xmlns="http://www.w3.org/2000/svg">
<path fill-rule="evenodd" clip-rule="evenodd" d="M195.733 73.5098C191.9 77.4342 191.577 80.4372 194.672 83.3735L196.83 85.42L196.844 103.33L196.859 121.24L193.598 123.502C191.803 124.745 189.762 126.557 189.061 127.529C188.361 128.501 187.422 129.296 186.976 129.296C186.528 129.296 184.881 130.273 183.316 131.469C181.749 132.663 179.855 133.641 179.106 133.641C178.358 133.641 177.745 134.032 177.745 134.509C177.745 134.987 177.293 135.378 176.741 135.378C176.188 135.378 174.455 136.356 172.889 137.55C171.322 138.745 169.693 139.723 169.265 139.723C168.839 139.723 167.572 140.7 166.45 141.895C165.328 143.089 163.892 144.066 163.257 144.066C162.624 144.066 162.106 144.457 162.106 144.935C162.106 145.414 161.688 145.805 161.179 145.805C160.67 145.805 158.971 146.781 157.404 147.977C155.838 149.171 154.146 150.148 153.645 150.148C153.144 150.148 152.509 150.735 152.234 151.452C151.959 152.169 151.074 152.755 150.268 152.755C149.462 152.755 147.593 153.657 146.115 154.76C144.636 155.863 142.057 157.445 140.385 158.275C138.712 159.105 136.171 160.519 134.737 161.418C133.304 162.319 131.434 163.083 130.583 163.118C129.732 163.152 128.809 163.768 128.535 164.485C128.26 165.201 127.318 165.788 126.441 165.788C125.565 165.788 124.606 166.179 124.311 166.656C124.015 167.134 122.868 167.525 121.759 167.525C120.651 167.525 119.258 168.112 118.663 168.829C118.069 169.546 117.037 170.132 116.373 170.132C115.28 170.132 113.848 170.74 109.975 172.85C109.259 173.24 107.303 174.189 105.63 174.959C103.959 175.729 102.003 176.706 101.287 177.131C100.569 177.556 98.7311 178.536 97.2009 179.31C91.9523 181.964 91.6257 206.67 96.7701 211.931C98.2979 213.494 99.5483 215.09 99.5483 215.477C99.5483 215.864 100.067 216.181 100.7 216.181C105.388 216.181 106.992 226.998 104.601 242.493C104.142 245.463 103.421 252 102.999 257.016C101.916 269.881 100.924 275.972 99.7204 277.177C99.1479 277.748 98.6796 279.679 98.6796 281.467C98.6796 283.255 98.2886 284.959 97.8109 285.254C97.3332 285.549 96.9422 286.698 96.9422 287.805C96.9422 288.914 96.3556 290.307 95.6391 290.902C94.9226 291.497 94.3302 292.62 94.3232 293.397C94.3033 295.467 92.183 301.221 91.0064 302.399C90.4479 302.956 89.9913 304.094 89.9913 304.926C89.9913 305.758 89.6003 306.681 89.1226 306.976C87.0222 308.273 88.1122 316.967 90.3741 316.967C91.5414 316.967 92.7215 317.333 92.9978 317.781C93.8045 319.085 98.7733 321.312 100.879 321.312C101.941 321.312 103.298 321.898 103.893 322.615C104.488 323.331 106.077 323.918 107.423 323.918C108.77 323.918 110.115 324.309 110.41 324.787C110.705 325.264 112.389 325.669 114.154 325.687C115.917 325.703 118.338 326.276 119.532 326.96C120.842 327.708 124.183 328.213 127.952 328.231C131.389 328.249 134.442 328.654 134.737 329.131C135.073 329.676 143.951 330 158.494 330H181.714L183.254 327.394C184.101 325.96 185.204 324.787 185.707 324.787C186.209 324.787 186.425 324.282 186.189 323.665C185.951 323.047 186.301 321.8 186.964 320.891C187.628 319.984 188.171 318.4 188.171 317.37C188.171 312.753 212.5 309.74 215.974 313.926C216.569 314.643 217.79 315.23 218.687 315.23C219.706 315.23 220.318 315.844 220.318 316.865C220.318 317.764 221.928 320.11 223.896 322.079L227.474 325.655H249.042C262.482 325.655 270.811 325.329 271.146 324.787C271.441 324.309 273.958 323.918 276.739 323.918C280.173 323.918 282.141 323.5 282.876 322.615C283.532 321.825 285.434 321.312 287.709 321.312C289.773 321.312 291.703 320.921 291.999 320.443C292.294 319.965 293.752 319.574 295.239 319.574C296.726 319.574 298.561 319.057 299.315 318.425C300.07 317.794 302.446 316.746 304.597 316.098C310.726 314.252 314.316 308.355 310.678 306.107C310.201 305.812 309.809 304.468 309.809 303.12C309.809 301.774 309.223 300.185 308.506 299.59C307.79 298.996 307.203 297.407 307.203 296.059C307.203 294.713 306.812 293.369 306.335 293.074C305.857 292.779 305.453 291.681 305.438 290.633C305.423 289.586 304.836 287.97 304.135 287.043C303.433 286.116 302.859 284.477 302.859 283.402C302.859 282.326 302.468 281.206 301.99 280.91C301.512 280.615 301.121 278.919 301.121 277.142C301.121 275.366 300.605 273.14 299.975 272.198C299.344 271.255 298.78 268.837 298.719 266.823C298.659 264.809 298.252 262.463 297.816 261.609C297.379 260.756 296.961 249.566 296.887 236.742L296.751 213.426L299.707 210.677C305.014 205.741 307.203 199.522 307.203 189.385V182.26L301.187 178.369C297.877 176.227 294.601 174.476 293.908 174.476C293.214 174.476 292.159 173.889 291.564 173.173C290.969 172.456 289.748 171.87 288.851 171.87C287.954 171.87 287.219 171.479 287.219 171.001C287.219 170.523 286.29 170.132 285.154 170.132C284.017 170.132 282.602 169.546 282.007 168.829C281.411 168.112 280.387 167.525 279.728 167.525C279.07 167.525 278.531 167.134 278.531 166.656C278.531 166.179 277.933 165.788 277.201 165.788C276.469 165.788 275.645 165.201 275.37 164.485C275.095 163.768 274.152 163.181 273.277 163.181C272.4 163.181 271.441 162.79 271.146 162.313C270.851 161.835 269.85 161.444 268.923 161.444C267.995 161.444 267.237 161.071 267.237 160.615C267.237 160.16 265.77 159.107 263.978 158.277C262.186 157.446 259.51 155.863 258.031 154.76C256.552 153.657 254.719 152.755 253.955 152.755C253.192 152.755 252.342 152.389 252.066 151.941C251.429 150.911 246.464 148.411 245.053 148.411C244.469 148.411 243.508 147.829 242.916 147.117C242.326 146.405 241.541 146.011 241.171 146.239C240.801 146.468 240.015 146.072 239.425 145.36C238.835 144.649 237.795 144.066 237.116 144.066C236.437 144.066 234.827 143.089 233.54 141.895C232.251 140.7 230.842 139.723 230.409 139.723C229.976 139.723 227.711 137.935 225.376 135.751C223.041 133.567 219.435 131.03 217.364 130.114C215.292 129.197 213.073 127.816 212.432 127.043C211.791 126.272 210.371 125.299 209.277 124.883C205.856 123.582 206.3 114.525 209.786 114.525C211.161 114.525 212.772 113.939 213.367 113.222C213.963 112.506 215.356 111.919 216.464 111.919C217.571 111.919 218.72 111.528 219.015 111.051C220.005 109.448 222.62 110.161 223.794 112.354C224.433 113.549 225.476 114.525 226.113 114.525C226.749 114.525 227.269 114.916 227.269 115.395C227.269 115.873 228.614 116.264 230.259 116.264C231.903 116.264 233.49 115.873 233.785 115.395C234.08 114.916 234.912 114.525 235.633 114.525C236.353 114.525 238.224 113.549 239.79 112.354C241.357 111.159 243.042 110.182 243.536 110.182C244.03 110.182 244.95 109.56 245.58 108.8C246.527 107.659 246.886 107.621 247.642 108.583C249.217 110.589 254.79 112.131 256.724 111.096C257.664 110.593 259.389 110.182 260.556 110.182C261.724 110.182 263.173 109.586 263.777 108.859C264.381 108.131 265.504 107.722 266.273 107.949C267.041 108.176 270.212 107.959 273.318 107.466C276.424 106.973 280.53 106.495 282.442 106.404C287.396 106.167 287.572 103.642 282.917 99.5618C279.173 96.2789 278.438 93.9175 280.921 93.1483C281.757 92.8895 283.119 92.3159 283.949 91.8721C284.78 91.4296 286.05 91.0666 286.773 91.0666C289.493 91.0666 288.268 87.1364 285.203 86.0288C281.71 84.7656 271.894 84.6438 271.146 85.8544C270.851 86.332 268.56 86.7231 266.055 86.7231C263.551 86.7231 261.069 87.1551 260.54 87.6843C259.837 88.3879 259.203 88.073 258.182 86.5147C254.891 81.4921 247.915 81.1479 239.034 85.571C236.564 86.8004 234.22 85.6799 234.22 83.2681C234.22 78.7185 222.082 79.6528 211.577 85.0126C207.623 87.0287 206.583 86.1857 209.527 83.3513C212.539 80.4524 212.446 75.232 209.332 72.3448C205.531 68.8243 199.831 69.3125 195.733 73.5098ZM205.113 77.1649C205.113 78.8262 200.348 79.462 199.401 77.9282C198.311 76.1651 199.402 75.3081 202.371 75.5961C204.111 75.7647 205.113 76.3383 205.113 77.1649ZM228.614 96.2801C230.456 96.2801 230.745 96.6781 230.745 99.2199C230.745 102.266 229.42 103.19 225.009 103.219C224.005 103.225 221.346 104.209 219.098 105.403C213.103 108.591 211.111 108.341 210.438 104.317C209.79 100.446 208.256 97.877 207.581 99.5383C206.546 102.089 205.548 100.276 205.548 95.8457V91.0666H208.972C210.856 91.0666 212.632 90.6861 212.919 90.2213C213.827 88.7509 218.884 86.8086 222.491 86.5428L225.966 86.2887L226.225 91.2844C226.466 95.9382 226.63 96.2801 228.614 96.2801ZM253.326 88.4429C254.17 90.02 254.028 90.1195 251.619 89.6371C249.038 89.122 248.99 89.177 248.99 92.6448C248.99 96.6863 250.451 98.1545 252.154 95.8247C253.666 93.7559 254.896 94.9735 253.519 97.1769C252.939 98.1042 252.466 99.4552 252.466 100.178C252.466 101.054 251.613 101.494 249.91 101.494C248.506 101.494 247.114 101.885 246.818 102.362C246.523 102.84 245.583 103.231 244.73 103.231C243.876 103.231 242.433 104.058 241.523 105.068C240.612 106.078 239.086 107.251 238.13 107.673C237.174 108.094 235.718 108.921 234.895 109.509C232.357 111.321 231.232 109.163 233.326 106.501C234.745 104.697 235.088 102.976 235.088 97.6639C235.088 91.3523 235.175 91.0666 237.095 91.0666C238.198 91.0666 239.859 90.493 240.788 89.7917C241.715 89.0892 243.331 88.5038 244.377 88.4886C245.425 88.4734 246.523 88.0695 246.818 87.5918C247.795 86.0124 252.343 86.6072 253.326 88.4429ZM276.584 91.0947C275.982 92.0653 274.318 93.1647 272.885 93.5381C270.221 94.2336 268.679 97.1488 270.976 97.1488C271.669 97.1488 272.723 97.7354 273.318 98.4519C273.912 99.1695 275.166 99.7549 276.103 99.7549C279.071 99.7549 277.239 101.919 274.114 102.105C265.828 102.6 260.226 103.559 259.332 104.637C258.345 105.825 255.783 106.259 254.91 105.385C254.66 105.136 255.318 102.374 256.37 99.2468C258.713 92.2831 260.594 91.0666 269.022 91.0666C272.284 91.0666 275.194 90.6756 275.491 90.1979C275.786 89.7203 276.398 89.3292 276.852 89.3292C277.305 89.3292 277.185 90.123 276.584 91.0947ZM202.941 117.184C202.941 120.046 202.554 122.345 202.073 122.345C201.582 122.345 201.204 119.866 201.204 116.647C201.204 113.069 201.527 111.148 202.073 111.485C202.55 111.78 202.941 114.345 202.941 117.184ZM204.068 127.151C204.927 128.331 205.379 129.296 205.075 129.296C203.959 129.296 200.41 126.035 200.944 125.501C201.85 124.595 202.43 124.901 204.068 127.151ZM218.543 139.498C220.236 141.047 222.057 142.317 222.589 142.322C223.121 142.325 225.385 144.284 227.62 146.674C229.854 149.062 231.889 151.017 232.142 151.017C232.946 151.017 239.511 156.515 244.307 161.206C246.861 163.705 250.482 166.857 252.353 168.212C256.954 171.545 270.23 183.936 269.734 184.432C269.077 185.089 259.196 187.509 257.172 187.509C255.433 187.509 247.392 179.47 246.463 176.802C246.266 176.239 244.116 173.412 241.683 170.518C234.461 161.923 231.224 157.847 230.429 156.344C230.017 155.566 227.397 152.581 224.608 149.714C218.31 143.241 212.825 136.758 211.519 134.246C210.43 132.154 210.891 132.498 218.543 139.498ZM202.941 135.212C202.941 136.077 203.474 137.512 204.125 138.402C204.775 139.292 205.121 140.73 204.894 141.598C204.65 142.537 205.05 143.394 205.884 143.715C206.786 144.06 207.286 145.285 207.286 147.149C207.286 148.742 207.677 150.288 208.155 150.583C208.633 150.878 209.024 152.222 209.024 153.569C209.024 154.916 209.61 156.505 210.327 157.099C211.043 157.694 211.63 159.283 211.63 160.63C211.63 161.977 212.021 163.321 212.498 163.616C212.976 163.911 213.367 165.059 213.367 166.167C213.367 167.276 213.954 168.669 214.671 169.264C215.388 169.858 215.974 171.056 215.974 171.925C215.974 172.794 216.366 173.747 216.843 174.042C217.321 174.338 217.712 175.491 217.712 176.607C217.712 177.722 218.298 178.859 219.015 179.134C219.732 179.41 220.318 180.351 220.318 181.227C220.318 182.101 220.743 183.241 221.261 183.76C221.779 184.278 222.072 185.626 221.913 186.757C221.491 189.735 199.753 190.051 200.107 187.075C200.221 186.119 200.577 173.706 200.897 159.489C201.219 145.272 201.811 133.641 202.212 133.641C202.614 133.641 202.941 134.348 202.941 135.212ZM192.516 138.477C192.516 138.747 191.538 140.251 190.343 141.817C189.149 143.384 188.171 145.264 188.171 145.997C188.171 146.73 187.584 147.816 186.868 148.411C186.151 149.006 185.565 150 185.565 150.619C185.565 152.088 182.714 157.086 181.872 157.093C181.514 157.097 181.22 157.747 181.22 158.538C181.22 159.328 180.204 161.309 178.961 162.939C177.717 164.569 176.919 166.12 177.186 166.387C177.451 166.653 176.756 168.094 175.638 169.588C174.52 171.082 172.918 173.673 172.079 175.345C171.239 177.018 170.189 178.62 169.747 178.907C169.303 179.194 168.837 179.976 168.708 180.645C167.616 186.36 165.078 187.726 156.091 187.43C148.312 187.175 145.573 185.855 149.942 184.468C150.897 184.165 151.68 183.455 151.682 182.889C151.684 182.324 154.225 179.196 157.327 175.939C160.431 172.681 164.154 168.298 165.599 166.196C167.044 164.096 168.72 162.069 169.323 161.693C169.927 161.316 172.7 158.272 175.488 154.928C185.052 143.45 192.516 136.24 192.516 138.477ZM170.794 147.408C170.794 148.569 167.674 151.084 167.032 150.44C166.712 150.12 167.135 149.166 167.971 148.319C169.632 146.634 170.794 146.258 170.794 147.408ZM197.728 149.787C197.728 151.32 195.858 151.053 195.321 149.442C195.132 148.875 195.596 148.411 196.352 148.411C197.11 148.411 197.728 149.03 197.728 149.787ZM217.712 149.28C217.712 149.757 216.343 150.148 214.671 150.148C212.998 150.148 211.63 149.757 211.63 149.28C211.63 148.802 212.998 148.411 214.671 148.411C216.343 148.411 217.712 148.802 217.712 149.28ZM165.581 151.886C165.581 152.365 165.023 152.755 164.341 152.755C163.659 152.755 162.332 153.732 161.392 154.928C160.452 156.122 159.215 157.099 158.643 157.099C158.072 157.099 156.004 158.468 154.05 160.14C152.097 161.813 150.177 163.181 149.785 163.181C149.394 163.181 147.509 164.746 145.597 166.656C143.686 168.568 141.604 170.132 140.97 170.132C140.337 170.132 138.93 171.078 137.843 172.234C136.758 173.391 134.735 174.806 133.348 175.381C131.961 175.955 130.828 176.76 130.828 177.171C130.828 177.581 129.361 178.7 127.57 179.659C121.384 182.966 118.113 186.429 119.332 188.38C120.931 190.94 120.752 204.41 119.098 206.066C118.381 206.782 117.795 207.855 117.795 208.448C117.795 212.403 109.345 214.221 103.945 211.429C101.417 210.122 99.2603 205.78 100.079 203.646C100.33 202.991 100.118 202.197 99.608 201.881C98.4349 201.157 98.3928 197.347 99.5483 196.632C100.027 196.337 100.417 194.772 100.417 193.157C100.417 191.54 100.027 189.977 99.5483 189.681C97.6446 188.504 98.8646 187.509 102.213 187.509C108.568 187.509 110.769 184.953 105.981 183.133C103.274 182.103 103.294 180.558 106.013 180.558C107.181 180.558 108.376 180.167 108.672 179.689C108.967 179.212 109.839 178.821 110.61 178.821C111.38 178.821 112.627 178.315 113.382 177.697C114.136 177.08 116.317 176.054 118.229 175.418C120.14 174.783 122.389 173.663 123.225 172.932C124.061 172.2 124.746 171.85 124.746 172.155C124.746 172.87 131.545 169.341 132.195 168.291C132.465 167.854 133.022 167.705 133.434 167.961C133.846 168.215 135.633 167.44 137.405 166.237C139.178 165.034 141.117 164.05 141.716 164.05C142.315 164.05 143.031 163.464 143.305 162.747C143.58 162.031 144.6 161.444 145.57 161.444C146.541 161.444 147.336 161.053 147.336 160.575C147.336 160.096 148.129 159.705 149.1 159.705C150.071 159.705 151.09 159.119 151.365 158.402C151.641 157.686 152.35 157.099 152.942 157.099C154.586 157.099 158.938 154.748 160.841 152.833C162.644 151.016 165.581 150.431 165.581 151.886ZM193.823 157.105C196.2 159.731 194.807 160.106 191.964 157.606C190.188 156.044 189.872 155.409 190.86 155.389C191.622 155.374 192.956 156.146 193.823 157.105ZM195.895 164.05C196.425 164.05 196.859 164.441 196.859 164.919C196.859 165.397 195.882 165.788 194.688 165.788C193.336 165.788 192.516 165.296 192.516 164.485C192.516 163.768 192.052 163.181 191.485 163.181C190.011 163.181 186.434 159.632 186.434 158.171C186.434 157.422 188.105 158.337 190.681 160.493C193.017 162.45 195.363 164.05 195.895 164.05ZM162.336 160.225C163.119 161.009 162.041 163.244 161.146 162.691C160.718 162.426 160.368 161.647 160.368 160.958C160.368 159.679 161.404 159.293 162.336 160.225ZM221.361 160.749C220.55 161.56 220.086 161.56 219.276 160.749C218.465 159.937 218.697 159.705 220.318 159.705C221.941 159.705 222.173 159.937 221.361 160.749ZM228.138 162.254C228.138 162.699 228.96 163.324 229.963 163.644C231.35 164.084 231.545 164.463 230.773 165.222C230.006 165.978 229.484 165.851 228.635 164.702C228.017 163.865 226.675 163.181 225.653 163.181C224.63 163.181 223.794 162.79 223.794 162.313C223.794 161.835 224.772 161.444 225.966 161.444C227.161 161.444 228.138 161.808 228.138 162.254ZM256.81 162.313C256.81 162.79 255.832 163.181 254.638 163.181C253.443 163.181 252.466 162.79 252.466 162.313C252.466 161.835 253.443 161.444 254.638 161.444C255.832 161.444 256.81 161.835 256.81 162.313ZM189.69 166.107C191.482 167.716 193.852 169.313 194.952 169.656C196.934 170.273 197.184 171.907 195.386 172.506C194.874 172.676 192.162 170.653 189.358 168.011C183.916 162.882 184.21 161.191 189.69 166.107ZM220.752 164.919C221.049 165.397 222 165.788 222.87 165.788C223.739 165.788 224.896 166.326 225.441 166.983C225.987 167.64 228.283 168.677 230.544 169.287C235.003 170.491 237.95 172.493 237.154 173.78C236.877 174.228 235.983 173.982 235.152 173.23C234.325 172.482 232.628 171.87 231.379 171.87C230.13 171.87 228.868 171.479 228.572 171.001C228.277 170.523 226.963 170.132 225.654 170.132C224.344 170.132 222.836 169.696 222.303 169.163C221.77 168.629 220.452 167.75 219.374 167.208C216.765 165.895 216.23 164.05 218.457 164.05C219.425 164.05 220.457 164.441 220.752 164.919ZM160.368 166.222C160.368 166.94 159.781 167.525 159.064 167.525C158.348 167.525 157.761 166.94 157.761 166.222C157.761 165.505 158.348 164.919 159.064 164.919C159.781 164.919 160.368 165.505 160.368 166.222ZM155.645 167.922C157.006 170.001 156.751 171.87 155.104 171.87C154.654 171.87 154.287 171.111 154.287 170.184C154.287 169.255 153.896 168.256 153.418 167.959C152.939 167.664 152.548 167.056 152.548 166.606C152.548 165.065 154.246 165.788 155.645 167.922ZM189.908 172.546C192.059 174.407 194.503 176.176 195.34 176.478C196.176 176.781 196.859 177.432 196.859 177.925C196.859 179.325 193.389 178.975 192.83 177.518C192.554 176.801 191.882 176.211 191.337 176.206C190.79 176.203 188.903 174.834 187.143 173.166C185.383 171.497 183.525 170.132 183.016 170.132C182.507 170.132 182.089 169.065 182.089 167.762V165.39L184.044 167.278C185.119 168.316 187.759 170.687 189.908 172.546ZM151.906 171.245C152.137 172.305 152.637 173.955 153.019 174.91C153.702 176.625 153.686 176.627 151.827 174.993C150.791 174.083 149.942 172.649 149.942 171.808C149.942 170.966 149.482 170.123 148.92 169.936C148.347 169.745 148.19 169.121 148.563 168.518C149.445 167.09 151.339 168.633 151.906 171.245ZM264.629 169.364C264.629 170.352 261.403 170.369 260.795 169.384C260.541 168.973 260.54 168.429 260.794 168.176C261.475 167.495 264.629 168.472 264.629 169.364ZM147.336 174.2C147.336 175.304 147.093 175.357 146.042 174.484C145.33 173.894 144.966 173.058 145.233 172.626C145.918 171.517 147.336 172.578 147.336 174.2ZM183.672 174.751C185.208 176.335 186.221 177.875 185.923 178.172C185.626 178.469 184.498 177.76 183.419 176.595C182.339 175.43 181.012 174.476 180.469 174.476C179.926 174.476 179.483 173.889 179.483 173.173C179.483 171.172 180.617 171.599 183.672 174.751ZM223.295 172.634C223.839 173.515 231.708 176.215 233.732 176.215C234.479 176.215 235.088 176.587 235.088 177.043C235.088 177.5 236.555 178.13 238.347 178.445C242.13 179.107 245.779 181.166 245.104 182.257C244.52 183.203 242.578 182.944 241.041 181.716C240.396 181.198 238.694 180.556 237.261 180.285C231.372 179.177 229.407 178.508 228.746 177.391C228.365 176.744 227.093 176.215 225.923 176.215C224.752 176.215 223.794 175.823 223.794 175.345C223.794 174.867 223.012 174.476 222.057 174.476C221.091 174.476 220.318 173.898 220.318 173.173C220.318 171.771 222.516 171.373 223.295 172.634ZM143.732 176.72C143.901 177.637 144.624 179.045 145.338 179.852C146.554 181.224 146.277 183.165 144.865 183.165C143.814 183.165 141.254 178.245 141.254 176.225C141.254 173.92 143.292 174.327 143.732 176.72ZM181.59 179.473C181.835 180.07 181.659 180.558 181.2 180.558C179.855 180.558 176.023 176.891 176.523 176.082C177.044 175.238 180.919 177.831 181.59 179.473ZM149.286 177.3C149.848 178.828 149.082 180.667 148.129 180.078C147.106 179.446 147.091 176.215 148.111 176.215C148.538 176.215 149.067 176.703 149.286 177.3ZM192.35 181.399C196.191 185.07 194.325 185.458 190.253 181.835C188.08 179.9 187.366 178.822 188.26 178.822C189.024 178.821 190.865 179.981 192.35 181.399ZM178.396 182.247C180.678 184.15 180.862 184.903 179.048 184.903C178.332 184.903 177.745 184.512 177.745 184.034C177.745 183.555 177.159 183.165 176.442 183.165C175.725 183.165 175.138 182.579 175.138 181.861C175.138 180.152 176.009 180.255 178.396 182.247ZM229.876 181.926C229.876 182.735 229.285 183.177 228.427 183.011C226.248 182.588 225.948 180.558 228.066 180.558C229.133 180.558 229.876 181.119 229.876 181.926ZM142.808 186.243C142.041 187.011 138.65 183.862 139.232 182.922C139.503 182.482 140.537 182.931 141.527 183.922C142.518 184.912 143.095 185.958 142.808 186.243ZM133.434 184.034C133.434 184.512 132.652 184.903 131.697 184.903C130.74 184.903 129.958 184.512 129.958 184.034C129.958 183.555 130.74 183.165 131.697 183.165C132.652 183.165 133.434 183.555 133.434 184.034ZM235.957 184.034C235.957 184.512 234.981 184.903 233.785 184.903C232.591 184.903 231.614 184.512 231.614 184.034C231.614 183.555 232.591 183.165 233.785 183.165C234.981 183.165 235.957 183.555 235.957 184.034ZM129.089 185.678C129.089 186.655 126.83 187.566 126.133 186.87C125.088 185.824 125.659 184.903 127.352 184.903C128.307 184.903 129.089 185.252 129.089 185.678ZM185.347 186.591C187.624 188.491 187.813 189.246 186.009 189.246C184.595 189.246 181.22 186.661 181.22 185.578C181.22 184.39 183.33 184.909 185.347 186.591ZM242.908 185.772C242.908 186.249 241.93 186.64 240.736 186.64C239.542 186.64 238.565 186.249 238.565 185.772C238.565 185.294 239.542 184.903 240.736 184.903C241.93 184.903 242.908 185.294 242.908 185.772ZM300.977 189.296C300.649 191.541 299.506 192.178 297.772 191.08C296.802 190.466 296.864 189.921 298.118 188.008C299.833 185.391 301.443 186.116 300.977 189.296ZM192.879 187.167C194.798 187.905 194.596 189.246 192.566 189.246C190.754 189.246 189.606 188.101 190.511 187.196C191.19 186.516 191.182 186.516 192.879 187.167ZM132.037 191.212C133.351 193.294 131.776 194.326 130.322 192.337C129.644 191.411 129.089 190.304 129.089 189.877C129.089 188.715 131.012 189.585 132.037 191.212ZM137.498 190.767C137.793 191.603 138.946 193.28 140.062 194.491C141.179 195.703 142.354 198.049 142.674 199.705L143.257 202.714L141.319 200.997C140.253 200.054 138.63 197.634 137.713 195.62C136.795 193.606 135.653 191.717 135.174 191.42C133.848 190.601 134.134 189.246 135.633 189.246C136.364 189.246 137.204 189.931 137.498 190.767ZM276.576 190.889C277.318 190.955 277.662 192.695 277.662 196.386C277.662 219.286 257.834 221.409 256.685 198.631L256.354 192.101L259.841 191.293C262.682 190.634 271.318 190.425 276.576 190.889ZM166.266 200.209C166.642 212.86 163.818 217.05 154.915 217.05C149.643 217.05 143.421 209.322 146.341 206.402C146.924 205.819 147.336 202.495 147.336 198.37V191.333L156.675 191.556L166.015 191.781L166.266 200.209ZM181.22 192.805C181.22 193.238 180.829 193.591 180.351 193.591C179.874 193.591 179.483 194.373 179.483 195.329C179.483 197.161 178.218 197.667 177.311 196.197C177.015 195.72 175.611 195.329 174.191 195.329C171.554 195.329 169.702 193.065 171.452 191.982C172.774 191.165 181.22 191.877 181.22 192.805ZM249.751 191.527C252.918 192.162 253.698 198.85 251.168 203.701C250.454 205.069 249.867 206.873 249.865 207.709C249.861 208.547 249.468 209.23 248.99 209.23C248.513 209.23 248.122 208.667 248.122 207.98C248.122 207.167 247.003 206.635 244.93 206.459C240.668 206.098 239.952 204.017 244.091 204.017C249.773 204.017 251.896 198.409 246.601 197.382C243.695 196.819 243.571 196.695 245.451 196.234C248.874 195.392 248.706 193.591 245.204 193.591C243.52 193.591 241.921 193.233 241.651 192.796C240.687 191.235 244.952 190.568 249.751 191.527ZM287.219 191.854C288.284 192.541 288.163 192.722 286.568 192.839C285.493 192.918 284.157 193.022 283.599 193.07C283.042 193.117 282.423 192.667 282.224 192.07C281.791 190.77 285.306 190.617 287.219 191.854ZM195.485 193.249C196.508 193.641 196.859 195 196.859 198.56V203.341L193.608 202.731C189.161 201.898 188.707 201.481 190.315 199.705C191.974 197.871 189.469 195.693 185.119 195.182C183.765 195.024 182.497 194.406 182.301 193.808C181.921 192.652 192.735 192.194 195.485 193.249ZM221.876 200.965C222.26 212.787 219.573 217.05 211.737 217.05C207.512 217.05 206.59 216.716 204.069 214.273L201.204 211.496V202.604C201.204 192.179 200.333 192.864 213.367 193.043L221.622 193.157L221.876 200.965ZM135.601 197.718C136.533 199.511 138.324 201.954 139.583 203.148C140.841 204.343 141.7 205.809 141.49 206.406C140.829 208.289 139.646 207.596 138.154 204.451C137.361 202.779 136.364 201.411 135.942 201.411C135.518 201.411 135.171 200.671 135.171 199.766C135.171 198.861 134.585 197.896 133.868 197.621C133.152 197.346 132.565 196.523 132.565 195.79C132.565 193.514 133.836 194.32 135.601 197.718ZM231.183 196.203C231.872 197.32 229.433 198.285 227.648 197.6C225.907 196.931 226.866 195.329 229.008 195.329C229.907 195.329 230.885 195.722 231.183 196.203ZM286.908 196.197C287.614 196.197 287.95 196.588 287.654 197.066C286.997 198.129 283.155 198.22 282.516 197.188C281.843 196.099 283.023 195.2 284.421 195.736C285.083 195.99 286.202 196.197 286.908 196.197ZM127.203 200.119C128.002 201.534 129.241 203.159 129.958 203.73C131.02 204.576 131.055 204.979 130.148 205.898C129.236 206.823 128.941 206.676 128.525 205.088C128.246 204.021 127.673 203.148 127.25 203.148C126.828 203.148 126.483 202.61 126.483 201.952C126.483 201.294 125.897 200.268 125.18 199.673C124.463 199.079 123.877 198.216 123.877 197.757C123.877 196.205 125.742 197.531 127.203 200.119ZM173.401 198.855C173.401 199.304 172.814 199.673 172.097 199.673C170.753 199.673 170.372 198.648 171.349 197.669C172.044 196.975 173.401 197.76 173.401 198.855ZM239.217 198.587C239.441 199.265 238.753 199.673 237.384 199.673C234.956 199.673 233.592 198.339 235.3 197.634C236.984 196.939 238.816 197.386 239.217 198.587ZM298.515 198.805C298.515 199.914 293.282 199.914 291.564 198.805C290.622 198.195 291.403 197.958 294.388 197.949C296.657 197.942 298.515 198.326 298.515 198.805ZM229.445 200.548C229.743 201.029 229.358 201.664 228.59 201.959C226.927 202.597 226 201.893 226.799 200.599C227.521 199.432 228.741 199.409 229.445 200.548ZM177.505 202.324C177.885 203.778 178.429 204.005 180.465 203.558C183.18 202.962 183.743 204.021 181.638 205.768C180.562 206.662 180.028 206.601 178.746 205.44C177.881 204.657 176.543 204.017 175.773 204.017C174.11 204.017 173.081 202.632 173.835 201.411C174.766 199.906 177.019 200.467 177.505 202.324ZM237.696 203.148C237.696 203.626 236.523 204.017 235.088 204.017C233.655 204.017 232.482 203.626 232.482 203.148C232.482 202.67 233.655 202.279 235.088 202.279C236.523 202.279 237.696 202.67 237.696 203.148ZM297.646 203.148C297.646 203.626 295.91 204.017 293.787 204.017C291.665 204.017 289.687 203.626 289.392 203.148C289.061 202.613 290.541 202.279 293.25 202.279C295.668 202.279 297.646 202.67 297.646 203.148ZM188.171 206.217C188.171 207.934 185.73 208.874 184.49 207.634C183.671 206.815 185.174 205.645 187.954 204.941C188.074 204.911 188.171 205.485 188.171 206.217ZM136.909 207.131C136.909 208.665 135.039 208.398 134.502 206.787C134.312 206.219 134.777 205.755 135.533 205.755C136.291 205.755 136.909 206.374 136.909 207.131ZM134.43 211.207C135.057 212.377 135.052 213.172 134.415 213.809C133.772 214.453 133.245 214.061 132.651 212.497C132.185 211.271 131.382 210.008 130.866 209.689C130.351 209.371 130.166 208.727 130.455 208.26C131.084 207.243 133.115 208.75 134.43 211.207ZM194.253 208.388C194.253 209.509 191.778 210.519 190.982 209.724C190.659 209.401 190.969 208.772 191.672 208.328C193.354 207.263 194.253 207.286 194.253 208.388ZM180.185 209.296C180.014 209.809 179.503 210.229 179.048 210.229C178.594 210.229 178.082 209.809 177.912 209.296C177.741 208.782 178.252 208.362 179.048 208.362C179.844 208.362 180.356 208.782 180.185 209.296ZM185.366 211.674C185.554 212.241 185.091 212.705 184.333 212.705C183.577 212.705 182.958 212.087 182.958 211.329C182.958 209.796 184.828 210.063 185.366 211.674ZM190.097 214.603C188.77 215.929 187.791 214.951 188.527 213.032C188.961 211.9 189.338 211.787 190.111 212.56C190.884 213.334 190.88 213.819 190.097 214.603ZM245.689 214.617C244.877 215.428 244.407 215.42 243.567 214.581C242.708 213.721 242.751 213.34 243.777 212.705C245.52 211.629 247.098 213.207 245.689 214.617ZM279.615 226.66C279.479 245.034 280.961 270.409 282.485 275.831C283.178 278.294 283.745 281.885 283.745 283.811C283.745 285.738 284.145 288.369 284.636 289.658C285.126 290.948 285.729 293.609 285.976 295.572C286.222 297.536 286.799 299.517 287.257 299.974C287.714 300.432 288.088 301.619 288.088 302.612C288.088 303.605 288.675 305.253 289.391 306.277C290.109 307.3 290.452 308.77 290.155 309.544C289.851 310.335 290.292 311.697 291.159 312.655C292.658 314.312 292.632 314.361 290.247 314.361C288.896 314.361 287.174 314.899 286.42 315.557C280.687 320.559 273.318 316.362 273.318 308.094C273.318 306.397 272.724 304.523 271.995 303.919C271.244 303.295 270.89 302.134 271.175 301.235C271.453 300.363 271.226 298.17 270.671 296.361C268.875 290.499 268.02 284.613 267.191 272.397C266.744 265.804 266.031 258.194 265.607 255.487C265.112 252.333 265.152 249.872 265.716 248.634C266.21 247.548 266.285 246.011 265.884 245.126C265.493 244.259 265.1 239.347 265.009 234.21C264.906 228.417 264.444 224.391 263.793 223.605C262.215 221.705 263.528 220.456 266.863 220.679C268.498 220.789 270.306 220.409 270.881 219.834C271.457 219.258 272.436 218.787 273.058 218.787C274.632 218.787 277.662 215.596 277.662 213.937C277.662 213.179 278.124 212.714 278.688 212.903C279.424 213.148 279.687 217.043 279.615 226.66ZM115.953 234.691C115.904 244.342 115.497 253.717 115.049 255.526C114.602 257.334 113.834 262.025 113.341 265.952C110.929 285.195 109.631 292.566 108.145 295.452C107.718 296.282 107.368 298.115 107.368 299.527C107.368 300.939 106.977 302.336 106.499 302.631C106.022 302.927 105.63 304.074 105.63 305.183C105.63 306.291 105.067 307.665 104.378 308.237C103.688 308.809 103.004 310.518 102.857 312.036C102.622 314.463 102.276 314.795 99.9827 314.795C97.2232 314.795 93.0974 311.831 94.9226 311.16C95.4846 310.953 96.5933 308.558 97.3882 305.839C98.1832 303.119 99.4195 299.798 100.136 298.459C100.851 297.12 101.211 295.434 100.933 294.712C100.657 293.989 101.014 292.27 101.727 290.89C102.44 289.51 103.036 287.482 103.051 286.384C103.066 285.285 103.655 283.625 104.359 282.694C105.063 281.763 105.424 280.325 105.162 279.499C104.9 278.672 105.289 276.552 106.027 274.785C106.765 273.02 107.368 269.551 107.368 267.076C107.368 264.602 107.734 262.206 108.183 261.752C108.961 260.963 109.277 256.732 110.454 231.386C110.908 221.601 111.219 219.833 112.776 218.163C115.761 214.958 116.048 216.448 115.953 234.691ZM148.225 220.41C151.547 221.084 153.215 228.488 150.722 231.494C149.923 232.455 149.911 233.006 150.674 233.768C151.978 235.073 152.098 270.556 150.801 271.358C150.318 271.657 149.928 272.951 149.935 274.234C149.954 277.956 148.661 286.893 147.937 288.043C147.575 288.62 147.769 289.881 148.371 290.845C149.233 292.226 149.239 292.821 148.4 293.66C147.793 294.267 147.336 296.997 147.336 300.005C147.336 303.109 146.837 305.997 146.126 307.011C145.303 308.187 144.957 311.015 145.041 315.893L145.163 323.049H137.293C128.811 323.049 124.942 321.682 127.135 319.458C127.732 318.853 128.22 317.114 128.22 315.596C128.22 314.078 128.787 311.481 129.478 309.825C130.17 308.17 130.534 306.041 130.287 305.097C130.032 304.12 130.426 302.891 131.201 302.247C132.196 301.421 132.565 299.514 132.565 295.196C132.565 291.941 132.934 288.305 133.386 287.117C133.838 285.93 134.277 280.919 134.362 275.983C134.465 269.978 134.926 266.352 135.751 265.027C136.738 263.44 136.96 258.808 136.863 241.837C136.743 220.556 136.908 218.787 139.027 218.787C139.657 218.787 140.652 218.209 141.239 217.502C142.167 216.384 142.495 216.449 143.755 218.005C144.553 218.99 146.564 220.072 148.225 220.41ZM235.741 223.637L239.433 224.223L239.446 243.009C239.455 257.776 239.749 262.63 240.816 265.695C241.705 268.245 242.089 271.859 241.927 276.13C241.79 279.725 241.995 283.176 242.381 283.801C243.591 285.758 244.137 295.246 243.042 295.246C241.683 295.246 227.487 280.753 224.993 276.821C223.179 273.961 222.901 272.26 222.503 261.659C222.257 255.091 221.664 249.327 221.187 248.849C219.989 247.651 220.096 243.685 221.361 242.42C222.173 241.609 222.173 241.145 221.361 240.335C219.727 238.701 220 224.543 221.73 221.133C224.416 215.844 224.636 215.794 228.497 219.574C231.069 222.092 233.065 223.212 235.741 223.637ZM256.375 218.787C255.955 219.467 255.455 219.518 254.876 218.939C254.398 218.461 254.291 217.611 254.638 217.05C255.058 216.37 255.558 216.319 256.138 216.899C256.615 217.376 256.722 218.226 256.375 218.787ZM249.859 219.521C249.859 219.925 249.077 220.964 248.122 221.829C246.201 223.566 245.666 222.136 247.469 220.087C248.695 218.696 249.859 218.421 249.859 219.521ZM288.758 219.819C288.222 221.431 286.351 221.698 286.351 220.163C286.351 219.407 286.97 218.787 287.726 218.787C288.483 218.787 288.948 219.252 288.758 219.819ZM196.255 243.562C196.162 256.458 196.037 267.985 195.98 269.181C195.923 270.375 196.146 273.613 196.478 276.376C196.944 280.268 196.783 281.735 195.766 282.893C195.043 283.714 194.212 285.851 193.918 287.644C193.624 289.435 193.14 292.368 192.841 294.16C192.542 295.952 191.759 297.731 191.103 298.113C190.446 298.496 189.908 299.938 189.908 301.32C189.908 302.701 189.517 304.073 189.04 304.369C188.562 304.665 188.171 305.623 188.171 306.499C188.171 307.376 187.584 308.318 186.868 308.592C186.151 308.868 185.565 309.698 185.565 310.435C185.565 311.673 184.72 313.667 182.798 316.967C182.38 317.683 181.809 318.955 181.528 319.791C181.177 320.839 180.104 321.312 178.078 321.312H175.138V317.061C175.138 314.04 175.524 312.661 176.471 312.298C177.65 311.845 177.776 306.561 177.558 266.59C177.314 222.208 177.518 218.382 179.917 222.263C180.93 223.902 189.026 223.269 191.452 221.361C196.366 217.495 196.441 217.84 196.255 243.562ZM254.204 221.249C254.204 222.767 248.411 228.646 247.835 227.714C247.512 227.192 248.52 225.392 250.074 223.712C252.896 220.662 254.204 219.882 254.204 221.249ZM286.351 223.949C286.351 224.975 284.657 226.071 284.034 225.449C283.412 224.826 284.508 223.132 285.534 223.132C285.983 223.132 286.351 223.5 286.351 223.949ZM169.057 227.823C169.057 228.649 162.987 234.149 162.553 233.717C162.005 233.168 167.3 227.476 168.358 227.476C168.742 227.476 169.057 227.632 169.057 227.823ZM217.712 228.164C217.712 228.542 215.952 230.578 213.802 232.689C209.1 237.304 208.508 235.673 213.151 230.891C216.34 227.606 217.712 226.785 217.712 228.164ZM245.433 233.222C244.171 234.743 243.365 234.149 244.099 232.237C244.393 231.469 245.047 231.097 245.551 231.408C246.18 231.797 246.144 232.366 245.433 233.222ZM217.712 234.545C217.712 235.087 216.734 236.437 215.54 237.544C214.345 238.651 213.367 239.967 213.367 240.468C213.367 240.968 212.976 241.377 212.498 241.377C210.96 241.377 211.611 239.278 214.04 236.409C216.515 233.485 217.712 232.877 217.712 234.545ZM204.769 237.29C203.654 238.406 202.523 237.544 203.349 236.208C203.669 235.691 204.329 235.513 204.815 235.814C205.408 236.18 205.393 236.666 204.769 237.29ZM208.5 239.47C208.002 239.803 207.269 240.856 206.871 241.812C206.197 243.43 206.122 243.44 205.771 241.964C205.418 240.471 208.098 237.556 208.997 238.455C209.223 238.681 208.999 239.138 208.5 239.47ZM157.852 241.635C156.737 242.751 155.606 241.888 156.431 240.552C156.751 240.034 157.41 239.858 157.897 240.159C158.491 240.525 158.476 241.011 157.852 241.635ZM217.712 241.812C217.712 242.529 217.321 243.115 216.843 243.115C216.366 243.115 215.974 242.529 215.974 241.812C215.974 241.095 216.366 240.509 216.843 240.509C217.321 240.509 217.712 241.095 217.712 241.812ZM211.63 243.143C211.63 243.636 211.021 244.273 210.276 244.558C209.533 244.844 209.124 245.6 209.37 246.241C209.943 247.733 208.273 248.794 207.138 247.66C206.564 247.085 206.954 246.06 208.3 244.612C210.506 242.238 211.63 241.741 211.63 243.143ZM261.155 243.064C261.155 244.089 259.459 245.186 258.838 244.563C258.215 243.941 259.312 242.246 260.336 242.246C260.787 242.246 261.155 242.615 261.155 243.064ZM215.974 244.568C215.974 245.466 213.195 248.328 212.324 248.328C211.898 248.328 212.251 247.363 213.11 246.183C214.613 244.119 215.974 243.351 215.974 244.568ZM254.204 245.288C254.204 246.004 253.813 246.591 253.335 246.591C252.857 246.591 252.466 246.004 252.466 245.288C252.466 244.57 252.857 243.985 253.335 243.985C253.813 243.985 254.204 244.57 254.204 245.288ZM173.401 247.126C173.401 247.867 160.938 259.614 160.556 259.233C160.077 258.753 162.435 255.279 163.239 255.279C163.878 255.279 165.909 253.132 169.926 248.21C171.167 246.689 173.401 245.991 173.401 247.126ZM258.547 247.308C258.547 247.703 257.571 248.944 256.375 250.066C253.911 252.381 253.288 250.78 255.641 248.179C257.152 246.511 258.547 246.092 258.547 247.308ZM217.712 249.668C217.712 249.926 216.93 250.978 215.974 252.004C214.116 253.998 213.498 252.569 215.322 250.496C216.421 249.25 217.712 248.802 217.712 249.668ZM133 251.804C133.295 252.282 133.14 252.673 132.655 252.673C132.172 252.673 130.797 253.65 129.603 254.845C126.451 257.996 126.018 257.507 128.835 253.976C131.393 250.77 132.125 250.389 133 251.804ZM261.155 251.519C261.155 252.394 258.386 255.279 257.544 255.279C256.457 255.279 256.654 253.176 257.853 251.977C258.971 250.859 261.155 250.556 261.155 251.519ZM173.401 253.305C173.401 254.456 159.998 267.443 158.809 267.443C158.169 267.443 160.897 264.142 164.871 260.107C171.691 253.183 173.401 251.821 173.401 253.305ZM252.466 255.775C252.466 256.628 250.03 258.755 249.052 258.755C247.829 258.755 247.877 258.091 249.208 256.579C250.283 255.357 252.466 254.819 252.466 255.775ZM175.138 257.609C175.138 257.934 172.103 261.357 168.394 265.212C164.684 269.067 160.872 273.341 159.923 274.708C155.946 280.435 155.341 280.973 154.174 279.824C153.317 278.981 153.31 278.738 154.14 278.738C154.729 278.738 155.517 277.91 155.892 276.899C157.127 273.557 175.138 255.507 175.138 257.609ZM209.186 259.487C209.007 260.723 209.376 261.361 210.272 261.361C211.019 261.361 211.63 261.779 211.63 262.291C211.63 264.907 207.707 262.526 207.441 259.748C207.238 257.629 207.476 256.938 208.309 257.221C208.942 257.437 209.335 258.457 209.186 259.487ZM131.494 259.624C130.898 260.579 129.917 261.361 129.315 261.361C127.783 261.361 127.952 260.453 129.741 259.095C131.967 257.406 132.735 257.637 131.494 259.624ZM124.191 260.927C123.916 261.643 123.437 262.23 123.126 262.23C122.816 262.23 122.044 263.403 121.409 264.836C120.655 266.542 119.624 267.443 118.427 267.443H116.598L118.505 265.666C119.554 264.69 121.041 262.93 121.809 261.757C123.341 259.42 124.989 258.845 124.191 260.927ZM252.493 262.18C251.952 263.19 251.112 263.771 250.625 263.47C250.086 263.136 250.358 262.322 251.32 261.385C253.296 259.462 253.774 259.785 252.493 262.18ZM290.528 260.557C290.357 261.071 289.845 261.491 289.392 261.491C288.938 261.491 288.427 261.071 288.256 260.557C288.083 260.044 288.595 259.624 289.392 259.624C290.189 259.624 290.7 260.044 290.528 260.557ZM132.565 264.759C132.565 265.803 127.492 270.049 126.245 270.049C125.712 270.049 126.6 268.681 128.22 267.009C131.154 263.981 132.565 263.251 132.565 264.759ZM175.138 265.409C175.138 267.097 157.264 285.481 156.431 284.649C156.121 284.338 158.835 281.038 162.462 277.316C166.089 273.593 169.057 270.265 169.057 269.92C169.057 269.12 173.617 264.209 174.487 264.07C174.845 264.014 175.138 264.616 175.138 265.409ZM212.498 266.139C211.904 266.857 211.027 267.443 210.548 267.443C210.063 267.443 210.158 266.866 210.761 266.139C211.356 265.423 212.234 264.836 212.712 264.836C213.196 264.836 213.103 265.413 212.498 266.139ZM249.165 267.24C248.591 267.432 248.122 268.1 248.122 268.725C248.122 269.352 247.535 270.088 246.818 270.363C245.119 271.017 245.174 270.398 247.035 267.913C247.872 266.797 248.928 266.111 249.382 266.388C249.854 266.676 249.762 267.041 249.165 267.24ZM292.433 267.009C292.433 267.726 292.065 268.312 291.616 268.312C290.52 268.312 289.735 266.955 290.429 266.261C291.407 265.282 292.433 265.665 292.433 267.009ZM120.754 272.005C119.386 274.409 117.451 276.13 116.139 276.106C115.184 276.088 115.636 275.278 117.591 273.5C120.594 270.767 121.777 270.209 120.754 272.005ZM127.456 276.428C125.966 277.919 124.746 278.673 124.746 278.106C124.746 276.685 129.446 271.891 129.846 272.903C130.022 273.351 128.948 274.937 127.456 276.428ZM218.645 274.394C219.088 274.394 219.449 275.121 219.449 276.01C219.449 276.898 220.437 278.364 221.646 279.268C222.853 280.171 224.859 282.447 226.105 284.325C227.351 286.203 230.467 289.888 233.033 292.514C238.606 298.223 238.545 297.752 234.22 301.659C232.309 303.386 230.745 305.582 230.745 306.539C230.745 307.495 230.417 308.279 230.016 308.279C229.615 308.279 228.539 309.838 227.626 311.744C225.475 316.233 225.188 316.146 223.398 310.453C222.572 307.826 221.54 305.456 221.107 305.188C220.673 304.92 220.306 303.844 220.291 302.797C220.276 301.75 219.716 300.171 219.048 299.288C218.378 298.406 218.042 297.135 218.298 296.464C219.061 294.48 220.318 295.075 220.318 297.419C220.318 298.613 220.709 299.59 221.187 299.59C221.666 299.59 222.057 300.134 222.057 300.797C222.057 301.461 222.814 302.927 223.741 304.056L225.426 306.107L227.25 304.311C229.053 302.537 228.94 299.59 227.07 299.59C226.558 299.59 226.638 299.048 227.26 298.298C227.886 297.544 228.057 296.368 227.669 295.474C227.305 294.632 226.892 293.363 226.751 292.655C226.61 291.948 226.083 291.231 225.581 291.062C225.071 290.893 224.899 289.826 225.193 288.658C225.513 287.383 225.342 286.557 224.756 286.557C224.227 286.557 223.794 286.048 223.794 285.425C223.794 284.801 222.425 282.965 220.752 281.345C219.081 279.724 217.712 277.679 217.712 276.802C217.712 274.594 215.107 273.766 213.798 275.556C212.514 277.312 211.63 277.414 211.63 275.805C211.63 273.975 217.19 271.463 217.559 273.126C217.713 273.823 218.201 274.394 218.645 274.394ZM262.892 274.267C262.892 274.675 262.013 275.967 260.937 277.137C259.862 278.308 258.396 280.418 257.679 281.825C255.408 286.285 252.466 289.131 252.466 286.865C252.466 285.85 253.443 284.38 254.638 283.596C255.832 282.813 256.81 281.552 256.81 280.792C256.81 280.033 257.886 278.115 259.199 276.531C261.58 273.661 262.892 272.857 262.892 274.267ZM173.401 274.87C173.401 275.721 153.397 295.246 152.526 295.246C150.99 295.246 151.597 294.514 161.454 284.494C169.958 275.849 173.401 273.076 173.401 274.87ZM129.958 279.571C129.958 280.636 125.4 284.896 124.851 284.346C124.485 283.979 129.004 278.738 129.686 278.738C129.836 278.738 129.958 279.114 129.958 279.571ZM172.848 281.082C173.676 281.908 160.305 295.247 158.651 295.244C157.765 295.244 158.117 294.564 159.717 293.189C161.03 292.059 162.106 290.691 162.106 290.149C162.106 289.607 162.626 289.165 163.262 289.165C163.899 289.165 164.942 288.187 165.581 286.992C166.22 285.798 167.096 284.82 167.528 284.82C168.611 284.82 170.794 282.539 170.794 281.407C170.794 280.352 171.938 280.172 172.848 281.082ZM173.228 288.078C171.115 292.414 170.36 293.508 169.481 293.508C168.912 293.508 164.334 297.405 159.309 302.167C146.221 314.569 146.862 311.737 160.106 298.641C169.474 289.378 174.609 285.244 173.228 288.078ZM217.712 290.033C217.712 291.466 217.321 292.64 216.843 292.64C216.366 292.64 215.974 291.466 215.974 290.033C215.974 288.599 216.366 287.426 216.843 287.426C217.321 287.426 217.712 288.599 217.712 290.033ZM252.466 289.592C252.466 290.693 248.635 294.261 247.925 293.822C247.483 293.548 248.002 292.389 249.077 291.245C250.875 289.33 252.466 288.555 252.466 289.592ZM129.074 292.422C129.056 293.191 125.174 296.984 124.406 296.984C123.379 296.984 123.894 294.93 125.315 293.36C126.749 291.774 129.103 291.188 129.074 292.422ZM261.148 292.422C261.144 292.781 260.166 293.526 258.976 294.078C256.672 295.147 256.13 294.536 257.853 292.813C259.007 291.658 261.158 291.403 261.148 292.422ZM173.401 296.034C173.401 297.148 154.926 314.594 152.201 316.051C148.154 318.217 148.874 316.384 153.938 311.633C156.667 309.071 159.618 306.22 160.496 305.298C165.56 299.979 173.401 294.349 173.401 296.034ZM267.237 296.984C267.237 297.462 266.65 297.853 265.932 297.853C265.216 297.853 264.629 298.308 264.629 298.866C264.629 299.424 264.425 299.675 264.175 299.425C263.925 299.175 263.967 298.328 264.268 297.543C264.859 296.002 267.237 295.555 267.237 296.984ZM244.599 299.501C245.083 300.408 245.56 303.438 245.656 306.235C245.753 309.031 246.347 312.091 246.977 313.033C250.097 317.705 248.899 318.57 238.913 318.866C229.284 319.152 227.926 318.734 230.227 316.191C230.992 315.345 231.411 314.449 231.159 314.197C230.909 313.945 231.299 313.245 232.027 312.641C232.755 312.036 233.351 310.997 233.351 310.332C233.351 308.471 235.187 305.594 238.96 301.546C242.847 297.374 243.36 297.188 244.599 299.501ZM125.994 303.14C122.439 306.876 119.113 308.621 122.138 305.163C124.871 302.042 126.688 300.522 127.731 300.487C128.18 300.472 127.397 301.666 125.994 303.14ZM173.109 303.557C173.653 304.977 168.66 310.885 166.917 310.885C166.404 310.885 163.06 313.74 159.485 317.229C154.12 322.464 152.618 323.487 150.901 323.076C148.893 322.596 148.938 322.5 152.205 320.333C154.066 319.098 159.108 314.574 163.409 310.28C171.868 301.834 172.326 301.516 173.109 303.557ZM303.528 307.573C302.992 309.184 301.121 309.451 301.121 307.917C301.121 307.161 301.741 306.541 302.497 306.541C303.253 306.541 303.718 307.005 303.528 307.573ZM262.892 309.096C262.892 310.121 261.198 311.218 260.575 310.596C259.952 309.973 261.049 308.279 262.075 308.279C262.524 308.279 262.892 308.646 262.892 309.096ZM113.831 315.443C112.427 316.993 111.278 318.324 111.278 318.401C111.278 319.187 107.888 318.866 107.603 318.053C107.395 317.456 107.801 316.967 108.508 316.967C109.214 316.967 110.713 315.996 111.839 314.81C114.994 311.483 116.873 312.08 113.831 315.443ZM117.795 317.692C117.795 318.823 116.762 319.575 115.922 319.056C115.022 318.501 115.797 316.967 116.976 316.967C117.427 316.967 117.795 317.294 117.795 317.692ZM270.712 318.243C270.712 319.021 270.202 319.324 269.409 319.019C268.692 318.744 268.105 318.169 268.105 317.743C268.105 317.316 268.692 316.967 269.409 316.967C270.125 316.967 270.712 317.542 270.712 318.243ZM160.368 322.035C160.368 323.167 159.335 323.919 158.495 323.4C157.596 322.844 158.371 321.312 159.55 321.312C160 321.312 160.368 321.637 160.368 322.035Z" fill="#0000FF"/>
</svg>
