<svg width="400" height="400" viewBox="0 0 400 400" fill="none" xmlns="http://www.w3.org/2000/svg">
<path style="fill:#0000FF;" d="M254.144,141.572c-2.63-1.788-6.943-5.365-9.574-7.995c-4.103-4.313-4.524-5.155-3.367-6.943
	c0.947-1.578,0.947-3.998,0.105-10.415l-1.157-8.311l4.313-5.471c5.26-6.733,6.838-11.678,5.26-17.359
	c-1.578-5.471-8.627-12.519-14.097-14.097c-4.313-1.157-53.233-1.368-67.33-0.21c-2.623,0.079-5.246,0.158-7.869,0.237
	c-0.042,2.586-0.084,5.172-0.126,7.758c-0.309,27.003-0.59,54.006-0.842,81.007c-0.235,25.251-0.446,50.5-0.631,75.747
	c-0.316,1.157-0.947,8.311-1.473,15.781c-0.631,8.521-1.789,16.096-3.051,19.989l-2.104,6.312l2.104,8.416
	c1.232,4.741,1.742,6.888,1.595,8.865c-0.165,2.223-0.872,3.823-1.28,4.812c-4.976,12.059-10.75,22.307-10.75,22.308
	c-1.116,1.982-2.672,4.717-4.57,7.977c17.577,0.008,35.155,0.015,52.732,0.022c-1.243-2.132-3.071-5.317-5.202-9.23
	c-9.747-17.891-10.513-22.843-10.602-26.306c-0.068-2.61,0.189-6.635,2.063-11.603l2.104-6.102l-2.315-4.839
	c-3.472-7.154-4.103-18.095-4.629-89.844l-0.526-63.964l5.576,2.841c7.785,3.998,16.938,3.998,22.724,0.105
	c7.785-5.155,11.467-12.414,13.361-26.511c1.368-9.994,5.997-15.255,13.887-15.991c3.682-0.316,5.576,0,7.154,1.262
	c1.999,1.683,1.999,1.683-1.157,1.157c-14.308-2.42-20.62,13.151-9.468,23.46c3.051,2.841,3.367,5.681,1.473,11.783
	c-0.947,3.156-0.842,5.05,0.105,8.416c1.262,4.313,1.262,4.419-2.735,8.521c-2.209,2.314-6.733,6.312-9.994,8.942
	c-3.367,2.525-6.102,5.365-6.102,6.207s1.894,5.471,4.208,10.205c2.209,4.734,5.05,12.414,6.207,17.043
	c1.052,4.629,2.315,9.258,2.735,10.205c1.368,3.472,22.198,3.893,25.565,0.526c0.736-0.842,2.735-6.312,4.524-12.204
	c3.261-11.362,4.839-15.36,8.311-20.725C262.139,148.936,260.772,145.78,254.144,141.572z M181.438,97.095
	c3.135-2.821,5.747-2.821,8.463,0.104c2.717,2.926,2.717,5.642,0,7.105c-1.776,0.94-2.717,0.731-5.224-1.358
	c-1.672-1.463-3.657-2.821-4.388-3.135C179.348,99.393,179.662,98.557,181.438,97.095z M207.768,85.601
	c-1.149,3.657-2.612,9.717-3.239,13.479c-1.567,8.777-3.657,12.12-9.09,14.732c-5.015,2.403-8.568,2.09-13.374-1.254
	c-1.776-1.254-2.194-1.881-1.045-1.463c1.149,0.418,4.284,1.045,6.896,1.254c4.179,0.522,5.224,0.209,8.15-2.403
	c4.806-4.284,5.538-10.448,1.881-15.882c-1.463-2.194-4.075-4.702-5.851-5.538c-7.071-3.327-14.587,1.09-16.091,1.985
	c-1.804,1.074-3.13,2.242-4.005,3.113c0.046-2.709,0.093-5.419,0.139-8.128v-7.314h18.807c10.344,0,18.807,0.209,18.807,0.418
	C209.753,78.81,208.813,81.944,207.768,85.601z M225.446,173.748c-0.313,0.313-2.194-4.388-4.179-10.344
	c-2.612-7.941-3.344-11.284-2.508-12.12c1.985-1.985,2.612-1.254,3.761,4.597c0.627,3.135,1.672,8.359,2.299,11.598
	C225.446,170.613,225.76,173.539,225.446,173.748z M236.919,167.204c-1.149,5.956-2.09,10.866-2.09,10.971
	c0,0.209-0.418,0.313-0.94,0.313c-0.522,0-1.672-4.388-2.508-9.717c-2.403-14.419-2.821-18.076-2.09-18.807
	c0.313-0.418,2.717-0.731,5.224-0.731c4.388,0,4.493,0,4.493,3.657C239.009,154.875,238.069,161.353,236.919,167.204z
	 M239.531,95.005c-0.313,0.418-1.672,0.313-3.03-0.209c-1.776-0.836-3.135-0.836-4.806,0.104c-3.03,1.567-4.702,0-3.761-3.552
	c0.731-3.03,2.821-3.552,4.702-1.254c0.627,0.836,2.612,1.985,4.284,2.717S239.74,94.483,239.531,95.005z M246.636,163.547
	c-1.985,5.956-3.866,10.657-4.179,10.344c-0.313-0.209,0-3.135,0.627-6.269c0.627-3.239,1.672-8.463,2.299-11.598
	c1.149-5.851,1.776-6.583,3.761-4.597C249.98,152.262,249.248,155.606,246.636,163.547z"/>
</svg>
