<svg width="400" height="400" viewBox="0 0 400 400" fill="none" xmlns="http://www.w3.org/2000/svg">
<path style="fill:#0000FF;" d="M199.938,70h0.001
	c2.286,0,4.363,1.008,5.867,2.632c1.497,1.616,2.425,3.844,2.426,6.296v0.003v0.001c0,2.453-0.929,4.682-2.426,6.298
	c-0.667,0.72-1.446,1.318-2.306,1.762h12.262v2.931h-9.855v2.93h-1.564v7.594c4.093,0.923,6.978,3.09,6.978,5.605
	c0,2.465-2.77,4.595-6.732,5.548v9.396h0.689l6.674,5.807c0,14.225-3.424,26.36-8.16,30.71v8.099
	c1.853,0.254,3.311,2.38,3.311,4.944v9.937c0,1.049-0.245,2.024-0.66,2.828c0.131,0.487,0.275,0.968,0.429,1.441
	c1.631,5.002,4.057,9.197,7.904,11.218c10.532,5.534,30.192,0.994,32.718-15.524c2.862-18.716-1.028-29.943-12.64-31.35
	c-10.207-1.237-17.477,3.156-18.207,9.869c-0.906,8.338,2.551,16.015,10.154,15.919c5.104-0.064,7.914-5.182,8.292-8.372
	c0.513-4.338-1.231-5.397-3.523-5.251c-0.548,5.994-7.552,6.35-8.086,1.337c-0.536-5.029,4.306-7.277,8.023-6.968
	c4.486,0.373,9.141,3.295,8.605,10.796c-0.496,6.96-4.184,13.513-13.16,13.596c-8.263,0.077-16.782-6.818-15.172-22.174
	c2.244-21.405,36.166-20.957,41.971,1.294c1.427,5.47,2.034,17.139-0.717,26.291c8.833-13.831,16.466-32.839,31.659-36.49
	c1.152-0.277,2.419-0.382,3.747-0.331v-3.536h-4.524c-1.278,0-2.323-1.378-2.323-3.062l0,0c0-0.619,0.141-1.197,0.384-1.68h-8.841
	l1.563-1.97h10.259v-4.09h-1.955v-1.278h5.188v-19.17h2.317c-1.074-2.634-2.486-5.72-2.344-8.73
	c0.176-3.729,1.332-8.474,2.74-11.409c0.105-1.667-0.459-5.254,0.809-5.839c0.056,1.145,0,2.791,0.056,3.936
	c1.259,3.674,3.438,6.555,3.887,10.52c0.445,3.93-0.615,7.43-1.923,11.521h1.99v19.17h5.188v1.278h-1.954v4.09h10.259l1.279,1.97
	h-8.557c0.242,0.483,0.383,1.061,0.383,1.68l0,0c0,1.684-1.045,3.062-2.323,3.062h-4.524v5.073
	c5.148,2.002,9.844,5.804,11.228,10.563c3.408,11.717-4.165,19.518-10.729,19.523c-6.495,0.006-9.899-2.738-10.498-8.326
	c-0.51-4.761,1.195-7.176,4.524-7.528c2.745-0.29,5.024,1.411,5.015,3.12c-0.016,3.085-3.343,5.682-4.729,0.948
	c-1.804,0.307-1.673,0.174-1.63,3.767c0.03,2.605,4.679,3.815,7.836,3.356c6.01-0.874,7.166-8.034,5.133-14.593
	c-1.507-4.862-10.573-9.723-16.638-7.905c-12.716,3.809-17.555,17.593-24.156,30.075c4.528-3.116,9.536-6.082,15.266-5.714
	c9.765,3.068,8.863,7.898,3.751,13.117c1.238-3.945,1.044-10.202-5.755-9.875c-7.799,0.376-13.645,9.067-20.307,13.507
	c-5.497,6.698-12.92,11.446-24.743,11.354c-11.806-0.091-20.422-6.408-25.096-15.593v6.094c4.117,1.322,7.046,4.617,7.046,8.455
	c0,3.415-2.319,6.4-5.731,7.947v4.991c1.066-1.964,2.632-3.862,4.795-5.56c6.368-5.001,14.748-3.752,21.648,1.452
	c4.741,3.576,7.931,9.448,9.682,16.038h0.105c-0.01,0.093-0.02,0.187-0.03,0.28c1.269,4.904,1.748,10.189,1.479,15.214
	c1.629,5.04,4.036,9.252,7.81,11.301c10.532,5.719,30.192,1.027,32.718-16.044c2.862-19.343-1.028-30.945-12.64-32.399
	c-10.207-1.279-17.478,3.262-18.207,10.199c-0.906,8.617,2.551,16.551,10.154,16.451c5.104-0.066,7.914-5.355,8.292-8.652
	c0.513-4.484-1.231-5.578-3.523-5.427c-0.548,6.195-7.552,6.563-8.086,1.382c-0.536-5.197,4.306-7.521,8.023-7.201
	c4.486,0.386,9.141,3.406,8.605,11.158c-0.497,7.193-4.185,13.965-13.16,14.052c-8.263,0.079-17.428-7.047-15.818-22.916
	c2.244-22.121,36.812-21.658,42.617,1.338c1.427,5.654,2.035,17.713-0.716,27.17c8.833-14.294,16.465-33.938,31.659-37.711
	c1.152-0.286,2.419-0.394,3.747-0.341v-3.655h-4.524c-1.278,0-2.323-1.424-2.323-3.165v-0.001c0-0.64,0.142-1.237,0.384-1.736
	h-8.841l1.563-2.035h10.258v-4.226h-1.954v-1.321h5.188v-19.812h2.317c-1.074-2.722-2.485-5.911-2.344-9.021
	c0.176-3.854,1.332-8.758,2.741-11.791c0.105-1.723-0.459-5.43,0.808-6.035c0.056,1.184,0,2.885,0.056,4.068
	c1.258,3.797,3.438,6.774,3.887,10.873c0.444,4.061-0.615,7.678-1.923,11.906h1.989v19.812h5.188v1.321h-1.954v4.226h10.259
	l1.279,2.035h-8.557c0.242,0.499,0.384,1.097,0.384,1.736v0.001c0,1.741-1.045,3.165-2.323,3.165h-4.524v5.243
	c5.148,2.069,9.844,5.998,11.229,10.916c3.408,12.109-4.165,20.172-10.729,20.177c-6.495,0.006-9.899-2.83-10.498-8.605
	c-0.511-4.92,1.194-7.416,4.523-7.779c2.745-0.299,5.024,1.458,5.015,3.224c-0.016,3.189-3.343,5.872-4.729,0.98
	c-1.804,0.317-1.673,0.18-1.63,3.893c0.03,2.692,4.679,3.943,7.836,3.468c6.01-0.903,7.166-8.303,5.133-15.081
	c-1.507-5.025-10.573-10.048-16.638-8.17c-12.716,3.937-17.556,18.182-24.155,31.082c4.528-3.22,9.536-6.286,15.265-5.906
	c9.765,3.171,8.863,8.162,3.752,13.556c1.237-4.077,1.044-10.544-5.755-10.205c-7.799,0.388-13.646,9.37-20.308,13.959
	c-5.496,6.923-12.921,11.829-24.743,11.735c-10.413-0.083-19.314-4.831-24.247-12.544c-5.528-6.202-6.039-1.98-10.355,0.161
	c4.512-11.371,8.519-24.76,1.43-34.383c-3.87-5.254-13.903-6.999-17.845-4.021c-5.316,4.017-8.398,10.511-4.044,14.969
	c2.288,2.343,6.714,4.271,8.199,2.191c2.048-2.871,2.08-2.681,0.797-4.056c-3.771,2.95-4.997-1.221-3.28-3.718
	c0.952-1.384,3.743-1.331,5.792,0.618c2.486,2.362,2.507,5.374-0.574,8.894c-3.043,3.475-6.558,4.086-10.713,1.773
	c-0.573,4.144-3.418,7.539-7.167,8.76v6.662c12.766,1.611,22.719,13.13,22.719,27.027c0,14.214-10.414,25.941-23.6,27.121v5.371
	c1.654,0.43,3.135,1.334,4.303,2.567c1.664,1.756,2.695,4.18,2.695,6.85v0.002v0.001c0,2.671-1.032,5.096-2.696,6.852
	c-1.663,1.755-3.96,2.844-6.49,2.845h-0.002h-0.001c-2.531,0-4.828-1.089-6.492-2.846c-1.664-1.756-2.695-4.18-2.696-6.85v-0.002
	v-0.001c0.001-2.671,1.032-5.096,2.696-6.852c1.168-1.233,2.648-2.137,4.302-2.567v-5.371c-13.186-1.18-23.6-12.907-23.6-27.121
	c0-13.896,9.954-25.416,22.719-27.026v-6.662c-3.73-1.215-6.565-4.581-7.158-8.696c-4.105,2.238-7.583,1.607-10.598-1.836
	c-3.08-3.519-3.06-6.531-0.574-8.894c2.049-1.948,4.841-2.002,5.792-0.618c1.717,2.497,0.491,6.668-3.28,3.718
	c-1.282,1.375-1.251,1.185,0.798,4.056c1.485,2.08,5.91,0.152,8.198-2.191c0.283-0.289,0.534-0.588,0.755-0.893
	c0.205-0.401,0.433-0.787,0.683-1.155c1.978-4.237-0.934-9.485-5.481-12.921c-3.942-2.978-13.974-1.233-17.845,4.021
	c-7.09,9.623-3.083,23.013,1.429,34.383c-4.315-2.142-4.827-6.363-10.355-0.161c-4.933,7.713-13.833,12.461-24.247,12.544
	c-11.822,0.094-19.247-4.812-24.743-11.735c-6.662-4.589-12.508-13.57-20.308-13.959c-6.799-0.339-6.993,6.128-5.755,10.205
	c-5.112-5.394-6.014-10.386,3.751-13.556c5.73-0.38,10.737,2.685,15.266,5.906c-6.6-12.9-11.44-27.145-24.156-31.082
	c-6.065-1.878-15.132,3.145-16.638,8.17c-2.033,6.778-0.876,14.178,5.134,15.081c3.157,0.475,7.806-0.776,7.837-3.468
	c0.042-3.714,0.173-3.576-1.631-3.893c-1.386,4.892-4.713,2.209-4.729-0.98c-0.009-1.767,2.271-3.524,5.015-3.224
	c3.329,0.363,5.034,2.86,4.523,7.779c-0.599,5.776-4.003,8.611-10.498,8.605c-6.564-0.005-14.137-8.068-10.729-20.177
	c1.384-4.918,6.08-8.846,11.228-10.916v-5.243h-4.524c-1.278,0-2.323-1.424-2.323-3.165v-0.001c0-0.64,0.142-1.237,0.384-1.736
	h-8.557l1.279-2.035H65.07v-4.226h-1.954v-1.321h5.188v-19.812h1.99c-1.307-4.228-2.367-7.845-1.923-11.906
	c0.449-4.099,2.629-7.076,3.887-10.873c0.056-1.183,0-2.884,0.056-4.068c1.268,0.605,0.704,4.312,0.809,6.035
	c1.408,3.033,2.565,7.936,2.74,11.791c0.142,3.111-1.269,6.299-2.343,9.021h2.317v19.812h5.188v1.321H79.07v4.226h10.258
	l1.564,2.035H82.05c0.242,0.499,0.384,1.097,0.384,1.736v0.001c0,1.74-1.045,3.165-2.323,3.165h-4.524v3.655
	c1.328-0.053,2.595,0.055,3.747,0.341c15.194,3.774,22.826,23.418,31.66,37.711c-2.752-9.457-2.143-21.517-0.717-27.17
	c5.805-22.996,40.373-23.458,42.617-1.338c1.61,15.87-7.556,22.996-15.818,22.916c-8.976-0.087-12.663-6.858-13.16-14.052
	c-0.535-7.753,4.119-10.772,8.605-11.158c3.717-0.319,8.559,2.004,8.023,7.201c-0.534,5.181-7.537,4.813-8.086-1.382
	c-2.292-0.15-4.035,0.944-3.522,5.427c0.377,3.297,3.187,8.586,8.291,8.652c7.603,0.1,11.06-7.834,10.154-16.451
	c-0.729-6.937-8-11.478-18.207-10.199c-11.612,1.454-15.502,13.057-12.64,32.399c2.526,17.071,22.186,21.763,32.718,16.044
	c3.774-2.049,6.181-6.261,7.811-11.301c-0.269-5.024,0.209-10.31,1.478-15.214c-0.009-0.094-0.02-0.187-0.03-0.28h0.105
	c1.752-6.589,4.942-12.462,9.683-16.038c6.9-5.204,15.279-6.453,21.648-1.452c2.08,1.633,3.608,3.451,4.671,5.336v-4.767
	c-3.412-1.548-5.731-4.532-5.731-7.947c0-3.839,2.929-7.133,7.045-8.455v-6.094c-4.673,9.185-13.289,15.502-25.096,15.593
	c-11.822,0.091-19.247-4.656-24.743-11.354c-6.662-4.44-12.508-13.131-20.307-13.507c-6.8-0.327-6.993,5.93-5.755,9.875
	c-5.112-5.219-6.014-10.049,3.752-13.117c5.729-0.368,10.737,2.598,15.265,5.714c-6.6-12.482-11.439-26.265-24.155-30.075
	c-6.065-1.817-15.132,3.043-16.639,7.905c-2.033,6.559-0.876,13.719,5.133,14.593c3.158,0.459,7.806-0.751,7.837-3.356
	c0.042-3.594,0.173-3.46-1.631-3.767c-1.386,4.734-4.713,2.137-4.729-0.948c-0.009-1.71,2.271-3.41,5.016-3.12
	c3.329,0.352,5.034,2.767,4.523,7.528c-0.599,5.588-4.003,8.332-10.498,8.326c-6.565-0.005-14.137-7.806-10.729-19.523
	c1.384-4.759,6.081-8.561,11.229-10.563v-5.073h-4.524c-1.278,0-2.323-1.378-2.323-3.062l0,0c0-0.619,0.141-1.197,0.384-1.68h-8.557
	l1.279-1.97h10.259v-4.09h-1.954v-1.278h5.188v-19.17h1.99c-1.307-4.091-2.367-7.591-1.923-11.521
	c0.449-3.965,2.629-6.846,3.887-10.52c0.056-1.145,0-2.791,0.056-3.936c1.268,0.585,0.704,4.172,0.809,5.839
	c1.408,2.935,2.565,7.68,2.74,11.409c0.142,3.01-1.269,6.096-2.344,8.73h2.317v19.17h5.188v1.278h-1.955v4.09h10.258l1.564,1.97
	h-8.841c0.242,0.483,0.383,1.061,0.383,1.68l0,0c0,1.684-1.045,3.062-2.323,3.062h-4.524v3.536c1.328-0.051,2.595,0.053,3.747,0.331
	c15.194,3.652,22.826,22.659,31.659,36.49c-2.751-9.151-2.143-20.82-0.717-26.291c5.805-22.251,39.727-22.699,41.971-1.294
	c1.61,15.356-6.909,22.251-15.171,22.174c-8.976-0.083-12.663-6.637-13.16-13.596c-0.536-7.501,4.119-10.423,8.605-10.796
	c3.716-0.31,8.559,1.938,8.022,6.968c-0.534,5.013-7.537,4.657-8.085-1.337c-2.292-0.145-4.036,0.913-3.523,5.251
	c0.377,3.19,3.187,8.308,8.292,8.372c7.603,0.096,11.06-7.581,10.154-15.918c-0.729-6.713-8-11.106-18.207-9.869
	c-11.612,1.407-15.502,12.634-12.64,31.35c2.526,16.518,22.185,21.059,32.717,15.524c3.847-2.021,6.274-6.216,7.904-11.218
	c0.154-0.473,0.297-0.954,0.429-1.441c-0.416-0.804-0.66-1.779-0.66-2.828v-9.937c0-2.563,1.459-4.69,3.311-4.944v-8.099
	c-4.737-4.35-8.16-16.485-8.16-30.71l6.673-5.807h0.689V111.6c-3.962-0.953-6.733-3.083-6.733-5.548c0-2.557,2.981-4.754,7.181-5.65
	v-7.549h-1.767v-2.93h-9.855v-2.931h12.263c-0.86-0.443-1.64-1.042-2.307-1.762c-1.497-1.616-2.426-3.844-2.426-6.296v-0.002V78.93
	c0.001-2.453,0.929-4.682,2.426-6.298c1.505-1.624,3.581-2.631,5.866-2.632L199.938,70z M199.939,312.717h-0.003
	c-1.977,0-3.773,0.853-5.075,2.226c-1.302,1.374-2.109,3.27-2.109,5.358v0.001v0.002c0,2.087,0.807,3.982,2.109,5.356
	c1.302,1.374,3.098,2.227,5.076,2.227h0.001h0.002c1.977-0.001,3.773-0.853,5.074-2.226c1.302-1.374,2.11-3.27,2.11-5.358v-0.001
	V320.3c-0.001-2.087-0.807-3.982-2.109-5.356C203.713,313.57,201.917,312.717,199.939,312.717L199.939,312.717z M199.939,71.988
	h-0.003c-1.762,0-3.361,0.776-4.52,2.026c-1.166,1.259-1.889,2.998-1.889,4.916v0.001v0.002c0,1.917,0.723,3.656,1.889,4.914
	c1.158,1.251,2.758,2.026,4.521,2.027h0.001h0.002c1.762,0,3.362-0.776,4.52-2.026c1.166-1.258,1.889-2.998,1.889-4.916v-0.001
	v-0.003c-0.001-1.917-0.723-3.656-1.889-4.914C203.301,72.764,201.701,71.988,199.939,71.988"/>
</svg>
