<svg width="400" height="400" viewBox="0 0 400 400" fill="none" xmlns="http://www.w3.org/2000/svg">
<path style="fill-rule:evenodd;clip-rule:evenodd;fill:#0000FF;" d="M307.182,159.839c-3.362-8.184-8.539-14.553-12.33-22.31
	c2.806-5.244,10.566-9.565,11.743-16.44c1.711-9.985-5.067-17.936-9.979-24.072c-10.441-1.536-18.768-10.66-29.946-7.631
	c3.114-3.753,0.654-10.311,0.586-13.506c-9.481-14.73-35.314,1.968-44.036,9.394c-7.794,6.638-12.178,14.948-14.678,24.661
	c4.868,2.315,5.559,7.984,9.98,9.981c6.266,2.831,12.677-2.215,20.552-2.934c-10.668,15.658-22.632,29.18-34.055,43.447
	c-5.052,6.311-10.241,12.476-15.852,18.202c-5.444,5.553-12.111,10.516-17.615,16.44c-6.694,7.202-12.528,16.217-18.789,24.072
	c-19.274,24.187-36.32,48.944-58.713,69.869c-5.421,11.337-1.689,33.433,11.156,36.991c1.865,7.161,9.979,3.134,13.503,0
	c7.873-7.002,13.727-17.235,21.138-25.836c7.11-8.251,15.976-15.612,23.484-23.485c7.555-7.917,15.216-16.422,23.487-23.483
	c11.542-9.86,21.927-21.612,31.704-32.294c8.27-9.033,16.577-18.09,24.661-27.008c11.058-12.202,22.407-23.97,32.879-35.816
	c4.866,7.801,19.983,25.462,32.294,16.44C308.088,169.928,304.72,165.522,307.182,159.839z M220.287,109.344
	c-3.223-4.57-1.256-10.123,1.174-13.502c4.273-5.947,18.62-17.307,28.182-19.377c2.163-0.466,3.586,0.362,5.286,0
	C247.09,88.827,236.224,103.14,220.287,109.344z M257.277,142.814c-7.555,9.041-14.614,18.538-22.429,27.289
	c-0.035-0.028-0.07-0.057-0.106-0.084c-0.52-0.384-1.091-0.687-1.679-0.952c-1.299-0.585-2.648-1.074-3.992-1.545
	c-0.16-0.056-0.33-0.016-0.33-0.016c-0.261,0.011-0.472,0.075-0.614,0.129c-0.062,0.012-0.163,0.04-0.268,0.113
	c-0.041,0.028-0.19,0.136-0.252,0.313c-0.055,0.154-0.041,0.329,0.038,0.505c0.5,1.104,1.459,1.915,2.453,2.567
	c0.151,0.099,0.308,0.193,0.468,0.283c0.306,0.25,0.621,0.489,0.946,0.711c0.292,0.2,0.624,0.39,0.96,0.585
	c-0.643,0.692-1.298,1.372-1.953,2.053c-0.071,0.024-0.146,0.036-0.22,0.053c-0.168-0.019-0.33-0.046-0.453-0.073
	c-0.494-0.107-0.96-0.308-1.368-0.607c-0.418-0.306-0.693-0.761-1.116-1.059c-0.149-0.105-0.323-0.17-0.504-0.218
	c-0.038-0.027-0.07-0.061-0.112-0.085c-0.084-0.048-0.175-0.062-0.267-0.062c-0.495-0.262-1.061-0.425-1.575-0.266
	c-0.411,0.127-0.657,0.524-0.638,0.945c0.004,0.078,0.024,0.145,0.044,0.213c-0.001,0.058-0.006,0.116,0.012,0.181
	c0.083,0.297,0.167,0.661,0.343,0.936c0.075,0.298,0.214,0.579,0.407,0.834c0.339,0.445,0.76,0.818,1.094,1.268
	c0.062,0.083,0.167,0.215,0.268,0.364c0.067,0.285,0.073,0.568,0.038,0.845c-0.013,0.156-0.048,0.272-0.077,0.35
	c-0.046,0.122-0.099,0.208-0.17,0.41c-0.017,0.049-0.03,0.089-0.038,0.115c-0.025,0.047-0.042,0.096-0.071,0.141
	c-0.026,0.042-0.032,0.084-0.046,0.127c-1.499,1.419-3.026,2.811-4.609,4.149c-3.471,3.811-6.896,7.667-10.295,11.55
	c-0.296,0.099-0.587,0.211-0.889,0.297c-1.15,0.329-2.33,0.567-3.52,0.691c-0.905,0.094-1.838,0.047-2.336,0.957
	c-0.418,0.764-0.263,1.691,0.055,2.454c0.234,0.56,0.65,1.195,0.58,1.828c-0.066,0.595-0.487,0.868-0.985,1.105
	c-1.147,0.547-1.783,1.674-1.663,2.809c-6.655,7.789-13.235,15.654-19.826,23.507c-0.231,0.208-0.465,0.358-0.688,0.467
	c-0.439,0.215-0.546,0.13-1.012,0.365c-0.384,0.194-0.431,0.312-0.747,0.382c-0.258,0.057-0.324,0-0.548,0.083
	c-0.338,0.126-0.529,0.383-0.564,0.431c-0.173,0.241-0.113,0.35-0.282,0.597c-0.191,0.28-0.334,0.236-0.465,0.415
	c-0.381,0.522,0.466,1.401,0.1,2.207c-0.073,0.162-0.174,0.272-0.23,0.327c-0.546,0.648-1.104,1.31-1.65,1.958
	c-0.55,0.652-1.101,1.304-1.652,1.956c-0.679,0.443-1.231,0.539-1.617,0.539c-0.36,0-0.526-0.081-0.734,0.05
	c-0.417,0.262-0.507,1.061-0.386,1.506c0.02,0.072,0.085,0.284,0.141,0.595c0.024,0.134,0.039,0.246,0.047,0.32
	c-13.611,16.039-27.483,31.818-42.425,46.527c-5.554,9.517-13.945,16.193-19.964,25.248c-4.191-2.856-6.184-7.908-9.982-11.159
	c0.697-1.951,1.563-3.755,2.537-5.471c0.134,0.067,0.284,0.108,0.431,0.155c0.064,0.138,0.125,0.277,0.19,0.418
	c0,0,0.403,0.799,1.092,1.507c1.259,1.294,4.665,4.795,6.57,3.852c1.329-0.658,1.723-3.379,1.062-6.44
	c-0.9-1.423-1.553-2.543-1.992-3.319c-0.323-0.571-0.601-1.082-1.195-1.527c-0.729-0.546-1.533-0.69-2.061-0.73
	c1.329-1.731,2.732-3.418,4.143-5.125c0.582-0.016,1.034,0.065,1.346,0.146c0.503,0.13,0.921,0.366,1.205,0.164
	c0.094-0.067,0.068-0.106,0.239-0.289c0.269-0.286,0.429-0.292,0.556-0.443c0.217-0.258,0.025-0.573,0.017-1.101
	c-0.01-0.657,0.295-0.8,0.448-1.543c0.08-0.389,0.136-0.957,0-1.691c0.225-0.294,0.456-0.576,0.679-0.874
	c10.917-14.643,23.365-29.451,34.642-44.622c15.05-20.249,31.724-39.07,49.319-56.365c3.99-6.775,9.273-12.256,14.678-17.615
	c10.83-13.833,21.642-30.81,34.056-41.1c3.736,2.662-0.74,5.821-0.589,9.983c-2.373,1.54-4.454,3.374-7.046,4.695
	c0.054,6.905-6.783,6.918-7.632,12.917c10.241,1.21,9.329-13.746,18.202-15.851c0.768-10.387,12.403-9.908,15.265-18.201
	c-0.377-3.343-3.106-4.331-4.11-7.046c4.715-3.999,7.322-14.369,15.853-9.394c-0.921,4.054-7.167,5.639-5.871,9.981
	c5.127,3.445,6.286-6.596,11.155-7.633c3.896-0.827,7.349,2.445,11.156,4.11C284.683,118.623,268.874,128.932,257.277,142.814z
	 M127.748,282.44c-0.042-0.157-0.068-0.257-0.129-0.391
	c-0.051-0.113-0.145-0.315-0.346-0.507c-0.108-0.103-0.209-0.169-0.268-0.203c-0.086-0.051-0.179-0.089-0.316-0.138
	c-0.13-0.046-0.272-0.061-0.41-0.06c-0.165-0.006-0.318,0.028-0.46,0.103c-0.042,0.015-0.105,0.039-0.176,0.079
	c-0.168,0.094-0.264,0.207-0.329,0.277c-0.092,0.099-0.238,0.233-0.464,0.368c-0.081,0.085-0.346,0.382-0.374,0.839
	c-0.04,0.64,0.416,1.053,0.473,1.103c0.119,0.08,0.292,0.178,0.514,0.245c0.123,0.037,0.256,0.064,1.212,0.02
	c0.357-0.016,0.483-0.026,0.631-0.116c0.183-0.111,0.282-0.274,0.349-0.382c0.052-0.085,0.175-0.292,0.199-0.581
	C127.869,282.9,127.829,282.747,127.748,282.44z M200.641,191.422c-0.043-0.148-0.088-0.371-0.091-0.698
	c-0.042-0.126-0.162-0.432-0.473-0.66c-0.511-0.375-1.104-0.22-1.184-0.198c-0.132,0.057-0.308,0.149-0.484,0.3
	c-0.098,0.084-0.192,0.181-0.672,1.009c-0.235,0.405-0.235,0.489-0.243,0.593c-0.012,0.165,0.017,0.411,0.021,0.443
	c0.015,0.125,0.025,0.187,0.039,0.236c0.039,0.132,0.076,0.155,0.137,0.325c0.042,0.117,0.038,0.127,0.067,0.212
	c0.034,0.099,0.092,0.183,0.162,0.256c0.066,0.114,0.132,0.227,0.216,0.332c0.052,0.064,0.094,0.122,0.151,0.174
	c0.07,0.064,0.217,0.176,0.482,0.216c0.071,0.021,0.183,0.046,0.319,0.034c0.125-0.01,0.214-0.046,0.299-0.08
	c0.084-0.033,0.198-0.088,0.322-0.179c0.086-0.079,0.177-0.174,0.266-0.286c0.206-0.261,0.325-0.52,0.396-0.72
	c0.009-0.022,0.023-0.054,0.042-0.093c0.035-0.071,0.061-0.108,0.091-0.158c0.044-0.073,0.093-0.152,0.125-0.252
	c0.019-0.062,0.032-0.125,0.038-0.191c0.011-0.043,0.024-0.11,0.029-0.191C200.708,191.642,200.659,191.486,200.641,191.422z"/>
</svg>
