<svg width="400" height="400" viewBox="0 0 400 400" fill="none" xmlns="http://www.w3.org/2000/svg">
<path style="fill:#FF0000;" d="M198.45,330c-3.608-0.446-7.257-0.49-10.835-1.263c-22.982-4.966-38.935-18.352-47.943-40.048
	c-1.596-3.844-2.637-7.864-3.347-11.97c-0.098-0.567-0.327-1.147-0.629-1.639c-6.02-9.839-8.055-20.637-7.878-32.016
	c0.147-9.405,3.162-17.943,7.439-26.162c1.878-3.609,3.608-7.307,4.384-11.347c0.99-5.153-0.312-9.889-2.603-14.487
	c-3.275-6.572-4.288-13.433-2.207-20.602c0.106-0.365,0.225-0.726,0.358-1.082c0.042-0.111,0.151-0.197,0.271-0.344
	c-1.172,7.364,1.259,13.493,6.031,18.912c3.619,4.11,6.722,8.528,7.704,14.105c0.404,2.294,0.25,4.661,0.988,6.91
	c1.118,3.408,3.284,5.063,5.814,4.387c3.25-0.869,4.987-3.898,4.165-7.333c-0.906-3.789-2.987-6.998-5.134-10.157
	c-2.552-3.754-5.073-7.518-7.047-11.627c-4.76-9.91-3.759-19.123,3.197-27.669c1.258-1.546,2.502-3.108,3.675-4.719
	c4.472-6.14,5.835-12.83,3.551-20.105c1.522,0.821,3.222,3.908,3.866,7.103c1.328,6.584,0.251,12.789-2.779,18.743
	c-2.077,4.082-4.09,8.186-3.864,13.001c0.283,6.047,4.885,11.152,10.241,11.164c5.384,0.012,9.111-3.967,9.729-10.074
	c0.763-7.535-1.558-14.391-4.232-21.222c-2.762-7.057-5.555-14.115-6.862-21.634c-0.8-4.606-1.046-9.192,0.897-13.625
	c0.831-1.896,2.111-3.436,3.772-4.721c-3.974,5.07-2.913,10.394-0.851,15.749c1.655,4.297,4.056,8.203,6.508,12.073
	c3.654,5.766,7.368,11.497,10.625,17.5c3.985,7.345,4.662,14.844,0.894,22.544c-1.057,2.159-2.108,4.351-2.556,6.759
	c-0.368,1.977,0.051,3.715,1.831,4.761c1.69,0.993,3.156,0.049,4.33-1.117c3.637-3.612,5.897-7.893,6.252-13.114
	c0.684-10.074-3.228-18.609-8.689-26.677c-3.307-4.885-6.361-9.926-8.749-15.341c-4.156-9.423-4.079-18.686,0.761-27.907
	c3.436-6.545,7.351-12.786,11.279-19.033c2.16-3.434,3.867-7.086,3.37-11.357c-0.233-2-1.137-3.666-2.691-5.318
	c5.61,3.625,7.588,9.054,5.772,15.259c-1.235,4.219-3.486,7.989-5.254,11.973c-3.47,7.818-4.9,15.862-2.445,24.256
	c1.145,3.916,3.198,7.316,6.645,9.665c2.345,1.598,4.937,2.604,7.577,0.86c2.633-1.739,3.141-4.506,2.729-7.453
	c-0.677-4.837-2.899-9.195-4.378-13.783c-1.393-4.32-2.417-8.673-1.119-13.217c0.717-2.51,2.122-4.589,4.022-6.355
	c-2.959,8.827,0.853,16.27,4.807,23.63c2.065,3.844,4.541,7.466,6.608,11.308c4.808,8.936,3.573,17.907-0.079,26.867
	c-2.507,6.152-5.627,12.079-7.104,18.619c-1.209,5.355-1.301,10.762-0.419,16.178c0.242,1.483,0.834,2.847,1.829,4.001
	c2.817,3.267,7.164,2.809,9.136-1.008c1.968-3.808,1.678-7.69,0.186-11.575c-1.432-3.728-2.698-7.51-2.917-11.533
	c-0.353-6.488,1.254-12.352,5.697-17.274c0.624-0.691,1.138-1.48,1.733-2.199c4.508-5.446,4.786-11.263,1.547-17.398
	c-0.663-1.256-1.313-2.52-2.175-4.176c5.322,5.892,7.14,12.282,5.762,19.695c-0.848,4.564-2.824,8.798-3.597,13.359
	c-0.477,2.813-0.756,5.656,0.166,8.441c1.16,3.504,4.402,5.648,7.432,4.984c2.568-0.563,4.326-2.994,4.566-6.188
	c0.219-2.923-0.587-5.619-1.654-8.277c-1.513-3.772-3.261-7.488-2.958-11.721c0.256-3.582,1.711-6.592,4.685-9.513
	c-1.536,3.153-2.31,5.923-2.246,8.908c0.099,4.676,1.935,8.814,3.843,12.939c1.885,4.076,3.91,8.103,4.788,12.558
	c1.019,5.17-0.196,9.923-2.807,14.393c-1.454,2.489-3.008,4.926-4.335,7.481c-1.69,3.256-2.516,6.721-1.969,10.443
	c0.604,4.109,3.164,6.822,6.389,6.649c3.807-0.204,6.978-3.509,7.195-7.447c0.239-4.319-0.792-8.518-1.149-12.779
	c-0.927-11.072,1.214-20.989,10.777-28.034c0.154-0.114,0.311-0.224,0.549-0.269c-2.331,2.728-4.385,5.628-5.371,9.097
	c-2.231,7.845-1.094,15.456,1.905,22.871c2.88,7.122,6.901,13.709,9.9,20.769c2.88,6.781,5.66,13.621,6.338,21.089
	c0.47,5.179-0.809,10.101-1.972,15.055c-1.341,5.711-3.344,11.178-5.713,16.541c-0.996,2.254-0.558,4.849-1.005,7.267
	c-5.01,27.096-20.705,44.651-46.997,52.709c-4.427,1.357-9.012,1.962-13.649,2.108c-0.588,0.019-1.173,0.146-1.759,0.223
	C200.147,330,199.298,330,198.45,330z M140.202,261.567c0.249,21.481,6.591,36.1,19.245,47.856
	c12.715,11.811,27.908,16.752,45.126,15.506c15.525-1.124,28.585-7.631,39.017-19.047c13.832-15.137,17.725-33.162,14.608-53.098
	c-3.368-21.538-29.338-48.283-61.46-46.681C165.567,207.658,139.321,234.974,140.202,261.567z
	 M216.801,250.405c2.944,3.72,3.668,8.198,1.435,11.107c-2.834,3.693-9.342,3.456-14.536-0.53
	c-5.194-3.986-7.108-10.211-4.274-13.904c2.595-3.382,8.269-3.458,13.196-0.388c-3.654-2.504-8.071-3.974-12.835-3.974
	c-12.559,0-22.74,10.181-22.74,22.74c0,12.559,10.181,22.74,22.74,22.74s22.74-10.181,22.74-22.74
	C222.527,259.677,220.353,254.417,216.801,250.405z M189.378,282.067c-2.16,0-3.91-1.751-3.91-3.91s1.751-3.91,3.91-3.91
	c2.16,0,3.91,1.751,3.91,3.91S191.538,282.067,189.378,282.067z
	 M199.787,226.406c-21.567,0-39.051,17.484-39.051,39.051c0,21.567,17.484,39.051,39.051,39.051
	s39.051-17.484,39.051-39.051C238.839,243.89,221.355,226.406,199.787,226.406z M223.21,290.828l-6.241-4.436l3.133,6.987
	c-0.741,0.54-1.502,1.055-2.287,1.536l-5.261-5.573l1.711,7.468c-0.831,0.384-1.675,0.743-2.54,1.061l-4.076-6.498l0.221,7.657
	c-0.888,0.213-1.787,0.398-2.701,0.541l-2.728-7.163l-1.276,7.548c-0.458,0.018-0.916,0.035-1.378,0.035
	c-0.462,0-0.92-0.017-1.378-0.035l-1.276-7.548l-2.728,7.163c-0.913-0.143-1.812-0.328-2.7-0.541l0.221-7.657l-4.076,6.498
	c-0.865-0.319-1.71-0.677-2.54-1.061l1.711-7.468l-5.261,5.573c-0.784-0.481-1.545-0.996-2.287-1.536l3.133-6.987l-6.241,4.436
	c-0.675-0.624-1.325-1.274-1.949-1.949l4.436-6.241l-6.987,3.133c-0.54-0.741-1.055-1.502-1.536-2.287l5.573-5.261l-7.468,1.711
	c-0.384-0.831-0.743-1.676-1.061-2.54l6.498-4.076l-7.657,0.221c-0.213-0.888-0.398-1.787-0.541-2.7l7.163-2.728l-7.548-1.276
	c-0.018-0.458-0.035-0.916-0.035-1.378c0-0.462,0.017-0.92,0.035-1.378l7.548-1.276l-7.163-2.728c0.143-0.913,0.328-1.812,0.541-2.7
	l7.657,0.221l-6.498-4.076c0.319-0.865,0.677-1.71,1.061-2.54l7.468,1.711l-5.573-5.261c0.481-0.784,0.996-1.545,1.536-2.287
	l6.987,3.133l-4.436-6.241c0.624-0.675,1.274-1.325,1.949-1.949l6.241,4.436l-3.133-6.987c0.741-0.54,1.502-1.055,2.287-1.536
	l5.261,5.573l-1.711-7.468c0.831-0.384,1.676-0.743,2.54-1.061l4.076,6.498l-0.221-7.657c0.888-0.213,1.787-0.398,2.7-0.541
	l2.728,7.163l1.276-7.548c0.458-0.018,0.916-0.035,1.378-0.035c0.462,0,0.92,0.017,1.378,0.035l1.276,7.548l2.728-7.163
	c0.913,0.143,1.812,0.328,2.701,0.541l-0.221,7.657l4.076-6.498c0.865,0.319,1.71,0.677,2.54,1.061l-1.711,7.468l5.261-5.573
	c0.784,0.481,1.545,0.996,2.287,1.536l-3.133,6.987l6.241-4.436c0.675,0.624,1.325,1.274,1.949,1.949l-4.436,6.241l6.987-3.133
	c0.54,0.741,1.055,1.502,1.536,2.287l-5.573,5.261l7.468-1.711c0.384,0.831,0.743,1.675,1.061,2.54l-6.498,4.076l7.657-0.221
	c0.213,0.888,0.398,1.787,0.541,2.701l-7.163,2.728l7.548,1.276c0.018,0.458,0.035,0.916,0.035,1.378
	c0,0.462-0.017,0.92-0.035,1.378l-7.548,1.276l7.163,2.728c-0.143,0.913-0.328,1.812-0.541,2.701l-7.657-0.221l6.498,4.076
	c-0.319,0.865-0.677,1.71-1.061,2.54l-7.468-1.711l5.573,5.261c-0.481,0.784-0.996,1.545-1.536,2.287l-6.987-3.133l4.436,6.241
	C224.535,289.555,223.885,290.205,223.21,290.828z"/>
</svg>
