<svg width="400" height="400" viewBox="0 0 400 400" fill="none" xmlns="http://www.w3.org/2000/svg">
<path fill-rule="evenodd" clip-rule="evenodd" d="M206.229 71.2265C206.462 71.9674 207.224 74.1332 207.923 76.0396C217.475 102.083 205.97 127.03 166.372 166.144C149.171 183.136 141.885 193.445 140.101 203.314L139.578 206.213L134.174 201.115C122.641 190.236 107.6 190.566 103.976 201.779C103.39 203.594 102.184 204.786 99.5157 206.191C95.0907 208.522 94.8541 210.151 98.7436 211.518C108.908 215.091 115.943 222.853 124.719 240.183C145.584 281.385 169.235 297.347 215.226 301.266C232.426 302.731 236.708 303.212 238.396 303.869C239.419 304.266 242.854 305.215 246.032 305.975C258.063 308.858 268.193 315.144 276.385 324.809C282.099 331.552 283.958 331.74 281.182 325.293C280.607 323.958 278.837 319.747 277.249 315.936C268.161 294.116 256.78 279.683 240.075 268.791C229.628 261.98 230.255 263.317 232.422 252.446L234.178 243.637L237.062 248.884C241.232 256.47 249.608 267.032 251.453 267.032C252.596 267.032 252.285 250.374 251.037 244.698C249.16 236.164 249.543 235.641 255.502 238.609C265.147 243.41 279.146 246.814 279.146 244.356C279.146 242.764 274.259 233.241 270.66 227.822C266.499 221.559 266.473 221.6 274.718 221.554C295.681 221.438 297.1 219.968 286.836 208.997C281.104 202.868 281.079 203.129 287.811 198.701C294.99 193.979 300.903 188.336 300.305 186.778C299.819 185.512 292.559 181.555 290.688 181.535C286.927 181.497 287.332 180.102 292.767 174.381C297.572 169.322 300.859 164.592 304.491 157.507C306.451 153.686 301.59 151.385 294.789 152.913C289.9 154.011 289.553 153.264 292.207 147.349C297.857 134.755 298.509 121.747 294.014 111.273C293.332 109.685 292.524 108.385 292.217 108.385C291.418 108.385 289.87 110.379 290.319 110.828C292.962 113.471 280.16 134.886 271.724 141.933C262.39 149.731 249.308 156.594 250.897 152.86C259.935 131.616 259.752 128.381 249.648 130.666C243.699 132.012 242.531 132.029 242.804 130.773C245.505 118.319 245.309 102.015 242.446 100.917C241.039 100.376 237.111 102.464 233.237 105.812C229.656 108.907 229.088 108.987 229.088 106.395C229.088 99.3693 223.489 84.9331 218.504 79.1103C212.964 72.6368 205.08 67.5736 206.229 71.2265ZM279.126 149.887C272.398 160.821 256.104 171.165 239.56 175.004C238.672 175.209 234.653 176.259 230.628 177.337C226.605 178.415 219.501 180.293 214.841 181.513C196.877 186.215 192.316 187.672 186.73 190.494C176.986 195.417 169.625 204.25 166.193 215.136C164.614 220.148 162.363 221.687 159.426 219.762C156.849 218.075 156.923 216.076 159.834 208.714C167.101 190.332 180.046 181.451 206.755 176.525C210.355 175.861 214.553 174.987 216.082 174.582C217.612 174.179 221.944 173.315 225.708 172.665C249.376 168.574 266.867 160.537 277.433 148.899C281.006 144.963 281.852 145.457 279.126 149.887ZM121.27 203.101C122.162 203.67 122.232 204.149 121.576 205.206C120.46 207.009 117.547 207.42 116.949 205.86C115.855 203.011 118.489 201.328 121.27 203.101Z" fill="#0000FF"/>
</svg>
