<svg width="400" height="400" viewBox="0 0 400 400" fill="none" xmlns="http://www.w3.org/2000/svg">
<path fill-rule="evenodd" clip-rule="evenodd" d="M262.191 72.9318C260.873 74.3699 259.794 76.4801 259.794 77.6209C259.794 79.0625 257.768 81.6544 253.164 86.1073C245.68 93.3448 237.29 105.469 231.414 117.535C229.24 121.999 226.893 126.686 226.198 127.951C224.344 131.323 226.323 132.862 230.04 130.938C232.02 129.915 233.791 127.359 237.169 120.639C252.623 89.9058 266.013 79.4103 283.553 84.2815C287.612 85.4082 287.625 85.2661 282.974 90.4404C280.858 92.7949 277.925 96.5793 276.458 98.8516C274.99 101.123 273.485 103.374 273.113 103.854C270.587 107.109 262.791 122.745 259.463 131.232L257.275 136.812L258.988 140.169C261.185 144.475 262.109 144.401 263.333 139.821C265.664 131.103 275.599 111.239 282.411 101.674C289.261 92.0571 290.955 90.5696 295.757 89.9528C301.028 89.2761 304.274 87.0331 304.234 84.0959C304.193 80.9459 294.379 74.2689 288.16 73.1598C287.218 72.9918 285.563 72.2762 284.485 71.5689C280.4 68.8925 265.035 69.8324 262.191 72.9318ZM225.353 135.385C222.486 136.164 215.684 144.584 217.269 145.39C217.4 145.456 220.448 145.603 224.045 145.717C235.687 146.084 249.936 150.917 254.768 156.134C257.717 159.32 258.927 158.454 259.577 152.697C260.615 143.474 237.889 131.978 225.353 135.385ZM217.792 151.074C217.001 151.959 215.682 155.036 214.861 157.913C214.039 160.791 213.13 163.536 212.84 164.016C212.548 164.496 211.242 168.027 209.937 171.864C208.631 175.7 206.62 181.389 205.467 184.506C202.556 192.381 202.726 191.895 199.719 200.812C196.454 210.496 196.429 209.273 199.945 211.348C208.406 216.341 209.98 224.081 209.783 259.71C209.714 272.058 209.918 282.163 210.234 282.161C210.942 282.161 219.176 266.864 220.09 263.852C220.453 262.652 221.26 260.495 221.882 259.056C222.505 257.618 223.771 254.086 224.696 251.208C225.62 248.331 228.163 240.68 230.346 234.206C232.528 227.732 235.593 218.316 237.156 213.28C238.72 208.244 240.196 203.536 240.438 202.817C240.68 202.097 240.939 201.116 241.013 200.637C241.087 200.157 241.395 199.176 241.697 198.457C243.372 194.471 249.592 169.487 249.985 165.168C250.431 160.244 250.352 160.003 247.373 157.194C240.94 151.128 221.368 147.078 217.792 151.074ZM132.493 204.561C116.422 206.639 105.167 211.055 98.9214 217.733L95.0007 221.925V246.826V271.727L97.7171 281.522C104.19 304.864 116.559 318.768 136.416 325.025C141.212 326.536 145.509 328.104 145.964 328.508C152.685 334.486 170.965 321.539 176.802 306.667C181.142 295.607 183.601 259.621 181.293 240.915C180.887 237.617 180.913 237.586 185.245 236.037C205.544 228.776 209.235 219.591 194.577 212.812C191.842 211.548 189.015 210.217 188.296 209.856C185.713 208.559 165.976 204.496 162.575 204.561C161.615 204.58 155.73 204.422 149.495 204.212C143.261 204 135.61 204.158 132.493 204.561ZM163.882 213.565C165.56 213.779 167.522 214.15 168.241 214.39C168.961 214.629 171.674 215.27 174.271 215.814C200.908 221.396 173.854 235.314 141.787 232.526C126.222 231.173 116.365 227.977 115.356 223.955C114.648 221.133 118.672 217.02 123.296 215.839C125.237 215.343 127.414 214.7 128.133 214.41C128.852 214.121 130.121 213.967 130.952 214.069C131.782 214.173 133.155 213.841 134.003 213.335C135.466 212.461 156.513 212.623 163.882 213.565Z" fill="#0000FF"/>
</svg>
