<svg width="400" height="400" viewBox="0 0 400 400" fill="none" xmlns="http://www.w3.org/2000/svg">
<path fill-rule="evenodd" clip-rule="evenodd" d="M179.202 71.5282C177.718 73.0248 177.063 73.1903 176.449 72.2229C175.932 71.4088 175.639 71.9325 175.628 73.6882C175.601 78.6392 181.691 79.8901 184.435 75.4968C187.096 71.2365 182.758 67.9449 179.202 71.5282ZM194.241 84.2169C195.348 84.5073 196.708 85.2033 197.261 85.7664C197.94 86.4543 197.611 86.594 196.254 86.1951C193.86 85.4882 192.382 86.3389 191.242 89.0797C190.491 90.8855 190.362 90.9113 189.983 89.3307C189.538 87.4691 187.696 86.8599 187.696 88.5763C187.696 89.1299 186.633 89.583 185.335 89.583C182.459 89.583 179.64 92.4866 179.64 95.4511C179.64 96.6533 179.187 97.6383 178.634 97.6383C176.744 97.6383 177.623 100.277 180.396 102.927C184.925 107.255 192.636 105.702 194.793 100.026C195.259 98.8024 196.877 97.1987 198.39 96.4606C204.909 93.283 202.945 84.2441 195.652 83.8682C193.769 83.7705 193.134 83.9279 194.241 84.2169ZM214.951 91.2329C210.891 95.4416 211.535 97.9395 216.811 98.4619C220.981 98.8743 222.937 97.1878 222.937 93.1853C222.937 86.8437 219.899 86.1015 214.951 91.2329ZM148.428 89.3619C148.428 89.7947 147.068 90.6603 145.406 91.2885C142.949 92.2152 142.386 93.0076 142.386 95.5366C142.386 97.2462 141.933 98.645 141.379 98.645C140.825 98.645 140.372 97.6478 140.372 96.4294C140.372 94.766 140.085 94.5014 139.22 95.367C137.414 97.1729 140.068 102.373 143.728 104.198C152.377 108.514 160.101 98.1607 153.486 91.1176C151.193 88.678 148.428 87.7174 148.428 89.3619ZM161.881 98.1417C161.076 100.242 162.265 102.924 163.782 102.426C165.761 101.776 166.016 96.6302 164.07 96.6302C163.184 96.6302 162.2 97.31 161.881 98.1417ZM205.82 99.6518L208.338 100.458L205.82 100.717C204.436 100.861 202.521 100.914 201.568 100.835C200.612 100.756 199.351 101.591 198.763 102.688C197.442 105.158 198.542 105.307 200.505 102.924C201.88 101.255 201.926 101.261 201.371 103.006C201.049 104.021 200.786 105.46 200.786 106.206C200.786 106.953 200.087 108.262 199.233 109.115C197.189 111.159 199.199 114.456 204.091 117.087C209.208 119.838 214.849 116.211 217.201 108.661C218.736 103.728 213.142 98.5378 206.51 98.7454C203.445 98.8404 203.414 98.8811 205.82 99.6518ZM227.72 103.76C226.751 104.325 225.959 105.307 225.959 105.945C225.959 106.79 226.284 106.776 227.166 105.894C229.454 103.607 230.128 104.69 228.056 107.324C226.604 109.17 226.168 110.758 226.603 112.61C227.032 114.435 226.899 114.946 226.173 114.251C225.595 113.697 224.918 112.111 224.67 110.727C224.335 108.858 224.184 109.162 224.081 111.913C223.809 119.27 231.916 123.641 237.68 119.245C247.618 111.665 238.495 97.4836 227.72 103.76ZM235.524 104.685C236.259 105.877 235.274 105.877 232.502 104.685C230.561 103.851 230.568 103.818 232.695 103.749C233.908 103.711 235.181 104.132 235.524 104.685ZM143.904 113.737C143.543 114.319 144.042 114.494 145.102 114.157C146.816 113.616 146.814 113.667 145.067 115.1C142.698 117.04 143.277 120.202 146.075 120.602C148.988 121.018 151.734 117.171 150.358 114.6C149.307 112.635 144.945 112.051 143.904 113.737ZM188.451 114.458C189.697 114.699 190.717 115.354 190.717 115.916C190.717 116.477 190.15 116.734 189.458 116.485C187.56 115.804 184.689 117.62 184.575 119.574C184.513 120.654 184.19 120.358 183.712 118.783L182.951 116.266L182.217 118.94C180.79 124.145 182.718 125.59 189.574 124.455C194.231 123.685 195.728 123.008 196.126 121.487C196.815 118.85 191.668 113.701 188.529 113.884L186.186 114.023L188.451 114.458ZM167.809 117.301C171.496 119.358 171.304 119.696 166.797 119.091C162.069 118.456 159.1 121.244 159.1 126.319C159.1 128.195 158.738 129.504 158.294 129.23C157.852 128.957 157.476 127.287 157.458 125.519C157.433 122.767 157.275 122.571 156.361 124.142C155.775 125.151 155.57 127.077 155.908 128.421C156.868 132.25 141.851 132.239 140.395 128.409C139.142 125.113 135.538 123.131 134.712 125.284C134.383 126.139 133.539 126.838 132.835 126.838C132.132 126.838 130.975 127.539 130.264 128.395C129.23 129.64 128.804 129.691 128.142 128.648C127.525 127.676 127.309 127.793 127.298 129.104C127.285 130.642 126.198 130.865 118.723 130.865C108.404 130.865 105.815 132.506 106.332 138.722C106.6 141.942 107.032 142.503 109.577 142.943C115.017 143.884 121.431 158.414 118.589 163.354C117.638 165.008 104.64 174.161 103.242 174.161C101.133 174.161 97.0757 178.515 97.0757 180.78C97.0757 182.157 96.4842 183.223 95.7203 183.223C93.3229 183.223 87.1169 190.174 85.9066 194.216C81.5066 208.899 101.073 224.639 112.821 215.869C119.674 210.751 121.992 200.558 118.082 192.728C115.612 187.783 116.107 185.238 119.537 185.238C127.428 185.238 127.579 204.982 119.759 214.235C111.817 223.631 90.8142 225.056 85.5607 216.554C83.6259 213.424 82.9814 216.507 83.0004 228.786C83.0479 257.426 92.2347 280.578 111.561 300.761L116.604 306.028L114.795 313.003C111.831 324.43 114.411 329.727 122.94 329.727C127.624 329.727 128.731 328.914 135.008 320.876L137.196 318.073L143.485 320.193C146.945 321.358 151.171 322.404 152.876 322.519C154.583 322.633 156.545 323.083 157.237 323.517C157.928 323.951 161.142 324.437 164.378 324.594C167.614 324.751 170.767 325.192 171.383 325.574C173.39 326.814 208.096 327.386 216.897 326.324C221.603 325.755 227.916 325.03 230.926 324.711C233.934 324.39 236.896 323.715 237.505 323.209C238.114 322.703 241.406 321.84 244.817 321.29C248.229 320.741 252.036 319.748 253.276 319.084C255.268 318.018 255.808 318.217 257.883 320.781C263.77 328.055 265.011 329.092 268.651 329.774C277.169 331.373 281.522 324.336 278.793 313.379L276.955 305.991L281.526 301.245C292.101 290.267 298.726 279.561 303.467 265.789C304.705 262.19 305.967 258.564 306.27 257.734C306.571 256.904 306.906 255.771 307.015 255.217C307.122 254.662 307.336 253.983 307.492 253.706C307.647 253.429 307.92 252.296 308.096 251.189C308.274 250.082 308.933 247.136 309.56 244.644C310.187 242.153 310.792 235.129 310.903 229.038C311.071 219.885 311.485 217.243 313.284 213.828C319.642 201.766 315.258 186.448 303.654 180.175C301.625 179.078 298.832 177.306 297.448 176.239C296.063 175.169 293.205 174.085 291.095 173.827C288.987 173.571 286.494 172.686 285.558 171.861C284.621 171.038 281.525 169.197 278.678 167.771C271.574 164.212 270.932 159.797 276.054 149.744C279.305 143.362 279.726 142.948 282.944 142.948H286.372V137.973C286.372 135.236 285.895 132.703 285.313 132.344C284.644 131.93 284.366 132.743 284.557 134.55L284.861 137.41L271.269 138.223C253.94 139.259 203.77 138.28 202.368 136.878C198.271 132.779 201.648 132.387 243.085 132.14C264.844 132.01 282.881 131.669 283.168 131.384C283.453 131.099 279.986 130.865 275.464 130.865C270.851 130.865 267.24 130.439 267.24 129.893C267.24 125.684 254.934 117.899 253.065 120.925C252.598 121.679 250.979 122.392 249.465 122.508C247.952 122.624 245.388 123.7 243.768 124.896C241.521 126.558 240.636 126.773 240.037 125.803C239.487 124.912 238.759 125.484 237.613 127.698C235.622 131.55 228.177 132.391 225.763 129.037C224.014 126.606 220.924 125.467 220.924 127.256C220.924 128.005 219.787 128.834 218.397 129.1C216.476 129.467 216.119 129.284 216.903 128.34C217.674 127.41 217.101 126.903 214.647 126.334C210.307 125.33 209.661 125.146 207.582 124.31C204.642 123.128 205.615 125.355 208.589 126.617C211.189 127.72 211.111 127.758 207.33 127.237C203.177 126.664 199.952 124.824 203.102 124.824C204.042 124.824 204.813 124.371 204.813 123.818C204.813 123.263 203.695 122.809 202.327 122.809C200.648 122.809 200.013 123.253 200.367 124.177C200.767 125.22 199.629 125.549 195.552 125.565C192.615 125.577 187.495 126.569 184.172 127.77C175.24 130.996 173.732 131.334 175.65 129.682C177.11 128.424 177.175 127.315 176.09 122.179C175.561 119.678 172.334 117.363 168.062 116.422L165.041 115.756L167.809 117.301ZM114.976 176.736C120.51 180.613 116.276 187.013 109.123 185.583C104.656 184.69 101.218 178.409 103.788 175.84C105.067 174.56 112.748 175.176 114.976 176.736ZM270.543 178.538C280.951 188.946 281.26 213.431 270.984 213.431C261.601 213.431 253.158 193.401 257.619 181.721C260.467 174.264 265.122 173.118 270.543 178.538ZM304.856 190.246C308.871 194.689 309.826 197.311 309.348 202.574C309.043 205.944 308.785 205.617 304.311 196.185C299.18 185.372 299.299 184.094 304.856 190.246ZM89.8753 194.301C88.7925 197.41 87.007 199.304 87.007 197.345C87.007 196.253 89.9485 191.279 90.5944 191.279C90.7789 191.279 90.456 192.639 89.8753 194.301ZM274.007 307.148C276.762 312.544 278.206 318.821 276.441 317.73C274.965 316.817 270.784 308.547 269.858 304.708C268.81 300.362 271.284 301.818 274.007 307.148ZM135.143 311.855C133.9 316.377 130.731 322.799 129.31 323.677C127.306 324.916 128.338 320.009 131.324 314.091C134.758 307.289 136.714 306.144 135.143 311.855Z" fill="#FF0000"/>
</svg>
