<svg width="400" height="400" viewBox="0 0 400 400" fill="none" xmlns="http://www.w3.org/2000/svg">
<path fill-rule="evenodd" clip-rule="evenodd" d="M133.313 71.3742C116.747 76.3379 109.223 87.3191 109.689 105.856C110.083 121.485 116.156 130.761 130.152 137.106C136.196 139.847 137.218 141.086 138.057 146.694C139.24 154.598 143.118 164.369 147.192 169.705C153.415 177.859 153.659 177.438 140.054 182.081C101.548 195.226 70.2886 228.161 84.4876 240.629C90.3812 245.803 104.439 245.537 120.188 239.953C135.812 234.412 136.218 234.519 134.342 243.638C133.372 248.356 132.77 248.893 127.579 249.671C108.691 252.504 97.7866 271.943 103.953 291.789C114.88 326.961 157.813 342.177 179.631 318.61L184.527 313.322L199.825 313.261L215.123 313.199L221.099 319.229C241.686 340.004 278.723 329.433 293.328 298.615C303.931 276.239 293.852 252.909 272.179 249.659C267.05 248.89 265.986 247.776 265.248 242.404C264.27 235.298 265.399 234.87 275.322 238.586C306.917 250.421 325.505 243.536 316.293 223.414C313.802 217.973 298.855 202.265 291.985 197.869C285.878 193.961 275.639 188.166 274.842 188.166C274.439 188.166 272.288 187.242 270.061 186.115C267.835 184.986 262.215 182.842 257.574 181.35C246.651 177.838 246.91 178.405 252.429 170.11C255.051 166.17 257.196 162.523 257.196 162.006C257.196 161.489 257.971 159.578 258.92 157.759C259.867 155.941 260.857 152.396 261.118 149.885C261.975 141.629 262.717 140.28 267.612 138.062C283.394 130.913 291.136 119.896 291.136 104.587C291.136 72.5957 253.048 58.3155 230.334 81.7922C224.593 87.7246 223.668 88.0087 216.815 85.9286C213.921 85.0513 208.764 84.6658 199.921 84.6658C191.079 84.6658 185.921 85.0513 183.028 85.9286C176.11 88.0275 175.239 87.7496 169.064 81.4656C159.32 71.5494 145.627 67.6846 133.313 71.3742ZM155.316 92.254C159.61 94.4442 159.7 96.1476 155.724 99.9661C150.502 104.98 142.761 115.887 141.445 120.086C137.345 133.16 135.043 134.308 129.629 125.979C116.944 106.467 135.479 82.1339 155.316 92.254ZM261.827 92.1902C276.872 98.891 278.827 123.826 264.891 131.284C262.907 132.345 263.188 132.769 259.428 123.016C255.93 113.939 253.447 110.09 246.248 102.592C240.615 96.7221 240.26 95.8284 242.702 93.6194C246.959 89.7671 255.031 89.1639 261.827 92.1902ZM179.123 114.765C185.105 117.858 186.177 125.289 181.339 130.127C175.925 135.542 169.635 133.489 168.503 125.94C167.1 116.584 172.222 111.195 179.123 114.765ZM229.304 115.717C233.169 119.214 233.244 127.035 229.449 130.83C223.974 136.305 216.467 131.938 216.467 123.279C216.467 114.947 223.729 110.671 229.304 115.717ZM171.881 119.822C169.243 122.46 169.263 123.761 171.995 127.007C174.702 130.225 176.764 130.315 179.119 127.321C183.532 121.712 176.883 114.821 171.881 119.822ZM220.397 120.308C218.054 123.092 218.172 124.584 220.984 127.709C223.432 130.428 226.316 130.18 227.9 127.115C231.401 120.348 225.14 114.669 220.397 120.308ZM215.296 139.711C227.653 145.117 229.643 154.247 221.234 166.955C207.367 187.908 171.43 175.985 174.341 151.396C175.073 145.219 179.057 141.598 188.89 138.174C193.513 136.564 210.342 137.543 215.296 139.711ZM194.83 141.639C186.742 146.112 187.183 150.602 196.465 158.245C199.064 160.386 198.89 162.579 195.858 165.892C193.48 168.491 190.521 168.29 187.558 165.328C184.975 162.744 183.498 163.164 185.04 166.043C187.323 170.311 192.44 171.516 196.103 168.65C198.816 166.528 200.81 166.528 203.508 168.65C208.038 172.214 215.695 168.619 215.591 162.978C215.57 161.833 214.896 162.254 212.963 164.619C211.044 166.968 209.719 167.802 207.9 167.802C202.266 167.802 199.695 159.965 204.376 157.058C210.125 153.488 212.269 148.87 209.879 145.21C207.471 141.528 198.767 139.462 194.83 141.639ZM208.831 212.797C225.613 215.414 239.353 228.81 242.069 245.205C243.255 252.36 243.233 252.405 235.647 258.63C227.457 265.352 219.621 274.853 217.145 281.06C216.073 283.75 214.183 287.05 212.945 288.393L210.696 290.836H199.729C186.833 290.836 187.468 291.229 181.876 279.805C178.064 272.02 168.236 260.84 161.418 256.537C157.204 253.877 156.709 252.179 157.923 244.564C161.383 222.854 183.764 208.888 208.831 212.797ZM183.706 232.315C170.59 235.097 169.664 249.609 181.918 260.335C185.286 263.283 190.662 268.318 193.866 271.522C197.069 274.728 199.825 277.234 199.99 277.093C210.636 267.98 225.923 251.959 226.69 249.111C230.358 235.489 212.737 226.405 202.955 236.875C200.467 239.537 198.322 239.684 196.654 237.302C193.878 233.34 188.55 231.287 183.706 232.315ZM273.146 257.407C273.626 263.845 267.338 267.912 262.99 263.977C261.272 262.421 260.911 257.769 262.309 255.158C265.303 249.564 272.677 251.094 273.146 257.407ZM136.888 254.411C140.405 259.142 138.169 265.393 132.969 265.367C129.868 265.352 128.815 264.753 127.5 262.255C123.6 254.844 131.996 247.829 136.888 254.411ZM120.962 263.024C123.699 266.932 121.522 272.169 117.161 272.169C115.332 272.169 111.252 267.789 111.252 265.825C111.252 261.388 118.376 259.333 120.962 263.024ZM286.896 262.413C289.535 265.594 286.321 272.169 282.128 272.169C279.955 272.169 277.561 269.277 277.561 266.654C277.561 262.035 284.112 259.059 286.896 262.413ZM146.65 267.945C174.094 274.278 185.382 309.034 163.733 320.538C149.917 327.88 126.918 316.755 121.196 299.961C117.059 287.825 117.176 289.309 119.823 282.417C124.41 270.476 134.358 265.109 146.65 267.945ZM268.711 269.564C279.385 274.281 283.937 285.959 279.738 297.859C268.698 329.139 225.004 331.371 224.961 300.656C224.931 279.421 250.267 261.415 268.711 269.564ZM115.079 278.428C116.769 281.008 115.326 284.694 112.332 285.445C108.371 286.438 104.379 280.229 107.178 277.43C108.998 275.611 113.616 276.194 115.079 278.428ZM293.258 279.714C293.258 283.672 289.669 286.508 286.494 285.062C281.581 282.824 284.223 276.169 289.86 276.585C293.107 276.825 293.258 276.963 293.258 279.714Z" fill="#0000FF"/>
</svg>
