<svg width="400" height="400" viewBox="0 0 400 400" fill="none" xmlns="http://www.w3.org/2000/svg">
<path style="fill:#0000FF;" d="M349.674,219.457c-0.18-0.315-0.428-0.675-0.54-0.81c-0.124-0.135-0.315-0.563-0.416-0.956
	c-0.214-0.799-1.136-2.261-2.149-3.42c-0.338-0.394-0.743-0.866-0.889-1.058c-0.146-0.203-0.383-0.405-0.518-0.473
	c-0.146-0.068-0.349-0.293-0.473-0.518c-0.112-0.225-0.416-0.563-0.664-0.754c-0.259-0.18-0.551-0.518-0.675-0.731
	c-0.112-0.214-0.416-0.518-0.653-0.686c-0.236-0.158-0.574-0.495-0.731-0.731c-0.169-0.236-0.484-0.54-0.72-0.664
	c-0.225-0.124-0.45-0.315-0.473-0.416c-0.112-0.349-0.529-0.765-0.9-0.923c-0.214-0.09-0.461-0.304-0.551-0.484
	c-0.09-0.169-0.36-0.439-0.585-0.596c-0.236-0.158-0.608-0.473-0.833-0.709c-0.225-0.236-0.664-0.619-0.979-0.844
	c-1.451-1.046-2.138-1.586-2.723-2.115c-0.349-0.315-0.788-0.63-0.99-0.698c-0.191-0.067-0.563-0.326-0.81-0.574
	c-0.248-0.247-0.664-0.563-0.934-0.698c-0.473-0.236-0.754-0.439-1.474-1.013c-0.203-0.158-0.54-0.349-0.754-0.428
	c-0.214-0.068-0.54-0.281-0.731-0.461c-0.18-0.18-0.63-0.473-0.99-0.664c-0.36-0.191-1.024-0.596-1.463-0.911
	c-0.439-0.304-0.889-0.563-0.99-0.563s-0.405-0.18-0.664-0.394c-0.259-0.214-0.54-0.394-0.619-0.394
	c-0.079,0-0.293-0.124-0.473-0.27c-0.18-0.146-0.529-0.326-0.776-0.394c-0.259-0.068-0.551-0.225-0.664-0.349
	c-0.214-0.236-1.676-1.013-1.901-1.013c-0.079,0-0.349-0.146-0.608-0.326c-0.619-0.461-1.699-1.024-1.935-1.024
	c-0.113,0-0.326-0.101-0.495-0.236c-0.405-0.315-1.969-1.114-2.194-1.114c-0.101,0-0.326-0.101-0.517-0.236
	c-0.574-0.383-1.778-0.968-2.306-1.114c-0.27-0.079-0.641-0.259-0.821-0.405c-0.18-0.146-0.383-0.27-0.461-0.27
	c-0.079,0-0.382-0.124-0.664-0.27c-0.281-0.158-0.709-0.315-0.934-0.36c-0.27-0.045-0.596-0.248-0.934-0.563
	c-0.844-0.799-1.631-1.294-2.453-1.508c-0.968-0.259-2.16-0.754-2.453-1.013c-0.292-0.259-1.553-0.844-2.16-1.001
	c-0.259-0.079-0.619-0.247-0.788-0.394c-0.169-0.146-0.439-0.304-0.585-0.349c-0.158-0.045-0.506-0.202-0.776-0.349
	c-0.281-0.146-0.619-0.27-0.765-0.27c-0.135,0-0.394-0.124-0.574-0.259c-0.169-0.146-0.484-0.326-0.686-0.394
	c-0.202-0.068-0.506-0.225-0.675-0.338c-0.169-0.124-0.506-0.248-0.754-0.292c-0.236-0.045-0.585-0.214-0.765-0.36
	c-0.18-0.146-0.382-0.27-0.461-0.27c-0.079,0-0.36-0.146-0.641-0.326c-0.27-0.18-0.675-0.349-0.9-0.394
	c-0.225-0.045-0.495-0.169-0.619-0.304c-0.112-0.124-0.427-0.326-0.709-0.45c-0.281-0.124-0.585-0.293-0.686-0.371
	c-0.09-0.079-0.653-0.203-1.249-0.259c-0.821-0.079-1.17-0.169-1.384-0.349c-0.169-0.124-0.461-0.27-0.664-0.315
	c-0.203-0.034-0.563-0.191-0.81-0.326c-0.247-0.146-0.653-0.292-0.9-0.338c-0.247-0.045-1.001-0.349-1.688-0.675
	c-2.104-1.013-2.745-1.283-3.184-1.361c-0.225-0.034-0.585-0.169-0.799-0.293c-0.214-0.124-0.664-0.27-1.013-0.326
	c-0.349-0.068-0.81-0.225-1.024-0.349c-0.596-0.349-1.901-0.889-2.475-1.013c-0.45-0.09-1.643-0.607-2.475-1.046
	c-0.158-0.079-0.641-0.236-1.069-0.338c-0.428-0.101-0.99-0.304-1.26-0.45c-0.259-0.158-0.54-0.281-0.63-0.281
	s-0.394-0.124-0.686-0.281c-0.293-0.158-0.664-0.281-0.833-0.281c-0.169,0-0.585-0.135-0.923-0.293
	c-1.181-0.551-2.554-1.058-3.071-1.125c-0.293-0.045-0.686-0.191-0.889-0.338c-0.191-0.146-0.439-0.27-0.529-0.27
	c-0.101,0-0.405-0.112-0.686-0.236c-0.281-0.135-0.833-0.326-1.238-0.428c-0.698-0.18-0.754-0.225-1.159-0.833l-0.428-0.641h-1.553
	c-1.418,0-1.598-0.022-2.093-0.281c-0.304-0.146-0.709-0.304-0.889-0.349c-0.191-0.034-0.574-0.169-0.855-0.304
	c-0.281-0.124-0.889-0.293-1.35-0.371c-0.788-0.146-0.878-0.191-1.35-0.686c-0.99-1.069-1.845-1.418-2.408-0.99
	c-0.304,0.236-1.159,0.214-1.699-0.045c-0.248-0.113-0.821-0.326-1.271-0.473c-0.45-0.146-1.035-0.371-1.294-0.495
	c-0.461-0.225-0.472-0.236-0.607-1.046c-0.18-1.114-0.923-2.408-1.62-2.88c-0.27-0.191-0.529-0.394-0.585-0.473
	c-0.045-0.079-0.394-0.338-0.788-0.574l-0.698-0.428l-2.464-0.011c-2.79-0.011-2.768-0.011-2.768-0.9c0-0.383-0.09-0.596-0.529-1.17
	c-0.686-0.911-0.821-1.125-0.821-1.418c0-0.135-0.09-0.36-0.214-0.506c-0.112-0.146-0.293-0.45-0.405-0.664
	c-0.101-0.214-0.281-0.495-0.394-0.619c-0.113-0.124-0.259-0.416-0.315-0.641c-0.068-0.225-0.338-0.709-0.619-1.069
	c-0.27-0.36-0.585-0.821-0.686-1.013c-0.349-0.686-0.754-1.204-1.316-1.688c-0.315-0.259-1.114-1.035-1.778-1.71
	c-0.664-0.675-1.406-1.328-1.654-1.451c-0.248-0.124-0.518-0.315-0.596-0.405c-0.09-0.101-0.349-0.214-0.596-0.248
	c-0.248-0.045-0.641-0.236-0.878-0.428c-0.247-0.191-0.551-0.428-0.686-0.529c-0.36-0.247-0.203-0.517,0.371-0.664
	c0.833-0.202,2.036-0.709,2.52-1.046c0.45-0.315,1.575-0.675,2.689-0.866c0.709-0.112,1.024-0.236,1.575-0.608
	c0.236-0.158,0.518-0.293,0.641-0.293c0.112,0,0.551-0.124,0.968-0.259c0.416-0.146,0.945-0.304,1.193-0.349
	c0.236-0.045,0.698-0.202,1.024-0.349c0.326-0.135,0.799-0.293,1.058-0.338c0.247-0.045,0.574-0.169,0.72-0.292
	c0.574-0.439,2.115-1.091,2.925-1.226c0.911-0.158,2.205-0.585,2.723-0.9c0.18-0.112,0.563-0.236,0.844-0.281
	c0.517-0.079,2.633-0.878,2.903-1.103c0.079-0.068,0.461-0.18,0.844-0.259c0.698-0.135,1.688-0.506,2.723-1.001
	c0.315-0.158,0.787-0.304,1.069-0.349c0.281-0.034,0.72-0.191,0.979-0.337c0.259-0.146,0.54-0.27,0.63-0.27s0.428-0.146,0.765-0.326
	c0.338-0.18,0.821-0.36,1.091-0.405c0.461-0.079,1.733-0.574,2.88-1.136c0.315-0.146,0.675-0.27,0.81-0.27
	c0.146,0,0.495-0.124,0.788-0.281c0.293-0.158,0.585-0.281,0.664-0.281c0.079,0,0.338-0.135,0.574-0.304
	c0.236-0.158,0.63-0.337,0.855-0.394c0.383-0.079,1.058-0.394,2.396-1.08c0.247-0.135,0.686-0.315,0.968-0.416
	c0.281-0.09,0.821-0.36,1.181-0.574c0.36-0.225,1.012-0.551,1.429-0.72c0.416-0.18,1.08-0.529,1.474-0.776
	c0.383-0.259,0.776-0.461,0.878-0.461c0.191,0,1.204-0.518,2.003-1.013c0.281-0.18,0.709-0.371,0.956-0.439
	c0.247-0.068,0.754-0.304,1.125-0.517c0.371-0.214,0.9-0.495,1.181-0.619c1.035-0.461,1.53-0.731,1.913-1.013
	c0.214-0.169,0.574-0.371,0.788-0.45c0.675-0.259,1.586-0.81,1.721-1.035c0.079-0.112,0.326-0.259,0.562-0.326
	c0.236-0.056,0.686-0.315,1.013-0.551c0.326-0.247,0.866-0.596,1.204-0.776c0.337-0.18,0.889-0.563,1.215-0.844
	c0.338-0.281,0.698-0.518,0.799-0.518c0.113,0,0.383-0.124,0.608-0.27c0.214-0.146,0.518-0.304,0.653-0.349
	c0.146-0.045,0.45-0.236,0.664-0.405c0.214-0.18,0.484-0.326,0.608-0.326c0.281,0,1.834-0.754,2.228-1.069
	c0.333-0.266,0.64-0.272,0.743-0.315c2.197-0.926,2.838-3.146,5.296-4.154c0.4-0.164,1.216-0.424,2.849-0.942
	c0.61-0.194,0.7-0.268,1.046-0.337c0.788-0.158,1.924-0.619,2.475-0.99c0.214-0.146,0.574-0.304,0.799-0.349
	c0.45-0.079,1.238-0.45,2.081-0.979c0.326-0.203,0.765-0.349,1.125-0.394c0.337-0.034,0.833-0.191,1.103-0.337
	c0.27-0.135,0.585-0.259,0.686-0.259c0.113,0,0.383-0.135,0.619-0.293c0.236-0.158,0.776-0.36,1.193-0.45
	c0.405-0.079,1.024-0.281,1.35-0.439c0.338-0.158,0.698-0.281,0.81-0.281c0.112,0,0.416-0.124,0.675-0.27
	c0.259-0.146,0.742-0.304,1.08-0.349c0.326-0.045,1.013-0.225,1.519-0.405c0.495-0.18,0.99-0.326,1.08-0.326s0.563-0.158,1.058-0.36
	c0.743-0.292,0.9-0.405,1.035-0.72c0.095-0.223,0.13-0.417,0.14-0.557c0.111-1.458,0.166-2.187-0.264-2.526
	c-0.352-0.276-1.016-0.222-2.273,0.158c-0.484,0.146-1.08,0.304-1.328,0.349c-0.247,0.034-0.844,0.191-1.339,0.349
	c-0.517,0.158-1.294,0.304-1.913,0.338c-0.563,0.034-1.474,0.157-2.036,0.281c-0.551,0.112-1.598,0.281-2.306,0.382
	c-0.709,0.09-1.778,0.259-2.363,0.383c-0.585,0.124-1.879,0.281-2.869,0.349c-0.99,0.056-2.003,0.169-2.25,0.225
	c-0.247,0.068-1.035,0.191-1.744,0.281c-0.981,0.125-1.732,0.321-2.093,0.394c-2.139,0.432-3.209,0.648-3.749,0.837
	c-1.721,0.602-1.977,1.121-3.643,1.571c-0.759,0.205-1.665,0.405-1.665,0.405c-0.394,0.135-1.069,0.27-1.496,0.304
	c-0.439,0.034-1.204,0.169-1.699,0.315c-0.495,0.146-1.069,0.304-1.283,0.337c-0.202,0.045-0.63,0.203-0.956,0.337
	c-0.315,0.146-0.9,0.315-1.305,0.371c-0.709,0.112-1.766,0.484-2.588,0.922c-0.214,0.113-0.709,0.281-1.091,0.383
	c-0.383,0.101-1.069,0.383-1.519,0.63c-0.45,0.259-1.091,0.585-1.406,0.731c-0.326,0.158-0.866,0.506-1.204,0.776
	c-0.337,0.27-0.776,0.529-0.99,0.574c-0.416,0.079-2.036,0.754-2.779,1.148c-0.27,0.135-0.641,0.259-0.81,0.259
	c-0.169,0-0.551,0.124-0.844,0.281c-0.292,0.158-0.608,0.281-0.72,0.281c-0.101,0-0.349,0.124-0.551,0.281
	c-0.214,0.146-0.664,0.338-1.013,0.405c-0.349,0.079-1.013,0.304-1.496,0.517c-0.473,0.203-0.9,0.371-0.945,0.371
	c-0.045,0-0.169,0.079-0.281,0.18c-0.113,0.101-0.495,0.247-0.855,0.326c-0.698,0.158-2.081,0.709-2.543,1.001
	c-0.146,0.101-0.607,0.259-1.012,0.338c-0.416,0.09-0.911,0.259-1.114,0.382c-0.203,0.124-0.529,0.259-0.731,0.304
	c-0.202,0.034-0.495,0.18-0.653,0.304c-0.169,0.135-0.585,0.304-0.934,0.383c-0.641,0.135-1.811,0.596-2.678,1.035
	c-0.248,0.124-0.72,0.281-1.058,0.349c-0.338,0.056-0.821,0.214-1.069,0.337c-0.236,0.135-0.506,0.236-0.596,0.236
	c-0.079,0-0.461,0.146-0.844,0.326c-0.383,0.18-0.923,0.371-1.204,0.405c-0.281,0.045-0.731,0.203-1.013,0.337
	c-0.281,0.135-0.675,0.293-0.889,0.338c-0.203,0.045-0.54,0.169-0.731,0.281c-0.191,0.112-0.675,0.27-1.08,0.337
	c-0.405,0.068-1.013,0.214-1.35,0.337c-0.72,0.236-3.015,0.9-3.994,1.148c-0.371,0.101-1.181,0.304-1.8,0.461
	c-0.619,0.158-1.451,0.36-1.856,0.461c-1.474,0.371-1.868,0.495-2.531,0.799c-0.36,0.158-0.81,0.394-0.979,0.518
	c-0.169,0.124-0.698,0.293-1.181,0.394c-0.473,0.09-0.979,0.236-1.114,0.326s-0.495,0.225-0.799,0.293
	c-0.292,0.068-0.686,0.225-0.878,0.326c-0.383,0.225-1.339,0.45-1.924,0.45c-0.214,0-0.529,0.068-0.709,0.158
	c-0.169,0.09-0.743,0.27-1.271,0.394c-0.529,0.135-1.181,0.337-1.463,0.461c-0.304,0.135-0.9,0.248-1.485,0.293
	c-0.844,0.067-1.001,0.056-1.193-0.124c-0.124-0.112-0.225-0.315-0.225-0.439c0-0.135-0.101-0.54-0.225-0.911
	c-0.124-0.371-0.36-1.181-0.506-1.8c-0.158-0.619-0.338-1.305-0.394-1.519c-0.056-0.214-0.158-1.204-0.225-2.194
	c-0.056-0.99-0.158-2.104-0.214-2.475c-0.158-0.945-0.349-7.954-0.236-8.775c0.056-0.371,0.18-1.136,0.281-1.688
	c0.158-0.844,0.191-1.811,0.191-5.682v-4.669l-0.36-1.519c-0.191-0.832-0.473-1.778-0.619-2.081
	c-0.146-0.315-0.304-0.743-0.337-0.956c-0.101-0.484-0.551-1.305-0.945-1.699c-0.158-0.169-0.382-0.428-0.495-0.596
	c-0.405-0.585-0.686-0.675-2.318-0.754c-1.08-0.045-1.676-0.124-2.036-0.27c-0.574-0.225-2.194-0.315-3.094-0.169
	c-0.304,0.045-0.866,0.169-1.238,0.259c-0.371,0.101-1.384,0.236-2.25,0.304c-0.866,0.068-1.721,0.18-1.913,0.247
	c-1.125,0.394-1.395,0.518-1.665,0.72c-0.158,0.135-0.518,0.27-0.799,0.304c-0.473,0.068-2.025,0.653-2.88,1.091
	c-0.225,0.101-0.63,0.236-0.9,0.27c-0.281,0.045-0.731,0.169-1.013,0.293c-1.71,0.72-3.634,1.114-5.423,1.125
	c-0.416,0-1.271,0.101-1.913,0.214c-0.641,0.124-1.823,0.304-2.644,0.405c-0.81,0.101-1.744,0.259-2.081,0.349
	c-0.326,0.09-1.305,0.214-2.171,0.281c-0.866,0.056-2.059,0.203-2.644,0.326c-0.585,0.112-1.395,0.27-1.8,0.337
	c-0.405,0.068-1.091,0.248-1.519,0.394c-0.439,0.146-1.125,0.304-1.519,0.337c-0.405,0.045-0.878,0.158-1.069,0.236
	c-0.18,0.079-0.619,0.248-0.956,0.371c-0.338,0.112-0.923,0.338-1.294,0.506c-0.371,0.158-0.833,0.293-1.035,0.293
	c-0.202,0-0.596,0.124-0.889,0.281c-0.293,0.158-0.608,0.281-0.709,0.281c-0.101,0-0.394,0.124-0.653,0.27
	c-0.259,0.146-0.833,0.349-1.271,0.45c-0.45,0.101-1.001,0.281-1.226,0.394c-0.225,0.112-0.563,0.247-0.765,0.281
	c-0.202,0.045-0.484,0.18-0.641,0.304c-0.158,0.124-0.574,0.27-0.934,0.349c-0.619,0.112-2.531,0.855-3.015,1.17
	c-0.124,0.079-0.428,0.169-0.675,0.214c-0.473,0.079-1.328,0.405-2.475,0.956c-0.371,0.18-0.878,0.36-1.125,0.405
	c-0.248,0.045-0.72,0.225-1.058,0.394c-0.338,0.18-0.664,0.326-0.743,0.326c-0.079,0-0.315,0.124-0.529,0.27
	c-0.225,0.146-0.619,0.304-0.889,0.349c-0.27,0.045-0.641,0.169-0.833,0.281c-0.18,0.112-0.529,0.259-0.754,0.326
	c-0.225,0.079-0.473,0.214-0.551,0.304c-0.068,0.09-0.495,0.27-0.934,0.394c-0.439,0.135-1.26,0.484-1.811,0.776
	c-0.563,0.293-1.193,0.574-1.406,0.619c-0.315,0.067-1.08,0.439-2.531,1.226c-0.18,0.101-0.439,0.18-0.574,0.18
	s-0.428,0.124-0.653,0.281s-0.529,0.304-0.664,0.349c-0.146,0.034-0.405,0.18-0.585,0.326c-0.169,0.158-0.484,0.315-0.698,0.349
	c-0.461,0.09-1.789,0.754-2.126,1.069c-0.135,0.124-0.439,0.248-0.675,0.293c-0.236,0.034-0.54,0.158-0.664,0.27
	c-0.135,0.113-0.405,0.27-0.619,0.337c-0.214,0.079-0.563,0.281-0.765,0.461c-0.202,0.169-0.473,0.315-0.585,0.315
	c-0.124,0-0.518,0.27-0.889,0.608c-0.574,0.529-0.743,0.619-1.35,0.72c-0.495,0.09-0.878,0.247-1.339,0.574
	c-0.349,0.247-0.945,0.608-1.305,0.821c-0.371,0.202-0.889,0.585-1.159,0.844c-0.27,0.27-0.563,0.484-0.653,0.484
	c-0.09,0-0.472,0.281-0.844,0.619c-0.371,0.337-0.743,0.619-0.821,0.619c-0.09,0-0.315,0.135-0.495,0.304
	c-0.484,0.45-1.114,0.923-1.856,1.406c-0.349,0.225-0.72,0.54-0.821,0.686c-0.101,0.158-0.315,0.315-0.484,0.36
	c-0.169,0.045-0.585,0.315-0.923,0.608c-0.338,0.292-0.765,0.63-0.956,0.731c-0.18,0.101-0.641,0.416-1.013,0.686
	c-0.371,0.27-0.855,0.596-1.069,0.72c-0.214,0.124-0.664,0.45-0.99,0.731c-0.338,0.281-0.675,0.518-0.754,0.518
	s-0.349,0.169-0.596,0.36c-0.473,0.383-0.754,0.574-1.823,1.294c-0.338,0.225-0.776,0.585-0.968,0.788
	c-0.191,0.202-0.439,0.371-0.54,0.371c-0.101,0-0.484,0.281-0.855,0.619c-0.371,0.338-0.72,0.619-0.776,0.619
	c-0.056,0-0.326,0.202-0.596,0.461c-0.259,0.259-0.731,0.652-1.046,0.889c-0.878,0.653-1.89,1.586-3.656,3.375
	c-0.9,0.9-1.946,1.89-2.329,2.205c-0.394,0.304-0.709,0.596-0.709,0.664c0,0.124,0.191,0.248,1.744,1.103
	c1.013,0.563,1.901,1.204,2.171,1.553c0.068,0.112,0.293,0.225,0.473,0.27c0.203,0.045,0.619,0.338,0.968,0.686
	c0.349,0.338,0.686,0.608,0.754,0.608s0.405,0.27,0.743,0.608c1.035,0.99,2.363,2.194,3.668,3.33
	c0.686,0.585,1.26,1.103,1.271,1.148c0.022,0.056,0.281,0.259,0.563,0.45c0.293,0.203,0.686,0.529,0.878,0.743
	c0.18,0.202,0.518,0.428,0.731,0.506c1.08,0.382,2.07,1.238,4.208,3.679c0.619,0.698,1.328,1.463,1.564,1.688
	c0.371,0.36,0.428,0.473,0.36,0.731c-0.124,0.473-0.529,0.799-1.204,0.945c-0.596,0.135-1.643,0.551-2.745,1.08
	c-0.304,0.146-0.743,0.304-0.956,0.349c-0.416,0.067-1.204,0.405-2.25,0.945c-0.338,0.18-0.821,0.36-1.058,0.405
	c-0.383,0.067-1.969,0.776-2.768,1.226c-0.158,0.09-0.416,0.169-0.574,0.169c-0.169,0-0.416,0.09-0.563,0.214
	c-0.146,0.113-0.473,0.27-0.72,0.349c-0.248,0.079-0.574,0.259-0.731,0.394c-0.158,0.135-0.484,0.281-0.731,0.315
	c-0.236,0.045-0.574,0.169-0.731,0.281c-0.158,0.112-0.461,0.27-0.686,0.349c-0.225,0.068-0.506,0.236-0.607,0.349
	c-0.113,0.124-0.416,0.281-0.664,0.349c-0.608,0.158-1.676,0.686-2.104,1.046c-0.191,0.158-0.427,0.292-0.529,0.292
	c-0.27,0-1.631,0.709-2.036,1.046c-0.191,0.158-0.54,0.315-0.788,0.36c-0.248,0.045-0.506,0.146-0.585,0.248
	c-0.079,0.09-0.349,0.27-0.596,0.394c-0.259,0.124-0.551,0.326-0.653,0.439c-0.112,0.113-0.382,0.248-0.596,0.315
	c-0.225,0.056-0.754,0.337-1.181,0.619c-0.427,0.281-1.035,0.608-1.35,0.731s-0.776,0.405-1.024,0.63
	c-0.259,0.225-0.596,0.473-0.765,0.54c-0.428,0.191-1.294,0.743-1.823,1.17c-0.259,0.202-0.529,0.371-0.607,0.371
	c-0.09,0-0.473,0.259-0.866,0.574c-0.394,0.315-0.855,0.63-1.046,0.709c-0.18,0.079-0.405,0.225-0.495,0.326
	c-0.079,0.113-0.214,0.191-0.292,0.191c-0.079,0-0.315,0.158-0.518,0.349c-0.202,0.191-0.563,0.439-0.799,0.563
	c-0.225,0.113-0.675,0.439-0.979,0.709c-0.293,0.27-0.675,0.517-0.844,0.563c-0.158,0.034-0.293,0.112-0.293,0.169
	c0,0.056-0.54,0.506-1.193,0.99c-0.664,0.484-1.35,1.046-1.541,1.238c-0.191,0.203-0.405,0.371-0.473,0.371
	c-0.169,0-1.069,0.855-1.069,1.001c0,0.056-0.191,0.18-0.428,0.27c-0.236,0.09-0.619,0.394-0.844,0.675
	c-0.225,0.27-0.563,0.563-0.743,0.641c-0.191,0.079-0.45,0.304-0.574,0.506c-0.124,0.202-0.439,0.506-0.698,0.686
	c-0.27,0.18-0.596,0.473-0.754,0.641c-0.236,0.281-3.274,2.936-4.433,3.882c-0.259,0.202-0.641,0.551-0.866,0.788
	c-0.425,0.446-0.665,0.596-0.776,0.697c-0.682,0.619-1.023,1.116-1.578,1.778c-0.555,0.663-0.388,0.372-1.91,1.986
	c-1.396,1.481-1.575,1.765-2.126,2.142c-0.238,0.163-0.53,0.459-1.024,0.788c-0.27,0.18-0.54,0.45-0.608,0.585
	c-0.056,0.146-0.338,0.36-0.608,0.495c-0.292,0.146-0.619,0.416-0.788,0.675c-0.18,0.27-0.427,0.473-0.675,0.563
	c-0.236,0.079-0.495,0.281-0.675,0.574c-0.169,0.236-0.518,0.563-0.776,0.72c-0.27,0.158-0.517,0.383-0.551,0.495
	c-0.034,0.112-0.281,0.394-0.54,0.608c-0.506,0.439-0.484,0.416-1.485,1.496c-0.371,0.405-0.956,1.024-1.305,1.373
	c-0.349,0.349-0.698,0.788-0.765,0.99c-0.079,0.202-0.225,0.427-0.315,0.506c-0.236,0.191-0.855,1.181-1.046,1.665
	c-0.079,0.214-0.259,0.54-0.383,0.72c-0.236,0.36-0.394,1.586-0.225,1.755c0.113,0.113,0.743-0.428,1.215-1.058
	c0.349-0.473,0.54-0.484,1.316-0.146c0.338,0.146,0.439,0.158,0.675,0.022c0.146-0.079,0.731-0.383,1.305-0.675
	c0.563-0.293,1.148-0.653,1.283-0.799c0.146-0.146,0.461-0.326,0.709-0.394c0.248-0.068,0.596-0.248,0.776-0.394
	c0.18-0.146,0.394-0.27,0.473-0.27c0.079,0,0.36-0.18,0.619-0.394c0.259-0.214,0.585-0.394,0.72-0.394
	c0.146,0,0.428-0.135,0.641-0.293c0.664-0.495,1.609-1.058,1.789-1.069c0.09,0,0.45-0.202,0.788-0.439
	c1.328-0.945,3.78-1.98,5.119-2.16c0.439-0.056,1.17-0.225,1.643-0.383c0.473-0.146,0.934-0.27,1.013-0.27
	c0.09,0,0.394-0.124,0.675-0.27c0.281-0.158,0.833-0.338,1.238-0.405c0.394-0.079,1.114-0.281,1.586-0.461
	c0.473-0.18,0.9-0.326,0.945-0.326c0.045,0,0.338-0.124,0.664-0.281c0.315-0.158,0.855-0.315,1.193-0.36
	c0.338-0.034,0.833-0.18,1.114-0.326c0.281-0.146,0.585-0.27,0.697-0.27c0.101,0,0.495-0.146,0.878-0.326
	c0.394-0.191,0.99-0.371,1.339-0.416c0.349-0.034,0.765-0.146,0.945-0.236c0.169-0.079,0.596-0.247,0.956-0.371
	c0.349-0.112,0.99-0.337,1.406-0.495c0.416-0.158,0.945-0.293,1.159-0.293c0.214,0,0.585-0.101,0.833-0.225
	c0.248-0.124,0.495-0.225,0.574-0.225c0.068,0,0.585-0.18,1.148-0.405c0.551-0.225,1.271-0.45,1.586-0.495
	c0.641-0.101,2.745-0.81,3.128-1.058c0.146-0.079,0.518-0.191,0.821-0.236c0.608-0.079,2.678-0.754,3.319-1.069
	c0.214-0.113,0.675-0.236,1.013-0.281c0.338-0.045,0.9-0.203,1.238-0.338c0.338-0.146,0.81-0.292,1.046-0.338
	c0.225-0.045,0.54-0.18,0.698-0.304c0.169-0.124,0.664-0.293,1.181-0.383c0.495-0.079,1.091-0.248,1.316-0.371
	c0.236-0.113,0.608-0.247,0.821-0.293c0.214-0.045,0.585-0.18,0.821-0.304c0.236-0.124,0.799-0.281,1.249-0.371
	c0.439-0.09,1.08-0.281,1.418-0.439c0.338-0.158,0.709-0.293,0.821-0.293c0.124,0,0.36-0.101,0.54-0.236
	c0.18-0.124,0.653-0.281,1.058-0.349c0.596-0.101,0.765-0.09,0.979,0.045c0.371,0.248,0.866,1.935,0.956,3.206
	c0.045,0.641,0.158,1.204,0.315,1.609c0.146,0.337,0.315,0.911,0.383,1.26c0.056,0.36,0.191,0.799,0.293,0.979
	c0.09,0.18,0.225,0.709,0.281,1.159c0.18,1.181,0.754,3.443,1.17,4.557c0.101,0.259,0.225,0.821,0.281,1.238
	c0.113,0.821,0.821,3.218,1.013,3.454c0.068,0.079,0.169,0.416,0.236,0.754c0.079,0.428,0.292,0.878,0.72,1.508
	c0.596,0.889,0.596,0.911,0.675,1.946c0.056,0.923,0.124,1.181,0.518,2.003c0.248,0.518,0.45,1.001,0.45,1.058
	c0,0.056-0.135,0.18-0.304,0.27c-0.18,0.09-0.473,0.337-0.675,0.563c-0.191,0.225-0.439,0.405-0.54,0.405
	c-0.101,0-0.338,0.101-0.506,0.225c-0.18,0.124-0.529,0.304-0.788,0.394c-0.259,0.09-0.596,0.259-0.743,0.382
	c-0.158,0.124-0.518,0.259-0.81,0.304c-0.292,0.045-0.653,0.158-0.81,0.27c-0.158,0.101-0.427,0.225-0.619,0.27
	c-0.18,0.045-0.585,0.203-0.889,0.36c-0.304,0.158-0.9,0.36-1.339,0.45c-0.427,0.09-0.889,0.248-1.024,0.338
	c-0.135,0.09-0.428,0.214-0.675,0.281c-0.236,0.068-0.619,0.236-0.844,0.383c-0.225,0.146-0.63,0.292-0.911,0.338
	c-0.754,0.124-3.409,1.474-4.039,2.059c-0.281,0.281-0.675,0.563-0.866,0.653c-0.248,0.101-0.416,0.293-0.551,0.63
	c-0.18,0.428-0.202,0.911-0.202,4.14c0,2.351,0.045,3.814,0.124,4.106c0.382,1.373,0.405,1.508,0.236,1.699
	c-0.09,0.113-0.439,0.326-0.788,0.495c-0.799,0.371-1.654,1.226-2.003,1.98c-0.225,0.506-0.248,0.698-0.202,1.688
	c0.056,1.193,0.518,2.948,0.956,3.668c0.124,0.202,0.259,0.596,0.304,0.878c0.045,0.281,0.169,0.63,0.281,0.788
	c0.101,0.158,0.248,0.45,0.315,0.653c0.068,0.214,0.248,0.529,0.405,0.697c0.146,0.18,0.304,0.529,0.349,0.788
	c0.045,0.248,0.124,0.473,0.18,0.518c0.056,0.034,0.214,0.27,0.349,0.529c0.124,0.259,0.349,0.608,0.495,0.776
	c0.135,0.169,0.292,0.473,0.326,0.675c0.045,0.202,0.203,0.506,0.349,0.675c0.135,0.18,0.293,0.428,0.326,0.563
	c0.045,0.146,0.191,0.416,0.338,0.596c0.135,0.191,0.293,0.574,0.338,0.844c0.045,0.281,0.158,0.619,0.248,0.765
	s0.236,0.461,0.315,0.709c0.09,0.248,0.27,0.596,0.394,0.765c0.124,0.18,0.292,0.619,0.371,0.99c0.259,1.103,0.551,1.553,1.991,3.06
	c0.405,0.416,0.799,0.833,0.878,0.923c0.068,0.09,0.349,0.383,0.619,0.641c2.228,2.284,5.029,5.22,6.84,7.167
	c2.351,2.543,6.863,6.919,9.946,9.676c0.214,0.18,0.664,0.596,0.99,0.911c0.326,0.326,0.754,0.664,0.945,0.754
	c0.191,0.101,0.506,0.383,0.709,0.641c0.191,0.248,0.574,0.551,0.855,0.664c0.27,0.124,0.495,0.281,0.495,0.349
	c0,0.146,0.799,0.9,0.945,0.9c0.056,0,0.36,0.225,0.675,0.506c0.315,0.27,0.81,0.709,1.103,0.956
	c0.281,0.259,0.551,0.596,0.596,0.765c0.045,0.169,0.214,0.63,0.383,1.035c0.169,0.405,0.405,0.979,0.518,1.283
	c0.112,0.304,0.394,0.731,0.63,0.968c0.248,0.236,0.495,0.585,0.563,0.776c0.067,0.191,0.292,0.45,0.495,0.574
	c0.202,0.124,0.551,0.45,0.776,0.72c0.248,0.304,0.54,0.529,0.743,0.574c0.18,0.045,0.45,0.214,0.596,0.371
	c0.338,0.394,0.844,0.754,1.384,0.979c0.236,0.09,0.709,0.36,1.046,0.585c0.337,0.225,0.956,0.551,1.361,0.72
	c0.405,0.169,1.08,0.506,1.519,0.765c0.427,0.247,1.024,0.54,1.316,0.641c0.281,0.09,0.923,0.394,1.406,0.675
	c0.484,0.27,1.08,0.551,1.328,0.619c0.247,0.056,1.013,0.382,1.688,0.72c0.686,0.337,1.485,0.664,1.778,0.72
	c0.304,0.056,0.653,0.202,0.788,0.326c0.135,0.124,0.45,0.281,0.698,0.349c0.248,0.068,0.551,0.191,0.686,0.281
	c0.124,0.09,0.574,0.247,0.99,0.338c0.416,0.101,0.968,0.304,1.226,0.45c0.259,0.146,0.675,0.326,0.923,0.405
	c0.247,0.079,0.551,0.214,0.675,0.293c0.124,0.079,0.45,0.18,0.731,0.225c0.293,0.045,0.608,0.191,0.765,0.36
	c0.158,0.146,0.484,0.371,0.743,0.484c0.259,0.124,0.585,0.292,0.743,0.383c0.158,0.09,0.371,0.169,0.473,0.169
	c0.112,0,0.36,0.146,0.563,0.315c0.382,0.337,1.26,0.833,1.823,1.035c0.18,0.068,0.664,0.349,1.069,0.619
	c0.405,0.27,1.001,0.585,1.305,0.698c0.315,0.124,0.754,0.36,1.001,0.518c0.383,0.259,0.754,0.461,1.868,0.968
	c0.158,0.068,0.608,0.326,1.013,0.585s0.911,0.518,1.125,0.574c0.214,0.068,0.551,0.225,0.731,0.371
	c0.191,0.135,0.45,0.281,0.596,0.326c0.135,0.045,0.383,0.202,0.563,0.337c0.169,0.146,0.484,0.293,0.709,0.337
	c0.225,0.034,0.529,0.18,0.675,0.304c0.146,0.124,0.45,0.304,0.664,0.394c0.214,0.09,0.495,0.259,0.619,0.371
	c0.124,0.112,0.405,0.236,0.63,0.281c0.225,0.045,0.607,0.225,0.833,0.405c0.236,0.191,0.518,0.337,0.63,0.337
	c0.101,0,0.337,0.124,0.518,0.27c0.18,0.146,0.518,0.315,0.754,0.349c0.236,0.045,0.529,0.191,0.664,0.337
	c0.135,0.135,0.428,0.315,0.641,0.394c0.214,0.09,0.506,0.236,0.641,0.349c0.146,0.101,0.45,0.225,0.675,0.27
	c0.236,0.034,0.551,0.191,0.709,0.337c0.158,0.135,0.461,0.315,0.686,0.383c0.225,0.079,0.495,0.225,0.607,0.349
	c0.101,0.112,0.428,0.247,0.698,0.292c0.281,0.045,0.608,0.169,0.731,0.293c0.124,0.124,0.405,0.304,0.63,0.394
	c0.236,0.09,0.54,0.259,0.697,0.371c0.158,0.101,0.473,0.225,0.698,0.27c0.236,0.045,0.563,0.191,0.731,0.338
	c0.169,0.135,0.484,0.315,0.697,0.394c0.214,0.067,0.484,0.202,0.585,0.304c0.112,0.101,0.416,0.225,0.686,0.293
	c0.27,0.056,0.585,0.202,0.709,0.315c0.124,0.124,0.45,0.292,0.709,0.382c0.27,0.101,0.619,0.281,0.776,0.405
	c0.158,0.124,0.427,0.225,0.585,0.225c0.158,0,0.551,0.135,0.855,0.293c1.024,0.551,2.531,1.024,3.533,1.103
	c0.518,0.045,1.249,0.18,1.62,0.304s1.564,0.383,2.655,0.574c1.789,0.304,2.104,0.326,3.274,0.248
	c0.709-0.045,1.778-0.101,2.363-0.101c1.474-0.022,6.975-0.281,7.932-0.371c0.709-0.068,0.787-0.101,0.821-0.338
	c0.045-0.281-0.439-1.103-0.776-1.35c-0.112-0.068-0.281-0.383-0.383-0.686c-0.101-0.304-0.259-0.619-0.349-0.698
	c-0.225-0.18-0.866-1.17-1.114-1.699c-0.101-0.236-0.383-0.641-0.619-0.911c-0.236-0.259-0.506-0.664-0.596-0.878
	c-0.09-0.225-0.338-0.517-0.54-0.664c-0.439-0.304-0.709-0.596-0.945-1.035c-0.158-0.281-0.146-0.36,0.056-0.889
	c0.135-0.326,0.326-0.72,0.439-0.878c0.113-0.158,0.304-0.72,0.405-1.249c0.293-1.361,0.563-1.823,1.913-3.15
	c0.664-0.653,1.294-1.361,1.406-1.575c0.113-0.214,0.394-0.574,0.619-0.788c0.236-0.214,0.506-0.608,0.619-0.866
	c0.112-0.259,0.304-0.518,0.427-0.585c0.124-0.067,0.439-0.484,0.709-0.934c0.27-0.45,0.731-1.148,1.024-1.541
	c0.293-0.394,0.54-0.81,0.54-0.923c0-0.101,0.18-0.405,0.394-0.664c0.214-0.259,0.394-0.54,0.394-0.619
	c0-0.079,0.124-0.293,0.27-0.473c0.146-0.169,0.293-0.518,0.337-0.765c0.045-0.247,0.203-0.574,0.338-0.731
	c0.146-0.158,0.315-0.45,0.382-0.653c0.068-0.202,0.225-0.517,0.36-0.686c0.124-0.18,0.225-0.439,0.225-0.574
	c0-0.135,0.281-0.844,0.63-1.564c0.349-0.72,0.709-1.609,0.799-1.98c0.191-0.81,0.686-1.62,1.316-2.138
	c0.349-0.281,0.675-0.428,1.283-0.551c0.45-0.09,1.114-0.338,1.519-0.563c0.383-0.214,0.979-0.551,1.328-0.731
	c0.349-0.18,0.788-0.529,0.979-0.765c0.191-0.236,0.439-0.518,0.54-0.641c0.101-0.112,0.293-0.686,0.439-1.294
	c0.146-0.596,0.349-1.305,0.45-1.586c0.383-1.013-0.056-3.499-0.833-4.77c-0.124-0.191-0.259-0.585-0.304-0.855
	c-0.045-0.281-0.169-0.63-0.27-0.787c-0.101-0.158-0.259-0.484-0.338-0.731c-0.079-0.247-0.236-0.574-0.349-0.731
	c-0.101-0.158-0.281-0.619-0.383-1.013c-0.101-0.394-0.315-0.968-0.473-1.271c-0.36-0.72-0.293-1.418,0.169-1.721
	c0.169-0.113,0.607-0.529,0.979-0.934c0.956-1.046,1.766-1.811,1.924-1.811c0.214,0,1.181-0.788,2.329-1.89
	c0.18-0.169,0.416-0.484,0.529-0.709c0.112-0.214,0.293-0.461,0.383-0.54c0.101-0.09,0.18-0.214,0.18-0.293
	c0-0.068,0.146-0.36,0.337-0.63c0.18-0.27,0.338-0.574,0.338-0.664s0.101-0.349,0.214-0.574c0.214-0.405,0.214-0.405-0.056-1.181
	c-0.18-0.529-0.371-0.866-0.607-1.058c-0.191-0.158-0.619-0.54-0.956-0.866c-0.338-0.326-0.754-0.664-0.934-0.754
	c-0.18-0.09-0.641-0.382-1.035-0.653c-0.968-0.664-1.148-0.765-1.418-0.765c-0.124,0-0.326-0.113-0.45-0.236
	c-0.113-0.135-0.428-0.337-0.686-0.461c-0.518-0.225-0.934-0.675-0.934-1.001c0-0.619,1.316-1.451,3.038-1.924
	c0.461-0.124,0.956-0.293,1.103-0.383c0.135-0.09,0.54-0.214,0.9-0.281c0.349-0.068,1.249-0.416,2.003-0.788
	c0.743-0.36,1.418-0.664,1.496-0.664c0.079,0,0.63-0.281,1.226-0.619c0.607-0.326,1.316-0.664,1.598-0.72
	c0.281-0.068,0.754-0.247,1.058-0.405c0.304-0.158,0.641-0.281,0.743-0.281c0.112,0,0.326-0.101,0.495-0.236
	c0.169-0.124,0.619-0.304,1.001-0.383c0.383-0.09,1.26-0.394,1.935-0.686c0.686-0.281,1.496-0.574,1.8-0.63
	c0.563-0.113,0.833-0.203,2.475-0.878c0.495-0.203,1.271-0.428,1.721-0.518c0.45-0.079,0.923-0.202,1.046-0.27
	c0.124-0.079,0.641-0.247,1.136-0.405c0.495-0.146,0.968-0.326,1.058-0.394c0.079-0.056,0.607-0.191,1.17-0.281
	c0.563-0.09,1.26-0.259,1.553-0.371c0.292-0.112,0.709-0.236,0.934-0.281c0.225-0.045,0.709-0.191,1.069-0.337
	c0.371-0.146,1.024-0.304,1.451-0.349c0.439-0.045,1.215-0.191,1.744-0.337c3.06-0.833,3.623-0.968,4.388-1.024
	c0.461-0.045,1.204-0.169,1.631-0.281c0.439-0.124,1.271-0.292,1.856-0.382c0.585-0.101,1.395-0.27,1.8-0.394
	c0.405-0.124,1.406-0.27,2.25-0.337c0.833-0.056,1.699-0.158,1.913-0.225c0.214-0.068,1.204-0.236,2.194-0.394
	c0.99-0.146,2.025-0.349,2.306-0.45c0.338-0.124,1.103-0.225,2.25-0.281c0.956-0.056,1.946-0.146,2.194-0.214
	c0.247-0.068,1.181-0.225,2.081-0.349c0.9-0.124,1.89-0.304,2.194-0.383c0.664-0.191,2.351-0.405,3.161-0.405
	c0.315,0,1.08-0.101,1.688-0.225c0.608-0.112,1.924-0.292,2.914-0.394c0.99-0.101,2.351-0.281,3.026-0.394
	c0.675-0.124,1.856-0.248,2.644-0.292c0.776-0.034,2.081-0.169,2.88-0.281c2.374-0.349,8.517-0.45,24.92-0.416
	c14.333,0.034,14.952,0.022,15.976-0.18c0.664-0.135,1.598-0.225,2.475-0.236c2.408-0.022,2.678-0.146,3.488-1.463
	c0.247-0.416,0.27-0.563,0.281-1.856C350,220.076,349.989,219.997,349.674,219.457z M232.038,160.392
	c0.214-0.045,0.563-0.203,0.788-0.349c0.214-0.135,0.641-0.293,0.945-0.338c0.304-0.045,0.878-0.225,1.26-0.394
	c0.394-0.18,0.776-0.326,0.866-0.326c0.079,0,0.349-0.101,0.585-0.236c0.833-0.427,1.778-0.495,2.723-0.202
	c0.416,0.135,1.238,1.013,1.35,1.429c0.101,0.405-0.146,1.091-0.45,1.226c-0.146,0.068-0.574,0.158-0.934,0.203
	c-0.473,0.045-1.024,0.236-1.901,0.675c-0.675,0.326-1.575,0.754-1.991,0.934c-0.416,0.191-0.855,0.461-0.99,0.619
	c-0.135,0.158-0.473,0.338-0.743,0.416c-0.27,0.079-0.495,0.18-0.495,0.225c0,0.045-0.461,0.428-1.035,0.844
	c-0.574,0.428-1.541,1.271-2.171,1.879c-0.686,0.675-1.215,1.103-1.361,1.103c-0.146,0-0.529-0.326-1.069-0.911
	c-0.461-0.506-1.046-1.148-1.316-1.44c-0.563-0.596-1.148-1.406-1.148-1.575c0-0.067,0.203-0.225,0.439-0.349
	c0.247-0.124,0.484-0.27,0.518-0.338c0.034-0.067,0.281-0.225,0.54-0.349c0.259-0.135,0.574-0.326,0.697-0.439
	c0.124-0.112,0.405-0.248,0.619-0.315c0.214-0.056,0.799-0.36,1.283-0.686c0.495-0.315,1.024-0.607,1.181-0.641
	c0.158-0.034,0.551-0.169,0.855-0.315C231.396,160.594,231.824,160.437,232.038,160.392z M156.141,108.268
	c0.034-0.068,0.349-0.203,0.686-0.304c0.338-0.09,0.664-0.27,0.72-0.383c0.146-0.259,0.54-0.416,1.406-0.574
	c0.371-0.056,0.754-0.18,0.844-0.27c0.101-0.09,0.427-0.225,0.731-0.293c0.304-0.068,0.698-0.225,0.866-0.349
	c0.18-0.124,0.607-0.281,0.968-0.349c0.36-0.068,0.99-0.259,1.395-0.439c0.405-0.18,0.81-0.326,0.9-0.326s0.338-0.124,0.529-0.27
	c0.202-0.146,0.585-0.292,0.844-0.326c0.551-0.079,2.003-0.619,2.813-1.035c0.293-0.158,0.776-0.315,1.069-0.36
	c0.293-0.034,0.63-0.135,0.754-0.214c0.124-0.079,0.461-0.225,0.731-0.326c0.281-0.09,0.731-0.292,1.013-0.439
	c0.281-0.146,0.81-0.326,1.17-0.394c0.371-0.068,0.788-0.203,0.923-0.293c0.135-0.09,0.495-0.225,0.799-0.292
	c0.293-0.079,0.72-0.225,0.934-0.326c0.45-0.225,1.418-0.45,1.924-0.45c0.18,0,0.518-0.09,0.754-0.214
	c0.225-0.112,0.765-0.292,1.193-0.394c0.428-0.101,0.956-0.281,1.181-0.394c0.225-0.112,0.799-0.259,1.283-0.338
	c0.484-0.068,1.024-0.202,1.193-0.281c0.169-0.09,0.563-0.225,0.866-0.304c0.304-0.068,0.72-0.225,0.923-0.338
	c0.202-0.124,0.787-0.292,1.294-0.382s1.125-0.259,1.373-0.394c0.236-0.124,0.506-0.225,0.596-0.225
	c0.079,0,0.495-0.146,0.911-0.326c0.416-0.191,1.058-0.383,1.429-0.45c0.383-0.056,0.855-0.214,1.069-0.338
	c0.214-0.135,0.484-0.236,0.619-0.236s0.427-0.124,0.653-0.281c0.236-0.158,0.653-0.338,0.945-0.394
	c0.63-0.135,1.676-0.585,2.385-1.024c0.281-0.169,0.754-0.371,1.058-0.439c0.304-0.068,0.653-0.18,0.788-0.248
	c0.124-0.067,0.641-0.214,1.136-0.315c0.923-0.191,1.373-0.124,1.823,0.236c0.079,0.068,0.146,0.225,0.146,0.349
	c0,0.27-1.271,1.62-1.744,1.845c-0.18,0.09-0.641,0.383-1.001,0.664c-0.371,0.27-0.821,0.529-1.013,0.574
	c-0.191,0.045-0.911,0.349-1.586,0.675c-0.686,0.326-1.485,0.653-1.778,0.72c-0.292,0.056-0.72,0.214-0.956,0.338
	c-0.225,0.124-0.484,0.225-0.574,0.225s-0.383,0.124-0.641,0.281c-0.27,0.158-0.878,0.36-1.361,0.461
	c-0.484,0.101-1.058,0.27-1.271,0.382c-0.214,0.113-0.563,0.236-0.776,0.281c-0.214,0.045-0.607,0.203-0.878,0.338
	c-0.27,0.146-0.776,0.292-1.136,0.338c-0.349,0.034-0.889,0.158-1.204,0.281c-0.304,0.112-0.81,0.281-1.125,0.371
	c-0.304,0.101-0.911,0.304-1.35,0.461c-0.428,0.158-0.956,0.293-1.159,0.293c-0.214,0-0.81,0.146-1.339,0.338
	c-0.518,0.18-1.035,0.338-1.125,0.338c-0.101,0-0.439,0.124-0.754,0.27c-0.315,0.146-0.99,0.326-1.508,0.394
	c-0.506,0.068-1.069,0.191-1.238,0.281c-0.169,0.079-0.484,0.191-0.698,0.236c-0.214,0.034-0.776,0.214-1.238,0.394
	c-0.461,0.169-1.148,0.349-1.519,0.394c-0.596,0.068-2.329,0.529-3.263,0.866c-0.72,0.259-1.823,0.529-2.183,0.529
	c-0.203,0.011-0.788,0.135-1.294,0.281c-0.495,0.158-1.091,0.304-1.305,0.349c-0.214,0.045-0.833,0.225-1.361,0.405
	c-0.551,0.191-1.215,0.326-1.53,0.326c-0.304,0-0.911,0.124-1.339,0.27c-0.428,0.146-1.08,0.304-1.451,0.349
	c-0.371,0.045-0.866,0.18-1.091,0.293C157.322,108.706,155.916,108.628,156.141,108.268z M196.666,107.761
	c-0.101,0.54-0.293,1.046-0.405,1.046c-0.101,0-1.125,1.395-1.125,1.53c0,0.045-0.27,0.383-0.596,0.765
	c-0.338,0.382-0.653,0.833-0.72,1.024c-0.068,0.18-0.383,0.608-0.698,0.945c-0.315,0.326-0.574,0.653-0.574,0.731
	c0,0.068-0.18,0.349-0.394,0.619c-0.214,0.27-0.394,0.529-0.394,0.574c0,0.045-0.146,0.27-0.338,0.506
	c-0.18,0.236-0.338,0.518-0.338,0.63c0,0.113-0.169,0.383-0.383,0.596c-0.202,0.225-0.54,0.743-0.743,1.159
	c-0.203,0.428-0.596,1.08-0.866,1.474c-0.281,0.394-0.551,0.889-0.608,1.091c-0.068,0.214-0.225,0.529-0.371,0.698
	c-0.146,0.169-0.337,0.473-0.439,0.664s-0.259,0.383-0.349,0.416c-0.09,0.034-0.191,0.225-0.236,0.416
	c-0.045,0.191-0.214,0.517-0.382,0.709c-0.169,0.202-0.518,0.653-0.776,1.001c-0.27,0.36-0.54,0.653-0.619,0.653
	c-0.428,0-0.54-0.731-0.248-1.575c0.09-0.27,0.214-1.035,0.281-1.71c0.101-1.181,0.135-1.283,0.72-2.43
	c0.349-0.664,0.675-1.339,0.731-1.508c0.068-0.169,0.371-0.653,0.686-1.091c0.304-0.427,0.563-0.855,0.563-0.956
	c0-0.101,0.169-0.371,0.383-0.596c0.202-0.236,0.585-0.743,0.844-1.125c0.27-0.394,0.686-0.923,0.945-1.193
	c0.259-0.27,0.619-0.675,0.788-0.9c0.18-0.236,0.495-0.54,0.697-0.675c0.203-0.135,0.439-0.349,0.529-0.484
	c0.214-0.338,2.261-2.059,3.071-2.565c0.371-0.236,0.799-0.529,0.956-0.641C196.677,107.266,196.744,107.3,196.666,107.761z
	 M163.353,147.611c-0.394,0.124-1.159,0.259-1.71,0.292c-0.54,0.045-1.294,0.169-1.665,0.281c-0.371,0.101-1.024,0.259-1.463,0.337
	c-0.428,0.068-1.08,0.225-1.44,0.349c-0.349,0.113-1.136,0.27-1.744,0.326c-0.596,0.068-1.418,0.202-1.823,0.304
	c-0.405,0.09-1.204,0.27-1.766,0.383c-0.574,0.112-1.339,0.304-1.688,0.427c-0.36,0.113-1.17,0.27-1.8,0.338
	c-0.63,0.068-1.339,0.191-1.575,0.281c-0.236,0.09-0.844,0.247-1.361,0.349c-0.518,0.101-1.148,0.281-1.406,0.394
	c-0.259,0.112-0.878,0.236-1.373,0.281c-0.495,0.034-1.181,0.158-1.519,0.27c-0.338,0.113-0.9,0.27-1.238,0.349
	c-0.338,0.068-0.979,0.247-1.418,0.394c-0.45,0.158-1.159,0.304-1.575,0.349c-0.428,0.045-0.945,0.146-1.159,0.225
	c-0.202,0.09-0.81,0.259-1.339,0.394c-0.529,0.124-1.148,0.326-1.373,0.439c-0.225,0.112-0.788,0.248-1.249,0.281
	c-0.45,0.045-1.058,0.169-1.339,0.281c-0.979,0.383-2.655,0.911-3.353,1.058c-0.394,0.09-0.799,0.225-0.9,0.315
	c-0.101,0.09-0.349,0.225-0.551,0.304c-0.202,0.079-0.439,0.259-0.529,0.405c-0.09,0.135-0.36,0.304-0.596,0.36
	c-0.236,0.056-0.743,0.349-1.125,0.641c-0.383,0.281-0.9,0.596-1.159,0.686s-0.81,0.383-1.226,0.653
	c-0.405,0.27-1.136,0.675-1.631,0.9c-0.484,0.236-1.058,0.574-1.271,0.754c-0.203,0.191-0.461,0.338-0.574,0.338
	c-0.101,0-0.338,0.079-0.529,0.18c-0.18,0.101-0.529,0.281-0.754,0.394c-0.225,0.124-0.54,0.338-0.686,0.473
	c-0.135,0.146-0.461,0.304-0.72,0.337c-0.248,0.045-0.518,0.158-0.596,0.248c-0.09,0.101-0.338,0.259-0.551,0.349
	c-0.225,0.09-0.529,0.293-0.686,0.439c-0.158,0.146-0.473,0.304-0.709,0.338c-0.236,0.045-0.563,0.202-0.731,0.338
	c-0.169,0.135-0.416,0.281-0.563,0.326c-0.135,0.045-0.394,0.203-0.563,0.349c-0.169,0.135-0.506,0.315-0.743,0.371
	c-0.394,0.112-0.72,0.304-1.665,0.934c-0.169,0.112-0.551,0.304-0.866,0.428c-0.304,0.113-0.9,0.439-1.328,0.72
	c-0.416,0.27-0.889,0.54-1.046,0.585c-0.338,0.101-1.159,0.563-1.643,0.923c-0.191,0.146-0.517,0.315-0.731,0.383
	c-0.214,0.079-0.518,0.225-0.686,0.349c-0.158,0.112-0.349,0.202-0.405,0.202c-0.067,0-0.315,0.169-0.574,0.383
	c-0.248,0.203-0.619,0.405-0.833,0.45c-0.214,0.045-0.473,0.169-0.574,0.281c-0.113,0.124-0.36,0.281-0.551,0.36
	c-0.202,0.079-0.529,0.281-0.731,0.461c-0.203,0.169-0.484,0.315-0.63,0.315c-0.236,0-0.461,0.135-1.44,0.9
	c-0.169,0.124-0.473,0.293-0.675,0.36c-0.439,0.158-1.44,0.776-1.654,1.024c-0.079,0.101-0.326,0.236-0.551,0.315
	c-0.225,0.068-0.518,0.214-0.641,0.326c-0.124,0.101-0.383,0.248-0.585,0.326c-0.202,0.079-0.439,0.259-0.529,0.405
	c-0.09,0.135-0.36,0.304-0.596,0.36c-0.236,0.056-0.731,0.338-1.103,0.607c-0.371,0.281-0.956,0.641-1.316,0.81
	c-0.349,0.169-0.821,0.484-1.058,0.698c-0.236,0.225-0.596,0.439-0.799,0.495c-0.214,0.056-0.54,0.236-0.743,0.405
	c-0.551,0.461-1.103,0.821-1.541,1.024c-0.214,0.101-0.596,0.349-0.855,0.551c-0.495,0.416-1.26,0.9-2.104,1.35
	c-0.293,0.158-0.563,0.36-0.596,0.45c-0.034,0.079-0.259,0.225-0.484,0.326c-0.236,0.09-0.731,0.405-1.114,0.709
	c-0.383,0.292-0.945,0.686-1.271,0.878c-0.315,0.18-0.765,0.495-0.99,0.686c-0.225,0.202-0.585,0.427-0.799,0.517
	c-0.214,0.101-0.596,0.36-0.844,0.596c-0.248,0.225-0.63,0.495-0.844,0.585s-0.495,0.259-0.619,0.383
	c-0.338,0.338-1.193,0.945-1.609,1.159c-0.214,0.112-0.585,0.416-0.844,0.675c-0.259,0.27-0.619,0.518-0.799,0.563
	c-0.18,0.045-0.484,0.203-0.664,0.36c-0.36,0.304-0.529,0.337-0.731,0.135c-0.225-0.225-0.158-0.394,0.326-0.844
	c0.259-0.236,1.283-1.226,2.284-2.205c3.544-3.488,5.985-5.805,6.492-6.199c0.281-0.214,0.596-0.518,0.698-0.675
	c0.112-0.158,0.36-0.36,0.574-0.45c0.203-0.09,0.54-0.371,0.754-0.619c0.203-0.259,0.585-0.563,0.844-0.675
	c0.259-0.124,0.529-0.326,0.608-0.461c0.068-0.124,0.394-0.405,0.709-0.619c0.326-0.214,0.866-0.619,1.204-0.9
	c0.338-0.27,0.81-0.607,1.035-0.731c0.225-0.124,0.63-0.428,0.9-0.686c0.27-0.259,0.641-0.518,0.821-0.585
	c0.191-0.068,0.641-0.371,1.001-0.675c0.371-0.304,0.799-0.608,0.956-0.675c0.54-0.236,1.249-0.731,1.474-1.013
	c0.124-0.158,0.394-0.326,0.596-0.371c0.191-0.034,0.518-0.202,0.72-0.371c0.585-0.484,0.956-0.72,1.721-1.114
	c0.394-0.203,0.878-0.506,1.069-0.686c0.18-0.169,0.495-0.371,0.675-0.428c0.191-0.067,0.54-0.247,0.776-0.416
	c0.236-0.158,0.495-0.293,0.574-0.293c0.068,0,0.27-0.146,0.45-0.338s0.495-0.36,0.72-0.405c0.225-0.045,0.506-0.158,0.63-0.259
	c0.36-0.315,1.8-1.136,1.98-1.136c0.09,0,0.518-0.236,0.945-0.518c0.439-0.293,1.069-0.641,1.406-0.776
	c0.338-0.135,1.001-0.473,1.463-0.754c0.461-0.281,1.035-0.563,1.271-0.63c0.225-0.067,0.799-0.349,1.271-0.63
	s1.069-0.574,1.328-0.653c0.248-0.067,0.945-0.394,1.53-0.72c0.596-0.326,1.226-0.63,1.406-0.664
	c0.304-0.079,1.508-0.641,2.531-1.193c0.214-0.113,0.529-0.214,0.686-0.214c0.169,0,0.416-0.09,0.563-0.214
	c0.146-0.112,0.473-0.27,0.72-0.349c0.248-0.079,0.585-0.259,0.754-0.394c0.157-0.135,0.495-0.281,0.743-0.326
	c0.45-0.068,1.035-0.315,2.273-0.968c0.338-0.169,0.821-0.36,1.069-0.394c0.248-0.045,0.675-0.203,0.956-0.338
	c1.249-0.619,1.991-0.945,2.351-1.013c0.202-0.045,0.619-0.203,0.911-0.349c0.292-0.146,0.585-0.27,0.641-0.27
	c0.045,0,0.326-0.124,0.608-0.27c0.281-0.158,0.81-0.36,1.193-0.45c0.698-0.18,1.631-0.563,2.509-1.013
	c0.281-0.146,0.709-0.293,0.956-0.338c0.248-0.045,0.675-0.169,0.956-0.292c2.036-0.866,2.745-1.125,3.083-1.125
	c0.214,0,0.416-0.045,0.461-0.101c0.034-0.056,0.304-0.191,0.596-0.293c0.293-0.101,0.855-0.338,1.26-0.518
	c0.405-0.169,1.058-0.371,1.44-0.428c0.394-0.068,0.776-0.169,0.855-0.225c0.158-0.135,1.62-0.529,2.318-0.63
	c0.281-0.034,0.889-0.135,1.35-0.225c0.461-0.09,1.631-0.214,2.588-0.27c0.956-0.067,2.025-0.191,2.363-0.292
	c0.337-0.09,0.968-0.225,1.406-0.281c0.428-0.068,1.17-0.236,1.631-0.383c0.461-0.158,1.283-0.304,1.8-0.349
	c0.529-0.045,1.238-0.18,1.575-0.293c0.338-0.112,1.013-0.281,1.508-0.383c0.484-0.101,1.013-0.247,1.181-0.326
	c0.382-0.203,1.373-0.405,1.913-0.405c0.236,0,0.619-0.079,0.844-0.169c0.225-0.101,0.833-0.27,1.35-0.394
	c0.518-0.124,1.08-0.304,1.26-0.394c0.191-0.09,0.709-0.214,1.17-0.281c0.461-0.068,1.069-0.202,1.35-0.292
	c0.281-0.101,0.911-0.27,1.406-0.383c0.495-0.124,1.125-0.315,1.406-0.439c0.304-0.135,0.9-0.248,1.519-0.293
	c0.563-0.045,1.406-0.18,1.879-0.293c0.484-0.124,1.418-0.315,2.081-0.439s1.474-0.292,1.8-0.382c0.315-0.09,1.17-0.214,1.913-0.281
	c0.731-0.056,1.474-0.158,1.654-0.225c0.169-0.068,0.81-0.203,1.406-0.304c0.596-0.09,1.541-0.292,2.093-0.439
	c0.563-0.146,1.519-0.304,2.138-0.349c0.619-0.034,1.485-0.158,1.913-0.27c0.439-0.112,1.215-0.259,1.744-0.337
	c0.529-0.079,1.361-0.259,1.868-0.394c0.495-0.146,1.328-0.292,1.856-0.337c0.518-0.045,1.271-0.169,1.676-0.281
	c0.405-0.124,1.136-0.292,1.631-0.383c0.495-0.09,1.046-0.225,1.226-0.292c0.54-0.203,1.215-0.326,2.441-0.439
	c0.641-0.068,1.35-0.191,1.564-0.281c0.495-0.214,1.463-0.225,1.744-0.023c0.112,0.079,0.18,0.214,0.146,0.304
	c-0.112,0.27-2.903,1.643-3.6,1.778c-0.36,0.056-0.765,0.191-0.9,0.281c-0.146,0.09-0.439,0.191-0.653,0.236
	c-0.214,0.045-0.754,0.225-1.181,0.394c-0.439,0.169-1.091,0.349-1.463,0.394c-0.686,0.079-2.374,0.518-3.882,1.013
	c-0.461,0.158-1.17,0.315-1.575,0.349c-0.709,0.068-1.361,0.214-4.05,0.934c-0.709,0.191-1.744,0.394-2.306,0.45
	c-1.012,0.112-2.644,0.461-4.444,0.968c-0.529,0.146-1.463,0.326-2.081,0.383c-0.619,0.056-1.26,0.158-1.429,0.225
	c-0.169,0.056-0.821,0.214-1.474,0.338c-0.641,0.124-1.305,0.281-1.474,0.349c-0.54,0.202-1.294,0.338-2.453,0.45
	c-0.607,0.056-1.204,0.158-1.328,0.225c-0.124,0.068-0.754,0.214-1.406,0.338C164.613,147.296,163.758,147.487,163.353,147.611z
	 M216.005,284.148c-0.27,0.304-0.529,0.675-0.563,0.821c-0.034,0.158-0.326,0.563-0.641,0.923c-0.304,0.349-0.675,0.821-0.81,1.035
	c-0.506,0.844-0.866,1.328-0.968,1.328c-0.056,0-0.18,0.18-0.27,0.394c-0.09,0.214-0.383,0.641-0.641,0.945
	c-0.259,0.304-0.585,0.754-0.709,1.001c-0.135,0.259-0.529,0.855-0.9,1.339c-0.619,0.821-0.934,1.17-2.464,2.734
	c-0.338,0.349-0.697,0.788-0.799,0.99c-0.214,0.416-0.743,0.72-1.17,0.675c-0.27-0.034-0.304-0.079-0.292-0.439
	c0.011-0.247,0.124-0.563,0.292-0.788c0.383-0.506,0.821-1.384,1.001-2.014c0.079-0.281,0.259-0.664,0.394-0.844
	c0.27-0.371,1.058-1.98,1.058-2.16c0-0.068,0.225-0.461,0.518-0.878c0.281-0.428,0.574-0.934,0.664-1.148
	c0.169-0.405,0.461-0.821,0.979-1.395c0.169-0.191,0.338-0.484,0.371-0.653c0.034-0.169,0.27-0.506,0.518-0.743
	c0.259-0.236,0.585-0.619,0.72-0.833c0.315-0.484,1.665-1.845,2.531-2.543c0.551-0.45,0.664-0.495,1.058-0.439
	c0.248,0.022,0.484,0.079,0.551,0.124c0.146,0.09,0.416,0.765,0.416,1.058C216.849,283.012,216.545,283.552,216.005,284.148z
	 M225.523,270.096c1.08,2.183,0.979,2.824-0.529,3.443c-0.889,0.36-1.091,0.371-2.655,0.158c-0.641-0.09-2.093-0.202-3.24-0.236
	c-1.159-0.045-2.633-0.169-3.319-0.281c-0.675-0.113-1.541-0.236-1.913-0.281c-1.654-0.158-2.869-0.45-2.869-0.675
	c0-0.247,0.72-0.394,2.419-0.461c1.114-0.056,1.834-0.146,2.475-0.326c0.495-0.146,1.08-0.292,1.294-0.337
	c0.214-0.045,0.596-0.202,0.855-0.349c0.247-0.146,0.563-0.27,0.686-0.27c0.349,0,1.519-0.641,1.766-0.968
	c0.113-0.158,0.394-0.371,0.63-0.495c0.27-0.135,0.484-0.36,0.619-0.641c0.112-0.236,0.315-0.551,0.45-0.709
	c0.146-0.158,0.326-0.506,0.394-0.788c0.158-0.608,0.405-1.013,0.607-1.013c0.09,0,0.315,0.18,0.506,0.394
	c0.18,0.214,0.394,0.585,0.45,0.821c0.068,0.225,0.247,0.596,0.405,0.81c0.158,0.214,0.281,0.473,0.281,0.596
	C224.837,268.6,225.152,269.331,225.523,270.096z M226.851,250.059c0.349,0.09,0.754,0.293,0.956,0.484
	c0.191,0.169,0.495,0.405,0.664,0.517c0.731,0.45,0.619,1.384-0.214,1.789c-0.45,0.214-0.54,0.225-0.866,0.09
	c-0.191-0.09-0.765-0.248-1.26-0.371c-0.495-0.124-1.125-0.315-1.406-0.427c-0.281-0.113-0.844-0.236-1.249-0.27
	c-0.405-0.045-0.99-0.202-1.305-0.349c-0.315-0.135-0.731-0.292-0.945-0.337c-0.214-0.045-0.563-0.18-0.788-0.293
	c-0.225-0.112-0.754-0.27-1.181-0.338c-0.428-0.079-1.046-0.281-1.384-0.461c-0.337-0.169-0.675-0.315-0.765-0.315
	s-0.36-0.101-0.596-0.225c-0.247-0.124-0.788-0.304-1.215-0.394c-0.416-0.079-1.058-0.315-1.418-0.495
	c-0.36-0.191-0.731-0.349-0.844-0.349c-0.101,0-0.326-0.101-0.517-0.225c-0.18-0.124-0.484-0.225-0.675-0.225
	c-0.18,0-0.934-0.281-1.665-0.619c-0.731-0.338-1.643-0.698-2.025-0.799c-0.371-0.09-0.799-0.27-0.945-0.383
	c-0.146-0.112-0.518-0.292-0.821-0.394c-0.304-0.101-0.607-0.247-0.675-0.337c-0.068-0.079-0.371-0.18-0.675-0.225
	c-0.315-0.045-0.63-0.169-0.731-0.281c-0.113-0.124-0.371-0.27-0.596-0.349c-0.214-0.068-0.563-0.247-0.788-0.394
	c-0.214-0.146-0.495-0.27-0.63-0.27c-0.135,0-0.383-0.079-0.574-0.18c-1.508-0.821-2.205-1.148-2.588-1.215
	c-0.248-0.045-0.574-0.18-0.731-0.293c-0.484-0.338-2.171-1.091-2.633-1.181c-0.338-0.056-0.461-0.135-0.551-0.405
	c-0.101-0.259-0.236-0.36-0.63-0.473c-0.529-0.146-0.72-0.36-0.382-0.45c0.36-0.09,0.607-0.079,0.833,0.034
	c0.113,0.068,0.214,0.191,0.214,0.27c0,0.101,0.225,0.169,0.686,0.225c0.371,0.034,0.9,0.169,1.17,0.281
	c0.27,0.124,0.788,0.259,1.148,0.304c0.36,0.045,0.776,0.169,0.934,0.281c0.371,0.259,2.464,0.945,3.364,1.103
	c0.394,0.068,0.776,0.169,0.855,0.236c0.225,0.191,2.396,0.9,3.071,1.013c0.326,0.045,1.013,0.27,1.53,0.495
	c0.517,0.225,0.99,0.405,1.069,0.405c0.068,0,0.315,0.09,0.551,0.214c0.225,0.112,0.653,0.236,0.956,0.27
	c0.293,0.045,0.72,0.169,0.956,0.293c0.709,0.36,2.531,1.013,3.06,1.091c0.281,0.034,0.686,0.169,0.9,0.281
	c0.641,0.338,2.486,0.979,3.038,1.069c0.281,0.034,0.686,0.169,0.9,0.281c0.574,0.293,2.678,0.979,3.263,1.058
	c0.281,0.045,0.765,0.18,1.069,0.304C224.308,249.35,225.523,249.71,226.851,250.059z M341.675,219.57
	c-3.139-0.124-5.142-0.27-6.075-0.45c-0.495-0.09-1.688-0.248-2.644-0.338c-0.956-0.101-2.194-0.247-2.756-0.349
	c-0.551-0.09-1.868-0.225-2.925-0.281c-1.89-0.101-3.229-0.247-3.994-0.439c-0.214-0.056-1.204-0.18-2.194-0.281
	c-0.99-0.09-2.655-0.27-3.713-0.394c-1.046-0.113-3.476-0.27-5.4-0.338c-1.913-0.068-4.095-0.191-4.849-0.281
	c-1.946-0.225-5.164-0.383-10.396-0.506c-10.519-0.27-11.183-0.27-14.446-0.011c-2.093,0.169-3.218,0.315-3.656,0.45
	c-0.675,0.225-1.654,0.439-2.194,0.495c-0.18,0.011-0.36,0.09-0.383,0.18c-0.045,0.135,0.416,0.146,3.195,0.056
	c4.433-0.135,17.112-0.112,20.634,0.045c1.575,0.079,4.365,0.236,6.188,0.36c1.823,0.124,4.658,0.27,6.3,0.337
	c1.643,0.056,3.51,0.18,4.163,0.281c0.653,0.09,2.014,0.248,3.038,0.338c1.024,0.09,2.588,0.27,3.488,0.394
	c0.9,0.113,2.599,0.27,3.769,0.338c1.181,0.056,2.486,0.18,2.903,0.281c0.731,0.146,1.395,0.214,5.085,0.506
	c2.138,0.169,3.589,0.551,3.285,0.866c-0.056,0.045-3.904,0.124-8.55,0.169c-4.658,0.034-9.473,0.135-10.711,0.202
	c-4.511,0.248-7.11,0.461-8.382,0.675c-0.709,0.124-1.879,0.259-2.588,0.326c-0.776,0.056-1.564,0.191-1.98,0.338
	c-1.148,0.405-2.183,0.574-3.533,0.574c-0.709,0-2.408,0.079-3.769,0.169c-1.361,0.09-3.668,0.191-5.119,0.236
	c-1.451,0.034-3.251,0.135-3.994,0.236c-0.743,0.09-2.205,0.259-3.263,0.371c-1.046,0.112-2.419,0.315-3.038,0.439
	c-0.619,0.124-1.811,0.247-2.644,0.293c-0.832,0.045-2.228,0.191-3.094,0.338c-0.866,0.146-1.958,0.292-2.419,0.337
	c-0.461,0.045-1.215,0.203-1.688,0.36c-0.754,0.259-1.024,0.292-2.644,0.304c-1.766,0.011-1.811,0-2.363-0.293
	c-0.304-0.169-0.788-0.394-1.069-0.484c-0.27-0.101-0.608-0.248-0.731-0.326c-0.124-0.079-0.529-0.169-0.9-0.203
	c-0.371-0.034-0.99-0.191-1.373-0.36c-0.675-0.281-1.575-0.405-1.451-0.191c0.034,0.056,0.236,0.135,0.45,0.169
	c0.203,0.045,0.506,0.191,0.675,0.349c0.158,0.146,0.506,0.326,0.776,0.405c0.259,0.068,0.563,0.202,0.664,0.292
	c0.112,0.101,0.461,0.225,0.776,0.27c0.641,0.101,0.889,0.259,0.889,0.563c0,0.247-0.371,0.506-0.9,0.607
	c-0.214,0.045-0.675,0.169-1.013,0.281c-0.338,0.113-1.125,0.259-1.744,0.315c-0.619,0.068-1.429,0.225-1.789,0.349
	c-0.371,0.135-0.754,0.236-0.866,0.236c-0.124,0-0.675,0.146-1.249,0.326c-0.574,0.18-1.328,0.36-1.665,0.405
	c-0.337,0.045-1.091,0.225-1.665,0.405c-0.574,0.18-1.114,0.326-1.204,0.326s-0.349,0.101-0.585,0.225
	c-0.236,0.112-0.833,0.281-1.328,0.371c-0.495,0.09-1.024,0.214-1.159,0.293c-0.135,0.068-0.641,0.248-1.114,0.405
	c-0.484,0.146-1.159,0.371-1.496,0.495c-0.338,0.124-0.765,0.236-0.956,0.236c-0.18,0-0.484,0.079-0.664,0.169
	c-0.18,0.09-0.607,0.259-0.956,0.349c-0.349,0.101-0.866,0.304-1.159,0.45c-0.281,0.146-0.788,0.315-1.125,0.371
	c-0.641,0.112-2.509,0.754-3.105,1.069c-0.214,0.112-0.619,0.236-0.9,0.292c-0.551,0.09-1.699,0.529-2.396,0.9
	c-0.225,0.124-0.698,0.292-1.069,0.371c-0.36,0.09-0.911,0.293-1.215,0.461c-0.304,0.158-0.607,0.293-0.686,0.293
	c-0.068,0-0.292,0.124-0.506,0.281c-0.202,0.158-0.563,0.304-0.776,0.349c-0.225,0.034-0.551,0.169-0.72,0.292
	c-0.169,0.113-0.518,0.293-0.776,0.383c-0.259,0.09-0.563,0.236-0.664,0.338c-0.112,0.101-0.54,0.225-0.968,0.292
	c-0.416,0.056-1.08,0.203-1.463,0.326c-1.26,0.383-1.541,0.394-2.104,0.056c-0.27-0.158-0.563-0.293-0.63-0.293
	c-0.135,0-1.204-0.607-1.834-1.035c-0.169-0.124-0.709-0.281-1.204-0.371c-0.574-0.101-1.046-0.259-1.316-0.439
	c-0.236-0.169-0.506-0.293-0.596-0.293c-0.09,0-0.36-0.101-0.596-0.225c-0.63-0.338-0.799-0.304-0.709,0.169
	c0.068,0.349,0.045,0.394-0.225,0.461c-0.169,0.045-0.383,0.022-0.484-0.045c-0.45-0.315-1.8-0.911-2.205-0.979
	c-0.247-0.045-0.574-0.169-0.731-0.27c-0.158-0.113-0.484-0.27-0.731-0.349c-0.247-0.079-0.675-0.259-0.956-0.394
	c-0.281-0.146-0.776-0.292-1.103-0.338c-0.326-0.045-0.81-0.191-1.069-0.326c-0.259-0.146-0.72-0.315-1.024-0.394
	c-0.304-0.079-0.698-0.214-0.866-0.304c-0.18-0.09-0.709-0.214-1.193-0.281c-0.484-0.056-1.35-0.259-1.924-0.45
	c-0.574-0.18-1.136-0.326-1.249-0.326c-0.124,0-0.54-0.101-0.934-0.225c-0.383-0.124-1.103-0.281-1.575-0.338
	c-0.473-0.068-1.148-0.248-1.508-0.416c-0.765-0.349-1.676-0.495-1.598-0.247c0.034,0.09,0.236,0.202,0.473,0.27
	c0.225,0.068,0.529,0.259,0.664,0.416c0.135,0.169,0.63,0.495,1.091,0.72c0.461,0.236,1.125,0.641,1.485,0.911
	c0.349,0.27,0.81,0.551,1.013,0.619c0.203,0.068,0.54,0.27,0.743,0.45c0.202,0.169,0.439,0.315,0.529,0.315
	c0.079,0,0.292,0.124,0.473,0.27c0.169,0.146,0.495,0.304,0.709,0.349c0.214,0.045,0.563,0.225,0.765,0.405
	c0.202,0.18,0.439,0.326,0.517,0.326c0.079,0,0.326,0.124,0.54,0.27c0.214,0.146,0.63,0.293,0.911,0.338
	c0.349,0.056,0.596,0.169,0.72,0.338c0.112,0.135,0.45,0.338,0.754,0.439c0.315,0.112,0.686,0.304,0.833,0.439
	c0.146,0.146,0.473,0.304,0.731,0.371c0.259,0.056,0.473,0.158,0.473,0.225c0,0.191-0.585,0.191-0.945,0.011
	c-0.214-0.112-0.63-0.18-1.136-0.18c-0.641,0-0.9-0.056-1.271-0.27c-0.259-0.146-0.63-0.304-0.821-0.349
	c-0.191-0.034-0.518-0.191-0.731-0.349c-0.202-0.146-0.427-0.27-0.506-0.27c-0.079,0-0.349-0.18-0.607-0.394
	c-0.259-0.214-0.54-0.394-0.619-0.394c-0.079,0-0.293-0.124-0.473-0.259c-0.169-0.146-0.506-0.304-0.743-0.338
	c-0.248-0.034-0.596-0.214-0.821-0.405c-0.214-0.191-0.484-0.349-0.607-0.349c-0.113,0-0.349-0.124-0.529-0.27
	c-0.169-0.146-0.518-0.293-0.765-0.338c-0.236-0.045-0.608-0.236-0.821-0.416c-0.202-0.18-0.461-0.326-0.563-0.326
	c-0.112,0-0.371-0.124-0.574-0.27c-0.202-0.146-0.54-0.304-0.765-0.349c-0.225-0.034-0.563-0.191-0.754-0.338
	c-0.191-0.146-0.484-0.293-0.653-0.337c-0.158-0.045-0.405-0.18-0.54-0.304c-0.135-0.135-0.461-0.281-0.731-0.326
	c-0.259-0.045-0.641-0.191-0.855-0.326c-0.214-0.135-0.788-0.484-1.283-0.776c-0.495-0.293-0.911-0.608-0.934-0.709
	c-0.022-0.124,0.101-0.259,0.338-0.383c0.203-0.101,0.529-0.36,0.72-0.563l0.36-0.383h1.215c1.485,0,1.631-0.068,1.283-0.54
	c-0.202-0.27-0.371-0.36-0.799-0.416c-0.304-0.045-0.619-0.169-0.731-0.292c-0.236-0.27-0.844-0.439-1.53-0.439
	c-0.596,0-0.799,0.191-0.934,0.9c-0.135,0.72-0.191,0.81-0.574,0.968c-0.203,0.09-0.731,0.158-1.159,0.158
	c-0.653,0-0.833-0.045-1.103-0.259c-0.428-0.349-1.553-1.091-1.665-1.091c-0.112,0-1.091-0.788-1.215-0.968
	c-0.045-0.079-0.304-0.225-0.585-0.326c-0.405-0.158-0.518-0.27-0.63-0.608c-0.124-0.383-0.326-0.743-1.013-1.778
	c-0.169-0.259-0.36-0.653-0.428-0.889c-0.068-0.225-0.248-0.608-0.405-0.844c-0.956-1.451-1.035-1.654-0.844-2.014
	c0.169-0.304,0.765-0.293,1.811,0.045c0.461,0.146,1.181,0.292,1.609,0.338c0.428,0.045,1.069,0.202,1.44,0.36
	c0.36,0.146,1.001,0.349,1.418,0.428c0.416,0.09,0.956,0.236,1.204,0.338c0.484,0.18,1.913,0.248,1.8,0.079
	c-0.034-0.056-0.214-0.135-0.394-0.18c-0.18-0.045-0.495-0.191-0.709-0.326c-0.225-0.158-0.619-0.281-0.945-0.315
	c-0.315-0.034-0.833-0.191-1.159-0.36c-0.315-0.169-0.866-0.36-1.204-0.416c-0.349-0.067-0.754-0.202-0.9-0.292
	c-0.146-0.101-0.698-0.214-1.238-0.27c-0.529-0.056-1.35-0.225-1.823-0.371c-0.473-0.146-1.103-0.338-1.418-0.428
	c-0.484-0.135-0.596-0.225-0.788-0.596c-0.113-0.247-0.484-0.911-0.81-1.474c-0.326-0.563-0.596-1.069-0.596-1.125
	c0-0.158-0.664-1.384-1.024-1.879c-0.169-0.236-0.349-0.574-0.383-0.754c-0.045-0.191-0.27-0.675-0.506-1.091
	c-0.495-0.866-0.641-1.136-1.103-2.183c-0.18-0.405-0.484-0.956-0.686-1.226c-0.191-0.27-0.349-0.563-0.349-0.653
	c0-0.248-0.653-1.564-1.035-2.093c-0.169-0.236-0.315-0.518-0.315-0.608c0-0.248-0.664-1.598-0.979-1.969
	c-0.146-0.18-0.293-0.461-0.326-0.619c-0.101-0.45-0.799-1.879-0.99-2.036c-0.101-0.079-0.281-0.495-0.428-0.923
	c-0.248-0.776-0.248-0.776-0.022-1.069c0.281-0.383,1.463-0.788,2.61-0.889c0.473-0.045,1.091-0.18,1.373-0.292
	c0.281-0.113,0.731-0.259,1.013-0.326c0.281-0.079,0.664-0.225,0.855-0.349c0.191-0.112,0.641-0.281,1.013-0.371
	c0.383-0.09,1.103-0.416,1.721-0.788c0.585-0.349,1.148-0.63,1.238-0.63c0.214-0.011,1.136-0.585,1.755-1.103
	c0.405-0.326,0.428-0.36,0.18-0.36c-0.146,0-0.428,0.101-0.619,0.225c-0.27,0.158-0.664,0.236-1.485,0.292
	c-0.607,0.034-1.62,0.18-2.239,0.326c-0.619,0.146-1.429,0.326-1.8,0.394c-0.371,0.079-0.911,0.236-1.193,0.349
	c-0.292,0.113-0.844,0.236-1.238,0.281c-0.394,0.045-1.091,0.191-1.541,0.337c-0.45,0.146-0.9,0.27-1.013,0.27
	c-0.101,0-0.461,0.124-0.788,0.281c-0.338,0.158-0.698,0.281-0.81,0.281c-0.619,0-2.126-3.15-2.475-5.175
	c-0.079-0.405-0.225-1.013-0.337-1.35c-0.113-0.338-0.236-0.911-0.27-1.26c-0.034-0.36-0.169-0.911-0.292-1.226
	c-0.293-0.731-0.518-2.801-0.338-3.128c0.101-0.203,0.225-0.236,0.821-0.236c0.495,0,0.799-0.068,1.058-0.214
	c0.191-0.124,0.574-0.281,0.833-0.349c0.259-0.067,0.608-0.225,0.765-0.349c0.158-0.113,0.585-0.293,0.934-0.383
	c0.36-0.09,0.844-0.281,1.069-0.428c0.574-0.349,1.879-0.979,2.048-0.979c0.203,0,1.474-0.664,1.474-0.776
	c0-0.146-0.439-0.236-0.833-0.158c-0.191,0.034-0.72,0.203-1.17,0.383c-0.506,0.214-1.193,0.383-1.8,0.45
	c-0.54,0.056-1.181,0.18-1.429,0.27s-0.821,0.214-1.26,0.281c-0.45,0.056-1.069,0.214-1.384,0.338
	c-0.315,0.124-0.799,0.225-1.069,0.225c-0.439,0-0.518-0.045-0.675-0.338c-0.09-0.18-0.169-0.484-0.169-0.675
	s-0.09-0.585-0.214-0.878c-0.112-0.293-0.394-1.091-0.619-1.789c-0.473-1.463-0.518-2.216-0.18-2.655
	c0.293-0.371,0.281-0.439-0.056-0.281c-0.383,0.169-0.664-0.09-0.844-0.788c-0.079-0.292-0.248-0.731-0.371-0.979
	c-0.124-0.248-0.292-0.754-0.371-1.125c-0.146-0.697-0.968-3.026-1.159-3.251c-0.056-0.068-0.158-0.428-0.214-0.799
	c-0.068-0.371-0.203-0.911-0.315-1.193c-0.225-0.574-0.169-0.844,0.203-0.99c0.146-0.056,0.821-0.315,1.496-0.574
	c0.686-0.259,1.294-0.529,1.373-0.585c0.079-0.056,0.45-0.18,0.844-0.27c0.394-0.09,0.81-0.191,0.934-0.225
	c0.124-0.034,0.326,0.011,0.439,0.101c0.214,0.158,0.203,0.18-0.191,0.99c-0.236,0.461-0.416,0.866-0.416,0.911
	s-0.281,0.495-0.619,1.001c-0.585,0.866-0.81,1.564-0.506,1.564c0.236,0,0.686-0.383,0.866-0.72c0.101-0.191,0.428-0.619,0.72-0.945
	c0.304-0.338,0.551-0.675,0.551-0.754c0-0.079,0.202-0.349,0.461-0.585c0.248-0.236,0.596-0.653,0.776-0.934
	c0.99-1.519,1.62-2.126,2.441-2.363c0.236-0.068,0.529-0.191,0.641-0.281c0.259-0.191,0.81-0.225,0.911-0.056
	c0.112,0.18-0.169,0.923-0.45,1.238c-0.135,0.158-0.315,0.461-0.383,0.686c-0.068,0.225-0.248,0.506-0.405,0.641
	c-0.146,0.124-0.484,0.619-0.743,1.091c-0.259,0.473-0.664,1.125-0.911,1.44c-0.236,0.326-0.484,0.765-0.54,0.99
	c-0.068,0.225-0.214,0.495-0.349,0.619c-0.135,0.113-0.36,0.45-0.506,0.743c-0.146,0.293-0.315,0.551-0.382,0.596
	c-0.056,0.034-0.169,0.293-0.236,0.574c-0.068,0.281-0.214,0.551-0.326,0.608c-0.214,0.112-0.81,1.103-0.956,1.575
	c-0.045,0.158-0.236,0.45-0.405,0.653c-0.18,0.202-0.326,0.495-0.326,0.641c0,0.158,0.023,0.281,0.045,0.281
	c0.022,0,0.259-0.304,0.529-0.686c0.27-0.371,0.664-0.889,0.866-1.136c0.191-0.247,0.36-0.495,0.36-0.54
	c0-0.056,0.236-0.36,0.517-0.698c0.281-0.326,0.608-0.81,0.72-1.069c0.113-0.259,0.315-0.518,0.428-0.585
	c0.124-0.068,0.461-0.518,0.754-1.013c0.292-0.495,0.743-1.148,1.013-1.463c0.27-0.315,0.517-0.72,0.563-0.9
	c0.034-0.18,0.214-0.45,0.394-0.607c0.169-0.158,0.506-0.63,0.743-1.058c0.225-0.416,0.653-1.046,0.945-1.384
	c0.293-0.349,0.574-0.787,0.619-0.99c0.045-0.214,0.203-0.439,0.371-0.551c0.169-0.101,0.585-0.45,0.923-0.765
	c0.596-0.563,0.653-0.585,1.575-0.72c1.541-0.225,2.295-0.101,3.949,0.664c0.776,0.36,1.62,0.686,1.879,0.731
	c0.259,0.045,0.641,0.191,0.844,0.326c0.338,0.225,2.284,0.968,2.554,0.968c0.135,0,0.844,0.304,2.081,0.9
	c0.495,0.236,1.125,0.472,1.406,0.518c0.563,0.079,1.946,0.72,2.306,1.058c0.135,0.124,0.383,0.225,0.563,0.225
	c0.473,0,1.226,0.405,1.665,0.889c0.371,0.416,0.383,0.45,0.461,1.733c0.101,1.654,0.461,2.588,1.136,2.948
	c0.405,0.214,0.416,0.214,0.574,0c0.281-0.383,0.191-1.215-0.203-1.991c-0.349-0.664-0.371-0.776-0.371-1.89
	c0-1.013-0.034-1.238-0.247-1.598c-0.293-0.495-1.091-0.99-1.755-1.08c-0.259-0.034-0.956-0.326-1.553-0.641
	c-0.585-0.326-1.226-0.63-1.418-0.664c-0.191-0.045-0.439-0.18-0.54-0.292c-0.112-0.124-0.383-0.281-0.608-0.349
	c-0.225-0.068-0.596-0.225-0.821-0.338c-0.225-0.124-0.743-0.259-1.136-0.315c-0.394-0.056-1.024-0.236-1.384-0.405
	c-0.72-0.315-0.765-0.349-1.215-0.664c-0.169-0.124-0.585-0.259-0.934-0.315c-0.338-0.056-0.866-0.225-1.17-0.371
	c-0.304-0.157-0.81-0.338-1.136-0.405c-0.799-0.169-0.99-0.281-0.99-0.596c0-0.349,0.293-0.585,1.035-0.844
	c0.338-0.112,0.788-0.292,0.99-0.405c0.202-0.101,0.675-0.236,1.046-0.281c0.405-0.056,0.765-0.191,0.911-0.326
	c0.124-0.113,0.461-0.281,0.743-0.349c0.27-0.079,0.788-0.281,1.125-0.45c0.349-0.18,0.878-0.349,1.181-0.394
	c0.315-0.045,0.776-0.203,1.035-0.349c0.259-0.146,0.54-0.27,0.63-0.27c0.09,0,0.428-0.146,0.765-0.326
	c0.337-0.169,0.799-0.349,1.035-0.394c0.889-0.169,3.42-1.294,3.96-1.766c0.281-0.236,2.194-0.956,2.858-1.058
	c0.641-0.101,1.328-0.416,1.868-0.844c0.236-0.18,0.484-0.338,0.551-0.338c0.169,0,1.699-0.731,2.081-0.99
	c0.158-0.113,0.473-0.281,0.686-0.36c0.214-0.09,0.844-0.405,1.395-0.698c0.551-0.304,1.238-0.607,1.519-0.697
	c0.979-0.293,3.071-1.508,4.309-2.498c0.169-0.135,0.484-0.281,0.697-0.315c0.518-0.101,1.643-0.664,1.913-0.945
	c0.112-0.124,0.394-0.259,0.641-0.304c0.236-0.045,0.551-0.169,0.686-0.27c0.146-0.113,0.383-0.247,0.54-0.293
	c0.146-0.045,0.405-0.18,0.574-0.304c0.382-0.281,1.845-0.743,2.396-0.754c0.371-0.011,0.506,0.056,0.9,0.473
	c0.923,0.979,1.418,1.575,1.418,1.71c0,0.079,0.281,0.428,0.619,0.776c0.338,0.338,0.619,0.698,0.619,0.799
	c0,0.09,0.259,0.427,0.574,0.754c0.315,0.326,0.653,0.72,0.754,0.878c0.101,0.158,0.416,0.574,0.697,0.934
	c0.281,0.36,0.608,0.821,0.72,1.013c0.124,0.202,0.405,0.596,0.653,0.889c0.236,0.293,0.529,0.743,0.664,1.013
	c0.338,0.709,0.788,1.463,1.148,1.879c0.169,0.203,0.304,0.461,0.304,0.574s0.248,0.506,0.551,0.866
	c0.664,0.799,0.799,1.046,0.799,1.474c0,0.405-0.158,0.54-0.878,0.754c-0.304,0.09-0.619,0.236-0.686,0.326
	c-0.079,0.09-0.394,0.225-0.698,0.293c-0.653,0.158-1.451,0.574-1.98,1.024c-0.191,0.169-0.517,0.338-0.709,0.383
	c-0.608,0.135-0.315,0.337,0.574,0.394c0.799,0.056,0.833,0.068,0.833,0.338c0,0.281-0.056,0.315-1.103,0.799
	c-0.304,0.135-0.776,0.405-1.069,0.596c-0.596,0.416-1.991,1.08-2.239,1.08c-0.203,0-0.641-0.326-1.53-1.136
	c-0.382-0.349-0.844-0.686-1.035-0.743c-0.18-0.067-0.551-0.326-0.821-0.585c-0.27-0.259-0.675-0.563-0.923-0.686
	c-0.495-0.259-1.418-0.844-1.744-1.125c-0.124-0.113-0.416-0.236-0.641-0.27c-0.236-0.045-0.574-0.202-0.754-0.349
	c-0.202-0.169-0.473-0.281-0.698-0.281c-0.214-0.011-0.585-0.09-0.833-0.18c-0.247-0.09-0.788-0.292-1.193-0.428
	c-0.405-0.146-0.889-0.349-1.08-0.45c-0.495-0.247-2.126-0.315-2.689-0.101c-0.247,0.09-0.664,0.236-0.945,0.338
	s-0.788,0.428-1.125,0.731c-0.337,0.304-0.821,0.608-1.069,0.686c-0.551,0.158-1.575,0.743-2.003,1.136
	c-0.169,0.158-0.383,0.293-0.461,0.293c-0.146,0-0.45,0.315-1.271,1.35c-0.225,0.281-0.585,0.889-0.799,1.35
	c-0.214,0.461-0.484,0.945-0.596,1.069c-0.247,0.281-0.484,1.699-0.405,2.419c0.034,0.281,0.022,1.046-0.034,1.688
	c-0.09,0.956-0.068,1.395,0.112,2.486c0.113,0.731,0.293,1.485,0.383,1.665c0.101,0.18,0.236,0.709,0.304,1.159
	c0.068,0.45,0.248,1.103,0.394,1.44c0.135,0.338,0.292,0.754,0.326,0.923c0.045,0.169,0.146,0.36,0.236,0.439
	c0.09,0.068,0.259,0.461,0.383,0.878c0.124,0.405,0.405,1.046,0.619,1.418c0.214,0.371,0.495,0.9,0.619,1.181
	c0.495,1.035,0.833,1.643,1.136,1.991c0.169,0.191,0.338,0.506,0.383,0.698c0.034,0.18,0.146,0.394,0.236,0.473
	c0.09,0.067,0.518,0.675,0.968,1.339c0.439,0.675,0.911,1.283,1.058,1.361c0.146,0.067,0.338,0.326,0.428,0.551
	c0.09,0.236,0.394,0.608,0.664,0.833c0.281,0.225,0.563,0.551,0.641,0.731c0.068,0.169,0.349,0.473,0.63,0.675
	c0.281,0.191,0.596,0.506,0.698,0.686c0.101,0.18,0.383,0.416,0.619,0.529c0.247,0.101,0.563,0.349,0.709,0.54
	c0.146,0.202,0.529,0.495,0.833,0.664c0.315,0.169,0.698,0.439,0.844,0.585c0.146,0.146,0.349,0.27,0.439,0.27
	s0.315,0.124,0.495,0.281c0.18,0.146,0.529,0.315,0.787,0.371c0.248,0.056,0.596,0.214,0.754,0.338
	c0.158,0.124,0.45,0.27,0.653,0.315c0.202,0.034,0.563,0.169,0.799,0.292c0.236,0.124,0.934,0.293,1.53,0.371
	c0.596,0.09,1.463,0.247,1.924,0.36c1.193,0.293,4.962,0.293,5.783,0.011c0.315-0.113,1.046-0.27,1.631-0.36
	c1.046-0.158,1.384-0.27,2.306-0.765c0.247-0.135,0.743-0.382,1.091-0.563c1.148-0.563,2.689-2.295,2.858-3.206
	c0.045-0.236,0.18-0.63,0.304-0.878c0.36-0.709,0.405-2.588,0.09-3.521c-0.135-0.394-0.315-1.08-0.394-1.53
	c-0.124-0.585-0.304-1.046-0.641-1.598c-0.259-0.428-0.563-0.979-0.653-1.226c-0.225-0.563-0.787-1.406-0.945-1.406
	c-0.079,0-0.079,0.349-0.011,1.035c0.135,1.429,0.124,5.119-0.034,6.244c-0.09,0.709-0.203,1.058-0.461,1.463
	c-0.383,0.585-1.091,1.238-1.71,1.553c-0.214,0.101-0.495,0.293-0.63,0.405c-0.124,0.113-0.529,0.259-0.9,0.315
	c-0.36,0.056-1.069,0.225-1.564,0.36c-0.788,0.214-1.193,0.236-3.263,0.236c-2.104,0.011-2.453-0.022-3.206-0.236
	c-0.461-0.135-1.148-0.293-1.519-0.349c-0.855-0.124-3.566-1.474-4.388-2.171c-0.304-0.27-0.731-0.585-0.934-0.686
	c-0.191-0.101-0.495-0.383-0.653-0.619c-0.158-0.247-0.484-0.574-0.731-0.731c-0.236-0.158-0.506-0.439-0.607-0.63
	c-0.101-0.191-0.439-0.607-0.765-0.945c-0.799-0.821-0.911-0.968-2.486-3.33c-0.18-0.281-0.394-0.54-0.473-0.596
	c-0.079-0.045-0.225-0.315-0.337-0.619c-0.112-0.292-0.259-0.607-0.338-0.697c-0.079-0.09-0.236-0.394-0.36-0.675
	s-0.326-0.608-0.461-0.72c-0.124-0.124-0.236-0.315-0.236-0.45c0-0.124-0.124-0.484-0.27-0.799c-0.9-1.879-1.069-2.306-1.136-2.813
	c-0.045-0.315-0.169-0.765-0.281-1.013c-0.112-0.247-0.27-0.675-0.337-0.956c-0.079-0.281-0.259-0.878-0.416-1.339
	c-0.225-0.675-0.293-1.215-0.394-2.959c-0.169-2.835-0.079-3.431,0.641-4.388c0.292-0.394,0.607-0.866,0.686-1.058
	c0.079-0.191,0.394-0.54,0.709-0.776c0.304-0.236,0.664-0.574,0.788-0.743c0.135-0.18,0.315-0.326,0.394-0.326
	c0.09,0,0.428-0.27,0.743-0.608c0.833-0.878,1.226-1.001,2.869-0.979c0.833,0.011,1.575,0.09,1.958,0.203
	c0.574,0.158,1.721,0.799,1.856,1.035c0.045,0.056,0.315,0.191,0.607,0.281c0.293,0.101,0.81,0.394,1.148,0.641
	c0.337,0.259,0.833,0.563,1.08,0.664c0.259,0.113,0.506,0.259,0.551,0.338c0.045,0.067,0.281,0.259,0.54,0.416
	c0.259,0.158,0.54,0.36,0.619,0.45c0.09,0.079,0.292,0.225,0.45,0.304c0.169,0.09,0.518,0.394,0.788,0.675
	c0.27,0.292,0.664,0.596,0.878,0.686c0.214,0.09,0.484,0.326,0.619,0.563c0.135,0.214,0.461,0.529,0.731,0.686
	c0.281,0.169,0.574,0.427,0.653,0.596c0.18,0.337,0.518,0.664,0.878,0.844c0.146,0.068,0.315,0.248,0.382,0.383
	c0.18,0.36,0.608,0.799,0.945,0.956c0.146,0.079,0.349,0.293,0.439,0.473c0.135,0.293,0.799,1.08,1.8,2.138
	c0.743,0.776,2.171,2.565,2.655,3.308c0.281,0.439,0.596,0.799,0.675,0.799c0.09,0,0.169-0.011,0.169-0.034
	c0-0.011-0.079-0.416-0.169-0.9c-0.169-0.866-1.046-2.779-1.8-3.87c-0.304-0.461-0.36-0.844-0.135-1.024
	c0.214-0.18,2.43-0.889,3.06-0.99c0.664-0.09,1.305-0.36,2.183-0.878c0.349-0.214,0.833-0.45,1.08-0.529
	c0.248-0.067,0.833-0.371,1.294-0.664c0.461-0.293,0.968-0.574,1.125-0.619c0.158-0.045,0.596-0.259,0.99-0.473
	c0.821-0.461,1.249-0.45,1.98,0.056c0.338,0.236,0.664,0.326,1.53,0.428c0.945,0.112,1.181,0.18,1.733,0.54
	c0.675,0.427,0.788,0.72,0.45,1.091c-0.225,0.259-0.146,0.473,0.259,0.743c0.405,0.27,1.958,0.281,2.453,0.011
	c0.641-0.337,1.283-0.36,2.025-0.056c0.371,0.158,0.945,0.315,1.26,0.36c0.945,0.124,1.643,0.731,1.879,1.631
	c0.034,0.158,0.259,0.416,0.484,0.585c0.495,0.382,0.934,0.405,1.946,0.09c0.956-0.293,1.395-0.281,2.081,0.056
	c0.315,0.146,0.664,0.281,0.799,0.281c0.439,0,1.395,0.349,1.699,0.608c0.248,0.214,0.326,0.394,0.371,0.911
	c0.045,0.54,0.113,0.686,0.36,0.878c0.45,0.338,1.26,0.371,1.98,0.09c0.743-0.293,1.631-0.304,2.284-0.023
	c0.27,0.124,0.742,0.259,1.035,0.293c0.382,0.056,0.731,0.225,1.204,0.574l0.664,0.484l-0.068,0.596
	c-0.09,0.878,0.09,1.001,1.463,1.001c0.709,0,1.226-0.067,1.496-0.18c0.506-0.214,1.091-0.214,1.485-0.011
	c0.169,0.079,0.529,0.191,0.81,0.236c0.281,0.045,0.641,0.18,0.799,0.293c0.158,0.112,0.54,0.281,0.844,0.382
	c0.551,0.18,1.058,0.608,1.058,0.889c0,0.079-0.124,0.338-0.281,0.563c-0.495,0.743-0.326,1.148,0.596,1.429
	c0.416,0.124,0.641,0.112,1.575-0.068c0.596-0.113,1.305-0.293,1.575-0.405c0.844-0.36,1.136-0.293,3.263,0.709
	c0.596,0.281,0.743,0.529,0.596,1.035c-0.135,0.495,0.169,1.024,0.641,1.125c0.349,0.079,1.62-0.09,2.104-0.27
	c0.664-0.248,1.384-0.135,2.689,0.439c0.686,0.304,1.519,0.607,1.856,0.675c0.326,0.068,0.754,0.259,0.934,0.405
	c0.18,0.158,0.394,0.281,0.473,0.281c0.259,0,0.731,0.45,0.664,0.63c-0.034,0.09-0.236,0.236-0.439,0.326
	c-0.461,0.191-0.709,0.641-0.506,0.889c0.124,0.135,0.641,0.18,2.981,0.202c2.835,0.034,2.846,0.034,3.285,0.326
	c0.236,0.158,0.608,0.349,0.821,0.416c0.214,0.079,0.484,0.225,0.596,0.326c0.304,0.27,0.259,0.844-0.079,1.159
	c-0.281,0.259-0.36,0.619-0.191,0.844c0.304,0.416,0.484,0.45,2.993,0.518c2.295,0.056,2.543,0.079,3.173,0.338
	c0.416,0.158,0.923,0.484,1.26,0.81c0.315,0.293,0.653,0.529,0.743,0.529s0.27,0.135,0.405,0.304
	c0.135,0.169,0.428,0.416,0.653,0.54c0.529,0.293,0.529,0.506,0,0.788c-0.484,0.259-0.585,0.439-0.427,0.731
	c0.146,0.281,0.427,0.315,2.981,0.394c2.363,0.079,2.835,0.203,3.668,0.934c0.214,0.191,0.529,0.382,0.709,0.428
	c0.281,0.068,1.08,0.945,1.08,1.193c0,0.068-0.079,0.247-0.18,0.416c-0.169,0.292-0.169,0.337,0.011,0.607
	c0.203,0.315,0.754,0.529,1.361,0.529c0.506,0,2.61,0.709,3.139,1.046c1.058,0.698,1.553,1.046,1.755,1.26
	c0.124,0.124,0.439,0.326,0.698,0.45c0.416,0.202,0.472,0.281,0.506,0.641c0.023,0.304-0.034,0.518-0.225,0.765l-0.259,0.36
	l0.405,0.371c0.394,0.349,0.473,0.371,1.519,0.45c1.159,0.079,2.408,0.495,2.914,0.968c0.135,0.113,0.405,0.27,0.619,0.337
	c0.214,0.079,0.608,0.36,0.866,0.63c0.27,0.259,0.72,0.596,1.013,0.743c0.349,0.158,0.551,0.326,0.574,0.473
	c0.045,0.326-0.371,0.934-0.821,1.193c-0.27,0.158-0.394,0.315-0.394,0.495c0,0.326,0.113,0.405,1.125,0.833
	c1.283,0.529,2.914,0.945,4.174,1.08c0.709,0.079,0.371-0.203,3.454,2.779l1.598,1.541v0.833c0,0.821,0,0.833,0.428,1.17
	c0.225,0.191,0.54,0.383,0.686,0.428c0.506,0.158,1.868,0.968,2.34,1.384c0.349,0.304,0.518,0.563,0.619,0.956
	C344.003,219.615,343.891,219.649,341.675,219.57z
	 M202.381,158.31c0.45,0,0.664-0.214,0.608-0.641c-0.023-0.259-0.09-0.315-0.371-0.349
	c-0.18-0.011-0.394,0.011-0.461,0.056c-0.135,0.09-0.191,0.36-0.169,0.731C201.998,158.254,202.1,158.31,202.381,158.31z
	 M188.847,159.334c-0.281-0.068-0.619-0.146-0.754-0.191c-0.135-0.034-0.281,0.011-0.371,0.112
	c-0.18,0.214-0.09,0.36,0.293,0.461c0.169,0.034,0.45,0.191,0.63,0.349c0.371,0.315,1.058,0.371,1.17,0.09
	C189.915,159.885,189.42,159.458,188.847,159.334z
	 M229.337,177.92c-0.112-0.439-0.315-1.001-0.439-1.249c-0.124-0.248-0.27-0.664-0.304-0.934
	c-0.079-0.495-0.709-1.8-1.058-2.183c-0.113-0.124-0.236-0.349-0.281-0.506c-0.124-0.439-0.956-2.138-1.046-2.138
	c-0.045,0-0.18-0.169-0.293-0.371c-0.112-0.191-0.461-0.619-0.787-0.934c-0.315-0.315-0.664-0.709-0.788-0.878
	c-0.113-0.18-0.383-0.416-0.596-0.54c-0.203-0.124-0.45-0.371-0.54-0.54c-0.09-0.169-0.439-0.495-0.765-0.72
	c-0.337-0.214-0.641-0.473-0.675-0.563c-0.034-0.09-0.439-0.45-0.889-0.788c-1.091-0.833-2.419-1.901-2.903-2.351
	c-0.214-0.203-0.608-0.439-0.878-0.518c-0.27-0.068-0.506-0.202-0.54-0.293c-0.112-0.281-1.643-0.923-2.633-1.114
	c-1.058-0.191-2.621-0.27-3.319-0.169c-0.81,0.135-2.183,0.529-2.554,0.743c-0.416,0.236-1.001,1.001-1.339,1.721
	c-0.36,0.776-0.506,2.385-0.349,3.679c0.191,1.485,0.45,2.711,0.686,3.184c0.112,0.214,0.236,0.619,0.281,0.878
	c0.09,0.574,0.529,1.665,0.934,2.295c0.146,0.248,0.349,0.686,0.439,0.979c0.09,0.281,0.36,0.799,0.608,1.136
	c0.248,0.338,0.54,0.833,0.664,1.091c0.124,0.27,0.439,0.765,0.709,1.114c0.27,0.349,0.596,0.81,0.731,1.035
	s0.506,0.653,0.821,0.934c0.304,0.293,0.563,0.608,0.563,0.698s0.169,0.315,0.383,0.484c0.596,0.517,0.72,0.641,1.08,1.069
	c0.18,0.225,0.484,0.472,0.664,0.54c0.169,0.079,0.383,0.248,0.45,0.383c0.158,0.281,0.495,0.54,1.643,1.26
	c0.439,0.27,0.911,0.585,1.069,0.709c0.158,0.113,0.484,0.248,0.731,0.293c0.236,0.045,0.585,0.18,0.754,0.304
	c0.394,0.293,2.093,0.664,3.004,0.664c1.125,0,3.026-0.326,3.679-0.63c0.315-0.146,0.653-0.27,0.743-0.27
	c0.484,0,1.721-1.136,2.16-2.003c0.529-1.035,0.799-3.33,0.506-4.298C229.607,178.91,229.45,178.37,229.337,177.92z
	 M193.842,161.382c-0.461-0.034-0.72-0.011-0.81,0.09c-0.349,0.36,0.427,0.889,1.316,0.889
	c0.473,0,0.563-0.034,0.563-0.214C194.911,161.708,194.551,161.449,193.842,161.382z
	 M200.581,162.653c-0.214-0.225-0.27-0.225-0.574-0.011c-0.236,0.169-0.394,0.653-0.293,0.923
	c0.034,0.079,0.191,0.146,0.371,0.146C200.648,163.711,200.975,163.036,200.581,162.653z
	 M198.376,163.047c-0.248,0.135-0.259,0.371-0.023,0.596c0.214,0.214,0.281,0.225,0.54,0.034
	c0.158-0.112,0.169-0.202,0.079-0.45C198.848,162.901,198.691,162.856,198.376,163.047z
	 M238.012,193.693c0.068-0.36,0.27-0.934,0.45-1.271c0.18-0.338,0.326-0.754,0.326-0.911
	c0-0.158,0.101-0.461,0.225-0.664c0.124-0.191,0.293-0.72,0.394-1.159c0.09-0.439,0.293-1.024,0.45-1.283
	c0.158-0.27,0.281-0.563,0.281-0.653c0-0.079,0.124-0.405,0.281-0.709c0.158-0.304,0.281-0.709,0.281-0.889
	c0-0.191,0.135-0.619,0.293-0.956c0.506-1.069,1.035-2.52,1.114-2.981c0.034-0.247,0.191-0.709,0.338-1.013
	c0.585-1.193,0.945-2.16,1.024-2.734c0.045-0.371,0.202-0.776,0.394-1.069c0.18-0.259,0.326-0.574,0.326-0.698
	s0.101-0.428,0.236-0.664c0.293-0.551,0.247-0.9-0.124-0.945c-0.158-0.022-0.326,0-0.371,0.045
	c-0.045,0.045-0.079,0.214-0.079,0.371c0,0.158-0.079,0.416-0.169,0.574c-0.45,0.788-1.091,2.261-1.249,2.858
	c-0.101,0.383-0.293,0.911-0.45,1.193c-0.416,0.788-0.81,1.811-0.889,2.306c-0.045,0.248-0.146,0.563-0.236,0.698
	c-0.281,0.45-1.024,2.554-1.103,3.173c-0.045,0.337-0.202,0.855-0.36,1.148c-0.146,0.304-0.338,0.866-0.416,1.26
	c-0.09,0.383-0.236,0.833-0.326,0.979c-0.101,0.169-0.202,0.675-0.236,1.204c-0.045,0.596-0.158,1.125-0.315,1.463
	c-0.146,0.315-0.27,0.866-0.304,1.328C237.742,194.616,237.843,194.616,238.012,193.693z
	 M201.481,178.528c0.079-0.034,0.112-0.293,0.101-0.698c-0.022-0.484-0.101-0.765-0.315-1.08
	c-0.27-0.416-0.63-0.574-0.776-0.338C200.266,176.773,201.143,178.651,201.481,178.528z
	 M188.16,180.632c0-0.866-0.202-1.069-0.934-0.945c-0.236,0.045-0.641,0.225-0.9,0.405
	c-0.371,0.259-0.484,0.416-0.506,0.709c-0.068,0.675,0.056,0.911,0.596,1.148c0.506,0.225,0.506,0.225,1.013,0
	C188.003,181.7,188.16,181.408,188.16,180.632z
	 M204.564,185.424c0.518,0,0.54-0.709,0.034-1.249c-0.135-0.146-0.236-0.315-0.236-0.394
	c0-0.304-0.664-0.574-0.878-0.36c-0.225,0.225-0.158,0.743,0.158,1.283C203.945,185.233,204.204,185.424,204.564,185.424z
	 M182.074,184.749c-0.416,0-0.54,0.068-1.08,0.596c-0.574,0.585-0.596,0.63-0.596,1.238
	c0,0.506,0.056,0.686,0.293,0.968c0.563,0.664,1.958,0.731,2.52,0.124c0.709-0.754,0.641-1.688-0.158-2.453
	C182.625,184.817,182.479,184.749,182.074,184.749z
	 M187.721,188.957c0.158,0.337,0.551,0.518,1.226,0.54c0.686,0.022,1.148-0.214,1.271-0.664
	c0.146-0.495,0.022-0.9-0.428-1.35c-0.54-0.54-0.979-0.518-1.665,0.113C187.564,188.113,187.474,188.417,187.721,188.957z
	 M206.881,189.339c0.428,0.056,0.574-0.112,0.394-0.439c-0.225-0.45-0.439-0.54-0.664-0.281
	C206.375,188.912,206.521,189.306,206.881,189.339z
	 M210.695,193.131c0.292,0.191,0.315,0.191,0.529,0c0.304-0.281,0.281-0.416-0.135-0.9
	c-0.596-0.664-1.339-1.024-1.586-0.765c-0.18,0.169-0.045,0.473,0.405,0.945C210.166,192.692,210.515,193.018,210.695,193.131z
	 M233.14,194.762c0.405,0,1.665-1.339,1.766-1.89c0.068-0.36-0.056-0.596-0.281-0.574
	c-0.034,0-0.416,0.394-0.855,0.866C232.623,194.413,232.488,194.762,233.14,194.762z
	 M216.084,195.212c0.225,0,0.27-0.225,0.068-0.428c-0.146-0.146-0.461-0.18-0.574-0.056
	C215.454,194.841,215.848,195.212,216.084,195.212z
	 M229.72,196.405c0.18,0.068,0.855-0.248,0.855-0.405c0-0.203-0.383-0.315-0.698-0.203
	C229.54,195.91,229.439,196.304,229.72,196.405z
	 M226.615,197.237c0.428,0,0.833-0.304,0.788-0.596c-0.022-0.202-0.124-0.247-0.551-0.281
	c-0.36-0.022-0.563,0.022-0.664,0.146C225.951,196.787,226.21,197.237,226.615,197.237z
	 M221.541,197.462c0.416,0,0.709-0.247,0.709-0.608c0-0.202-0.079-0.281-0.349-0.338
	c-0.484-0.09-0.686-0.079-0.923,0.056c-0.158,0.09-0.191,0.203-0.135,0.416C220.933,197.361,221.08,197.462,221.541,197.462z
	 M285.219,212.842c-0.146,0.135-0.079,0.495,0.101,0.563c0.259,0.101,0.54-0.281,0.371-0.495
	C285.557,212.752,285.332,212.718,285.219,212.842z
	 M291.294,212.842c-0.045,0.034-0.079,0.214-0.079,0.382c0,0.248,0.068,0.338,0.281,0.394
	c0.484,0.124,0.821-0.383,0.484-0.72C291.834,212.752,291.418,212.718,291.294,212.842z
	 M296.773,212.763c-0.214,0-0.281,0.056-0.248,0.191c0.045,0.225,0.304,0.304,0.529,0.158
	C297.268,212.977,297.1,212.763,296.773,212.763z
	 M280.134,213.236c-0.191-0.022-0.383,0-0.428,0.045c-0.27,0.27,0.146,0.641,0.585,0.529
	C280.685,213.708,280.561,213.281,280.134,213.236z
	 M274.059,213.821c-0.529-0.214-0.878-0.202-1.193,0.056c-0.259,0.214-0.259,0.236-0.079,0.416
	c0.146,0.146,0.36,0.191,0.821,0.18c0.349-0.011,0.675-0.045,0.731-0.079C274.576,214.248,274.441,213.978,274.059,213.821z
	 M309.712,214.023c-0.113-0.034-0.169,0.011-0.135,0.112c0.056,0.169,0.315,0.203,0.326,0.034
	C309.903,214.102,309.824,214.035,309.712,214.023z
	 M263.46,214.226c-0.315,0.124-0.337,0.518-0.045,0.675c0.236,0.124,1.811,0.158,2.228,0.045
	c0.326-0.09,0.247-0.214-0.281-0.484C264.867,214.215,263.809,214.091,263.46,214.226z
	 M319.758,214.71c-0.326-0.045-0.427-0.022-0.484,0.124c-0.113,0.293,0.27,0.63,0.709,0.63
	C320.737,215.463,320.546,214.845,319.758,214.71z
	 M325.946,214.788c-0.079,0-0.202,0.056-0.281,0.135c-0.225,0.225-0.158,0.416,0.236,0.653
	c0.63,0.394,1.451,0.236,1.204-0.225C327.004,215.16,326.239,214.788,325.946,214.788z
	 M257.813,215.666c0.63,0.045,0.956-0.191,0.776-0.551c-0.09-0.169-0.248-0.214-0.686-0.214
	c-0.383,0-0.574,0.056-0.619,0.158C257.126,215.452,257.284,215.632,257.813,215.666z
	 M251.895,216.307c0.653,0,0.675-0.011,0.709-0.304c0.034-0.247-0.023-0.337-0.259-0.427
	c-0.428-0.169-0.799-0.135-1.013,0.067c-0.101,0.101-0.169,0.293-0.146,0.428C251.22,216.285,251.287,216.307,251.895,216.307z
	 M330.863,215.598c-0.101,0.169,0.484,0.675,0.731,0.63c0.191-0.045,0.191-0.383-0.011-0.63
	C331.437,215.43,330.975,215.418,330.863,215.598z
	 M246.708,216.408c0.146-0.056,0.158-0.101,0.056-0.225c-0.146-0.18-0.731-0.214-0.833-0.045
	C245.763,216.42,246.247,216.588,246.708,216.408z
	 M339.728,217.185c-0.416-0.27-0.72-0.371-1.429-0.45c-0.495-0.045-0.99-0.079-1.091-0.056
	c-0.349,0.068-0.225,0.36,0.225,0.54c0.225,0.09,0.551,0.236,0.72,0.326c0.326,0.18,1.946,0.236,2.048,0.068
	C340.235,217.567,340.021,217.365,339.728,217.185z
	 M191.715,218.67c-0.214-0.09-0.416-0.214-0.461-0.281c-0.034-0.056-0.338-0.191-0.675-0.281
	c-0.326-0.101-0.731-0.281-0.889-0.405c-0.45-0.349-2.318-0.945-2.318-0.743c0,0.293,0.315,0.653,0.664,0.765
	c0.225,0.068,0.585,0.236,0.799,0.371c0.214,0.146,0.596,0.326,0.844,0.405c0.248,0.079,0.641,0.236,0.866,0.349
	c0.45,0.225,1.553,0.293,1.553,0.09C192.098,218.884,191.929,218.76,191.715,218.67z
	 M237.877,218.017c0.225-0.045,0.765-0.124,1.193-0.191c1.024-0.158,1.181-0.203,1.181-0.394
	s-0.349-0.394-0.641-0.382c-0.113,0.011-0.731,0.101-1.384,0.202c-0.911,0.146-1.193,0.225-1.215,0.371
	C236.954,217.893,237.393,218.085,237.877,218.017z
	 M260.614,217.826c-0.956,0.112-2.914,0.259-4.331,0.326c-1.429,0.068-2.79,0.169-3.038,0.225
	c-0.248,0.056-1.204,0.191-2.138,0.293c-0.923,0.112-2.171,0.293-2.756,0.405c-0.585,0.124-1.823,0.27-2.756,0.338
	c-0.923,0.056-2.239,0.203-2.925,0.326c-0.675,0.124-1.485,0.248-1.8,0.281c-0.653,0.09-1.901,0.315-3.038,0.551
	c-0.428,0.09-1.26,0.203-1.856,0.236c-0.585,0.034-1.856,0.214-2.813,0.394c-0.956,0.18-2.025,0.371-2.363,0.439
	c-0.337,0.056-0.923,0.18-1.294,0.281c-0.371,0.09-1.103,0.203-1.631,0.236c-0.99,0.068-2.779,0.394-5.175,0.956
	c-0.776,0.191-1.789,0.36-2.25,0.405c-0.833,0.056-2.543,0.394-4.331,0.844c-1.373,0.349-2.43,0.54-2.925,0.551
	c-0.248,0-0.934,0.135-1.508,0.281c-0.585,0.158-1.17,0.281-1.283,0.281c-0.112,0-0.664,0.146-1.215,0.337
	c-0.596,0.191-1.373,0.36-1.924,0.405c-0.518,0.045-1.069,0.146-1.226,0.225c-0.158,0.079-0.821,0.248-1.485,0.371
	c-0.664,0.135-1.328,0.304-1.463,0.394c-0.135,0.09-0.596,0.225-1.035,0.292c-1.238,0.203-1.294,0.225-1.294,0.36
	c0,0.214,2.644,0.034,3.443-0.225c0.776-0.259,2.048-0.473,2.835-0.473c0.293,0,0.923-0.101,1.384-0.214
	c0.461-0.124,1.215-0.27,1.676-0.349c0.461-0.068,1.249-0.248,1.744-0.394c0.495-0.146,1.361-0.304,1.913-0.338
	c0.563-0.034,1.541-0.191,2.194-0.338c0.653-0.146,1.564-0.326,2.025-0.405c0.461-0.079,1.001-0.191,1.181-0.27
	c0.473-0.191,0.934-0.259,2.441-0.394c0.72-0.056,1.451-0.169,1.631-0.236c0.169-0.068,0.878-0.214,1.553-0.326
	c0.686-0.112,1.643-0.315,2.138-0.439c0.495-0.124,1.53-0.27,2.306-0.338c0.776-0.068,1.665-0.191,1.969-0.281
	c0.315-0.079,0.968-0.214,1.463-0.281c0.495-0.079,1.429-0.259,2.081-0.405c0.653-0.146,1.89-0.326,2.756-0.383
	c0.866-0.068,1.755-0.169,1.969-0.236c0.214-0.067,1.103-0.225,1.969-0.349c0.866-0.124,1.856-0.293,2.194-0.383
	c0.776-0.191,1.35-0.259,3.263-0.394c0.833-0.056,1.879-0.18,2.306-0.27c0.439-0.101,1.395-0.247,2.138-0.337
	c0.743-0.09,1.834-0.27,2.419-0.394c0.585-0.124,1.676-0.259,2.419-0.304c0.743-0.034,1.879-0.158,2.531-0.281
	c0.652-0.124,1.823-0.293,2.588-0.383c0.776-0.079,1.721-0.259,2.104-0.383c0.382-0.135,0.889-0.281,1.125-0.338
	C265.306,217.533,262.47,217.612,260.614,217.826z
	 M229.731,219.694c-0.101,0.101-0.169,0.293-0.146,0.428c0.034,0.214,0.101,0.236,0.878,0.236h0.844
	v-0.338c0-0.259-0.068-0.349-0.281-0.405C230.507,219.469,229.922,219.502,229.731,219.694z
	 M214.228,222.979c0.383,0.056,0.709-0.169,0.709-0.484c0-0.248-0.045-0.281-0.45-0.281
	c-0.293,0-0.484,0.056-0.518,0.158C213.857,222.664,213.98,222.945,214.228,222.979z
	 M208.918,223.901c0.461,0,0.799-0.281,0.608-0.518c-0.191-0.225-0.709-0.191-0.934,0.056
	C208.321,223.732,208.445,223.901,208.918,223.901z
	 M201.11,225.6c0.214-0.079,0.776-0.18,1.249-0.236c1.204-0.146,1.755-0.304,1.901-0.574
	c0.293-0.551-0.203-0.675-1.474-0.383c-0.821,0.191-1.676,0.394-2.025,0.495c-0.326,0.09-0.405,0.326-0.191,0.619
	C200.705,225.713,200.772,225.724,201.11,225.6z
	 M254.82,225.713c-1.778-0.146-5.108-0.214-6.188-0.124c-0.596,0.045-0.923,0.135-1.316,0.371
	c-0.304,0.18-0.54,0.371-0.54,0.428c0,0.056,0.473,0.101,1.046,0.101c1.148,0.011,4.219,0.225,6.998,0.506
	c1.868,0.191,2.914,0.158,3.431-0.112c0.338-0.169,0.63-0.484,0.54-0.574C258.668,226.196,256.249,225.825,254.82,225.713z
	 M219.742,222.144c0.383,0.056,0.709-0.169,0.709-0.484c0-0.247-0.045-0.281-0.45-0.281
	c-0.293,0-0.484,0.056-0.518,0.158C219.371,221.829,219.494,222.11,219.742,222.144z
	 M224.707,221.151c0.383,0.056,0.709-0.169,0.709-0.484c0-0.247-0.045-0.281-0.45-0.281
	c-0.293,0-0.484,0.056-0.518,0.158C224.335,220.836,224.459,221.117,224.707,221.151z
	 M303.21,213.193c-0.214,0-0.281,0.056-0.248,0.191c0.045,0.225,0.304,0.304,0.529,0.158
	C303.705,213.407,303.537,213.193,303.21,213.193z
	 M314.654,214.385c-0.214,0-0.281,0.056-0.247,0.191c0.045,0.225,0.304,0.304,0.529,0.158
	C315.149,214.598,314.98,214.385,314.654,214.385z
	 M243.214,228.803c-0.511,0.002-0.791,0.029-1.131,0.112c-0.262,0.064-0.467,0.133-0.467,0.156
	c-0.001,0.022,0.403,0.053,0.894,0.069c0.982,0.036,3.607,0.204,5.981,0.391c1.595,0.127,2.491,0.142,2.937,0.048
	c0.291-0.058,0.545-0.176,0.469-0.214c-0.104-0.048-2.169-0.262-3.39-0.345C246.988,228.913,244.139,228.796,243.214,228.803z"/>
</svg>
