<svg width="400" height="400" viewBox="0 0 400 400" fill="none" xmlns="http://www.w3.org/2000/svg">
<path fill-rule="evenodd" clip-rule="evenodd" d="M214.846 71.0075C213.45 72.4042 215.957 75.4659 218.497 75.4659C220.687 75.4659 220.694 73.4152 218.512 71.4406C216.493 69.6132 216.267 69.587 214.846 71.0075ZM246.736 75.5445C242.411 79.3515 240.647 85.3651 243.363 87.0439C244.528 87.7641 244.574 91.4762 243.433 92.6482C242.564 93.5407 241.737 117.422 242.491 119.872C243.149 122.013 240.179 122.034 235.682 119.921C231.911 118.148 231.458 117.583 230.918 113.976C230.11 108.594 227.464 106.307 221.133 105.524C218.331 105.177 215.002 104.242 213.737 103.447C211.011 101.734 204.46 100.377 204.46 101.526C204.46 101.967 203.859 102.328 203.124 102.328C202.387 102.328 201.171 103.205 200.42 104.277C199.02 106.277 194.114 105.65 190.838 103.054C190.224 102.567 189.285 102.438 188.753 102.766C188.222 103.095 187.787 102.701 187.787 101.891C187.787 101.081 187.057 100.138 186.166 99.7965C185.275 99.4557 183.132 98.2176 181.405 97.0468C179.678 95.876 177.306 94.9174 176.133 94.9174C174.961 94.9174 173.754 94.518 173.452 94.0287C172.651 92.7318 167.093 96.0919 166.508 98.225C165.27 102.747 161.779 105.804 157.357 106.24C150.301 106.934 135.272 114.197 131.075 118.941C128.047 122.363 123.897 130.518 123.882 133.073C123.877 133.934 123.484 134.88 123.007 135.173C122.532 135.468 122.377 137.155 122.664 138.925C122.981 140.876 122.73 142.694 122.027 143.54C121.121 144.632 121.111 145.231 121.983 146.281C122.595 147.018 122.977 149.006 122.833 150.693C122.686 152.382 122.804 154.174 123.092 154.676C123.38 155.179 123.915 156.84 124.279 158.368C125.026 161.505 129.765 170.148 131.917 172.3C132.753 173.136 133.12 174.541 132.81 175.721C132.523 176.822 132.622 178.163 133.031 178.698C133.439 179.235 134.321 181.758 134.987 184.304C135.655 186.851 136.396 189.293 136.636 189.73C137.285 190.909 137.165 207.578 136.5 208.653C136.184 209.164 135.885 214.105 135.833 219.637C135.711 232.85 134.067 264.51 133.412 266.281C131.965 270.19 134.628 276.47 137.732 276.47C140.467 276.47 142.499 271.791 142.409 265.702C142.169 249.606 144.965 205.256 146.328 203.537C146.829 202.907 147.001 201.773 146.711 201.019C145.793 198.624 147.626 198.613 151.13 200.991C153.398 202.53 155.814 203.298 158.418 203.307C165.101 203.332 165.116 203.367 164.915 218.778C164.817 226.31 164.372 235.277 163.925 238.707C163.047 245.445 163.577 246.828 167.031 246.828C170.384 246.828 170.539 248.576 170.722 288.504L170.898 326.937L173.25 328.693C178.389 332.53 181.152 327.645 179.521 317.607C178.853 313.498 178.5 299.98 178.577 281.483C178.699 252.29 178.206 242.817 176.453 240.599C175.953 239.966 175.822 237.503 176.158 235.041C177.554 224.799 177.738 218.011 176.66 216.71C175.796 215.67 175.971 214.876 177.487 212.949C179.405 210.512 179.085 208.027 176.661 206.529C174.207 205.012 175.99 197.43 179.608 193.987C181.559 192.131 183.155 189.97 183.155 189.187C183.155 187.906 185.665 186.667 188.325 186.633C188.877 186.625 190.72 188.771 192.424 191.4C194.127 194.028 196.264 196.814 197.171 197.592C198.844 199.023 199.465 199.246 204.454 200.194C207.039 200.686 207.239 201.013 207.239 204.733C207.239 206.938 207.668 209.008 208.194 209.332C208.748 209.674 208.898 211.254 208.552 213.102C208.157 215.201 208.385 216.799 209.218 217.803C211.027 219.981 211.056 259.743 209.25 261.92C208.573 262.736 208.114 264.364 208.23 265.537C208.346 266.71 208.2 268.296 207.907 269.06C207.07 271.234 205.386 282.318 205.386 285.648C205.386 292.647 213.018 296.101 218.427 291.55L221.42 289.031L220.748 297.324C220.378 301.885 219.68 306.091 219.199 306.673C218.717 307.254 218.566 308.364 218.864 309.142C219.162 309.92 218.962 310.83 218.417 311.167C214.859 313.366 220.075 325.563 224.573 325.563C225.144 325.563 225.749 325.949 225.919 326.42C226.619 328.364 235.431 325.643 238.16 322.641C241.05 319.459 241.416 307.029 238.714 303.774C238.101 303.033 237.861 301.747 238.182 300.91C238.502 300.075 238.236 298.755 237.59 297.977C235.833 295.858 235.89 219.958 237.652 217.837C238.351 216.993 238.625 215.529 238.283 214.453C237.814 212.973 238.089 212.556 239.534 212.556C242.292 212.556 242.651 215.026 241.923 229.031L241.261 241.735L243.238 239.97C244.728 238.642 245.217 237.128 245.217 233.852C245.217 223.172 246.268 217.939 248.084 219.583C249.64 220.993 249.939 220.955 252.35 219.053L254.943 217.007L255.545 221.96C255.877 224.685 256.196 234.417 256.254 243.587C256.364 260.969 256.852 263.87 259.179 260.976C260.482 259.356 260.476 253.994 259.128 220.43C258.856 213.627 260.23 208.289 261.976 209.367C262.634 209.774 262.88 212.984 262.672 218.455C262.373 226.367 262.47 226.914 264.181 226.914C265.91 226.914 266.011 226.234 266.034 214.408C266.06 200.554 267.899 193.566 272.66 189.219C279.06 183.378 278.909 183.823 275.628 180.438C272.845 177.566 272.768 177.303 274.233 175.684C275.085 174.74 275.783 173.097 275.783 172.029C275.783 170.962 276.877 168.79 278.211 167.204C280.493 164.493 280.546 164.217 279.096 162.614C277.643 161.008 277.717 160.746 280.374 158.09C281.925 156.538 283.194 154.428 283.194 153.399C283.194 152.372 283.635 151.257 284.175 150.924C285.256 150.256 284.474 145.18 283.01 143.36C282.517 142.747 279.761 142.122 276.887 141.971L271.659 141.695L270.983 137.708C270.61 135.514 269.217 132.426 267.886 130.846C266.179 128.815 265.627 127.334 266.011 125.802C266.595 123.477 265.694 122.977 263.989 124.682C261.248 127.423 260.038 124.82 260.038 116.184V107.751L262.478 109.671C268.479 114.391 274.641 109.773 271.12 103.194C269.792 100.711 264.93 100.832 262.181 103.416L260.038 105.429V98.1689C260.038 91.2041 262.037 83.8024 263.921 83.8024C266.01 83.8024 264.191 79.5711 260.524 75.904C255.121 70.5019 252.542 70.4345 246.736 75.5445ZM163.123 75.2462C162.041 75.421 160.196 76.5843 159.024 77.8324L156.894 80.0991L158.699 83.5715C162.659 91.1916 170.807 91.6172 173.398 84.3392C175.125 79.4913 169.217 74.2627 163.123 75.2462ZM178.185 81.0902C173.687 84.63 175.541 88.4344 181.766 88.4344C186.162 88.4344 187.787 87.1837 187.787 83.8024C187.787 78.9957 182.682 77.5541 178.185 81.0902ZM191.839 83.2046C189.492 85.2229 189.39 85.5948 190.461 88.1823C191.134 89.8036 191.368 92.3175 191.021 94.166C190.592 96.4601 190.82 97.6821 191.84 98.5271C194.039 100.353 196.548 99.4158 196.568 96.7609C196.583 94.8912 197.111 94.3957 199.365 94.141C206.068 93.3846 206.586 87.8278 200.399 83.076C196.988 80.4573 194.998 80.4873 191.839 83.2046ZM138.512 88.885C130.632 94.2396 134.081 102.851 142.836 99.6842C144.451 99.1013 146.517 98.6232 147.426 98.6232C148.555 98.6232 148.902 98.1564 148.519 97.1579C148.209 96.3515 147.957 94.7414 147.957 93.5794C147.957 91.6871 143.967 86.5809 142.487 86.5809C142.165 86.5809 140.377 87.6181 138.512 88.885ZM232.816 93.955C227.224 99.6542 227.955 107.886 234.053 107.886C239.348 107.886 242.337 101.724 240.34 94.9224C238.779 89.6064 237.275 89.413 232.816 93.955ZM285.115 91.5935C284.341 92.5271 284.319 93.0788 285.042 93.5257C286.27 94.2846 288.936 92.26 288.224 91.108C287.49 89.9197 286.356 90.097 285.115 91.5935ZM251.7 92.1577C251.956 92.2987 252.997 92.456 254.016 92.5072C255.759 92.597 255.911 93.5057 256.588 107.784C257.423 125.394 257.768 124.249 252.467 121.431C249.402 119.801 247.879 119.456 246.691 120.12C244.463 121.367 244.264 120.892 245.246 116.659C245.715 114.636 246.108 110.644 246.12 107.79C246.18 93.653 247.535 89.8611 251.7 92.1577ZM125.416 95.5352C124.078 96.8733 124.857 102.093 126.634 103.702C130.308 107.027 132.825 101.837 129.787 97.2015C128.317 94.9573 126.636 94.317 125.416 95.5352ZM100.998 117.745C91.7743 121.497 91.622 135.965 100.825 134.124C103.008 133.688 103.907 133.998 105.004 135.563C106.805 138.135 108.124 137.279 108.132 133.536C108.135 131.909 108.768 129.371 109.538 127.893C111.08 124.937 110.558 123.862 105.354 119.267C102.894 117.095 102.736 117.039 100.998 117.745ZM118.489 139.437C118.712 140.106 119.441 140.835 120.11 141.058C120.804 141.289 121.152 140.942 120.92 140.248C120.698 139.579 119.968 138.849 119.299 138.627C118.605 138.395 118.258 138.743 118.489 139.437ZM105.985 164.061C104.411 165.635 105.344 169.947 107.259 169.947C108.849 169.947 109.121 169.453 108.879 167.008C108.596 164.14 107.263 162.783 105.985 164.061ZM118.771 165.661C115.679 170.379 121.42 174.194 125.246 169.965C126.448 168.637 126.638 167.804 125.932 166.954C125.396 166.308 124.934 165.362 124.907 164.852C124.793 162.757 120.285 163.35 118.771 165.661ZM300.029 166.534C295.934 170.892 299.211 177.19 303.957 174.081C306.683 172.295 307.034 169.482 304.909 166.447C303.101 163.865 302.526 163.875 300.029 166.534ZM288.244 174.98C285.358 179.384 290.181 183.26 293.703 179.369C295.513 177.368 295.665 175.378 294.124 173.838C292.345 172.059 289.839 172.546 288.244 174.98ZM295.236 195.42C294.602 196.184 293.573 196.809 292.951 196.809C289.306 196.809 287.417 204.907 289.826 210.197C291.206 213.223 298.584 213.658 301.114 210.862C303.962 207.714 303.229 198.277 299.955 195.945C296.744 193.659 296.701 193.654 295.236 195.42ZM222.047 228.334C222.566 231.628 222.969 237.517 222.942 241.419C222.915 245.429 223.316 248.777 223.866 249.116C225.149 249.909 225.125 261.362 223.838 262.158C223.22 262.539 222.913 265.84 223.036 270.781C223.144 275.183 222.948 279.453 222.6 280.268C222.252 281.084 222.037 282.125 222.123 282.583C222.208 283.042 222.184 283.834 222.069 284.343C221.726 285.86 219.427 271.693 219.351 267.593C219.312 265.512 219.038 263.568 218.739 263.271C218.04 262.57 218.245 228.936 218.977 224.309C219.73 219.546 220.906 221.087 222.047 228.334ZM198.055 224.965C197.464 225.677 196.21 226.058 195.268 225.81C191.618 224.857 193.032 230.63 197.75 235.944C200.672 239.236 208.165 236.852 208.165 232.629C208.165 227.614 200.611 221.886 198.055 224.965Z" fill="#FF0000"/>
</svg>
