<svg width="400" height="400" viewBox="0 0 400 400" fill="none" xmlns="http://www.w3.org/2000/svg">
<path fill-rule="evenodd" clip-rule="evenodd" d="M79.9898 70.1383C65.8379 72.0264 65.1676 90.8494 79.0637 96.1598C84.7243 98.3238 87.6376 101.864 90.196 109.687C90.8233 111.607 93.6004 117.967 96.3667 123.819C101.717 135.139 102.65 137.466 104.377 143.773C105.914 149.389 106.967 152.2 110.194 159.292C111.747 162.706 115.492 171.485 118.516 178.801C121.541 186.117 124.6 193.391 125.315 194.966C126.028 196.541 127.614 200.531 128.839 203.834C130.063 207.137 131.795 211.435 132.688 213.386C134.742 217.877 141.782 234.39 145.354 243.094C148.405 250.526 151.788 257.93 153.056 259.943C153.516 260.674 155.803 266.063 158.138 271.914C165.722 290.921 185.863 330 188.074 330C192.894 330 190.192 318.947 180.425 298.712C178.593 294.917 177.095 291.049 177.095 290.118C177.095 289.187 176.74 288.206 176.306 287.937C175.872 287.67 175.244 286.363 174.91 285.033C174.577 283.703 173.389 280.605 172.273 278.151C167.431 267.508 166.329 264.981 165.003 261.457C164.231 259.405 163.075 256.529 162.436 255.065C161.797 253.603 159.845 249.148 158.099 245.168C156.352 241.186 154.924 237.676 154.924 237.367C154.924 237.059 153.171 233.132 151.029 228.642C145.405 216.86 142.811 211.031 142.068 208.509C141.708 207.29 140.45 204.157 139.272 201.546C138.093 198.936 136.889 195.044 136.595 192.898L136.06 188.996L142.921 185.826C146.695 184.082 158.62 179.656 169.424 175.991C192.274 168.237 195.164 167.388 203.698 165.911C212.447 164.395 230.324 166.496 233.205 169.377C233.755 169.927 235.042 170.376 236.066 170.376C238.623 170.376 240.057 172.034 240.057 174.988C240.057 178.068 238.946 178.093 233.849 175.127C223.184 168.92 217.698 167.994 205.094 170.271C198.036 171.547 198.006 171.618 200.957 180.049C205.108 191.909 214.713 203.27 225.045 208.541C226.894 209.485 228.651 210.65 228.949 211.132C230.03 212.882 237.722 215.603 241.588 215.603C246.136 215.603 254.056 212.574 257.605 209.475C258.493 208.7 259.845 207.666 260.609 207.179C261.374 206.691 264.545 204.496 267.656 202.301C279.829 193.713 299.652 182.978 302.324 183.528C302.673 183.6 303.99 183.266 305.25 182.786C307.813 181.812 311.38 181.289 322.779 180.216C333.247 179.23 333.234 179.375 323.814 169.046C322.035 167.095 319.154 163.304 317.411 160.622C315.67 157.939 309.025 150.434 302.646 143.941C290.982 132.073 290.029 130.594 289.822 124.049C289.725 120.99 289.338 120.517 284.84 117.979C282.158 116.465 279.746 114.876 279.482 114.447C278.147 112.288 267.026 109.966 260.452 110.475C256.795 110.759 249.412 111.173 244.047 111.397C234.61 111.79 225.622 113.642 224.524 115.418C224.23 115.893 223.078 116.282 221.963 116.282C217.546 116.282 216.606 119.081 219.153 124.651C220.408 127.394 221.433 130.017 221.433 130.481C221.433 130.946 223.265 133.229 225.504 135.554C230.117 140.347 233.544 145.759 234.167 149.237C234.4 150.536 234.966 152.331 235.425 153.229C236.709 155.734 237.27 159.991 236.566 161.887C235.945 163.564 232.076 157.361 232.076 154.688C232.076 152.963 227.598 143.598 225.389 140.701C224.189 139.128 223.208 137.469 223.208 137.014C223.208 136.559 222.017 134.884 220.562 133.291C215.411 127.651 212.966 121.812 207.253 101.5C205.745 96.1406 204.852 94.6039 201.559 91.7062C192.364 83.6115 160.595 78.3955 142.952 82.0843C132.641 84.24 127.995 85.4171 126.99 86.1269C126.502 86.4722 122.711 87.8596 118.565 89.2099C110.704 91.7707 103.895 94.8895 99.6899 97.8554C95.2256 101.005 92.9611 96.3486 96.0513 90.375C101.151 80.5118 91.6813 68.5789 79.9898 70.1383ZM78.6897 78.2067C79.4174 79.5654 79.3971 80.3648 78.6132 81.31C77.0192 83.2303 73.5598 82.9029 72.8822 80.7675C71.6681 76.9436 76.8017 74.6792 78.6897 78.2067ZM108.264 106.07C110.331 107.281 112.86 109.176 113.882 110.282C116.461 113.067 131.699 143.353 132.481 147.247C132.831 148.994 133.158 150.624 133.207 150.867C133.257 151.111 133.572 152.508 133.905 153.971C135.774 162.157 136.428 174.03 135.195 177.404C133.244 182.739 132.535 182.274 128.519 173.037C127.565 170.842 125.733 166.741 124.448 163.923C123.164 161.106 122.113 158.643 122.113 158.452C122.113 158.261 119.918 153.469 117.235 147.802C114.553 142.137 112.358 137.34 112.358 137.143C112.358 136.946 110.562 132.967 108.368 128.302C106.173 123.635 104.377 119.496 104.377 119.103C104.377 118.71 103.529 116.635 102.494 114.493C97.7206 104.613 100.029 101.244 108.264 106.07ZM196.603 105.194C205.935 106.07 205.653 105.765 208.489 118.056C208.952 120.065 214.552 130.435 217.219 134.223C220.083 138.29 216.993 138.895 193.247 138.906L171.33 138.917L161.85 142.225C156.637 144.045 150.574 146.747 148.377 148.229C139.472 154.24 137.238 153.815 135.455 145.778C134.301 140.573 130.848 132.544 127.331 126.883C125.392 123.764 125.438 118.943 127.406 118.943C127.86 118.943 129.947 117.809 132.045 116.423C137.225 112.999 146.888 109.3 154.924 107.662C158.582 106.918 163.969 105.786 166.896 105.147C171.974 104.039 184.526 104.06 196.603 105.194ZM296.228 139.089C305.763 147.854 306.566 148.843 306.566 151.799C306.566 156.292 301.407 161.83 295.925 163.221C293.73 163.778 286.347 165.996 279.519 168.15C272.691 170.303 266.106 172.331 264.887 172.655C263.668 172.98 260.564 174.197 257.988 175.358C248.15 179.797 242.934 177.516 241.532 168.16C241.312 166.697 240.291 162.24 239.265 158.257C236.38 147.073 237.295 145.625 250.255 140.858C254.221 139.401 264.803 135.871 267.104 135.238C267.591 135.105 271.383 133.805 275.528 132.35C285.725 128.775 284.619 128.414 296.228 139.089ZM237.978 186.922C237.251 188.308 235.044 191.002 233.075 192.91C231.105 194.817 229.246 197.505 228.943 198.886C228.27 201.952 226.755 203.105 226.755 200.551C226.755 196.104 231.572 188.448 236.369 185.268C239.259 183.354 239.642 183.749 237.978 186.922Z" fill="#0000FF"/>
</svg>
