<svg width="400" height="400" viewBox="0 0 400 400" fill="none" xmlns="http://www.w3.org/2000/svg">
<path fill-rule="evenodd" clip-rule="evenodd" d="M158.377 102.519C157.721 102.77 153.243 104.845 148.428 107.129C143.612 109.412 137.522 112.278 134.895 113.499C117.344 121.651 68.7151 146.001 64.4567 148.769C61.6164 150.616 57.9791 152.482 56.3733 152.914C49.7842 154.688 49.8936 154.314 50.0427 174.428C50.195 195.131 48.8585 192.328 61.6614 198.797C66.4775 201.23 74.0889 205.148 78.5768 207.504C83.0647 209.86 90.5871 213.801 95.2927 216.26C99.9994 218.72 105.462 221.576 107.433 222.607C109.402 223.638 111.91 224.849 113.005 225.297C114.863 226.058 115.526 226.404 119.174 228.514C119.94 228.957 123.691 230.875 127.509 232.776C131.328 234.676 134.981 236.671 135.629 237.209C136.276 237.746 137.278 238.255 137.854 238.339C138.431 238.424 140.192 239.291 141.769 240.265C143.346 241.24 145.148 242.037 145.775 242.037C146.402 242.037 147.295 242.416 147.759 242.881C148.224 243.345 153.042 245.974 158.466 248.722C169.827 254.478 181.36 260.575 188.228 264.454C190.855 265.937 195.154 268.185 197.781 269.449C200.407 270.714 203.452 272.229 204.547 272.819C225.282 283.98 229.779 285.203 234.58 280.987C237.326 278.576 240.284 277.905 240.478 279.649C240.539 280.196 240.629 283.395 240.677 286.76C240.814 296.217 245.895 300.542 251.268 295.777L253.502 293.796L251.512 292.212C250.417 291.341 249.094 290.621 248.572 290.611C245.048 290.545 244.027 282.257 247.053 278.291C249.323 275.314 261.168 269.319 305.242 248.84C319.865 242.046 348.672 227.418 349.577 226.326C350.828 224.819 349.719 223.958 340.577 219.331C336.794 217.418 332.739 214.693 331.526 213.253L329.329 210.641L329.871 215.394C330.833 223.838 330.713 224.672 328.235 226.722C322.621 231.366 252.917 264.343 248.779 264.313C246.544 264.296 245.801 263.641 243.987 260.08C242.404 256.972 237.938 253.977 234.885 253.977C225.848 253.977 229.886 235.551 238.989 235.243C241.611 235.155 243.306 234.551 245.049 233.084C247.363 231.137 296.213 206.362 312.008 199.124C316.168 197.219 320.732 195.129 322.151 194.482C325.674 192.875 327.133 193.608 327.133 196.989C327.133 198.509 327.491 199.975 327.93 200.246C328.382 200.526 328.725 199.846 328.725 198.669C328.725 193.309 332.487 189.159 340.864 185.274C343.382 184.107 345.441 182.794 345.441 182.357C345.441 181.505 338.286 177.687 332.106 175.244C330.028 174.422 326.357 172.85 323.949 171.749C317.757 168.921 285.716 155.27 285.267 155.27C284.818 155.27 266.81 147.497 264.879 146.471C264.132 146.073 255.893 142.547 246.57 138.634C227.547 130.65 196.644 117.507 193.004 115.852C191.691 115.256 188.467 113.887 185.84 112.811C183.213 111.736 176.417 108.849 170.738 106.397C165.059 103.944 160.222 101.966 159.992 102C159.761 102.035 159.034 102.268 158.377 102.519ZM196.123 128.69C200.939 130.538 195.336 137.468 184.457 143.119C178.612 146.154 177.978 145.619 200.566 156.725C225.77 169.117 228.979 171.482 225.628 175.185C223.584 177.444 220.105 177.904 217.09 176.316C210.409 172.794 191.029 163.23 190.576 163.23C190.067 163.23 181.135 159.108 174.266 155.704C165.766 151.491 166.045 151.473 154.676 156.877C134.908 166.272 132.64 166.983 130.524 164.434C127.438 160.715 130.563 156.947 141.355 151.376C152.553 145.594 152.522 145.821 142.778 141.039C132.037 135.768 129.405 130.449 137.283 129.938C142.298 129.614 145.283 130.509 155.704 135.461C164.286 139.538 166.688 139.785 170.716 137C171.721 136.305 182.06 132.014 187.83 129.896C192.54 128.167 194.152 127.933 196.123 128.69ZM235.193 261.15C236.945 262.439 239.155 263.841 240.106 264.264C242.417 265.294 241.728 267.809 238.473 270.223C232.356 274.761 230.019 273.225 230.019 264.666C230.019 257.881 230.4 257.621 235.193 261.15Z" fill="#0000FF"/>
</svg>
