<svg width="400" height="400" viewBox="0 0 400 400" fill="none" xmlns="http://www.w3.org/2000/svg">
<path fill-rule="evenodd" clip-rule="evenodd" d="M189.838 72.6857C178.076 79.5615 170.891 89.1801 161.681 110.374C161.087 111.742 160.349 113.792 160.042 114.933C159.735 116.072 159.142 117.75 158.724 118.661C158.306 119.574 157.613 121.294 157.183 122.484C156.371 124.73 150.195 124.671 145.084 122.368C144.173 121.957 142.494 121.614 141.355 121.604C140.215 121.595 135.758 121.253 131.449 120.843C126.868 120.407 120.846 120.402 116.946 120.831C113.278 121.234 109.621 121.587 108.822 121.615C108.022 121.642 106.344 122.199 105.093 122.851C103.841 123.505 102.252 124.041 101.559 124.044C100.08 124.05 94.6847 127.513 91.3657 130.587C84.2765 137.155 81.9626 148.858 85.9293 158.082C87.792 162.41 88.8161 162.885 92.9224 161.324C97.0589 159.751 103.249 166.147 102.084 170.789C100.586 176.757 93.9677 178.117 89.6056 173.354C86.4564 169.917 85.8053 170.27 85.8947 175.362C86.0399 183.613 92.3819 189.999 100.663 190.233C103.925 190.326 105.55 190.76 106.133 191.697C106.588 192.431 108.33 194.716 110.003 196.775L113.045 200.52L106.622 208.073C70.7079 250.301 78.3722 279.992 125.139 279.81C135.283 279.771 139.67 279.313 153.564 276.84C156.179 276.374 156.295 276.485 158.457 281.468L160.67 286.572L164.24 286.2C171.489 285.445 176.267 294.104 171.031 298.51C167.657 301.349 164.965 301.146 161.617 297.799C158.36 294.54 157.101 295.138 157.101 299.944C157.101 308.491 163.974 314.661 173.869 314.999C175.129 315.043 176.16 315.465 176.161 315.938C176.162 316.411 177.934 318.518 180.1 320.621C196.039 336.104 214.7 332.211 228.763 310.471C232.376 304.887 238.447 292.731 239.501 288.972C239.82 287.833 240.43 286.155 240.857 285.242C241.283 284.331 242.133 282.093 242.747 280.27C243.92 276.785 247.772 275.24 250.222 277.274C250.782 277.74 251.971 278.13 252.861 278.14C253.752 278.15 256.532 278.513 259.039 278.946C270.566 280.94 293.149 279.761 298.677 276.878C299.894 276.242 301.317 275.72 301.837 275.717C303.502 275.708 310.522 269.371 312.995 265.644C316.747 259.988 316.617 244.544 312.747 236.231C307.345 224.631 301.555 216.027 291.982 205.372C288.189 201.152 288.047 200.826 289.268 199.156C289.977 198.187 290.961 196.605 291.456 195.64C292.22 194.148 292.894 193.947 295.973 194.295C307.678 195.614 316.588 181.508 310.699 170.982C310.044 169.814 310.472 168.334 312.606 164.373C320.786 149.198 313.932 128.558 299.234 124.108C297.41 123.556 295.08 122.695 294.056 122.194C293.03 121.693 291.946 121.529 291.646 121.831C291.344 122.131 290.606 121.968 290.004 121.469C288.645 120.341 263.96 120.273 261.789 121.391C260.961 121.817 259.797 121.994 259.204 121.782C258.611 121.569 257.119 121.799 255.888 122.292C254.659 122.784 251.516 123.509 248.906 123.903L244.16 124.62L242.81 120.812C242.067 118.718 241.149 116.258 240.771 115.347C240.391 114.436 239.82 112.757 239.501 111.617C235.676 97.9723 221.934 79.2388 210.777 72.4578C205.239 69.093 195.807 69.1958 189.838 72.6857ZM212.978 84.2351C220.163 87.8992 228.399 97.5547 232.655 107.307C241.078 126.608 241.107 126.098 231.483 128.23C228.862 128.81 226.718 129.558 226.718 129.889C226.718 130.222 225.318 130.756 223.61 131.076C221.9 131.396 218.601 132.556 216.278 133.655C213.954 134.753 211.835 135.652 211.566 135.652C211.298 135.652 210.029 136.086 208.746 136.618C207.462 137.149 206.226 137.647 205.998 137.723C205.771 137.799 204.532 138.297 203.247 138.83C201.1 139.719 197.67 139.454 195.638 138.243C195.183 137.971 194.623 137.712 194.395 137.666C194.167 137.622 192.931 137.149 191.648 136.618C190.365 136.086 189.163 135.652 188.979 135.652C188.795 135.652 186.605 134.719 184.113 133.579C181.622 132.44 179.191 131.507 178.71 131.507C174.777 131.507 169.496 127.757 170.012 125.331C175.915 97.5614 197.891 76.5429 212.978 84.2351ZM140.112 126.593C145.582 127.069 150.382 127.783 150.779 128.176C151.177 128.57 151.956 128.718 152.511 128.504C154.143 127.878 155.686 130.333 154.757 132.076C154.317 132.903 153.511 136.563 152.966 140.209C152.421 143.856 151.488 148.729 150.894 151.038C150.299 153.348 149.542 158.197 149.211 161.813C148.463 170.009 148.286 170.336 141.97 175.122C139.125 177.28 133.768 181.589 130.065 184.697C122.279 191.235 121.902 191.321 118.131 187.43C116.574 185.824 114.823 184.693 114.239 184.917C112.882 185.438 112.874 185.485 114.834 181.429C118.32 174.215 113.233 161.343 106.897 161.343C106.249 161.343 105.718 160.926 105.718 160.418C105.718 159.872 104.848 159.659 103.6 159.898C100.614 160.468 99.298 158.756 98.6335 153.436C97.223 142.144 100.046 134.599 106.991 131.093C108.798 130.182 110.477 129.169 110.721 128.843C111.499 127.809 119.827 126.376 128.095 125.854C129.234 125.782 134.642 126.115 140.112 126.593ZM279.642 126.515C283.452 126.953 287.146 127.79 287.85 128.374C288.553 128.958 289.165 129.323 289.209 129.185C289.485 128.315 295.529 131.844 297.691 134.136C303.332 140.12 304.121 145.805 301.036 158.274C299.591 164.112 299.776 163.92 295.591 163.978C291.466 164.035 291.47 163.745 295.536 167.81C300.547 172.822 295.964 183.424 290.332 179.849C289.758 179.484 288.923 179.181 288.477 179.174C288.031 179.167 286.912 177.963 285.99 176.499C283.427 172.425 282.244 173.022 282.244 178.387C282.244 180.924 282.648 183.754 283.14 184.675C284.402 187.031 279.411 191.737 277.342 190.14C276.62 189.583 272.858 186.486 268.983 183.259C265.109 180.032 259.795 175.82 257.174 173.899C254.553 171.979 252.394 170.139 252.376 169.812C252.339 169.135 249.172 146.891 248.752 144.353C248.601 143.442 248.27 142.137 248.015 141.453C247.181 139.213 245.959 130.343 246.347 129.333C246.556 128.79 249.775 127.94 253.504 127.445C266.897 125.661 270.958 125.517 279.642 126.515ZM242.754 136.273C243.443 139.349 244.247 143.358 244.541 145.182C244.835 147.006 245.41 149.429 245.82 150.569C249.19 159.953 247.702 167.994 243.292 164.229C240.828 162.127 222.571 151.389 214.316 147.189C209.677 144.828 206.187 142.618 206.561 142.278C207.448 141.472 218.03 137.309 219.193 137.309C219.684 137.309 220.087 137.007 220.087 136.64C220.087 136.271 222.791 135.284 226.095 134.446C229.4 133.607 232.477 132.638 232.932 132.294C233.814 131.627 236.742 130.978 239.703 130.792C241.27 130.693 241.663 131.399 242.754 136.273ZM175.749 134.573C178.027 135.26 180.265 136.107 180.721 136.457C181.176 136.806 183.041 137.564 184.865 138.138C186.687 138.713 188.646 139.552 189.216 140.005C189.785 140.457 190.252 140.587 190.252 140.292C190.252 139.998 191.218 140.39 192.401 141.165L194.549 142.573L192.607 144.045C191.54 144.855 188.988 146.154 186.936 146.932C184.885 147.709 183.021 148.586 182.793 148.881C182.334 149.474 164.174 159.712 163.158 159.95C161.806 160.267 163.108 151.84 166.408 138.915C167.89 133.109 168.529 132.085 170.238 132.775C170.989 133.078 173.47 133.887 175.749 134.573ZM207.553 147.985C221.682 155.227 234.486 162.613 243.379 168.652C248.828 172.352 248.919 172.54 249.637 181.668C251.09 200.145 250.561 214.841 248.359 217.184C242.081 223.866 204.65 245.987 199.921 245.81C198.934 245.772 195.887 244.495 193.152 242.972C190.417 241.447 186.687 239.415 184.865 238.455C183.041 237.494 180.172 235.882 178.488 234.87C176.804 233.858 173.056 231.613 170.161 229.88C167.264 228.147 163.835 225.885 162.542 224.854L160.189 222.977L159.808 207.285C159.598 198.655 159.808 186.004 160.274 179.174C161.263 164.671 160.319 166.101 174.09 158.256C197.355 145.003 200.095 144.162 207.553 147.985ZM196.495 171.952C195.553 172.892 196.125 173.774 197.675 173.774C198.567 173.774 200.761 175.173 202.549 176.882C210.746 184.72 205.714 197.356 194.395 197.356C185.959 197.356 182.766 193.581 182.006 182.709C181.884 180.975 179.286 183.573 177.443 187.271C172.873 196.442 175.15 208.158 183.077 216.249C187.045 220.299 193.911 224.033 196.612 223.608C197.147 223.525 197.823 223.838 198.111 224.306C198.795 225.413 204.914 225.413 205.597 224.306C205.887 223.838 206.561 223.526 207.096 223.611C216.04 225.035 227.976 210.259 227.939 197.808C227.907 186.946 219.748 174.874 211.377 173.304C209.786 173.005 208.484 172.478 208.484 172.132C208.484 171.428 197.188 171.258 196.495 171.952ZM147.205 183.938C146.722 185.322 146.327 192.387 146.327 199.641V212.83L142.499 210.085C140.392 208.575 135.637 204.452 131.932 200.923L125.194 194.507L129.338 190.646C131.617 188.522 136.456 184.379 140.091 181.439L146.7 176.093L147.391 178.757C147.809 180.371 147.735 182.415 147.205 183.938ZM260.138 180.981C271.33 189.492 275.144 193.42 274.316 195.58C273.763 197.021 258.661 210.337 255.931 211.791L254.066 212.785L254.061 201.775C254.059 195.719 253.817 187.687 253.524 183.927C252.884 175.711 253.089 175.62 260.138 180.981ZM132.917 218.409C136.873 221.764 141.5 225.397 143.199 226.487C147.716 229.384 148.477 231.191 149.612 241.732C150.177 246.974 150.947 251.64 151.321 252.1C152.583 253.652 153.242 263.008 152.136 263.69C147.946 266.28 119.076 267.552 110.691 265.516C93.9465 261.451 88.5559 245.183 98.2795 228.059C103.697 218.517 107.966 212.343 112.992 206.78L115.855 203.612L120.789 207.962C123.503 210.354 128.96 215.055 132.917 218.409ZM288.933 207.96C305.324 227.89 310.873 243.816 305.227 254.713C303.148 258.721 299.3 262.451 297.241 262.451C296.741 262.451 296.333 262.779 296.333 263.178C296.333 267.175 254.697 267.67 248.352 263.749C247.35 263.129 247.103 259.747 247.995 258.854C248.302 258.547 248.655 257.46 248.78 256.438C250.97 238.555 252.565 230.68 254.295 229.212C255.309 228.354 259.494 225.062 263.597 221.901C267.699 218.739 273.852 213.535 277.272 210.336C284.6 203.476 285.153 203.364 288.933 207.96ZM247.323 241.318C246.904 244.51 245.999 249.544 245.315 252.507C244.629 255.469 243.875 258.778 243.639 259.859C243.167 262.021 236.111 261.915 233.448 259.705C232.796 259.165 232.041 258.771 231.77 258.83C231.497 258.89 230.342 258.583 229.203 258.149C228.064 257.714 226.106 257.152 224.853 256.901C223.598 256.649 222.573 256.146 222.573 255.784C222.573 255.421 221.459 254.88 220.096 254.581C216.358 253.76 216.371 252.78 220.144 250.681C222.027 249.634 228.845 245.535 235.294 241.571C248.544 233.431 248.36 233.435 247.323 241.318ZM170.776 245.048C174.385 247.327 177.747 249.191 178.247 249.191C178.746 249.191 180.339 250.064 181.785 251.132L184.415 253.072L179.403 255.308C176.647 256.537 173.291 257.763 171.945 258.032C170.599 258.302 169.297 258.847 169.052 259.244C167.1 262.402 165.144 258.93 163.495 249.376C161.766 239.368 161.774 239.364 170.776 245.048ZM204.213 262.011C206.001 263.001 211.657 265.548 213.457 266.176C213.685 266.255 214.921 266.755 216.204 267.287C217.488 267.819 218.98 268.255 219.519 268.259C220.059 268.261 221.494 268.781 222.709 269.415C223.923 270.049 227.56 271.248 230.789 272.08C234.02 272.912 236.662 273.884 236.662 274.238C236.662 274.593 237.222 274.883 237.905 274.883C240.203 274.883 239.292 278.066 232.596 293.419C223.16 315.056 207.011 323.567 193.216 314.174C188.808 311.173 185.957 309.344 185.508 309.23C185.406 309.204 186.094 307.039 187.036 304.419L188.749 299.654L186.906 295.113C184.748 289.795 180.619 285.993 175.624 284.721C170.65 283.454 167.557 271.569 172.202 271.569C172.648 271.569 174.186 271.04 175.623 270.396C177.06 269.752 179.727 268.773 181.549 268.222C184.639 267.287 190.632 264.793 196.467 262.016C199.651 260.499 201.479 260.499 204.213 262.011Z" fill="#0000FF"/>
</svg>
