<svg width="400" height="400" viewBox="0 0 400 400" fill="none" xmlns="http://www.w3.org/2000/svg">
<path style="fill:#FF0000;" d="M116.41,117.615c-4.203,4.684-6.845,6.605-9.007,6.605c-3.843,0-8.046,3.363-13.45,10.688
	c-3.843,5.164-4.323,6.485-3.603,10.568c0.6,3.963,0,5.404-4.443,11.769C66.572,184.625,50,210.444,50,213.327
	c0,4.323,36.147,18.494,54.04,21.256c8.286,1.321,28.461,2.042,29.422,1.081c0.36-0.24-0.24-6.725-1.201-14.291
	c-3.483-25.699-2.642-38.309,3.242-45.994c1.681-2.162,1.921-2.162,7.085,0.48c2.882,1.561,10.688,5.764,17.293,9.607
	c6.605,3.843,23.658,13.09,37.948,20.776c44.433,23.658,65.809,37.948,100.635,67.25c16.212,13.57,21.016,16.452,25.459,15.251
	c9.727-2.882,26.66-16.452,26.059-20.896c-0.721-4.804-32.664-28.341-64.608-47.556c-14.051-8.526-58.364-31.223-71.453-36.747
	c-17.653-7.325-63.047-32.064-63.047-34.346c0-0.6,1.801-4.323,3.963-8.286l3.843-7.205l-4.443-3.963
	c-3.723-3.242-29.542-18.734-31.223-18.734C122.774,111.01,119.772,114.012,116.41,117.615z M137.185,127.222
	c6.245,3.723,11.288,6.965,11.288,7.325c0,1.321-9.247,18.734-16.933,31.944l-8.166,14.171l-0.721,17.653
	c-0.48,9.847-0.961,18.374-1.201,19.094c-0.48,1.441-16.933-0.36-27.02-3.002c-6.125-1.681-26.059-9.127-28.822-10.808
	c-1.921-1.321,7.205-15.492,33.025-50.558c21.016-28.701,23.898-32.304,25.579-32.304
	C125.176,120.617,130.941,123.619,137.185,127.222z M73.658,211.285c12.489,5.044,24.018,8.286,36.387,10.208
	c11.889,1.921,14.411,3.002,14.411,6.004s-0.12,3.002-17.053,0.12c-24.258-4.203-46.595-13.21-46.595-18.974
	C60.808,206.361,62.129,206.602,73.658,211.285z"/>
</svg>
