<svg width="400" height="400" viewBox="0 0 400 400" fill="none" xmlns="http://www.w3.org/2000/svg">
<path fill-rule="evenodd" clip-rule="evenodd" d="M92.5717 91.7901C92.2051 92.3832 91.1254 92.5962 89.9662 92.3058C88.8775 92.0322 87.1398 92.2475 86.1049 92.7845C82.0789 94.8699 81.2761 95.1636 79.5888 95.1636C78.5719 95.1636 77.9878 95.593 78.1874 96.1928C78.5372 97.2422 73.8654 99.2883 71.0692 99.3107C70.2418 99.3175 69.7608 99.6415 70.0007 100.031C70.2418 100.42 74.288 100.624 78.9946 100.486C87.1566 100.246 87.3214 100.274 82.5632 101.094C79.8198 101.568 77.1671 102.293 76.6682 102.707C76.1693 103.12 72.7464 103.291 69.0601 103.086C62.4868 102.718 62.35 102.75 61.9688 104.742C61.4677 107.364 61.8164 107.644 65.5924 107.644C67.319 107.644 68.9749 108.037 69.2709 108.515C69.568 108.995 71.743 109.383 74.1042 109.378C88.1679 109.345 93.0392 111.346 82.8603 112.974C79.1605 113.565 78.5462 115.076 81.9354 115.248C83.1933 115.313 81.2896 115.645 77.703 115.986C74.1176 116.328 70.7788 117.011 70.2833 117.506C68.9144 118.875 71.4773 119.537 76.0998 119.008C78.2793 118.759 82.8715 118.312 86.3034 118.015C89.7666 117.716 93.1278 116.954 93.8566 116.304C95.869 114.509 100.659 114.845 102.908 116.941L104.849 118.75L102.923 119.462C101.738 119.901 100.668 119.845 100.139 119.318C99.0542 118.231 97.951 118.213 97.951 119.281C97.951 121.107 104.522 124.559 105.87 123.44C107.074 122.441 108.767 122.899 107.724 123.941C106.956 124.709 101.157 125.904 97.951 125.955C95.3869 125.995 90.4628 128.974 90.4628 130.484C90.4628 131.704 95.9677 130.709 99.4388 128.861C103.627 126.631 108.316 126.042 107.733 127.82C107.545 128.392 106.391 128.979 105.168 129.123C101.416 129.567 102.701 130.938 106.896 130.969L110.848 130.996L108.883 132.632C107.78 133.551 105.682 134.268 104.099 134.268C102.549 134.268 101.28 134.643 101.28 135.1C101.28 135.559 102.372 135.933 103.707 135.933C106.632 135.933 108.768 136.673 108.768 137.685C108.768 138.095 108.019 138.429 107.104 138.429C106.188 138.429 105.439 138.803 105.439 139.261C105.439 139.718 106.001 140.093 106.688 140.093C107.455 140.093 107.936 140.872 107.936 142.116C107.936 143.43 108.538 144.332 109.65 144.685C111.07 145.135 111.268 145.665 110.807 147.766C110.223 150.425 110.987 150.576 115.763 148.743C116.632 148.409 117.088 148.69 117.088 149.556C117.088 150.638 117.804 150.8 121.04 150.449C123.214 150.213 126.583 149.852 128.528 149.648C131.957 149.288 133.349 150.238 130.816 151.21C130.13 151.473 129.569 152.075 129.569 152.547C129.569 153.019 130.13 153.405 130.816 153.405C131.503 153.405 132.064 153.588 132.064 153.812C132.064 154.836 129.066 157.567 127.927 157.58C126.105 157.602 119.374 162.329 120.327 162.918C120.765 163.189 122.04 162.993 123.16 162.482C124.648 161.805 125.66 161.801 126.913 162.472C127.855 162.976 131.09 163.389 134.101 163.389C137.112 163.389 140.367 163.858 141.336 164.429C142.745 165.261 143.174 165.261 143.474 164.429C143.682 163.858 145.109 163.389 146.645 163.389C148.182 163.389 149.679 163.001 149.971 162.528C150.264 162.054 151.877 161.676 153.557 161.688C155.235 161.7 158.2 161.487 160.145 161.214C162.353 160.904 163.681 161.042 163.681 161.583C163.681 162.058 162.681 162.565 161.457 162.709C158.848 163.019 157.927 164.754 160.099 165.27C162.132 165.755 160.367 166.425 155.274 167.104C153.168 167.385 150.656 168.349 149.693 169.246C148.73 170.144 147.552 170.877 147.075 170.877C146.599 170.877 146.209 171.252 146.209 171.709C146.209 172.168 147.145 172.542 148.288 172.542C149.433 172.542 150.369 172.168 150.369 171.709C150.369 171.252 151.118 170.877 152.033 170.877C152.948 170.877 153.697 171.252 153.697 171.709C153.697 172.168 153.282 172.542 152.776 172.542C152.27 172.542 152.053 173.058 152.295 173.688C152.536 174.319 152.347 175.223 151.874 175.696C151.401 176.169 151.294 177.012 151.638 177.568C152.1 178.316 152.46 178.227 153.022 177.225C153.91 175.636 157.025 175.392 157.025 176.91C157.025 177.482 155.621 179.132 153.905 180.576C150.276 183.631 150.746 184.606 155.846 184.606C159.766 184.606 160.264 185.033 158.273 186.686C157.586 187.256 157.025 188.21 157.025 188.808C157.025 189.404 156.089 190.629 154.945 191.53C152.646 193.337 152.164 195.838 154.113 195.838C155.492 195.838 155.797 197.134 154.593 197.879C154.171 198.14 153.579 199.472 153.279 200.84C152.753 203.233 152.561 203.326 148.154 203.326C144.88 203.326 143.671 203.62 143.918 204.358C144.133 205.005 145.435 205.287 147.408 205.118C149.139 204.969 150.407 205.16 150.227 205.543C148.476 209.259 147.496 210.815 146.907 210.815C146.523 210.815 146.209 211.376 146.209 212.063C146.209 214.051 147.035 213.576 151.278 209.151C154.028 206.283 155.928 204.99 157.394 204.99C158.564 204.99 159.521 204.616 159.521 204.158C159.521 203.701 159.24 203.37 158.897 203.425C157.134 203.703 157.556 202.96 161.482 198.871C165.925 194.244 169.505 191.764 169.505 193.312C169.505 193.787 170.441 194.175 171.586 194.175C174.26 194.175 174.21 194.907 171.377 197.263L169.089 199.166L171.586 201.258C174.247 203.488 173.344 205.499 170.129 204.499C168.438 203.972 168.062 206.23 169.714 207.002C170.545 207.39 170.545 207.584 169.714 207.971C169.142 208.238 168.673 209.01 168.673 209.685C168.673 210.385 169.077 210.663 169.614 210.331C170.183 209.979 170.402 210.205 170.169 210.907C169.66 212.434 166.961 212.916 166.162 211.622C165.399 210.388 163.681 211.283 163.681 212.915C163.681 214.547 166.751 216.135 167.249 214.76C167.547 213.938 167.984 213.939 169.385 214.767C170.354 215.339 171.922 215.807 172.871 215.807C173.819 215.807 174.363 216.184 174.078 216.645C173.793 217.105 174.145 217.707 174.861 217.981C176.27 218.523 176.65 222.063 175.382 222.846C174.422 223.439 172.002 228.195 172.002 229.487C172.002 230.006 171.258 231.889 170.35 233.67C169.441 235.452 168.889 237.101 169.124 237.335C169.78 237.99 175.022 232.267 175.678 230.179C175.999 229.161 177.477 227.075 178.964 225.543C180.452 224.012 181.521 222.318 181.342 221.779C181.162 221.24 181.421 220.798 181.916 220.798C183.403 220.798 182.943 222.877 180.738 226.127C179.593 227.814 178.658 229.423 178.658 229.705C178.658 229.985 177.142 232.223 175.29 234.676C173.438 237.128 172.15 239.503 172.428 239.951C172.705 240.401 172.544 240.767 172.071 240.767C170.219 240.767 168.62 245.522 169.64 248.001C170.332 249.687 170.69 249.96 170.925 248.983C171.27 247.555 175.329 247.03 175.329 248.415C175.329 249.818 173.479 252.699 170.841 255.401C167.574 258.748 163.553 263.485 162.303 265.457C161.774 266.293 160.93 266.882 160.43 266.768C159.93 266.654 159.521 266.935 159.521 267.392C159.521 267.85 158.959 268.224 158.273 268.224C157.586 268.224 157.025 268.568 157.025 268.989C157.025 269.409 155.715 270.989 154.113 272.499C152.512 274.01 151.201 275.539 151.201 275.895C151.201 277.113 152.797 276.548 154.487 274.733C155.416 273.737 156.46 273.207 156.808 273.555C157.157 273.904 156.505 275.007 155.361 276.006C154.217 277.005 152.727 278.939 152.05 280.304C150.141 284.152 146.951 288.193 145.823 288.193C144.332 288.193 141.794 291.267 142.433 292.3C142.733 292.786 142.435 293.184 141.771 293.184C141.106 293.184 140.347 293.746 140.084 294.432C139.82 295.119 139.817 295.681 140.077 295.681C141.047 295.681 146.209 292.975 146.21 292.466C146.211 292.009 147.712 290.042 151.217 285.905C151.702 285.333 152.458 284.864 152.897 284.864C153.945 284.864 153.936 288.779 152.887 289.426C149.76 291.359 149.078 297.866 152.103 296.907C152.994 296.624 153.697 296.792 153.697 297.289C153.697 297.777 153.291 298.177 152.795 298.177C152.3 298.177 152.066 298.644 152.275 299.217C152.486 299.789 151.711 301.273 150.554 302.515C148.793 304.406 148.625 304.982 149.521 306.061C150.685 307.466 152.865 306.412 152.865 304.444C152.865 303.885 153.635 302.73 154.576 301.878C155.666 300.892 156.13 299.703 155.854 298.603C155.379 296.709 158.191 294.204 159.115 295.698C159.873 296.925 161.185 296.677 161.185 295.308C161.185 293.508 164.625 290.19 167.125 289.578C169.788 288.925 174.497 283.769 174.497 281.508C174.497 280.608 175.045 279.872 175.713 279.872C177.37 279.872 180.322 276.575 180.322 274.724C180.322 273.006 181.631 272.693 182.276 274.256C182.551 274.92 182.895 274.694 183.228 273.633C184.313 270.173 193.919 263.743 197.909 263.805C206.59 263.936 206.114 263.728 206.114 267.392C206.114 270.159 206.393 270.72 207.769 270.72C208.989 270.72 209.371 271.212 209.225 272.592C208.906 275.606 213.666 275.701 215.035 272.708C215.594 271.486 215.814 270.101 215.523 269.63C215.193 269.095 215.554 268.989 216.483 269.345C217.303 269.659 218.488 269.49 219.116 268.969C220.024 268.215 220.258 268.383 220.258 269.786C220.258 271.208 220.764 271.552 222.844 271.552C224.8 271.552 225.312 271.248 224.95 270.304C224.658 269.544 224.948 269.056 225.693 269.056C226.365 269.056 226.915 268.494 226.915 267.808C226.915 267.031 227.701 266.56 228.994 266.56C231.299 266.56 231.96 269.502 230.076 271.386C229.3 272.162 229.37 272.384 230.39 272.384C231.112 272.384 232.137 271.861 232.667 271.222C233.206 270.573 234.392 270.258 235.351 270.509C236.332 270.766 237.418 270.461 237.879 269.799C238.504 268.906 238.786 268.879 239.112 269.681C239.344 270.252 240.813 270.72 242.376 270.72C245.742 270.72 246.133 272.3 243.399 274.848L241.577 276.544H243.399C244.786 276.544 245.22 277.039 245.22 278.624C245.22 279.769 245.594 280.705 246.051 280.705C246.509 280.705 246.883 279.956 246.883 279.04C246.883 277.955 247.438 277.376 248.478 277.376C249.356 277.376 250.214 276.952 250.387 276.433C250.806 275.175 254.372 276.326 254.372 277.719C254.372 278.304 255.138 279.476 256.075 280.324C259.263 283.21 257.965 286.068 253.331 286.366C247.326 286.751 247.859 289.025 253.956 289.025C257.93 289.025 258.532 289.237 258.532 290.639C258.532 291.527 258.93 292.5 259.418 292.802C260.702 293.596 258.063 296.262 256.135 296.12C255.277 296.057 253.942 295.371 253.166 294.595C251.26 292.689 249.379 292.814 249.379 294.848C249.379 295.941 249.934 296.513 250.995 296.513C251.883 296.513 252.841 296.888 253.124 297.345C253.406 297.802 255.601 298.177 258.002 298.177C261.897 298.177 262.668 298.49 265.187 301.089C267.863 303.85 271.012 304.974 271.012 303.169C271.012 302.711 270.731 302.328 270.388 302.318C270.045 302.308 268.828 301.573 267.684 300.684L265.604 299.067L268.759 299.175C270.495 299.233 272.098 299.578 272.321 299.94C272.545 300.304 273.279 300.389 273.95 300.131C274.726 299.834 275.172 300.174 275.172 301.06C275.172 301.919 275.708 302.355 276.559 302.189C278.578 301.798 278.952 299.841 277.008 299.841C276.109 299.841 274.948 299.325 274.424 298.695C273.901 298.064 271.409 297.376 268.885 297.168C263.52 296.723 263.018 296.335 262.224 292.017C261.663 288.969 261.737 288.798 263.442 289.245C264.864 289.616 265.16 289.42 264.814 288.332C264.42 287.097 265.155 286.974 271.526 287.217C279.283 287.51 281.84 285.507 274.267 285.067C272.248 284.951 269.847 284.789 268.932 284.708C268.017 284.628 266.489 284.822 265.536 285.14C263.936 285.676 260.196 283.525 260.196 282.068C260.196 280.875 257.256 274.881 256.671 274.881C255.244 274.881 256.075 266.141 257.699 264.064C258.595 262.92 259.335 261.496 259.345 260.901C259.355 260.306 260.58 259.271 262.068 258.601C263.555 257.931 265.333 257.068 266.02 256.682C266.706 256.295 268.579 255.305 270.18 254.479C271.782 253.654 275.358 250.7 278.129 247.913C280.898 245.127 284.246 242.285 285.568 241.599C288.549 240.051 300.964 228.086 300.964 226.761C300.964 226.227 301.339 225.791 301.797 225.791C302.255 225.791 302.629 225.441 302.629 225.013C302.629 224.586 303.039 223.181 303.542 221.893C304.044 220.605 304.397 215.713 304.328 211.022C304.245 205.512 304.512 202.495 305.079 202.495C305.562 202.495 305.957 201.394 305.957 200.047C305.957 198.702 306.289 197.396 306.694 197.144C307.1 196.893 307.679 195.374 307.98 193.768C308.282 192.161 308.886 190.846 309.322 190.846C309.76 190.846 310.117 190.265 310.117 189.554C310.117 185.528 316.141 179.198 319.972 179.198C320.905 179.198 321.888 178.839 322.16 178.401C322.43 177.963 323.669 177.599 324.912 177.593C326.156 177.586 328.772 177.343 330.725 177.052C332.956 176.721 334.711 176.884 335.444 177.493C336.337 178.234 337.018 178.207 338.34 177.381C340.527 176.015 340.555 174.471 338.406 173.79C337.49 173.499 336.741 172.912 336.741 172.486C336.741 172.059 336.22 171.709 335.583 171.709C334.945 171.709 334.209 171.148 333.945 170.461C333.682 169.775 332.905 169.213 332.22 169.213C331.076 169.213 326.754 167.564 323.233 165.784C322.438 165.382 320.681 165.054 319.328 165.054C317.891 165.054 316.415 164.418 315.78 163.527C312.314 158.659 307.943 157.168 297.111 157.159L286.868 157.149L279.874 164.101C272.134 171.795 272.155 171.795 271.348 163.923C271.034 160.857 270.456 158.152 270.063 157.909C269.67 157.665 269.344 155.336 269.341 152.732C269.327 143.197 268.48 139.283 266.318 138.74C264.081 138.179 263.966 137.698 265.35 134.662C266.12 132.972 266.12 132.123 265.35 130.89C264.803 130.015 264.355 128.738 264.355 128.05C264.355 127.364 263.091 126.274 261.546 125.629C260 124.983 258.479 124.041 258.168 123.538C257.829 122.988 254.822 122.621 250.675 122.621C244.449 122.621 243.705 122.452 243.314 120.956C242.823 119.078 237.959 118.565 236.305 120.218C234.864 121.661 228.823 121.837 227.687 120.469C227.15 119.821 226.15 119.292 225.463 119.292C224.448 119.292 224.409 119.059 225.251 118.044C225.82 117.358 226.802 116.796 227.433 116.796C228.063 116.796 228.578 116.234 228.578 115.548C228.578 114.779 229.359 114.301 230.61 114.301C232.441 114.301 234.615 112.725 232.996 112.573C229.481 112.24 227.382 111.022 229.203 110.373C229.775 110.168 230.243 109.515 230.243 108.922C230.243 107.25 215.486 107.195 212.302 108.856C210.957 109.557 209.436 110.132 208.92 110.134C208.404 110.138 207.516 110.702 206.946 111.388C205.475 113.161 203.058 112.933 202.545 110.972C202.29 109.995 201.411 109.308 200.417 109.308C199.486 109.308 198.492 108.934 198.21 108.476C197.927 108.019 196.969 107.644 196.081 107.644C195.193 107.644 194.466 107.229 194.466 106.723C194.466 106.216 193.916 106.013 193.244 106.271C192.573 106.529 191.828 106.424 191.591 106.04C191.353 105.654 189.477 105.088 187.423 104.78C185.369 104.471 183.492 103.902 183.253 103.514C183.013 103.126 182.094 102.997 181.211 103.228C180.329 103.458 178.55 103.078 177.26 102.382C174.665 100.981 166.578 99.3231 162.343 99.3231C160.845 99.3231 159.388 98.9497 159.105 98.4912C158.823 98.0337 156.741 97.6593 154.479 97.6593C152.219 97.6593 150.369 97.3151 150.369 96.8935C150.369 96.4731 147.841 95.8654 144.752 95.5448C141.663 95.2241 138.687 94.6019 138.139 94.1635C137.589 93.724 136.045 93.4796 134.707 93.6209C133.368 93.761 131.652 93.3608 130.891 92.7296C128.977 91.1409 93.5101 90.2709 92.5717 91.7901ZM86.3034 96.8274C86.3034 97.2848 85.3448 97.6593 84.1743 97.6593C82.9668 97.6593 82.2672 97.2994 82.5587 96.8274C82.8413 96.37 83.7999 95.9955 84.6878 95.9955C85.5769 95.9955 86.3034 96.37 86.3034 96.8274ZM97.5351 96.8274C97.2525 97.2848 96.1291 97.6593 95.0394 97.6593C93.9496 97.6593 92.8262 97.2848 92.5437 96.8274C92.2365 96.3318 93.2444 95.9955 95.0394 95.9955C96.8343 95.9955 97.8423 96.3318 97.5351 96.8274ZM121.248 122.621C121.248 123.078 120.681 123.452 119.988 123.452C119.297 123.452 118.042 123.882 117.202 124.405C115.584 125.417 111.264 124.769 111.264 123.515C111.264 123.11 112.713 122.973 114.483 123.21C116.408 123.468 117.934 123.27 118.277 122.715C118.989 121.562 121.248 121.49 121.248 122.621ZM113.747 131.564C113.723 132.703 112.194 134.645 111.705 134.155C111.051 133.5 112.094 130.941 113.017 130.941C113.425 130.941 113.754 131.221 113.747 131.564ZM93.7915 135.1C93.7915 135.559 94.5405 135.933 95.4553 135.933C96.3702 135.933 97.1191 135.559 97.1191 135.1C97.1191 134.643 96.3702 134.268 95.4553 134.268C94.5405 134.268 93.7915 134.643 93.7915 135.1ZM140.384 141.756C140.384 142.214 139.542 142.593 138.512 142.598C137.483 142.603 135.236 142.839 133.521 143.123C130.146 143.68 128.96 142.15 132.273 141.512C135.946 140.804 140.384 140.938 140.384 141.756ZM113.76 153.405C113.76 153.863 115.444 154.237 117.504 154.237C119.563 154.237 121.248 153.863 121.248 153.405C121.248 152.948 119.563 152.573 117.504 152.573C115.444 152.573 113.76 152.948 113.76 153.405ZM172.002 160.061C172.002 160.519 171.043 160.893 169.873 160.893C168.664 160.893 167.966 160.533 168.257 160.061C168.54 159.604 169.498 159.229 170.386 159.229C171.274 159.229 172.002 159.604 172.002 160.061ZM193.634 161.725C193.634 162.183 192.885 162.557 191.969 162.557C191.055 162.557 190.306 162.183 190.306 161.725C190.306 161.268 191.055 160.893 191.969 160.893C192.885 160.893 193.634 161.268 193.634 161.725ZM114.592 165.886C114.592 166.343 112.876 166.718 110.778 166.718C106.807 166.718 106.168 167.824 109.132 169.57C110.254 170.231 110.743 170.192 111.025 169.42C111.233 168.848 112.869 168.145 114.662 167.858C118.042 167.317 119.329 165.054 116.256 165.054C115.341 165.054 114.592 165.427 114.592 165.886ZM165.959 168.955C165.185 169.729 164.32 170.129 164.034 169.843C163.214 169.025 164.472 167.55 165.989 167.55C167.258 167.55 167.256 167.659 165.959 168.955ZM132.562 200.61C131.56 201.612 132.107 202.495 133.728 202.495C134.644 202.495 135.393 202.159 135.393 201.751C135.393 200.816 133.228 199.944 132.562 200.61ZM138.466 202.194C137.801 202.859 138.552 204.158 139.602 204.158C140.032 204.158 140.384 203.597 140.384 202.911C140.384 201.623 139.403 201.257 138.466 202.194ZM101.696 207.486C101.364 208.024 101.466 208.838 101.923 209.296C102.478 209.85 102.957 209.802 103.359 209.151C103.691 208.613 103.589 207.799 103.132 207.341C102.577 206.786 102.098 206.835 101.696 207.486ZM177.825 208.639C177.825 209.995 174.307 212.478 172.385 212.478C170.326 212.478 171.3 209.609 173.466 209.301C174.491 209.154 175.329 208.687 175.329 208.261C175.329 207.835 175.891 207.486 176.577 207.486C177.263 207.486 177.825 208.005 177.825 208.639ZM97.951 214.054C97.951 214.92 97.3893 215.844 96.7032 216.108C94.8275 216.827 95.1818 219.135 97.1684 219.135C98.1102 219.135 98.6921 218.828 98.4589 218.451C98.2268 218.075 98.7952 217.118 99.7213 216.325C101.069 215.171 101.207 214.641 100.409 213.68C99.0273 212.015 97.951 212.179 97.951 214.054ZM165.366 218.694C164.076 220.247 165.452 220.89 167.25 219.575C168.474 218.682 168.517 218.421 167.51 218.035C166.845 217.779 165.879 218.075 165.366 218.694ZM198.72 227.663C198.344 228.693 197.183 229.969 196.139 230.5C195.095 231.03 193.882 231.966 193.443 232.58C192.853 233.404 192.774 233.297 193.14 232.171C193.411 231.333 193.634 230.128 193.634 229.493C193.634 228.469 197.241 225.912 198.807 225.825C199.136 225.806 199.097 226.633 198.72 227.663ZM190.187 232.506C188.651 234.76 187.14 236.604 186.829 236.606C185.796 236.609 178.658 246.587 178.658 248.027C178.658 249.336 178.555 249.342 177.301 248.088C176.048 246.835 176.392 246.225 181.844 240.039C185.089 236.357 188.773 231.788 190.032 229.885C191.291 227.984 192.47 226.873 192.651 227.417C192.832 227.962 191.724 230.251 190.187 232.506ZM62.5283 234.548C60.832 236.619 59.7209 238.584 60.0606 238.916C60.6649 239.506 67.1598 232.64 67.1642 231.407C67.1698 229.862 65.3682 231.083 62.5283 234.548ZM175.907 255.398C174.623 256.504 173.125 257.397 172.579 257.385C172.032 257.373 172.893 256.278 174.492 254.953C177.955 252.082 179.277 252.498 175.907 255.398ZM181.278 270.304C181.278 270.739 180.876 271.229 180.384 271.393C179.892 271.556 179.49 271.066 179.49 270.304C179.49 269.542 179.892 269.052 180.384 269.215C180.876 269.379 181.278 269.869 181.278 270.304ZM173.677 273.008C173.684 274.266 173.927 276.189 174.219 277.28C174.613 278.753 174.453 279.164 173.594 278.877C172.187 278.409 171.409 270.72 172.769 270.72C173.262 270.72 173.67 271.75 173.677 273.008ZM144.484 282.554C143.948 283.595 142.553 285.474 141.383 286.728C140.214 287.981 139.519 289.267 139.836 289.585C140.556 290.305 147.041 284.076 147.041 282.665C147.041 280.725 145.461 280.657 144.484 282.554ZM137.739 298.491C137.135 299.121 136.079 300.48 135.393 301.509C134.706 302.538 133.022 304.454 131.648 305.767L129.153 308.153L131.365 308.157C133.098 308.161 134.495 306.992 137.827 302.753C141.77 297.735 141.702 294.362 137.739 298.491Z" fill="#0000FF"/>
</svg>
