<svg width="400" height="400" viewBox="0 0 400 400" fill="none" xmlns="http://www.w3.org/2000/svg">
<path fill-rule="evenodd" clip-rule="evenodd" d="M268.858 70.4284C268.069 70.6348 267.424 71.1448 267.424 71.562C267.424 72.5984 268.281 72.4748 270.701 71.0929C272.678 69.9626 271.822 69.6536 268.858 70.4284ZM264.305 73.2022C264.466 73.6867 264.948 74.083 265.376 74.083C265.805 74.083 266.287 73.6867 266.448 73.2022C266.609 72.7176 266.127 72.3214 265.376 72.3214C264.626 72.3214 264.143 72.7176 264.305 73.2022ZM143.736 74.7773C143.736 76.5499 157.252 88.7035 159.223 88.7035C159.733 88.7035 162.245 90.3493 164.806 92.3592C167.368 94.3692 169.603 95.8747 169.774 95.7037C170.339 95.1385 161.519 87.1163 160.812 87.5534C160.431 87.7885 160.119 87.5943 160.119 87.1196C160.119 85.8812 156.721 82.1505 155.593 82.1505C155.068 82.1505 153.943 81.3811 153.092 80.4418C150.063 77.0952 143.736 73.264 143.736 74.7773ZM258.004 75.9693C255.751 77.0003 251.456 79.5246 248.458 81.5776C245.459 83.6306 242.787 85.0909 242.518 84.8227C242.25 84.5545 242.032 84.7653 242.032 85.2907C242.032 85.8161 241.629 86.2465 241.135 86.2465C239.961 86.2465 229.744 92.9707 229.744 93.7445C229.744 94.0723 230.113 94.569 230.563 94.8471C231.014 95.1253 231.382 94.9409 231.382 94.4376C231.382 93.9343 231.786 93.7709 232.28 94.0767C232.773 94.3813 234.232 93.8504 235.523 92.8957C236.813 91.942 238.227 91.1616 238.663 91.1616C239.1 91.1616 239.967 90.6506 240.591 90.027C241.214 89.4044 243.248 88.1163 245.11 87.166C246.973 86.2167 248.792 84.975 249.154 84.4088C249.516 83.8425 251.932 82.305 254.523 80.9904C257.113 79.6769 259.233 78.3391 259.233 78.0179C259.233 77.6978 260.334 76.9793 261.68 76.4208C263.025 75.8634 263.925 75.0819 263.68 74.6834C263.083 73.7176 262.763 73.7905 258.004 75.9693ZM272.543 88.8007C271.079 89.2234 269.882 89.9497 269.882 90.4144C269.882 90.878 269.539 91.0457 269.119 90.7864C268.7 90.527 268.135 90.6738 267.864 91.112C267.593 91.5502 266.83 91.7014 266.169 91.4475C265.508 91.1936 264.967 91.3349 264.967 91.7621C264.967 92.1881 263.492 93.0237 261.69 93.6186C259.763 94.2555 258.387 95.2357 258.349 96.0028C258.307 96.8483 258.14 96.9465 257.872 96.2809C257.342 94.9696 256.357 94.9807 254.991 96.3107C253.458 97.803 245.569 101.81 244.162 101.81C243.516 101.81 242.857 102.198 242.699 102.674C242.54 103.149 241.865 103.63 241.197 103.742C236.664 104.507 233.583 107.68 236.039 109.054C237.451 109.844 238.154 109.642 242.441 107.225C243.792 106.462 246.557 105.024 248.585 104.029C250.611 103.034 252.747 101.769 253.331 101.218C253.914 100.667 255.941 99.4785 257.835 98.5757C259.73 97.6739 261.833 96.5789 262.51 96.143C263.185 95.707 266.595 94.0038 270.086 92.3592C277.682 88.7808 278.944 86.953 272.543 88.8007ZM131.449 90.2532C131.449 90.655 132.342 91.208 133.434 91.4817C134.525 91.7555 136.501 92.8912 137.825 94.0038C139.147 95.1176 142.125 96.9796 144.441 98.143C146.756 99.3064 148.651 100.668 148.651 101.171C148.651 101.672 148.866 101.868 149.127 101.607C149.389 101.345 150.915 102.021 152.518 103.109C154.121 104.196 155.894 105.087 156.46 105.087C157.024 105.087 157.707 105.663 157.977 106.367C158.248 107.071 158.815 107.433 159.238 107.173C159.659 106.911 160.222 107.048 160.487 107.478C160.928 108.19 169.625 112.632 170.903 112.798C171.204 112.836 171.727 113.144 172.065 113.482C172.976 114.395 175.682 114.226 175.682 113.257C175.682 112.796 174.751 112.064 173.613 111.631C172.475 111.198 171.331 110.287 171.068 109.603C170.806 108.921 170.216 108.363 169.756 108.363C169.295 108.363 166.846 106.976 164.314 105.281C161.781 103.586 158.701 101.684 157.471 101.054C156.239 100.424 154.581 99.3163 153.784 98.59C152.988 97.8648 150.125 96.1728 147.422 94.8306C144.719 93.4884 142.289 92.0943 142.023 91.7323C141.756 91.3702 141.203 91.1539 140.794 91.2499C140.385 91.3471 139.012 90.9972 137.744 90.474C135.011 89.347 131.449 89.2212 131.449 90.2532ZM223.016 96.7202C218.112 100.303 217.776 103.103 222.548 100.629C228.764 97.4046 228.825 97.3483 227.722 95.8394C226.447 94.0966 226.663 94.0568 223.016 96.7202ZM194.44 97.452C194.396 97.8218 194.285 102.237 194.193 107.265C194.09 112.885 193.651 116.857 193.053 117.579C192.517 118.225 192.258 118.933 192.479 119.152C193.184 119.859 188.141 129.184 185.977 131.173C173.271 142.856 174.306 165.569 187.768 170.477C193.318 172.501 193.703 172.563 193.703 171.436C193.703 170.985 193.15 170.617 192.474 170.617C191.798 170.617 191.246 170.248 191.246 169.798C191.246 169.347 190.735 168.979 190.11 168.979C187.409 168.979 184.996 157.015 186.724 152.186C188.883 146.15 189.895 143.84 191.186 141.995C191.993 140.842 193.278 137.872 194.041 135.394C194.805 132.916 195.79 130.228 196.232 129.422C196.673 128.615 196.817 127.602 196.55 127.17C196.282 126.737 196.362 125.923 196.726 125.36C199.614 120.898 199.315 97.462 196.365 97.0425C195.351 96.899 194.486 97.0834 194.44 97.452ZM201.306 104.301C201.581 108.192 202.528 112.413 203.865 115.705C210.189 131.267 209.876 153.497 203.138 167.465C201.266 171.347 201.599 174.491 203.968 175.27C206.081 175.965 211.209 157.476 211.506 148.091C211.952 133.993 211.888 133.278 209.595 126.636C206.669 118.157 203.611 107.02 203.132 103.092C202.351 96.6816 200.839 97.6816 201.306 104.301ZM121.202 109.195C120.919 109.653 120.344 109.815 119.925 109.557C119.505 109.298 119.162 109.628 119.162 110.29C119.162 111.071 120.386 111.697 122.643 112.069C124.558 112.385 126.493 112.922 126.945 113.264C127.395 113.605 131.633 114.889 136.364 116.12C141.095 117.351 145.362 118.682 145.849 119.078C148.17 120.971 167.356 124.607 168.578 123.385C169.342 122.621 166.025 120.447 165.033 121.061C164.582 121.338 164.215 121.243 164.215 120.848C164.215 120.454 161.526 119.497 158.24 118.722C154.954 117.947 151.23 116.776 149.964 116.119C148.698 115.462 147.331 115.129 146.927 115.378C146.523 115.628 146.193 115.511 146.193 115.118C146.193 114.725 142.784 113.564 138.617 112.537C134.449 111.51 130.246 110.291 129.275 109.83C128.305 109.367 127.131 109.223 126.67 109.509C126.207 109.794 125.597 109.653 125.314 109.195C125.031 108.737 124.106 108.363 123.258 108.363C122.41 108.363 121.485 108.737 121.202 109.195ZM281.868 112.468C279.224 112.805 276.817 113.478 276.518 113.961C276.219 114.446 274.722 114.683 273.192 114.49C271.661 114.297 270.014 114.447 269.531 114.824C269.049 115.203 268.1 115.54 267.424 115.574C266.748 115.608 264.905 115.863 263.329 116.141C261.752 116.419 257.144 117.228 253.089 117.94C249.035 118.652 244.458 119.462 242.918 119.74C241.378 120.019 239.972 120.684 239.793 121.22C239.221 122.937 244.81 123.33 250.19 121.951C252.983 121.235 255.977 120.65 256.842 120.65C257.706 120.65 258.414 120.097 258.414 119.421C258.414 117.978 259.362 117.83 260.61 119.078C261.21 119.678 261.994 119.703 263.027 119.159C263.869 118.715 267.138 117.918 270.291 117.389C273.445 116.86 276.577 116.214 277.254 115.953C277.929 115.693 279.739 115.371 281.273 115.236C282.808 115.102 284.651 114.737 285.369 114.425C286.086 114.112 287.595 113.773 288.721 113.673C289.848 113.573 290.861 113.397 290.974 113.281C291.086 113.166 291.517 113.026 291.93 112.97C292.342 112.914 292.957 112.591 293.295 112.254C294.031 111.517 288.502 111.62 281.868 112.468ZM113.085 132.732C112.745 133.07 111.335 133.347 109.952 133.347C108.519 133.347 107.269 133.843 107.045 134.501C106.715 135.47 108.079 135.57 115.492 135.116C120.354 134.818 131.12 134.575 139.417 134.575C152.826 134.575 154.366 134.438 153.273 133.347C151.942 132.016 114.382 131.44 113.085 132.732ZM239.124 133.002C238.663 133.747 241.565 136.571 242.851 136.629C243.076 136.639 243.629 136.87 244.079 137.14C244.529 137.412 250.795 138.672 258.004 139.941C265.213 141.209 271.295 142.492 271.52 142.792C272.555 144.168 289.111 145.762 289.856 144.557C290.632 143.303 289.608 142.899 282.037 141.474C278.279 140.766 274.884 139.875 274.491 139.494C274.098 139.112 273.232 139.008 272.566 139.263C271.9 139.519 271.115 139.368 270.822 138.926C270.243 138.051 260.501 136.029 249.198 134.437C245.257 133.882 242.032 133.133 242.032 132.773C242.032 131.799 239.756 131.979 239.124 133.002ZM162.371 143.33C161.583 143.537 160.938 144.069 160.938 144.512C160.938 144.957 160.62 145.123 160.23 144.883C159.84 144.643 158.016 145.174 156.174 146.063C154.333 146.953 152.365 147.681 151.8 147.681C151.235 147.681 147.339 149.352 143.14 151.394C138.943 153.436 134.687 155.468 133.683 155.908C126.467 159.074 121.687 164.05 127.449 162.398C128.91 161.978 130.35 161.241 130.648 160.759C130.946 160.276 131.524 159.96 131.934 160.055C132.811 160.259 134.383 159.67 140.459 156.865C142.937 155.721 145.149 154.727 145.374 154.656C145.6 154.584 146.89 154.057 148.242 153.482C149.593 152.907 151.805 151.969 153.156 151.398C162.316 147.522 165.034 145.916 165.034 144.379C165.034 142.735 164.881 142.675 162.371 143.33ZM227.612 148.09C228.467 148.738 229.481 149.072 229.865 148.835C230.249 148.597 230.563 148.767 230.563 149.213C230.563 149.659 233.236 150.848 236.502 151.855C239.769 152.862 242.81 153.951 243.26 154.273C243.71 154.596 247.397 155.846 251.451 157.05C255.505 158.254 259.463 159.588 260.246 160.014C262.154 161.051 263.926 160.989 264.624 159.86C265.121 159.056 262.832 157.047 261.69 157.285C261.465 157.333 260.912 157.073 260.461 156.71C260.011 156.346 256.51 155.079 252.68 153.893C248.851 152.708 244.611 151.234 243.26 150.618C235.656 147.155 223.858 145.249 227.612 148.09ZM213.459 167.636C214.754 170.478 218.815 172.788 224.298 173.801C226.748 174.254 230.706 175.567 233.094 176.719C237.446 178.819 239.505 178.652 237.66 176.351C236.173 174.495 233.576 173.242 230.05 172.678C223.925 171.698 219.915 170.394 219.915 169.381C219.915 167.89 218.076 166.603 215.095 166.007C212.518 165.492 212.494 165.516 213.459 167.636ZM176.091 170.369C170.54 171.108 166.009 173.198 163.215 176.312C159.505 180.443 156.685 185.263 157.347 186.334C157.635 186.8 157.364 187.497 156.742 187.88C155.124 188.881 155.12 209.906 156.738 211.857C157.356 212.602 157.588 213.211 157.252 213.211C156.916 213.211 157.132 213.802 157.732 214.525C158.511 215.464 159.692 215.721 161.881 215.427C165.021 215.007 167.044 217.993 165.41 220.637C164.757 221.694 165.826 262.658 166.489 261.994C166.732 261.752 167.453 261.987 168.092 262.518C168.996 263.268 169.419 263.221 169.998 262.306C170.635 261.299 171.338 214.426 170.828 206.92C170.693 204.913 171.137 203.996 172.762 202.932C176.185 200.689 177.067 202.221 176.696 209.76C176.409 215.607 176.646 216.865 179.308 223.595C180.918 227.667 182.235 231.334 182.235 231.743C182.235 233.877 186.516 238.603 188.449 238.603C194.566 238.603 198.204 234.27 199.341 225.631C200.759 214.852 205.85 206.177 206.624 213.219C207.826 224.16 211.966 227.07 218.853 221.812C224.246 217.693 225.63 218.377 223.401 224.058C222.581 226.151 222.388 228.232 222.792 230.611C223.455 234.516 223.331 261.093 222.638 263.49C222.239 264.875 222.512 264.971 225.348 264.439C229.847 263.596 229.744 263.801 229.744 255.668V248.256L231.808 248.773C238.519 250.458 244.259 237.854 243.309 223.523C242.727 214.752 243.618 206.208 246.024 197.492C247.923 190.607 247.608 188.287 244.291 184.746C241.715 181.995 239.051 182.163 240.884 184.96C242.299 187.119 242.14 189.571 240.304 193.961C239.005 197.067 238.924 197.446 237.79 205.776C237.061 211.125 237.083 214.441 237.887 220.52C239.483 232.607 237.23 245.331 233.702 244.155C230.665 243.142 225.006 229.235 226.795 227.177C233.271 219.727 225.24 213.565 216.617 219.369C211.23 222.994 209.761 221.979 210.524 215.165C211.022 210.73 207.761 206.186 204.539 206.824C201.243 207.476 195.599 218.101 194.726 225.297C193.593 234.647 189.052 238.928 187.439 232.165C187.155 230.976 186.562 229.542 186.118 228.978C185.674 228.416 185.586 227.955 185.921 227.955C186.257 227.955 186.155 227.494 185.697 226.931C183.952 224.79 182.79 219.033 182.316 210.18C181.784 200.236 181.517 199.609 177.512 198.907C173.534 198.21 164.215 204.778 164.215 208.279C164.215 209.537 160.117 211.91 159.38 211.08C158.844 210.476 160.234 196.578 160.971 195.19C161.09 194.965 161.259 194.412 161.347 193.961C161.434 193.511 161.792 192.481 162.142 191.673C162.492 190.865 162.589 190.015 162.357 189.782C162.125 189.551 163.242 186.711 164.84 183.47C166.439 180.23 167.716 176.996 167.679 176.286C167.624 175.186 173.102 172.494 176.911 171.75C177.362 171.662 178.652 171.21 179.778 170.746C182.015 169.823 180.99 169.718 176.091 170.369ZM174.107 179.29C170.882 182.003 170.583 186.589 173.453 189.286C178.657 194.175 194.374 195.714 199.497 191.837C204.931 187.723 205.586 187.576 210.727 189.312C217.505 191.601 221.429 191.555 224.691 189.149C226.175 188.054 227.039 186.942 226.612 186.679C226.184 186.414 225.387 186.737 224.84 187.396C223.352 189.188 218.49 189.874 216.81 188.53C210.267 183.292 199.234 184.242 191.734 190.686C189.868 192.289 189.131 192.433 185.869 191.823C176.153 190.008 173.25 186.073 178.422 181.73C180.069 180.349 181.416 178.757 181.416 178.193C181.416 176.368 176.746 177.069 174.107 179.29ZM142.917 249.821C139.087 250.925 132.966 252.527 129.312 253.383C117.547 256.139 114.861 257.975 122.706 257.896C126.966 257.854 134.415 260.484 137.017 262.949C139.106 264.929 144.016 266.846 144.359 265.815C144.702 264.784 150.517 267.291 151.51 268.9C152.314 270.199 153.569 269.873 153.043 268.502C152.255 266.449 153.98 267.124 156.365 269.799C159.028 272.788 159.93 272.411 158.481 268.912C157.168 265.743 158.147 264.64 160.115 267.068C160.938 268.082 161.802 268.912 162.036 268.912C162.271 268.912 162.58 268.082 162.723 267.068C164.042 257.785 166.382 282.844 165.442 296.167L164.992 302.536L168.887 304.205C184.333 310.826 217.045 309.804 226.339 302.41C229.333 300.028 229.511 298.935 230.121 279.298C230.617 263.244 231.035 264.546 225.877 266.028C224.876 266.315 222.785 268.034 221.232 269.85L218.408 273.149L217.102 271.157C215.907 269.333 212.646 267.273 210.955 267.273C209.694 267.273 202.38 273.768 201.283 275.862C199.801 278.689 199.118 278.476 196.523 274.372C191.43 266.323 185.675 265.705 181.326 272.742C179.758 275.279 178.14 275.741 178.14 273.65C178.14 270.344 169.878 263.997 165.576 263.997C163.546 263.997 161.366 262.203 162.283 261.287C163.211 260.358 158.679 252.023 156.036 249.798C152.953 247.204 151.987 247.206 142.917 249.821ZM116.337 262.64C112.446 267.743 113.793 273.223 119.999 277.523C124.714 280.792 127.194 279.591 122.642 276.244C115.211 270.778 116.901 261.551 124.612 265.493C127.924 267.187 135.545 273.524 135.545 274.585C135.545 274.925 133.704 276.205 131.456 277.43C109.778 289.228 113.045 305.085 140.05 319.151C171.507 335.536 227.973 333.001 255.159 313.983C263.356 308.249 265.534 305.772 262.377 305.772C260.947 305.772 261.594 304.848 265.758 300.946C271.969 295.127 271.787 291.518 265.522 296.296C264.086 297.392 260.352 299.437 257.224 300.839C254.097 302.242 250.412 303.9 249.037 304.524C245.817 305.983 233.908 308.836 228.106 309.539C225.628 309.84 223.157 310.437 222.614 310.865C221.094 312.066 191.267 312.576 179.778 311.598C164.047 310.259 141.339 306.542 139.231 304.961C138.78 304.623 137.086 303.92 135.466 303.399C131.702 302.188 124.896 297.89 124.896 296.725C124.896 296.233 125.55 296.039 126.349 296.293C127.441 296.64 128.301 295.839 129.813 293.072C130.919 291.047 132.047 289.389 132.32 289.389C133.435 289.389 133.805 290.507 133.116 291.794C132.267 293.379 132.894 294.611 134.93 295.363C135.719 295.653 136.364 296.618 136.364 297.507C136.364 299.729 137.006 299.949 141.484 299.259C144.934 298.728 145.374 298.831 145.374 300.168C145.374 300.997 145.743 301.676 146.193 301.676C146.644 301.676 147.012 301.123 147.012 300.448C147.012 299.008 149.187 298.778 149.65 300.168C149.824 300.689 150.852 301.252 151.935 301.417C153.018 301.582 154.104 302.034 154.349 302.419C155.286 303.895 159.3 303.179 159.3 301.537C159.3 300.672 160.192 299.071 161.284 297.98C164.743 294.52 164.702 292.995 161.09 290.715C159.325 289.6 155.18 285.252 151.881 281.052C144.038 271.069 141.599 268.472 137.321 265.559C127.441 258.83 120.03 257.799 116.337 262.64ZM237.924 270.423C237.178 270.745 236.719 271.938 236.771 273.416C236.82 274.768 236.515 276.321 236.093 276.868C235.602 277.506 235.75 278.706 236.507 280.224C237.499 282.214 237.512 282.826 236.582 284.097C235.091 286.137 235.188 286.73 237.116 287.341C239.135 287.983 239.273 289.38 237.322 289.417C235.966 289.442 232.201 292.034 232.201 292.941C232.201 294.08 241.558 298.347 242.107 297.459C242.528 296.776 243.511 296.989 245.577 298.208C247.919 299.59 248.542 299.694 248.9 298.759C249.213 297.944 250.093 297.76 251.924 298.125C254.283 298.598 254.458 298.491 253.947 296.882C253.538 295.593 253.731 295.123 254.672 295.123C256.109 295.123 256.397 293.854 255.138 293.076C252.535 291.467 254.382 289.389 258.414 289.389C261.509 289.389 262.51 289.089 262.51 288.16C262.51 286.218 263.905 286.707 267.183 289.8C270.566 292.989 270.939 293.124 272.2 291.605C274.472 288.867 268.956 280.614 262.737 277.449C261.035 276.583 259.417 275.566 259.141 275.19C258.865 274.814 258.312 274.503 257.913 274.5C257.512 274.498 256.022 274.01 254.6 273.416C252.393 272.494 248.704 271.63 240.803 270.186C239.901 270.021 238.607 270.127 237.924 270.423Z" fill="#0000FF"/>
</svg>
