<svg width="400" height="400" viewBox="0 0 400 400" fill="none" xmlns="http://www.w3.org/2000/svg">
<path fill-rule="evenodd" clip-rule="evenodd" d="M140.608 70.8281C115.329 77.4229 113.813 116.484 138.531 124.36C149.547 127.872 150.808 135.142 140.548 136.001C136.415 136.347 130.64 138.527 120.26 143.659C118.895 144.334 117.868 145.75 117.593 147.336C117.208 149.547 115.928 150.559 108.615 154.416C103.924 156.891 99.1659 159.536 98.0422 160.294L95.9996 161.673L100.557 171.407C106.937 185.038 107.229 185.537 109.069 185.89C109.971 186.064 111.559 185.776 112.595 185.25C115.12 183.969 126.406 179.786 128.989 179.175C130.124 178.907 131.998 179.193 133.153 179.812C135.813 181.235 153.468 173.23 154.442 170.158C154.947 168.571 163.332 164.764 164.228 165.715C164.728 166.246 170.042 177.726 170.042 178.273C170.042 178.557 171.443 181.821 173.153 185.526C174.865 189.231 176.268 192.56 176.27 192.925C176.274 193.29 176.911 194.789 177.688 196.255C178.464 197.722 180.215 201.922 181.579 205.589C187.42 221.296 188.766 224.801 189.602 226.482C190.089 227.459 191.021 229.841 191.674 231.772C193.23 236.377 195.322 236.935 208.27 236.201C213.894 235.883 220.759 235.686 223.526 235.764C229.6 235.934 230.366 235.017 227.778 230.676C226.695 228.859 225.12 226.17 224.276 224.704C223.433 223.237 221.426 219.837 219.817 217.147C214.715 208.617 194.62 168.225 190.118 157.448C188.924 154.593 188.918 154.072 190.07 153.116C194.254 149.643 187.909 128.795 181.431 124.734C180.301 124.025 177.313 121.725 174.79 119.622C172.267 117.519 169.65 115.798 168.976 115.798C168.301 115.798 165.063 114.398 161.782 112.686C156.918 110.151 154.838 109.575 150.539 109.575C143.709 109.575 141.352 108.611 139.039 104.867C132.285 93.9392 142.917 83.051 154.482 89.0515C157.316 90.5214 161.477 91.9937 163.728 92.3232C165.977 92.6526 168.881 93.6685 170.18 94.5813C174.326 97.496 176.577 96.8491 175.847 92.9545C172.972 77.6302 155.82 66.8605 140.608 70.8281ZM151.373 98.0183C147.953 101.437 151.111 106.908 156.504 106.908C158.55 106.908 168.121 100.225 168.222 98.7263C168.4 96.092 153.907 95.4834 151.373 98.0183ZM223.384 102.547C220.694 103.467 216.765 105.067 214.652 106.102C211.53 107.632 209.915 107.874 206.048 107.391C202.508 106.949 200.585 107.159 198.555 108.208C195.174 109.956 195.166 109.806 198.936 114.406C200.646 116.496 202.047 118.484 202.047 118.827C202.047 119.17 204.048 123.608 206.493 128.689C209.479 134.898 210.937 139.062 210.937 141.383C210.937 145.683 211.402 146.162 214.36 144.904C217.782 143.45 219.69 141.647 220 139.574C220.191 138.294 223.167 136.142 230.052 132.305C241.927 125.686 241.843 125.969 235.88 112.686C230.552 100.819 229.923 100.309 223.384 102.547ZM166.62 104.247C161.946 107.632 161.989 108.008 167.359 110.815C172.831 113.677 173.441 113.678 179.432 110.844C185.399 108.021 185.41 107.6 179.599 104.267C173.725 100.898 171.246 100.895 166.62 104.247ZM182.755 113.225C175.062 115.45 183.984 124.299 193.249 123.634C198.533 123.255 198.675 121.394 193.805 116.312C189.723 112.052 188.242 111.638 182.755 113.225ZM190.845 127.713C189.647 130.835 196.638 139.802 200.269 139.802C201.115 139.802 202.882 140.648 204.196 141.682C207.484 144.268 207.76 143.501 205.674 137.568C203.351 130.959 201.528 128.244 199.411 128.244C198.475 128.244 197.46 127.844 197.157 127.355C196.327 126.011 191.39 126.291 190.845 127.713ZM196.384 144.469C194.884 150.067 195.736 153.739 199.602 158.343C202.368 161.637 203.451 162.435 203.644 161.323C203.789 160.488 204.508 157.876 205.239 155.517C206.918 150.112 206.344 148.351 201.838 145.087C197.498 141.943 197.074 141.895 196.384 144.469ZM195.93 161.676C196.722 162.603 197.747 164.536 198.209 165.973C199.096 168.74 201.158 170.164 201.158 168.012C201.158 166.227 197.432 160.919 195.823 160.411C194.706 160.057 194.723 160.262 195.93 161.676ZM245.387 186.302C241.019 187.25 240.156 188.533 242.552 190.523C246.07 193.441 257.768 214.566 261.289 224.357C263.234 229.767 263.91 229.783 266.217 224.481C269.78 216.293 272.392 215.09 273.941 220.926C276.987 232.395 276.99 232.275 273.398 242.6C271.315 248.584 265.419 253.642 258.767 255.15C244.603 258.36 244.266 258.39 239.462 256.818C235.948 255.669 234.487 255.555 233.053 256.323C231.996 256.889 229.417 257.103 227.068 256.82C217.537 255.673 215.78 255.601 214.89 256.323C214.11 256.954 208.708 257.591 200.941 257.968C199.368 258.043 199.294 259.511 200.696 262.763C201.077 263.649 201.195 267.094 200.957 270.42C199.617 289.133 180.062 294.945 164.552 281.24C161.243 278.317 155.818 270.739 155.818 269.043C155.818 268.123 164.291 268.884 167.095 270.057C171.688 271.974 171.737 271.294 167.596 263.12C161.926 251.933 157.387 239.221 156.099 230.927C155.308 225.827 155.114 225.739 151.482 228.856C145.127 234.311 137.713 244.115 133.305 252.895C132.149 255.197 130.796 257.597 130.299 258.228C128.921 259.977 123.881 275.969 123.245 280.609C122.639 285.025 124.107 286.239 126.529 283.322C127.717 281.889 132.052 279.379 133.339 279.379C133.737 279.379 135.845 282.679 138.024 286.713C144.727 299.125 157.909 310.834 168.264 313.575C169.486 313.898 171.287 314.512 172.264 314.938C175.48 316.339 185.44 317.269 194.935 317.057C206.804 316.791 227.088 318.154 231.28 319.498C238.752 321.894 241.933 323.263 247.641 326.538L253.674 330L254.532 327.747C255.003 326.507 255.389 324.391 255.389 323.045C255.389 316.703 261.242 303.469 267.466 295.738C269.08 293.734 271.893 290.133 273.716 287.737C275.54 285.34 279.786 280.337 283.154 276.619C302.107 255.689 306.158 234.046 295.664 209.783C293.868 205.631 294.63 204.669 300.207 204.04C307.668 203.199 304.141 198.774 292.197 193.992C289.311 192.836 286.507 191.571 285.965 191.18C284.697 190.265 279.034 189.121 264.866 186.918C252.41 184.981 251.603 184.956 245.387 186.302ZM168.939 195.144C165.46 200.466 166.348 203.711 172.285 207.38C178.006 210.917 178.429 206.519 173.333 196.478C171.368 192.607 170.725 192.412 168.939 195.144ZM164.379 208.479C162.072 217.09 163.736 220.671 170.709 222.095L175.377 223.048V218.494C175.377 213.757 173.216 210.724 167.609 207.59C165.015 206.14 165.005 206.144 164.379 208.479ZM164.397 224.866C161.894 227.371 168.989 235.816 173.598 235.816C183.566 235.816 181.404 226.429 171.215 225.471C168.859 225.25 166.47 224.914 165.906 224.726C165.343 224.536 164.664 224.6 164.397 224.866ZM176.487 237.571C171.789 239.704 171.778 240.466 176.399 243.813C181.069 247.196 184.924 247.313 188.643 244.183C195.203 238.664 185.594 233.437 176.487 237.571ZM227.644 240.511C226.34 241.597 224.449 243.995 223.441 245.841L221.611 249.198L223.888 250.064C229.401 252.16 232.724 251.234 237.081 246.388C242.019 240.897 242.058 240.545 237.83 239.529C232.367 238.216 230.142 238.43 227.644 240.511ZM215.646 240.39C209.42 241.479 203.086 248.464 205.208 251.899C206.584 254.125 213.759 252.733 216.583 249.692C225.024 240.6 224.841 238.781 215.646 240.39ZM195.379 242.184C192.74 243.638 187.822 248.464 187.822 249.603C187.822 251.004 195.978 252.927 198.858 252.205C201.304 251.59 206.132 243.615 205.084 241.919C204.409 240.827 197.499 241.017 195.379 242.184ZM241.229 246.243C237.372 250.921 238.666 252.709 245.914 252.709C250.514 252.709 258.839 246.277 257.042 244.112C254.627 241.202 244.228 242.604 241.229 246.243ZM261.038 247.989C259.989 248.195 258.388 249.201 257.481 250.227C255.448 252.526 260.669 252.001 262.997 249.672C264.392 248.278 264.667 247.304 263.613 247.495C263.245 247.561 262.086 247.784 261.038 247.989Z" fill="#0000FF"/>
</svg>
