<svg width="400" height="400" viewBox="0 0 400 400" fill="none" xmlns="http://www.w3.org/2000/svg">
<path style="fill:#0000FF;" d="M349.382,261.727c-0.203-0.446-0.473-1.271-0.595-1.825c-0.284-1.284-0.865-2.325-1.433-2.555
	c-0.365-0.149-0.541-0.149-1.136,0.041c-1.082,0.338-1.541,0.297-2.379-0.243c-0.838-0.541-0.879-0.541-2.974,0.081
	c-2.041,0.622-2.258,0.554-2.92-0.906c-0.649-1.42-0.744-1.447-2.731-0.811c-0.865,0.284-2.163,0.716-2.866,0.96
	c-0.703,0.257-1.582,0.554-1.96,0.676c-2.339,0.744-4.245,1.406-4.597,1.582c-0.23,0.122-0.744,0.284-1.149,0.379
	c-0.406,0.095-1.041,0.311-1.42,0.487c-0.365,0.176-1.095,0.406-1.622,0.527c-0.514,0.122-1.46,0.419-2.096,0.676
	c-0.635,0.243-1.393,0.5-1.69,0.554c-0.811,0.135-1.69,0.595-1.866,0.96c-0.095,0.23-0.095,0.568,0.041,1.23
	c0.149,0.784,0.135,0.973-0.041,1.406c-0.23,0.541-0.649,0.744-1.23,0.595c-0.419-0.108-1.055-0.635-1.257-1.055
	c-0.081-0.162-0.433-0.919-0.784-1.663c-0.717-1.541-1.352-2.866-2.839-5.949c-1.839-3.826-2.069-4.299-2.717-5.746
	c-0.352-0.784-0.838-1.785-1.082-2.231c-0.243-0.446-0.473-0.96-0.527-1.149c-0.068-0.189-0.257-0.568-0.433-0.865
	c-0.189-0.284-0.419-0.757-0.514-1.041c-0.176-0.487-0.595-1.365-3.245-6.814c-0.541-1.122-1.203-2.488-1.46-3.042
	c-1.73-3.745-2.461-5.273-3.745-7.909c-0.798-1.636-1.717-3.529-2.028-4.191c-0.311-0.676-0.771-1.649-1.014-2.163
	c-1.541-3.204-2.298-4.799-2.515-5.3c-1.149-2.677-3.907-6.097-6.097-7.571c-1.541-1.041-4.516-2.407-5.705-2.609
	c-2.15-0.379-5.773-0.406-10.086-0.068c-1.568,0.122-1.812,0.23-2.298,1.095c-0.487,0.879-0.757,0.973-2.041,0.73
	c-0.717-0.135-1.014-0.149-1.271-0.027c-0.608,0.284-1.338,0.203-1.731-0.189c-0.46-0.46-0.595-1.176-0.771-4.313
	c-0.297-5.259-0.406-6.517-0.608-7.571c-0.189-0.906-0.189-1.244-0.054-2.055c0.122-0.757,0.122-1.122,0-1.622
	c-0.27-1.068-0.541-1.23-2.204-1.393c-0.581-0.054-1.19-0.189-1.379-0.311c-0.189-0.122-0.784-0.879-1.325-1.676
	c-1.217-1.798-2.799-3.407-4.38-4.448c-2.014-1.338-2.082-1.555-2.352-7.693c-0.203-4.813-0.406-8.125-0.608-10.545
	c-0.108-1.19-0.257-3.65-0.338-5.476c-0.176-4.124-0.5-9.383-0.662-11.086c-0.081-0.703-0.203-2.474-0.284-3.921
	c-0.176-3.11-0.365-4.218-1.055-5.949c-0.73-1.852-1.636-3.312-2.88-4.637c-1.568-1.69-3.461-2.947-5.976-4.002
	c-0.838-0.352-1.703-1.176-1.731-1.676c-0.013-0.162-0.041-0.69-0.054-1.176c-0.041-0.987-0.46-2.231-0.946-2.812
	c-0.649-0.771-1.676-1.23-3.339-1.514c-0.852-0.149-2.096-0.392-2.758-0.554c-1.095-0.257-1.69-0.297-6.517-0.352
	c-5.638-0.068-8.044,0.041-10.667,0.487c-0.825,0.149-2.379,0.338-3.448,0.419c-1.068,0.095-2.717,0.338-3.691,0.541
	c-1.906,0.419-2.461,0.473-5.962,0.676c-1.271,0.068-3.245,0.257-4.394,0.392c-2.096,0.27-4.556,0.473-7.693,0.622
	c-3.448,0.162-6.476,0.352-8.517,0.541c-2.069,0.203-4.502,0.324-11.424,0.608c-1.933,0.068-4.664,0.216-6.084,0.311
	c-1.406,0.081-4.57,0.162-7.03,0.162c-4.218,0-4.489-0.013-4.921-0.27c-0.825-0.487-0.987-0.852-1.176-2.596
	c-0.527-4.989-0.892-7.787-1.136-8.626c-0.149-0.527-0.392-1.825-0.541-2.907c-0.135-1.082-0.379-2.312-0.527-2.731
	c-0.149-0.433-0.392-1.622-0.541-2.636c-0.149-1.028-0.419-2.366-0.608-2.974c-0.189-0.608-0.433-1.798-0.541-2.623
	c-0.122-0.838-0.338-1.96-0.487-2.501c-0.162-0.541-0.392-1.582-0.527-2.312c-0.338-1.758-1.23-4.407-1.987-5.895
	c-2.217-4.421-5.841-7.841-9.491-8.964c-1.366-0.419-2.123-0.946-3.177-2.19c-1.082-1.284-2.623-2.758-3.623-3.448
	c-0.852-0.595-2.731-1.676-3.15-1.798c-0.149-0.041-0.811-0.284-1.447-0.541c-0.825-0.311-1.555-0.487-2.542-0.581
	c-2.893-0.297-6.395-0.095-7.706,0.446c-1.906,0.798-3.083,1.055-3.759,0.838c-0.135-0.041-0.433-0.365-0.649-0.703
	c-0.406-0.635-0.933-1.136-1.203-1.122c-0.081,0-0.487,0.108-0.892,0.243c-0.703,0.216-2.596,1.082-4.191,1.906
	c-0.406,0.203-0.892,0.419-1.082,0.473c-0.297,0.095-1.622,0.703-3.853,1.758c-0.365,0.176-1.379,0.635-2.231,1.014
	c-0.852,0.379-1.987,0.906-2.528,1.163c-0.527,0.257-1.001,0.46-1.055,0.46c-0.095,0-1.095,0.46-3.515,1.622
	c-0.446,0.216-1.514,0.703-2.366,1.082c-0.852,0.379-1.893,0.865-2.298,1.068c-0.406,0.216-0.973,0.46-1.257,0.554
	c-0.676,0.216-1.271,0.73-1.379,1.203c-0.243,1.122,1.568,5.246,2.961,6.746c1.082,1.176,2.177,1.095,2.785-0.203
	c0.541-1.19,0.852-1.474,2.407-2.204c1.23-0.595,1.622-0.717,2.65-0.825c0.892-0.095,1.393-0.23,1.96-0.514
	c1.136-0.595,5.976-2.812,6.368-2.92c0.189-0.054,0.581-0.243,0.879-0.419c0.946-0.541,3.204-1.406,4.11-1.555
	c0.662-0.122,0.973-0.257,1.352-0.595c0.27-0.243,0.96-0.689,1.541-1c0.96-0.5,1.136-0.554,2.069-0.554h1.028l0.892-0.919
	c0.5-0.5,1.095-0.987,1.311-1.082c0.581-0.23,4.434-1.109,4.854-1.109c0.541,0,4.502,0.919,4.935,1.149
	c0.554,0.284,0.96,0.906,0.96,1.46c0,0.379-0.095,0.554-0.5,0.906c-1.014,0.838-1.109,0.973-1.393,1.717
	c-0.406,1.082-0.473,2.109-0.23,3.366c0.122,0.581,0.284,1.582,0.365,2.217c0.081,0.622,0.311,1.501,0.487,1.96
	c0.189,0.446,0.433,1.352,0.541,2.028c0.122,0.662,0.365,1.595,0.541,2.042c0.176,0.46,0.446,1.406,0.608,2.096
	c0.149,0.703,0.392,1.582,0.527,1.974c0.149,0.392,0.419,1.311,0.595,2.042c0.189,0.73,0.433,1.555,0.554,1.825
	c0.108,0.27,0.297,0.933,0.406,1.474c0.122,0.541,0.379,1.555,0.595,2.271c0.703,2.339,1.366,5.313,1.636,7.301
	c0.135,1.082,0.392,2.569,0.541,3.312c0.352,1.649,0.406,3.218,0.135,3.785c-0.243,0.487-1.176,1.109-5.408,3.596
	c-1.217,0.717-1.487,0.973-1.487,1.366c0,0.149,0.689,1.663,1.541,3.393c2.393,4.867,3.407,7.003,3.596,7.598
	c0.095,0.297,0.311,0.825,0.487,1.176c0.176,0.338,0.433,1.041,0.581,1.555c0.149,0.5,0.392,1.284,0.554,1.731
	c0.338,0.933,0.297,1.649-0.135,2.488c-0.284,0.568-0.987,3.393-1.149,4.597c-0.054,0.392-0.013,2.041,0.081,3.65
	c0.149,2.717,0.149,2.961-0.068,3.42c-0.284,0.595-0.825,0.879-2.014,1.068c-0.46,0.081-1.352,0.284-1.974,0.46
	c-0.622,0.189-1.771,0.433-2.542,0.541c-0.784,0.122-1.758,0.324-2.177,0.473c-0.433,0.149-1.257,0.379-1.852,0.527
	c-1.501,0.352-4.137,1.176-5.273,1.636c-0.514,0.216-1.257,0.487-1.636,0.595c-0.379,0.095-0.919,0.311-1.217,0.46
	c-0.284,0.135-0.771,0.338-1.068,0.433c-1.365,0.419-7.652,3.38-9.464,4.462c-0.811,0.5-1.947,1.163-2.501,1.487
	c-1.582,0.933-4.353,2.704-5.273,3.393c-0.257,0.189-1.203,0.879-2.096,1.541c-3.299,2.447-5.016,3.934-8.653,7.558
	c-3.988,3.961-6.638,7.057-9.45,11.019c-1.311,1.839-3.339,4.935-3.867,5.895c-0.243,0.446-0.717,1.298-1.041,1.893
	c-0.338,0.595-0.838,1.501-1.109,2.028c-0.284,0.514-0.568,1.068-0.662,1.217c-0.176,0.311-1.109,2.325-1.893,4.056
	c-0.757,1.663-1.203,2.771-1.649,4.056c-0.203,0.595-0.473,1.284-0.608,1.514c-0.122,0.243-0.365,0.973-0.541,1.622
	c-0.176,0.662-0.433,1.474-0.581,1.812c-0.149,0.352-0.379,1.136-0.5,1.758c-0.135,0.622-0.338,1.406-0.473,1.744
	c-0.135,0.338-0.379,1.271-0.541,2.096c-0.162,0.811-0.433,1.987-0.608,2.596c-0.176,0.608-0.352,1.46-0.406,1.893
	c-0.054,0.433-0.27,1.933-0.487,3.353c-0.554,3.677-0.703,6.138-0.717,11.424c0,4.732,0.176,8.261,0.527,10.559
	c0.108,0.703,0.352,2.339,0.527,3.637c0.189,1.298,0.433,2.636,0.541,2.961c0.122,0.324,0.338,1.244,0.5,2.028
	c0.149,0.784,0.419,1.893,0.595,2.447c0.189,0.554,0.419,1.474,0.541,2.028c0.108,0.554,0.392,1.474,0.608,2.028
	c0.216,0.554,0.487,1.406,0.608,1.879c0.122,0.487,0.338,1.095,0.473,1.366c0.135,0.257,0.352,0.838,0.473,1.284
	c0.135,0.446,0.379,1.109,0.554,1.487c0.176,0.365,0.473,1.068,0.676,1.555c0.784,1.947,1.23,2.947,1.487,3.38
	c0.149,0.257,0.379,0.744,0.527,1.082c0.149,0.338,0.595,1.217,1.001,1.96c0.406,0.744,0.946,1.771,1.217,2.298
	c0.73,1.379,2.014,3.448,4.029,6.395c2.88,4.232,4.989,6.8,9.018,11.019c3.894,4.083,9.951,9.072,14.426,11.924
	c3.745,2.379,5.408,3.312,9.072,5.151c1.393,0.703,2.582,1.271,2.636,1.271c0.068,0,0.541,0.216,1.055,0.473
	c1.284,0.635,3.191,1.393,4.259,1.676c0.487,0.135,1.136,0.365,1.433,0.527c0.311,0.162,1.028,0.406,1.582,0.568
	c0.568,0.149,1.338,0.392,1.731,0.541c0.379,0.162,1.23,0.406,1.866,0.554c0.635,0.149,1.622,0.406,2.177,0.581
	c0.554,0.176,1.528,0.419,2.163,0.527c0.635,0.122,1.852,0.365,2.704,0.554c0.852,0.189,3.164,0.568,5.138,0.838
	c3.001,0.406,4.191,0.514,7.355,0.608c5.8,0.176,9.815-0.014,14.75-0.69c2.231-0.297,4.516-0.676,5.07-0.825
	c0.554-0.149,1.528-0.365,2.163-0.487c1.46-0.27,4.178-0.987,6.354-1.663c0.933-0.284,1.906-0.568,2.163-0.622
	c0.257-0.041,0.811-0.257,1.217-0.46c0.406-0.203,1.082-0.446,1.487-0.541c0.406-0.095,1.082-0.338,1.487-0.541
	c0.406-0.203,0.892-0.419,1.082-0.473c1.23-0.352,6.868-3.069,9.734-4.705c3.407-1.92,5.597-3.339,8.477-5.462
	c2.88-2.15,3.515-2.663,7.138-5.895c2.542-2.271,6.043-5.949,8.058-8.477c3.191-4.015,3.231-4.069,5.165-6.963
	c1.528-2.285,1.96-2.974,2.596-4.137c0.554-1.028,1.893-2.447,4.8-5.124c1.082-0.987,2.961-2.745,4.191-3.907
	c1.23-1.163,2.636-2.474,3.123-2.92c1.298-1.19,5.34-5.029,7.22-6.841c0.892-0.865,1.758-1.636,1.906-1.717
	c0.514-0.27,1.568-0.446,3.366-0.568c0.973-0.068,3.339-0.243,5.273-0.392c1.933-0.149,4.678-0.297,6.084-0.352
	c2.907-0.095,8.125-0.406,10.14-0.608c2.028-0.189,3.204-0.176,3.556,0.081c0.433,0.297,0.568,0.635,0.784,1.906
	c0.203,1.284,0.284,1.433,1,1.798c0.622,0.324,1.217,0.987,1.622,1.839c0.297,0.595,0.338,0.933,0.5,4.448
	c0.095,2.082,0.243,4.313,0.324,4.962c0.203,1.636-0.014,2.339-1.136,3.731c-1.352,1.663-3.204,4.489-3.529,5.367
	c-0.095,0.297-0.406,0.96-0.676,1.487c-0.27,0.514-0.487,1.014-0.487,1.095c0,0.081-0.203,0.784-0.46,1.555
	c-0.676,2.055-1.271,5.151-1.379,7.22c-0.23,4.691,1.298,10.816,3.772,15.007c2.501,4.245,5.922,7.72,9.856,9.978
	c1.785,1.041,3.042,1.649,3.84,1.893c0.379,0.108,0.946,0.338,1.257,0.5c0.324,0.162,1.109,0.406,1.744,0.541
	c0.649,0.149,1.636,0.392,2.19,0.541c1.366,0.379,5.097,0.568,7.612,0.406c4.732-0.338,10.153-2.42,14.399-5.53
	c3.502-2.569,6.557-6.26,8.288-10.018c0.23-0.487,0.541-1.149,0.717-1.487c0.176-0.338,0.446-1.095,0.608-1.69
	c0.149-0.595,0.406-1.393,0.541-1.771c0.365-0.946,0.838-4.326,0.919-6.611c0.081-2.177-0.297-5.651-0.838-7.558
	c-0.662-2.325-0.987-3.285-1.311-3.934c-0.176-0.379-0.419-0.879-0.514-1.136c-0.46-1.163-2.204-3.894-3.596-5.624
	c-1.622-2.028-4.651-4.732-6.611-5.908c-2.244-1.338-5.083-2.623-7.044-3.15c-2.42-0.662-2.799-0.73-5.394-0.96
	c-2.379-0.203-2.731-0.203-5.016,0.014c-2.515,0.23-2.799,0.284-5.394,0.987c-1.528,0.406-3.731,1.284-4.786,1.893
	c-0.825,0.473-1.649,0.487-2.123,0c-0.406-0.406-0.527-1.122-0.676-4.434c-0.081-1.744-0.081-1.879,0.27-2.866l0.352-1.027
	l-0.135-2.745c-0.081-1.514-0.189-3.488-0.257-4.38c-0.23-2.799-0.554-7.882-0.676-10.356c-0.068-1.298-0.189-2.501-0.27-2.663
	c-0.203-0.392-0.554-0.554-1.46-0.703c-0.892-0.149-1.311-0.392-1.595-0.96c-0.311-0.581-0.744-4.854-1.014-9.721
	c-0.068-1.379-0.203-3.704-0.284-5.165c-0.162-2.947-0.108-3.407,0.527-3.894c0.311-0.257,0.473-0.284,1.311-0.203
	c0.879,0.081,1.041,0.054,1.663-0.257c0.919-0.473,1.284-0.446,1.676,0.068c0.176,0.23,0.487,0.608,0.689,0.825
	c0.365,0.392,0.406,0.406,1.082,0.311c0.392-0.068,1.46-0.095,2.393-0.081c0.933,0.014,3.61-0.122,5.949-0.311
	c2.352-0.189,5.692-0.379,7.436-0.433c2.812-0.081,3.231-0.068,3.61,0.122c0.352,0.189,0.608,0.581,1.393,2.15
	c0.527,1.055,1.014,1.987,1.082,2.069c0.054,0.068,0.23,0.446,0.379,0.825c0.149,0.379,0.744,1.636,1.298,2.799
	c0.568,1.149,1.028,2.123,1.028,2.163c0,0.081,1.338,2.866,3.245,6.787c0.581,1.19,1.298,2.677,1.595,3.312
	c0.297,0.635,0.784,1.663,1.082,2.298c0.297,0.635,0.798,1.69,1.109,2.366c0.676,1.447,2.555,5.327,3.177,6.557
	c0.243,0.487,0.487,1.028,0.541,1.217c0.054,0.189,0.784,1.703,1.609,3.393c0.825,1.676,1.771,3.623,2.096,4.326
	c0.324,0.703,0.757,1.609,0.973,2.014c0.595,1.203,0.608,1.568,0.135,2.461c-0.554,1.028-0.554,1.785-0.014,3.056
	c0.216,0.527,0.487,1.311,0.595,1.744c0.216,0.919,0.973,2.717,1.244,3.015c0.135,0.135,0.5,0.216,1.109,0.23
	c0.5,0.014,1.014,0.027,1.136,0.027c0.473,0.027,1.23,0.879,1.771,2.014c0.689,1.447,1.028,1.69,2.231,1.609
	c1.19-0.095,2.231-0.622,2.663-1.366c0.419-0.716,0.433-1.271,0.041-2.014c-0.189-0.379-0.297-0.825-0.297-1.338
	c-0.013-1.163,0.446-1.582,2.461-2.204c1.825-0.568,3.583-1.163,4.624-1.568c0.554-0.216,1.379-0.473,1.825-0.568
	c0.446-0.108,1.122-0.324,1.487-0.473c0.379-0.162,1.649-0.595,2.839-0.973c1.19-0.392,2.501-0.811,2.907-0.96
	c1.501-0.541,8.328-2.799,8.923-2.961c0.338-0.081,1-0.338,1.487-0.541c0.487-0.216,1.298-0.487,1.798-0.622
	c1.068-0.257,1.704-0.649,1.974-1.19C350.139,264.107,349.923,262.917,349.382,261.727z M251.688,191.587
	c0.149,0.041,0.69,0.325,1.19,0.608c0.5,0.284,1.028,0.69,1.176,0.879c0.392,0.5,0.379,1.325-0.013,1.595
	c-0.649,0.46-2.042,0.162-2.839-0.608c-0.406-0.392-0.514-0.581-0.514-0.973C250.687,192.155,251.161,191.425,251.688,191.587z
	 M247.416,188.559c0.46,0.46-0.081,1.217-0.649,0.919c-0.149-0.081-0.27-0.162-0.27-0.203c0-0.027-0.041-0.135-0.081-0.243
	C246.253,188.599,247.064,188.207,247.416,188.559z M244.184,194.656c-0.189,0.406-0.473,0.527-2.014,0.825
	c-1.92,0.365-4.948,0.203-6.746-0.365c-0.771-0.23-1.055-0.257-2.366-0.162c-2.69,0.203-2.663,0.216-3.312-1.46
	c-0.473-1.19-0.5-1.433-0.216-1.974c0.338-0.676,1.582-1.068,4.326-1.379c1.406-0.149,2.974-0.527,4.597-1.109
	c0.527-0.189,1.271-0.352,1.663-0.352c0.622-0.014,0.784,0.041,1.109,0.379c0.433,0.433,0.46,0.5,0.662,2.312
	c0.189,1.703,0.365,1.933,1.663,2.217C244.09,193.71,244.387,194.21,244.184,194.656z M235.735,209.987
	c-0.311,0.608-1.027,1.122-1.568,1.122c-0.568,0-1.325-0.771-1.325-1.352c0-0.527,0.324-1.109,0.798-1.393
	c0.46-0.284,0.771-0.284,1.447,0.027C235.856,208.744,236.073,209.284,235.735,209.987z M236.681,213.219
	c0.433,0.433,0.095,1.271-0.514,1.271c-0.419,0-0.892-0.379-0.892-0.703C235.275,213.11,236.208,212.745,236.681,213.219z
	 M226.906,215.233c-0.541-0.622-0.865-1.271-1.163-2.366c-0.122-0.487-0.5-1.393-0.825-2.001c-0.865-1.649-0.798-2.096,0.487-3.082
	c0.446-0.352,0.973-0.919,1.163-1.257c0.527-0.906,0.798-1.095,1.69-1.095c0.527,0,0.933,0.095,1.352,0.311
	c0.852,0.446,1.649,1.636,2.096,3.069c0.352,1.19,0.473,1.46,1.136,2.704c0.5,0.933,0.541,1.717,0.108,2.136
	c-0.297,0.27-1.609,0.919-3.434,1.703c-0.527,0.216-1.082,0.352-1.514,0.352C227.393,215.706,227.285,215.652,226.906,215.233z
	 M227.839,217.883c0,0.257-0.717,0.919-1.082,1c-0.865,0.189-1.609-0.662-1.352-1.568c0.149-0.5,0.365-0.784,0.744-0.933
	c0.473-0.203,0.825-0.149,1.109,0.162C227.501,216.815,227.839,217.599,227.839,217.883z M146.261,144.389
	c0-4.151,0.041-4.38,0.798-4.827c0.581-0.338,7.165-0.622,8.734-0.379c1.163,0.189,1.785,0.122,2.69-0.297
	c0.541-0.243,1.271-0.311,6.625-0.595c6.638-0.338,9.099-0.5,12.438-0.784c1.23-0.108,4.272-0.27,6.76-0.352
	c2.488-0.081,5.381-0.23,6.422-0.338c2.799-0.297,7.098-0.581,9.937-0.676c2.934-0.095,8.72-0.433,9.275-0.554
	c0.216-0.041,0.96,0.054,1.649,0.203c1.352,0.311,1.609,0.297,2.731-0.189c0.973-0.419,1.203-0.446,7.436-0.689
	c2.934-0.108,5.976-0.284,6.76-0.379c2.258-0.284,3.907-0.257,5.11,0.068c0.581,0.162,1.352,0.365,1.731,0.473
	c0.379,0.108,1.163,0.5,1.744,0.879c3.218,2.096,4.813,4.894,5.192,9.112c0.27,2.92,0.324,5.394,0.149,5.935
	c-0.311,0.96-0.176,0.946-6.192,0.852c-2.947-0.041-6.855-0.162-8.68-0.284c-4.326-0.27-11.438-0.46-22.781-0.635
	c-11.465-0.162-18.4-0.338-23.186-0.595c-3.569-0.189-7.963-0.297-24.471-0.608c-10.167-0.189-10.14-0.189-10.64-1.122
	C146.274,148.229,146.247,147.769,146.261,144.389z M222.404,211.407c-0.933,0.879-1.744,0.892-2.271,0.041
	c-0.433-0.689-0.311-1.541,0.297-2.204c0.365-0.379,1.082-0.392,1.609-0.013C222.918,209.852,223.067,210.785,222.404,211.407z
	 M190.944,239.866c-0.257-0.527-0.446-0.717-1.082-1.028c-0.838-0.433-1.271-0.838-1.487-1.406
	c-0.081-0.203-0.216-1.244-0.284-2.298c-0.081-1.055-0.176-2.001-0.216-2.109c-0.027-0.108-0.095-1.717-0.135-3.583
	c-0.027-1.866-0.122-3.718-0.203-4.124c-0.095-0.433-0.108-1.19-0.054-1.825c0.108-1.325-0.216-4.448-0.703-6.773
	c-0.338-1.663-0.338-2.258,0.014-3.096c0.243-0.595,1.663-1.582,3.137-2.204c0.635-0.27,1.447-0.69,1.785-0.933
	c1.541-1.109,2.488-1.433,3.191-1.122c0.487,0.23,0.717,0.825,0.879,2.285c0.081,0.703,0.216,1.501,0.284,1.758
	c0.189,0.622,0.365,4.042,0.243,5.002c-0.135,1.163-0.122,3.826,0.041,5.611c0.081,0.892,0.203,2.285,0.27,3.11
	c0.433,5.002,0.446,5.246,0.595,10.207c0.081,3.028,0.243,5.922,0.473,8.45c0.284,3.083,0.365,4.962,0.27,5.435
	c-0.257,1.136-0.946,1.284-3.11,0.69c-0.703-0.189-1.825-0.487-2.501-0.635c-1.514-0.365-2.812-0.96-3.123-1.42
	c-0.162-0.257-0.257-0.838-0.338-2.082c-0.176-2.609-0.041-3.096,1-3.623c0.69-0.352,1.014-0.717,1.257-1.433
	C191.43,241.84,191.349,240.704,190.944,239.866z M186.306,198.739l-0.324-0.379c-0.879-1.014,0.122-2.339,2.001-2.65
	c1.176-0.189,3.177-0.176,3.691,0.041c0.879,0.365,1.257,1.487,0.744,2.15c-0.608,0.771-0.919,0.838-3.623,0.838H186.306z
	 M179.898,204.999c0.189-0.135,0.149-0.135,0.541,0.041c0.352,0.162,0.554,0.554,0.69,1.379c0.162,0.96-0.649,1.92-1.217,1.447
	C179.303,207.365,179.303,205.391,179.898,204.999z M179.222,197.373c0.095-0.243,0.676-0.243,0.892,0.014
	c0.081,0.108,0.122,0.311,0.068,0.473c-0.068,0.23-0.176,0.27-0.514,0.243C179.235,198.063,179.06,197.793,179.222,197.373z
	 M180.574,218.626c0.284-0.446,0.69-0.446,0.973-0.014c0.189,0.284,0.23,0.919,0.27,4.286c0.041,3.894,0.081,4.367,0.5,5.989
	c0.27,1.028,0.487,3.677,0.527,6.571c0.027,1.947,0,2.285-0.203,2.596c-0.297,0.46-0.703,0.46-1,0
	c-0.216-0.311-0.257-0.879-0.325-4.691c-0.054-2.407-0.162-4.502-0.243-4.705c-0.068-0.189-0.176-0.771-0.216-1.284
	c-0.041-0.5-0.135-1.136-0.216-1.393c-0.068-0.257-0.162-1.947-0.216-3.745C180.358,219.302,180.371,218.937,180.574,218.626z
	 M182.494,246.085c0.108-0.095,0.46,0.041,0.46,0.176c0,0.068,0.027,0.189,0.068,0.297c0.095,0.27-0.135,0.527-0.379,0.433
	C182.426,246.91,182.318,246.261,182.494,246.085z M182.791,257.915c0.216-0.379,0.581-0.379,0.919-0.014
	c0.23,0.257,0.257,0.514,0.27,2.339c0,1.325,0.081,2.42,0.23,3.123c0.514,2.461,0.757,6.246,0.771,11.965
	c0.014,2.596,0,2.758-0.257,3.028c-0.284,0.27-0.284,0.27-0.554,0.014c-0.406-0.406-0.541-1.758-0.541-5.408
	c0-4.151-0.216-8.653-0.473-9.869C182.67,260.7,182.507,258.442,182.791,257.915z M153.21,272.489
	c-0.311-0.487-0.703-1.095-0.879-1.352c-0.514-0.73-1.068-1.555-2.109-3.11c-1.257-1.879-1.203-1.812-2.636-3.988
	c-4.867-7.449-4.678-7.125-4.624-7.95c0.027-0.46,0.122-0.608,0.5-0.865c0.554-0.379,0.892-0.392,1.433-0.068
	c0.487,0.311,0.757,0.689,2.366,3.475c0.689,1.19,1.622,2.772,2.069,3.515c0.906,1.501,1.839,3.15,2.393,4.205
	c0.203,0.379,0.5,0.879,0.649,1.109c0.162,0.216,0.297,0.46,0.297,0.527c0,0.068,0.27,0.541,0.608,1.041
	c0.338,0.514,0.608,1,0.608,1.068c0,0.135,0.487,1,1.487,2.663c0.203,0.338,0.446,0.825,0.527,1.095
	c0.095,0.27,0.27,0.595,0.419,0.73s0.392,0.568,0.541,0.973c0.149,0.406,0.365,0.825,0.46,0.933
	c0.108,0.108,0.325,0.527,0.487,0.946c0.149,0.419,0.365,0.892,0.473,1.055c0.108,0.149,0.203,0.352,0.203,0.446
	c0,0.311-0.27,0.189-0.5-0.203c-0.122-0.216-0.392-0.46-0.595-0.554c-0.23-0.108-0.46-0.379-0.649-0.811
	c-0.149-0.352-0.379-0.73-0.5-0.838C155.819,276.18,154.035,273.801,153.21,272.489z M153.818,281.101
	c-0.324,0.46-0.946,0.554-4.232,0.649c-3.204,0.108-3.583,0.054-3.934-0.5c-0.243-0.392-0.906-6.489-1.068-9.748
	c-0.135-2.636-0.054-3.475,0.338-3.907c0.365-0.406,0.662-0.284,1.42,0.595c0.406,0.473,1.055,1.366,1.46,2.001
	c0.406,0.635,1.406,2.177,2.231,3.448c0.838,1.257,1.987,3.015,2.555,3.907C154.075,279.803,154.291,280.439,153.818,281.101z
	 M148.87,206.161c0.419-0.122,1.095-0.338,1.514-0.473c1.041-0.338,5.354-0.595,6.719-0.392c1.555,0.216,6.206,0.027,7.463-0.311
	c1.014-0.257,3.745-0.595,5.138-0.608c0.406-0.014,1.338,0.068,2.055,0.162c2.15,0.284,2.407,0.581,2.555,3.028
	c0.203,3.258,0.162,4.218-0.216,4.975c-0.379,0.771-1.595,1.825-2.704,2.379c-0.365,0.189-1.257,0.635-1.96,1.014
	c-0.703,0.379-1.622,0.798-2.028,0.919c-0.406,0.135-1.041,0.446-1.42,0.676c-1.122,0.717-1.582,1-2.393,1.393
	c-0.419,0.216-1.055,0.568-1.42,0.798c-0.622,0.392-1.149,0.689-3.285,1.933c-0.554,0.324-1.433,0.838-1.96,1.149
	c-0.892,0.541-1.582,0.933-3.88,2.244c-0.541,0.311-1.284,0.757-1.663,1c-0.365,0.23-0.892,0.5-1.149,0.608
	c-0.257,0.108-0.744,0.324-1.068,0.5c-0.838,0.433-1.92,0.419-2.772-0.027c-1.028-0.541-1.528-0.987-1.812-1.595
	c-0.419-0.919-0.46-1.636-0.162-3.948c0.149-1.19,0.27-2.447,0.27-2.785c0-0.338,0.081-0.919,0.189-1.284
	c0.108-0.365,0.284-1.325,0.406-2.123c0.162-1.163,0.297-1.622,0.676-2.298c0.338-0.622,0.514-1.19,0.676-2.19
	c0.338-1.987,0.865-3.88,1.19-4.232C147.991,206.513,148.464,206.283,148.87,206.161z M149.127,198.658l0.379-0.433l2.231-0.027
	c2.393-0.027,5.043-0.243,5.8-0.487c0.257-0.081,1.42-0.189,2.569-0.257c1.852-0.108,6.003-0.392,10.072-0.676
	c2.15-0.149,2.217-0.149,2.69,0.054c0.825,0.352,1.095,1.055,0.689,1.839c-0.297,0.581-0.757,0.757-2.65,1.068
	c-2.542,0.419-4.8,0.5-6.246,0.23c-1.055-0.203-1.474-0.216-3.448-0.081c-2.042,0.149-4.651,0.473-7.869,1.014
	c-1.595,0.257-3.42,0.257-3.934,0C148.654,200.496,148.505,199.347,149.127,198.658z M175.95,237
	c0.176,1.582,0.027,1.96-1.055,2.636c-1.041,0.662-1.406,1.298-1.406,2.501c0,1.352,0.473,2.177,2.014,3.475
	c0.379,0.311,0.419,0.406,0.284,0.635c-0.162,0.311-0.662,0.379-1.082,0.149c-0.135-0.068-0.798-0.189-1.474-0.27
	c-0.689-0.081-1.744-0.311-2.352-0.527c-0.608-0.203-1.528-0.446-2.055-0.541c-0.514-0.081-1.609-0.365-2.434-0.622
	c-0.811-0.243-1.974-0.568-2.569-0.717c-2.204-0.527-4.096-1.014-5.34-1.379c-0.703-0.216-1.703-0.473-2.231-0.595
	c-0.987-0.23-2.136-0.906-2.65-1.541c-0.662-0.838-0.852-2.934-0.352-3.88c0.487-0.946,2.312-2.366,5.841-4.529
	c0.527-0.311,1.095-0.689,1.284-0.825c0.189-0.135,0.608-0.419,0.946-0.622c1.217-0.73,3.596-2.366,4.353-3.001
	c0.433-0.352,1.379-0.96,2.096-1.338c0.73-0.379,1.636-0.906,2.001-1.163c1.568-1.109,3.001-2.001,3.515-2.204
	c0.568-0.216,1.176-0.216,1.514,0.027c0.419,0.284,0.554,1.163,0.649,3.921c0.054,1.338,0.162,2.947,0.27,3.583
	c0.27,1.676,0.379,4.286,0.23,4.989C175.856,235.553,175.856,236.162,175.95,237z M175.518,250.722c0,0.622-2.447,0.744-3.988,0.203
	c-0.514-0.189-1.622-0.433-2.461-0.541c-0.825-0.095-2.014-0.338-2.636-0.527c-0.622-0.189-1.676-0.406-2.352-0.487
	c-0.676-0.068-1.73-0.284-2.366-0.473c-0.622-0.189-1.866-0.446-2.758-0.554c-0.892-0.122-2.082-0.365-2.636-0.541
	c-0.568-0.176-1.825-0.433-2.799-0.581c-1.974-0.284-2.244-0.392-2.542-0.96c-0.406-0.771-0.216-1.595,0.446-1.947
	c0.46-0.257,0.811-0.257,1.96-0.013c0.5,0.108,1.257,0.311,1.69,0.473c0.419,0.149,1.352,0.392,2.069,0.527
	c0.703,0.149,1.595,0.392,1.974,0.541c0.379,0.149,1.311,0.392,2.082,0.541c0.771,0.149,1.798,0.419,2.285,0.595
	c0.487,0.189,1.433,0.433,2.096,0.568c0.676,0.122,1.487,0.338,1.825,0.487c0.338,0.149,1.257,0.419,2.055,0.595
	c0.798,0.176,1.744,0.473,2.109,0.662c0.379,0.189,1.203,0.419,1.879,0.541C174.842,250.046,175.518,250.344,175.518,250.722z
	 M172.935,218.951c-0.122,0-0.487,0.149-0.811,0.311c-0.324,0.176-0.811,0.392-1.082,0.487c-0.27,0.081-0.771,0.419-1.109,0.73
	c-0.852,0.784-1.447,1.257-2.082,1.609c-0.284,0.176-0.771,0.514-1.068,0.744c-0.284,0.243-0.798,0.662-1.136,0.933
	c-0.338,0.27-0.865,0.608-1.176,0.744c-0.324,0.135-1.041,0.568-1.609,0.96c-0.568,0.392-1.311,0.892-1.676,1.122
	c-1.163,0.744-1.96,1.257-2.501,1.663c-0.297,0.216-0.689,0.473-0.879,0.568c-0.365,0.189-2.515,1.582-5.138,3.326
	c-0.933,0.622-1.96,1.217-2.285,1.338c-0.527,0.176-0.635,0.176-1.014,0c-0.473-0.23-0.892-0.825-0.892-1.284
	c0-0.676,1.649-1.852,5.611-4.015c0.676-0.379,1.73-0.987,2.366-1.379c0.635-0.392,1.42-0.865,1.758-1.041
	c0.338-0.189,1.068-0.595,1.622-0.919c1.068-0.635,1.825-1.068,4.651-2.636c0.973-0.527,1.852-1.055,1.96-1.149
	c0.122-0.108,0.554-0.338,0.96-0.527c0.406-0.176,0.825-0.419,0.933-0.541c0.095-0.122,0.473-0.311,0.838-0.419
	c0.5-0.149,0.879-0.419,1.622-1.163c0.622-0.622,1.217-1.068,1.69-1.284c0.406-0.176,0.919-0.446,1.122-0.595
	c0.662-0.473,3.772-2.042,4.042-2.042c0.149,0,0.338,0.095,0.433,0.203c0.243,0.297-0.081,0.973-0.69,1.474
	C175.923,217.356,173.381,218.951,172.935,218.951z M158.456,271.516c-0.473-0.852-0.784-1.393-2.136-3.759
	c-0.906-1.582-1.433-2.488-2.163-3.65c-0.392-0.635-0.879-1.487-1.109-1.893c-0.392-0.757-0.825-1.501-2.136-3.718
	c-1.676-2.826-2.109-3.894-1.96-4.8c0.095-0.595,1.041-2.069,1.568-2.461c0.879-0.662,2.42-0.811,4.651-0.446
	c0.676,0.108,1.568,0.311,1.987,0.46c0.433,0.149,1.447,0.365,2.285,0.487c0.825,0.122,2.109,0.392,2.866,0.608
	c0.757,0.216,2.082,0.487,2.947,0.595c0.865,0.122,2.082,0.365,2.69,0.554c0.608,0.176,1.758,0.419,2.542,0.541
	c0.798,0.122,1.879,0.324,2.393,0.473c0.527,0.135,1.338,0.324,1.812,0.406c1.541,0.27,2.109,0.717,2.461,1.947
	c0.162,0.541,0.473,5.503,0.662,10.289c0.081,2.082,0.176,3.961,0.203,4.191c0.095,0.622,0.473,5.8,0.473,6.516
	c0,0.892-0.352,1.528-1.055,1.906c-0.5,0.284-0.919,0.352-3.177,0.514c-3.772,0.27-8.869,0.487-9.423,0.392
	c-0.906-0.162-1.298-0.541-2.312-2.271c-0.541-0.906-1.149-1.906-1.352-2.204c-0.216-0.311-0.446-0.73-0.527-0.933
	c-0.149-0.392-0.919-1.73-1.406-2.434C159.091,272.611,158.74,272.016,158.456,271.516z M178.357,251.939
	c-0.73,0-1.352-0.189-1.352-0.406c0-0.162,1.744-0.176,2.014-0.014C179.357,251.736,179.033,251.939,178.357,251.939z
	 M140.501,195.859c0.365-0.392,0.595-0.379,0.933,0.054c0.338,0.419,0.365,0.865,0.081,1.393c-0.284,0.568-0.622,0.635-0.973,0.216
	C140.136,197.062,140.123,196.265,140.501,195.859z M137.838,223.886c0.054-0.717,0.257-1.663,0.622-2.812
	c0.433-1.366,0.568-2.014,0.635-3.11c0.041-0.757,0.189-1.744,0.324-2.19c0.149-0.446,0.392-1.325,0.541-1.96
	c0.162-0.635,0.46-1.42,0.676-1.758c0.216-0.338,0.487-1.041,0.608-1.555c0.122-0.514,0.365-1.271,0.541-1.69
	c0.176-0.419,0.419-1.325,0.527-2.001c0.135-0.825,0.352-1.555,0.676-2.217c0.473-0.973,0.487-1.027,0.46-2.542
	c-0.014-1.365,0.041-1.676,0.352-2.569c0.203-0.554,0.446-1.406,0.568-1.893c0.352-1.541,1.203-1.974,1.744-0.879
	c0.541,1.109,0.23,2.799-1.271,6.963c-0.46,1.244-0.608,1.906-0.757,3.312c-0.122,1.041-0.338,2.19-0.541,2.839
	c-0.284,0.879-0.379,1.501-0.473,3.245c-0.135,2.434-0.46,3.948-1.271,5.908c-0.297,0.73-0.568,1.676-0.689,2.501
	c-0.5,3.137-0.635,3.542-1.311,3.961c-0.608,0.365-1.082,0.338-1.609-0.095l-0.433-0.365L137.838,223.886z M118.167,250.195
	c1.447-0.96,2.19-1.149,2.758-0.69c0.189,0.135,0.419,0.446,0.514,0.676c0.352,0.852-0.338,1.582-2.799,2.961
	c-1.839,1.027-2.92,1.663-3.772,2.204c-0.446,0.284-0.865,0.514-0.933,0.514c-0.068,0-0.487,0.23-0.933,0.514
	c-0.46,0.297-1.244,0.771-1.771,1.068c-0.514,0.297-1.163,0.676-1.42,0.825c-0.622,0.365-2.325,1.325-3.177,1.785
	c-0.365,0.189-0.933,0.514-1.244,0.717c-0.324,0.203-0.622,0.365-0.69,0.365c-0.054,0-0.406,0.189-0.771,0.419
	c-0.379,0.23-0.919,0.514-1.217,0.622c-0.284,0.095-0.662,0.297-0.811,0.446c-0.149,0.135-0.608,0.419-1.014,0.608
	c-0.406,0.203-0.96,0.473-1.217,0.622c-0.257,0.135-0.608,0.257-0.771,0.257c-0.162,0-0.514,0.176-0.757,0.406
	c-0.5,0.433-1.041,0.541-1.041,0.203c0-0.108,0.27-0.324,0.595-0.473c0.324-0.162,0.649-0.433,0.73-0.608
	c0.081-0.176,0.352-0.433,0.595-0.554c0.243-0.122,0.703-0.446,1-0.716c0.635-0.554,1.42-1.122,2.339-1.676
	c0.338-0.216,0.757-0.514,0.933-0.676c0.162-0.149,0.5-0.406,0.757-0.554c0.243-0.162,0.892-0.595,1.42-0.96
	c1.122-0.771,2.258-1.528,3.083-2.042c0.324-0.189,1.703-1.082,3.069-1.987c1.379-0.906,3.218-2.109,4.083-2.663
	C116.585,251.25,117.693,250.52,118.167,250.195z M118.018,238.69c-0.852,0-2.028-0.23-3.407-0.676
	c-0.662-0.216-1.582-0.46-2.028-0.541c-0.446-0.095-1.271-0.311-1.825-0.487c-0.554-0.176-1.609-0.446-2.325-0.595
	c-0.73-0.162-1.582-0.392-1.893-0.541c-0.325-0.135-1.163-0.352-1.866-0.473c-0.703-0.135-1.676-0.406-2.163-0.608
	c-0.487-0.216-1.46-0.487-2.163-0.608c-0.825-0.135-1.568-0.352-2.082-0.622c-0.541-0.284-1.203-0.473-2.042-0.595
	c-1.393-0.216-1.825-0.365-2.069-0.757c-0.149-0.243-0.122-0.284,0.27-0.473c0.717-0.324,2.812-0.189,3.826,0.243
	c0.608,0.257,1.23,0.379,2.501,0.5c0.933,0.081,2.069,0.27,2.542,0.419c0.473,0.149,1.474,0.365,2.244,0.473
	c0.757,0.108,1.92,0.352,2.582,0.541c0.676,0.189,2.014,0.46,2.974,0.622c0.973,0.149,2.15,0.392,2.636,0.541
	c0.487,0.135,1.311,0.311,1.825,0.392c2.772,0.419,3.718,0.946,3.718,2.042C119.275,238.244,118.816,238.69,118.018,238.69z
	 M121.073,221.29c-0.324-0.487-0.581-0.933-0.581-1c0-0.054-0.324-0.622-0.703-1.271c-0.771-1.257-1.866-3.191-2.312-4.056
	c-0.149-0.297-0.473-0.838-0.717-1.217c-0.257-0.365-0.46-0.73-0.46-0.784c0-0.068-0.135-0.311-0.297-0.527
	c-0.162-0.23-0.5-0.825-0.757-1.311c-0.473-0.906-0.906-1.731-2.163-4.11c-0.392-0.717-0.703-1.46-0.703-1.649
	c0-0.176-0.176-0.541-0.406-0.784c-0.216-0.257-0.406-0.568-0.406-0.689c0-0.365,0.379-0.243,0.608,0.189
	c0.108,0.216,0.216,0.446,0.216,0.5c0,0.068,0.149,0.189,0.338,0.284c0.176,0.095,0.487,0.433,0.689,0.744
	c0.189,0.311,0.46,0.649,0.595,0.73c0.122,0.095,0.419,0.46,0.662,0.811c0.23,0.365,0.622,0.946,0.879,1.325
	c0.257,0.365,0.649,0.946,0.879,1.284c0.554,0.825,1.19,1.771,1.758,2.65c0.257,0.392,0.892,1.352,1.406,2.109
	c0.514,0.771,1.879,2.826,3.028,4.57c1.149,1.744,2.542,3.853,3.082,4.678c1.068,1.595,1.528,2.515,1.541,2.988
	c0,0.162-0.189,0.473-0.419,0.703c-0.838,0.852-2.028,0.379-2.772-1.082c-0.176-0.365-0.554-1.014-0.825-1.46
	c-0.284-0.433-0.757-1.23-1.055-1.758C121.885,222.628,121.384,221.79,121.073,221.29z M126.576,272.611
	c0.149-0.473,0.365-1.528,0.473-2.339c0.108-0.798,0.352-1.933,0.527-2.501c0.189-0.581,0.406-1.555,0.487-2.19
	c0.081-0.622,0.352-1.96,0.608-2.961s0.527-2.352,0.608-3.001c0.189-1.393,0.473-1.987,1.095-2.298
	c0.554-0.297,0.838-0.297,1.325-0.041c0.811,0.419,0.852,1.474,0.135,3.596c-0.216,0.635-0.487,1.676-0.608,2.298
	c-0.108,0.622-0.419,1.785-0.676,2.582c-0.257,0.798-0.46,1.582-0.46,1.73c0,0.149-0.176,0.838-0.406,1.528
	c-0.216,0.69-0.5,1.731-0.622,2.325c-0.122,0.595-0.392,1.514-0.608,2.055c-0.203,0.527-0.473,1.528-0.595,2.204
	c-0.135,0.744-0.379,1.568-0.608,2.028c-0.216,0.433-0.46,1.176-0.541,1.649c-0.257,1.622-0.608,2.406-1.068,2.406
	c-0.203,0-0.257-0.149-0.338-0.717c-0.162-1.365-0.095-2.217,0.257-3.137c0.203-0.554,0.406-1.555,0.527-2.623
	C126.211,274.26,126.427,273.098,126.576,272.611z M130.023,280.52c0.108-0.365,0.27-1.095,0.352-1.609
	c0.081-0.527,0.325-1.433,0.541-2.014c0.216-0.595,0.487-1.568,0.595-2.163c0.108-0.595,0.352-1.541,0.527-2.096
	c0.176-0.568,0.433-1.541,0.554-2.163c0.122-0.622,0.365-1.501,0.541-1.96c0.162-0.446,0.379-1.19,0.473-1.636
	c0.081-0.446,0.297-1.271,0.473-1.825c0.176-0.554,0.433-1.474,0.554-2.028c0.257-1.19,0.46-1.609,1.109-2.42
	c0.487-0.595,1.325-1.082,1.893-1.095c0.176,0,0.46,0.149,0.635,0.324c0.433,0.433,0.433,0.46,0.608,3.988
	c0.081,1.663,0.243,3.61,0.352,4.326c0.108,0.717,0.311,3.786,0.46,6.814c0.284,6.165,0.257,6.422-0.514,6.936
	c-0.23,0.162-0.744,0.324-1.136,0.379c-1.649,0.203-5.394,0.487-6.341,0.487c-0.96,0-1.068-0.027-1.46-0.392
	C129.753,281.926,129.713,281.534,130.023,280.52z M139.176,239.744c0.581,1.203,0.595,2.231,0.041,3.339
	c-0.527,1.055-1.406,1.92-2.528,2.488c-0.838,0.419-0.987,0.446-1.839,0.392c-0.717-0.054-1.136-0.176-1.785-0.527
	c-1.109-0.581-1.501-1-2.082-2.163c-0.419-0.825-0.487-1.109-0.487-1.866c0-1.568,0.906-3.042,2.366-3.867
	c1.19-0.662,1.474-0.744,2.366-0.703c0.595,0.027,0.946,0.162,1.758,0.635C138.216,238.19,138.663,238.649,139.176,239.744z
	 M102.254,179.122c0.081-0.852,0.189-1.176,0.608-1.866c0.27-0.446,0.717-1.055,0.987-1.338c0.689-0.744,2.177-1.676,3.083-1.933
	c0.433-0.122,1.014-0.338,1.298-0.487c1.136-0.568,7.179-2.528,8.68-2.826c0.446-0.081,1.325-0.297,1.96-0.473
	c1.433-0.419,2.258-0.554,3.353-0.581c0.771-0.014,0.892,0.027,1.244,0.365c0.338,0.352,0.676,1.338,0.676,2.041
	c0,0.595-0.446,1.622-1,2.298c-0.324,0.392-0.622,0.879-0.662,1.082c-0.041,0.189-0.027,1.96,0.041,3.934
	c0.095,2.974,0.162,3.786,0.419,4.8c0.324,1.325,0.392,2.988,0.203,4.935c-0.135,1.406,0.054,2.609,0.5,3.083
	c0.419,0.46,1.447,0.946,2.785,1.338c1.338,0.392,5.11,1.122,5.773,1.122c0.933,0,1.866,0.297,2.298,0.73l0.419,0.419l0.081,1.96
	c0.041,1.082,0.149,2.663,0.216,3.515c0.068,0.852,0.203,2.947,0.284,4.664c0.108,2.096,0.243,3.475,0.419,4.232
	c0.338,1.474,0.527,3.164,0.527,4.772c0,1.001-0.081,1.541-0.352,2.434c-0.189,0.622-0.433,1.582-0.541,2.136
	c-0.108,0.541-0.311,1.244-0.446,1.555c-0.406,0.879-1.257,1.879-1.839,2.177c-0.757,0.365-2.325,0.446-3.11,0.149
	c-0.689-0.27-1.92-1.528-2.636-2.704c-0.257-0.433-0.892-1.244-1.406-1.812c-1.122-1.271-1.379-1.663-2.474-3.799
	c-0.473-0.919-1.785-3.083-2.92-4.799c-1.136-1.717-2.19-3.326-2.339-3.556c-0.135-0.243-0.662-1.027-1.149-1.758
	c-2.177-3.245-3.623-5.448-4.124-6.26c-0.203-0.338-1.136-1.758-2.069-3.15c-0.933-1.393-1.879-2.826-2.096-3.177
	c-0.23-0.352-1.325-2.042-2.447-3.745c-3.028-4.583-3.245-4.921-3.718-5.854C102.267,181.745,102.105,180.676,102.254,179.122z
	 M66.616,216.936c0-1.528,0.014-1.595,0.514-2.663c0.27-0.608,0.5-1.149,0.5-1.217c0-0.162,1.163-2.69,2.001-4.313
	c0.406-0.825,0.946-1.852,1.163-2.298c1.014-1.96,2.636-4.489,5.489-8.504c2.325-3.285,6.99-8.342,10.451-11.316
	c2.461-2.123,3.502-2.663,5.192-2.677c0.568-0.014,1.244,0.081,1.622,0.203c2.285,0.784,3.339,1.825,5.11,5.043
	c0.662,1.203,1.109,1.96,2.636,4.543c1.055,1.771,1.447,2.447,2.69,4.664c0.284,0.487,0.662,1.122,0.852,1.42
	c0.189,0.297,0.595,1,0.919,1.555c0.324,0.554,0.852,1.433,1.176,1.947c0.324,0.514,0.581,0.987,0.581,1.041
	c0,0.068,0.23,0.473,0.514,0.919c0.27,0.446,0.771,1.298,1.109,1.906c0.338,0.595,1.163,2.014,1.852,3.15
	c0.69,1.136,1.46,2.447,1.731,2.934c0.257,0.487,0.717,1.271,1.014,1.758c0.284,0.487,0.689,1.176,0.892,1.555
	c0.46,0.865,2.393,4.124,2.961,5.002c0.243,0.365,0.568,0.946,0.73,1.284c0.257,0.554,0.487,0.96,1.69,2.893
	c0.662,1.082,1.068,2.461,0.973,3.299c-0.162,1.325-1.028,2.501-2.177,2.934c-0.973,0.379-3.515,0.216-5.949-0.392
	c-1.041-0.257-2.623-0.595-3.515-0.757c-0.892-0.149-2.082-0.392-2.636-0.541c-0.554-0.135-1.474-0.311-2.028-0.406
	c-0.554-0.081-1.555-0.297-2.231-0.473c-0.662-0.176-2.001-0.446-2.974-0.595c-0.96-0.149-2.096-0.392-2.515-0.527
	c-0.419-0.149-1.406-0.365-2.204-0.5c-0.811-0.122-2.082-0.392-2.839-0.608c-0.744-0.203-1.96-0.446-2.677-0.527
	c-0.73-0.081-1.798-0.297-2.366-0.487c-0.581-0.189-1.893-0.46-2.92-0.608c-1.028-0.149-2.366-0.419-2.974-0.595
	c-0.608-0.176-1.568-0.406-2.123-0.487c-0.554-0.081-1.92-0.352-3.042-0.608c-1.109-0.257-2.542-0.554-3.191-0.662
	c-1.555-0.284-2.947-0.879-3.961-1.703c-0.69-0.554-0.96-0.906-1.447-1.852l-0.595-1.163V216.936z M92.019,231.389
	c-0.419,0.162-1.406-0.027-1.406-0.27c0-0.419,1.203-0.473,1.609-0.081C92.398,231.213,92.371,231.254,92.019,231.389z
	 M74.079,274.22c-1.758,0.081-2.569-0.108-3.718-0.919c-1.149-0.798-1.812-1.568-2.312-2.636c-1.041-2.258-1.379-3.028-1.514-3.583
	c-0.081-0.324-0.297-0.892-0.473-1.244s-0.446-1.149-0.581-1.758c-0.149-0.622-0.419-1.514-0.595-2.001
	c-0.189-0.487-0.406-1.244-0.5-1.69c-0.081-0.446-0.324-1.447-0.541-2.231c-0.216-0.784-0.46-1.879-0.541-2.434
	c-0.081-0.554-0.324-1.893-0.541-2.974c-0.216-1.082-0.46-2.785-0.541-3.785c-0.365-4.245-0.365-11.911,0-14.372
	c0.311-2.136,1.731-3.907,3.786-4.759c1.514-0.622,2.542-0.662,4.191-0.189c0.487,0.135,1.474,0.365,2.177,0.514
	c0.703,0.149,1.609,0.392,2.001,0.554c0.392,0.149,1.311,0.392,2.028,0.527c0.717,0.149,1.758,0.419,2.312,0.595
	c0.554,0.189,1.528,0.446,2.15,0.568c0.622,0.122,1.501,0.365,1.96,0.541c0.446,0.162,1.257,0.379,1.771,0.46
	c0.527,0.095,1.622,0.365,2.434,0.622c0.825,0.243,2.001,0.581,2.636,0.73c0.635,0.149,1.595,0.406,2.136,0.554
	c0.527,0.149,1.42,0.392,1.96,0.541c0.527,0.149,1.555,0.406,2.258,0.554c0.703,0.149,1.92,0.487,2.704,0.73
	c0.784,0.257,1.879,0.527,2.434,0.622c0.554,0.081,1.406,0.297,1.893,0.487c0.487,0.176,1.46,0.446,2.163,0.595
	c0.703,0.149,1.744,0.406,2.298,0.595c0.554,0.176,1.568,0.446,2.231,0.595c0.676,0.149,1.474,0.365,1.798,0.473
	c0.324,0.122,1.095,0.338,1.73,0.487c1.338,0.311,2.028,0.635,2.785,1.325c0.771,0.703,1.055,1.366,1.055,2.569
	c0,1.136-0.189,1.676-0.865,2.434c-0.433,0.473-2.379,1.879-4.245,3.055c-0.352,0.23-2.352,1.528-4.448,2.907
	c-2.109,1.393-4.57,3.001-5.476,3.583c-0.919,0.595-2.623,1.717-3.799,2.501c-1.176,0.784-2.393,1.582-2.704,1.758
	c-0.311,0.189-1.109,0.717-1.785,1.163c-0.662,0.46-1.46,0.973-1.758,1.122c-0.297,0.162-0.784,0.473-1.082,0.676
	c-0.297,0.216-1.649,1.109-3.015,2.001c-1.366,0.879-3.529,2.298-4.8,3.15c-3.069,2.014-6.057,3.921-7.03,4.475
	C75.417,274.098,75.16,274.152,74.079,274.22z M121.939,278.992c-0.176,0.703-0.406,1.663-0.487,2.15
	c-0.365,1.893-0.865,2.19-4.069,2.501c-1.23,0.108-4.353,0.297-6.963,0.406c-2.596,0.108-5.705,0.27-6.909,0.352
	c-1.987,0.149-2.244,0.149-3.11-0.081c-1.338-0.365-8.247-0.473-9.018-0.149c-0.744,0.297-0.96,0.919-0.852,2.312
	c0.135,1.717,0.581,3.894,0.852,4.097c0.379,0.284,4.313,0,6.922-0.514c0.689-0.122,1.758-0.189,8.801-0.541
	c2.501-0.122,4.772-0.284,9.329-0.676c1.96-0.162,2.488-0.054,2.799,0.622c0.203,0.406,0.216,0.649,0.081,1.987
	c-0.095,0.852-0.311,1.987-0.5,2.596c-0.203,0.595-0.446,1.744-0.568,2.569c-0.108,0.811-0.379,2.15-0.595,2.974
	c-0.216,0.811-0.527,2.244-0.676,3.164c-0.568,3.556-1.622,5.273-3.948,6.435c-1.176,0.581-1.257,0.608-2.42,0.608
	c-1.325,0-2.217-0.284-5.056-1.568c-3.975-1.825-7.192-3.529-9.41-5.002c-0.717-0.473-1.352-0.865-1.42-0.865
	c-0.162,0-4.799-3.434-6.206-4.597c-2.001-1.649-5.002-4.421-6.422-5.962c-4.259-4.583-5.056-6.03-4.61-8.436
	c0.311-1.704,1.676-3.65,3.055-4.353c0.23-0.108,0.744-0.419,1.149-0.676s1.176-0.717,1.69-1.014
	c0.527-0.297,1.379-0.784,1.893-1.082c0.527-0.311,1.257-0.73,1.622-0.96c0.379-0.216,1.311-0.771,2.096-1.217
	c2.677-1.528,3.312-1.893,3.65-2.123c0.189-0.135,0.622-0.365,0.946-0.541c0.662-0.324,1.433-0.784,3.718-2.177
	c0.825-0.5,2.19-1.298,3.042-1.771c0.852-0.487,1.852-1.068,2.217-1.298c0.379-0.243,0.73-0.433,0.798-0.433
	c0.068,0,0.311-0.135,0.527-0.297c0.23-0.149,0.73-0.446,1.109-0.649c0.379-0.203,1.514-0.865,2.515-1.487
	c1.001-0.622,2.312-1.379,2.907-1.69c0.595-0.311,1.514-0.825,2.028-1.149c0.527-0.324,1.338-0.811,1.825-1.082
	c0.487-0.27,1.271-0.73,1.758-1.014c0.487-0.284,1.284-0.744,1.785-1.014c0.5-0.284,1.082-0.635,1.284-0.784
	c0.392-0.27,1.352-0.73,2.204-1.055c0.784-0.297,1.501-0.23,2.407,0.23c1.514,0.744,2.19,1.852,2.19,3.542
	c0,0.919-0.324,2.839-0.689,4.069c-0.149,0.514-0.392,1.69-0.541,2.636c-0.135,0.933-0.406,2.217-0.595,2.853
	c-0.176,0.635-0.392,1.636-0.473,2.231c-0.081,0.595-0.338,1.785-0.541,2.636c-0.216,0.865-0.487,2.123-0.595,2.785
	C122.358,277.167,122.114,278.289,121.939,278.992z M124.818,285.198c-0.216,0-0.433-0.825-0.338-1.311
	c0.216-1.19,0.649-1.298,0.717-0.176C125.238,284.4,125.035,285.198,124.818,285.198z M167.879,304.328l-0.581,1.055
	c-0.324,0.568-0.73,1.217-0.906,1.433c-0.5,0.581-2.352,1.744-3.177,1.987c-0.406,0.122-1.082,0.392-1.501,0.595
	c-0.406,0.216-1.136,0.487-1.609,0.608c-0.473,0.122-1.095,0.338-1.393,0.487c-0.284,0.149-1.163,0.446-1.96,0.649
	c-0.798,0.216-1.622,0.46-1.852,0.554c-0.216,0.081-0.946,0.27-1.622,0.406c-0.662,0.135-1.609,0.379-2.096,0.527
	c-0.487,0.149-1.758,0.406-2.839,0.568c-1.068,0.149-2.109,0.352-2.298,0.419c-1.731,0.662-14.088,1.014-17.779,0.5
	c-1.987-0.27-3.758-1.555-4.732-3.448c-0.5-0.973-0.541-1.136-0.581-2.366c-0.041-1.19-0.014-1.46,0.365-2.582
	c0.216-0.689,0.473-1.649,0.554-2.136c0.095-0.487,0.338-1.433,0.554-2.109c0.216-0.662,0.487-1.703,0.595-2.312
	c0.108-0.608,0.338-1.447,0.487-1.893c0.149-0.433,0.365-1.203,0.473-1.717c0.108-0.514,0.379-1.514,0.595-2.231
	c0.216-0.717,0.46-1.69,0.541-2.177c0.095-0.487,0.23-1.055,0.324-1.284c0.23-0.554,0.838-1.257,1.284-1.487
	c0.514-0.257,6.314-0.703,11.505-0.879c2.339-0.081,4.813-0.203,5.475-0.27c1.001-0.108,4.556-0.392,7.233-0.581
	c1.906-0.135,4.908-0.081,5.327,0.095c0.46,0.189,1.109,1.041,2.717,3.596c0.406,0.635,0.852,1.325,1.014,1.555
	c0.162,0.216,0.662,0.987,1.109,1.69c0.46,0.703,1.514,2.312,2.352,3.583c0.825,1.257,1.717,2.69,1.96,3.177
	c0.446,0.852,0.46,0.933,0.46,2.434V304.328z M192.958,285.887c-0.392,0.919-4.624,5.678-7.395,8.301
	c-3.353,3.177-4.975,4.313-6.665,4.678c-1.622,0.352-4.124-0.568-5.354-1.96c-0.338-0.379-0.946-1.271-1.366-1.974
	c-0.419-0.703-0.987-1.649-1.257-2.096c-0.27-0.446-0.744-1.244-1.041-1.758c-0.297-0.527-0.825-1.433-1.163-2.014
	c-0.919-1.582-0.987-2.596-0.203-3.11c0.419-0.284,2.393-0.433,7.612-0.622c2.379-0.081,5.611-0.243,7.165-0.352
	c1.568-0.108,3.718-0.257,4.8-0.338c1.082-0.068,2.028-0.162,2.096-0.189c0.352-0.122,1.879-0.041,2.298,0.122
	C193.039,284.806,193.201,285.279,192.958,285.887z M199.326,275.937c-0.189,0.852-1.122,2.298-1.636,2.569
	c-0.419,0.216-3.515,0.608-4.813,0.608c-1.785,0-2.041-0.419-2.231-3.556c-0.068-1.203-0.216-3.231-0.324-4.489
	c-0.189-2.231-0.392-5.57-0.568-9.734l-0.081-2.028l0.365-0.433c0.203-0.23,0.5-0.46,0.662-0.487
	c0.297-0.054,0.419-0.041,1.352,0.108c0.284,0.041,0.892,0.203,1.352,0.352c0.46,0.149,1.46,0.352,2.204,0.46
	c1.609,0.23,1.906,0.324,2.312,0.771c0.554,0.595,0.703,1.379,0.987,5.029C199.353,271.191,199.515,275.112,199.326,275.937z
	 M207.965,246.531c-0.122,2.366-0.122,2.366-0.635,3.38c-0.554,1.082-1.352,2.069-1.947,2.379c-0.608,0.311-1.379,0.243-1.744-0.149
	c-0.352-0.379-0.379-0.622-0.662-6.422c-0.324-6.435-0.757-12.614-0.892-12.857c-0.122-0.189-0.406-5.678-0.365-7.084
	c0.027-0.744-0.027-2.69-0.108-4.326c-0.149-2.636-0.203-3.069-0.5-3.853c-0.257-0.676-0.365-1.217-0.406-2.325
	c-0.095-1.744,0.014-2.542,0.392-3.015c0.392-0.5,0.757-0.392,1.338,0.379c0.771,1.028,1.068,1.758,1.271,3.042
	c0.095,0.649,0.311,1.514,0.473,1.92c0.176,0.406,0.406,1.136,0.541,1.622c0.23,0.892,0.622,2.19,1.433,4.732
	c0.487,1.555,0.662,2.474,0.811,4.124c0.041,0.595,0.203,1.663,0.352,2.366c0.406,1.974,0.5,2.947,0.649,5.949
	C208.127,239.88,208.127,243.489,207.965,246.531z M207.221,196.265c-0.324-0.487-0.419-1.001-0.257-1.433
	c0.243-0.635,2.014-1.041,6.273-1.433c0.933-0.081,2.393-0.27,3.245-0.406c2.15-0.365,2.136-0.365,3.028-0.392
	c0.568-0.014,0.973,0.068,1.393,0.27c0.811,0.392,1.325,1.095,1.325,1.825c0,0.703-0.284,1.041-1.136,1.352
	c-0.338,0.122-0.946,0.379-1.352,0.554c-0.406,0.176-1.379,0.419-2.163,0.527c-1.217,0.189-1.73,0.203-3.393,0.068
	c-1.365-0.108-2.42-0.122-3.448-0.027C208.56,197.36,207.843,197.171,207.221,196.265z M258.218,255.576
	c-0.46,0.906-0.987,1.014-6.246,1.298c-7.084,0.379-8.91,0.487-10.343,0.608c-2.717,0.23-5.773,0.406-9.315,0.541
	c-3.448,0.122-3.596,0.135-4.299,0.473c-0.717,0.352-2.474,1.906-5.922,5.219c-4.137,3.975-4.38,4.178-5.178,4.178
	c-0.243,0-0.433-0.081-0.487-0.216c-0.135-0.365-0.095-1.109,0.108-1.636c0.108-0.284,0.27-0.879,0.352-1.325
	c0.081-0.446,0.297-1.244,0.473-1.758c0.189-0.527,0.514-1.866,0.73-2.974c0.23-1.122,0.473-2.244,0.554-2.501
	c0.068-0.257,0.23-1.23,0.338-2.163c0.122-0.933,0.324-2.393,0.473-3.245c0.446-2.663,0.541-3.853,0.622-8.247
	c0.081-4.245-0.081-9.383-0.352-10.735c-0.081-0.365-0.189-1.244-0.257-1.96c-0.243-2.366-0.662-5.219-0.946-6.314
	c-0.149-0.581-0.419-1.771-0.608-2.623c-0.554-2.501-1.149-4.475-1.582-5.232c-0.23-0.392-0.581-1.203-0.798-1.825
	c-1.501-4.272-2.826-7.598-3.975-9.937c-0.189-0.379-0.406-0.96-0.487-1.298c-0.203-0.784,0.068-1.474,0.69-1.798
	c0.879-0.446,5.922-0.635,7.03-0.257c0.689,0.243,1.298,0.744,1.487,1.257c0.081,0.203,0.176,1,0.216,1.798
	c0.095,1.69,0,1.974-1.109,3.137c-0.987,1.041-1.149,1.582-0.838,2.785c0.176,0.635,0.46,1.217,1.041,2.042
	c2.177,3.11,3.434,5.097,4.151,6.544c0.865,1.785,1.676,2.785,2.231,2.785c0.446,0,2.312-0.946,3.001-1.501l0.527-0.446
	l-0.095-1.041c-0.081-1.028-0.068-1.068,0.284-1.474c0.284-0.297,0.757-0.527,1.798-0.879c3.042-1.027,3.515-1.055,4.462-0.27
	c0.311,0.257,0.635,0.473,0.717,0.473c0.095,0,0.392-0.243,0.689-0.541c0.284-0.297,0.581-0.541,0.649-0.541
	c0.068,0,0.216-0.216,0.324-0.487c0.23-0.554,0.135-1.257-0.338-2.461c-0.149-0.379-0.365-1.095-0.487-1.568
	c-0.243-1.068-0.987-2.596-1.595-3.299c-0.73-0.811-1.325-1.879-1.406-2.461c-0.081-0.554-0.068-0.581,1.217-1.731
	c0.176-0.162,0.23-0.419,0.23-1.055c0-1.487,0.365-1.866,2.231-2.339c1.771-0.446,3.569-0.608,5.8-0.514
	c1.555,0.068,2.325,0.041,3.258-0.122c1.203-0.203,3.786-0.392,5.989-0.433c1.068-0.027,1.149-0.014,1.514,0.352
	c0.46,0.46,0.487,0.622,0.662,4.286c0.176,3.61,0.095,3.948-1.23,4.583c-0.717,0.352-0.879,0.622-0.703,1.122
	c0.108,0.338,0.216,0.392,0.865,0.46c1.014,0.108,1.325,0.311,1.636,1.014c0.284,0.635,0.5,2.623,0.554,5.192
	c0.027,1.947-0.149,5.124-0.338,5.597c-0.149,0.392-0.771,0.757-1.311,0.757c-0.406,0-1.082,0.717-1.082,1.149
	c0,0.852,0.608,1.406,1.514,1.42c0.527,0,0.676,0.068,0.973,0.419c0.189,0.23,0.379,0.541,0.419,0.703
	c0.108,0.514,0.379,4.827,0.419,6.517c0.013,0.892,0.095,2.204,0.176,2.907c0.081,0.703,0.203,2.839,0.284,4.732
	c0.324,7.828,0.419,9.599,0.608,11.019C258.434,253.548,258.448,255.143,258.218,255.576z M279.133,305.18
	c-0.041,0.203-0.189,0.662-0.324,1.041c-0.149,0.365-0.352,1.068-0.473,1.555c-0.122,0.487-0.392,1.42-0.608,2.096
	c-0.216,0.662-0.514,1.703-0.676,2.298c-0.365,1.365-1.027,2.609-1.595,2.988c-0.987,0.662-2.474,0.527-3.799-0.365
	c-0.987-0.662-2.988-2.393-3.448-2.988c-0.46-0.622-0.689-1.514-0.568-2.339c0.095-0.581,0.203-0.771,0.811-1.352
	c0.392-0.379,1.041-0.852,1.447-1.068s1.338-0.73,2.082-1.136c0.744-0.406,1.744-0.946,2.231-1.217
	c0.487-0.257,0.96-0.527,1.055-0.595c0.297-0.257,1.839-0.771,2.298-0.771c0.243-0.014,0.622,0.081,0.825,0.189
	C278.849,303.747,279.255,304.653,279.133,305.18z M289.232,315.509c-0.162,0.676-0.744,1.433-1.393,1.758
	c-0.635,0.338-3.407,0.784-4.813,0.784c-0.771,0-1.352-0.081-1.879-0.27c-1.366-0.473-1.731-1.041-1.717-2.636
	c0.014-1.149,0.311-2.488,0.744-3.326c0.135-0.284,0.365-1.041,0.514-1.704c0.149-0.649,0.419-1.582,0.595-2.069
	s0.406-1.203,0.5-1.582c0.122-0.527,0.284-0.825,0.649-1.136c0.419-0.379,0.541-0.419,1.095-0.352
	c0.527,0.054,0.703,0.162,1.122,0.649c0.473,0.554,0.987,1.42,2.298,3.907c0.297,0.554,0.784,1.474,1.082,2.028
	c0.297,0.554,0.662,1.23,0.798,1.487C289.192,313.738,289.381,314.86,289.232,315.509z M296.668,312.129
	c-0.717,0.798-1.771,1.325-2.623,1.352c-0.703,0.013-1.744-0.433-2.068-0.892c-0.324-0.446-2.042-3.515-2.826-5.016
	c-0.379-0.744-0.946-1.812-1.257-2.379c-0.703-1.271-0.771-2.028-0.216-2.677c0.446-0.541,1-0.554,2.92-0.068
	c0.771,0.189,2.028,0.541,2.812,0.798c0.784,0.257,2.231,0.703,3.218,1.014c1.974,0.622,2.42,0.906,2.866,1.839
	C300.197,307.546,299.453,309.114,296.668,312.129z M300.17,292.066c0.581,0.284,1.284,1.311,1.555,2.244
	c0.514,1.839,0.554,4.989,0.068,6.124c-0.311,0.716-1.393,1.393-2.258,1.393c-0.676,0-3.488-0.703-4.434-1.109
	c-0.365-0.149-1.19-0.392-1.825-0.527c-1.541-0.311-3.353-1.028-3.84-1.501c-0.352-0.352-0.379-0.46-0.324-1.068
	c0.041-0.365,0.176-0.784,0.311-0.933c0.257-0.284,1.244-0.879,2.569-1.568c1.501-0.771,5.083-2.731,5.273-2.893
	C297.79,291.795,299.44,291.687,300.17,292.066z M286.582,290.187c0.189-0.473,0.473-1.393,0.608-2.042
	c0.149-0.649,0.419-1.568,0.595-2.041c0.176-0.473,0.392-1.217,0.487-1.663c0.216-1.027,0.527-1.622,1.176-2.244
	c0.946-0.919,1.866-1.027,3.191-0.365c1.514,0.757,3.799,2.704,4.57,3.894c0.527,0.811,0.541,1.825,0.068,2.65
	c-0.419,0.703-1.19,1.217-4.678,3.11c-1.528,0.838-3.055,1.676-3.407,1.879c-0.771,0.446-1.92,0.527-2.461,0.176
	C286.001,293.053,285.947,291.741,286.582,290.187z M287.934,297.839c0.243,1.447-0.595,3.434-1.933,4.678
	c-0.757,0.689-0.973,0.811-1.785,0.987c-2.785,0.635-5.029-0.243-6.057-2.379c-0.379-0.757-0.257-1.257,0.338-1.379
	c0.433-0.095,0.892,0.027,1.947,0.514c1.622,0.757,2.866,0.744,3.786-0.014c0.554-0.46,0.798-1.068,0.798-1.933
	c0-1.095-0.527-1.825-1.758-2.434c-1.163-0.568-2.042-1.649-1.758-2.163c0.379-0.703,1.352-0.716,2.92-0.041
	c0.622,0.27,1.366,0.69,1.649,0.919C286.691,295.121,287.826,297.095,287.934,297.839z M276.091,281.169
	c0.352-0.689,0.757-1.041,1.69-1.447c1.365-0.608,2.15-0.73,4.286-0.703c1.933,0.027,1.974,0.027,2.542,0.419
	c0.987,0.69,1.163,1.055,1.163,2.447c0,1.014-0.068,1.42-0.433,2.434c-0.473,1.365-1.433,4.502-1.676,5.543
	c-0.23,0.946-0.419,1.298-1.055,1.866c-0.717,0.649-1.082,0.635-1.812-0.027c-0.541-0.5-1.055-1.325-2.258-3.596
	c-0.27-0.527-0.852-1.582-1.284-2.366C275.861,283.183,275.591,282.142,276.091,281.169z M271.508,283.711
	c0.23,0,0.581,0.081,0.784,0.189c0.798,0.419,1.609,1.528,2.528,3.461c0.203,0.406,0.514,1.055,0.703,1.447
	c0.365,0.757,0.338,1.163-0.108,1.393c-0.392,0.216-0.96-0.149-2.082-1.298c-1.541-1.582-2.772-3.569-2.772-4.489
	C270.562,284.103,271.089,283.711,271.508,283.711z M267.1,289.808c0.581,0.69,1.055,1.582,1,1.906
	c-0.027,0.162-0.189,0.379-0.365,0.46c-0.433,0.216-0.987,0.014-1.582-0.581c-0.392-0.379-0.46-0.554-0.46-1.055
	C265.694,289.443,266.465,289.051,267.1,289.808z M264.613,295.5c0.757-0.379,1.528-0.379,2.542-0.014
	c0.419,0.149,1.42,0.446,2.204,0.662c0.784,0.216,1.663,0.487,1.96,0.608c0.284,0.108,0.946,0.311,1.474,0.433
	c1.163,0.257,2.515,0.852,2.974,1.311c0.406,0.406,0.446,1.027,0.095,1.69c-0.176,0.338-0.622,0.676-1.73,1.311
	c-0.811,0.473-1.541,0.865-1.622,0.865c-0.095,0-0.46,0.203-0.811,0.446c-0.365,0.243-1.568,0.892-2.677,1.433
	c-2.298,1.149-2.947,1.298-3.813,0.852c-1.474-0.757-1.906-1.893-2.042-5.3C263.058,297.055,263.369,296.135,264.613,295.5z
	 M285.082,219.208c-0.581,0.703-0.297,0.676-11.073,1.095c-3.448,0.135-5.624,0.379-6.124,0.689
	c-0.149,0.095-0.406,0.406-0.568,0.689c-0.46,0.838-0.784,0.973-1.96,0.852c-0.689-0.054-1.244-0.041-1.69,0.081
	c-1.311,0.338-1.852-0.176-2.055-1.92c-0.068-0.622-0.243-1.649-0.379-2.285c-0.203-1-0.23-1.568-0.149-4.394
	c0.068-2.731,0.122-3.312,0.311-3.61c0.297-0.46,0.798-0.568,1.406-0.311c0.649,0.27,0.987,0.257,1.69-0.068
	c0.852-0.379,1.136-0.338,1.785,0.257c0.798,0.73,1.109,0.865,1.704,0.744c0.27-0.054,2.15-0.081,4.178-0.068
	c3.231,0.027,3.826,0.068,4.664,0.311c0.541,0.149,1.311,0.352,1.704,0.46c2.352,0.622,5.029,2.866,6.408,5.354
	C285.528,218.153,285.555,218.64,285.082,219.208z"/>
</svg>
