<svg width="400" height="400" viewBox="0 0 400 400" fill="none" xmlns="http://www.w3.org/2000/svg">
<path fill-rule="evenodd" clip-rule="evenodd" d="M196.972 83.0168C196.96 83.0849 196.871 89.7733 196.774 97.8801C196.588 113.433 196.787 114.331 200.423 114.331C201.693 114.331 210.242 118.749 212.057 120.343C212.743 120.945 213.648 121.438 214.067 121.438C215.392 121.438 225.553 131.635 225.047 132.454C224.765 132.912 222.037 131.935 218.477 130.103C215.129 128.378 211.436 126.967 210.27 126.966C209.104 126.965 207.19 126.6 206.016 126.153C203.373 125.149 196.997 124.503 196.978 125.238C196.971 125.536 196.908 130.222 196.84 135.651L196.716 145.521L202.184 145.778C205.191 145.919 209.471 145.607 211.692 145.084C215.94 144.086 219.269 144.421 216.338 145.551C215.47 145.887 214.283 146.53 213.702 146.983C211.481 148.711 204.377 150.653 200.286 150.653C196.246 150.653 196.044 150.748 196.495 152.43C196.757 153.407 197 164.867 197.037 177.896C197.076 191.867 197.381 200.937 197.783 200.005C198.155 199.137 198.486 197.466 198.516 196.294C198.547 195.121 199.07 193.877 199.68 193.53C200.289 193.182 200.912 192.01 201.062 190.925C201.383 188.609 203 188.991 202.733 191.319C202.071 197.114 200.926 204.399 200.284 206.915C199.8 208.811 199.803 210.94 200.294 212.837C200.715 214.465 201.34 217.22 201.681 218.956C202.874 225.014 208.815 233.003 213.731 235.159C214.731 235.599 216.615 236.636 217.917 237.467C219.22 238.297 221.064 239.002 222.017 239.034C222.968 239.066 223.952 239.424 224.202 239.83C224.691 240.619 232.36 243.04 234.372 243.04C235.037 243.04 236.582 243.446 237.805 243.942C240.189 244.909 240.759 245.045 245.443 245.765C247.119 246.024 249.139 246.582 249.931 247.006C250.724 247.43 252.32 247.777 253.477 247.777C254.634 247.777 256.701 248.27 258.069 248.872C259.437 249.474 263.317 250.583 266.69 251.336C270.062 252.09 273.014 253.019 273.25 253.401C273.487 253.783 274.546 254.094 275.607 254.094C278.25 254.094 278.023 255.056 274.968 256.793C267.927 260.796 260.163 270.206 260.163 274.734C260.163 277.043 266.146 286.227 268.238 287.127C272.3 288.877 266.231 298.314 261.042 298.314C256.506 298.314 252.867 300.957 256.018 301.964C256.777 302.206 258.217 302.798 259.216 303.279C261.389 304.323 266.141 304.299 267.49 303.238C268.02 302.821 269.461 302.238 270.694 301.943C273.638 301.239 280.506 294.763 281.934 291.345C283.722 287.063 283.318 285.347 279.528 281.131C273.989 274.971 273.465 272.06 276.653 265.153C279.234 259.557 281.896 258.007 288.691 258.141C305.431 258.473 302.009 247.599 283.654 242.132C277.568 240.319 275.918 239.143 279.311 239.036C287.136 238.791 293.945 239.333 295.47 240.325C296.432 240.95 297.922 241.46 298.779 241.46C299.638 241.46 300.534 241.775 300.772 242.159C301.437 243.235 307.7 243.949 311.354 243.365C317.247 242.422 321.281 236.606 321.987 228.037C322.478 222.06 323.1 220.14 324.544 220.14C325.742 220.14 326.301 218.177 325.837 215.6C325.557 214.041 325.041 213.823 321.629 213.823C316.586 213.823 313.53 212.186 304.776 204.788C293.366 195.143 291.823 193.732 291.776 192.898C291.752 192.464 290.506 190.566 289.006 188.679C287.507 186.794 286.045 184.484 285.759 183.548C285.472 182.61 284.841 181.35 284.357 180.747C283.143 179.235 281.559 172.967 281.517 169.507C281.498 167.932 281.007 165.268 280.427 163.585C279.198 160.024 279.309 148.985 280.629 143.298C281.827 138.137 281.658 138.019 273.019 138.019C265.474 138.019 265.419 138.034 261.418 141.019C255.755 145.245 248.878 147.059 245.95 145.099C244.282 143.984 246.551 142.326 250.639 141.672C252.84 141.32 254.97 140.033 258.123 137.152C263.727 132.03 263.874 130.178 259.168 123.929C257.319 121.473 255.128 118.398 254.301 117.094C253.474 115.792 251.058 113.029 248.932 110.954L245.067 107.183L242.819 108.783C241.584 109.663 240.311 110.382 239.992 110.382C239.673 110.382 238.952 111.005 238.391 111.765C237.642 112.779 237.133 112.914 236.481 112.271C235.826 111.626 236.433 110.522 238.796 108.062C242.661 104.04 242.679 103.856 239.435 101.597C238.024 100.614 235.367 98.509 233.532 96.9193C231.696 95.3297 228.498 93.3963 226.425 92.6228C224.351 91.8493 222.122 90.7948 221.471 90.2819C220.82 89.768 218.154 88.67 215.549 87.8421C212.943 87.0143 210.027 85.8546 209.069 85.263C207.249 84.1404 205.697 84.5426 205.652 86.1482C205.622 87.1952 202.944 90.6416 202.16 90.6416C201.884 90.6416 201.879 89.4648 202.149 88.0252C202.679 85.2044 201.877 84.0893 198.769 83.3286C197.792 83.0892 196.983 82.9498 196.972 83.0168ZM254.982 170.462C257.615 170.934 260.774 171.822 262.004 172.436C263.233 173.05 264.688 173.553 265.239 173.553C266.774 173.553 275.166 182.716 275.166 184.391C275.166 185.205 275.609 186.359 276.152 186.956C276.696 187.553 275.279 186.709 273.008 185.082C269.813 182.794 268.469 182.26 267.085 182.725C261.151 184.719 257.35 184.952 254.307 183.507C252.836 182.809 251.058 182.239 250.355 182.239C247.573 182.239 236.474 173.683 236.474 171.539C236.474 169.679 247.148 169.058 254.982 170.462ZM196.628 258.717C196.307 276.968 196.304 297.605 196.62 304.578C197.058 314.259 196.961 317.536 196.207 318.444C195.01 319.887 196.327 321.915 198.427 321.863C199.158 321.845 201.533 322.181 203.704 322.609C212.41 324.325 250.447 323.382 252.429 321.401C254.148 319.682 254.153 319.634 252.598 319.634C247.61 319.634 228.577 306.987 228.577 303.674C228.577 303.314 227.736 301.687 226.707 300.058C221.922 292.478 222.635 273.457 227.867 269.097C228.127 268.88 228.484 268.255 228.658 267.71C229.152 266.167 239.805 255.674 240.878 255.674C241.79 255.674 242.791 253.988 242.791 252.451C242.791 252.053 241.615 251.726 240.178 251.726C238.741 251.726 236.876 251.205 236.032 250.566C235.189 249.929 233.815 249.396 232.976 249.382C231.136 249.352 226.937 248.061 222.655 246.21C220.918 245.459 218.253 244.38 216.733 243.812C215.213 243.245 213.436 242.378 212.785 241.889C212.133 241.399 210.567 240.48 209.304 239.847C205.734 238.06 198.584 230.598 198.559 228.637C198.553 228.09 198.246 227.167 197.879 226.587C197.503 225.994 196.956 240.046 196.628 258.717Z" fill="#FF0000"/>
<path fill-rule="evenodd" clip-rule="evenodd" d="M178.446 83.3966C174.389 83.7276 173.304 84.6937 173.304 87.9751C173.304 91.4311 172.046 91.4194 171.397 87.9581C170.512 83.2381 167.778 82.7274 158.301 85.5077C156.346 86.0801 152.003 87.1665 148.648 87.9198C140.602 89.7265 139.835 90.5916 141.435 96.051C142.109 98.3493 142.457 100.433 142.209 100.681C141.652 101.237 139.35 99.408 139.35 98.41C139.35 94.8423 133.505 91.7237 131.454 94.1954C130.913 94.8466 130.044 95.3797 129.521 95.3797C129 95.3797 126.824 96.6235 124.685 98.144C122.548 99.6634 120.507 100.907 120.152 100.907C119.795 100.907 118.276 101.845 116.773 102.99C113.886 105.192 113.844 105.653 116.081 110.777C119.055 117.591 118.058 118.527 113.559 113.147C109.686 108.513 109.058 108.617 102.973 114.924C90.9633 127.367 90.2951 128.615 93.5829 132.463C97.2187 136.715 95.3045 138.274 90.7995 134.729L88.6246 133.018L87.1201 134.927C85.091 137.502 76.1798 155.633 76.1798 157.188C76.1798 157.87 77.6386 159.675 79.4208 161.201C83.496 164.689 83.2087 165.89 78.6696 164.345C73.3282 162.527 73.0835 162.89 69.7872 177.501C68.954 181.193 68.0954 184.985 67.8783 185.929C67.5889 187.191 68.1624 188.175 70.0457 189.65C72.9037 191.886 72.4962 193.014 68.6785 193.43L66.3089 193.688L66.0886 205.117C65.8758 216.212 65.9216 216.587 67.6687 217.909C69.418 219.235 69.4265 219.303 67.9666 220.376C66.6611 221.335 66.5823 221.815 67.3644 224.059C67.8592 225.478 68.0603 226.969 67.8113 227.373C67.5612 227.776 67.7219 228.544 68.1656 229.08C68.6104 229.615 69.5627 232.709 70.283 235.955C71.0033 239.2 72.1152 242.268 72.7547 242.771C73.3931 243.274 74.0284 244.891 74.1646 246.363C74.4401 249.319 77.6801 256.255 80.6104 260.161C81.6478 261.544 82.4969 262.859 82.4969 263.083C82.4969 264.324 87.9649 271.174 93.916 277.389C101.066 284.855 101.954 284.576 97.0133 276.418C90.8559 266.247 86.354 254.649 84.5175 244.225C82.0702 230.336 81.9936 209.96 84.3515 200.005C86.2625 191.937 87.8702 186.369 88.7831 184.664C89.2651 183.765 89.4609 183.028 89.2183 183.028C88.9757 183.028 89.2619 182.229 89.8557 181.251C90.4483 180.275 91.4187 177.876 92.0114 175.922C92.6051 173.967 93.3265 172.19 93.6149 171.973C93.9032 171.756 95.4726 168.925 97.1017 165.681C99.7958 160.315 105.884 150.041 106.942 149.074C107.18 148.857 108.439 147.108 109.741 145.188C123.36 125.09 151.958 108.807 173.646 108.802C179.782 108.801 191.564 110.387 192.847 111.386C193.955 112.25 194.623 84.9246 193.523 83.7605C193.207 83.4264 181.538 83.1455 178.446 83.3966ZM173.832 114.924C169.959 121.413 178.023 137.116 187.78 142.081C194.579 145.542 194.179 146.427 193.897 128.544C193.839 124.963 193.665 124.596 192.008 124.596C189.181 124.596 184.247 121.894 179.842 117.934C175.928 114.414 174.549 113.723 173.832 114.924ZM175.876 153.804C168.528 160.208 161.887 167.329 156.59 174.48C154.877 176.793 153.047 179.218 152.522 179.869C150.379 182.534 144.157 194.283 141.808 200.102C140.426 203.524 138.93 206.976 138.483 207.774C137.437 209.642 134.668 226.345 133.881 235.539C131.797 259.869 146.921 295.364 163.718 305.565C165.299 306.526 166.785 307.588 167.022 307.926C168.878 310.583 192.477 320.466 193.8 319.14C194.262 318.678 194.411 157.438 193.954 153.298C193.705 151.044 193.369 150.763 190.38 150.315C188.565 150.043 186.144 149.335 185 148.741C182.991 147.699 182.686 147.867 175.876 153.804Z" fill="#0000FF"/>
</svg>
