<svg width="400" height="400" viewBox="0 0 400 400" fill="none" xmlns="http://www.w3.org/2000/svg">
<path fill-rule="evenodd" clip-rule="evenodd" d="M167.764 102.477C167.139 102.842 164.748 103.387 162.453 103.69C160.158 103.991 157.89 104.553 157.413 104.938C156.936 105.323 154.716 105.845 152.481 106.097C150.246 106.35 147.393 107.088 146.141 107.737C144.889 108.386 143.524 108.997 143.106 109.094C135.93 110.767 120.691 118.957 112.043 125.787C109.863 127.509 107.255 129.352 106.246 129.884C101.261 132.51 84.8273 151.517 77.7249 162.868C75.1404 167 66.8562 183.566 66.8562 184.603C66.8562 184.955 65.6611 187.831 64.2001 190.993C62.7402 194.155 61.545 197.209 61.545 197.78C61.545 198.351 61.2414 199.005 60.8692 199.235C60.4981 199.464 59.624 202.131 58.9278 205.16C58.2316 208.189 57.337 211.266 56.9393 211.998C56.3422 213.1 53.7199 222.772 52.8785 226.979C52.7537 227.605 52.4521 228.629 52.2078 229.256C49.5977 235.957 49.1826 262.337 51.6066 267.521C52.4 269.217 53.452 271.892 53.9458 273.463C56.5017 281.607 67.7191 293.746 72.6867 293.746C73.2102 293.746 75.0995 294.515 76.8856 295.453C83.1619 298.752 111.406 298.123 120.345 294.486C121.179 294.146 124.594 293.273 127.932 292.548C131.27 291.821 134.345 290.967 134.766 290.65C135.185 290.333 138.429 289.513 141.973 288.828C145.518 288.142 149.1 287.273 149.934 286.896C159.78 282.448 241.802 281.883 247.119 286.227C247.575 286.599 248.164 286.688 248.429 286.424C248.694 286.159 249.345 286.278 249.876 286.688C250.408 287.099 253.404 287.867 256.534 288.395C259.664 288.923 263.248 289.801 264.5 290.347C265.752 290.892 269.508 291.919 272.846 292.627C276.184 293.336 279.257 294.133 279.674 294.4C284.791 297.666 317.526 298.663 323.134 295.724C325.103 294.691 327.831 293.438 329.194 292.94C332.24 291.826 340.568 284.506 342.433 281.303C344.283 278.125 346.82 272.544 346.82 271.65C346.82 271.251 347.503 269.586 348.337 267.949C350.007 264.679 350.662 236.656 349.158 232.896C347.601 229.001 347.361 228.042 347.525 226.37C347.62 225.409 347.394 224.215 347.022 223.715C346.385 222.858 345.26 218.54 344.118 212.564C343.839 211.103 343.342 209.567 343.015 209.15C342.688 208.732 341.832 206.001 341.113 203.081C340.394 200.159 339.536 197.428 339.204 197.011C338.874 196.594 338.529 195.911 338.437 195.493C338.065 193.811 335.316 187.598 329.874 176.146C326.531 169.108 320.461 158.965 316.883 154.431C315.196 152.294 311.672 147.798 309.052 144.441C302.711 136.317 287.022 123.245 277.265 117.958C271.322 114.736 263.882 111.154 261.844 110.531C260.801 110.213 259.513 109.604 258.982 109.179C258.449 108.752 257.8 108.619 257.537 108.882C257.274 109.145 256.002 108.725 254.71 107.95C253.418 107.174 250.594 106.344 248.435 106.105C246.277 105.866 243.886 105.351 243.125 104.959C238.403 102.533 234.517 102.257 201.906 102.036C183.754 101.914 168.39 102.111 167.764 102.477ZM179.145 133.05C179.145 144.707 180.867 157.937 182.385 157.937C183.66 157.937 183.797 157.589 183.355 155.471C183.072 154.115 182.656 147.628 182.431 141.056L182.021 129.106H185.135H188.249V133.944C188.249 137.215 188.601 139.076 189.335 139.684C190.77 140.874 192.043 138.598 192.043 134.846C192.043 131.327 193.178 131.394 194.45 134.986C195.738 138.624 195.93 185.24 194.658 185.246C192.515 185.257 185.501 180.865 181.634 177.088C176.47 172.047 175.702 170.837 171.164 160.592C168.603 154.81 167.686 142.321 169.402 136.591C170.626 132.507 171.28 132.924 171.749 138.088C172.169 142.716 173.529 145.798 175.155 145.798C176.222 145.798 176.546 138.57 175.509 137.928C174.508 137.31 175.103 130.489 176.219 129.781C178.494 128.34 179.145 129.068 179.145 133.05ZM217.84 143.522C217.84 155.123 218.039 157.937 218.864 157.937C219.648 157.937 220.023 155.48 220.457 147.505C221.527 127.823 221.367 128.76 223.524 129.588C224.734 130.052 224.833 130.914 224.473 137.952C224.072 145.815 224.345 146.703 226.702 145.205C227.193 144.892 227.997 142.338 228.486 139.53C229.526 133.553 230.291 133.558 231.548 139.551C233.115 147.024 230.93 158.773 226.577 166.283C225.972 167.326 224.715 169.629 223.785 171.401C222.854 173.171 221.477 174.816 220.724 175.056C219.971 175.295 219.017 176.122 218.604 176.893C217.661 178.657 207.825 185.251 206.138 185.251C204.239 185.251 204.65 135.356 206.565 133.443C207.717 132.291 207.847 132.507 208.333 136.39C208.661 139.023 209.275 140.742 209.985 141.014C212.068 141.813 212.677 140.166 211.893 135.852C210.946 130.641 211.701 129.106 215.21 129.106H217.84V143.522ZM154.866 136.785C154.866 144.953 156.688 145.353 157.59 137.384C158.17 132.258 158.549 132.026 161.202 135.179C163.69 138.136 164.268 142.381 163.265 150.33C162.21 158.688 162.223 177.271 163.286 182.231C164.38 187.333 164.256 187.376 157.635 184.191C138.846 175.154 129.462 149.926 139.337 135.004C142.201 130.675 142.347 131.154 142.347 144.851C142.347 157.113 143.21 163.504 145.214 166.093C145.617 166.615 145.763 167.041 145.538 167.041C144.751 167.041 148.482 173.366 149.735 174.156C151.388 175.199 152.319 174.233 151.088 172.75C150.56 172.114 150.382 171.594 150.694 171.594C151.005 171.594 150.909 171.167 150.481 170.645C150.054 170.124 149.312 168.161 148.833 166.283C148.355 164.405 147.76 162.357 147.512 161.73C147.264 161.104 147.133 159.687 147.22 158.581C147.307 157.475 147.015 156.345 146.57 156.07C145.467 155.388 145.469 133.929 146.572 133.247C147.018 132.971 147.212 132.301 147.004 131.759C146.417 130.232 147.231 129.864 151.199 129.864H154.866V136.785ZM253.567 131.085C255.039 132.86 255.071 157.936 253.604 159.706C253.036 160.392 252.769 161.468 253.011 162.1C253.253 162.731 253.158 163.248 252.8 163.248C252.443 163.248 251.912 164.516 251.622 166.067C251.33 167.617 250.598 169.843 249.993 171.012C249.016 172.902 249.027 173.19 250.094 173.6C251.368 174.088 253.432 171.991 253.475 170.166C253.487 169.589 254.179 168.018 255.009 166.674C255.848 165.317 256.89 161.568 257.353 158.239C257.812 154.943 258.498 151.654 258.878 150.929C259.812 149.148 259.759 140.693 258.81 140.107C258.393 139.85 258.051 137.899 258.051 135.772V131.906L259.646 133.349C263.152 136.522 263.736 138.784 263.739 149.211C263.741 158.354 262.534 166.283 261.14 166.283C260.861 166.283 260.218 167.429 259.712 168.829C259.204 170.23 258.112 171.991 257.282 172.741C256.453 173.491 255.774 174.564 255.774 175.125C255.774 175.686 255.386 176.146 254.912 176.146C254.436 176.146 252.589 177.491 250.806 179.135C245.086 184.407 235.03 188.24 236.42 184.618C237.328 182.252 239.182 161.501 238.525 161.047C235.175 158.733 236.437 137.213 240.126 133.747L241.956 132.028L242.475 136.496C243.532 145.607 246.201 145.052 245.436 135.882L244.934 129.864H248.745C251.32 129.864 252.882 130.26 253.567 131.085ZM122.242 143.477C122.242 151.169 122.872 153.762 124.378 152.261C124.664 151.977 125.014 148.163 125.157 143.786C125.412 136.012 125.452 135.857 126.865 137.136C127.66 137.856 128.311 138.759 128.311 139.141C128.311 139.523 128.824 140.348 129.449 140.974C130.096 141.62 130.59 143.482 130.592 145.282C130.629 169.006 131.152 184.329 131.975 185.819C132.493 186.759 132.649 187.523 132.321 187.518C130.66 187.496 124.19 185.125 122.394 183.882C121.267 183.102 119.748 182.247 119.017 181.983C118.287 181.72 117.69 181.152 117.69 180.722C117.69 180.292 117.207 179.939 116.616 179.939C114.894 179.939 109.714 173.504 108.566 169.937C107.985 168.135 107.155 166.419 106.72 166.121C105.516 165.296 105.664 145.636 106.878 145.229C107.4 145.055 107.826 144.296 107.826 143.542C107.826 142.789 108.498 141.366 109.319 140.381L110.811 138.59L110.836 146.986C110.873 159.393 112.944 168.115 116.103 169.168C117.103 169.501 116.648 162.436 115.551 160.603C115.305 160.192 115.196 158.775 115.31 157.456C115.424 156.136 115.152 154.83 114.706 154.554C113.637 153.894 113.623 139.985 114.692 139.326C115.128 139.056 115.431 138.268 115.362 137.574C115.142 135.33 115.364 135.175 118.828 135.175H122.242V143.477ZM284.923 135.636C286.288 136.16 286.733 153.739 285.444 156.24C284.518 158.039 282.944 168.668 283.519 169.238C286.185 171.875 289.442 160.237 289.496 147.888C289.519 142.57 289.594 138.217 289.663 138.215C292.506 138.123 296.09 158.394 294.053 163.052C293.732 163.785 293.534 164.673 293.614 165.026C294.165 167.477 284.459 181.457 282.206 181.457C281.893 181.457 280.001 182.408 278.001 183.572C274.38 185.677 269.03 187.631 268.457 187.058C268.292 186.892 268.423 185.138 268.749 183.159C269.074 181.18 269.362 171.772 269.386 162.253C269.431 145.298 269.471 144.861 271.377 140.834C274.16 134.951 274.736 135.045 274.786 141.39C274.841 148.356 275.609 152.789 276.832 153.195C277.546 153.434 277.778 151.632 277.778 145.861C277.778 140.734 278.057 138.211 278.624 138.211C279.099 138.211 279.297 137.541 279.075 136.693C278.662 135.112 281.99 134.511 284.923 135.636ZM99.5626 150.16C99.6086 150.473 99.9266 155.338 100.271 160.972C101.277 177.451 102.55 184.072 105.51 188.229C106.473 189.58 106.795 190.64 106.331 190.928C105.298 191.566 97.616 190.097 95.0754 188.775C93.9519 188.19 92.082 187.266 90.9226 186.72C83.3377 183.155 79.9046 175.903 83.3428 170.707L85.4141 167.578L86.2514 171.757C87.1256 176.121 89.2429 180.196 91.8734 182.577C94.3945 184.858 94.4303 183.413 91.9705 178.684C90.528 175.911 89.3676 172.158 88.8738 168.672L88.0835 163.094L90.9369 159.197L93.7903 155.299L94.1696 158.912C94.8362 165.263 96.973 162.823 97.1284 155.534C97.2245 151.039 99.0933 146.915 99.5626 150.16ZM303.574 156.964C303.913 162.144 305.85 166.291 305.85 161.838C305.85 160.994 306.221 160.073 306.675 159.793C307.129 159.513 307.318 158.554 307.097 157.661C306.802 156.473 307.405 156.85 309.355 159.075C312.868 163.081 312.018 176.717 308.101 179.188C306.873 179.963 306.378 183.733 307.504 183.733C309.054 183.733 313.291 176.292 313.883 172.525C314.576 168.139 315.278 167.974 317.486 171.677C320.41 176.581 315.019 185.165 307.492 187.588C305.963 188.08 304.37 188.748 303.953 189.073C303.377 189.521 295.368 191.32 293.95 191.32C293.246 191.32 293.855 189.03 294.698 188.513C295.805 187.832 298.263 180.659 298.263 178.107C298.263 177.195 298.569 176.125 298.944 175.728C299.319 175.333 299.759 169.715 299.921 163.245C300.085 156.777 300.499 151.028 300.843 150.471C302.077 148.475 303.191 151.123 303.574 156.964ZM195.081 243.102C195.083 249.466 195.306 259.025 195.578 264.346C196.056 273.723 196.024 274.019 194.531 274.019C192.975 274.019 192.043 271.599 192.043 267.557C192.043 266.61 191.531 265.64 190.906 265.4C190.03 265.063 189.767 265.562 189.767 267.55C189.767 268.973 189.425 270.348 189.008 270.606C188.591 270.863 188.249 271.737 188.249 272.547C188.249 273.854 187.694 274.019 183.318 274.019H178.387V269.24C178.387 266.611 178.755 264.092 179.205 263.642C180.18 262.666 179.849 258.689 178.762 258.333C177.569 257.943 176.042 262.151 175.058 268.547L174.157 274.399L171.341 274.635L168.523 274.87V270.903C168.523 265.809 169.994 257.328 170.877 257.328C171.252 257.328 171.558 256.858 171.558 256.284C171.558 250.026 183.668 235.452 191.476 232.314C195.081 230.864 195.078 230.856 195.081 243.102ZM209.735 232.879C212.707 234.221 222.356 242.323 223.597 244.517C228.974 254.038 231.156 260.445 231.914 268.946L232.442 274.875L229.125 274.637C225.84 274.402 225.804 274.369 225.594 271.364C224.996 262.787 222.78 257.395 220.705 259.469C220.07 260.104 220.064 260.788 220.68 262.055C221.141 263.002 221.724 266.082 221.975 268.898L222.434 274.019H217.139H211.846L211.618 269.664C211.439 266.233 211.109 265.256 210.066 265.057C209.159 264.884 208.876 265.157 209.169 265.921C209.404 266.536 209.232 267.263 208.787 267.538C208.341 267.815 207.976 269.385 207.976 271.03C207.976 273.514 207.719 274.019 206.459 274.019C204.977 274.019 204.942 273.514 204.942 252.776C204.942 229.463 204.669 230.592 209.735 232.879ZM162.912 236.53C162.659 237.192 162.235 239.078 161.973 240.72C161.71 242.362 161.199 243.888 160.837 244.112C159.969 244.648 159.979 266.675 160.847 267.608C162.768 269.675 162.606 275.537 160.627 275.537C159.226 275.537 158.827 275.228 159.148 274.389C159.39 273.759 159.241 272.819 158.816 272.303C158.39 271.786 157.694 267.873 157.269 263.604C156.452 255.415 156.028 253.954 154.705 254.772C154.144 255.119 154.049 258.69 154.403 266.165L154.917 277.055H152.616C149.282 277.055 149.247 277.033 148.417 274.527C147.171 270.765 145.59 270.987 145.877 274.883C146.112 278.089 146.046 278.2 143.768 278.423C141.031 278.69 140.451 277.116 140.451 269.418C140.451 265.038 139.61 263.249 138.416 265.092C138.075 265.621 137.766 269.126 137.731 272.881C137.673 279.127 137.536 279.729 136.135 279.938C133.704 280.3 132.877 265.176 135.247 263.711C135.605 263.489 135.898 262.482 135.898 261.472C135.898 256.137 141.353 247.775 148.586 242.019C154.837 237.047 164.073 233.507 162.912 236.53ZM244.101 237.205C245.694 237.753 247.122 238.578 247.277 239.039C247.43 239.5 248.013 239.877 248.571 239.877C252.201 239.877 264.121 255.563 264.121 260.339C264.121 261.137 264.417 261.974 264.779 262.198C266.977 263.556 266.464 280.089 264.224 280.09C263.168 280.09 263.006 279.213 263.14 274.209C263.291 268.561 262.397 264.915 260.861 264.915C260.446 264.915 260.291 266.549 260.501 268.732C260.702 270.83 260.575 272.728 260.218 272.949C259.861 273.17 259.563 274.269 259.557 275.392C259.539 278.559 258.691 279.37 256.124 278.683C254.153 278.156 253.909 277.787 254.125 275.671C254.458 272.424 252.3 272.355 251.59 275.591C251.193 277.397 250.797 277.795 249.823 277.363C249.132 277.057 247.872 276.777 247.021 276.741C245.521 276.677 245.483 276.327 245.785 265.104C246.022 256.294 245.874 253.534 245.164 253.534C244.651 253.534 244.413 254.004 244.633 254.58C244.854 255.155 244.745 255.923 244.39 256.287C244.037 256.651 243.332 261.131 242.825 266.243C241.933 275.241 241.847 275.537 240.114 275.537C238.499 275.537 238.325 275.204 238.325 272.123C238.325 270.245 238.666 268.709 239.083 268.709C240.028 268.709 240.131 243.15 239.188 242.786C238.827 242.647 238.292 240.899 237.999 238.902C237.4 234.828 237.281 234.861 244.101 237.205ZM126.484 253.345C125.932 261.435 127.125 279.207 128.299 280.38C128.774 280.855 128.739 281.471 128.201 282.119C126.808 283.798 125.425 283.251 124.889 280.808C124.262 277.954 122.653 278.29 122.534 281.297C122.486 282.511 122.4 283.887 122.344 284.355C122.288 284.824 120.791 285.43 119.017 285.703C117.244 285.976 114.741 286.389 113.453 286.62C110.723 287.11 110.866 287.51 110.364 277.955C109.846 268.101 107.883 269.253 107.899 279.403C107.91 286.718 107.655 287.679 105.695 287.671C103.055 287.659 100.885 272.348 103.162 269.809C103.518 269.412 104.25 267.45 104.789 265.446C106.497 259.098 114.303 251.06 121.483 248.258C122.944 247.688 124.463 246.935 124.86 246.584C126.656 244.995 126.967 246.285 126.484 253.345ZM279.187 248.335C285.706 251.425 293.721 259.413 295.158 264.252C295.7 266.078 296.439 267.934 296.801 268.379C297.892 269.721 298.489 277.352 297.919 282.674L297.384 287.676H294.721H292.06L292.574 284.627C293.148 281.236 292.384 274.019 291.453 274.019C291.124 274.019 290.613 276.922 290.318 280.468C289.711 287.762 290.254 287.393 282.329 285.887C278.176 285.098 277.36 284.687 277.156 283.279C276.919 281.645 275.501 280.863 275.501 282.366C275.501 282.783 274.782 283.124 273.903 283.124C272.347 283.124 272.322 282.941 272.955 276.106C273.312 272.246 273.604 263.881 273.604 257.517C273.604 251.153 273.726 245.946 273.875 245.947C274.025 245.947 276.415 247.022 279.187 248.335ZM97.9636 254.883C97.9636 255.208 97.5138 256.146 96.9648 256.969C94.2432 261.051 93.5163 269.708 94.8955 281.606C95.2584 284.737 95.4997 287.349 95.4312 287.412C94.1042 288.649 91.5452 287.782 91.7293 286.159C91.8478 285.116 91.6148 283.579 91.2119 282.745C90.8091 281.91 90.253 279.528 89.9759 277.449C89.1038 270.907 87.2482 274.971 87.8514 282.104L88.3227 287.676L85.3661 287.6C78.8812 287.435 78.595 287.144 78.8792 281.005C79.0448 277.41 78.8485 275.537 78.3046 275.537C77.8497 275.537 77.4775 276.01 77.4775 276.588C77.4775 277.167 76.9684 278.618 76.3447 279.813C75.7211 281.008 75.2089 282.743 75.2069 283.669C75.2028 284.914 74.8787 285.228 73.9637 284.878C69.0901 283.008 78.3649 260.363 84.0043 260.363C84.4981 260.363 85.0778 259.908 85.2904 259.351C85.5041 258.795 87.6746 257.727 90.1139 256.977C92.5533 256.228 94.873 255.318 95.2697 254.954C96.1643 254.134 97.9636 254.086 97.9636 254.883ZM306.95 255.823C307.806 255.83 309.871 256.661 311.54 257.669C313.21 258.676 315.67 260.068 317.007 260.761C322.428 263.571 327.093 271.843 327.093 278.647C327.093 280.226 327.457 281.742 327.902 282.016C328.432 282.344 328.266 283.007 327.421 283.94C325.678 285.865 325.116 285.317 324.544 281.135C324.065 277.647 322.994 275.537 321.699 275.537C321.339 275.537 321.256 278.045 321.514 281.111L321.986 286.686L319.039 287.173C317.419 287.441 315.191 287.664 314.09 287.668L312.087 287.676L312.49 281.227C312.828 275.794 312.711 274.778 311.742 274.778C310.553 274.778 309.644 277.759 309.644 281.656C309.644 282.832 309.273 284.023 308.819 284.303C308.365 284.583 308.162 285.457 308.368 286.245C308.674 287.411 308.324 287.676 306.487 287.676C304.605 287.676 304.307 287.434 304.693 286.216C306.675 279.976 306.211 261.693 303.96 257.343C302.838 255.172 303.266 253.682 304.623 255.039C305.047 255.463 306.094 255.816 306.95 255.823Z" fill="#FF0000"/>
</svg>
