<svg width="400" height="400" viewBox="0 0 400 400" fill="none" xmlns="http://www.w3.org/2000/svg">
<path fill-rule="evenodd" clip-rule="evenodd" d="M275.024 80.0873C269.285 82.2602 252.044 89.3564 242.7 93.3924C239.76 94.6614 233.773 96.6598 229.396 97.8329C225.017 99.007 218.609 100.855 215.153 101.941C194.417 108.459 183.753 110.35 160.458 111.641C146.617 112.407 131.894 108.803 111.619 99.6852C95.1689 92.288 83.9341 92.0187 75.0183 98.8097C64.1695 107.072 71.3748 120.834 92.1522 131.534L99.2681 135.199L102.401 141.852C104.185 145.636 107.675 151.186 110.498 154.727C113.228 158.15 115.911 161.819 116.461 162.881C118.708 167.227 124.673 171.584 136.374 177.428C153.703 186.083 160.041 194.012 167.822 216.767C170.525 224.67 170.454 225.4 166.452 230.929C160.204 239.558 161.37 238.839 153.102 239.171C143.123 239.571 141.234 241.099 139.425 250.225C138.992 252.412 137.638 253.065 129.783 254.876C92.4117 263.49 101.462 299.629 140.996 299.652C167.543 299.667 173.453 301.029 183.483 309.444C211.529 332.974 239.991 324.977 275.025 283.725C280.197 277.634 294.98 256.315 294.98 254.946C294.98 254.722 295.835 253.184 296.881 251.528C309.012 232.31 320.337 199.46 328.318 160.33C331.602 144.23 330.149 129.309 323.332 109.116C315.295 85.3062 294.4 72.7502 275.024 80.0873ZM295.452 107.308C300.335 110.457 296.641 123.672 288.546 132.011C282.593 138.145 280.004 137.463 278.742 129.43C278.283 126.505 277.437 121.458 276.862 118.213C275.563 110.892 276.148 109.687 281.805 108.021C285.938 106.804 294.016 106.382 295.452 107.308ZM273.545 114.428C273.545 114.561 274.189 117.293 274.976 120.5C279.335 138.268 276.227 147.776 264.023 154.002C258.132 157.008 257.956 156.735 257.201 143.396C256.877 137.668 256.206 130.922 255.713 128.406C254.654 123.022 254.787 122.774 260.95 118.591C268.796 113.264 273.545 111.695 273.545 114.428ZM108 119.807C109.005 120.49 111.075 122.152 112.6 123.503C114.127 124.855 115.722 125.959 116.146 125.959C116.841 125.959 126.227 131.064 130.892 133.979C133.122 135.371 150.57 141.18 154.539 141.851C159.781 142.736 159.986 143.381 160.498 160.567C161.042 178.786 161.328 178.049 153.993 177.384C139.212 176.045 137.394 173.801 134.565 153.393C133.697 147.138 132.704 141.317 132.356 140.458C131.268 137.762 131.591 156.944 132.723 162.178C134.089 168.494 133.239 169.689 128.955 167.476C121.768 163.764 118.691 158.778 116.109 146.655C113.902 136.298 113.475 135.833 113.779 144.118C114.237 156.586 108.562 151.422 104.588 135.754C101.111 122.046 102.401 116.011 108 119.807ZM252.402 127.623C255.115 131.861 256.39 154.111 254.154 158.222C251.328 163.419 240.742 170.215 236.953 169.264C234.773 168.717 234.493 167.317 234.056 154.786C233.88 149.704 233.376 143.74 232.938 141.53C231.695 135.273 231.014 136.006 245.088 128.454C250.463 125.57 251.045 125.504 252.402 127.623ZM229.095 137.708C231.948 139.515 233.3 167.254 230.694 170.517C227.582 174.415 217.105 178.438 210.067 178.438C204.209 178.438 204.093 178.061 204.279 159.607L204.436 144.126L206.284 143.245C211.598 140.713 227.678 136.809 229.095 137.708ZM200.33 145.581C201.425 146.675 202.727 168.236 202.046 173.995C201.25 180.74 200.659 180.97 184.11 181.001C164.603 181.037 164.806 181.188 163.407 165.674C162.259 152.947 162.449 145.329 163.919 145.047C167.275 144.402 199.626 144.877 200.33 145.581ZM284.051 189.584C292.83 193.036 293.7 194.562 290.615 201.083C288.6 205.344 288.233 205.699 284.602 206.905C275.134 210.05 266.001 223.581 258.42 245.7L254.998 255.677L248.565 262.198C239.868 271.012 239.073 271.394 233.745 269.304C228.647 267.303 206.284 252.599 206.284 251.248C206.284 247.405 221.525 222.756 230.967 211.329C247.256 191.618 267.81 183.197 284.051 189.584ZM228.236 197.06C232.415 198.597 233.681 200.513 232.032 202.803C231.489 203.556 228.701 207.279 225.838 211.077C218.938 220.226 215.385 225.999 209.243 238.037C202.03 252.175 202.623 251.784 195.369 247.181C192.822 245.565 188.997 243.705 186.869 243.048C168.564 237.393 168.025 236.675 175.433 227.816C176.343 226.727 178.751 223.739 180.784 221.174C197.538 200.033 213.82 191.76 228.236 197.06ZM155.575 244.134C156.425 245.074 156.697 246.213 156.411 247.646C155.996 249.73 156.002 249.734 156.789 247.917C158.625 243.681 160.31 242.743 166.077 242.743C173.339 242.743 174.179 243.587 173.811 250.504L173.654 253.461L175.589 249.646C178.299 244.303 180.742 244.313 191.393 249.709C196.246 252.169 196.33 252.423 194.492 259.058C191.692 269.165 192.801 270.859 195.997 261.354C198.572 253.7 200.087 253.072 206.035 257.2C212.085 261.4 213.416 263.419 212.19 266.533C207.872 277.493 206.892 279.288 205.094 279.55C203.729 279.747 196.631 275.13 192.766 271.53C191.99 270.806 190.619 270.03 189.719 269.804C186.763 269.062 174.497 261.854 173.72 260.403C173.302 259.622 173.141 257.741 173.364 256.221L173.768 253.461L172.781 256.047C171.177 260.244 161.326 258.894 157.432 253.944C156.229 252.414 155.807 252.244 155.289 253.082C154.085 255.031 144.71 253.951 143.519 251.727C140.773 246.597 151.62 239.764 155.575 244.134ZM155.3 261.625C167.65 265.496 182.494 272.793 184.446 275.95C185.237 277.23 182.097 276.877 179.091 275.348C171.133 271.299 157.992 267.714 149.678 267.324C139.143 266.829 137.269 267.458 131.329 273.486C126.644 278.241 125.741 278.632 121.427 277.769C115.44 276.572 114.501 272.011 119.251 267.203C127.428 258.926 140.325 256.931 155.3 261.625ZM221.773 267.783C223.675 268.954 226.172 270.782 227.322 271.848C228.472 272.915 230.196 273.787 231.153 273.787C232.188 273.787 232.893 274.225 232.893 274.869C232.893 276.157 230.653 277.482 228.477 277.482C227.62 277.482 226.018 278.137 224.917 278.938C222.768 280.499 215.511 281.921 212.562 281.357C209.375 280.749 209.093 279.599 210.776 274.071C213.571 264.894 215.389 263.855 221.773 267.783Z" fill="#0000FF"/>
</svg>
