<svg width="400" height="400" viewBox="0 0 400 400" fill="none" xmlns="http://www.w3.org/2000/svg">
<path fill-rule="evenodd" clip-rule="evenodd" d="M60.9552 70.2715C45.325 77.5231 46.6698 93.3877 63.3997 99.1076C66.5485 100.184 69.4759 102.164 72.8484 105.499C75.5355 108.156 78.7032 110.784 79.8869 111.34C82.8025 112.708 99.1726 125.996 106.112 132.628C109.206 135.584 111.972 138.002 112.261 138.002C112.55 138.002 113.892 139.389 115.244 141.083L117.704 144.166L113.321 148.771C110.909 151.303 106.443 155.32 103.395 157.698C90.8769 167.462 89.6185 176.894 100.833 176.894C107.991 176.894 112.458 170.588 107.568 167.385C104.501 165.375 104.703 164.434 109.229 159.712C118.038 150.518 125.732 150.09 132.024 158.447C135.726 163.36 137.132 164.557 140.11 165.327C144.062 166.347 146.972 168.568 164.36 183.829C170.782 189.466 177.362 195.197 178.982 196.567C186.319 202.769 197.582 212.693 202.815 217.57C205.963 220.505 218.62 231.571 230.942 242.161C243.262 252.752 255.545 263.397 258.236 265.815C263.839 270.849 287.364 290.88 298.696 300.264C308.648 308.506 312.558 310.944 331.527 320.737C340.224 325.227 347.843 329.292 348.458 329.771C351.17 331.875 350.139 329.388 346.672 325.459C344.587 323.098 340.728 318.423 338.097 315.073C324.607 297.892 320.491 293.724 291.996 268.388C260.763 240.618 253.142 233.914 239.726 222.409C232.237 215.986 224.694 209.489 222.964 207.969C221.235 206.449 217.497 203.229 214.659 200.813C211.82 198.397 207.701 194.823 205.505 192.871C203.309 190.92 198.942 187.17 195.802 184.54C192.662 181.908 184.953 175.19 178.672 169.608C172.391 164.026 165.19 157.743 162.671 155.647C159.96 153.392 157.697 150.644 157.128 148.919C156.355 146.575 154.804 145.216 149.248 142.011C140.832 137.158 140.977 137.378 142.246 131.267C144.143 122.127 153.666 113.921 157.534 118.095C162.005 122.919 168.809 116.98 167.2 109.656C165.354 101.248 156.255 103.242 147.26 114.028C135.069 128.642 130.324 131.339 126.81 125.652C126.489 125.134 124.586 123.522 122.581 122.074C118.596 119.192 101.011 103.066 97.4431 99.02C94.3239 95.483 91.9967 93.2386 87.766 89.6862C85.7512 87.9946 82.9836 84.4374 81.614 81.7799C75.9166 70.7225 68.6768 66.6895 60.9552 70.2715Z" fill="#FF0000"/>
</svg>
