<svg width="400" height="400" viewBox="0 0 400 400" fill="none" xmlns="http://www.w3.org/2000/svg">
<path fill-rule="evenodd" clip-rule="evenodd" d="M104.967 123.018C101.352 124.124 98.9389 126.712 99.6922 128.676C100.012 129.511 99.202 130.182 96.5417 131.288C93.4269 132.583 92.9599 133.045 92.9599 134.828C92.9599 136.059 91.9754 138.168 90.5007 140.1C89.1488 141.871 87.8182 144.055 87.5455 144.95C87.2728 145.847 84.5507 149.163 81.4968 152.321C76.9006 157.074 75.7837 158.695 75.0101 161.74L74.0759 165.418L69.9371 165.794C61.8577 166.526 59.9488 168.917 59.9488 178.301C59.9488 185.055 60.4381 186.136 66.303 192.329C67.7043 193.809 68.4904 195.02 68.0504 195.02C67.6095 195.02 64.8487 192.437 61.9157 189.28C55.9337 182.84 53.9852 182.127 51.3887 185.429C49.3154 188.065 49.5253 189.706 52.2755 192.365C55.1301 195.126 66.4645 207.241 64.9976 205.964C61.3055 202.75 59.7612 216.159 63.226 221.352C63.9658 222.46 65.1068 225.951 65.7625 229.108C69.0252 244.821 73.4977 251.029 84.5594 255.205C95.1618 259.206 101.088 257.131 118.241 243.408C129.537 234.372 124.969 210.514 109.796 199.305C103.571 194.706 101.59 194.357 100.555 197.676C100.284 198.544 98.9486 199.943 97.587 200.784C94.1773 202.891 94.423 203.591 99.8092 207.134C107.07 211.907 113.905 221.646 113.72 226.955C113.688 227.891 113.344 227.504 112.732 225.843C107.872 212.655 97.5222 204.81 85.3243 205.071C82.6166 205.129 80.0782 205.151 79.6837 205.121C79.2891 205.09 80.9031 204.086 83.2713 202.887C85.6395 201.688 89.1924 199.759 91.166 198.599C93.1388 197.438 95.6723 196.482 96.7941 196.472C98.2195 196.461 98.9476 196.024 99.2087 195.027C100.638 189.562 114.081 199.776 121.34 211.84C132.581 230.526 145.786 221.062 135.697 201.553C135.064 200.328 134.854 199.326 135.23 199.326C137.361 199.326 142.666 216.007 142.012 220.652C140.346 232.494 136.323 237.187 122.742 243.139C117.142 245.593 104.442 255.119 104.442 256.865C104.442 258.984 107.708 258.459 112.349 255.595C118.226 251.966 127.233 250.997 130.767 253.612C133.813 255.865 135.289 255.748 139.771 252.896C143.373 250.603 146.928 249.478 153.838 248.445C159.379 247.616 161.676 244.77 166.559 232.696C170.394 223.212 171.525 222.435 169.166 230.905C167.313 237.557 167.378 237.656 174.295 238.656C186.297 240.391 186.146 240.479 184.694 232.603C183.305 225.07 185.097 225.108 186.677 232.645C187.624 237.162 192.615 248.255 194.119 249.184C196.806 250.846 198.507 255.857 197.267 258.457C195.056 263.095 199.995 266.904 204.194 263.8L206.29 262.25L209.01 264.01C213.356 266.824 221.881 271.09 223.154 271.09C223.882 271.09 224.488 271.913 224.761 273.274C225.517 277.058 230.239 278.59 234.443 276.416C240.598 273.233 252.047 271.671 257.674 273.248C261.881 274.425 265.362 272.262 269.807 265.706C271.413 263.338 273.307 260.592 274.015 259.606L275.3 257.814L275.012 259.783C274.688 261.992 275.928 263.437 277.597 262.797C278.328 262.517 279.989 263.73 282.493 266.372C286.652 270.759 287.791 271.081 292.499 269.198C294.958 268.213 295.903 268.163 298.312 268.884C302.988 270.286 307.142 266.804 307.698 261.019C307.906 258.857 308.774 256.376 309.938 254.617C312.077 251.384 312.337 249.058 310.785 247.007C309.011 244.661 309.505 243.929 314.591 241.368C319.068 239.113 324.039 234.729 324.039 233.036C324.039 232.658 325.816 228.174 327.986 223.071C330.157 217.969 331.933 213.43 331.933 212.984C331.933 212.538 332.61 210.817 333.437 209.158C337.108 201.797 339.991 192.462 340.446 186.47L340.904 180.431L343.701 178.869C354.252 172.973 350.732 151.962 339.194 151.962C336.982 151.962 333.947 148.948 330.882 143.706C324.728 133.182 321.682 131.094 307.354 127.576C300.625 125.923 300.307 125.953 292.324 128.993C289.055 130.237 288.918 130.235 287.721 128.911C284.598 125.46 276.553 124.631 271.292 127.219C269.32 128.19 266.626 128.987 265.308 128.991C262.836 128.998 257.343 132.254 257.314 133.73C257.264 136.299 254.769 136.974 249.32 135.891C243.527 134.742 226.828 133.28 214.958 132.885C210.814 132.747 202.579 132.307 196.658 131.907C190.738 131.507 180.081 131.255 172.977 131.344L160.059 131.509L151.09 128.383C146.158 126.664 140.86 124.613 139.317 123.826C135.139 121.695 125.535 123.577 120.655 127.484C119.237 128.619 115.293 127.534 114.786 125.869C113.546 121.789 111.203 121.11 104.967 123.018ZM112.336 126.126C112.336 126.917 112.013 127.562 111.618 127.562C111.224 127.562 110.901 127.427 110.901 127.262C110.901 127.097 110.705 126.451 110.465 125.827C110.18 125.082 110.426 124.691 111.182 124.691C111.857 124.691 112.336 125.287 112.336 126.126ZM140.832 127.204C144.258 128.585 147.483 129.715 147.999 129.715C148.514 129.715 148.936 130.038 148.936 130.433C148.936 131.708 130.876 131.345 129.002 130.033C126.797 128.489 126.987 127.818 130.097 126.176C133.649 124.301 133.631 124.299 140.832 127.204ZM282.266 128.608C283.145 129.488 281.618 129.827 278.873 129.364C277.161 129.075 276.139 128.566 276.404 128.137C276.84 127.431 281.461 127.802 282.266 128.608ZM118.642 130.824C118.31 131.156 108.762 133.308 107.806 133.266C107.337 133.246 108.871 132.495 111.214 131.597C114.581 130.308 119.691 129.776 118.642 130.824ZM310.468 132.26C319.506 134.997 320.724 135.705 324.213 140.251C330.753 148.773 330.738 149.724 324.015 152.199C319.352 153.917 318.779 153.776 314.793 149.955C312.098 147.371 310.253 146.275 307.394 145.559C300.679 143.877 299.228 142.978 296.427 138.759C294.959 136.547 293.467 134.739 293.111 134.739C291.41 134.739 292.782 133.088 295.513 131.848C299.621 129.984 303.281 130.084 310.468 132.26ZM268.107 131.868C268.462 131.868 269.42 133.178 270.237 134.779C273.157 140.503 281.114 142.194 285.53 138.031C289.005 134.752 293.181 136.162 293.181 140.614C293.181 145.752 268.796 143.388 262.34 137.624C258.91 134.563 261.96 130.129 266.508 131.566C267.033 131.732 267.753 131.868 268.107 131.868ZM125.536 133.003C128.275 140.144 120.691 143.626 110.237 140.026C105.193 138.29 104.911 137.221 109.248 136.271C111.144 135.857 114.956 134.719 117.718 133.746C123.731 131.626 124.962 131.509 125.536 133.003ZM104.083 133.304C104.357 133.746 103.119 134.021 100.854 134.021C98.5879 134.021 97.3511 133.746 97.6248 133.304C97.8684 132.908 99.3219 132.585 100.854 132.585C102.386 132.585 103.839 132.908 104.083 133.304ZM184.458 135.405C217.515 137.015 227.009 137.567 233.616 138.262C237.367 138.656 242.877 139.134 245.862 139.322C255.1 139.909 255.146 139.936 255.146 144.863C255.146 147.189 255.226 149.334 255.325 149.63C255.59 150.425 246.394 150.503 241.282 149.75C238.842 149.39 230.549 148.908 222.853 148.681C215.155 148.453 208.373 148.107 207.782 147.912C207.19 147.718 201.7 147.268 195.582 146.913C189.464 146.556 178.968 145.943 172.259 145.55C165.549 145.156 157.637 144.489 154.677 144.067C151.716 143.644 147.68 143.143 145.706 142.954C143.732 142.763 140.363 142.291 138.218 141.902C136.073 141.515 133.283 141.197 132.015 141.197C130.108 141.197 129.709 140.92 129.7 139.583C129.694 138.695 129.579 137.322 129.444 136.533C129.033 134.112 149.365 133.695 184.458 135.405ZM283.851 135.097C283.851 135.689 283.377 136.174 282.798 136.174C282.156 136.174 281.905 135.753 282.157 135.097C282.384 134.506 282.858 134.021 283.211 134.021C283.563 134.021 283.851 134.506 283.851 135.097ZM292.808 146.915C294.255 149.258 290.012 158.293 287.855 157.465C285.916 156.721 286.279 148.765 288.317 147.338C290.121 146.074 292.168 145.882 292.808 146.915ZM144.394 148.35C150.246 148.731 157.619 149.2 160.777 149.394C173.067 150.147 187.178 151.253 193.214 151.937C196.687 152.33 203.081 152.809 207.423 153.003C253.283 155.043 262.817 156.707 279.725 165.624C287.786 169.875 274.536 170.852 264.864 166.72C255.212 162.597 249.745 161.778 224.288 160.636C215.407 160.238 207.333 159.722 206.347 159.49C204.431 159.038 175.628 157.516 170.823 157.613C169.245 157.644 165.208 157.332 161.853 156.918C158.498 156.505 153.815 156.03 151.447 155.86C131.283 154.421 123.208 153.959 112.275 153.621L99.6545 153.229L98.1015 155.204C96.9923 156.615 96.5475 158.177 96.5475 160.67C96.5475 164.64 95.7023 165.166 94.3949 162.009C93.4057 159.62 92.5576 159.391 90.4901 160.956C87.4807 163.231 82.6766 160.184 84.0207 156.852C84.923 154.614 93.4588 149.893 99.0598 148.534C102.906 147.601 131.137 147.486 144.394 148.35ZM304.405 150.576C307.875 152.255 311.982 156.53 311.425 157.882C311.073 158.738 304.96 161.87 295.722 165.929L291.447 167.807L289.622 166.321C288.619 165.503 286.749 164.167 285.467 163.352C282.556 161.499 282.963 160.786 287.277 160.178C292.119 159.496 293.679 158.255 294.911 154.105C296.623 148.341 298.414 147.675 304.405 150.576ZM340.602 156.464C345.571 159.814 347.603 165.511 345.484 170.161C344.527 172.262 342.575 173.271 332.688 176.771C328.565 178.231 322.429 181.013 319.053 182.954C315.678 184.895 312.453 186.73 311.887 187.032C311.321 187.334 310.491 188.67 310.044 190.002C308.602 194.284 307.535 193.473 307.518 188.083C307.493 180.289 304.293 175.154 297.759 172.424C293.989 170.849 292.418 171.831 313.633 162.505C332.937 154.019 335.967 153.341 340.602 156.464ZM119.512 157.686C119.512 159.49 118.192 160.319 114.598 160.777C112.881 160.995 110.762 161.846 109.887 162.667C107.703 164.719 105.291 164.603 104.456 162.405C104.089 161.439 102.967 160.11 101.962 159.452C98.1257 156.938 99.7 156.412 111.08 156.412C118.684 156.411 119.512 156.536 119.512 157.686ZM124.807 163.336C124.243 169.401 122.89 168.88 142.836 170.277C151.124 170.857 162.428 171.682 167.953 172.111C173.479 172.539 183.49 173.16 190.199 173.49C196.909 173.82 208.938 174.451 216.931 174.893C232.253 175.739 234.334 175.488 234.334 172.791C234.334 171.021 233.475 170.536 228.635 169.57C224.537 168.752 223.384 167.334 224.909 164.985C225.497 164.08 242.513 164.827 248.508 166.021C252.672 166.85 248.829 171.413 244.459 170.827C240.597 170.309 237.863 175.917 241.511 176.872C242.3 177.078 242.946 177.801 242.946 178.479C242.946 180.32 242.119 180.793 241.171 179.494C240.483 178.554 237.911 178.229 227.106 177.716C219.833 177.371 209.038 176.738 203.117 176.312C197.197 175.884 187.347 175.242 181.229 174.884C175.111 174.527 169.46 174.105 168.671 173.946C167.32 173.675 164.492 173.437 149.653 172.35C146.299 172.104 143.356 171.785 143.116 171.64C142.875 171.496 139.161 171.323 134.863 171.256C130.564 171.189 123.98 170.736 120.23 170.25C113.014 169.313 112.336 169.379 112.336 171.021C112.336 172.419 112.028 172.348 108.802 170.212C107.269 169.198 104.45 168.106 102.537 167.785C97.2302 166.894 109.037 166.844 115.173 167.73C120.957 168.566 121.665 168.063 121.665 163.117C121.665 159.031 121.962 158.421 123.943 158.421C125.141 158.421 125.222 158.875 124.807 163.336ZM255.536 168.519C256.133 169.486 255.342 174.926 254.394 176.361C253.227 178.131 251.398 175.15 251.981 172.428C252.856 168.343 254.387 166.659 255.536 168.519ZM68.4063 176.407C68.7138 185.601 64.2365 189.033 63.1612 180.427C62.3499 173.931 63.8159 169.635 66.7034 170.047C68.0698 170.243 68.2187 170.801 68.4063 176.407ZM265.615 172.853C279.2 180.05 281.303 182.373 278.841 187.458C275.922 193.489 278.964 199.326 285.026 199.326C290.637 199.326 291.028 200.267 291.028 213.748C291.028 227.846 287.786 240.232 284.097 240.232C282.476 240.232 283.672 236.421 286.686 231.978C288.504 229.3 288.529 227.98 286.801 225.782C286.039 224.815 284.911 221.227 284.23 217.612C280.932 200.091 273.626 188.825 261.434 182.459C259.169 181.276 257.167 179.922 256.985 179.45C256.067 177.057 258.223 170.073 259.929 169.914C259.994 169.908 262.553 171.23 265.615 172.853ZM119.601 173.16C126.637 175.635 130.237 179.899 125.345 179.965C121.634 180.015 112.273 173.498 114.668 172.531C116.074 171.964 116.273 171.989 119.601 173.16ZM211.415 181.074C212.767 182.512 213.62 182.833 215.308 182.537C219.542 181.797 226.839 181.086 229.311 181.175C231.81 181.265 233.729 181.496 240.281 182.498C243.186 182.942 243.869 182.815 244.7 181.677C246.295 179.496 264.475 187.863 264.475 190.778C264.475 194.406 259.058 196.516 256.098 194.042C246.759 186.233 224.381 182.37 212.242 186.469C201.9 189.961 192.384 198.181 187.973 207.429C186.314 210.91 185.186 210.885 186.634 207.399C189.094 201.475 195.103 193.76 199.743 190.568C202.901 188.395 202.917 188.362 202.472 185.009C202.071 181.99 202.195 181.553 203.648 180.845C207.88 178.783 209.302 178.825 211.415 181.074ZM82.2008 182.094C79.409 186.016 75.7363 194.847 75.7266 197.665C75.7083 202.758 74.0305 205.378 72.4368 202.801C70.232 199.233 74.2026 188.898 80.32 182.282C83.0247 179.358 84.2364 179.236 82.2008 182.094ZM296.443 183.864C299.806 187.227 298.852 191.083 294.053 193.516C290.513 195.311 289.592 195.033 289.592 192.171C289.592 190.777 288.905 189.545 287.44 188.312C284.635 185.953 284.647 185.923 289.055 183.871C293.745 181.687 294.265 181.686 296.443 183.864ZM138.777 185.979C142.061 188.052 145.939 192.586 151.361 200.691C156.339 208.135 156.478 209.669 152.344 211.545C146.999 213.971 145.953 213.585 143.992 208.465C141.161 201.07 137.357 193.73 134.82 190.768C130.287 185.471 132.922 182.283 138.777 185.979ZM333.009 201.906C329.272 211.836 324.195 215.772 310.583 219.293C309.909 219.467 309.687 217.719 309.687 212.266V205.007L314.531 202.826C317.195 201.627 321.474 200 324.039 199.21C326.605 198.42 329.995 197.195 331.574 196.487C335.246 194.841 335.421 195.5 333.009 201.906ZM274.218 200.941C274.897 202.223 276.046 204.407 276.772 205.791C280.027 212.012 281.33 225.161 278.691 225.161C277.169 225.161 276.757 224.527 275.312 219.958C273.597 214.534 270.589 208.534 267.562 204.496C265.632 201.924 266.047 200.535 269.115 199.291C271.79 198.207 272.971 198.588 274.218 200.941ZM305.025 205.09C306.212 213.725 304.835 219.12 300.854 221.425C295.85 224.324 295.327 223.177 295.927 210.622L296.23 204.292L298.831 202.917C303.337 200.537 304.452 200.928 305.025 205.09ZM93.8708 211.717C102.891 215.846 108.785 224.575 109.249 234.49C109.652 243.077 109.505 243.169 101.765 239.177C92.4116 234.354 87.5881 228.9 82.9387 217.892C81.7096 214.983 80.1827 212.207 79.5454 211.725C78.5967 211.006 78.5687 210.79 79.3936 210.526C79.9477 210.349 80.8857 210.024 81.4775 209.803C83.6069 209.009 90.1681 210.021 93.8708 211.717ZM194.079 218.658C194.111 222.738 194.59 226.458 195.394 228.884L196.658 232.696L200.247 232.602C202.22 232.55 206.095 231.828 208.858 230.999C211.622 230.169 215.012 229.364 216.394 229.211C217.775 229.057 221.531 228.246 224.738 227.412C229.417 226.193 231.014 226.046 232.804 226.67C235.017 227.442 256.541 227.129 266.449 226.18C271.542 225.693 271.857 225.086 269.896 219.529C268.827 216.497 269.564 214.708 270.875 217.156C272.949 221.032 273.959 229.552 272.969 234.849C269.326 254.375 241.66 267.421 221.775 258.991C213.354 255.42 206.906 251.082 203.026 246.373C198.056 240.345 197.81 239.925 193.751 230.598C192.296 227.254 191.613 220.153 192.305 215.546C193.111 210.166 194.026 211.769 194.079 218.658ZM75.9017 227.673C76.537 228.857 78.2128 231.44 79.6256 233.411C82.3304 237.187 82.7269 238.695 81.3711 240.051C79.177 242.245 83.3168 245.166 86.7632 243.856C88.1412 243.332 88.9371 243.474 90.2184 244.472C94.8127 248.052 99.5443 248.935 104.083 247.059C105.172 246.608 105.086 246.813 103.725 247.909C90.9446 258.188 70.498 243.539 71.6062 224.898C72.1438 215.861 73.7239 213.074 74.3042 220.137C74.5478 223.098 75.2663 226.488 75.9017 227.673ZM155.651 227.5C153.697 233.359 150.779 236.871 147.094 237.796C144.461 238.456 144.462 238.302 147.105 231.001C149.923 223.219 149.259 224.146 153.264 222.411C157.572 220.543 157.805 221.04 155.651 227.5ZM304.956 242.975C305.533 244.089 306.509 245.421 307.127 245.933C309.916 248.247 307.625 255.903 303.044 259.578L300.845 261.343L297.731 257.803C294.025 253.593 293.918 252.645 296.836 249.875C298.057 248.715 299.839 246.233 300.795 244.358C302.807 240.414 303.512 240.18 304.956 242.975Z" fill="#FFEE00"/>
</svg>
