<svg width="400" height="400" viewBox="0 0 400 400" fill="none" xmlns="http://www.w3.org/2000/svg">
<path style="fill:#FF0000;" d="M326.183,182.533c-0.601-2.17-0.835-3.672-0.701-4.674c0.267-2.471-3.238-17.327-5.108-21.601
	c-0.334-0.734-0.801-1.836-1.035-2.437c-0.267-0.601-0.634-1.002-0.868-0.935c-0.2,0.1-0.467-0.033-0.568-0.3s0-0.501,0.167-0.568
	c0.668-0.234-0.734-4.407-2.905-8.614c-1.636-3.205-3.172-5.509-6.677-10.016c-2.504-3.205-5.642-7.044-6.944-8.513l-2.37-2.671
	l2.003,1.703c2.938,2.504,5.609,5.409,6.978,7.579c0.768,1.202,1.469,1.903,1.836,1.903c0.334,0,1.035,0.568,1.569,1.235
	c1.369,1.803,3.839,4.44,4.173,4.44c0.501,0,0.334-1.102-0.3-2.07c-4.507-6.911-9.949-13.855-12.52-15.959
	c-1.335-1.102-3.706-3.405-5.342-5.141c-1.836-2.003-3.94-3.873-5.709-5.041c-3.238-2.137-3.439-2.337-3.606-3.639
	c-0.1-0.868-0.768-1.469-5.008-4.374c-2.704-1.87-5.308-3.906-5.809-4.474c-0.501-0.601-1.636-1.436-2.537-1.903
	s-2.304-1.335-3.138-1.97s-1.669-1.169-1.87-1.169s-3.439-1.235-7.178-2.738c-5.175-2.07-6.944-2.938-7.178-3.472
	c-0.434-0.935-2.504-1.603-10.383-3.506c-4.273-1.035-5.776-1.536-5.375-1.736c0.467-0.267,0.467-0.367,0.1-0.601
	c-0.668-0.434-2.103-0.367-2.571,0.1c-0.3,0.3-0.534,0.267-0.968-0.134c-0.334-0.3-1.469-0.701-2.504-0.901
	c-1.035-0.167-2.638-0.701-3.506-1.135c-2.27-1.135-5.141-1.536-11.451-1.536c-7.879,0-21.701,2.003-21.701,3.138
	c0,0.267-0.501,0.534-1.169,0.668c-0.634,0.1-1.736,0.267-2.404,0.367c-0.701,0.1-2.404,0.568-3.773,1.035
	c-1.369,0.434-3.038,0.868-3.706,0.935c-1.502,0.134-6.243,2.003-7.145,2.804c-0.367,0.334-1.335,0.768-2.17,1.002
	c-1.536,0.434-4.641,2.17-6.277,3.506c-0.501,0.401-1.603,1.002-2.471,1.335c-0.835,0.3-2.203,1.135-3.005,1.836
	c-1.245,1.089-1.356,1.077-3.272,2.537c-1.881,1.434-4.899,3.71-5.137,3.9c-2.627,2.101-4.619,4.044-6.849,6.216
	c-1.55,1.51-3.409,3.396-3.501,3.31c-0.017-0.016,0.024-0.093,0.129-0.238c0.634-0.835,3.706-4.073,6.811-7.178
	c11.084-11.084,21.834-17.928,39.496-25.173c4.874-2.003,17.394-6.076,21.067-6.878c0.568-0.1,1.068-0.367,1.068-0.534
	c0-0.367-4.674-0.334-6.51,0.067c-0.734,0.167-2.871,0.367-4.774,0.467c-3.773,0.2-5.676,0.568-12.253,2.337
	c-3.94,1.068-7.011,1.602-4.173,0.768l1.169-0.367c-0.917-0.249-1.641-0.32-2.103-0.34c-0.353-0.016-0.666-0.007-0.896,0
	c-0.53,0.015-0.802,0.024-1.114,0.099c-0.437,0.105-0.733,0.282-0.894,0.375c-0.111,0.064-0.904,0.252-2.337,0.968
	c-0.734,0.367-3.138,1.002-5.342,1.469c-3.973,0.835-4.44,1.035-13.354,5.509c-0.167,0.1-0.1-0.134,0.167-0.467
	c0.434-0.568,0.434-0.601,0-0.334c-0.267,0.134-0.734,0.467-1.002,0.701s-1.402,0.734-2.504,1.169
	c-6.544,2.37-18.896,9.281-22.035,12.286c-1.87,1.803-5.809,4.841-6.01,4.641c-0.067-0.067,1.369-1.836,3.238-3.94
	c1.836-2.103,3.472-4.106,3.639-4.44c0.534-0.968-1.402-0.701-2.905,0.401c-1.603,1.168-14.156,13.889-17.394,17.594
	c-5.576,6.41-17.962,24.171-20.799,29.814c-0.768,1.536-2.471,5.509-3.739,8.847c-5.509,14.256-6.076,16.459-6.644,25.674
	c-0.634,10.116,0.534,22.836,3.038,32.919c0.734,3.005,1.269,5.542,1.169,5.642c-0.1,0.1-0.167,0-0.167-0.234s-0.134-0.3-0.334-0.2
	c-0.401,0.234-0.467,1.502-0.067,1.502c0.134,0,0.434-0.167,0.634-0.367c0.234-0.234,0.401-0.033,0.568,0.734
	c0.1,0.601,0.134,1.135,0.033,1.235s-0.167-0.067-0.167-0.367c0-0.334-0.167-0.568-0.367-0.568c-0.734,0,1.269,7.145,3.272,11.518
	c1.97,4.273,3.739,8.513,3.606,8.513c-0.2,0-3.272-5.575-5.108-9.181c-0.901-1.836-2.37-5.308-3.205-7.679
	c-0.868-2.404-1.903-5.108-2.37-6.009c-1.002-2.103-5.742-25.407-6.176-30.415c-0.334-3.706-0.067-8.48,0.835-15.591
	c0.267-2.17,0.467-5.576,0.467-7.512c0-2.337,0.167-4.14,0.501-5.242c0.3-0.935,0.534-2.37,0.534-3.238
	c0-0.868,0.167-1.97,0.367-2.504c0.2-0.501,0.501-1.836,0.634-2.938c0.167-1.102,0.401-2.437,0.534-2.971
	c0.167-0.701,0.134-0.901-0.167-0.734c-0.2,0.134-0.367,0.568-0.367,1.002c0,0.401-0.134,0.868-0.3,1.068
	c-0.467,0.434-1.703,5.108-1.703,6.377c0,0.601-0.434,1.936-0.968,3.005c-1.269,2.471-2.437,9.148-2.037,11.585
	c0.167,1.102,0.1,2.203-0.2,3.339c-0.267,0.935-0.467,3.005-0.467,4.574s-0.167,3.672-0.334,4.674
	c-0.234,1.269-0.234,2.37,0.033,3.639c0.2,1.002,0.401,4.006,0.467,6.677c0.067,3.305,0.3,5.943,0.801,8.28
	c0.801,3.94,0.868,4.54,0.3,4.207c-0.267-0.167-0.334,0.734-0.167,3.639c0.234,3.906,0.434,5.041,0.901,4.741
	c0.134-0.067,0.334,0.868,0.434,2.103s0.434,2.905,0.701,3.706c0.3,0.801,0.835,2.871,1.169,4.574
	c0.768,3.773,2.103,6.878,2.871,6.744c0.668-0.134,1.335,1.569,1.87,4.741c0.467,2.704,1.002,3.973,2.638,6.51
	c0.734,1.102,1.536,2.671,1.836,3.472c0.634,1.87,1.135,2.471,1.87,2.27c0.467-0.134,0.701,0.2,1.102,1.369
	c0.601,1.736,0.501,2.27-0.134,0.734c-0.401-0.935-1.002-1.369-1.002-0.701c0,0.634,1.769,4.374,2.037,4.374
	c0.434,0,0.367-1.135-0.1-1.603c-0.2-0.2-0.3-0.467-0.2-0.568s1.202,1.569,2.471,3.739c2.938,5.108,5.175,8.48,7.278,10.951
	l1.703,1.97l-2.504-1.936c-4.04-3.172-6.544-5.776-9.615-10.049c-1.603-2.203-3.672-4.874-4.641-5.909
	c-0.968-1.068-1.769-2.137-1.769-2.37s-0.3-0.734-0.634-1.135c-0.367-0.401-1.002-2.17-1.502-4.207
	c-1.169-4.908-2.604-8.18-3.172-7.278c-0.234,0.334-2.036-4.908-2.036-5.809c0-0.2-0.3-0.534-0.634-0.734
	c-0.401-0.267-0.801-1.102-1.035-2.337c-0.501-2.337-1.302-4.44-1.703-4.44c-0.501,0-0.334,2.504,0.3,4.607
	c0.367,1.068,1.135,2.671,1.703,3.539c0.701,1.002,1.202,2.203,1.335,3.305c0.434,2.971,3.639,10.85,5.041,12.42
	c0.334,0.367,1.402,2.237,2.37,4.173c6.443,12.92,16.359,24.138,32.084,36.324c1.97,1.502,3.672,2.905,3.773,3.072
	s-2.103-1.402-4.874-3.506c-2.771-2.103-5.175-3.839-5.308-3.839c-0.568,0-0.634,0.501-0.167,1.235
	c0.467,0.701,0.467,0.768-0.033,0.768c-0.367,0,0,0.601,1.102,1.803c1.736,1.97,5.108,4.04,5.375,3.272
	c0.234-0.701,2.003,0.835,2.237,1.936c0.267,1.169,2.037,2.504,8.28,6.343c2.137,1.335,3.906,2.471,3.906,2.537
	c0,0.267-1.235-0.367-3.138-1.603c-2.07-1.335-3.305-1.703-2.537-0.768c1.202,1.436,8.246,5.409,12.52,7.044
	c1.102,0.401,3.973,1.736,6.343,2.971c4.207,2.137,9.448,4.04,10.283,3.739c0.234-0.067,1.002,0.167,1.703,0.534
	c3.339,1.669,5.843,2.304,13.354,3.405c4.24,0.634,8.814,1.369,10.149,1.636c1.335,0.3,2.771,0.534,3.172,0.501
	c0.634-0.033,0.601-0.067-0.267-0.467s0.033-0.467,7.612-0.501c6.911,0,8.647-0.1,8.781-0.467c0.134-0.3,1.302-0.501,4.307-0.668
	c2.27-0.134,5.008-0.401,6.076-0.568c1.068-0.2,2.571-0.434,3.339-0.534c0.801-0.1,1.335-0.3,1.269-0.434
	c-0.1-0.167,0.467-0.434,1.235-0.601c3.305-0.768,10.416-2.871,14.189-4.273c2.27-0.801,4.307-1.469,4.607-1.469
	c0.267,0,0.501-0.167,0.501-0.334c0-0.2-0.334-0.334-0.734-0.334c-1.369-0.033,0.167-0.668,2.437-1.035
	c2.17-0.334,3.305-0.868,3.305-1.569c0-0.3,0.334-0.367,1.202-0.2c1.002,0.167,1.169,0.134,1.068-0.334
	c-0.067-0.434,0.401-0.801,1.736-1.369c1.102-0.434,1.97-1.068,2.17-1.502c0.2-0.467,1.335-1.235,3.005-2.003
	c2.337-1.135,3.272-1.87,7.612-6.143c2.704-2.671,4.908-5.008,4.908-5.208c0-0.467-1.102-0.434-1.603,0.067
	c-0.2,0.2-0.467,0.3-0.568,0.2s0.901-0.968,2.237-1.936c1.335-0.968,2.637-1.97,2.871-2.27c0.601-0.768,0.501-1.402-0.267-1.402
	c-0.935,0-0.835-0.367,0.367-1.536c1.703-1.603,1.803-2.037,0.734-2.971l-0.935-0.801l2.938-2.804
	c1.603-1.536,2.905-2.971,2.905-3.172c0-1.169-4.374,0.434-8.58,3.138c-4.908,3.138-12.253,7.378-15.291,8.814
	c-3.973,1.903-15.257,5.676-20.399,6.844c-2.37,0.568-5.542,0.935-9.148,1.169c-7.445,0.434-7.545,0.434-5.342-0.434
	c2.404-0.968,2.671-1.135,2.671-1.936c0-0.467-0.3-0.701-1.002-0.835c-0.534-0.134-1.002-0.334-1.002-0.501
	c0-0.267,2.471-1.502,7.011-3.572c3.606-1.603,5.342-3.539,4.407-4.941c-0.501-0.801-2.738-1.102-5.676-0.801
	c-9.181,0.935-12.72,1.068-16.125,0.668c-1.903-0.2-3.672-0.501-3.973-0.668c-0.267-0.134-2.237-0.334-4.34-0.434
	c-3.706-0.167-4.073-0.234-11.351-2.704c-4.14-1.402-8.18-2.938-8.981-3.439c-0.801-0.467-2.471-1.803-3.739-2.971
	c-1.269-1.135-3.572-2.871-5.141-3.806c-5.976-3.606-13.588-10.416-18.296-16.426c-4.841-6.176-5.876-7.679-6.61-9.815
	c-0.367-1.068-1.102-2.537-1.603-3.272c-1.603-2.304-3.072-5.475-2.638-5.609c0.634-0.234-0.434-2.704-1.335-3.105
	c-0.534-0.234-0.734-0.601-0.734-1.335c0-0.534-0.601-2.871-1.302-5.175c-0.734-2.27-1.302-4.207-1.235-4.273
	c0.067-0.033,0.467,0.634,0.901,1.502c0.801,1.569,1.836,2.537,3.172,2.905c0.568,0.167,0.835,0,1.269-0.935
	c0.701-1.502,0.668-4.006-0.134-8.046c-0.401-1.903-0.835-6.31-1.068-10.216c-0.401-7.078-0.367-7.545,0.835-12.653
	c0.267-1.202,0.768-3.606,1.068-5.342c1.035-6.01,3.372-12.954,4.44-13.288c0.234-0.067,1.102,0.568,1.936,1.402
	c0.801,0.835,1.602,1.536,1.769,1.536s0.3-0.634,0.267-1.436c-0.067-1.269,0-1.402,0.801-1.502c0.668-0.067,0.868,0.033,0.835,0.568
	c-0.033,0.367,0.1,0.701,0.267,0.734c0.367,0.033,0.835-0.801,2.037-3.506c1.335-3.105,4.14-7.044,7.679-10.884
	c1.803-1.936,3.539-4.106,3.906-4.841c0.668-1.369,4.073-4.24,9.782-8.346c5.075-3.639,12.854-6.944,16.059-6.878
	c1.436,0.033,1.936-0.1,2.804-0.868c0.935-0.768,1.002-0.935,0.501-1.102c-0.534-0.2-0.467-0.3,0.434-0.968
	c1.569-1.102,6.878-3.539,9.916-4.541c1.469-0.467,5.208-1.469,8.313-2.203l5.642-1.335l3.205,0.534
	c6.677,1.135,15.758,3.739,20.566,5.909c5.375,2.404,20.165,9.916,21.601,10.984c0.701,0.467,1.936,1.068,2.804,1.269
	c0.868,0.234,2.304,0.768,3.205,1.235c2.504,1.269,4.607,1.569,7.211,0.968c2.637-0.634,3.205-0.534,9.849,1.569
	c8.914,2.771,14.823,6.277,20.9,12.286c4.774,4.707,8.28,9.582,11.218,15.524c3.172,6.444,4.474,10.016,6.243,17.294
	c0.801,3.238,1.536,5.909,1.703,5.909c0.134,0,0.234-0.668,0.234-1.469c0-0.868,0.2-1.603,0.501-1.87
	C327.252,187.541,327.185,186.172,326.183,182.533z M81.464,201.396c-0.134-0.134-0.3-0.901-0.3-1.669
	c-0.033-0.768-0.134-2.37-0.267-3.572c-0.167-1.636-0.134-1.87,0.1-1.002c0.167,0.634,0.401,2.37,0.534,3.839
	S81.631,201.53,81.464,201.396z M83.2,213.348l-0.2-1.669l0.501,1.669c0.267,0.901,0.501,1.903,0.501,2.17
	C83.968,216.62,83.4,215.018,83.2,213.348z M153.11,300.853c0.768,0.3,1.302,0.601,1.235,0.668c-0.067,0.1-0.801-0.134-1.603-0.501
	C150.94,300.219,151.241,300.118,153.11,300.853z M137.686,294.309c0.234,0,1.035,0.3,1.769,0.701
	c0.768,0.367,1.302,0.768,1.202,0.835c-0.1,0.1-0.901-0.2-1.803-0.668C137.987,294.71,137.452,294.343,137.686,294.309z
	 M102.43,120.268c-2.17,2.771-4.04,7.011-2.571,5.776c0.3-0.234,1.068-1.436,1.736-2.637
	c0.668-1.202,1.569-2.704,2.003-3.305C104.767,118.532,103.699,118.666,102.43,120.268z
	 M317.737,196.121c-1.769-2.838-2.537-3.205-3.672-1.769c-0.367,0.467-0.768,1.135-0.868,1.469
	s-0.701,0.935-1.335,1.302c-0.901,0.501-1.169,0.901-1.169,1.603c-0.033,1.135-0.801,4.541-2.604,11.451
	c-0.734,2.838-1.536,6.277-1.736,7.645c-0.267,1.536-0.835,3.238-1.536,4.574c-0.601,1.168-1.636,3.706-2.304,5.676
	c-0.668,1.936-3.072,7.412-5.409,12.119c-2.304,4.707-4.774,10.25-5.475,12.319c-5.308,15.324-14.623,29.113-27.51,40.664
	c-14.356,12.854-33.787,22.102-53.618,25.474c-14.99,2.571-32.284,1.603-49.545-2.704c-13.588-3.372-30.014-10.583-40.03-17.561
	c-1.469-1.002-3.372-2.103-4.273-2.437c-0.868-0.3-3.105-1.636-4.941-2.938s-3.439-2.37-3.539-2.37
	c-1.235,0,5.108,5.509,10.617,9.248c1.803,1.202,3.138,2.37,3.038,2.537c-0.1,0.2-0.033,0.234,0.2,0.1
	c0.2-0.134,0.801,0,1.302,0.334s2.704,1.569,4.908,2.738c2.203,1.168,3.672,2.036,3.272,1.97c-0.501-0.1-0.768,0-0.768,0.267
	c0,0.467,4.34,2.804,8.013,4.34c1.202,0.501,3.138,1.502,4.34,2.203c2.203,1.302,10.917,4.741,16.693,6.577
	c5.475,1.736,13.822,3.172,20.866,3.606c1.669,0.1,3.839,0.467,4.841,0.801c2.771,0.901,12.42,1.369,17.528,0.835
	c1.335-0.134,2.704-0.1,3.172,0.1c0.634,0.234-0.334,0.367-4.006,0.568c-10.35,0.534-11.919,0.668-11.017,1.102l0.835,0.367h-0.901
	c-1.302,0.033-1.202,0.901,0.167,1.169c1.502,0.267,15.625-0.033,20.432-0.467c2.203-0.2,4.975-0.568,6.176-0.835
	c2.471-0.568,8.346-1.302,8.547-1.068c0.067,0.067-0.868,0.3-2.137,0.534c-2.337,0.401-3.873,1.035-2.571,1.002
	c0.367,0,2.203-0.267,4.107-0.601c1.87-0.334,3.405-0.467,3.405-0.367c0,0.334-1.235,0.668-2.504,0.668
	c-1.035,0-4.741,1.603-3.839,1.636c1.002,0.067,14.022-3.105,14.022-3.405c0-0.167-0.267-0.2-0.568-0.067
	c-0.334,0.134-2.638,0.3-5.108,0.367l-4.507,0.134l3.339-1.002c8.947-2.738,12.219-3.839,14.49-4.874
	c2.203-1.035,5.041-1.803,5.041-1.402c0,0.067-1.436,0.734-3.172,1.436c-1.803,0.701-3.172,1.469-3.172,1.736
	c0,0.234,0.2,0.434,0.434,0.467c0.2,0-0.601,0.367-1.803,0.801c-2.404,0.835-3.773,1.469-3.572,1.703
	c0.234,0.234,6.243-1.502,7.579-2.203c0.734-0.367,2.27-1.002,3.439-1.436c1.135-0.467,3.372-1.469,4.941-2.27
	c2.337-1.202,3.172-1.436,4.841-1.502c1.803-0.033,2.337-0.234,5.676-2.137c8.447-4.874,14.723-9.181,17.761-12.253
	c0.968-0.968,2.905-2.504,4.307-3.472c7.445-5.008,18.262-19.063,26.075-33.887c2.437-4.707,3.539-7.512,5.642-14.79
	c2.771-9.515,3.973-16.259,4.44-24.672C323.713,214.917,321.543,202.097,317.737,196.121z M200.185,328.563
	c-1.402,0.267-2.938,0.367-4.34,0.2l-2.17-0.234l2.838-0.2c1.569-0.1,3.506-0.2,4.34-0.2
	C202.255,328.096,202.221,328.129,200.185,328.563z
	 M72.984,197.223c0,1.035,0.167,2.003,0.334,2.103c0.434,0.267,0.434-2.838,0-3.506
	C73.084,195.453,72.984,195.854,72.984,197.223z M73.986,203.933c0,1.068,1.703,7.979,2.137,8.814l0.501,0.935l0.033-0.835
	c0.033-1.669-1.803-9.348-2.237-9.348C74.186,203.499,73.986,203.7,73.986,203.933z
	 M93.349,253.411c0,0.434,3.205,5.509,3.472,5.509c0.534,0-0.134-2.07-0.901-2.838
	c-0.401-0.401-1.002-1.202-1.302-1.769C94.117,253.411,93.349,252.844,93.349,253.411z
	 M100.694,262.76c0,0.267,0.167,0.501,0.334,0.501c0.2,0,0.334,0.167,0.334,0.334
	c0,0.2,0.267,0.668,0.601,1.035c0.768,0.801,1.269,1.836,1.536,3.038c0.1,0.501,0.935,1.703,1.87,2.671
	c1.436,1.536,1.636,1.669,1.669,1.002c0-0.401-0.234-1.135-0.534-1.603c-0.501-0.734-0.501-0.801-0.033-0.601
	c0.3,0.1,0.634,0.467,0.734,0.835c0.2,0.601,1.169,0.901,1.169,0.367c0-0.568-2.17-3.072-2.671-3.072
	c-0.267,0-0.668-0.334-0.835-0.734c-0.2-0.434-0.734-0.935-1.202-1.169c-0.467-0.234-1.269-1.035-1.769-1.769
	C100.961,262.159,100.694,261.992,100.694,262.76z
	 M110.042,274.945c0.634,0.901,2.137,1.636,2.504,1.269c0.334-0.3-1.836-2.27-2.504-2.27h-0.701
	L110.042,274.945z M122.395,285.829c0,0.401,2.07,2.137,2.537,2.137c0.768,0,0.534-0.434-0.668-1.436
	C123.163,285.696,122.395,285.395,122.395,285.829z
	 M238.912,323.889c-1.769,0.634-2.437,1.135-1.469,1.135c0.835,0,3.839-0.968,4.307-1.369
	C242.251,323.188,240.582,323.322,238.912,323.889z
	 M173.276,326.16c0.801,0.367,0.868,0.467,0.367,0.668c-1.002,0.367-0.3,0.634,2.738,1.035
	c1.636,0.234,4.14,0.734,5.609,1.135c2.037,0.568,3.138,0.668,4.607,0.501c1.769-0.2,3.005-0.801,1.669-0.801
	c-2.604-0.067-11.485-1.669-11.251-2.037c0.2-0.367-2.103-0.968-3.539-0.935l-1.169,0.033L173.276,326.16z
	 M180.821,326.961c0.768,0.334,2.337,0.534,4.507,0.601c1.836,0.033,2.905,0,2.337-0.067
	c-0.534-0.1-2.103-0.367-3.472-0.634c-1.335-0.267-2.905-0.501-3.506-0.467l-1.035,0.033L180.821,326.961z"/>
</svg>
