<svg width="400" height="400" viewBox="0 0 400 400" fill="none" xmlns="http://www.w3.org/2000/svg">
<path fill-rule="evenodd" clip-rule="evenodd" d="M255.619 95.5836C248.86 97.8025 235.468 105.719 226.069 113.053C218.414 119.024 212.359 125.484 209.638 130.581C206.655 136.17 207.354 136.86 216.002 136.86C223.592 136.86 223.917 137.043 222.372 140.436C221.602 142.129 221.025 142.405 218.938 142.082C215.474 141.546 211.957 143.898 209.612 148.318L207.695 151.932L210.043 156.314L212.392 160.697L219.138 160.932C223.043 161.069 228.825 160.611 232.873 159.843C242.395 158.039 243.581 157.829 246.02 157.511C247.184 157.359 248.82 157.029 249.655 156.774C255 155.149 275.199 152.981 285.25 152.951C299.509 152.911 302.117 153.636 308.312 159.372C313.822 164.473 314.389 164.268 314.699 157.06C315.105 147.562 310.777 139.974 300.823 132.734C294.188 127.909 293.784 126.045 297.243 116.257C300.249 107.756 299.422 102.213 294.486 97.7492C290.415 94.0681 264.615 92.6299 255.619 95.5836ZM89.1744 115.861C80.5558 116.911 75.6205 119.094 66.7537 125.779L62.5119 128.978V133.69C62.5119 138.312 64.5228 142.815 71.3591 153.504C72.8964 155.908 71.9993 158.411 67.7684 163.524C60.1656 172.711 58.3866 180.125 61.372 190.18C64.059 199.227 65.2893 199.802 68.7058 193.612C75.1861 181.872 90.7574 174.517 108.566 174.788C109.678 174.805 111.859 174.47 113.414 174.044C114.969 173.618 122.605 172.896 130.382 172.441C153.716 171.073 160.092 169.446 162.782 164.173C164.845 160.129 164.731 158.837 161.911 154.39L159.505 150.596H152.667C148.906 150.596 145.649 150.307 145.43 149.952C144.404 148.29 149.197 144.94 152.601 144.94C167.536 144.94 152.353 129.313 130.631 122.327C127.605 121.354 124.04 120.075 122.706 119.484C116.193 116.6 98.6542 114.704 89.1744 115.861ZM179.668 131.174C179.002 131.55 176.09 132.963 173.197 134.314C170.304 135.665 166.911 137.842 165.657 139.151L163.376 141.532L167.887 149.014L172.398 156.496L172.101 165.28C171.887 171.624 171.466 174.453 170.585 175.461C169.914 176.228 167.461 179.947 165.134 183.724C156.727 197.377 146.099 205.453 127.15 212.588C124.262 213.675 121.534 214.838 121.09 215.171C120.646 215.505 118.1 216.63 115.434 217.67C96.7379 224.966 83.8144 236.725 74.6036 254.826C70.5186 262.853 70.0014 280.681 73.8545 280.681C74.2062 280.681 77.8895 277.299 82.0365 273.165C87.2299 267.989 91.3399 264.711 95.2344 262.639C98.345 260.984 101.436 259.286 102.102 258.866C104.221 257.531 116.931 251.851 120.081 250.832C150.276 241.064 177.624 208.496 178.303 181.495L178.456 175.408L181.285 175.154C188.192 174.533 189.922 174.278 190.771 173.753C191.964 173.016 192.934 174.657 193.083 177.664C194.27 201.501 216.099 233.976 242.575 251.293C248.696 255.296 261.147 262.098 262.355 262.098C262.623 262.098 264.762 262.961 267.108 264.016C269.454 265.071 273.374 266.569 275.818 267.344C278.262 268.121 281.352 269.225 282.686 269.798C284.019 270.372 287.473 271.763 290.362 272.889C307.161 279.436 324.906 291.877 331.684 301.859C337.419 310.304 340.083 306.884 339.998 291.185C339.895 271.724 322.198 244.532 302.078 232.915C295.586 229.166 283.729 223.315 282.625 223.315C282.301 223.315 279.818 222.275 277.108 221.006C274.4 219.736 270.183 218.052 267.739 217.263C265.294 216.474 262.931 215.576 262.486 215.267C262.042 214.958 259.86 214.054 257.638 213.259C237.378 206.008 223.217 195.801 213.619 181.53C210.396 176.737 206.613 171.859 205.214 170.69L202.668 168.564L202.811 158.57C202.889 153.074 202.668 148.213 202.321 147.769C201.972 147.324 201.426 145.153 201.106 142.944C199.994 135.275 186.017 127.601 179.668 131.174ZM259.659 159.554C258.547 159.905 253.276 160.983 247.943 161.95C242.61 162.916 237.784 164.081 237.218 164.539C236.651 164.996 235.958 165.14 235.676 164.858C235.394 164.577 234.634 164.786 233.985 165.325C233.309 165.886 229.428 166.439 224.872 166.622C218.71 166.869 216.832 167.215 216.465 168.174C215.793 169.924 218.105 173.102 220.481 173.698C221.587 173.976 222.491 174.481 222.491 174.822C222.491 175.163 225.128 176.25 228.35 177.239C231.571 178.228 234.753 179.233 235.419 179.472C246.232 183.36 286.238 184.082 293.998 180.528C294.887 180.121 297.353 179.053 299.479 178.154C309.395 173.959 307.046 164.057 295.451 161.177C293.318 160.648 290.483 159.883 289.15 159.48C286.226 158.595 262.507 158.654 259.659 159.554ZM155.231 175.303C154.32 176.215 149.991 176.618 134.422 177.243C119.2 177.855 104.341 179.778 102.403 181.386C101.887 181.814 101.154 182.094 100.774 182.008C100.394 181.922 99.5371 182.077 98.8708 182.353C98.2045 182.629 95.2235 183.754 92.2479 184.853C76.5144 190.662 69.3569 201.263 77.9515 206.028C82.5755 208.59 103.809 206.826 116.242 202.848C116.686 202.705 119.777 201.759 123.11 200.746C139.34 195.81 160.278 182.29 160.278 176.745C160.278 174.906 156.662 173.873 155.231 175.303Z" fill="#0000FF"/>
</svg>
