<svg width="400" height="400" viewBox="0 0 400 400" fill="none" xmlns="http://www.w3.org/2000/svg">
<path fill-rule="evenodd" clip-rule="evenodd" d="M96.7918 87.6958C97.8245 89.9641 98.1193 98.0569 97.2585 100.525C96.2643 103.378 97.0941 104.43 98.4108 101.986C99.2951 100.346 99.4371 100.309 99.9358 101.595C101.213 104.885 97.4593 110.977 86.89 122.765C84.7402 125.162 80.7579 130.438 78.04 134.488C73.1734 141.743 70.5228 143.36 72.9257 137.609C73.5888 136.021 73.8067 134.541 73.4137 134.297C72.5113 133.74 69.3406 142.976 70.1223 143.885C70.4416 144.256 71.1433 146.164 71.6826 148.126C72.6501 151.644 77.9716 160.408 78.6989 159.682C78.905 159.476 78.4981 157.62 77.7954 155.557C74.5083 145.912 78.0261 136.129 89.1027 124.107C102.875 109.16 105.243 101.799 99.8344 90.7523C97.926 86.8554 95.1312 84.0467 96.7918 87.6958ZM93.4812 107.83C92.2884 109.724 88.6061 114.228 85.3009 117.838C77.5551 126.3 77.0265 128.163 84.5918 120.338C90.6768 114.044 96.9243 105.658 96.1233 104.858C95.8638 104.599 94.6752 105.936 93.4812 107.83ZM198.567 127.678C191.318 129.686 187.222 139.057 190.25 146.706C190.847 148.215 190.843 148.216 180.933 149.766C177.554 150.295 174.791 151.022 174.791 151.383C174.791 151.744 174.345 151.873 173.801 151.67C172.55 151.206 163.02 157.203 162.386 158.853C161.74 160.535 162.625 161.232 163.98 160.107C164.593 159.598 166.117 159.211 167.366 159.246C168.617 159.282 172.314 158.962 175.583 158.536C190.773 156.559 227.189 156.853 232.646 158.998C233.299 159.255 234.48 159.384 235.269 159.285C236.057 159.187 237.212 159.528 237.834 160.045C239.928 161.783 241.851 160.288 240.084 158.296C235.675 153.328 229.815 150.973 215.911 148.586L213.046 148.094L213.393 142.761C214.076 132.279 207.201 125.286 198.567 127.678ZM200.831 130.77C206.125 132.615 204.224 140.72 198.729 139.73C193.132 138.722 191.683 135.738 195.072 132.201C197.587 129.576 197.482 129.602 200.831 130.77ZM183.905 160.576C181.726 160.729 179.407 161.059 178.754 161.311C178.1 161.562 176.317 161.863 174.791 161.978C173.266 162.093 171.482 162.349 170.829 162.546C170.174 162.743 167.427 163.545 164.724 164.327C159.263 165.907 158.163 166.884 156.637 171.505C155.573 174.726 150.136 186.375 148.684 188.545C129.128 217.764 124.216 238.17 131.551 259.734C137.988 278.661 156.896 296.164 171.046 296.294C174.38 296.325 174.924 296.575 175.616 298.396C176.288 300.163 176.584 300.314 177.645 299.432C178.6 298.64 184.167 298.39 201.606 298.354C236.026 298.286 242.172 296.585 256.368 283.192C278.702 262.125 281.299 231.512 263.16 203.157C257.514 194.33 249.031 178.555 247.206 173.487C244.735 166.625 241.37 164.051 233.042 162.652C218.88 160.273 199.793 159.466 183.905 160.576ZM284.16 163.707C272.698 165.483 257.152 174.572 255.232 180.622C254.64 182.487 257.627 188.461 262.534 195.226C266.679 200.942 267.404 200.816 267.404 194.379C267.404 172.184 295.239 166.918 311.951 185.952C332.325 209.156 308.82 251.637 282.885 238.484C280.317 237.182 278.127 236.112 278.018 236.107C277.909 236.101 277.808 238.147 277.794 240.654C277.767 245.394 276.703 254.211 275.787 257.297C274.882 260.343 292.591 259.108 296.516 255.851C297.041 255.414 298.185 254.92 299.056 254.753C309.957 252.653 326.6 230.373 328.248 215.673C328.528 213.175 329.105 210.691 329.53 210.153C330.338 209.127 330.21 207.862 328.294 197.965C323.978 175.668 304.507 160.554 284.16 163.707ZM94.7457 170.699C92.3482 172.588 90.208 174.108 89.9902 174.077C89.7723 174.046 87.9889 174.736 86.0271 175.609C84.0663 176.484 81.4285 177.454 80.1673 177.764C75.384 178.943 83.3636 181.412 91.9541 181.412C100.504 181.412 107.248 184.917 111.451 191.545C113.594 194.923 116.618 203.192 116.254 204.677C116.163 205.05 116.463 205.807 116.922 206.359C117.381 206.913 117.532 207.95 117.258 208.664C116.983 209.378 117.11 210.405 117.54 210.944C117.969 211.483 118.557 216.205 118.847 221.435C119.493 233.112 120.612 242.116 122.197 248.38C123.469 253.41 125.321 256.604 124.495 252.344C123.025 244.753 123.524 229.299 125.38 225.001C125.662 224.348 125.976 223.456 126.077 223.02C127.553 216.645 132.981 206.039 146.07 183.96C150.92 175.778 150.967 174.364 146.264 178.143C137.314 185.336 130.048 184.622 114.86 175.053C100.335 165.902 100.727 165.986 94.7457 170.699ZM111.986 176.121C124.264 184.447 126.36 185.374 132.905 185.374C138.737 185.374 139.485 187.281 133.975 188.107C128.121 188.985 123.728 187.868 117.026 183.797C110.37 179.754 103.074 176.899 97.4198 176.124C92.7604 175.485 92.597 174.913 96.1222 171.571C100.074 167.827 99.529 167.67 111.986 176.121ZM224.323 169.736C225.632 169.888 227.289 170.283 228.007 170.615C228.724 170.946 229.795 171.144 230.384 171.057C232.053 170.809 236.608 172.027 236.608 172.723C236.608 173.44 228.7 174.055 211.248 174.696C189.976 175.477 174.203 178.42 173.356 181.766C172.515 185.094 165.789 197.054 160.206 205.15C138.221 237.031 136.367 250.368 150.688 273.605C152.254 276.145 153.326 278.431 153.071 278.686C152.508 279.249 143.09 269.365 143.09 268.211C143.09 267.965 142.222 266.434 141.16 264.808C140.099 263.184 138.707 260.428 138.068 258.684C137.428 256.94 136.63 254.801 136.295 253.928C134.481 249.216 134.409 236.332 136.172 232.134C136.446 231.48 137.082 229.346 137.584 227.389C138.469 223.943 144.354 210.744 145.364 209.943C145.639 209.725 146.373 208.655 146.994 207.566C147.617 206.476 150.748 201.256 153.954 195.964C157.16 190.674 160.764 183.54 161.965 180.114C165.233 170.782 163.528 171.668 181.504 169.964C184.542 169.676 187.211 169.256 187.436 169.032C187.851 168.615 219.98 169.229 224.323 169.736ZM323.75 200.631C331.138 221.523 315.783 247.251 295.329 248.249C291.784 248.422 291.246 246.706 294.619 245.984C296.059 245.676 297.593 245.139 298.029 244.79C298.465 244.442 299.096 244.14 299.43 244.119C309.864 243.485 320.143 226.092 321.151 207.367C321.672 197.682 322.212 196.283 323.75 200.631ZM261.177 217.053C261.177 217.475 262.122 219.883 263.276 222.402C274.804 247.552 262.116 277.114 235.928 286.123C226.681 289.305 226.675 287.834 235.914 282.995C245.144 278.161 253.297 269.508 258.261 259.279C259.795 256.118 260.909 253.532 260.736 253.532C260.564 253.532 260.804 252.552 261.269 251.352C263.641 245.242 263.507 228.206 261.065 225.263C260.615 224.721 260.487 223.891 260.781 223.416C261.073 222.942 260.895 222.051 260.384 221.435C259.873 220.819 259.67 219.968 259.933 219.543C260.195 219.118 260.048 218.547 259.605 218.273C258.396 217.526 258.635 216.284 259.988 216.284C260.642 216.284 261.177 216.63 261.177 217.053ZM161.892 299.982C160.696 301.178 161.301 307.408 162.756 308.863C165.712 311.819 178.693 313.325 201.34 313.339C231.952 313.358 242.948 310.9 242.948 304.042C242.948 300.81 238.416 298.007 236.971 300.345C236.684 300.811 235.32 301.095 233.941 300.976C232.563 300.857 231.024 301.014 230.523 301.322C227.297 303.317 178.355 303.722 175.897 301.775C175.415 301.394 172.918 300.937 170.349 300.759C167.78 300.583 164.955 300.206 164.072 299.923C163.189 299.639 162.208 299.666 161.892 299.982Z" fill="#0000FF"/>
</svg>
