<svg width="400" height="400" viewBox="0 0 400 400" fill="none" xmlns="http://www.w3.org/2000/svg">
<path fill-rule="evenodd" clip-rule="evenodd" d="M201.229 100.18C199.695 104.175 194.513 103.899 267.908 103.723L309.308 103.625L314.169 108.126C316.843 110.601 319.59 113.72 320.273 115.057C320.955 116.392 323.744 119.788 326.469 122.6C329.194 125.412 332.164 128.665 333.069 129.829C333.974 130.994 335.414 132.169 336.267 132.439C337.121 132.71 337.82 133.511 337.82 134.219C337.82 134.926 338.971 136.702 340.377 138.165L342.933 140.827L340.481 142.922C339.131 144.076 337.397 146.258 336.626 147.772C335.856 149.287 328.772 157.109 320.885 165.157C312.998 173.205 305.922 180.739 305.162 181.9C304.402 183.059 300.288 187.54 296.021 191.855C291.753 196.172 288.262 200.146 288.262 200.688C288.262 201.231 282.211 207.689 274.816 215.039C267.422 222.39 259.399 230.848 256.987 233.834C254.576 236.821 249.093 242.661 244.802 246.813C240.513 250.965 236.588 255.333 236.083 256.518C235.577 257.703 230.027 263.897 223.75 270.284C206.955 287.37 200.944 294.711 200.944 298.129C200.944 299.368 201.26 300.382 201.645 300.382C202.888 300.382 211.143 290.93 211.643 288.936C211.909 287.876 212.429 287.009 212.797 287.009C214.413 287.009 239.368 262.01 242.549 257.202C243.583 255.641 248.362 250.265 253.169 245.255C257.976 240.246 264.033 233.743 266.629 230.805C269.225 227.867 277.228 219.575 284.414 212.38C291.599 205.185 298.761 197.325 300.328 194.913C301.894 192.502 307.255 186.578 312.239 181.748C317.223 176.919 321.301 172.622 321.301 172.2C321.301 171.777 327.688 164.958 335.495 157.046C350.4 141.941 352.537 138.537 347.654 137.674C345.986 137.38 340.967 132.992 340.967 131.83C340.967 131.452 337.25 127.113 332.706 122.188C328.164 117.263 324.447 112.821 324.447 112.319C324.447 111.816 321.731 108.614 318.411 105.203L312.374 98.9999H257.027C208.557 98.9999 201.625 99.1462 201.229 100.18ZM201.468 108.177C200.599 109.048 200.85 130.466 201.73 130.466C202.696 130.466 211.171 122.015 211.171 121.053C211.171 120.673 213.587 117.867 216.542 114.817C220.224 111.017 221.659 109.017 221.105 108.463C220.218 107.575 202.33 107.317 201.468 108.177ZM244.209 108.859C244.209 109.522 244.842 110.318 245.615 110.628C246.388 110.939 248.911 112.432 251.221 113.946C253.53 115.461 255.73 116.7 256.108 116.7C256.487 116.7 257.946 117.608 259.352 118.719C260.759 119.83 263.148 121.413 264.662 122.236C266.176 123.06 269.346 124.961 271.705 126.461C274.064 127.961 277.604 130.023 279.572 131.043C281.539 132.061 284.564 133.76 286.295 134.814C290.197 137.194 292.982 137.368 292.982 135.232C292.982 134.392 293.325 133.492 293.746 133.233C294.659 132.669 297.701 125.975 297.701 124.53C297.701 123.498 298.138 122.501 302.037 114.629C305.711 107.213 307.497 107.653 273.733 107.653C247.739 107.653 244.209 107.797 244.209 108.859ZM223.953 113.11C222.114 115.245 220.61 117.357 220.61 117.802C220.61 118.639 216.664 123.41 209.177 131.626C202.999 138.406 202.957 138.388 225.633 138.573C247.206 138.75 247.24 138.736 242.903 131.678C241.674 129.68 239.961 126.874 239.096 125.443C238.23 124.012 236.984 121.989 236.326 120.949C233.778 116.93 233.165 115.848 232.353 113.948C229.941 108.3 228.241 108.131 223.953 113.11ZM237.129 113.049C237.129 113.854 238.014 115.178 239.096 115.99C240.178 116.802 241.063 117.865 241.063 118.351C241.063 118.838 242.125 120.573 243.422 122.207C244.721 123.839 245.784 125.57 245.786 126.051C245.788 126.532 247.027 128.273 248.54 129.92C250.052 131.566 251.29 133.4 251.29 133.996C251.29 136.97 255.254 138.136 266.464 138.46C279.831 138.846 280.309 135.657 267.809 129.495C266.728 128.962 264.207 127.37 262.209 125.956C260.21 124.543 258.118 123.386 257.561 123.386C257.004 123.386 254.67 121.937 252.375 120.167C243.077 112.994 237.129 110.217 237.129 113.049ZM307.943 113.131C307.461 114.03 307.257 115.071 307.487 115.444C307.718 115.816 307.203 117.016 306.343 118.108C305.484 119.2 304.781 120.941 304.781 121.977C304.781 123.011 304.367 124.272 303.863 124.777C302.668 125.971 300.875 131.146 300.86 133.441C300.853 134.427 300.317 135.439 299.668 135.688C294.832 137.544 298.97 138.279 315.479 138.499C337.224 138.789 336.807 139.325 324.598 126.832C310.296 112.195 309.01 111.138 307.943 113.131ZM200.93 146.003C200.422 195.998 201.123 267.858 202.128 268.864C203.172 269.907 203.304 269.854 203.304 268.388C203.304 267.479 203.832 265.722 204.479 264.483C205.125 263.243 205.656 261.454 205.659 260.507C205.662 259.559 206.726 256.736 208.023 254.234C209.322 251.733 210.384 249.052 210.384 248.277C210.384 247.502 210.685 246.254 211.054 245.502C214.07 239.363 214.677 237.806 214.452 236.798C214.217 235.744 215.029 233.692 217.976 227.889C218.56 226.74 219.037 225.118 219.037 224.283C219.037 223.449 219.265 222.538 219.542 222.259C220.411 221.392 223.749 212.741 223.753 211.35C223.755 210.624 224.326 209.46 225.023 208.763C225.785 208.001 226.14 206.719 225.914 205.542C225.709 204.466 225.817 203.416 226.154 203.208C227.456 202.402 231.615 192.017 232.198 188.116C232.406 186.724 233.069 185.176 233.672 184.676C234.275 184.174 234.781 182.835 234.794 181.698C234.808 180.561 235.69 177.861 236.754 175.698C237.818 173.535 238.691 170.989 238.696 170.041C238.7 169.094 239.057 168.1 239.49 167.831C239.922 167.564 240.276 166.775 240.276 166.077C240.276 165.38 240.861 164.163 241.576 163.373C242.29 162.583 242.846 160.865 242.807 159.556C242.737 157.088 245.253 150.552 246.592 149.725C247.012 149.465 247.356 148.212 247.356 146.939V144.626H224.15C202.578 144.626 200.943 144.722 200.93 146.003ZM254.656 145.609C252.908 147.873 250.425 154.089 250.937 154.918C251.242 155.411 251.147 156.041 250.727 156.317C249.345 157.225 245.702 165.323 245.922 167C246.151 168.743 243.902 174.129 242.615 174.925C242.194 175.185 241.849 176.197 241.849 177.174C241.849 178.15 240.787 181.026 239.49 183.565C238.191 186.103 237.129 188.978 237.129 189.956C237.129 190.932 236.776 191.951 236.342 192.218C235.91 192.485 235.556 193.348 235.556 194.134C235.556 194.921 235.025 196.005 234.376 196.544C233.727 197.083 233.196 198.376 233.196 199.419C233.196 200.461 232.609 202.63 231.89 204.239C231.173 205.847 230.523 207.341 230.448 207.557C230.373 207.773 229.899 208.947 229.394 210.165C228.89 211.383 228.476 213.198 228.476 214.198C228.476 215.199 227.929 216.472 227.26 217.026C226.592 217.582 226.198 218.436 226.387 218.926C226.575 219.415 226.236 220.488 225.635 221.31C225.034 222.132 224.544 223.55 224.544 224.463C224.544 225.376 224.122 226.543 223.608 227.058C223.092 227.573 222.593 228.44 222.498 228.985C221.775 233.115 219.621 239.516 218.559 240.69C217.852 241.471 217.482 242.655 217.736 243.321C217.992 243.986 217.15 246.556 215.865 249.031C214.581 251.507 213.53 253.984 213.53 254.535C213.53 255.087 212.468 257.787 211.171 260.533C208.122 266.985 208.37 272.975 211.434 266.903C211.858 266.063 212.493 264.845 212.845 264.195C213.197 263.547 214.403 261.261 215.523 259.118C216.643 256.973 218.954 253.708 220.659 251.859C222.362 250.01 223.757 247.948 223.757 247.276C223.757 246.603 224.287 245.85 224.937 245.601C225.586 245.352 226.117 244.522 226.117 243.755C226.117 242.989 226.673 241.9 227.354 241.335C228.034 240.77 229.322 238.869 230.215 237.109C231.108 235.349 232.852 232.43 234.091 230.622C235.329 228.813 236.342 226.847 236.342 226.252C236.342 225.658 237.551 224.001 239.029 222.569C240.506 221.137 242.653 217.971 243.799 215.532C245.69 211.51 248.36 207.167 250.5 204.628C250.947 204.098 251.663 202.86 252.09 201.874C252.518 200.89 254.081 198.491 255.561 196.544C257.042 194.598 259.922 190.172 261.962 186.711C264 183.25 265.973 180.3 266.346 180.156C266.718 180.012 267.022 179.441 267.022 178.887C267.022 178.334 268.084 176.545 269.382 174.911C270.68 173.278 271.742 171.661 271.742 171.319C271.742 170.976 273.247 168.5 275.086 165.816C276.924 163.132 278.782 160.364 279.213 159.664C279.646 158.964 281.529 156.006 283.399 153.09C288.843 144.598 288.884 144.626 270.605 144.626C259.383 144.626 255.217 144.882 254.656 145.609ZM295.536 145.14C294.995 145.362 293.265 147.55 291.694 150.002C290.122 152.453 288.176 155.418 287.369 156.59C286.562 157.762 285.902 159.042 285.902 159.434C285.902 159.826 285.206 161.031 284.354 162.114C283.503 163.196 282.97 164.245 283.171 164.446C283.372 164.646 282.652 165.64 281.572 166.655C280.492 167.669 279.609 168.884 279.609 169.354C279.609 169.824 278.376 171.621 276.871 173.347C275.364 175.072 274.125 176.878 274.117 177.36C274.108 177.841 273.088 179.512 271.847 181.072C270.608 182.631 269.127 185.07 268.557 186.49C267.988 187.909 266.701 190.071 265.698 191.295C264.695 192.518 263.875 193.967 263.875 194.516C263.875 195.065 263.138 196.181 262.237 196.996C261.336 197.811 260.096 199.548 259.481 200.855C258.867 202.162 257.303 204.646 256.008 206.377C254.713 208.108 252.165 212.179 250.345 215.423C248.526 218.668 246.749 221.677 246.397 222.11C242.527 226.859 234.667 238.811 232.948 242.563C232.354 243.861 231.3 245.393 230.608 245.966C229.916 246.541 228.748 248.842 228.011 251.08C227.149 253.701 225.077 256.968 222.185 260.263C218.104 264.911 215.89 268.075 215.89 269.257C215.89 272.064 226.117 263.012 230.489 256.335C231.761 254.391 240.278 245.187 249.416 235.883C258.552 226.577 267.801 216.84 269.97 214.244C272.138 211.648 279.795 203.618 286.986 196.4C294.177 189.182 300.061 182.719 300.061 182.039C300.061 181.358 307.339 173.524 316.235 164.628C337.252 143.61 337.4 145.062 314.221 144.877C304.486 144.799 296.078 144.917 295.536 145.14Z" fill="#FF0000"/>
<path fill-rule="evenodd" clip-rule="evenodd" d="M86.0571 103.516C83.7876 105.999 80.5822 109.805 78.9339 111.972C77.2856 114.14 74.1511 117.681 71.9686 119.843C69.786 122.004 68.001 124.213 68.001 124.753C68.001 125.291 67.2791 126.178 66.3972 126.722C65.5153 127.267 63.1674 129.778 61.1788 132.303C56.4215 138.345 54.8654 139.729 52.1613 140.322C49.1615 140.981 49.3046 142.776 52.4645 144.112C55.0435 145.202 63.2808 153.305 63.2808 154.752C63.2808 155.181 63.9889 155.757 64.8538 156.032C65.7199 156.307 66.4279 157.057 66.4279 157.7C66.4279 158.343 69.5253 162.231 73.3105 166.342C85.9341 180.047 95.7328 190.586 101.391 196.544C104.473 199.789 107.941 203.918 109.097 205.72C110.254 207.522 112.83 210.354 114.821 212.013C116.814 213.673 121.922 219.102 126.175 224.076C130.428 229.052 136.982 236.132 140.738 239.81C144.496 243.487 148.65 248.086 149.972 250.029C152.525 253.783 163.865 266.042 183.368 286.132C189.925 292.888 195.416 299.122 195.568 299.988C196.024 302.565 199.371 302.566 199.371 299.99C199.371 297.17 196.714 293.95 176.558 272.331C165.075 260.016 153.92 247.82 147.845 240.942C144.816 237.512 139.315 231.519 135.618 227.622C131.921 223.725 127.143 218.422 124.998 215.838C122.854 213.254 117.382 207.197 112.839 202.378C108.297 197.559 102.986 191.757 101.04 189.484C99.093 187.211 93.8715 181.623 89.4364 177.065C85.0024 172.507 81.374 168.524 81.374 168.212C81.374 167.9 78.9848 165.179 76.0634 162.163C73.1431 159.149 68.1674 153.97 65.0065 150.654C61.8445 147.338 58.9242 144.626 58.5161 144.626C55.2322 144.626 61.0919 136.608 75.474 121.423C78.5745 118.149 80.2716 116.007 81.3305 114.026C82.4012 112.027 84.8222 109.579 89.0103 106.262L92.22 103.72H145.795H199.371V101.361V98.9999H144.777H90.1848L86.0571 103.516ZM144.927 108.081C144.691 108.316 134.455 108.581 122.179 108.671L99.8594 108.834L100.121 110.8C100.482 113.51 104.014 124.109 105.405 126.654C106.033 127.802 106.546 129.44 106.546 130.294C106.546 132.184 108.518 133.966 109.88 133.309C110.426 133.045 115.12 130.176 120.312 126.933C125.504 123.691 130.638 120.598 131.719 120.06C132.8 119.524 134.161 118.44 134.742 117.654C135.323 116.867 136.208 116.364 136.709 116.535C137.21 116.706 138.94 116.016 140.553 115.003C142.167 113.989 143.76 113.148 144.093 113.134C145.329 113.08 148.238 110.112 148.238 108.904C148.238 107.73 145.867 107.141 144.927 108.081ZM176.715 109.496C175.47 110.865 175.528 111.063 177.766 113.062C179.068 114.227 180.932 116.53 181.907 118.183C182.881 119.835 185.042 122.832 186.709 124.843C188.375 126.854 189.87 128.861 190.031 129.304C190.655 131.018 195.874 137.486 196.657 137.515C199.978 137.638 201.029 109.072 197.741 108.029C194.045 106.856 178.106 107.968 176.715 109.496ZM165.344 111.39C164.821 112.58 162.704 115.944 160.641 118.865C158.579 121.788 156.892 124.452 156.892 124.787C156.892 125.474 151.293 133.106 148.873 135.717C145.938 138.886 147.27 139.119 168.298 139.119C190.494 139.119 190.7 139.065 186.455 134.367C184.906 132.652 183.638 130.863 183.638 130.392C183.638 129.557 182.233 127.542 178.053 122.374C176.928 120.983 175.512 118.922 174.906 117.793C170.345 109.29 167.198 107.182 165.344 111.39ZM91.161 110.615C90.7031 110.933 88.2619 113.671 85.7349 116.7C83.2089 119.728 79.5349 123.556 77.5707 125.206C73.2671 128.823 71.9919 130.417 71.959 132.226C71.9453 132.977 70.5185 134.487 68.7875 135.58C63.9104 138.658 64.5454 138.817 82.3566 138.959C104.425 139.135 104.721 138.917 98.9298 126.705C97.7119 124.139 96.8829 121.167 96.9995 119.787C97.1214 118.341 96.7091 116.955 95.9756 116.347C95.2993 115.786 94.747 114.557 94.747 113.614C94.747 110.977 92.8835 109.419 91.161 110.615ZM156.994 111.646C155.969 112.056 154.154 113.185 152.962 114.153C151.771 115.12 149.778 116.497 148.535 117.211C147.29 117.925 143.843 119.96 140.875 121.734C137.906 123.508 135.306 124.959 135.096 124.959C134.886 124.959 133.606 125.756 132.25 126.73C130.894 127.703 129.206 128.853 128.499 129.286C125.417 131.17 120.869 133.848 118.011 135.458C112.23 138.715 113.199 139.119 126.786 139.119H139.289L140.867 136.956C141.735 135.766 142.675 134.173 142.957 133.416C143.239 132.658 143.821 132.039 144.251 132.039C144.939 132.039 147.57 128.615 153.504 119.993C154.454 118.614 156.312 116.405 157.634 115.084C161.182 111.54 160.909 110.078 156.994 111.646ZM148.574 145.648C147.003 146.528 147.177 149.249 149.026 152.698C149.891 154.312 150.599 156.01 150.599 156.471C150.599 156.932 151.456 159.146 152.503 161.391C153.552 163.635 154.792 166.93 155.26 168.712C155.728 170.494 156.817 172.852 157.681 173.95C158.544 175.048 159.257 176.776 159.263 177.789C159.277 179.959 160.906 184.891 162.116 186.423C162.582 187.014 163.196 188.737 163.481 190.252C163.765 191.765 164.838 194.775 165.864 196.938C166.89 199.1 168.181 202.38 168.733 204.226C169.285 206.07 170.21 207.972 170.788 208.452C171.365 208.931 171.838 210.199 171.838 211.268C171.838 212.339 172.337 214.154 172.948 215.303C174.679 218.56 176.558 223.053 176.558 223.934C176.558 224.374 177.442 226.496 178.524 228.649C179.606 230.803 180.491 233.285 180.491 234.164C180.491 235.044 180.967 236.24 181.549 236.822C182.13 237.403 183.213 239.817 183.955 242.188C184.697 244.558 185.76 247.382 186.318 248.463C186.876 249.544 187.798 252.199 188.369 254.363C188.938 256.526 189.877 258.994 190.455 259.847C191.031 260.7 191.504 262.229 191.504 263.242C191.504 265.725 192.873 268.129 194.285 268.129C195.707 268.129 195.902 206.441 194.51 196.544C194.055 193.299 193.559 180.99 193.408 169.19C193.257 157.39 192.849 147.224 192.5 146.599C191.785 145.323 150.74 144.434 148.574 145.648ZM69.2062 146.158C68.5935 147.15 71.1386 150.079 81.8796 160.752C85.7995 164.646 90.0321 169.466 91.2861 171.464C92.5401 173.462 98.4751 180.188 104.475 186.411C110.474 192.633 116.312 198.963 117.448 200.477C118.583 201.992 122.435 206.126 126.009 209.664C129.582 213.203 132.505 216.491 132.505 216.969C132.505 217.448 137.567 223.226 143.753 229.809C149.939 236.39 155.81 242.838 156.797 244.136C157.784 245.434 160.256 248.267 162.291 250.429C164.325 252.593 167.559 256.31 169.476 258.69C174.785 265.275 178.341 268.916 179.471 268.916C181.258 268.916 180.596 267.632 173.279 256.931C172.47 255.747 171.502 253.977 171.129 252.997C170.756 252.018 168.904 248.85 167.014 245.958C165.124 243.066 161.299 236.762 158.515 231.951C155.73 227.139 153.159 223.02 152.799 222.799C152.441 222.577 151.63 221.269 150.998 219.893C150.365 218.517 148.44 215.09 146.72 212.277C144.999 209.465 143.031 206.102 142.348 204.804C141.663 203.506 140.232 201.029 139.167 199.298C138.101 197.567 136.32 194.3 135.21 192.035C134.1 189.772 132.886 187.733 132.513 187.502C131.949 187.154 128.894 182.296 123.606 173.338C123.095 172.473 121.961 170.703 121.085 169.404C120.21 168.107 118.97 165.99 118.33 164.701C117.69 163.412 115.485 160.119 113.43 157.383C111.374 154.647 109.691 151.985 109.689 151.467C109.687 150.949 108.865 149.502 107.864 148.25L106.042 145.974L92.3313 146.151C74.4204 146.383 75.0712 146.396 72.224 145.787C70.6892 145.459 69.5518 145.599 69.2062 146.158ZM116.234 146.686C115.694 148.095 119.725 156.4 121.231 156.978C121.808 157.199 122.28 157.864 122.28 158.457C122.28 159.889 127.581 169.762 129.453 171.816C130.267 172.708 130.932 173.993 130.932 174.669C130.932 175.346 131.428 176.31 132.036 176.815C132.642 177.318 134.147 179.698 135.379 182.104C140.299 191.712 140.973 192.838 142.221 193.536C142.935 193.936 143.519 194.898 143.519 195.674C143.519 196.451 144.213 197.716 145.062 198.484C145.911 199.252 147.017 201.165 147.519 202.736C148.022 204.306 149.034 206.299 149.769 207.164C151.523 209.23 157.244 218.798 161.325 226.493C163.114 229.866 165.28 233.624 166.138 234.842C166.996 236.06 167.934 237.817 168.223 238.748C168.512 239.678 170.221 242.687 172.022 245.434C175.524 250.776 176.665 252.67 179.613 258.031C180.644 259.908 181.714 261.619 181.99 261.836C182.264 262.052 182.917 263.202 183.44 264.392C183.962 265.582 184.929 266.556 185.587 266.556C187.062 266.556 187.074 266.172 185.689 263.531C185.087 262.382 183.958 259.849 183.181 257.902C182.405 255.956 181.305 253.804 180.737 253.12C180.169 252.438 179.704 251.05 179.704 250.038C179.704 249.026 178.642 246.315 177.345 244.015C176.046 241.715 174.983 238.855 174.981 237.658C174.978 236.462 174.104 234.067 173.038 232.337C171.973 230.606 171.09 228.26 171.076 227.123C171.062 225.986 170.525 224.619 169.88 224.084C169.236 223.549 168.921 222.768 169.182 222.347C169.441 221.927 169.107 220.463 168.44 219.093C166.285 214.674 162.389 204.059 162.394 202.616C162.397 201.845 161.853 201.005 161.185 200.749C160.518 200.493 160.075 199.673 160.202 198.927C160.328 198.18 159.952 196.543 159.365 195.287C156.731 189.646 156.071 188.044 154.865 184.352C154.159 182.188 153.086 179.859 152.483 179.176C151.879 178.493 151.385 177.183 151.385 176.263C151.385 174.234 149.974 170.849 148.073 168.316C147.299 167.283 146.665 165.317 146.665 163.945C146.665 162.52 145.822 160.308 144.699 158.785C143.617 157.319 142.732 155.469 142.732 154.674C142.732 153.877 141.853 151.491 140.779 149.37L138.824 145.515L127.757 145.508C118.614 145.501 116.611 145.706 116.234 146.686Z" fill="#0000FF"/>
</svg>
