<svg width="400" height="400" viewBox="0 0 400 400" fill="none" xmlns="http://www.w3.org/2000/svg">
<path fill-rule="evenodd" clip-rule="evenodd" d="M276.803 70.9544C270.729 74.3055 258.143 93.8385 258.143 99.9147C258.143 102.549 257.639 102.58 249.409 100.44C218.584 92.4261 190.886 107.441 165.701 145.818C162.534 150.644 157.583 158.195 154.699 162.598C147.013 174.329 137.688 182.431 126.732 186.896C112.613 192.65 110.669 193.678 106.749 197.47C100.304 203.704 100.401 210.106 107.149 223.594C112.65 234.59 139.759 260.125 160.479 273.828C176.339 284.318 178.491 285.159 180.726 281.749C182.616 278.864 181.613 277.695 172.645 272.327C145.431 256.035 114.212 226.011 112.312 214.301C110.959 205.968 130.238 203.572 145.007 210.239C147.198 211.228 150.056 212.294 151.359 212.61C167.379 216.494 230.332 260.177 244.281 277.088C256.55 291.964 254.654 295.888 235.183 295.914C223.369 295.93 221.751 296.395 224.021 299.129C227.447 303.257 240.602 304.415 250.104 301.424C262.345 297.571 262.511 297.11 262.511 266.947V242.73L265.141 236.378C268.644 227.916 272.304 221.431 279.336 211.227C303.172 176.637 303.751 141.265 280.854 118.465C274.551 112.189 274.555 113.004 280.789 105.761C287.364 98.1182 290.767 91.7745 291.259 86.244C292.189 75.7927 283.908 67.0341 276.803 70.9544ZM281.805 82.099C285.51 85.8042 280.277 96.3507 272.156 101.544C265.642 105.711 264.037 104.85 266.517 98.5216C271.064 86.9191 278.566 78.8603 281.805 82.099ZM222.716 118.689C222.435 127.781 205.407 154.912 188.678 172.919C175.859 186.717 172.865 188.1 165.162 183.773C160.48 181.144 160.483 181.175 164.382 176.105C166.092 173.881 169.128 169.399 171.13 166.145C175.831 158.501 198.508 130.399 203.062 126.572C215.769 115.899 222.891 113.042 222.716 118.689ZM198.054 252.4C194.474 253.125 194.241 254.294 193.941 272.959C193.662 290.325 193.627 290.647 191.935 291.071C188.853 291.845 183.65 297.058 181.568 301.459C174.27 316.885 193.208 335.967 208.12 328.215C223.133 320.409 224.718 302.1 211.081 294.031L206.532 291.339L206.526 279.738C206.514 257.762 204.451 251.104 198.054 252.4Z" fill="#0000FF"/>
</svg>
