<svg width="400" height="400" viewBox="0 0 400 400" fill="none" xmlns="http://www.w3.org/2000/svg">
<path fill-rule="evenodd" clip-rule="evenodd" d="M191.408 87.3478C189.409 89.4757 189.391 89.418 193.853 95.3743C195.501 97.576 197.605 101.082 198.526 103.165L200.202 106.953L197.562 111.317C196.109 113.718 194.356 116.29 193.664 117.036C186.82 124.408 186.653 126.29 192.201 133.482C193.915 135.704 195.319 137.935 195.319 138.441C195.319 138.945 195.676 139.359 196.112 139.359C196.548 139.359 196.905 139.837 196.905 140.421C196.905 141.149 194.722 141.806 189.965 142.511C166.996 145.913 164.029 147.511 167.622 154.554C169.214 157.673 169.375 157.767 172.183 157.218C173.784 156.904 176.164 156.514 177.472 156.35C178.781 156.187 181.972 155.709 184.561 155.289C196.585 153.338 226.204 153.615 229.56 155.709C232.675 157.651 233.832 156.564 234.655 150.92C235.042 148.265 232.934 145.517 229.544 144.256C228.388 143.825 226.728 143.207 225.855 142.883C222.914 141.787 221.909 141.614 215.362 141.077L208.835 140.542L202.871 134.617C196.175 127.966 196.058 127.548 198.977 120.719C204.669 107.408 204.688 106.776 199.603 99.6986L196.961 96.0209L198.916 93.1437C203.143 86.9235 196.572 81.851 191.408 87.3478ZM192.03 156.392C191.748 156.676 189.963 157.046 188.064 157.214C186.165 157.382 182.648 157.929 180.249 158.431C177.849 158.934 174.39 159.651 172.561 160.027C166.763 161.216 154.111 167.719 148.729 172.275C139.322 180.24 129.892 192.503 125.769 202.134C124.583 204.905 123.396 207.352 123.133 207.57C121.621 208.825 116.728 225.573 115.905 232.311C114.814 241.248 115.283 242.534 120.98 246.237C122.822 247.435 124.803 248.862 125.379 249.408C125.956 249.954 126.749 250.401 127.142 250.401C127.536 250.401 129.807 251.324 132.189 252.452C138.776 255.57 139.297 255.206 139.075 247.634C138.858 240.215 139.69 240.011 140.295 247.334C140.791 253.325 142.193 255.836 145.402 256.479C146.7 256.739 147.958 257.268 148.197 257.654C148.437 258.041 148.98 258.143 149.405 257.88C149.83 257.617 150.608 257.758 151.135 258.194C152.341 259.191 170.214 262.517 173.817 262.415C177.056 262.322 177.457 262.002 176.658 260.151C175.192 256.759 174.103 244.028 175.384 245.253C175.844 245.695 176.38 247.301 176.573 248.823C178.188 261.489 179.879 263.381 190.559 264.468C207.559 266.199 221.4 263.711 221.596 258.89C221.652 257.492 221.779 254.922 221.879 253.176C221.977 251.432 222.115 247.505 222.184 244.452C222.409 234.547 223.846 240.504 223.86 251.392L223.872 261.505L226.847 261.475C228.483 261.459 232.32 260.922 235.373 260.279C242.273 258.828 242.286 258.825 243.556 258.032C244.13 257.674 244.811 257.591 245.069 257.849C245.327 258.108 245.927 258.003 246.404 257.617C246.881 257.232 249.511 256.293 252.249 255.531C254.987 254.769 257.418 253.838 257.65 253.463C257.882 253.088 258.819 252.78 259.732 252.78C261.355 252.78 261.382 252.552 260.918 242.667C260.636 236.65 260.726 233.197 261.138 234.141C261.52 235.013 261.858 237.551 261.887 239.78C262.063 252.508 262.215 252.606 273.349 247.18C288.458 239.819 290.024 238.3 289.245 231.761C288.933 229.144 288.682 226.467 288.686 225.812C288.691 225.158 288.346 224.181 287.921 223.642C287.495 223.102 287.371 222.075 287.646 221.36C287.921 220.645 287.835 219.658 287.457 219.169C287.079 218.678 286.31 215.958 285.75 213.123C285.189 210.286 284.265 206.896 283.695 205.587C283.125 204.279 281.751 200.928 280.64 198.141C275.985 186.453 263.794 173.075 254.115 169.03C252.562 168.382 251.1 167.593 250.867 167.279C250.634 166.963 248.569 165.845 246.279 164.794C243.989 163.743 242.115 162.587 242.115 162.224C242.115 161.863 241.847 161.61 241.52 161.661C241.193 161.712 240.747 161.683 240.528 161.597C239.986 161.382 222.465 157.702 219.509 157.183C215.602 156.497 192.585 155.834 192.03 156.392ZM238.333 176.637C239.094 177.855 240.183 178.223 243.028 178.223C247.336 178.223 253.272 182.285 256.84 187.676C258.85 190.715 258.891 190.733 261.249 189.556C262.558 188.903 263.873 188.614 264.174 188.913C264.695 189.435 262.67 191.297 260.84 191.976C260.201 192.213 260.199 192.556 260.832 193.232C261.497 193.944 262.199 193.936 263.809 193.203C266.804 191.838 267.522 193.112 264.853 195.056C263.62 195.955 262.945 196.907 263.354 197.173C264.536 197.94 270.669 210.312 270.669 211.93C270.669 212.735 270.078 214.046 269.356 214.845C268.133 216.195 268.137 216.399 269.407 217.803C271.194 219.778 269.558 220.937 267.549 219.119C266.358 218.041 265.762 217.982 264.029 218.772C261.637 219.861 261.463 220.461 263.134 221.847C263.788 222.39 264.323 223.148 264.323 223.53C264.323 224.679 262.212 224.316 261.1 222.976C260.356 222.079 259.32 221.865 257.434 222.219C254.373 222.793 254.456 223.015 256.056 218.576C262.449 200.834 251.62 186.564 232.943 188.12C225.574 188.733 224.467 187.94 227.902 184.504C229.477 182.93 229.49 182.782 228.172 181.327C226.152 179.094 227.509 178.431 229.763 180.548C231.511 182.19 231.945 182.266 234.59 181.393C237.529 180.422 237.653 180.037 236.172 176.439C235.375 174.506 237.1 174.664 238.333 176.637ZM279.259 179.298C275.06 180.609 274.969 180.938 277.649 185.134C282.311 192.433 286.364 202.724 287.737 210.743C288.117 212.969 288.711 215.695 288.945 216.295C289.029 216.513 289.054 216.969 288.998 217.308C288.768 218.704 291.573 218.787 294.488 217.474C298.33 215.741 298.932 214.218 297.467 209.95C297.242 209.295 296.27 206.158 295.308 202.977L293.558 197.194L295.514 193.855C299.285 187.421 299.89 187.18 307.073 189.256C313.677 191.164 314.58 191.037 318.438 187.661C319.485 186.745 320.932 186.492 323.635 186.752C328.41 187.211 330.918 185.072 329.691 181.584C328.108 177.084 321.378 177.147 319.883 181.676C317.836 187.879 313.096 189.479 306.21 186.293C301.166 183.96 297.607 185.549 294.534 191.509C293.05 194.387 291.522 193.604 290.065 189.219C288.499 184.504 284.469 178.185 283.105 178.306C282.59 178.352 280.86 178.799 279.259 179.298ZM118.228 185.163C117.107 186.363 114.709 190.072 112.9 193.406C110.818 197.24 108.962 199.673 107.849 200.03C106.88 200.341 105.731 200.727 105.295 200.889C104.859 201.051 102.186 201.755 99.3562 202.453L94.21 203.724L92.2178 201.374C91.1212 200.081 89.2209 197.557 87.9929 195.763C85.4674 192.073 83.5799 191.663 79.9984 194.024C78.4017 195.076 76.8979 195.406 75.0489 195.105C71.8062 194.579 70 195.895 70 198.784C70 203.721 74.5423 204.303 77.5541 199.752C81.7908 193.349 84.7823 193.759 89.4176 201.375C91.0934 204.128 92.5128 206.457 92.5726 206.55C92.6314 206.644 95.5182 206.023 98.9874 205.172C108.278 202.89 109.041 202.979 107.721 206.182C104.026 215.156 104.562 226.217 108.749 227.38C113.445 228.684 114.41 228.454 114.475 226.011C114.665 218.999 119.66 201.688 122.472 198.3C124.159 196.267 128.74 188.229 129.156 186.57C129.52 185.119 129.1 184.704 126.471 183.916C121.871 182.539 120.485 182.748 118.228 185.163ZM176.509 189.523C177.475 190.147 179.946 191.294 182.002 192.071C191.492 195.662 195.466 208.117 190.365 218.277C188.717 221.56 184.268 225.926 183.223 225.289C182.896 225.089 182.628 225.275 182.628 225.702C182.628 228.884 163.751 230.024 158.323 227.171C155.575 225.726 151.319 221.73 150.099 219.449C146.792 213.27 151.517 195.437 157.36 192.042C165.296 187.431 171.921 186.559 176.509 189.523ZM239.373 194.933C239.66 195.399 240.321 195.617 240.841 195.418C242.241 194.881 247.777 198.911 249.837 201.968C256.357 211.641 244.848 226.2 233.537 222.589C219.138 217.992 214.8 201.614 226.686 196.726C228.625 195.928 230.213 195.008 230.214 194.681C230.22 193.749 238.786 193.985 239.373 194.933ZM166.13 195.831C164.722 197.24 164.932 201.754 166.433 202.33C170.152 203.757 173.11 202.269 173.11 198.972C173.11 195.663 168.413 193.549 166.13 195.831ZM233.408 200.399C232.74 201.646 232.881 202.114 234.121 202.778C236.353 203.973 238.919 203.792 239.453 202.405C240.636 199.321 234.987 197.446 233.408 200.399ZM179.137 207.419C177.668 210.259 178.533 211.64 181.886 211.804C184.109 211.912 184.661 211.583 185.32 209.752C186.822 205.587 181.184 203.46 179.137 207.419ZM242.592 206.688C240.923 208.531 241.738 210.743 244.086 210.743C246.125 210.743 248.062 208.851 247.294 207.609C246.082 205.648 243.918 205.223 242.592 206.688ZM158.834 207.01C155.89 208.499 156 212.628 158.992 212.973C163.61 213.505 166.561 208.79 162.851 206.805C160.983 205.805 161.242 205.792 158.834 207.01ZM227.045 208.965C227.045 212.226 230.665 213.162 231.995 210.245C233.023 207.988 232.828 207.735 229.564 207.083C227.18 206.605 227.045 206.707 227.045 208.965ZM234.94 213.562C233.013 215.883 236.659 218.52 239.354 216.754C241.367 215.436 241.397 215.314 240.076 213.854C238.407 212.01 236.327 211.893 234.94 213.562ZM169.74 215.813C166.409 218.341 168.87 223.175 173.023 222.263C176.907 221.41 178.635 216.295 175.04 216.295C174.414 216.295 173.903 215.938 173.903 215.502C173.903 214.376 171.383 214.565 169.74 215.813ZM287.965 240.684C286.682 242.402 277.477 248.815 276.292 248.815C275.817 248.815 275.428 249.111 275.428 249.472C275.428 249.833 273.553 250.99 271.263 252.041C268.973 253.093 266.92 254.135 266.702 254.358C266.484 254.581 265.592 255.158 264.72 255.641C263.512 256.309 263.001 257.7 262.578 261.471C261.758 268.774 261.087 269.214 261.619 262.1C261.873 258.719 261.921 255.953 261.726 255.953C261.533 255.953 259.296 257 256.756 258.282C254.217 259.563 249.616 261.19 246.532 261.899C243.448 262.606 240.336 263.502 239.616 263.889C238.896 264.276 235.416 265.047 231.883 265.603L225.458 266.614V270.846C225.458 273.174 225.012 276.755 224.467 278.801L223.476 282.524L223.079 274.989L222.683 267.453H201.475C181.105 267.453 180.286 267.512 180.739 268.94C180.999 269.757 181.297 270.827 181.403 271.319C181.509 271.81 181.808 272.748 182.068 273.402C182.911 275.52 184.207 280.905 184.168 282.127C184.11 283.957 180.782 276.777 179.105 271.203C177.591 266.174 177.373 265.967 172.667 265.087C171.82 264.929 170.948 264.718 170.73 264.619C170.512 264.519 169.263 264.333 167.955 264.206C161.983 263.625 154.959 262.277 151.695 261.088C148.187 259.81 143.847 259.089 142.869 259.621C142.596 259.77 142.98 262.128 143.725 264.862C144.469 267.596 145.314 270.726 145.602 271.816C146.289 274.421 142.251 266.09 140.615 261.532C139.491 258.397 138.95 257.875 135.916 256.996C134.029 256.45 131.989 255.592 131.383 255.087C130.776 254.584 130.28 254.412 130.28 254.704C130.28 255.272 123.033 250.527 122.32 249.492C122.087 249.153 120.518 248.299 118.834 247.596L115.77 246.317L116.267 250.542C118.297 267.811 134.452 290.44 153.865 303.207C156.38 304.86 158.699 306.594 159.02 307.059C159.34 307.524 159.607 307.593 159.614 307.213C159.621 306.832 160.072 306.888 160.617 307.338C161.619 308.163 173.201 311.811 179.059 313.145C190.354 315.72 229.964 315.121 233.787 312.317C234.223 311.998 237.435 310.743 240.926 309.53C244.415 308.317 247.448 307.098 247.667 306.822C247.885 306.545 249.312 305.696 250.84 304.935C253.856 303.432 256.183 302.01 257.666 300.766C258.185 300.33 259.984 298.902 261.663 297.594C273.72 288.195 283.053 276.42 285.537 267.473C286.146 265.281 286.853 262.952 287.11 262.298C287.365 261.643 287.497 260.635 287.401 260.058C287.306 259.48 287.556 258.588 287.958 258.076C288.359 257.563 288.725 255.536 288.77 253.573C288.815 251.611 289.08 247.595 289.359 244.651C289.89 239.034 289.668 238.403 287.965 240.684ZM157.254 275.785C160.88 277.726 162.092 280.829 160.468 284.015C158.98 286.933 159.689 289.266 162.062 289.266C162.468 289.266 162.799 289.663 162.799 290.151C162.799 291.007 161.532 290.86 158.635 289.667C157.652 289.263 157.247 289.468 157.247 290.37C157.247 291.071 156.801 291.656 156.256 291.669C155.711 291.683 156.287 292.594 157.537 293.694C160.068 295.919 159.718 297.337 157.049 295.671C156.017 295.026 155.232 294.915 155.074 295.39C153.977 298.68 152.741 299.135 150.296 297.151C148.984 296.086 146.531 294.144 144.846 292.834C141.53 290.261 136.528 285.328 133.611 281.756L131.785 279.522L134.007 277.061C135.229 275.707 136.327 274.44 136.449 274.243C136.571 274.046 139.078 276.276 142.021 279.196C147.849 284.979 148.335 285.173 151.824 283.118C154.135 281.758 154.17 281.639 153.635 277.018C153.122 272.583 153.17 272.384 154.437 273.652C155.178 274.393 156.446 275.352 157.254 275.785Z" fill="#FFEE00"/>
</svg>
