<svg width="400" height="400" viewBox="0 0 400 400" fill="none" xmlns="http://www.w3.org/2000/svg">
<path fill-rule="evenodd" clip-rule="evenodd" d="M188.398 79.6269C180.054 81.6523 174.369 86.68 170.506 95.4494C168.372 100.295 167.042 111.001 168.234 113.73C168.586 114.536 168.803 115.514 168.714 115.904C168.625 116.293 168.936 117.072 169.404 117.637C169.872 118.2 170.57 120.968 170.956 123.788C171.51 127.848 172.189 129.467 174.217 131.573C175.717 133.13 177.187 135.869 177.764 138.18C178.751 142.138 181.837 145.406 184.588 145.406C185.269 145.406 188.004 146.556 190.668 147.962C197.79 151.721 205.869 151.153 213.719 146.343C215.086 145.505 216.61 144.97 217.108 145.152C218.528 145.673 223.237 140.802 223.237 138.812C223.237 136.572 224.496 134.142 227.368 130.833C228.923 129.042 229.756 126.944 230.115 123.917C230.398 121.528 231.108 118.996 231.692 118.291C232.417 117.418 232.744 114.214 232.718 108.239C232.619 85.4376 213.994 73.4126 188.398 79.6269ZM70.9334 93.694C68.0537 97.1636 72.1412 107.268 78.9623 113.54L83.4613 117.679L84.1773 124.816C85.3529 136.525 92.4918 145.73 106.706 153.862C111.685 156.712 112.579 157.82 109.896 157.82C109.012 157.82 108.07 158.177 107.8 158.612C107.531 159.047 106.834 159.221 106.251 158.997C105.668 158.773 104.566 159.281 103.801 160.126C101.715 162.431 103.181 163.812 113.586 169.349C124.399 175.104 125.439 179.437 116.866 183.018C112.183 184.975 113.518 188.676 119.366 189.944C120.276 190.141 126.352 190.462 132.867 190.658C143.252 190.97 144.682 191.18 144.455 192.362C144.234 193.509 137.54 198.152 135.701 198.434C125.52 199.991 129.335 203.324 140.955 203.024C146.151 202.889 150.403 203.026 150.403 203.327C150.403 205.166 145.122 213.153 143.381 213.946C140.364 215.321 140.675 217.413 143.898 217.413C147.686 217.413 153.355 214.314 158.864 209.23C164.196 204.311 165.408 204.111 162.907 208.563C161.418 211.214 161.385 211.601 162.56 212.577C164.271 213.996 168.569 209.212 170.684 203.536C171.487 201.381 173.048 198.401 174.155 196.914C179.265 190.044 181.715 178.657 180.027 169.626C179.288 165.678 172.977 161.621 155.783 154.042C153.962 153.239 150.238 151.223 147.506 149.563C144.775 147.901 137.83 144.052 132.074 141.009C126.318 137.964 118.683 133.373 115.107 130.806C111.532 128.24 106.371 124.726 103.64 122.999C100.534 121.035 94.0398 114.955 86.3042 106.767C72.3654 92.0155 72.342 91.9954 70.9334 93.694ZM314.182 106.475C307.093 113.843 299.551 120.863 297.083 122.392C294.654 123.897 289.821 127.251 286.343 129.844C282.866 132.438 275.717 136.872 270.458 139.698C265.2 142.524 257.155 147.002 252.582 149.65C248.011 152.298 242.793 154.984 240.987 155.622C235.485 157.563 224.358 163.61 222.345 165.753C218.291 170.068 218.657 183.205 223.064 191.559C224.442 194.171 227.095 199.317 228.96 202.995C233 210.967 235.813 214.031 237.673 212.487C238.767 211.579 238.72 211.076 237.266 208.228C235.206 204.188 236.138 204.107 239.836 208.004C244.568 212.99 251.999 217.413 255.645 217.413C259.519 217.413 259.962 215.56 256.513 213.775C254.62 212.797 249.723 205.228 249.723 203.28C249.723 203.033 253.973 202.929 259.168 203.052C270.795 203.326 274.593 199.989 264.424 198.434C262.276 198.105 255.931 193.481 255.931 192.245C255.931 190.913 256.964 190.785 267.37 190.825C273.661 190.848 279.434 190.549 280.198 190.159C280.963 189.77 282.613 189.046 283.864 188.551C287.264 187.209 286.834 184.693 282.857 182.665C274.299 178.299 277.199 172.2 290.022 167.589C298.25 164.631 299.263 159.473 291.86 158.222C287.627 157.507 287.775 157.093 293.421 153.862C307.044 146.068 314.773 136.381 315.908 125.68C316.765 117.6 316.922 117.261 321.67 113.258C325.984 109.62 328.503 105.236 328.719 100.988C328.795 99.4957 329.116 98.0157 329.432 97.7001C330.487 96.645 330.023 94.9855 328.435 94.1356C327.074 93.4074 325.162 95.0624 314.182 106.475ZM188.476 125.704C188.476 126.11 188.941 126.367 189.51 126.276C191.99 125.875 197.905 128.921 198.263 130.783C198.857 133.866 191.399 136.466 188.958 134.026C188.617 133.685 188.089 133.391 187.786 133.376C184.606 133.206 180.515 126.881 182.709 125.525C184.172 124.621 188.476 124.755 188.476 125.704ZM218.288 129.025C215.47 133.658 207.495 136.152 203.994 133.494C200.518 130.855 203.883 127.503 210.795 126.721C213.562 126.407 216.026 125.827 216.271 125.43C216.517 125.033 217.428 125.09 218.3 125.556C219.857 126.391 219.857 126.445 218.288 129.025ZM202.984 140.21C204.45 143.72 204.216 144.081 200.477 144.081C196.76 144.081 196.506 143.713 197.91 140.36C199.981 135.411 200.966 135.382 202.984 140.21ZM195.096 155.841C193.504 156.538 190.151 157.577 187.647 158.15C183.48 159.105 180.501 161.95 183.656 161.964C186.169 161.975 190.759 163.719 192.471 165.315L194.309 167.027L192.634 169.38C190.39 172.532 190.523 175.331 193.028 177.685C195.941 180.422 195.62 182.104 191.579 185.258C184.634 190.681 184.45 193.312 190.53 200.239L194.346 204.584L194.514 262.452C194.687 321.521 195.085 328.469 197.596 316.158C198.635 311.06 200.684 306.972 204.022 303.338C205.707 301.502 205.965 300.605 205.508 298.165L204.954 295.214L209.75 295.075C212.389 294.998 218.099 295.038 222.442 295.164C231.659 295.43 232.588 294.868 232.185 289.274L231.929 285.695H218.728H205.528L205.524 281.144L205.521 276.591L214.172 276.177L222.823 275.764L223.073 271.446L223.322 267.13L214.418 266.895L205.513 266.659L205.595 261.693L205.677 256.727L217.917 256.497C231.729 256.237 232.342 255.997 232.342 250.833V247.209L228.825 247.161C226.89 247.134 221.768 247.13 217.444 247.152C213.119 247.173 208.65 247 207.512 246.766L205.443 246.341L205.609 225.462L205.775 204.584L209.424 200.43C215.543 193.462 215.478 190.42 209.111 185.667C204.522 182.239 204.086 180.514 207.098 177.685C209.668 175.271 209.746 172.2 207.305 169.601L205.443 167.618L208.005 165.328C209.505 163.988 212.015 162.808 214.062 162.48C219.172 161.664 218.382 159.503 212.478 158.148C209.974 157.575 206.541 156.521 204.848 155.807C201.046 154.205 198.824 154.212 195.096 155.841ZM203.374 190.1C206.15 192.876 205.392 195.995 201.59 197.441C197.123 199.138 193.845 192.579 197.787 189.83C200.29 188.085 201.412 188.138 203.374 190.1Z" fill="#FF0000"/>
</svg>
