<svg width="400" height="400" viewBox="0 0 400 400" fill="none" xmlns="http://www.w3.org/2000/svg">
<path style="fill:#0000FF;" d="M158.654,71.958c-1.82,0.405-8.592,1.979-16.735,5.527c-4.125,1.798-7.142,3.465-8.327,4.135
	c-4.656,2.631-8.05,5.115-9.662,6.341c-8.408,6.39-13.913,12.825-16.849,16.969c-1.027,1.449-2.416,3.321-3.14,4.167
	c-2.053,2.416-8.696,15.46-10.206,20.17c-1.206,3.762-1.921,6.624-2.416,8.817c-1.017,4.506-2.377,11.964-2.511,21.286
	c-0.067,4.627-0.135,13.35,2.511,24.308c0.179,0.742,1.897,10.045,6.884,19.023c1.208,2.174,2.416,4.469,2.718,5.133
	c0.423,1.147,1.631,2.838,6.824,9.783c6.3,8.424,12.744,13.34,14.614,14.856c2.462,1.995,4.452,3.397,5.257,3.957
	c2.793,1.941,9.957,6.674,20.469,10.537c2.155,0.792,5.186,1.895,9.36,2.899c7.641,1.838,13.615,2.023,18.141,2.139
	c5.194,0.132,11.099,0.282,18.726-1.257c2.243-0.453,6.852-1.719,12.653-3.72c3.503-1.208,8.636-3.382,11.414-4.892
	c3.019-1.631,5.194-2.476,5.435-2.114c0.362,0.604,6.281,8.213,13.648,17.634c1.993,2.536,15.037,19.264,28.987,37.2
	c27.175,34.966,26.33,34.06,32.369,35.026c5.012,0.845,10.568-2.959,12.018-8.153c1.208-4.529,0.06-6.522-11.716-20.532
	c-6.039-7.126-14.735-17.513-19.385-23.069c-25.182-29.953-38.831-46.198-40.22-47.889l-1.631-1.872l3.442-3.684
	c11.716-12.501,19.868-28.021,24.941-47.285c1.751-6.703,1.812-7.368,1.51-15.762c-0.423-10.81-1.631-17.513-4.65-26.753
	c-7.126-21.378-20.231-38.71-38.106-50.546c-9.783-6.462-19.144-10.327-30.557-12.621C176.816,68.168,162.59,71.082,158.654,71.958z
	 M192.884,87.663c29.453,5.443,52.435,29.695,59.511,62.959c1.814,8.286,2.177,22.498,0.907,31.268
	c-2.963,20.079-12.217,36.408-27.276,48.141c-6.75,5.247-13.385,9.1-20.478,11.762c-10.673,4.006-19.496,4.468-24.578,4.688
	c-4.516,0.195-18.237,0.668-31.919-4.648c-7.369-2.863-14.429-7.289-15.254-7.811c-0.256-0.162-2.675-1.849-5.08-3.447
	c-10.281-6.834-23.103-22.982-27.699-35.017c-1.27-3.326-2.722-6.713-3.145-7.56c-1.149-2.117-4.959-19.414-4.052-18.386
	c0.242,0.302,0.907,2.238,1.451,4.294c1.331,4.959,5.262,13.91,8.044,18.567c20.442,33.505,59.511,46.146,93.743,30.3
	c9.979-4.596,21.772-14.575,28.002-23.768c17.116-25.22,14.152-58.846-7.016-80.195c-12.156-12.277-26.55-17.962-43.303-17.116
	c-14.152,0.665-25.946,5.866-35.864,15.785c-22.256,22.256-18.869,58.181,7.016,74.268c6.653,4.113,10.644,5.322,19.051,5.746
	c12.096,0.605,20.684-2.661,29.09-11.007c7.137-7.076,10.523-14.817,10.523-24.131c-0.06-10.04-6.229-21.107-14.515-25.946
	c-11.431-6.653-26.066-3.084-32.477,7.923c-1.27,2.117-1.633,3.75-1.875,7.318c-0.181,4.173-0.06,4.899,1.512,7.862
	c2.238,4.234,5.322,6.774,8.89,7.137c3.568,0.423,5.625-0.121,7.378-2.056c2.056-2.177,1.935-4.899-0.363-7.741
	c-0.968-1.27-1.814-2.419-1.814-2.601c0-0.181,0.544-1.451,1.21-2.843c3.084-6.35,11.672-6.895,17.72-1.028
	c3.992,3.81,4.959,6.29,4.959,12.519c0,5.02-0.121,5.746-2.056,9.253c-2.601,4.717-6.29,8.165-11.431,10.584
	c-3.81,1.814-4.475,1.935-10.705,1.935c-6.411,0-6.834-0.06-11.431-2.238c-11.189-5.383-18.507-17.055-18.507-29.514
	c0.06-21.047,18.144-38.102,40.4-38.102c7.257,0,12.277,1.21,19.172,4.596c12.217,5.987,21.228,17.055,25.22,30.844
	c1.089,3.871,1.391,6.29,1.391,12.64c-0.06,9.132-0.968,13.608-4.596,21.349c-6.955,14.999-19.777,25.885-36.046,30.723
	c-7.318,2.117-18.869,2.661-26.187,1.21c-12.217-2.48-22.74-8.104-31.752-16.995c-6.169-6.048-9.556-10.705-13.305-18.386
	c-5.02-10.04-6.653-18.144-6.169-30.542c0.423-12.58,3.205-21.712,9.616-31.57c3.689-5.685,13.184-15.301,18.628-18.869
	c10.644-7.016,23.708-11.612,37.195-13.064C178.128,86.393,188.832,86.937,192.884,87.663z"/>
</svg>
