<svg width="400" height="400" viewBox="0 0 400 400" fill="none" xmlns="http://www.w3.org/2000/svg">
<path style="fill:#FF0000;" d="M50,224.033l10.775-13.43c21.391-26.654,34.507-50.258,38.413-69.072l1.212-5.836
	c64.867,11.26,130.533,12.453,199.202,0.127l1.212,5.837c3.899,18.776,17.014,42.316,38.406,68.913L350,223.988l-3.145,0.331
	c-6.341,0.683-10.099-0.836-15.278-6.157l-5.021-5.155l-0.976,2.59c-1.237,3.248-4.039,4.766-8.753,4.766
	c-3.91,0-7.802-2.852-7.802-5.722c0-2.489,1.952-5.755,5.952-9.94l3.649-3.828l-2.596-3.394
	c-4.656-6.099-10.795-11.636-15.502-13.99c-5.844-2.916-14.296-3.075-19.362-0.382c-10.699,5.691-14.329,24.07-6.411,32.44
	c3.968,4.204,5.403,7.056,5.403,10.769c0,7.017-10.667,10.29-16.026,4.925c-2.832-2.826-3.228-6.743-1.34-13.046
	c1.078-3.599,0.932-4.319-1.518-8.02c-5.659-8.555-12.153-11.451-25.646-11.451c-14.941,0-17.812,1.991-25.55,17.78
	c-4.913,10.029-4.906,11.292-0.032,8.504c10.558-6.035,24.823,8.236,18.966,18.961c-2.226,4.076-6.679,6.098-13.671,6.22
	c-4.185,0.076-4.453,0.255-3.777,2.411c2.884,9.257,2.929,10.68,0.607,18.418c-1.767,5.876-10.189,22.233-12.3,24.446
	c0,0.039,0.006,0.065,0,0.102c-0.026,0.026-0.07,0.026-0.108,0.013c-0.084,0.071-0.153,0.128-0.211,0.146
	c-0.044,0.013-0.071-0.006-0.096-0.032c-0.006-0.013-0.026-0.159-0.032-0.39c-2.067-2.315-9.844-18.29-11.592-24.14
	c-2.329-7.758-2.283-9.18,0.607-18.456c0.669-2.163,0.401-2.335-3.784-2.405c-6.985-0.122-11.439-2.157-13.671-6.24
	c-5.855-10.75,8.409-25.04,18.967-18.993c4.88,2.795,4.868,1.513-0.045-8.535c-7.744-15.829-10.59-17.813-25.537-17.813
	c-13.487,0-19.988,2.896-25.647,11.464c-2.451,3.713-2.596,4.447-1.513,8.058c1.89,6.315,1.487,10.226-1.338,13.059
	c-5.366,5.377-16.032,2.093-16.032-4.944c0-3.72,1.435-6.552,5.41-10.763c7.917-8.389,4.268-26.832-6.431-32.536
	c-5.065-2.705-13.506-2.526-19.343,0.396c-4.714,2.36-10.845,7.91-15.501,14.021l-2.602,3.394l3.635,3.828
	c3.999,4.198,5.964,7.477,5.964,9.972c0,2.877-3.885,5.742-7.794,5.742c-4.716,0-7.522-1.531-8.76-4.785l-0.969-2.583l-5.028,5.167
	c-5.179,5.327-8.931,6.84-15.278,6.157L50,224.033z
	 M308.303,119.228c-0.586-2.129-2.238-3.678-4.352-4.614c-0.803-0.356-1.674-0.624-2.577-0.801
	c-25.779-5.046-50.772-7.895-75.143-9.001c-45.329-2.059-88.505,1.915-130.569,9.001c-0.922,0.156-1.807,0.416-2.621,0.774
	c-2.104,0.925-3.737,2.508-4.313,4.647c-0.263,0.974-0.283,1.995-0.114,2.988c-0.068,0.407-0.112,0.819-0.112,1.235
	c0,0.963,0.192,1.843,0.541,2.633c0.744,1.688,2.2,2.961,3.999,3.752c0.814,0.359,1.7,0.617,2.621,0.773
	c34.627,5.835,70.009,9.558,106.725,9.545c31.863-0.012,64.731-2.84,98.985-9.545c0.903-0.177,1.773-0.445,2.577-0.799
	c1.809-0.801,3.279-2.051,4.034-3.728c0.352-0.786,0.548-1.662,0.548-2.631c0-0.414-0.043-0.825-0.111-1.231
	C308.592,121.229,308.571,120.203,308.303,119.228z M197.186,125.168c-19.368-0.11-37.742-1.215-55.482-2.954
	c25.132-2.463,51.544-3.646,80.236-2.55c11.692,0.447,23.775,1.286,36.289,2.554C236.68,124.403,216.441,125.277,197.186,125.168z"/>
</svg>
