<svg width="400" height="400" viewBox="0 0 400 400" fill="none" xmlns="http://www.w3.org/2000/svg">
<path fill-rule="evenodd" clip-rule="evenodd" d="M145.692 91.8162C117.763 94.3755 102.608 96.212 100.723 97.267C100.078 97.6284 98.8745 97.7467 98.0496 97.5307C97.2236 97.3158 96.097 97.4971 95.5456 97.9345C94.9942 98.3719 93.0937 98.9786 91.3213 99.2815C86.3306 100.137 77.7181 102.297 76.8226 102.919C76.3798 103.227 73.7586 104.351 70.9984 105.418C55.3092 111.481 56.5487 121.555 73.8031 128.203C75.9066 129.013 78.5343 130.086 79.6414 130.586C80.7496 131.086 82.0184 131.52 82.4612 131.55C82.9041 131.579 83.6291 131.822 84.0719 132.089C84.5148 132.356 88.3212 133.18 92.5293 133.919C96.7384 134.66 101.331 135.624 102.735 136.06C104.14 136.497 108.489 137.207 112.401 137.638C116.312 138.069 120.419 138.595 121.527 138.807C129.197 140.277 169.856 142.085 169.856 140.957C169.856 140.546 168.678 140.177 167.238 140.138C163.895 140.046 153.958 138.629 151.33 137.869C150.222 137.548 148.953 137.234 148.51 137.169C148.068 137.105 146.799 136.84 145.692 136.581C144.583 136.32 140.416 135.503 136.428 134.765C132.441 134.027 128.726 133.05 128.172 132.595C127.618 132.139 127.165 132.037 127.165 132.367C127.165 132.697 126.713 132.593 126.158 132.135C125.604 131.678 123.702 131.046 121.929 130.732C111.373 128.857 95.068 119.958 94.9714 116.018C94.8944 112.868 106.149 108.263 116.224 107.321C117.59 107.194 120.883 106.736 123.541 106.305C130.086 105.241 175.172 105.206 187.174 106.253C192.49 106.717 198.88 107.217 201.373 107.363C203.867 107.51 206.586 107.84 207.414 108.097C208.244 108.354 212.546 109.112 216.977 109.782C221.407 110.452 225.756 111.189 226.642 111.422C227.529 111.654 232.059 112.698 236.711 113.741C241.362 114.785 247.162 116.275 249.599 117.054C252.035 117.831 255.66 118.989 257.654 119.628C259.646 120.266 262.003 121.252 262.889 121.818C263.775 122.386 265.425 123.078 266.557 123.355C273.78 125.131 289.109 136.385 291.236 141.473C293.719 147.417 288.728 155.299 282.462 155.329C281.886 155.331 280.427 155.849 279.22 156.479C278.012 157.109 274.388 158.219 271.166 158.946C267.942 159.674 263.856 160.636 262.083 161.087C260.312 161.537 254.693 162.793 249.599 163.879C244.504 164.965 239.791 166.084 239.127 166.365C238.463 166.646 237.194 166.956 236.308 167.053C225.535 168.229 210.935 176.228 210.935 180.954C210.935 183.543 215.384 187.669 219.518 188.912C236.476 194.011 237.393 203.707 221.407 208.876C218.97 209.665 216.562 210.637 216.054 211.036C215.547 211.437 214.822 211.694 214.443 211.608C214.065 211.521 213.21 211.674 212.546 211.947C211.575 212.344 201.946 214.246 191.201 216.161C173.502 219.317 168.031 220.949 159.879 225.508C159.042 225.976 157.167 227.026 155.712 227.845C141.634 235.751 133.597 249.675 131.681 269.478C131.312 273.289 132.339 276.165 133.145 273.58C133.326 272.998 134.215 269.984 135.118 266.883C139.088 253.262 150.583 240.178 161.729 236.592C163.319 236.081 165.01 235.354 165.489 234.978C165.967 234.601 170.497 233.369 175.557 232.24C180.617 231.112 185.482 230.005 186.369 229.78C187.254 229.555 191.966 228.855 196.839 228.223C205.546 227.095 214.606 225.735 217.782 225.081C220.886 224.442 232.293 221.357 233.489 220.833C234.153 220.542 234.878 220.24 235.099 220.162C244.179 216.952 254.928 208.895 257.964 203.024C260.903 197.341 258.644 193.047 249.651 187.229C241.938 182.241 241.351 178.763 247.987 177.39C249.095 177.161 250.651 176.622 251.443 176.19C252.237 175.759 253.219 175.612 253.626 175.863C254.033 176.115 255.015 175.962 255.809 175.525C256.602 175.086 261.056 173.964 265.708 173.03C270.36 172.097 274.891 171.008 275.776 170.613C276.663 170.217 279.925 169.289 283.026 168.551C286.127 167.813 289.027 166.928 289.47 166.585C289.913 166.243 293.356 165.136 297.122 164.126C300.888 163.115 306.226 161.265 308.985 160.014C311.744 158.764 314.524 157.74 315.161 157.74C315.798 157.74 316.441 157.468 316.588 157.136C316.736 156.804 319.341 155.338 322.378 153.88C328.176 151.096 335.455 144.866 338.311 140.245C345.328 128.892 329.754 112.547 305.126 105.418C301.831 104.465 298.592 103.458 297.927 103.181C297.263 102.904 296.175 102.573 295.511 102.444C291.598 101.685 278.807 98.6845 277.791 98.2883C277.126 98.0289 275.677 97.7272 274.568 97.6165C273.461 97.5058 270.561 97.0282 268.124 96.556C263.82 95.7203 244.831 93.4421 237.517 92.8831C216.654 91.2908 205.706 90.9251 181.535 91.0119C166.03 91.0683 149.9 91.4298 145.692 91.8162ZM165.753 120.226C165.552 120.427 159.688 120.663 152.721 120.748C145.753 120.835 140.053 121.184 140.053 121.523C140.053 122.667 145.092 123.91 149.734 123.91C152.267 123.91 157.559 124.485 161.494 125.188C165.428 125.89 169.735 126.592 171.064 126.748C185.721 128.465 208.262 133.942 215.548 137.558C226.02 142.752 221.866 148.748 205.699 151.772C196.803 153.436 189.254 154.631 183.549 155.279C179.784 155.705 175.615 156.255 174.286 156.5C172.957 156.744 170.239 157.103 168.245 157.299C166.251 157.494 157.914 158.439 149.718 159.4C141.523 160.36 134.092 161.107 133.206 161.061C132.321 161.014 130.871 161.322 129.984 161.744C129.098 162.167 124.964 163.079 120.798 163.772C101.229 167.027 100.618 174.872 119.665 178.312C123.569 179.016 128.756 180.129 131.193 180.784C133.63 181.439 139.248 182.697 143.677 183.579C148.108 184.462 152.095 185.291 152.538 185.423C160.608 187.834 162.659 188.704 164.235 190.381C166.797 193.108 165.33 195.769 159.847 198.34C148.186 203.81 143.963 205.585 143.074 205.393C142.742 205.322 142.469 205.626 142.469 206.07C142.469 206.512 142.016 206.88 141.463 206.887C136.715 206.944 124.503 219.862 122.762 226.668C120.856 234.116 120.819 236.272 122.493 242.511C124.542 250.153 125.368 250.84 125.98 245.409C127.334 233.383 134.281 222.437 143.677 217.518C148.445 215.023 156.231 211.719 157.37 211.706C157.814 211.702 159.251 211.137 160.566 210.451C161.88 209.766 165.678 208.476 169.005 207.585C172.331 206.693 175.425 205.667 175.878 205.303C176.331 204.941 179.609 203.916 183.161 203.026C190.35 201.225 197.152 197.647 198.053 195.192C200.066 189.708 193.401 186.267 168.245 179.798C164.036 178.716 159.868 177.516 158.982 177.133C158.095 176.75 155.622 175.814 153.485 175.053C146.659 172.624 147.853 169.949 156.561 168.159C159.221 167.612 161.805 166.85 162.303 166.465C162.802 166.081 170.595 164.862 179.622 163.756C188.648 162.651 197.122 161.536 198.45 161.278C199.78 161.019 202.86 160.536 205.297 160.204C216.131 158.729 223.83 157.685 229.059 156.984C232.16 156.568 236.691 155.829 239.127 155.341C241.564 154.853 246.638 153.873 250.404 153.162C254.17 152.451 257.614 151.611 258.056 151.294C258.499 150.978 260.644 150.125 262.822 149.399C275.33 145.234 267.949 135.286 248.39 129.95C245.732 129.225 243.014 128.425 242.349 128.173C241.684 127.921 240.597 127.611 239.933 127.485C217.386 123.234 215.23 122.881 203.686 121.559C196.132 120.695 166.331 119.648 165.753 120.226ZM273.763 195.84C273.763 198.187 273.45 200.453 273.067 200.874C272.685 201.295 271.985 202.799 271.512 204.217C269.15 211.302 255.866 223.332 245.718 227.574C244.086 228.256 241.846 229.194 240.738 229.657C239.631 230.122 238.543 230.545 238.322 230.597C238.1 230.65 237.194 231.078 236.308 231.547C235.422 232.017 232.341 233.039 229.462 233.82C226.582 234.601 223.863 235.519 223.421 235.861C222.978 236.203 220.44 237.105 217.782 237.865C215.124 238.625 212.554 239.571 212.07 239.968C211.586 240.366 210.96 240.461 210.679 240.18C210.398 239.9 209.707 240.027 209.142 240.464C208.578 240.901 205.76 241.898 202.881 242.68C200.001 243.461 197.282 244.392 196.839 244.751C196.397 245.108 195.672 245.475 195.229 245.566C194.786 245.657 193.584 246.05 192.559 246.439C191.533 246.829 190.343 247.148 189.915 247.148C189.486 247.148 187.788 247.751 186.141 248.485C184.494 249.22 182.965 249.887 182.743 249.965C182.522 250.043 181.616 250.404 180.73 250.769C179.843 251.133 177.488 252.066 175.494 252.843C156.16 260.375 137.751 276.863 132.7 291.173C131.706 293.983 130.63 296.283 130.305 296.283C129.703 296.283 127.975 289.26 127.966 286.779C127.963 286.026 127.49 284.503 126.913 283.396C126.337 282.288 125.266 279.544 124.532 277.296C123.799 275.049 120.27 267.164 116.689 259.772C108.035 241.906 106.078 235.884 105.837 226.384C105.733 222.272 105.927 218.737 106.268 218.527C106.609 218.315 107.135 216.68 107.437 214.893C108.413 209.119 113.859 202.276 120.584 198.374C125.342 195.615 124.786 194.791 118.17 194.798C114.922 194.8 111.358 195.267 110.25 195.835C109.142 196.403 106.507 197.522 104.393 198.32C97.8531 200.79 90.6624 209.364 88.4363 217.346C87.8795 219.339 87.1241 221.315 86.755 221.736C82.2279 226.908 90.8524 246.201 107.478 268.091C119.278 283.628 126.085 295.769 127.574 303.936C128.484 308.927 129.775 310.281 130.263 306.754C130.416 305.647 130.821 304.379 131.164 303.936C131.506 303.492 132.386 301.285 133.121 299.032C134.646 294.355 141.009 286.215 146.958 281.333C150.884 278.11 158.679 272.924 159.598 272.924C159.859 272.924 162.727 271.714 165.971 270.234C169.215 268.755 173.682 267.068 175.897 266.485C178.112 265.904 180.287 265.221 180.73 264.969C181.173 264.717 181.898 264.442 182.341 264.355C182.784 264.269 186.228 263.227 189.993 262.04C193.758 260.851 198.108 259.742 199.658 259.574C206.892 258.788 238.524 251.051 240.267 249.64C240.748 249.252 243.497 248.337 246.377 247.606C276.317 240.023 294.268 209.664 278.201 193.785C274.769 190.394 273.763 190.86 273.763 195.84Z" fill="#FF0000"/>
</svg>
