<svg width="400" height="400" viewBox="0 0 400 400" fill="none" xmlns="http://www.w3.org/2000/svg">
<path fill-rule="evenodd" clip-rule="evenodd" d="M213.613 122.707C212.246 124.27 212.119 125.189 212.292 132.221C212.48 139.823 212.436 140.065 210.428 142.6C209.298 144.027 208.148 146.149 207.872 147.315C207.596 148.481 206.608 150.257 205.677 151.26C203.856 153.223 202.887 173.177 204.512 175.25C207.217 178.703 207.766 182.841 205.936 186C204.951 187.702 203.752 190.393 203.272 191.979C202.791 193.566 202.215 195.35 201.991 195.945C200.631 199.554 202.854 208.438 205.533 210.093C206.604 210.755 206.161 222.862 205.009 224.386C203.561 226.3 203.53 239.277 204.968 241.983C206.492 244.852 208.557 249.569 208.646 250.386C208.69 250.783 209.225 252.243 209.837 253.631C211.625 257.693 212.117 259.01 212.024 259.498C211.857 260.38 226.236 273.821 227.347 273.821C227.963 273.821 228.467 274.146 228.467 274.542C228.467 274.939 228.821 275.263 229.254 275.263C229.687 275.263 231.371 276.403 232.998 277.794C235.885 280.266 243.967 284.638 245.65 284.638C246.114 284.638 246.494 284.962 246.494 285.359C246.494 285.755 246.832 286.08 247.245 286.08C247.658 286.08 250.102 287.064 252.676 288.268L257.354 290.455L274.819 290.153C292.42 289.849 295.291 289.68 296.609 288.873C297.005 288.631 298.595 288.204 300.142 287.924C301.689 287.645 306.91 285.493 311.744 283.142C316.578 280.792 320.911 278.869 321.371 278.869C321.83 278.869 322.207 278.545 322.207 278.148C322.207 277.752 322.617 277.427 323.12 277.427C324.088 277.427 341.676 260.132 341.676 259.179C341.676 258.871 342.006 258.226 342.411 257.747C343.971 255.895 347.42 250.351 347.436 249.665C347.446 249.269 347.978 247.971 348.62 246.781C350.074 244.083 350.57 201.987 349.169 200.206C348.728 199.647 347.792 197.649 347.087 195.765C346.383 193.881 345.526 192.34 345.184 192.34C344.841 192.34 344.56 192.038 344.56 191.67C344.56 190.094 339.128 182.069 336.726 180.095C335.284 178.911 333.537 177.451 332.843 176.849C332.149 176.247 331.368 175.755 331.106 175.755C330.846 175.755 328.981 174.497 326.96 172.96C322.918 169.883 318.984 167.357 312.584 163.725C305.845 159.902 297.465 160.794 295.927 165.499C295.423 167.041 290.673 170.191 289.731 169.609C289.349 169.373 289.038 168.082 289.038 166.742C289.038 165.401 288.707 164.099 288.304 163.85C287.902 163.601 287.767 163.08 288.006 162.695C288.245 162.308 288.132 161.6 287.754 161.121C285.951 158.834 284.171 150.691 284.333 145.47C284.605 136.702 282.972 135.192 272.092 134.154C270.109 133.966 266.865 133.059 264.882 132.14C256.82 128.404 253.121 126.516 248.657 123.86L243.97 121.07L229.549 121.023C215.203 120.978 215.12 120.986 213.613 122.707ZM235.545 127.443C235.765 129.199 244.561 134.223 250.099 135.757C251.091 136.032 252.994 136.761 254.329 137.379C256.556 138.41 256.811 138.403 257.429 137.3C258.353 135.649 260.037 135.822 263.439 137.918C265.412 139.132 267.38 139.695 269.666 139.698C273.261 139.701 274.42 141.009 275.742 146.552C276.025 147.741 276.56 149.1 276.931 149.572C277.301 150.045 277.784 152.964 278.003 156.062C278.324 160.595 278.726 162.046 280.063 163.496C280.976 164.488 281.958 166.249 282.246 167.409C282.785 169.589 286.377 175.362 287.704 176.183C288.834 176.881 292.643 183.101 292.643 184.248C292.643 185.332 288.989 183.413 285.286 180.384C284.216 179.508 282.349 178.353 281.14 177.818C279.932 177.283 278.942 176.6 278.942 176.3C278.942 175.32 271.947 175.728 269.831 176.832C264.685 179.516 260.24 175.008 260.945 167.823C261.757 159.558 259.859 153.128 255.871 150.629C254.878 150.007 253.148 148.753 252.027 147.844C250.702 146.77 249.031 146.191 247.257 146.191C245.665 146.191 243.799 145.619 242.784 144.822C241.264 143.625 240.871 143.58 239.665 144.462C237.911 145.744 235.674 145.747 233.849 144.469C231.281 142.671 226.472 141.548 225.345 142.483C222.678 144.697 219.093 141.521 219.093 136.945C219.093 134.387 218.683 132.223 218.034 131.367C216.505 129.345 216.68 128.717 219.286 126.884C222.931 124.321 235.205 124.742 235.545 127.443ZM258.032 143.281C258.032 144.241 259.659 145.762 263.078 147.994C265.855 149.806 268.126 151.601 268.126 151.984C268.126 152.972 271.541 152.851 272.165 151.841C272.467 151.353 271.808 150.271 270.585 149.251C269.431 148.288 267.071 146.232 265.34 144.682C261.76 141.475 258.032 140.761 258.032 143.281ZM242.167 151.599C242.167 152.381 241.367 152.681 239.283 152.681C237.2 152.681 236.399 152.381 236.399 151.599C236.399 150.818 237.2 150.517 239.283 150.517C241.367 150.517 242.167 150.818 242.167 151.599ZM242.037 158.99C242.225 160.311 241.923 160.612 240.415 160.612C238.906 160.612 238.562 160.268 238.562 158.759C238.562 156.293 241.683 156.5 242.037 158.99ZM250.099 160.612C250.099 161.009 249.45 161.333 248.657 161.333C247.864 161.333 247.215 161.009 247.215 160.612C247.215 160.216 247.864 159.891 248.657 159.891C249.45 159.891 250.099 160.216 250.099 160.612ZM237.473 164.758C238.458 165.694 239.702 165.955 242.287 165.771C245.69 165.527 246.848 166.355 244.856 167.607C244.351 167.924 242.906 169.796 241.645 171.768C239.321 175.4 239.457 176.439 242.26 176.465C242.905 176.471 243.837 176.962 244.33 177.558C244.825 178.153 246.09 178.639 247.143 178.639C249.16 178.639 252.263 180.412 252.263 181.564C252.263 181.938 250.396 182.247 248.117 182.249C245.836 182.252 243.041 182.738 241.905 183.331C238.945 184.874 238.562 184.708 238.562 181.884C238.562 179.455 237.687 178.58 236.759 180.081C236.514 180.478 235.79 180.802 235.151 180.802C231.451 180.802 230.161 185.525 233.515 186.792C234.764 187.264 235.678 188.132 235.678 188.85C235.678 191.109 237.192 191.08 240.071 188.768L242.912 186.485L244.813 187.981C246.52 189.323 246.878 189.369 248.301 188.437C249.174 187.865 251.053 187.178 252.477 186.911C254.384 186.554 255.123 186.018 255.287 184.876C255.531 183.158 263.324 182.521 264.379 184.133C264.655 184.556 266.433 185.487 268.33 186.204C270.227 186.92 271.949 187.783 272.158 188.12C272.367 188.458 275.957 188.735 280.136 188.735C285.012 188.735 289.177 189.154 291.761 189.905C295.36 190.951 303.658 190.939 304.713 189.884C305.513 189.084 299.86 180.806 298.494 180.78C297.155 180.753 294.089 178.639 295.39 178.639C295.862 178.639 296.249 178.264 296.249 177.806C296.249 177.348 297.06 175.909 298.051 174.609C299.093 173.244 299.853 171.286 299.853 169.974C299.853 168.478 300.161 167.805 300.755 168.004C301.251 168.169 301.657 168.672 301.657 169.122C301.657 170.547 304.11 172.871 305.615 172.871C306.412 172.871 307.064 173.195 307.064 173.592C307.064 173.988 307.875 174.313 308.867 174.313C310.446 174.313 310.67 174.001 310.67 171.789C310.67 167.576 313.217 169.022 318.022 175.961C318.778 177.052 320.489 178.041 322.494 178.545C325.64 179.338 329.418 182.868 329.418 185.016C329.418 185.475 329.663 185.85 329.963 185.85C330.262 185.85 330.972 186.904 331.541 188.194C332.108 189.482 334.945 193.032 337.846 196.08C340.745 199.129 343.118 201.985 343.118 202.428C343.118 202.872 343.849 204.758 344.741 206.621C346.914 211.157 347.147 229.304 345.085 233.372C344.4 234.721 343.839 237.109 343.839 238.676C343.839 241.839 341.977 249.706 340.923 250.998C337.744 254.897 334.465 259.478 334.465 260.023C334.465 260.388 333.979 260.874 333.384 261.102C332.788 261.331 332.302 261.958 332.302 262.497C332.302 263.533 329.715 265.837 324.37 269.564C322.585 270.807 320.793 272.194 320.387 272.643C319.299 273.849 309.212 278.762 306.703 279.308C305.514 279.568 303.892 280.352 303.099 281.051C300.605 283.249 283.269 284.911 283.269 282.951C283.269 282.339 283.524 281.681 283.836 281.488C284.803 280.89 284.284 277.077 283.206 276.87C282.623 276.759 281.44 278.09 280.441 279.981C277.91 284.77 275.924 286.08 271.196 286.08C268.073 286.08 267.333 285.865 267.646 285.05C269.184 281.041 269.053 278.707 267.32 279.24C265.12 279.918 265.27 279.741 264.145 282.962C263.615 284.478 262.752 285.662 262.228 285.592C260.764 285.397 252.039 281.696 250.82 280.752C250.225 280.293 247.468 278.811 244.691 277.461C238.959 274.674 236.399 272.662 236.399 270.946C236.399 269.528 233.028 266.231 230.934 265.6C225.694 264.024 218.272 252.488 220.163 248.86C222.528 244.324 219.027 240.735 216.376 244.978C214.418 248.112 211.223 243.79 210.964 237.655C210.806 233.941 210.872 233.793 212.784 233.574C214.603 233.364 214.767 233.09 214.767 230.256C214.767 225.193 220.715 218.282 220.969 223.05C221.01 223.808 221.09 226.099 221.15 228.141L221.256 231.854L224.321 232.223C226.006 232.426 228.273 232.821 229.357 233.099C231.157 233.561 231.984 232.924 238.871 225.771C246.394 217.958 246.416 217.942 247.576 219.561C248.216 220.452 249.29 221.183 249.962 221.183C250.635 221.183 252.783 222.319 254.736 223.707C256.688 225.095 258.795 226.233 259.42 226.235C260.044 226.238 261.492 226.728 262.637 227.325C263.782 227.923 266.378 228.904 268.406 229.507C274.008 231.174 274.393 231.664 274.727 237.57C274.992 242.258 275.311 243.177 278.063 247.164C279.736 249.589 281.105 251.85 281.105 252.189C281.105 252.529 281.917 253.444 282.909 254.223C285.176 256.007 285.165 256.738 282.822 259.808L280.934 262.284H286.016C293.677 262.284 295.908 258.793 290.48 255.304C286.608 252.814 283.99 250.538 283.99 249.66C283.99 249.224 282.891 247.802 281.548 246.5C277.999 243.06 277.642 239.4 280.206 232.721C280.434 232.125 280.649 231.422 280.683 231.158C280.864 229.759 281.991 229.75 282.966 231.142C283.746 232.255 284.816 232.721 286.602 232.721C289.203 232.721 291.895 233.781 292.789 235.158C293.113 235.658 294.066 235.201 295.428 233.896C297.471 231.939 297.715 231.885 301.129 232.617C307.587 234.002 311.034 232.055 316.618 223.872C317.709 222.273 318.601 220.06 318.601 218.952C318.601 217.446 319.602 215.992 322.568 213.187C326.096 209.851 326.534 209.116 326.534 206.536V203.637L324.39 205.74C323.212 206.897 322.238 208.142 322.227 208.507C322.112 212.339 315.707 212.974 314.374 209.285C313.871 207.897 313.195 206.761 312.871 206.761C312.546 206.761 312.111 206.112 311.903 205.319C311.648 204.344 310.919 203.877 309.655 203.877C307.806 203.877 307.278 204.571 308.326 205.619C308.623 205.917 308.879 206.377 308.895 206.641C308.963 207.834 311.627 212.52 312.884 213.658C319.315 219.478 308.85 231.419 300.092 228.252C297.882 227.452 297.547 227.54 295.561 229.443C293.952 230.984 293.182 231.304 292.479 230.72C291.964 230.292 290.004 229.555 288.124 229.082C282.263 227.606 273.01 217.205 273.266 212.381C273.421 209.456 273.118 208.403 271.561 206.451C269.428 203.778 269.404 203.035 271.345 199.772C272.314 198.144 273.629 197.199 275.829 196.55C277.541 196.044 278.942 195.377 278.942 195.067C278.942 194.756 279.429 194.503 280.024 194.503C280.639 194.503 281.105 193.855 281.105 193.003C281.105 191.553 280.862 191.518 273.715 191.947C256.682 192.971 256.591 193.034 256.584 203.749L256.579 211.448L254.152 213.101C252.816 214.01 250.503 214.952 249.012 215.194L246.3 215.634L246.802 211.619C248.285 199.75 233.384 186.384 228.25 194.98C227.934 195.51 227.227 195.945 226.681 195.945C226.135 195.945 224.69 197.155 223.472 198.633L221.256 201.322V197.428C221.256 194.804 220.864 193.101 220.053 192.205C218.971 191.009 218.961 190.784 219.963 189.984C221.341 188.884 222.04 185.354 221.518 182.132C221.11 179.62 221.198 179.683 213.144 176.152C211.274 175.332 210.44 174.507 210.44 173.475C210.44 172.041 210.511 172.03 212.285 173.193C215.223 175.118 217.252 174.43 217.492 171.429C217.724 168.545 218.959 165.702 220.535 164.421C222.364 162.936 235.839 163.205 237.473 164.758ZM221.233 168.587C219.86 171.152 221.037 174.313 223.365 174.313C227.054 174.313 228.954 170.582 226.428 168.295C224.621 166.661 222.191 166.797 221.233 168.587ZM309.588 168.544C309.588 169.128 309.02 169.716 308.326 169.849C307.441 170.02 307.064 169.63 307.064 168.544C307.064 167.459 307.441 167.069 308.326 167.239C309.02 167.373 309.588 167.96 309.588 168.544ZM257.31 175.336C257.31 176.639 256.2 177.918 255.07 177.918C253.743 177.918 253.215 176.484 254.186 175.515C254.707 174.993 257.31 174.843 257.31 175.336ZM320.899 186.747C321.152 189.359 324.543 191.734 325.974 190.303C327.336 188.941 325.957 186.041 323.546 185.201C320.526 184.149 320.642 184.082 320.899 186.747ZM301.836 193.558C301.143 193.739 300.574 194.151 300.574 194.471C300.574 194.793 299.845 195.256 298.953 195.5C297.961 195.773 297.63 196.155 298.103 196.486C298.529 196.783 299.093 197.614 299.359 198.331C300.492 201.398 305.95 199.64 306.204 196.125C306.438 192.898 305.799 192.522 301.836 193.558ZM217.442 197.118C217.827 198.278 215.355 199.06 214.691 197.987C214.389 197.496 214.312 196.819 214.521 196.481C215.033 195.652 217.104 196.104 217.442 197.118ZM214.607 202.471C214.464 207.531 221.116 211.783 224.14 208.564C226.992 205.528 227.929 206.342 225.923 210.113C222.786 216.014 223.546 216.981 229.778 215.024C231.352 214.53 231.436 214.663 231.221 217.3L230.99 220.102L227.285 220.316C224.038 220.505 223.4 220.304 222.134 218.694C220.247 216.296 219.638 216.368 216.304 219.38C214.767 220.768 213.387 221.904 213.237 221.904C213.087 221.904 213.078 219.161 213.217 215.808C213.439 210.47 213.275 209.439 211.906 207.516C210.21 205.134 210.441 202.788 212.528 201.198C214.298 199.85 214.675 200.081 214.607 202.471ZM263.078 206.04C263.078 206.834 262.773 207.482 262.4 207.482C261.432 207.482 260.75 206.17 261.276 205.319C262.03 204.1 263.078 204.519 263.078 206.04ZM269.671 211.969C269.386 216.602 270.801 220.697 273.635 223.444C277.512 227.202 276.739 227.733 270.47 225.62C267.396 224.584 264.773 223.486 264.641 223.181C264.509 222.875 264.007 222.625 263.526 222.625C261.225 222.625 255.04 217.843 256.149 216.922C256.753 216.421 257.588 216.222 258.006 216.48C258.424 216.739 259.331 215.958 260.02 214.744C260.711 213.531 261.838 212.537 262.526 212.534C263.214 212.532 264.837 211.567 266.132 210.389C269.189 207.61 269.92 207.936 269.671 211.969ZM316.258 264.552C313.264 267.676 312.8 269.495 314.997 269.495C317.296 269.495 322.109 263.876 321.145 262.316C320.352 261.033 319.067 261.622 316.258 264.552ZM282.548 269.015C282.548 271.13 282.791 273.103 283.088 273.401C283.386 273.698 283.63 274.32 283.63 274.783C283.63 275.246 284.359 275.728 285.251 275.855C287.295 276.145 287.661 269.497 285.752 266.771C283.744 263.905 282.548 264.742 282.548 269.015Z" fill="#FF0000"/>
<path fill-rule="evenodd" clip-rule="evenodd" d="M102.639 111.579C101.052 112.346 99.3589 112.983 98.875 112.997C98.3911 113.01 96.2214 113.832 94.0537 114.824C91.8859 115.815 89.8989 116.627 89.6375 116.627C88.6241 116.627 78.483 122.01 78.483 122.547C78.483 122.861 78.0535 123.116 77.5278 123.116C75.261 123.116 59.8419 138.492 57.2806 143.306C56.753 144.298 54.8991 147.705 53.1608 150.877L50 156.646V177.558C50 195.517 50.1691 198.825 51.1932 200.992C51.85 202.381 52.8858 204.652 53.496 206.04C56.2992 212.421 63.0784 221.904 64.8352 221.904C65.1694 221.904 68.6198 224.278 72.5034 227.178C93.0004 242.49 101.372 243.656 107.347 232.031L108.257 230.258L110.26 232.657C111.361 233.977 112.09 235.503 111.881 236.051C111.67 236.598 111.814 237.046 112.198 237.046C112.583 237.046 113.284 239.074 113.755 241.553C114.227 244.032 114.899 247.144 115.248 248.468C115.598 249.793 115.7 251.356 115.475 251.942C115.25 252.528 115.412 253.716 115.833 254.582C116.256 255.447 116.8 257.659 117.043 259.497C117.524 263.134 118.855 264.784 121.927 265.551C123.019 265.824 123.911 266.354 123.911 266.731C123.911 267.108 124.228 267.22 124.617 266.98C125.006 266.74 126.547 266.852 128.042 267.229C129.537 267.605 132.383 268.282 134.367 268.734C136.35 269.185 142.642 271.87 148.351 274.703C154.592 277.799 159.622 279.847 160.969 279.839C190.004 279.68 188.185 280.463 188.931 267.816C189.497 258.216 190.04 255.073 191.132 255.073C191.525 255.073 191.672 254.619 191.459 254.063C191.245 253.508 192.265 251.657 193.725 249.952L196.379 246.851L196.181 236.052C196.049 228.858 195.687 224.898 195.099 224.188C194.613 223.604 194.319 223.093 194.447 223.055C194.574 223.017 194.33 222.072 193.906 220.956C192.782 217.999 192.96 216.053 194.576 213.611C195.364 212.422 196.011 210.737 196.014 209.868C196.017 209 196.343 208.088 196.74 207.843C198.383 206.827 197.57 195.673 195.579 191.921C193.321 187.669 192.9 180.09 194.755 177.152C196.054 175.096 196.512 160.759 195.347 158.649C193.705 155.674 189.618 146.333 188.792 143.667C187.514 139.541 175.865 128.17 167.71 123.087C157.674 116.833 156.272 116.051 151.312 113.955C148.734 112.864 146.196 111.56 145.672 111.054C143.919 109.367 106.27 109.825 102.639 111.579ZM175.983 175.298C177.725 176.621 176.247 177.916 172.98 177.929C168.924 177.946 166.995 179.325 165.924 182.972C163.69 190.575 167.396 197.387 173.766 197.387C178.07 197.387 174.111 203.33 169.34 204.031C166.798 204.404 160.686 203.227 160.686 202.365C160.686 202.063 160.28 201.382 159.784 200.85C152.481 193.024 154.706 183.63 165.293 177.588C170.96 174.354 173.91 173.723 175.983 175.298ZM172.223 190.417C172.223 190.945 172.009 191.592 171.749 191.853C171.096 192.505 169.259 190.889 169.749 190.095C170.364 189.1 172.223 189.343 172.223 190.417ZM137.035 200.992C137.802 200.992 139.707 203.083 139.751 203.975C139.764 204.228 138.72 204.651 137.431 204.918C128.801 206.697 127.506 206.021 131.363 201.75C132.752 200.214 134.319 198.198 134.847 197.271C135.787 195.623 135.813 195.645 136.032 198.289C136.155 199.776 136.606 200.992 137.035 200.992ZM62.1758 206.95C63.1834 208.234 64.4261 209.78 64.9362 210.384C65.4463 210.989 66.5132 212.729 67.3061 214.251C69.0026 217.507 76.6048 224.651 79.0174 225.257C80.4146 225.608 82.8097 228.708 82.8097 230.166C82.8097 230.656 76.3366 226.171 72.28 222.869C70.6524 221.545 68.9491 220.462 68.4934 220.462C68.0387 220.462 67.6666 220.145 67.6666 219.76C67.6666 219.373 66.693 218.553 65.5037 217.938C64.3134 217.323 63.3408 216.357 63.3408 215.792C63.3408 215.227 62.9346 214.505 62.4391 214.188C61.9435 213.871 60.9194 212.476 60.1635 211.088C59.4075 209.699 58.053 207.215 57.1543 205.565C54.4375 200.583 57.9345 201.548 62.1758 206.95ZM185.202 215.437C185.202 218.76 184.93 219.891 184.048 220.229C181.608 221.166 180.707 216.002 182.762 212.865C184.583 210.084 185.202 210.736 185.202 215.437ZM102.532 215.31C101.964 217.685 101.837 217.835 100.884 217.247C100.064 216.74 99.8263 213.781 100.546 213.06C101.636 211.971 102.971 213.481 102.532 215.31ZM129.879 216.425C132.633 217.776 133.049 219.9 130.844 221.352C129.452 222.269 122.908 221.928 121.027 220.84C120.035 220.267 118.413 219.386 117.421 218.882C115.354 217.833 114.563 216.909 114.548 215.522C114.53 214.009 126.373 214.707 129.879 216.425ZM154.016 225.243C157.193 226.094 155.741 231.278 152.327 231.278C150.319 231.278 149.851 232.474 149.107 239.496C148.384 246.327 147.787 247.138 145.631 244.222C142.697 240.254 141.757 229.836 144.334 229.836C144.843 229.836 146.361 228.7 147.706 227.312C150.183 224.757 151.091 224.459 154.016 225.243ZM184.878 242.446C185.462 246.339 184.924 248.053 183.221 247.729C181.766 247.451 181.273 245.13 181.928 241.639C182.596 238.075 184.292 238.539 184.878 242.446ZM121.387 259.41C121.387 260.956 119.291 260.732 118.988 259.154C118.803 258.19 119.096 257.897 120.06 258.083C120.79 258.223 121.387 258.82 121.387 259.41ZM133.675 263.775C134.397 264.941 133.658 265.29 131.572 264.767C130.536 264.506 129.869 264.004 130.087 263.649C130.64 262.755 133.099 262.841 133.675 263.775ZM155.025 270.577C155.025 270.953 154.676 271.378 154.25 271.52C153.824 271.662 153.475 271.238 153.475 270.577C153.475 269.915 153.824 269.491 154.25 269.634C154.676 269.775 155.025 270.2 155.025 270.577Z" fill="#0000FF"/>
</svg>
