<svg width="400" height="400" viewBox="0 0 400 400" fill="none" xmlns="http://www.w3.org/2000/svg">
<path style="fill:#0000FF;" d="M233.188,225.986c-14.352,20.822-36.585,24.115-57.995,17.057
	c6.705-3.529,10.705-9.058,14.352-15.057c-6.352-6.47-13.411-10.823-22.821-11.058c-10.352-0.235-20.469,1.529-30.703,2.47
	c-8.117,0.706-16.234,0.706-24.468-0.353c-6.352-0.823-12.234-2.588-18.351-4.235c-9.293-2.588-15.293-8.235-19.763-15.999
	c-4.117-7.293-8.587-14.469-10.705-22.939c-3.411-13.999-3.882-27.997-1.882-42.349c4.588,0.706,7.646,4.47,11.293,7.058
	c3.059,2.117,5.999,4.588,8.823,6.941c3.294,2.706,6.588,3.059,10.117,0.471c3.176-2.47,6.47-4.941,9.529-7.529
	c4.588-3.764,10.234-5.882,14.822-9.529c5.058-4,5.411-7.529,0.118-11.293c-5.176-3.647-10.94-6.117-16.94-8.352
	c-3.176-1.176-6.588-2.117-8.705-5.647c12.705-1.882,17.881-11.764,23.057-21.057c2.353-4.353,5.411-6.823,9.411-8.117
	c8.94-2.823,17.998-5.058,27.527-4.705c3.294,0.118,6.588-0.706,9.881-1.059c13.058-1.176,24.586,4.235,36.232,8.705
	c3.882,1.529,7.411,3.529,11.411,4.705c3.176-4.353-3.059-9.881,2.117-14.116c5.999,8.117,11.881,16.234,20.939,20.939
	c3.647,2,7.176,4.117,10.94,5.882c8.117,3.882,14.234,10.47,19.41,17.645c9.529,13.293,12.587,27.997,7.999,43.878
	c-0.941,3.294-2.353,6.588-4.705,9.176c-3.059,3.294-1.529,4.823,1.529,6.47c4.823,2.588,9.411,5.411,14.352,7.999
	c2.353,1.176,3.647,2.941,4.941,5.294c7.058,12.822,12.705,26.351,19.645,39.173c9.646,17.645,17.881,35.997,27.174,53.877
	c2.706,5.176,5.058,10.587,7.176,16.116c3.059,7.646,1.176,13.411-6.705,18.939c-8.823,6.235-17.763,12.117-28.703,13.999
	c-4,0.706-7.882,0.823-11.764,0.235c-4.117-0.706-7.411-2.823-9.411-7.176c-7.411-15.41-15.175-30.585-22.821-45.878
	c-7.646-15.41-15.293-30.821-23.057-46.231C235.541,228.574,234.953,226.809,233.188,225.986z M193.545,108.232
	c-1.882-0.235-2.235-1.882-3.059-3.176c-1.647-2.706-6.235-3.529-7.411-1.412c-3.411,6.235-8.117,11.881-10.587,18.587
	c-1.176,3.176-2.588,6.588-2.588,9.764c0.118,2.47,3.882,3.176,5.529,5.176c0.823,0.941,1.882,1.882,2.823,2.823
	c2.588,2.588,5.058,5.411,8.823,6.823c-4.353-4.941-6.47-11.175-10.47-16.234c-1.765-2.235-1.294-3.411-0.118-5.529
	c4.117-7.293,10.587-12.117,17.057-16.94c1.059-1.647,3.529-2.353,3.176-5.058c-1.882-0.588-3.764-1.176-5.764-1.765
	C192.957,103.173,193.192,105.761,193.545,108.232z M231.189,207.987c0.118,1.765,2.353-1.294,1.882,1.294
	c-0.235,1.529-0.706,3.411-0.118,4.705c3.764,8.117,7.529,16.351,12.469,24.115c0.588-1.647,0.941-2.941,1.647-4.117
	c3.294-5.647,4.353-11.058-0.941-16.234c-1.412-1.294-2.235-3.411-3.059-5.176c-1.647-3.647-0.235-6.941,1.765-9.764
	c1.765-2.353,4.705-2,7.646-1.294c6.941,1.647,11.058,7.058,15.41,11.881c5.058,5.647,9.999,11.058,17.175,14.116
	c4.941,2.117,11.999,0.588,15.057-3.294c-0.823-0.588-1.294,0.235-1.882,0.588c-7.529,3.529-14.822,2-20.704-4
	c-1.882-1.882-1.412-3.294-0.118-4.823c3.411-4.117,6.588-8.47,11.175-11.528c1.412-0.941,1.882-2,0.941-3.647
	c-3.411-6.117-4-13.881-12.352-16.94c-7.999-2.941-14.234-9.646-21.88-13.528c-3.647-1.882-5.882-4.941-7.882-8.117
	c-3.411-5.529-6.705-11.058-9.646-16.822c-1.647-3.294-3.764-4.47-7.411-4.235c-2.588,0.118-4.235,1.765-5.999,3.059
	c-1.412,1.059-2.588,2.117-5.058,2c3.411-5.882,7.058-10.587,14.94-9.411c-1.529-3.059-2.823-5.411-3.882-7.764
	c-6.352,1.529-11.058,5.176-16.351,8.705c4.941,8.94,9.881,17.41,14.352,26.351c3.882,7.764,7.882,15.293,5.647,24.586
	C232.365,195.047,232.012,201.635,231.189,207.987z M175.664,105.644c-8.47,2.117-16.351,5.647-24.586,7.646
	c-1.412,0.353-1.529,1.882-1.882,3.059c-2,6.823,0.471,13.411,1.647,19.998c1.647,10.117,6.47,19.175,9.529,28.939
	c2.235,7.293,5.294,14.469,2.235,22.469c-1.647,4.353,0.235,9.058,3.647,11.411c2.353,1.647,14.469,2.941,16.116,1.765
	c0.118-0.118,0.235-0.235,0.235-0.353c1.882-4.823,5.058-9.646,3.294-14.822c-2.353-6.705-5.058-13.528-8.94-19.528
	c-4.235-6.588-7.764-13.293-10.47-20.586c-3.176-8.587-3.294-17.057,0.941-25.527C169.665,115.055,171.547,109.761,175.664,105.644z
	 M168.841,139.994c2.353,4.47,3.882,9.293,6.941,13.411c5.764,7.764,11.646,15.41,15.41,24.351
	c2.706,6.235,6.117,12.705,3.647,19.763c-0.941,2.706-0.353,4.941,0.588,7.058c2.47,5.176,6.941,8.94,10.94,13.763
	c3.647-9.529,7.411-18.116,5.529-27.997c-2-10.234-6.705-18.587-14.822-25.057c-6.941-5.529-15.881-8.117-21.175-15.999
	C173.664,145.993,171.312,142.817,168.841,139.994z M333.885,303.273c-0.823,0.118-1.176,0.118-1.412,0.353
	c-8.705,5.176-17.175,10.94-26.586,14.705c-2.47,0.941-3.647,0.941-4.705-1.647c-4.47-10.705-11.528-20.116-16.469-30.585
	c-6.705-14.469-14.469-28.35-21.88-42.467c-2.235-4.235-3.411-5.411-6.941-7.529c1.529,5.764,3.882,11.411,5.764,17.057
	c2.588,7.999,6.823,15.646,10.352,23.527c5.882,12.822,12.705,25.174,19.057,37.761c1.059,2.117,3.176,3.647,3.176,6.352
	c-1.882,1.882-4.47,0.471-6.588,1.412C296.477,328.682,328.003,315.742,333.885,303.273z M211.426,132.583
	c4-4.941,8.587-8.705,14.705-10.234c-0.706-2-1.176-3.411-1.647-4.823c-3.294,1.647-7.058,1.059-9.881,3.294
	c-0.118,0.118-0.588,0-0.823-0.471c-1.412-2.706-3.059-0.471-4.353,0.118c-1.647,0.706-2.941,2.47-2,4.353
	C208.72,127.171,208.955,129.995,211.426,132.583z M198.015,112.82c4.235,2.117,8.352,2.706,12.352-1.176
	c-2.941-1.176-4.941-5.176-9.058-3.764c0.235,2.47,2.588,1.059,2.588,3.059C202.485,113.173,199.544,109.879,198.015,112.82z
	 M249.069,112.231c-2.235,0.588-4,1.882-3.764,4.117c0.235,2.117,1.882,2.941,4.117,2.941c2.588,0,3.529-2,3.411-3.529
	C252.716,113.996,250.951,112.584,249.069,112.231z M124.61,83.646c-0.588-1.882-1.529-3.059-3.647-3.176
	c-1.882,0-2.706,0.941-2.588,2.706c0.118,1.882,1.176,3.059,2.823,3.294C123.198,86.822,124.022,85.293,124.61,83.646z
	 M68.145,153.522c1.765-0.588,3.411-1.647,3.411-3.411c0-1.647-1.412-2.706-3.294-2.706c-1.765,0-2.706,0.706-2.706,2.588
	C65.557,151.875,66.733,152.816,68.145,153.522z M191.78,114.231c-0.471,1.882-0.706,3.647,1.647,4.117
	c1.529,0.235,2.588-0.823,2.353-2.353C195.309,113.643,193.545,113.878,191.78,114.231z M135.08,86.351
	c-0.118-1.412-0.706-2.235-2.117-2.235c-1.294,0-2.117,0.706-2.235,2.117c0,1.294,0.706,2.117,2.117,2.235
	C134.256,88.469,134.962,87.645,135.08,86.351z M160.607,177.873c-0.118-1.294-0.823-2.117-2.235-2.117
	c-1.294,0-2.117,0.823-2.117,2.117s0.823,2.117,2.117,2.117C159.783,179.99,160.489,179.167,160.607,177.873z
	 M265.421,193.871c0.471,2.823,0.235,5.764-4.588,5.529c-4.705-0.235-7.646-2.823-7.764-7.293
	c-0.118-4.235,1.765-5.882,6.588-5.882C265.185,186.225,265.421,186.578,265.421,193.871z"/>
</svg>
